<?xml version="1.0" encoding="UTF-8" standalone="no"?>
<!-- Created with Inkscape (http://www.inkscape.org/) -->

<svg
   xmlns:dc="http://purl.org/dc/elements/1.1/"
   xmlns:cc="http://creativecommons.org/ns#"
   xmlns:rdf="http://www.w3.org/1999/02/22-rdf-syntax-ns#"
   xmlns:svg="http://www.w3.org/2000/svg"
   xmlns="http://www.w3.org/2000/svg"
   xmlns:sodipodi="http://sodipodi.sourceforge.net/DTD/sodipodi-0.dtd"
   xmlns:inkscape="http://www.inkscape.org/namespaces/inkscape"
   width="88mm"
   height="130mm"
   viewBox="0 0 311.81084 460.62958"
   id="SvgDepartamento"
   version="1.1"
   inkscape:version="0.91 r13725"
   sodipodi:docname="DEP_12.svg">
  <defs
     id="defs3658" />
  <sodipodi:namedview
     id="base"
     pagecolor="#ffffff"
     bordercolor="#666666"
     borderopacity="1.0"
     inkscape:pageopacity="0.0"
     inkscape:pageshadow="2"
     inkscape:zoom="1.4"
     inkscape:cx="144.10929"
     inkscape:cy="349.97377"
     inkscape:document-units="px"
     inkscape:current-layer="layer1"
     showgrid="false"
     inkscape:window-width="1366"
     inkscape:window-height="705"
     inkscape:window-x="-8"
     inkscape:window-y="-8"
     inkscape:window-maximized="1" />
  <metadata
     id="metadata3661">
    <rdf:RDF>
      <cc:Work
         rdf:about="">
        <dc:format>image/svg+xml</dc:format>
        <dc:type
           rdf:resource="http://purl.org/dc/dcmitype/StillImage" />
        <dc:title></dc:title>
      </cc:Work>
    </rdf:RDF>
  </metadata>
  <g
     inkscape:label="Capa 1"
     inkscape:groupmode="layer"
     id="layer1"
     transform="translate(0,-591.73247)">
    <path
       inkscape:connector-curvature="0"
       style="fill:#b3b3b3"
       d="m 135.15255,602.37712 c 10.6125,-2.9 21.3,-5.6125 31.5125,-9.775 1.25,3.875 1.9625,7.9375 3.55,11.7125 1.325,1.6375 3.0875,2.8625 4.6125,4.35 -1.6125,1.3375 -3.775,2.125 -4.9125,3.9375 -0.975,3.65 -0.575,7.525 -1.5375,11.175 -2.3875,4.1 -7.5125,6.7 -7.875,11.825 -0.5875,6.0125 -0.5625,12.6 3.15,17.7125 5.7375,9.8125 17.075,13.9125 23.975,22.725 0.0125,3.5375 0.025,7.0875 0.05,10.6375 -4.8625,2.0375 -10.25,3.5125 -13.9375,7.5125 -3.2625,3.4375 -6.9875,6.425 -10.1125,9.975 -3.6125,4.1625 -3.275,9.9875 -3.35,15.1375 0.1625,4.275 -0.4125,9.5375 3.5375,12.3875 6.8,5.325 11.875,12.35 17.875,18.4875 5.4875,7 10.1875,14.6 15.6625,21.65 -2.6625,3.0375 -4.95,6.375 -6.7625,9.9875 6.375,0.75 12.675,-0.6625 18.3625,-3.5625 8.475,-4.3375 18.225,-3.3375 27.3125,-5.2625 3.65,4.6125 4.2875,10.425 3.85,16.125 -1.3125,1.6125 -2.6125,3.225 -3.8875,4.8625 4.7125,3.5 9.975,6.1625 14.7625,9.5375 4.625,3.375 5.25,9.45 5.725,14.7125 8.3125,0.875 15.9,-2.975 23.9,-4.425 5.45,-0.9625 9.85,-4.4625 14.4375,-7.3 4.175,0.5375 8.4375,0.525 12.5125,-0.6625 -1.2625,2 -2.65,3.9625 -3.425,6.2125 -1.4125,10.2 -0.7125,21.3375 5.7375,29.8375 -0.8625,3.1875 -1.15,6.6125 -2.775,9.5375 -4.2875,3.6125 -10.3375,5.3 -13.175,10.5125 -3.9125,7.2375 -2.375,15.75 -2.7125,23.6375 -0.475,6.2125 2.35,12.025 5.775,17.025 2.0875,3.0875 6.2625,2.8625 9.5125,3.6125 -1.9375,5.2375 -3.2,10.675 -4.8875,15.9875 -0.95,3.6125 -5.2875,3.9875 -8.1,5.5 2.5125,7.1875 6.1875,14.7 4.05,22.4875 -2.225,1.0375 -4.425,2.1 -6.6375,3.1375 -0.7375,-1.4375 -1.4625,-2.8625 -2.175,-4.2875 -3.7,0.2875 -7.7875,-0.5 -11.05,1.6375 -4.15,2.45 -7.4375,6.0375 -11.3875,8.7625 -3.1375,2.2625 -6.8,5.3625 -6.225,9.6875 2.1625,4.1625 7.2,4.6375 11.2875,5.5125 6.325,0.9125 10.85,6.1 16.925,7.7375 2.85,-2.2 5.2375,-4.9625 8.25,-6.975 2.1,0.7875 2.6875,3.2125 3.3625,5.1125 2.3125,6.6 -0.225,13.4625 -1.4,20.02498 -8.0125,-1.56248 -16.1875,-1.88748 -24.2875,-2.83748 -2.475,4.03748 -5.1375,7.96248 -7.4125,12.11248 -2.9,5.2375 -2.8875,11.3875 -4.1,17.1125 -1.6625,7.75 -3.1,15.5625 -5.2125,23.2125 -3.9625,0.2625 -7.8625,1.1625 -11.8125,1.3125 -7.2625,-11.5125 -11.5125,-24.775 -19.2375,-36.025 -2.9125,-3.675 -6.1,-8.575 -11.3,-8.6875 -8.0375,-0.038 -16.3375,-0.975 -23.975,2.05 -3.825,1.8 -6.7875,-1.9 -8.65,-4.7 0.7875,-2.625 3.025,-4.43748 4.65,-6.53748 3.0625,-3.4 5.1625,-7.4875 7.2,-11.5375 -3.325,-5.25 -9.45,-7.0875 -13.825,-11.0625 -0.8125,-4.975 -0.3125,-10.05 -0.45,-15.075 -4.5375,1.85 -9.0375,3.8 -13.575,5.65 -3.2625,-1.825 -6.2875,-4.85 -10.1625,-5.0625 -4.7875,0.85 -10.3625,3.5625 -11.4,8.7875 -1.575,8.075 -0.55,16.4 1.1625,24.3625 -4.7875,1.6125 -9.55,3.2875 -14.125,5.4375 -2.3875,-1.825 -5.35,-3.4375 -6.2375,-6.525 -1,-3.7 -0.575,-7.575 -0.6375,-11.35 4.75,-4.9625 9.775,-9.875 16.325,-12.3625 2.85,-6.6875 -0.475,-13.675 -4.2125,-19.225 -4.65,-5.05 -11.9125,-5.975 -18.4,-5.325 -4.025,-0.2875 -9.65,1.3125 -11.95,-3.075 -0.625,-2.675 -0.475,-5.4375 -0.5625,-8.15 -4.575,-3.975 -9.424999,-7.65 -14.624999,-10.7625 -5.6375,-10.225 -1.9125,-22.1875 1.475,-32.5 1.8125,-3.325 -2.45,-5.275 -4.1125,-7.5625 -0.0875,-2.225 -0.1625,-4.425 -0.225,-6.625 -2.95,-1.0375 -5.8875,-2.0375 -8.8375,-3.025 -0.35,-2.7125 -0.25,-5.4375 0.1125,-8.1375 3.4,-0.6125 6.8,-1.15 10.2375,-1.55 1,-3.85 1.8375,-7.725 2.7125,-11.6 1.525,-2.025 3.025,-4.075 4.55,-6.0875 -0.0625,-8.2 0.0625,-16.4 0.125,-24.6 0.25,-6.925 -4.1375,-13.45 -10.4,-16.2875 0.8875,-1.9375 1.8125,-3.8625 2.775,-5.775 0.075,-3.6875 -0.3125,-7.4625 0.5375,-11.075 2.3,-3.7875 7.624999,-0.1375 11.162499,-0.175 0.8375,-4.2125 1.425,-8.5875 0.75,-12.8625 -1.9,-3.2375 -4.912499,-5.575 -7.574999,-8.125 -0.0125,-3.5625 1.5875,-6.6375 4.174999,-9 -0.2625,-7.3375 -2.812499,-15.2 -9.574999,-18.9875 -3.6875,1.3375 -7.65,3.6 -11.65,2.1375 -7.05,-2.3 -12.6125,-7.5125 -17.35,-13.0125 -2.725,-2.9875 -7.075,-6.25 -11.2,-4 -6.7625,2.75 -13.85,6.95 -21.4125,4.7625 -2.4875,-8.875 -5.175,-17.925 -11.4625,-24.9625 -7.7625,-0.7625 -11.0250003,-8.2875 -15.2250003,-13.7125 1.4,-0.9375 2.825,-1.875 4.2375,-2.8125 0.2125,-4.375 0.5125,-8.9625 3.0625003,-12.7125 3.7125,-5.9375 7.4,-12.1875 7.725,-19.4 -1.0875,-0.2125 -3.2375,-0.6375 -4.3125,-0.8625 2.8125,-6.45 9.8125,-9.65 12.225,-16.325 -0.7625,-3.7 -1.7375,-7.575 -0.8375,-11.3375 0.85,-2.95 2.4125,-5.625 3.7875,-8.35 4.275,2.425 8.5,4.9125 12.85,7.2 11.75,-5.4875 23.575,-10.85 35.0625,-16.925 4.9875,-2.9625 10.9125,-1.6375 16.275,-0.7 7.149999,1.05 12.949999,5.6875 19.387499,8.6 6.8625,-6.425 15.3,-11.125 24.4,-13.5125 z"
       id="DEP_12" />
  </g>
</svg>
