<?xml version="1.0" encoding="UTF-8" standalone="no"?>
<!-- Generator: Adobe Illustrator 19.2.0, SVG Export Plug-In . SVG Version: 6.00 Build 0)  -->

<svg
   xmlns:dc="http://purl.org/dc/elements/1.1/"
   xmlns:cc="http://creativecommons.org/ns#"
   xmlns:rdf="http://www.w3.org/1999/02/22-rdf-syntax-ns#"
   xmlns:svg="http://www.w3.org/2000/svg"
   xmlns="http://www.w3.org/2000/svg"
   xmlns:sodipodi="http://sodipodi.sourceforge.net/DTD/sodipodi-0.dtd"
   xmlns:inkscape="http://www.inkscape.org/namespaces/inkscape"
   version="1.1"
   id="SvgMunicipio"
   x="0px"
   y="0px"
   viewBox="0 0 1000.1 828.7"
   style="enable-background:new 0 0 1000.1 828.7;"
   xml:space="preserve"
   inkscape:version="0.91 r13725"
   sodipodi:docname="MUN_ID0708.svg"><metadata
     id="metadata10"><rdf:RDF><cc:Work
         rdf:about=""><dc:format>image/svg+xml</dc:format><dc:type
           rdf:resource="http://purl.org/dc/dcmitype/StillImage" /></cc:Work></rdf:RDF></metadata><defs
     id="defs8" /><sodipodi:namedview
     pagecolor="#ffffff"
     bordercolor="#666666"
     borderopacity="1"
     objecttolerance="10"
     gridtolerance="10"
     guidetolerance="10"
     inkscape:pageopacity="0"
     inkscape:pageshadow="2"
     inkscape:window-width="682"
     inkscape:window-height="480"
     id="namedview6"
     showgrid="false"
     inkscape:zoom="0.28478339"
     inkscape:cx="500.04999"
     inkscape:cy="414.35001"
     inkscape:window-x="0"
     inkscape:window-y="0"
     inkscape:window-maximized="0"
     inkscape:current-layer="svg" /><g
     id="g3"><path
       id="MUN_0708"
       d="m 1006.3,259.4 3.1,1.8 6.7,2.9 3.9,2 2.7,5.5 2,6.7 1.6,3.1 1.8,3.1 2,3.1 1.6,2.5 1,2.2 0.6,4.7 -0.2,3.3 0,2.9 0.2,2.5 1.6,1.8 4.3,2.7 3.1,2.2 1.4,1.6 2.2,3.3 0.2,4.1 0.4,2.9 1.6,7.8 0.4,1.6 2.5,4.3 3.3,2.9 2,2.5 3.3,3.3 3.7,2.9 4.7,3.3 5.1,3.5 2.5,4.7 2.5,3.7 0.6,1.4 -1,5.9 -2.9,7.6 -3.7,7.1 -0.4,0.6 -10.2,12.9 -6.1,4.9 -4.5,8.4 -12.3,10 -2.2,1.6 -6.9,4.9 -5.1,4.5 -7.2,9.6 -2.7,3.9 -12.5,2.9 -12.9,2 -12.9,3.9 -13.1,9.6 -6.3,0.6 -7.4,0 -5.7,3.7 -8.2,8.6 -9.4,12.3 -6.7,7.8 -4.7,1.4 -6.9,-3.7 -9.8,-4.9 -12.7,0.8 -5.1,2.2 -4.9,1.2 -11.4,-7.8 -12.3,-13.1 -1.2,-0.8 -9.2,0.8 -2.5,2.7 -2.2,8.2 -9.6,14.5 -11.4,4.1 -21,-0.6 -8.8,3.1 -9,0.6 -12.1,0 -6.5,-0.2 0,0 -3.5,1.4 -5.1,10 -8.6,8 -11,18.2 -3.1,4.7 -7.2,6.5 -9.2,6.3 -8,3.9 -5.5,10.4 -1.6,2.7 -6.3,8.2 -6.3,5.3 -2,1.6 -1.6,2 -2.9,9 6.5,9.6 -3.3,4.7 -2.2,2.7 -11.2,3.5 -7.8,2 -1.6,7.8 -3.3,5.7 -1.4,2.5 1.8,10.2 -1,12.5 0,2 -3.9,4.5 -3.7,-0.6 -2.7,-0.6 -7.8,-6.3 -3.9,0.4 -0.7,0.2 -5.5,9 -7.2,11.4 -7.8,6.7 -3.1,2 -8.8,4.3 -1.8,2.2 -3.3,13.5 -1.6,4.1 -7.8,11.6 -10,9.4 -3.5,7.2 0.8,10.6 -0.6,7.6 -2.9,4.5 -2.9,2.7 -8.4,1.6 -11.9,1 -3.1,6.9 -1.4,4.9 -0.6,1.8 -5.9,-0.2 -5.9,-1 -10.6,-5.7 -8.2,5.5 -6.5,8.6 -6.1,2.2 -6.7,-1.4 -7.4,-2.5 -7.2,-3.5 -0.8,-1.8 0.2,-10.4 -2,-6.9 -2,-2 -5.3,3.3 -6.7,4.9 -11.4,5.1 -2,0 -4.5,2.2 -2,1 -4.6,1.6 -1.6,0.4 -1.4,1.2 -1.8,1.8 -3.7,3.7 -0.8,1.6 -2.5,3.9 -0.6,5.3 0,1.8 0.2,5.5 -0.4,4.1 -1.4,1.4 -2.5,0.8 -4.3,0.4 -6.7,0.6 -3.3,0 -5.7,-2.7 -5.5,-3.5 -5.7,-3.3 -3.3,-2 -3.5,-1.2 -3.1,-0.2 -2.7,0.4 -3.9,1.2 -2,0.6 -3.3,3.9 -2.7,3.1 -4.1,3.9 -0.8,0.8 -4.3,2 -5.7,-0.2 -4.3,-2.7 -2,-3.9 -1,-3.1 -0.8,-2.7 0,-1.6 0,-2.9 0.2,-2.2 0,-1 -5.1,-1.8 -5.1,-1.8 -4.3,-1.4 -1.8,-0.8 -1,-0.4 -1.4,-0.4 -3.5,-0.8 -3.9,-0.6 -2.2,-0.6 -3.3,0 -2.5,0.6 -4.7,1.6 -5.5,2.5 -5.5,2.2 -3.3,1.2 -3.5,0.2 -1,-0.2 -3.9,-1.4 -1,-1.2 -3.5,-6.1 -0.4,-5.7 0.6,-5.3 0.2,-3.1 -3.7,-7.4 -3.3,-5.5 -6.5,-3.5 -2.2,1 -3.3,2.2 -1.6,4.5 -1,1.8 -2.7,4.9 -1.8,2.5 -3.1,4.7 -2,2.9 -2.7,3.3 -4.1,4.7 -3.5,2 -3.3,1.2 -3.9,0.2 -4.1,-0.4 -1,2 -1,3.1 -0.8,3.1 -2.7,8 -5.1,8.8 -4.1,6.5 -4.7,4.3 -5.1,2 -9.2,5.1 -7.8,4.1 -6.7,4.1 -9,6.5 -1.2,-1.2 -0.8,-1.8 -0.4,-1.4 -0.8,-2 -1.2,-1.6 -1.8,-1 -2,-0.4 -2.9,0 -3.9,0.4 -2.7,0.4 -3.7,0.4 -1.8,-0.6 -0.6,-1.4 -0.2,-1.4 -0.2,-1.8 -0.6,-1.4 -1.2,-1.2 -1.2,-1.6 -0.4,-1.8 -0.2,-2.2 -1.6,-2.9 -1.8,-1.8 -2,-1.6 -2.2,-1.8 -1,-2 -0.2,-2 0.4,-2.2 0.6,-1.6 1.2,-2 2,-2.7 3.1,-2.9 0.8,-1.4 1.8,-1.2 2.9,-1.4 3.9,-1.8 4.9,-1.8 4.5,-1.8 0.4,-1.8 0.2,-2.7 0.2,-4.1 0.2,-3.5 0.4,-2.5 0.2,-0.6 1,-4.3 0.2,-3.7 -1.2,-2.7 -1.2,-2.2 -1.8,-2.7 -1.4,-2.9 -0.8,-2.2 -0.2,-3.5 0.6,-5.3 1.2,-2.7 1.2,-2.9 0.4,-4.1 0.6,-10.4 0.4,-4.7 0.2,-0.8 0.4,-2.5 3.7,-3.3 0.2,-1.2 0.4,-2.5 -1,-3.3 -0.6,-2.5 0,-2.9 0.6,-1.4 1.4,-2.2 1.6,-1.6 4.1,-2.7 1,-2 0.2,-1.8 0,-1.4 -0.6,-1 -1.2,-0.6 -2,-0.6 -2.5,-1 -2.7,-1.6 -2.5,-2 -2.9,-1.4 -3.9,-1.8 -3.9,-1 -3.5,-1 -3.7,-1.2 -2.5,-1.4 -2,-1.8 -1,-1.6 -1.6,-3.7 -1.6,-3.1 -2,-1.8 -2.9,-1.8 -2.2,-0.4 -1.6,0 -1.6,-0.8 -1.6,-0.2 -1.8,0 -1.8,0 -2,-1 -2,-2 -2.2,-2.9 -2.2,-5.7 -2,-7.2 -1,-1.6 -1,-1.6 -1.6,-0.8 -2,-0.4 -3.5,0.2 -2.2,0.2 -1,0 -0.8,-1.2 -1,-1.8 -0.2,-2.9 0.2,-1.4 1.4,-2.7 1.4,-2.2 0.4,-2.5 1,-2.7 0.6,-3.3 1.8,-2.5 0.8,-1 3.1,-0.8 2.2,0.2 2,0.8 2,0.4 3.3,-0.6 2.7,-1.4 3.9,-2.7 3.7,-2.7 2.5,-1.6 1,-0.8 0.8,-1.6 0.6,-2 0.8,-2.9 1.4,-1.2 1.8,-1.6 2,-2 1.6,-2.2 1.2,-3.1 1.2,-3.3 1.2,-3.3 0.4,-3.7 0.4,-3.5 0.2,-6.3 -0.2,-3.3 0.8,-3.1 1,-1.6 1.6,-1 2,-1.2 2.2,-0.6 2.2,-1.2 1.2,-1.8 1.4,-1.6 0.8,-2.5 1.2,-3.9 1.8,-3.7 2.5,-3.3 2.5,-2 3.1,-3.5 0.8,-0.2 3.7,-0.6 8.2,-6.5 3.1,-2.9 4.5,-3.3 2,-2.2 1.6,-2.2 2,-5.3 2,-2.2 2.9,-1.6 3.1,-1.8 2,-0.8 2.7,-1 1.8,-0.8 2.7,-3.1 2.2,-2.7 3.3,-4.5 3.5,-2 1.2,-0.8 0.2,-0.4 0.6,-6.9 -0.6,-5.9 -2.2,-8.2 -1.8,-7.8 1,-5.5 -2.5,-7.4 -0.4,-3.1 0.6,-1.8 1.4,-1.2 1.8,-1.8 1.8,-1.8 1.4,-1.4 0.8,-1 0.2,-0.6 0,-1.4 0.2,-2.9 -2.9,-3.9 -2.9,-1 4.3,-6.5 -0.6,-6.9 -4.3,-10.4 -3.9,-0.8 -0.6,-1 -1.8,-2.2 -1,-1.6 -4.1,-2 -2.9,-4.1 -1.2,-1.8 -1.4,-1.8 -1.8,-2.5 -0.8,-1.8 -0.4,-2.5 -0.2,-2 0.6,-2.9 0.8,-4.9 -0.8,-3.3 -0.8,-2.7 -1.2,-1 -2,-0.6 -2.2,0 -2,0.4 -2,-0.2 -1,-0.8 -2.9,-1.8 -3.3,-1.8 -4.5,-2.2 -3.9,-1.6 -2.9,-1.2 -3.5,0 -1.2,-0.6 -0.6,-0.6 -0.4,-1.2 -0.6,-1.6 -0.8,-0.4 -1.8,-0.2 -5.3,0.2 -3.5,0 -1.6,1.2 -1.4,1.4 -1.6,0.2 -1.2,-0.8 -1.2,-1.2 -1.2,-1.6 -0.4,-5.3 -3.7,-1.4 -0.2,-1.6 -0.2,-2.7 -0.4,-2.7 -0.2,-1 -0.8,-1.8 1,-1.6 1,-1.8 0.8,-1.6 1.2,-1 3.1,-1.8 2,-1.8 2.2,-1.8 3.5,-3.5 2.7,-1.4 3.3,-1.6 1.2,-1.4 0.8,-1.2 0.2,-1 0,-1.6 -0.6,-1.6 -1.2,-0.8 -1.6,-1.2 -2,-1.2 -1,-1.2 -2.5,-2.5 -2.2,-3.1 -1,-2.5 -1,-2.2 -1.4,-3.5 -1,-3.1 -0.8,-2.2 -0.6,-2.9 -0.4,-2 -0.6,-1.2 -1.4,-1.6 -2.7,-1 -9,-8.2 -1,0 -1.2,-0.4 -1.6,-0.4 -2,-0.6 -2.7,-1.6 -1.8,-1.2 -1.6,-1.4 -1.8,-0.6 -3.1,-0.6 -2.7,0 -5.1,0.4 -3.5,0.2 -2,-0.4 -1,-0.8 -1.4,-1.4 -1,-2.2 -0.2,-1.8 0,-3.3 0,-2.9 0,-2.5 0.2,-4.9 0.6,-4.7 0.2,-2.5 0.2,-2 -0.4,-1.8 -0.4,-3.3 -0.2,-2 -0.8,-2 -2.5,-4.7 -1.4,-2.7 -0.6,-1.8 -0.2,-1.8 0.4,-1.8 1,-2 2.9,-5.5 2.2,-3.3 4.3,-6.3 1.6,-2.7 2.2,-2.9 1.8,-1.6 6.1,-3.9 2.9,-2.2 1.2,-1 -17.8,-72.7 11.4,1.4 9.2,0.4 14.1,-1.4 10.4,9.4 13.5,11.6 8.4,5.5 8.8,1.6 4.1,2 3.9,4.3 5.9,0.4 10,-2.2 7.4,-7.2 6.3,-0.6 4.7,0.4 24.1,-8 11.6,-0.8 10.8,2.7 13.7,4.5 7.4,0.8 6.1,-1 5.5,-1.2 2.7,-0.2 2.7,-6.5 2,-4.1 3.7,-8.4 -1.2,-3.9 -0.8,-7.2 -4.9,-8.6 -4.7,-4.7 -3.7,-4.7 17.2,-4.9 24.5,-7.2 8.4,-5.5 9.2,-4.1 12.3,-0.6 3.9,3.1 8.2,3.1 6.9,0.4 5.1,-2.7 3.1,-0.4 2.7,1.8 4.9,0.2 3.1,-1.2 4.7,0.8 5.9,-0.6 5.7,-2.2 1.4,-2.9 8.6,-2.5 4.1,1.2 4.5,-1.4 4.3,-1.4 1.8,-0.2 0.6,0.4 1.8,1.2 1.4,2.2 1.8,1.8 1.6,0.2 1.6,2.9 1.6,-0.6 1.6,0.2 1.4,-1 5.3,1.6 9.6,0.2 1.4,-1.6 7.4,-2.5 8,1.2 6.9,0.4 0,0 2,2.2 5.7,-0.2 5.1,-5.1 3.7,-6.9 0.4,-9.6 6.9,-13.5 8.8,-3.3 10.8,0.6 8,-0.4 9.2,-1 6.9,3.1 4.3,4.7 10.4,0.2 6.3,3.3 2.9,5.9 4.5,4.9 2.9,4.1 17.2,7.2 2.2,3.7 -1,6.5 0.4,7.6 7.2,-0.4 8.6,3.1 4.7,5.3 2.5,5.3 9.6,5.5 0.6,3.7 -0.6,7.6 1.4,3.9 3.7,1 3.7,2.7 6.1,2.7 3.5,1.8 8.8,2.2 3.7,-1.2 3.1,4.3 9.4,4.5 5.1,0.6 10.8,0.8 6.9,-2.5 11.9,-1.6 12.3,4.9 2,6.3 -2.5,11 8.6,17 -3.9,10 9,6.1 6.3,9.6 7.8,10.4 0,7.8 -0.2,7.6 7.2,-3.9 11,-4.7 9.4,2 11.6,-3.3 8.6,-10.8 4.3,-5.9 3.9,-1.2 4.3,-0.8 3.7,1 2.5,0.6 3.9,-4.3 5.7,-2.7 9.6,-0.6 10.6,10 2.2,2.2 11.9,2.9 3.5,0.4 10.2,7.6 9,7.8 -0.8,8 1,10 6.5,0.4 3.7,0.4 3.9,0.2 5.9,2.2 2,1.4 1.8,1.6 2.9,2 3.9,0.8 3.5,-0.8 8,-0.8 12.1,-4.5 1,0 9.8,-0.6 7.4,1.4 0.6,1.4 7.8,5.5 0.4,0.4 6.3,14.9 3.3,-1.8 4.9,-8 2.2,0.8 3.7,3.3 2,3.7 1.8,5.9 10.8,-2.2 5.2,-5.3 z"
       inkscape:connector-curvature="0"
       class="DEP_07 ZON_03" /></g></svg>