<?xml version="1.0" encoding="UTF-8" standalone="no"?>
<!-- Generator: Adobe Illustrator 19.2.0, SVG Export Plug-In . SVG Version: 6.00 Build 0)  -->

<svg
   xmlns:dc="http://purl.org/dc/elements/1.1/"
   xmlns:cc="http://creativecommons.org/ns#"
   xmlns:rdf="http://www.w3.org/1999/02/22-rdf-syntax-ns#"
   xmlns:svg="http://www.w3.org/2000/svg"
   xmlns="http://www.w3.org/2000/svg"
   xmlns:sodipodi="http://sodipodi.sourceforge.net/DTD/sodipodi-0.dtd"
   xmlns:inkscape="http://www.inkscape.org/namespaces/inkscape"
   version="1.1"
   id="SvgMunicipio"
   x="0px"
   y="0px"
   viewBox="0 0 912.5 1000"
   style="enable-background:new 0 0 912.5 1000;"
   xml:space="preserve"
   inkscape:version="0.91 r13725"
   sodipodi:docname="MUN_ID0704.svg"><metadata
     id="metadata10"><rdf:RDF><cc:Work
         rdf:about=""><dc:format>image/svg+xml</dc:format><dc:type
           rdf:resource="http://purl.org/dc/dcmitype/StillImage" /></cc:Work></rdf:RDF></metadata><defs
     id="defs8" /><sodipodi:namedview
     pagecolor="#ffffff"
     bordercolor="#666666"
     borderopacity="1"
     objecttolerance="10"
     gridtolerance="10"
     guidetolerance="10"
     inkscape:pageopacity="0"
     inkscape:pageshadow="2"
     inkscape:window-width="1366"
     inkscape:window-height="705"
     id="namedview6"
     showgrid="false"
     inkscape:zoom="0.236"
     inkscape:cx="456.25"
     inkscape:cy="500"
     inkscape:window-x="-8"
     inkscape:window-y="-8"
     inkscape:window-maximized="1"
     inkscape:current-layer="svg" /><g
     id="g3"><path
       id="MUN_0704"
       d="m 209.5,31.9 -10.2,5.2 -10.8,-2.7 -8.9,5.8 -7.3,12.4 -2.3,6.4 -0.6,6.6 1.7,13.5 0,2.7 -5.1,13.9 -6.6,15.1 -0.8,3.3 -0.2,2.5 4.4,0.2 8.5,4.6 6.6,-1.2 7.3,0.2 10.8,-7.3 3.1,0.4 2.3,2.1 7,0 3.7,-1.4 3.7,0.4 3.9,0.2 3.1,3.5 2.7,3.1 2.3,2.1 3.3,5 0.8,2.1 1.7,2.7 6.4,6.2 5.8,5.8 6.6,5.4 3.3,1.5 5.6,2.1 3.1,0.8 13.3,-0.4 2.5,0.2 7.3,2.9 4.1,2.9 11.8,1 4.6,1.5 9.3,8.5 3.9,3.5 -5,7.9 3.1,6.6 8.5,-1.5 11,-14.5 1.5,-2.1 0.8,-1.2 6.2,-1.2 11,2.7 -0.2,8.3 0.6,0.4 0.6,0.6 0.8,0.6 0.4,-0.2 0.8,-2.9 0.4,-2.3 1,-1.7 1.5,-3.3 2.1,-1.7 1.2,-1.5 8.9,-3.3 5,-5 7,-4.4 7.3,4.1 13.1,-6.2 3.5,1 4.8,1 6.2,-2.5 5.8,1.2 2.7,-1.7 6.2,-3.3 11,-1.7 7,0.4 2.5,3.9 1.7,3.7 2.5,5.4 -3.3,9.3 5.8,7 1.7,2.5 8.1,-3.9 13.3,-2.3 11,5 2.3,7.3 16.8,0.6 9.9,-5.4 15.1,-1 13.5,-1.2 7,2.3 11.6,2.3 6.2,3.3 8.5,6.2 7.5,12.4 0.4,5.8 3.3,8.1 -1.7,5.4 3.7,4.8 13.9,9.1 -2.5,7.9 -1.9,5.6 4.1,8.3 -0.8,9.3 2.5,4.6 7.5,2.9 5,8.1 4.8,3.3 18.6,-10.2 2.9,17.4 6.2,12.2 2.3,-0.4 5.6,5.4 0,0.4 8.3,-2.1 3.9,-2.9 8.3,0.6 2.3,0 1.5,0.8 2.5,-0.2 3.5,3.9 5.2,7.7 2.9,0.4 1,0.4 0.8,0.2 1.5,0.6 1,6.4 2.5,9.1 0.4,3.3 2.9,5.4 0.2,3.5 0.2,2.3 1.2,1.9 3.7,2.7 4.4,0.8 3.1,4.4 2.9,7.5 0.6,1.9 2.1,5.6 2.9,1.5 2.7,-1.2 2.5,-1.7 4.1,-9.1 2.1,-0.4 1,0 1.7,2.9 -1.2,3.5 -0.2,3.9 1.7,2.5 9.1,0.8 1.5,-2.5 -1.5,-4.1 1,-1 12.4,0 4.6,1 3.3,3.1 0.8,2.1 1.2,4.4 -0.2,1.9 -6.8,0.6 -1,1 2.7,2.7 4.6,2.5 9.1,1.2 2.3,-1.2 0.4,-3.1 2.1,-2.5 3.1,1.5 5.8,9.3 1.9,0.4 3.1,-1.7 3.9,-0.2 5.8,8.5 0.2,3.5 2.1,1.7 1.5,0.4 0.8,1.2 -2.1,7.3 -0.2,1.7 5,5.2 -1,9.1 0.6,2.9 3.3,4.4 0.2,6 1.7,3.1 1.2,0.2 1.7,-0.4 2.7,-3.1 6.6,4.6 3.3,3.3 4.1,5 -0.2,4.4 2.9,2.3 -0.2,3.3 1.2,2.9 -1.2,2.9 -0.6,5.4 1.2,15.7 1.5,5.4 3.1,5.4 9.7,6.8 1,2.5 0.2,1.9 -1.5,9.5 1.7,2.1 0.4,2.5 -0.2,7.5 0.2,1.2 3.7,2.3 5.2,1.2 3.1,-0.2 0.4,0.8 3.1,8.5 -0.6,2.1 -2.5,15.1 -0.4,3.5 3.3,3.5 1.5,3.3 -3.1,2.9 1.5,5.4 -6.4,0.4 0,5.2 -2.3,6.4 0.6,0 1,1.9 0.4,0.6 -2.1,0.4 -0.4,0.4 0,0.8 1.5,1.9 0,1 1.7,1.9 3.3,1.9 5,3.9 2.5,2.1 1.5,4.1 1.9,7.7 3.3,8.1 2.1,3.9 0.4,2.1 2.7,7.3 3.7,4.6 1.2,6.6 -1,1.2 -1.5,-1.2 -8.2,-0.4 -9.9,-1.5 -6.6,-2.9 -5.2,-4.4 -1,3.5 2.9,16.4 1.5,9.1 3.5,9.9 -0.8,3.7 -4.6,7.3 -4.4,7.9 -5,8.5 -3.7,3.3 -8.1,3.5 -7.9,3.5 -0.6,1.9 0.2,1 5.8,15.7 0.4,2.1 0.2,1 0,3.5 -2.7,3.1 -4.1,2.7 -8.5,3.1 -8.3,6.6 -5.4,2.3 -2.3,1 -8.7,2.3 -4.1,1.2 -3.5,1.9 -4.4,2.7 -6,2.7 -1.2,0.6 -3.3,1 -5.2,3.3 -5.8,6.2 -5,11.4 -5.6,11.8 -6.2,14.3 -2.1,4.8 -9.7,16.6 -4.8,8.1 -3.3,4.8 -9.7,11.4 -4.6,10.8 -1.9,3.3 -2.9,2.5 -4.4,7.9 -1.7,3.7 -1.2,6.2 -0.4,9.1 -0.2,2.3 0.4,4.4 -0.2,1.2 -1.7,5.6 -0.2,1.9 1,3.5 -1,6.6 1.2,12.2 -5.6,10.8 -2.5,6.2 -0.6,5 1.2,4.8 4.6,5 6.6,1.7 2.7,1.9 -4.8,3.3 -3.1,-1.9 -5.6,-3.3 -2.7,-0.4 -8.3,-0.8 -11.6,-1.5 -13.9,-1.9 -1.7,-0.6 -6.2,-0.8 -10.4,-1.9 -5.6,-2.5 -3.7,-2.1 -0.4,-0.4 -2.1,-1.7 -11.2,-5 -3.5,-0.6 -2.3,-1.2 -1.7,-0.2 -1.7,0.2 -1,0.4 -0.6,0.6 -3.3,0.6 -1.9,1 -1,0.2 -3.5,0.6 -3.5,-0.2 -2.9,-2.1 -1.7,-3.5 -1.5,-3.5 -2.1,-5.6 -3.5,-3.7 -5.8,-4.8 -8.3,-3.9 -3.1,-0.2 -1.7,1.9 -4.1,5 -3.1,2.5 -3.7,0.4 -2.1,-0.8 -0.6,-3.5 0,-2.9 -2.3,-5.2 -1.7,-3.1 -2.7,-1 -2.2,0.6 -6,0.6 -1.5,0 -5.8,-1.2 -7.9,-3.1 -2.1,-1.7 -2.9,-2.5 -8.5,-7.9 -3.5,-0.8 -2.1,-1 -1.5,-0.6 -6,-2.3 -5.2,-4.8 -10.2,-9.1 -5.2,-4.6 -4.6,-1.9 -7.9,-2.5 -6,-1.9 -3.7,-2.7 -2.3,-2.7 -1.5,-3.3 -2.5,-6.2 -1.2,-2.1 -2.7,-8.3 -0.8,-4.8 -1.9,-7.9 -0.4,-2.5 0.4,-6.8 2.9,-4.4 2.5,-3.3 0.2,-3.9 -0.8,-1.2 -6.6,-1.2 -1.2,-1 -2.7,-1.9 -3.5,-2.7 -0.4,-1.7 -1.5,-4.8 -1.5,-1.7 -4.1,-2.9 -3.5,-0.6 -4.8,-0.2 -1.7,-1.7 -0.4,-1.5 2.3,-7.9 -0.6,-4.4 -4.6,-4.1 -6,-2.1 -4.8,3.3 -4.6,0.6 -1.9,-0.6 -4.1,-1.9 -2.3,-1.7 -4.4,-3.7 -2.1,-2.7 0.4,-1.5 4.6,-3.1 0.8,-1.2 0.6,-3.3 1.2,-2.9 1.2,-2.1 1,-2.9 -3.3,-2.1 -5.6,-0.6 -4.6,-3.3 -1,-1 -1,-1.5 -3.1,-5.6 -2.3,-3.3 -3.9,-5.6 -5.2,-6.6 -2.5,-1.9 -2.1,-0.2 -1.2,1 -2.7,3.9 -3.5,4.4 -5.8,1.5 -2.7,0.6 -2.1,-0.2 -2.7,-1.2 0,-2.1 0.4,-5.8 -0.6,-2.1 -1,-0.8 -2.9,-4.8 -1,-1.5 -6,-4.1 -2.3,-1.5 -3.5,1 -3.7,2.3 -1.9,2.7 -3.3,4.8 -3.9,2.1 -3.7,-2.5 -2.7,-1.9 -6.4,-1.5 -6.8,0.6 -3.5,-2.9 -3.9,-0.8 -7.3,2.7 -4.4,-1.5 -5.6,-2.3 -8.3,-4.1 -1.7,-0.2 -6.4,0 -2.3,0.6 -6.2,1.2 -5,0.8 -0.8,-0.8 -3.1,-4.8 -6.2,-9.5 -0.8,-2.1 0,-5 -5.4,-5.8 -5.2,-3.9 -2.9,-1.2 -3.7,-0.4 -3.9,0 -1.7,-1.5 -4.8,-2.3 -1.5,-0.4 -1.5,-1.2 0.2,-1.5 1,-4.6 0,-6 -1,-6.8 -1.9,-4.1 -2.7,-8.1 -2.5,-2.5 -3.3,-4.1 -1.2,-2.1 0,-4.8 1.2,-2.9 2.1,-3.3 3.5,-2.9 2.3,-2.3 0.6,-2.7 1.7,-3.1 1.5,-2.7 3.3,-2.5 4.8,-0.6 4.8,-1.2 3.7,-0.8 1.9,-2.7 2.7,-4.4 1.9,-5.6 -0.6,-1.5 -2.7,-5.4 -0.6,-3.3 3.5,-8.1 0.4,-2.3 -0.2,-7.5 -1.5,-3.1 0,-2.9 2.3,-5 0,-2.5 -0.6,-3.9 -1.2,-2.1 -5.4,-6.2 -2.1,-2.3 -7,-1.5 -6.2,-1.9 -4.8,-2.1 -3.1,-2.9 -2.9,-2.3 -5,-5 -1.3,-2.2 -2.7,-4.4 -3.1,-2.9 -2.9,-3.9 -4.4,-6.2 -2.1,-1.9 -5,-2.5 -1.7,-0.4 -5.2,-1.7 -0.6,-3.9 3.9,-5.4 1.5,-2.1 0,-4.7 -0.8,-3.1 -4.4,-4.4 -3.7,-4.4 -1.9,-4.1 -1,-1.9 -0.6,-2.5 -0.8,-3.3 1.9,-2.7 0.6,-1.2 2.1,-2.1 2.3,-1 2.9,-3.1 -0.6,-3.3 -1.7,-1.7 -4.8,-2.1 -11,-5 -2.7,-1.2 -10.2,-3.1 -4.8,-1 -7.5,-2.3 -6.6,-3.3 -2.1,-2.3 -0.8,-2.3 1.5,-2.1 7,-2.9 2.3,-1 3.3,-1.5 0.4,-1.5 -0.2,-3.3 -3.7,-5 -6,-2.3 -2.9,-1.7 -5.6,-3.7 -4.8,-3.5 -3.1,-1.2 -5.2,-1.7 0.8,-1.5 -0.4,-2.3 -2.9,-6 -5.6,-5.2 -4.1,-6.6 -1.4,-9.5 -3.5,-6.8 0.2,-14.3 2.5,-3.5 4.6,-3.5 -0.4,-6 -0.8,-7.7 0.4,-2.3 0.8,-0.4 9.7,-5 2.9,-5 -1.4,-8.1 -3.3,-5 -4.8,-12.8 -21.8,-7 -5.8,-4.6 -2.7,-3.5 -1.9,-7.7 0,-3.5 4.8,-21.1 1.5,-3.1 5.2,-4.4 1.9,-3.9 0.2,-1.5 -0.2,-1.5 -1.9,-9.1 -5,-7.5 -7.3,-7.9 -8.8,-4.4 -7.7,-0.4 -5.2,-2.3 -3.1,-4.8 -1.7,-6.2 7.9,-11 2.5,-5 0,-8.5 -3.7,-5.6 -5.2,-1.2 -8.1,-0.2 -7.7,-2.9 -0.2,-2.9 -0.2,-5 -2.7,-4.8 -4.6,-5.8 0.8,-6.2 1.9,-3.7 -1.7,-5.6 0.2,-2.5 0.2,-4.1 L 7.3,98.6 0,78.5 1,75.2 6.4,68.6 15.1,63.6 23.4,49.5 18,33.5 15.3,27.1 15.9,26.9 209.7,0 l 0.4,1.4 0.4,2.5 1,5.2 -2.3,5 1.5,9.1 -1.2,8.7 z"
       inkscape:connector-curvature="0"
       class="DEP_07 ZON_03" /></g></svg>