<?xml version="1.0" encoding="UTF-8" standalone="no"?>
<!-- Generator: Adobe Illustrator 19.2.0, SVG Export Plug-In . SVG Version: 6.00 Build 0)  -->

<svg
   xmlns:dc="http://purl.org/dc/elements/1.1/"
   xmlns:cc="http://creativecommons.org/ns#"
   xmlns:rdf="http://www.w3.org/1999/02/22-rdf-syntax-ns#"
   xmlns:svg="http://www.w3.org/2000/svg"
   xmlns="http://www.w3.org/2000/svg"
   xmlns:sodipodi="http://sodipodi.sourceforge.net/DTD/sodipodi-0.dtd"
   xmlns:inkscape="http://www.inkscape.org/namespaces/inkscape"
   version="1.1"
   id="SvgMunicipio"
   x="0px"
   y="0px"
   viewBox="0 0 493.8 1000"
   style="enable-background:new 0 0 493.8 1000;"
   xml:space="preserve"
   inkscape:version="0.91 r13725"
   sodipodi:docname="MUN_ID0707.svg"><metadata
     id="metadata10"><rdf:RDF><cc:Work
         rdf:about=""><dc:format>image/svg+xml</dc:format><dc:type
           rdf:resource="http://purl.org/dc/dcmitype/StillImage" /></cc:Work></rdf:RDF></metadata><defs
     id="defs8" /><sodipodi:namedview
     pagecolor="#ffffff"
     bordercolor="#666666"
     borderopacity="1"
     objecttolerance="10"
     gridtolerance="10"
     guidetolerance="10"
     inkscape:pageopacity="0"
     inkscape:pageshadow="2"
     inkscape:window-width="682"
     inkscape:window-height="480"
     id="namedview6"
     showgrid="false"
     inkscape:zoom="0.236"
     inkscape:cx="246.89999"
     inkscape:cy="500"
     inkscape:window-x="0"
     inkscape:window-y="0"
     inkscape:window-maximized="0"
     inkscape:current-layer="svg" /><g
     id="g3"><path
       id="MUN_0707"
       d="m 6.2,349.4 6.6,-10.7 3.5,-3.7 0.8,-2.9 1,-1.6 3.5,-1.8 1,-3.8 4,-3.4 3.5,-5.1 2.7,-0.8 0.6,-2.4 1.6,-3.8 1,-1.3 2.1,0.6 4.3,-4.2 4,-0.5 6.1,-2.4 8.7,-6.9 2.2,-2.7 2.4,-1.9 1.9,-2.6 1.8,-3.7 1.1,-2.6 1.1,-6.9 -1,-4.8 -2.2,-2.9 -2.2,-6.6 -0.2,-2.1 2.1,-5.4 1.8,-2.4 1.4,-3.4 1.8,-4.6 1.8,-5.1 1.6,-3.4 3.7,-2.9 3.7,-1.4 1.8,-1.4 0.5,-1.9 2.4,-0.5 0.3,-0.6 -1.3,-3.2 2.2,-2.4 6.6,-1 3.8,1.4 2.1,0.5 3,-1.1 4.8,-3.7 6.4,0.2 5.6,-4.3 4.3,-6.2 0.6,-5.9 1,-1.8 3.4,-3.2 5.6,-10.9 3.9,-12.3 2.6,-5.4 4.2,-5.4 2.9,-2.2 6.6,-7.4 2.1,-4.2 2.7,0.3 3.4,2.1 5,4.3 3.2,2.4 3.2,0 2.7,-2.1 9,1.8 3.4,-0.8 5.1,1.4 4.5,-1 5.3,-1.9 3.7,-1.9 1,-0.5 2.1,-1.9 1.4,-2.1 0.6,-5 4,-13.6 6.2,-9.9 2.1,-1.8 5,-7.2 3.8,-4.6 3.5,-4.2 1.3,-1 3.2,-4 1.9,-6.3 3.8,-0.6 2.4,-0.2 2.6,0.3 5.6,3.2 3.7,1.1 2.6,2.4 1.4,2.4 6.2,3.2 1.8,0 4.3,-4.6 1.4,-0.5 2.7,0.3 2.7,1 1.9,-1.8 -1.1,-6.4 1.9,-1.4 3,-0.2 6.4,4 5.3,1.6 -3.3,3.3 1.6,1.3 11.7,-2.6 3,1.1 4.2,-0.3 4.2,-2.4 1.3,-3.4 -1,-3.4 -2.4,-2.7 0,-3.4 2.7,-0.8 5.4,-0.5 1.3,-1.1 1.1,-6.7 0.3,-4.6 0,-2.4 0.5,-1.9 0.8,-1.4 2.4,-1.4 2.7,0.8 2.7,-1.1 0,-5.1 0.2,-2.2 1.9,-2.4 1.9,-3 2.4,-2.7 5,-1 2.2,-1.4 0.5,-2.1 -1.4,-1.9 -1.8,0.5 -1.6,2.1 -2.6,0.2 -4.2,-3.8 -1.6,-3 3.7,1.4 2.6,0 2.4,-2.7 2.4,-1.1 2.7,0 1.4,-0.5 2.1,-4 3.4,-4 4,0.2 3,-1.1 5.1,-5.1 4.3,-0.6 6.2,1.9 2.6,-2.6 7.7,-5 2.7,-1.4 3.2,0.2 7.1,1.1 5,-2.2 4.8,-2.1 2.2,0.8 0.8,1.6 0.2,4.3 -0.6,4.8 2.6,3.7 2.7,2.2 3,2.9 4.2,2.2 3,1.8 3.4,1.3 4.2,0.5 6.9,-0.8 4.3,-0.5 4.5,-0.6 5.6,-2.1 3.4,-1.3 4.3,0.8 0,4.6 -0.2,6.7 1.3,8.5 1.8,6.7 3.4,6.1 -0.5,10.6 -12,12.3 -3.4,11.2 -1.3,16.5 -5.4,16 -4.6,2.6 -5.6,7.2 0.8,3.8 3.5,1.8 4.6,1.1 -1.3,4.6 -6.2,4.2 -4.3,8.8 3.5,14.3 -2.9,11.2 -16.5,11.7 -13,3 -25.2,-1.3 -9.5,1 -9.8,3 -0.6,0.5 -9.8,5.9 -4.5,7 -0.6,6.1 6.9,1.6 12.8,0.2 5.3,0.6 3.4,-3.5 4.3,5.3 -2.2,6.1 -10.6,5.4 -4.6,8.2 -4,10.1 -0.5,6.6 -1.3,9.1 -3,17.3 -1.8,8.5 2.1,8.5 3.8,8.5 -3.2,11.9 -10.1,10.3 -10.9,9.5 -12.2,13 -9.1,12.7 -9,11.7 -7.1,13.9 -3.8,10.1 -0.5,6.7 0.8,7.1 1,9.6 -1.1,8.7 -3.4,7.9 -5.8,19.1 70.3,83.8 7.9,-4.8 30.8,-19.5 8.2,-7.1 5.1,-2.7 5.4,-1.6 3.7,4 2.4,3.4 -0.2,5.8 -0.6,6.2 -0.6,5 2.9,5.8 3.7,6.1 2.2,3.5 7.9,2.7 1.3,2.6 2.9,3.4 1,6.1 1.1,4.2 1.1,3 -0.6,4 -0.6,2.6 0.3,1 1.6,2.4 1.9,2.7 1.4,1 2.2,0.3 1.8,-0.3 2.9,-1 2.2,3 0,2.7 -0.6,1.4 -1,1.8 -1.1,2.4 -0.8,2.1 0,1.6 1,1.1 1.4,0.6 2.1,0.3 1.6,2.6 -1.1,2.2 -4,0.5 0.5,2.2 0.6,1.3 1.8,2.7 0.6,1.1 1.1,5 -2.1,2.4 -0.5,1.9 -0.5,1.8 1.4,2.4 2.2,1.1 3,1.3 1.9,1 -0.5,2.1 -1,1.4 0.2,1.6 -1.4,2.4 -0.6,1.8 0,7.2 -0.8,4.8 -0.2,3.8 0.8,3.4 2.2,4.8 1.6,2.7 1,3.2 0.6,4 -0.8,3.2 -2.4,1 -1.1,2.1 -0.6,3.8 -0.3,2.6 -2.2,2.6 -1.9,3.4 -1.3,2.9 -1.1,3.5 -0.5,3 -1.4,2.6 -2.2,3.4 -0.8,3.2 1.4,1.8 1.4,1.6 1.9,1.8 0.5,1.9 -0.6,1.8 -2.6,3.4 -2.2,1.6 -1.6,2.1 -0.5,1.9 0.3,1.1 1.3,1.9 -0.2,1.8 -2.2,2.4 -2.2,2.4 -1,2.6 1.3,3.4 0.8,2.6 1.4,1.9 1.4,1.6 1.9,3.2 2.1,0.3 2.1,1.6 1.6,2.1 0.3,3.4 3.4,1.6 4.2,-0.6 1.3,1.4 -4.2,6.1 -0.6,1.1 -1.1,2.1 -0.2,0.8 0.3,2.6 0.5,3.4 0.3,2.9 0.6,4 0.3,1.8 4.2,3.7 -4.5,4.3 -0.6,2.7 2.9,2.4 2.6,1.4 1.9,4 2.1,1.3 0,2.6 4.5,1.6 0,2.4 0,2.6 0,2.6 -0.3,2.6 -0.6,2.2 -2.4,1.6 -2.6,3 -1.4,4.5 -1.3,4.8 -0.8,2.9 -2.1,4 -4,5 -3.5,2.7 -5.1,4.5 -7,4.8 -4.5,3 -2.9,3.4 -1.1,3.2 -0.8,3.2 0.6,3 1.4,3.2 1.1,3.4 1.3,4.6 1.4,5.4 3,5.1 2.4,2.6 2.2,1.8 1.9,4 1.1,3.5 42.1,58 -101.1,29.2 -1.4,-0.6 -3.2,-1.1 -0.2,0.3 -2.6,-1.4 -2.6,-1.9 -4.6,-2.7 -0.3,-0.3 -0.3,-0.2 -3.4,-2.4 -1.4,-0.8 -4.8,-3.2 -2.7,-1.9 -0.3,-0.2 -0.8,0.2 -52.9,-36.2 -0.2,-0.2 9.8,-39.4 -0.2,-0.2 -26.1,-18.1 0,-0.2 -19.2,-52 0,0 -15.2,-54.5 0,0 0.5,-49.2 0,0 -5.9,-8.2 L 186,629 l -51.4,-70.8 0,0 -120.5,-188.8 0,0 -1.3,-2.9 -7.2,-16.2 0.6,-0.9 z"
       inkscape:connector-curvature="0"
       class="DEP_07 ZON_03" /></g></svg>