<?xml version="1.0" encoding="UTF-8" standalone="no"?>
<!-- Generator: Adobe Illustrator 19.2.0, SVG Export Plug-In . SVG Version: 6.00 Build 0)  -->

<svg
   xmlns:dc="http://purl.org/dc/elements/1.1/"
   xmlns:cc="http://creativecommons.org/ns#"
   xmlns:rdf="http://www.w3.org/1999/02/22-rdf-syntax-ns#"
   xmlns:svg="http://www.w3.org/2000/svg"
   xmlns="http://www.w3.org/2000/svg"
   xmlns:sodipodi="http://sodipodi.sourceforge.net/DTD/sodipodi-0.dtd"
   xmlns:inkscape="http://www.inkscape.org/namespaces/inkscape"
   version="1.1"
   id="SvgMunicipio"
   x="0px"
   y="0px"
   viewBox="0 0 731.2 1000"
   style="enable-background:new 0 0 731.2 1000;"
   xml:space="preserve"
   inkscape:version="0.91 r13725"
   sodipodi:docname="MUN_ID0706.svg"><metadata
     id="metadata10"><rdf:RDF><cc:Work
         rdf:about=""><dc:format>image/svg+xml</dc:format><dc:type
           rdf:resource="http://purl.org/dc/dcmitype/StillImage" /></cc:Work></rdf:RDF></metadata><defs
     id="defs8" /><sodipodi:namedview
     pagecolor="#ffffff"
     bordercolor="#666666"
     borderopacity="1"
     objecttolerance="10"
     gridtolerance="10"
     guidetolerance="10"
     inkscape:pageopacity="0"
     inkscape:pageshadow="2"
     inkscape:window-width="682"
     inkscape:window-height="480"
     id="namedview6"
     showgrid="false"
     inkscape:zoom="0.236"
     inkscape:cx="365.60001"
     inkscape:cy="500"
     inkscape:window-x="0"
     inkscape:window-y="0"
     inkscape:window-maximized="0"
     inkscape:current-layer="svg" /><g
     id="g3"><path
       id="MUN_0706"
       d="m 694.7,494.7 -3.3,1.7 -6.9,-0.2 -2.1,8.3 1,11 2.9,8.7 -0.2,3.5 -2.3,5.2 -7.5,14.4 -2.7,5.2 -1.3,5.4 0,4 1.3,6.7 -0.2,4.6 -1.7,3.3 -2.7,2.3 -3.9,-1 -6.7,-3.3 -2.7,-0.2 -4.2,0.6 -4,2.7 -2.1,2.5 -1.3,2.1 1.3,4.6 2.5,5 1,3.1 0.4,3.9 -1.3,3.7 -4.6,2.3 -5.8,-2.1 -7.1,2.1 -3.3,3.7 -0.4,2.7 -5.2,-1 -4,1.5 -6.7,2.5 -5.4,0.8 -5.2,0.6 -8.3,1 -5,-0.6 -4,-1.5 -3.7,-2.1 -5,-2.7 -3.7,-3.5 -3.3,-2.7 -3.1,-4.4 0.8,-5.8 -0.2,-5.2 -1,-1.9 -2.7,-1 -5.8,2.5 -6,2.7 -8.5,-1.3 -3.9,-0.2 -3.3,1.7 -9.2,6 -3.1,3.1 -7.5,-2.3 -5.2,0.8 -6.2,6.2 -3.7,1.3 -4.8,-0.2 -4,4.8 -2.5,4.8 -1.7,0.6 -3.3,0 -2.9,1.3 -2.9,3.3 -3.1,0 -4.4,-1.7 1.9,3.7 5,4.6 3.1,-0.2 1.9,-2.5 2.1,-0.6 1.7,2.3 -0.6,2.5 -2.7,1.7 -6,1.2 -2.9,3.3 -2.3,3.7 -2.3,2.9 -0.2,2.7 0,6.2 -3.3,1.3 -3.3,-1 -2.9,1.7 -1,1.7 -0.6,2.3 0,2.9 -0.4,5.6 -1.3,8.1 -1.5,1.3 -6.5,0.6 -3.3,1 0,4 2.9,3.3 1.2,4 -1.5,4 -5,2.9 -5,0.4 -3.7,-1.3 -14.1,3.1 -1.9,-1.5 4,-3.9 -6.4,-1.9 -7.7,-4.8 -3.5,0.1 -2.3,1.7 1.3,7.7 -2.3,2.1 -3.3,-1.2 -3.3,-0.4 -1.7,0.6 -5.2,5.6 -2.1,0 -7.5,-3.9 -1.7,-2.9 -3.1,-2.9 -4.4,-1.3 -6.7,-3.9 -3.1,-0.4 -2.9,0.2 -4.6,0.8 -2.3,7.5 -3.9,4.8 -1.5,1.2 -4.2,5 -4.6,5.6 -6,8.7 -2.5,2.1 -7.5,11.9 -4.8,16.4 -0.8,6 -1.7,2.5 -2.5,2.3 -1.2,0.6 -4.4,2.3 -6.4,2.3 -5.4,1.2 -6.2,-1.7 -4,1 -10.8,-2.1 -3.3,2.5 -3.9,0 -3.9,-2.9 -6,-5.2 -4,-2.5 -3.3,-0.4 -2.5,5 -7.9,8.9 -3.5,2.7 -5,6.5 -3.1,6.5 -4.6,14.6 -6.7,13.1 -4,3.9 -1.2,2.1 -0.8,7.1 -5.2,7.5 -6.7,5.2 -7.7,-0.2 -5.8,4.4 -3.7,1.3 -2.5,-0.6 -4.6,-1.7 -7.9,1.2 -2.7,2.9 1.5,3.9 -0.4,0.8 -2.9,0.6 -0.6,2.3 -2.1,1.7 -4.4,1.7 -4.4,3.5 -1.9,4 -2.1,6.2 -2.1,5.6 -1.7,4 -2.1,2.9 -2.5,6.5 0.2,2.5 2.7,7.9 2.7,3.5 1.2,5.8 -1.3,8.3 -1.3,3.1 -2.1,4.4 -2.3,3.1 -2.9,2.3 -2.7,3.3 -10.4,8.3 -7.3,2.9 -4.8,0.6 -5.2,5 -2.5,-0.8 -1.2,1.5 -1.9,4.6 -0.8,2.9 -3.3,1 -4.2,6.2 -4.8,4 -1.2,4.6 -4.2,2.1 -1.2,1.9 -1,3.5 -4.4,4.5 -7.9,12.9 -0.8,1.2 14.7,-165.9 0,0 -0.4,-11.6 -0.8,-0.4 0.2,-1.3 -0.2,-1.5 0,-4.6 L 71.3,632.2 64,115.4 17.6,64.9 381.8,54.7 424.7,0 l 32.5,6.4 13.5,8.9 21,18.1 15,15.4 3.9,4 27,32.2 12.9,21.2 21.8,31.6 31.2,44.9 22,36.4 4.4,7.5 33.7,58.4 11.9,16.8 2.5,2.1 3.9,11 2.9,5.2 4.6,4.8 6,17.5 7.5,9.1 2.5,3.5 7.1,5.8 8.3,7.1 2.1,6.5 -0.8,4.6 0.4,2.9 1,1.9 2.5,3.3 -0.6,3.7 1.2,2.1 4,2.9 0.4,1 0.6,3.5 3.5,1.5 0,2.3 4.6,4.2 -0.8,4 3.7,5.6 4.6,0.8 1.7,3.7 -16.2,10.8 -2.9,8.9 0,4.8 -0.4,3.9 -1.5,5 -12.5,9.2 -2.9,3.7 0.6,6 -1.2,4.2 -4,4.4 -6.2,7.1 -7,4.3 z"
       inkscape:connector-curvature="0"
       class="DEP_07 ZON_03" /></g></svg>