<?xml version="1.0" encoding="UTF-8" standalone="no"?>
<!-- Generator: Adobe Illustrator 19.2.0, SVG Export Plug-In . SVG Version: 6.00 Build 0)  -->

<svg
   xmlns:dc="http://purl.org/dc/elements/1.1/"
   xmlns:cc="http://creativecommons.org/ns#"
   xmlns:rdf="http://www.w3.org/1999/02/22-rdf-syntax-ns#"
   xmlns:svg="http://www.w3.org/2000/svg"
   xmlns="http://www.w3.org/2000/svg"
   xmlns:sodipodi="http://sodipodi.sourceforge.net/DTD/sodipodi-0.dtd"
   xmlns:inkscape="http://www.inkscape.org/namespaces/inkscape"
   version="1.1"
   id="SvgMunicipio"
   x="0px"
   y="0px"
   viewBox="0 0 757.2 1000"
   style="enable-background:new 0 0 757.2 1000;"
   xml:space="preserve"
   inkscape:version="0.91 r13725"
   sodipodi:docname="MUN_ID0712.svg"><metadata
     id="metadata10"><rdf:RDF><cc:Work
         rdf:about=""><dc:format>image/svg+xml</dc:format><dc:type
           rdf:resource="http://purl.org/dc/dcmitype/StillImage" /></cc:Work></rdf:RDF></metadata><defs
     id="defs8" /><sodipodi:namedview
     pagecolor="#ffffff"
     bordercolor="#666666"
     borderopacity="1"
     objecttolerance="10"
     gridtolerance="10"
     guidetolerance="10"
     inkscape:pageopacity="0"
     inkscape:pageshadow="2"
     inkscape:window-width="682"
     inkscape:window-height="480"
     id="namedview6"
     showgrid="false"
     inkscape:zoom="0.236"
     inkscape:cx="378.60001"
     inkscape:cy="500"
     inkscape:window-x="0"
     inkscape:window-y="0"
     inkscape:window-maximized="0"
     inkscape:current-layer="svg" /><g
     id="g3"><path
       id="MUN_0712"
       d="m 615.5,46.3 3.4,26.8 3.4,8.1 6,11.4 -0.2,6.6 0.2,8.1 2.4,5.6 1.1,2.6 0.9,3 18.6,76.2 -1.3,1.1 -3,2.4 -6.4,4.1 -1.9,1.7 -2.4,3 -1.7,2.8 -4.5,6.6 -2.4,3.4 -3,5.8 -1.1,2.1 -0.4,1.9 0.2,1.9 0.6,1.9 1.5,2.8 2.6,4.9 0.9,2.1 0.2,2.1 0.4,3.4 0.4,1.9 -0.2,2.1 -0.2,2.6 -0.6,4.9 -0.2,5.1 0,2.6 0,3 0,3.4 0.2,1.9 1.1,2.4 1.5,1.5 1.1,0.9 2.1,0.4 3.6,-0.2 5.4,-0.4 2.8,0 3.2,0.6 1.9,0.6 1.7,1.5 1.9,1.3 2.8,1.7 2.1,0.6 1.7,0.4 1.3,0.4 1.1,0 9.4,8.6 2.8,1.1 1.5,1.7 0.6,1.3 0.4,2.1 0.6,3 0.9,2.4 1.1,3.2 1.5,3.6 1.1,2.4 1.1,2.6 2.4,3.2 2.6,2.6 1.1,1.3 2.1,1.3 1.7,1.3 1.3,0.9 0.6,1.7 0,1.7 -0.2,1.1 -0.9,1.3 -1.3,1.5 -3.4,1.7 -2.8,1.5 -3.6,3.6 -2.4,1.9 -2.1,1.9 -3.2,1.9 -1.3,1.1 -0.9,1.7 -1.1,1.9 -1.1,1.7 0.9,1.9 0.2,1.1 0.4,2.8 0.2,2.8 0.2,1.7 3.9,1.5 0.4,5.6 1.3,1.7 1.3,1.3 1.3,0.9 1.7,-0.2 1.5,-1.5 1.7,-1.3 3.6,0 5.6,-0.2 1.9,0.2 0.9,0.4 0.6,1.7 0.4,1.3 0.6,0.6 1.3,0.6 3.6,0 3,1.3 4.1,1.7 4.7,2.4 3.4,1.9 3,1.9 1.1,0.9 2.1,0.2 2.1,-0.4 2.4,0 2.1,0.6 1.3,1.1 0.9,2.8 0.9,3.4 -0.9,5.1 -0.6,3 0.2,2.1 0.4,2.6 0.9,1.9 1.9,2.6 1.5,1.9 1.3,1.9 3,4.3 4.3,2.1 1.1,1.7 1.9,2.4 0.6,1.1 4.1,0.9 4.5,10.9 0.6,7.3 -4.5,6.9 3,1.1 3,4.1 -0.2,3 0,1.5 -0.2,0.6 -0.9,1.1 -1.5,1.5 -1.9,1.9 -1.9,1.9 -1.5,1.3 -0.6,1.9 0.4,3.2 2.6,7.7 -1.1,5.8 1.9,8.1 2.4,8.6 0.6,6.2 -0.6,7.3 -0.2,0.4 -1.3,0.9 -3.6,2.1 -3.4,4.7 -2.4,2.8 -2.8,3.2 -1.9,0.9 -2.8,1.1 -2.1,0.9 -3.2,1.9 -3,1.7 -2.1,2.4 -2.1,5.6 -1.7,2.4 -2.1,2.4 -4.7,3.4 -3.2,3 -8.6,6.9 -3.9,0.6 -0.9,0.2 -3.2,3.6 -2.6,2.1 -2.6,3.4 -1.9,3.9 -1.3,4.1 -0.9,2.6 -1.5,1.7 -1.3,1.9 -2.4,1.3 -2.4,0.6 -2.1,1.3 -1.7,1.1 -1.1,1.7 -0.9,3.2 0.2,3.4 -0.2,6.6 -0.4,3.6 -0.4,3.9 -1.3,3.4 -1.3,3.4 -1.3,3.2 -1.7,2.4 -2.1,2.1 -1.9,1.7 -1.5,1.3 -0.9,3 -0.6,2.1 -0.9,1.7 -1.1,0.9 -2.6,1.7 -3.9,2.8 -4.1,2.8 -2.8,1.5 -3.4,0.6 -2.1,-0.4 -2.1,-0.9 -2.4,-0.2 -3.2,0.9 -0.9,1.1 -1.9,2.6 -0.6,3.4 -1.1,2.8 -0.4,2.6 -1.5,2.4 -1.5,2.8 -0.2,1.5 0.2,3 1.1,1.9 0.9,1.3 1.1,0 2.4,-0.2 3.6,-0.2 2.1,0.4 1.7,0.9 1.1,1.7 1.1,1.7 2.1,7.5 2.4,6 2.4,3 2.1,2.1 2.1,1.1 1.9,0 1.9,0 1.7,0.2 1.7,0.9 1.7,0 2.4,0.4 3,1.9 2.1,1.9 1.7,3.2 1.7,3.9 1.1,1.7 2.1,1.9 2.6,1.5 3.9,1.3 3.6,1.1 4.1,1.1 4.1,1.9 3,1.5 2.6,2.1 2.8,1.7 2.6,1.1 2.1,0.6 1.3,0.6 0.6,1.1 0,1.5 -0.2,1.9 -1.1,2.1 -4.3,2.8 -1.7,1.7 -1.5,2.4 -0.6,1.5 0,3 0.6,2.6 1.1,3.4 -0.4,2.6 -0.2,1.3 -3.9,3.4 -0.4,2.6 -0.2,0.9 -0.4,4.9 -0.6,10.9 -0.4,4.3 -1.3,3 -1.3,2.8 -0.6,5.6 0.2,3.6 0.9,2.4 1.5,3 1.9,2.8 1.3,2.4 1.3,2.8 -0.2,3.9 -1.1,4.5 -0.2,0.6 -0.4,2.6 -0.2,3.6 -0.2,4.3 -0.2,2.8 -0.4,1.9 -4.7,1.9 -5.1,1.9 -4.1,1.9 -3,1.5 -1.9,1.3 -0.9,1.5 -3.2,3 -2.1,2.8 -1.3,2.1 -0.6,1.7 -0.4,2.4 0.2,2.1 1.1,2.1 2.4,1.9 2.1,1.7 1.9,1.9 1.7,3 0.2,2.4 0.4,1.9 1.3,1.7 1.3,1.3 0.6,1.5 0.2,1.9 0.2,1.5 0.6,1.5 1.9,0.6 3.9,-0.4 2.8,-0.4 4.1,-0.4 3,0 2.1,0.4 1.9,1.1 1.3,1.7 0.9,2.1 0.4,1.5 0.9,1.9 1.3,1.3 1.3,8.4 -3.4,5.1 -3.6,3.2 -4.7,6.4 -9.2,-0.9 -9.6,-7.9 -6.6,0.6 -3.9,6 -2.4,8.8 -0.6,4.7 -8.1,0 -6.6,0.6 -13.7,9 -9.8,6 -5.8,1.3 -9.2,3.6 -10.1,1.1 -9.9,4.7 -9.2,1.3 -9.6,-3.4 -15.2,-1.5 -9.9,1.7 -7.9,0.6 -6.6,0.6 -7.7,-1.7 -7.5,-2.1 -3.4,-2.8 -3,-4.5 -3.6,-4.5 -5.4,-6.2 -13.5,0 -12,-0.2 -9.6,2.8 -10.1,4.9 -7.1,4.3 -2.4,4.3 -1.9,5.6 -4.3,2.8 -6,-0.2 -8.1,1.3 -4.3,-1.3 -10.9,-9 -7.7,2.6 -9.4,1.3 -9.6,-0.4 -10.7,0.2 -11.8,1.1 -9.9,-2.4 -12.4,0 -18,0.4 -15.8,0.9 -7.7,7.3 5.1,22.7 -2.8,13.1 -4.5,-6.9 -3.4,-5.6 -1.3,-2.4 -3.2,-3.6 -1.9,-4.1 -2.6,-7.3 -4.5,-4.9 -6.2,-2.1 -3.9,-1.5 -6.2,-3.9 -5.1,-5.1 -7.3,-2.1 -10.7,1.1 -8.6,1.1 -6.9,1.5 -4.7,-1.3 -2.6,-0.6 -2.1,-0.6 -3.6,-1.5 -5.8,-0.9 -8.1,-1.1 -8.4,0 -7.5,0 -3.6,-1.9 -7.1,-3.2 -7.3,-2.6 -5.1,0.9 -10.5,-0.6 -6.6,-2.4 -11.1,-1.1 -8.4,-2.4 -4.1,-1.5 -3.2,-1.3 -9.9,-5.6 -7.7,-6.9 -9.2,-7.7 -10.5,-4.1 -5.4,0.2 -4.5,0.6 -7.5,1.5 -6.9,0.2 -8.6,0 -5.1,-5.1 -10.5,-7.3 -11.8,-4.9 -8.4,-5.6 -3.9,-4.5 -1.5,-9.2 30,4.1 30,4.5 6.4,-4.5 0.4,-3.4 -0.9,-3.4 -6,-4.5 -1.9,-1.1 -5.1,-1.7 -5.6,-1.9 -3,-1.7 -2.6,-4.1 -0.9,-3.2 3.6,-6.2 6.2,-2.6 6.4,0 21.2,4.9 0.6,-2.1 13.9,-2.4 10.1,-2.6 1.3,-0.6 -1.7,-2.8 -8.6,-8.1 -6.4,-0.2 -3.6,-4.7 0.4,-3.6 0.9,-2.1 3.6,-1.7 3.2,0 2.4,-0.9 3.6,-2.6 9.9,0 0,-0.9 -0.6,-0.6 -1.5,-0.6 -11.6,-13.9 4.5,-4.5 8.1,0.4 0.2,-2.1 1.7,-2.4 -0.2,-5.6 2.4,-10.7 2.4,-4.7 6.9,1.9 5.1,4.3 6.4,-0.2 12.8,1.5 10.5,-6.4 11.8,2.4 3,-6 0.6,-3.2 -1.3,-1.9 -4.9,-4.1 -3.4,-4.7 -1.5,-7.7 2.1,-7.7 -1.3,-7.1 5.1,-6.4 7.3,-7.5 0.6,-5.8 1.3,-6.9 1.9,-12.6 3.4,-4.5 4.1,-7.9 -2.8,-4.9 3.6,-8.1 7.3,-1.9 2.6,-5.6 5.8,-6 0.2,-2.6 -0.9,-2.8 4.1,-3.6 2.6,0 0.9,-5.4 3.9,-3.9 -0.6,-7.9 0.2,-2.6 1.1,-5.6 -2.4,-6.9 -7.5,-6.6 -10.5,-13.9 -3.4,-9.4 -2.4,-3.2 0.2,-63 0,-48.2 0,-15.2 -1.5,-6 -3.4,-4.1 -1.1,-3 -0.6,-4.3 2.1,-6.9 3.2,-1.1 -1.1,-10.9 -1.1,-5.1 -0.2,-2.1 0.6,-7.3 -1.1,-6 5.6,-2.8 6.9,-6.6 1.7,-6 3.6,-1.3 2.4,-2.1 3,-3.2 6.2,-5.1 7.3,-11.1 0.2,-3.2 -3.6,-1.1 -0.9,-5.6 -2.1,-4.1 3,-2.8 -0.2,-6 1.7,-4.9 0.4,-0.2 1.9,-1.5 3.6,-1.5 3.6,-1.9 3,0.9 0.9,-1.1 -0.4,-2.4 3.6,-3 4.1,-6.2 -1.3,-13.1 -2.8,-10.9 -1.1,-7.1 -1.7,-6.2 2.6,-5.4 5.1,-1.3 2.4,-6 -1.1,-6.4 5.1,-13 4.5,-3 1.7,-5.8 2.1,-10.1 -0.6,-2.6 2.6,-6.2 1.3,-7.1 3.4,-7.5 -4.5,-7.7 -1.9,-4.7 -5.8,-8.4 -7.1,-5.8 0.9,-6.4 67,19.9 29.1,8.6 174.1,73.5 1.9,-4.3 -2.6,-4.5 -4.5,-3.4 -9.6,-0.4 -7.1,-1.5 -3.6,-2.1 -1.1,-0.9 -3.4,-3.2 -3.4,-7.7 -5.8,-9.9 0,-10.7 4.5,-7.7 6.4,-8.1 7.1,-7.9 0.2,-10.3 1.9,-6.2 3.6,-4.5 0.9,-4.1 -0.2,-5.1 -1.5,-4.1 3.4,-4.9 0.9,-5.1 -0.4,-6.9 4.5,-13.7 -1.5,-9.6 1.9,-6.2 2.6,-2.8 0.9,-8.1 -0.6,-8.8 -2.4,-7.5 1.3,-7.5 2.6,-6.9 5.1,-4.3 7.1,-3.6 -0.4,-4.1 -0.4,-4.7 0,-3.4 5.1,-1.1 5.4,2.8 4.7,2.4 5.4,0 1.5,-3 1.3,-6.6 1.5,-4.7 4.3,-4.1 2.4,-5.6 1.3,-5.6 0.2,-3.9 1.7,-4.5 14.1,-15 6,-5.1 8.8,1.7 11.3,6 3.9,4.9 4.9,5.1 2.8,6.4 2.8,22.2 z"
       inkscape:connector-curvature="0"
       class="DEP_07 ZON_03" /></g></svg>