<?xml version="1.0" encoding="UTF-8" standalone="no"?>
<!-- Generator: Adobe Illustrator 19.2.0, SVG Export Plug-In . SVG Version: 6.00 Build 0)  -->

<svg
   xmlns:dc="http://purl.org/dc/elements/1.1/"
   xmlns:cc="http://creativecommons.org/ns#"
   xmlns:rdf="http://www.w3.org/1999/02/22-rdf-syntax-ns#"
   xmlns:svg="http://www.w3.org/2000/svg"
   xmlns="http://www.w3.org/2000/svg"
   xmlns:sodipodi="http://sodipodi.sourceforge.net/DTD/sodipodi-0.dtd"
   xmlns:inkscape="http://www.inkscape.org/namespaces/inkscape"
   version="1.1"
   id="SvgMunicipio"
   x="0px"
   y="0px"
   viewBox="0 0 1000 652.2"
   style="enable-background:new 0 0 1000 652.2;"
   xml:space="preserve"
   inkscape:version="0.91 r13725"
   sodipodi:docname="MUN_ID0702.svg"><metadata
     id="metadata10"><rdf:RDF><cc:Work
         rdf:about=""><dc:format>image/svg+xml</dc:format><dc:type
           rdf:resource="http://purl.org/dc/dcmitype/StillImage" /></cc:Work></rdf:RDF></metadata><defs
     id="defs8" /><sodipodi:namedview
     pagecolor="#ffffff"
     bordercolor="#666666"
     borderopacity="1"
     objecttolerance="10"
     gridtolerance="10"
     guidetolerance="10"
     inkscape:pageopacity="0"
     inkscape:pageshadow="2"
     inkscape:window-width="1366"
     inkscape:window-height="705"
     id="namedview6"
     showgrid="false"
     inkscape:zoom="0.36185219"
     inkscape:cx="500"
     inkscape:cy="326.10001"
     inkscape:window-x="-8"
     inkscape:window-y="-8"
     inkscape:window-maximized="1"
     inkscape:current-layer="svg" /><g
     id="g3"><path
       id="MUN_0702"
       d="m 919.3,23.9 -0.2,0.9 0.4,1.2 1.9,1.8 1.3,1.6 1.3,1.9 2.2,3.1 1.4,3.9 0.2,2.9 -0.9,2.5 2.7,2.8 1.7,1.3 2.4,1.3 1.8,1.6 4.5,1 1,1.8 2.7,0.7 2.7,-0.5 1,0.5 1.5,2.8 1.6,1.7 -0.5,0.8 -2.4,1.9 -3.8,5.3 -1.3,1.5 -0.9,2 -1.4,2.6 -1,1.9 -0.5,3.2 0.8,2.4 -0.6,1.7 -1.2,0.7 -1.9,2 -1.8,2.6 -1.3,2.2 0,1.6 1.3,2.2 -0.8,2.2 -1.3,1.6 0.7,2.8 1.5,0.5 -0.4,1.6 -0.5,1.3 -0.1,2.9 -1.2,-0.1 -0.8,0.5 0.2,2 -1.6,3.6 1.4,1.3 -2.1,2.5 -0.9,2.1 -1.1,1.9 -0.3,0.1 -0.5,3 -1.2,0.4 -0.1,0.9 -1.6,2.4 -2.3,2 -2.9,2.3 -0.9,0.6 -2.3,1 -3,-0.2 -2,-0.4 -1.6,0.2 -1.9,0.9 -1.3,3.5 -1.5,1.9 0.2,2.3 -0.5,0.6 -1.1,0.9 -2,1.1 -4,0.4 -3.2,-1.9 -3.8,-1 -3.1,1 -2,0.2 -2.3,1.6 -3.4,0.2 -2,0.4 -1,0.9 -1.3,3 -1.6,1.6 0,1.4 -1.6,1.1 -0.5,3 -0.8,1.3 0.3,1.8 0.8,2 0.5,3.1 -0.2,2.4 0.9,2.9 0.2,1.8 2.9,6.7 -0.1,3 -1.2,3.8 0.2,0.9 0.5,0.3 2.9,2.1 3.2,2.1 2.3,3.2 2.3,3.1 2.4,4.8 1.8,3.1 -0.8,4.3 -0.6,0.8 -0.4,0.8 0,1.4 0.6,1.2 -0.8,0.8 -0.3,0.9 1.1,2.7 0.3,0.3 -0.1,1.3 -0.5,0.7 -0.2,1.3 0.4,0.8 0,0.8 1.6,0.4 1.3,1.1 2,0.9 1.2,-0.6 1.6,0.5 1.3,3.4 1.5,5.1 0.9,1.2 4.5,1.9 4.7,0.9 3.6,1.4 3.7,0.3 1.3,-0.5 4.2,0.1 2.7,-1.3 3.4,-0.9 25.4,22.4 11.8,10.3 1,1.6 1.8,3.5 2.4,2.5 2.9,1.7 3,0.2 2.1,0.6 3.4,1.4 3.6,2.4 1.8,1.8 2.3,3.1 1.3,1.8 1.3,0.9 3.5,2.7 2.9,2.6 3.1,1.9 2.1,1.4 1.3,2.4 1.3,0.7 2.1,0.4 1.3,1.3 2,1.8 2.5,1.8 3,0.2 2,1.4 1.7,2.1 1.8,2.5 1,1.3 1.3,-0.2 0.9,0.8 2.5,0.7 1.1,-0.2 2,-0.2 1.2,0 0.5,0.5 0.1,0.9 -0.5,3.6 2.5,0.5 0.6,0.6 0.8,3.8 3.1,1.8 1.6,2 1.4,1.6 0.9,0.8 -1,1.9 -1.5,2.4 2.2,1.7 0.6,1.9 0.5,1.7 0.3,0.9 2.6,-0.2 0.6,1.6 0.2,2.3 -0.2,2.3 0.3,0.7 2,2 2.4,0.5 0.8,1.1 0.9,2.5 1.2,2.1 1.3,1 1.8,0.9 2.4,0.9 3.9,1.6 3.7,1.5 3.4,1.1 3.8,1 2.1,0.9 0.9,1.3 1.3,2 0.8,1.8 1.4,1.6 1.3,1.7 0.5,2.9 -0.7,-0.5 -0.2,-0.2 -0.7,0.1 -1.6,0.5 -1.7,0.5 -1.6,-0.5 -3.3,0.9 -0.5,1.1 -2.2,0.9 -2.3,0.2 -1.8,-0.3 -1.2,0.5 -1.9,-0.1 -1,-0.7 -1.2,0.2 -2,1 -2.7,-0.2 -3.1,-1.2 -1.5,-1.2 -4.7,0.2 -3.5,1.6 -3.2,2.1 -9.4,2.7 -6.6,1.9 1.4,1.8 1.8,1.8 1.9,3.3 0.3,2.7 0.5,1.5 -1.4,3.2 -0.8,1.6 -1,2.5 -1,0.1 -2.1,0.5 -2.4,0.4 -2.8,-0.3 -5.3,-1.7 -4.2,-1 -4.5,0.3 -9.2,3.1 -1.8,-0.2 -2.4,0.2 -2.8,2.7 -3.8,0.9 -2.3,-0.2 -1.5,-1.6 -1.6,-0.8 -3.4,-0.6 -3.2,-2.1 -5.2,-4.5 -4,-3.6 -5.4,0.5 -3.5,-0.2 -4.4,-0.5 -0.3,-1.1 -0.4,-0.9 -0.9,-2 -0.1,-3 0.1,-2.4 -2.2,-4.2 -1.3,-3 -1.3,-9.8 -1.1,-8.1 -1,-2.4 -1.8,-1.9 -1.4,-1.8 -4.2,-2.2 -3.2,-0.6 -2.2,1.9 -5.2,5.5 -0.6,1.6 -0.1,1.4 -0.5,2 -0.9,2 -1.6,1.5 -0.5,1.7 -0.5,2.4 -0.5,1.1 -2,0 -1.7,-0.9 -2,-1 -1.9,0.4 0,1.3 0.2,1.7 0.2,1.5 -2.6,1.3 -1.9,1.6 -0.9,2.5 -0.5,2.7 0.9,2.7 0.2,3.2 -0.3,3 -0.9,1 -0.7,2.3 0.5,3.5 -1.6,5 0.2,2.5 -0.3,1.9 -1.3,1.8 0.5,1.5 0.1,1.9 -0.3,1.5 -1.2,2 -0.7,2.3 -0.1,3.8 -2.6,2.9 -2.4,3 -1.6,2.8 0,3.9 2.1,3.6 1.3,2.8 1.3,1.2 0.4,0.3 1.3,0.8 2.6,0.5 3.5,0.2 1.6,1.3 0.9,1.6 -0.7,1.6 -63.7,-26.9 -10.7,-3.1 -24.5,-7.3 -14.4,-1.4 -1.3,-0.1 -2.2,0 -2.2,-0.1 -3.5,-0.5 -4.5,0.5 -1.3,-0.2 -2.3,2.4 -2.9,2 -2.7,0.9 -4.7,1.6 -4.2,2.9 -2.4,1.2 -2.8,-0.3 -2.7,-0.6 -2.3,-1.2 -1,-2.4 -1.2,-2.4 -1.9,-2.1 -23.7,57.5 -2.6,-0.6 -2,-1.5 -1.6,0.1 -1.7,0 -1.6,1.4 -2.7,-0.2 -2.9,0.3 -2.1,-1.3 -2,-0.4 -4.5,1.6 -2.7,0.5 -0.5,0.9 -0.5,0.9 -1.9,0.5 -2,-0.3 -4,-1.3 -1.2,-0.4 -1.3,0.2 -1.9,-0.9 -2,1.8 -1.2,0.8 -2.3,-0.7 -2.9,-0.4 -1.7,-1.6 -0.6,-3.4 -1.2,-0.7 -0.9,0.4 -1.1,0.5 -2.5,-0.4 -2,-1.4 -2.7,-5 -4.6,-4.1 -3.1,-1.4 -2.4,1.5 -1.8,4 -1.9,2 -2.3,1.1 -1.5,-0.3 -1.7,-1.3 -3.3,-3.8 -2.4,-1.4 -2.7,-0.5 -1.5,-1.5 -0.9,-0.5 -1.6,0.9 -1.5,2.3 -2.1,2.8 -1.5,-0.2 -0.6,-1.1 -0.7,-2.5 -0.4,-2.7 -1.5,0 -0.4,2.1 -0.9,2.5 -1.6,0.2 -3.8,-2 -3.1,-0.5 -2.4,2.4 -2.4,-0.4 -0.1,0 -2.1,-2.2 0.1,-3.8 1,-3.4 0.6,-2.6 -0.6,-2.2 -0.8,-2.4 -2.5,-2 -2,-3.8 -0.2,-4.8 -1,-0.2 -1.6,-0.3 -1.5,-0.2 -6.7,-2.6 -2.1,-1.5 -4.5,0.3 -0.1,-3.2 -0.3,-5.7 0.9,-4.1 -4.7,0.1 -1.5,0.2 -4.9,2.4 -7.3,2.3 -0.5,2.4 -2.7,-2.4 -0.8,-6.9 -2.1,-4.7 -1.4,-2.7 -13.8,-5.3 -2.5,-0.1 -2,0.1 -1.6,1.6 -2.8,2.1 -3.1,0 -4.5,1.5 -3.8,0.9 -0.6,1.8 -1.8,1.5 -1.2,2.7 -0.4,1 -1,2.8 -2.8,0.3 -2.1,3.1 -2.8,2.7 -3.1,1.9 -2.4,-0.3 -5.8,-1.2 -2,-2 -2.4,-2.4 -2.7,-2.6 -4.2,-2.9 -4.9,-1.8 -5.3,-3.3 -1.3,-3.5 -1,-2.9 -10.4,-5.8 -7.9,-5.3 -7.1,-5.8 -6.7,-8.3 -3.9,-1.4 -8.3,-0.2 -3.7,0.3 -4.9,2.2 -5.4,-0.2 -3.5,-1.5 -2.9,0 -3.1,1.2 -3.7,1.2 -0.2,0.1 -3.6,0.9 -4.2,-0.5 -3.7,0 -4.2,0.5 -4.8,2 -4.7,0.3 -298.3,278 300.5,-296.1 2.2,-2.2 6.5,6.6 4.7,4.4 5.9,2.1 5.5,-0.2 4.1,-1.6 5.1,-0.9 0.8,0.5 2.7,1.4 4.4,-0.5 8.9,-1.2 9.3,-2.8 14,0.6 4,0.8 5.4,0.9 5.1,-0.1 5.7,-0.9 2,1.3 0.9,0.6 0.6,0.9 6.9,1.2 1.9,-1.3 4.1,-2.4 1,-1.2 1.3,-0.9 4.4,1.2 7.1,-6.6 3.8,-1.3 1.7,-0.8 2.9,-0.5 6.2,-5.7 1.5,-2.7 -1.6,-5.5 6.3,-2.7 3.7,-0.8 2.1,-2.7 6.7,-1.4 5.5,-0.3 2,-0.9 2.4,-2.4 3.9,-2.9 3.2,-1.2 2.5,-2.9 3.1,-1.6 0.9,-0.5 2.4,-4.3 5.5,-2 5.3,-3.2 -0.1,-3.4 1.6,-1.1 4.5,-0.7 4.5,-4.5 3.7,-4.3 3.2,-3.1 4.9,-2.4 5.4,-2.1 4.7,-1.5 1.8,-1.3 0.8,-2.8 0.2,-2.1 1.4,-0.7 1.9,-0.1 2.2,1.3 2.3,0 2,-1.1 0.6,-5.3 0.9,-1.1 1.6,0.2 3,2 3,0.4 3.9,0.1 4.4,-0.7 2.7,0.6 1.8,-0.2 2.4,-1.1 5.3,-1.2 7.1,-1.6 2.2,-1.5 2.1,-2.8 7.4,-3.1 3.2,-3.1 4.1,-3.6 2.7,-1.9 3.4,-3 1.9,-2.3 1.1,-1.5 6.9,-3.5 -5.6,-10.3 -15.6,-28.5 -2,-3.9 -11.8,-21.8 -1.6,-5.8 -1,-3.2 -2,-2.6 -2,-3.4 -1.3,-5.5 0,-1.2 -0.2,-3.9 7.5,-8.1 2.9,-5.4 7.7,-6.7 5,-5.6 0.9,-4.5 0.3,-1.7 1.2,-1.7 2.6,-3.7 2.7,-0.9 3.1,-0.6 2.4,1.2 1.1,0.1 1,-0.2 1.4,-0.5 1.8,2 2.4,2.9 0.9,2 0.3,2.8 -0.1,0.9 -0.5,1.1 -1.6,2.3 72.5,1.2 9.4,0.2 0.2,-1.6 0.9,-3.4 0.6,-1.8 -1.6,-5.3 -1.7,-3 -0.2,-1.4 -0.7,-0.6 -0.9,-2.9 -0.3,-3.1 0.8,-2.7 2.7,-1.3 1.2,-1.3 0.2,-0.6 -3.4,-3.5 0.1,-1.9 0.5,-1.4 2.4,-2.9 1.1,-2.1 1.2,-2.7 0,-3.1 2.7,-7.3 1.1,-2.8 0.8,-2.7 0.6,-6.4 3,-4.9 2.9,-3.6 2.5,-3.3 2.5,-3.4 0.5,-3.3 2.9,-3.1 2.5,-1.3 1.6,-2.7 2,-0.5 2.3,-1.6 5.5,-2.9 0.7,-3.3 1,-3 2,-1.6 2.4,-0.2 1.1,0.2 2.9,-0.4 4.3,-3.4 0.9,-0.9 -1.2,-2.5 0.7,-2.9 1.7,-3.4 0.6,-3.4 0.5,-3.1 -0.3,-2.5 -1.2,-2.4 4,-0.3 37.9,-3.1 47.4,17.9 z"
       inkscape:connector-curvature="0"
       class="DEP_07 ZON_03" /></g></svg>