<?xml version="1.0" encoding="UTF-8" standalone="no"?>
<!-- Generator: Adobe Illustrator 19.2.0, SVG Export Plug-In . SVG Version: 6.00 Build 0)  -->

<svg
   xmlns:dc="http://purl.org/dc/elements/1.1/"
   xmlns:cc="http://creativecommons.org/ns#"
   xmlns:rdf="http://www.w3.org/1999/02/22-rdf-syntax-ns#"
   xmlns:svg="http://www.w3.org/2000/svg"
   xmlns="http://www.w3.org/2000/svg"
   xmlns:sodipodi="http://sodipodi.sourceforge.net/DTD/sodipodi-0.dtd"
   xmlns:inkscape="http://www.inkscape.org/namespaces/inkscape"
   version="1.1"
   id="SvgMunicipio"
   x="0px"
   y="0px"
   viewBox="0 0 1000 645.1"
   style="enable-background:new 0 0 1000 645.1;"
   xml:space="preserve"
   inkscape:version="0.91 r13725"
   sodipodi:docname="MUN_ID0713.svg"><metadata
     id="metadata10"><rdf:RDF><cc:Work
         rdf:about=""><dc:format>image/svg+xml</dc:format><dc:type
           rdf:resource="http://purl.org/dc/dcmitype/StillImage" /></cc:Work></rdf:RDF></metadata><defs
     id="defs8" /><sodipodi:namedview
     pagecolor="#ffffff"
     bordercolor="#666666"
     borderopacity="1"
     objecttolerance="10"
     gridtolerance="10"
     guidetolerance="10"
     inkscape:pageopacity="0"
     inkscape:pageshadow="2"
     inkscape:window-width="682"
     inkscape:window-height="480"
     id="namedview6"
     showgrid="false"
     inkscape:zoom="0.36583477"
     inkscape:cx="500"
     inkscape:cy="322.54999"
     inkscape:window-x="0"
     inkscape:window-y="0"
     inkscape:window-maximized="0"
     inkscape:current-layer="svg" /><g
     id="g3"><path
       id="MUN_0713"
       d="m 254,23.4 6.7,0.9 5.3,-2 5.6,-1.6 5.6,-3.1 10.5,-0.2 11.6,0.9 6.7,2.9 11.3,3.8 13.3,1.3 8.5,0 9.3,-1.1 6.7,5.1 9.3,3.6 5.3,-2.9 6.9,2 0,4.9 1.6,1.1 7.3,-4.4 4.4,-0.2 5.1,2.4 7.8,-2.2 8.7,-11.1 4.4,0.2 13.3,12.2 5.1,1.6 22.2,1.6 10.5,-2.4 10.5,0 2.7,2.9 7.1,7.6 6.4,3.8 4,1.1 12.5,-1.8 9.8,4.7 14.5,-2 5.1,1.8 3.3,3.6 3.8,-0.2 5.1,-2.4 6.9,12 5.1,13.6 4.7,16.5 16.9,4.2 7.3,-1.8 7.8,-3.3 10.9,-7.6 6.7,-2 10.9,0.9 11.1,-4.7 12,-7.1 9.1,-0.4 15.6,12.2 -1.3,10.2 1.6,9.6 4,4.7 8.7,5.8 12.2,5.1 10.9,7.6 5.3,5.3 8.9,0 7.1,-0.2 7.8,-1.6 4.7,-0.7 5.6,-0.2 10.9,4.2 9.6,8 8,7.1 10.2,5.8 3.3,1.3 4.2,1.6 8.7,2.4 11.6,1.1 6.9,2.4 10.9,0.7 5.3,-0.9 7.6,2.7 7.3,3.3 3.8,2 7.8,0 8.7,0 8.4,1.1 6,0.9 3.8,1.6 2.2,0.7 2.7,0.7 4.9,1.3 7.1,-1.6 8.9,-1.1 11.1,-1.1 7.6,2.2 5.3,5.3 6.4,4 4,1.6 6.4,2.2 4.7,5.1 2.7,7.6 2,4.2 3.3,3.8 1.3,2.4 3.6,5.8 4.7,7.1 3.1,12.7 5.3,7.1 5.6,7.8 2.7,4.9 8.2,6.9 2.7,6 -2.9,6.9 -2.7,5.8 -1.8,2.9 -3.3,12.9 -3.8,32.5 -12.7,20.9 -8.9,11.6 -8,20.5 -7.1,19.1 -0.4,13.1 2.7,14.7 3.1,22.5 -1.8,19.6 -0.7,7.3 -0.7,8 -2.2,5.1 -1.6,1.8 -4.4,4.2 -4,5.3 -2.2,3.3 -1.6,3.1 -1.6,3.3 -2.7,5.8 -2.9,5.6 -3.8,5.8 -2.4,4.7 -2.7,5.3 -2.7,5.8 -1.3,4.2 -1.3,2.7 -1.8,2.9 -1.6,2 -1.8,1.6 -2.2,1.1 -2.2,1.1 -3.1,1.8 -2.7,1.6 -2.2,1.1 -2.7,1.1 -3.8,0.9 -6.2,1.6 -6.4,2 -4.2,1.6 -4,1.3 -3.3,1.3 -4.4,3.3 -2.4,2 -2.4,2.6 -2.2,2.9 -2.4,4 -2.4,4 -0.7,2 -0.7,2.2 -0.2,2.2 -0.2,2.9 0,2.9 0,2.7 0.2,3.8 -0.2,4.7 -0.2,2.4 -1.1,3.3 -1.1,2.9 -1.3,2.7 -1.6,2 -2.2,2.7 -2.7,2.4 -2.4,3.6 -1.3,2 -2,2.9 -2,2.7 -1.1,1.6 -1.3,1.3 -1.6,1.1 -1.6,0.4 -2,0.9 -1.6,0.7 -1.8,0.9 -2.2,0.9 -2,0.4 -1.8,0.2 -4.3,-0.3 -2.2,0 -2.7,-0.4 -3.1,-0.4 -4,-0.7 -2.7,-0.7 -2.9,-0.2 -3.3,0.4 -4.7,2 -1.1,-0.2 -3.6,-1.8 -1.8,-1.1 -0.4,-0.2 -0.2,-0.2 -0.7,-0.2 -0.2,0 -1.1,0 -0.7,-0.2 -2.2,0 -0.9,-0.2 -1.1,-0.4 -0.7,-0.7 -0.4,-0.9 0,-2 0,-2 0,-0.7 -0.4,-0.9 -0.4,-0.9 -0.9,-0.7 -0.7,-0.7 -0.9,-0.2 -1.8,-0.9 -4.2,-1.8 -0.4,0 -0.9,-0.4 -2,-0.4 -0.9,0 -2,-0.2 -2,-0.2 -0.9,0.2 -0.9,0.2 -0.9,0.2 -1.1,0 -0.9,0.2 -2,0 -1.1,0 -1,0 -1.1,-0.2 -0.9,-0.2 -1.1,-0.4 -2,-0.9 -2.4,-1.3 -0.9,-0.4 -0.9,-0.7 -0.7,-0.7 -0.9,-0.9 -0.4,-0.9 -0.7,-0.9 -0.2,-1.1 0,-1.1 -0.2,-2 -0.2,-2 -0.9,-3.1 -0.4,-0.9 -0.2,-0.7 -0.2,-0.7 -0.7,-0.4 -2,-0.4 -3.1,-0.4 -2,-0.4 -1.1,-0.2 -2,-0.2 -1.1,-0.4 -0.7,-0.4 -0.9,-0.7 -1.3,-0.4 -0.2,-0.2 -2,-1.1 -1.6,-1.1 -1.8,-1.6 -0.7,-0.7 -0.7,-0.4 -1.6,-1.6 -0.7,-1.1 -0.2,-1.1 0,-1.6 0,-1.6 0,-0.9 -0.2,-1.1 -0.2,-0.9 -0.2,-0.9 -0.2,-1.1 0.2,-1.1 0.2,-1.1 0.2,-0.9 -0.2,-0.7 -0.2,-0.9 -0.7,-0.7 -0.9,-0.7 -0.7,-0.7 -0.4,-0.9 -0.4,-1.1 -0.2,-0.9 0,-2.2 0.2,-2 0.4,-1.8 0,-1.1 0,-0.9 -0.7,-1.8 -0.4,-1.1 -0.9,-1.8 -0.4,-0.9 -0.4,-0.9 -0.9,-0.4 -0.7,-0.7 -0.9,-0.4 -0.7,-0.7 -0.9,-0.2 -1.1,-0.2 -0.9,-0.2 -0.9,-0.2 -1.1,0 -1.1,0 -2.4,0.2 -2,-0.2 -1.1,-0.2 -0.7,-0.2 -1.1,-0.7 -1.8,-1.3 -0.4,-0.4 -0.9,-0.7 -0.4,-1.1 -0.9,-2 -0.9,-1.3 -1.6,-2.7 -0.7,-0.7 -1.6,-1.1 -0.7,-0.7 -1.1,-1.8 -0.4,-0.7 -0.9,-0.7 -0.7,-0.4 -1.1,-0.4 -0.7,-0.7 -0.9,-0.2 -1.6,0 -0.9,-0.2 -0.9,-0.9 -1.1,-1.6 -0.7,-0.9 -0.4,-0.7 -0.7,-0.9 -0.7,-0.7 -0.7,-0.7 -2,-2.7 -2,-2 -2.2,-2 -0.9,-0.7 -1.1,-0.7 -2.4,-1.3 -1.8,-0.9 -1.8,-0.9 -3.1,-1.1 -1.8,-0.9 -1.1,-0.4 0,-0.2 -1.6,-0.9 -0.9,-0.4 -2.4,-1.8 -2,-1.1 -0.7,-0.4 -2.7,-1.3 -0.9,-0.4 -1.1,-0.4 -0.2,0 -0.9,-0.4 -1.8,-1.1 -1.8,-0.9 -2,-0.7 -0.9,-0.4 -2,-0.4 -0.9,-0.2 -0.9,0 -0.2,0 -0.9,0 -0.9,0.2 -1.1,0.2 -0.9,0.2 -1.8,0.7 -1.8,1.1 -0.9,0.4 -1.8,1.1 -0.9,0.2 0,0.2 -1.1,0.4 -1.8,0.4 -3.6,1.8 -2,1.1 -0.7,0.4 -3.6,1.6 -1.8,0.7 -0.9,0.4 -0.9,0.4 -1.1,0.4 -0.9,0 -1.1,0.2 -1.1,0 -1.8,-0.2 -1.1,-0.2 -2,-0.4 -1.1,-0.2 -0.9,0 -1.8,0.2 -1.3,0 -0.9,0 -1.1,0 -0.6,0 -0.7,-0.2 -2.9,-0.7 -1.3,-0.2 -1.8,-0.2 -2.2,0 -3.8,-0.2 -2,-0.2 -0.7,0 -0.7,-0.4 0,-1.3 0,-0.2 -0.9,-0.2 -1,0 -0.7,-0.2 -0.9,-0.2 -0.2,-0.2 -4,-1.3 -0.7,-0.2 -2.9,-0.4 -2.2,-0.4 -1.8,-0.4 -1.1,-0.2 -0.7,0 -0.4,-0.2 -0.9,-0.4 -0.9,-0.7 -0.9,-0.7 -0.4,-0.7 -0.9,-0.4 -0.9,-0.7 -1.8,-0.7 -1.8,-0.9 -1.8,-0.9 -1.8,-0.7 -3.1,-1.1 -0.7,-0.2 -0.9,-0.2 -2,-0.2 -0.9,0 -1.1,0.2 -0.9,0.2 -0.9,0.2 -2.9,0.9 -2,0.9 -2.7,1.1 -0.9,0.4 -2.2,0.7 -3.8,0.7 -2.9,0.4 -1.1,0.4 -1.8,0.7 -0.4,0 -0.7,0.2 -1.3,0 -0.2,0 -0.7,0 -1.1,-0.2 -1.8,-0.7 -2,-0.9 -3.6,-1.8 -0.9,-0.4 -0.9,-0.2 -2.9,-0.7 -2,-0.9 -0.9,-0.7 -0.9,-0.7 -0.9,-0.4 -1.3,-1.6 -0.7,-0.7 -0.7,-0.7 0,-0.2 -1.3,-1.3 -0.9,-0.4 -0.9,-0.4 -1.8,-0.9 -0.9,-0.2 -1.8,-0.4 -1.1,-0.2 -1.6,-1.3 -0.9,-0.4 -0.9,-0.4 -0.7,-0.2 -1.1,0 -0.2,0 -0.9,0 -1.8,0.2 -1.1,0.2 -0.9,0.4 -3.6,1.6 -1.1,0.4 -0.7,0 -1.1,0.2 -2.9,0.9 -1.1,0.2 -1.1,0 -0.4,0.2 -0.4,0.2 -2.9,1.1 -0.7,0.4 -0.7,0.7 -0.7,0.7 -0.9,0.9 -0.7,0.4 -0.9,0.7 -1.1,0 -0.7,0 -0.2,0.2 -1.1,0 -1.1,-0.2 -0.7,-0.4 -1.6,-1.6 -0.9,-0.7 0,-0.2 -0.4,-0.7 -0.4,-0.9 -0.4,-0.9 -1.1,-1.6 -0.7,-0.9 -0.4,-0.4 -1.1,-0.4 -0.9,-0.2 -0.9,0 -2,0 -1.1,-0.2 -0.9,-0.2 -1.1,-0.4 -1.6,-0.7 -1.1,-0.4 -0.7,-0.7 -1.6,-1.3 -1.6,-0.9 -0.4,-0.2 -0.7,-0.4 -1.3,-0.2 -1.1,-0.2 -1.8,-0.4 -1.1,-0.2 -0.9,-0.2 -1.8,-0.4 -0.9,-0.7 -0.4,-1.1 -0.7,-0.9 -0.7,-0.9 -0.9,-1.6 -0.2,-0.9 -0.7,-0.9 -0.7,-0.7 -0.7,-0.7 -2.4,-1.8 -0.9,-0.4 -0.9,-0.4 -1.8,-0.4 -1.1,-0.7 -0.7,-0.7 -0.9,-1.3 -0.7,-0.9 -0.7,-0.7 -0.7,-1.8 -0.7,-0.9 0,-1.8 -0.4,-0.4 -0.7,-0.7 -2.9,-0.9 -1.1,-0.7 -1.6,-0.7 -0.4,-0.2 -0.9,-0.4 -0.7,0 -0.7,-0.4 -0.9,-0.2 -2,0 -0.7,-0.2 -0.4,0 -1.1,0.2 -2,0.7 -2.9,1.6 -11.6,2.2 -8,-0.7 -5,-1.2 0,-0.2 -3.3,-2.9 -2.7,-1.1 0,0 -3.8,0 -3.8,0.2 0,0 -7.1,0 -0.2,0 -4.4,-2.2 -0.2,0 -8.7,-2.2 0,0 -4.9,-2 -0.2,0 -3.6,-3.6 0,-0.2 -4.9,-0.2 -0.2,0 -8,0 0,0 -11.1,-3.6 0,0 -9.3,0.7 -0.2,0 -3.8,-2.4 0,0 -7.3,0 0,0 -8.2,0 0,0 -10.2,-0.9 0,0 -7.1,-0.2 0,-0.2 -12.5,-5.8 0,0 -1.8,-0.9 -3.3,-1.8 0,0 -5.3,-1.6 0,0 -6.4,-1.1 0,0 -4.9,-3.3 0,0 -6.7,-4.4 0,0 -10.2,-3.6 0,0 -6.7,-4.5 0,0 -11.3,-5.1 0,0 -7.3,-3.3 0,0 -3.6,-0.9 0,0 -8.2,-0.7 -0.2,-0.2 0,0 0.2,-2.4 0,0 -1.6,-14 0,-0.2 -3.1,-4.9 -0.2,0 -5.1,0 -0.2,0 -5.8,-6 0,0 -3.8,-12.2 0,-0.2 2.2,-13.6 0,0 2.7,-10.5 0,-0.2 2.4,-2.9 -0.2,-0.4 0,0 -5.3,1.3 0,0 -11.8,-0.2 0,0 -2.7,0 0,0 -10.2,-0.2 0,-0.2 -3.6,-3.6 0,-0.4 0.9,-11.3 -0.2,-0.2 -4.4,-1.3 0,0 -11.1,6.2 -0.2,0 -14.7,-16.2 0,-0.4 15.3,-13.8 0,-0.2 -14.2,-9.3 0,0 -6,-11.8 0,-0.2 1.6,-4.4 0,-0.2 -2,-9.8 0,-0.2 -22.2,-10.5 0,0 -9.6,-44.5 0,0 1.3,-6.4 0,0 0,-0.4 0.2,-10 0,0 -2.4,-7.6 0,0 -4.9,-7.3 0,0 -4.9,-6 0,0 -5.1,-4.9 -0.2,0 -2.7,-20 7.8,-6.2 5.3,0.4 3.8,-4.4 2.4,-2.2 4,-2.7 1.6,-6 -2.7,-2.4 0,-0.9 2.9,-1.8 8.4,-18.7 1.1,0 3.8,3.1 3.1,-0.7 0,-4.2 4.7,-7.3 7.1,-6.4 9.8,1.3 3.6,2 5.6,-0.9 5.1,-6 13.8,-5.3 7.3,-13.1 1.6,-9.3 2.7,0 4.7,4 7.1,0 6.2,-5.3 5.6,-0.4 6.7,-3.3 5.3,1.1 6,-4.7 5.1,3.1 7.6,-7.1 1.6,0 12.2,0.2 9.8,-9.6 3.3,0.2 3.1,1.3 8.7,-2 6.7,1.8 0.7,-1.3 -1.8,-8.7 0.9,-11.6 4.4,-3.8 6.4,-0.4 4.4,2 -0.7,4.4 2,0.2 4.4,-4 4.7,-2.9 3.6,0.9 1.8,-1.1 0.7,-0.2 0,-5.4 4.7,-3.8 1.3,0.9 0,0.2 2.2,5.1 z"
       inkscape:connector-curvature="0"
       class="DEP_07 ZON_03" /></g></svg>