<?xml version="1.0" encoding="UTF-8" standalone="no"?>
<!-- Created with Inkscape (http://www.inkscape.org/) -->

<svg
   xmlns:dc="http://purl.org/dc/elements/1.1/"
   xmlns:cc="http://creativecommons.org/ns#"
   xmlns:rdf="http://www.w3.org/1999/02/22-rdf-syntax-ns#"
   xmlns:svg="http://www.w3.org/2000/svg"
   xmlns="http://www.w3.org/2000/svg"
   xmlns:sodipodi="http://sodipodi.sourceforge.net/DTD/sodipodi-0.dtd"
   xmlns:inkscape="http://www.inkscape.org/namespaces/inkscape"
   width="129mm"
   height="85mm"
   viewBox="0 0 457.08638 301.18094"
   id="SvgDepartamento"
   version="1.1"
   inkscape:version="0.91 r13725"
   sodipodi:docname="DEP_04.svg">
  <defs
     id="defs3473" />
  <sodipodi:namedview
     id="base"
     pagecolor="#ffffff"
     bordercolor="#666666"
     borderopacity="1.0"
     inkscape:pageopacity="0.0"
     inkscape:pageshadow="2"
     inkscape:zoom="0.98994949"
     inkscape:cx="334.04199"
     inkscape:cy="167.97882"
     inkscape:document-units="px"
     inkscape:current-layer="layer1"
     showgrid="false"
     inkscape:window-width="1366"
     inkscape:window-height="705"
     inkscape:window-x="-8"
     inkscape:window-y="-8"
     inkscape:window-maximized="1" />
  <metadata
     id="metadata3476">
    <rdf:RDF>
      <cc:Work
         rdf:about="">
        <dc:format>image/svg+xml</dc:format>
        <dc:type
           rdf:resource="http://purl.org/dc/dcmitype/StillImage" />
        <dc:title></dc:title>
      </cc:Work>
    </rdf:RDF>
  </metadata>
  <g
     inkscape:label="Capa 1"
     inkscape:groupmode="layer"
     id="layer1"
     transform="translate(0,-751.18125)">
    <path
       inkscape:connector-curvature="0"
       style="fill:#b3b3b3"
       d="m 60.148214,754.89613 c 12.8625,6.025 27.3125,5.8125 41.124996,7.475 9.4625,1.025 19.1125,1.0125 28.3875,3.3125 3.1625,4.575 4.0875,10.3125 6.5625,15.27501 4.875,2.2125 9.5875,5.725 15.225,5.25 8.6125,-0.075 17.5875,3.25 25.9625,-0.125 6.45,-2.45 13.2125,-3.975 19.9625,-5.3375 3.0375,4.15 6.4,8.05 10.1,11.625 3.0625,0.0375 6.1375,0.1 9.2125,0.1875 0.8625,3.7125 1.725,7.425 2.6,11.1375 5.5875,0.3125 11.1875,-0.3375 16.4375,-2.35 4.1375,1.925 8.9125,3.725 10.8,8.275 7.325,14.325 17.0125,27.2125 25.2375,41 3.1375,5.725 5.85,11.675 8.925,17.45 3.825,6.7375 3.6875,14.7 4.775,22.1625 6.7875,-1.8125 13.6125,-3.6 20.15,-6.2625 5.5375,-2.5625 11.875,-0.975 17.4,0.7875 10,6.3375 18.075,15.325 24.6875,25.0875 3.75,5.7375 8.65,10.8875 10.8875,17.5 2.4625,7.2625 4.075,14.7875 5.6,22.3 4.85,1.05 9.7,2.5 14.7,2.55 7.3375,-6.6625 12.975,-15.0625 19.6125,-22.4125 3.7375,-1.7375 8.175,-2.6625 12.3125,-2.075 7.3,7.4 14.05,15.5875 19.1375,24.7 3.65,8.3375 4.6625,17.525 7.175,26.225 1.55,9.0375 11.95,11.0875 17.3375,17.225 -3.9125,3.25 -8.55,5.48746 -13.2125,7.44996 -8.0125,2.8375 -16.7125,1.8 -24.9,3.6125 -8.7125,1.9375 -11.775,12.3625 -20.1625,14.7875 -4.075,1.2375 -8.2,2.425 -11.8375,4.675 -9.3875,5.8875 -19.9125,9.525 -30.05,13.8625 -5.6625,2.5125 -11.8,3.575 -17.85,4.725 -1.1125,1.425 -2.225,2.8625 -3.3125,4.3125 -2.2625,0.525 -4.5,1.1 -6.7375,1.6875 0,-5.95 0.0125,-11.8875 0.0875,-17.8375 -4.8375,-1.0875 -9.8,-0.975 -14.7125,-0.875 -3.2125,3.3375 -6.475,6.625 -9.6875,9.95 -5.7,-0.1375 -11.3875,0.05 -17.0375,0.7125 -7.5125,-0.325 -13.5625,-5.65 -17.9375,-11.3375 -2.2125,-1.075 -4.525,-1.9875 -6.4625,-3.4875 -0.575,-3.3875 -0.175,-6.875 -1.0125,-10.2125 -2.275,-7.0375 -1.95,-14.525 -2.8875,-21.78746 0.6625,-6.5625 1.7375,-13.2375 -0.325,-19.7 -3.4125,-4.275 -6.9625,-8.4375 -10.2875,-12.7625 -7.425,1.0125 -13.7125,-3.9 -20.95,-3.8875 -0.025,-1.925 -0.05,-3.85 -0.05,-5.7625 -3.025,2.2125 -5.8625,4.675 -8.875,6.9 -2.275,1.9 -5.3875,0.25 -8,0.1875 -3.6625,2.2 -7.7,3.6625 -11.7375,5.0125 -0.75,-3.75 -1.2375,-7.55 -1.4875,-11.3625 -2.3375,-0.8625 -4.5875,-2.2125 -7.0875,-2.425 -1.8375,0.625 -3.525,1.6875 -4.775,3.175 -2.075,1.975 -0.4875,4.9875 -0.5375,7.425 -3.4875,4.7 -6.3375,9.8125 -9.5125,14.6875 -6.175,1.5 -12.4625,2.575 -18.725,3.625 -0.625,-2.175 -1.2625,-4.35 -1.8625,-6.5375 -3.125,-0.9625 -6.225,-2.675 -9.575,-2.35 -4.6625,2.675 -8.225,7.025 -13.45,8.7875 -5.6625,-3.5875 -12.275,-5.0875 -18.9,-5.4 -0.625,1.7 -0.75,3.65 -1.75,5.2125 -3.6125,2.15 -7.6875,3.35 -11.5625,4.925 -2.025,-3 -4.124996,-5.9625 -6.162496,-8.95 -2.0125,1.7125 -3.7875,3.8375 -6.2,5 -2.3375,0.4375 -4.725,0.3875 -7.075,0.4625 -0.025,-3.7625 -0.0375,-7.525 -0.05,-11.2875 -4.95,-1.175 -10.225,-2.0875 -15.1125,-0.1625 -4.8375,1.325 -7.3,6.2375 -11.525,8.5125 -3.5875,0.625 -7.2375,0.3375 -10.85,0.4125 -1.1125,4.0125 -2.2875,8.0125 -3.8375,11.875 -2.9625,0.75 -5.8875,1.5875 -8.8125,2.4375 -7.825,-4.6 -17.3875,-2.8875 -25.5625,-6.575 0.925,-6.75 1.2125,-13.5375 1.6875,-20.325 0.3,-6.575 6.5625,-10.125 10.2875,-14.75 1.3375,-4.8375 0.0875,-10.025 1.025,-14.95 4.2125,-3.125 9.35,-4.7375 13.5,-7.9875 5.6125,-4.4375 11.5125,-10.15 11.2375,-17.925 3.825,-2.4375 8.2875,-3.2625 12.775,-3 6.0875,0.4125 11.15,-3.4625 16.25,-6.175 1.125,-8.375 1.7,-16.8125 2.6125,-25.2125 0.575,-3.775 -1.4125,-7.1625 -2.8875,-10.4625 0.25,-0.8875 0.5125,-1.7625 0.7875,-2.6375 6.025,-1.575 12.0625,-3.1875 18.2,-4.325 4.0125,-0.8875 8.599996,-1.6 11.274996,-5.0875 3.1,-4.125 3.95,-9.3875 6.15,-13.9625 2.1625,-5.6 5.975,-10.925 5.225,-17.2125 -0.525,-4.9375 1.975,-9.275 3.625,-13.725 -4.6875,-9.2125 -13.95,-15.0875 -22.837496,-19.75 -6.3625,-2.95 -5.25,-11.62501 -10.075,-15.97501 -4.0125,-3.575 -9.0625,-5.8375 -12.725,-9.8125 -2.7875,-3.05 -5.3375,-6.3125 -8.075,-9.4 z"
       id="DEP_04" />
  </g>
</svg>
