<?xml version="1.0" encoding="UTF-8" standalone="no"?>
<!-- Generator: Adobe Illustrator 19.2.0, SVG Export Plug-In . SVG Version: 6.00 Build 0)  -->

<svg
   xmlns:dc="http://purl.org/dc/elements/1.1/"
   xmlns:cc="http://creativecommons.org/ns#"
   xmlns:rdf="http://www.w3.org/1999/02/22-rdf-syntax-ns#"
   xmlns:svg="http://www.w3.org/2000/svg"
   xmlns="http://www.w3.org/2000/svg"
   xmlns:sodipodi="http://sodipodi.sourceforge.net/DTD/sodipodi-0.dtd"
   xmlns:inkscape="http://www.inkscape.org/namespaces/inkscape"
   version="1.1"
   id="SvgMunicipio"
   x="0px"
   y="0px"
   viewBox="0 0 1000 654.7"
   style="enable-background:new 0 0 1000 654.7;"
   xml:space="preserve"
   inkscape:version="0.91 r13725"
   sodipodi:docname="MUN_ID0211.svg"><metadata
     id="metadata10"><rdf:RDF><cc:Work
         rdf:about=""><dc:format>image/svg+xml</dc:format><dc:type
           rdf:resource="http://purl.org/dc/dcmitype/StillImage" /></cc:Work></rdf:RDF></metadata><defs
     id="defs8" /><sodipodi:namedview
     pagecolor="#ffffff"
     bordercolor="#666666"
     borderopacity="1"
     objecttolerance="10"
     gridtolerance="10"
     guidetolerance="10"
     inkscape:pageopacity="0"
     inkscape:pageshadow="2"
     inkscape:window-width="1366"
     inkscape:window-height="705"
     id="namedview6"
     showgrid="false"
     inkscape:zoom="0.36047044"
     inkscape:cx="500"
     inkscape:cy="327.35001"
     inkscape:window-x="-8"
     inkscape:window-y="-8"
     inkscape:window-maximized="1"
     inkscape:current-layer="svg" /><g
     id="g3"><path
       id="MUN_0211"
       d="m 491.9,654.7 29.1,-65.8 -0.3,-0.1 -44.4,-16.3 -186.6,-68.4 -5.8,0.2 -3.7,0.2 -0.1,0 -84,3.9 0,0 -25.7,1.2 -25.6,1.2 -23.8,1.1 -5.6,0.3 -0.9,-2.6 -1,-2.5 -0.6,-2.5 -0.7,-2.5 -1.5,-7.4 -1.4,-7.4 6.2,-43.4 0.5,-4.1 6.5,-45.9 -1,-0.7 -1.1,-1.2 0.6,-0.9 0.3,-1.4 -0.1,-3.1 0.6,-1.5 1,-2.1 1.2,-2.5 1.1,-1.8 0.5,-1.5 0.9,-2.2 0.9,-2.2 0.4,-1.7 0.1,-1.2 0.4,-1.6 0.2,-2 0.1,-1.6 -0.3,-0.1 -7.1,-5.1 -3.2,-3.7 0.6,-5.3 3.9,-15.7 -0.2,-22.8 -1.2,-11.8 -0.3,-0.8 -0.2,-1.1 -0.5,-1.4 -0.2,-1 -0.4,-1 -0.7,-1.4 -0.3,-0.9 -0.5,-1 -0.6,-1.2 -0.3,-1.1 -0.9,-2 -55,-62.9 -13.1,3.4 -17.4,4.5 -1.9,-5.8 L 0,137 l 53.9,-0.7 26.2,-0.9 10.6,-0.7 28.6,-1.9 47.6,-4.6 5.2,-0.5 1.5,-1.5 7,-6.7 18.2,-15.9 7.3,-1.4 3,-0.1 5.2,1.4 4.9,4 5.5,10.4 4.7,10.5 0.4,0.8 4.4,5.4 11.5,7.3 6.5,0 4.2,-2.6 4.8,-6.1 3.5,-7.5 2.7,-10.1 0.3,-1.9 2.3,-3.4 5.2,-3.4 11.3,-6.1 19.9,-11.4 18.7,-5.5 6.9,-0.8 9.8,5.7 12.2,5.5 11.2,-1.7 15.6,-15.4 9,-7.8 4.1,-3.4 3.9,0.6 2.3,3 3.7,4.7 4.9,9.4 3.5,11.6 2.7,12.4 -1,3.9 -4.5,14.2 0.2,13.9 1.1,6.7 10.8,23.7 10.2,12.6 12.3,13 4.4,4.9 2.1,4.1 0.6,1.3 -0.9,10.4 -1.5,5 -2,9.8 -5.1,11.6 -1.5,5.8 -0.9,7.7 0.6,9.9 3.8,8.3 3.4,3.8 3.8,2.1 4.5,1.5 4.4,0.9 4.6,-1 8.7,-8.4 5.6,-10.1 3,-3.7 5.6,-0.5 6.9,2.2 2.8,2.1 5,4 8.2,10 6.9,9 4.7,-0.1 9.2,-6.3 7,-4.5 8.9,-4.8 10.3,-3.3 8.3,-2.9 9.2,-3.3 10.1,-0.5 4.7,1.8 10.8,9.1 15.4,13 8.5,2.8 4.7,1 6.6,-3.4 2.7,-1.3 3.6,-3.8 4.2,-2.7 5.3,-2.9 6.1,1.8 8.7,3.2 6.6,3.8 11.2,3.4 12.3,0.6 4.3,0.3 11.9,0.9 27.4,-1.2 10.2,-3.1 4.8,-13.5 0.9,-12.5 -0.2,-7 0.2,-5.7 -0.3,-6.3 -1.1,-4.2 0.9,-6.8 2.6,-7 3.8,-3.7 4,-3.1 16.8,-5.7 14.5,-5.5 1.8,-0.8 6.3,-2.6 4,-5.2 5.1,-13.8 1.7,-12.8 1,-13.4 -0.8,-8 1.9,-10.5 2.5,-4.8 4.2,-3.2 1.7,-1.4 5.6,-10.6 0.8,-5.5 -0.8,-3.5 -0.6,-4.8 1.8,-6 6.6,-11.1 2.2,-4.6 1.9,-4 5,-12 0.9,-3.7 5.1,-9.2 5.6,-1.7 10.2,-0.8 13.2,3.1 6.1,-0.1 3.5,-0.9 2.8,-1.4 4,-3.9 2.5,-4.9 0,-7.6 -3.9,-6.9 -3.3,-3.1 -7,-8.1 -0.4,-4.9 2.7,-4.1 9,-0.9 6.1,2.4 5.4,-0.7 3.7,-1.5 0.7,-0.6 3.2,-2.2 6.4,-2.9 -1.8,8.1 -0.8,4.5 0.1,2.9 0.8,2.7 1.8,3.1 1.5,2.5 1.8,1.7 2.9,1.5 1.5,0.8 1.8,0.6 2.7,0.8 1.5,0.4 0.9,0.5 0.5,1.4 0.1,0.9 0.5,1.8 0.5,1.3 1.3,1.4 1.4,0.9 2.3,0.3 2.8,-0.7 0.1,0 5.4,17.7 0,0 4.3,15.5 0,0 6.7,22.1 0,0 0.6,17.5 1,24.1 0,0 3.9,7.2 0,0 16.7,30.6 0,0 10.4,19.7 0,0 0.2,12.4 0,0 0.1,4.5 0,0 1.2,15.6 -0.1,0.1 -16.7,12.1 0,0 -21.1,15.6 0,0 -10,7.7 0,0 -3.7,2.7 0,0.1 -3.3,19.1 0,0 -1.8,18.8 0,0.1 -3,14.2 0,0 1.6,4.5 0,0 9,25.8 0,0 6.8,24.5 0.6,2.2 0.4,0 0.4,0 0.3,0 0.2,0.1 0.2,0 0.3,0.2 0.2,0.1 0.4,0.2 0.2,0.1 0.3,0.1 0.3,0.2 0.3,0 0,0 0.3,0.1 0.2,0.1 0.4,0 0.3,0.1 0.3,0.1 0.8,0.5 0.5,0.3 0.4,0.3 0.6,0.5 0.6,0.6 0.5,0.4 1.1,0.7 0.3,0.1 0.3,0.1 0.3,0.2 0.2,0.2 0.2,0.5 0.3,0.3 0.2,0.3 0.3,0.3 0.5,0.4 0.4,0.4 0.4,0.3 0.6,0.3 0.4,0.4 0.7,0.6 0.7,0.6 0,0 0.3,0.2 0,0 0.3,0.1 0.1,0 0.6,0.3 0.3,0.2 0.4,0.1 0.5,0.5 0.4,0.3 0.4,0.2 0.3,0.3 0.4,0.2 0.4,0.1 0.5,0.1 0.1,0 0.2,0 0.6,0 0.6,0 0.2,0.1 0.4,0.2 0,0.1 0.3,0.2 0.3,0.3 0.3,0.7 0.4,0.7 0.4,0.4 0.4,0.5 0.4,0.6 0.4,0.3 0.5,0.3 0.4,0.2 0.9,0.4 0.4,0.1 0.6,0.2 0.5,0.1 0.6,0.4 0.7,0.5 0.5,0.6 0.7,0.7 0.7,0.8 0.2,0.3 0.7,0.6 0.5,0.5 0.5,0.5 0.4,0.7 0.2,0.7 0.2,0.7 0.3,0.7 0.4,0.5 0.2,0.2 0.2,0.2 0.9,0.5 0.9,0.3 0.9,0.3 0.6,0.5 0.5,0.6 0.2,0.7 0,0 0,1.5 0,0.9 -0.1,0.7 -0.8,1.9 -0.2,0.6 -0.2,1.6 -0.1,0.5 -0.3,0.4 -0.4,0.8 0,0 -0.2,1 0.7,1 0,0.1 -22.4,43.6 0,0 -9.2,17.5 0,0.1 -1.4,67.5 0,0.1 -22.2,19.5 0,0 -22.9,16.5 0,0 -0.3,0.2 -19.2,16.2 0,0 -4.1,0.8 -23.8,4.6 -20.2,4 -57,11 -124.3,24 0,0 -82.3,8.5 0,0 -94.9,8.8 z"
       inkscape:connector-curvature="0"
       class="DEP_02 ZON_01" /></g></svg>