<?xml version="1.0" encoding="UTF-8" standalone="no"?>
<!-- Generator: Adobe Illustrator 19.2.0, SVG Export Plug-In . SVG Version: 6.00 Build 0)  -->

<svg
   xmlns:dc="http://purl.org/dc/elements/1.1/"
   xmlns:cc="http://creativecommons.org/ns#"
   xmlns:rdf="http://www.w3.org/1999/02/22-rdf-syntax-ns#"
   xmlns:svg="http://www.w3.org/2000/svg"
   xmlns="http://www.w3.org/2000/svg"
   xmlns:sodipodi="http://sodipodi.sourceforge.net/DTD/sodipodi-0.dtd"
   xmlns:inkscape="http://www.inkscape.org/namespaces/inkscape"
   version="1.1"
   id="SvgMunicipio"
   x="0px"
   y="0px"
   viewBox="0 0 815.4 1000"
   style="enable-background:new 0 0 815.4 1000;"
   xml:space="preserve"
   inkscape:version="0.91 r13725"
   sodipodi:docname="MUN_ID0210.svg"><metadata
     id="metadata10"><rdf:RDF><cc:Work
         rdf:about=""><dc:format>image/svg+xml</dc:format><dc:type
           rdf:resource="http://purl.org/dc/dcmitype/StillImage" /></cc:Work></rdf:RDF></metadata><defs
     id="defs8" /><sodipodi:namedview
     pagecolor="#ffffff"
     bordercolor="#666666"
     borderopacity="1"
     objecttolerance="10"
     gridtolerance="10"
     guidetolerance="10"
     inkscape:pageopacity="0"
     inkscape:pageshadow="2"
     inkscape:window-width="1366"
     inkscape:window-height="705"
     id="namedview6"
     showgrid="false"
     inkscape:zoom="0.236"
     inkscape:cx="407.70001"
     inkscape:cy="500"
     inkscape:window-x="-8"
     inkscape:window-y="-8"
     inkscape:window-maximized="1"
     inkscape:current-layer="svg" /><g
     id="g3"><path
       id="MUN_0210"
       d="m 680.4,185.5 -1.9,4.4 -1.5,3 -1.6,3.7 0.4,4.8 0.5,3.4 0.5,2.1 0.5,2.5 0.7,2.2 0.7,2.3 0.8,1.9 1.1,3.7 1.1,3.2 0.2,2.5 -0.3,1.9 -0.8,2.9 -1.1,1.6 -1.1,1.2 -2.1,0.9 -1.7,1.3 -2,3.3 -1.5,2.7 -1.3,3.5 -0.6,2.3 0.2,1.5 1.2,1.8 1.4,1.6 1.4,2.1 1.8,1.9 1.2,1.8 1.5,1.3 1.1,1.9 0.6,2 0.6,2.2 0.6,3.5 0.4,3.2 0.4,5.2 -0.2,3.1 0,4.4 -0.3,2.1 -0.4,2 -0.4,2.3 -0.9,2.2 -0.6,3 -0.2,2.7 0.3,3.9 0.9,2.8 2.1,3.7 2.4,1.9 2.5,0.9 2.4,0.4 3.3,-0.1 3.4,-2.3 2.3,-1.4 4.4,-0.9 4.2,0 3.6,0.9 3.2,1.3 2.9,1.9 2.7,2.6 2.3,2 2.5,2.7 0.8,1.7 1,2.9 1.6,3 1.9,2.6 3.4,2 3.9,1.3 4.8,0.6 3.5,-0.7 2.5,-0.8 1.8,-0.2 0.4,-0.1 1.8,-0.1 0.9,-1.4 1,-0.8 1.5,-1.9 1.6,-1.2 2.1,-0.9 2.3,-0.8 4,0 3.9,0.2 4.1,0 6.2,-0.6 5.3,-0.6 4.3,-0.7 4.1,0.1 2.2,0.6 5.2,3 4.6,3.4 1,0.7 1.1,0.6 0.9,0.6 1.5,0.6 1.3,0.2 1.5,0 2.1,-0.8 2.3,-0.7 7.2,-2.6 0.2,1.2 -0.4,3.7 -0.2,1.1 0,0.1 0,0.4 0.1,1.2 0.1,0.7 0.1,0.6 0.1,0.7 0.1,1.5 0,0.4 -0.1,0.9 -0.1,1.6 -0.1,0.7 -0.1,0.6 -0.1,0.4 -0.3,0.5 -0.4,0.6 -0.2,0.5 -0.3,0.8 -0.5,1.5 -0.2,0.8 -0.2,0.7 -0.1,0.7 -0.1,0.1 -1.1,1.9 -1,1.7 -0.6,1.2 -0.8,1.7 -0.4,0.9 -0.2,0.6 -0.2,0.3 -0.5,0.9 -1.4,1.9 -0.2,1.6 -0.1,0.2 -0.7,2.6 -0.4,1.6 -0.4,1 -0.7,1.2 0.1,0.1 -0.7,1.4 -1.5,3.6 -0.9,2.9 -1,1.8 -0.8,2.1 -0.2,0.4 -0.6,1.7 -1,2.3 -0.9,1.5 -0.1,0.2 -0.1,0.3 -0.7,1.4 -1.2,2.6 0,0 0,0.1 -0.1,0.2 -0.5,1.2 -0.4,0.8 -0.1,0.2 -1,2.3 -0.3,0.6 -0.6,2.2 -0.1,0.4 -1,1.9 -2.3,4.2 -0.4,0.5 -0.2,0.3 -0.1,0.2 0,0.3 -0.1,0.4 -0.2,1.4 -0.8,1.3 -0.1,0.2 -1.1,2.5 -0.1,0.2 -1.8,3 -0.5,1.5 -1.7,4.9 -0.9,2.3 -1.4,3.3 0,0 -0.4,0.8 0,0 -0.7,1.6 -0.7,1.7 -0.9,2.3 -1.1,2.6 -1,2.6 0,0 -0.3,0.7 -1,1.9 0,0.3 0,1.1 0,0.6 -0.1,0.9 -0.1,1.4 -0.1,0.6 -0.1,0.5 -0.2,0.7 0.2,1.1 0.6,1.7 0.1,1.2 0,0.9 -0.2,2.7 -0.2,0.3 0,0 0,0 -1.8,-1.5 -1.4,-0.8 -1.1,-0.6 -1.2,-0.4 -0.7,-0.6 -0.4,-1.2 -0.3,-1 -0.2,-0.8 -0.7,-0.4 -1,0.3 -0.8,0.8 -0.5,0.8 -0.2,0.7 0,0.6 -0.3,0.4 -1.3,0.7 -0.8,0.5 -0.7,0.6 -0.6,0.8 -0.1,1.3 0.8,1.7 1,1.8 0.5,0.9 0.2,0.8 0.1,1.1 -0.8,1.3 -0.4,1 -1,0.5 -0.6,0.3 -1.3,-0.9 -0.7,-0.6 -1.4,-0.9 -1.1,-1.1 -1.1,-1 -0.8,-0.8 -0.3,-1 -0.5,-1 -1,-1.3 -0.9,-0.5 -1.4,-0.5 -0.6,-0.5 -0.4,-1.1 -0.3,-0.6 -0.8,-0.1 -1.5,0.7 -0.5,0.4 -1.2,0.6 -0.8,0.6 -0.6,0.3 -0.4,0.7 -0.6,0.8 -0.6,0.5 -0.6,0.6 -0.4,0.2 -0.1,0.5 0.6,0.6 0.1,0.4 0,0.4 -0.6,0.4 -1.2,-0.1 -0.6,-0.9 -0.4,-1.2 -0.5,-0.7 -1,-1.8 -0.2,-0.6 -0.2,-0.5 -0.3,-0.4 -0.8,-0.8 -0.6,-0.9 -0.6,-0.5 -0.6,-0.8 -0.4,-0.9 -0.8,-1.1 -0.4,-0.8 -0.5,-1 -1,-0.8 -1.2,-0.6 -1.2,-0.7 -1,-0.3 -1.1,0.1 -0.7,0.4 -0.6,0.2 -0.6,0.9 -0.8,1.2 -1.1,1.4 -0.4,0.8 -0.8,0.7 -0.4,0.7 -0.6,1.3 -0.4,0.8 -0.8,1.3 -0.3,1.3 -0.2,1.6 -0.1,1.8 -0.8,1.9 -1.2,1.7 -1.4,0.5 -0.7,0.5 -0.6,0.3 -0.9,0.2 -1,0.3 -1.2,-0.1 -0.8,-0.3 -0.6,-0.4 -0.6,-0.4 -0.7,-0.5 -0.5,-0.2 -0.7,0 -0.4,0 -0.4,0.3 -0.2,0.4 -0.6,0 -0.9,-0.2 -0.3,-0.5 -0.3,-0.7 -0.2,-0.4 -0.7,0.1 -0.8,0.3 -1,0.4 -0.6,0.5 -0.4,0.8 0,1 0.1,1.1 -0.1,1.1 -0.6,0.4 -0.8,0.4 -0.8,0.4 -1.1,0.3 -0.9,0.2 -0.8,0.1 -0.6,-0.4 -0.6,-0.2 -0.6,-0.3 -0.9,-0.3 -0.6,-0.3 -0.7,-0.4 -0.6,-0.4 -1.1,-0.4 -0.6,-0.2 -1.3,-0.2 -0.7,-0.1 -0.9,-0.1 -0.6,0.1 -0.9,0.1 -1.2,0.1 -1,-0.4 -0.8,-0.9 -0.7,-0.6 -0.3,-0.5 -0.4,-0.5 -0.4,-0.3 -0.3,-0.5 -0.3,-0.4 0,-1.3 0,-0.9 0.3,-0.8 0.1,-0.9 -0.1,-0.8 -0.2,-0.9 -0.1,-0.9 -0.4,-1.2 0.3,-0.9 0.3,-1 1,-0.8 1.5,-1 0.6,-0.6 0.3,-1 0,-0.8 -0.3,-0.7 -0.8,-0.6 -0.6,-0.7 -0.5,-0.9 -0.4,-0.7 -0.5,-0.4 -1,0.2 -1.3,0.5 -0.9,0.7 -0.8,0.7 -0.5,0.5 -0.6,1.1 -0.7,0.7 -0.6,0.3 -0.7,0.1 -0.6,-0.2 -0.9,-0.6 -0.5,-0.8 -0.2,-1.2 -0.1,-1.1 -0.7,-1.2 -0.4,-0.7 -0.5,-0.6 -0.9,-0.2 -1.2,-0.2 -1.2,-0.4 -1,-0.3 -0.8,-0.4 -0.6,0 -0.5,-0.4 0,-0.6 0.4,-0.9 0.1,-0.8 0.1,-0.5 0.4,-0.8 0.1,-1.1 0.2,-1.1 -0.1,-1.2 -0.1,-0.4 -0.6,-1 -0.7,-1 -0.6,-0.2 -1.2,0.2 -1,0.3 -0.8,0.5 -0.5,0.8 -0.5,0.6 -0.7,0.5 -0.6,0.2 -0.8,0.1 -0.7,0.1 -0.6,0.2 -0.8,0.1 -0.3,0.2 -1,0.1 -0.4,0 -0.6,-0.4 -0.2,-0.8 0.3,-1.1 0.5,-1.1 0.6,-1.4 0.3,-1 0.2,-1.2 0.3,-1.1 0.6,-0.6 -0.3,-0.4 -0.6,-0.4 -0.6,0 -1.5,0.6 -0.9,0.3 -1,0.5 -0.9,0.2 -1.1,0.6 -1,0.7 -0.8,0.2 -1.1,0 -1.6,-0.8 -1.4,-0.6 -1.3,-0.9 -1.9,-0.5 -1.8,-1.4 -1.1,-0.6 -0.6,-1.1 -0.4,-1.5 -0.6,-1.1 -0.7,-1.1 -0.3,-1.1 -0.7,-1.1 -0.5,-0.7 -0.4,-0.5 0,-1.1 -0.4,-1.5 -0.4,-1.3 -0.4,-1.1 -0.7,-0.8 -0.8,-0.5 -1.4,-0.1 -2,-0.3 -0.6,-0.1 -0.2,-0.8 0,-0.8 0.3,-0.9 0.1,-0.7 0.5,-0.6 0.5,-0.9 0,-1 -0.7,-0.5 -1.3,-0.2 -1.5,-0.2 -0.9,0.1 -0.9,0 -0.9,-0.2 -1.1,0.1 -0.8,0.3 -0.4,0.1 -0.4,-0.1 -0.6,0.1 -0.6,0.3 -0.6,0.5 -0.5,0.1 -0.4,0.7 -0.7,0.9 -0.8,1 -0.5,1.6 -0.6,2 0.3,0.7 0,0.8 0,0.6 -0.2,0.7 -0.4,0.6 -0.5,0.5 -1.1,0.5 -1.4,0.8 -1.2,0.5 -0.6,0.7 -0.5,0.8 -0.6,0.9 -0.5,1.1 -0.5,0.8 -0.2,0.8 -0.3,0.7 -0.3,0.6 -0.3,0.5 -1,0.5 -0.6,0.3 -0.6,0.5 -0.7,0.6 -0.4,0.6 0.1,1.3 0.1,0.6 -0.1,0.7 -0.1,1.1 0.2,0.7 0.3,0.9 0,0.6 0,0.6 0.6,0.6 0.7,0.3 0.5,0.5 0.2,0.6 0.2,0.4 0,0.6 -0.6,0.6 -0.2,0.5 -0.5,0.6 -0.5,0.1 -0.5,0.5 -0.3,0.6 -0.6,0.4 -0.6,0.4 -0.7,0.1 -0.6,-0.2 -0.6,-0.3 -0.6,-0.4 -0.7,-0.2 -0.7,-0.3 -0.6,-0.6 -0.1,-0.7 0.1,-1.1 0.3,-1 0.3,-1.1 0.2,-0.4 0.2,-0.7 0.3,-0.8 0.1,-0.6 -0.3,-0.7 -0.5,-0.8 -0.7,-0.7 -1,-0.5 -0.8,-0.9 -1,-1 -1.1,-1.1 -0.8,-0.5 -1.1,-0.6 -1.5,-0.2 -1.4,0.3 -1.4,0.4 -0.8,0.5 -0.4,1 -0.3,0.6 -0.2,0.6 -0.2,1.1 -1.2,0.6 0,2.5 0.8,1.5 0.5,1.2 0.4,0.2 0.5,0.7 0.2,0.9 -0.5,1.4 -0.8,1.1 -1,0.6 -0.9,0.4 -1.1,-0.6 -0.5,-0.6 -0.7,-0.7 -0.6,-0.4 -0.4,-0.1 -0.7,-0.6 -0.5,-0.5 -1.6,-1.2 -0.7,-0.4 -0.7,-0.5 -0.5,-0.7 -0.6,-1 -0.4,-1.1 -0.6,-0.7 -0.7,-0.7 -0.5,-0.3 -0.9,0 -1,0.3 -1.8,1.2 -1.3,0.7 -0.8,1.2 -1,1.3 -1,0.6 -2.7,0.8 -2.1,0.2 -1.9,-0.4 -0.9,0 -1.4,0.1 -0.6,0.3 -0.6,0.4 -49.5,43.4 -0.5,0.3 0.1,0.5 0.2,0.6 0,0.6 0,0.4 0,0.2 -0.1,0.3 -0.3,0.6 -0.4,0.5 -0.3,0.2 -1.9,0.4 -0.9,0.5 -0.6,0.6 -0.2,0.8 -0.2,0.2 -0.1,0.1 -0.3,0.2 -0.1,0 -0.1,0.1 -0.1,0.3 -0.2,0.2 -0.4,0.3 -0.1,0.2 0,0.2 0.2,0.4 0,0.3 0,0.3 -0.3,0.5 -0.3,0.4 -0.4,0.4 0,0.1 -0.2,0.2 -0.2,0.2 -0.2,0.4 -0.4,0.4 -0.1,0.1 -0.2,0.2 -1.3,0.9 -1.1,0.6 -0.7,0.9 -0.2,0.5 0,0.4 0,0.5 -0.1,0.5 -0.5,0.5 -0.1,0.4 -0.3,0.1 -0.8,0.1 -1.1,-0.3 -0.9,-0.2 -0.9,0.1 -0.6,0 -0.4,0.1 -0.4,0.1 -0.1,0.1 -0.1,0.2 -0.2,0.3 -0.6,0.1 -0.4,0.1 -1.1,0.4 -1.1,0.6 -1.5,0.4 -1,-0.2 -0.7,0 -0.4,0 -1.3,0.4 -0.2,0 -0.4,-0.1 -0.2,0 -0.3,0.1 -0.3,0.2 0,0.2 0,0.4 0,0 -0.2,0.5 -0.5,0.5 -0.6,0.7 -0.8,0.9 -0.1,0.7 -0.2,0.8 -0.5,0.5 -0.4,0.6 -0.4,0.3 -0.7,0.4 -0.9,0.4 -0.4,0.2 -0.2,0.4 0.1,1 -0.3,0.4 -0.7,0.3 -0.6,0.4 -0.8,0.5 -0.5,0.2 -0.4,0.3 -0.5,0.5 -0.3,0.2 -0.2,0.4 -0.2,0.2 -0.7,0.5 -0.4,0.3 -0.1,0.2 -0.1,0.4 -0.2,0.3 -0.4,0.3 -0.6,0.3 -0.4,0.3 0,0.3 0,0.2 -0.2,0.1 -0.2,0.1 -0.9,0.3 -0.3,0.3 -1.1,0.4 -0.6,0.3 -0.6,0.4 -0.3,0.4 -0.1,0.5 -0.6,0.6 -0.4,0.3 -0.5,0.6 -0.4,0.7 -2.6,-1 -2.5,-1 -3.3,-1.1 -3.3,-1.1 0.4,-0.6 0.3,-0.6 0.1,-0.5 0,-0.4 0,-0.3 0,-0.9 -3.7,-0.5 -1.9,-0.3 -5.6,-0.8 0.1,0.2 0.3,0.1 0.4,0.3 0,0.3 -0.1,0.5 -0.3,0.4 -0.3,0.5 -0.1,0.3 -0.1,0.3 0,0.4 -0.1,0.2 -0.1,0.4 -0.2,0.5 -0.2,0.4 -0.1,0.6 -0.1,0.5 -0.2,0.4 -0.6,0.4 -0.2,0.4 -0.3,0.5 -0.6,0.2 -0.5,0 -0.2,0.2 -0.1,0.2 -0.1,0.2 0,0.3 -0.4,0.2 -0.2,0 -0.3,0.2 -0.2,0.3 0,0.3 0.1,0.2 0.1,0.6 0,0.2 0.2,0.4 0.2,0.3 0.2,0.1 0.1,0.1 0,0.3 -0.3,0.2 -0.2,0.1 -0.2,0.3 -0.1,0.3 0,0.3 -0.1,0.4 -0.1,0.6 0.1,0.2 0.1,0.2 0,0.2 0,0.3 0,0.4 0.1,0.1 0.2,0.1 0.2,0.2 0.3,0.2 -0.1,0.3 -0.2,0.4 -0.6,0.5 -0.6,0.2 -0.5,0.4 -0.3,0.5 0.7,0.3 0,0.5 0.3,0.8 0,0.7 -0.4,0.8 -1.1,1.4 -0.9,1.3 -0.4,0.6 -0.4,0.8 -0.4,0.6 -0.3,0.2 -0.6,0.5 -0.5,0.7 -0.2,0.5 -0.2,0.5 -0.3,0.7 -0.5,0.5 -0.3,0.2 -0.3,0.5 -0.3,0.5 -0.2,0.2 -0.3,0.3 -0.4,0.3 -0.4,0.4 -0.1,0.1 0,0.3 -0.1,0.6 -0.1,0.2 -0.2,0 -0.1,0.1 -0.1,0 -0.1,0.1 -0.3,0 -0.2,0.1 -0.2,0.1 -0.2,0.2 -0.1,0.1 -0.1,0.1 0,0.1 0,0.7 0.1,0.2 0,0.6 -0.6,0.6 -0.4,0.5 -0.4,0.4 -0.4,0.2 -0.4,0.4 -0.2,0.4 0,0.2 0,0.5 0,0.1 0,0.3 -0.1,0.1 -0.2,0 -0.5,0 -0.5,0.1 -0.1,0 -0.3,0.1 -0.2,0.2 -0.1,0.3 0.1,0.2 0,0.2 0,0.1 0,0.1 -0.2,0.2 -0.1,0.2 -0.2,0.3 -0.4,0.6 -0.1,0.3 -0.1,0.4 0,0.1 0,0.2 -0.2,0.3 -0.5,0.3 -0.3,0.5 -0.3,0.5 -0.3,0.3 -0.2,0.4 -0.3,0.4 -0.5,0.5 -0.4,0.5 -0.1,0.3 -0.1,0.4 -0.2,0.7 0,0.4 -0.4,0.1 -0.5,0.4 -0.4,0.2 -1.1,0.2 -1.8,0.9 -1.1,1.2 -0.6,1.3 -1.5,2.1 -0.8,1.5 -1.3,2.3 -0.1,0.3 0,1.6 -0.2,0.3 -0.2,0.1 -0.4,0 -0.4,0 -0.2,0 -0.2,0 -0.2,0.1 -1.3,0.9 -0.2,0.1 -0.1,0.3 -0.1,0.2 -0.3,0.8 -0.3,0.9 -0.2,1.2 -0.1,0.8 0.1,1.2 0,0.4 0.3,0.9 0.4,0.7 0,1.3 -0.2,0.6 -0.6,0.6 0,0.4 0,0.8 0.1,1.3 0,1.6 -0.6,1.8 -0.5,1.6 0,1 0.2,0.9 0,0.9 -0.1,0.6 -0.5,0.7 -0.2,0.8 -0.7,1.2 -0.6,0.5 0,0.8 0,0.1 -0.1,1.2 -0.4,0.9 -0.3,0.8 -0.4,0.7 -0.4,0.6 -0.2,0.5 -1,1.2 -0.4,0.7 -0.1,0.1 -0.2,0.7 -0.2,1.5 -0.1,0.1 0,0.4 0,0.1 -0.2,0.2 -0.1,0.2 -0.2,0.6 -0.4,0.8 -0.3,0.5 -5.9,27.4 -0.4,1.5 -7.5,28.3 -13.1,49.6 4.9,18.2 -0.7,6.3 -1.9,-0.1 -1.8,0.1 -1.1,-0.2 -2.3,-0.6 -2.7,-0.7 -0.9,-0.1 -1.1,0 -1.2,0.2 -1,0.6 -1.5,0.6 -0.2,-0.3 -0.9,0.1 -1.2,-0.1 -2.1,-0.4 -0.9,-0.1 -1.9,0 -1.1,0.1 -0.7,0.1 -0.8,0.2 -1.2,0.6 -0.8,0.3 -0.7,0.2 -0.7,0.1 -1.2,0.4 -0.9,0.2 -1.6,0.2 -1.1,0.3 -0.3,0.1 -0.8,0.5 -0.1,0 -0.6,0.2 -0.8,0.1 -0.7,0 -0.7,0.3 -0.7,0.4 -0.8,0.1 -0.6,0.1 -0.7,0.3 -1,0.3 -1.7,0.3 -1.5,0.1 -2.8,0 -0.6,0.2 -1.3,0.6 -1.5,0.6 -0.9,0.3 -1.3,0.3 -0.3,0.3 -0.6,2.3 -0.3,1.1 -0.4,1.3 -0.3,1 0,0.2 0.4,0.3 0.5,0.2 0.5,0 -1,8.2 -0.2,1.2 -17.7,122.9 -3.3,23.6 -2.8,20 0,0.3 0,0.2 -0.3,-0.3 -0.6,0.2 -0.1,0 -0.2,0 -0.1,0 0,0 -0.2,0.1 -0.1,0 -0.1,0.1 -0.1,0 0,0 -0.2,0 -0.1,0 -0.2,0 0,0 -0.1,0 -0.1,0 -0.2,0 -0.1,0 -0.5,0 -0.1,0 -0.1,0 -0.1,0 -0.1,0 -0.2,0 -0.1,0 -0.1,0 -0.2,0 -0.6,0 -0.2,0 -0.1,0 -0.1,0 -0.2,0 -0.1,0 -0.1,-0.1 -0.1,-0.1 -0.1,-0.1 -0.1,-0.1 -0.1,-0.1 -0.1,-0.1 -0.1,-0.1 -0.1,-0.1 -0.1,0 -0.2,0 -0.2,0 -0.1,0 -0.2,-0.1 -0.1,0 -0.1,-0.1 -0.2,-0.1 -0.1,-0.1 -0.1,-0.1 -0.1,-0.1 -0.1,-0.1 -0.1,-0.1 -0.1,0 -0.1,-0.1 -0.1,0 -0.2,0 -2.1,0 -0.1,0 -0.1,0 -0.2,0 -0.2,0 -0.1,0 -0.2,0 -0.1,0 -0.1,0 -0.1,0 -0.7,0 -0.2,0 -0.3,0.1 0.2,0.5 -0.8,0.1 -4.9,-1.5 -0.3,0 -0.8,-0.5 -0.1,-0.1 -0.2,0.1 -0.5,0.1 -0.3,0 -0.6,0.2 -0.4,0.1 -0.5,0 -0.3,0 -0.6,0.1 -0.4,0 -0.9,0.1 -0.4,0 -0.2,0 -0.5,0.1 -0.8,0.1 -0.8,0.1 -0.4,0 -0.3,0 -1.8,0.2 -0.6,0.1 -1.2,0.2 -3.7,0.7 -8.2,1.7 -2.1,0.3 -7.1,1 -4.3,0.5 -0.6,0.1 -0.2,0 -3,0.2 -0.7,0.2 -1.2,0.3 -1.6,0.2 -2.2,0.4 -3.2,0.7 -4.3,0.8 -3.6,0.7 -3.2,0.4 -1.7,0.2 -0.8,0.1 -0.3,0 -10.9,2.9 0,0 -1.2,0.4 -4.4,0.8 -7.4,1.5 -2.6,0.5 -1,0.1 0.4,0.5 0.1,0.2 0,0.4 0.2,0.3 0.2,0.1 0,0 -0.2,0.9 0,0.1 0,0.4 0.1,0.4 0.1,0.5 0,0.2 0,0.1 0,0.1 -0.1,0.4 -0.1,0.4 -0.2,0.6 0,0.1 0,0.1 0,0.3 0,0.3 0,0.3 -0.1,0.4 -0.1,0.6 0,0.2 -0.2,1.1 -0.3,1.6 0,0.3 0,0.4 0,0 -0.1,0.5 0,0.4 -0.1,0.6 0,0.4 0,0.5 -0.2,0.3 0,0.1 0.1,0.3 -0.2,0.6 -0.1,0.3 -0.1,0.9 -0.2,1.5 -0.2,1.5 -0.5,1.6 -0.2,1.1 -0.6,2.8 -0.4,1.9 -0.5,3.2 -0.3,2.2 -0.3,1.6 -0.6,2.6 -0.6,4 -0.1,0.5 -0.2,1.6 -0.4,2.5 -0.5,4.1 -0.6,0.3 -0.9,0.4 -0.7,-0.6 -1,-0.6 -0.6,-0.4 -1.2,-0.8 -0.6,0.6 -1.2,0.6 -1.6,0.2 -2.1,0 -2.1,-0.3 -0.5,0 -0.4,-0.6 -0.3,-0.7 -0.6,-0.5 -0.4,-0.3 -1.4,1 -0.6,0.5 -1.8,1 -0.4,0.1 -2.6,0.5 -0.7,0.2 -1.4,0.4 -1.3,0.7 -1.9,1.5 -3.4,1.9 -2.4,1.2 -1.2,0.2 -2.1,0.7 -1.7,0.9 -0.2,0 -1.9,-0.2 -4.2,-0.7 -0.2,0 -1,-0.3 -1.2,-0.6 -0.9,0 -0.4,0.3 0.4,1.9 -5.6,-4.1 -0.7,-7.3 -0.5,0.3 -0.6,0.2 -0.5,0.2 -0.6,0.2 -0.8,0 -1.8,-0.2 -0.6,-0.2 -1,-0.4 -0.8,-0.6 -0.5,0.2 -0.6,-0.1 -0.7,-0.4 -0.6,0.2 0.4,-0.7 -0.3,-0.8 -0.6,0.3 -0.6,0.1 -1.3,-0.3 -1.7,0 -1.6,0 -1.1,0 -0.4,0.5 -0.8,1.5 -0.7,-1.6 -1.7,-2.4 -3.2,-1.7 -2.6,-2.1 -2.8,-2.5 -2.7,-1.1 -2.3,-1.4 -2.8,-0.5 -1.7,-1.2 -1.2,-1.6 -0.8,0.6 -0.9,-1.6 -1.3,0.6 -1.2,-1.8 -0.9,0.5 -1.8,0.6 -0.7,0.4 0.2,0.5 -0.4,0.1 -2.2,-0.7 -1.5,0.4 -1.8,-0.4 -1.1,-0.8 -1.7,-0.4 -1.7,-0.3 -2,-0.7 -1.8,-1.8 -1.8,-1.5 -2,0.4 -1.5,0.1 -3.2,-0.2 -1.5,0.5 -2.5,0.8 -1,0.7 -0.7,0.6 -1.2,0.8 -1.6,0.1 -0.5,-0.1 -1,-0.6 -1,0 -0.2,0.9 -1,1.5 -0.6,0 -0.8,0.5 -0.6,1 -1,1.2 -1.5,1.7 -1.3,0 -0.7,0.2 -0.7,-0.1 -0.6,0.6 -0.6,0.7 -0.3,0.9 -1.1,1 -0.9,0.1 -0.5,-0.1 -1.5,-0.8 -0.6,-0.7 -1.1,-0.8 -0.3,-0.3 -0.2,-0.5 -0.1,-0.2 -0.3,-0.1 -0.2,-0.1 -0.1,-0.2 -0.3,-0.1 -0.8,0 -0.3,-0.1 -0.3,-0.3 -0.4,-0.2 -0.5,-0.2 -0.6,0 -0.6,0.2 -0.6,0.1 -0.6,-0.1 -0.4,-0.5 -0.1,-0.1 0,0 -0.6,-0.7 -1,-1.4 -0.3,-0.6 0,0 -0.4,-0.6 -0.6,-0.6 -1,-0.8 -0.9,-0.5 -0.6,-0.5 -1.3,-0.5 -0.8,-0.3 -0.5,-0.1 0.1,-0.3 0.2,-0.5 0.7,-1.3 0,-0.1 0.2,-0.2 0.4,-0.3 0.6,-0.4 0.6,-0.6 0.8,-0.7 0.3,-0.2 0.2,0 0.4,0 0.3,0 0.8,-1.3 0,-0.5 0,-0.5 0,-0.1 0,-0.2 0.1,-0.3 0.5,-0.6 0.3,-0.3 0.1,-0.1 0.3,-0.2 0.7,-0.6 0.2,-1 0,-0.5 0,-0.1 0.1,-0.5 0.1,-0.4 0.1,-0.3 0.2,-0.3 0.1,-0.2 0,-0.4 0,-0.3 0.1,-0.4 0.3,-0.6 0.1,-0.2 0.6,-0.8 0.5,-0.8 0.9,-1.4 0.9,-1 0.2,-0.4 1.4,-1.4 1.3,-1.3 0.3,-0.2 0.7,-0.8 1,-1 0.9,-0.6 1,-0.8 0.5,-0.6 0.5,-0.2 0.6,-0.3 0.1,-0.1 0.3,0 -0.1,0 0.5,0 0.7,-0.5 0.6,-0.6 1,-0.7 0.2,-0.5 0.2,-0.3 0.1,-0.3 0.2,-0.3 0.1,-0.1 0.3,-0.4 0.2,-0.1 0.4,-0.1 0.4,-0.2 0.4,-0.2 0.2,-0.3 0.1,-0.2 0.1,-0.2 0.2,-0.3 0.6,-0.5 0.2,-0.1 0.2,-0.1 0.1,0 0.4,-0.2 0.6,-0.1 0.4,0 0.2,0 0.2,0 0.2,0 0.2,-0.1 0.1,-0.2 0.1,-0.3 0.2,-0.3 0.2,-0.3 0.3,-0.3 0.2,-0.2 0.2,-0.2 0.2,-0.2 0.2,-0.2 0.4,-0.4 0.2,-0.3 0.1,-0.2 0.1,-0.5 0,-0.2 0,-0.6 0,-0.7 -0.1,-0.2 -0.2,-0.3 -0.2,-0.6 0.3,-0.7 0.1,-0.3 0.1,-0.2 0.1,-0.1 0.1,-0.1 0.3,-0.3 0.3,-0.3 0.2,-0.2 0.2,-0.3 0.2,-0.4 0.2,-0.2 0.1,-0.2 0.1,-0.1 0.2,-0.3 0.2,-0.2 0.3,-0.3 0.6,-0.5 0.3,-0.3 0.1,-0.1 0.1,-0.1 0.2,-0.2 0.2,-0.2 0,0 0.2,-0.3 0.2,-0.2 0.3,-0.3 0.3,-0.2 0.3,-0.2 0.8,-0.6 0.2,-0.1 0.2,-0.3 0.1,-0.1 0,-0.2 0,-0.3 0,-0.3 0,-0.1 0.1,-0.1 0.1,-0.1 0.2,-0.2 0.1,-0.3 0.1,-0.2 0.2,-0.2 0.3,-0.4 0.1,-0.2 0.2,-0.2 0.1,-0.1 0,-0.2 0,-0.2 0,0 0,-0.1 0,-0.2 0,-0.6 0,-0.4 0,-0.5 0,-0.3 0,-0.1 0,-0.1 0.1,-0.1 0.1,-0.1 0.1,-0.2 0.2,-0.3 0.2,-0.4 0.1,-0.2 0.1,-0.2 0.1,-0.2 0.1,-0.3 0,-0.3 0,-0.2 -0.1,-0.2 -0.1,-0.3 0,-0.2 -0.1,-0.4 0,-0.2 -0.1,-0.3 -0.1,-0.2 -0.1,-0.1 -0.1,-0.2 -0.1,-0.2 -0.1,-0.2 -0.1,-0.3 0,-0.2 0,-0.2 0.1,-0.1 0.1,-0.1 0.1,-0.2 0.1,-0.2 0,-0.1 0.1,-0.1 0.1,0 0.1,0 0.2,0 0.2,0 0.2,0 0.1,0 0.1,0 0.2,0 0.1,0 0.2,0 0.2,0 0.2,-0.1 0.1,-0.1 0,0 0.1,-0.1 0.3,-0.3 0.1,-0.1 0.1,-0.1 0.2,-0.1 0.2,-0.1 0.1,-0.1 0.1,0 0.1,0 0.1,0 0.1,0 0.2,-0.1 0.3,-0.1 0.4,-0.3 0.2,-0.1 0.2,-0.2 0.1,-0.2 0.1,-0.2 0.1,-0.1 0.1,-0.1 0.1,-0.1 0.1,-0.1 0.1,-0.1 0.1,-0.1 0.1,-0.1 0.1,-0.1 -0.2,0.4 0.2,-0.1 0.1,0 0.1,-0.1 0.2,-0.1 0.3,-0.2 0.1,-0.1 0.1,-0.1 0.1,-0.1 0.1,-0.1 0.2,-0.1 0.1,-0.1 0.2,-0.2 0.2,-0.3 0.1,-0.1 0,-0.1 0.1,-0.1 0,-0.2 0.1,-0.3 0.1,-0.2 0.1,-0.1 0.1,-0.1 0,-0.1 0,-0.2 0.1,-0.2 0,-0.1 0,-0.2 0,-0.1 0.2,-0.4 0.1,-0.2 0.1,-0.2 0.1,-0.3 0.1,-0.2 0.1,-0.3 0.1,-0.5 0,-0.4 0.1,-0.2 0.1,-0.2 0,-0.3 0.1,-0.3 0.1,-0.2 0,-0.2 0,0 0,-0.3 0.1,-0.2 0,-0.1 0,-0.1 0.1,-0.2 0,-0.1 0.1,-0.2 0,0 0,0 0,-0.1 0,-0.1 0.1,-0.1 0.1,-0.1 0,0 0.1,-0.1 0.1,-0.1 0.1,-0.2 0,-0.2 0,-0.2 0,-0.2 0,-0.1 0,-0.1 0,-0.1 0,0 0,-0.1 0,-0.1 0,-0.1 0,-0.1 0,-0.1 0,-0.1 0.1,0 0.1,0 0,-0.1 0,-0.1 0,-0.1 0,-0.2 0,-0.4 0,-0.1 0,-0.1 0,-0.1 0,-0.1 0,-0.1 0.1,-0.1 0.1,-0.1 0,-0.1 0,-0.2 0,-0.4 0,-0.3 0,-0.1 0,-0.1 0,-0.1 0,-0.1 0,-0.2 0.1,-0.2 0.1,-0.1 0.1,-0.1 0.1,0 0.1,0 0.1,0 0,-0.2 0,-0.1 0,-0.1 0,-0.1 0,-0.1 0,-0.1 0,-0.2 -0.1,-0.1 0,-0.1 -0.1,-0.2 0,-0.2 0,-0.1 -0.1,-0.1 0,-0.1 0,0 0,-0.1 0,-0.1 0,-0.1 -0.1,-0.1 0,0 0,-0.1 -0.1,-0.1 -0.2,-0.2 -0.2,-0.2 -0.2,-0.3 -0.1,-0.3 -0.1,-0.1 -0.1,-0.1 0,-0.1 0,0 0,-0.1 0,-0.1 0,0 0,0 0.1,-0.1 0,0 0,0 0.1,0 0,0 0,0 0,-0.1 0,-0.1 0,0 -0.1,0 0,0 0,0 -0.1,0 -0.1,-0.1 -0.1,-0.1 -0.2,-0.2 -0.2,-0.1 -0.2,-0.2 -0.2,-0.2 -0.2,-0.2 0,-0.1 0,-0.1 -0.1,-0.1 -0.1,-0.1 -0.1,-0.1 -0.1,-0.1 -0.1,-0.1 -0.1,-0.1 0,0 -0.1,-0.1 -0.1,-0.2 -0.1,-0.2 0,-0.2 0,0 0,-0.1 0,0.6 0,-0.1 0,-0.1 0,-0.1 0,-0.1 -0.1,0 0,0 -0.1,0 -0.1,-0.1 0,0 -0.1,0 0,-0.1 0,-0.1 0,-0.1 -0.1,-0.1 -0.1,0 -0.1,0 -0.1,0 -0.1,0 -0.1,0 -0.2,0 -0.1,0 -0.1,0 -0.1,-0.1 0,-0.1 0,0 0,-0.1 0,0 0,-0.1 0,-0.1 0,-0.1 0,-0.1 0,-0.1 0,-0.1 0,-0.1 0,-0.1 0.1,-0.2 0.1,-0.1 0,-0.1 0,-0.1 0,-0.1 0,-0.2 0,-0.2 0,-0.1 0,-0.2 0,-0.3 0,-0.1 0,-0.1 0,-0.1 0.1,0 -0.2,-0.3 -0.1,-0.2 -0.2,-0.1 -0.1,-0.1 -0.1,-0.1 -0.1,0 -0.1,0 -0.1,-0.1 0,-0.1 0,-0.1 0,-0.1 0,-0.1 0,-0.1 0,-0.2 -0.1,-0.2 -0.1,-0.2 0,-0.2 0,-0.3 0,-0.2 0.1,-0.2 0,-0.2 0,-0.2 -0.1,-0.2 -0.1,-0.2 -0.1,-0.1 -0.1,-0.1 -0.1,-0.2 0,-0.1 0,-0.3 -0.1,-0.4 -0.1,-0.2 -0.1,-0.3 -0.3,-0.6 -0.2,-0.3 -0.1,-0.3 -0.1,-0.5 -0.1,-0.5 0,-0.6 0.1,-0.3 0,-0.5 0.1,-0.4 0.1,-0.4 0.1,-0.4 0.1,-0.5 0.1,-0.3 0.1,-0.2 0,-0.1 20.1,8.5 L 69.3,850 66.9,834.8 62,805 l -6.5,-9 0,-0.4 0,-0.5 0,-0.5 0,-0.7 0.1,-0.6 0.1,-0.3 0.1,-0.2 0.2,-0.5 0.1,-0.4 0.1,-0.2 0,-0.2 0,0 -0.2,-0.5 -0.2,-0.3 0,-0.3 0.1,-0.3 0.3,-0.3 0.2,-0.3 0.2,-0.4 0.1,-0.3 0,-0.5 -0.1,-0.1 -0.3,-0.3 -0.1,-0.5 0,-0.4 -0.3,-0.4 -0.1,-0.4 -0.1,-0.4 -0.2,-0.6 -0.3,-0.6 -0.2,-0.3 -0.1,-0.1 -0.2,-0.2 -0.1,-0.3 0,-0.4 0,-0.3 0.1,-0.6 0.1,-0.6 -0.1,-0.8 0.1,-1.2 -0.1,-0.6 -0.3,-0.6 -0.4,-0.6 -0.1,-0.5 -0.2,0 -0.2,-0.1 -0.3,-0.4 -0.4,-0.2 0,0.2 0.1,0.2 0.2,0.3 0.4,0.8 0,0.6 0,0.4 -0.1,0.2 -0.1,0 -0.3,-0.1 -0.4,-0.3 -0.3,-0.3 -0.2,-0.4 -0.2,-0.4 -0.4,-0.6 -0.3,-0.5 -0.2,-0.2 -0.3,-0.2 -0.4,-0.1 -0.7,0 -3.9,-22.3 11.2,2 11.4,-12.6 8.2,-9.1 -20.4,-3.2 -0.2,-5.7 14.4,-10.6 5.3,-16.5 3,-9.2 2.9,-9.2 0.6,-1.4 0.6,-0.7 0.1,-0.2 0.1,-0.2 0.1,0 0.4,-0.6 0.4,-0.6 0.1,-0.2 0,0 0.2,-0.2 0.3,-0.3 0.2,-0.8 0.5,-1.4 0.7,-1.5 0.7,-1.9 0.1,-0.8 0.2,-0.7 0.1,-0.8 0.2,-0.5 0,-0.9 -0.2,-1.1 -0.1,-0.7 -0.1,-0.9 0.1,-0.6 0,-0.5 -0.1,-0.5 -0.1,-1 -0.3,-0.7 -0.4,-0.8 -0.1,-0.6 0,-1.1 0,-0.9 0,-0.7 0,-0.6 -0.1,-0.6 -0.2,-0.6 0,-0.3 0,-0.4 0,-0.3 0,-0.4 -0.1,-0.5 -0.1,-0.7 0.1,-0.5 0.2,-0.6 0.1,-0.7 0,-0.6 -0.1,-0.6 0,-0.5 0,-0.4 0.2,-0.6 0.4,-0.5 0.5,-0.7 0.3,-0.8 0,-0.6 0,-0.7 0.2,-0.8 0.1,-0.7 0.1,-0.6 0.2,-0.3 0.1,-0.3 0.2,-0.4 0.2,-0.4 0.1,-0.3 0.1,-0.3 0.1,-0.6 0.1,-0.7 0.1,-0.4 0,0 0.1,-0.4 0.2,-0.2 0.1,-0.1 0.1,-0.2 0.2,-0.2 0,0 0.2,-0.2 0.5,-0.5 0.5,-0.2 1.4,-14.2 -1.1,0.3 -2,0.1 -2.1,0.3 -1.2,-0.5 -1.7,-0.9 -1.3,-1 -0.8,-0.6 -0.7,-0.6 -0.6,-0.8 -0.6,-0.8 -0.4,-0.6 -0.4,-0.6 -0.3,-0.9 -0.2,-0.7 -0.2,-0.7 -0.3,-0.6 -0.4,-0.4 -1.2,-0.1 -1.2,-0.1 -1.1,-0.1 -1.1,0.2 7.5,-5.5 5.5,-4.6 11.6,-26.6 0.7,-1.6 4.9,-15.3 2.3,-7.2 2.1,-6.6 4.3,-13.5 -1.9,-0.3 -3.6,-0.4 1,-4.2 -5.3,-1.4 0.9,-1.8 -1.6,-0.3 -5.9,-1.6 1.6,-3.9 2.3,-4 -2.5,-0.5 -2.5,-0.5 -3.8,-1.4 -1.3,0 -0.4,-1.3 0.7,-0.3 0.6,-0.2 0.7,-0.2 1.9,-1.2 1.8,-0.7 1.6,-0.5 1.2,-0.2 0.8,0.1 1.6,0.3 2,0.6 0,-0.6 0.1,-0.5 -0.3,-0.6 -0.5,-0.9 -0.2,-0.8 -0.3,-0.6 -0.4,-0.4 -0.6,-0.3 -0.5,-0.3 -0.4,-0.3 -0.2,-0.2 0,-0.4 0,-0.8 0,-0.4 -0.5,-0.4 -0.9,-0.4 -1.2,-0.3 -1.1,-0.2 0.2,-2.3 0.5,-2.8 1,-4.4 6.7,1.8 0.6,-1.6 0.1,-0.6 0.3,-1.7 0.3,-1.8 0.4,-1.5 1.2,-3.2 0.6,-1.9 0.8,-1.5 -0.1,-1.9 0.7,-2.1 2.3,-3.9 -4.4,-6.1 -4,-0.3 0.3,-3.4 -3.2,-0.4 -0.5,3.8 -2.2,-0.3 -1.8,-10.6 0.9,-2.5 0,0 -8.1,0.2 -5.5,0.2 -1.7,0.3 -5.2,0.8 -0.4,-1 -0.5,-0.4 0.4,-2 0.9,-5.1 1.9,-10.2 0.7,-1.5 2.9,-5.5 1.2,-1.8 0.6,-0.2 0.8,-1.1 0.7,-1.8 0.3,-0.7 0,0 0.1,-0.1 2.6,-2.9 2.5,-2.9 0.6,-2.6 -0.1,-0.8 0.3,-0.1 0.3,-0.4 0.2,-0.6 0.3,-0.9 0.4,-0.2 0.8,-0.4 -0.8,-0.4 0.1,-0.2 0.1,-0.2 0,-0.1 -0.1,-0.2 -0.2,-0.2 -0.3,-0.8 -0.8,-2 -0.5,-2.5 0,-1.4 0,-1.3 0.2,-0.3 0.1,-0.2 0,-0.2 0,-0.1 0,-0.2 0,-0.3 0.1,-0.4 -0.1,-0.8 0.1,-0.6 0.1,-0.6 0.2,-0.7 0.2,-0.8 0,-0.3 0.1,-0.3 0.1,-0.6 0.1,-0.6 0,-1.2 0.1,-0.3 0,-0.3 0,-0.4 0,-0.4 0,-0.3 0,-1.3 0,-0.8 0.1,-0.8 0.1,-0.9 0.1,-1 2.6,0.1 1.6,-0.1 1.8,-0.3 1.4,-0.1 2.2,0.1 1.8,0 6.3,-6.1 6.9,-6.7 -0.8,-4.7 -3.9,-22 -1.5,-8.3 -1.9,-10.4 -1.5,-1.5 -7.8,-8 -0.3,-4.1 0.5,-1.3 0,-0.7 -2.1,-9.1 -0.4,-2.9 0,-0.1 1.2,-3 8.8,-18.7 0.2,-0.4 16.9,-31 31,-23.2 28.7,-21.5 13.5,-34.4 0.7,-1.8 0.8,-0.6 0.8,-0.6 1.3,-0.7 0.5,-0.7 0.5,-1.3 0,-0.7 0.3,-1.3 0.5,-2 0.1,-0.8 -0.2,-0.8 -0.4,-0.6 -0.7,-0.7 -0.5,-0.8 -0.1,-0.9 0,-1.2 0.7,-0.8 0.9,-0.7 1.1,-0.6 0.5,-0.7 0.5,-1 0.4,-1.7 1.7,0.3 1.8,0.4 0.1,0 0.9,0.1 0.9,0.1 1,0.2 1,0.1 1,0.2 1,0.2 0.9,0.2 0.9,0.2 1,0.2 1.3,0.4 1.2,0.3 0.2,0 1.2,0 1.2,0 1.5,0.1 1.7,0.1 0.7,0.1 0.7,0.1 0.7,0.1 0.7,0.1 0.3,0 0.3,0 0.3,0 0.3,0 0.9,0.1 0.4,0 0.6,0 0.2,0 1,0 0.5,0 0.5,0 0.7,0.1 0.6,0 0.3,0 0.3,0 0.4,0 0.4,0 0.6,-0.1 0.6,0 0.6,-0.1 0.6,-0.1 0.4,0 0.3,0 0.5,0 1.1,0 1.2,0.1 0.4,-1.8 0.1,-0.6 0.2,-0.8 0.1,-0.7 0.1,-0.4 0.1,-0.7 0.3,-0.9 0.2,-1.5 0.2,-0.3 0.9,-2.5 0.6,-1.4 0.5,-1.4 0.4,-0.9 0.3,-0.6 1.3,-1.4 0.8,-1.4 0.2,-0.3 -0.1,-0.7 -0.1,-0.7 0.3,-0.7 0.4,-0.6 0.3,-0.8 0.2,-0.5 0.1,-0.5 0,-0.5 0,-0.5 0,-0.2 0,-0.2 0,-0.4 0.1,-0.6 0.1,-0.7 0,-0.5 0,-0.1 0.2,-0.5 0.2,-0.6 0.2,-0.6 0.2,-0.5 0,-0.1 0.2,-0.8 0.2,-0.9 0.1,-0.6 0.1,-0.5 0.2,-0.8 0.1,-0.1 0.7,-1.2 0.1,-0.3 0.1,-0.3 0.1,-0.3 0,-0.3 0,-1 0.2,-0.6 0.2,-0.6 0.2,-0.5 0.3,-0.6 0.3,-0.6 0.2,-0.4 0.1,-0.4 0.1,-0.4 0.2,-0.4 0.4,-0.6 0.4,-0.6 0.5,-0.8 0.1,-0.4 0.1,-0.5 0.2,-0.6 0.2,-0.5 0.1,-0.4 0,-0.8 0,-0.5 0,-0.5 0.2,-0.9 0.2,-0.6 0.1,-0.2 0.1,-0.2 0.1,-0.2 0,-0.1 0,-0.3 -0.2,-0.2 -0.4,-0.2 -0.1,-0.8 0,-0.8 -0.1,-0.1 -0.3,-0.5 -0.3,-0.5 -0.2,-0.6 -0.2,-0.7 -0.2,-0.7 1.1,-0.3 1.1,-0.4 0,0.1 L 270.5,59.1 248.4,35.4 239.6,26 250,0.2 312.3,0 l 7.6,1.7 1.2,0.3 8.1,1.7 5.2,1.1 5.2,1.1 2.4,15.4 2.7,17.1 3.6,23.4 -1.6,59.6 -3.3,3.5 0,0 -32.9,34.7 -0.6,0.7 12,8.8 25.1,18.6 1.7,21 1,13.1 -0.2,0.6 -0.2,1.2 0,0.9 0,0.8 0.1,0.8 0.1,0.9 0.4,0.8 0.6,0.8 0.7,0.6 0.6,0.3 0.9,0.1 0.8,0 0.7,-0.3 0.4,-0.4 0.6,-0.8 0.6,-0.8 0.6,-1.1 0.9,-1.4 0.6,-0.8 0.5,-0.5 0.8,-0.5 0.8,-0.4 0.9,-0.4 0.6,-0.3 0.7,-0.5 0.9,-0.6 0.6,-0.6 0.4,-0.5 0.6,-0.4 0.5,-0.3 0.5,-0.2 0.5,-0.1 0.5,-0.1 0.6,0.1 0.6,0.1 1,0.4 0.7,0.3 0.8,0.3 1.1,0.2 0.9,0 0.7,0 0.4,-0.1 0.4,0 0.6,-0.1 0.5,-0.2 0.6,-0.4 0.8,-0.6 0.4,-0.4 0.8,-0.8 0.5,-0.5 0.8,-0.7 0.4,-0.3 0.5,-0.2 0.5,-0.2 0.5,0 0.4,0 0.5,0.1 0.5,0.1 0.2,0.1 0.4,0.2 0.5,0.2 0.3,0.3 0.3,0.3 0.9,1.1 0.3,0.4 0.7,0.5 0.4,0.3 0.6,0.1 0.6,0.1 0.6,-0.1 0.8,-0.1 0.8,-0.2 0.7,-0.2 0.6,-0.2 0.6,-0.1 0.8,-0.1 0.6,-0.1 0.7,0 0.6,0 0.6,0.1 0.5,0.1 0.5,0.1 0.4,0.1 0.4,0.1 0.6,0.2 1,0.5 0.4,0.2 0.8,0.4 0,0 1.1,0.6 0.7,0.4 0.4,0.3 0.5,0.3 0.2,0.2 0.3,0.2 0.3,0.2 0.3,0.2 0.3,0.1 0.5,0.2 0.4,0.3 0.3,0.2 0.4,0.2 0.5,0.2 0.6,0.4 0.6,0.3 0.8,0.5 0.4,0.3 0.5,0.3 0.4,0.3 0.4,0.4 0.4,0.5 0.4,0.4 0.3,0.5 0.3,0.4 0.5,0.7 0.3,0.3 0.3,0.3 0.2,0.2 0.2,0.2 0.3,0.2 0.3,0.1 0.5,0.2 0.3,0.1 0.5,0.2 0.5,0.2 0.5,0.2 0.6,0.2 0.4,0.2 0.5,0.3 0.4,0.2 0.3,0.2 0.3,0.3 0.4,0.3 0.3,0.3 0.2,0.3 0.2,0.3 0.2,0.4 0.1,0.3 0.1,0.3 0,0.3 0,0.3 0,0.3 0,0.3 -0.1,0.3 0,0.2 -0.1,0.4 -0.1,0.3 -0.1,0.4 -0.1,0.3 -0.6,-0.5 -0.1,0.3 0,0.4 0,0.3 0,0.3 0,0.3 0.1,0.3 0.1,0.3 0.3,0.6 0.2,0.3 0.4,0.5 0.3,0.3 0.1,0.3 0.2,0.3 0.1,0.3 0.1,0.4 0,0.3 0,0.4 0,0.4 0,0.6 0,0.6 0,0.5 0,0.4 0.1,0.4 0.2,0.4 0.2,0.4 0.2,0.3 0.2,0.3 0.2,0.5 0.2,-0.3 0.1,-0.4 -0.1,-0.6 0,-0.4 0.1,-0.5 0.1,-0.3 0.2,-0.2 0.2,-0.2 0.2,-0.1 0.2,-0.2 -0.1,-0.4 0,-0.1 0.3,-0.4 0.3,-0.4 0.2,-0.2 0.2,-0.2 0.1,-0.2 0.1,-0.1 0.1,-0.3 0,-0.1 0.1,-0.2 0,-0.2 0,-0.2 0,-0.2 0,-0.1 0,-0.1 -0.1,-0.2 0,-0.2 0.1,-0.1 0.1,-0.1 0,-0.1 -0.1,-0.1 -0.1,-0.1 -0.2,-0.1 -0.1,-0.1 0,-0.2 0,-0.2 0.1,-0.1 0.2,-0.1 0.1,-0.1 0.1,-0.2 0.1,-0.1 0.1,-0.1 0.1,-0.2 0.1,-0.1 0.2,-0.1 0,-0.2 0.1,-0.5 0.2,-0.4 0.3,-0.5 0.3,-0.5 0.2,-0.4 0.3,-0.4 0.3,-0.5 0.3,-0.8 0.4,-0.6 0.1,0 0.4,-0.3 0.2,-0.6 0.1,-0.5 0.6,-1.1 0.4,-0.4 0.4,-0.9 0.8,-1 0.5,-0.3 0.5,-0.5 0.5,-0.6 0,-0.8 0,-0.5 -0.3,-0.5 -0.2,-0.5 0,-0.5 -0.2,-0.4 -0.3,-0.4 -0.2,-0.6 -0.6,-0.8 -0.8,-0.7 -0.3,-0.1 0,-0.3 0.2,-0.4 0,-0.4 -0.2,-0.4 0,-0.2 0,-0.8 0.7,-0.9 0.4,-0.5 0.5,-0.3 0.5,-0.4 0.8,-0.2 0.6,0 0.7,-0.3 0.9,0 0.7,0.1 0.4,0.4 0.3,0.5 0,0.5 0.1,0.6 0.1,0.6 0.1,0.6 0,0.6 0.3,0.3 0.6,0.4 0.7,0.4 0.3,0.1 0.4,0.4 0.3,0.3 0.5,0.3 0.7,0.1 0.7,0 0.9,0.1 0.5,0 0.3,-0.2 0.3,-0.2 0.2,-0.5 0.3,-0.4 0.4,-0.6 0.2,-0.3 124.9,11.1 26,-3.9 0.3,-0.8 0.1,-0.3 0,-1.2 0,-0.5 0,-0.8 0,-0.3 0.1,-0.7 0.1,-0.3 0,0 0.4,-0.4 0.2,-0.3 0.1,-0.3 0.2,-0.6 0.2,-0.5 0.1,-0.4 0.2,-0.5 0.2,-0.3 0.4,-0.6 0.2,-0.3 0.5,-0.9 0.1,-0.6 0,-0.6 0,-0.4 0.1,-0.5 0.1,-0.2 0.1,-0.3 0.2,-0.2 0.5,-0.4 0.4,-0.3 0.4,-0.3 0.3,-0.2 0.5,-0.3 0.6,-0.3 0.4,-0.2 0.3,-0.2 0.2,-0.2 0.4,-0.3 0.3,-0.4 0.2,-0.3 0.5,-0.7 0.2,-0.4 0.2,-0.5 0.2,-0.5 0.2,-0.5 0.4,-0.9 0,-0.2 0,-0.3 0,-0.5 0,-0.2 0,-0.3 0.1,-0.1 0,-0.1 0.2,-0.2 0.3,-0.3 0.5,-0.5 0.5,-0.5 0.2,-0.4 0.1,-0.3 0.1,-0.5 0.1,-0.6 0.1,-0.4 0.1,-0.5 0,-0.1 0,-0.4 0,-0.6 0,-0.6 -0.1,-0.4 -0.1,-0.4 -0.1,-0.5 0,-0.4 0,0.1 0,-0.5 0.1,-0.4 0.1,-0.5 0,-0.3 0.1,-0.4 0.1,0 0.2,-0.1 0.2,-0.2 0.2,-0.2 0.2,-0.3 0.2,-0.2 0.1,-0.3 0.1,-0.5 0.1,-0.3 0.1,-0.5 0.2,-0.7 0.1,-0.1 0.1,-0.2 0.3,-0.5 0.1,-0.2 0.2,-0.3 0.2,-0.3 0.3,-0.7 0.2,-0.5 0.2,-0.5 0.3,-0.7 0.1,-0.2 0.2,-0.7 0.1,-0.5 0,-0.2 0,-0.2 0.1,-0.5 0.3,-0.3 0.2,-0.2 0.3,-0.2 0.2,-0.3 0.2,-0.4 0.1,-0.3 0.2,-0.4 0,-0.2 0,-0.8 -0.1,-1 0,-1.3 0.1,-0.8 0.1,-0.4 0.2,-0.7 0.2,-0.9 0.2,-0.7 0.4,-0.7 0.5,-0.6 0.9,-0.9 0.9,-0.9 1.2,1.1 1.2,1.2 8.1,3.8 1.4,0.9 1.4,0.8 2.9,1.6 3.3,1.1 3.5,1.7 0.1,-0.1 0.3,-0.3 0.4,-0.1 0.2,-0.3 0.8,-0.2 0.3,0.3 0.4,0.3 0.5,0.3 0.4,0.1 0.9,-0.3 0.7,-0.3 0.6,0.2 0.3,-0.2 0.7,-0.3 0.4,0 0.5,0.1 0.5,0.2 0.2,-0.1 0.4,0 0.4,-0.3 0.3,-0.4 0.6,-0.5 0.4,-0.2 0.5,-0.1 0.8,-0.1 1.4,-0.6 0.3,-0.5 0.1,-0.6 -0.4,-0.3 -0.6,-0.2 -0.6,-0.5 -0.6,-0.5 -0.3,-0.4 0,-0.6 0,-0.9 0.2,-0.7 0.1,-0.6 -0.1,-0.8 0.2,-0.8 0.4,-0.5 1.2,-0.6 1.1,-0.2 1.1,-0.3 0.3,-0.5 -0.1,-0.7 -0.3,-1.3 -0.4,-0.5 -0.3,-1 1.3,-1.1 1.3,-0.7 0.6,-0.6 1,-0.5 0.8,-0.3 0.8,-0.4 0.4,-0.2 0.5,-0.5 0.6,-1.2 0.4,-0.6 0.4,-0.3 0.4,-0.2 0.6,-0.3 0.3,0 0.4,-0.2 0.2,-0.1 0.2,-0.1 0.1,-0.1 0.2,-0.1 0.2,-0.1 0.3,-0.1 0.5,-0.1 0.1,0 0.5,-0.1 0.3,0 0.5,0 0.3,0.1 0.3,0.1 0.3,0.1 0.2,0.1 0.5,0.3 0.4,0.2 0.1,0.1 0.4,0.4 0.2,0.2 0.2,0.3 0.3,0.5 0.4,0.6 0.5,0.6 0.4,0.6 0.2,0.3 0.2,0.5 0.2,0.1 0.1,0.2 0.1,0.2 0.2,0.3 0.2,0.3 0.2,0.4 0.1,0.2 0.2,0.2 0.2,0.3 0.1,0.2 0.4,1 0.2,0.5 0.2,0.3 0.1,0.1 0.3,0.5 0.1,0.2 0.1,0.3 0.2,0.6 0.2,0.4 0.1,0.1 0.4,0.6 0.2,0.5 0.1,0.2 0.1,0.2 0.1,0 0.2,0.1 0.1,0.2 0.1,0.1 0.2,0 0.1,0.1 0.1,0.1 0.2,0.4 0.1,0.3 0.1,0.4 0,0.3 -0.1,0.4 -0.1,0.2 0,0.2 0,0.2 0.1,0.1 0.1,0.1 0.1,0.1 0.3,0.3 0.2,0.1 0.2,0.2 0.2,0.3 0.2,0.4 0.2,0.2 0.3,0.1 0.4,0.1 0.4,0.1 0.2,0.2 0.3,0.2 0.3,0.2 0.2,0.3 0.3,0.4 0.2,0.3 0.2,0.3 0.2,0.5 0.2,0.6 0.2,0.8 z"
       inkscape:connector-curvature="0"
       class="DEP_02 ZON_01" /></g></svg>