<?xml version="1.0" encoding="UTF-8" standalone="no"?>
<!-- Generator: Adobe Illustrator 19.2.0, SVG Export Plug-In . SVG Version: 6.00 Build 0)  -->

<svg
   xmlns:dc="http://purl.org/dc/elements/1.1/"
   xmlns:cc="http://creativecommons.org/ns#"
   xmlns:rdf="http://www.w3.org/1999/02/22-rdf-syntax-ns#"
   xmlns:svg="http://www.w3.org/2000/svg"
   xmlns="http://www.w3.org/2000/svg"
   xmlns:sodipodi="http://sodipodi.sourceforge.net/DTD/sodipodi-0.dtd"
   xmlns:inkscape="http://www.inkscape.org/namespaces/inkscape"
   version="1.1"
   id="SvgMunicipio"
   x="0px"
   y="0px"
   viewBox="0 0 934 1117.7"
   style="enable-background:new 0 0 934 1117.7;"
   xml:space="preserve"
   inkscape:version="0.91 r13725"
   sodipodi:docname="MUN_ID0208.svg"><metadata
     id="metadata10"><rdf:RDF><cc:Work
         rdf:about=""><dc:format>image/svg+xml</dc:format><dc:type
           rdf:resource="http://purl.org/dc/dcmitype/StillImage" /></cc:Work></rdf:RDF></metadata><defs
     id="defs8" /><sodipodi:namedview
     pagecolor="#ffffff"
     bordercolor="#666666"
     borderopacity="1"
     objecttolerance="10"
     gridtolerance="10"
     guidetolerance="10"
     inkscape:pageopacity="0"
     inkscape:pageshadow="2"
     inkscape:window-width="1366"
     inkscape:window-height="705"
     id="namedview6"
     showgrid="false"
     inkscape:zoom="0.2111479"
     inkscape:cx="467"
     inkscape:cy="558.84998"
     inkscape:window-x="-8"
     inkscape:window-y="-8"
     inkscape:window-maximized="1"
     inkscape:current-layer="svg" /><g
     id="g3"><path
       id="MUN_0208"
       d="m 927.7,252.4 -23.4,305.8 0.7,14.6 9.5,163.6 1.7,30 -1.4,2.2 -4,1.4 -3.7,-0.2 -3.7,-1.4 -1.1,-0.4 -2.6,-0.5 -3.1,-0.2 -2.6,-0.3 -11.2,-1.9 -3.9,-0.2 -2,0.6 -2.2,1.6 -1.3,1.7 -1,2.5 -0.1,1.8 1.4,2.9 4.5,7 5.2,6.8 4.5,10.1 3.7,9.5 3.9,2 0.6,1.3 -0.2,2.1 -0.6,1.3 -4.1,1.6 -0.4,0.4 -5.6,1.9 -3.9,0.9 -5.2,4 -4.7,5.1 -5.8,6 -4.8,8.6 -5.3,13.8 -1.1,0.9 -2.2,-0.2 -1.7,-2.4 -1.3,-5.8 -2,-5.2 -2.2,-1.7 -2.2,-0.4 -2,1.1 -2.6,5.3 -0.5,5.7 -1.1,3.9 0.7,4.1 4,0.2 3.3,-1.4 5.1,1 3.1,5.7 -1.4,8 -2.2,3.3 -4.9,6.8 -10.3,10.1 -3,0.5 -2.2,0.4 -7.8,-1.1 -4.9,-1.8 -1.5,-2.1 -4.1,-4.8 -3.5,-2.2 -3.4,-0.2 -3,0.6 -3.5,1.9 -3.2,3.7 -1.2,2.7 -2.1,6 -2.6,2.8 -2.4,0.7 -1.1,1 1,4.4 3.2,1.7 3.3,0.5 1.6,3.3 -3.3,3.4 -6.6,3.4 -7.1,5.8 -8,1.6 -1.5,-2.6 -0.6,-3.4 0.9,-5.7 1.7,-7.4 -6.1,0.3 -8.7,-0.6 -4.9,-2.2 -9.1,0.9 -5.6,1.4 -9,0.3 -1.1,1.4 1.4,4.6 4,3.9 4.5,3.5 0.5,2.6 -2.1,1.4 -8,1.2 -14,-1.4 -12.4,-2.4 -8.8,-2.9 -2.1,-2.2 -1.7,-1.7 -2.6,-0.7 -3.3,2.6 -1.9,5.2 2.2,5.2 4.1,2.5 14.8,7.3 6.4,5.1 4.6,5.2 -0.6,2.9 -4.5,4.5 -5.6,5.6 -2.8,11.3 -4.1,5.2 -1.3,-0.5 -0.2,-0.1 -0.4,-0.2 -0.2,-0.1 -1.2,-1.2 -1.7,-1.6 -4.9,-5.3 -3.3,-2.7 -1.1,-0.6 -0.9,-0.2 -1.2,-0.4 -0.7,-0.3 -0.7,-0.1 -1.7,-0.3 -1.8,-0.3 -1,-0.2 -1,-0.2 -1,-0.2 -2.1,-0.9 -1.4,-0.2 -1,-0.3 -1.1,-0.5 -0.7,-0.1 -1.3,-0.5 -0.6,-0.4 -1,-0.7 -0.5,-0.4 -0.7,-0.7 -0.3,-0.4 -0.3,-0.5 -0.6,-1.1 -0.5,-0.7 -0.3,-0.6 -0.9,-1.7 -0.5,-1.4 -0.5,-1.2 -0.2,-0.7 -1.3,-1.9 -0.4,-0.6 -0.6,-1.3 -0.5,-0.7 -0.4,-0.6 -1.1,-1.4 -1,-1.3 -0.4,-1 -0.6,-1.1 -1,-1.7 -1.4,-2.5 -1,-2.1 -1.2,-2.1 -1.5,-2.7 -0.6,-1.2 -0.3,-0.7 -0.7,-0.9 -0.4,-1 -0.2,-1.1 -0.2,-1.2 -0.5,-1.6 -0.5,-1.5 -1.1,-1.9 -0.4,-1.1 -1,-1.2 -0.5,-0.9 -1.2,-1.7 -1.3,-2.2 -1,-1.8 -1.4,-2.2 -0.7,-1 -0.7,-1.3 -0.7,-0.3 -1,-0.2 -0.5,-0.1 -1.1,-0.1 -0.6,-0.1 -1.4,-0.1 0.2,0 -1.6,0 -0.9,0 -3.4,2.4 -2,3.6 -3.3,0.5 -3.9,-1.2 -2.8,-0.9 -2.5,-0.9 -4.6,-1.8 -3.5,-3.9 -3.2,-5.1 -3.2,-3.2 -1,-1.3 -0.9,0 -1.4,0 -1.2,1.9 -5.1,19.5 -1.8,6.7 -4,11.2 -1.7,3.1 -0.6,2.1 -0.4,4.2 -1.4,2.4 -1.7,-0.3 -1.8,-4.6 -0.9,-6.6 -0.6,-1.2 0,-4 -1.6,-1.2 -1.8,-0.4 -2,0.5 -1.7,1.3 -1.4,7.2 -1.6,10.5 -2.4,6.2 -2.7,3.5 -1.7,1.6 -3.6,1.2 -7.8,1.4 -12.5,3.1 -3.1,7.2 -1.5,3.2 -2.4,6.1 -3.4,-0.4 -4.5,-4.1 -4.6,-8.2 -2.8,-6.4 -1,-5.3 -4.3,-7.8 -4.4,-3.3 -1.4,0 -1.4,0.1 -1.9,1.1 -4,7.9 -3.3,9.7 -0.1,1.2 -0.3,2.7 1.1,3.1 0.9,3.2 -0.1,4.4 -1.7,2.8 -4.8,2.6 -4.6,0.1 -1.8,-0.4 -1,-1.4 -6.3,-12.8 -2,-0.6 -2.6,1.9 -8.9,4.5 -2.7,3.2 -1.5,3.7 -1.6,1.2 -3.2,0.3 -2.1,1.9 0.4,2.9 1.5,2.6 -0.4,2.4 1.1,4 7.7,3.3 1.7,1.6 -1.8,6.4 -3.1,4 -5.6,2 -2.4,2.5 -1.5,1.3 -2.2,-0.4 -5,-5.7 -1.9,-5.7 -1.9,-4 -1.9,-3.2 -3.7,-1.9 -4.5,0.4 -3,1.2 -3.5,3.2 -3.6,4.2 -5.4,4.2 -12.1,12.2 -7.9,7.3 -10.2,8.8 -2.6,2.6 -8.1,9.1 -5.1,10.6 -4.1,12.9 -5.2,15.1 -1.8,0.6 -2.2,0.2 -13.7,-4.2 -2.9,0.2 -4.6,-1 -6,-2 -3.5,0.1 -1.2,1.9 -0.7,3.1 0.2,4.6 0.9,16.9 -1.4,2.1 -2.9,0.6 -9.1,-0.2 -9.8,3.1 -11.9,2.5 -5.4,0.7 -3.5,-1.6 -0.5,-3.5 -0.9,-3.7 -0.3,-4.7 -0.7,-1.9 -2.4,-2.1 -19.7,-5 -11.3,-1.6 3.5,-4.8 1,-2.5 0.1,-2.7 -0.3,-1.6 -2.9,-0.6 -2.9,-0.9 -15,-128.6 -6,-51.4 -2.5,-20 -8.8,-23.1 -19.7,-52.5 -8.2,-21.8 -20,-53 -7.6,-20.1 -39.1,-103.5 -0.1,-0.1 -19.7,-52.1 -0.6,-1.6 -13.4,-35.3 5.5,0.6 5.5,0.6 6,0.3 0,0 6.1,0.3 5.6,0.4 30,2 23.8,1.2 85.6,-16.6 37.8,-3.3 8.8,2.4 12.9,-2.4 3.5,-3.6 3.7,-3.4 6.7,-5 8.2,-0.6 6.2,0 4.1,-3 8.1,-1 8.2,0.3 21.4,-12.7 5,-1.5 4.4,2.4 6.1,-3.3 7.1,-4.1 1.2,-7.2 4.7,-7.1 23.4,-15.7 7.3,-4.5 2.7,3 0,3.9 5.6,1.1 2,0 1.2,6.3 5.2,-2.4 3.5,-1.5 7.1,-0.3 1.7,-4.2 5.2,-5.4 6.2,3.5 6.5,-1.2 13.2,-1.5 12.5,-2 12.4,-2.5 5.6,-1.5 2,-7.4 3.4,-8.9 2.9,-9.1 -0.3,-0.3 8.7,-1.3 3.1,-4.1 2.4,-2.7 -0.3,-5.9 -3.7,-0.4 -4.6,-3.7 2,-1.8 4.1,-3.5 4.2,-2.5 7,-1.5 3,-3.5 -0.6,-3.5 -4.9,-1.2 -2.1,-2.4 -0.5,-6.7 2.9,-3.5 3.5,3.5 3.9,-2.1 -0.3,-5.3 2.9,-5.7 2,-1.7 3.5,2 4.7,-2.4 4.7,-3.7 0.5,-7.5 0.2,-8.2 5,-7.7 7.4,-3 6.6,-1.2 5,-4.2 9.9,-4.7 11.8,-2.5 9.6,1.8 5.6,5 4.7,2 5.6,0.3 5.9,-2.4 10.8,-1.3 5,1.7 4.7,5.1 6.1,3.7 3,3.3 2.1,7.3 3.7,0.3 3.9,-0.3 1.7,2.4 1.3,5.7 3.4,2.9 4.1,0.3 8,-1.4 1.7,3.1 8.9,8.2 5.2,2.4 4.1,2.4 6.2,-4.1 5.3,-1 10.8,-3.7 21.6,-2.6 11.3,0 12.5,-6.4 17.7,-11.6 8.9,11.4 20.2,-5.1 7.6,-20.2 -6.3,-6.4 -19,-6.3 -20.2,-22.8 25.2,-2.7 25.2,-7.6 10.1,-23 25.2,-44.6 -4,-29.2 -13.9,-2.6 -16.5,-27.9 16,-19.2 62.9,134.7 z"
       inkscape:connector-curvature="0"
       class="DEP_02 ZON_01" /></g></svg>