<?xml version="1.0" encoding="UTF-8" standalone="no"?>
<!-- Generator: Adobe Illustrator 19.2.0, SVG Export Plug-In . SVG Version: 6.00 Build 0)  -->

<svg
   xmlns:dc="http://purl.org/dc/elements/1.1/"
   xmlns:cc="http://creativecommons.org/ns#"
   xmlns:rdf="http://www.w3.org/1999/02/22-rdf-syntax-ns#"
   xmlns:svg="http://www.w3.org/2000/svg"
   xmlns="http://www.w3.org/2000/svg"
   xmlns:sodipodi="http://sodipodi.sourceforge.net/DTD/sodipodi-0.dtd"
   xmlns:inkscape="http://www.inkscape.org/namespaces/inkscape"
   version="1.1"
   id="SvgMunicipio"
   x="0px"
   y="0px"
   viewBox="0 0 538.7 1000"
   style="enable-background:new 0 0 538.7 1000;"
   xml:space="preserve"
   inkscape:version="0.91 r13725"
   sodipodi:docname="MUN_ID0209.svg"><metadata
     id="metadata10"><rdf:RDF><cc:Work
         rdf:about=""><dc:format>image/svg+xml</dc:format><dc:type
           rdf:resource="http://purl.org/dc/dcmitype/StillImage" /></cc:Work></rdf:RDF></metadata><defs
     id="defs8" /><sodipodi:namedview
     pagecolor="#ffffff"
     bordercolor="#666666"
     borderopacity="1"
     objecttolerance="10"
     gridtolerance="10"
     guidetolerance="10"
     inkscape:pageopacity="0"
     inkscape:pageshadow="2"
     inkscape:window-width="1366"
     inkscape:window-height="705"
     id="namedview6"
     showgrid="false"
     inkscape:zoom="0.236"
     inkscape:cx="269.35001"
     inkscape:cy="500"
     inkscape:window-x="-8"
     inkscape:window-y="-8"
     inkscape:window-maximized="1"
     inkscape:current-layer="svg" /><g
     id="g3"><path
       id="MUN_0209"
       d="m 122.7,0.8 25.5,4.2 5.4,0.6 1.2,0 0.2,0 9,1.7 13.8,3.1 12.8,4.8 13.1,5.9 7.6,2.9 13,4.5 5.6,2 4.2,1.7 8.7,3.9 20.1,7 7.4,2.6 13.9,5.6 8.3,2.9 5.3,1.4 11.7,2.6 12.2,2.8 2.5,0.3 5.3,0.9 14.1,2.3 5.1,1.9 3.7,1.9 4.3,2.8 3.4,2 4.9,3.1 2.6,0.9 3.9,0.8 7,0.5 20.3,2.5 5.9,0.2 10.2,0.2 8.2,0.8 6.6,2.2 -1.2,3.6 -3.4,8.3 -4,5.4 -2.8,0.9 -5.7,8.8 -13.9,26 -3.6,7 -9.1,48.4 -4.3,24.4 -1.7,9.7 2.5,1.7 2,4.8 24.6,-3.7 8.2,-1.2 26.3,-1.1 38.5,-1.1 0,0 -4.2,11.7 5.3,52.1 10.5,1.4 2.5,-18.1 15.5,1.7 -1.5,16.2 19.2,1.2 20.9,28.9 -11.3,18.5 -3.4,9.9 0.3,9.3 -3.7,7 -2.8,9.1 -5.6,15.1 -1.7,7.3 -1.2,8.3 -1.4,8.2 -0.5,3.1 -2.6,7.6 -31.7,-8.8 -4.8,20.9 -2.5,13.4 -0.8,11 5.4,1.1 5.6,1.5 4.2,1.9 2.3,2 0,1.7 -0.2,4 0,1.7 0.8,1.1 1.9,1.2 2.5,1.2 2.9,1.2 1.9,2 1.2,3.1 1.1,3.9 2.3,4.5 1.4,2.6 -0.3,2.5 -0.2,3.1 -9.6,-2.8 -7.6,-1.5 -4,-0.5 -5.6,1.1 -7.6,2.3 -8.5,3.6 -9,5.9 -3.6,1.1 -2.8,0.8 -3.6,1.4 2,6.2 6.3,0.2 18.1,6.6 12.1,2.3 11.9,2.3 -11,18.9 -7.4,18.4 28,7.4 7.6,1.2 -4.3,8.8 25.4,6.8 -4.6,20.1 17,2 9,1.2 -20.6,64.2 -9.9,31.2 -10.6,34.3 -23.3,72.8 -3.4,7.6 -55.4,126.6 -26,21.8 -35.9,26.3 -2.3,-1.1 -2.3,-1.1 -2,-0.6 -3.6,-1.1 -2.6,-0.6 -2.2,-0.6 -1.9,-0.3 -1.7,-0.3 -2.2,-0.5 -2,-0.5 -3.2,-0.9 -0.6,-0.6 -1.4,-1.4 -1.1,-0.8 -0.9,-0.8 -3.1,-1.7 -3.4,-2.2 -1.5,-1.1 0,0 0,0 -1.7,-1.1 -2.3,-1.7 0,0 0,0 -2.5,-1.7 -2.2,-1.7 -2,-1.7 -1.5,-0.9 -1.7,-1.1 -1.4,-0.5 -1.4,-0.8 -3.4,-1.1 -1.5,-1.1 -37.7,-71 -37.9,-71.1 -0.6,-0.5 -2.6,-1.9 -2.9,-0.8 -5.3,0 -3.6,-1.1 -4,-0.3 -2.3,0 -2.6,0 -1.9,-0.3 -1.7,-0.5 -1.9,-0.3 -0.3,-1.4 -0.3,-0.9 -0.2,-0.8 -0.3,-1.4 0,-1.4 -0.2,-1.1 0,-3.4 0.3,-3.4 -0.2,-3.9 -0.2,-2.2 0,-2.2 0,-1.5 0.2,-1.2 0,0 0.2,-1.1 0,-0.9 0,0 0.2,-1.1 0.2,-2.5 0,-1.9 0.2,-2 -0.3,-1.5 -0.2,-0.9 -0.2,-1.1 -0.2,-0.8 -0.2,-0.6 -0.5,-0.9 -0.3,-0.9 -0.2,-0.9 0,0 -0.3,-0.9 -0.2,-1.1 -0.3,-0.8 0,-0.9 -0.2,-0.8 0.2,-0.6 0.2,-0.5 0.3,-0.3 0.6,0 0.9,-0.3 0.9,-0.2 0,0 1.1,0 0.8,-0.5 0.8,-0.3 0.3,-0.5 0.3,-0.3 0.2,-1.4 0,-0.6 -0.2,-0.9 0,-2.5 0.2,-2 0,-0.9 0,0 0.2,-0.9 0.2,-1.2 0,-0.6 -0.2,-0.6 0.2,-1.2 0,-0.5 0,-0.9 0,0 0,-0.9 -0.2,-1.5 -0.2,-2 -0.2,-2.2 -0.2,-1.5 -0.3,-1.7 -0.2,-1.1 -0.3,-1.4 -0.2,-0.8 -0.2,-0.5 0,-0.8 -0.2,-0.9 -0.2,-0.9 0,0 -0.2,-1.1 -0.6,-1.7 -0.3,-1.4 -0.3,-0.6 0,0 -0.3,-0.6 -0.9,-1.9 -0.9,-2.2 -1.4,-2.9 -1.1,-2.5 -0.3,-1.2 0,0 -0.5,-0.9 -0.6,-1.7 -0.8,-2.5 -0.5,-2.2 -0.3,-2.3 -0.2,-3.4 0.2,-3.3 -0.5,-2.5 -0.3,-1.9 -0.2,-1.7 -1.2,-4.9 -0.6,0.2 -5.7,-0.2 -5.7,0 -3.6,-0.6 -3.7,-0.5 -3.6,-0.5 -3.6,-0.5 -7.4,-1.4 -7.3,-1.4 -13,-0.8 -8.8,-0.6 -4.5,-0.2 -4.5,-0.5 -1.2,-2.5 -3.4,-9.6 -2.2,-5.4 -1.1,-3.6 -0.8,-4.2 -0.9,-3.7 -1.4,-5.1 -0.2,-4 -1.2,-6.8 0.8,-4.2 0.6,-4.2 1.5,-8.5 0,-4.2 -0.2,-4 -0.8,-3.9 -0.6,-2.3 0.9,-0.9 2.5,-3.2 1.5,-2.2 0.8,-3.7 -1.5,-2.3 -2.5,-3.1 -4.6,-1.2 -2,-2.6 0.2,-4.9 1.2,-4.6 -1.2,-3.6 -1.4,-4.6 -0.2,-2 2.3,-4.5 -5.1,-0.2 -6,-0.6 -4.5,-0.5 -2.5,-0.9 -1.1,-0.9 -1.1,-3.6 -1.2,-3.4 -0.9,-4.3 -0.9,-3.4 -1.1,-3.7 -2.2,-3.9 -1.1,-0.9 0.3,-0.8 0.3,-1.2 -0.2,-2.2 -0.2,-1.4 -0.6,-1.9 -0.5,-2.2 -2,-5.6 -2.3,-7.1 -3.4,-6.8 0.2,-0.2 55.3,-62.5 -1.2,-1.7 -2.6,-3.6 -3.9,-6.3 -3.6,-7.7 -1.7,-6.5 -3.6,-15.8 -2,-8.5 -3.6,-12.7 -1.4,-10.2 -2.3,-8 -0.8,-6.5 -9,-21.8 -5.4,-8 -3.9,-5.7 -4.9,-6 -2,-3.7 -2,-4.9 -3.1,-7.9 -3.6,-5.7 -6.8,-7.6 -4.2,-4.9 -2.3,-3.1 -2.2,-3.2 -1.4,-3.6 -1.1,-2.9 -2.8,-5.3 -1.9,-2.8 -0.3,-0.5 -2.2,-3.2 -1.1,-2.6 -1.1,-2.9 -0.9,-3.7 -0.5,-3.9 -0.2,-0.3 -0.2,-4.6 -0.3,-4.5 0.5,-7.9 0.3,-7.7 0.2,-3.4 0,-2 0,-1.2 -3.6,-5.9 -1.5,-4 -0.5,-2.3 -0.2,-2.5 0,-4 1.4,-7.6 0.8,-4.2 0,-1.2 -0.5,-1.9 -1.1,-3.4 -1.4,-4.8 -0.9,-4.2 -2.3,-5.7 -1.4,-4.8 -5.1,-21.5 -4.2,-8.7 -2.2,-7.3 5.4,-14.5 1.7,-9.9 2.2,-10 14.1,-20.7 2.2,-7.4 2.3,-6 2.2,-6.3 2.2,-6.2 3.2,-8.8 0.5,-3.2 0.8,-7.7 0.8,-10.2 0.9,-15.5 12.4,1.5 8.7,0.5 7.3,0 12.1,-1.7 2.8,-0.3 5.9,-0.6 3.2,-0.3 5.7,0 8,0.9 z"
       inkscape:connector-curvature="0"
       class="DEP_02 ZON_01" /></g></svg>