<?xml version="1.0" encoding="UTF-8" standalone="no"?>
<!-- Generator: Adobe Illustrator 19.2.0, SVG Export Plug-In . SVG Version: 6.00 Build 0)  -->

<svg
   xmlns:dc="http://purl.org/dc/elements/1.1/"
   xmlns:cc="http://creativecommons.org/ns#"
   xmlns:rdf="http://www.w3.org/1999/02/22-rdf-syntax-ns#"
   xmlns:svg="http://www.w3.org/2000/svg"
   xmlns="http://www.w3.org/2000/svg"
   xmlns:sodipodi="http://sodipodi.sourceforge.net/DTD/sodipodi-0.dtd"
   xmlns:inkscape="http://www.inkscape.org/namespaces/inkscape"
   version="1.1"
   id="SvgMunicipio"
   x="0px"
   y="0px"
   viewBox="0 0 721.2 1000"
   style="enable-background:new 0 0 721.2 1000;"
   xml:space="preserve"
   inkscape:version="0.91 r13725"
   sodipodi:docname="MUN_ID0202.svg"><metadata
     id="metadata10"><rdf:RDF><cc:Work
         rdf:about=""><dc:format>image/svg+xml</dc:format><dc:type
           rdf:resource="http://purl.org/dc/dcmitype/StillImage" /></cc:Work></rdf:RDF></metadata><defs
     id="defs8" /><sodipodi:namedview
     pagecolor="#ffffff"
     bordercolor="#666666"
     borderopacity="1"
     objecttolerance="10"
     gridtolerance="10"
     guidetolerance="10"
     inkscape:pageopacity="0"
     inkscape:pageshadow="2"
     inkscape:window-width="1366"
     inkscape:window-height="705"
     id="namedview6"
     showgrid="false"
     inkscape:zoom="0.236"
     inkscape:cx="360.60001"
     inkscape:cy="500"
     inkscape:window-x="-8"
     inkscape:window-y="-8"
     inkscape:window-maximized="1"
     inkscape:current-layer="svg" /><g
     id="g3"><path
       id="MUN_0202"
       d="m 429.2,0.3 1.5,0.1 1.6,-0.1 2.5,0.3 2.1,0.3 1.1,0.8 0.1,1.7 -0.8,1.5 -0.8,1.1 -0.2,1.2 -0.4,1.6 0,1.2 0.4,1.4 1.1,0.2 3.3,0.5 2.4,0.1 1.3,0.9 1.2,1.3 0.7,1.9 0.6,2.1 0.6,2.5 -0.1,1.8 0.6,0.8 0.8,1.2 1.2,1.8 0.4,1.8 1.1,1.8 0.9,1.9 0.7,2.5 0.9,1.8 1.8,1.1 3,2.3 3.2,0.9 2.1,1.5 2.4,1.1 2.6,1.4 1.9,-0.1 1.3,-0.3 1.7,-1.1 1.9,-0.9 1.6,-0.3 1.7,-0.8 1.5,-0.4 2.5,-1 1,-0.1 1.1,0.6 0.5,0.6 -1,1 -0.4,1.8 -0.3,2.1 -0.4,1.7 -1,2.3 -0.9,1.9 -0.4,1.9 0.4,1.4 1,0.7 0.7,-0.1 1.7,-0.2 0.5,-0.3 1.4,-0.2 0.9,-0.3 1.2,-0.2 1.4,-0.2 1,-0.3 1.2,-0.8 0.8,-1.1 0.9,-1.4 1.4,-0.9 1.9,-0.6 2.1,-0.3 0.9,0.3 1.2,1.7 1.1,1.7 0.2,0.7 0.2,2 -0.3,1.8 -0.1,1.9 -0.6,1.3 -0.2,0.8 -0.2,1.3 -0.6,1.5 -0.1,0.9 0.8,0.6 0.9,0 1.4,0.6 1.6,0.5 1.9,0.6 2.1,0.3 1.5,0.4 0.9,1 0.7,1.2 1.1,2 0.2,1.9 0.3,2.1 0.8,1.4 1.5,1 1.1,0.3 1.1,-0.2 1,-0.5 1.1,-1.1 1,-1.9 0.8,-0.9 1.3,-1.1 1.5,-1.2 2.2,-0.8 1.6,-0.3 0.8,0.6 0.6,1.1 0.9,1.6 1.1,1.2 1.4,0.9 0.5,1.1 0.1,1.4 -0.5,1.6 -1,0.9 -2.5,1.6 -1.7,1.4 -0.5,1.7 -0.5,1.5 0.7,2 0.2,1.5 0.3,1.5 0.2,1.4 -0.2,1.6 -0.4,1.4 0.1,1.5 0.1,2.2 0.5,0.6 0.4,0.8 0.7,0.4 0.6,0.8 0.5,0.8 1.2,1 1.4,1.5 1.7,0.6 2.1,-0.2 1.6,-0.1 1.1,-0.2 1.5,0.2 1.1,0.1 2.2,0.4 1,0.4 1.9,0.6 1.1,0.7 1.2,0.7 0.9,0.4 1.5,0.4 0.9,0.4 1,0.3 1.1,0.7 1.4,-0.1 1.5,-0.4 1.8,-0.5 1.4,-0.7 1.3,-0.7 1,-0.6 0.2,-1.8 -0.2,-1.8 -0.1,-1.7 0.6,-1.3 0.9,-0.8 1.7,-0.6 1.4,-0.4 1.2,-0.1 0.3,0.7 0.5,1.2 0.5,0.8 1.5,0.3 1,0 0.4,-0.6 0.6,-0.5 0.7,-0.1 1.2,0.1 0.9,0.4 1.1,0.8 1.1,0.6 1.1,0.7 1.4,0.5 1.9,0.1 1.7,-0.5 1.5,-0.3 1,-0.5 1.2,-0.8 2.3,-0.9 2,-2.9 1.3,-3.2 0.1,-2.9 0.3,-2.7 0.5,-2.2 1.4,-2.2 0.6,-1.4 1.1,-2.1 0.6,-1.2 1.3,-1.2 0.6,-1.4 1.8,-2.3 1.4,-2.1 0.9,-1.5 1,-0.3 1.1,-0.6 1.9,-0.1 1.6,0.5 2.1,1.2 1.9,1 1.7,1.3 0.9,1.7 0.6,1.4 1.3,1.9 0.7,1.5 1,1.4 1,0.9 0.9,1.5 1.4,1.4 0.5,0.6 0.3,0.8 0.4,1.1 0.4,1.1 0.8,1.1 0.6,2 1,1.5 2,0.2 1.1,-0.6 0.1,-0.6 -0.1,-0.7 -1,-0.9 0.2,-0.8 0.6,-0.4 1,-1.1 0.9,-0.8 0.9,-1.4 0.7,-1.2 1,-0.5 1.3,-1 1.9,-1 0.9,-0.6 2.5,-1.2 1.4,0.2 0.4,1 0.7,1.9 1,0.9 2.4,0.8 1.5,0.8 1.7,2.2 0.8,1.6 0.5,1.6 1.3,1.3 1.8,1.7 1.8,1.8 2.3,1.6 1.2,1 2.1,1.5 0.9,-0.4 1.7,-0.8 0.6,-1.7 1.4,-2.1 -0.2,-1.8 -0.4,-1.3 -0.9,-1.5 -1.7,-2.9 -1.4,-2.8 0.2,-2.2 1,-1.3 1.1,-0.9 1.4,-0.8 2.1,-1.2 0.5,-0.6 0.1,-1 0.4,-1.2 0.9,-1.3 1.3,-1.4 1.6,-0.5 1.2,0.7 0.3,1.3 0.5,1.7 0.6,2.1 1.2,1 2.1,0.6 1.8,1 2.4,1.3 2.9,2.5 0.1,0.1 0,0 -1,1 -0.2,0.3 -0.1,0.1 -0.5,0.8 -1.3,1.9 0.1,0.9 0.1,0.4 -0.8,2.7 0.1,0.6 -0.1,1.6 0,0.2 0.1,2.3 1.5,1.1 1.4,2.5 1.4,2.3 1.1,1.1 0.4,1 0.3,1 0.8,1.2 0.6,1 0.1,0.2 0.7,1 0.6,1.1 0.1,1 0,0.9 0,0.9 -0.8,1.4 -0.5,1.4 -0.5,1.5 0.5,1.1 1,3 0.1,0.4 -0.1,0.9 0.1,1 0.3,0.9 0.1,0.8 0.5,0.8 0.4,0.6 0.8,1.1 -0.2,0.4 0.5,0.7 0.5,0.8 0.5,0.6 0,0.5 0.2,1.5 0.9,1.6 0.1,0.1 0.3,0.4 1.5,1.4 0.1,0.6 0.1,0.6 0,0 0.4,3.1 -0.1,0.8 0.2,0.8 -0.4,0.6 -0.1,0.1 -0.3,0.3 -0.6,0.2 -0.3,0.3 -0.2,0.2 -0.7,0.9 -0.2,1.4 -0.5,1 0.2,0.7 0,0 1.3,0.6 0.1,0.1 -0.3,0.3 0,0.1 0.6,0 0.1,0 0.1,0.3 0,0 1.3,0.1 1.3,0.1 0.1,0 2.3,2.3 1.4,1.7 1.1,1.8 0.1,0.1 2,3.4 0,0.1 0.2,0.2 0.3,0.3 0.3,0.2 0.1,1.9 0.3,3.7 0.1,0.8 0.3,5.2 0.3,4.4 0.2,3 0.2,3.2 0.2,3.2 0,0.3 0.2,5.2 0,0.1 0.2,1.9 0.2,2.1 0.3,3 0.3,3.2 0.2,2.2 0.9,7.1 0.3,2.3 0.1,0.1 0.3,2.2 0.6,4.3 0.8,6.3 0.8,6.4 0.8,6.4 0.2,1 0.4,2.5 0.3,4.9 0.2,3.4 -0.2,0.8 -0.7,0.1 -0.2,0.1 -0.2,0.2 -0.4,0.3 -0.7,0.6 -0.1,0.1 -0.7,0.5 -0.8,0.5 -0.7,0.2 -1.1,-0.5 -0.9,-0.2 -0.9,-0.4 -0.7,-0.4 -1,-0.3 -0.8,0.1 -0.4,0.1 -0.3,0.8 -0.4,1.6 -0.3,1.5 -0.3,1 -0.5,0.8 -0.2,0.3 -0.2,0.2 -0.2,0.1 -0.4,0.1 -0.6,0.2 -0.5,0.3 -0.4,0.4 -0.2,0.4 -0.3,0.7 -0.2,1.2 -0.1,1 -0.3,0.9 -0.3,0.6 -0.4,0.5 -0.6,0.2 -1.2,-0.1 -2.6,0.2 -1.4,0.5 -0.5,0.6 -0.4,1 -0.3,1.5 -0.6,1.7 -0.6,1.1 -0.8,0.4 -0.5,0.1 -0.7,-0.1 -1.4,-0.5 -0.9,-0.1 -0.6,0.6 -0.3,1.1 -0.2,1.5 -0.3,1.2 -0.9,0.9 -1.4,1.4 -1.7,1.3 -0.6,0.6 -0.8,0.3 -0.7,-0.1 -0.8,-0.1 -0.6,-0.1 -0.5,-0.2 -0.6,-0.3 -0.5,-0.3 -0.4,-0.3 -0.3,-0.4 -0.6,-1.6 -0.5,-0.9 -0.6,-1.1 -1.4,-1 -1.6,-0.5 -1.9,0 -1.4,0.6 -0.6,1 -0.4,1.3 -0.2,0.5 -0.6,0.5 -0.7,0 -1.1,-0.1 -1.5,-0.4 -1.8,-0.8 -0.7,-0.5 -1.3,-0.3 -0.8,0.5 -0.4,1 -0.4,0.7 -0.9,0.5 -2,0.8 -1.5,0.6 -0.9,0.9 -0.5,0.5 -0.9,0.2 -0.9,0.1 -0.9,0.1 -0.4,0.1 -0.4,0.8 -0.8,0.9 -0.5,0.5 -0.8,0.4 -1,0.6 -1.6,0.6 -1.2,0.5 -0.9,0 -1.1,0.1 -1,0.1 -0.7,0.1 -0.7,0.1 -0.8,0.2 -0.5,0.4 -0.6,0.6 -0.6,0.6 -0.6,0.3 -1,0.3 -0.7,0.1 -0.6,0 -0.7,0.1 -1.5,0 -1.2,0.1 -0.8,0.2 -0.6,0.3 -0.7,0.4 -0.6,1.5 -0.7,1.6 -0.7,1.2 -0.8,0.7 -0.3,1 -0.3,1.6 -0.3,1.2 -0.4,0.8 -0.6,1 -0.8,1 -0.8,0.9 -0.6,0.7 -0.6,1 -0.2,0.6 -0.3,0.8 -0.5,0.3 -0.6,0.6 -0.9,0.9 -1.6,1 -1.5,0.2 -1.6,0.4 -1.1,0.2 -1.2,0.6 -1,0.6 -0.8,0.9 -1.1,0.7 -1.5,0.4 -1,0.3 -0.8,0.7 -0.6,0.6 -0.4,0.9 -0.2,1 -0.2,1 0,0.8 -0.1,0.9 -0.2,0.7 -0.4,0.5 -0.6,0.6 -0.5,0.6 -0.9,0.5 -0.4,0.1 -1.5,0.2 -1.3,0.1 -0.9,-0.1 -1.4,-0.1 -0.5,0.2 -0.5,0.3 -0.2,0.7 0,0.5 0.2,1.1 0.3,0.9 0.1,0.9 -0.3,0.5 -0.5,0.3 -1.2,0.3 -0.5,0.2 -0.6,0.3 -1.1,0.6 -1,0.7 -0.8,0.6 -0.8,0.8 -0.9,0.8 -1.1,1.1 -0.8,0.9 -0.8,1 -0.3,0.7 -0.2,0.9 0,0.7 0.2,1.2 0.2,0.7 -0.3,0.6 -0.5,0.6 -0.6,0.5 -1.1,0.7 -1.2,0.6 -0.6,0.3 -0.8,0.4 -0.6,0.7 -0.4,0.7 -0.8,2.2 -0.5,1.2 -0.5,0.9 -1,1.1 -0.8,0.8 -1.2,0.9 -1,0.8 -0.6,0.6 -0.6,0.7 -0.8,0.9 -0.8,1 -0.6,0.3 -0.6,0.3 -1.7,0.5 -0.5,0.2 -0.6,0.2 -0.7,0.5 -1.4,1.1 -0.8,0.6 -0.5,0.5 -0.4,0.3 -1.2,0.8 -1.8,1.5 -0.6,1 -0.9,1.4 -1,1.5 -0.9,0.7 -1,0.1 -0.6,-0.1 -0.1,0 -0.5,-0.1 -0.2,0 -1.4,0 -0.7,0 -0.5,0.2 -0.6,0.6 -0.5,0.7 -0.8,1 -0.6,1 -0.5,0.6 -0.4,0.3 -0.5,0.2 -0.5,0.1 -1.3,0.1 -1.3,0.1 -0.4,0 -0.3,-1 -0.1,-0.7 -0.2,-0.8 -0.5,-0.5 -0.9,-0.5 -0.7,-0.1 -0.7,-0.1 -2.1,0 -0.3,-0.3 -0.2,-0.2 -0.4,-0.2 -0.4,0 -0.5,-0.3 -0.5,-0.2 -0.6,-0.5 -0.3,-0.6 -0.1,-0.5 -0.3,-0.2 -0.3,-0.1 -0.6,0.1 -0.4,0.1 -0.9,0.3 -0.8,0.2 -0.6,0.1 -0.5,0.2 -0.5,0.3 -0.5,-0.1 -0.3,-0.3 -0.3,-0.5 -0.4,-1.1 -0.4,-1.1 -0.4,-0.6 -0.3,-0.3 -0.5,-0.1 -0.5,-0.1 -0.4,0.1 -0.6,0.3 -0.5,0.4 -1,0.9 -0.6,0.6 -0.8,0.3 -0.6,-0.1 -1.8,-0.3 -0.3,0.1 -0.4,0.6 -0.5,0.9 -0.5,0.6 -1.1,0.5 -1,0.3 -1.1,0.4 -0.6,0.6 -0.5,0.8 -0.3,0.5 0,0.6 -0.1,0.9 -0.1,0.5 -0.3,0.6 -0.3,0.5 -0.5,0.3 -0.4,0.2 -0.6,0 -0.5,-0.1 -1.2,-0.1 -0.5,0.2 -0.2,0.4 -0.2,0.5 -0.2,0.7 -0.6,1.9 -0.1,0.6 -0.2,0.8 -0.2,0.3 -0.4,0.1 -0.3,-0.1 -0.6,-0.1 -0.3,-0.1 -0.7,-0.3 -0.9,-0.3 -1.1,-0.2 -0.6,0.1 -0.8,0.1 -1,0.3 -1.2,0.5 -1.4,0.6 -1.2,0.9 -0.5,0.5 -0.5,0.6 -0.2,0.5 -0.5,0.6 -0.5,0.6 -0.4,0.3 -0.5,0.1 -0.6,-0.1 -1.1,-0.4 -0.9,-0.3 -0.4,0 -0.4,0.2 -0.4,0.4 -0.7,0.8 -0.5,0.5 -0.6,0.2 -0.6,0 -1.1,-0.1 -1,0.1 -0.8,-0.3 -0.6,-0.3 -1,-0.7 -0.8,-0.3 -0.5,-0.2 -0.5,0.1 -0.3,0.1 -0.5,0.3 -0.8,0.6 -1.9,1.5 -1,0.7 -0.8,0.4 -0.8,0.4 -0.6,0.6 -0.8,0.9 -0.4,0.4 -0.4,1.2 -0.5,0.6 -0.5,0.3 -0.6,0.3 -0.6,0 -0.3,0.2 -0.4,0.6 -0.4,0.3 -0.2,0.1 -0.6,0.5 -0.8,0.4 -0.1,0.3 -0.4,0.6 -0.2,0.4 -0.4,0.4 -0.4,0.9 -0.6,0.3 -0.7,0.1 -0.3,-0.2 -0.2,0.1 -0.1,0.3 -0.3,0.4 -0.4,0.2 -0.2,0.2 -0.1,0.3 -0.1,0.4 -0.3,0.5 -0.5,0.2 -0.6,0.2 -0.4,0.2 -1,0.6 -0.1,0.3 0,0.4 -0.2,0.4 -0.3,0.5 -0.1,0.1 -0.2,0.2 -0.3,0.1 -0.2,0.3 -0.2,0.3 -0.3,0.3 -0.3,0.2 -0.2,0.1 -0.2,0.3 -0.1,0.3 0.1,0.3 0.1,0.2 -0.1,0.2 -0.3,0.2 -0.5,0.2 -0.3,0.2 -0.3,0.2 -0.4,0 -0.5,0.1 -0.3,0 -0.2,-0.1 -0.2,-0.1 -0.3,0.1 -0.3,0.2 -0.8,0.2 -0.3,0.1 -0.2,0.2 -0.2,0.3 0,0 -0.2,0.4 -0.1,0.3 -0.1,0.2 -0.2,0.3 -0.1,0.1 -0.7,0.1 -0.2,0.2 -0.4,0.5 -0.3,0.2 -0.3,0.3 -0.3,0.2 -0.4,0.3 -0.5,0.5 -0.2,0.1 -0.4,0.4 -0.3,0.4 -0.2,0.3 -0.2,0.3 -0.3,0.3 -0.4,0.2 -0.2,0 -0.3,0.1 -0.3,0.2 -0.3,0.2 -0.7,0.9 -0.4,0.5 -0.5,0.6 -0.3,0.7 -0.2,0.2 -0.4,0.5 -0.5,0.7 -0.5,0.8 -0.1,0.3 0,0.3 -0.1,0.3 -0.1,0.3 -0.4,0.6 -0.3,0.5 -0.3,0.6 -0.2,0.5 -0.2,0.1 -0.2,0 -0.8,0.2 -0.6,0.3 -0.5,0.6 -0.4,0.6 -0.4,0.6 -0.5,1 -0.2,0.9 -0.6,0.9 -0.3,0.6 -0.1,0.6 -0.3,1 -0.1,0 -0.2,0.3 -0.5,0.5 -0.2,0.2 -0.3,0.3 -0.5,0.3 -0.6,0.2 -0.5,0.3 -0.2,0.2 -0.4,0.2 -0.5,0.3 -0.7,0.5 -0.5,0.3 -0.7,-0.5 -0.9,0.3 -0.8,0.2 -0.7,0.3 -0.6,0.4 -0.4,0.5 0,0 -0.2,0.2 -0.1,0.5 -0.1,0.4 -0.3,0.5 -0.2,0.6 -0.3,0.6 -0.1,0.6 -0.4,0.5 -0.3,0.6 -0.2,0.5 -0.4,0.5 -0.5,0.3 -0.6,0.3 -0.4,0.3 -0.1,0.1 -0.2,0.5 -0.2,0.6 -0.2,0.4 -0.2,0.4 -0.3,0.6 -0.5,0.3 -0.4,0.2 -0.7,0.1 -0.6,0.1 -0.5,0.2 -0.3,0.2 -0.4,0.3 -0.5,0.4 -0.4,0.3 -0.3,0.3 -0.4,0.3 -0.5,0.4 -0.4,0.4 -0.3,0.5 -0.5,0.5 -0.4,0.4 -0.6,0.5 -0.6,0.3 0.1,0.2 0.3,0.3 0.3,0.2 0.4,0.1 0.1,0 0,0.4 0.1,0.8 0.3,1.1 0.2,0.9 0.1,0.9 0.1,0.6 -0.1,0.4 -0.2,0.5 -0.3,0.5 -0.4,0.6 -0.2,0.7 -0.1,1.2 0,0.8 0,0.8 0.1,0.5 0.1,0.8 0,0.6 0.1,0.8 -0.1,0.5 0,0.7 -0.1,1.1 0.1,1.2 0.1,0.9 0.1,0.6 0,0.7 -0.1,0.8 0,0.5 0.2,0.5 0.2,0.6 0.2,0.5 0.1,0.6 0,0.7 0.1,0.5 -0.2,0.4 -0.2,0.4 -0.2,0.6 -0.2,0.7 -0.1,0.6 -0.1,0.6 -0.4,0.7 -0.2,0.6 0.1,0.5 0.2,0.5 0.2,0.9 0.1,0.4 -0.3,0.6 -0.1,0.8 -0.2,0.8 -0.2,0.4 -0.2,0.8 -0.3,0.5 -0.8,1.6 -0.8,1.5 -1.3,3.2 -0.5,0.9 -1.2,3.6 0,0.5 -0.3,1.2 -1,1.1 -0.4,1.6 -0.8,3.1 -0.2,1 -0.5,1.6 0,0.5 -0.4,1.6 -0.1,0.1 -2,2.2 -0.1,0.4 -0.1,0.6 -0.4,0.8 2.7,3.4 -3.4,1.9 3.7,2.2 -0.1,0.3 -0.5,1.3 -0.3,1 -0.6,1.8 -0.2,0.4 -0.3,0.5 -0.8,1.4 -0.8,1.5 -0.3,0.5 -0.3,0.7 -0.4,0.5 -0.6,0.8 -0.4,0.4 -0.2,0.5 -0.1,0.3 -0.4,0.9 -0.2,0.8 -0.2,0.7 -0.2,0.5 -0.3,0.5 -0.2,0.6 -0.5,1 -0.4,1 -0.4,1.1 -0.9,1.8 -0.5,1.2 -0.5,0.6 -0.2,0.2 -0.1,0.1 0.6,0.5 0.6,0.3 -0.1,0.1 -3.3,5.7 1.8,1.6 -1.9,3.8 -0.1,0.2 -0.1,0.3 1.8,0.1 0.7,0.5 0.5,0.7 0.6,0.7 0.3,0.4 0.1,1.2 0.4,1.3 0.6,0.5 1.1,0.4 0.7,0.3 1,1 0.4,0.6 0.4,1.1 0.6,1.7 0.1,1.1 -0.4,1.2 -0.9,1.5 0.1,1 0.3,0.8 1.1,0.7 1.4,0.5 1.5,0.1 0.3,7.6 2.6,14.4 0.9,4 0.8,3.6 0.2,1.6 0.5,1.8 1.1,4.6 0.5,2.7 0.3,2.4 0.5,2 0.9,6.3 0.8,3.7 1.4,9.7 0.4,2.4 0.7,5.1 0.5,2.9 8,0.4 2.3,92.1 -0.2,2.5 -0.2,1.7 -0.1,1 -0.1,0.3 -0.2,0.6 -0.3,0.5 -0.4,0.5 -0.3,0.4 -0.5,0.4 -0.5,0.4 -0.4,0.3 -0.9,0.3 -0.9,0.3 -0.7,0.3 -0.6,0.3 -0.8,0.5 -0.5,0.6 -0.5,0.7 -0.2,0.4 -0.3,0.6 -0.2,0.6 -0.2,0.6 -0.1,0.4 0,0.5 0.1,1.2 0.2,0.6 0.2,0.8 0.2,0.4 0.6,0.9 0.5,0.7 0.8,1 0.6,0.8 0.4,0.5 0.3,0.6 0.3,0.8 0.1,0.6 0.1,0.6 0,0.5 0,0.8 -0.1,1 -0.2,0.9 -0.2,0.7 -0.4,3 -0.3,1.4 -0.1,1 0.1,0.6 0.2,0.6 0.3,0.6 0.6,0.6 0.2,0.2 0.4,0.4 0.3,0.3 0.6,0.3 1,0 1.4,0 0.6,-0.1 0.3,-0.2 0.7,-0.5 0.4,-0.4 0.8,-0.9 2.9,-3.2 0.1,-0.2 2.2,-2.3 0.6,-0.7 2.4,-2.5 1,-0.9 0.6,-0.5 0.8,-0.4 0.6,-0.3 0.5,-0.1 0.5,0.1 0.5,0.1 0.6,0.1 0.4,0.2 0.6,0.3 0.4,0.3 -0.1,0.1 -1,1.2 -1.1,1.9 -0.2,0.1 -2.2,2.6 -0.4,1.2 -0.3,0.4 -1,2.4 -0.8,3.1 -1.6,2.5 -1,1.4 0.1,1.3 0.7,1.4 0.1,1.5 -0.1,0.9 -0.8,0.6 -0.4,0.2 -0.6,0.9 -0.5,0.6 -0.2,0.6 -0.1,0.3 -0.1,0.7 -0.1,1 -0.2,0.5 -0.3,0.5 -0.1,0.5 -0.4,0.8 -0.2,0.5 -0.2,0.4 -0.3,0.4 -0.2,0.4 -0.3,0.4 0,0.3 0.6,0.7 0.2,0.5 -0.1,0.2 -0.1,0.1 -0.2,0.8 -0.2,0.6 -0.2,0.5 -0.2,0.3 -0.3,0.3 -0.3,0.2 -0.5,0.2 -0.2,0.3 -0.1,0.2 -0.1,0.3 -0.1,0.3 -0.1,0.5 -0.1,0.2 0,0.5 -0.1,0.5 0,0.1 0,0.5 0,0.5 0,0.2 0.1,0.3 -0.1,0.5 -0.1,0.3 -0.1,0.2 -0.1,0.5 0,0.3 0.1,0.2 0.2,0.5 0.1,0.3 0,0.3 -0.1,0.4 -0.2,0.4 -0.3,0.4 -0.1,0.1 -0.3,0.2 -0.1,0.1 -0.1,0.1 0.2,0.2 -0.2,0.1 -0.2,0.1 -0.2,0.1 -0.2,0.1 -0.1,0.2 -0.2,0.2 -0.2,0.5 -0.3,0.5 -0.2,0.7 -0.6,1.9 0.4,0.6 -0.1,0.1 0,0.2 0,0.3 0.2,0.3 0.3,0.4 0.1,0.3 -0.1,0.4 -0.3,0.4 -1.5,1.1 -1.9,1.3 -0.7,0.9 -0.6,0.9 -0.2,0.4 -0.1,0.4 -0.5,1.2 -0.3,0.3 -0.3,0.3 -0.1,0.5 0,0.4 0,0.3 0.9,1.5 0.7,1 0.2,0.4 0.2,1 0.2,0.9 0.2,0.2 0.5,0.6 0.3,0.6 0.2,0.6 0.1,0.4 0,0.2 0,0.2 -0.1,0.3 -0.2,0.3 -0.1,0.2 -0.4,0.3 -0.6,0.5 -0.1,0.2 0,0.2 0,0.2 0.1,0.1 0.3,0.3 0.1,0.2 0.1,0.1 0.2,0.2 0.1,0.1 0.2,-0.1 0.1,-0.1 0.3,-0.2 0.4,-0.3 0.3,-0.2 0.3,-0.1 0.3,0.1 0.3,0.2 0.3,0.2 0.3,0.4 0.2,0.4 0.2,0.2 0.5,0.3 1.2,0.5 0.8,0.1 1.1,0.3 1,0.2 0.4,0.1 0.5,0.2 0.5,0.3 0.4,0.5 0.2,0.4 0.2,0.8 0.1,0.7 0.1,1 0.1,1 0.3,1.5 -0.1,0.5 -0.3,0.7 0.1,0.6 0.1,0.5 0.1,0.8 -0.1,0.9 -0.5,1.5 -0.8,1.2 -1.1,1.5 -0.6,1 -0.3,1.5 -0.4,0.7 -0.1,0.5 0.1,0.5 0.3,0.5 0.8,0.5 0.9,0.2 1,0.3 0.6,0.3 0.1,0.5 -0.1,0.4 -0.2,1 -0.5,0.3 -1.5,-0.1 -0.9,-0.1 -0.3,0 -0.5,0.2 -0.5,0.5 -0.8,0.6 -0.5,0.5 0.2,2.1 0.3,1.7 0.1,3.1 0.3,1.3 -0.1,2.1 -0.3,0.5 -1.1,0.5 -0.3,0.6 -0.4,0.9 0.1,2.5 -0.5,1.3 -0.3,0.8 -0.3,1 -0.6,1 0,0.6 1.5,0.9 0.5,1.6 0.1,0.7 0.5,1 0.1,0.5 -0.3,0.5 -0.2,0.2 -2.8,0.4 -1.5,0.3 -0.5,0.9 0.1,0.8 1.4,0 0.9,0.3 -0.3,1.9 0.2,0.6 0.1,0.3 0.5,0.7 0.2,0.1 0.4,0.1 0.6,-0.1 0.9,0.3 -0.3,1.5 -2.9,1.6 -0.4,1 -0.2,0.3 0.2,0.1 0.2,0.2 1,0.6 0.4,0.7 -0.1,0.6 0.1,0.3 -0.1,0.4 -0.5,-0.2 -1.5,0 -0.2,0.3 -0.8,0.2 -0.9,0.4 -0.8,0.2 -0.9,-0.3 -0.7,-0.9 -0.6,-1.5 -0.9,-0.6 -1,-0.4 -1,-1.2 -0.8,-0.6 -1.5,-1.7 -1.2,-0.8 -1.1,-0.6 -0.5,-0.4 -1,-0.6 -1.1,-1.6 -1.8,-2 -3.3,-3.2 -1.6,-0.5 -1.8,-0.2 -1.1,-0.5 -0.6,0.2 -0.8,-0.3 -0.5,-0.6 -0.5,-0.6 -0.5,-0.9 -0.4,-0.1 -0.6,-0.3 -0.4,-0.2 -0.3,-0.2 -1,-0.6 -0.3,-0.2 -0.6,-0.2 -0.6,0.2 -0.8,0.2 -0.4,0.1 -0.4,0 -0.5,0 -0.4,0 -0.6,0.2 -0.6,0.3 0,0.2 0,0.2 0.1,0.3 0.1,0.4 0.1,0.7 -0.1,0.5 0.1,0.2 -0.1,0.1 -0.2,0.2 -0.2,0.1 -0.3,0.1 -0.5,0.1 -0.5,0.2 -0.3,0.2 -0.5,0.5 -0.6,0.6 -0.3,0.4 -0.2,0.4 -0.3,0.3 -0.1,0.3 0,0.3 0.1,0.4 0.1,0.4 0.1,0.7 -0.2,0.3 -0.3,0.4 -0.3,0.2 -0.3,0.3 -0.6,0.4 -0.3,0.2 -0.4,0.5 -0.2,0.4 -0.2,0.3 -0.1,0.2 0,0.2 0,0.2 0.2,0.4 0.1,0.2 0,0.1 0,0.1 -0.1,0.1 -0.1,0.2 -0.5,0.3 -0.3,0.4 -0.3,0.3 -0.1,0.2 -0.1,0.2 0.2,0.5 0.1,0.2 0.1,0.2 0,0.2 -0.3,0.2 -0.4,0.2 -0.5,0 -0.2,0.1 4.2,13.9 1,4 0.9,3.4 1.1,4.6 0.6,2.2 0.4,1.4 0.3,0.4 0.8,1.2 0.3,0.4 0.4,0.8 0.4,1.1 0.1,1.6 0.1,0.6 0.2,0.4 0.6,1 1.4,2.3 0.6,1.1 1.2,1.7 0.3,0.4 0.9,0.7 1.8,1.4 1.4,1 1.3,1 2.2,1.6 1.7,1.2 0.5,0.4 0.4,0.3 1.1,1 0.6,0.6 0.9,1 0.6,0.6 0.5,0.7 1,1.5 0.1,0.1 -0.1,0.3 0.2,0.4 0.2,0.3 0.8,0.9 0.2,0.6 0,0.9 0,0.4 0.1,0.3 0.4,0.5 0.3,0.4 0.3,0.4 0.3,0.6 0,0.6 -0.4,1.3 -0.4,0.8 -0.5,0.8 -0.4,1 0.1,1 0.1,0.6 -0.1,1.6 -0.1,1 -0.2,0.5 -0.5,0.4 -0.5,0.4 -0.4,0.4 -0.3,0.6 -0.1,1.3 -0.1,0.2 -0.2,0.3 0,0.6 0.1,0.3 0.3,0.2 0.2,0.3 0,0.3 -0.1,0.2 -0.2,0.3 -0.1,0.3 0,0.3 0.1,0.2 0.1,0.2 0.1,0.1 0.3,0.4 0.8,0.8 0.3,0.2 0.7,0.5 0.8,0.6 0.4,0.4 0,0.1 -0.2,0.2 -1.1,0.6 -0.6,0.6 -0.5,0.8 -0.1,0.5 0.2,0.5 0.4,0.3 0.8,0.1 1,0.4 0.6,0.3 0.4,0.3 0.2,0.2 -0.1,0.3 -0.4,0.3 -0.6,0.4 -0.3,0.4 -0.3,0.4 -0.1,0.6 0,0.3 0.1,0.9 0.1,0.9 0,1 -0.1,1 -0.2,0.5 -0.4,0.9 -0.4,0.4 -0.4,0.3 -1,0.7 -0.4,-0.7 -0.4,-0.9 -0.4,-1 -0.2,-1.1 -0.2,-1 -0.3,-0.8 -0.5,-0.8 -0.5,-0.4 -0.7,0 -0.4,0.9 -0.5,1.1 -0.5,0.8 -0.6,0.6 -0.6,0.6 -0.3,0.3 -0.3,0.2 -0.1,0.3 0,0.5 0.2,0.4 0.3,0.7 0.3,0.7 0,0.4 -0.1,0.3 -0.4,0 -0.4,-0.2 -0.8,-0.4 -0.8,-0.4 -0.5,-0.3 -0.3,-0.4 -0.4,-0.3 -0.7,-0.1 -0.6,0 -0.6,0.1 -0.4,0.1 -1.1,0.4 -0.8,0.6 -0.5,0.5 -1.2,0.9 -0.8,0.5 -0.6,0.2 -0.5,-0.2 -0.1,-0.4 0.4,-0.6 0.6,-0.7 0.4,-0.6 0.2,-0.8 -0.1,-0.9 -0.2,-0.4 -0.6,-0.3 -0.4,0.3 -0.6,1.2 -1.2,1.2 -0.9,0.8 -0.6,0.5 -0.3,0.4 0.1,0.3 0.5,0.3 0.6,0.4 0.5,0.4 0.3,0.2 -0.1,0.4 -0.4,0.5 -0.4,0.2 -0.6,0.1 -0.9,-0.1 -1.1,-1.1 -0.4,-0.5 -0.4,-0.8 -0.1,-0.6 0.1,-1.1 -0.1,-0.4 -0.4,-0.5 -0.4,-0.4 -0.6,-0.2 -0.8,0.3 -0.5,0.5 -0.6,1 -0.8,1.6 -0.8,1 -0.7,0.5 -1.2,1 -1.8,1.5 -0.8,0.2 -0.7,0.1 -0.6,0.1 -0.2,-0.2 0,-0.4 0.3,-0.6 0.5,-1.3 0.4,-1.2 0.1,-0.8 -0.1,-0.9 -0.3,-0.9 -0.1,-0.6 -0.3,-0.6 -0.3,-0.1 -1.1,0.1 -0.8,0.3 -1.2,0.4 -0.4,0.6 -0.3,0.9 -0.5,1.3 -0.5,0.8 -0.5,0.9 -0.2,0.8 -0.3,1.1 -0.4,1 -0.4,1 -0.4,0.7 -0.6,0.2 -0.6,-0.2 -0.9,-1 -0.2,-1.5 -0.4,-1.1 -0.8,-1.2 -0.8,-1 -1.1,-1.1 -1.1,-0.4 -0.2,-0.1 -0.6,0.2 -0.9,0.2 -1,0.3 -0.6,0.4 -0.4,0.5 -0.2,0.4 -0.8,0.9 -0.6,0.6 -0.6,0.5 -0.5,-0.1 -0.8,-0.2 -0.5,-0.5 -0.8,-1.2 -0.8,-1.1 -0.4,-0.9 0,-0.6 0.3,-0.5 0.9,-1 0.6,-0.8 0.5,-0.8 0.5,-0.5 0,-0.8 0,-0.9 -0.4,-0.4 -0.5,0 -0.9,0.2 -1,0.4 -1.1,0.3 -1,-0.1 -0.8,-0.4 -0.4,-0.4 -0.5,-1.1 -0.5,-1.2 -0.7,-0.4 -0.5,-0.2 -0.4,-0.6 -0.4,-0.5 -0.8,-1.6 -0.3,-1.7 -0.3,-1.5 -0.3,-1.1 -0.4,-0.6 -0.5,-0.4 -0.3,-0.1 -0.5,0.3 -1,0.5 -1.4,0.8 -1.2,0.4 -1,0.2 -0.8,-0.2 -0.4,-0.2 -0.6,-0.4 -0.1,-0.4 -0.2,-0.8 0.1,-0.6 0.2,-0.6 0.5,-0.4 0.6,-0.5 0.5,-0.5 0.5,-0.5 0.3,-0.5 0.2,-0.5 0.3,-0.8 0.2,-1 0.3,-0.4 0.3,-0.4 0.2,-0.3 0.1,-0.4 0.2,-0.8 -0.2,-0.6 -0.4,-0.4 -0.5,-0.2 -0.3,-0.4 -0.5,-0.3 -0.2,-0.3 -0.3,-0.2 -0.2,-0.3 -0.1,-0.3 0.3,0 0.5,0.4 0.3,0.2 0,-0.3 0.4,-0.5 0.3,-0.5 0.3,-0.5 -0.3,-0.4 -0.6,-0.3 -0.6,-0.3 -1.1,0.1 -1.7,0.1 -0.8,-0.1 -0.5,-0.4 -0.5,-0.6 -0.5,-0.5 -0.9,-0.4 -0.9,-0.3 -0.5,-0.2 -0.5,-0.2 -0.3,-0.3 -0.1,-0.4 0.2,-0.3 0.2,-0.1 0.2,-0.1 0.2,-0.3 0,-0.4 -0.1,-0.3 -0.3,-0.9 -0.4,-0.3 -0.4,-0.7 -0.4,-0.5 -0.6,-0.2 -0.4,0 -0.6,-0.1 -0.7,-0.1 -0.8,-0.1 -0.5,0 -0.9,-0.5 -0.6,-0.5 -0.5,-0.3 -0.8,-0.2 -0.8,-0.4 -0.5,-0.1 -0.8,0.1 -0.6,-0.1 -0.3,-0.3 -0.5,-0.4 -0.1,-0.6 0.1,-0.8 0.2,-0.8 0.1,-1 -0.2,-1 -0.6,-1.1 -0.8,-0.5 -1,-0.4 -0.8,-0.2 -0.6,-0.1 -0.6,-0.2 -0.3,-0.3 -0.3,-0.3 -0.2,-0.6 -0.6,-0.6 -0.4,-0.3 -0.9,-0.1 -0.6,0.2 -0.5,-0.2 -0.6,-0.2 -0.3,-0.2 0,-0.3 0.1,-0.9 -0.2,-0.6 -0.6,-0.8 -0.2,-1.1 -0.2,-1.1 -0.1,-1.2 -0.2,-1.2 0,-1.2 0.2,-1 0,-0.5 -0.1,-0.8 -0.4,-0.9 -1,-1.1 -0.5,-0.5 -0.3,0 -0.5,0.3 -0.6,0.4 -0.6,0 -0.5,-0.2 -0.3,-0.4 -0.4,-0.5 -0.4,-0.4 -0.6,-0.3 -0.6,-0.5 -0.1,-0.3 -0.2,-0.5 0.2,-0.5 0.2,-0.6 0.4,-0.5 0.5,-0.6 0.4,-0.6 0.5,-0.5 0.9,-1.1 0.5,-0.4 0.3,-0.8 0.2,-0.5 0.1,-0.8 0.1,-0.7 0.1,-1 -0.1,-0.8 0.2,-0.5 -0.2,-0.6 -0.4,-0.8 -1,-1.6 0.2,-0.5 0.1,-0.2 0.1,-0.2 0.1,-0.1 0.1,-0.1 0.3,-0.1 0.3,0 0.6,0 0.3,-0.1 0.3,-0.2 0.1,-0.1 0.2,-0.1 0.1,-0.1 0.1,-0.1 0.1,-0.1 0.1,-0.1 0.1,-0.1 0.1,-0.3 0.2,-0.3 0.2,-0.3 0.1,-0.2 0,0 0.1,-0.3 0.1,-0.3 -0.1,-0.3 0,-0.3 0,-0.1 0,-0.2 0,-0.1 0,-0.1 0.1,-0.1 0.1,-0.3 0,-0.2 0,-0.2 0,-0.4 0.1,-0.1 0,-0.4 0.1,-0.2 0.1,-0.3 0.1,-0.3 0,-0.1 0,-0.2 0,-0.2 0,-0.2 0.1,-0.3 0,-0.1 0.1,-0.2 0,-0.2 0.1,-0.1 0,0.2 -0.1,-0.3 -0.1,-0.2 0,-0.2 -0.1,-0.2 -0.1,-0.2 -0.1,-0.1 -0.1,-0.1 -0.2,-0.3 -0.1,-0.1 -0.2,-0.2 -0.2,-0.2 -0.3,-0.2 -0.2,-0.1 -0.2,-0.1 -0.2,-0.1 -0.3,-0.2 -0.3,-0.2 -0.2,-0.2 -0.3,-0.2 -0.3,-0.2 -0.3,-0.1 -0.3,-0.2 -0.2,-0.2 -0.3,-0.2 -0.1,-0.1 -0.2,-0.1 -0.3,-0.2 -0.1,-0.1 -0.1,-0.1 -0.2,-0.3 -0.2,-0.2 -0.1,-0.2 -0.1,-0.1 -0.1,-0.1 -0.3,-0.3 -0.1,-0.1 -0.2,-0.1 -0.1,-0.2 -0.3,-0.1 -0.2,-0.1 -0.2,-0.1 -0.2,-0.1 -0.3,0.1 -0.3,0 -0.2,-0.1 -0.2,0 -0.1,-0.1 -0.2,0 -0.2,0 -0.1,0 -0.1,-0.1 -0.1,-0.1 -0.1,-0.1 -0.1,-0.1 -0.1,-0.1 -0.1,-0.1 0,0.6 -0.1,-0.1 -0.1,-0.1 0,-0.1 -0.1,-0.1 -0.1,-0.1 -0.1,-0.1 -0.1,-0.2 0,-0.1 -0.1,-0.1 -0.2,-0.2 -0.2,-0.1 -0.2,-0.2 -0.1,0.1 -0.2,0.1 -0.1,0.1 -0.1,0.1 -0.1,0.1 -0.4,0 -0.1,0 -0.1,-0.2 -0.2,-0.2 -0.3,0.1 -0.4,0.1 -0.2,0.1 -0.3,-0.1 -0.3,0 -0.3,0.1 -0.2,0.1 -0.1,0.1 -0.3,0.2 -0.3,0 -0.2,-0.2 -0.2,-0.1 -0.4,-0.1 -0.1,-0.1 -0.2,-0.1 -0.3,-0.1 -0.3,-0.2 -0.2,-0.2 -0.3,-0.2 -0.3,-0.3 -0.3,-0.3 -0.1,-0.1 -0.3,-0.3 0.3,0 -0.2,-0.2 -0.2,-0.2 -0.1,-0.1 -0.2,-0.2 -0.1,-0.1 -0.1,-0.1 -0.1,-0.1 -0.1,-0.1 -0.1,-0.1 0,-0.1 -0.1,-0.1 -0.1,-0.1 -0.2,-0.1 -0.1,-0.1 -0.1,-0.1 -0.2,-0.1 -0.2,0 -0.2,0 -0.1,0 -0.1,-0.1 -0.3,-0.1 -0.5,-0.2 -0.5,-0.3 -0.4,-0.3 -0.1,-0.6 0.1,-0.4 0.2,-0.6 0.1,-0.4 0.1,-0.2 0.2,-0.4 0.2,-0.4 0.3,-0.5 0.4,-0.5 0.3,-0.5 0,-0.3 0,-0.2 0,-0.3 0,0.2 -0.3,-0.4 -0.3,-0.4 -0.1,-0.2 0,-0.1 0,-0.3 0.2,-0.6 0.2,-0.3 0.1,-0.2 0.1,-0.4 0.1,-0.3 0.1,-0.3 0.1,-0.3 0,-0.2 -0.1,-0.7 0,-0.4 -0.1,-0.6 -0.2,-0.4 -0.3,-0.8 -0.2,-0.6 -0.1,-0.5 0,-0.5 -0.1,-0.4 0,-0.2 -0.1,-0.3 -0.1,-0.1 -0.2,-0.8 -0.2,-0.8 -0.1,-0.1 -0.1,-0.8 -0.1,-0.3 0,-0.4 0,-0.1 0.1,-0.3 0,-0.4 0.1,-0.4 0.2,-0.3 0.4,-0.7 0.2,-0.3 0.2,-0.2 0.3,-0.3 0.1,-0.1 0.2,-0.4 0,-0.3 0,-0.4 0,-0.1 0.1,-0.9 0.1,-0.5 0,-0.4 0.1,-0.2 0.1,-0.2 0,-0.1 0,-0.3 0,-0.4 -0.1,-0.3 0,-0.1 -0.2,-0.4 -0.3,-0.3 -0.3,-0.3 -0.3,-0.3 -0.2,-0.2 -0.3,-0.1 -0.1,-0.1 -0.1,0 -0.3,0.1 -0.4,0 -0.4,0.1 -0.4,0 -0.3,-0.1 -0.3,-0.2 -0.1,-0.1 -0.2,-0.3 -0.1,-0.2 -0.1,-0.2 -0.2,-0.3 -0.2,-0.3 -0.2,-0.4 -0.1,-0.2 -0.1,-0.3 -0.2,-0.2 -0.1,-0.1 0,0 -0.1,-0.1 -0.4,-0.3 -0.3,-0.1 -0.2,-0.1 -0.2,-0.1 -0.4,-0.1 -0.4,-0.1 -0.2,0.1 -0.4,0 -0.2,0.1 -0.2,0.1 -0.3,0.1 -0.4,0.1 -0.2,0 -0.4,0 -0.2,-0.1 -0.2,-0.1 -0.1,-0.1 -0.2,-0.3 -0.3,-0.4 -0.4,-0.3 -0.4,-0.3 -0.4,-0.3 -0.2,-0.2 -0.2,-0.1 -0.5,-0.3 -0.4,-0.3 -0.4,-0.3 -0.1,0.3 -0.3,-0.2 -0.3,-0.1 -0.1,-0.2 0,-0.2 0,-0.5 0.1,-0.3 0.1,-0.1 0.2,-0.3 0.2,-0.4 0.1,-0.3 0.1,-0.3 0.1,-0.2 0,-0.1 0,-0.3 0,-0.5 -0.1,-0.3 -0.2,-0.3 -0.2,-0.3 -0.2,-0.2 -0.4,-0.3 -0.3,-0.2 -0.3,-0.2 -0.2,-0.2 -0.1,-0.2 -0.2,-0.3 -0.2,-0.3 -0.1,-0.3 0,-0.3 0,-0.3 0,-0.4 -0.1,-0.2 -0.1,-0.2 -0.1,-0.2 -0.2,-0.4 -0.3,-0.4 -0.2,-0.1 -0.2,-0.2 -0.3,-0.2 -0.3,-0.2 -0.4,-0.3 -0.2,-0.2 -0.2,-0.2 -0.1,-0.2 -0.1,-0.2 -0.1,-0.3 0,-0.2 0.1,-0.4 0.1,-0.4 0.1,-0.4 0,-0.2 0.1,-0.3 0,-0.3 -0.2,-0.2 -0.2,-0.3 -0.1,-0.1 -0.2,-0.2 -0.4,-0.2 -0.3,-0.1 -0.3,0 -0.5,0 -0.4,0 -0.4,0.1 -0.3,0.1 -0.2,0.2 -0.1,0.2 0.1,0.3 0.1,0.3 0.1,0.3 -0.1,0.3 -0.1,0.1 -0.1,0.2 -0.1,0.1 -0.2,0.1 -0.4,0.2 -0.4,0 -0.5,0 -0.3,0.1 -0.2,-0.1 -0.4,0 -0.4,-0.2 -0.4,-0.2 -0.4,-0.2 -0.2,-0.1 -0.3,-0.2 -0.2,-0.2 -0.2,-0.3 -0.2,-0.2 -0.1,-0.2 -0.1,-0.2 -0.1,-0.3 -0.2,-0.3 -0.1,-0.1 -0.1,-0.2 -0.2,-0.3 -0.4,-0.4 -0.3,-0.2 -0.4,-0.5 -0.3,-0.4 -0.2,-0.2 -0.4,-0.3 -0.3,-0.2 -0.3,-0.2 -0.3,0 -0.5,0.1 -0.2,0.1 -0.3,0.1 -0.5,0.1 -0.3,0 -0.3,-0.1 -0.2,-0.1 -0.3,-0.3 -0.4,-0.2 -0.2,-0.1 -0.3,-0.3 -0.3,-0.2 -0.3,-0.3 -0.2,-0.3 -0.1,-0.2 -0.2,-0.3 -0.2,-0.2 0,-0.1 -0.1,-0.2 0,-0.3 0.1,-0.2 0.1,-0.3 0.2,-0.2 0.2,-0.3 0.2,-0.1 0.1,-0.2 0.2,-0.1 0.3,-0.1 0.2,-0.1 0.1,0 0.2,-0.1 0.2,-0.1 0.3,0 0.3,-0.1 0.2,-0.2 0.1,-0.1 0,-0.1 0.1,-0.2 0,0.3 -0.1,-0.3 -0.2,-0.2 -0.2,-0.1 -0.2,-0.2 -0.5,-0.2 -0.3,-0.2 -0.2,-0.2 -0.2,-0.2 -0.2,-0.2 -0.1,-0.1 -0.1,-0.2 -0.1,-0.4 0,-0.3 0,-0.3 0.2,-0.2 0,-0.1 0,-0.4 -0.2,-0.1 0.1,-0.4 0.2,-0.5 0,-0.7 0,-0.1 0.2,-0.3 -0.1,-0.1 0,-0.1 -0.1,-0.2 -0.1,-0.2 -0.1,-0.1 -0.1,-0.2 -0.1,-0.4 -0.2,-0.4 -0.1,-0.3 -0.3,0.1 -0.4,0.1 -0.2,0 -0.2,0 -0.2,-0.1 -0.1,-0.1 -0.1,-0.1 -0.3,-0.2 -0.2,-0.2 -0.2,-0.1 -0.3,-0.2 -0.4,-0.1 -0.4,0 -0.1,0 -0.5,0 -0.2,0 -0.2,-0.1 -0.3,-0.1 -0.3,-0.1 -0.4,-0.1 -0.4,-0.1 -0.2,-0.2 -0.2,-0.1 -0.2,-0.2 -0.2,-0.2 -0.2,-0.2 -0.3,-0.3 -0.2,-0.2 -0.2,-0.3 -0.2,-0.3 -0.2,-0.3 -0.1,-0.2 -0.2,-0.1 -0.2,-0.2 -0.1,-0.1 -0.3,-0.2 -0.1,-0.1 -0.1,-0.1 -0.1,-0.2 0,-0.2 0,-0.1 -0.2,-0.3 -0.2,0.4 -0.6,-0.6 -0.5,-0.3 -0.3,-0.2 -0.3,-0.2 -0.1,0 -0.3,0 -0.1,0 -0.1,-0.1 -0.2,-0.1 -0.2,-0.1 -0.4,-0.1 -0.4,-0.2 -0.4,-0.3 -0.3,-0.3 -0.3,-0.4 -0.3,-0.4 -0.2,-0.4 -0.1,-0.5 -0.2,-0.6 -0.1,-0.2 -0.1,-0.3 -0.1,-0.3 -0.1,-0.5 0,-0.9 -0.1,-0.3 -0.1,-0.3 -0.1,-0.2 0,-0.4 0,-0.4 0.1,-0.2 0.1,-0.3 0.1,-0.2 0.1,-0.2 0.1,-0.3 0,-0.4 0,-0.4 -0.1,-0.2 -0.2,-0.5 -0.3,-0.6 -0.3,-0.6 -0.2,-0.3 -0.2,-0.3 -0.1,-0.2 -0.2,-0.3 -0.1,-0.3 -0.1,-0.4 0,-0.4 0.1,-0.5 -0.1,-0.3 0,-0.5 -0.2,-0.3 -0.4,-0.3 -0.2,0 -0.2,0.1 -0.1,-0.1 0.4,0 -0.1,-0.1 -0.2,-0.2 -0.2,-0.2 -0.3,0.2 -0.4,0.3 -0.1,0.1 -0.4,0.4 -0.6,0.5 -0.6,0.6 -0.4,0.2 -0.5,0.1 -0.5,0 -0.6,0 -0.3,0.2 -0.2,0.3 -0.1,0.2 0,0.4 -0.1,0.1 -0.1,0.2 -0.2,0.2 -0.2,0.3 -0.1,0.1 -0.2,0.3 -0.1,0.2 -0.2,0.3 -0.3,0.4 -0.3,0.3 -0.3,0.4 -0.2,0.2 -0.3,0.4 -0.1,0.2 -0.1,0.3 -0.1,0.3 -0.2,0.3 -0.3,0.3 -0.1,0.1 -0.1,0.1 -0.1,0.1 -0.2,0.1 -0.3,0.1 -0.5,0 -0.2,0 -0.2,-0.1 -0.2,0 -0.3,0 0.1,0 -0.5,0 -0.5,0 -0.6,-0.1 -0.2,0 -0.5,-0.1 -0.5,-0.1 -0.5,-0.1 -0.3,-0.1 -0.7,-0.2 -0.8,-0.2 -0.5,-0.2 -0.5,-0.2 -0.6,-0.3 -0.4,-0.2 -0.5,-0.2 -0.4,-0.1 -0.3,-0.2 -0.4,-0.3 -0.2,-0.2 -0.2,-0.3 -0.2,-0.4 -0.2,-0.3 -0.2,-0.3 -0.2,-0.3 -0.3,-0.4 -0.1,-0.2 -0.2,-0.2 -0.2,-0.1 -0.2,-0.1 -0.3,-0.2 -0.2,-0.1 -0.2,-0.1 -0.2,-0.1 -0.2,-0.1 -0.2,-0.1 -0.1,-0.1 -0.1,-0.1 -0.1,-0.1 -0.1,-0.1 -0.1,-0.2 -0.1,-0.1 -0.2,-0.2 -0.1,-0.2 -0.1,-0.1 -0.2,-0.3 -0.1,-0.1 -0.1,-0.1 -0.1,-0.2 -0.2,-0.2 -0.1,-0.1 -0.2,-0.3 -0.1,-0.1 -0.1,-0.3 -0.1,-0.1 -0.1,-0.1 -0.1,-0.4 -0.1,-0.3 -0.1,-0.2 -0.2,-0.3 -0.3,-0.3 -0.3,-0.2 -0.2,-0.1 -0.2,-0.1 -0.3,-0.2 -0.2,-0.1 -0.2,-0.1 -0.2,-0.1 -0.3,-0.1 -0.3,-0.2 -0.3,-0.3 -0.1,-0.2 -0.3,-0.3 -0.2,-0.3 -0.3,-0.2 -0.1,0 -0.5,-0.2 -0.4,-0.2 -0.3,-0.1 -0.4,0 -0.4,0 -0.5,0 -0.6,-0.3 -0.1,-0.1 0.3,-2.2 4.5,-29.7 0.1,-0.1 10.7,-69.8 6.6,-43.3 2.5,-17.1 7.3,-47.8 3.5,-22.7 0.8,-1.1 1.3,-1.2 2.2,-2 1.2,-1.1 0.4,-1.1 0.1,-0.8 -0.2,-0.7 -0.2,-0.9 -0.9,-1.5 -1.3,-2.4 -1.6,-2.6 -0.5,-1.5 -0.4,-2.9 -0.5,-3.2 -0.3,-2.6 -0.1,-2.5 -0.1,-0.9 0.1,-2.9 1.5,-13.6 0.3,-2.3 0.6,-6.2 0.5,-3.5 0.2,-3.3 0.1,-0.2 -2.6,-11.5 -0.6,-0.6 -0.4,-0.2 -0.4,-0.2 -0.5,-0.2 -0.2,-0.2 -0.1,-0.4 -0.1,-0.3 0.1,-0.4 -0.1,-0.2 -0.2,-0.2 -0.3,-0.1 -0.2,-0.7 -0.4,-0.6 -1.8,-2.8 -0.2,-0.5 -0.3,-0.9 -0.3,-0.7 -0.3,-0.6 -0.3,-0.5 -0.4,-0.4 -0.5,-0.4 -0.9,-0.7 -0.8,-0.9 -1.7,-1.7 -0.4,-0.4 -0.3,-0.3 -0.4,-0.4 -0.5,-0.3 -0.3,-0.2 -0.4,-0.2 -0.6,-0.3 -1,-0.4 -0.4,-0.2 -0.2,-0.2 -0.2,-0.3 -0.2,-0.4 -0.5,-0.6 -0.2,-0.4 -0.3,-0.2 -0.3,-0.2 -0.4,-0.2 -0.4,-0.1 -0.4,-0.1 -0.6,-0.2 -1,-0.3 -0.6,-0.2 -0.6,-0.3 -0.8,-0.2 -0.4,0 -0.5,-0.1 -0.5,-0.1 -1.1,-0.4 -0.8,-0.2 -0.8,-0.2 -0.5,-0.2 -0.3,-0.1 -0.9,0 -1.4,0 -0.5,0 -0.5,0.1 -0.3,0.2 -0.3,0.4 -0.5,0.5 -0.5,-0.6 -0.6,-0.6 -0.9,-1 -0.2,-0.3 -1.8,-1.7 -2.4,-1.7 -0.8,-0.5 -3,-2 -2.1,-1.5 -1.4,-1.7 -1.4,-1.6 -1.1,-1 -1.6,-1.5 -0.5,-0.5 -0.8,-1 -0.3,0.2 -13.7,5.1 -5.8,12.3 -3,6.4 -3.9,8.2 -5.7,12.1 -1.2,2.5 -12.6,26.7 -12,25.5 -1.7,0.9 -2.8,1.3 -1,0.4 -0.8,0.3 -1.2,0.4 -2.6,0.7 -2.7,0.5 -3,0.6 -4.2,0.6 -2,0.1 -3.2,0.1 -3.1,0.1 -1.2,-0.1 -2.1,-0.3 -1.2,-0.1 -2.3,-0.3 -1.7,-0.2 -1.3,-0.1 -1.6,0.2 -1.7,0.6 -1.6,0.9 -2.9,2 -3.6,2.3 -3.2,2.2 -2.6,1.8 -2.8,1 -2.1,0.9 -2,0.3 -0.3,0.9 -1.2,-0.6 -1.8,-0.7 -2.2,-1 -2,-0.6 -1.8,-0.5 -1.9,-0.2 -1.4,0 -2.8,0 -2.4,0.2 -1.6,0.1 -2.5,0.1 -2.9,-0.1 -1.9,-0.2 -0.4,-0.1 -2.5,-0.4 -0.4,-0.9 -0.6,-0.7 -0.8,-0.8 -0.6,-0.6 -0.8,-0.5 -0.8,-0.4 -0.9,-0.3 -0.8,-0.2 -0.8,-0.2 -0.8,-0.2 -0.7,-0.3 -0.9,-0.4 -1.1,-0.5 -0.9,-0.5 -0.7,-0.3 -0.9,-0.4 -1.1,-0.4 -1.1,-0.5 -0.9,-0.3 -0.6,-0.2 -1.4,-0.6 -1,-0.4 -0.9,-0.2 -0.1,0 -1.4,-0.4 -1,-0.4 -0.5,-0.6 -0.8,-0.9 -1,-1.6 -0.5,-0.6 L 11,555.1 9.5,553.7 8.2,552.5 6.3,550.7 5.2,551.1 -3,520.8 18.8,438.2 31.4,391 32,388.5 41.9,343 l 0.4,-0.8 0.6,-1.4 0.3,-1 0.1,-0.3 0.3,-0.4 0.1,-0.2 -0.1,-0.6 0.2,-0.2 0.4,-2.5 0.3,-1.2 0.2,-0.2 0.6,-1.2 1.7,-1.9 0.3,-0.8 0.7,-1 0.6,-1.1 0.4,-1.4 0.6,-1.6 0.1,-2 0,-0.1 0.1,-1.4 1.1,-0.9 1.1,-2.1 0.3,-1.4 0.9,-1.1 0.2,-0.9 0.1,-1.5 -0.4,-1.5 -0.1,-1.6 0.9,-2.6 0.9,-2.9 0.1,-2.6 -0.2,-2.1 -0.1,-1.4 0.1,-0.6 1,-0.9 0.3,-1 0,-2.2 -0.6,-1.2 -0.5,-1.5 -0.1,-0.6 -0.2,-2.1 0.2,-1.3 0.4,-2 0.5,-1.5 0.5,-1.4 0.2,-0.3 0.2,-0.5 0.3,-0.2 2.1,-1.5 0.3,-0.1 0.3,0 0.3,-0.1 0.7,0 0.6,-0.1 0.3,-0.2 0.3,-0.4 0.1,-2.6 0.2,-0.5 2.2,-3.9 1.3,-2.4 2.5,-3.6 1.1,-2.2 1.9,-1.9 3,-1.5 1.8,-0.3 0.7,-0.3 0.9,-0.6 0.6,-0.2 0.1,-0.6 0.3,-1.1 0.1,-0.6 0.2,-0.5 0.6,-0.8 0.8,-0.8 0.4,-0.6 0.4,-0.6 0.4,-0.5 0.5,-0.8 0.4,-0.8 0.3,-0.6 0.3,-0.5 0.1,-0.3 0.1,-0.1 0.2,-0.6 0.2,-0.5 0.6,-1 0.4,-0.5 0.2,-0.3 0.3,-0.3 0.1,-0.2 0.1,-0.2 -0.1,-0.3 -0.1,-0.3 0.1,-0.5 0.3,-0.4 0.5,-0.2 0.2,-0.1 0.8,-0.2 0.8,0 0.4,-0.1 0.2,-0.1 0,-0.5 -0.1,-0.2 0,-0.8 0,-0.3 0.3,-0.6 0.6,-0.6 0.6,-0.3 0.7,-0.6 0.7,-0.9 1.1,-1 0,-1 -0.1,-0.3 -0.1,-1.1 0,-0.2 0.2,-0.2 0.1,-0.2 0.3,-0.3 0.3,-0.1 0.3,-0.1 0.4,-0.1 0.2,-0.1 0.2,-0.1 0.2,-0.1 0.3,-0.1 0.2,-0.4 0.2,-1 0.1,-0.5 0.1,-0.2 0.6,-0.6 0.6,-0.4 0.5,-0.4 0.4,-0.4 0.5,-0.8 0.5,-0.8 0.4,-0.3 0.9,-0.8 0.5,-1.1 0.4,-0.9 0.4,-0.8 0.9,-1.2 1,-0.8 0.5,-0.4 0.6,-1 0.6,-1.4 0.7,-1.1 1.6,-2.1 1.9,-2.4 0.7,-1.4 0.1,-1.1 -0.4,-1.4 0.1,-0.8 0.5,-0.9 0.5,-0.8 0.8,-0.6 0.9,-0.3 1,-0.8 0.3,-0.6 0.1,-0.5 -0.4,-0.3 -0.3,-0.4 -0.3,-0.2 -0.1,-0.2 -0.1,-0.6 0.1,-0.5 0.1,-0.3 -0.2,-0.4 -0.2,-0.3 0.1,-0.9 0.1,-0.6 -0.1,-0.4 0.1,-0.5 0.3,-0.5 0.4,-0.1 0.4,-0.3 0.1,-0.5 -0.2,-0.2 -0.4,-0.2 -0.3,-0.5 -0.4,-0.6 -0.1,-0.3 -0.2,-0.9 -0.2,-0.3 0.1,-0.4 0.3,-0.5 0.5,-0.4 0.4,-0.1 0.6,-0.3 0,-0.5 0.1,-0.4 0.2,-0.3 0.4,-0.4 0.8,-0.1 0.9,-0.4 0.4,-0.8 0.4,-0.6 1,-0.7 0.4,-0.6 0.2,-0.8 0.2,-1.1 0.3,-0.7 0.3,-0.9 0.2,-0.6 0.1,-0.4 0.1,-0.6 0.1,-0.4 0.1,-0.4 0.5,-0.9 0.4,-0.7 0.2,-0.8 0,-0.5 -0.7,-0.5 -0.5,-0.2 -0.2,-0.3 9.3,1.3 3.2,0.4 6.1,0.8 0,1.3 -0.1,0.5 -0.1,0.6 -0.2,0.8 -0.4,1 -0.6,1 5.5,1.9 5.5,1.9 4.2,1.7 4.3,1.6 0.6,-1.2 0.8,-0.9 0.7,-0.5 1,-1.1 0.1,-0.9 0.4,-0.6 0.9,-0.6 0.9,-0.4 1.9,-0.6 0.5,-0.5 1.5,-0.5 0.3,-0.1 0.4,-0.2 0.1,-0.4 0,-0.6 0.7,-0.4 1,-0.5 0.7,-0.5 0.3,-0.4 0.1,-0.6 0.1,-0.3 0.6,-0.5 1.1,-0.8 0.3,-0.4 0.3,-0.6 0.4,-0.3 0.8,-0.8 0.6,-0.5 0.8,-0.4 1.4,-0.9 0.9,-0.7 1.1,-0.5 0.5,-0.7 -0.2,-1.6 0.3,-0.6 0.6,-0.3 1.5,-0.6 1.2,-0.6 0.6,-0.5 0.7,-1 0.9,-0.8 0.4,-1.3 0.2,-1.1 1.3,-1.6 1,-1.1 0.9,-0.8 0.4,-0.9 0,-0.1 0,-0.7 0,-0.4 0.4,-0.4 0.4,-0.2 0.3,0 0.7,0.2 0.3,0 2.2,-0.7 0.6,0 1.1,0.1 1.6,0.3 2.4,-0.6 1.8,-1 1.9,-0.7 0.6,-0.2 1.1,-0.2 0.4,-0.4 0.2,-0.4 0.2,-0.2 0.6,-0.2 0.6,-0.2 0.9,0.1 1.5,-0.2 1.5,0.3 1.8,0.5 1.4,-0.2 0.5,-0.2 0.1,-0.6 0.8,-0.8 0.2,-0.9 -0.1,-0.8 0.2,-1.2 0.3,-0.9 1.2,-1.5 1.8,-1 2.2,-1.5 0.3,-0.3 0.1,-0.1 0.6,-0.6 0.3,-0.7 0.3,-0.3 0.3,-0.3 0.1,-0.1 0.6,-0.6 0.4,-0.6 0.5,-0.8 0.1,-0.4 0.1,-0.5 -0.3,-0.6 0.1,-0.4 0.2,-0.4 0.6,-0.4 0.3,-0.3 0.2,-0.5 0.2,-0.1 0.2,0 0.5,-0.3 0.2,-0.2 0.3,-0.4 0.4,-1.5 0.9,-1 1.5,-0.8 3.1,-0.6 0.5,-0.4 0.6,-0.9 0.5,-0.9 0.2,-0.4 0.1,-0.3 0,-0.8 -0.1,-0.9 -0.4,-0.9 -0.2,-0.9 0.9,-0.5 82.4,-72.3 1.1,-0.6 1.1,-0.5 2.3,-0.2 1.8,0 3.1,0.6 3.6,-0.4 4.5,-1.4 1.6,-1.1 1.7,-2.2 1.4,-2.1 2.2,-1.2 2.9,-2 1.7,-0.5 1.5,-0.1 0.8,0.5 1.2,1.2 0.9,1.2 0.7,1.8 0.9,1.6 0.8,1.2 1.2,0.9 1.2,0.7 2.7,2.1 0.9,0.9 1.2,1 0.6,0.2 0.9,0.6 1.2,1.2 0.9,1 1.9,1.1 1.5,-0.6 1.6,-1 1.3,-1.9 0.8,-2.3 -0.3,-1.6 -0.9,-1.1 -0.7,-0.3 -0.8,-1.9 -1.4,-2.5 0,-4.2 0.3,-2 0.4,-1.9 0.3,-1.1 0.5,-1.1 0.7,-1.7 1.4,-0.8 2.4,-0.6 2.3,-0.4 2.4,0.4 1.8,1 1.4,0.8 1.8,1.8 1.7,1.7 1.3,1.5 1.7,0.8 1.2,1.2 0.8,1.3 0.5,1.2 -0.2,1 -0.5,1.4 -0.3,1.2 -0.4,0.7 -0.5,1.8 -0.4,1.7 -0.2,1.8 0.2,1.2 1,1.1 1.1,0.4 1.2,0.3 1,0.6 1,0.5 1,0.3 1.1,-0.1 1,-0.6 1.1,-0.7 0.5,-1 0.8,-0.8 0.9,-0.2 0.8,-0.9 0.3,-0.8 0.9,-1 0.1,-0.9 -0.3,-0.6 -0.4,-1 -0.9,-0.8 -1.2,-0.5 -1,-1 0.1,-1.1 0,-1 -0.4,-1.5 -0.3,-1.1 0.2,-1.9 0.2,-1.2 -0.2,-1.1 -0.1,-2.2 0.7,-1 1.2,-1 1,-0.8 1.1,-0.5 1.7,-0.8 0.5,-0.8 0.5,-1 0.5,-1.2 0.3,-1.4 0.8,-1.3 0.9,-1.8 1,-1.5 0.8,-1.4 0.9,-1.2 1.9,-0.9 2.4,-1.4 1.8,-0.8 0.8,-0.9 0.6,-0.9 0.4,-1.2 0.1,-1.1 0.1,-1.3 -0.4,-1.1 1.1,-3.3 0.9,-2.6 1.3,-1.7 1.2,-1.5 0.6,-1.1 0.8,-0.2 0.9,-0.9 1.1,-0.5 0.9,-0.1 0.7,0.1 0.7,-0.1 1.4,-0.5 1.1,0 1.4,0.3 z"
       inkscape:connector-curvature="0"
       class="DEP_02 ZON_01" /></g></svg>