<?xml version="1.0" encoding="UTF-8" standalone="no"?>
<!-- Generator: Adobe Illustrator 19.2.0, SVG Export Plug-In . SVG Version: 6.00 Build 0)  -->

<svg
   xmlns:dc="http://purl.org/dc/elements/1.1/"
   xmlns:cc="http://creativecommons.org/ns#"
   xmlns:rdf="http://www.w3.org/1999/02/22-rdf-syntax-ns#"
   xmlns:svg="http://www.w3.org/2000/svg"
   xmlns="http://www.w3.org/2000/svg"
   xmlns:sodipodi="http://sodipodi.sourceforge.net/DTD/sodipodi-0.dtd"
   xmlns:inkscape="http://www.inkscape.org/namespaces/inkscape"
   version="1.1"
   id="SvgMunicipio"
   x="0px"
   y="0px"
   viewBox="0 0 713.6 1000"
   style="enable-background:new 0 0 713.6 1000;"
   xml:space="preserve"
   inkscape:version="0.91 r13725"
   sodipodi:docname="MUN_ID0205.svg"><metadata
     id="metadata10"><rdf:RDF><cc:Work
         rdf:about=""><dc:format>image/svg+xml</dc:format><dc:type
           rdf:resource="http://purl.org/dc/dcmitype/StillImage" /></cc:Work></rdf:RDF></metadata><defs
     id="defs8" /><sodipodi:namedview
     pagecolor="#ffffff"
     bordercolor="#666666"
     borderopacity="1"
     objecttolerance="10"
     gridtolerance="10"
     guidetolerance="10"
     inkscape:pageopacity="0"
     inkscape:pageshadow="2"
     inkscape:window-width="1366"
     inkscape:window-height="705"
     id="namedview6"
     showgrid="false"
     inkscape:zoom="0.236"
     inkscape:cx="356.79999"
     inkscape:cy="500"
     inkscape:window-x="-8"
     inkscape:window-y="-8"
     inkscape:window-maximized="1"
     inkscape:current-layer="svg" /><g
     id="g3"><path
       id="MUN_0205"
       d="m 431.2,3.8 3.4,2 2.6,1.5 1.8,2.8 2.4,2.6 2.9,1.6 2.9,-0.1 4.1,0.7 2.7,-0.3 1.3,-0.6 1.6,-1.9 2.2,-0.7 2.8,-0.9 4.3,1.5 8.8,3.4 2.4,0.6 1.2,1.3 3.2,3.9 3.1,3.6 2.1,3.8 1.6,1.5 2.5,1.6 1.8,0.1 2.4,0.9 2.1,-0.4 1.8,-0.2 1.2,1.1 0.3,0.4 1,-0.9 0.8,-0.3 0.8,0.6 -0.3,1.2 0.4,0.7 1.1,-0.1 1.2,-0.1 0.8,1.6 1.3,1.7 1.8,2.4 -0.6,1.5 -0.2,3.4 0.3,2.6 1.2,-0.7 2.4,-0.1 2.8,0.3 1.5,-1.4 1.8,0 2.2,0.8 0,3.7 2.2,-0.2 1.9,-1.3 1.7,-0.2 2.4,-1.1 3.4,0.2 1.5,0.3 0.9,-1 1.3,-0.9 0.4,-0.1 1.1,-0.3 2.4,0.1 2.4,0.7 1.7,0.6 2.6,-0.1 1.8,-0.6 1.1,0.1 0.2,0 2.1,0 2.5,0.3 2.8,0.3 1.5,-0.2 0.9,0.4 1.8,-0.2 1.9,-0.1 2.4,-0.2 2.1,-0.1 0.8,0.6 0,1.3 0.2,1.3 0.7,1 0.8,0 0.8,0.6 1,0.9 0.6,0.8 0,0.9 -0.2,1.1 -0.2,1.3 57.2,215.8 3.1,11.9 81,111.4 -58.2,106.8 -0.6,1.2 -30.2,64.4 -4.3,10.5 0.1,0.2 1.3,10 7.2,31.6 0,2.6 -1.6,4.4 1,14.1 26.8,27.6 5,5.3 6.4,35.9 5,28.5 13.3,75.8 2.8,16.3 -24,23.3 -21.8,21 -6,0 -7.6,-0.3 -4.7,0.3 -6.2,0.9 -5.6,0.3 -9.1,-0.2 -0.3,3.4 -0.2,3 -0.2,2.9 -0.1,2.9 -0.1,4.6 0,0.9 -0.1,1.5 0,1.5 -0.1,1 -0.2,0.9 -0.1,4 -0.4,2.1 -0.4,2 -0.3,1 -0.1,0.9 -0.8,2.7 -0.8,2.6 -0.2,2.2 -0.3,2.1 0.3,2.8 -0.2,1.5 -0.1,1 -0.1,0.7 0.1,0.4 0.1,0.6 -0.2,0.6 -0.6,1 -0.1,4.6 -0.1,4.7 1.6,8.7 2.9,6.9 0.9,2.9 0.8,0.6 0.3,0.6 0.1,0.4 -0.3,0.7 -0.3,0.6 2.7,1.2 -2.8,1.2 -1.2,0.8 -1.1,3.2 -0.6,2 -1.1,1.3 -1,0.3 0.3,2.7 -1.9,8.8 -8.7,9.9 -9,10.1 -0.4,0.4 -0.1,0.1 -4.8,-1.6 -5.9,-0.6 -7.4,-0.1 -4.3,-0.1 -14.7,-1.8 -5,-0.3 -2.8,-0.6 -1.9,-0.7 -3.6,-2.2 -2.5,-1.5 -3.1,-2 -2.7,-1.3 -3.7,-1.3 -10.2,-1.7 -3.8,-0.7 -1.8,-0.2 -8.8,-2 -8.5,-1.9 -3.8,-1 -6,-2.1 -10.1,-4 -5.4,-1.9 -14.6,-5 -6.3,-2.8 -3,-1.2 -4,-1.5 -9.4,-3.2 -5.5,-2.1 -9.5,-4.3 -9.3,-3.5 -10,-2.2 -6.5,-1.2 -0.1,0 -0.9,0 -3.9,-0.4 -18.5,-3 -5.4,-0.6 -4.1,0 -2.4,0.2 -4.3,0.4 -2,0.2 -8.7,1.2 -5.3,0 -6.3,-0.3 -9,-1.1 -21.3,-3 -3.8,-0.7 -6.5,-1.6 -4.8,-1.2 -4.8,-1.6 -9.7,-3.4 -8.6,-3.1 -2,-0.8 -1.5,0.1 -2.4,0.9 -4.1,1.6 -1.9,0.6 -2.8,0.3 -4.3,0.8 -2.5,0 -2.9,0.1 -4,-0.7 -4,-1 -3.1,-1 -2.9,-0.8 -3.2,-1 -0.9,-0.2 -3.5,-0.8 -2.2,-0.3 -2.2,-0.2 -2.1,-0.1 -1.7,-0.1 -2.5,0.1 -1,-0.2 -2.5,-0.6 -1.8,-0.6 -1.7,-0.9 -3.6,-2.1 -1.9,-1.1 -2.6,-1.6 -1.8,-0.9 -2.4,-1.1 -2.7,-1.1 -1.7,-0.6 -3.4,-1.2 -4.6,-1.5 -4,-1.6 -2.7,-1.1 -1.7,-0.7 -2.7,-1.5 -2.1,-1 -1.9,-1 -3.1,-1.1 -3,-1.2 -4.3,-1.8 -1.7,-0.9 -2.5,-1.2 -1.9,-0.8 -2.1,-1.1 -1.6,-0.6 -1.6,-0.7 -1.7,-1 -1.5,-0.9 -1.3,-0.8 -1.2,-0.6 -1.5,-0.9 -1.5,-0.8 -1.2,-0.3 -2,-1 -1.9,-0.7 -2.2,-0.9 -1.8,-1.2 -1.8,-1.1 -1,-0.7 -1.3,-1.2 -1.7,-1 -1.7,-0.9 -1.9,-0.8 -1.7,-0.7 -1.9,-0.7 -1.5,-0.4 -1.5,-0.6 -1.6,-0.6 -1.7,-0.6 -2.6,-0.7 -2.8,-0.8 -2.7,-0.8 -3.8,-0.8 -2.1,-0.4 -2.7,-0.4 -1.8,-0.3 -1.3,-0.9 -1.7,-1 -1,-0.8 -1.2,0.9 -1.2,0.9 -1.5,0.2 -1,0.1 -0.8,-0.3 -0.4,-0.4 -0.6,-0.6 -0.6,-2.2 -0.4,-3 -0.4,-2.9 -0.3,-3.7 -0.3,-2.8 -0.2,-2 -0.1,-2.1 -0.3,-1.6 -0.4,-2 -0.2,-1.7 -0.4,-1.7 -0.2,-1.9 -0.2,-1.9 -0.2,-2 -0.4,-2 -0.1,-1.3 -0.3,-1.9 -0.1,-2 0,-1.9 0,-1.6 -0.1,-1.1 -0.3,-1.3 -0.4,-1.7 -0.4,-2.4 -0.4,-3.7 -0.7,-3.4 -0.4,-2.7 -0.4,-3.2 -0.3,-1.8 0,-1.2 0,-1.8 0,-1.5 0,-1.2 0.2,-1.6 0.2,-1.7 0.2,-1.5 0.3,-2.1 0.7,-2.1 0.4,-1.5 0.6,-1.9 0.4,-1.2 0.4,-1.7 0.2,-1.2 0.4,-1.5 1,-1.7 1,-1.8 0.4,-0.7 0.3,-0.9 0,-0.4 0.1,-0.9 -0.4,-1.9 -0.7,-2.9 -0.8,-3.4 -1,-3.9 -0.6,-2.5 -0.6,-2.1 -0.6,-2.4 -0.6,-3.2 -0.7,-2.8 -1,-3.4 -0.8,-1.7 -0.7,-1.5 -0.6,-1.3 -0.1,-0.1 -0.2,-0.4 -0.9,-0.7 -1.2,-0.6 -1,-0.6 -2,-0.6 -1.9,-0.6 -2.6,-0.8 -2.1,-0.6 -1.5,-0.3 -2.2,-0.4 -1.8,-0.3 -2.1,-0.4 -1.1,-0.2 -1.7,-0.1 -2.4,-0.2 -2.7,-0.3 -2.2,-0.4 -3,-0.6 -2.4,-0.4 -1.8,-0.4 -2,-0.4 -2.7,-0.5 -1.6,-0.3 -1.1,-1.2 -0.8,-1 -0.9,-0.9 -0.3,-0.8 -0.2,-1 0.2,-1 0.2,-1.1 0.2,-0.7 0,-0.9 0,-0.8 -0.3,-0.9 -0.4,-0.9 0.1,-0.6 0.1,-0.6 0,-1 0,-0.1 0.1,-0.6 0.7,-0.6 0.9,-0.8 0.4,-0.4 0.3,-0.3 0.4,-0.8 0.2,-0.7 0.7,-1.8 0.2,-2.1 0,-0.6 -2.5,-2.1 -0.6,-1.2 -0.4,-1.3 0.1,-1.3 0.4,-1.2 1.7,-0.6 2.5,0 1.9,0 2,-1.2 1.1,-0.9 0.7,-0.7 0.6,-1 0.3,0 4.6,-0.3 0.6,0.1 0.7,0 0.8,0.1 2.6,0.8 0.8,0 0.8,-0.2 1.8,-0.4 2.1,-0.7 0.9,0.1 1.8,0.3 1.3,-0.2 1.3,-0.1 1.2,-0.3 0.6,-0.1 1.7,-0.4 0.7,-0.2 0.3,-0.1 0.6,-0.1 1,-0.2 0.2,0 1.1,-0.4 0.7,-0.6 0.8,-1 0.3,-0.3 0.4,-0.1 1.2,-0.1 0.9,0 0.7,0 0.8,0 1.8,0 0.3,0.1 1.5,0.3 3,0.7 1.9,0.4 1,0.4 0.2,0.1 1.5,0.3 1.8,0.4 2.2,0.4 -1.1,-8.2 -1.1,-8.1 -0.1,-0.9 -1.6,-11.8 -0.1,-1.4 -0.3,-3 -0.7,-5.6 -0.4,-5.6 -0.8,-5.9 -1,-7.6 -0.9,-10.9 -0.1,-1.8 -0.4,-4.1 -0.4,-4.3 -0.6,-3.7 -0.2,-3.2 -0.1,-1.3 -0.1,-2.2 -0.2,-2.4 -0.6,-5.6 -0.2,-2.4 -0.2,-2.4 -0.1,-1 -0.2,-2.8 -0.3,-2.8 -0.6,-4.8 -0.2,-1.1 -0.3,-3.8 -0.6,-5.1 -0.2,-3 -0.2,-1.1 -0.2,-2 -0.3,-1.9 -0.3,-3.7 -0.3,-3 -0.4,-3.8 -0.3,-3.6 -0.8,-10.1 -0.6,-6.8 0.1,-4.4 0.7,-7.3 0.6,-7.3 0.6,-6.9 0.6,-6.9 0.4,-9.7 0.4,-9.5 0.7,-6.9 0.6,-6.8 0.7,-7.8 0.4,-4.5 0.3,-4.9 0.4,-4.8 0.7,-6 1.6,-14.9 1,-11 1.7,-15.6 1,-9.4 0.8,-6.7 0,-0.7 136.9,7.9 29.7,-42.8 8.3,-11.8 65.9,-94.5 0,0 -27,-15.7 -0.1,-0.2 -0.1,-0.3 0,0 0,-0.4 -0.1,-0.1 -2.4,-4.7 -0.8,-2.2 -0.9,-2.1 -1,-2.9 -0.7,-2.6 0,-0.4 0,-3.7 1.5,-4.6 0.8,-3.9 0.2,-4.8 0.6,-1.1 4.5,-4.1 2,1.5 3,0.4 4.1,-0.7 5.8,-2.8 3.6,-4 2.7,-1.6 3.2,-3.2 3.8,-3.1 5.1,-4.5 2.5,-2.5 3,-1.9 3.2,-2.7 2,-2 3,-1.6 3.4,-3 1.1,-2.6 0,-3 1.3,-1 2,-0.9 0.8,-0.1 0.7,-1 0.4,-0.9 0.8,-0.8 0.6,-1 1.2,-1.1 0.3,-1.3 -0.2,-4.8 0.3,-1.1 0.4,-0.8 0.4,-1.1 0,-1 -0.6,-1.6 -0.3,-3.8 0.3,-0.9 2.1,-0.7 1.3,-1 1.2,-2 0.1,-2.7 -1.2,-0.7 -0.1,-3.7 -1.9,-3.6 0.2,-2.2 1.6,-1.1 1.7,-2.4 0.4,-1.2 0.2,-2.8 0.6,-2.2 1.3,-2.1 1.8,-0.3 2.8,-1.2 2.8,-2.1 0.1,-1.5 0.7,-3.1 2.9,-3.1 0.3,-1 0.3,-0.9 0.7,-0.7 0.3,-0.7 0.2,-0.8 0.4,-0.6 0.2,-0.6 0.7,-0.8 0.7,-0.2 0.8,0.3 0.6,0.9 0.6,0.4 0.6,-0.4 0.7,0 1.1,0.4 1.2,0.6 0.4,0.2 0.8,0.1 0.7,0 0.8,-0.8 -0.3,-0.6 -0.9,-0.8 -0.3,-0.4 0.7,-0.3 0.4,0 0.8,0.7 0.3,0.7 0.2,1 0.6,0.3 2.4,-1.3 0.8,-0.6 0.7,-0.6 0,-0.3 0,-1.3 0.1,-0.6 0,-0.1 0,0 -0.1,-1.3 0,0 0.2,-0.7 0.3,-0.7 0.1,-0.7 -0.6,-2.6 0,0 0,-0.3 0.2,-0.6 1.8,-0.6 0.3,-0.7 0,-0.1 0,-0.8 -0.6,-0.8 -0.2,-0.7 0,0 0.1,-0.9 0.4,-0.8 1.2,-0.6 0.4,-0.4 0.6,-0.4 0.7,-0.9 0,-0.8 0,0 0,-0.7 0,0 0.1,-0.3 0.8,-0.3 0.6,-0.7 0.2,-1 0,-1 0.3,-0.8 1,-1.1 0.8,-0.7 0.7,-0.6 0.4,-0.1 0.6,0.3 0.1,1 0,0.6 0.3,0.3 0.6,0.1 0.1,-0.3 0.7,-0.3 0.9,-0.3 0.9,-0.2 0.6,0.2 0.8,0.6 0.6,0.3 0.4,0 0.3,-0.1 -0.1,-0.3 -0.3,-0.3 0.2,-0.7 -0.1,-2 0,0 0.3,-0.2 0.6,0 1,-0.6 0.6,-0.7 0.3,-0.6 0.6,-0.4 0.6,0.2 0.4,0.3 0,0.6 0,0.1 -0.3,0.7 -0.2,0.4 -0.6,0.2 -0.1,0.4 0,0 0.2,0.7 0.3,0.3 0.2,0.3 0.2,0.3 0.6,0.2 0.4,-0.2 0,-0.7 0,0 -0.2,-0.6 0,-0.1 0.1,-0.4 0.4,-0.8 0.6,-1 0,-0.1 0,-0.7 -0.4,-0.8 -0.7,-0.2 -0.1,-0.6 0,-0.1 0.3,-0.6 0.7,-0.8 0.3,-0.1 0.4,0.4 0.3,0.9 0.9,0.3 0.8,0 1,-0.8 0.7,-0.9 0.6,-0.9 0,0 -0.2,-0.7 -0.6,-0.2 -0.4,-0.1 -1.3,0.2 -0.6,-0.2 -0.3,-0.6 0,0 0.1,-0.6 1,-0.2 0.8,0 0.8,-0.4 0.3,-0.1 1.1,-0.8 0.3,-0.9 0.1,-0.7 0,0 -0.1,-0.2 -0.2,-0.3 -0.3,-0.3 -0.3,-0.1 -0.3,-0.2 0,0 0,0 0.4,-0.3 1,0 1.1,-0.4 1,-0.3 0.4,-0.6 0,-0.7 0.3,-4.4 1.5,-5.9 0.6,-3.1 1.2,-1.3 2,-0.6 1.3,-0.6 1.5,-1.7 0.8,-1.7 0,0 -1.5,-0.4 -0.6,-1 0,0 1,-2 0.4,-1.7 0,0 -0.1,-1 -1.2,0.7 0,-0.8 -0.6,-1.7 -0.6,-2 0,0 0.2,-1.1 2.4,-0.3 1.1,-2.8 1,-0.9 0.6,0.8 0.7,0.4 0.9,-0.9 1.5,0.8 1.5,-0.2 1.9,-1 4,-1.9 3,-2.2 1.5,0.8 3.1,1 2.9,1.8 z"
       inkscape:connector-curvature="0"
       class="DEP_02 ZON_01" /></g></svg>