<?xml version="1.0" encoding="UTF-8" standalone="no"?>
<!-- Generator: Adobe Illustrator 19.2.0, SVG Export Plug-In . SVG Version: 6.00 Build 0)  -->

<svg
   xmlns:dc="http://purl.org/dc/elements/1.1/"
   xmlns:cc="http://creativecommons.org/ns#"
   xmlns:rdf="http://www.w3.org/1999/02/22-rdf-syntax-ns#"
   xmlns:svg="http://www.w3.org/2000/svg"
   xmlns="http://www.w3.org/2000/svg"
   xmlns:sodipodi="http://sodipodi.sourceforge.net/DTD/sodipodi-0.dtd"
   xmlns:inkscape="http://www.inkscape.org/namespaces/inkscape"
   version="1.1"
   id="SvgMunicipio"
   x="0px"
   y="0px"
   viewBox="0 0 1000.1 849.4"
   style="enable-background:new 0 0 1000.1 849.4;"
   xml:space="preserve"
   inkscape:version="0.91 r13725"
   sodipodi:docname="MUN_ID0212.svg"><metadata
     id="metadata10"><rdf:RDF><cc:Work
         rdf:about=""><dc:format>image/svg+xml</dc:format><dc:type
           rdf:resource="http://purl.org/dc/dcmitype/StillImage" /></cc:Work></rdf:RDF></metadata><defs
     id="defs8" /><sodipodi:namedview
     pagecolor="#ffffff"
     bordercolor="#666666"
     borderopacity="1"
     objecttolerance="10"
     gridtolerance="10"
     guidetolerance="10"
     inkscape:pageopacity="0"
     inkscape:pageshadow="2"
     inkscape:window-width="1366"
     inkscape:window-height="705"
     id="namedview6"
     showgrid="false"
     inkscape:zoom="0.27784318"
     inkscape:cx="500.04999"
     inkscape:cy="424.70001"
     inkscape:window-x="-8"
     inkscape:window-y="-8"
     inkscape:window-maximized="1"
     inkscape:current-layer="svg" /><g
     id="g3"><path
       id="MUN_0212"
       d="m 738.8,32.8 16.9,44.6 0.8,2 24.9,65.8 0.1,0.1 49.4,130.8 9.6,25.4 24.9,65.5 10.4,27.6 24.9,66.3 11.1,29.2 3.1,25.3 7.6,64.9 18.9,162.4 -0.7,-0.3 -4.6,-0.9 -4.7,-1.1 -3.1,-1.1 -3.9,-0.5 -3,0 0,0 -1.1,2.2 -0.9,2.8 -3.2,2.4 -5.8,2.6 -2.6,0.5 -6.5,0.1 -5,0.1 -6.9,0 -3.8,-0.8 -2.3,-2.3 -1.8,-3.9 -2.4,-6.8 -2.8,-5.4 -3.4,-1.6 -5.4,-2.4 -4.2,-2.6 -4.6,-1.1 -2.2,-1.5 -0.5,-4.2 -1.1,-1.4 -0.8,-1.4 -3.5,-1.2 -10.9,0.8 -1.2,1.8 -0.4,3.8 -3,3.8 -2.8,1.1 -5.7,-0.5 -0.9,0.8 -0.8,4.7 -1.4,2 -2.7,1.2 -3.1,-0.7 -2.4,-6.2 -1.1,-2.6 -1.8,-1.5 -1.4,1.9 -2,4.2 -2.3,2 -2.4,-0.9 -3.4,-2 -2.4,1.5 -4.2,4.3 -4.1,8.8 -3.5,4.1 -3.9,0.5 -3.9,-2.7 0.9,-10 -0.8,-3.8 -2.6,-0.8 -10.1,2.7 -4.3,1.2 -5,2.8 -9.5,3.8 -4.2,1.6 -5.8,4.2 -7.6,-0.1 -1.6,4.1 -3.9,1.5 -1.8,1.9 0.1,2.8 1.6,3.8 -1.1,2.7 -10.9,6.6 -0.5,0.3 3.6,4.3 2.6,3.5 1.1,1.5 -2,2.3 -5.1,3.4 -5.1,2.8 -2.8,2.4 -1.8,5 -2.2,2.8 -2.6,1.4 -8.2,1.6 -1.9,1.5 -1.9,3.2 -0.5,3.1 -2.6,3.1 -4.2,2.4 -5.4,2 -3.1,1.4 -2,2.3 -1.2,3.9 -0.1,0.4 -0.5,1.2 -3.1,0.4 -3.1,2.2 -4.9,3.8 -8.9,4.7 -2.2,2.2 -1.8,4.9 -3.9,2.4 -4.1,0.7 -1.5,0.5 -0.9,0.3 -4.2,3.2 -0.9,-0.9 -1.5,-4.1 -1.8,-1.9 -2.2,0.4 -0.4,4.5 -3,0.1 -1.6,-1.8 -0.9,-3.8 -1.9,-1.8 -2.3,-0.9 -1.6,0.4 -1.5,1.6 -3.9,0.8 -4.7,-0.5 -6.5,-0.4 -5.8,0.3 L 584,839.4 494.8,812.2 355.6,769.9 211.7,726.1 135,613.2 l -2.4,-3.6 0.3,-2.2 -0.7,-3.5 -1.2,-8.1 -1.9,-8.2 -1.1,-10.6 -2.7,-9.2 -2,-6.6 -1.8,-4.2 -2.3,-5.1 1.2,-4.1 -0.5,-4.5 -5.3,-11.3 -0.9,-3 -1.1,-3.2 -1.8,-4.3 -0.5,-2.4 0.3,-3 1.4,-3.6 -1.1,-7.8 -1.4,-5.4 -0.4,-2.8 -0.5,-4.1 -1.5,-8.9 2.4,-6.2 -0.4,-6.6 -1.4,-3 -0.3,-1.8 0,-4.6 -0.1,-4.3 0.4,-1.6 0.5,-0.9 0.4,-0.7 0.4,-1.4 0,-1.1 -0.4,-1.6 -0.1,-2 0.5,-1.8 0.5,-2.7 -0.3,-1.5 -0.1,-1.1 -0.1,-3 0,-0.3 0.7,-3.5 -0.3,-2.6 0,-3.1 -0.5,-1.8 -6.5,-6.5 -1.5,-6.6 -6.2,-4.3 -8,-16.9 0.9,-4.7 3.8,-5.5 -0.9,-8.5 -2.7,-5.9 -4.9,-5.8 -5.5,-4.5 -3.4,-5.8 -5.3,-6.1 -2.4,-5.5 -11.2,-8.1 -13.4,-8.8 -9.7,-9.6 -10.9,-9.7 -4.5,-3 -6.9,0.4 -12.2,-0.5 -8.8,-0.7 -3,-2.6 -7.7,-8.8 -5.4,-2.3 -7.8,1.9 -6.4,-5 -4.1,-2.7 -8.2,-10.1 -5,-7.6 1.2,-13.5 19.2,-9.9 11.2,-6.2 2.4,-1.2 31.6,-16.6 15.7,-8.4 65.9,-36.3 12.7,-7.2 4.9,-2.6 0.5,-0.7 1.1,-0.3 6.9,-3.2 5.4,-3 16.8,-8.9 11.2,-6.1 4.3,-2.2 L 221.2,97 305,48.9 378.2,10.9 399.3,0 621,16.3 654,19 738.8,32.8 Z"
       inkscape:connector-curvature="0"
       class="DEP_02 ZON_01" /></g></svg>