<?xml version="1.0" encoding="UTF-8" standalone="no"?>
<!-- Generator: Adobe Illustrator 19.2.0, SVG Export Plug-In . SVG Version: 6.00 Build 0)  -->

<svg
   xmlns:dc="http://purl.org/dc/elements/1.1/"
   xmlns:cc="http://creativecommons.org/ns#"
   xmlns:rdf="http://www.w3.org/1999/02/22-rdf-syntax-ns#"
   xmlns:svg="http://www.w3.org/2000/svg"
   xmlns="http://www.w3.org/2000/svg"
   xmlns:sodipodi="http://sodipodi.sourceforge.net/DTD/sodipodi-0.dtd"
   xmlns:inkscape="http://www.inkscape.org/namespaces/inkscape"
   version="1.1"
   id="SvgMunicipio"
   x="0px"
   y="0px"
   viewBox="0 0 949 1000"
   style="enable-background:new 0 0 949 1000;"
   xml:space="preserve"
   inkscape:version="0.91 r13725"
   sodipodi:docname="MUN_ID0201.svg"><metadata
     id="metadata10"><rdf:RDF><cc:Work
         rdf:about=""><dc:format>image/svg+xml</dc:format><dc:type
           rdf:resource="http://purl.org/dc/dcmitype/StillImage" /></cc:Work></rdf:RDF></metadata><defs
     id="defs8" /><sodipodi:namedview
     pagecolor="#ffffff"
     bordercolor="#666666"
     borderopacity="1"
     objecttolerance="10"
     gridtolerance="10"
     guidetolerance="10"
     inkscape:pageopacity="0"
     inkscape:pageshadow="2"
     inkscape:window-width="1366"
     inkscape:window-height="705"
     id="namedview6"
     showgrid="false"
     inkscape:zoom="0.236"
     inkscape:cx="474.5"
     inkscape:cy="500"
     inkscape:window-x="-8"
     inkscape:window-y="-8"
     inkscape:window-maximized="1"
     inkscape:current-layer="svg" /><g
     id="g3"><path
       id="MUN_0201"
       d="m 280.6,19.8 3.7,2.9 4.6,-1.1 3.2,1.3 4.5,5.1 1.7,1.5 5.1,0.4 7.1,0.3 4,-0.2 2.6,1.7 6.4,5.7 5.7,5.6 7.8,5.1 6.5,4.7 1.4,3.2 3.1,3.5 2,3.4 3.2,2.6 2.8,3.4 1.6,3.5 0.6,5 -2.2,3.2 -0.6,2.8 4.6,9.9 3.6,2.5 0.9,3.9 3.8,3.8 0.3,1 0,1.8 0.2,1.5 -0.4,2 0,0.2 0.1,1.7 0.1,0.6 0.2,0.9 -0.3,1.6 -0.3,1 0.1,1.2 0.2,0.9 0,0.6 -0.2,0.8 -0.2,0.4 -0.3,0.6 -0.2,0.9 0.1,2.5 0,2.7 0.2,1 0.8,1.7 0.2,3.9 -1.4,3.6 0.9,5.2 0.3,2.4 0.2,1.7 0.8,3.2 0.6,4.6 -0.8,2.1 -0.2,1.7 0.3,1.4 1,2.5 0.6,1.9 0.6,1.7 3.1,6.6 0.3,2.6 -0.7,2.4 1.3,3 1,2.4 1.2,3.9 1.6,5.4 0.6,6.1 1.1,4.8 0.7,4.7 0.4,2 -0.2,1.3 1.4,2.1 44.7,66.1 83.9,25.5 81.2,24.7 52,15.8 1.7,1 3.4,-0.2 3.8,0.2 2.8,0.3 2.3,-0.5 0.9,-0.9 0.9,-0.2 1.3,0.6 1.1,1 0.6,2.2 0.9,1 1.7,-0.1 0.2,-2.6 1.3,-0.2 1,1.1 0.9,2.4 0.6,0.6 2.4,-1.9 0.6,-0.2 0.9,-0.3 2.4,-0.4 2.3,-1.4 1,-2.8 1.3,-1.3 5.2,-2.8 2.8,-2.2 1.8,-1.3 1.8,-0.2 0.3,-0.7 0.1,-0.2 0.7,-2.3 1.2,-1.3 1.8,-0.8 3.2,-1.2 2.4,-1.4 1.5,-1.8 0.3,-1.8 1.1,-1.9 1.1,-0.9 4.8,-0.9 1.5,-0.8 1.3,-1.7 1,-2.9 1.7,-1.4 3,-1.7 3,-2 1.2,-1.3 -0.6,-0.9 -1.5,-2 -2.1,-2.5 0.3,-0.2 6.4,-3.9 0.6,-1.6 -0.9,-2.2 -0.1,-1.7 1,-1.1 2.3,-0.9 0.9,-2.4 4.4,0.1 3.4,-2.4 2.4,-0.9 5.5,-2.2 2.9,-1.7 2.5,-0.7 5.9,-1.6 1.5,0.5 0.5,2.2 -0.6,5.8 2.3,1.6 2.3,-0.3 2,-2.4 2.4,-5.1 2.4,-2.5 1.4,-0.9 2,1.2 1.4,0.6 1.3,-1.2 1.2,-2.4 0.8,-1.1 1,0.9 0.6,1.5 1.4,3.6 1.8,0.4 1.6,-0.7 0.8,-1.2 0.5,-2.8 0.6,-0.5 3.3,0.3 1.7,-0.6 1.7,-2.2 0.2,-2.2 0.7,-1 6.4,-0.5 2,0.7 0.5,0.8 0.6,0.8 0.3,2.4 1.3,0.9 2.7,0.6 2.4,1.5 3.2,1.4 2,0.9 1.7,3.2 1.4,3.9 1,2.3 1.3,1.3 2.2,0.5 4,0 2.9,-0.1 3.8,-0.1 1.5,-0.3 3.4,-1.5 1.9,-1.4 0.6,-1.7 0.6,-1.3 0,0 1.7,0 2.3,0.3 1.8,0.6 2.8,0.6 2.7,0.6 0.4,0.2 2.1,0.6 2.1,0.5 0.2,1.2 -0.1,2 -0.7,1.8 -2.6,3.5 -6.5,0.6 -6.8,3.4 -7.1,2.2 -5.8,2.1 -1.9,1.3 -1.9,5 0,5.6 1.8,3.7 2.4,2.2 1.8,2.5 0,3.9 -1.7,2.3 -5,1.7 -4.5,-0.2 -2.3,-2.3 -1.5,-3.5 -1.7,-3.6 -2.7,-3.8 -1.7,-0.9 -3.2,1.4 -3.2,3.9 -1.8,8 1.4,9.5 2.6,5.2 3.3,1.3 0.9,1.3 1.4,5.3 0,4.3 -3,4.1 1,4.4 4,3.9 0.6,3 -4,8.6 -1.7,3.9 1.2,6.9 1,5.4 -1.3,6.7 -2.6,5 1.4,5 4.3,3.5 4.7,1 2.8,0.9 3.8,1.9 0.9,2.3 -1.9,5.1 -7.3,8 -7.3,7.3 -0.1,0.1 -4.7,6.3 -1.2,2.4 1.9,2 2.1,0.2 3.8,0.2 0.9,1 0.4,2 -1.7,9.9 0.2,2.7 -2,2.5 0.9,3 2.8,2.8 7.4,2.8 2.6,3.2 -0.2,2 -0.6,4.1 -2.5,6.9 -2.7,5 -3.2,4.5 -3.8,3.4 -1.7,4.5 -0.9,2.5 2.9,5 3.6,3.7 1.5,1.5 2.3,0.7 0,7.3 0,2.7 -1.3,3.8 -3.9,5 -1.4,3 -1.1,3.2 1,0.8 1.2,0.1 0.9,0.9 -1,2 -4.1,3.4 -5.4,3.2 -7.6,21.4 -2,5.3 210.5,-46.9 -32.5,86.7 -0.1,-0.2 -2.8,0.9 -2.6,0.8 0.4,1.7 0.6,1.8 0.6,1.3 0.7,1.3 0.6,1.1 0.2,0.2 0.1,2 0.2,2 0.9,0.6 0.5,0.4 0,0.6 -0.1,0.3 -0.3,0.5 -0.2,0.5 -0.2,0.5 -0.4,1.5 -0.5,2.1 -0.1,1.2 -0.1,1.2 0,1 -0.3,0.9 -0.5,1.2 -0.4,1.6 -0.3,1.2 -0.3,1 -1.3,2 -0.9,1.6 -0.9,1.6 -0.4,1 -0.3,0.9 -0.2,1 -0.4,1 -0.6,1.5 -0.7,1.4 -0.5,1.2 -0.5,1.6 -0.5,1.4 -0.1,2.4 0.1,0.7 -0.2,0.7 -0.2,0.6 -0.3,0.7 -1.7,2.9 -0.2,0.3 -0.4,1.9 -0.3,1.3 -0.3,1.5 -0.4,2.1 -0.6,2 0,0.2 -0.5,1.3 -0.6,1.3 -0.5,1.3 -0.6,1.2 0,0.3 0.1,1.2 -0.2,1.7 -0.2,1.6 -0.1,0.9 -0.1,0.5 -0.1,0.6 0,1.3 -0.1,1.3 -0.2,1.2 -0.6,1.3 -0.8,1.9 -1,1.5 -0.8,1.7 0.2,1.7 0.2,1.7 -0.5,0.7 -2,3.5 -3.2,3.3 -0.7,1.3 -0.9,2.3 -1.3,3.5 -1.3,3.5 -2.2,6.1 -0.5,0.8 -0.5,3.5 -0.7,2.3 -0.3,1.7 -0.2,0.9 -0.2,1.7 -0.4,2 -0.2,1.4 -1,4.3 -2.8,-0.2 -2.7,-0.1 -1.1,0 -0.8,0.1 -0.9,0.1 -1.5,0.2 -1.3,0.2 -1.3,0.1 -1.4,0.2 -0.2,0 -0.9,0 -0.6,-0.1 -0.7,-0.1 -1.4,0 -1.7,-0.2 -1.1,0 -1.2,-0.1 -2.4,0 -0.5,-0.1 -1.3,-0.1 -0.9,-0.1 -2.2,-0.3 -0.7,0.1 -0.8,0 -0.7,0.1 -0.8,0 -1.8,-0.2 -1.8,-0.2 -1.7,-0.2 -1.7,-0.2 -4.1,-0.2 -3.5,-0.2 -2.8,0 -2.8,-0.1 -0.5,0 -2.8,-0.7 -3.2,-0.9 -2.5,-0.6 -2.2,-0.5 -2.2,-0.4 -2.4,-0.4 -2.4,-0.4 -2.4,-0.2 -2.4,-0.4 -2.3,-0.2 -2.3,-0.2 -0.2,-0.1 -4.3,-0.9 -4.2,-0.8 -1,4.1 -1.2,2.4 -1.2,1.7 -2.8,1.4 -2.1,1.7 -1.7,2 0,2.9 0.2,2.2 1.3,1.9 1.8,1.8 0.9,1.6 0.5,2 -0.2,2 -1.1,4.8 -0.6,3.1 0,1.7 -1.4,3.7 -1.2,1.8 -3.2,1.7 -1.9,1.5 -2,1.6 -1.8,4.4 -32.8,83.6 -69.7,52.2 -75.2,56.3 -57.1,-78.4 -2.2,-8.4 -40.3,-152 0.2,-0.9 0.2,-0.8 0,-0.6 -0.4,-0.6 -0.7,-0.6 -0.6,-0.4 -0.6,0 -0.5,-0.7 -0.2,-0.9 0,-0.9 -0.6,-0.4 -1.5,0.1 -1.7,0.2 -1.3,0.1 -1.3,0.2 -0.6,-0.3 -1,0.2 -2,-0.2 -1.7,-0.2 -1.3,0 -0.2,0 -0.8,-0.6 -1.3,0.4 -1.8,0.1 -1.2,-0.4 -1.7,-0.5 -1.7,-0.1 -0.8,0.2 -0.3,0.1 -0.9,0.6 -0.6,0.7 -1,-0.2 -2.4,-0.2 -1.7,0.8 -1.2,0.2 -1.3,0.9 -1.6,0.2 0,-2.6 -1.6,-0.6 -1.3,0 -1,0.6 -2,-0.2 -1.7,0.1 -0.9,0.5 -0.2,-1.8 0.2,-2.4 0.4,-1 -1.3,-1.7 -0.9,-1.2 -0.6,-1.1 -0.9,0.1 -0.8,0.1 -0.3,-0.5 0.2,-0.9 -0.6,-0.4 -0.6,0.2 -0.7,0.6 -0.2,-0.3 -0.9,-0.8 -1.3,0.2 -1.5,0.3 -1.7,-0.6 -1.3,-0.1 -1.7,-1.1 -1.1,-1 -1.5,-2.7 -2.2,-2.5 -2.3,-2.8 -0.9,-0.9 -1.7,-0.4 -6.2,-2.4 -3,-1 -2,0.6 -1.6,0.5 -1.1,1.3 -0.9,0.4 -1.9,0.2 -2.9,-0.5 -2,0.1 -2,-1.1 -1.7,-1.8 -1.3,-2 -1.8,-1 -2.4,-1.4 -2,-1.4 -2.2,-0.7 -1,-0.6 -2.1,1.6 -2.8,1.3 -1.3,0.7 -1,0.2 -1,-0.6 -0.6,0.6 -0.5,-0.3 -0.4,-0.6 -0.7,0.6 -0.8,2 -1.7,0.2 -0.2,0.8 0,0 0.4,1.4 0.4,1.2 0,0.6 0.9,-0.5 0.1,0.7 0,0 -0.3,1.2 -0.7,1.4 0,0 0.4,0.7 1,0.3 0,0 -0.6,1.2 -1,1.2 -0.9,0.4 -1.4,0.4 -0.9,0.9 -0.4,2.2 -1,4.2 -0.2,3.1 0,0.5 -0.3,0.4 -0.7,0.2 -0.8,0.3 -0.7,0 -0.3,0.2 0,0 0,0.2 0.2,0.2 0.2,0.1 0.2,0.2 0.2,0.2 0.1,0.2 0,0 -0.1,0.5 -0.2,0.6 -0.8,0.6 -0.2,0.1 -0.6,0.3 -0.6,0 -0.7,0.2 -0.1,0.4 0,0 0.2,0.4 0.4,0.2 0.9,-0.2 0.3,0.1 0.4,0.2 0.2,0.5 0,0 -0.4,0.6 -0.5,0.6 -0.7,0.6 -0.6,0 -0.6,-0.2 -0.2,-0.6 -0.3,-0.3 -0.2,0.1 -0.5,0.6 -0.2,0.4 0,0.1 0.1,0.4 0.5,0.2 0.3,0.6 0,0.5 0,0.1 -0.4,0.7 -0.3,0.6 -0.1,0.3 0,0.1 0.2,0.4 0,0 0,0.5 -0.3,0.2 -0.4,-0.2 -0.2,-0.2 -0.2,-0.2 -0.2,-0.2 -0.2,-0.5 0,0 0.1,-0.3 0.4,-0.2 0.2,-0.3 0.2,-0.5 0,-0.1 0,-0.6 -0.3,-0.2 -0.4,-0.2 -0.4,0.3 -0.2,0.4 -0.4,0.5 -0.7,0.4 -0.4,0 -0.2,0.2 0,0 0.1,1.4 -0.2,0.5 0.2,0.2 0.1,0.2 -0.2,0.1 0,0 -0.4,-0.2 -0.6,-0.4 -0.4,-0.2 -0.6,0.2 -0.6,0.2 -0.5,0.2 -0.1,0.2 -0.4,-0.1 -0.2,-0.2 0,-0.4 -0.1,-0.7 -0.4,-0.2 -0.3,0.1 -0.5,0.4 -0.6,0.5 -0.7,0.8 -0.2,0.6 0,0.7 -0.2,0.7 -0.4,0.5 -0.6,0.2 -0.1,0.2 0,0 0,0.5 0,0 0,0.6 -0.5,0.6 -0.4,0.3 -0.3,0.3 -0.9,0.4 -0.3,0.6 -0.1,0.6 0,0 0.2,0.5 0.4,0.6 0,0.6 0,0.1 -0.2,0.5 -1.3,0.4 -0.2,0.4 0,0.2 0,0 0.4,1.8 -0.1,0.5 -0.2,0.5 -0.2,0.5 0,0 0.1,0.9 0,0 0,0.1 -0.1,0.4 0,0.9 0,0.2 -0.5,0.4 -0.6,0.4 -1.7,0.9 -0.4,-0.2 -0.2,-0.7 -0.2,-0.5 -0.6,-0.5 -0.3,0 -0.5,0.2 0.2,0.3 0.6,0.6 0.2,0.4 -0.6,0.6 -0.5,0 -0.6,-0.1 -0.3,-0.2 -0.9,-0.4 -0.8,-0.3 -0.5,0 -0.4,0.3 -0.4,-0.3 -0.4,-0.6 -0.6,-0.2 -0.5,0.2 -0.5,0.6 -0.2,0.4 -0.3,0.4 -0.2,0.6 -0.2,0.5 -0.5,0.5 -0.2,0.6 -0.2,0.7 -2,2.2 -0.5,2.2 -0.1,1 -2,1.5 -2,0.9 -1.3,0.2 -0.9,1.5 -0.4,1.6 -0.2,2 -0.3,0.9 -1.2,1.7 -1.1,0.8 -0.2,1.6 1.3,2.5 0.1,2.6 0.9,0.5 -0.1,1.9 -0.9,1.4 -0.9,0.7 -1.5,0.5 -0.2,0.6 0.2,2.7 0.4,1.1 0,0.7 -0.3,0.8 -0.3,0.6 -0.2,0.8 0.2,3.4 -0.2,0.9 -0.9,0.8 -0.4,0.7 -0.6,0.6 -0.3,0.6 -0.5,0.7 -0.6,0.1 -1.4,0.6 -0.9,0.7 0,2.1 -0.8,1.8 -2.4,2.1 -2.1,1.1 -1.4,1.4 -2.3,1.9 -2.1,1.3 -1.7,1.7 -3.6,3.2 -2.7,2.2 -2.3,2.3 -1.9,1.1 -2.5,2.8 -4.1,2 -2.9,0.5 -2.1,-0.3 -1.4,-1 -3.2,2.9 -0.4,0.8 -0.2,3.4 -0.6,2.8 -1,3.2 0,2.6 0,0.1 0.5,1.8 0.7,2 0.6,1.5 0.6,1.6 1.7,3.3 0.1,0.1 0,0.3 0,0 0.1,0.2 0.1,0.2 19,11 0,0 -46.4,66.5 -5.8,8.3 -20.9,30.1 -50.7,-50.1 -6,-6 L 157.4,876 210.2,780.5 169.7,633 153,535.5 l -1.9,-11 -7.7,-45.2 2,-1.7 0.3,-2.4 0,-2.3 -0.3,-2 -0.7,-1.8 1.6,-10.2 2.5,-1.5 1.4,-1.1 3.2,-3.8 2,-3.1 0.3,-2.4 2.3,-3.5 1.5,-2.8 1.3,-2.4 2.8,-3 1.7,-2 1.2,-4.2 0.3,-5.3 -1.2,-4.7 -3.4,-3.2 -1.6,-2 -2,-3.6 2.1,-5.8 1.5,-2.6 -27,-16.4 -82,-50.1 29.4,-119.8 39.1,-35.6 15.8,-14.4 44.9,-37.5 29.1,-24.2 23.4,-22.1 6.7,-16.8 24,-59.7 2,-3.5 3.6,-1.7 -0.7,7.9 2.9,4.4 4.8,5.9 2.4,1.5 z"
       inkscape:connector-curvature="0"
       class="DEP_02 ZON_01" /></g></svg>