<?xml version="1.0" encoding="UTF-8" standalone="no"?>
<!-- Generator: Adobe Illustrator 16.0.0, SVG Export Plug-In . SVG Version: 6.00 Build 0)  -->

<svg
   xmlns:dc="http://purl.org/dc/elements/1.1/"
   xmlns:cc="http://creativecommons.org/ns#"
   xmlns:rdf="http://www.w3.org/1999/02/22-rdf-syntax-ns#"
   xmlns:svg="http://www.w3.org/2000/svg"
   xmlns="http://www.w3.org/2000/svg"
   xmlns:sodipodi="http://sodipodi.sourceforge.net/DTD/sodipodi-0.dtd"
   xmlns:inkscape="http://www.inkscape.org/namespaces/inkscape"
   version="1.1"
   id="SvgMunicipio"
   x="0px"
   y="0px"
   width="499.033px"
   height="1000.061px"
   viewBox="64.76 118.082 499.033 1000.061"
   enable-background="new 64.76 118.082 499.033 1000.061"
   xml:space="preserve"
   inkscape:version="0.91 r13725"
   sodipodi:docname="MUN_ID0817.svg"><metadata
     id="metadata10"><rdf:RDF><cc:Work
         rdf:about=""><dc:format>image/svg+xml</dc:format><dc:type
           rdf:resource="http://purl.org/dc/dcmitype/StillImage" /></cc:Work></rdf:RDF></metadata><defs
     id="defs8" /><sodipodi:namedview
     pagecolor="#ffffff"
     bordercolor="#666666"
     borderopacity="1"
     objecttolerance="10"
     gridtolerance="10"
     guidetolerance="10"
     inkscape:pageopacity="0"
     inkscape:pageshadow="2"
     inkscape:window-width="682"
     inkscape:window-height="480"
     id="namedview6"
     showgrid="false"
     inkscape:zoom="0.23598561"
     inkscape:cx="249.51649"
     inkscape:cy="500.03049"
     inkscape:window-x="0"
     inkscape:window-y="0"
     inkscape:window-maximized="0"
     inkscape:current-layer="svg" /><g
     id="g3"><path
       id="MUN_0817"
       d="m 528.88,128.912 34.913,22.8 -0.428,1.14 0,0.57 -0.285,0.428 -0.285,0.57 -0.428,0.428 -0.427,0.427 -2.851,2.708 -0.712,0.998 -0.285,0.428 -1.282,1.853 -0.713,0.997 -0.285,0.428 -0.285,0.143 -0.57,0.427 -3.989,2.422 -1.71,1.71 -1.141,0.855 -3.277,2.137 0.143,0.57 0.285,0.428 0.285,0.57 0.143,0.57 0,0.285 0,1.14 0,0.57 -0.143,0.57 -0.143,0.57 -0.285,0.428 -0.57,0.998 -1.853,3.563 -0.427,1.425 -0.285,0.855 -0.143,0.57 -0.428,1.14 -3.135,7.837 -0.284,0.994 -0.285,0.998 -0.854,1.995 -0.57,1.567 -0.285,0.998 -0.285,1.14 -0.427,1.14 -0.428,0.998 -0.713,1.283 -0.143,0.427 0,0.57 -0.143,0.57 -0.142,1.567 0,0.712 -0.143,1.14 -0.285,0.855 -0.285,1.14 -0.143,0.57 -0.143,0.57 -0.285,0.428 -0.285,0.427 -0.569,0.855 -1.141,1.283 -0.712,0.712 -0.713,0.712 -0.428,0.285 -1.994,0.998 -1.283,0.855 -1.425,0.57 -1.567,0.57 -0.997,0.427 -5.843,1.853 -1.14,0.428 -4.703,2.708 -1.853,0.997 -3.848,2.565 -0.569,0.57 -0.143,0.57 -0.143,0.57 -0.143,1.14 0,0.57 0,2.137 0,0.998 0,0.57 -0.143,0.57 0,0.57 -0.285,0.57 -0.569,0.854 -0.285,0.57 -0.57,0.855 -0.285,0.998 -0.285,0.57 -0.997,1.995 -0.57,1.567 -0.143,0.57 -0.285,0.428 -0.284,0.285 -0.428,0.427 -0.57,0.285 -0.428,0.285 -0.427,0.285 -0.57,0.143 -0.57,0.143 -0.854,0.143 -0.57,0.143 -0.428,0.427 -0.712,0.712 -0.428,0.428 -0.57,0.998 -0.427,0.427 -0.285,0.428 -2.138,0.712 -0.855,0 -1.14,0.143 -0.57,0 -0.569,0.143 -0.57,0.142 -0.428,0.285 -5.415,3.705 -0.712,0.57 -0.428,0.428 -0.57,0.855 -0.569,0.855 -0.855,1.282 -0.428,0.57 -0.284,0.427 -1.995,5.558 -0.143,0.998 -0.285,0.57 -0.143,0.285 -0.855,1.567 -0.569,0.998 0,0.427 -0.428,1.425 -0.57,2.85 -0.143,0.57 -0.143,0.57 -1.282,3.278 -0.285,0.57 -0.854,1.567 -0.143,0.57 -0.285,1.567 -0.285,0.57 -0.285,1.14 -0.284,0.998 -0.428,1.567 -0.57,1.425 -2.138,5.558 -0.143,0.855 -0.997,1.425 -0.57,0.57 -0.427,0.998 -0.143,0.142 -0.855,0.855 -1.14,1.14 -0.285,0.428 -0.57,0.998 -0.427,1.853 -1.995,2.422 -1.141,1.282 -0.569,0.285 -1.71,1.425 -0.428,0.428 -0.285,0.285 -0.428,0.285 -0.997,1.425 -0.713,0.855 -0.428,0.427 -0.854,0.428 -0.428,0.285 -0.997,0.428 -0.57,0.285 -1.567,1.425 0,0.712 0,0.428 0,0.57 -0.285,0.57 -0.285,0.428 -0.285,0.712 -0.284,0.57 -0.143,0.57 -0.143,0.57 0,0.712 0,0.713 -0.143,0.57 -0.143,0.285 -0.57,0.427 -0.428,0.428 -0.427,0.427 -0.57,0.428 -0.428,0.427 -0.143,0 0,0.57 -0.143,0.57 -0.427,0.285 -0.713,0.285 -0.428,0.428 -0.427,0.57 0,0.428 0.142,0.57 0.428,0.428 0.428,0.427 0.428,0.57 0.285,0.57 0.143,0.57 -0.143,0.428 -0.428,0.427 -0.713,0.285 -0.569,0.143 -0.57,0.143 -0.713,0.142 -0.569,0.143 -0.428,0.285 -0.285,0.57 0,0.712 0.143,0.57 0.428,0.57 0.427,0.285 0.57,0.143 0.713,0.285 0.427,0.285 0.713,0.143 0.428,0.57 0.428,0.428 0.284,0.712 0,0.57 -0.142,0.57 -0.285,0.712 -0.285,0.57 -0.143,0.57 -0.285,0.57 -0.285,0.57 -0.285,0.57 -0.284,0.57 0,0.712 0,0.712 0,0.712 0,0.428 0,0.712 0,0.712 0,0.713 0,0.712 -0.143,0.427 0,0.713 0,0.712 0,0.712 0.143,0.712 0,0.428 0,0.712 0,0.57 -0.285,0.57 -0.428,0.57 -0.57,0.427 -0.427,0.428 -0.285,0.57 -0.285,0.428 -0.428,0.57 -0.428,0.57 -0.427,0.57 -0.428,0.427 -0.143,0.57 -0.428,0.427 -0.285,0.57 -0.285,0.712 -0.427,0.427 -0.285,0.428 -0.428,0.57 -0.428,0.428 -0.427,0.57 -0.57,0.428 -0.428,0.285 -0.569,0.428 -0.57,0.285 -0.57,0.428 -0.285,0.427 -0.427,0.57 -0.285,0.57 -0.285,0.57 -0.143,0.712 0,0.427 0,0.712 0.143,0.713 0.285,0.57 0.285,0.57 0.569,0.428 0.285,0.427 0.428,0.428 0.57,0.427 0.427,0.57 0.285,0.57 0,0.712 0,0.57 -0.285,0.57 -0.285,0.57 -0.427,0.428 -0.713,0.427 -0.428,0.285 -0.569,0.143 -0.713,0.427 -0.428,0.285 -0.285,0.428 -0.427,0.57 -0.285,0.428 -0.143,0.57 0,0.143 -0.143,0.57 0,0.57 0.143,0.57 0.285,0.712 0.143,0.57 0.285,0.712 0.284,0.57 0.285,0.427 0.428,0.428 0.428,0.57 0.285,0.57 0.427,0.57 0.285,0.57 0,0.57 0.285,0.712 0.143,0.57 0.143,0.712 0.143,0.57 0.143,0.57 0.143,0.712 0,0.712 0.143,0.57 0,0.712 0,0.57 0,0.713 0.142,0.569 0.285,0.713 0.143,0.57 0.143,0.569 0,0.57 -0.285,0.713 -0.143,0.569 -0.143,0.713 -0.142,0.713 -0.285,0.427 -0.285,0.713 -0.285,0.428 -0.285,0.569 -0.428,0.57 -0.427,0.57 -0.428,0.285 -0.285,0.712 -0.143,0.57 -0.143,0.712 0,0.713 0,0.57 0,0.569 0,0.713 0,0.713 0,0.712 0,0.57 0.143,0.712 0,0.713 0.143,0.713 0,0.569 0.143,0.57 0,0.713 0,0.569 0,0.713 -0.143,0.57 0,0.712 0.143,0.57 0,0.712 0,0.713 0,0.57 -0.285,0.569 -0.428,0.285 -0.427,0.428 -0.713,0.285 -0.57,0 -0.569,0 -0.713,-0.143 -0.713,0 -0.569,-0.143 -0.57,0.143 -0.285,0.285 -0.285,0.569 0,0.713 0.285,0.57 0.143,0.569 0.143,0.57 -0.143,0.57 -0.285,0.427 -0.427,0.285 -0.57,0.285 -0.713,0 -0.569,0.143 -0.57,0.285 -0.57,0.285 -0.569,0.427 -0.285,0.428 -0.285,0.57 0,0.57 -0.143,0.427 -0.57,0.57 -0.427,0.428 -0.143,0.428 0,0.712 0.143,0.713 0.284,0.569 0.143,0.713 0.428,0.428 0.285,0.569 0.143,0.713 0,0.713 0,0.569 -0.285,0.57 -0.57,0.285 -0.569,0.285 -0.57,0.285 -0.57,0.142 -0.712,0 -0.57,0 -0.713,-0.284 -0.712,-0.285 -0.428,-0.143 -0.713,-0.143 -0.712,0.143 -0.57,0.143 -0.569,0.285 -0.713,0.284 -0.57,0.285 -0.428,0.428 -0.569,0.428 -0.57,0.285 -0.428,0.427 -0.569,0.428 -0.285,0.285 -0.143,0.713 -0.143,0.712 0.143,0.57 0,0.712 0.143,0.428 0.285,0.713 0.285,0.569 0.284,0.57 0.285,0.428 0.57,0.57 0.143,0.569 0.285,0.57 0.284,0.57 0.143,0.712 0.143,0.713 0,0.569 -0.143,0.57 -0.427,0.57 -0.428,0.428 -0.713,0.284 -0.427,0.285 -0.57,0.285 -0.57,0.428 -0.57,0.285 -0.427,0.285 -0.713,0.142 -0.854,0.285 -0.57,0 -0.713,0 -0.712,0 -0.57,0.143 -0.57,0.143 -0.712,0 -0.57,0.143 -0.712,0.143 -0.713,0 -0.57,0.143 -0.569,0.143 -0.713,0.285 -0.57,0.143 -0.569,0 -0.57,-0.143 -0.285,-0.57 -0.285,-0.57 -0.427,-0.427 -0.57,-0.285 -0.57,-0.143 -0.57,0 -0.427,0.143 -0.428,0.427 -0.285,0.57 -0.428,0.57 -0.284,0.428 -0.57,0.143 -0.713,0 -0.428,-0.285 -0.569,-0.285 -0.713,-0.285 -0.569,-0.143 -0.285,0.428 -0.57,0.428 -0.57,0.427 -0.569,0.428 -0.428,0.285 -0.428,0.428 -0.285,0.427 0,0.713 0,0.713 -0.143,0.569 -0.284,0.57 -0.285,0.428 -0.285,0.569 -0.285,0.57 -0.428,0.57 -0.569,0.428 -0.285,0.569 -0.143,0.57 -0.143,0.57 0,0.712 0,0.713 0,0.712 0.143,0.57 0.285,0.428 0.285,0.569 0.427,0.713 0.285,0.57 0.285,0.569 0.143,0.57 0,0.57 -0.143,0.712 0,0.713 -0.143,0.57 -0.143,0.569 0,0.713 0,0.57 0.143,0.712 0.143,0.713 0.143,0.57 0.143,0.569 0,0.57 0.143,0.712 0.285,0.713 0.142,0.57 0.143,0.569 0.143,0.713 0.143,0.57 -0.143,0.285 -0.143,0.284 -0.427,0.285 -0.428,0.428 -0.428,0.428 -0.57,0.285 -0.569,0.427 -0.428,0.143 -0.285,-0.285 -0.428,-0.427 -0.427,-0.428 -0.285,-0.713 -0.285,-0.427 -0.57,-0.428 -0.427,-0.285 -0.57,0.143 -0.428,0.285 -0.285,0.427 -0.285,0.57 0,0.57 -0.142,0.712 -0.285,0.57 -0.285,0.57 -0.428,0.569 -0.285,0.57 -0.143,0.428 0,0.57 0.143,0.284 0.285,0 0.713,0.143 0.712,-0.143 0.428,-0.143 0.713,0.143 0.284,0.285 0.285,0.428 0,0.713 0.143,0.569 0.285,0.57 0.143,0.713 0,0.569 0,0.713 -0.143,0.569 0.143,0.57 0.143,0.57 0.143,0.712 0,0.713 -0.285,0.57 -0.285,0.569 -0.428,0.285 -0.427,0.57 -0.428,0.57 -0.143,0.712 0,0.57 0.143,0.712 0.143,0.428 0.285,0.713 0.284,0.569 0.285,0.57 0.143,0.57 0.428,0.569 0.285,0.428 0.57,0.285 0.569,0 0.57,0.143 0.57,0.285 0.569,0.428 0.428,0.427 0.285,0.57 0.428,0.57 0.142,0.427 0.143,0.713 -0.284,0.57 -0.285,0.143 -0.428,0 -0.713,0 -0.712,0 -0.428,0.285 -0.713,0.284 -0.427,0.57 -0.285,0.428 0,0.569 0.143,0.57 0.285,0.57 0.569,0.57 0.428,0.427 0.428,0.428 0.712,0.143 0.57,0.143 0,0.285 0,0.569 -0.285,0.57 -0.143,0.713 0,0.569 0.143,0.57 0.143,0.57 0.428,0.427 0.428,0.428 0.712,0.143 0.713,0 0.428,-0.143 0.569,-0.285 0.57,-0.427 0.713,-0.428 0.569,-0.285 0.57,-0.143 0.712,-0.143 0.428,0 0.428,0.143 0.428,0.428 0.285,0.57 0.143,0.712 0.142,0.57 0.143,0.712 0.428,0.285 0.57,0.285 0.569,0.143 0.57,0.143 0.57,0.143 0.285,0.285 0.285,0.712 0,0.57 -0.143,0.713 0,0.569 0.143,0.57 0.284,0.57 0.428,0.569 0.143,0.57 0.57,0.57 0.427,0.284 0.428,0.428 0.428,0.428 0.428,0.57 0.428,0.427 0.569,0.57 0.428,0.428 0.997,0.428 0.143,0.712 0.143,0.713 0.428,1.567 0,0.143 0,0.712 0.285,0.57 0,0.57 0,0.712 0,0.713 0.285,0.428 0.143,0.712 0.142,0.57 0.285,0.713 0.285,0.569 0.143,0.57 0,0.713 -0.285,0.427 -0.428,0.285 -0.569,0.285 -0.57,0 -0.712,0 -0.713,0.143 -0.285,0.428 -0.57,0.427 -0.427,0.428 -0.57,0.428 -0.285,0.57 -0.428,0.427 -0.569,0.57 -0.428,0.428 -0.428,0.569 -0.587,0.302 -0.57,0.285 -0.428,0.428 -0.428,0.428 -0.569,0.427 -0.57,0.428 -0.428,0.57 -0.285,0.57 0,0.569 -0.143,0.57 0,0.713 0,0.712 0,0.713 0.143,0.569 0,0.57 0,0.713 0.143,0.712 0.143,0.57 0,0.57 0,0.712 0.143,0.57 0.143,0.712 0.143,0.713 0.428,0.428 0.285,0.569 0.427,0.57 0.285,0.428 0.285,0.713 0,0.569 -0.285,0.428 -0.143,0.57 -0.428,0.569 -0.427,0.57 -0.285,0.428 -0.285,0.428 -0.143,0.284 -0.143,0.428 -0.143,0.713 0,0.712 0,0.57 -0.143,0.713 0,0.569 0,0.57 0,0.713 0,0.712 0.143,0.713 0,0.569 0.285,0.57 0.428,0.428 0.428,0.569 0.284,0.57 0,0.713 -0.142,0.569 -0.143,0.57 -0.285,0.428 -0.428,0.57 -0.285,0.569 -0.285,0.57 0,0.57 0.285,0.569 0,0.713 -0.285,0.712 -0.143,0.57 -0.427,0.428 -0.428,0.428 0,0.569 -0.143,0.713 0.285,0.57 0.285,0.712 0.143,0.57 0,0.57 0.143,0.569 0,0.713 0.142,0.712 0.143,0.57 0.143,0.428 0.285,0.712 0.143,0.713 0.143,0.57 0.143,0.712 0.285,0.57 0.143,0.57 0.284,0.569 0.285,0.713 0.143,0.57 0.285,0.569 -0.285,2.565 0,0.57 0,0.569 0,0.713 0,0.57 0,0.712 0,0.713 0.143,0.569 0.143,0.57 0.285,0.713 0.285,0.427 0.569,0.57 0.57,0.428 0.428,0.143 0.428,0.569 0.427,0.428 0.428,0.57 0,0.712 0,0.713 -0.285,0.428 -0.285,0.569 -0.284,0.713 -0.57,0.285 -0.428,0.285 -0.569,0.285 -0.713,0.143 -0.57,0.427 -0.285,0.57 -0.143,0.428 -0.142,0.712 0,0.57 0,0.713 0.284,0.569 0.285,0.57 0.285,0.428 0.57,0.427 0.712,0.285 0.57,0.143 0.57,0.143 0.712,0.143 0.428,0.285 0.57,0.285 0.569,0.428 0.57,0.427 0.285,0.428 0.428,0.57 0.285,0.569 0.569,0.428 0.57,0.428 0.428,0.285 0.569,0.427 0.428,0.285 0.285,0.57 0.285,0.713 0.143,0.427 0.569,0.57 0.57,0.428 0.428,0.285 0.285,0.427 0.284,0.713 0.143,0.57 0.285,0.712 0.285,0.57 0.57,0.428 0.427,0.285 0.143,0.569 0.285,0.57 0.285,0.712 0,0.57 -0.285,0.57 -0.285,0.428 -0.284,0.427 -0.57,0.285 -0.57,0 -0.569,-0.285 -0.143,-0.427 -0.285,-0.428 -0.285,-0.57 -0.428,-0.57 -0.57,-0.284 -0.427,-0.285 -0.57,-0.285 -0.57,0 -0.284,0.143 -0.428,0.57 -0.285,0.569 -0.428,0.428 -0.569,0.285 -0.57,0.285 -0.285,-0.143 -0.713,0 -0.712,0.143 -0.428,0.285 -0.285,0.569 -0.569,0.428 -0.428,0.143 -0.57,0.143 -0.712,0.143 -0.57,0.285 -0.57,0.427 -0.285,0.57 -0.427,0.285 -0.428,0.57 -0.285,0.569 -0.143,0.713 -0.428,0.428 -0.285,0.569 -0.569,0.285 -0.428,0.428 -0.285,0.712 -0.285,0.57 -0.285,0.428 -0.427,0.57 -0.285,0.569 -0.428,0.428 -0.428,0.57 -0.284,0.569 -0.428,0.428 -0.285,0.57 -0.428,0.569 -0.428,0.285 -0.427,0.57 -0.143,0.57 -0.428,0.569 -0.285,0.57 -0.285,0.57 -0.285,0.427 -0.427,0.57 -0.428,0.285 -0.285,0.428 0,0.569 0.143,0.57 0.428,0.428 0.285,0.285 0.427,0.569 0.285,0.57 -0.143,0.57 0,0.712 0.285,0.428 0.428,0.428 0.428,0.285 0.427,0 0.428,-0.143 0.57,-0.285 0.428,-0.57 0.284,-0.428 0.428,-0.569 0.428,-0.428 0.57,-0.57 0.427,-0.427 0.57,-0.143 0.57,-0.285 0.569,-0.285 0.57,0 0.57,0 0.712,0.143 0.57,0.143 0.428,0.428 0.285,0.427 0,0.713 -0.143,0.428 -0.428,0.427 -0.428,0.428 -0.569,0.285 -0.57,0.428 -0.713,0.143 -0.427,0.285 -0.428,0.427 -0.57,0.57 -0.285,0.57 -0.143,0.569 -0.143,0.713 0.143,0.428 0.143,0.712 0.285,0.428 0.428,0.428 0.57,0.428 0.427,0.284 0.713,0.285 0.57,0.143 0.569,0.285 0.57,0.143 0.57,0.285 0.284,0.427 0.143,0.57 0,0.57 -0.143,0.712 -0.284,0.57 -0.428,0.285 -0.57,0.143 -0.285,0.285 0,0.427 0.143,0.428 0.143,0.713 0,0.57 0,0.569 -0.143,0.428 -0.428,0.57 -0.427,0.427 -1.425,1.71 0.284,0.143 0.143,0.428 0.143,0.57 0.428,0.428 0.57,0.569 0.427,0.57 0.285,0.57 0.285,0.427 0.285,0.713 0.143,0.57 0,0.569 -0.428,0.57 -0.428,0.428 -0.569,0.285 -0.57,0.427 -0.428,0.428 -0.285,0.428 0,0.712 0,0.713 0.143,0.428 0.143,0.712 0.143,0.57 0.285,0.713 0.143,0.569 0.285,0.57 0.285,0.57 0.142,0.712 0.143,0.57 0.143,0.713 0.143,0.569 0.143,0.57 0.143,0.713 0.143,0.569 0.285,0.57 0.285,0.57 0.285,0.569 0.427,0.57 0.285,0.428 0.428,0.569 0.285,0.713 0.143,0.57 0.143,0.569 0,0.713 -0.143,0.712 -0.428,0.57 -0.428,0.57 -0.428,0.428 -0.569,0.284 -0.57,0.428 -0.428,0.285 -0.569,0.285 -0.57,0.428 -0.428,0.427 -0.428,0.57 -0.569,0.285 -0.428,0.285 -0.57,-0.143 -0.428,0.143 -0.427,0.285 -0.57,0.427 -0.428,0.57 -0.285,0.57 -0.284,0.569 -0.428,0.57 -0.57,0.428 -0.57,0.143 -0.427,0.285 -0.713,0.284 -0.712,0.143 -0.57,0 -0.713,0 -0.569,0 -0.57,0 -0.713,-0.143 -0.569,-0.284 -0.57,-0.285 -0.57,-0.285 -0.569,-0.285 -0.57,-0.285 -0.428,-0.428 -0.569,-0.427 -0.57,-0.285 -0.713,-0.428 -0.428,-0.285 -0.569,-0.428 -0.713,-0.142 -0.428,-0.143 -0.712,0 -0.713,-0.143 -0.569,0 -0.713,-0.143 -0.713,-0.143 -0.427,0.143 -0.713,0.143 -0.57,0.285 -0.285,0.569 -0.284,0.57 0,0.57 0,0.569 0.284,0.57 0.428,0.428 0.143,0.569 0.143,0.713 0,0.428 -0.285,0.569 -0.428,0.428 -0.284,0.428 -0.285,0.57 -0.143,0.712 -0.143,0.57 0,0.712 0.143,0.57 0.143,0.428 0.285,0.57 0.284,0.143 0.143,0.569 -0.143,0.713 -0.284,0.428 -0.428,0.427 -0.713,0.143 -0.569,0.143 -0.57,0.143 -0.713,0.143 -0.569,0.143 -0.57,0.285 -0.57,0.285 -0.569,0.284 -0.57,0.428 -0.285,0.428 -0.285,0.57 -0.285,0.569 0,0.57 0.143,0.713 0.143,0.712 0.285,0.57 0.285,0.57 0.143,0.569 0.285,0.57 0.285,0.712 0.427,0.57 0.285,0.57 0.428,0.428 0.285,0.569 0.428,0.57 0.427,0.428 0.428,0.569 0.428,0.57 0.285,0.57 0.284,0.285 0.428,0.569 0.428,0.57 0.57,0.57 0.143,0.569 0.284,0.57 0.285,0.428 0.143,0.569 0.143,0.428 -0.428,0.57 -0.427,0.428 -0.57,0.143 -0.57,0 -0.712,0 -0.57,-0.285 -0.57,-0.143 -0.712,-0.285 -0.428,-0.143 -0.713,-0.143 -0.712,-0.143 -0.57,-0.143 -0.713,-0.285 -0.569,-0.143 -0.57,-0.284 -0.57,-0.143 -0.712,-0.285 -0.57,-0.143 -0.57,0 -0.712,0 -0.713,0.143 -0.427,0 -0.57,0.428 -0.57,0.427 -0.428,0.285 -0.427,0.57 -0.428,0.57 -0.285,0.569 -0.143,0.57 0.143,0.57 0.285,0.569 0.285,0.57 0.143,0.713 0.143,0.712 0.142,0.428 -0.142,0.713 -0.285,0.569 -0.143,0.713 0,0.712 0.285,0.285 0.427,0.57 0.428,0.285 0.428,0.428 0.428,0.569 0.143,0.713 0.143,0.569 0.142,0.428 0.285,0.57 0.428,0.428 0.428,0.427 0.428,0.57 0.427,0.57 0.285,0.428 0.428,0.569 0.285,0.57 0.285,0.57 0.427,0.569 0.285,0.57 0.285,0.428 0.428,0.569 0.143,0.143 0.143,0.428 0.284,0.57 0.285,0.712 0.143,0.57 0.428,0.428 0,0.712 0.285,0.57 0.143,0.713 0.143,0.569 0,0.57 0,0.57 0,0.712 -0.285,0.428 -0.428,0.285 -0.713,0.143 -0.712,0 -0.428,0 -0.57,-0.428 -0.569,-0.428 -0.428,-0.569 -0.285,-0.428 -0.57,-0.285 -0.427,-0.57 -0.428,-0.427 -0.428,-0.713 -0.143,-0.428 -0.427,-0.57 -0.285,-0.569 -0.428,-0.428 -0.57,-0.57 -0.285,-0.427 -0.569,-0.428 -0.57,-0.285 -0.713,0 -0.569,0 -0.713,0.143 -0.57,0.428 -0.284,0.569 -0.428,0.428 -0.57,0.428 -0.428,0.285 -0.427,0.569 -0.143,0.57 -0.143,0.713 -0.285,0.569 -0.285,0.57 -0.428,0.428 -0.569,0.285 -0.428,0.569 -0.428,0.428 -0.569,0.57 -0.285,0.428 -0.285,0.569 -0.428,0.428 -0.285,0.713 -0.285,0.569 -0.142,0.713 -0.285,0.569 -0.285,0.428 -0.285,0.57 -0.285,0.57 -0.428,0.569 -0.427,0.428 -0.428,0.57 -0.428,0.427 -0.57,0.285 -0.569,0.285 -0.428,0.57 -0.285,0.712 -0.143,0.57 0,0.713 -0.285,0.427 -0.284,0.57 -0.57,0.428 -0.428,0.57 -0.57,0.284 -0.427,0.428 -0.57,0.285 -0.57,0.428 -0.427,0.285 -0.428,0.427 -0.57,0.57 -0.428,0.428 -0.427,0.569 -0.428,0.428 -0.428,0.713 -0.428,0.428 -0.284,0.569 -0.285,0.428 -0.428,0.57 -0.285,0.569 -0.285,0.713 -0.285,0.428 -0.427,0.569 0,0 -0.285,0.285 -0.143,0.713 0,0.712 0,0.57 0.285,0.57 0,0.712 0.285,0.57 0.143,0.713 0.427,0.569 0.285,0.428 0.143,0.713 0.285,0.569 0.143,0.713 0,0.713 0.285,0.427 0.143,0.428 0,0.428 -0.143,0.712 -0.428,0.57 -1.14,0.57 -3.563,3.135 -0.998,0.57 -0.57,0.143 -0.712,0.143 -0.428,0.142 -0.713,0.285 -0.569,0.285 -0.57,0.428 -0.285,0.57 0,0.427 0,0.713 0,0.428 0.143,0.712 0,0.713 0.285,0.57 0.143,0.712 0,0.428 0.143,0.713 0.285,0.712 0.143,0.57 0.284,0.569 0.428,0.285 0.428,0.285 0.57,0.285 0.143,0.428 0.284,0.712 0.285,0.57 0.285,0.57 0.285,0.569 0.428,0.285 0.285,0.57 0.142,0.712 0.285,0.57 0.428,0.57 0.143,0.57 0,0.569 0.143,0.713 0.143,0.285 0.57,0.284 0.427,0.57 0.428,0.428 0.285,0.57 0.285,0.427 0.569,0.285 0.428,0 0.57,-0.285 0.428,-0.143 0.569,-0.284 0.713,0 0.428,0 0.712,-0.143 0.713,0 0.569,0 0.57,0 0.713,-0.143 0.712,0 0.428,-0.143 0.713,-0.143 0.712,-0.143 0.285,0.285 0.428,0.428 0.285,0.427 0.285,0.57 0.284,0.57 0,0.712 -0.284,0.428 -0.285,0.57 -0.428,0.427 -0.428,0.428 -0.428,0.428 -0.569,0.428 -0.285,0.569 -0.428,0.57 -0.143,0.57 -0.143,0.569 -0.285,0.285 -0.569,0.143 -0.428,0 -0.713,-0.285 -0.284,0.143 -0.713,0.285 -0.57,0.143 -0.569,0.143 -0.713,0 -0.57,-0.143 -0.569,0 -0.713,0.143 -0.712,0 -0.428,0.143 -0.713,0.285 -0.569,0.143 -0.428,-0.143 -0.57,-0.285 -0.57,0 -0.712,0.285 -0.428,0.143 -0.57,0.284 -0.712,0.143 -0.57,0 -0.57,0.285 -0.712,0.143 -0.57,0.285 -0.285,0.285 -0.427,0.428 -0.428,0.569 -0.285,0.713 -0.143,0.57 0,0.569 0.285,0.428 0.428,0.428 0.569,0.428 0.285,0.142 0.713,0.143 0.712,0.143 0.57,0.285 0.57,0.143 0.712,0.285 0.57,0.285 0.57,0.285 0.569,0.142 0.57,0.428 0.428,0.285 0.569,0.428 0.428,0.569 0.428,0.428 0.285,0.57 0.143,0.57 0.143,0.569 0,0.713 0.143,0.57 0.142,0.712 0.143,0.57 0,0.712 0,0.57 0.143,0.57 0,0.712 0.143,0.57 0.285,0.713 0.143,0.569 0,0.57 0,0.713 -0.285,0.569 -0.285,0.57 -0.427,0.428 -0.285,0.569 -0.285,0.57 -0.57,0.428 -0.569,0.285 -0.713,0.143 -0.428,0.143 -0.712,0 -0.713,0.142 -0.57,-0.142 -0.569,-0.143 -0.713,-0.285 -0.428,-0.285 -0.569,-0.285 -0.57,-0.428 -0.57,-0.427 -0.428,-0.285 -0.569,-0.285 -0.428,-0.428 -0.57,-0.428 -0.285,-0.569 -0.427,-0.428 -0.57,-0.428 -0.428,-0.57 -0.285,-0.284 -0.569,-0.428 -0.428,-0.428 -0.713,-0.428 -0.427,-0.284 -0.57,-0.285 -0.713,-0.143 -0.569,-0.143 -0.57,0 -0.713,0.285 -0.427,0.285 -0.285,0.569 -0.143,0.713 0,0.569 0,0.57 0.143,0.713 0.143,0.569 0,0.713 0,0.57 0,0.569 0,0.713 0,0.713 0,0.569 0,0.713 0.143,0.428 0,0.143 0,0.569 0,0.713 0,0.712 0,0.57 0.285,0.57 0.142,0.569 0.428,0.57 0.428,0.428 0.57,0.285 0.427,0.143 0.713,0 0.713,0 0.427,-0.285 0.57,-0.285 0.57,-0.428 0.569,-0.428 0.57,-0.284 0.57,-0.143 0.712,-0.285 0.428,0 0.713,0.143 0.712,0 0.57,0.285 0.713,0.143 0.569,0.284 0.57,0.143 0.57,0.285 0.712,0.285 0.428,0.285 0.57,0.285 0.712,0.284 0.57,0.285 0.428,0.428 0.569,0.143 0.57,0.57 0.428,0.427 0.285,0.713 0.284,0.57 0.428,0.569 0.285,0.428 0.285,0.57 0.143,0.712 0.285,0.57 0,0.713 0,0.569 0.143,0.57 0,0.713 0,0.712 0,0.57 0.142,0.713 0,0.569 0.143,0.713 0,0.712 0,0.713 0,0.57 0,0.569 0,0.713 -0.143,0.713 -0.142,0.712 0,0.57 0,0.569 0,0.713 -0.143,0.713 0,0.569 0,0.713 0,0.57 0,0.712 0.143,0.713 0,0.569 0.142,0.713 0.285,0.428 0.428,0.428 0.57,0.569 0.285,0.428 0.284,0.57 0.285,0.712 0.143,0.428 0,0.713 0,0.712 -0.143,0.713 0,0.57 0.143,0.569 0,0.713 0,0.712 0.143,0.57 0.143,0.713 0.143,0.427 0.285,0.713 0.428,0.57 0.284,0.569 0.285,0.57 0.285,0.57 0.285,0.428 0.143,0.712 0,0.713 0.143,0.569 0,0.713 -0.143,0.57 -0.285,0.712 -0.428,0.428 -0.428,0.57 -0.427,0.427 -0.428,0.428 -0.713,0.285 -0.427,0.285 -0.57,0.143 -0.57,0.428 -0.712,0.284 -0.428,0.143 -0.713,0.143 -0.712,0 -0.428,0 -0.713,0.143 -0.569,0.285 -0.428,0.57 0,0.569 0,0.57 0,0.57 0.143,0.427 0.428,0.57 0.284,0.57 0.285,0.569 0.143,0.57 -0.143,0.57 -0.285,0.712 -0.284,0.57 0.143,0.428 0.284,0.57 0.285,0.427 0.713,0.57 0.285,0.428 0.569,0.285 0.57,0.569 0.57,0.285 0.427,0.428 0.57,0.285 0.57,0.427 0.285,0.428 0.142,0.428 0.285,0.57 0.285,0.569 0.57,0.428 0.57,0.428 0.427,0.428 0.428,0.284 0.57,0.428 0.427,0.57 0.143,0.428 0.143,0.712 0,0.57 0,0.57 0,0.712 0,0.57 0.285,0.712 0.285,0.57 0.285,0.428 0.285,0.57 0.427,0.569 0.143,0.713 0,0.57 -0.284,0.284 -0.57,0.428 -0.143,0.285 0,0.57 0.285,0.569 0.285,0.57 0.143,0.57 0.142,0.712 0,0.428 -0.142,0.713 -0.143,0.569 0.143,0.713 0.284,0.428 0.285,0.284 0.57,0.143 0.712,-0.143 0.57,-0.142 0.713,-0.143 0.569,-0.143 0.713,-0.143 0.57,-0.143 0.712,-0.143 0.713,0 0.57,-0.143 0.569,0 0.713,-0.143 0.57,-0.143 0.712,-0.143 0.57,-0.143 0.569,-0.143 0.713,-0.284 0.57,-0.143 0.569,-0.285 0.57,-0.143 0.713,-0.143 0.569,-0.143 0.713,-0.143 0.713,0 0.569,0 0.713,0 0.57,-0.143 0.569,0 0.713,0 0.712,0 0.428,-0.143 0.713,0 0.712,0.143 0.57,0.143 0.143,0.285 0.57,0.57 0.569,0 0.57,0 0.428,-0.285 0.712,-0.143 0.713,0 0.428,0 0.712,0 0.713,-0.143 0.428,0.143 0.712,0.143 0.57,-0.143 0.57,0 0.569,0.143 0.57,0.428 0.57,0.427 0.427,0.285 0.57,0 0.428,0.285 0.569,0.428 1.141,1.425 0.57,1.425 0.854,1.425 0.143,2.708 0.285,0.997 -0.285,0.998 -0.285,0.569 -0.428,0.285 -0.569,0.428 -0.285,0.428 0,0.285 0,0.712 -0.285,0.57 -0.428,0.57 -0.285,0.427 -0.427,0.57 0,0.428 0.143,0.712 0.284,0.428 0.285,0.57 0.428,0.428 0,0.427 -0.285,0.428 -0.285,0.428 -0.143,0.428 0,0.712 0.143,0.713 0,0.569 0,0.57 0,0.713 0,0.569 0.285,0.57 0.57,0.428 0.428,0.57 0.427,0.427 0.428,0.428 0.285,0.57 0.428,0.569 0.427,0.57 0.285,0.428 0.428,0.57 0.428,0.284 0.428,0.57 0.427,0.57 0.428,0.427 0.285,0.57 0.428,0.428 0.427,0.57 0.57,0.284 0.428,0.57 0.285,0.57 0.428,0.428 0.569,0.569 0.428,0.57 0.285,0.285 0.569,0.569 0.428,0.428 0.57,0.428 0.428,0.285 0.427,0.427 0.57,0.428 0.57,0.428 0.427,0.285 0.428,0.57 0.57,0.284 0.713,0.143 0.427,0.428 0.57,0.285 0.428,0.57 0.285,0.569 0.284,0.428 0.57,0.143 0.57,0.143 0.428,0.428 0.284,0.427 0,0.713 0,0.57 0,0.712 -0.143,0.428 -0.284,0.57 -0.57,0.569 -0.428,0.57 -0.428,0.428 -0.284,0.569 -0.428,0.428 -0.57,0.428 -0.428,0.428 -0.427,0.427 -0.57,0.428 -0.57,0.285 -0.712,0.143 -0.428,0.143 -0.713,0 -0.712,0.143 -0.428,0 -0.713,0 -0.712,0.143 -0.428,0.143 -0.713,0.285 -0.569,0.284 -0.428,0.143 -0.57,0.428 -0.569,0.428 -0.57,0.428 -0.428,0.427 -0.569,0.428 -0.428,0.57 -0.57,0.427 -0.285,0.285 -0.428,0.57 -0.427,0.428 -0.428,0.569 -0.57,0.428 -0.285,0.428 -0.427,0.57 -0.428,0.427 -0.428,0.57 -0.428,0.428 -0.427,0.428 -0.57,0.427 -0.57,0.428 -0.427,0.285 -0.57,0 -0.57,0 -0.57,0.285 -0.569,0.285 -0.428,0.427 -0.57,0.428 -0.569,0.428 -0.428,0.428 -0.57,0.427 -0.427,0.428 -0.428,0.428 -0.285,0.428 -0.428,0.569 -0.428,0.428 -0.427,0.57 -0.428,0.569 -0.285,0.57 -0.285,0.428 -0.285,0.57 -0.284,0.569 -0.285,0.713 -0.143,0.57 -0.143,0.569 -0.143,0.713 0,0.569 -0.143,0.713 0,0.713 -0.143,0.569 -0.143,0.57 -0.143,0.713 0,0.569 0.285,0.57 0.428,0.428 0.143,0.428 0.143,0.712 0.285,0.57 0.427,0.428 0.428,0.284 0.57,0 0.712,0 0.713,-0.284 0.285,-0.428 0.428,-0.428 0.427,-0.57 0.57,-0.284 0.428,0 0.427,-0.143 0.57,-0.428 0.57,-0.428 0.285,-0.143 0.569,-0.285 0.57,-0.427 0.57,-0.285 0.427,-0.285 0.713,-0.143 0.713,-0.285 0.569,-0.285 0.57,-0.143 0.713,-0.143 0.569,-0.142 0.57,-0.285 0.713,-0.285 0.569,-0.285 0.428,-0.285 0.713,-0.285 0.712,-0.285 0.428,0 0.713,-0.142 0.712,0 0.57,0.284 0.712,0 0.713,0.285 0.57,0.143 0.569,0.285 0.713,0.143 0.428,0.285 0.427,0.428 0.285,0.427 0,0.57 0.143,0.428 0.57,0.427 0.428,0.143 0.569,0.143 0.428,0.285 0.57,0.428 0.428,0.428 0.284,0.427 0.428,0.57 0.428,0.428 0.57,0.428 0.427,0.427 0.57,0.428 0.57,0.285 0.569,0.285 0.57,0.285 0.57,0.285 0.569,0.142 0.428,0.428 0.713,0.285 0.569,0.143 0.57,0.143 0.57,0.285 0.569,0.285 0.57,0.427 0.428,0.57 0.57,0.285 0.569,0.285 0.428,0.427 0.143,0.428 0,0.713 0,0.712 0,0.57 0,0.57 0,0.569 -0.143,0.57 -0.57,0.57 -0.569,0.285 -0.57,0.284 -0.57,0.285 -0.569,0.143 -0.713,0.143 -0.57,0.143 -0.569,0.285 -0.713,0.143 -0.57,0 -0.569,0 -0.713,0 -0.57,0 -0.712,-0.143 -0.57,0 -0.57,-0.143 -0.712,-0.143 -0.713,0.143 -0.427,0.285 -0.713,0.285 -0.428,0.427 -0.143,0.428 -0.428,0.57 -0.284,0.143 -0.428,0.427 -0.428,0.428 -0.143,0.428 0,0.713 0.285,0.569 0.285,0.57 0.285,0.57 0.143,0.427 0.143,0.713 0.142,0.57 0.143,0.712 0,0.713 -0.284,0.712 -0.285,0.285 -0.285,0.713 -0.143,0.57 0,0.712 0.285,0.713 0.285,0.285 0.712,0.284 0.57,0.428 0.428,0.285 0.427,0.57 0.428,0.427 0.57,0.285 0.712,0.285 0.428,0.143 0.713,0.285 0.57,0.143 0.569,0.143 0.713,0.143 0.569,0.143 0.57,0.284 0.713,0.143 0.569,0.143 0.57,0.143 0.713,0.285 0.569,0.285 0.57,0.285 0.428,0.285 0.428,0.569 0.427,0.57 0.428,0.428 0.285,0.569 0.143,0.57 0.285,0.57 0.427,0.569 0.143,0.57 0.285,0.57 0.143,0.712 0.143,0.713 0,0.57 0,0.712 0,0.57 0,0.57 0,0.712 0,0.713 0.143,0.569 0,0.57 0.143,0.713 0.143,0.569 0,0.713 0,0.713 -0.143,0.427 -0.143,0.713 -0.428,0.57 -0.428,0.569 -0.712,0.285 -0.428,0.143 -0.712,0 -0.713,0 -0.428,-0.143 -0.712,-0.285 -0.57,-0.428 -0.428,-0.427 -0.428,-0.285 -0.569,-0.428 -0.713,-0.428 -0.428,-0.143 -0.569,-0.142 -0.713,-0.143 -0.57,-0.143 -0.569,-0.143 -0.713,0 -0.713,0 -0.569,-0.143 -0.713,0 -0.569,0.143 -0.57,0 -0.57,0.143 -0.57,0.427 -0.427,0.428 -0.57,0.285 -0.713,0.285 -0.569,0.285 -0.57,0.143 -0.57,0.427 -0.569,0.285 -0.57,0.285 -0.57,0.285 -0.427,0.428 -0.57,0.285 -0.428,0.427 -0.569,0.428 -0.428,0.428 -0.57,0.428 -0.285,0.427 0,0.143 -0.427,0.428 -0.428,0.428 -0.428,0.569 -0.428,0.57 -0.143,0.57 -0.143,0.712 0,0.57 0.143,0.57 0.143,0.712 0.143,0.57 0.428,0.57 0.285,0.569 0.569,0.57 0.428,0.285 0.285,0.57 0.428,0.427 0.569,0.428 0.428,0.57 0.285,0.569 0.143,0.57 -0.143,0.713 0.143,0.569 0,0.713 0,0.57 0,0.143 0.285,0.569 0.143,0.57 0.428,0.57 0.427,0.427 0.285,0.143 -9.263,0.998 -4.417,0.427 -2.851,0.143 -3.135,0 -4.132,0.285 -4.418,-0.143 -4.845,-0.285 -4.561,-0.569 -6.412,-0.57 -3.42,-0.285 -4.275,-0.143 -2.707,-0.143 -3.705,-0.284 -2.423,-0.285 -1.853,-0.143 -3.135,-0.57 -4.845,-0.712 -0.854,-0.428 -2.851,-0.285 -3.563,-0.285 -2.422,-0.285 -3.705,-0.569 -5.272,-0.855 -4.846,-0.712 -5.842,-0.713 -5.13,-0.428 -2.28,-0.143 -1.71,-0.143 -1.995,0 -1.853,-0.285 -3.135,-0.427 -4.133,-0.428 -2.279,-0.143 -2.28,-0.285 -3.42,-0.428 -7.98,-0.997 -53.722,-0.997 -0.855,0 -2.28,2.422 -1.853,1.567 -2.422,1.71 -3.277,1.853 -2.993,1.853 -6.127,3.99 -3.42,2.423 -7.41,4.987 -5.415,3.99 -6.27,4.702 -9.69,7.41 -7.695,5.699 -5.842,5.272 -3.563,2.423 -1.425,0.713 -0.998,0.854 -4.417,-0.285 -2.851,-0.712 -1.282,-0.428 -26.505,-6.697 0.143,-0.285 0.143,-0.855 0.57,-3.989 1.425,-5.843 0,-1.14 0,-0.998 0,-2.992 -0.713,-10.402 0.57,-4.703 0.854,-3.277 0.285,-1.425 2.708,-4.417 1.282,-0.855 2.138,-1.853 0.712,-0.712 0.855,-0.713 0.285,-1.282 0.143,-1.141 -0.143,-0.854 -0.143,-0.998 -0.428,-0.854 -1.425,-1.282 -0.855,-0.57 -0.997,-0.855 -0.855,-1.14 -6.412,-7.125 -1.282,-1.282 -2.565,-3.42 -2.423,-1.853 -7.125,-13.396 -1.994,-8.265 -0.285,-2.564 -0.428,-4.133 -0.285,-1.567 0.143,-1.283 0.428,-1.282 0.854,-1.14 0.855,-0.713 1.14,-0.285 1.283,-0.143 1.994,-1.14 2.565,-1.853 3.42,-2.85 0.285,-0.855 0.143,-1.14 -0.143,-2.708 -3.135,-7.267 -1.426,-3.99 -2.992,-12.112 1.282,-5.415 1.283,-8.266 0.712,-6.127 -0.712,-3.99 -0.143,-2.422 0.285,-1.568 0.712,-1.425 2.708,-4.132 2.564,-3.848 1.71,-1.71 0.998,-0.855 0.854,-1.14 0.143,-0.57 0.285,-1.282 0.126,-1.23 -0.143,-9.12 -0.855,-8.266 0.143,-1.71 0.285,-1.994 1.853,-3.99 1.425,-4.703 0,-1.853 -0.143,-1.425 -1.994,-8.835 -4.418,-6.982 -0.428,-1.567 0,-1.425 0.57,-1.14 0.997,-1.141 1.141,-1.71 0,0 0.285,-0.854 0.143,-0.855 -0.285,-0.854 -0.285,-0.713 -0.855,-0.997 -0.997,-0.998 -0.998,-0.854 -2.137,-1.141 -1.426,-0.712 -1.852,-0.713 -2.993,-0.57 -1.282,-1.14 -0.713,-1.282 -0.569,-1.425 -0.428,-1.71 -0.143,-1.71 0.143,-1.995 0.285,-2.28 1.282,-3.563 1.14,-1.71 9.263,-9.405 1.425,-2.707 3.42,-4.133 4.418,-5.843 1.14,-1.71 0.143,-0.712 0.143,-1.282 -0.143,-1.141 -0.285,-0.997 -0.285,-0.855 -0.569,-0.569 -0.57,-0.713 -0.712,-0.57 -0.713,-0.285 -5.985,-1.425 -0.712,-0.285 -0.713,-0.569 -0.285,-0.855 -0.143,-0.854 0.143,-0.855 0.143,-0.997 5.843,-9.263 5.558,-6.128 1.853,-2.422 1.995,-1.567 1.282,-0.998 1.567,-0.997 0.997,-0.428 0.713,0 0.428,0.285 0.428,0.57 0.427,0.427 0.57,0.143 0.57,0 0.427,-0.143 0.285,-0.569 0.428,-0.855 0.713,-2.422 0.142,-1.853 -0.284,-1.141 -0.428,-1.567 -0.713,-1.71 -3.135,-4.702 -1.282,-3.277 -0.998,-2.851 -0.284,-1.14 -0.713,-0.57 -0.998,-0.569 -1.14,-1.141 -0.997,-1.14 -0.285,-1.141 -0.143,-0.854 0,-0.713 0.285,-0.997 0.569,-0.855 1.141,-0.712 1.14,-0.285 1.282,-0.428 3.848,-0.569 3.563,0.427 2.708,-0.143 3.135,0 2.564,-0.427 1.141,-0.57 0.712,-1.282 0.855,-2.138 0.713,-2.28 1.14,-4.56 0.997,-4.418 1.426,-6.697 0.284,-4.275 0,-2.992 0.143,-1.853 0.143,-1.14 3.705,-6.697 0.855,-2.28 0,-3.848 -0.285,-1.71 -0.285,-2.992 -0.285,-4.418 -0.285,-5.558 0.57,-4.845 1.425,-5.984 0.998,-3.421 1.14,-3.563 2.423,-6.555 0.712,-1.425 0.428,-1.71 0.285,-1.71 0.143,-2.138 -0.285,-2.28 0,-2.279 -0.143,-1.567 -0.57,-1.283 -0.569,-0.997 -0.57,-1.14 -1.567,-2.993 -0.285,-0.997 0,-0.143 0,-0.855 0.143,-1.14 0.57,-1.14 0.712,-1.141 1.14,-1.425 2.565,-2.138 1.71,-1.71 1.853,-2.279 1.853,-1.995 0.997,-0.998 0.998,-0.712 1.567,-1.141 0.997,-0.854 0.57,-0.998 0.285,-1.14 0.143,-1.425 -0.143,-1.567 -0.285,-1.995 -0.57,-1.282 -0.854,-0.713 -0.855,-1.14 -1.14,-0.998 -0.997,-1.282 -0.713,-1.14 -1.71,-2.138 -0.997,-1.853 -0.428,-1.425 0.143,-1.995 0.569,-2.565 1.426,-3.848 0.997,-2.279 0.997,-2.708 0.428,-0.997 0.713,-1.283 0.569,-1.14 0.428,-1.71 -0.285,-0.997 -0.437,-1.142 -0.855,-1.14 -0.428,-0.713 -0.285,-0.854 0,-0.855 0.285,-0.997 0.57,-0.428 0.855,-0.285 0.997,-0.143 0.997,0 0.998,0.285 2.422,0.428 5.272,1.14 5.558,0.855 1.426,0 0.997,-0.285 1.995,-1.14 0.997,-0.713 0.713,-0.713 0.285,-0.997 0.285,-0.997 0.284,-0.855 0,-0.854 0,-0.998 0,-1.14 -0.284,-3.42 -0.428,-6.556 0,-1.71 -0.143,-3.277 -1.567,-4.845 -0.285,-0.997 -0.285,-0.855 -0.57,-1.14 -0.284,-1.283 -0.285,-4.274 -0.428,-1.425 0.143,-1.426 0.428,-0.569 0.143,-0.285 1.282,-0.855 1.282,-0.997 2.423,-2.992 1.71,-2.423 0.712,-1.425 0.428,-1.995 0.285,-2.423 0,-1.282 0,-2.992 -0.713,-3.848 -1.425,-3.848 -1.425,-1.995 -1.425,-2.422 -0.855,-2.708 -0.143,-0.997 0,-1.283 0.143,-1.14 0.57,-1.282 0.713,-0.713 1.282,-0.712 1.71,-0.57 1.425,-0.143 1.282,-0.143 1.283,0.143 1.282,0.285 2.28,0.854 2.564,0.855 1.14,0.57 0.855,0.142 1.282,-0.142 0.998,-0.143 0.854,-0.428 0.998,-0.57 5.13,-2.992 4.132,-1.853 4.418,-2.423 1.282,-0.569 3.848,-1.568 2.992,-2.279 0.57,-0.285 0.713,-0.143 0.284,0 0.57,0 0.57,0.143 0.712,0.854 0.713,0.713 0.713,0.428 0.284,0.285 0.285,0.143 0.428,0 0.428,-0.285 0.285,-0.428 0.284,-0.428 0.428,-0.854 0.855,-4.275 0.285,-3.135 1.282,-9.833 0.143,-4.274 0,-1.425 0.285,-1.141 0.284,-0.854 0.713,-0.998 0.57,-0.712 0.712,-0.428 0.713,-0.428 1.282,-0.143 1.425,-0.569 1.71,-0.57 1.853,-0.57 1.853,-0.997 2.138,-1.282 3.42,-2.708 1.141,-1.14 1.14,-0.998 1.282,-1.14 0.998,-0.855 0.712,-0.712 0.998,-1.425 0.427,-0.285 0.57,-0.428 0.57,-0.143 0.569,-0.428 0.57,-0.712 0.285,-0.713 0.285,-0.712 0,-0.57 -0.143,-0.713 0,-0.569 -0.428,-0.285 -0.428,-0.713 -0.427,-0.569 -0.428,-1.426 -0.713,-1.567 -0.569,-0.997 -0.428,-1.425 -0.428,-1.283 -0.143,-0.712 0.57,-0.998 0.285,-0.712 0.712,-0.57 0.57,-0.143 0.712,-0.428 0.57,-0.569 0.713,-1.141 0.285,-0.712 0.427,-0.57 0.57,-0.285 0.713,-0.569 0.712,-0.428 0.998,-0.143 0.712,0 0.713,0.285 0.712,0.285 0.428,0.569 0.713,0.57 0.569,0.428 0.57,0.143 0.57,-0.143 0.854,-0.143 0.998,0.143 0.854,0.143 0.713,0 0.854,-0.143 0.998,0 1.282,0.143 0.855,0.143 0.712,0.284 0.855,0.143 0.428,-0.143 0.997,-0.569 0.428,-0.428 0.712,-0.428 0.713,-0.428 0.712,0 1.141,-0.143 0.712,-0.284 0.57,-0.713 0.57,-0.854 0.854,-0.855 0.713,-0.855 0.712,-0.427 0.713,-0.57 0.855,-0.285 0.854,-0.712 0.57,-0.713 0.569,-0.713 0.713,-0.569 1.567,-0.713 2.28,-0.854 1.14,-0.285 1.567,-0.57 1.71,-0.712 1.426,-0.428 0.997,-0.428 1.14,-0.713 0.57,-0.569 0.428,-0.855 0.143,-0.712 0,-0.713 0,-0.713 0,-0.712 0.285,-0.855 0.427,-0.712 0.57,-0.713 1.14,-1.282 0.57,-0.713 1.14,-0.997 1.426,-0.57 2.279,-1.425 1.425,-0.998 0.998,-0.712 0.997,-0.57 1.141,-0.428 1.14,-0.569 0.998,-0.428 1.71,-1.14 2.422,-1.426 0.855,-0.712 1.14,-0.57 0.997,-0.569 0.713,-0.143 0.854,0 0.713,0.143 0.854,0.142 0.998,0 0.712,-0.142 0.57,-0.285 0.855,-0.428 0.569,-0.713 0.57,-0.854 1.567,-1.853 2.138,-3.42 2.707,-3.42 0.998,-0.855 0.428,-0.285 0.854,0 0.713,0 0.854,-0.143 0.57,-0.427 0.854,-0.57 0.855,-0.285 0.57,-0.143 0.854,-0.712 0.998,-0.712 1.14,-0.285 0.854,-0.142 1.283,0.285 0.854,0.428 1.567,0.712 1.71,1.425 1.283,1.14 0.712,0.428 0.855,0.143 0.854,-0.143 0.855,-0.428 0.57,-0.713 0.569,-0.997 0.143,-0.855 0.143,-0.998 -0.285,-0.998 -0.712,-0.998 -0.713,-0.855 -0.855,-0.855 -0.997,-0.712 -0.713,-0.57 -0.569,-0.712 -0.285,-0.855 -0.428,-0.855 -0.285,-1.14 -1.14,-2.138 -1.14,-1.282 -1.141,-1.425 -0.854,-1.14 -1.141,-0.855 -1.14,-1.283 -0.997,-1.425 -0.285,-1.14 -0.57,-1.567 -0.713,-1.283 -0.284,-1.282 -0.285,-1.71 -0.285,-1.71 0.143,-1.282 0.143,-1.283 0.285,-1.567 0.854,-1.425 0.998,-1.425 1.282,-1.71 0.57,-0.712 0.142,-1.14 0.143,-0.427 0.143,-0.428 0,-1.425 0.143,-1.995 0,-1.71 0,-1.282 -0.143,-0.855 0.285,-0.998 0.285,-0.855 0.428,-0.713 0.712,-1.14 0.57,-1.14 0.855,-0.998 0.712,-0.998 0.998,-0.998 0.997,-0.855 1.425,-1.71 0.57,-0.712 0.712,-1.14 0.428,-1.14 0.285,-1.14 0.285,-1.14 0.285,-0.998 0.285,-0.712 0.427,-0.855 0.57,-0.57 0.428,-0.855 0.712,-1.425 1.283,-2.138 1.14,-1.71 0.713,-0.285 0.427,-0.427 0.998,-0.713 0.712,-0.997 0.57,-0.998 0.285,-0.57 0.285,-0.997 0,-0.713 -0.143,-3.42 0.143,-0.712 0.143,-0.712 0.284,-0.428 0.143,-0.427 0.428,-0.428 0.285,-0.285 0.57,-0.143 0.712,-0.143 0.713,0 0.712,-0.143 0.57,-0.285 0.285,-0.143 0.428,-0.427 2.422,-2.422 0.998,-1.283 1.567,-1.425 1.425,-1.995 1.282,-1.567 1.283,-1.995 1.567,-2.422 1.425,-2.993 0.428,-0.855 0.285,-0.285 0.427,-0.712 0.855,-0.998 1.567,-1.853 1.425,-1.425 1.853,-1.425 1.425,-1.14 0.998,-0.712 1.282,-0.57 0.855,-0.57 0.854,-0.57 1.14,-1.14 0.713,-0.855 0.997,-1.282 0.713,-0.998 0.57,-1.14 0.285,-0.998 0.142,-0.998 0,-0.855 -0.142,-0.998 0,-0.427 -0.285,-0.712 -0.428,-0.57 -0.855,-0.427 -0.427,-0.428 -0.998,-0.855 -0.997,-0.57 -0.713,-0.712 -0.428,-0.713 -0.569,-0.997 -0.143,-0.855 -0.143,-0.854 0.143,-1.853 0.285,-1.14 0.143,-0.855 0.143,-0.57 0,-0.712 0,-0.427 -0.285,-0.712 -0.285,-0.713 -0.285,-0.57 -0.57,-0.428 -1.14,-0.712 -0.855,-0.285 -0.997,-0.428 -0.997,-0.427 -0.855,-0.57 -0.713,-0.712 -0.854,-0.855 -0.57,-0.712 -0.143,-0.855 -0.284,-0.855 0,-0.712 0.142,-0.713 0.143,-0.712 0.285,-0.712 0.57,-1.14 0.285,-0.712 0.285,-0.855 0.142,-0.855 -0.142,-0.712 -0.143,-1.14 -0.57,-0.998 -0.428,-0.998 -0.569,-0.712 -0.713,-0.57 -0.855,-0.57 -1.71,-1.14 2.423,-3.705 2.85,-3.705 1.853,-2.422 1.283,-2.138 3.135,-3.847 1.282,-1.568 0.998,-1.282 1.14,-1.14 0.854,-0.57 1.283,-0.428 1.282,-0.427 0.854,-0.57 0.713,-0.713 0.855,-0.998 0.569,-0.855 0.285,-0.997 0,-0.855 0,-0.712 -0.143,-0.57 -0.428,-0.998 -0.284,-0.712 -0.285,-0.57 0,-0.57 0.143,-0.427 0.285,-0.428 0.284,-0.285 0.57,-0.142 0.855,0 1.282,0.285 1.71,0 2.138,0 1.567,-0.285 1.425,-0.285 1.14,-0.143 2.423,-0.998 1.425,-0.712 0.713,-0.57 0.712,-0.713 0.855,-0.57 0.854,-0.57 1.141,-0.285 0.997,-0.143 0.998,0 0.712,0 0.57,0.143 0.57,0.428 0.284,0.427 0.285,0.428 0.285,0.285 0.285,0.143 0.57,0.143 0.712,-0.285 0.285,-0.285 1.282,-2.28 0.713,-1.71 0.57,-1.71 0.284,-0.855 0.428,-0.428 0.428,-0.285 0.57,-0.143 0.997,0 0.713,0 1.14,0.285 1.14,0.427 1.141,0.428 0.712,0.712 1.425,0.855 0.855,0.57 0.997,0.285 0.428,-0.143 0.713,-0.143 0.428,-0.57 0.284,-0.712 0.285,-0.712 0,-0.713 -0.143,-0.712 -0.712,-1.14 -1.853,-2.992 -0.998,-1.71 -0.569,-1.425 -1.141,-1.995 -0.712,-2.423 -0.713,-1.282 -0.428,-0.855 -0.143,-0.57 -0.143,-1.14 0.143,-1.71 0.57,-1.425 0.57,-2.137 0.569,-1.14 0.57,-0.712 1.282,-0.712 1.283,-0.143 0.854,-0.143 1.141,0 0.854,0.285 1.14,0.427 0.855,0.285 0.854,0.143 0.855,0 0.57,-0.143 0.854,-0.428 0.57,-0.57 0.143,-0.855 0.143,-0.855 0,-0.855 0.427,-0.855 0.57,-0.57 0.713,-0.997 0.997,-0.855 0.998,-0.997 0.712,-0.428 0.428,-0.57 0.428,-0.855 0.285,-0.855 0.142,-0.712 0.57,-0.713 0.57,-0.57 0.854,-0.855 1.71,-1.14 0.57,-0.285 0.713,-0.143 0.854,-0.143 0.713,-0.143 0.997,-0.428 0.428,-0.57 0.428,-0.57 0.285,-0.998 0.142,-0.57 0,-0.855 -0.284,-1.283 0,-0.998 0.143,-0.712 0,-0.855 0.569,-1.283 0.57,-0.57 0.854,-0.712 0.998,-0.712 0.569,-0.428 0.713,-0.285 0.855,-0.143 0.854,0 0.855,0.285 0.854,0.428 1.141,0.712 0.997,0.57 1.14,0 1.426,-0.142 1.14,-0.285 0.57,-0.285 0.569,-0.427 0.428,-0.428 0.428,-0.712 0.569,-2.28 0.428,-1.567 0,-1.567 -0.143,-1.425 0,-0.855 0.143,-1.14 0,-0.855 -0.428,-1.995 -0.284,-1.14 -0.285,-0.712 -0.143,-0.712 0.143,-0.712 0.428,-0.57 0.427,-0.285 0.855,-0.143 1.14,0 0.855,0 0.997,0.285 1.14,0 1.853,0.143 1.567,-0.143 2.28,-0.143 1.282,-0.285 1.711,-0.57 0.712,-0.428 0.428,-0.57 4.702,-10.973 44.057,10.828 z"
       inkscape:connector-curvature="0"
       class="DEP_08 ZON_03" /></g></svg>