<?xml version="1.0" encoding="UTF-8" standalone="no"?>
<!-- Generator: Adobe Illustrator 16.0.0, SVG Export Plug-In . SVG Version: 6.00 Build 0)  -->

<svg
   xmlns:dc="http://purl.org/dc/elements/1.1/"
   xmlns:cc="http://creativecommons.org/ns#"
   xmlns:rdf="http://www.w3.org/1999/02/22-rdf-syntax-ns#"
   xmlns:svg="http://www.w3.org/2000/svg"
   xmlns="http://www.w3.org/2000/svg"
   xmlns:sodipodi="http://sodipodi.sourceforge.net/DTD/sodipodi-0.dtd"
   xmlns:inkscape="http://www.inkscape.org/namespaces/inkscape"
   version="1.1"
   id="SvgMunicipio"
   x="0px"
   y="0px"
   width="999.97px"
   height="552.066px"
   viewBox="64.908 118.625 999.97 552.066"
   enable-background="new 64.908 118.625 999.97 552.066"
   xml:space="preserve"
   inkscape:version="0.91 r13725"
   sodipodi:docname="MUN_ID0804.svg"><metadata
     id="metadata10"><rdf:RDF><cc:Work
         rdf:about=""><dc:format>image/svg+xml</dc:format><dc:type
           rdf:resource="http://purl.org/dc/dcmitype/StillImage" /></cc:Work></rdf:RDF></metadata><defs
     id="defs8" /><sodipodi:namedview
     pagecolor="#ffffff"
     bordercolor="#666666"
     borderopacity="1"
     objecttolerance="10"
     gridtolerance="10"
     guidetolerance="10"
     inkscape:pageopacity="0"
     inkscape:pageshadow="2"
     inkscape:window-width="1366"
     inkscape:window-height="705"
     id="namedview6"
     showgrid="false"
     inkscape:zoom="0.40901228"
     inkscape:cx="499.98499"
     inkscape:cy="276.03299"
     inkscape:window-x="-8"
     inkscape:window-y="-8"
     inkscape:window-maximized="1"
     inkscape:current-layer="svg" /><g
     id="g3"><path
       id="MUN_0804"
       d="m 445.731,138.208 18.332,2.5 0,0 0,0 3.75,0.833 0,0 0.417,0 7.083,-0.833 0,-0.417 0,0.417 8.75,0.417 0,0 0,0 9.583,-1.667 0,0 0,0 4.583,-1.25 0,0 0,0 6.666,0.417 0,0 0,0 7.083,1.667 0,0 0,0 7.084,0.833 0,0 0,0 4.166,0.833 0,0 0,0 3.75,0 0.833,0 0.417,0 0.417,0 0,0 0,0 5.833,-1.25 0,0 3.75,-2.917 0,0 0,0 2.916,-4.167 0.417,0 0,0 3.333,-2.917 0,0 0,0 4.167,-2.083 0,0 0,0 4.999,-1.667 0,0 0,0 2.917,-1.25 0,0 0,0 3.333,0.417 0.417,0 0,0 3.333,1.667 0.417,0 0,0 2.5,2.083 0,0.417 0,0 2.5,2.917 0,0 0,0 0,0 2.5,2.917 0,0 1.666,1.667 0,0 0,0 5,2.5 0,0 0,0 3.333,1.667 0,0 0.417,0 5,0.833 0,0 0,0 3.75,-1.25 0,0 0,0 4.999,0 0,0 0,0 4.584,-0.833 0,0 0.416,0 3.333,1.25 0,0 0,0 2.5,0.833 0,0 0,0 6.667,3.333 0,0 0,0 3.333,1.25 0,0 0,0 3.333,1.667 0,0 0,0 3.75,0.417 0,0 0.417,0 6.25,1.667 0.416,0 0,0 4.584,0 0,0 0,0 9.583,-1.667 0,0 0,0 5.833,-1.25 0,0 0,0 5.833,-1.25 0,0 0,0 5,-2.5 0,0 0,-0.417 3.75,-0.833 0,0 0,0 4.583,1.25 0,0 0,0 4.583,1.667 0,0.417 0,0 2.083,2.083 0,0 0,0 1.25,2.5 0,0 0,0 0.834,4.167 0,0 0,0 0.416,5.417 0,0 0,0 0.417,22.083 0,0 0,0 1.666,4.583 0,0 0,0 2.917,4.583 0,0 0,0 2.5,2.917 0,0 0,0 5.416,3.333 0,0 0,0 7.5,2.917 0,0 0,0 0,0 6.667,1.25 0,0 0,0 7.499,-1.25 0,0 0.417,0 3.333,-2.5 0,0 2.917,-5 0,0 0,0 2.5,-2.917 0.416,0 2.917,-0.417 0,0 0,0 3.75,0 0.416,0 0,0 2.917,1.25 0,0 0,0 5,3.333 0,0 0,0 4.167,2.917 0,0 0,0.417 2.083,3.333 0,0 0,0 1.666,3.75 0,0 0,0 2.084,2.5 0,0 0,0 1.25,1.667 0,0 0,0 0.416,0.833 0,0 0.417,0 3.333,1.25 0,0 0,0 5.417,0 2.083,0 1.25,-2.083 3.75,-3.75 0,0 6.249,-7.917 0,0 5,-5.833 0,0 0,0 2.917,-2.083 0,0 0,0 6.25,-1.667 0.416,0 1.667,-2.083 0,-0.417 0.417,0 0.833,-8.75 0,0 0,0 0.833,-7.083 0,0 0,0 3.75,-6.25 0,0 0,0 3.333,-6.25 0,0 0,0 0.834,-0.417 0,-0.417 0,0 4.166,-2.083 0.417,0 3.75,0.417 0,0 4.166,3.333 0,0 0,0 0,0 2.917,4.167 0,0 0,0 0,0 2.083,4.583 0,0 0,0 0.417,0.417 1.666,1.667 0,0 0,0 2.084,4.167 0,0 0,0.417 2.5,1.667 0,0 0.416,0 2.917,1.25 0,0 0,0 2.916,0.417 0,0 0,0 5.417,0 0,0 0,0 6.666,-0.833 0,0 0,0 5.417,-0.417 0,0 0,0 5.833,0.833 0,0 0,0 5,2.083 0,0 0,0 4.583,2.917 0,0 0,0 5.833,5.417 0,0 0,0 1.667,1.667 0,0 0.833,5 0.417,4.583 0,0 0,0 -0.417,15.833 0,0 0,0 1.25,3.75 0,0 0,0 2.5,2.917 0,0 0,0 1.25,1.25 0,0 5.833,1.25 0,0 0,0 2.917,0 0,0 0.416,0 2.5,0 0,0 0,0 3.333,0 0,0.417 0.834,0.833 0,0 0,0 1.25,1.667 0.416,3.333 0,0 0,0 0,3.333 0,0 0,0 0,0 0.417,4.167 0,0 0,0 0.417,1.25 0,0 0,0 1.25,3.75 0,0 3.333,2.083 0,0 0,0 2.5,1.25 0,0 0.416,0 5,0 0,0 0.417,0 0,0 0,0 6.666,-2.083 0,0 0.417,0 4.167,-1.25 0,0 0,0 0,0 3.749,-1.25 0,0 0,0 5.417,-0.833 0,-0.417 0,0 4.167,0 0,0 0,0 2.083,0.417 0,0 0,0 2.083,0.833 0.417,0 0,0 2.083,2.083 0,0 0,0 0,0 0.833,2.083 2.917,3.75 0,0 0,0 1.25,2.917 0,0 0,0 0.833,2.917 0,0 0,0 0.833,1.667 0,0 0,0 0.417,1.667 0,0 0,0 3.75,4.583 0,0 0,0 5,4.167 0,0 0,0 2.916,1.25 0,0 0,0 3.75,1.667 0.417,0 0,0 1.25,0 0,0 0,0 2.5,0.417 0,0 0,0 2.5,1.667 0,0 0,0 1.666,1.667 0,0.417 0,0 1.25,2.083 0,0 0,0 1.25,2.5 0,0 0,0.417 1.25,4.167 0,0 0,0 0,0 0.417,2.917 0,0 0,0 0,0 0,3.333 0,0 0,0 0.417,2.5 0,0 0,0 0,2.917 0,0 0,0 0,0 0,2.917 0,0 0,0 0.416,6.667 0,0 0,0 -0.416,2.917 0,0 0,0.417 0,0 0.416,1.667 0,0 0,0 0,2.917 0,0 0,0.417 -0.416,2.5 0,0 0,0 0,5.833 0,3.333 0,0 0,0 0,2.5 0,0 0,0 2.083,7.5 0,0 0,0 1.666,3.75 0,0 0.417,2.083 0,0 0,0 2.917,5 0,0.417 0,0 1.666,3.333 0,0 0,0 0,0 2.083,3.333 0,0 0,0 0.834,1.667 0,0 0,0 0.833,2.083 0,0 0,0 0,0 1.25,2.5 0,0 0,0 1.25,2.917 0,0 0,0 0.417,2.5 0,0 0,0 0.416,1.25 0,0.417 -0.416,2.083 0,0 0,0.417 0,2.917 0,0 0,0 -0.417,2.083 0,0 0,0 -1.25,8.75 0,0 0,0 0,4.583 0,0 0,0.417 0.417,1.667 1.25,4.583 1.666,3.333 0,0 2.917,1.25 0,0 0.417,0 6.666,-0.417 0,0 0,0 4.583,-0.416 0,0 0,0 2.5,0 0,0 0,0 6.25,2.5 0,0 0,0 5,4.166 0,0 0,0 3.333,4.584 0,0 0,0 2.083,3.333 0,0 0,0 0.834,1.25 0.416,0 11.25,4.583 3.333,1.25 0,0 0,0 8.333,4.166 0,0 1.25,2.084 0,0 0,0 1.25,5.416 0,0 0,0 0,1.25 -0.417,5 0,0 0,0 0,2.5 0,0 0,0 0.834,2.083 0,0 0,0 0.833,2.917 0,0 0.417,0 0,0 1.25,3.333 0,0 0,0 1.666,3.75 0,0 0,0 2.917,1.666 0,0 0,0 1.667,2.917 0,0 0,0 2.916,2.917 0.417,0 0.833,6.666 0,0 0,0 0,0 0.417,4.583 0,0 0,0.834 -12.917,1.249 -7.083,1.25 -8.749,2.084 -10,6.666 -13.75,9.167 -14.583,9.999 -4.583,7.5 -2.916,6.666 -0.417,0 -13.333,9.167 -15.416,12.499 -1.25,1.667 0,0 0,0 -5,7.916 -5.416,7.917 -2.917,13.333 -0.833,9.999 -0.417,0 -6.666,7.5 -7.917,2.917 -21.249,5.833 -3.333,1.25 -16.25,5.833 -17.083,10 -14.166,13.333 -42.915,46.665 -2.917,-2.083 -1.25,-0.417 -0.833,-0.417 -1.667,-1.25 -0.833,-0.416 -0.833,-0.834 -1.667,-0.833 -0.416,-0.417 -2.084,-1.666 -1.25,-0.834 -0.833,-0.833 -1.667,-0.833 -2.5,-0.833 -1.666,-0.417 -2.5,-0.417 -1.667,-0.416 -1.25,-0.834 -0.833,-0.416 -1.25,-0.417 0,-0.417 -0.833,-0.833 -1.667,-1.667 -1.25,-1.25 -2.083,-1.666 -1.667,-0.833 -2.916,-1.667 -4.167,-1.25 -1.666,0 -1.667,-0.417 -2.917,-0.833 -4.166,-0.417 -6.25,-1.666 -0.417,-0.417 -1.25,-0.417 -2.916,-0.833 -2.5,-1.25 -2.917,-0.833 -2.083,-1.25 -3.75,-0.833 -3.333,-0.834 -2.917,-1.25 -2.5,-1.25 -2.083,-1.25 -2.5,-1.666 -1.666,-0.834 -4.167,-1.666 -3.75,-1.667 -7.083,-1.25 -3.75,-0.833 -2.5,-0.833 -4.583,-1.25 -2.083,0 -1.667,0 -2.5,-0.417 -1.25,0 -3.333,-0.833 -1.666,0 -2.917,0 -2.917,-0.417 -2.499,-0.417 -2.084,-0.416 -1.25,-0.417 -2.083,-0.417 -2.5,-0.416 -4.583,-0.417 -3.75,0 -4.583,0.417 -2.917,0.416 -2.916,-0.416 -2.5,0 -2.084,-0.417 -1.25,-0.416 -2.916,-0.834 -2.5,-0.416 -2.083,-0.834 -5,-3.333 -1.25,-1.667 -2.5,-3.333 -3.75,-3.333 -3.75,-2.917 -4.583,-2.916 -5,-2.083 -4.166,-1.667 -3.334,-0.417 -4.583,1.25 -5,1.25 -7.916,1.25 -4.583,0.833 -5.833,0.417 -14.583,0 -14.583,-1.25 -16.25,-2.5 -31.249,0 -37.915,0 -34.999,-4.166 -14.999,-4.584 -11.667,-6.666 -29.999,-14.166 -26.666,-8.75 -9.583,-2.5 -8.749,-6.25 -1.667,-1.666 -3.75,-2.084 -3.333,-0.416 -8.333,-0.417 -4.166,0.833 -4.167,2.917 -2.5,1.667 -2.083,0.833 -3.333,0.417 -4.167,-2.084 -0.833,-3.75 -0.417,-9.999 -0.833,-11.25 -0.417,-2.916 -1.666,-2.5 -1.667,-1.25 -2.5,-3.333 -3.333,-2.917 -5.417,-2.083 -5.833,-0.834 -4.166,-1.666 -3.334,-2.5 -0.416,-2.5 0,-1.25 -0.417,-6.667 -0.833,-2.499 -2.084,-3.334 -1.666,-2.083 -2.917,-2.917 1.25,-4.166 -0.416,-2.917 -2.084,-2.083 -1.666,-2.916 -0.417,-3.75 1.667,-5 1.666,-2.083 1.667,-1.667 2.083,-1.25 5.833,-0.417 4.583,-0.833 3.75,-1.667 1.667,-0.833 2.083,-2.083 0.834,-2.083 1.25,-5 1.249,-5 2.5,-0.417 6.25,1.667 2.917,-0.834 1.25,-1.249 0.416,-2.917 0.417,-4.167 0.417,-3.749 1.666,-2.917 5.833,-4.167 5,-3.333 3.75,-2.083 5.416,-3.75 5.834,-5 4.999,-3.75 2.084,-2.916 0,-5.849 0.416,-9.167 0.834,-3.333 1.666,-4.167 4.583,-3.75 2.084,-1.667 1.25,-2.083 0.833,-7.5 0,-4.167 2.083,-8.333 1.667,-6.667 0.417,-4.583 -0.417,-2.083 -1.25,-3.333 -3.333,-3.333 -6.667,-8.333 -4.166,-6.667 -1.667,-2.917 -1.25,-2.5 -3.333,-3.333 -1.667,-0.833 -2.916,-1.25 -3.334,-2.5 -2.083,-3.75 -5.416,-7.5 -4.583,-5 -6.25,-2.917 -7.083,-2.083 -5,2.083 -5.833,2.917 -7.917,3.333 -9.999,0.833 -9.167,-3.333 -11.666,-5.417 -9.583,-4.583 -8.75,-4.167 -7.083,-2.5 -5,-0.833 -5.416,0 -5.833,-1.667 -6.667,-3.333 -6.666,-4.583 -8.333,-5.417 -6.25,-2.917 -5.417,0 -4.583,4.167 -2.916,2.5 -2.5,7.5 -5,2.917 -6.667,-0.417 -5.416,0 -2.917,-1.25 -3.749,0 -5,1.25 -2.5,0 -3.333,2.917 -3.75,1.667 -2.084,0.417 -3.333,-0.833 -2.5,0 -3.75,0.417 -4.999,1.667 -5.417,0.833 -9.583,-5.833 -10.833,-5.833 -4.167,-8.333 4.584,-5.417 0,0 0.416,0 1.25,-6.666 0,0 0,-0.417 0.417,-5.833 0,0 0,0 -1.667,-7.917 0,0 0,0 0,-8.333 0,0 0,0 -0.833,-9.583 0,-0.417 0,0 0,0 2.083,-5.417 0,0 0,-0.417 4.167,-4.167 0,0 0,0 5,-2.5 0.416,0 0,0 2.5,-0.833 0.417,0.417 3.333,1.667 0,0 0,0 4.167,5.417 0.416,0.417 0,0 1.25,4.583 0,0 0,0 1.25,2.917 0,0.417 2.083,0.833 0.417,0.417 3.75,-0.417 0,0 0,0 7.916,-3.333 0,0 0,0 11.667,-2.5 0,0 0,0 7.083,1.25 0,0 0,0 5.416,-0.833 0,0 0.417,0 4.167,-1.667 0.416,0 0,0 7.083,0 0,0 0,0 6.25,0.833 0,0 0,0 6.667,0.417 0,0 0,0 8.749,-3.333 0,0 0,0 0,0 6.667,-5.417 0,0 0,0 5.416,-5.417 0,0 0,0 4.167,-5.833 0,0 0,0 2.083,-3.75 0,0 0.417,0 5,-3.333 0,0 0,0 5.416,-2.5 2.917,-1.25 1.666,0.833 4.167,3.75 0,0 0,0 2.083,2.917 0,0 0.417,3.75 0,0 4.166,5.833 0,0 0,0 0,0 4.583,8.333 0,0 0,0 5,8.333 0,0 0,0 0,0 2.917,4.167 0.416,0 0,0 5.834,3.333 0,0 0,0 0.416,0 9.167,1.25 0,0 0,0 6.666,-2.083 0,0 0,0 4.583,-3.333 0,0 0,0 2.917,-6.25 0,0 0,0 2.083,-8.333 0,0 0,0 -0.417,-9.167 0,0 0,0 0,-7.083 0,0 0,0 0,0 -2.083,-10.417 0,0 0,-0.417 0,0 0.417,-9.583 0,0 0.416,-8.333 0,0 0,0 0,-4.167 0,0 0,0 2.084,-4.583 0,-0.417 5,-3.333 0,0 3.333,0.417 0,0 2.083,2.917 0,0 0,0.417 2.5,4.167 0,0 0,0 0.833,4.167 0,0 2.084,2.5 0,0.417 11.249,-2.083 0,-0.417 0,0 7.5,-2.5 0,0 0,0 9.583,-4.167 0,0 0,0 6.25,-3.333 0,0 0,0 8.333,-2.5 0,0 0,0 8.333,-2.083 0,0 0,0 9.166,1.25 0,0 0,0 6.25,0.417 0,0 0,0 5.833,-0.833 0,0 0,0 4.583,-1.667 0,0 7.917,-10.833 0,0 4.166,-5.417 0.417,-2.917 5.833,1.25 0,0 9.583,2.083 0,0 0,0 4.167,0.833 0,0.417 0,0 7.499,0 6.667,0 0,0 0,0 4.166,0.417 0,0 0,0 0,0 8.333,2.5 0,0 0.417,0 7.916,2.917 0,0 0,0 7.917,2.5 11.666,4.167 0,0 0,0 10.417,2.5 0,0 0,0 z"
       inkscape:connector-curvature="0"
       class="DEP_08 ZON_03" /></g></svg>