<?xml version="1.0" encoding="UTF-8" standalone="no"?>
<!-- Generator: Adobe Illustrator 16.0.0, SVG Export Plug-In . SVG Version: 6.00 Build 0)  -->

<svg
   xmlns:dc="http://purl.org/dc/elements/1.1/"
   xmlns:cc="http://creativecommons.org/ns#"
   xmlns:rdf="http://www.w3.org/1999/02/22-rdf-syntax-ns#"
   xmlns:svg="http://www.w3.org/2000/svg"
   xmlns="http://www.w3.org/2000/svg"
   xmlns:sodipodi="http://sodipodi.sourceforge.net/DTD/sodipodi-0.dtd"
   xmlns:inkscape="http://www.inkscape.org/namespaces/inkscape"
   version="1.1"
   id="SvgMunicipio"
   x="0px"
   y="0px"
   width="578.184px"
   height="1000.038px"
   viewBox="64.548 118.23 578.184 1000.038"
   enable-background="new 64.548 118.23 578.184 1000.038"
   xml:space="preserve"
   inkscape:version="0.91 r13725"
   sodipodi:docname="MUN_ID0801.svg"><metadata
     id="metadata10"><rdf:RDF><cc:Work
         rdf:about=""><dc:format>image/svg+xml</dc:format><dc:type
           rdf:resource="http://purl.org/dc/dcmitype/StillImage" /></cc:Work></rdf:RDF></metadata><defs
     id="defs8" /><sodipodi:namedview
     pagecolor="#ffffff"
     bordercolor="#666666"
     borderopacity="1"
     objecttolerance="10"
     gridtolerance="10"
     guidetolerance="10"
     inkscape:pageopacity="0"
     inkscape:pageshadow="2"
     inkscape:window-width="682"
     inkscape:window-height="480"
     id="namedview6"
     showgrid="false"
     inkscape:zoom="0.23599103"
     inkscape:cx="289.09201"
     inkscape:cy="500.01901"
     inkscape:window-x="0"
     inkscape:window-y="0"
     inkscape:window-maximized="0"
     inkscape:current-layer="svg" /><g
     id="g3"><path
       id="MUN_0801"
       d="m 305.091,129.229 3.771,0.471 2.671,-0.628 3.614,-2.671 2.514,-2.985 2.199,-1.1 3.928,2.042 1.258,0.628 2.671,0 3.456,2.514 2.199,1.571 3.143,2.985 0.943,2.514 1.257,1.729 0.785,1.728 -1.257,1.1 -2.671,1.257 -1.1,1.257 -0.629,0.943 -1.257,1.728 1.1,2.2 6.128,3.142 1.885,1.257 1.729,2.042 0.314,1.257 0.314,2.2 0.313,1.414 0.157,1.728 -0.471,2.2 -0.157,2.671 0.314,2.828 -0.157,2.514 -0.314,7.07 0.157,3.928 0.157,4.085 0.313,1.729 1.258,2.356 0.942,3.3 1.886,7.07 1.414,4.557 1.414,3.299 0.785,2.357 0.628,2.671 0.157,2.199 -0.628,4.399 0.628,2.671 1.886,3.143 1.886,1.571 0.785,0.628 0.472,0.472 0.471,0.314 2.043,3.143 1.414,3.457 1.729,2.199 3.299,3.3 2.671,4.085 1.257,3.457 -0.157,2.2 1.101,3.457 1.414,4.871 1.1,3.456 1.571,2.985 1.728,3.299 1.729,1.886 0.942,1.885 1.729,2.356 0.472,5.342 -0.472,4.556 0.157,2.357 1.886,4.871 4.399,8.013 2.514,3.771 2.671,1.571 4.87,1.257 4.085,-0.314 6.6,-0.786 3.456,1.257 2.671,1.885 3.143,2.985 2.671,1.729 3.613,0 5.813,2.671 2.199,1.571 1.101,2.357 0,4.399 2.356,7.384 2.199,2.828 2.671,1.571 1.101,0.628 2.984,2.828 0.157,1.886 -1.885,7.07 -1.257,1.414 -1.258,3.299 -1.1,5.813 -0.785,4.713 -0.786,2.828 1.258,4.399 2.199,1.571 0.314,2.199 1.885,3.771 1.886,1.885 1.886,2.671 2.514,1.571 3.928,1.885 2.199,1.729 2.043,3.614 2.356,1.885 1.729,2.356 1.1,2.985 4.242,6.284 1.571,2.2 3.456,4.557 2.357,5.027 -0.314,3.3 -0.786,2.199 -1.414,2.356 -2.671,1.414 -1.885,1.1 -3.614,1.257 -1.728,1.729 -0.472,2.043 -1.729,1.571 -1.885,5.185 -0.629,6.599 0,4.557 1.571,2.828 1.414,0.628 3.613,1.571 2.357,4.242 -0.157,0.314 -0.472,2.042 -2.356,2.514 -1.257,2.2 -0.314,3.771 0.785,8.956 1.257,2.514 -0.628,2.671 0.157,3.771 0.785,4.399 0.157,3.928 2.356,4.399 2.2,5.971 6.127,9.897 1.571,4.871 0.314,7.228 1.1,2.984 1.257,11.313 -0.785,3.614 -1.257,5.342 -2.514,5.656 -2.828,7.227 1.1,5.028 0.157,4.242 0.471,5.027 -1.414,9.898 -2.199,6.284 -0.472,5.499 -3.142,15.24 0.785,5.971 0,3.928 3.3,10.213 2.671,2.514 0.313,3.928 -1.257,3.456 -4.242,2.043 -1.1,3.771 0.472,2.357 2.356,4.398 1.1,3.614 2.2,1.1 1.414,3.143 2.356,-0.472 2.043,2.985 0,2.514 -2.043,2.828 -4.557,5.813 0.629,4.242 1.729,1.414 1.1,3.928 2.671,1.571 1.1,3.771 2.2,2.671 5.813,1.729 4.242,1.728 1.1,2.043 1.101,3.143 1.257,3.456 1.571,2.828 3.771,4.871 1.571,2.042 1.1,1.729 0.628,3.928 -1.414,2.356 -2.984,2.671 -3.457,5.186 2.828,10.841 9.741,4.242 9.27,6.284 4.714,9.427 5.027,5.185 11.941,1.729 8.641,2.828 2.043,2.2 3.456,6.599 3.143,5.342 2.199,5.971 0.314,10.212 4.714,12.098 5.027,7.542 6.285,2.985 1.728,5.97 2.828,19.012 3.3,4.713 7.07,1.414 15.554,3.614 10.527,4.713 9.112,5.813 1.257,4.399 -0.313,5.342 2.042,12.255 4.87,13.197 5.656,10.37 3.3,8.327 -4.242,19.168 -1.1,6.756 -6.285,18.068 -4.398,6.913 -14.77,27.495 -6.756,0.157 -5.342,15.711 -1.1,13.041 1.886,13.197 6.912,14.298 1.414,5.185 -0.471,11.627 0.628,7.227 -8.17,11.941 -9.427,12.569 -1.729,4.399 0,3.142 -65.674,-100.554 -128.521,-157.9 -15.868,-8.956 -175.654,-99.768 -5.499,-11.313 1.257,-3.143 0.942,-3.299 0.785,-3.771 0.314,-1.885 -0.157,-1.729 -1.257,-2.514 0.472,-1.571 0.785,-1.257 0,-2.2 -1.728,-3.456 -2.515,-2.985 -2.514,-2.514 -2.042,-2.671 -1.729,-2.671 -0.629,-1.257 -0.471,-0.472 -1.1,-0.314 -1.571,0 -2.2,0.157 -4.242,1.571 -1.1,-0.314 2.2,-6.127 1.57,-2.357 3.457,-2.671 1.414,-1.257 0.472,-1.728 -2.043,-3.929 -2.356,-4.556 -1.257,-1.886 -2.043,-1.414 -2.985,-3.456 -4.242,-3.3 -7.07,-3.457 -3.771,-1.728 -3.456,-1.414 -2.043,-0.157 -1.571,0.472 -2.984,0 -2.043,-1.101 -1.571,-1.571 -3.143,-2.356 -1.414,-2.356 -0.628,-2.356 0,-1.571 -1.414,-4.399 -0.472,-2.828 -0.942,-2.514 0,-2.514 0.314,-1.414 -0.157,-1.414 -0.314,-2.671 0.472,-2.2 0.471,-0.942 0.786,-2.985 0.157,-3.613 0,-0.472 -0.786,-3.613 0.943,-3.614 -1.101,-3.613 -0.313,-2.985 0,-3.613 0.313,-2.514 0,-1.571 -0.628,-1.729 -0.629,-1.1 -1.728,-0.786 -2.043,-0.471 -0.629,-1.886 -0.471,-1.886 0.942,-2.199 0,-1.886 -0.472,-1.885 0.943,-2.671 0.628,-2.357 -0.942,-3.299 -0.942,-1.729 -0.157,-1.886 0.471,-5.656 -0.785,-5.342 -0.785,-3.613 -0.786,-3.3 -0.157,-1.414 -0.628,-2.671 -0.943,-1.885 -1.885,-1.886 -2.2,-0.942 -1.885,-0.157 -2.985,-0.314 -1.414,-0.472 -1.571,0.314 -1.571,-1.1 -0.785,-1.414 -1.1,-0.629 0,-1.413 0.313,-0.786 0.629,-1.571 2.671,-1.414 1.886,-2.514 0.471,-3.3 -0.785,-3.142 -2.356,-2.828 -2.357,-1.257 -4.556,0 -2.828,-0.943 -2.043,-2.042 -0.942,-3.143 -2.514,-1.1 -1.886,-2.514 -0.629,-2.985 -1.1,-2.356 -0.628,-4.399 1.1,-12.255 -1.414,-2.2 -1.571,-1.257 -1.1,-1.571 -0.786,-1.1 -1.257,-0.785 -0.942,-0.472 -0.472,-1.257 -0.313,-1.414 -0.472,-0.942 0.157,-1.886 1.414,-1.1 0.942,-1.729 0.629,-1.885 0.313,-0.314 0,-1.571 1.101,-1.1 2.514,0.471 3.299,2.043 2.515,0.314 2.356,-0.786 1.257,-1.571 0.314,-2.514 -0.157,-2.671 -0.314,-4.557 0.157,-3.456 0.629,-2.671 0,-0.942 0.156,-2.828 0.314,-1.571 0.472,-2.828 0.157,-2.514 -0.157,-1.571 -1.1,-1.886 -1.101,-0.785 -1.728,-1.1 -2.357,-0.786 -1.257,-0.942 -1.257,-1.729 -0.157,0 -1.885,-3.928 -1.1,-2.671 -0.629,-1.729 -0.157,-2.199 0,-4.085 -2.514,-3.3 -1.414,-1.571 -1.571,-2.042 -1.571,-1.571 -0.157,-0.786 1.101,-1.885 2.042,-2.828 0.629,-1.257 -0.157,-1.101 -0.157,-1.413 -0.786,-2.828 -1.885,-5.343 -0.943,-1.257 0,0 -2.199,-2.356 0,0 -1.886,-2.042 0,0 -0.471,-0.943 0,-0.157 -1.414,-1.414 0,-0.157 -1.257,0 0,0 -1.257,0.157 0,0 -1.886,-0.157 0,0 -1.571,-0.157 0,0 -0.942,-0.157 0,0 -0.943,-0.471 0,0 -0.785,-0.628 -0.157,-0.157 -0.314,-1.414 -0.156,0 0,-2.042 0,0 -0.157,-2.2 0,0 -0.314,-1.571 0,-0.157 -0.786,-0.786 0,0 -1.414,-2.2 0,0 -1.1,-1.257 0,-0.157 -0.471,-1.1 0,0 0.156,-1.414 0,0 0.629,-1.571 0,-0.157 0.629,-0.785 0,0 2.042,-0.629 0,-0.157 0.786,-0.472 0,-0.157 -0.157,-0.786 0,-0.157 -0.157,-1.257 0,0 -0.157,-1.1 0.157,-0.157 0.628,-0.314 0.157,0 0.314,-1.1 0,0 -0.314,-1.1 0,0 -0.628,-1.1 0,0 -1.101,-0.786 0,-0.157 -0.313,-0.628 0,0 0,-1.257 0,-0.157 -1.101,-1.414 0,0 -0.156,-2.356 0,0 -1.571,-2.042 0,0 -1.886,-1.571 0,-0.157 -0.314,-0.471 0,0 -1.257,-4.085 0,0 -1.257,-3.928 0,0 -0.314,-1.257 0,0 -2.042,-6.285 106.053,-106.524 88.299,-68.502 41.479,-46.506 1.257,3.143 0.314,3.142 1.414,3.457 1.728,1.256 z"
       inkscape:connector-curvature="0"
       class="DEP_08 ZON_03" /></g></svg>