<?xml version="1.0" encoding="UTF-8" standalone="no"?>
<!-- Generator: Adobe Illustrator 19.2.0, SVG Export Plug-In . SVG Version: 6.00 Build 0)  -->

<svg
   xmlns:dc="http://purl.org/dc/elements/1.1/"
   xmlns:cc="http://creativecommons.org/ns#"
   xmlns:rdf="http://www.w3.org/1999/02/22-rdf-syntax-ns#"
   xmlns:svg="http://www.w3.org/2000/svg"
   xmlns="http://www.w3.org/2000/svg"
   xmlns:sodipodi="http://sodipodi.sourceforge.net/DTD/sodipodi-0.dtd"
   xmlns:inkscape="http://www.inkscape.org/namespaces/inkscape"
   version="1.1"
   id="SvgMunicipio"
   x="0px"
   y="0px"
   viewBox="0 0 1000 1000"
   style="enable-background:new 0 0 1000 1000;"
   xml:space="preserve"
   inkscape:version="0.91 r13725"
   sodipodi:docname="MUN_ID0822.svg"><metadata
     id="metadata10"><rdf:RDF><cc:Work
         rdf:about=""><dc:format>image/svg+xml</dc:format><dc:type
           rdf:resource="http://purl.org/dc/dcmitype/StillImage" /></cc:Work></rdf:RDF></metadata><defs
     id="defs8" /><sodipodi:namedview
     pagecolor="#ffffff"
     bordercolor="#666666"
     borderopacity="1"
     objecttolerance="10"
     gridtolerance="10"
     guidetolerance="10"
     inkscape:pageopacity="0"
     inkscape:pageshadow="2"
     inkscape:window-width="682"
     inkscape:window-height="480"
     id="namedview6"
     showgrid="false"
     inkscape:zoom="0.236"
     inkscape:cx="500"
     inkscape:cy="500"
     inkscape:window-x="0"
     inkscape:window-y="0"
     inkscape:window-maximized="0"
     inkscape:current-layer="svg" /><g
     id="g3"><path
       id="MUN_0822"
       d="m 254.7,108.4 34.2,12 9.6,3.3 9.1,28.9 1.6,3.8 2.2,5.2 1.9,4.3 2.2,5.1 2.5,5.1 3.9,-0.3 0.4,0.1 0.2,-0.5 3.6,0.4 4.4,0.5 3.2,0.3 9.3,1.1 2.8,0.3 2.3,0.3 1.8,0.2 1.2,0.2 1.4,0.2 4,0.4 1.9,0.2 2.5,0.3 8.3,0.8 1,0.1 1.3,0.1 1.2,0.1 5.8,0.7 0.9,0.1 1.9,0.2 0.5,0.1 0.9,0.1 1.6,0.2 1.5,0.1 7.9,0.8 2.5,0.2 0.4,0.1 2.8,0.2 2.2,0.2 1.7,0.2 3.9,0.4 3.8,0.6 3,0.2 2.9,0.4 0.5,0.1 3.2,0.3 7.5,0.8 3,0.2 1.9,0.2 2.5,0.3 3.5,0.4 1.6,0.3 2.9,0.2 2.1,0.2 0.9,0.1 1.5,0.2 0.8,0.1 1.5,0.2 1.6,0.2 1.7,0.3 2,0.1 1.5,0.2 1.8,0.2 1.6,0.2 2.1,0.2 4.8,0.5 2.2,0.2 3.5,0.3 1.4,0.4 2.9,0.1 2.2,0.4 1.6,0.1 3.8,0.2 1.3,0.2 1.1,-0.1 0.1,0 1.7,0.2 1.9,0.3 3.6,0.6 1.9,0.2 2.1,0.4 5.1,1.2 2.5,0.6 -0.1,0.2 -0.1,0.6 -0.2,1.6 -0.3,1.2 -1.1,4.8 -0.3,1.2 -0.3,1.4 -0.3,1.2 -0.2,1.1 -0.3,1.5 -0.2,0.8 -0.7,1.9 -2.7,10 -12.8,49 1.2,-0.1 0.8,0 0.6,0 0.7,0.1 1.1,0.2 0.8,0.3 1.1,0.5 1.4,0.5 1.3,0.5 1.1,0.4 1.5,0.4 1.2,0.4 2.1,0.8 1.8,0.6 0.9,0.4 0.5,1.1 5.2,3 3.8,2.1 0.9,0 0.4,0 1.2,-0.1 4.1,2.7 23.4,14.7 2.6,1.8 1.4,-0.6 3.3,-0.1 4.8,4.4 0.5,0.6 0.4,0.5 0.5,0.3 0.8,0.3 0.8,0.3 0.1,0.9 0.5,0.6 0.3,1.5 0.1,0 0.6,0.1 0.6,0.1 0.6,0.1 0.5,0.2 1.5,0.6 3.9,1.8 0.6,0.3 0.2,0.1 0.4,0.2 0.5,0.1 0.6,0.3 10.3,4.7 0.7,-6.2 0,0 0.4,-5.5 0,0 0.1,-0.6 0,0 1.8,-3.8 0,0 2,-3.5 0,0 1.8,-1.9 0,0 1.1,-0.6 0,0 1.4,-0.6 1.2,-0.2 1.5,0.2 0,0 1.3,0.2 2,0.6 2.4,0.9 0,0 2.7,1.2 7.8,4.4 0,0 6.8,3.7 0,0 3.5,2.2 0.1,0 1.8,0.6 1.8,0.4 1.2,0.2 0,0 2.8,0.7 0,0 2.8,1.3 1.9,0.6 0,0 3.7,1.4 0,0 3.2,0.8 0,0 2.1,0.4 1.7,0.2 3.5,0 0,0 2.2,0.1 0,0 2.1,0.1 0,0 10,-7.7 0.1,0 23.9,18.8 0,0 31,19.9 0,0 3.9,2.1 15.6,8.1 -1.8,-60.9 0.1,-0.1 88.1,-4.4 -0.2,0.5 0,0.2 0.1,0.2 0.1,0.2 0.1,0.2 0.1,0.2 0.1,0.1 0,0.2 0.1,0.2 0.2,0.4 0.2,0.2 0.3,0.2 0.4,0.3 0.3,0.2 0.2,0.1 0.1,0.1 0.1,0.2 0.2,0.2 0.3,0.2 0.3,0.2 0.3,0.2 0.5,0.2 0.4,0.2 0.3,0.2 0.1,0.2 0.1,0.2 0.1,0.2 0,0.4 0.1,0.4 0.1,0.4 0.1,0.2 0.2,0.3 0.3,0.4 0.2,0.4 0.2,0.2 0.3,0.3 0.1,0.2 0.2,0.2 0.1,0.2 0.1,0.3 0,0.2 0,0.4 0.1,0.3 0.1,0.4 0.1,0.2 0.1,0.2 0.2,0.3 0.3,0.2 0.2,0.2 0.2,0.1 0.2,0.1 0.2,0.1 0.1,0.1 0.1,0.1 0.1,0.3 0.1,0.1 0.2,0.1 0.2,0.1 0.1,0.1 0,0.2 0,0.2 0.1,0.1 0.1,0.2 0.1,0.1 0.2,0.2 0.2,0.1 0.2,0.1 0.2,0 0.2,0 0.2,-0.1 0.1,-0.1 0.1,-0.1 0.1,0 0.2,0.1 0.1,0.1 0.2,0 0.2,0 0.1,0.1 0.1,0.1 0.1,0.1 0,0.4 0.3,-0.7 -0.1,0.2 -0.1,0.2 -0.1,0.1 -0.1,0.4 0,0.3 0,0.4 0,0.2 -0.1,0.4 -0.1,0.4 -0.2,0.2 -0.2,0.3 -0.2,0.2 -0.2,0.2 -0.2,0.2 -0.2,0.2 -0.1,0.2 -0.1,0.4 -0.1,0.4 -0.1,0.3 -0.1,0.4 0.1,0.3 0.1,0.4 0.1,0.2 0.1,0.2 0,0.2 0,0.3 -0.1,0.4 -0.1,0.4 -0.2,0.3 -0.2,0.4 -0.3,0.3 -0.2,0.2 -0.3,0.2 -0.1,0.2 -0.1,0.2 -0.1,0.4 -0.1,0.4 -0.1,0.4 -0.1,0.4 -0.1,0.5 -0.1,0.2 -0.1,0.2 -0.2,0.4 -0.2,0.4 -0.2,0.2 -0.2,0.2 -0.2,0.2 -0.1,0.2 -0.1,0.5 -0.1,0.5 -0.1,0.5 -0.1,0.6 -0.1,0.4 0,0.2 0,0.2 -0.1,0.3 0,0.2 -0.2,0.3 -0.2,0.2 -0.2,0.2 -0.3,0.3 -0.2,0.2 -0.2,0.1 -0.1,0.2 -0.1,0.2 0,0.2 0.1,0.2 0.1,0.2 0.1,0.1 0.2,0.2 0.3,0.3 0.3,0.2 0.1,0.2 0.1,0.3 0.1,0.3 0,0.4 -0.1,0.2 -0.1,0.4 -0.1,0.3 0,0.2 0,0.2 0,0.1 0.1,0.1 0.1,0.1 0.1,0.1 0.1,0.1 0.1,0.1 0,0.1 0,0.2 -0.1,0.2 0,0.2 0.1,0.2 0.2,0.1 0.4,0.4 0.3,0.4 0.2,0.3 0.1,0.2 0.1,0.2 0.1,0.4 0.1,0.5 0,0.3 0.1,0.1 0.1,0.2 0.1,0.2 0.1,0.2 0.2,0.2 0.9,0.2 0.6,0.5 0.4,0.5 0.1,0.4 0,0.5 0,0.5 -0.5,1.6 -0.1,1.4 0,0.5 -0.1,0.8 -0.2,0.9 -0.1,0.5 -0.2,0.6 -0.2,0.6 -0.1,0.5 -0.1,0.5 0.1,0.6 0.2,0.4 0.3,0.4 0.1,0.4 0,0.4 -0.2,0.4 -0.2,0.5 -0.1,0.5 0.1,0.4 0.2,0.4 0.3,0.4 0.5,0.3 0.4,0.3 0.5,0.4 0.2,0.4 0.1,0.3 0,0.4 -0.1,0.4 -0.1,0.5 -0.2,0.4 0,0.5 0,0.3 0.2,0.5 0.1,0.4 0.2,0.4 0.1,0.4 0.1,0.4 0.1,0.5 0.1,0.8 -0.1,0.5 -0.1,0.5 -0.2,0.6 -0.4,0.8 -0.3,0.8 -0.3,1 -0.1,0.5 -0.1,0.9 0,1 -0.1,1.2 -0.1,2.1 -0.1,0.5 -0.2,0.6 -0.2,0.5 -0.3,0.8 -0.3,0.8 -0.3,0.8 -0.4,1.2 -0.1,0.5 0.1,0.5 0.2,0.2 0.3,0.2 0.4,0.1 0.3,0.2 0.2,0.3 0.2,0.4 0.2,0.5 0.1,0.5 0,0.9 0.1,1.1 0.2,1 0.2,0.9 0.2,0.8 0.1,0.9 0.2,0.5 0.5,0.5 0.5,0.3 0.6,0.2 0.5,0.1 0.4,0.2 0.3,0.2 0.1,0.5 0.2,0.3 0.1,0.5 0.3,0.9 0.3,0.5 0.4,0.5 0.4,0.3 0.7,0.4 0.7,0.5 0.8,0.8 0.8,0.8 0.5,0.8 0.6,0.9 0.6,1.1 0.7,0.6 0.3,0.2 0.4,0.1 0.3,0 0.2,-0.2 0.2,-0.2 0.4,-0.3 0.4,-0.5 0.4,-0.3 0.3,-0.2 0.5,-0.1 0.6,0 1.4,0.1 1,0.2 0.5,0.2 0.2,0.4 0.1,0.4 0.2,0.6 0,0.6 0.2,0.6 0.2,0.5 0.2,0.4 0.2,0.3 0.1,0.3 0.1,0.4 0.1,0.2 0.2,0.4 0.6,0.5 0.5,0.3 0.9,0.3 1,0.2 1.2,0.1 1,0.1 0.6,0.1 1,0.1 0.8,0.2 0.8,0.4 0.8,0.3 0.7,0.5 0.5,0.4 0.8,0.5 0.8,0.8 0.6,0.5 0.4,0.4 0.3,0.4 0.3,0.3 0.2,0.3 0.2,0.6 0.2,0.5 0,0.3 -0.1,0.8 -0.2,0.4 -0.2,0.6 -0.2,0.4 -0.2,0.4 -0.3,0.4 -0.1,0.2 0,0.2 0,0.2 0.1,0.1 0.2,0.2 0.2,0.1 0.2,0.1 0.2,0 0.2,0 0.3,0 0.2,0 0.3,0.1 0.2,0.1 0.2,0.3 0.3,0.4 0.4,0.4 0.2,0.2 0.4,0.2 0.4,0.2 0.5,0.2 0.5,0.1 0.5,0.1 0.3,0.1 0.5,0.1 0.6,0.2 0.5,0.1 0.6,0.1 0.5,0.1 0.4,0.1 0.5,0.1 0.5,0.2 0.5,0.2 0.5,0.3 0.4,0.2 0.2,0.2 0.2,0.2 0.2,0.2 0.2,0.2 0.2,0.1 0.4,0.1 0.4,0.1 0.8,0 0.2,-0.1 0.5,-0.2 0.5,-0.3 0.4,-0.3 0.3,-0.2 0.3,-0.3 0.2,-0.2 0.1,-0.2 0.3,-0.1 0.2,0.1 0.3,0 0.4,-0.1 0.2,-0.1 0.2,-0.2 0.3,-0.2 0.2,-0.1 0.5,0 0.3,-0.1 0.1,0.1 0.1,0 0.1,0.1 0.1,0.2 0,0.2 0,0.4 0,0.6 -0.1,0.3 -0.1,0.2 -0.1,0.2 -0.1,0.2 -0.4,0.5 -0.6,0.8 -0.4,0.5 -0.1,0.4 -0.2,0.2 -0.1,0.1 -0.3,0.1 -0.2,0.2 -0.2,0.1 -0.1,0.3 -0.1,0.3 -0.1,0.3 0,0.4 0,0.5 0.1,0.4 0,0.4 0.1,0.3 0.1,0.2 0.1,0.3 0.1,0.2 0.2,0.3 0.5,0.5 0.2,0.3 0.2,0.2 0.2,0.2 0.2,0.3 0.1,0.1 0.2,0.2 0.4,0.1 1.1,0.1 0.3,0.1 0.4,0.1 0.3,0.1 0.2,0.1 0.4,0.2 0.4,0.1 0.4,0 0.5,-0.1 0.6,-0.2 0.4,-0.2 0.2,-0.1 0.4,-0.1 0.3,0 0.2,0.1 0.3,0.1 0.3,0.1 0.2,-0.1 0.2,-0.1 0.4,-0.3 0.1,-0.2 0.2,-0.1 0.4,-0.1 0.3,0 0.4,0 0.4,0.1 0.5,0.1 0.3,0.2 0.2,0.2 0.1,0.2 0.1,0.4 -0.1,0.3 -0.1,0.2 -0.2,0.3 -0.2,0.4 -0.1,0.3 -0.2,0.1 -0.2,0.2 -0.2,0.2 -0.2,0.3 -0.2,0.5 -0.2,0.4 -0.3,0.5 -0.2,0.6 -0.4,0.3 -0.2,0.2 -0.4,0.2 -0.4,0.3 -0.4,0.4 -0.4,0.4 -0.2,0.4 -0.3,0.5 -0.3,0.4 -0.1,0.4 0,0.3 0.1,0.3 0.1,0.2 0.2,0.3 0.4,0.3 0.5,0.5 0.4,0.2 0.4,0.1 0.4,0.2 0.4,0.1 0.4,0.2 0.4,0.2 0.7,0.4 0.4,0.2 0.5,0.4 0.5,0.5 0.6,0.6 0.5,0.6 0.5,0.5 0.2,0.4 0.1,0.6 0.1,0.9 0,0.3 -0.1,0.3 -0.1,0.2 -0.1,0.1 -0.1,0.4 -0.1,0.2 -0.1,0.3 0,0.2 0.1,0.4 -0.1,0.3 -0.1,0.4 -0.2,0.3 -0.2,0.2 -0.1,0.2 -0.1,0.3 -0.1,0.5 -0.1,0.2 -0.2,0.2 -0.1,0.3 -0.1,0.3 -0.1,0.4 0,0.2 0.1,0.3 0.1,0.2 0.1,0.3 0.4,0.3 0.2,0.3 0.3,0.2 0.4,0.3 0.4,0.4 0.4,0.3 0.3,0.3 0.6,0.5 0.8,0.4 0.8,0.4 0.4,0.2 0.5,0.2 0.5,0.2 0.4,0.4 0.2,0.2 0.1,0.3 0.1,0.2 0.1,0.2 0.1,0.1 0.2,0.1 0.3,0 0.3,-0.1 0.2,0 0.3,0.2 0.2,0.1 0.2,0.2 0.2,0.3 0.3,0.4 0.4,0.3 0.2,0.1 0.3,0.1 0.4,0.3 0.4,0.4 0.5,0.6 0.8,1.1 0.9,1.1 0.6,0.8 0.4,0.8 0.4,0.6 0.2,0.4 0.3,0.9 0.1,0.4 -0.1,0.4 0,0.4 0,0.4 0.1,0.4 0.2,0.5 0.2,0.4 0.3,0.6 0.4,1 0.3,0.9 0.3,0.9 0.2,0.9 0.2,1 0,0.7 0,0.5 -0.1,0.5 -0.1,0.5 -0.2,0.4 -0.3,0.4 -0.2,0.2 -0.2,0.2 -0.2,0.2 -0.1,0.2 -0.2,0.2 -0.2,0.2 -0.3,0.1 -0.4,0.2 -0.1,0.2 -0.3,0.2 -0.3,0.1 -0.2,0.2 -0.2,0.2 -0.2,0.2 -0.4,0.3 -0.4,0.2 -0.4,0.4 -0.2,0.3 -0.4,0.2 -0.4,0.3 -0.3,0.2 -0.4,0.1 -0.4,0.2 -0.5,0.4 -0.5,0.2 -0.5,0.2 -0.5,0.1 -0.5,0.1 -0.7,0 -0.7,0 -0.6,-0.2 -0.5,-0.2 -0.8,-0.4 -0.8,-0.6 -0.7,-0.6 -0.7,-0.9 -0.7,-0.8 -0.8,-1.1 -0.3,-0.5 -0.2,-0.4 -0.2,-0.2 -0.2,-0.2 -0.3,-0.1 -0.2,-0.1 -0.4,-0.1 -0.3,-0.1 -0.3,-0.3 -0.4,-0.4 -0.3,-0.4 -0.4,-0.4 -0.4,-0.3 -0.4,-0.2 -0.9,-0.2 -0.3,0.1 -0.5,0.4 -0.4,0.2 -0.4,0.4 -0.4,0.5 -0.4,0.5 -0.2,0.5 -0.2,0.8 0,0.7 0,1 0,1.1 0.1,1 0.4,1.4 0.6,1.1 0.8,1.2 0.5,1.1 0.4,0.5 0.5,0.5 0.7,0.5 1.1,0.7 1.1,0.6 1.8,1.1 2.2,1.1 0.9,0.6 0.8,0.7 0.7,0.6 0.4,0.6 0.3,0.6 0.2,0.9 -0.1,1.3 -0.2,1 -0.9,1.5 -1.2,1.7 -0.5,0.5 -0.5,0.5 -0.6,0.2 -0.8,0.2 -1.1,0.2 -1.1,0 -0.9,-0.1 -0.8,-0.1 -0.9,0 -0.8,0.1 -1.4,0.1 -1.8,0.2 -2.5,0.2 -1.8,0.2 -1.2,0 -0.5,0 -0.5,0 -0.6,0.1 -0.5,0.1 -0.8,0.2 -0.9,0.5 -0.8,0.6 -0.7,0.7 -0.5,0.7 -0.3,0.7 -0.5,1.5 -0.2,1.5 -0.1,1.5 0.1,0.6 0.1,0.8 0,0.4 -0.1,0.6 -0.2,0.6 -0.2,0.6 -0.1,0.6 -0.1,0.9 -0.1,1.1 -0.2,1.2 -0.5,1.5 -0.6,1.2 -0.4,1.1 -0.3,0.8 -0.1,0.8 0.1,0.8 0.2,0.8 0.4,0.8 0.6,1 0.7,0.7 0.8,0.8 1,0.6 1.4,0.9 2,1.6 0.8,0.8 1.5,1.4 1.1,1.2 0.7,1.1 0.4,0.8 0.2,0.5 0.1,0.4 0.1,0.6 -0.1,0.5 -0.2,0.5 -0.4,0.8 -0.3,0.6 -0.6,0.6 -1.1,0.8 -0.9,0.6 -0.8,0.5 -0.6,0.7 -0.2,0.3 -0.5,0.7 -1.8,2.4 -1.5,2 -1.7,2.2 -1.5,1.7 -0.8,1.2 -0.5,0.8 -0.4,1.1 -0.3,1.1 -0.1,0.8 0.1,0.9 0.2,0.9 0.2,0.9 0.5,0.9 0.5,0.7 1.5,1.4 0.8,0.6 1.1,0.6 1.5,0.3 1.2,0.1 1.8,-0.2 1.4,-0.3 1.2,-0.3 1.7,-0.7 1.6,-0.8 1.2,-0.9 0.9,-0.9 0.8,-0.9 0.9,-0.9 1.1,-0.8 1,-0.8 1.1,-0.5 1.6,-0.6 2.4,-0.3 2.8,0 1.5,0.1 2.2,0.2 3.5,0.5 6.7,1.5 5.2,1.5 4.2,1.4 3.1,1.2 4.5,1.7 3.4,1.8 3.5,2 1.4,1.2 1.7,1.6 1.8,2.7 1.7,3.9 0.8,3.1 0.4,4 -0.2,3.4 -0.2,2.3 -0.1,1.6 0.4,2.4 0.3,1.6 0.1,1.2 -0.2,1.4 -0.2,1.5 -0.4,1.4 -1,1.7 -1.4,1.6 -1.2,1.1 -4.5,2.5 -3,1.2 -1.9,1.1 -1.3,0.9 -1.5,1.6 -1.1,1.5 -0.9,1.5 -0.3,1.4 -0.4,2.1 -0.2,3 0.1,2.7 0.2,1.1 0.5,1.1 1.1,1.4 1.5,1.9 1.3,1.4 1.2,1.6 1.1,1.5 0.7,1.3 0.5,1.5 0.5,1.9 0.1,2.9 -0.2,1.9 -0.4,2.4 -0.5,1.6 -0.5,1.1 -1.2,1.4 -1.6,1.6 -2.4,1.8 -2.7,1.2 -3.5,1.2 -3.5,0.5 -1.9,0.1 -2.8,0 -3.2,0 -2.9,0.2 -2.1,0.1 -7.5,0.9 -7.2,1.2 -4.2,0.5 -4.1,0.2 -3.2,0.1 -4.4,0.4 -3.5,0.4 -2.2,1 -2.6,1.3 -1.8,1.6 -2,2.2 -1.7,2.7 -0.9,2.6 -0.5,3.5 -0.5,4.9 -0.1,3.4 0.1,4.1 -0.5,3.5 -1.9,7.2 -1.1,5.1 1.1,0 0.8,0 2.1,0 2.2,0.4 2.3,0.8 3.1,1.3 2.9,2.2 3.2,2.4 2.9,2.7 2.4,2.4 1.9,2.1 1.5,2.4 0.9,2.3 0.5,2.1 0.5,2.4 0.4,2.7 0.5,2.6 0.8,2.4 1,2.3 1.5,2 1.8,2 1.8,1.5 2.6,1.2 1.9,0.6 4.1,0.3 6.2,0.2 3.2,0.5 2.7,0.7 2.7,0.7 1.6,0.9 1.7,1.4 1.7,1.4 1.7,2.1 1.3,2.2 0.9,2.4 1.2,2.9 1.6,2.4 1.5,1.3 2.5,2 3.6,2.1 2.8,2.1 2.2,2 1.7,1.6 1.6,1.9 0.5,1.4 0.4,1.6 0.2,1.3 0.5,1.7 0.5,2.9 0.5,2.1 0.8,1.7 1.2,2 1.7,2.1 1.6,1.6 2.1,1.8 1.9,0.8 1.9,0.9 2,1.2 1.7,1.2 2.2,1.4 2.6,1.4 3,1 2.5,0.9 2.2,0.4 2.1,0.3 3.9,0.1 4.7,-0.2 3.5,0 2.1,-0.2 0.3,0.6 0.4,0.8 0.6,1.4 1.3,3.1 1.1,2.7 1.1,3.1 0.9,2.4 0.4,0.9 0.3,1.5 0.2,1.4 0.3,1.2 0.4,1 0.8,1.4 0.7,1.5 0.6,1.2 0.4,1 0.2,1.1 0,1.7 0.1,1.2 0.1,1.2 0.1,1.1 -0.1,0.8 -0.1,0.8 -0.3,1.3 -0.1,1 -0.1,1.1 -0.2,1.6 -0.2,1 -0.2,1.9 -0.2,2.3 0,0.6 0.2,0.8 0.4,1 0.4,0.8 1.1,1.5 1.6,2.1 -1.4,1.1 -1.7,1.4 -0.7,0.4 -0.6,0.4 -0.5,0.3 -0.9,0.5 -1,0.4 -0.6,0.2 -0.9,0.2 -1.3,0.2 -1.2,0.2 -0.9,0.2 -0.8,0.1 -0.6,-0.1 -0.9,-0.1 -0.9,-0.3 -1.5,-0.6 -1.1,-0.5 -2.2,-1.4 -1,-0.7 -1.1,-0.6 -1.1,-0.5 -1.2,-0.2 -1.1,-0.3 -0.9,-0.6 -1.3,-0.9 -1.1,-1.1 -0.8,-0.6 -0.6,-0.5 -0.5,-0.3 -0.7,-0.6 -0.6,-0.6 -0.7,-0.9 -2.8,-2.9 -2.2,-2.3 -1.8,-1.9 -0.8,-0.6 -1.5,-1.5 -1.1,-1.1 -1.8,-2.1 -0.3,-1.2 0.1,-1.1 1.4,-1.4 0.9,-1.9 -0.1,-1.3 -0.5,-0.5 -0.6,-1 -0.7,-1.1 -1.2,-1.6 -0.8,-1 -1.2,-1.4 -1.3,-1.6 -1.1,-1.2 -0.7,-0.9 -2.2,-2.5 -2.1,-1.7 -2.5,-1.8 -1.4,-0.6 -2.1,-0.5 -2,-0.4 -1.9,-0.3 -0.8,-0.1 -0.7,-0.1 -0.5,0 -0.6,0.1 -1.7,0.5 -1.1,0.4 -1.6,0.4 -1.5,0.2 -3.6,0.1 -1.3,0.1 -0.9,0.1 -0.9,0.2 -1,0.1 -0.9,0.1 -1.1,0 -2,-0.1 -1.8,-0.4 -1.6,-0.5 -2.1,-1 -1.5,-0.9 -1.4,-0.7 -1.4,-0.6 -1.5,-0.6 -1.4,-0.4 -1.2,-0.3 -0.8,-0.2 -0.9,-0.2 -0.9,-0.1 -0.8,0 -0.6,0.1 -0.5,0 -0.4,0 -0.6,-0.1 -0.5,-0.2 -0.6,-0.4 -0.6,-0.4 -0.5,-0.5 -0.9,-0.7 -0.9,-0.6 -0.6,-0.4 -0.4,-0.3 -0.4,-0.2 -0.2,-0.1 -0.4,0 -0.3,0 -0.2,0 -0.4,0.1 -0.4,0 -0.3,-0.1 -0.3,-0.1 -0.5,-0.4 -0.8,-0.5 -0.1,-0.1 -0.1,-0.2 -0.1,-0.2 -0.1,-0.2 -0.1,-0.6 -0.1,-0.2 -0.1,-0.1 -0.1,-0.1 -0.1,-0.1 -0.2,0 -0.2,0 -0.1,0.1 -0.1,0.1 -0.1,0.1 -0.1,0.1 -0.1,0.1 -0.1,0 -0.1,0.1 -0.1,0 -0.1,-0.1 -0.5,-0.2 -0.1,-0.1 -0.1,-0.1 -0.7,0 -0.1,0 -0.1,0 -0.1,0.1 -0.1,0.1 -0.1,0.1 -0.2,0.2 -0.3,0.2 -0.2,0.1 -0.2,0.1 -0.2,0 -0.2,-0.1 -0.1,-0.1 -0.3,-0.3 -0.2,-0.3 -0.9,-1 -0.1,-0.2 -0.1,-0.1 0,-0.2 -0.1,-0.2 -0.1,-0.2 -0.1,-0.2 -0.1,-0.2 -0.2,-0.1 -0.1,-0.2 -0.2,-0.1 -0.2,-0.1 -0.2,-0.1 -0.2,0.1 -0.2,0.1 -0.2,0.2 -0.2,0.2 -0.1,0.2 0,0.2 0,0.3 0,0.2 0,0.2 -0.1,0.2 -0.1,0.2 -0.1,0.2 -0.1,0.1 -0.1,0.1 -0.1,0.1 -0.1,0.2 -0.1,0.2 0.1,0.1 0.1,0.3 0,0.2 0,0.6 0.1,0.4 -0.1,0.2 -0.1,0.6 -0.7,3.6 -8.5,-7.1 -6.2,0.7 -0.3,-0.2 -1.2,-0.6 -1.4,-0.6 -0.5,-0.2 -3.1,-1.6 -0.2,-0.2 -0.2,-0.1 -0.3,-0.1 -0.6,-0.2 -1.2,-0.5 -0.6,-0.3 -0.2,-0.1 -0.4,-0.2 -0.9,-0.4 -0.8,-0.2 -1.5,-0.6 -2.7,-0.9 -3.5,-1.2 -1.5,-0.5 -1,-0.4 -1.1,-0.4 -0.7,-0.2 -1.4,-0.2 -0.5,-0.1 -0.8,-0.2 -0.4,-0.1 -0.7,-0.1 -2.3,-0.5 -1.1,-0.1 -1.1,-0.2 -0.9,-0.1 -0.4,-0.1 -0.8,-0.1 -0.6,-0.2 -0.9,-0.1 -0.9,-0.2 -0.6,-0.1 -0.7,-0.1 -0.6,-0.1 -0.6,-0.1 -0.2,-0.1 -0.5,-0.2 -0.8,-0.2 -1.6,-0.2 -0.9,-0.2 -1.8,-0.2 -0.2,0 -1.3,-0.4 -0.4,-0.1 -0.9,-0.1 -0.2,-0.1 -0.4,-0.2 -0.6,-0.2 -0.4,-0.1 -0.5,-0.1 -1.1,-0.3 -1.2,-0.5 -0.4,-0.2 -0.9,-0.4 -0.2,-0.1 -0.3,0 -0.6,0 -0.9,-0.1 -0.7,-0.1 -0.6,-0.1 -0.8,-0.2 -0.6,-1.6 -0.8,-0.3 -0.2,-0.1 -0.4,-0.3 -0.2,-0.1 -0.8,-0.4 -0.4,-0.1 -0.5,-0.1 -0.2,-0.1 -0.2,-0.1 -0.5,-0.1 -0.4,-0.2 -0.2,-0.1 -0.6,0 -0.2,0 -0.2,-0.1 -0.4,-0.2 -0.5,-0.1 -0.3,0 -0.4,0 -0.8,-0.2 -0.2,-0.1 -0.4,-0.1 -0.2,0 -0.2,-0.1 -1.6,-0.6 -1.1,-0.2 -0.6,-0.1 -0.6,-0.1 -0.9,-0.2 -0.4,-0.1 -0.7,-0.2 -0.9,-0.2 -0.6,-0.2 -0.6,-0.2 -0.8,-0.2 -0.6,-0.2 -0.6,-0.2 -0.2,-0.1 -0.4,-0.2 -0.4,-0.2 -0.8,0.1 -0.4,-0.1 -0.4,-0.1 -1.1,-0.3 -0.2,-0.1 -1.4,-0.1 -0.8,-0.1 -0.5,-0.1 -1.1,-0.4 -1.2,-0.4 -0.4,-0.2 -0.6,-0.2 -0.5,-0.1 -0.6,-0.3 -0.4,-0.1 -0.8,-0.2 -0.2,0 -0.5,-0.2 -0.6,-0.3 -0.6,-0.2 -0.4,-0.2 -0.5,-0.4 -0.9,-0.5 -0.2,-0.1 -0.2,-0.1 -0.1,-0.1 -0.4,-0.3 -0.2,-0.1 -0.1,-0.2 -0.1,-0.1 -0.1,-0.2 -0.5,-0.5 -0.1,-0.2 -0.1,-0.2 -0.1,-0.2 -0.1,-0.2 -0.1,-0.2 -0.2,-0.2 -0.2,-0.1 -0.1,-0.2 -0.1,-0.2 -0.1,-0.2 -0.2,-0.4 -0.2,-0.2 -0.1,-0.1 -0.1,-0.2 -0.3,-0.6 -0.4,-0.8 -0.2,-0.4 -0.6,-1.2 -0.2,-0.6 -0.1,-0.2 -0.1,-0.5 -0.1,-0.4 -0.1,-0.6 -0.3,-0.9 -0.2,-0.9 -0.4,-0.9 -0.1,-0.4 -0.2,-1.1 -0.2,-1.1 -0.4,-1.8 -0.1,-0.9 -0.2,-0.9 -0.1,-0.9 -0.5,-1.2 -0.2,-0.4 -0.3,-0.6 -0.2,-0.4 -0.5,-1.1 -0.4,-0.8 -0.3,-0.6 -0.3,-0.4 -0.4,-1.1 -1.1,-2.5 -0.6,-1.6 -0.2,-0.4 -0.3,-0.6 -0.6,-1.5 -0.2,-0.2 -4.3,-7.1 -2.9,-3.1 -0.1,-0.1 -2.7,-2.5 -3.1,-2.9 -2.3,-2.2 -0.3,-0.5 -0.2,-0.4 -0.4,-0.6 -0.3,-0.7 -8.7,-15 -5.4,-9.1 0,0.4 -0.1,0.5 -0.2,0.5 -0.1,0.2 -0.1,0.2 -0.2,0.1 -0.1,0.2 -0.2,0.2 -0.2,0.1 -0.2,0.1 -0.6,0.2 -0.5,0.2 -0.4,0.2 -3,1.5 -1.1,0.7 -0.2,0.1 -0.8,0.4 -0.9,0.4 -0.9,0.4 -0.2,0.1 -1.5,0.6 -1.5,0.8 -5.1,2.5 -0.3,0.2 -1.9,0.6 -0.6,0.3 -0.4,0.2 -0.8,0.2 -0.5,0.1 -0.4,0 -1.6,0.1 -1.7,-0.1 -1,-0.4 -0.6,-0.2 -0.8,-0.3 -0.5,-0.1 -0.8,-0.3 -0.8,-0.2 -1,-0.4 -0.3,-0.5 -0.4,-0.1 -0.5,-0.1 -0.3,0 -0.4,-0.2 -0.6,-0.2 -0.6,-0.2 -0.8,-0.3 -0.8,-0.2 -0.6,-0.2 -0.8,-0.2 -2,-0.6 -2.1,-0.5 -0.7,-0.1 -0.5,-0.1 -1.5,-0.4 -0.2,-0.1 -0.6,-0.1 -0.5,-0.1 -0.4,-0.2 -0.9,-0.3 -0.6,-0.1 -2,-0.5 -1.4,-0.4 -0.2,-0.1 -0.4,-0.2 -0.5,-0.1 -1.3,-0.4 -1.1,-0.2 -0.2,-0.2 -0.3,-0.3 -0.4,-0.2 -1.1,-0.4 -0.4,-0.2 -0.4,-0.2 -0.2,-0.1 -0.8,-0.4 -0.6,-0.3 -0.2,-0.1 -0.5,-0.1 -0.4,-0.2 -0.2,-0.1 -0.4,-0.3 -0.1,-0.1 -0.9,-0.2 -1.8,-0.9 -0.6,-0.2 -1,-0.6 -0.6,-0.4 -0.3,-0.2 -0.5,-0.2 -0.1,-0.1 -0.4,-0.3 -0.2,-0.1 -0.3,-0.2 -0.5,-0.4 -0.5,-0.2 -0.5,-0.4 -7,-4.8 -6,-3.9 -7.3,-3.8 -0.1,-0.1 -0.4,-0.2 -0.4,-0.1 -0.6,-0.4 -0.4,-0.2 -0.2,-0.1 -0.1,-0.1 -0.2,-0.2 -0.2,-0.1 -0.2,-0.1 -0.2,-0.1 -0.2,-0.2 -0.1,-0.1 -0.2,-0.1 -0.4,-0.2 -0.4,-0.2 -0.3,-0.2 -0.3,-0.2 -0.2,-0.2 -0.2,-0.2 -0.3,-0.1 -0.3,-0.2 -0.2,-0.1 -0.2,-0.1 -0.1,-0.1 -0.2,-0.2 -0.4,-0.1 -0.2,-0.1 -0.2,-0.2 -0.1,-0.1 -0.1,-0.2 -0.4,-0.1 -0.2,-0.1 -0.2,-0.2 -0.2,-0.4 -0.5,-0.3 -0.2,-0.1 -0.3,-0.2 -0.3,-0.3 -0.5,-0.2 -0.3,-0.1 -0.2,-0.1 -0.2,-0.1 -0.3,-0.3 -0.4,-0.4 0.2,0 -0.4,-0.1 -0.1,0 -0.1,-0.1 -0.5,-0.6 -0.4,-0.2 -0.5,0 -0.4,-0.4 -0.5,-0.4 -0.3,-0.2 -0.2,0 -0.2,-0.1 -0.1,-0.1 -0.2,-0.1 -0.2,-0.2 -0.1,-0.1 -0.2,-0.1 -0.4,0 -0.1,-0.1 -0.2,-0.1 -0.1,-0.1 -0.2,-0.2 -0.3,-0.2 -0.2,-0.2 -0.4,-0.1 -0.4,0 -0.4,-0.4 -0.4,-0.3 -0.6,-0.2 -0.5,-0.4 -0.6,-0.4 -0.5,-0.4 -0.6,-0.2 -0.6,-0.4 -0.5,-0.2 -0.4,-0.2 -0.5,-0.4 -0.5,-0.4 -0.7,-0.3 -0.5,-0.1 -0.7,-0.2 -0.3,-0.4 -0.3,-0.2 -0.6,-0.2 -0.9,-0.6 -0.2,-0.3 -0.4,-0.4 -0.2,-0.1 -0.2,-0.1 -0.4,-0.4 -0.4,-0.3 -0.4,-0.3 -0.4,-0.1 -0.8,-0.7 -0.4,-0.1 -0.4,-0.1 -0.2,-0.3 -0.2,-0.1 -0.3,-0.1 -0.1,-0.2 -0.3,-0.1 -0.2,-0.1 -0.3,-0.2 -0.3,-0.2 -0.5,-0.4 -0.5,-0.2 -0.2,-0.2 -0.3,-0.2 -0.4,-0.2 -0.5,-0.1 -0.2,-0.3 -0.5,-0.4 -0.5,-0.1 -0.6,-0.5 -0.4,-0.3 -0.6,-0.1 -0.6,-0.6 -0.3,-0.3 -0.8,-0.2 -0.2,-0.1 -0.5,-0.4 -0.1,0 -0.3,-0.2 -0.3,-0.1 -0.2,-0.2 -0.5,-0.2 -0.4,-0.3 -0.4,-0.2 -0.3,-0.1 -0.4,-0.3 -0.4,-0.1 -0.4,-0.3 -0.4,-0.1 -0.2,-0.2 -0.4,-0.2 -0.3,-0.2 -0.2,-0.1 -0.5,-0.2 -0.2,0 -0.3,-0.1 -0.4,-0.4 -0.4,-0.2 -0.4,-0.1 -0.4,-0.2 -0.5,-0.2 -0.5,-0.3 -0.3,-0.3 -0.1,0 -0.2,-0.2 -0.1,-0.1 -0.2,-0.1 -0.2,-0.1 -0.7,-0.5 -0.6,-0.2 -0.4,-0.2 -0.2,-0.1 -0.5,-0.3 -1.2,-0.8 -9.4,-4.7 -2.7,-2 -4.5,-2.2 -2.5,-0.8 -5.2,-2.9 -1.4,-0.8 -11.1,-5.3 -5.7,-2.7 -4.5,-2.4 -0.4,-0.2 -7.4,-3.7 -6.2,-3.4 -9.3,-4.5 -3.2,-1.8 -6,-3.2 -6.8,-3.7 -4.8,-2.7 -2.2,-0.8 -0.9,-0.2 -1.6,-0.6 -1.1,-0.8 -2,-1 -2.5,-1.4 -1.8,-0.8 -1.6,-0.8 -1.5,-0.5 -1.3,-0.8 -1.8,-1.3 -1.2,-0.8 -1.5,-0.8 -2.4,-1.1 -5.8,-2.7 -4.3,-2.2 -3.4,-1.5 -35.8,-17.6 -0.1,0 -12.2,-5.7 -5.7,-2.7 -5.2,-2.5 -4.4,-2.3 -1.6,-0.6 -1.8,-0.8 -0.2,-0.1 0,0 -0.3,-0.2 -0.2,-0.1 -0.2,-0.1 -0.1,-0.1 -0.2,0 0,0.7 -0.1,-0.1 -0.1,-0.1 -0.1,-0.1 -0.3,-0.1 -0.1,-0.1 -0.1,0 -0.2,-0.1 -0.1,-0.1 -0.3,-0.1 -0.1,-0.1 -0.2,0 -0.2,-0.1 0,0 -0.4,-0.1 -0.3,-0.4 -0.1,-0.1 -0.1,-0.1 -0.2,-0.1 -0.1,-0.1 -0.2,-0.1 -0.1,-0.1 -0.3,-0.1 -0.1,0 -0.2,0 -0.1,-0.1 -0.2,-0.2 -0.1,-0.1 -0.2,-0.1 -0.2,-0.1 -0.2,0 -0.2,0 -0.4,-0.1 -0.2,-0.2 -0.2,-0.2 -0.2,-0.1 -0.2,-0.1 -0.4,-0.2 -0.2,-0.1 0,0 -0.2,0 -0.1,-0.1 -0.2,-0.1 0,-0.1 -0.2,-0.1 -0.3,-0.1 -0.1,-0.1 -0.2,-0.1 -0.1,-0.1 -0.2,0 -0.1,0 -0.2,-0.1 -0.1,-0.1 -0.2,-0.2 -0.1,-0.1 -0.1,-0.1 -0.2,-0.1 -0.1,-0.1 -0.1,-0.1 -0.1,0 -0.3,0 -0.1,0 -0.2,0 -0.1,0 -0.2,-0.1 -0.1,-0.1 -0.2,-0.2 -0.1,-0.1 -0.1,-0.1 -0.1,-0.1 -0.1,-0.1 -0.1,0 -0.3,-0.1 -0.2,-0.1 -0.1,0 -0.1,0.1 -0.1,0 -0.1,0 0,0.1 0,0 -0.1,-0.1 -0.1,-0.1 -0.1,-0.1 -0.1,-0.1 -0.1,-0.1 -0.1,-0.1 -0.1,-0.1 -0.1,-0.1 -0.2,0 -0.2,-0.1 -0.1,-0.1 -0.2,-0.1 -0.1,-0.1 -0.1,0 -0.1,0 -0.1,-0.1 -0.1,-0.1 -0.1,0.1 -0.1,0 -0.2,-0.1 -0.1,-0.1 -0.1,-0.1 -0.1,0 -0.1,-0.1 -0.1,-0.1 -0.1,0 -0.3,-0.1 -0.1,-0.1 -0.1,-0.1 -0.1,-0.1 -0.1,-0.1 -0.1,0 -0.1,-0.1 -0.1,0 -0.1,-0.1 -0.1,-0.1 -0.3,0 -0.1,0 -0.1,-0.1 -0.2,-0.1 -0.1,-0.1 0.5,1.2 0,0 -0.2,0 -0.1,-0.1 -0.2,-0.1 -0.1,-0.1 -0.1,-0.1 -0.1,-0.1 -0.2,0 -0.1,-0.1 -0.2,-0.1 -0.1,-0.1 -0.1,-0.1 0,0 -0.1,-0.1 0,0 -0.2,-0.1 -0.1,0 -0.1,0 0,0 -0.1,-0.1 -0.1,0 -0.1,-0.1 -0.1,-0.1 -0.1,-0.1 -0.1,-0.1 -0.4,-0.2 -0.1,-0.1 -0.2,-0.1 -0.1,-0.1 -0.4,-0.1 -0.1,0 -0.1,0 -0.2,0 -0.1,-0.1 -0.1,-0.2 -0.1,-0.1 -0.3,-0.1 -0.1,-0.1 -0.2,-0.1 0,-0.1 -0.2,-0.1 -0.1,-0.1 -0.2,-0.1 -0.2,-0.1 -0.1,-0.1 -0.2,-0.1 -0.2,-0.1 -0.3,-0.1 -0.2,0 -0.1,0 -0.1,0 -0.1,0 0.1,0 -0.1,-0.1 -0.1,0 -0.1,-0.1 -0.1,-0.1 -0.1,-0.1 0,-0.1 -0.1,-0.1 0,-0.1 -0.1,-0.1 -0.1,0 -0.1,-0.1 -0.1,-0.1 -0.2,-0.2 -0.1,-0.1 -0.1,0 -0.2,0 -0.2,0 -0.1,-0.1 -0.1,-0.1 -0.1,-0.1 -0.3,-0.1 -0.1,0 -0.1,0 -0.1,-0.1 0,-0.1 -0.1,-0.1 -0.1,-0.1 -0.2,0 -0.1,0 0,0 -0.2,-0.1 0,0 -0.1,-0.1 -0.1,-0.1 0,1.2 -0.1,0 -0.1,-0.1 -0.1,-0.1 -0.2,-0.1 -0.1,-0.1 -0.3,-0.1 -0.2,-0.2 -0.3,-0.2 -0.1,-0.1 -0.1,-0.1 0.2,0 0,0 0,-0.1 -0.1,-0.1 -0.1,-0.1 0,0 -0.1,-0.1 -0.1,-0.1 -0.1,-0.1 -0.1,0 -0.1,-0.1 -0.1,-0.1 -0.1,-0.1 0,-0.1 -0.1,-0.1 -0.2,-0.1 -0.6,-0.2 -0.4,-0.2 -0.2,-0.1 -0.4,-0.1 -0.4,-0.1 -0.4,0 -0.2,-0.1 -0.4,-0.4 -0.4,-0.1 -0.3,0 -0.4,-0.1 -0.3,-0.2 -0.2,-0.2 -0.2,-0.1 -0.5,-0.1 -0.4,-0.1 -0.5,-0.4 -0.3,-0.1 -0.3,-0.1 -0.4,-0.1 -0.4,-0.2 -0.3,-0.2 -0.6,-0.2 -0.3,-0.1 -0.4,-0.1 -0.2,-0.2 -0.4,-0.3 -0.3,-0.1 -0.4,-0.2 -0.3,-0.1 -0.2,-0.2 -0.3,-0.1 -0.4,-0.1 -0.4,-0.2 -0.4,-0.2 -0.2,-0.2 -0.5,-0.1 -0.2,-0.1 -0.3,-0.4 -0.4,-0.1 -0.4,0.1 -0.4,-0.1 -0.3,0 -0.2,-0.2 -0.3,-0.3 -0.3,-0.2 -0.1,0 -0.5,0.2 -0.3,-0.2 -0.4,-0.2 -0.4,-0.3 -0.2,-0.1 -0.5,0.1 -0.3,-0.2 -0.5,-0.3 -0.5,-0.5 -1.1,-0.5 -0.5,-0.2 -0.5,-0.1 -0.2,-0.1 -0.3,-0.1 -0.2,-0.2 -0.1,-0.2 -0.2,-0.2 -0.2,-0.1 -0.4,-0.1 0.6,0.5 -0.2,-0.1 -0.2,-0.1 -0.4,-0.2 -0.5,-0.2 -0.2,-0.1 -0.2,-0.1 -0.2,-0.2 -0.2,-0.2 -0.2,-0.1 -0.2,-0.1 -0.2,-0.1 -0.1,0 -0.2,0 -0.1,-0.1 -0.2,-0.2 -0.2,-0.2 -0.3,-0.2 -0.5,-0.1 -0.4,-0.2 -0.4,-0.2 -0.4,-0.3 -0.2,-0.1 -0.4,0 -0.2,-0.1 -0.1,-0.1 -0.2,-0.1 -0.2,-0.1 -0.2,-0.2 -0.2,-0.1 -0.2,-0.1 -0.2,-0.1 -0.2,0 -0.3,0 -0.3,-0.1 -0.2,-0.2 -0.3,-0.2 -0.4,-0.1 -0.1,0 -0.2,0.1 -0.2,0 -0.2,-0.1 -0.1,-0.2 -0.1,-0.2 -0.2,-0.3 -0.4,0 -0.3,-0.1 -0.4,-0.2 -0.3,-0.1 -0.4,-0.1 -0.2,-0.2 -0.2,-0.2 -0.1,-0.1 -0.2,0 -0.2,-0.1 -0.2,-0.2 -0.2,-0.2 -0.3,-0.2 -0.4,-0.2 -0.4,-0.1 -0.4,0.3 -0.4,-0.2 -0.2,-0.1 -0.2,-0.2 -0.2,-0.1 -0.2,-0.1 -0.4,-0.1 -0.2,0 -0.4,-0.4 -0.4,-0.3 -0.3,-0.1 -0.5,-0.1 -0.2,-0.1 -0.4,-0.2 -0.2,-0.1 -0.3,-0.2 -0.2,-0.1 -0.2,0 -0.2,0.1 -0.2,0 -0.2,-0.2 -0.4,-0.2 -0.4,-0.3 -0.6,-0.2 -0.6,-0.2 -0.6,-0.1 -0.2,-0.2 -0.4,-0.4 -0.2,-0.1 -0.2,0 -0.2,0.1 -0.2,-0.1 -0.4,-0.4 -0.2,-0.2 -0.3,-0.1 -0.2,-0.1 -0.4,0 -0.3,-0.2 -0.4,-0.4 -0.6,-0.2 -0.4,-0.1 -0.4,-0.4 -0.2,-0.2 -0.4,-0.1 -0.3,0 0,0 -0.3,0 -0.4,-0.3 -0.3,-0.3 -0.4,-0.2 -0.3,-0.2 -0.4,0 -0.3,0 -0.2,-0.2 -0.3,-0.1 -0.4,-0.2 -0.5,-0.2 -0.5,-0.2 -0.3,-0.1 -0.2,-0.2 -0.5,-0.2 -0.3,-0.1 -0.3,-0.1 -0.3,-0.2 -0.3,-0.2 -0.3,-0.2 -0.4,-0.1 -0.2,-0.1 -0.4,-0.1 -0.4,-0.1 -0.4,-0.2 -0.3,-0.3 -0.5,-0.1 -0.5,-0.1 -0.1,0 -0.4,-0.4 -0.4,-0.2 -0.2,0 -0.4,-0.1 -0.3,-0.1 -0.4,-0.4 -0.3,-0.2 -0.4,-0.1 -0.5,-0.1 -0.3,-0.2 -0.5,-0.3 -0.6,-0.1 -0.3,-0.1 -0.4,-0.3 -0.4,-0.4 -0.3,-0.2 -0.6,0 -0.2,-0.2 -0.4,-0.3 -0.4,-0.2 -0.5,-0.1 -0.3,-0.2 -0.2,-0.2 -0.3,-0.1 -0.5,-0.1 -0.2,-0.1 -0.4,-0.2 -0.2,-0.2 -0.2,-0.1 -0.4,-0.1 -0.3,-0.1 -0.2,-0.1 -0.2,-0.1 -0.1,-0.2 -0.4,-0.3 -0.3,-0.1 -0.2,0 -0.1,-0.1 -0.2,-0.2 -0.3,-0.2 -0.4,-0.2 -0.7,-0.3 -0.6,-0.4 -0.3,-0.2 -0.4,-0.1 -0.4,0 -0.3,-0.2 -0.4,-0.3 -0.2,-0.2 -0.4,-0.2 -0.4,0.1 -0.2,-0.1 -0.3,-0.2 -0.9,-0.1 -0.6,-0.7 -0.1,-0.1 -0.3,-0.2 -0.3,0.1 -0.3,0.1 -0.4,-0.2 -0.3,-0.2 -0.2,-0.1 -0.2,-0.1 -0.3,-0.1 -0.4,-0.2 -0.2,-0.2 -0.3,0 0,0 -0.4,0 -0.4,-0.1 -0.1,-0.1 -0.2,-0.3 -0.3,-0.2 -0.2,-0.1 -0.4,-0.1 -0.6,-0.2 -0.6,-0.1 -0.5,-0.3 -0.9,-0.6 -0.6,-0.1 -0.8,-0.2 -0.7,-0.2 -0.5,-0.5 -0.6,-0.4 -0.6,0 -0.5,-0.2 -0.4,-0.1 -0.4,-0.1 -0.2,-0.4 -0.4,-0.1 -0.3,-0.2 -2.2,-0.9 -1.4,-0.8 -0.6,-0.4 -1.2,-0.4 -0.6,-0.1 -1.8,-0.6 -1.9,-0.7 -1.7,-0.8 -1.5,-0.6 -1.5,-0.2 -2.7,-1.2 -1.2,-0.6 -2.2,-0.8 -1.4,-0.5 -2.7,-1.2 -2.6,-1.3 -2.4,-1.3 -1.8,-0.5 -1.5,-0.8 -2.7,-1.2 -1.8,-0.9 -1.7,-0.8 -0.2,-0.1 -2.1,-1.1 -1.7,-0.8 -2.2,-1.1 -2.5,-0.9 -4.8,-2.2 -2.9,-0.9 -1.7,-0.8 -3.1,-1.5 -2.1,-0.8 -0.1,0 -1.6,-0.5 -0.1,-0.1 -2.5,-1.2 -0.1,0 -1.8,-0.9 -0.1,-0.1 -1.8,-0.6 -0.1,-0.1 -1.6,-0.8 -1.5,-0.8 -0.1,0 -1.6,-0.5 -0.1,-0.1 -1.6,-0.8 -0.1,0 -1.5,-0.6 -0.1,-0.1 -2.1,-0.8 -0.1,-0.1 -1.8,-0.6 -0.1,-0.1 -0.9,-0.5 -1.6,-0.4 -1.7,-0.7 -2,-0.9 -1.8,-0.9 -1,-0.6 -1.6,-0.4 -2.8,-1 -2.9,-1.4 -1.8,-0.9 -1.3,-0.9 -2,-0.9 -1.4,-0.4 -0.9,-0.6 -1.3,-0.4 -1.9,-0.8 -1.1,-0.6 -1.5,-0.5 -2.5,-1.1 -2.3,-0.8 -2.1,-0.8 -1.4,-0.8 -5.5,-2.8 -5.6,-2.4 -6.2,-2.8 -4.7,-2.1 -6.5,-3 -11.5,-5 -6.6,-2.9 -2.8,-0.6 -0.3,0 0,0 -0.2,-0.1 -0.1,0 -0.1,-0.1 -0.3,-0.1 -0.1,-0.1 -0.1,-0.2 -0.1,-0.1 -0.5,-0.1 -0.2,0 -0.1,0 -0.2,-0.1 -0.5,-0.2 0,0 -0.2,-0.2 -0.1,-0.1 -0.1,-0.1 -0.1,-0.1 -0.1,-0.1 -0.1,-0.1 -0.1,-0.1 -0.1,-0.1 -0.1,0 -0.2,0 -0.2,0 -0.1,0.1 -0.1,0 0.1,0 -0.1,0 -0.2,0 0,-0.1 -0.1,-0.1 -0.4,-0.2 -0.1,-0.1 0,0.4 -0.2,-0.1 -0.1,-0.1 -0.1,-0.1 -0.4,0 -0.1,0 -0.1,0.1 -0.3,-0.1 -0.3,-0.1 -0.1,-0.1 -0.2,-0.1 -0.1,-0.1 -0.1,-0.2 -0.2,-0.2 -0.1,-0.1 -0.1,-0.1 -0.1,-0.1 -0.1,0 -0.2,-0.1 -0.1,0.1 -0.1,0.1 0,0 -0.3,-0.1 -0.1,-0.1 0,-0.1 -0.1,-0.1 -0.1,-0.1 -0.1,-0.1 -0.2,-0.3 -0.1,-0.1 -0.1,-0.1 -0.1,0 0,0 -0.4,0 -0.2,0 0,0 -0.2,-0.1 -0.1,-0.1 -0.3,-0.1 -0.2,-0.1 -0.1,-0.2 -0.3,-0.2 -0.3,-0.1 -0.4,-0.1 -0.1,0 -0.3,-0.1 0.1,0 0,-0.1 -0.4,-0.1 -0.3,-0.2 -0.2,-0.1 -0.4,-0.1 -0.1,0 -0.1,0 -0.1,0 -0.2,-0.1 -0.1,-0.1 -0.1,-0.2 -0.4,-0.4 -0.2,-0.1 -0.5,0 -0.4,-0.1 -0.1,0 -0.1,-0.1 -0.2,-0.1 -0.1,-0.1 -0.2,-0.1 -0.1,-0.1 -0.1,-0.1 -0.2,-0.1 -0.4,0 -0.1,0.1 -0.1,-0.1 -0.1,0 -0.1,-0.1 -0.1,-0.1 -0.1,-0.1 -0.1,-0.1 -0.1,0 -0.1,-0.1 -0.2,-0.1 -0.2,-0.1 -0.1,-0.1 -0.1,-0.1 -0.1,-0.1 -0.1,0 -0.1,0.1 -0.4,-0.1 -0.1,0 -0.1,-0.1 -0.1,-0.1 -0.1,-0.1 -0.1,-0.1 -0.1,-0.1 -0.1,-0.1 -0.1,-0.1 -0.1,-0.1 -0.2,-0.1 -0.2,-0.1 -0.3,0.1 -0.2,0 -0.1,0.1 -0.1,0 0,-0.1 -0.1,0 -0.1,-0.1 -0.1,-0.1 -0.1,-0.1 -0.1,-0.1 -0.1,-0.1 -0.2,-0.1 -0.1,-0.1 -0.1,-0.1 0.2,0 -0.1,0 -0.1,-0.1 -0.1,0 -0.1,0 -0.1,0.1 -0.1,0 -0.1,0 0,0 -0.2,-0.1 -0.1,-0.1 0,-0.1 -0.1,-0.1 -0.1,-0.1 -0.1,-0.1 -0.1,-0.1 -0.1,-0.1 -0.1,-0.1 -0.3,-0.1 -0.1,-0.1 -0.2,-0.1 -0.1,0 -0.2,0 -0.1,0 -0.2,-0.1 -0.2,-0.1 -0.1,-0.1 -0.4,-0.1 -0.1,-0.1 -0.4,-0.1 -0.4,-0.2 -0.1,-0.1 -0.2,-0.1 -0.1,0 -0.4,-0.1 -0.2,-0.1 -0.4,-0.4 -0.2,-0.1 -0.1,-0.1 -0.2,-0.1 -0.1,-0.1 -0.1,0 -0.2,0 -0.1,0 -0.1,0 -0.1,0 -0.1,0 -0.1,0 -0.1,-0.1 0,-0.1 -0.1,-0.1 -0.1,-0.1 -0.1,-0.1 -0.2,-0.1 0,-0.1 -0.2,-0.1 0,1.5 -0.1,-0.1 -0.3,0 -0.1,0 -0.2,0 -0.1,0.1 -0.1,0 -0.2,-0.1 -0.3,-0.4 -0.2,-0.1 -0.1,-0.1 -0.1,-0.1 -0.2,-0.1 -0.4,0 -0.1,0.1 -0.2,0 -0.1,-0.1 -0.4,-0.4 -0.3,-0.1 -0.1,-0.1 -0.1,-0.1 -0.2,-0.1 -0.1,-0.1 -0.1,-0.1 -0.2,-0.1 -0.3,0 -0.2,-0.1 -0.2,0 -0.5,-0.1 -0.3,-0.4 -0.8,-0.4 -0.5,-0.1 -0.4,-0.1 -0.4,-0.2 -0.3,-0.3 -0.5,-0.2 -0.3,0 -0.5,-0.1 -0.3,-0.4 -0.5,-0.3 -0.4,-0.1 -0.4,0 -0.2,0 -0.1,0 -0.4,-0.1 -0.2,-0.1 -0.1,-0.2 -0.4,-0.2 -0.4,-0.1 -0.2,0 -0.1,-0.2 -0.3,-0.2 -0.2,-0.1 -0.3,-0.1 -0.3,-0.1 -0.1,-0.1 -0.5,-0.1 -0.2,-0.1 -0.2,-0.1 -0.1,-0.2 -0.2,-0.1 -0.4,0 -0.3,-0.1 -0.2,-0.2 -0.2,-0.2 -0.5,0 -0.4,-0.2 -0.3,-0.1 -0.3,0 -0.3,-0.1 -0.2,-0.2 -0.4,-0.2 -0.4,-0.1 -0.4,0 -0.2,-0.1 -0.3,-0.2 -0.1,-0.1 -0.4,-0.2 -0.3,-0.1 -0.5,-0.1 -0.2,-0.1 -0.1,0 -0.2,-0.2 -0.4,-0.1 -0.1,-0.2 -0.4,-0.1 -0.4,-0.1 -0.4,-0.2 -0.4,-0.2 -0.2,-0.1 -0.2,-0.1 -1.4,-0.5 -0.7,-0.3 -0.1,-0.1 -0.7,-0.2 -0.1,-0.2 -0.3,-0.2 -0.3,-0.1 -0.4,0 -0.3,-0.1 -0.3,-0.1 -0.2,-0.2 -0.4,-0.2 -0.3,-0.1 -0.5,-0.1 -0.3,-0.1 -0.2,-0.2 -0.2,-0.1 -0.3,-0.1 -0.5,-0.1 -0.3,-0.1 -0.5,-0.4 -0.4,-0.1 -0.3,-0.1 -0.5,-0.2 -0.4,-0.2 -0.5,-0.2 -0.4,-0.1 -0.2,-0.1 -0.3,-0.2 -0.4,-0.1 -0.5,-0.1 -0.3,-0.1 -0.4,-0.2 -0.3,-0.2 -0.4,-0.1 -0.3,0 -0.3,-0.1 -0.4,-0.2 -0.1,-0.2 -0.3,-0.2 -0.5,-0.1 -0.3,-0.1 -0.2,-0.1 -0.3,-0.2 -0.3,-0.2 -0.4,-0.1 -0.4,-0.1 -0.3,-0.1 -0.4,-0.3 -0.9,-0.3 -0.7,-0.4 -0.6,-0.2 -0.2,-0.1 -0.7,-0.3 -0.6,-0.2 -0.2,-0.1 -0.6,-0.3 0.5,0.9 -0.3,0 -0.2,0 -0.2,-0.1 -0.3,-0.1 -0.6,-0.3 -0.5,-0.1 -0.3,0 L 6.7,381.3 6.4,381.1 6.3,381 6,380.9 0,381 1.4,377.3 2.8,373.7 3,373 l 5.7,-11 0.2,-1 0.1,-0.1 6.7,-10.4 2,-6.9 -0.4,-0.6 1.6,0.8 10.2,0.9 3.5,-0.2 0.1,0 5.2,-2.2 14.2,-7 2.3,-0.2 0.9,-0.6 1.8,-0.1 1.1,0.3 1.8,-0.5 0.8,-0.1 6.7,6.1 1.2,2 1,1.6 1.5,1.8 0.8,1.1 1.1,1.4 0.6,0.7 1.1,1.5 1,1.2 0.7,1.9 0.7,1.7 0.6,1.8 1,1.1 1.3,1.2 2.3,1.8 0.9,0.2 2.5,-0.5 2.2,-1.1 0.9,-0.3 2.1,-0.3 2.6,-0.2 1.4,-0.8 1.2,-0.8 0.7,-0.8 1.1,-0.9 1.2,-0.6 2.5,-0.7 1.8,-0.7 2.2,-0.6 3.9,0.2 2.6,0.9 2.8,1.4 3.7,1.9 3.2,2.4 2.8,2.8 2.3,3.8 1.8,3.5 1.9,3.5 2,2 1.4,3.8 0.4,1.6 2.2,5.7 1.5,4.8 4,5.4 2.4,3.4 2.5,2.9 2.8,4 4.7,4.2 8.7,1.5 5.2,0 5.4,-1.5 3.1,-1.5 10,-2.2 5.8,-1.5 3.9,-0.5 5.4,0.2 8.3,-1.3 6.5,0.7 4.5,1.8 5.2,5.4 4.4,5.3 2.7,3.9 4.2,4.5 1.7,0.9 1.2,-0.1 1.1,-1 1.5,-1.5 0.5,-0.5 0.7,-1.6 0,-1.2 0.6,-0.9 0.9,-1 0.9,-1.1 0.5,-0.9 0.1,-0.9 -0.2,-0.9 -0.2,-0.8 -0.9,-1.1 -0.3,-0.8 -0.2,-0.9 -0.1,-0.5 0,-0.8 0,-0.7 -0.1,-0.5 -0.2,-0.4 -0.2,-0.3 -0.1,-0.5 -0.1,-0.6 0.1,-0.6 0.1,-0.4 0.4,-0.6 0.2,-0.3 0.2,-0.2 0.3,-0.1 0.2,-0.2 0.2,-0.2 0.1,-0.4 0.1,-0.6 0.1,-0.2 0.2,-0.6 0.3,-0.5 0.1,-0.2 0.3,-0.3 0.4,-0.4 0.2,-0.3 0.2,-0.5 0.1,-0.4 0.1,-0.2 0,-0.4 -0.1,-0.4 -0.1,-0.2 -0.1,-0.5 -0.1,-0.4 0,-0.4 0,-0.4 0,-0.3 0.1,-0.3 0.1,-0.3 0.1,-0.1 0.1,-0.2 0.2,-0.3 0.1,-0.3 0,-0.2 0,-0.2 0.1,-0.3 0,-0.3 0.1,-0.2 0.1,-0.1 0.1,-0.2 0.2,-0.2 0.1,-0.2 0.2,-0.2 0.1,-0.2 0.2,-0.2 0.2,-0.1 0.2,-0.1 0.2,-0.2 0.1,-0.4 0.3,-0.3 -0.1,-0.3 -0.1,-0.9 -0.2,-1.1 -0.1,-0.6 -0.4,-0.9 0.1,-0.9 0.4,-0.8 0.2,-0.4 0.5,-0.6 0.4,-0.6 0,-0.4 -0.1,-0.5 -0.4,-0.3 -0.9,-0.6 -0.3,-0.4 0.1,-0.9 0,-0.5 -0.1,-0.4 -0.1,-0.6 -0.2,-0.6 -0.2,-0.5 0.1,-0.9 0.1,-0.7 -0.2,-0.5 -0.3,-0.5 -0.2,-0.2 -0.2,-0.2 -0.8,0.1 -0.4,0.4 -1,0 -0.6,-0.1 -1.1,-0.4 -0.5,-0.2 -0.5,-0.4 -0.2,-0.2 -0.3,-0.5 -0.2,-0.6 -0.4,-0.5 -0.5,0 -0.5,0.2 -0.2,0.5 -0.3,0.9 -0.1,0.8 -0.3,1 -0.5,0.5 -0.2,0.3 -1.1,0.3 -0.4,0.4 -0.4,0.9 -0.1,0.6 0,0.5 0,0.4 -0.1,0.3 -0.3,0.4 -0.9,0.5 -0.5,0.4 -0.4,0.5 -0.4,0.6 -0.5,0.2 -0.5,0.1 -1,-0.3 -0.4,-0.5 -0.2,-0.5 0.1,-0.8 0.2,-1.5 0.3,-1.8 0.5,-1.6 0,-1.4 0.1,-1.1 0.2,-1.4 0.2,-1.7 0.1,-0.8 0.2,-1.1 0.2,-1.1 0.1,-0.9 0.2,-1.8 0.2,-1.8 0.2,-1.6 0.1,-1.1 0.1,-1.5 0.4,-1.9 0.4,-2 0.1,-1.8 0.4,-2.5 0.2,-2.4 0.3,-2.7 0.2,-2.3 0.3,-2.9 0.2,-2.3 0.3,-2.2 0.1,-0.4 0.2,-0.5 0.4,-1.5 0.2,-0.9 0.2,-1.2 0.4,-2.7 0.5,-2.8 0.2,-1.9 0.5,-2.1 0.3,-2.2 0.1,-1.2 0.4,-1.2 0.4,-2.2 0.5,-2.2 0,-1.2 0,-2.6 0.4,-1.5 0.5,-2.2 0.8,-2.9 0.2,-2.1 0.1,-1.5 0.3,-2.4 0.5,-4.6 0.4,-3.7 0.4,-3 0.2,-3.2 0.2,-1.9 0.2,-2.7 0.5,-3 0,-1 -0.1,-0.6 -0.6,-1.1 -0.2,-0.8 0,-2.4 -0.5,-2.1 0.5,-1.5 0.6,-2.7 0.2,-1.4 0.2,-2.1 0.3,-2.4 -0.1,-0.9 0,-1.1 -0.6,-1.5 -1.1,-1.8 -0.3,-0.9 -0.5,-1 -0.5,-0.6 -0.1,-0.7 -0.5,-1.4 -0.4,-1.1 -0.5,-0.7 -0.4,-1 -0.3,-0.5 -0.2,-1.2 -0.3,-0.6 -0.2,-1 -1,-1.9 -1,-2.3 -0.4,-0.6 -1,-2.1 -0.6,-1.5 -0.8,-1.6 -0.1,-0.5 -0.4,-0.8 -0.9,-1.9 -1.1,-2.2 -0.9,-2.1 -0.6,-1.4 -0.8,-1.5 -0.5,-1.6 -0.5,-1.7 -0.6,-1.6 -0.4,-0.9 -0.6,-1.6 -0.6,-1.2 -0.9,-1.4 -0.1,-0.5 -0.4,-1.2 -0.4,-1 -0.5,-1.2 -0.9,-1.6 -0.1,-1.2 -0.2,-0.4 -0.5,-0.7 -0.4,-0.9 -0.6,-1 -0.8,-0.9 -0.4,-0.8 -0.2,-1.4 -0.2,-0.9 -1.2,-2.9 -0.7,-1.8 -0.5,-1.1 -0.9,-1.6 -0.8,-1.3 -0.4,-0.9 -0.9,-2.1 -0.5,-1.5 -0.8,-1.5 -0.9,-2.2 -1.5,-3.7 -1.2,-2.7 -1.8,-5.2 -1.5,-2.8 -1.8,-4.3 -1.1,-1.9 -0.7,-1.1 -0.6,-1.5 -0.4,-0.9 -0.6,-1.6 -0.4,-1 -0.4,-0.7 -0.2,-0.9 -0.9,-1.4 -0.6,-0.8 -0.6,-1.1 -0.4,-0.9 -0.4,-1.7 0.1,-2.7 -0.2,-1.2 0,-4.5 0.1,-3.8 0.1,-4.2 0.1,-4.5 0,-0.8 0,-2.7 0.1,-1.8 -0.1,-1.1 0.3,-1.9 -0.2,-1.6 -0.1,-1.9 0.4,-1.3 -0.1,-0.6 -0.2,-1.2 0.2,-1.5 0.2,-1.3 0.1,-1.2 0.5,-2.8 26.2,15.3 3.2,-19.1 0.6,0.7 0.2,0.1 22.6,8 z"
       inkscape:connector-curvature="0"
       class="DEP_08 ZON_03" /></g></svg>