<?xml version="1.0" encoding="UTF-8" standalone="no"?>
<!-- Generator: Adobe Illustrator 16.0.0, SVG Export Plug-In . SVG Version: 6.00 Build 0)  -->

<svg
   xmlns:dc="http://purl.org/dc/elements/1.1/"
   xmlns:cc="http://creativecommons.org/ns#"
   xmlns:rdf="http://www.w3.org/1999/02/22-rdf-syntax-ns#"
   xmlns:svg="http://www.w3.org/2000/svg"
   xmlns="http://www.w3.org/2000/svg"
   xmlns:sodipodi="http://sodipodi.sourceforge.net/DTD/sodipodi-0.dtd"
   xmlns:inkscape="http://www.inkscape.org/namespaces/inkscape"
   version="1.1"
   id="SvgMunicipio"
   x="0px"
   y="0px"
   width="1000.028px"
   height="524.602px"
   viewBox="64.739 129.136 1000.028 524.602"
   enable-background="new 64.739 129.136 1000.028 524.602"
   xml:space="preserve"
   inkscape:version="0.91 r13725"
   sodipodi:docname="MUN_ID0816.svg"><metadata
     id="metadata10"><rdf:RDF><cc:Work
         rdf:about=""><dc:format>image/svg+xml</dc:format><dc:type
           rdf:resource="http://purl.org/dc/dcmitype/StillImage" /></cc:Work></rdf:RDF></metadata><defs
     id="defs8" /><sodipodi:namedview
     pagecolor="#ffffff"
     bordercolor="#666666"
     borderopacity="1"
     objecttolerance="10"
     gridtolerance="10"
     guidetolerance="10"
     inkscape:pageopacity="0"
     inkscape:pageshadow="2"
     inkscape:window-width="682"
     inkscape:window-height="480"
     id="namedview6"
     showgrid="false"
     inkscape:zoom="0.40898854"
     inkscape:cx="500.01401"
     inkscape:cy="262.30099"
     inkscape:window-x="0"
     inkscape:window-y="0"
     inkscape:window-maximized="0"
     inkscape:current-layer="svg" /><g
     id="g3"><path
       id="MUN_0816"
       d="m 1018.652,286.629 8.951,8.611 0,0 7.591,1.699 0.113,0 7.025,4.192 0,0.113 6.118,2.04 0,0 3.626,1.02 0,0.114 9.971,7.025 0.227,8.271 -1.473,3.286 -1.473,4.873 0.453,7.251 -1.247,5.892 0.113,0.113 6.006,-0.227 0.113,0.113 0,0 -0.907,1.133 -0.68,1.813 -0.227,0.907 -0.113,1.359 -0.453,0.68 -0.34,0.793 -0.34,1.02 -0.113,0.68 0.113,0.68 0,0.68 -0.566,1.133 -0.453,0.793 -0.453,1.586 -0.113,0.793 -0.113,0.793 -0.34,1.359 -0.227,1.813 -0.113,1.813 0.34,1.813 0.227,0.793 0.453,0.906 -0.113,0.793 -0.227,0.68 -0.34,0.68 -0.453,0.68 -0.113,0.68 0.227,1.699 0.113,2.72 -0.34,3.399 -0.454,2.833 -0.227,1.02 -0.453,1.133 -0.68,1.36 -0.906,2.04 -0.68,2.153 -0.453,1.586 -0.227,1.586 -0.227,1.926 -0.567,1.926 -0.68,1.926 -0.566,1.36 0,0.566 -0.227,0.566 -0.227,0.793 -1.02,1.246 -1.02,1.473 -1.474,2.266 -0.227,0.793 -0.453,0.566 -3.399,3.512 -1.246,1.247 -0.68,0.793 -0.68,1.133 -0.453,1.02 -0.34,1.021 -0.34,0.34 -2.833,2.152 -0.453,0.906 -0.793,1.813 -0.68,2.266 -0.907,3.286 0,0.906 0.113,0.793 -0.113,0.906 -0.227,1.36 -0.453,1.133 -0.906,1.359 -0.566,0.793 -0.566,1.134 -0.227,0.68 0,1.133 -0.113,1.246 -0.34,1.134 -0.793,1.473 -0.453,1.133 -0.114,1.927 0.114,2.266 0.227,1.02 -0.227,0.793 0,0.453 -0.567,0.567 -1.246,0.793 -1.473,1.473 -0.906,1.133 -0.681,1.021 -1.02,0.906 -1.133,1.02 -0.566,0.68 -1.02,1.586 -1.7,2.72 -1.133,2.833 -0.34,1.02 -0.453,0.906 -1.02,0.906 -1.7,1.133 -5.099,4.532 -1.699,1.36 -1.473,1.02 -0.567,0.906 -0.113,0.906 0,0 3.739,4.872 7.592,9.178 0.793,1.134 0,0.113 -3.173,4.985 -1.586,2.605 -4.759,6.799 -2.946,2.379 -0.68,0.227 -1.699,0.566 -2.946,1.813 -2.719,2.492 -1.36,1.36 -1.473,1.699 -0.906,2.492 -0.34,0.907 -0.906,1.246 -0.227,0.34 -0.907,2.152 -0.68,1.134 -1.813,2.379 -1.474,1.587 -0.906,0.793 -1.699,-0.113 -7.479,-0.34 -2.379,-0.567 0,0 -8.271,3.626 -0.566,0.227 -2.72,0.34 -2.039,0.794 -2.833,1.02 -4.646,1.473 -6.685,2.493 -0.906,0.453 -3.399,2.605 -4.646,2.493 -1.586,0.793 -2.38,0.793 -2.379,1.699 -1.813,1.021 -1.359,0.793 -1.02,0.793 -0.68,0.68 -212.221,3.626 -15.183,0.227 -220.151,95.063 -16.429,7.139 -56.652,-21.302 -0.794,-0.34 -34.444,-12.804 -202.476,-76.141 0.793,1.02 0,0 0.453,0.907 0,0.113 0.113,1.02 0,0 -0.113,1.473 0,0 0.227,1.02 0,0.113 0.227,1.247 0,0 0.907,1.813 0,0 0.453,1.133 0,0.113 0.113,1.134 0,0 -0.113,0.793 0,0.113 -0.68,1.359 0,0 -0.794,1.02 0,0 -0.68,1.247 -0.113,0 -0.906,0.68 0,0 -1.473,0.566 0,0 -1.133,0 0,0 -0.907,0 0,0 -1.926,0 0,0 -2.153,-0.113 -0.68,-0.34 0,0 -0.68,-0.453 0,0 -0.453,-0.567 -0.113,0 -1.02,-0.68 0,0 -0.453,-0.34 0,0 -0.566,-0.34 0,0 -0.567,-0.34 0,0 -0.68,-0.453 0,0 -0.566,-0.227 -0.113,0 -0.453,0.113 0,0 -0.34,0.227 0,0 -0.227,0.453 -0.113,0 -0.113,0.566 0,0.113 -0.227,4.192 0,0 -0.113,0.566 0,0 -0.227,0.566 -0.113,0 -0.453,0.341 0,0 -0.793,0.113 0,0 -1.36,0 0,0 -0.906,0 0,0 -1.246,0.113 0,0 -0.906,0 0,0 -1.7,0 0,0 -0.34,0 0,0 -0.227,0 0,0 -0.788,0.454 0,0 -0.453,0.566 -0.113,0 -0.113,0.906 0,0 0,1.246 0,0 0,0.227 0,0.113 0.34,0.453 0,0 0.34,0.567 0,0 0.453,0.34 0,0 0.34,0.453 0,0 0,0.453 0,0.113 0,1.699 0,0.113 -0.566,2.38 0,0 -1.699,2.266 0,0 -1.474,0.68 0,0 -1.133,0.113 0,0 -1.359,0 0,0 -1.474,0 0,0 -0.793,-0.227 -0.113,0 -1.699,-1.359 -0.113,0 -0.34,-0.227 0,0 -1.133,-0.227 0,0 -0.681,0 0,0 -0.793,0 0,0 -0.453,0.113 0,0 -0.453,0.34 0,0 -0.566,0.566 0,0 -0.566,0.793 0,0 -0.68,0.906 0,0 -0.34,0.454 0,0 -0.681,0.793 0,0 -0.566,0.68 -0.113,0 -0.227,0.227 -0.113,0 -0.227,0.566 0,0 -0.227,0.34 0,0 0,0.566 0,0 0,0.566 0,0 -0.113,0.681 0,0 -0.227,0.906 0,0 -0.227,1.473 0,0 -0.453,1.586 0,0 0,0.567 0,0 0.113,0.453 0,0 0.113,0.453 0,0 0.113,0.34 0,0 0,0.793 0,0 0,1.246 0,0 -0.227,1.36 0,0 -0.566,1.359 0,0 -0.113,0.227 0,0.113 -0.34,0 0,0 -0.906,0 0,0 -1.021,0.113 0,0 -0.906,0.227 0,0 -1.473,0.227 0,0 -1.587,0.227 0,0 -1.473,0.113 0,0 -2.039,-0.113 0,0 -2.38,-0.113 -0.113,0 -0.906,0 -0.113,0 -0.68,-0.113 0,0 -1.133,-0.453 0,0 -0.567,-0.453 0,0 -1.133,-0.34 0,0 -0.453,-0.113 -0.113,0 -0.793,-0.113 0,0 -0.453,0 -0.453,0 0,0 -1.134,0 0,0 -0.453,-0.34 0,0 -0.793,-0.681 0,0 -0.566,-0.453 -0.113,0 -0.906,0 0,0 -0.906,0 0,0 -0.906,0.34 0,0 -0.681,0.341 -0.113,0 -0.793,0.68 0,0.113 -0.906,0.453 0,0 -0.793,0.227 -0.113,0 -0.453,-0.227 -0.116,0 -0.227,-0.227 -0.567,-0.793 0,0 -0.227,-0.341 0,0 -0.566,-0.453 0,-0.113 -1.02,-0.566 0,-0.113 -0.906,-0.227 -0.113,0 -0.227,-0.566 0,0 -0.453,-0.793 -0.113,0 -0.227,-0.793 0,0 -0.227,-0.453 0,0 -0.681,-0.794 0,0 -2.039,-1.133 -0.68,-0.453 0,0 -0.793,-0.566 0,0 -0.906,-0.906 -0.113,0 -0.341,-0.453 0,0 -0.453,-0.793 0,-0.113 -0.227,-0.114 0,0 -0.227,-0.793 0,0 -0.34,-1.02 0,0 -0.34,-0.793 0,0 -0.68,-1.813 0,-0.114 -0.113,-0.113 -0.113,0 -0.68,-0.34 0,0 -0.906,0 0,0 -0.227,-0.113 0,0 -0.681,-0.34 -0.793,-0.566 -0.113,0 -0.227,-0.113 -0.113,0 -0.34,0 -0.113,0 -0.566,0.113 0,0 -0.566,0.227 -0.113,0 -1.02,0.453 -0.113,0 -0.681,0 0,0 -1.133,0 0,0 -2.152,0 0,0 -0.453,-0.113 0,0 -1.587,-0.227 -0.113,0 -0.34,-0.227 0,0 -0.906,-0.34 -0.906,-0.34 0,0 -2.493,-1.246 3.626,-8.158 0,-0.113 0.906,-1.473 0,0 0.566,-0.793 0,0 0.906,-1.36 0,0 0,-0.566 0,0 -0.113,-0.566 0,0 -0.113,-0.68 0,-0.113 0.227,-0.68 0,0 1.134,-1.021 0,0 2.832,-4.305 0,-0.113 -0.453,-1.474 0,-0.113 -0.453,-1.699 0,0 -0.906,-0.793 0,0 0.113,-0.907 0,0 1.02,-1.133 0,0 0.793,-0.906 0,0 0.453,-1.246 0,0 1.474,-5.212 0,0 0.566,-1.247 0,0 0.793,-2.152 0,0 0.68,-1.586 0,0 1.02,-1.7 0,0 1.247,-1.473 0.113,0 0.113,-1.926 0,-0.114 -1.247,-5.099 0,-0.113 -2.605,-6.345 0,0 -1.133,-3.626 0,0 -1.36,-4.646 0,0 -1.473,-7.024 0,0 -1.359,-2.946 0,0 -1.246,-4.192 0,0 -2.04,-3.966 0,-0.113 -1.359,-1.02 0,0 -1.133,-0.453 0,0 -1.021,-1.02 0,0 -1.246,-1.699 0,0 -1.246,-2.606 0,0 -0.453,-1.02 0,0 0.34,-1.474 0,0 0.453,-0.566 0,0 1.133,-0.793 0,0 4.646,-2.719 0,0 3.286,-1.7 0,-0.113 2.492,-1.926 0,0 1.134,-0.906 0,0 1.02,0.113 0,0.113 0.227,0 0,0 0.227,0 0,0 0.227,-0.227 0.113,0 0.34,-0.454 0,0 0.34,-0.34 0,-0.113 0,-0.113 -0.113,0 -0.453,-0.68 -0.113,0 -0.68,-0.906 0,0 -1.02,-1.02 0,0 -0.227,-1.02 0,0 0.227,-1.134 0,0 0,-0.566 0,-0.453 0,-0.113 -0.453,-0.34 0,0 -0.341,-0.34 -0.113,0 -0.34,-0.566 0,-0.113 0.113,-0.68 0,0 0.453,-0.681 0,0 0.454,-0.453 0,0 1.699,-1.699 0,0 1.246,-1.699 0.113,-0.113 0.566,-1.474 0,0 0.453,-1.473 0,0 -0.566,-1.473 0,0 -0.453,-2.04 0,-0.113 -0.566,-0.906 0,0 -0.566,-0.793 0,0 -1.699,-1.699 0,-0.113 0,-1.247 0,-1.586 0,0 -0.453,-2.38 0,0 -0.567,-1.473 0,0 -0.68,-1.359 0,0 -0.453,-0.68 0,-0.113 0,-0.907 0,-0.113 0.453,-0.566 0,0 2.153,-1.813 0,0 0.566,-0.453 0,-0.113 0.113,-0.227 0,-0.113 -0.113,-0.227 -0.113,0 -0.34,-0.566 0,0 -0.227,-0.454 -0.113,0 0,-0.453 0,0 0.34,-1.133 0,-0.113 1.02,-2.039 0,0 1.02,-1.134 0,0 1.133,-1.02 0,0 1.587,-1.473 0,0 1.473,-1.359 0,-0.113 -0.34,-0.681 0,0 -0.566,-0.34 0,0 -0.906,-1.02 0,0 -0.907,-2.039 0,0 -0.453,-1.36 0,0 -1.02,-1.586 0,0 -0.453,-0.68 -0.113,-0.113 -0.34,-1.02 0,0 0,-0.681 0,-0.113 0.227,-0.453 0.113,0 0.34,-0.34 0,0 0.906,-0.227 0,0 0.906,-0.34 0.114,0 0.566,-0.34 0,0 0.227,-0.566 0.113,0 0,-0.113 0.449,-1.585 0,0 0.113,-2.38 0,0 0.453,-3.965 0,0 0.227,-1.813 0,-0.113 -0.113,-1.586 0,0 -0.793,-4.306 0,0 -0.227,-3.625 0,0 0.34,-2.153 0,0 0.566,-1.36 0,0 1.02,-1.813 0,0 1.7,-3.852 0,0 2.605,-2.04 0,-0.113 1.133,-1.813 0,-0.113 3.06,-2.493 0,0 4.306,-3.512 0,0 7.478,-8.158 0,0 1.474,-0.906 0,0 1.473,-1.813 0.113,0 0,-1.586 0,0 0.453,-2.493 0,0 0.566,-1.02 0,0 1.134,-2.379 0,0 -0.34,-5.326 0,0 -0.567,-8.498 0,0 -0.453,-4.192 0,0 -0.113,-2.153 0,0 0.227,-1.02 0.113,-0.113 0.566,-0.114 0.113,0 5.326,-0.68 0,0 3.852,-0.793 0,0 3.739,-1.247 0.113,0 0.453,-0.793 0.113,0 0.453,-1.473 0.114,0 0.34,-0.566 0.113,0 0.34,-0.453 0,-0.113 0,-5.325 0,0 0.453,-1.473 0,0 1.02,-1.02 0,0 0.68,-0.34 0,-0.113 1.473,-0.113 0.113,0 0.113,-1.246 0,0 1.474,-4.079 0,0 2.152,-6.458 0,0 3.513,-6.118 0,0 5.212,-10.538 0,0 1.473,-2.266 0,-0.113 1.7,-1.473 0,0 2.152,-1.813 0,0 2.38,-1.7 0,0 2.039,-2.153 0,-0.113 1.587,-2.946 0,-0.113 0,-1.02 0,0 0.793,-3.739 0,0 0.34,-1.7 0,0 1.473,-2.719 0,0 1.246,-2.266 0,0 3.626,-3.059 0,0 4.872,-1.473 0,0 3.626,-0.68 0,0 3.739,-0.34 0,0 3.398,-0.34 0,0 5.1,0 0,0 3.965,-1.359 0,-0.113 3.173,-2.719 0,0 2.38,-3.286 0,0 1.246,-3.172 0.113,0 1.246,-2.719 0,0 1.133,-3.739 0,0 1.247,-5.778 0,0 0.453,-3.626 0,0 1.586,-4.646 0,0 1.359,-5.665 0,0 4.192,-6.119 0,0 6.799,-8.271 1.133,-0.454 0,0 4.079,-1.359 0,0 4.759,-1.247 0,0 3.286,-1.359 0,0 2.492,-1.133 0.113,-0.113 1.813,-2.379 0,0 0.341,-0.793 0,0 0.453,-2.493 0,0 1.246,-2.266 0,0 1.926,-0.566 0,-0.113 0.453,-1.473 0,0 0.341,-3.059 -0.228,-4.306 0,0 -0.227,-1.36 0,0 -0.34,-2.493 0,0 -0.113,-0.34 0,0 0.113,-1.473 0,-0.227 0,0 0.794,-7.025 3.172,0 1.246,-0.34 0.794,-0.227 1.359,-0.906 1.586,-1.247 0.68,-0.68 0.453,-0.454 0.907,-0.227 0.906,0 1.586,-0.113 0.68,0 1.021,-0.227 0.906,-0.34 1.02,-0.113 1.02,-0.113 1.133,0 0.907,0 1.473,0.113 1.02,-0.113 1.359,0 1.134,0.113 1.926,0 0.793,0 0.906,0.453 0.794,0.68 0.227,0.453 -0.113,0.793 0.34,0.113 0.906,0.227 0.793,0.567 0.906,0.906 1.134,1.246 0.453,0.907 1.133,2.946 -0.227,0.906 0.566,1.247 0.227,0.793 0.34,0.567 1.02,1.133 0.566,0.68 0.681,0.34 1.359,0.34 2.039,0.113 1.36,-0.113 1.813,0 1.133,-0.113 0.68,0.227 0.566,0.113 1.247,-0.567 0.906,-0.227 0.227,-0.113 0.906,0.227 0.566,0.454 0.566,0.113 0.681,0.113 0.793,0.113 0.566,0.566 0.566,0.566 0.34,0.34 0.566,0.34 0.566,0.453 0.566,0.34 0.113,0.34 0.113,0.68 0.341,0.453 0.566,0.34 1.246,0.906 1.133,0.34 1.246,0.453 1.247,0.454 1.359,0.566 0.68,0.113 0.453,0.113 0.453,0 0.906,-0.227 0.681,-0.113 0.793,0.34 0.906,0.68 0.906,0.34 0.453,0.227 0.453,0.113 0.794,-0.113 1.359,-0.566 1.246,-0.68 1.133,-0.68 1.02,-0.567 0.68,-0.566 0.681,-0.34 0.68,-0.34 0.68,-0.227 0.68,-0.907 0.906,-0.68 1.02,-0.68 0.907,-0.453 0.793,0 1.359,0.113 1.02,0 1.021,0.453 0.566,0.227 0.793,0.453 0.68,0.34 0.793,0.34 0.793,0 0.113,-0.68 -0.113,-0.566 0,-1.473 0.34,-0.68 0.681,-0.34 1.133,-0.566 0.793,-0.34 0.793,-0.227 0.906,-0.113 0.68,0.227 0.907,0.227 0.793,0.567 0.906,0.566 0.68,0.793 0.566,1.586 -0.113,0.906 0.227,0.68 0.113,0.453 1.134,0 1.02,0 0.906,-0.113 0.906,-1.133 0.793,-0.906 0.681,-1.247 0.566,-0.34 0.793,-0.453 0.906,0 1.133,0.453 1.02,0.454 0.907,0.68 0.566,0.68 0.68,0.566 0.34,0.566 0.566,1.02 0.227,0.227 0.68,0.227 0.68,0.113 1.474,0.113 1.359,-0.113 0.906,-0.113 0.566,0 1.36,-1.36 1.133,-1.133 1.133,-0.906 0.793,-0.566 0.68,-0.227 0.681,-0.113 1.133,0.227 1.02,0.34 0.453,0.34 0.566,0.793 0.68,1.02 0.453,0.454 0.794,0.34 1.02,0.113 1.926,-0.227 3.626,-1.586 1.926,-0.566 3.173,-0.34 1.927,0.34 1.586,0.793 1.586,1.02 1.02,0.793 1.021,1.02 1.246,1.813 1.473,0.793 0.906,0.68 0.907,0.34 1.586,0 1.813,-0.113 1.7,-0.566 1.359,-0.34 1.02,-0.34 0.453,-0.113 0.566,0 0.567,0.68 0.68,0.566 0.68,0.227 0.453,0.113 0.906,-0.34 0.566,-0.113 1.247,-0.113 1.473,0.113 0.68,0 1.133,-0.34 1.474,0.227 1.02,0 0.68,0 0.793,0 0.68,-0.227 1.36,-0.227 0.68,-0.113 1.133,0 0.906,0.113 0.68,0 0.566,-0.113 0.34,-0.34 0.567,-1.246 0.906,-2.04 0.566,-1.02 0.68,-1.133 0.34,0 0.68,0 0.906,0.227 0.567,0.34 0.566,0.113 0.453,0 0.906,0.34 1.02,0.567 1.02,0.34 2.267,0.227 1.813,-0.34 1.36,-0.567 1.699,-0.793 1.359,-0.68 1.246,-1.02 0.794,-0.907 0.68,-0.68 0.793,-0.793 0.793,-0.68 0.566,-0.793 0.227,-0.68 0,-2.04 0.113,-1.926 -0.113,-0.906 0.227,-1.02 0.113,-0.906 0.34,-0.567 0.794,-0.906 0.793,-0.453 0.906,-0.68 0.453,-0.227 0.566,-0.114 1.587,-2.266 1.133,-0.566 0.906,-0.227 0.793,0 0.793,0 0.453,-0.34 1.021,-0.453 0.68,-0.227 1.133,0.227 0.68,-0.566 0.566,-0.68 0.68,-0.793 0.454,-0.227 0.68,0 0.68,0 0.34,-0.113 0.453,-0.34 0.68,0 0.453,0.34 0.793,0.227 0.681,0.34 0.34,0.113 0.906,0 0.34,0 0.793,0.227 0.453,0.113 0.68,-0.68 0.453,-0.34 1.021,-0.113 0.793,0 0.453,-0.227 0.34,-0.227 0.906,0.227 1.359,0.227 0.794,0 0.68,-0.454 0.227,0.113 0.34,0.34 0.566,0 1.02,-0.227 0.68,0 0.794,0.227 1.02,0.227 0.906,0.34 0.68,0.453 0.68,0.113 0.566,0 0.566,-0.453 1.134,-1.7 1.02,-1.813 0.453,-1.02 0.34,-0.34 0.566,-0.453 0.566,-0.567 0.453,-0.906 0.34,-0.227 0.454,-0.227 0.793,-0.227 0.68,-0.68 0.566,-0.227 0.453,-0.227 0.34,0 1.02,-0.566 0.567,-0.68 0.68,-0.68 0.227,-0.68 0.453,-1.02 0.453,-1.247 0.566,-0.68 0.566,-0.453 0.793,-0.453 0.907,-0.227 0.793,-0.113 0.68,0 0.906,-0.113 0.793,-0.113 0.906,0.227 0.566,0.227 0.794,0.114 0.566,0.34 0.453,0 0.453,0.227 0.68,0 0.34,-0.227 0.906,-0.454 0.681,-0.566 0.68,-0.34 0.793,-0.68 0.793,-0.793 0.906,-0.567 1.133,-0.453 0.681,-0.227 1.02,-0.227 0.906,-0.227 0.453,0 0.793,-0.227 0.793,-0.227 0.681,-0.114 0.453,-0.227 0.227,0 1.133,-0.227 0.906,0.113 0.906,-0.34 0.794,0 0.793,-0.34 0.68,-0.227 0.227,-0.453 0.227,-0.793 0.227,-0.907 0.227,-0.68 0.566,-1.133 0.68,-0.906 0.566,-0.566 0.681,-0.793 0.906,-0.906 0.34,-0.566 0.453,-0.34 0.793,-0.34 0.906,-0.566 0.906,-0.68 0.907,-0.566 0.793,-0.567 0.68,-0.34 0.453,-0.566 0.906,-0.566 0.68,-0.567 0.567,-0.34 0.906,-0.34 0,0 0.34,-0.34 0.793,-0.34 0.453,-0.113 0.453,0 0.68,0 0.68,0.113 0.681,0.227 0.566,0.113 0.906,0.227 0.566,0.227 0.34,0 0.453,0.113 0.566,0 0.794,-0.113 1.02,0.113 1.133,-0.113 0.566,-0.113 0.453,-0.34 0.453,-0.227 0.227,-0.227 0.34,0 0.34,-0.113 0.341,0 0.34,0.113 0.566,0.227 0.906,0.453 0.68,0.227 0.793,0.113 0.453,0.113 0.453,0.34 0.341,0.227 0.566,0.68 0.227,0.227 0.227,0.34 0.566,0 0.227,0.227 0.34,0.68 0.453,0.453 0.227,0.34 0.68,0.34 0.34,0.113 0.453,0 0.794,0.113 0.453,-0.113 0.566,-0.453 0.34,-0.566 0.227,-0.453 1.359,-0.68 0.34,-0.793 0.227,-0.907 0.227,-0.34 1.813,-0.453 1.02,-0.68 0.566,-0.227 0.906,0 1.587,0.227 0.906,-0.113 1.246,-0.34 0.906,-0.227 0.794,-0.34 0.566,-0.113 0.906,-0.227 0.68,0 0.453,0 0.68,0 0.68,0.113 0.566,0.227 0.794,0.113 0.34,0.114 0.113,0.113 0.34,0.34 0.68,0.453 0.453,0.227 0.453,0.227 0.453,0.113 0.68,0.113 0.794,-0.227 0.793,-0.566 0.566,-0.227 0.113,-0.227 0.34,0 0.68,-0.113 0.453,0.113 0.34,-0.113 0.453,0 0.227,0.113 0.227,-0.113 0.681,0 0.68,0 0.227,-0.113 0.453,-0.227 2.719,0.114 4.759,0.566 43.963,5.892 157.606,20.961 176.756,-31.272 35.805,73.082 0,0 19.249,84.411 z"
       inkscape:connector-curvature="0"
       class="DEP_08 ZON_03" /></g></svg>