<?xml version="1.0" encoding="UTF-8" standalone="no"?>
<!-- Generator: Adobe Illustrator 16.0.0, SVG Export Plug-In . SVG Version: 6.00 Build 0)  -->

<svg
   xmlns:dc="http://purl.org/dc/elements/1.1/"
   xmlns:cc="http://creativecommons.org/ns#"
   xmlns:rdf="http://www.w3.org/1999/02/22-rdf-syntax-ns#"
   xmlns:svg="http://www.w3.org/2000/svg"
   xmlns="http://www.w3.org/2000/svg"
   xmlns:sodipodi="http://sodipodi.sourceforge.net/DTD/sodipodi-0.dtd"
   xmlns:inkscape="http://www.inkscape.org/namespaces/inkscape"
   version="1.1"
   id="SvgMunicipio"
   x="0px"
   y="0px"
   width="902.369px"
   height="1000.093px"
   viewBox="64.606 118.682 902.369 1000.093"
   enable-background="new 64.606 118.682 902.369 1000.093"
   xml:space="preserve"
   inkscape:version="0.91 r13725"
   sodipodi:docname="MUN_ID00806.svg"><metadata
     id="metadata10"><rdf:RDF><cc:Work
         rdf:about=""><dc:format>image/svg+xml</dc:format><dc:type
           rdf:resource="http://purl.org/dc/dcmitype/StillImage" /></cc:Work></rdf:RDF></metadata><defs
     id="defs8" /><sodipodi:namedview
     pagecolor="#ffffff"
     bordercolor="#666666"
     borderopacity="1"
     objecttolerance="10"
     gridtolerance="10"
     guidetolerance="10"
     inkscape:pageopacity="0"
     inkscape:pageshadow="2"
     inkscape:window-width="1366"
     inkscape:window-height="705"
     id="namedview6"
     showgrid="false"
     inkscape:zoom="0.23597805"
     inkscape:cx="451.18451"
     inkscape:cy="500.04651"
     inkscape:window-x="-8"
     inkscape:window-y="-8"
     inkscape:window-maximized="1"
     inkscape:current-layer="svg" /><g
     id="g3"><path
       id="MUN_0806"
       d="m 509.504,164.687 1.429,0 0.285,-0.286 0.857,0 1.429,0 1.143,-0.857 0.857,-0.571 1.144,-1.143 0.856,-0.857 0.857,-0.857 0.857,-0.571 3.715,-1.429 0.571,-0.286 0.571,-0.286 1.429,0 1.429,-0.286 3.715,-1.143 1.429,-0.286 0.857,0 1.429,-0.571 4.571,-2 1.144,-0.571 1.429,-0.286 2.285,-0.286 1.144,0 0.285,0 1.429,0 0.857,0.286 1.144,0.571 1.143,0.572 2,1.714 1.429,0.286 2.286,0.571 1.143,0.286 2.286,1.143 1.144,0.572 1.143,0.571 1.715,1.714 0,0.286 0.856,0.857 0.857,0.857 1.715,2 1.143,0.571 1.144,0.857 1.143,0.857 2.571,1.143 3.715,0.857 1.144,0.286 1.143,0.571 4.571,2.286 2.572,1.143 2.286,0.857 1.429,0.286 0.856,0 0.286,0 1.715,0 0.856,-0.286 0.572,0 2.285,-0.857 1.429,-0.572 3.715,-0.571 4.857,-0.857 2.857,-0.857 1.144,-0.572 3.429,-1.429 2.571,-1.143 3.715,-1.143 1.143,-0.286 1.144,-0.286 1.429,-0.286 1.143,0 2.572,0.286 1.143,0.286 0.857,0.286 4,1.429 2.286,0.857 2.286,1.143 2.286,1.143 2.285,0.857 1.144,0.857 1.143,0.572 0.571,0.857 1.144,0.857 1.143,0.857 1.144,0.572 0.571,0.286 0.857,0 1.428,0.286 2.286,0.572 2.857,0.571 3.715,0.571 0.857,0.286 5.144,1.714 0.285,0.286 1.144,0.286 0.856,0.286 1.429,0 1.144,0.286 0,0.286 0,1.714 0.857,0.571 0.856,0 2.572,0.286 4.857,0.286 2.857,0 2.286,0.286 1.714,0.286 3.715,0.857 0.857,0.286 1.429,0 1.429,0 1.143,0 1.715,0 2.286,-0.286 1.143,0 1.429,0.286 2.571,0.571 1.429,0.286 2.286,0.286 1.429,0 1.429,-0.286 1.144,0 1.429,-0.572 1.143,-0.571 1.143,-0.572 2.286,-0.857 4.572,-2 0.857,-0.571 2.571,-1.429 4.572,-2.286 2.285,-0.571 1.429,-0.571 0,-0.286 1.144,-0.286 2.285,-1.429 1.144,-0.571 2.286,-1.429 2.285,-0.857 1.144,-0.286 1.429,-0.286 1.143,-0.286 1.144,0 0.285,0 1.144,0 1.143,0.286 2.571,0.571 1.144,0.572 2.571,0.857 2.286,1.143 2.286,1.429 1.143,0.571 0.286,0 1.429,0.572 1.143,0.571 3.429,1.714 0.857,0.572 2.572,1.429 3.143,2.286 1.143,0.572 2.001,1.143 0,0.286 1.429,0.571 2.285,1.143 4.001,1.429 2.286,1.143 2.285,1.143 3.144,1.714 1.429,0.857 1.143,0.857 2.857,2.572 2.572,2.572 2.571,3.429 0.857,0.857 0.857,0.857 0.857,1.143 0.571,0.857 0.857,1.143 1.429,2 1.143,1.143 1.143,0.286 2.001,0 1.143,0.286 0.857,0.857 1.429,0.572 0.856,0.571 1.144,0.857 0.571,0.857 1.429,2.286 0.857,0.857 2,1.429 0.857,0.857 2,3.429 1.144,1.715 1.143,2.571 0.571,1.429 1.143,0.857 0.572,0.571 2.285,1.715 1.429,0.857 0.857,0.286 1.429,0.286 2.572,0.286 3.143,-0.286 1.429,0 1.429,0 1.144,0.286 1.143,0.286 1.429,0.286 1.143,0.286 0.857,0.857 1.144,0.571 0.856,0.857 1.144,0.571 0.571,1.143 0.571,1.143 1.144,2.286 0.571,1.429 0.857,2.286 0,1.143 0,1.429 -0.572,2.286 -0.285,2.572 0,2.857 0.285,1.143 0.572,1.429 0.571,1.143 0.856,0.857 1.144,0.857 0.857,0.857 0.285,1.143 0.286,0.857 -0.286,1.143 -0.285,1.429 -0.286,1.429 0.286,1.429 0.285,1.143 0.286,1.143 0.285,1.429 0,1.143 0,2 0,2 0.286,1.429 0.857,1.429 2,2 0.857,0.571 0.857,0.857 2.286,2 2,1.429 2.571,1.429 0.286,0.286 1.714,0.571 1.144,0.857 0.856,0.572 1.429,0.571 2.572,0.286 1.429,0.286 2.571,0.571 4.001,0.571 2.571,0.572 0.857,0.571 0.285,0.857 0.286,0.857 0.571,1.143 1.144,4 0.285,2.572 0.286,2.572 0,1.429 0.285,1.429 0.857,1.143 0.571,1.143 1.144,1.143 0.857,0.857 1.143,0.857 1.143,0.572 3.144,1.714 2.571,1.143 1.429,0.571 1.144,0.286 1.429,0.286 1.143,0 1.429,0 2.571,0 1.144,-0.286 1.429,0 1.143,-0.286 1.144,-0.286 1.143,-0.286 2.571,0.286 2.572,0.286 1.143,0 2.572,0.571 1.143,0.572 0.571,0 5.43,2.286 2.285,1.143 1.144,0.286 0.856,0.857 1.144,0.857 0.571,1.143 0.571,1.143 0,0.857 0,2.571 0,2.572 0.571,1.143 0.857,0.857 1.429,0.572 1.144,0.286 2.857,0 0.857,0.286 1.428,0 0.286,0 0.857,0.286 0.285,0.286 0.572,0.286 2.285,1.429 4.572,2.286 1.429,0.286 -0.571,6 0,0 -1.429,3.143 0,0 -2.857,5.429 0,0.286 -0.857,5.715 -0.286,0.286 -2.571,3.429 0,0 -4.572,8.287 0,0 -5.715,13.43 0,0 -0.571,1.429 -4,13.716 0,0 -4.857,10.287 0,0 -1.429,7.143 0,0 -2.286,5.144 0,0.286 -4.286,8.572 0,0 0,1.143 -4.857,9.43 0,0 -3.429,7.43 0,0 -3.715,5.143 0,0 -8.001,7.43 0,0 -5.715,4 0,0 -4.572,3.144 0,0 -4.857,2.286 0,0 -4,3.429 0,0 -4,1.429 0,0 -3.144,1.429 0,0 -2,2.571 0,0.286 0.285,2.857 0,0.285 -2,4.286 0,0 -0.857,4.001 0,0 0.572,4.571 0,0 2,5.43 0,0 1.429,3.143 0,0 1.714,4.001 0,0 1.429,5.429 0,0 0.572,4.572 0,0 0.285,8.286 0,0 -0.285,4.286 -0.286,0.285 -3.429,4.287 -0.286,0 -3.143,1.143 -0.286,0.285 -1.715,2.572 0,0 -4.571,4 0,0 -2.857,2.572 0,0.285 -6.858,2.857 0,0.286 -5.429,4 0,0 -4.571,2.286 -0.286,0 -3.429,-0.571 0,0 -6.001,-0.857 0,0 -4.857,0.286 -0.286,0 -3.429,4.571 0,0 -2.286,3.144 0,0 -3.429,8.001 -0.285,0 -2.001,1.429 0,0.285 -4.285,0 0,0.286 -4.572,1.143 0,0 -5.715,0.571 0,0 -6.572,1.144 0,0 -5.144,2.285 0,0 -6,3.715 0,0 -5.715,2.572 0,0 -2.857,2.571 0,0 -4.001,4.572 -4,4.857 0,0 -3.715,4 0,0 -4.286,4.857 0,0 -3.714,3.715 0,0 -3.144,2.286 -0.286,0 -4,5.429 0,0 -6.572,7.43 0,0 -4.857,3.715 -0.286,0 -6.571,0.856 0,0 -8.001,2.572 0,0 -6.286,2.571 0,0 -6.001,2.572 0,0 -4.857,4.857 0,0 -5.429,4 0,0 -6.001,6.572 0,0 -2.286,7.144 0,0 -2,7.429 0,0 -2.571,12.858 0,0 -1.144,11.145 0,0 0.286,8.572 0,0 2.286,12.286 0,0 0.285,4.858 0,0 4.572,6 0,0 3.715,4.572 0,0.285 0.571,2.001 0,0 -1.429,3.714 0,0.286 -4.572,4.857 0,0 -6,4.572 0,0 -7.43,2 0,0 -12.572,-2 0,0 -9.43,-2.857 -2.571,-0.857 0,0 -12.573,-4.572 0,0 -7.144,-3.714 -0.285,0 -7.144,-4.286 0,0 -4.286,-3.715 0,0 -4.572,-2.286 0,0 -4.286,-0.286 0,0 -3.429,2.857 0,0 -2.571,0.857 -0.286,0 -4.857,0.857 0,0 -6.857,1.143 -0.286,0 -5.429,2.286 0,0 -2.857,2.857 -0.286,0 0,3.715 0,0 0,0 0.286,3.144 0,0 2.571,5.429 0,0 1.429,4 0,0 0,3.715 0,6.286 0,0 -0.286,5.43 0,0 -0.285,1.143 0,0.286 -1.144,7.144 0,0 0.572,4.857 0,0.285 -1.144,4.572 0,0 -1.429,5.144 0,0 -2.857,7.429 0,0 -1.714,5.715 -0.286,0 -5.144,5.715 0,0 -4.286,5.43 0,0 -1.714,6 0,0 -1.144,2.572 0,0 -2,3.714 0,0 -1.143,4.857 0,0.286 0,4 0,0 0,4.001 0,0.285 -3.144,0.857 0,0 -5.144,2.286 0,0 -5.143,2.571 0,0 -5.144,2.286 0,0 -4.286,2.857 0,0 -4.001,3.144 0,0 -2,4.286 -0.285,0 -2.857,2 0,0 -3.144,2.286 0,0 -2.571,0.857 -0.286,0.285 -1.143,2 0,0 -2.857,2.857 0,0 -2.572,5.144 0,0 -4.571,5.429 -0.286,0 -3.144,0.286 0,0 -2.571,-1.143 0,0 -3.429,-0.572 0,0 -3.429,0.572 -0.286,0.285 -1.429,1.715 0,0.285 -0.857,3.144 0,0.286 -2.285,2.857 0,0 -3.43,0.856 -0.285,0 -2.286,0.857 -0.286,0 -2,3.715 0,0 0.286,3.715 0,0 0.571,5.429 0,0.286 -0.571,3.429 0,0.286 -0.857,4.857 0,0 0.857,3.143 0,0 1.429,4.857 0,0.286 -0.286,3.429 0,0 -1.143,2.572 0,0 -3.429,4.857 -0.286,0 -3.144,3.429 0,0 -4.571,4.286 0,0 -3.715,3.144 0,0 -4,4.286 0,0 -5.144,7.144 0,0 -5.715,8.857 0,0 -2.857,2.571 0,0 -6.001,4.572 0,0 -8.286,3.715 0,0 -5.429,4 0,0 -6.572,4.572 0,0 -3.429,2.857 0,0 -5.43,4.571 0,0 -4,4.572 0,0 -4,8.001 0,0 -4.572,6 0,0 -3.144,7.144 0,0 0,0 -2.571,7.715 0,0 -3.144,8.287 0,0 -2,9.144 0,0 -4.571,9.715 0,0 -3.429,4.572 0,0 -9.145,7.715 0,0 -2,4.857 0,0 -4.286,6.858 0,0 -3.143,3.714 0,0 -7.144,8.001 0,0.286 -8.858,8.286 0,0 -4.286,2.571 0,0 -6.857,3.715 0,0 -7.43,2.572 0,0 -8.286,6 -0.286,0 -2.857,5.144 0,0 -0.571,5.715 -8.286,-2 -10.858,-3.715 -2,-2.857 -0.571,-3.144 0,0 0,-0.285 0.856,-8.001 0,0 -1.714,-3.429 -0.286,0 -2.286,-1.429 0,0 -5.143,-2.857 0,0 -3.715,0.571 -5.144,-1.429 -2.286,-2.286 0,-0.285 -1.429,-3.144 -0.285,-0.285 2,-7.144 0.286,-3.43 -1.144,-2 -3.429,-0.857 -4.857,1.429 -4.857,-1.714 -2.572,-2.572 0,0 -0.571,-3.714 -0.285,-0.286 1.143,-4.857 0,0 -0.857,-2.857 -1.714,-2.857 -0.857,-5.715 -2.286,-3.429 0.286,-2.857 -1.144,-2.572 -2.857,-0.285 -2,-0.857 -4.286,-1.143 0,0 -6.857,0.285 0,0 -5.144,-1.429 -0.286,0 -2,-0.857 0,0 -10.001,-7.144 0,-0.285 -4,-4.572 -2,-6.572 -0.286,0 -3.429,-4.571 -5.144,-3.715 0,0 -3.144,-3.429 0,0 -5.143,-5.144 0,0 -5.715,-3.429 -0.286,0 -2.286,-2.571 0,-0.286 3.144,-6.857 4.571,-8.001 3.144,-6.858 3.715,-6 -1.144,-3.715 0,0 -4.571,-6.572 0,0 -5.144,-6.571 0,0 -3.144,-6.572 -0.571,-4.001 0,0 3.715,-5.429 0,0 4,-10.858 0,0 -0.285,-4 -3.715,-3.144 -6.286,-1.143 -5.144,-2 -2,-2.857 0,0 -9.43,-14.002 0,-0.285 -0.285,-2 1.143,-6.001 0,-7.144 -1.429,-4.286 0,0 -2.286,-3.715 -4.286,-4.286 -2.286,-3.714 -0.856,-4.572 0,0 0.285,-4.857 0.857,-5.43 -116.59,-259.739 131.727,-163.443 190.303,-236.594 11.43,-14.287 48.005,-55.148 1.143,1.429 0.857,1.143 0.857,2.286 0.856,0.857 0.857,1.143 1.144,1.714 0.856,0.857 1.429,0.857 2.286,0.572 1.144,0.571 1.143,0.572 3.144,2.286 0.856,0.857 0.857,0.857 0.857,1.143 0.286,1.143 1.143,2 0.857,1.143 0.857,1.143 0.571,1.429 1.143,0.857 2.286,0.571 1.143,0.286 1.429,0.286 2.286,0.572 1.429,0.286 1.715,0.286 0.857,0.572 0.571,0.286 2,1.143 2,1.714 0.857,0.857 1.429,0.572 2,0.857 1.429,0.572 1.143,0.286 1.429,0.286 2.572,0 1.143,0 1.144,0.286 1.429,0.572 0.571,0.571 0.857,1.143 1.429,2 0.571,1.143 0.571,1.143 0.571,0.857 0,0.286 1.144,0.857 2,2 0.857,0.571 1.428,0.285 z"
       inkscape:connector-curvature="0"
       class="DEP_08 ZON_03" /></g></svg>