<?xml version="1.0" encoding="UTF-8" standalone="no"?>
<!-- Generator: Adobe Illustrator 16.0.0, SVG Export Plug-In . SVG Version: 6.00 Build 0)  -->

<svg
   xmlns:dc="http://purl.org/dc/elements/1.1/"
   xmlns:cc="http://creativecommons.org/ns#"
   xmlns:rdf="http://www.w3.org/1999/02/22-rdf-syntax-ns#"
   xmlns:svg="http://www.w3.org/2000/svg"
   xmlns="http://www.w3.org/2000/svg"
   xmlns:sodipodi="http://sodipodi.sourceforge.net/DTD/sodipodi-0.dtd"
   xmlns:inkscape="http://www.inkscape.org/namespaces/inkscape"
   version="1.1"
   id="SvgMunicipio"
   x="0px"
   y="0px"
   width="721.611px"
   height="1000.024px"
   viewBox="64.751 118.288 721.611 1000.024"
   enable-background="new 64.751 118.288 721.611 1000.024"
   xml:space="preserve"
   inkscape:version="0.91 r13725"
   sodipodi:docname="MUN_ID0812.svg"><metadata
     id="metadata10"><rdf:RDF><cc:Work
         rdf:about=""><dc:format>image/svg+xml</dc:format><dc:type
           rdf:resource="http://purl.org/dc/dcmitype/StillImage" /></cc:Work></rdf:RDF></metadata><defs
     id="defs8" /><sodipodi:namedview
     pagecolor="#ffffff"
     bordercolor="#666666"
     borderopacity="1"
     objecttolerance="10"
     gridtolerance="10"
     guidetolerance="10"
     inkscape:pageopacity="0"
     inkscape:pageshadow="2"
     inkscape:window-width="682"
     inkscape:window-height="480"
     id="namedview6"
     showgrid="false"
     inkscape:zoom="0.23599434"
     inkscape:cx="360.80551"
     inkscape:cy="500.01199"
     inkscape:window-x="0"
     inkscape:window-y="0"
     inkscape:window-maximized="0"
     inkscape:current-layer="svg" /><g
     id="g3"><path
       id="MUN_0812"
       d="m 516.94,262.456 0.775,0.465 2.17,-0.155 2.636,0 1.705,0.775 0.931,4.65 1.55,2.015 2.016,2.17 3.72,2.791 4.961,5.426 3.875,3.41 1.551,3.565 4.65,4.496 4.65,-0.155 0,0 1.085,-0.775 1.551,-0.31 1.55,0.155 1.396,0.311 0.93,0.465 1.085,0.31 0.466,0.465 0.62,0.465 0.31,0.31 0.155,0 0.93,0.775 2.79,0.62 2.326,1.395 1.859,1.085 1.086,1.395 0,0 1.55,0.62 1.705,0.465 2.17,0.93 3.721,1.24 1.396,0 2.015,0.465 2.171,-0.31 2.015,-0.31 2.48,0.155 1.551,0.465 2.17,0.93 1.55,1.24 1.551,2.015 2.48,1.86 1.55,0.31 1.24,-0.465 2.325,-0.465 1.55,0.155 1.705,0.465 1.396,1.24 1.085,0.775 1.396,1.396 0.775,0.62 2.015,1.085 2.016,0.775 1.085,1.705 0.62,1.24 0.155,0.93 0,2.48 0.154,0.62 0.62,1.24 0.155,0.155 0.931,0.155 0.154,0 1.551,-1.085 1.705,-0.155 0.155,0 0.93,0.93 0.465,1.55 0.62,1.396 0.62,1.86 0.311,1.085 0.465,1.705 0.155,1.705 0,1.86 0.154,1.395 0.62,1.396 0.62,1.395 0.775,1.24 1.705,0.93 1.085,0.465 1.551,0.62 2.17,0.31 1.55,-0.155 1.396,0.62 0.62,0.155 0.775,0.465 1.24,0.62 0.619,0.465 2.326,1.24 2.015,1.24 2.016,0.465 2.015,0.775 1.24,0.155 1.086,-0.155 0.93,0.155 1.55,0 1.085,0.155 1.086,0.465 0.93,1.24 0.465,1.085 0,1.085 0.155,1.085 0.31,1.86 0.621,1.705 0.619,1.705 1.086,1.085 0.774,0.465 0.931,0.31 1.085,0.465 1.396,0.775 1.395,0 1.24,1.085 0.465,0.155 0.775,0.62 -0.155,-0.31 0.775,0.775 0.465,0.62 -0.155,0 0,0.155 0.931,1.395 0.31,0.93 0.311,0.62 0.93,0.93 0.775,0.31 1.24,0.62 1.24,0.155 1.395,0.155 0.775,0.62 0.775,0.62 0,0 0.31,1.395 -0.154,2.791 0.154,3.255 0,2.945 -0.154,1.86 0,2.17 0.154,0.775 0.466,0.775 0,0 0.774,0.62 1.396,0.775 1.55,0.155 0.775,0.31 1.085,0.31 0.931,1.085 0.465,1.24 0.155,1.55 0,1.86 0.31,1.86 0.62,1.24 1.396,1.86 0.774,1.085 0,0.155 1.396,0.31 2.016,0.931 1.859,0.775 2.016,-0.155 1.705,0.155 0.775,0.31 0.62,0.155 0.62,0.774 0.465,1.551 1.24,1.705 0.775,0.93 1.085,1.086 1.085,1.239 1.24,0.931 0.775,0.465 1.55,0.931 2.325,1.859 1.705,1.396 1.551,1.705 1.085,1.24 0.774,0.775 0.931,0.93 1.395,1.396 1.551,1.396 2.325,1.395 1.86,0.931 2.015,0.774 1.86,0.775 2.016,1.085 1.86,0.775 1.395,0.775 1.24,0.31 0.775,0.62 1.24,0.93 1.085,1.086 1.085,0.93 0.466,0.465 1.085,0.311 1.085,0.774 0.465,0.311 1.24,0.93 0.62,1.24 1.396,1.551 0.774,0.465 1.396,1.085 0.775,0.62 0.62,0.465 0.774,0.931 0.931,0.93 0.31,0.62 0.311,0.931 0.465,1.859 -0.155,2.48 0,0.62 0.155,0.155 0.62,0.465 1.396,0.465 1.859,0 1.24,0 0.62,0.311 1.085,0.62 1.705,0.774 0.155,0 0.466,-0.154 0.93,-0.466 0.775,-0.154 0.774,0.154 1.085,0.466 0.466,0.774 0.62,1.086 0.154,0.774 0,2.945 0.155,2.171 0.311,0.93 0.465,1.085 -0.311,2.325 0,1.396 0.311,0.775 0.93,1.705 0,0 0,0.31 -0.31,0.62 0.154,1.24 0.466,1.24 0.62,1.085 0.62,0.931 1.085,0.93 0.155,0 0.465,0 0.155,0 1.55,0.775 0.93,0.62 1.86,0.774 1.24,0.931 0,0 1.085,0 0.931,0 0.93,0.465 0.62,0.465 0.155,0.155 -0.311,0.93 0.155,1.24 0,0 0.465,0.466 0.931,0.774 0.465,0.62 0.31,1.551 0.466,2.479 0.465,1.24 0.93,1.396 2.171,2.945 -9.302,11.316 0,0 -5.735,8.371 0,0 -1.86,7.751 0,0 -2.17,6.355 0,0 -0.62,4.961 0,0 -1.705,7.906 0,0 -1.551,5.115 0,0 -1.705,3.721 -0.155,0 -1.705,4.34 0,0 -3.255,4.496 0,0 -4.341,3.72 0,0.155 -5.426,1.86 0,0 -6.976,0 0,0 -4.65,0.465 0,0 -5.116,0.466 0,0 -4.96,0.93 0,0 -6.666,2.016 0,0 -4.961,4.186 0,0 -1.705,3.1 0,0 -2.015,3.721 0,0 -0.466,2.325 0,0 -1.085,5.116 0,0 0,1.395 0,0.155 -2.17,4.03 0,0.155 -2.79,2.945 0,0 -3.256,2.325 0,0 -2.945,2.48 0,0 -2.325,2.015 0,0.155 -2.016,3.101 0,0 -7.131,14.417 0,0 -4.806,8.371 0,0 -2.945,8.836 0,0 -2.015,5.58 0,0 -0.155,1.705 -0.155,0 -2.015,0.155 0,0.155 -0.931,0.465 0,0 -1.395,1.396 0,0 -0.62,2.015 0,0 0,7.286 0,0.155 -0.466,0.62 -0.154,0 -0.465,0.774 -0.155,0 -0.62,2.016 -0.155,0 -0.62,1.085 -0.155,0 -5.115,1.705 0,0 -5.271,1.086 0,0 -7.286,0.93 -0.155,0 -0.774,0.155 -0.155,0.154 -0.311,1.396 0,0 0.155,2.945 0,0 0.62,5.735 0,0 0.775,11.627 0,0 0.465,7.286 0,0 -1.55,3.255 0,0 -0.775,1.396 0,0 -0.62,3.41 0,0 0,2.17 -0.155,0 -2.015,2.48 0,0 -2.016,1.24 0,0 -10.231,11.161 0,0 -5.891,4.806 0,0 -4.186,3.41 0,0.155 -1.55,2.48 0,0.155 -3.565,2.79 0,0 -2.325,5.271 0,0 -1.396,2.48 0,0 -0.774,1.86 0,0 -0.466,2.945 0,0 0.311,4.961 0,0 1.085,5.891 0,0 0.155,2.17 0,0.155 -0.311,2.48 0,0 -0.62,5.425 0,0 -0.154,3.256 0,0 -0.621,2.17 0,0.155 -0.154,0 -0.311,0.775 0,0 -0.774,0.465 -0.155,0 -1.24,0.465 0,0 -1.24,0.311 0,0 -0.465,0.465 -0.155,0 -0.31,0.62 0,0.155 0,0.93 0,0 0.465,1.396 0.155,0.154 0.62,0.931 0,0 1.395,2.17 0,0 0.62,1.86 0,0 1.24,2.79 0,0 1.24,1.396 0,0 0.775,0.465 0,0 0.465,0.931 0,0.154 -2.016,1.86 0,0 -2.17,2.016 0,0 -1.55,1.395 0,0 -1.396,1.551 0,0 -1.396,2.79 0,0.155 -0.465,1.55 0,0 0,0.62 0.155,0 0.31,0.62 0,0 0.465,0.775 0.155,0 0.155,0.31 0,0.155 -0.155,0.311 0,0.154 -0.774,0.62 0,0 -2.946,2.48 0,0 -0.62,0.775 0,0.155 0,1.239 0,0.155 0.62,0.931 0,0 0.931,1.86 0,0 0.775,2.015 0,0 0.62,3.256 0,0 0,2.17 0,1.705 0,0.155 2.325,2.325 0,0 0.774,1.085 0,0 0.775,1.24 0,0.155 0.62,2.79 0,0 0.775,2.016 0,0 -0.62,2.015 0,0 -0.775,2.016 -0.155,0.155 -1.705,2.325 0,0 -2.325,2.325 0,0 -0.62,0.62 0,0 -0.62,0.93 0,0 -0.155,0.931 0,0.154 0.466,0.775 0.154,0 0.466,0.465 0,0 0.62,0.465 0,0.155 0,0.62 0,0.775 0,0 -0.311,1.55 0,0 0.311,1.396 0,0 1.395,1.396 0,0 0.931,1.239 0.154,0 0.62,0.931 0.155,0 0,0.155 0,0.154 -0.465,0.466 0,0 -0.465,0.62 -0.155,0 -0.311,0.31 0,0 -0.31,0 0,0 -0.311,0 0,-0.155 -1.395,-0.154 0,0 -1.551,1.239 0,0 -3.41,2.636 0,0.155 -4.495,2.325 0,0 -6.356,3.721 0,0 -1.55,1.085 0,0 -0.62,0.774 0,0 -0.465,2.016 0,0 0.62,1.396 0,0 1.705,3.565 0,0 1.705,2.325 0,0 1.396,1.395 0,0 1.55,0.62 0,0 1.86,1.396 0,0.155 2.79,5.426 0,0 1.705,5.735 0,0 1.86,4.03 0,0 2.016,9.611 0,0 1.86,6.355 0,0 1.55,4.961 0,0 3.565,8.681 0,0.155 1.705,6.976 0,0.155 -0.155,2.636 -0.154,0 -1.705,2.015 0,0 -1.396,2.325 0,0 -0.93,2.171 0,0 -1.086,2.945 0,0 -0.774,1.705 0,0 -2.016,7.131 0,0 -0.62,1.705 0,0 -1.085,1.24 0,0 -1.396,1.55 0,0 -0.154,1.24 0,0 1.239,1.085 0,0 0.62,2.325 0,0.155 0.62,2.016 0,0.155 -3.875,5.891 0,0 -1.55,1.395 0,0 -0.311,0.931 0,0.154 0.155,0.931 0,0 0.155,0.775 0,0 0,0.774 0,0 -1.24,1.86 0,0 -0.775,1.085 0,0 -1.24,2.016 0,0.155 -4.961,11.161 -4.65,6.511 0,0 -3.565,5.271 0,0 -4.495,4.806 0,0 -4.186,5.426 0,0 -3.876,5.271 0,0 -3.255,4.65 0,0 -2.325,3.721 0,0 -2.016,2.945 0,0.155 -2.635,2.325 0,0 -1.706,3.255 0,0 -0.774,1.705 0,0 -1.085,1.396 0,0 -1.706,1.55 0,0.155 -0.619,1.86 0,0 -0.775,3.101 0,0 -0.62,2.635 0,0 -0.155,4.65 0,0 0.155,2.48 0,0.155 0.31,0.93 0,0 -1.395,2.326 0,0 -1.24,2.635 0,0 -0.311,2.636 0,0.154 -1.705,3.256 0,0 -2.015,1.86 0,0.154 -2.325,1.086 0,0 -1.396,0.93 -0.155,0 -2.016,5.735 0,0 -0.154,1.86 0,0 -1.085,3.256 0,0 -2.171,4.186 0,0 -2.17,2.325 0,0 -2.48,1.24 0,0 -3.101,2.79 0,0 -1.085,3.41 0,0 0.311,4.341 -6.666,8.991 -0.155,0 -9.146,0 0,0 -8.681,-3.41 0,0 -14.417,3.875 -0.154,0.155 -4.651,8.526 0,0 -12.091,3.875 -0.155,0 -4.186,-2.325 -0.155,0 -5.115,-11.161 -0.155,0 -3.72,0 0,0 -17.053,-0.466 0,0 -16.432,-2.479 0,0 -12.092,-6.511 0,0 -1.86,-3.721 0,-0.155 -0.465,-3.875 0,0 -0.93,-4.341 0,-4.806 0.155,-0.775 0.774,-3.875 1.085,-3.721 0.155,0 0.62,-3.565 0,0 1.24,-1.55 3.565,-3.721 2.325,-3.255 2.016,-4.806 0,0 2.325,-1.24 4.806,-2.016 1.55,-2.48 -1.24,-2.325 0,0 -3.565,-4.186 -0.155,0 -1.705,-3.72 0,0 -1.55,-4.961 -1.705,-4.341 -0.311,-3.721 0.466,-4.65 0,0 -0.311,-5.271 0,0 -0.93,-1.86 0,0 -3.256,-3.565 -3.565,-0.154 -4.186,-0.466 -2.79,-1.24 0,-0.154 -1.705,-1.551 -3.101,-2.17 0,0 -3.101,-3.101 -2.945,-2.015 -4.03,-3.721 0,0 -1.86,-2.171 0,0 -1.396,-3.1 -3.1,-2.791 -2.016,-3.255 -0.465,-2.325 0.465,-2.791 -0.93,-1.395 -2.326,-0.931 -1.55,0.311 -1.86,0.62 0,0 -1.395,0.62 -2.016,0.93 0,0 -3.721,2.48 -3.72,1.55 -3.256,0.62 -4.341,1.24 -5.735,-2.635 -2.17,-0.311 -1.86,0.931 -2.016,1.395 -2.635,0.62 0,0 -4.341,0.311 0,0 -3.721,-0.931 0,0 -3.721,-1.86 0,0 -1.55,-1.55 0,0 -1.86,-3.875 -1.86,-2.325 -2.17,-0.775 -1.085,-1.085 0,-2.171 -1.085,-2.945 -2.325,-2.945 0,-0.155 -4.031,-2.945 -0.154,0 -4.651,-2.945 0,0 -2.479,-1.55 -0.155,-0.155 0.31,-3.255 -0.774,-1.085 -2.016,-0.311 -2.015,1.085 -1.706,0.155 -0.154,-0.62 0.465,-2.17 0.155,-3.101 0,0 0.31,-5.735 0,0 0.311,-5.116 0,0 3.565,-2.945 0.93,-1.55 -0.775,-2.171 -1.55,-4.185 -0.155,-0.155 0.155,-2.016 0,0 3.101,-6.046 0,0 2.015,-6.82 0,0 0.311,-3.876 0,0 -0.155,-3.1 -0.62,-3.565 -1.705,-3.411 -2.48,-2.48 -2.48,-2.325 -2.325,-1.395 -4.34,-1.86 -0.311,-1.396 -0.155,-4.03 0,0 -0.774,-5.426 -1.24,-2.17 -1.86,-3.565 0,0 -0.311,-2.48 0,0 -4.03,-3.721 -3.101,-3.255 0.155,-6.201 0.931,-4.495 2.479,-2.325 0,0 1.086,-2.48 0,-0.155 2.015,-4.65 -0.465,-2.325 -0.465,-0.465 -0.465,-3.256 0,0 -11.782,-11.937 0,0 -18.451,-20.608 0,0 -18.293,-23.718 -0.154,0 -22.633,-26.354 0,0 -14.572,-21.857 0,-0.155 -7.131,-9.146 -0.154,0 -11.627,-12.712 0,0 -16.432,-22.322 0,0 -10.541,-12.092 0,0 -13.177,-16.276 0,0 -16.277,-22.633 -0.155,-0.155 -6.665,-5.891 0,0 -11.162,-13.642 0,0 -1.55,-1.705 -13.021,-15.192 0,0 -22.322,-27.128 0,0 -7.441,-3.721 -0.155,0 -1.085,-9.921 0,0 4.806,-16.277 0,0 4.961,-23.563 0,0 15.502,-37.824 0.154,-0.155 1.396,0.465 1.24,0.311 0.775,-0.775 0.93,-2.79 0.62,-2.325 0.775,-2.48 0.93,-2.791 0.311,-1.859 0.31,-1.396 0.155,-1.396 0,-1.24 0,-2.015 0.155,-1.86 0.154,-1.24 0.155,-0.93 0.775,-0.931 0.465,-0.93 0.775,-0.62 0.465,-0.62 0.465,-0.62 0.311,-0.931 0,-0.774 0.31,-0.775 0.31,-0.62 0.311,-0.93 0.465,-0.931 0.465,-1.24 0.311,-0.465 0.31,-0.775 0.466,-0.93 0.31,-0.775 0.465,-0.93 0.465,-0.465 0.155,-0.62 0.775,-0.466 0.465,-0.31 0.775,-0.62 0.775,-0.93 0.619,-0.62 0.311,-0.62 0.465,-1.24 0.311,-0.465 0.465,-0.775 0.465,-0.62 0.311,-0.465 0.31,-0.775 0,-0.465 0,-0.62 0,-0.775 -0.155,-0.465 0,-0.775 -0.465,-0.93 0,-0.62 -0.155,-0.465 0,-0.931 0.155,-0.775 -0.155,-0.31 58.442,-127.735 0,-0.155 232.063,-182.147 14.727,17.982 8.371,12.866 17.517,18.447 8.991,7.596 5.736,7.131 1.86,4.961 2.015,3.255 2.325,1.705 3.256,2.015 3.41,3.255 2.636,1.55 3.1,3.721 3.256,2.945 5.426,2.015 1.86,2.48 1.859,1.396 3.256,3.565 4.03,5.581 3.721,6.356 6.511,8.526 5.891,11.161 4.186,4.186 1.396,6.356 -0.466,3.875 0.612,1.241 z"
       inkscape:connector-curvature="0"
       class="DEP_08 ZON_03" /></g></svg>