<?xml version="1.0" encoding="UTF-8" standalone="no"?>
<!-- Generator: Adobe Illustrator 16.0.0, SVG Export Plug-In . SVG Version: 6.00 Build 0)  -->

<svg
   xmlns:dc="http://purl.org/dc/elements/1.1/"
   xmlns:cc="http://creativecommons.org/ns#"
   xmlns:rdf="http://www.w3.org/1999/02/22-rdf-syntax-ns#"
   xmlns:svg="http://www.w3.org/2000/svg"
   xmlns="http://www.w3.org/2000/svg"
   xmlns:sodipodi="http://sodipodi.sourceforge.net/DTD/sodipodi-0.dtd"
   xmlns:inkscape="http://www.inkscape.org/namespaces/inkscape"
   version="1.1"
   id="SvgMunicipio"
   x="0px"
   y="0px"
   width="521.462px"
   height="999.985px"
   viewBox="64.663 118.314 521.462 999.985"
   enable-background="new 64.663 118.314 521.462 999.985"
   xml:space="preserve"
   inkscape:version="0.91 r13725"
   sodipodi:docname="MUN_ID0802.svg"><metadata
     id="metadata10"><rdf:RDF><cc:Work
         rdf:about=""><dc:format>image/svg+xml</dc:format><dc:type
           rdf:resource="http://purl.org/dc/dcmitype/StillImage" /></cc:Work></rdf:RDF></metadata><defs
     id="defs8" /><sodipodi:namedview
     pagecolor="#ffffff"
     bordercolor="#666666"
     borderopacity="1"
     objecttolerance="10"
     gridtolerance="10"
     guidetolerance="10"
     inkscape:pageopacity="0"
     inkscape:pageshadow="2"
     inkscape:window-width="682"
     inkscape:window-height="480"
     id="namedview6"
     showgrid="false"
     inkscape:zoom="0.23600354"
     inkscape:cx="260.73099"
     inkscape:cy="499.99249"
     inkscape:window-x="0"
     inkscape:window-y="0"
     inkscape:window-maximized="0"
     inkscape:current-layer="svg" /><g
     id="g3"><path
       id="MUN_0802"
       d="m 447.383,173.414 4.964,9.266 5.047,4.55 2.729,6.453 0.993,6.453 0.165,0.91 -4.633,10.424 -3.806,5.791 -4.633,6.867 -3.641,2.316 -6.866,3.227 -3.227,5.13 -1.903,5.543 -3.392,3.144 -4.964,4.633 -5.295,3.723 -6.453,2.647 -5.212,2.565 -3.724,2.068 -6.37,4.881 -6.618,3.227 -3.641,1.82 -3.889,3.888 -4.137,2.482 -8.438,3.31 -7.28,3.475 -4.633,3.64 -10.425,4.716 -4.137,6.95 -4.137,10.59 -2.896,7.859 -2.813,6.205 -4.054,8.687 -3.475,6.288 -4.137,5.708 -4.551,8.107 -1.737,2.399 -2.399,3.392 2.234,0.662 6.37,-0.083 16.381,0.579 8.19,0.331 0.827,0 0.497,0 1.158,0.165 0.992,0.083 1.076,0.166 1.24,0.083 4.055,0.414 5.046,0.414 0.745,0.083 105.483,57.251 115.494,62.711 1.489,3.64 0.579,1.241 0.083,2.234 0.083,1.737 0,2.398 0.248,9.598 0.083,3.889 -0.249,2.896 -0.082,2.398 -0.331,1.489 -0.745,1.903 -0.91,2.233 -0.827,2.151 -0.662,1.902 -0.827,1.903 -0.413,2.068 -0.579,3.641 -0.414,4.054 0,3.227 -0.165,1.075 -0.083,2.316 -0.414,3.558 -0.248,2.896 -0.083,0.662 0,1.82 0,1.571 0.249,1.903 0.331,2.896 0.165,2.068 0.165,1.902 0.166,1.82 0.083,1.158 0.082,1.82 0.166,3.475 0.165,2.316 0.166,2.647 0.082,1.324 0.166,1.571 0.165,1.489 0.166,1.82 0.496,3.227 0.165,1.82 -0.082,1.571 0.082,1.489 -0.241,1.577 -0.082,2.399 0,1.406 -3.889,4.137 -2.316,2.481 -2.482,2.565 -3.227,3.558 -1.158,1.158 -4.633,5.046 -4.054,4.22 -3.227,3.641 -3.558,3.888 -1.406,1.737 -0.828,0.993 -0.165,0.579 -0.414,2.564 0,0.579 -0.413,1.903 -0.496,3.723 -0.249,0.827 -0.248,1.489 -0.165,1.241 -0.248,1.324 -0.083,0.909 -0.166,1.324 -0.248,1.737 -0.331,1.903 -0.082,0.579 -0.083,1.075 -0.248,1.323 0,0.993 -0.166,0.827 -0.082,1.406 -0.166,1.737 -3.309,-1.819 -3.476,-0.331 -1.737,0.082 -3.309,0.58 -2.482,0.744 -1.241,0.496 -2.15,1.82 -1.407,1.572 0.579,2.068 1.241,1.158 0.827,1.24 0.745,1.986 -0.166,1.24 -0.496,2.482 -0.413,0.744 -2.565,1.738 -3.061,1.737 -1.655,0.496 -3.557,0.744 -1.655,0.993 0.083,1.654 0.744,1.903 0.414,1.82 0.165,1.819 0.249,1.076 1.323,0.827 0.91,0.827 0.331,0.745 -0.248,1.489 -0.414,0.248 -1.654,0.579 -1.655,0.661 -0.827,0.91 0,1.655 0.91,1.323 1.241,1.241 0.579,0.91 0.165,1.571 0.166,2.73 -0.083,0.414 0.579,1.737 0.414,0.744 1.406,1.737 1.241,1.82 0.661,1.572 -0.082,1.323 -0.249,1.903 -0.248,1.985 0.083,1.489 0.083,0.744 0.165,0.91 0.496,0.91 0,1.158 -0.082,0.827 -0.331,1.076 -0.662,0.91 -1.737,1.406 -1.489,0.579 -2.481,0.662 -1.241,0.496 -1.158,0.496 -0.414,1.241 0.166,0.579 0.744,1.075 0.662,0.993 0.165,1.075 -0.248,7.611 -0.496,4.551 -0.248,2.15 -0.331,1.324 -0.579,0.579 -2.151,2.399 -1.158,1.489 -0.662,0.827 0,0.91 0.745,4.054 0.496,2.564 -0.083,0.827 -0.413,1.903 -0.745,2.316 -0.413,1.654 -0.91,1.158 -1.241,1.158 -1.158,0.91 -1.406,1.076 0,0 -1.158,1.075 -0.827,0.745 -1.82,0.579 -0.827,0.165 -1.158,0.662 -1.986,0.827 -1.24,-0.166 -0.331,-1.075 -0.993,-0.496 -0.827,0.413 -0.993,0.414 -1.158,1.241 -1.323,0.992 -1.158,0.91 -1.158,0.993 -1.241,1.985 -1.654,1.903 -1.076,1.489 -1.241,1.488 -0.413,0.662 -0.166,0.827 -0.33,2.73 0.082,1.241 0.331,1.158 1.489,1.406 2.068,1.324 1.489,1.158 0.413,1.323 -0.33,1.241 -0.331,1.406 0,1.075 0,1.076 1.819,2.813 1.241,2.151 0.248,2.647 -0.827,2.647 -0.496,1.241 -0.662,1.737 -0.413,0.992 -1.489,2.151 -0.083,1.406 0,0.414 0.496,1.075 1.158,1.324 0.497,0.661 1.323,0.579 0.993,0.083 1.24,-0.331 1.489,-0.248 1.407,-0.248 -0.331,3.061 -0.248,2.979 -0.249,1.158 -0.579,2.151 -0.165,2.151 -0.414,1.24 -0.496,0.993 -1.654,4.881 -0.248,4.385 -0.249,2.896 0.249,1.407 0.165,1.819 -0.662,5.047 -0.413,2.813 -11.417,0.331 -6.536,0.496 -6.867,0.662 -1.075,11.417 -0.579,4.964 -0.165,4.55 -0.249,4.799 -0.33,4.137 -0.249,4.137 -0.248,3.888 -0.331,4.137 -0.413,3.972 -0.331,3.888 -0.248,3.476 -0.248,3.557 -0.083,0.414 -0.414,4.302 -0.496,4.716 -0.579,6.619 -0.662,5.295 -0.496,10.424 -0.248,3.144 -0.579,8.521 -0.248,6.205 -0.414,4.303 -0.248,3.392 -0.083,2.481 -0.248,3.393 -0.083,4.633 -0.331,2.482 -0.082,2.729 -0.414,4.716 0,0.827 7.694,9.598 4.137,5.129 3.392,3.972 3.31,3.723 7.197,8.604 3.972,4.219 4.881,5.626 6.949,8.273 3.641,4.302 18.78,21.842 0.993,0.661 -1.241,2.565 -0.579,1.571 -0.414,1.572 -0.083,1.489 0.331,2.647 0.083,0.992 0.083,2.317 -0.414,1.571 -1.241,2.151 -0.248,1.323 0.414,0.993 1.571,0.993 0.662,0.744 0.166,1.406 -0.083,1.158 0.414,0.828 0.579,0.827 1.488,-0.249 1.655,0.745 1.158,1.323 0.496,0.579 -0.91,1.324 -0.661,0.496 -0.497,1.076 -0.331,0.992 0.248,2.316 0.414,1.737 0.331,1.572 -0.331,1.158 -0.165,1.241 0.331,1.985 -0.083,2.647 0.165,1.406 0.248,1.158 0.249,1.324 -0.579,1.241 -0.662,0.248 -1.158,0.082 -0.497,0.828 -0.496,1.24 -0.165,0.497 -101.348,-69.164 -0.827,0.661 -0.744,0.083 -1.324,0.165 -1.902,0 -2.399,0 -2.564,-0.165 -2.316,-0.083 0.165,-0.827 0.083,-0.91 0.082,-1.241 0.083,-0.496 0.083,-0.827 0.083,-0.414 0.082,-0.827 0.083,-0.579 0,-0.413 0,-0.331 0.083,-0.662 0.082,-1.075 0,-0.331 0.083,-0.248 0.083,-1.076 0.083,-0.496 0.165,-1.075 0.083,-0.497 0,-1.737 0.082,-0.413 0,-0.248 0.166,-1.159 0,-0.165 0.083,-0.744 0.248,-2.482 0.165,-1.572 0,-0.082 0.166,-1.407 0.082,-1.406 0.166,-1.323 0.165,-1.985 0.248,-0.828 1.324,0 0.165,-0.082 -0.082,-0.083 -0.166,-0.414 0,-0.082 -0.496,-1.241 -0.166,-0.91 -0.248,-0.91 -0.082,-0.165 -0.331,-1.241 0.413,-0.248 0.579,-4.799 0.579,-4.881 0.083,-1.076 0.165,-1.24 0.083,-1.158 0.083,-1.572 0.165,-1.241 0.166,-1.82 2.316,-23.578 1.158,-9.763 1.654,-16.05 0.083,-7.115 -1.075,-5.047 -2.151,-10.59 -0.165,-1.158 -1.324,-1.075 -6.949,-5.791 -5.461,-4.633 -5.295,-4.468 -7.032,-6.04 -0.165,-0.165 -3.641,-3.062 -1.489,-1.323 -0.33,-0.248 -3.227,-2.73 -3.31,-2.813 -6.205,-5.461 -2.151,-2.068 -1.819,-1.489 -0.993,-0.909 -1.241,-0.993 -2.647,-2.233 -2.564,-2.317 -1.572,-1.323 -1.902,-1.737 -1.903,-1.737 -1.323,-1.076 -1.241,-1.158 -1.489,-1.24 -1.82,-1.655 -1.737,-1.571 -8.272,-7.363 -5.709,-1.572 -5.047,-1.406 -5.047,-1.406 -3.557,-1.076 -3.724,-0.992 -2.813,-0.497 -2.813,-0.413 -1.902,-0.496 -5.212,-1.737 -0.91,-0.249 -2.482,-0.91 -2.813,-0.992 -2.151,-0.745 -2.15,-0.744 -1.241,-0.496 -2.896,-1.324 -1.572,-0.496 -1.241,-0.331 -1.323,-0.083 -0.165,-0.082 -1.738,-0.083 -3.64,0 -2.564,0.579 -5.957,2.15 -1.903,0.745 -0.165,0.083 -2.73,1.323 -4.881,2.564 -3.31,1.737 -1.571,0.91 -1.076,0.331 -1.075,0.497 -1.324,0.661 -0.909,0.497 -0.993,0.496 -3.144,1.654 -1.986,1.158 -1.737,0.993 -1.985,0.827 -1.406,0.579 -2.482,0.745 -1.902,0.496 -1.489,0.165 -3.144,0.331 -1.82,0.083 -2.233,0 -1.572,0.083 -0.827,0 -2.316,-0.083 -1.489,0 -0.414,0 -0.331,-0.083 -5.708,0.083 -1.324,0.414 -2.896,1.075 -1.323,0.413 -1.407,-3.061 -1.406,-3.227 -0.165,-1.324 -0.083,-0.165 -0.165,-1.075 -0.249,-1.407 -1.24,-0.165 -2.151,-0.331 -5.378,-0.992 -8.355,-1.324 -12.658,-1.985 -12.575,-2.068 -0.662,6.453 -2.813,10.011 -1.655,1.902 -4.881,-2.564 -7.032,-0.165 -8.521,-0.993 -11.831,0 -7.032,-3.144 -2.068,-4.634 0.662,-6.039 2.399,-3.806 -3.558,-2.564 1.406,-1.655 0.745,-0.661 1.241,-0.745 3.061,-0.496 2.813,0 3.309,0.331 2.73,0.413 3.392,0.745 6.784,0.827 4.137,-0.414 6.122,-1.158 3.724,-1.902 2.564,-1.655 1.82,-3.309 1.158,-4.551 0.661,-2.068 0.331,-2.564 0.331,-4.137 -0.827,-3.723 -2.233,-2.564 -3.476,-2.151 -2.896,-1.82 -3.144,-2.316 -2.647,-3.392 -1.075,-2.896 -0.248,-3.31 1.323,-2.482 1.737,-1.24 2.068,-1.324 2.896,-3.558 1.076,-1.323 0.579,-1.655 0.496,-2.068 0.248,-2.316 -0.331,-4.881 -0.248,-1.985 -0.827,-1.489 -0.993,-1.324 -1.406,-0.744 -1.489,-0.414 -2.068,-0.082 -3.723,0.165 -3.227,-0.414 -3.889,-0.91 -2.481,-1.571 -1.903,-1.406 -0.744,-1.407 -0.331,-5.543 0.248,-1.406 0.992,-0.993 2.399,-1.902 1.572,-1.903 0.579,-2.233 0.165,-2.068 -1.24,-7.445 -0.745,-5.957 0.166,-4.302 0.579,-8.521 0.661,-3.889 0.993,-4.633 0.579,-2.399 0.414,-1.489 1.571,-3.393 1.158,-2.233 2.316,-3.061 2.151,-1.986 3.806,-3.64 1.737,-1.406 1.985,-1.986 1.158,-1.323 0.745,-1.489 0.744,-1.737 0.91,-2.564 1.158,-3.889 0.331,-3.227 0.331,-3.227 0.083,-1.985 -0.083,-2.151 -0.165,-1.737 0.248,-2.73 1.158,-3.889 2.233,-3.475 2.564,-2.729 2.068,-3.227 1.903,-2.73 2.151,-2.316 1.075,-1.324 1.075,-2.481 1.076,-2.896 1.075,-3.475 0.083,-1.159 -0.579,-1.488 -1.324,-1.241 -2.399,-1.655 -1.323,-0.33 -2.068,0.413 -7.611,7.032 -3.31,1.82 -1.572,0.414 -2.564,0.165 -2.15,0 -2.151,-0.165 -1.985,-0.414 -1.407,-0.662 -1.819,-1.323 -1.407,-1.406 -1.075,-1.572 -0.827,-2.151 -0.745,-2.316 -0.579,-3.971 -0.248,-5.792 0.331,-7.528 -0.413,-4.799 -0.745,-1.819 0.248,-4.385 0.331,-3.476 0.579,-3.227 2.151,-8.024 2.979,-8.936 2.813,-6.866 4.551,-6.701 3.061,-3.641 2.399,-3.227 0.331,-1.903 3.061,-2.646 1.903,-1.82 1.985,-2.151 -0.083,-2.564 -0.082,-0.414 -0.248,-0.827 -0.414,-0.91 -0.662,-0.992 -0.413,-0.414 -1.076,-0.993 -2.068,-1.819 -0.91,-0.414 -1.323,-0.496 -1.406,-0.497 -1.572,-0.661 -2.813,-1.076 -1.407,-0.662 -0.496,-0.33 -0.744,-0.497 -0.745,-0.331 -0.992,-0.33 -1.241,-0.331 -0.579,-0.166 -0.745,-0.579 -0.413,-0.331 -0.827,-0.331 -0.662,0 -0.579,0 -0.993,-0.082 -0.579,0 -0.496,-0.166 -0.414,-0.413 -0.413,-0.414 -0.414,-0.827 -0.496,-0.496 -0.827,-0.91 -0.414,-0.496 -0.91,-0.828 -0.91,-0.579 -0.91,-0.496 -0.992,-0.662 -0.91,-0.331 -0.827,-0.082 -0.827,-0.083 -0.745,0 -0.331,0.165 -0.579,0 -0.165,-0.248 0,-0.744 0.082,-0.662 0.166,-0.827 0.165,-0.827 0.579,-0.91 0.414,-0.414 0.579,-0.744 0.496,-0.414 0.331,-0.248 0.083,-0.496 0.083,-0.331 0.082,-0.414 -0.248,-0.579 -0.331,-0.579 -0.413,-0.496 -0.662,-0.662 -0.662,-0.496 -1.075,-0.497 -1.241,-0.496 -1.075,-0.413 -0.662,-0.083 -0.993,0.083 -0.827,0 -0.91,0 -1.075,-0.166 -0.993,-0.413 -1.075,-0.414 -0.993,-0.744 -1.654,-1.655 -0.744,-0.744 -0.579,-0.827 -0.828,-1.076 -0.413,-1.158 -0.662,-0.91 -0.248,-0.91 -0.166,-0.992 -0.248,-0.91 -0.165,-0.745 0,-0.496 -0.166,-0.496 -0.413,-0.166 -0.662,-0.413 -0.744,-0.745 -0.331,-0.827 -0.497,-0.579 -0.248,-0.91 -0.248,-0.662 -0.083,-0.827 -0.082,-0.91 -0.248,-0.992 -0.083,-0.497 -0.248,-0.661 -0.248,-0.331 -0.249,-0.662 -0.165,-0.744 -0.083,-0.91 0.083,-0.91 0.165,-0.91 0.414,-0.579 0.662,-1.075 0.744,-1.159 0.745,-0.827 0.413,-1.075 0.083,-1.489 0.165,-1.241 0.166,-1.24 0.165,-0.993 -0.082,-0.579 -0.249,-0.579 -0.165,-0.414 0,-0.579 0,-0.412 0,-0.414 0.248,-0.248 0,-0.248 -0.083,-0.166 -0.165,-0.248 -0.496,-0.496 -0.662,-0.827 -0.662,-0.91 -0.744,-0.91 -0.497,-0.745 -0.33,-0.827 -0.745,-0.992 -0.165,-0.91 -0.414,-0.827 -0.083,-0.579 -0.248,-0.745 -0.083,-0.744 -0.082,-0.91 -0.166,-0.745 -0.165,-0.661 -0.083,-0.662 -0.413,-1.076 -0.414,-0.661 -0.331,-0.579 -0.579,-0.993 -0.331,-0.744 -0.165,-0.828 -0.083,-0.744 -0.496,-0.744 -0.166,-0.497 -0.579,-0.744 -0.248,-0.579 -0.165,-0.662 -0.248,-0.579 -0.249,-0.331 -0.165,-0.414 -0.083,-0.579 0.083,-0.413 0.662,0 0.579,-0.083 0.661,0 0.414,-0.165 0.496,-0.166 0.249,-0.248 0.33,-0.579 0,-0.248 -0.248,-0.331 -0.579,-0.083 -0.579,-0.082 -0.744,-0.083 -0.579,-0.248 -0.579,-0.745 -0.248,-0.827 -0.166,-0.744 -0.083,-0.828 -0.082,-0.496 -0.248,-0.91 -0.166,-0.413 -0.165,-0.993 0,-0.579 0.165,-0.744 0.331,-0.662 0.579,-0.745 0.662,-0.496 0.661,-0.165 0.91,0.165 0.828,0.496 0.744,0.331 0.827,0.662 0.993,0.827 0.662,0.827 0.909,0.249 0.579,-0.414 0.166,-0.579 0.165,-0.496 0.083,-0.579 0.083,-0.828 -0.083,-0.909 0,-0.828 0.083,-0.827 0,-0.827 0.331,-0.827 0.33,-0.993 0.166,-0.744 0.248,-0.993 0.662,-0.992 0.579,-0.745 0.827,-0.91 0.579,-0.579 0.745,-0.744 0.661,-0.828 0.497,-0.496 0.413,-0.992 0.166,-0.993 0.082,-0.827 -0.082,-0.662 -0.083,-0.414 -0.248,-0.413 -0.414,-0.496 -0.413,-0.497 -0.662,-0.579 -0.497,-0.579 -0.33,-0.579 -0.249,-0.413 -0.165,-0.579 -0.414,-0.662 -0.413,-0.662 -0.496,-0.744 -0.497,-0.497 -0.496,-0.496 -0.496,-0.579 -0.331,-0.496 -0.248,-0.662 -0.083,-0.579 0,-0.331 -0.166,-0.248 -0.165,-0.331 0.165,-0.496 0.166,-0.497 0.248,-0.413 0.579,-0.579 0.331,-0.497 0.579,-0.413 0.993,-0.496 0.744,-0.249 0.662,-0.33 0.662,-0.249 0.413,-0.413 0,-0.248 -0.083,-0.414 -0.33,-0.496 -0.249,-0.579 -0.331,-0.248 -0.33,-0.579 0,-0.91 0.082,-0.662 0.497,-0.579 0.661,-0.496 0.745,-0.166 0.992,0.083 0.662,0.165 0.91,0.414 0.827,0.579 0.827,0.413 0.662,0.331 0.497,0.248 0.248,0.414 0.082,0.331 0.331,0.331 0.414,0 0.413,-0.248 0.414,-0.414 0.496,-0.827 0.414,-0.662 0.331,-0.662 0.248,-0.165 0.248,-0.165 0.496,-0.083 0.249,-0.166 0.165,-0.413 0.165,-0.497 0,-0.496 0,-0.662 0,-0.661 -0.33,-0.827 -0.579,-0.662 -0.579,-0.331 -0.828,-0.579 -0.91,-0.662 -0.909,-0.331 -0.497,-0.413 -0.165,-0.331 -0.083,-0.662 0,-0.579 -0.248,-0.414 -0.248,-0.331 -0.331,-0.166 -0.579,-0.248 -0.745,0 -0.744,0 -0.745,-0.166 -0.661,-0.166 -0.827,-0.166 -1.158,-0.414 -0.745,-0.496 -0.827,-0.828 -0.579,-0.579 -0.579,-0.579 -0.745,-0.745 -0.744,-0.579 -0.745,-0.827 -0.827,-0.662 -0.661,-0.579 -0.828,-0.993 -0.331,-0.662 -0.33,-0.331 -0.249,-0.248 -0.579,0 -0.579,0.331 -0.992,0.249 -0.745,0.331 -0.744,0.166 -0.414,-0.083 -0.331,-0.083 -0.165,-0.331 0,-0.331 0,-0.579 0.083,-0.579 0.331,-0.662 0.413,-0.662 0.248,-0.579 0.166,-0.993 0.579,-1.159 0.496,-0.993 0.662,-0.993 0.496,-0.91 0.248,-0.827 0,-0.331 -0.165,-0.745 0.165,-0.662 0.083,-0.91 0.083,-0.91 0.165,-0.993 0.166,-0.993 0.248,-0.828 0.082,-0.745 0.083,-0.745 0,-0.579 0,-0.579 0.331,-0.331 0.414,-0.166 0.413,-0.166 0.414,0 0.331,0 0.331,-0.166 0,-0.497 0,-0.496 -0.331,-0.662 -0.579,-0.745 -0.579,-0.745 -0.745,-0.662 -0.579,-0.579 -0.579,-0.331 -0.248,-0.496 -0.165,-0.58 0.082,-0.496 0.331,-0.497 0.579,-0.496 0.496,-0.414 0.497,-0.248 0.661,-0.414 0.745,-0.414 0.744,-0.497 0.662,-0.331 1.075,-0.248 0.828,-0.497 0.661,-0.579 0.414,-0.579 0.331,-0.579 0.248,-0.579 0,-0.745 0.165,-0.496 -0.082,-0.662 0,-0.662 -0.083,-0.497 -0.165,-0.579 -0.331,-0.579 -0.414,-0.414 0.248,-0.248 0.331,-0.331 0,-0.497 -0.331,-0.496 -0.331,-0.249 -0.496,-0.248 -0.496,-0.331 -0.414,-0.414 -0.496,-0.331 -0.248,-0.496 -0.083,-1.572 0.083,-2.813 0.661,-0.662 1.572,-1.158 2.647,-2.565 0.331,-0.91 0.165,-0.828 0.083,-0.745 0,-3.061 0.745,-1.406 0.165,-2.234 0.083,-2.813 -1.655,-3.475 -2.729,1.406 -0.662,1.076 -0.827,0.497 -0.579,0.083 -0.993,-0.083 -0.744,-0.331 -0.414,-0.248 -0.414,-0.579 -0.165,-0.828 -0.165,-0.745 0.165,-0.993 0,-0.497 0.248,-0.579 0.331,-0.414 0.496,-0.662 0.497,-0.662 0.496,-0.662 0.496,-0.414 0.579,-0.662 0.414,-0.662 0.248,-0.91 0.083,-0.662 -0.083,-0.745 -0.165,-0.414 -0.166,-0.579 0,0 0,-0.745 0.083,-0.579 0,-0.662 0.165,-0.497 0.331,-0.331 0.248,-0.165 0.166,-0.249 0,-0.745 -0.083,-0.91 -0.083,-0.91 0,-0.828 -0.248,-1.654 -0.248,-1.076 -0.414,-1.158 -0.248,-1.158 -0.248,-1.241 -0.496,-1.075 -0.248,-0.745 -0.827,-0.91 -0.662,-0.745 -1.076,-0.91 -0.413,-0.497 -0.083,-0.744 0.083,-0.828 0.165,-0.91 0.248,-0.993 0.166,-1.075 0.165,-0.828 0.083,-0.745 -0.083,-0.745 -0.165,-1.241 -0.166,-0.993 -0.082,-0.993 -0.414,-1.241 -0.165,-0.91 -0.248,-0.827 -0.497,-0.745 -0.248,-0.497 -0.744,-0.496 -0.497,-0.414 -0.91,-0.579 -1.323,-0.414 -0.744,-0.248 -0.745,-0.331 -0.414,-0.414 -0.909,-0.331 -0.579,-0.166 -0.91,-0.496 -0.331,-0.497 -0.083,0 -0.331,-0.579 -0.165,-0.579 0,-0.414 0.082,-0.497 0.249,-0.414 0.413,-0.331 0.993,-0.331 0.744,-0.579 0.745,-0.745 0.579,-0.662 0.331,-0.662 0.248,-1.076 -0.083,-0.662 0,-0.58 -0.083,-0.166 0,-0.91 -0.248,-0.579 -0.413,-0.579 -0.249,-0.579 -0.082,-0.331 0.248,-0.249 0.331,-0.496 -0.248,-0.166 -0.497,-0.497 -0.744,-0.579 -0.579,-0.331 -0.662,-0.579 -0.331,-0.497 -0.496,-0.414 -0.745,-0.414 -0.744,-0.249 -0.744,-0.331 -0.91,-0.331 -0.331,-0.331 0,-0.414 -0.083,-0.166 -0.496,0.166 -0.414,0.248 -0.331,0.414 -0.331,0.331 -0.33,0.662 0,0.662 0,0.497 0,0.662 -0.083,0.497 -0.248,0.414 -0.249,0.248 -0.413,0.083 -0.331,-0.083 -0.331,-0.414 -0.248,-0.414 -0.083,-0.497 -0.248,-0.745 -0.248,-0.91 0.083,-0.414 0,-0.744 -0.166,-0.249 -0.413,-0.414 -0.083,-0.662 0.165,-0.496 0.249,-0.745 0.248,-0.745 0.248,-0.662 0.248,-0.662 0.083,-0.497 0.165,-0.414 0.083,-0.662 0.083,-0.414 0.413,-0.414 0.331,-0.331 0.414,-0.579 0.331,-0.497 0,-0.414 -0.083,-0.497 -0.166,-0.496 -0.195,-0.228 -0.579,-0.331 -0.662,-0.083 -1.075,-0.166 -1.324,-0.165 -0.91,-0.166 -0.661,-0.166 -0.745,-0.331 -0.744,-0.497 -0.745,-0.248 -0.579,-0.248 -0.413,-0.497 -0.331,-0.166 -0.579,-0.248 -0.745,-0.248 -0.992,-0.249 -0.827,-0.248 -0.745,-0.166 -0.579,-0.166 -0.165,-0.414 0.082,-0.331 0.083,-0.496 0.248,-0.662 0.248,-0.496 0.166,-0.497 0,-0.827 0.083,-0.497 0.33,-0.331 0.414,-0.331 0.496,-0.662 0.414,-0.496 0.248,-0.58 0.248,-0.662 0.083,-0.745 0,-0.579 -0.083,-0.745 0.083,-0.745 0,-0.579 0.083,-0.414 0,-0.248 -0.083,-0.249 -0.414,-0.414 -0.579,-0.414 -0.744,-0.248 -0.827,-0.166 -0.579,-0.414 -0.331,-0.496 -0.331,-0.414 -0.414,-0.083 -0.744,-0.166 -0.579,-0.414 -0.496,-0.414 -0.497,-0.579 -0.662,-1.158 -0.579,-0.827 -0.413,-0.745 0,-0.579 0.248,-0.579 0.414,-0.58 0.248,-0.827 0.082,-0.662 0.497,-0.579 0.413,-0.497 0.249,-0.497 -0.083,-0.496 -0.497,-0.414 -0.661,-0.414 -0.745,-0.331 -0.827,-0.497 -0.827,-0.662 -0.827,-0.993 -1.737,-2.233 -1.076,-1.738 -0.579,-1.158 -0.248,-1.158 0,-0.91 0.166,-1.158 0.496,-0.91 0.744,-0.744 0.497,-0.579 2.316,0.91 13.568,2.068 10.01,1.489 -0.248,3.806 7.694,0.745 5.543,0.579 0.662,0.166 0.248,-0.579 0.248,-0.497 0.166,-0.165 1.654,0.083 0,-1.572 0,-0.414 2.068,-0.331 -0.083,-1.407 -0.165,-1.654 -0.083,-1.241 0.083,-0.497 0.165,-0.993 0.248,-1.324 0.497,-2.234 0.33,-1.654 0.166,-0.91 0.083,-0.662 -0.083,-0.744 -0.083,-1.407 -0.083,-0.662 -0.082,-1.489 -0.083,-1.737 -0.083,-1.572 0,-0.496 0,-0.414 0.083,-1.076 0.083,-1.737 0.413,-2.647 1.076,-2.234 0.661,-1.324 0.331,-0.579 1.324,-2.564 0.248,-0.828 0.248,-0.91 0.166,-0.579 0.082,-1.241 0.083,-0.579 0,-0.497 0.083,-0.248 -0.083,-0.166 -0.083,-0.248 -0.331,-0.579 -0.661,-0.828 -0.828,-1.241 -0.744,-0.828 -0.662,-0.579 -0.827,-0.91 -0.414,-0.331 -0.082,-0.248 -0.083,-0.166 0,-0.249 0,-0.248 0,-0.579 0.165,-0.745 0.166,-1.489 0.165,-1.241 0.248,-1.489 0.166,-1.407 0.165,-1.406 0.249,-1.158 0.082,-0.579 0.166,-0.91 0.082,-1.076 0.166,-0.744 0,-0.58 0,-0.745 -0.083,-0.662 -0.248,-1.903 -0.083,-0.662 0,-0.662 0,-1.158 0,-0.662 0.083,-0.993 0.083,-0.993 0.082,-0.414 0.166,-0.993 0.165,-0.579 0.248,-0.993 0.083,-0.496 0,-0.497 0.083,-0.331 0,-0.414 0.083,-0.248 0.33,-0.249 30.446,-9.266 52.204,-15.885 53.527,4.219 66.186,5.129 130.881,45.769 z"
       inkscape:connector-curvature="0"
       class="DEP_08 ZON_03" /></g></svg>