<?xml version="1.0" encoding="UTF-8" standalone="no"?>
<!-- Generator: Adobe Illustrator 16.0.0, SVG Export Plug-In . SVG Version: 6.00 Build 0)  -->

<svg
   xmlns:dc="http://purl.org/dc/elements/1.1/"
   xmlns:cc="http://creativecommons.org/ns#"
   xmlns:rdf="http://www.w3.org/1999/02/22-rdf-syntax-ns#"
   xmlns:svg="http://www.w3.org/2000/svg"
   xmlns="http://www.w3.org/2000/svg"
   xmlns:sodipodi="http://sodipodi.sourceforge.net/DTD/sodipodi-0.dtd"
   xmlns:inkscape="http://www.inkscape.org/namespaces/inkscape"
   version="1.1"
   id="SvgMunicipio"
   x="0px"
   y="0px"
   width="809.392px"
   height="999.966px"
   viewBox="64.628 118.306 809.392 999.966"
   enable-background="new 64.628 118.306 809.392 999.966"
   xml:space="preserve"
   inkscape:version="0.91 r13725"
   sodipodi:docname="MUN_ID0813.svg"><metadata
     id="metadata10"><rdf:RDF><cc:Work
         rdf:about=""><dc:format>image/svg+xml</dc:format><dc:type
           rdf:resource="http://purl.org/dc/dcmitype/StillImage" /></cc:Work></rdf:RDF></metadata><defs
     id="defs8" /><sodipodi:namedview
     pagecolor="#ffffff"
     bordercolor="#666666"
     borderopacity="1"
     objecttolerance="10"
     gridtolerance="10"
     guidetolerance="10"
     inkscape:pageopacity="0"
     inkscape:pageshadow="2"
     inkscape:window-width="682"
     inkscape:window-height="480"
     id="namedview6"
     showgrid="false"
     inkscape:zoom="0.23600802"
     inkscape:cx="404.69601"
     inkscape:cy="499.983"
     inkscape:window-x="0"
     inkscape:window-y="0"
     inkscape:window-maximized="0"
     inkscape:current-layer="svg" /><g
     id="g3"><path
       id="MUN_0813"
       d="m 678.886,123.023 1.101,0.157 1.101,0 1.101,-0.236 2.595,0 7.783,0 2.987,0.079 3.616,0.157 3.066,0.629 1.729,0.55 2.201,0.079 2.909,-0.079 2.909,-0.236 1.729,-0.157 1.572,-0.394 1.966,-0.157 1.809,0 1.101,0.157 1.179,-0.078 2.909,-0.079 2.044,-0.236 1.101,-0.157 1.415,-0.079 1.416,0.079 0.472,0.079 3.065,0.079 2.438,1.651 2.595,3.459 2.751,2.359 0.708,0.55 2.909,2.83 3.381,3.302 4.088,4.953 4.088,6.29 1.415,3.538 1.101,2.988 0.473,1.887 0.235,1.494 0.472,1.494 0.551,1.258 0.707,1.494 2.83,6.29 4.796,6.132 2.438,1.966 0.551,2.83 -0.314,1.809 -0.079,2.987 0.943,4.167 1.415,3.931 2.28,7.39 1.887,9.355 1.18,7.233 2.673,13.129 6.29,11.872 14.701,28.618 15.096,31.291 46.857,96.703 6.368,182.005 -0.079,9.042 -0.786,5.817 -0.078,9.984 0.157,8.256 0,5.817 0.157,4.324 -0.157,7.076 0.157,6.446 0.235,4.403 0.314,12.894 0.472,8.255 0.157,7.862 0.629,15.33 0.314,14.938 0.551,16.589 0,5.896 0.157,2.908 -0.079,4.167 0.079,1.887 0,2.909 0.078,1.022 0.157,3.066 0,2.987 -0.314,0.393 -1.415,1.573 -2.122,1.258 -4.561,2.516 -4.088,1.887 -6.368,3.145 -2.516,1.572 0,1.494 -5.268,1.966 -2.988,10.456 -2.516,8.648 -0.865,3.54 -5.347,18.082 -4.953,17.532 2.595,11.95 0.472,1.809 -0.786,12.265 -2.595,6.525 -6.525,20.599 -1.729,4.402 -0.472,3.303 -0.079,0.707 -0.472,1.337 -0.393,1.808 -0.314,1.101 -0.236,1.416 -0.078,1.021 0.078,0.943 0,0.157 0,0.865 -0.235,2.044 -0.314,1.729 -0.472,1.887 -0.472,1.18 -0.551,1.022 -1.101,1.965 -1.022,1.729 -1.021,2.202 -1.729,3.223 -1.18,2.123 -0.786,1.572 -1.022,1.729 -0.786,1.729 -0.55,1.102 -0.708,1.729 -0.314,1.572 -0.314,1.729 0.157,1.101 0.157,0.629 0.236,0.708 0.235,1.729 0.236,2.28 0.235,1.101 -0.55,2.594 -0.786,3.146 -0.629,2.358 -0.157,0.235 -0.314,0.394 -0.708,0.55 -1.022,0.394 -1.808,0.551 -4.324,1.258 -0.708,0.943 -1.101,2.044 -1.258,2.201 -0.864,1.651 -1.337,2.83 -1.18,2.28 -0.707,1.179 -0.943,1.729 0.078,1.888 -0.235,1.965 -0.314,1.022 -0.472,1.021 -0.236,0.708 -0.629,1.415 -0.629,1.494 -0.078,1.336 0,1.73 -0.158,1.65 0.158,0.943 0.078,1.337 0.394,0.943 0.55,0.865 0.551,0.864 0.235,0.708 0.236,0.943 0.393,1.336 0.314,0.865 0.236,1.415 0.472,1.494 0.943,0.55 1.494,1.101 1.021,0.394 0.314,0 0.236,0 0.55,0.157 0.472,0.55 0.472,0.786 0.786,1.102 1.415,1.336 0.63,1.809 1.415,1.887 0.786,1.494 0.864,1.258 0.157,0.864 0.314,0.865 0.236,0.943 0.078,0.943 0.079,0.394 -0.157,0.943 0,0.864 0,0.236 0.078,1.021 -0.55,1.337 -0.708,1.18 -0.55,1.336 -0.629,1.494 -1.415,2.28 -0.865,3.616 0,2.201 -0.157,1.022 -0.236,2.279 0.079,1.022 0.078,0.943 -0.314,2.516 0.157,1.18 -0.55,3.302 -0.472,4.088 -1.18,2.595 -2.437,2.909 -2.28,2.83 -1.651,3.459 -1.258,1.966 -0.393,1.729 -0.314,1.572 -0.944,2.123 -1.021,1.729 -1.966,4.246 -1.258,1.493 -0.865,1.022 -0.943,0.707 -0.078,0.079 -0.472,0.629 -0.629,0.865 -0.629,1.179 -0.551,1.415 -0.472,2.438 -0.235,2.044 -0.236,1.494 -0.235,1.021 -0.314,1.337 0,0.786 0,0.472 -0.079,1.101 -0.157,1.258 -0.786,1.258 -0.236,1.022 -0.393,1.022 -0.236,0.864 -0.235,0.551 -0.236,0.472 -0.235,0.786 -0.629,0.864 -0.708,1.101 -0.472,0.63 -0.943,1.258 -0.472,0.393 -0.629,1.258 -0.865,0.943 -0.786,1.73 -1.021,1.179 -0.943,1.337 -2.202,1.493 -0.629,0.786 -0.707,1.102 -0.629,0.707 -1.18,1.415 -0.629,0.629 -1.179,2.358 -1.259,2.438 -2.122,2.83 -1.415,2.909 -1.494,1.101 -0.393,0.394 -1.022,1.021 -1.337,1.18 -2.279,1.809 -1.651,1.493 -3.773,3.538 -0.157,0.079 -0.629,0.864 -1.259,1.258 -0.943,1.18 -1.808,0.55 -3.146,-3.302 -4.009,-2.044 -4.324,-2.28 -2.988,-1.336 0,0 -0.707,-0.314 -0.551,-0.157 -2.279,-0.314 -1.337,0.235 -1.966,0.079 -5.11,-2.674 -3.223,-3.145 -4.01,-2.516 -0.394,-0.236 -3.066,-2.751 -3.223,-2.909 -5.11,-2.438 -2.909,-2.516 -2.358,-1.18 -1.18,-1.101 -2.28,-0.472 -1.965,0.472 -1.101,0.394 -0.865,1.101 -1.415,2.516 -0.078,0 -0.158,-0.157 -0.156,-0.157 -0.158,-0.078 -0.156,-0.157 -0.158,-0.079 -0.078,-0.078 -0.314,-0.314 -0.157,-0.079 -0.157,-0.079 -0.157,-0.156 -0.157,-0.079 -0.157,-0.157 -0.079,-0.079 -0.157,-0.157 -0.157,0 -0.157,-0.157 -0.157,-0.078 -0.157,-0.079 -0.157,-0.078 -0.078,-0.079 -0.236,-0.078 -0.157,0 -0.157,-0.157 -0.157,-0.079 -0.078,-0.078 -0.236,-0.157 -0.078,-0.079 -0.314,-0.235 -0.157,-0.079 -0.157,-0.078 -0.236,-0.079 -0.157,-0.157 -0.078,-0.078 -0.157,0 -0.157,-0.079 -0.157,-0.157 -0.157,-0.078 -0.158,-0.157 -0.156,-0.079 -0.079,-0.078 -0.235,-0.079 -0.158,-0.157 -0.078,-0.078 -0.079,-0.157 0,-0.157 -0.157,-0.157 -0.157,-0.079 -0.157,-0.157 -0.078,-0.078 -0.236,-0.079 -0.157,0 -0.157,-0.078 -0.157,-0.079 -0.235,-0.078 -0.079,-0.079 -0.157,-0.078 -0.157,-0.157 -0.235,-0.079 -0.157,-0.078 -0.157,-0.079 -0.157,-0.157 -0.079,-0.078 -0.157,-0.079 -0.235,-0.078 -0.157,-0.079 -0.157,-0.078 -0.157,-0.079 -0.157,-0.078 -0.079,-0.079 -0.157,-0.079 -0.176,0 -0.157,0 -0.235,0 -0.157,0.079 -0.158,0 -0.156,-0.079 -0.158,-0.078 -0.156,-0.079 -0.158,-0.078 -0.157,0 -0.078,-0.157 0,-0.157 -0.079,-0.157 -0.078,-0.157 -0.079,-0.079 -0.157,0 -0.157,-0.157 -0.157,-0.078 -0.157,-0.157 -0.157,-0.079 -0.157,-0.078 -0.157,-0.079 -0.157,0 -0.157,-0.078 -0.235,-0.079 -0.157,0 -0.236,0 -0.078,-0.078 -0.157,0 -0.236,-0.079 -0.157,0 -0.472,-0.393 -0.078,-0.157 -0.157,-0.079 -0.157,-0.157 -0.157,-0.078 -0.157,-0.157 -0.157,-0.079 -0.157,-0.078 -0.157,-0.157 -0.079,-0.079 -0.157,-0.078 -0.236,-0.079 -0.156,-0.078 -0.158,-0.079 -0.078,0 -0.078,-0.078 0,-0.236 0,-0.157 -0.079,-0.157 0,-0.157 -0.157,-0.157 -0.079,-0.157 -0.157,-0.157 -0.078,-0.157 -0.157,-0.157 -0.079,-0.157 -0.157,-0.157 -0.157,0 -0.314,-0.157 -0.157,-0.078 -0.157,-0.079 -0.157,-0.079 -0.235,-0.078 -0.157,-0.157 -0.079,-0.079 -0.157,-0.157 -0.157,-0.078 -0.157,-0.079 -0.157,-0.157 -0.235,-0.078 -0.157,-0.079 -0.079,-0.078 -0.157,-0.079 -0.314,-0.235 -0.157,-0.079 -0.157,-0.078 -0.157,-0.157 -0.078,-0.079 -0.157,-0.157 -0.079,-0.078 -0.235,-0.079 -0.157,-0.078 -0.157,0 -0.158,-0.079 -0.078,-0.157 -0.078,-0.078 -0.158,-0.157 -0.157,-0.157 -0.157,-0.079 -0.157,-0.157 -0.393,-0.078 -0.079,-0.157 -0.157,0 -0.157,-0.079 -0.157,-0.157 -0.157,-0.078 -0.157,-0.079 -0.314,-0.235 -0.157,-0.079 -0.157,-0.078 -0.157,-0.079 -0.157,-0.157 -0.314,-0.157 -0.235,-0.157 -0.157,-0.078 -0.157,-0.079 -0.157,-0.078 -0.394,-0.157 -0.078,0 -0.314,-0.157 -0.157,-0.079 -0.157,-0.078 -0.157,-0.157 -0.157,-0.158 -0.079,-0.078 -0.157,-0.079 -0.157,-0.157 -0.235,0 -0.158,-0.078 -0.235,-0.079 -0.079,-0.078 -0.157,-0.079 -0.235,-0.157 0,0 -0.157,-0.078 -0.157,-0.157 -0.157,-0.079 -0.157,-0.078 -0.157,-0.079 -0.157,-0.157 -0.157,-0.078 -0.157,-0.079 -0.157,-0.157 -0.157,-0.078 -0.314,-0.079 -0.157,0 -0.236,0 -0.157,-0.078 -0.157,-0.079 -0.078,-0.157 0,-0.157 -0.157,-0.157 -0.079,-0.078 -0.157,-0.079 -0.235,-0.078 -0.157,-0.079 -0.157,-0.078 -0.236,0 -0.078,-0.079 -0.157,0 -0.236,0 -0.188,0 -0.235,-0.078 -0.079,-0.079 -0.079,-0.157 -0.078,-0.157 -0.078,-0.157 -0.158,-0.078 -0.157,0 -0.235,-0.079 -0.157,-0.078 -0.236,0 -0.157,-0.079 -0.078,-0.157 -0.157,-0.078 -0.157,-0.157 -0.314,-0.157 -0.236,-0.079 -0.078,-0.078 -0.157,-0.079 -0.157,-0.078 -0.157,-0.157 -0.079,-0.079 -0.235,-0.078 -0.157,-0.079 -0.157,-0.078 -0.079,-0.157 -0.157,-0.079 -0.157,-0.078 -0.157,-0.157 -0.157,-0.079 -0.235,-0.079 -0.079,-0.157 -0.078,-0.078 -0.157,-0.157 -0.314,-0.236 -0.315,-0.157 -0.156,-0.078 -0.158,-0.157 -0.078,-0.079 -0.157,-0.157 -0.157,-0.078 -0.157,-0.157 -0.157,-0.079 -0.157,-0.078 -0.157,-0.157 -0.079,-0.079 -0.157,-0.157 -0.078,-0.078 -0.236,-0.157 -0.157,-0.079 -0.157,-0.078 -0.157,-0.079 -0.078,0 -0.236,-0.078 -0.157,-0.079 -0.393,-0.235 -0.157,-0.079 -0.157,-0.157 -0.079,-0.078 -0.157,-0.079 -0.157,-0.078 -0.235,-0.079 -0.157,-0.078 -0.157,-0.079 -0.079,-0.157 -0.157,-0.078 -0.157,-0.079 -0.157,-0.157 -0.235,-0.078 -0.157,0 -0.157,-0.079 -0.173,0 -0.158,-0.078 -0.156,-0.079 -0.158,-0.157 -0.156,-0.078 -0.158,-0.079 -0.157,-0.078 -0.078,-0.079 -0.236,-0.078 -0.157,-0.079 -0.235,-0.157 -0.079,-0.078 -0.157,-0.157 -0.157,-0.157 -0.078,-0.079 -0.157,-0.078 -0.157,-0.079 -0.157,-0.079 -0.157,-0.157 -0.314,-0.078 -0.079,-0.157 -0.157,-0.079 -0.157,-0.078 -0.157,-0.157 -0.157,-0.079 -0.157,-0.078 -0.235,-0.079 -0.079,-0.078 -0.235,-0.079 -0.157,-0.078 -0.157,-0.079 -0.157,-0.078 -0.236,-0.079 -0.157,-0.078 -0.078,-0.157 -0.157,-0.079 -0.236,-0.078 -0.157,0 -0.235,-0.079 -0.158,-0.078 -0.078,0 -0.394,-0.157 -0.157,-0.079 -0.157,-0.157 -0.157,-0.078 -0.157,-0.079 -0.314,-0.235 -0.157,-0.079 -0.235,-0.078 -0.157,-0.079 -0.157,-0.078 -0.079,-0.079 -0.235,-0.078 -0.157,-0.079 -0.157,-0.078 -0.157,-0.157 -0.157,-0.079 -0.157,-0.078 -0.157,-0.079 -0.157,0 -0.157,-0.078 -0.157,-0.079 -0.157,-0.157 -0.236,-0.078 -0.235,-0.236 -0.157,-0.078 -0.157,-0.157 -0.157,-0.079 -0.079,-0.157 -0.236,-0.078 -0.156,-0.079 -0.079,-0.157 -0.157,-0.078 -0.157,-0.157 -0.157,-0.079 -0.157,-0.079 -0.157,-0.078 -0.157,-0.079 -0.314,-0.157 -0.157,-0.078 -0.157,-0.236 -0.157,-0.078 -0.157,-0.157 -0.157,-0.079 -0.079,-0.078 -0.157,-0.157 -0.157,-0.079 -0.235,0 -0.157,-0.078 -0.157,-0.079 -0.157,-0.078 -0.157,-0.079 -0.079,-0.157 -0.078,-0.078 -0.236,0 -0.157,0 -0.157,-0.079 -0.157,-0.078 -0.078,-0.079 -0.157,-0.078 -0.236,0 -0.157,-0.079 -0.235,-0.078 -0.157,-0.079 -0.157,-0.078 -0.079,-0.157 -0.157,-0.079 -0.157,-0.157 -0.314,-0.235 -0.157,-0.079 -0.157,-0.157 -0.079,-0.078 -0.157,-0.079 -0.157,-0.157 -0.157,0 -0.157,-0.078 -0.235,-0.157 -0.157,-0.079 -0.079,-0.078 -0.157,-0.157 -0.157,-0.079 -0.157,-0.157 -0.157,-0.078 -0.157,-0.157 -0.157,-0.079 -0.078,-0.157 -0.236,-0.078 -0.157,-0.157 -0.157,-0.079 -0.235,-0.078 -0.314,-0.079 -0.157,0 -0.157,0 -0.551,-0.235 -0.157,0 -0.157,-0.079 -0.314,-0.236 -0.235,-0.078 -0.158,-0.079 -0.156,-0.078 -0.079,-0.079 -0.157,-0.078 -0.157,-0.157 -0.236,-0.079 -0.157,-0.078 -0.078,-0.079 -0.079,-0.078 -0.157,-0.157 -0.078,-0.157 -0.079,-0.079 -0.157,0 -0.157,-0.157 -0.235,0 -0.157,-0.078 -0.157,-0.079 -0.157,-0.157 -0.157,-0.078 -0.157,-0.157 -0.157,-0.079 -0.157,-0.078 -0.157,-0.157 -0.157,-0.079 -0.079,-0.157 -0.157,-0.157 -0.157,-0.078 -0.314,-0.236 -0.078,-0.078 -0.157,0 -0.157,-0.157 -0.079,-0.079 -0.235,-0.078 -0.079,-0.079 L 604,1046 l -0.157,-0.078 -0.157,-0.079 -0.158,-0.157 -0.156,-0.078 -0.158,-0.079 -0.156,-0.078 -0.158,-0.079 -0.235,-0.078 -0.157,0 -0.079,-0.079 -0.157,-0.078 -0.235,-0.079 -0.157,0 -0.157,-0.078 -0.157,-0.079 -0.157,-0.157 -0.236,-0.157 -0.157,-0.078 -0.314,-0.314 -0.157,-0.079 -0.157,-0.157 -0.157,-0.079 -0.078,-0.157 -0.394,-0.157 -0.078,-0.157 -0.157,-0.078 -0.157,-0.157 -0.079,-0.157 -0.157,-0.079 0,-0.157 -0.235,-0.078 -0.157,-0.079 -0.314,-0.235 -0.157,-0.079 -0.157,-0.078 -0.079,-0.157 -0.55,-0.236 -0.158,-0.078 -0.235,-0.079 -0.079,-0.078 -0.157,0 -0.235,0 -0.157,-0.079 -0.157,-0.078 -0.079,-0.157 -0.157,-0.079 -0.157,-0.078 -0.157,-0.079 -0.157,-0.078 -0.157,-0.079 -0.157,-0.157 -0.157,-0.078 -0.157,-0.157 -0.235,-0.236 -0.551,-0.314 -0.157,-0.078 -0.157,-0.079 -0.157,-0.078 -0.393,-0.157 -0.157,-0.079 -0.157,-0.078 -0.314,-0.079 -0.314,-0.157 -0.236,-0.078 -0.235,-0.079 -0.314,-0.078 -0.158,-0.079 -0.157,-0.157 -0.157,-0.078 -0.235,-0.079 -0.157,-0.157 -0.157,-0.078 -0.079,-0.158 -0.314,-0.157 -0.235,-0.078 -0.157,-0.157 -0.157,-0.079 -0.157,-0.078 -0.079,-0.079 -0.235,-0.078 -0.079,-0.079 -0.235,-0.078 -0.157,-0.079 -0.157,-0.157 -0.157,-0.078 -0.157,-0.079 -0.157,-0.078 -0.157,-0.079 -0.157,-0.078 -0.157,-0.079 -0.236,-0.157 -0.078,-0.078 -0.157,-0.079 -0.157,-0.078 -0.314,-0.157 -0.157,-0.079 -0.157,-0.157 -0.079,-0.078 -0.157,-0.079 -0.236,-0.078 -0.156,-0.079 -0.236,-0.078 -0.157,-0.079 -0.157,0 -0.079,-0.078 -0.235,-0.079 -0.157,-0.157 -0.157,-0.078 -0.236,-0.079 -0.157,-0.078 -0.078,-0.079 -0.314,-0.235 -0.157,-0.079 -0.236,-0.078 -0.157,-0.079 -0.157,-0.078 -0.157,-0.079 -0.314,-0.078 -0.235,-0.079 -0.314,-0.235 -0.236,-0.157 -0.235,-0.079 -0.157,-0.157 -0.157,-0.078 -0.157,-0.079 -0.157,-0.078 -0.315,-0.236 -0.156,-0.078 -0.394,-0.079 -0.236,-0.079 -0.078,-0.078 -0.157,-0.078 -0.157,-0.158 -0.236,-0.078 -0.157,0 -0.157,-0.079 -0.157,-0.157 -0.235,-0.235 -0.394,-0.157 -0.157,-0.157 -0.157,-0.079 -0.157,-0.078 -0.235,-0.314 -0.157,-0.079 -0.157,-0.157 -0.157,-0.157 -0.314,-0.157 -0.079,-0.078 -0.157,-0.157 -0.157,-0.079 -0.157,-0.157 -0.157,-0.078 -0.157,-0.157 -0.314,-0.157 -0.157,-0.079 -0.314,-0.157 -0.236,-0.078 -0.156,-0.157 -0.158,-0.079 -0.078,-0.078 -0.157,-0.079 -0.236,-0.157 -0.157,-0.078 -0.157,0 -0.235,-0.079 -0.079,-0.078 -0.157,-0.157 -0.157,-0.079 -0.235,0 -0.157,-0.078 -0.236,0 -0.157,-0.079 -0.314,-0.157 -0.157,-0.078 -0.157,-0.079 -0.157,-0.157 -0.157,-0.078 -0.078,-0.157 -0.157,-0.079 -0.236,-0.078 -0.157,-0.079 -0.157,-0.078 -0.235,-0.079 -0.157,-0.078 -0.079,0 -0.157,-0.079 -0.235,-0.079 -0.157,-0.078 -0.157,-0.079 -0.157,-0.078 -0.157,-0.157 -0.314,-0.157 -0.158,-0.079 -0.157,-0.078 -0.157,-0.157 -0.235,-0.079 -0.079,-0.078 -0.157,-0.079 -0.393,-0.157 -0.157,-0.078 -0.236,-0.079 -0.078,-0.078 -0.157,-0.079 -0.157,-0.078 -0.157,-0.079 -0.157,-0.078 -0.157,-0.079 -0.157,-0.157 -0.157,-0.157 -0.079,-0.078 -0.157,-0.079 -0.157,-0.157 -0.157,-0.078 -0.157,-0.079 -0.157,-0.157 -0.235,-0.078 -0.079,-0.079 -0.157,-0.078 -0.157,-0.079 -0.393,-0.157 -0.157,-0.078 -0.079,-0.079 -0.157,0 -0.236,-0.157 -0.156,-0.078 -0.314,-0.157 -0.236,-0.079 -0.394,-0.235 -0.235,-0.079 -0.157,-0.157 -0.157,-0.078 -0.079,-0.157 -0.235,-0.236 -0.157,-0.078 -0.236,-0.079 -0.157,-0.157 -0.157,-0.078 -0.157,-0.079 -0.078,-0.078 -0.314,-0.314 -0.157,-0.079 -0.157,-0.079 -0.157,-0.157 -0.157,-0.078 -0.079,-0.079 -0.157,-0.157 -0.157,-0.078 -0.157,-0.157 -0.314,-0.157 -0.314,-0.236 -0.078,-0.078 -0.157,0 -0.157,-0.157 -0.236,-0.157 -0.472,-0.394 -0.079,-0.078 -0.156,-0.079 -0.236,-0.078 -0.157,0 -0.157,-0.079 -0.236,0 -0.078,0 -0.236,0.079 -0.157,-0.079 -0.157,-0.078 -0.235,-0.079 -0.157,-0.078 -0.079,0 -0.157,-0.079 -0.235,-0.157 -0.157,-0.078 -0.157,-0.079 -0.157,-0.078 -0.157,-0.079 -0.157,0 -0.079,-0.157 -0.157,-0.078 -0.235,-0.157 -0.157,-0.079 -0.314,-0.235 -0.236,-0.157 -0.235,-0.157 -0.157,-0.079 -0.157,-0.157 -0.157,-0.078 -0.079,-0.079 -0.079,-0.078 -0.156,-0.079 -0.158,-0.078 -0.472,-0.314 -0.157,-0.079 -0.157,-0.078 -0.078,-0.157 -0.157,-0.079 -0.157,-0.157 -0.157,-0.079 -0.157,-0.078 -0.236,-0.079 -0.157,-0.078 -0.078,-0.079 -0.157,-0.078 -0.236,-0.079 -0.157,0 -0.235,-0.078 -0.157,-0.157 -0.079,-0.079 -0.157,-0.078 -0.157,0 -0.235,-0.079 -0.157,0 -0.157,-0.078 -0.236,-0.236 -0.157,-0.078 -0.235,-0.157 -0.157,-0.079 -0.079,-0.157 -0.157,-0.157 -0.157,-0.078 -0.078,-0.079 -0.236,-0.078 -0.157,-0.157 -0.157,-0.079 -0.157,-0.078 -0.157,-0.157 -0.157,-0.079 -0.157,-0.078 -0.157,0 -0.157,-0.079 -0.157,-0.157 -0.394,-0.157 -0.078,-0.157 -0.157,-0.078 -0.157,-0.079 -0.157,-0.078 -0.157,-0.157 -0.157,-0.079 -0.236,-0.078 -0.078,-0.157 -0.157,-0.079 -0.157,-0.078 -0.157,-0.157 -0.157,-0.079 -0.157,-0.078 -0.157,-0.079 -0.157,-0.078 -0.079,-0.157 -0.314,-0.157 -0.235,-0.157 -0.157,-0.079 -0.157,-0.078 -0.079,-0.157 -0.157,-0.079 -0.157,-0.078 -0.314,-0.236 -0.235,-0.079 -0.236,-0.235 -0.157,-0.079 -0.236,-0.078 -0.157,-0.079 -0.157,-0.078 -0.157,-0.079 -0.157,-0.078 -0.235,-0.236 -0.236,-0.078 -0.314,-0.157 -0.157,-0.079 -0.157,-0.078 -0.157,-0.079 -0.157,-0.078 -0.235,-0.079 -0.157,-0.157 -0.157,-0.078 -0.157,-0.157 -0.079,-0.079 -0.157,-0.157 -0.157,0 -0.157,-0.078 -0.393,-0.157 -0.314,-0.157 -0.157,-0.079 -0.157,-0.078 -0.236,0 -0.157,-0.079 -0.157,-0.078 -0.157,-0.079 0,-0.157 -0.157,-0.157 -0.157,-0.078 -0.157,-0.079 -0.078,-0.235 -0.079,-0.157 -0.079,-0.157 -0.157,-0.079 -0.078,-0.078 -0.079,-0.157 -0.157,-0.079 -0.157,-0.078 -0.235,-0.079 -0.157,-0.078 -0.157,-0.079 -0.236,0 -0.078,0 -0.236,0 -0.157,0 -0.157,-0.078 -0.235,-0.079 -0.157,0 -0.079,-0.157 -0.157,-0.078 -0.235,-0.079 -0.157,0 -0.157,-0.078 -0.236,-0.079 -0.157,-0.157 -0.078,-0.079 -0.394,-0.156 -0.157,-0.079 -0.157,-0.079 -0.235,-0.078 0,-0.157 -0.394,-0.236 -0.157,-0.078 -0.157,-0.157 -0.157,-0.079 -0.236,-0.078 -0.078,-0.079 -0.157,-0.157 -0.157,-0.078 -0.157,-0.079 -0.157,-0.078 -0.157,-0.157 -0.157,-0.079 -0.079,-0.078 -0.078,-0.079 -0.157,-0.157 -0.157,-0.157 -0.157,-0.078 -0.157,-0.079 -0.157,-0.078 -0.236,-0.157 -0.078,-0.079 -0.157,0 -0.157,-0.078 -0.157,0 -0.157,-0.079 -0.157,-0.078 -0.157,-0.079 -0.157,0 -0.157,0 -0.157,-0.078 -0.157,-0.157 -0.157,-0.079 -0.236,-0.078 -0.078,-0.157 -0.157,-0.079 -0.157,-0.078 -0.157,-0.157 -0.157,-0.079 -0.314,-0.235 -0.158,-0.079 -0.393,-0.314 -0.157,-0.078 -0.157,-0.079 -0.236,-0.078 -0.078,-0.157 -0.079,-0.079 -0.157,-0.157 -0.235,0 -0.157,-0.078 -0.157,-0.079 -0.157,-0.157 -0.157,0 -0.157,-0.078 -0.157,-0.079 -0.394,-0.157 -0.157,-0.079 -0.314,-0.157 -0.157,-0.157 -0.078,-0.078 -0.236,-0.079 -0.157,-0.157 -0.157,-0.078 -0.157,-0.157 -0.078,-0.079 -0.157,-0.078 -0.157,-0.079 -0.157,-0.078 -0.236,-0.079 -0.157,-0.078 -0.157,-0.079 -0.078,0 -0.158,-0.157 -0.156,-0.157 -0.158,-0.078 -0.157,-0.157 -0.078,-0.157 -0.157,-0.079 -0.157,-0.157 -0.079,-0.078 -0.157,-0.079 -0.157,-0.157 -0.157,-0.078 -0.55,-0.236 -0.079,-0.078 -0.314,-0.157 -0.157,-0.157 -0.157,-0.079 -0.314,-0.157 -0.157,-0.078 -0.157,-0.079 -0.157,-0.078 -0.235,-0.157 -0.157,-0.079 -0.157,-0.078 -0.236,-0.236 -0.157,-0.078 -0.235,-0.079 -0.157,-0.078 -0.157,-0.079 -0.157,-0.157 -0.157,-0.078 -0.157,-0.079 -0.157,0 -0.236,-0.078 -0.157,-0.079 -0.157,-0.078 -0.157,0 -0.157,-0.079 -0.157,-0.078 -0.157,-0.157 -0.236,-0.079 -0.157,-0.079 -0.157,-0.078 -0.078,-0.079 -0.236,-0.078 -0.157,-0.079 -0.157,-0.157 -0.235,-0.078 -0.157,0 -0.157,-0.079 -0.157,-0.157 -0.236,-0.078 -0.157,-0.079 -0.157,-0.078 -0.235,-0.079 -0.079,0 -0.314,-0.157 -0.157,-0.078 -0.157,-0.079 -0.235,0 -0.157,-0.157 -0.079,-0.078 -0.157,-0.079 -0.319,-0.294 -0.157,-0.078 -0.157,-0.079 -0.235,-0.157 -0.157,-0.078 -0.079,-0.157 -0.157,-0.079 -0.157,-0.157 -0.157,-0.078 -0.157,-0.079 -0.157,-0.078 -0.157,-0.079 -0.079,-0.157 -0.314,-0.235 -0.157,-0.079 -0.235,-0.078 -0.157,-0.079 -0.157,-0.078 -0.083,-0.16 -0.157,-0.079 -0.235,-0.078 -0.157,-0.079 -0.157,-0.078 -0.157,-0.157 -0.157,-0.079 -0.157,-0.078 -0.157,-0.079 -0.236,0 -0.314,-0.078 -0.157,-0.079 -0.157,-0.078 -0.157,-0.079 -0.157,-0.078 -0.235,-0.079 -0.157,-0.078 -0.157,-0.079 -0.157,-0.078 -0.157,-0.079 -0.158,-0.157 -0.393,-0.236 -0.157,-0.078 -0.236,-0.314 -0.472,-0.314 -0.157,0 -0.157,-0.157 -0.235,-0.079 -0.079,-0.078 -0.157,-0.157 -0.157,-0.079 -0.157,-0.078 -0.157,-0.157 -0.157,-0.079 -0.314,-0.235 -0.314,-0.157 -0.157,-0.079 -0.314,-0.157 -0.157,-0.078 -0.157,-0.079 -0.157,-0.157 -0.157,0 -0.157,-0.078 -0.157,-0.079 -0.235,-0.078 -0.079,-0.079 -0.157,-0.078 -0.235,-0.079 -0.157,-0.078 -0.157,-0.079 -0.158,-0.078 -0.235,-0.079 -0.079,-0.078 -0.157,-0.079 -0.235,-0.078 -0.157,-0.079 -0.157,-0.078 -0.236,0 -0.078,-0.079 -0.157,0 -0.236,-0.078 -0.157,0 -0.235,0 -0.314,-0.079 -0.157,-0.078 -0.157,-0.079 -0.236,-0.078 -0.157,-0.079 -0.157,-0.078 -0.157,0 -0.157,-0.079 -0.078,-0.157 -0.157,-0.157 -0.157,-0.078 -0.079,-0.157 -0.157,-0.157 -0.078,-0.157 -0.157,-0.157 -0.079,-0.079 -0.157,-0.157 -0.078,-0.157 -0.157,-0.157 -0.157,-0.079 -0.079,-0.078 -0.157,-0.157 -0.314,-0.236 0,-0.157 -0.157,-0.078 -0.157,-0.157 -0.157,-0.079 -0.157,-0.078 -0.236,-0.157 -0.157,0 -0.157,0 -0.157,-0.079 -0.157,0 -0.157,-0.078 -0.157,-0.157 -0.157,-0.157 -0.078,-0.079 -0.079,-0.157 -0.157,0 -0.157,-0.157 -0.314,-0.157 -0.157,-0.157 -0.314,-0.235 -0.157,-0.079 -0.157,-0.078 -0.157,-0.079 -0.157,-0.157 -0.314,-0.157 -0.157,-0.078 -0.078,-0.079 -0.236,-0.078 -0.157,-0.157 -0.157,-0.079 -0.157,-0.078 -0.157,-0.079 -0.157,-0.078 -0.157,-0.079 -0.157,-0.078 -0.235,0 -0.158,-0.079 -0.157,-0.078 -0.157,-0.079 -0.314,-0.157 -0.707,-0.314 -0.079,0 -0.235,-0.078 -0.157,-0.079 -0.157,-0.157 -0.157,-0.078 -0.157,-0.079 -0.236,-0.079 -0.078,-0.078 -0.314,-0.078 -0.157,-0.079 -0.236,-0.157 -0.157,-0.079 -0.078,-0.078 -0.157,-0.157 -0.157,-0.079 -0.472,-0.235 -0.236,-0.079 -0.078,-0.157 -0.157,-0.078 -0.157,-0.079 -0.236,-0.078 -0.157,-0.079 -0.157,-0.157 -0.157,-0.078 -0.079,-0.157 -0.157,0 -0.157,-0.079 -0.157,-0.157 -0.157,-0.078 -0.157,-0.157 -0.157,-0.079 -0.078,-0.078 -0.236,-0.079 -0.157,-0.078 -0.157,-0.079 -0.157,-0.078 -0.235,-0.079 -0.157,-0.078 -0.079,-0.157 -0.157,-0.079 -0.157,-0.078 -0.157,-0.157 -0.235,-0.079 -0.157,-0.078 -0.236,-0.157 -0.157,-0.079 -0.157,-0.157 -0.078,-0.157 -0.157,-0.078 -0.157,-0.157 -0.157,-0.079 -0.157,-0.157 -0.079,-0.078 -0.157,-0.079 -0.235,-0.157 -0.314,-0.157 -0.394,-0.314 -0.314,-0.157 -0.157,-0.078 -0.157,-0.079 -0.551,-0.472 -0.157,-0.157 -0.157,-0.079 -0.157,-0.078 -0.157,-0.157 -0.157,-0.079 -0.078,-0.078 -0.157,-0.157 -0.236,-0.079 -0.235,-0.235 -0.157,0 -0.157,-0.079 -0.079,-0.157 -0.157,-0.078 -0.157,-0.157 -0.157,-0.079 -0.157,-0.157 -0.157,-0.078 -0.078,-0.157 -0.236,-0.079 -0.078,-0.078 -0.157,0 -0.236,-0.079 -0.157,-0.078 -0.157,-0.079 -0.157,-0.157 -0.157,-0.078 -0.078,-0.079 -0.236,-0.078 -0.236,-0.157 -0.235,-0.079 -0.314,-0.157 -0.079,-0.078 -0.157,0 -0.078,-0.079 -0.157,-0.078 -0.157,-0.079 -0.157,-0.078 -0.157,-0.157 -0.079,-0.079 -0.55,-0.235 -0.157,-0.079 -0.236,-0.078 -0.157,-0.079 -0.078,-0.078 -0.236,-0.079 -0.157,-0.078 -0.157,-0.079 -0.157,-0.078 -0.472,-0.157 -0.235,-0.157 -0.157,-0.079 -0.157,-0.078 -0.157,-0.079 -0.157,-0.078 -0.157,-0.079 -0.157,-0.079 -0.157,-0.078 -0.157,-0.079 -0.158,-0.157 -0.235,0 -0.236,-0.157 -0.157,-0.078 -0.157,-0.079 -0.235,-0.078 -0.157,-0.157 -0.314,-0.079 -0.157,-0.078 -0.236,-0.079 -0.157,-0.078 -0.157,-0.079 -0.157,-0.078 -0.157,-0.157 -0.157,-0.079 -0.157,-0.078 -0.157,-0.157 -0.235,-0.079 -0.314,-0.157 -0.079,-0.157 -0.157,-0.078 -0.157,-0.079 -0.157,-0.078 -0.157,-0.157 -0.472,-0.236 -0.235,-0.157 -0.394,-0.157 -0.393,-0.235 -0.079,-0.079 -0.157,-0.078 -0.157,-0.079 -0.236,-0.157 -0.157,-0.078 -0.472,-0.236 -0.157,-0.157 -0.157,-0.078 -0.393,-0.157 -0.157,-0.079 -0.314,-0.157 -0.157,-0.078 -0.157,-0.079 -0.157,-0.078 -0.157,-0.079 -0.157,-0.078 -0.157,-0.079 -0.157,-0.078 -0.157,-0.079 -0.236,-0.078 -0.157,-0.158 -0.157,-0.078 -0.078,-0.079 -0.157,-0.078 -0.157,-0.079 -0.157,-0.157 -0.157,-0.078 -0.157,-0.157 -0.157,-0.079 -0.079,-0.078 -0.157,-0.079 -0.235,-0.157 -0.157,-0.078 -0.158,-0.157 -0.314,-0.236 -0.078,-0.078 -0.157,-0.157 -0.236,-0.079 -0.157,-0.078 -0.157,-0.157 -0.157,-0.079 -0.157,-0.157 -0.078,-0.078 -0.157,-0.079 -0.472,-0.235 -0.157,-0.079 -0.314,-0.235 -0.079,-0.079 -0.235,-0.157 -0.157,-0.078 -0.157,-0.157 -0.314,-0.157 -0.079,-0.079 -0.157,-0.157 -0.157,-0.078 -0.157,-0.157 -0.157,-0.079 -0.157,-0.157 -0.157,0 -0.157,-0.157 -0.157,-0.078 -0.157,-0.079 -0.235,-0.078 -0.157,-0.079 -0.236,-0.078 -0.157,-0.079 -0.079,-0.078 -0.235,-0.079 -0.157,-0.078 -0.157,-0.079 -0.236,-0.078 -0.157,-0.079 -0.235,-0.235 -0.236,-0.079 -0.235,-0.079 -0.314,-0.157 -0.079,-0.078 -0.157,-0.079 -0.157,0 -0.235,-0.078 -0.157,-0.079 -0.157,-0.078 -0.236,-0.157 -0.078,-0.079 -0.394,-0.157 -0.157,-0.078 -0.393,-0.157 -0.079,-0.079 -0.157,-0.078 -0.235,-0.079 -0.157,-0.078 -0.236,-0.079 -0.157,-0.157 -0.078,-0.078 -0.157,-0.079 -0.236,-0.078 -0.157,-0.079 -0.157,-0.078 -0.238,0 -0.157,-0.079 -0.079,-0.078 -0.393,-0.236 -0.157,-0.078 -0.157,-0.079 -0.157,-0.157 -0.157,-0.078 -0.079,-0.157 -0.235,-0.079 -0.157,-0.078 -0.157,-0.079 -0.394,-0.157 -0.157,-0.078 -0.078,-0.079 -0.157,-0.157 -0.157,-0.078 -0.157,0 -0.236,-0.079 -0.157,-0.078 -0.078,-0.157 -0.314,-0.236 -0.157,-0.078 -0.157,-0.079 -0.236,-0.078 -0.157,-0.079 -0.078,-0.078 -0.157,-0.157 -0.157,0 -0.158,-0.079 -0.156,-0.157 -0.158,-0.078 -0.157,-0.079 -0.157,-0.078 -0.157,-0.079 -0.157,-0.157 -0.157,0 -0.157,-0.078 -0.157,-0.079 -0.235,-0.157 -0.236,-0.157 -0.314,-0.157 -0.157,-0.157 -0.157,-0.079 -0.157,-0.157 -0.235,-0.078 -0.157,-0.157 -0.157,-0.079 -0.236,-0.078 -0.157,-0.079 -0.157,-0.078 -0.078,-0.079 -0.157,-0.078 -0.157,-0.079 -0.236,-0.078 -0.157,-0.079 -0.157,-0.078 -0.157,-0.079 -0.472,-0.314 -0.157,-0.078 -0.235,-0.079 -0.158,-0.078 -0.078,-0.079 -0.157,-0.078 -0.394,-0.236 -0.157,-0.078 -0.157,-0.079 -0.157,-0.078 -0.078,-0.079 -0.236,-0.078 -0.157,-0.079 -0.157,-0.078 -0.157,0 -0.157,-0.079 -0.235,-0.078 -0.079,-0.079 -0.235,0 -0.157,-0.078 -0.157,-0.079 -0.157,-0.157 -0.157,-0.078 -0.236,-0.236 -0.157,-0.078 -0.157,-0.079 -0.235,-0.078 -0.079,-0.157 -0.157,-0.157 -0.157,-0.157 -0.078,-0.079 -0.157,-0.078 -0.157,-0.079 -0.157,-0.078 -0.157,-0.079 -0.394,-0.236 -0.078,-0.078 -0.157,-0.157 -0.158,-0.079 -0.157,-0.157 -0.078,-0.157 -0.157,-0.078 -0.157,-0.079 -0.157,-0.078 -0.157,-0.157 -0.157,0 -0.157,-0.157 -0.157,-0.079 -0.157,-0.157 -0.157,-0.078 -0.079,-0.079 -0.157,-0.078 -0.235,-0.079 -0.157,0 -0.157,-0.078 -0.157,-0.157 -0.157,-0.079 -0.079,-0.157 -0.157,-0.078 -0.157,-0.079 -0.235,-0.078 -0.157,-0.079 -0.157,-0.078 -0.236,-0.079 -0.078,-0.078 -0.157,-0.157 -0.157,-0.079 -0.157,-0.078 -0.236,-0.157 -0.157,-0.157 -0.078,-0.079 -0.157,0.079 -0.157,0.078 -0.157,-0.078 -0.394,-0.079 -0.157,-0.078 -0.236,-0.157 -0.235,-0.079 -0.157,-0.157 -0.236,-0.078 -0.157,-0.079 -0.157,-0.078 -0.157,-0.079 -0.157,-0.078 -0.157,-0.079 -0.235,-0.078 -0.314,-0.157 -0.157,-0.079 -0.157,-0.078 -0.157,-0.079 -0.079,-0.157 -0.157,-0.078 -0.157,-0.157 -0.157,-0.079 -0.078,-0.078 -0.157,-0.079 -0.236,-0.078 -0.157,-0.079 -0.157,-0.078 -0.157,-0.079 -0.235,-0.079 -0.079,0 -0.157,-0.078 -0.393,-0.157 -0.157,-0.079 -0.157,-0.078 -0.158,0 -0.235,-0.157 -0.314,-0.157 -0.314,-0.157 -0.157,-0.079 -0.314,-0.157 -0.157,-0.078 -0.157,-0.079 -0.157,-0.078 -0.236,-0.079 -0.078,-0.078 -0.157,-0.079 -0.394,-0.157 -0.157,-0.078 -0.157,-0.079 -0.235,-0.078 -0.079,-0.079 -0.157,-0.078 -0.235,-0.079 -0.157,-0.078 -0.157,-0.079 -0.157,-0.078 -0.236,-0.157 -0.314,-0.157 -0.235,-0.079 -0.314,-0.157 -0.079,-0.078 -0.277,-0.16 -0.156,-0.078 -0.158,-0.079 -0.235,-0.078 -0.079,-0.079 -0.157,-0.078 -0.157,-0.079 -0.472,-0.314 -0.157,-0.078 -0.157,-0.157 -0.157,-0.079 -0.078,-0.078 -0.157,-0.157 -0.236,0 -0.157,-0.079 -0.235,-0.235 -0.157,-0.157 -0.157,-0.079 -0.079,-0.078 -0.157,-0.157 -0.157,-0.079 -0.157,-0.078 -0.157,-0.079 -0.157,-0.079 -0.314,-0.235 -0.157,-0.079 -0.472,-0.314 -0.157,-0.078 -0.157,0 -0.157,-0.079 -0.157,-0.157 -0.157,-0.078 -0.157,-0.079 -0.157,-0.078 -0.236,-0.079 -0.078,-0.078 -0.157,-0.079 -0.236,-0.157 -0.157,-0.078 -0.157,-0.079 -0.157,-0.078 -0.157,-0.079 -0.157,-0.078 -0.078,-0.157 -0.157,-0.079 -0.157,-0.157 -0.236,-0.078 -0.157,-0.079 -0.157,-0.078 -0.078,-0.157 -0.157,-0.079 -0.394,-0.157 -0.157,-0.078 -0.157,-0.157 -0.157,-0.079 -0.078,-0.078 -0.157,-0.079 -0.236,-0.078 -0.157,-0.079 -0.157,-0.078 -0.157,-0.079 -0.157,-0.078 -0.157,-0.079 -0.235,-0.078 -0.157,-0.157 -0.157,-0.079 -0.236,-0.078 -0.078,0 -0.158,-0.079 -0.157,-0.078 -0.235,-0.079 -0.157,-0.078 -0.157,-0.079 -0.157,-0.157 -0.157,-0.078 -0.314,-0.157 -0.157,-0.079 -0.157,-0.078 -0.236,-0.079 -0.157,-0.078 -0.078,-0.079 -0.157,-0.078 -0.157,-0.079 -0.394,-0.236 -0.157,-0.078 -0.078,-0.079 -0.236,-0.078 -0.157,0 -0.157,-0.157 -0.157,0 -0.235,-0.079 -0.157,-0.157 -0.079,-0.078 -0.235,-0.079 -0.157,-0.078 -0.157,-0.079 -0.157,-0.157 -0.157,-0.078 -0.157,-0.079 -0.157,-0.157 -0.158,-0.078 -0.156,-0.157 -0.315,-0.236 -0.078,-0.157 -0.157,0 -0.079,-0.157 -0.157,-0.157 -0.078,-0.078 -0.236,-0.157 -0.157,-0.079 -0.314,-0.157 -0.078,-0.078 -0.157,-0.079 -0.236,-0.157 -0.157,-0.078 -0.157,-0.079 -0.157,-0.078 -0.235,-0.079 -0.079,-0.078 -0.157,-0.079 -0.235,-0.078 -0.157,-0.079 -0.157,-0.078 -0.157,0 -0.157,-0.079 -0.157,-0.078 -0.157,-0.079 -0.236,-0.078 -0.157,-0.079 -0.157,-0.078 -0.157,-0.079 -0.078,-0.157 -0.157,-0.157 -0.157,-0.078 -0.157,-0.079 -0.157,-0.078 -0.236,-0.079 -0.157,0 -0.157,-0.078 -0.157,0 -0.157,-0.079 -0.236,-0.078 -0.157,0 -0.235,-0.079 -0.079,-0.078 -0.157,-0.079 -0.157,-0.078 -0.157,0 -0.235,-0.079 -0.157,-0.079 -0.157,-0.157 -0.079,-0.078 -0.393,-0.157 -0.157,-0.079 -0.157,-0.078 -0.236,-0.079 -0.078,-0.078 -0.314,-0.236 -0.157,-0.078 -0.157,-0.079 -0.157,-0.078 -0.157,-0.157 -0.079,0 -0.235,-0.157 -0.157,-0.079 -0.157,-0.078 -0.157,0 -0.157,-0.079 -0.158,-0.078 -0.156,-0.157 -0.158,-0.079 -0.314,-0.157 -0.235,-0.078 -0.157,0 -0.157,-0.079 -0.157,-0.078 -0.157,-0.079 -0.157,-0.078 -0.394,-0.157 -0.157,-0.079 -0.157,-0.078 -0.157,-0.157 -0.157,-0.079 -0.235,-0.078 -0.157,-0.157 -0.157,-0.079 -0.079,0 -0.157,-0.157 -0.157,-0.078 -0.314,-0.157 -0.235,-0.079 -0.157,-0.157 -0.314,-0.078 -0.157,-0.157 -0.236,-0.079 -0.157,-0.078 -0.157,-0.079 -0.078,-0.078 -0.157,-0.079 -0.236,-0.157 -0.157,-0.078 -0.157,-0.157 -0.157,-0.079 -0.157,-0.078 -0.157,0 -0.157,-0.079 -0.079,0 -0.157,-0.078 -0.078,-0.157 -0.236,-0.079 -0.314,-0.236 -0.078,-0.078 -0.157,-0.079 -0.157,-0.157 -0.157,-0.078 -0.157,-0.157 -0.236,-0.079 -0.157,-0.078 -0.078,-0.079 -0.157,-0.078 -0.157,-0.079 -0.157,-0.078 -0.236,-0.079 -0.157,-0.078 -0.078,-0.079 -0.157,-0.078 -0.236,-0.079 -0.314,-0.157 -0.235,-0.078 -0.157,-0.079 -0.079,-0.157 -0.314,-0.157 -0.235,-0.078 -0.157,-0.079 -0.158,-0.157 -0.157,-0.078 -0.078,-0.079 -0.314,-0.157 -0.157,-0.157 -0.236,-0.078 -0.157,-0.079 -0.078,-0.078 -0.157,-0.157 -0.157,0 -0.157,-0.079 -0.236,-0.078 -0.157,-0.079 -0.157,-0.078 -0.078,-0.157 -0.079,-0.079 -0.157,-0.157 -0.157,-0.078 -0.235,-0.079 -0.157,-0.078 -0.157,0 -0.157,-0.079 -0.079,-0.078 -0.078,-0.157 -0.236,-0.079 -0.314,-0.157 -0.157,-0.078 -0.235,-0.157 -0.079,-0.157 -0.157,-0.157 -0.314,-0.157 -0.235,-0.157 -0.157,-0.079 -0.236,-0.157 -0.236,-0.079 -0.157,-0.078 -0.157,-0.079 -0.393,-0.157 -0.079,-0.078 -0.157,-0.157 -0.314,-0.157 -0.235,-0.079 -0.157,-0.078 -0.157,0 -0.157,-0.079 -0.157,-0.078 -0.236,-0.079 -0.157,-0.078 -0.157,-0.079 -0.235,-0.078 -0.079,-0.079 -0.235,-0.078 -0.157,-0.079 -0.157,-0.078 -0.157,0 -0.236,-0.079 -0.078,-0.157 -0.157,-0.078 -0.157,-0.079 -0.157,-0.078 -0.236,0 -0.157,0 -0.157,-0.079 -0.078,-0.157 0,-0.157 -0.157,0 -0.157,0 -0.158,0 -0.078,-0.078 -0.079,0 -0.157,0.078 -0.157,0 -0.078,0 0,-0.078 -0.079,-0.236 0,-0.157 -0.078,-0.078 -0.157,0 -0.157,0 -0.157,-0.079 -0.157,-0.078 -0.157,-0.157 -0.079,-0.157 0,-0.157 -0.078,-0.157 0,-0.157 -0.157,-0.157 -0.157,-0.079 -0.157,-0.078 -0.394,-0.157 -0.157,-0.079 -0.078,-0.078 -0.236,-0.079 -0.314,-0.078 -0.235,-0.079 -0.157,-0.078 -0.079,-0.079 -0.235,0 -0.157,-0.078 -0.394,-0.157 -0.157,-0.079 -0.157,-0.079 -0.157,0 -0.157,-0.078 -0.235,-0.079 -0.158,-0.078 -0.156,-0.079 -0.158,-0.157 -0.078,-0.078 -0.157,-0.079 -0.236,0 -0.157,-0.157 -0.235,-0.235 -0.157,-0.157 -0.079,-0.157 -0.157,-0.157 -0.157,-0.079 -0.157,-0.157 -0.078,-0.157 -0.157,-0.157 -0.157,-0.078 -0.157,-0.157 -0.157,-0.079 -0.157,-0.078 -0.157,-0.079 -0.157,-0.078 -0.314,-0.157 -0.157,-0.157 -0.314,-0.157 -0.157,-0.079 -0.157,-0.078 -0.157,-0.079 -0.236,-0.078 -0.078,-0.079 -0.157,-0.078 -0.236,-0.079 -0.157,-0.078 -0.157,-0.079 -0.393,-0.157 -0.079,-0.157 0,0 -0.157,-0.078 -0.551,-0.236 -0.157,-0.157 -0.157,-0.078 -0.235,-0.236 -0.157,-0.157 -0.236,-0.078 -0.157,-0.157 -0.393,-0.314 -0.236,-0.079 -0.157,-0.078 -0.157,-0.079 -0.235,-0.079 -0.157,-0.078 -0.236,-0.079 -0.235,-0.078 -0.157,-0.079 -0.157,-0.078 -0.236,-0.079 -0.235,-0.157 -0.157,-0.078 -0.236,-0.079 -0.157,-0.078 -0.235,-0.079 -0.157,-0.078 -0.079,-0.079 -0.157,-0.078 -0.157,-0.079 -0.236,-0.078 -0.157,-0.079 -0.235,-0.078 -0.079,-0.079 -0.393,-0.157 -0.157,-0.157 -0.157,-0.078 -0.157,0 -0.157,-0.079 -0.157,-0.157 -0.157,-0.078 -0.157,-0.079 -0.394,-0.157 -0.314,-0.157 -0.157,-0.078 -0.157,-0.079 -0.235,-0.078 -0.157,-0.079 -0.236,-0.235 -0.157,-0.079 -0.157,-0.078 -0.235,-0.157 -0.314,-0.157 -0.157,-0.079 -0.079,-0.078 -0.157,-0.157 -0.157,-0.079 -0.157,-0.078 -0.235,-0.079 -0.158,-0.078 -0.314,-0.079 -0.157,0 -0.235,-0.078 -0.157,-0.079 -0.157,-0.157 -0.157,-0.078 -0.157,-0.079 -0.079,-0.078 -0.157,-0.079 -0.157,-0.157 -0.157,-0.078 -0.157,-0.079 -0.157,-0.157 -0.157,-0.078 -0.157,-0.079 -0.157,-0.079 -0.157,-0.078 -0.078,-0.157 -0.079,-0.157 -0.157,-0.157 -0.157,-0.079 -0.157,-0.157 -0.078,-0.078 -0.157,-0.157 -0.157,-0.079 -0.157,-0.078 -0.157,-0.079 -0.157,-0.078 -0.236,-0.079 -0.078,-0.078 -0.157,-0.079 -0.314,-0.157 -0.157,-0.157 -0.157,-0.078 -0.157,-0.079 -0.157,-0.157 -0.158,-0.078 -0.157,-0.079 -0.157,-0.157 -0.157,-0.078 -0.157,-0.079 -0.157,-0.157 -0.078,-0.157 -0.157,-0.078 -0.236,-0.157 -0.078,-0.079 -0.157,-0.157 -0.236,0 -0.157,-0.078 -0.078,-0.157 -0.157,-0.079 -0.157,-0.078 -0.157,-0.079 -0.157,-0.157 -0.157,-0.078 -0.157,-0.079 -0.157,-0.078 -0.157,-0.079 -0.157,-0.078 -0.236,-0.079 -0.157,-0.078 -0.314,-0.157 -0.157,-0.079 -0.314,-0.078 -0.235,-0.079 -0.157,-0.078 -0.157,-0.079 -0.157,-0.078 -0.315,-0.157 -0.156,-0.079 -0.394,-0.157 -0.079,-0.079 -0.157,-0.078 -0.157,-0.079 -0.235,-0.157 -0.157,-0.078 -0.157,-0.079 -0.157,-0.078 -0.079,-0.157 -0.314,-0.157 -0.235,-0.079 -0.157,-0.078 -0.157,-0.079 -0.472,-0.235 -0.157,-0.079 -0.157,-0.078 -0.314,-0.236 -0.157,-0.157 -0.079,-0.078 -0.314,-0.236 -0.157,-0.078 -0.157,-0.079 -0.157,-0.078 -0.157,-0.157 -0.157,-0.079 -0.157,-0.078 -0.157,-0.079 -0.157,-0.157 -0.157,-0.078 -0.157,0 -0.157,-0.079 -0.314,-0.235 -0.157,-0.079 -0.157,-0.078 -0.157,-0.079 -0.236,-0.078 -0.235,-0.236 -0.157,-0.078 -0.314,-0.236 -0.236,0 -0.157,-0.078 -0.078,-0.079 -0.157,-0.078 -0.236,-0.079 -0.157,-0.078 -0.157,-0.157 -0.157,-0.079 -0.235,0 -0.079,0 -0.314,-0.157 -0.235,-0.078 -0.157,-0.079 -0.157,-0.078 -0.157,-0.079 -0.157,0 -0.157,-0.078 -0.157,-0.079 -0.394,-0.157 -0.157,-0.157 -0.078,-0.079 -0.157,-0.157 -0.157,-0.078 -0.314,-0.236 -0.157,-0.078 -0.157,-0.157 -0.079,-0.079 -0.314,0 -0.629,-0.078 -0.157,-0.079 -0.157,-0.078 -0.157,0 -0.157,-0.079 -0.235,-0.157 -0.158,-0.078 -0.157,-0.236 -0.157,-0.157 -0.235,-0.078 -0.157,-0.079 -0.236,-0.078 -0.157,0.078 -0.078,0 -0.079,-0.078 -0.078,-0.157 -0.157,-0.157 -0.157,-0.079 -0.236,0 -0.157,-0.078 -0.157,-0.079 -0.157,-0.078 0,-0.157 -0.157,-0.157 -0.157,-0.079 -0.157,-0.157 -0.157,-0.078 -0.157,-0.079 -0.157,-0.157 -0.235,-0.235 -0.157,-0.157 -0.314,-0.236 -0.157,-0.078 -0.551,-0.394 -0.157,-0.078 -0.157,-0.157 -0.157,-0.157 -0.157,-0.079 -0.157,-0.078 -0.078,-0.157 -0.158,-0.079 -0.314,-0.236 -0.157,-0.157 -0.157,-0.078 -0.157,-0.079 -0.078,-0.157 -0.157,-0.078 -0.236,-0.079 -0.157,0 -0.157,-0.078 -0.157,-0.157 -0.157,-0.079 -0.078,-0.157 -0.157,-0.078 -0.314,-0.157 -0.157,-0.157 -0.157,-0.079 -0.314,-0.235 -0.079,-0.079 -0.235,-0.078 -0.157,-0.079 -0.157,-0.157 -0.157,-0.078 -0.314,-0.157 -0.079,-0.079 -0.157,-0.078 -0.157,-0.079 -0.157,-0.078 -0.235,-0.079 -0.157,-0.157 -0.079,0 -0.235,-0.157 -0.157,-0.078 -0.158,-0.079 -0.157,-0.078 -0.235,-0.079 -0.157,0 -0.079,-0.078 -0.235,-0.079 -0.157,-0.078 -0.394,-0.157 -0.157,-0.079 -0.157,-0.078 -0.157,0 -0.157,-0.079 -0.235,-0.078 -0.157,0 -0.157,-0.079 -0.157,-0.078 -0.157,-0.079 -0.157,-0.078 -0.236,-0.079 -0.157,-0.078 -0.157,-0.079 -0.157,-0.078 -0.078,-0.157 -0.236,-0.079 -0.235,-0.235 -0.157,-0.157 -0.157,-0.079 -0.157,-0.157 -0.079,-0.078 -0.157,-0.158 -0.157,-0.078 -0.157,-0.079 -0.157,-0.078 -0.157,-0.157 -0.157,-0.079 -0.157,-0.078 -0.314,-0.236 -0.157,-0.078 -0.236,0 -0.157,-0.079 -0.157,-0.078 -0.078,-0.157 -0.157,-0.079 -0.157,-0.078 -0.157,-0.079 -0.236,-0.078 -0.235,0 -0.079,-0.079 -0.157,-0.078 -0.235,0 -0.157,-0.079 -0.236,0 -0.157,-0.078 -0.157,0 -0.078,0 -0.157,-0.079 -0.157,0 -0.157,-0.078 -0.236,-0.157 -0.157,-0.079 -0.078,-0.157 -0.079,-0.157 -0.157,-0.078 -0.157,-0.079 -0.157,-0.078 -0.235,-0.079 -0.157,-0.078 -0.157,-0.157 -0.079,-0.079 -0.078,-0.157 -0.158,-0.078 -0.235,-0.157 -0.157,0 -0.157,-0.079 -0.236,-0.078 -0.078,0 -0.157,0 -0.236,-0.079 -0.078,-0.078 -0.157,-0.079 -0.079,-0.157 -0.157,-0.157 -0.157,-0.157 0,-0.157 -0.157,-0.078 -0.235,-0.157 -0.079,-0.157 -0.078,-0.157 -0.157,-0.079 -0.236,-0.157 -0.078,-0.078 -0.314,-0.157 -0.314,-0.158 -0.157,-0.157 -0.157,-0.078 -0.157,-0.157 -0.079,-0.079 -0.157,-0.157 -0.157,-0.078 -0.235,-0.079 -0.157,-0.078 -0.157,-0.079 -0.157,-0.078 -0.314,-0.079 -0.236,-0.078 -0.157,-0.079 -0.236,0 -0.157,0 -0.078,-0.078 -0.236,-0.079 -0.157,-0.078 -0.157,-0.079 -0.157,-0.078 -0.157,-0.079 -0.078,-0.157 -0.157,-0.078 -0.394,-0.079 -0.235,-0.078 -0.157,-0.157 -0.157,-0.079 -0.157,-0.078 -0.157,-0.079 -0.157,0 -0.236,-0.157 -0.157,-0.078 -0.157,-0.157 -0.078,-0.079 -0.157,-0.078 -0.157,-0.079 -0.157,-0.078 -0.236,-0.079 -0.157,-0.078 -0.078,-0.157 -0.079,-0.157 -0.157,-0.079 -0.157,-0.157 -0.157,-0.078 -0.235,-0.157 -0.157,-0.079 -0.158,-0.078 -0.078,-0.157 -0.157,-0.079 -0.394,-0.235 -0.157,-0.157 -0.157,-0.079 -0.157,-0.157 -0.078,0 -0.157,-0.078 -0.157,-0.157 -0.157,-0.079 -0.236,-0.078 -0.157,-0.079 -0.157,-0.079 -0.078,-0.078 -0.157,-0.157 -0.157,-0.079 -0.157,-0.157 -0.236,-0.078 -0.157,-0.079 -0.157,-0.157 -0.078,-0.078 -0.157,-0.157 -0.157,-0.079 -0.157,-0.078 -0.157,-0.079 -0.314,-0.157 -0.236,-0.235 -0.157,-0.079 -0.235,-0.157 -0.079,-0.078 -0.078,0 -0.157,-0.079 -0.314,-0.157 -0.315,-0.078 -0.157,-0.079 -0.157,-0.078 -0.235,-0.079 -0.157,-0.157 -0.079,-0.078 -0.157,-0.079 -0.078,-0.078 -0.236,0 -0.078,0.078 -0.157,-0.078 -0.157,-0.157 -0.079,0 -0.157,-0.157 -0.157,-0.079 -0.157,-0.157 -0.157,-0.078 -0.157,-0.079 -0.235,0 -0.079,-0.078 -0.157,-0.079 -0.157,-0.078 -0.157,-0.079 -0.157,0 -0.157,-0.078 -0.314,-0.157 -0.157,-0.157 -0.157,-0.079 -0.314,-0.235 -0.157,-0.079 -0.157,-0.157 -0.078,0 -0.157,-0.157 -0.157,-0.078 -0.157,-0.079 -0.157,-0.078 -0.158,0.078 -0.078,0 -0.157,-0.078 -0.157,0 -0.157,-0.079 -0.236,-0.078 -0.157,0 -0.157,-0.157 -0.157,-0.079 -0.157,-0.314 -0.157,-0.157 -0.157,-0.079 -0.157,-0.157 -0.157,-0.078 -0.157,-0.079 -0.157,-0.078 -0.157,-0.079 -0.078,-0.157 -0.157,-0.078 -0.079,-0.157 -0.157,-0.157 -0.157,-0.079 -0.157,-0.078 -0.235,-0.157 -0.079,-0.079 -0.235,0 -0.157,-0.078 -0.157,-0.079 -0.236,-0.078 -0.157,-0.079 -0.078,-0.078 -0.157,-0.079 -0.157,-0.078 -0.236,-0.079 -0.157,-0.078 -0.235,0 -0.158,0 -0.078,-0.079 -0.157,-0.078 -0.157,-0.079 -0.236,-0.157 -0.157,-0.078 -0.078,-0.157 -0.157,-0.079 -0.079,-0.078 -0.078,-0.157 -0.079,-0.079 -0.157,-0.078 -0.078,0.078 -0.157,0 -0.079,-0.078 -0.157,-0.157 -0.078,-0.157 -0.157,0 -0.157,0 -0.157,0 -0.079,0 -0.157,-0.079 -0.235,-0.078 -0.157,-0.079 -0.157,0 -0.157,-0.157 -0.157,-0.078 -0.157,-0.079 -0.079,-0.157 -0.157,-0.078 -0.157,-0.157 -0.078,-0.079 -0.157,-0.157 -0.157,-0.078 -0.314,-0.157 -0.236,-0.157 -0.157,-0.079 -0.157,-0.079 -0.078,-0.078 -0.157,-0.079 -0.236,-0.078 -0.157,0 -0.157,-0.079 -0.236,-0.078 -0.078,-0.079 -0.314,-0.078 -0.236,-0.157 -0.157,-0.079 -0.157,-0.078 -0.157,-0.079 -0.157,-0.078 -0.157,-0.079 -0.393,-0.157 -0.157,-0.078 -0.236,-0.079 0,-0.078 -0.157,-0.079 -0.314,-0.235 -0.157,-0.157 -0.157,-0.079 -0.157,-0.157 -0.314,-0.157 -0.157,-0.078 -0.157,-0.079 -0.078,-0.157 -0.157,-0.078 -0.236,-0.079 -0.157,-0.157 -0.078,-0.078 -0.157,-0.079 -0.157,-0.157 -0.236,-0.078 -0.078,-0.079 -0.236,-0.157 -0.157,-0.078 -0.236,-0.236 -0.157,-0.078 -0.157,-0.157 -0.157,0 -0.157,-0.079 -0.157,-0.157 -0.157,-0.078 -0.157,-0.079 -0.472,-0.393 -0.157,-0.079 -0.235,-0.235 -0.157,-0.079 -0.394,-0.235 -0.314,-0.236 -0.314,-0.157 -0.157,0 -0.157,-0.079 -0.157,-0.078 -0.157,-0.079 -0.235,-0.078 -0.236,-0.157 -0.157,-0.079 -0.629,-0.157 -0.078,-0.078 -0.158,-0.079 -0.393,-0.157 -0.157,-0.078 -0.236,0 -0.157,-0.079 -0.078,-0.078 -0.236,-0.079 -0.314,-0.157 -0.235,-0.078 -0.157,-0.079 -0.079,-0.078 -0.235,-0.079 -0.314,-0.157 -0.157,-0.078 -0.314,-0.157 -0.157,-0.079 -0.551,-0.393 -0.157,-0.079 -0.157,-0.078 -0.157,-0.079 -0.393,-0.235 -0.394,-0.314 -0.235,-0.157 -0.079,-0.079 -0.078,-0.078 -0.394,-0.236 -0.314,-0.314 -0.236,-0.078 -0.472,-0.314 -0.786,-0.786 1.18,-1.966 -0.629,-0.314 -1.415,-0.943 -1.494,-0.786 -1.494,-0.865 -1.336,-0.707 -1.572,-0.944 -1.415,-0.707 -1.416,-0.943 -1.65,-0.865 -0.551,-0.314 -1.572,-0.864 -1.493,-0.708 -1.416,-0.865 -1.493,-0.707 -1.494,-0.865 -1.493,-0.786 -1.494,-0.786 -1.494,-0.786 -0.55,-0.393 -1.494,-0.786 -1.494,-0.944 -1.493,-0.786 -1.415,-0.864 -1.494,-0.865 -4.402,-2.594 -0.551,0 -1.65,-0.865 -1.494,-0.786 -1.494,-0.786 -2.987,-1.651 -1.494,-0.786 -1.493,-0.864 -1.494,-0.787 -0.629,-0.157 -1.494,-0.864 -1.493,-0.708 -1.494,-0.864 -2.987,-1.651 -1.415,-0.786 -1.494,-0.865 -1.493,-0.786 -0.63,-0.235 -1.572,-0.865 -1.415,-0.786 -2.987,-1.572 -1.494,-0.865 -1.572,-0.864 -1.415,-0.786 -1.494,-0.786 -0.472,-0.394 -1.493,-0.786 -1.572,-0.864 -1.415,-0.708 -1.573,-0.865 -1.415,-0.707 -1.572,-0.865 -1.494,-0.707 -1.415,-0.865 -0.707,-0.235 -1.494,-0.865 -1.493,-0.864 -1.416,-0.708 -1.493,-0.865 -1.494,-0.786 -2.909,-1.729 -1.572,-0.786 -0.943,0.394 -1.493,-0.786 -1.494,-0.786 -1.572,-0.787 -1.415,-0.786 -1.809,-0.864 -0.551,-0.394 -2.751,-1.493 -1.572,-0.786 -1.494,-0.787 -2.987,-1.572 -1.494,-0.864 -3.066,-1.651 -1.415,-0.786 -1.493,-0.786 -0.157,-0.943 -1.494,-0.786 -1.494,-0.865 -1.572,-0.786 -1.415,-0.864 -1.494,-0.786 -1.572,-0.787 -1.336,-0.786 -1.572,-0.864 -0.63,-0.551 -1.336,-0.629 -2.28,-1.258 -0.314,0.629 -17.847,-6.132 68.714,-184.914 36.008,-96.86 48.43,-130.352 -41.904,-35.536 146.705,-4.324 94.344,16.432 8.491,-0.157 20.598,-2.673 9.514,-1.258 72.094,-9.041 0.157,-0.472 0.708,-1.965 2.673,-3.538 -0.314,-2.438 0.629,-1.415 -0.314,-1.258 -1.965,-2.28 -2.909,-1.415 -1.18,-1.101 -0.472,-1.651 -0.707,-3.852 1.65,-3.538 0.786,-2.044 0.157,-1.965 -0.707,-2.123 -1.258,-2.044 -0.394,-1.415 0.157,-1.573 0.079,-1.494 -0.314,-1.729 -0.786,-1.494 0.078,0 14.702,0.394 4.245,-1.573 9.828,-0.629 10.771,-0.314 9.513,-0.786 4.246,-0.393 4.324,1.494 4.639,3.302 1.729,3.931 3.537,1.416 7.233,1.258 4.875,2.673 4.166,3.538 6.133,3.066 3.066,3.224 5.188,4.639 -0.55,-1.494 -0.236,-2.044 0.394,-1.651 1.415,-2.988 1.101,-2.516 0.314,-0.943 0.786,-2.358 0.55,-3.066 0.944,-3.302 1.965,-5.189 0.786,-2.201 -0.235,-2.437 0.157,-3.774 0.078,-3.302 0.551,-2.437 0.707,-2.123 0.865,-1.416 2.358,-5.896 2.673,-4.874 0.236,-2.28 0.707,-1.572 1.888,-0.708 2.516,-0.157 5.031,-1.887 3.538,-1.729 4.874,-2.516 2.438,-1.73 2.909,-4.009 0.55,-1.651 0.473,-2.437 0.786,-2.516 1.258,-1.336 1.258,-1.651 1.336,-1.651 1.022,-0.55 1.022,-0.394 0.864,-0.55 0.551,-0.629 0.707,-0.865 0.157,-0.55 -0.157,-0.943 -0.078,-1.572 0.786,-1.651 0.393,-1.729 0,-2.594 -0.864,-3.302 0,-0.943 -0.472,-5.346 -0.157,-2.516 -0.629,-3.853 -0.786,-3.145 -0.394,-2.83 -0.314,-1.573 0,-2.201 -0.707,-3.931 0.078,-2.044 0,-2.207 0.157,-3.381 -0.079,-1.415 0.551,-4.088 0.157,-2.358 0.236,-1.729 -0.236,-2.988 0.236,-0.943 0.157,-1.022 0.629,-1.258 0.314,-0.943 -0.157,-0.865 0,-0.943 0.235,-1.179 0.629,-1.573 0.394,-0.393 0.864,-0.865 0.472,-0.865 0.236,-0.943 -0.157,-1.179 -0.472,-1.494 -4.167,-5.267 1.887,2.201 2.28,1.101 1.966,0.55 1.101,0.472 1.258,0.157 1.021,0.079 1.258,0 0.867,0.154 z"
       inkscape:connector-curvature="0"
       class="DEP_08 ZON_03" /></g></svg>