<?xml version="1.0" encoding="UTF-8" standalone="no"?>
<!-- Generator: Adobe Illustrator 16.0.0, SVG Export Plug-In . SVG Version: 6.00 Build 0)  -->

<svg
   xmlns:dc="http://purl.org/dc/elements/1.1/"
   xmlns:cc="http://creativecommons.org/ns#"
   xmlns:rdf="http://www.w3.org/1999/02/22-rdf-syntax-ns#"
   xmlns:svg="http://www.w3.org/2000/svg"
   xmlns="http://www.w3.org/2000/svg"
   xmlns:sodipodi="http://sodipodi.sourceforge.net/DTD/sodipodi-0.dtd"
   xmlns:inkscape="http://www.inkscape.org/namespaces/inkscape"
   version="1.1"
   id="SvgMunicipio"
   x="0px"
   y="0px"
   width="484.922px"
   height="1000.021px"
   viewBox="64.592 118.173 484.922 1000.021"
   enable-background="new 64.592 118.173 484.922 1000.021"
   xml:space="preserve"
   inkscape:version="0.91 r13725"
   sodipodi:docname="MUN_ID0805.svg"><metadata
     id="metadata10"><rdf:RDF><cc:Work
         rdf:about=""><dc:format>image/svg+xml</dc:format><dc:type
           rdf:resource="http://purl.org/dc/dcmitype/StillImage" /></cc:Work></rdf:RDF></metadata><defs
     id="defs8" /><sodipodi:namedview
     pagecolor="#ffffff"
     bordercolor="#666666"
     borderopacity="1"
     objecttolerance="10"
     gridtolerance="10"
     guidetolerance="10"
     inkscape:pageopacity="0"
     inkscape:pageshadow="2"
     inkscape:window-width="1366"
     inkscape:window-height="705"
     id="namedview6"
     showgrid="false"
     inkscape:zoom="0.23599505"
     inkscape:cx="242.461"
     inkscape:cy="500.0105"
     inkscape:window-x="-8"
     inkscape:window-y="-8"
     inkscape:window-maximized="1"
     inkscape:current-layer="svg" /><g
     id="g3"><path
       id="MUN_0805"
       d="m 439.488,174.494 0.896,0.971 0.299,1.494 0.448,0.672 1.419,1.046 0.821,0.971 0.225,2.166 -2.241,2.913 0,0.075 -1.12,2.465 0,0 -1.644,6.2 0,0 0.225,0.971 0,0 1.867,2.241 1.195,1.121 0.598,0.896 -0.225,0.896 -0.971,0.523 0,0.523 0.672,0.747 0,0.075 -0.747,1.27 0.149,1.718 -0.672,1.867 0,1.569 0,0.074 1.27,3.436 0,0 1.942,3.361 0,0 1.793,2.017 0,0.075 2.913,1.942 0.074,0.075 -0.224,2.166 0,0 -0.598,2.838 -1.644,0.523 -0.522,1.195 -0.673,0.822 0.673,1.195 0.373,0.598 0,0.075 -0.225,0.822 0,0.075 0.523,0.598 -0.821,1.718 -0.896,1.644 0.224,0.896 0.896,0.747 0,0 0.074,1.344 0,0 2.54,3.735 0,0 0.374,1.644 -0.075,2.614 0,0 -0.971,2.465 0,0 -0.374,2.39 -0.074,2.316 0,0 -0.822,0.821 -3.585,1.868 -0.075,0.149 1.121,1.344 0.149,1.569 0,0 -0.075,2.465 0.374,1.195 1.867,0.821 0,0 2.391,0.747 0,0 1.12,1.419 0.074,0 0.149,1.045 1.046,1.419 -0.522,2.091 -0.523,2.017 0.448,1.494 0,0 1.494,2.166 1.942,2.689 0,0 0.598,1.195 0.074,0.075 0.075,1.793 -0.075,0 -2.838,3.436 0,0.075 -4.557,2.838 -2.166,1.793 0,0.075 -1.569,4.034 0,0 0.523,1.195 0,0.075 1.494,1.046 0,0.075 -0.149,3.66 0.149,2.166 0.896,1.792 1.719,1.27 0.522,1.121 -0.971,1.27 0,0 -0.673,0.448 0,0.075 -0.074,1.27 -0.448,1.27 0,1.419 0,0.971 0.747,1.045 0,0 -0.598,3.585 0,0 -3.511,4.855 0,0 -0.075,1.121 0,0 0.075,2.988 0,0 0.672,4.706 0,0 0.374,1.568 0.821,1.046 0,1.045 0,0 -0.074,1.569 0,0 -0.673,2.39 0.149,1.345 0.523,1.045 0,0.075 -0.448,2.017 -0.149,1.12 -0.523,0.971 0.448,1.27 -0.224,2.017 0,0.075 0.373,2.614 0,0 -0.598,2.241 -2.39,3.137 0,0.075 -0.149,1.644 0,0 -0.598,0.971 -0.598,0.597 0,1.494 -0.373,1.568 -0.225,1.121 0,0.075 0.672,1.345 0.299,0.672 0.374,0.896 -0.822,1.494 0,0 0.149,1.344 -0.074,1.195 -0.672,1.494 -0.448,1.419 0.149,1.195 0.896,1.419 0,0 0.299,1.867 1.046,1.942 0.747,1.12 0.971,0.598 0.299,0.971 0,0 0,1.792 0.523,1.868 1.046,1.643 0.747,1.195 0,0 1.194,1.046 2.465,1.195 0,0 3.212,2.091 0,0 1.719,1.345 1.344,1.867 0,0 0.972,1.942 0,0 0.598,2.166 0,0 0.598,1.718 0,0 0.746,1.121 0,0 1.42,1.941 1.195,1.046 0.074,0 1.644,0.598 2.017,0.074 0,0 1.942,-0.522 0,0 1.867,-0.149 1.345,-0.074 1.045,0.299 0.374,1.12 0,0.074 0.672,0.374 0.972,0.448 0.821,0.522 0.373,0.896 0,0 0.225,0.672 0.074,0.075 0.448,0 0.075,0.747 -0.225,0.896 0.299,0.971 0.598,0.821 1.718,0.673 0,0 1.121,1.195 1.12,0.447 0.075,0 1.419,0.075 0,0 1.12,-0.075 0,0 0.972,0.448 1.718,1.942 1.494,1.195 2.091,0.971 1.942,0.972 1.12,0.896 0.075,0 1.941,0.448 1.046,0.896 1.867,0.822 3.063,2.688 0,0 1.121,1.494 0,0 1.867,1.195 0,0 0.598,0.224 0.971,-1.345 0.598,-0.522 0.522,0 0.673,-0.598 0,0 0.971,-1.27 0.075,0 1.344,-0.075 0,0 1.42,0.225 0,0 0.598,0.672 0.448,0.972 -0.149,0.447 0.522,0.448 0.149,0.972 0.299,0.672 0.896,0.747 0.373,1.046 0,0 -0.149,2.166 0,0 0.225,1.419 0,0.075 1.345,1.195 3.585,1.643 0.672,0 0.822,-0.448 1.345,0.598 0.522,-0.074 0.896,-0.299 0.598,0.522 0.896,1.046 0,0 0.746,0.373 1.121,0.075 1.867,1.27 0.074,0 2.391,0 1.942,0.374 0,0 1.941,-0.075 0,0 1.121,0.822 1.793,1.12 0,0.672 -0.374,0.972 0,0.074 0.299,1.27 0,0.075 1.345,1.793 0.074,0 0.972,0.896 1.344,0.447 1.42,0.149 0.598,-0.971 0.373,0 0,0 0.747,-0.672 0.299,-0.673 0.299,-0.074 0,0 1.494,-0.523 0,0 1.419,-0.149 1.12,0.299 1.494,1.42 -19.72,22.109 -41.979,32.567 -50.42,50.644 0.972,2.987 0,0 0.149,0.598 0,0 0.598,1.867 0,0 0.597,1.942 0,0 0.149,0.225 0,0.074 0.896,0.747 0,0 0.747,0.971 0,0 0.075,1.121 0,0 0.522,0.672 0,0.074 0,0.598 0,0 0.149,0.299 0,0.075 0.522,0.373 0,0 0.299,0.523 0,0 0.149,0.522 0,0 -0.149,0.522 -0.074,0 -0.299,0.149 -0.074,0.075 0.074,0.522 0,0 0.074,0.598 0,0.075 0.075,0.373 0,0.075 -0.373,0.224 0,0.075 -0.972,0.299 0,0 -0.299,0.373 0,0.075 -0.299,0.746 0,0 -0.074,0.673 0,0 0.224,0.522 0,0.075 0.523,0.598 0,0 0.672,1.045 0,0 0.374,0.374 0,0.074 0.148,0.747 0,0 0.075,1.046 0,0 0,0.971 0.074,0 0.149,0.673 0.075,0.074 0.373,0.299 0,0 0.448,0.225 0,0 0.448,0.074 0,0 0.747,0.075 0,0 0.896,0.074 0,0 0.598,-0.074 0,0 0.598,0 0,0.074 0.672,0.673 0,0.074 0.225,0.448 0,0 0.896,0.971 0,0 1.045,1.121 0,0 0.448,0.598 0.896,2.539 0.374,1.345 0.074,0.672 0.075,0.523 -0.299,0.598 -0.972,1.344 -0.522,0.896 0.074,0.374 0.747,0.747 0.747,0.971 0.672,0.747 1.195,1.568 0,1.942 0.075,1.046 0.299,0.821 0.522,1.27 0.896,1.867 0.074,0 0.598,0.822 0.598,0.448 1.121,0.373 0.821,0.523 0.522,0.373 0.523,0.896 0.074,0.747 -0.074,1.195 -0.225,1.344 -0.149,0.747 -0.074,1.345 0,0.448 -0.299,1.27 -0.075,1.644 0.149,2.166 0.075,1.27 -0.149,1.195 -0.598,0.747 -1.12,0.374 -1.195,-0.149 -1.568,-0.972 -1.195,-0.224 -0.523,0.522 0,0.747 -0.149,0.149 -0.299,0.896 -0.447,0.821 -0.673,0.523 -0.074,0.896 0.224,0.448 0.149,0.672 0.225,0.598 0.448,0.224 0.597,0.374 0.374,0.522 0.522,0.747 0.747,0.598 0.673,1.046 -0.523,5.826 0.299,2.091 0.522,1.121 0.299,1.419 0.896,1.195 1.195,0.522 0.448,1.494 0.971,0.971 1.345,0.448 2.166,0 1.121,0.598 1.12,1.345 0.373,1.494 -0.224,1.568 -0.896,1.195 -1.27,0.672 -0.299,0.747 -0.149,0.374 0,0.672 0.522,0.299 0.374,0.672 0.747,0.523 0.746,-0.149 0.673,0.224 1.419,0.149 0.896,0.075 1.046,0.448 0.896,0.896 0.448,0.896 0.299,1.271 0.074,0.672 0.373,1.568 0.374,1.718 0.373,2.54 -0.224,2.689 0.074,0.896 0.448,0.822 0.448,1.568 -0.299,1.12 -0.448,1.271 0.225,0.896 0,0.896 -0.448,1.046 0.224,0.896 0.299,0.896 0.972,0.224 0.821,0.374 0.299,0.522 0.299,0.822 0,0.747 -0.149,1.194 0,1.719 0.149,1.419 0.522,1.718 -0.448,1.718 0.374,1.719 0,0.224 -0.075,1.718 -0.373,1.419 -0.225,0.448 -0.224,1.046 0.149,1.271 0.074,0.672 -0.149,0.672 0,1.195 0.448,1.195 0.225,1.345 0.672,2.091 0,0.747 0.299,1.121 0.673,1.12 1.493,1.12 0.747,0.747 0.972,0.523 1.419,0 0.747,-0.225 0.971,0.075 1.644,0.672 1.793,0.821 3.361,1.644 2.017,1.568 1.419,1.644 0.971,0.672 0.598,0.896 1.121,2.166 0.971,1.868 -0.225,0.821 -0.672,0.598 -1.644,1.27 -0.747,1.121 -1.045,2.913 0.522,0.149 2.017,-0.747 1.046,-0.075 0.747,0 0.522,0.149 0.225,0.225 0.299,0.597 0.821,1.271 0.971,1.27 1.195,1.195 1.195,1.419 0.821,1.644 0,1.046 -0.373,0.598 -0.224,0.747 0.597,1.194 0.075,0.822 -0.149,0.896 -0.374,1.792 -0.447,1.569 -0.598,1.493 2.614,5.378 -7.769,12.848 0,0 0,0 -4.93,8.889 0,0 -3.287,5.976 0,0 0,0 0,0 -1.941,4.258 0,0 0,0 0,0 0,0 -3.361,5.826 0,0 -1.271,2.614 0,0 -1.27,1.644 -0.598,0.822 -0.074,0 0,0 0,0 0,0 0,0 0,0.074 0,0 0,0 0,0 0,0 0.074,0 0,0 0,0 2.614,2.913 0,0 0.598,0.448 0,0 0,0 0,0 0.075,0 0,0 0,0 0,0 0.149,0.896 0,0 0,0.074 0,0 -0.149,1.046 0.448,1.419 0.447,1.42 0.225,1.27 0.074,0.896 0.822,1.27 0,0 0,0 0,0 0,0 0.747,1.494 0,0 0.074,0 0,0 0,0 0,0 0,0 0.598,0.448 0.598,0.149 0.373,-0.448 0.149,-1.046 0.523,-0.598 0.747,-0.074 1.12,0.598 3.361,0.299 0,0 0,0 0,0 0,0 0,0 0,0.074 0.074,0 0,0 0,0 0,0 0,0 0.822,1.046 0,0 0,0.074 1.494,2.614 0,0 0,0 0.448,1.195 0,0 0,0 0,0 0,0 0,0 2.24,1.942 0.747,0.821 1.046,0.448 0,0 0,0 0,0 0,0.075 0,0 0,0 0,0 0,0 0.672,0.971 0.374,1.12 0.149,1.494 0.074,0.822 0,0 0,0 0,0 0,0 0,0 0,0 0.747,1.344 0.896,1.494 0.224,0.821 0,0 0,0 0,0 0,0.075 0,0 0,0 0,0 -0.522,2.614 0,0 0,0 -0.225,1.195 0,1.494 -0.373,0.896 -0.522,0.448 0,0 0,0 0,0 0,0 0,0 -1.046,1.942 0,0 -1.867,2.614 0,0 0,0 -0.896,1.27 0,0 -1.121,1.494 0,0 0,0 -0.821,0.972 0,1.12 -0.821,0.971 -0.747,0.598 -1.271,1.195 0,0 0,0 0,0 0,0 0,0 -0.597,1.27 0,0 0,0 0,0 0,0.075 0,0 0,0 0,0 0,0 0,0.821 0.373,0.598 0.522,0.224 0.225,0.523 -0.672,0.896 -0.598,1.046 0,0 0,0 0,0.074 -0.075,0 0,0 0,0 0,0 0,0 0.149,0.896 0.299,0.373 1.195,0.673 0.747,0.672 0.149,1.568 0,0.075 0.373,0.821 0,0 0,0 0.299,0.822 0,0 0,0 0,0.074 0,0 -0.074,1.12 0,0 0,0 0,0 0,0 0.149,1.494 0,0.075 0.747,1.941 1.344,2.315 0.598,1.345 0.149,1.046 0,0 0,0 0,0 0,0 0.075,2.017 0.522,1.494 0,0 0,0 0,0 0,0 0,0 0,0 1.644,1.568 0,0.075 0.971,1.718 0,0 0,0 0,0 0,0 0,0 -0.149,2.092 0,0 -0.522,1.643 0,0.075 -0.225,1.942 0,0 0,0 0,0 0.299,4.705 0,0 0.448,1.867 0,0.075 0.523,0.971 0.522,0.598 0.598,-0.149 0.971,-0.224 0.075,0 0,0.074 0.373,0.149 0.299,0.673 0.075,1.568 0,0 0.896,2.838 0,0 0,0 0,0 0,0 0.972,2.092 0,0 0.598,2.614 0,0 0,0 0.747,3.959 0,0 0,0 0,0 -0.075,1.419 0,1.271 0.149,1.568 -0.224,1.345 -1.195,0.522 -1.195,0.598 0,0 0,0 0,0 0,0 0,0 0,0 0,0 -1.494,2.166 0,0 0,0 0,0 0,0 -1.494,2.614 0,0 -1.194,2.166 0,0 0,0 0,0 0,0 0,0.075 0,0 -0.149,2.838 0,0 0,0 0.672,2.391 0,0 0,0 0,0 0,0 0,0 0,0 1.718,2.166 0,0 1.868,3.437 0,0 0.821,1.643 0.074,0 1.719,2.018 0,0 0,0 0,0 1.941,2.764 0.673,3.063 1.792,2.24 0,0 0,0 1.868,2.764 0,0 0,0 3.063,2.913 0,0 1.12,1.195 0,0 0,0 0,0 0,0 0,0 0,0 0,0 0,0 0,0 0,0 0,0 0,0 0,0.075 0,0 0,0 0,0 -2.315,2.539 0,0.075 -5.453,4.406 0,0 -4.706,3.735 0,0 0,0 0,0 -3.884,2.614 0,0 -2.465,3.137 0,0 0,0 0,0 -5.677,5.678 0,0 -3.81,3.659 0,0 0,0 -4.183,4.108 0,0.075 -2.839,1.941 0,0 0,0.075 0,0 0,0 0,0 0,0 0,0 0,0 -1.27,2.54 -0.075,0 0,0 -2.614,3.511 0,0 0,0 -0.074,0 0,0 0,0 0,0 0,0 0,0 0.224,2.688 0,0 0,0 1.419,3.437 0,0.074 0,0 0.374,2.54 0,0 0,0 0,0 0,0 0,0 0,0 0,0 0,0 2.017,2.166 0,0 0,0 0,0 0,0 0,0 0,0 0,0 0,0 0,0 0.374,2.614 0,0 0,0 0,0 0,0 0,0 1.568,2.838 0,0 0,0 0,0 0.074,0 0,0.075 0,0 0,0 0,0 2.465,1.195 0,0 0,0 0,0 2.018,1.493 0,0 0,0 0,0 0.074,0 0,0 0,0 0,0 0,0 0,0 0,0 0,0 0,0 0,0 0.299,3.81 0,0 0,0 0,0 0,0 0.896,5.154 0,0 0,0 0.224,4.033 0,0 0,0 0.822,4.557 0,2.465 -0.374,2.913 0,0 -1.27,3.885 0,0 0,0 -0.747,2.688 0,0 -0.448,0.822 0,0 0,0 0,0 0,0 -0.074,0 -2.839,2.017 -0.747,1.494 -0.672,2.39 -0.972,0.299 -1.493,1.345 0,0 -2.241,2.838 0,0 0,0 0,0 0,0 0,0 0,0 0,0 -0.821,0.299 0,0 -3.586,2.092 0,0 0,0 0,0 -0.299,0.224 -2.39,1.271 0,0 -0.075,0 -1.644,1.568 -0.746,1.27 0,0 0,0 0,0 0,0 0,0 0,0 0.074,1.868 0,0 0,0 0,0 1.12,2.838 0.747,1.419 1.345,2.092 1.793,2.166 0,0 0,0 0,0 2.017,1.644 1.046,1.419 0.149,0.822 -0.149,1.12 -0.673,2.241 0,0 0,0 0,0 0,0.074 0,0 0,0 0,0 0.299,2.092 0,0 0.747,1.718 0,0 1.345,1.793 0.747,1.568 0,0 0,0 0.373,1.718 0,0 0,0 0,0 0,0 -0.074,2.391 0.074,3.212 0.673,2.913 1.12,3.137 0,0 0.672,1.942 0,0 0.075,1.12 0,0 0,0 0,0 -0.149,3.437 0,0 0,0 0,0 0,0 0,0 -0.075,0 0,0 -0.672,1.046 0,0 0,0 0,0 0,0 0,0 0,0 -1.12,0.672 0,0.074 0,0 0,0 0,0 0,0 0,0 -0.822,1.644 0,0 0,0 0,0 0,0 -0.074,0 0,0 0,0 0,0 0,0 0,0 0,0 0.074,0.448 0.225,1.494 0,0 0,0.074 0,0 0,0 -0.149,2.315 -0.821,2.466 0,0 0,0 0,0 0,0 0,0 0,0 -1.494,1.941 0,0 0,0 -1.494,2.241 0,0.074 0,0 0,0 0,0 0,0 0,0 0,1.195 -19.57,2.54 -8.067,0.149 -89.634,-15.611 -139.382,4.108 -8.066,0.224 -1.644,0 -14.192,0.747 -13.221,2.465 -16.508,3.212 -16.358,3.063 -9.561,1.867 -5.154,0.972 -5.079,0.971 -4.184,0.821 -4.854,0.896 -2.241,0.448 -2.465,0.448 -4.108,0.747 -3.734,0.747 -7.396,1.345 -3.809,0.746 -3.063,0.523 -3.66,0.672 -8.889,1.644 -2.018,0.373 0.149,-6.872 0.374,-10.756 0.224,-13.37 -2.838,0.149 0.448,-4.631 0,-0.149 -1.942,0.448 0,-0.523 0,-12.549 -2.913,0.149 0.522,-4.183 0.598,-1.942 -0.074,-2.315 0.074,-1.419 -0.074,-1.046 2.539,-5.154 -0.149,-5.079 -5.153,0.224 -3.138,0.149 -3.212,0.149 -1.12,0 1.195,-14.416 0.074,-0.149 3.959,-0.149 0.522,-2.39 0.523,-2.241 0.971,-2.913 1.195,-3.511 1.27,-3.734 0.747,-0.149 2.913,0.373 2.315,0 0.448,-0.074 1.345,-0.673 1.12,-0.448 1.121,0 1.12,-0.074 4.481,-2.092 1.046,-0.971 1.345,-1.271 1.494,-2.091 1.344,-2.166 0.523,-1.494 0.149,-0.896 0.448,-5.304 -5.527,-2.017 -2.092,-0.821 -1.046,-0.299 -1.27,-0.523 1.494,-2.764 -0.149,-2.315 0.373,-2.017 0,-1.12 -0.373,-0.972 -2.54,-2.39 -1.345,-1.046 -0.074,2.166 -2.241,-2.688 -2.614,-4.034 -0.373,-2.838 -0.075,-6.424 -0.598,-4.706 -0.149,-2.391 0.673,-2.539 1.867,-3.735 2.688,-4.332 1.644,-3.361 2.614,-3.66 1.345,-1.345 7.47,-4.556 1.942,-1.569 1.568,-2.465 0.448,-0.896 0.074,-1.493 -0.074,-2.913 0,-2.018 0.672,-4.406 1.867,-6.947 2.391,-7.992 0.224,-2.166 0.075,-2.166 -0.299,-1.569 -0.971,-2.987 -0.523,-2.166 0,-1.345 -0.074,-4.93 0.821,-5.603 1.046,-3.734 1.345,-3.212 1.643,-3.063 2.839,-4.557 3.286,-4.108 2.167,-1.941 2.465,-1.942 2.688,-1.12 2.017,-0.822 3.212,-0.971 2.988,-1.345 4.258,-1.793 4.78,-1.12 2.764,-0.522 2.241,-0.225 3.063,-0.672 5.751,-1.793 4.108,-1.494 2.913,-1.046 3.437,-0.522 5.976,0 3.212,0.373 2.688,-0.299 1.494,-1.12 1.195,-2.39 0.448,-1.868 0.448,-4.631 0,0 0.299,-4.407 0.447,-1.12 0.896,-0.821 1.644,-0.225 2.913,0.225 3.138,0 3.809,-0.673 1.494,-1.195 0.972,-1.194 0,-1.271 -0.374,-1.344 -0.672,-1.271 -1.271,-1.046 -1.643,-1.194 -1.793,-0.972 -2.764,0.448 -1.644,0.673 -2.764,0.597 -1.419,-0.522 -1.345,-0.747 -0.224,-1.568 0.598,-2.391 -0.149,-0.971 -0.972,-0.821 -1.867,-1.644 -0.448,-0.896 -0.971,-3.734 -0.747,-2.391 -1.345,-3.81 -0.896,-2.54 -0.224,-1.493 0.747,-1.42 0.971,-1.27 1.568,-1.12 0.972,-0.149 1.194,0.522 0.972,0.896 1.493,1.419 1.942,0.075 3.735,-1.27 3.137,-1.719 2.241,-1.867 2.539,-2.539 2.166,-2.167 2.466,-2.838 0.522,-1.12 0,-0.972 -1.12,-1.046 -2.018,-0.448 -4.854,-0.672 -2.166,-1.793 -0.747,-2.017 -0.448,-1.568 0.522,-3.437 0.896,-2.614 1.195,-2.24 1.568,-2.913 1.419,-2.465 1.494,-2.018 1.793,-1.493 0.672,-0.374 2.315,-0.448 0.448,-0.149 1.569,-0.747 1.941,-1.792 1.195,-1.942 1.27,-3.137 1.121,-4.184 0.448,-2.017 0.448,-2.166 2.465,-6.872 0.598,-1.568 1.045,-1.568 1.345,-1.345 1.644,-2.166 5.005,-3.361 1.792,-0.896 0.448,-1.195 -0.074,-0.821 -0.523,-0.747 -1.941,-2.391 -2.465,-2.54 -1.719,-1.643 -4.406,-3.287 -2.913,-3.063 -1.271,-2.465 -1.494,-3.212 -0.373,-1.419 -0.598,-2.465 -0.373,-1.568 -1.121,-2.092 -1.045,-1.12 -1.271,-1.121 -1.195,-1.27 -1.27,-1.419 -1.27,-1.195 -2.391,-3.885 -0.373,-1.344 -0.149,-1.121 -0.448,-2.315 -0.225,-2.24 -0.373,-1.345 -0.225,-2.166 -0.148,-1.121 -0.149,-1.344 -0.299,-1.42 -0.075,-1.195 -0.598,-1.045 -0.373,-1.345 -0.523,-1.12 -0.747,-0.972 -0.522,-0.971 -0.149,-0.598 0,-0.373 0.299,-0.448 0.448,-0.523 0.373,-0.598 0.448,-0.373 0.673,-0.299 0.672,0 0.672,0.299 0.896,0.747 3.361,2.838 1.867,1.42 0.972,0.821 0.896,0.373 1.419,0.149 1.867,0.075 0.448,0 0.896,0.074 1.195,0 1.27,0 1.718,-0.224 1.046,-0.299 1.27,-0.523 1.195,-0.746 1.345,-1.195 0.971,-0.598 1.271,-0.448 0.448,-0.225 1.568,-0.597 1.568,-0.523 1.195,-0.373 0.971,-0.374 0.523,-0.149 1.12,0.149 1.12,-0.074 0.598,-0.225 0.896,-0.896 0.598,-1.045 1.12,-2.092 0.822,-1.644 0.971,-1.046 3.212,-2.539 2.839,-1.867 1.792,-0.747 4.108,-2.017 1.644,-0.673 1.419,-0.598 2.988,-1.643 1.718,-0.896 1.568,-0.747 2.017,-1.42 1.718,-1.344 1.494,-1.793 1.718,-1.27 0.822,-0.896 0.896,-1.046 0.672,-0.971 0.598,-1.046 1.195,-1.345 0.821,-0.971 1.12,-1.42 0.523,-1.045 0.149,-1.046 -0.299,-0.896 -0.225,-1.494 -0.299,-1.12 -0.447,-4.108 0.224,-0.971 0.373,-1.046 -0.074,-0.747 -0.672,-1.345 -0.448,-0.971 -0.523,-1.718 -0.299,-0.673 0,-1.27 0.374,-1.195 0.373,-1.27 0.673,-1.419 0.224,-0.896 -0.149,-1.121 0.075,-1.12 0.224,-0.971 0.149,-0.822 -0.149,-0.598 -0.522,-0.821 -1.569,-3.436 -0.522,-1.719 -0.225,-1.194 -0.224,-2.913 -0.971,-3.361 -0.225,-1.569 -0.299,-1.12 -1.195,-2.391 -0.299,-1.568 -0.224,-1.644 0.149,-0.821 0.448,-0.896 0.299,-1.419 0.299,-2.54 0.522,-1.344 0.374,-1.046 0.672,-2.241 0.598,-0.971 0.448,-0.822 0.598,-0.522 0.299,-0.896 -0.299,-1.345 0,0 -0.747,-1.867 -0.747,-2.092 -0.896,-2.838 -0.971,-3.212 -0.374,-2.689 -0.074,-2.913 -0.448,-1.718 -1.718,-2.391 -2.315,-2.539 -4.407,-4.481 -2.241,-1.719 -0.971,-1.045 -0.747,-1.719 -0.299,-1.867 0.522,-1.195 0.972,-3.361 0.598,-2.166 0.522,-2.764 0.971,-4.855 0.598,-2.465 0.896,-0.747 1.718,-2.24 0.673,-1.793 1.195,-3.063 0.299,-1.195 0.149,-1.345 0.074,-0.522 0.448,-0.224 0.747,-0.523 1.195,-0.522 1.493,-1.569 1.271,-1.867 2.39,-3.585 0.972,-1.644 1.718,-3.585 1.568,-1.569 1.12,-0.447 -0.074,-0.225 0,-0.373 0.224,-0.374 0,-0.224 0.149,-0.149 -0.224,-0.299 0.074,-0.075 0.075,-0.074 0.149,0 0.074,-0.075 0.149,-0.299 0.075,-0.299 0,-0.373 0.074,-0.598 0.299,-2.315 -0.074,-1.195 -0.299,-0.747 -0.075,-0.522 -0.149,-0.448 -0.224,-0.448 -0.225,-0.075 -0.224,-0.224 -0.074,-0.149 -0.075,-0.149 -0.224,-0.074 -0.225,-0.149 0,-0.225 -0.149,-0.448 0.075,-0.672 -0.299,-0.448 -3.437,-10.532 -0.971,-1.27 -0.448,-2.241 -0.448,-2.688 -0.074,-1.644 0.074,-2.315 -0.149,-1.345 -0.074,-1.494 0.373,-2.166 1.195,-2.241 0.299,-1.194 0,-0.374 -0.075,-0.299 -0.747,-0.747 -4.183,-1.345 -1.345,-1.194 -2.688,-2.315 -2.092,-1.868 0,0 -1.718,-1.493 -1.345,-1.942 -1.27,-4.183 -0.747,-2.092 -1.046,-1.644 -0.672,-1.345 0,-0.074 -0.225,0 -0.149,-0.225 -0.149,-0.447 -0.074,-0.523 -0.075,-0.373 -0.074,-0.299 0.074,-0.225 -0.074,-0.074 0,0 -0.075,0 -0.074,-0.075 -0.149,-0.074 -0.225,-0.075 -0.299,-0.074 -0.074,-0.075 -0.149,-0.074 -0.075,-0.149 -0.149,-0.075 -0.224,-0.149 -0.149,-0.074 -0.074,-0.225 -0.075,-0.299 -3.81,-1.12 -4.481,-4.033 -1.12,-2.54 -0.896,-6.647 -1.644,-2.391 -4.033,-2.764 -1.271,-1.27 -2.315,-2.764 -0.373,-2.017 -0.448,-2.391 -0.673,-2.764 0.075,-3.735 -0.672,-2.166 -1.719,-0.747 -3.66,-1.121 -1.718,-1.27 -3.81,-1.195 -2.688,0.672 -4.258,-1.868 -0.448,-3.361 -3.287,-3.66 -1.12,-1.046 -1.419,-4.258 0.149,-2.465 -1.046,-5.079 0.448,-1.27 0.074,-0.747 0.448,-1.494 0.747,-1.867 0.972,-2.391 0,-2.241 0.149,-0.896 0.597,-1.344 0.225,-0.971 -0.075,-1.345 -0.447,-0.747 0,-0.06 -1.793,-2.391 -0.673,-1.344 -1.045,-0.896 -1.569,-0.747 -0.821,-0.672 -2.166,-1.419 -1.27,0.523 -2.765,3.063 -0.597,0.075 -1.719,-0.523 -2.987,-2.091 -2.839,-2.017 -0.821,-2.241 0.149,-1.046 0.598,-1.792 -0.075,-0.896 -0.299,-1.344 -0.598,-1.121 -0.447,-0.822 -0.075,-0.821 0.224,-1.419 0,-1.344 0.225,-0.896 0.448,-0.896 0.896,-0.896 0.074,-1.27 -1.046,-1.195 -1.643,-0.896 -2.689,-0.896 -4.183,-3.063 -1.345,-0.374 -2.166,0.075 -1.419,-0.075 -1.271,-0.822 -1.568,-2.017 -1.718,-3.361 -2.241,-2.166 -0.971,-0.672 -2.017,-2.465 -4.034,-2.839 -1.867,-0.747 -1.046,-0.822 -0.821,-0.822 -1.195,-1.942 -1.644,-1.644 0.299,-0.896 2.913,-2.615 -0.074,-0.896 -1.793,-2.091 0,-0.299 0.075,-1.494 0.224,-0.299 0.598,-0.299 2.315,-0.448 1.419,-0.522 0.299,-1.793 0.225,-0.896 -0.075,-0.597 0.075,-1.046 0,-0.448 -0.149,-0.523 -0.225,-0.374 -0.299,-0.522 -0.672,-2.316 -0.224,-0.672 -0.673,-1.793 -0.074,-0.747 0,-0.299 0.149,-0.299 0.224,-0.448 0.821,-1.644 0.149,-0.747 0.075,-0.299 0,-0.672 -0.149,-0.224 -0.225,-0.224 -0.971,-0.374 -0.672,-0.299 -0.424,-0.599 -0.374,-0.448 -0.224,-0.597 0,-1.195 0.074,-1.195 0,-0.224 0.299,-0.224 0.448,-0.448 0.598,-0.374 0.448,-0.374 0.821,-0.374 0.673,-0.374 0.672,-0.448 0,-0.374 -0.074,-0.821 -0.075,-0.672 -0.074,-0.822 -0.299,-0.896 -0.075,-1.27 -0.074,-0.523 -0.225,-0.747 -0.448,-1.494 -0.149,-0.299 -0.298,-0.448 -0.896,-0.747 -0.896,-0.747 -1.867,-1.27 -0.673,-0.448 -0.448,-0.598 -0.672,-0.747 -0.448,-0.598 -0.747,-1.195 -0.522,-1.345 -0.673,-0.971 -0.448,-0.822 -1.194,-1.195 -0.075,-0.747 -0.149,-1.27 -0.074,-0.896 -1.494,-0.821 -1.793,0 -1.494,-0.224 -3.286,-0.896 -1.718,-3.063 -5.08,-4.706 -0.597,-1.12 -0.972,-1.868 -1.419,-2.315 -0.598,-0.672 -1.195,-0.896 -1.792,-4.034 0.597,-1.867 0.598,-1.121 0.299,-0.374 0.374,-1.121 0,-0.597 0,-0.896 0.074,-0.598 0.075,-0.448 -0.075,-0.374 -0.522,-1.718 -0.075,-0.747 0,-0.598 0.149,-0.448 0.075,-0.448 0.149,-0.672 0.373,-1.345 0.149,-0.299 0.075,-0.448 -0.075,-0.523 0,-0.448 -0.074,-0.224 -0.149,-0.299 -0.075,-0.149 -0.149,-0.149 -0.299,-0.672 -0.074,-0.224 -0.075,-0.448 0,-0.373 0,-0.374 0.075,-0.374 0.149,-0.374 0.074,-0.374 0.374,-0.448 0.373,-0.523 0.225,-0.672 0.373,-0.822 0.075,-0.299 0.074,-0.448 0,-0.523 -0.149,-0.672 -0.074,-0.373 0.149,-0.598 0.299,-0.747 0.373,-0.598 0.224,-0.374 0.374,-0.448 -0.225,-0.672 -0.821,-0.598 -0.747,-0.448 -1.345,-0.672 -0.747,-0.598 -0.522,-0.597 -0.149,-1.195 0.225,-1.121 0.149,-0.597 0.224,-0.299 0.522,-0.672 0.747,-1.195 0.299,-0.747 0.075,-0.373 -0.075,-0.448 -0.299,-0.299 -0.522,-0.598 -1.12,-1.121 -0.374,-0.747 -0.448,-0.896 -0.299,-0.822 -0.373,-1.12 -0.149,-0.523 0.299,-0.374 -0.075,-0.224 -0.224,-1.27 -0.448,-1.494 -0.149,-0.672 0.074,-0.598 0.374,-1.195 0.074,-1.718 0.149,-0.523 0.299,-1.643 0.149,-0.672 0,-0.822 -0.149,-0.597 -0.149,-0.598 -0.224,-0.523 -0.225,-0.672 0.075,-0.374 0.224,-0.448 0.299,-0.298 -0.074,-0.225 -0.299,-0.298 -0.299,-0.224 -0.374,-0.149 -0.373,-0.448 -0.448,-0.747 -0.149,-0.598 -0.074,-0.522 -0.149,-0.224 -0.149,-0.149 -0.299,-0.224 -0.448,-0.822 -0.299,-0.896 -0.598,-1.27 -0.149,-0.224 0,-0.448 -0.225,-0.822 -0.074,-0.374 -0.149,-0.374 -0.074,-0.298 0,-0.448 0.148,-0.299 0.225,-0.374 0,-0.374 0.074,-0.299 0,-0.448 -0.149,-0.523 -0.149,-0.672 -0.447,-0.672 -0.523,-1.121 -0.598,-0.822 -1.494,-0.971 -0.149,-0.299 -0.447,0.149 -0.523,0.224 -0.971,0.224 -0.225,-0.822 -0.149,-0.448 159.325,-3.81 39.663,-0.971 0.225,-0.224 0.373,-0.149 0.822,-1.046 2.688,-0.299 4.332,-0.523 2.167,-0.299 1.643,-1.344 1.046,-1.195 0.374,-1.12 1.941,0.448 7.693,-6.722 0.972,-0.896 2.614,-0.822 0.672,-0.374 1.195,-0.523 1.345,-0.448 3.137,-1.718 3.287,-1.419 2.913,-0.821 0.448,-0.075 4.332,-0.747 2.839,-0.523 0.747,0 0.149,0 0.373,-0.075 0.672,-0.149 0.598,-0.075 0.448,-0.149 0.374,-0.075 0.224,-0.075 0.374,0 0.224,0 1.195,-0.373 1.195,-0.299 0.299,-0.075 0.746,-0.149 0.448,-0.075 0.149,0 0.598,-0.149 2.465,-0.448 2.092,-0.149 0.896,-0.075 2.166,-0.075 9.785,-0.747 0.448,-0.075 0.074,0.448 0.822,-0.149 1.419,0.523 1.046,0.448 2.092,1.419 3.884,2.316 3.286,1.718 1.569,0.822 1.27,0 2.166,0.075 0.747,-0.075 1.644,0.224 1.12,0.523 0.971,0.672 2.391,3.063 0.074,0.896 1.046,1.644 2.017,2.091 2.316,0.075 1.27,0.598 1.27,0.523 2.166,0.374 0.448,0.149 -0.149,0.672 0.598,1.27 1.195,1.494 0.971,1.27 0.374,2.614 2.913,1.942 0.598,0.747 2.688,2.764 1.345,2.167 1.345,1.27 2.092,1.494 2.539,1.568 1.942,2.465 3.286,3.361 0.299,0.896 -0.747,2.838 1.569,2.017 0.074,0.448 -0.747,1.718 -0.074,0.896 1.12,1.121 0.522,0.598 0.523,1.792 1.942,0.822 0.365,-0.295 z"
       inkscape:connector-curvature="0"
       class="DEP_08 ZON_03" /></g></svg>