<?xml version="1.0" encoding="UTF-8" standalone="no"?>
<!-- Generator: Adobe Illustrator 16.0.0, SVG Export Plug-In . SVG Version: 6.00 Build 0)  -->

<svg
   xmlns:dc="http://purl.org/dc/elements/1.1/"
   xmlns:cc="http://creativecommons.org/ns#"
   xmlns:rdf="http://www.w3.org/1999/02/22-rdf-syntax-ns#"
   xmlns:svg="http://www.w3.org/2000/svg"
   xmlns="http://www.w3.org/2000/svg"
   xmlns:sodipodi="http://sodipodi.sourceforge.net/DTD/sodipodi-0.dtd"
   xmlns:inkscape="http://www.inkscape.org/namespaces/inkscape"
   version="1.1"
   id="SvgMunicipio"
   x="0px"
   y="0px"
   width="385.481px"
   height="1000.008px"
   viewBox="64.687 118.263 385.481 1000.008"
   enable-background="new 64.687 118.263 385.481 1000.008"
   xml:space="preserve"
   inkscape:version="0.91 r13725"
   sodipodi:docname="MUN_ID0815.svg"><metadata
     id="metadata10"><rdf:RDF><cc:Work
         rdf:about=""><dc:format>image/svg+xml</dc:format><dc:type
           rdf:resource="http://purl.org/dc/dcmitype/StillImage" /></cc:Work></rdf:RDF></metadata><defs
     id="defs8" /><sodipodi:namedview
     pagecolor="#ffffff"
     bordercolor="#666666"
     borderopacity="1"
     objecttolerance="10"
     gridtolerance="10"
     guidetolerance="10"
     inkscape:pageopacity="0"
     inkscape:pageshadow="2"
     inkscape:window-width="682"
     inkscape:window-height="480"
     id="namedview6"
     showgrid="false"
     inkscape:zoom="0.23599811"
     inkscape:cx="192.74049"
     inkscape:cy="500.004"
     inkscape:window-x="0"
     inkscape:window-y="0"
     inkscape:window-maximized="0"
     inkscape:current-layer="svg" /><g
     id="g3"><path
       id="MUN_0815"
       d="m 440.03,271.789 0.563,1.173 0.376,0.704 1.267,2.253 1.268,1.549 0,0 2.112,2.206 0,0 2.3,2.347 0,0 0.892,2.253 0.047,0.047 0.423,3.239 0,0 0.234,2.675 0,0 0.423,2.112 0,0 0.234,2.159 0,0 -0.141,0.61 0,0 -0.094,0.423 0,0.047 -1.361,0.985 0,0 -1.455,0.704 0,0.047 -0.938,1.784 0,0 -1.033,3.098 0,0.047 -0.047,3.567 -0.094,3.661 0,0 -0.376,3.379 0,0 0.142,2.628 0,0 -0.047,1.69 0,0 0.188,2.816 0,0 -0.141,1.455 0,0 -0.047,1.596 0,0 -0.329,1.877 0,0 -0.141,0.751 -0.188,1.361 0,0.047 -0.938,1.549 0,0 -0.329,1.502 0,0 -0.281,1.784 0,0.047 -0.657,1.736 0,0 -0.517,1.221 0,0 -1.361,2.675 0,0 -1.36,2.065 0,0 -0.61,1.173 0,0.047 -0.563,1.361 0,0 -0.845,1.361 0,0 -0.61,1.314 0,0 -0.188,1.314 0,0 -0.234,1.736 0,0 -0.939,1.737 0,0 -0.234,1.502 0,0 -0.281,1.502 0,0 -0.376,2.347 0,0 -0.234,1.267 0,0 -0.376,0.939 0,0 -0.609,2.44 0.656,1.361 -74.252,-25.956 -37.548,-2.91 -30.367,-2.394 -29.616,9.012 -17.272,5.257 -0.188,0.141 -0.047,0.141 0,0.234 -0.047,0.188 0,0.281 -0.047,0.282 -0.142,0.563 -0.094,0.329 -0.094,0.563 -0.047,0.235 -0.047,0.563 -0.047,0.563 0,0.375 0,0.657 0,0.375 0.047,0.375 0.141,1.08 0.047,0.375 0,0.422 0,0.329 -0.094,0.422 -0.047,0.61 -0.094,0.516 -0.047,0.329 -0.141,0.657 -0.094,0.798 -0.095,0.798 -0.141,0.845 -0.094,0.704 -0.094,0.845 -0.094,0.423 0,0.328 0,0.141 0,0.141 0.047,0.094 0.047,0.141 0.234,0.188 0.47,0.517 0.375,0.328 0.423,0.47 0.47,0.704 0.375,0.469 0.188,0.329 0.047,0.141 0.047,0.094 -0.047,0.141 0,0.281 -0.047,0.329 -0.047,0.704 -0.094,0.329 -0.141,0.516 -0.141,0.47 -0.751,1.455 -0.188,0.329 -0.376,0.751 -0.61,1.268 -0.234,1.502 -0.047,0.985 -0.047,0.61 0,0.234 0,0.282 0.047,0.892 0.047,0.985 0.047,0.845 0.047,0.375 0.047,0.798 0.047,0.422 -0.047,0.375 -0.094,0.516 -0.188,0.938 -0.282,1.268 -0.141,0.751 -0.094,0.563 -0.047,0.282 0.047,0.704 0.094,0.938 0.047,0.798 -1.173,0.188 0,0.235 0,0.892 -0.939,-0.047 -0.094,0.094 -0.141,0.282 -0.141,0.329 -0.376,-0.094 -3.145,-0.328 -4.364,-0.423 0.141,-2.159 -5.68,-0.845 -7.697,-1.173 -1.314,-0.516 -0.281,0.329 -0.423,0.422 -0.281,0.516 -0.094,0.657 0,0.516 0.141,0.657 0.329,0.657 0.609,0.985 0.986,1.268 0.469,0.563 0.47,0.375 0.469,0.282 0.423,0.188 0.376,0.234 0.281,0.235 0.047,0.282 -0.141,0.281 -0.235,0.282 -0.281,0.329 -0.047,0.375 -0.141,0.469 -0.234,0.329 -0.142,0.329 0,0.329 0.235,0.422 0.328,0.469 0.376,0.657 0.281,0.329 0.281,0.234 0.329,0.235 0.422,0.094 0.235,0.047 0.188,0.235 0.188,0.282 0.329,0.234 0.469,0.094 0.423,0.141 0.328,0.235 0.235,0.234 0.047,0.141 0,0.141 -0.047,0.235 0,0.328 -0.048,0.422 0.048,0.423 0,0.328 -0.048,0.423 -0.141,0.375 -0.141,0.329 -0.234,0.281 -0.282,0.376 -0.234,0.188 -0.188,0.188 -0.047,0.281 0,0.47 -0.094,0.281 -0.142,0.282 -0.141,0.375 -0.047,0.282 -0.047,0.188 0.094,0.234 0.329,0.094 0.422,0.095 0.47,0.141 0.563,0.141 0.422,0.141 0.329,0.141 0.188,0.094 0.234,0.282 0.329,0.141 0.422,0.141 0.423,0.281 0.422,0.188 0.376,0.094 0.516,0.094 0.751,0.094 0.61,0.094 0.376,0.047 0.328,0.188 0.094,0.141 0.094,0.281 0.047,0.281 0,0.235 -0.188,0.281 -0.234,0.329 -0.188,0.188 -0.235,0.234 -0.047,0.234 -0.047,0.376 -0.094,0.234 -0.047,0.282 -0.141,0.375 -0.141,0.376 -0.141,0.422 -0.142,0.423 -0.094,0.281 0.047,0.376 0.235,0.234 0.094,0.141 0,0.423 -0.047,0.234 0.141,0.517 0.141,0.422 0.047,0.282 0.141,0.234 0.188,0.234 0.188,0.047 0.234,-0.047 0.141,-0.141 0.141,-0.234 0.047,-0.282 0,-0.375 0,-0.282 0,-0.375 0.188,-0.375 0.188,-0.188 0.188,-0.234 0.235,-0.141 0.281,-0.094 0.047,0.094 0,0.234 0.188,0.188 0.517,0.188 0.422,0.188 0.423,0.141 0.423,0.234 0.281,0.235 0.188,0.281 0.376,0.328 0.328,0.188 0.423,0.328 0.281,0.281 0.141,0.095 -0.188,0.281 -0.141,0.141 0.047,0.188 0.141,0.329 0.234,0.328 0.142,0.329 0,0.516 0.047,0.095 0,0.328 0.047,0.375 -0.141,0.61 -0.188,0.376 -0.328,0.375 -0.423,0.423 -0.422,0.328 -0.563,0.188 -0.234,0.188 -0.142,0.234 -0.047,0.281 0,0.235 0.095,0.328 0.188,0.329 0.047,0 0.188,0.281 0.517,0.281 0.328,0.094 0.517,0.188 0.234,0.234 0.423,0.188 0.422,0.141 0.751,0.235 0.517,0.328 0.281,0.234 0.423,0.282 0.141,0.281 0.281,0.423 0.142,0.469 0.094,0.517 0.234,0.704 0.047,0.563 0.094,0.563 0.094,0.703 0.047,0.423 -0.047,0.423 -0.094,0.469 -0.094,0.61 -0.141,0.563 -0.094,0.516 -0.047,0.47 0.047,0.423 0.234,0.281 0.61,0.517 0.375,0.422 0.47,0.517 0.141,0.422 0.282,0.61 0.141,0.704 0.141,0.657 0.234,0.657 0.141,0.61 0.142,0.938 0,0.47 0.047,0.516 0.047,0.517 0,0.422 -0.094,0.142 -0.142,0.094 -0.188,0.188 -0.094,0.281 0,0.376 -0.047,0.328 0,0.423 0,0 0.094,0.328 0.094,0.235 0.047,0.422 -0.047,0.376 -0.141,0.516 -0.234,0.376 -0.329,0.375 -0.281,0.235 -0.281,0.375 -0.282,0.376 -0.281,0.375 -0.188,0.234 -0.142,0.329 0,0.281 -0.094,0.563 0.094,0.423 0.095,0.469 0.234,0.329 0.234,0.141 0.423,0.188 0.563,0.047 0.328,-0.047 0.47,-0.281 0.375,-0.61 1.549,-0.798 0.938,1.971 -0.047,1.597 -0.094,1.267 -0.422,0.798 0,1.737 -0.047,0.422 -0.095,0.47 -0.188,0.516 -1.502,1.455 -0.892,0.657 -0.375,0.376 -0.048,1.596 0.048,0.892 0.141,0.281 0.281,0.188 0.234,0.234 0.282,0.188 0.281,0.141 0.188,0.142 0.188,0.281 0,0.281 -0.188,0.188 -0.141,0.141 0.234,0.234 0.188,0.328 0.094,0.329 0.047,0.281 0,0.376 0.047,0.375 -0.094,0.282 0,0.422 -0.141,0.329 -0.188,0.328 -0.234,0.329 -0.375,0.328 -0.47,0.281 -0.61,0.141 -0.375,0.188 -0.423,0.281 -0.422,0.234 -0.376,0.235 -0.281,0.141 -0.282,0.234 -0.328,0.282 -0.188,0.281 -0.047,0.281 0.094,0.329 0.141,0.281 0.328,0.188 0.329,0.329 0.422,0.375 0.329,0.423 0.328,0.422 0.188,0.376 0,0.281 0,0.282 -0.188,0.094 -0.188,0 -0.234,0 -0.235,0.094 -0.234,0.094 -0.188,0.188 0,0.329 0,0.328 -0.047,0.423 -0.047,0.422 -0.142,0.47 -0.094,0.563 -0.094,0.563 -0.047,0.517 -0.047,0.517 -0.094,0.375 0.094,0.423 0,0.188 -0.141,0.47 -0.281,0.516 -0.376,0.563 -0.281,0.563 -0.329,0.657 -0.094,0.563 -0.141,0.329 -0.234,0.375 -0.188,0.376 -0.047,0.328 0,0.329 0,0.188 0.094,0.188 0.188,0.047 0.234,0.047 0.423,-0.094 0.422,-0.188 0.563,-0.141 0.328,-0.188 0.329,0 0.141,0.141 0.188,0.188 0.188,0.375 0.47,0.563 0.376,0.329 0.469,0.375 0.423,0.47 0.422,0.328 0.423,0.423 0.328,0.328 0.329,0.329 0.469,0.469 0.423,0.282 0.657,0.234 0.469,0.094 0.376,0.094 0.422,0.094 0.423,0 0.423,0 0.328,0.142 0.188,0.094 0.141,0.188 0.142,0.234 0,0.329 0.047,0.375 0.094,0.188 0.281,0.235 0.517,0.188 0.516,0.375 0.47,0.329 0.329,0.188 0.328,0.376 0.188,0.469 0,0.376 0,0.375 0,0.282 -0.094,0.281 -0.094,0.234 -0.141,0.094 -0.282,0.047 -0.141,0.095 -0.141,0.094 -0.188,0.375 -0.235,0.376 -0.281,0.469 -0.234,0.235 -0.235,0.141 -0.234,0 -0.188,-0.188 -0.047,-0.188 -0.141,-0.234 -0.282,-0.141 -0.375,-0.188 -0.47,-0.235 -0.469,-0.328 -0.517,-0.234 -0.376,-0.095 -0.563,-0.047 -0.423,0.094 -0.375,0.282 -0.282,0.328 -0.047,0.376 0,0.516 0.188,0.329 0.188,0.141 0.141,0.328 0.188,0.282 0.047,0.234 0,0.141 -0.234,0.235 -0.376,0.141 -0.375,0.188 -0.423,0.141 -0.563,0.282 -0.329,0.234 -0.188,0.281 -0.329,0.329 -0.141,0.234 -0.094,0.281 -0.094,0.282 0.094,0.188 0.094,0.141 0,0.188 0.047,0.328 0.142,0.375 0.188,0.282 0.281,0.328 0.281,0.282 0.282,0.281 0.281,0.423 0.235,0.375 0.234,0.376 0.094,0.328 0.141,0.234 0.188,0.329 0.282,0.328 0.375,0.329 0.235,0.281 0.234,0.281 0.141,0.235 0.047,0.234 0.047,0.375 -0.047,0.47 -0.094,0.563 -0.234,0.563 -0.282,0.281 -0.375,0.47 -0.423,0.422 -0.328,0.329 -0.47,0.516 -0.328,0.423 -0.376,0.563 -0.141,0.563 -0.094,0.423 -0.188,0.563 -0.188,0.469 0,0.47 -0.048,0.469 0,0.47 0.048,0.517 -0.048,0.469 -0.047,0.329 -0.094,0.281 -0.094,0.329 -0.328,0.234 -0.517,-0.141 -0.375,-0.47 -0.563,-0.47 -0.47,-0.375 -0.422,-0.188 -0.47,-0.282 -0.517,-0.094 -0.375,0.094 -0.376,0.282 -0.328,0.422 -0.188,0.376 -0.094,0.422 0,0.329 0.094,0.563 0.094,0.234 0.141,0.516 0.047,0.282 0.047,0.47 0.094,0.422 0.141,0.47 0.329,0.422 0.328,0.141 0.423,0.048 0.328,0.047 0.329,0.047 0.141,0.188 0,0.141 -0.188,0.328 -0.142,0.142 -0.281,0.094 -0.234,0.094 -0.376,0 -0.328,0.047 -0.376,0 -0.047,0.234 0.047,0.329 0.094,0.234 0.142,0.188 0.141,0.329 0.094,0.375 0.141,0.329 0.329,0.422 0.094,0.282 0.281,0.422 0.047,0.423 0.094,0.469 0.188,0.423 0.329,0.563 0.188,0.328 0.234,0.376 0.235,0.609 0.047,0.376 0.094,0.375 0.094,0.423 0.047,0.517 0.047,0.422 0.141,0.423 0.047,0.328 0.235,0.47 0.094,0.516 0.422,0.563 0.188,0.47 0.281,0.422 0.423,0.517 0.375,0.517 0.376,0.469 0.281,0.282 0.094,0.141 0.047,0.094 0,0.141 -0.141,0.141 0,0.235 0,0.234 0,0.328 0.094,0.235 0.141,0.328 0.047,0.329 -0.094,0.563 -0.094,0.704 -0.094,0.704 -0.047,0.845 -0.234,0.61 -0.423,0.47 -0.422,0.657 -0.376,0.609 -0.234,0.329 -0.094,0.517 -0.047,0.516 0.047,0.517 0.094,0.422 0.141,0.376 0.141,0.188 0.141,0.376 0.047,0.281 0.142,0.563 0.047,0.516 0.047,0.47 0.141,0.376 0.141,0.516 0.281,0.329 0.188,0.469 0.422,0.423 0.376,0.234 0.234,0.094 0.094,0.282 0,0.281 0.094,0.423 0.141,0.516 0.095,0.563 0.141,0.517 0.375,0.516 0.235,0.657 0.469,0.61 0.329,0.47 0.422,0.422 0.938,0.939 0.563,0.422 0.61,0.234 0.563,0.235 0.609,0.094 0.517,0 0.47,0 0.563,-0.047 0.375,0.047 0.61,0.234 0.704,0.281 0.61,0.282 0.375,0.281 0.376,0.376 0.234,0.281 0.188,0.329 0.141,0.328 -0.047,0.234 -0.047,0.188 -0.047,0.281 -0.188,0.141 -0.282,0.234 -0.328,0.423 -0.234,0.234 -0.329,0.517 -0.094,0.47 -0.094,0.469 -0.047,0.376 0,0.422 0.094,0.141 0.329,0 0.188,-0.094 0.422,0 0.47,0.047 0.47,0.047 0.516,0.188 0.563,0.375 0.517,0.282 0.516,0.328 0.517,0.47 0.234,0.281 0.47,0.517 0.281,0.281 0.235,0.47 0.234,0.234 0.234,0.234 0.282,0.094 0.328,0 0.563,0.047 0.328,0 0.376,0 0.469,0.188 0.235,0.188 0.422,0.328 0.329,0.095 0.704,0.188 0.563,0.188 0.423,0.188 0.423,0.282 0.281,0.188 0.798,0.375 1.596,0.61 0.892,0.376 0.798,0.281 0.751,0.281 0.517,0.235 1.173,1.032 0.61,0.563 0.235,0.234 0.375,0.563 0.234,0.517 0.142,0.469 0.047,0.235 0.047,1.454 -1.127,1.221 -1.079,1.032 -1.736,1.502 -0.188,1.08 -1.361,1.83 -1.736,2.065 -2.581,3.802 -1.596,3.896 -1.69,5.069 -1.22,4.553 -0.329,1.83 -0.188,1.972 -0.141,2.487 0.423,1.033 0.234,2.722 -0.188,4.271 0.141,3.285 0.328,2.253 0.423,1.314 0.469,1.22 0.61,0.893 0.798,0.798 1.033,0.751 0.798,0.375 1.126,0.234 1.221,0.095 1.22,0 1.455,-0.095 0.892,-0.234 1.878,-1.032 4.318,-3.99 1.173,-0.234 0.751,0.188 1.361,0.939 0.751,0.704 0.328,0.845 -0.047,0.657 -0.609,1.971 -0.61,1.643 -0.61,1.408 -0.61,0.751 -1.221,1.314 -1.079,1.549 -1.173,1.83 -1.455,1.549 -1.268,1.972 -0.657,2.206 -0.141,1.549 0.094,0.985 0.047,1.221 -0.047,1.126 -0.188,1.831 -0.188,1.83 -0.656,2.206 -0.517,1.455 -0.423,0.985 -0.422,0.845 -0.657,0.751 -1.127,1.127 -0.985,0.798 -2.159,2.065 -1.22,1.126 -1.314,1.737 -0.657,1.267 -0.892,1.925 -0.234,0.845 -0.329,1.361 -0.563,2.628 -0.375,2.206 -0.328,4.834 -0.095,2.441 0.423,3.379 0.704,4.225 -0.094,1.173 -0.329,1.268 -0.892,1.079 -1.361,1.08 -0.563,0.563 -0.142,0.798 0.188,3.145 0.422,0.798 1.08,0.798 1.408,0.892 2.205,0.517 1.831,0.234 2.112,-0.094 1.173,0.047 0.845,0.234 0.798,0.423 0.563,0.751 0.47,0.845 0.141,1.126 0.188,2.77 -0.141,1.314 -0.281,1.173 -0.329,0.939 -0.61,0.751 -1.643,2.018 -1.173,0.751 -0.986,0.704 -0.751,1.408 0.142,1.877 0.609,1.644 1.502,1.924 1.784,1.314 1.643,1.032 1.971,1.221 1.268,1.455 0.47,2.112 -0.188,2.347 -0.188,1.455 -0.375,1.173 -0.657,2.582 -1.032,1.877 -1.455,0.938 -2.112,1.08 -3.474,0.657 -2.347,0.234 -3.849,-0.47 -1.925,-0.422 -1.549,-0.235 -1.877,-0.188 -1.596,0 -1.736,0.282 -0.704,0.422 -0.423,0.376 -0.798,0.938 2.019,1.455 -1.361,2.159 -0.376,3.426 1.174,2.629 3.989,1.783 6.712,0 4.834,0.563 3.99,0.094 2.769,1.455 0.939,-1.08 1.596,-5.679 0.375,-3.661 7.135,1.174 7.181,1.126 4.74,0.751 3.051,0.563 1.221,0.188 0.704,0.094 0.141,0.798 0.094,0.61 0.047,0.094 0.094,0.751 0.799,1.831 0.798,1.736 0.751,-0.234 1.643,-0.61 0.751,-0.235 3.238,-0.047 0.188,0.047 0.235,0 0.845,0 1.313,0.047 0.47,0 0.892,-0.047 1.268,0 1.032,-0.047 1.783,-0.188 0.845,-0.094 1.08,-0.281 1.408,-0.423 0.798,-0.328 1.126,-0.47 0.986,-0.563 1.126,-0.657 1.783,-0.938 0.563,-0.281 0.517,-0.282 0.751,-0.375 0.61,-0.281 0.609,-0.188 0.893,-0.516 1.877,-0.986 2.77,-1.455 1.549,-0.751 0.094,-0.047 1.079,-0.422 3.38,-1.221 1.455,-0.328 2.064,0 0.986,0.047 0.094,0.047 0.751,0.047 0.704,0.188 0.892,0.282 1.643,0.751 0.704,0.281 1.221,0.422 1.22,0.423 1.596,0.563 1.408,0.516 0.517,0.142 2.957,0.985 1.079,0.281 1.596,0.235 1.597,0.281 2.111,0.563 2.019,0.61 2.863,0.798 2.863,0.798 3.238,0.892 4.693,4.177 0.985,0.893 1.033,0.938 0.845,0.704 0.704,0.657 0.751,0.609 1.079,0.986 1.08,0.985 0.892,0.751 1.455,1.314 1.502,1.267 0.704,0.563 0.563,0.517 1.033,0.845 1.22,1.173 3.521,3.099 1.877,1.596 1.831,1.549 0.188,0.141 0.845,0.751 2.065,1.736 0.094,0.094 3.989,3.427 3.004,2.534 3.098,2.629 3.943,3.285 0.751,0.61 0.094,0.657 1.22,6.008 0.61,2.862 -0.047,4.037 -0.938,9.105 -0.657,5.538 -1.314,13.377 -0.094,1.032 -0.094,0.704 -0.047,0.892 -0.047,0.657 -0.094,0.704 -0.047,0.61 -0.329,2.769 -0.328,2.723 -0.234,0.141 0.188,0.704 0.047,0.094 0.141,0.517 0.094,0.517 0.281,0.704 0,0.047 0.095,0.234 0.047,0.047 -0.094,0.047 -0.751,0 -0.142,0.47 -0.094,1.126 -0.094,0.751 -0.047,0.798 -0.094,0.798 0,0.047 -0.094,0.892 -0.141,1.408 -0.047,0.423 0,0.094 -0.095,0.657 0,0.141 -0.047,0.234 0,0.986 -0.047,0.281 -0.094,0.61 -0.047,0.281 -0.047,0.61 -0.047,0.141 0,0.188 -0.047,0.61 -0.047,0.376 0,0.188 0,0.234 -0.047,0.329 -0.047,0.469 -0.047,0.235 -0.047,0.469 -0.047,0.282 -0.047,0.704 -0.048,0.516 -0.094,0.47 1.314,0.047 1.455,0.094 1.361,0 1.079,0 0.751,-0.094 0.423,-0.047 0.469,-0.376 -31.634,65.757 -0.188,-0.094 -0.328,-0.047 -2.91,-0.094 -6.477,-0.047 -5.21,0.094 -1.268,-0.047 -5.21,-0.376 -2.816,-0.188 -2.206,-0.141 -3.379,-0.234 -5.961,0.469 0.61,9.435 0.328,7.087 0.329,6.478 0.281,4.834 0.423,8.542 0.328,6.571 0.094,4.976 0.094,3.942 0.423,5.444 0.188,4.178 0.329,3.896 0.516,8.401 0.282,4.928 0.234,4.318 0.328,9.481 0.282,5.068 0.141,4.131 2.3,12.484 0.281,1.033 1.127,4.224 -5.773,3.942 -2.487,-0.657 -0.517,0.939 -0.188,2.862 0.423,0.329 -0.563,0.892 -0.282,-0.094 -1.689,1.972 1.08,0.892 0.704,-0.657 2.675,2.722 -4.412,3.146 -1.267,0.141 -2.863,1.924 -0.282,0.892 -1.783,1.127 0.845,1.83 0,2.112 -1.643,5.961 -5.022,1.174 -5.021,0.892 -1.08,-0.563 -3.942,-3.145 -1.22,1.079 -0.517,2.488 -0.376,0.845 -2.769,3.802 -2.488,2.957 2.863,0.563 2.347,0.893 0.939,0 0.469,-0.376 0.938,1.221 2.77,1.36 -0.845,2.301 0.281,0.469 -1.596,5.491 -5.351,8.261 -0.094,0.094 -0.188,0.798 -4.506,8.73 -0.234,0.517 -1.08,2.862 -1.079,2.91 -18.305,-7.04 -26.472,-10.232 -11.593,-4.458 -3.521,-1.408 -1.08,-0.47 -1.032,-0.422 -0.375,-0.188 -1.408,-0.563 -1.033,-0.329 -0.234,-0.047 -0.423,-0.094 -1.079,-0.234 -0.375,-0.142 -0.235,-0.047 -2.064,-0.751 -0.751,-0.375 -0.376,-0.188 -1.221,-0.376 -0.985,-0.375 -0.188,-0.047 -0.188,-0.142 -0.235,-0.141 -0.328,-0.234 -0.188,-0.094 -0.142,-0.141 -0.422,-0.094 -0.657,-0.188 -0.188,-0.047 -0.563,-0.281 -0.188,-0.094 -0.423,-0.047 -0.188,-0.095 -0.234,-0.094 -0.751,-0.422 -0.376,-0.188 -0.61,-0.282 -0.845,-0.234 -0.563,-0.234 -0.235,-0.095 -0.188,-0.047 -0.657,-0.141 -0.188,-0.047 -0.234,-0.094 -1.174,-0.517 -0.234,-0.047 -0.188,-0.047 -0.656,-0.094 -0.47,-0.094 -0.141,-0.047 -0.188,-0.094 -0.376,-0.282 -0.188,-0.047 -1.737,-0.422 -0.188,-0.094 -0.61,-0.235 -0.422,-0.188 -0.141,-0.094 -0.61,-0.281 -0.563,-0.329 -0.375,-0.141 -0.235,-0.141 -0.516,-0.329 -0.657,-0.563 -0.657,-0.517 -0.329,-0.234 -0.422,-0.188 -0.141,-0.094 -0.47,-0.141 -0.422,-0.094 -0.657,-0.141 -1.925,-0.329 -0.422,-0.141 -0.235,-0.141 -0.188,-0.141 -0.141,-0.188 -0.141,-0.188 -0.188,-0.328 -0.188,-0.188 -0.141,-0.095 -0.188,-0.141 -0.188,-0.047 -0.281,-0.047 -1.221,-0.141 -0.422,-0.047 -0.376,-0.188 -0.234,-0.094 -0.563,-0.329 -0.375,-0.234 -0.188,-0.141 -0.142,-0.142 -0.094,-0.188 -0.188,-0.141 -0.141,-0.141 -0.188,-0.141 -0.188,-0.047 -0.188,-0.047 -0.234,0.047 -0.234,0.047 -0.142,0.047 -0.234,0 -0.61,-0.282 -0.234,-0.094 -0.234,-0.047 -0.423,-0.047 -0.188,0 -0.657,-0.188 -0.234,-0.094 -0.423,-0.188 -0.328,-0.234 -0.329,-0.281 -0.657,-0.517 -0.234,-0.141 -0.375,-0.234 -0.423,-0.235 -0.328,-0.188 -0.563,-0.423 -0.188,-0.094 -0.188,-0.141 -0.188,-0.094 -0.188,-0.094 -0.235,-0.047 -0.234,0 -0.422,-0.047 -0.423,-0.047 -0.47,-0.141 -0.188,-0.048 -0.61,-0.328 -0.188,-0.094 -0.422,-0.047 -0.235,-0.047 -0.422,-0.188 -0.563,-0.235 -0.47,-0.141 -0.375,-0.188 -0.985,-0.376 -0.751,-0.234 -0.235,-0.047 -0.375,-0.188 -0.704,-0.704 -0.563,-0.329 -0.141,-0.094 -0.234,-0.047 -1.033,-0.281 -0.234,-0.047 -0.423,-0.047 -0.234,-0.047 -0.657,-0.188 -0.563,-0.188 -0.985,-0.517 -0.234,-0.094 -0.423,-0.188 -0.375,-0.141 -0.798,-0.376 -0.376,-0.141 -0.61,-0.281 -0.845,-0.329 -0.188,-0.047 -0.563,-0.328 -0.563,-0.282 -0.188,-0.094 -0.375,-0.234 -0.61,-0.281 -0.845,-0.517 -0.141,-0.094 -0.423,-0.094 -0.657,-0.188 -0.422,-0.095 -0.423,-0.188 -0.517,-0.422 -0.516,-0.282 -0.376,-0.188 -0.188,-0.094 -0.375,-0.141 -0.235,-0.047 -0.657,-0.047 -0.234,-0.095 -0.141,-0.094 -0.61,-0.375 -0.141,-0.094 -0.751,-0.423 -1.174,-0.47 -0.422,-0.188 -0.329,-0.234 -0.375,-0.234 -0.423,-0.188 -0.751,-0.375 -0.375,-0.141 -1.221,-0.47 -0.563,-0.328 -0.609,-0.188 -1.221,-0.516 -0.657,-0.282 -0.563,-0.234 -0.422,-0.234 -0.188,-0.141 -0.142,-0.142 -0.422,-0.234 -0.517,-0.281 -0.422,-0.188 -0.798,-0.422 -0.376,-0.188 -0.985,-0.329 -0.798,-0.422 -0.61,-0.329 -0.376,-0.188 -0.469,-0.094 -0.798,-0.235 -0.235,-0.094 -0.188,-0.094 -0.751,-0.422 -0.422,-0.188 -1.221,-0.422 -0.61,-0.188 -0.516,-0.329 -0.329,-0.234 -0.141,-0.141 -0.234,-0.094 -0.188,-0.047 -0.563,-0.282 -1.033,-0.657 -0.422,-0.188 -0.61,-0.281 -0.376,-0.188 -0.188,-0.141 -0.188,-0.094 -0.141,-0.188 -0.282,-0.329 -0.188,-0.141 -0.188,-0.141 -0.234,-0.047 -0.798,-0.188 -0.188,-0.047 -1.032,-0.423 -1.268,-0.47 -0.985,-0.375 -0.657,-0.188 -0.423,-0.188 -0.141,-0.142 -0.188,-0.094 -0.328,-0.281 -0.094,-0.141 -0.188,-0.094 -0.234,-0.142 -0.798,-0.328 -0.376,-0.188 -0.422,-0.188 -1.361,-0.938 -0.234,-0.047 -0.188,-0.094 -0.563,-0.376 -0.751,-0.469 -0.563,-0.282 -0.751,-0.422 -0.751,-0.423 -0.798,-0.328 -0.985,-0.376 -0.61,-0.281 -0.376,-0.141 -0.234,-0.047 -0.328,-0.282 -0.517,-0.375 -0.188,-0.141 -0.939,-0.517 -0.375,-0.234 -0.188,-0.094 -0.423,-0.188 -0.845,-0.281 -0.375,-0.188 -0.61,-0.329 -1.08,-0.609 -0.609,-0.329 -0.893,-0.563 -1.079,-0.656 -0.61,-0.376 -0.938,-0.423 -0.798,-0.469 -0.61,-0.376 -0.234,-0.047 -0.563,-0.234 -0.376,-0.234 -0.563,-0.376 -1.033,-0.798 -0.141,-0.141 -0.234,-0.047 -0.563,-0.234 -0.798,-0.376 -0.375,-0.141 -0.563,-0.329 -0.657,-0.234 -0.188,-0.141 -0.376,-0.234 -0.657,-0.563 -0.188,-0.141 -0.188,-0.047 -0.376,-0.188 -0.845,-0.375 -0.375,-0.234 -0.61,-0.282 -0.47,-0.234 -0.188,-0.047 -0.423,-0.141 -0.422,-0.142 -0.188,-0.141 -0.563,-0.328 -0.234,-0.094 -0.751,-0.141 -0.235,-0.095 -0.188,-0.094 -0.517,-0.328 -0.234,-0.094 -0.751,-0.423 -0.141,-0.094 -0.61,-0.281 -0.422,-0.235 -0.142,-0.094 -0.422,-0.281 -0.188,-0.094 -0.376,-0.282 -0.328,-0.188 -1.361,-0.47 -0.563,-0.328 -0.188,-0.094 -1.033,-0.423 -0.516,-0.234 -0.798,-0.375 -0.141,-0.095 -0.846,-0.281 -0.375,-0.188 -0.188,-0.094 -0.376,-0.235 -0.375,-0.281 -0.329,-0.234 -0.563,-0.329 -0.657,-0.516 -0.142,-0.188 -0.094,-0.188 0,-0.328 -0.047,-0.188 -0.141,-0.188 -0.188,-0.141 -0.376,-0.188 -0.563,-0.329 -0.517,-0.328 -0.751,-0.423 -0.517,-0.328 -0.938,-0.704 -0.281,-0.234 -0.751,-0.517 -0.751,-0.47 -1.08,-0.657 -0.751,-0.422 -0.704,-0.517 -0.845,-0.328 -0.281,-0.141 -1.784,-0.986 -0.563,-0.234 -0.423,-0.188 -0.234,-0.141 -0.376,-0.235 -0.516,-0.375 -0.939,-0.657 -0.609,-0.563 -0.282,-0.375 -0.328,-0.282 -0.329,-0.328 -0.609,-0.423 -0.329,-0.234 -0.422,-0.234 -1.644,-0.704 -0.845,-0.423 -0.141,-0.141 -0.375,-0.281 -0.142,-0.142 -0.375,-0.469 -0.094,-0.047 -0.094,-0.047 -0.094,-0.094 -0.045,0 -0.142,-0.048 -0.094,-0.047 -0.094,-0.094 -0.094,-0.047 -0.094,-0.047 -0.094,-0.047 -0.094,-0.047 -0.095,-0.094 -0.094,-0.047 -0.094,-0.047 -0.094,-0.094 -0.094,-0.047 -0.047,-0.094 -0.094,-0.048 -0.141,-0.047 -0.095,-0.047 -0.094,-0.047 -0.094,-0.094 -0.094,0 -0.047,-0.047 -0.141,-0.047 -0.094,-0.094 -0.094,-0.047 -0.095,-0.047 -0.094,-0.047 -0.094,-0.094 -0.094,-0.047 -0.094,-0.048 -0.094,-0.094 -0.141,-0.047 -0.094,-0.047 -0.095,-0.047 -0.094,-0.047 -0.094,-0.094 -0.094,-0.047 -0.131,0 -0.094,0 -0.141,-0.047 -0.047,-0.047 -0.095,0 -0.141,-0.047 -0.094,0 -0.094,-0.047 -0.094,-0.047 -0.141,-0.047 -0.047,-0.048 -0.095,-0.047 -0.094,-0.094 -0.094,-0.047 -0.141,-0.047 -0.094,-0.047 -0.094,-0.047 -0.094,-0.047 -0.094,-0.047 -0.095,-0.047 -0.141,-0.047 -0.094,-0.047 -0.094,-0.047 -0.047,-0.047 -0.094,-0.047 -0.094,-0.048 -0.094,-0.094 -0.142,-0.047 -0.087,0 -0.094,-0.047 -0.047,-0.047 -0.234,-0.141 -0.094,-0.047 -0.095,-0.094 -0.094,-0.047 -0.047,-0.047 -0.047,-0.094 0,-0.095 0,-0.094 -0.094,-0.047 -0.094,-0.047 -0.094,-0.094 -0.141,0 -0.094,-0.047 -0.095,-0.047 -0.047,-0.047 -0.094,-0.047 -0.141,-0.047 -0.094,-0.047 -0.094,-0.047 -0.094,-0.047 -0.094,-0.048 -0.095,-0.047 -0.141,-0.047 -0.094,-0.047 -0.094,-0.047 -0.094,-0.094 -0.094,-0.047 -0.094,-0.047 -0.095,-0.047 -0.094,-0.047 -0.094,-0.047 -0.141,-0.094 -0.094,-0.047 -0.094,-0.047 -0.047,-0.047 -0.141,0 -0.047,-0.095 -0.095,-0.047 -0.094,-0.094 -0.047,-0.094 0,-0.094 -0.094,-0.047 -0.094,-0.094 -0.047,-0.047 -0.141,-0.047 -0.094,-0.047 -0.095,-0.047 -0.141,-0.095 -0.094,-0.047 -0.047,-0.094 -0.047,-0.094 0.845,-1.502 0.517,-0.657 0.657,-0.234 1.173,-0.281 1.361,0.281 0.704,0.657 1.408,0.704 1.736,1.502 3.051,1.455 1.925,1.736 1.83,1.643 0.234,0.141 2.395,1.502 1.924,1.878 3.051,1.596 1.174,-0.047 0.798,-0.141 1.361,0.188 0.328,0.094 0.423,0.188 0,0 1.783,0.798 2.581,1.361 2.394,1.221 1.878,1.971 1.079,-0.328 0.563,-0.704 0.751,-0.751 0.376,-0.517 0.094,-0.047 2.253,-2.112 0.985,-0.892 1.361,-1.079 0.798,-0.704 0.61,-0.61 0.234,-0.234 0.892,-0.657 0.845,-1.736 1.268,-1.69 0.751,-1.455 0.704,-1.407 0.375,-0.376 0.704,-0.845 0.376,-0.423 0.422,-0.656 0.376,-0.47 1.314,-0.892 0.563,-0.798 0.61,-0.704 0.47,-1.033 0.516,-0.563 0.376,-0.751 0.281,-0.235 0.563,-0.751 0.281,-0.375 0.423,-0.657 0.375,-0.517 0.142,-0.469 0.141,-0.282 0.141,-0.328 0.141,-0.517 0.235,-0.61 0.141,-0.609 0.469,-0.751 0.094,-0.751 0.047,-0.657 0,-0.282 0,-0.469 0.188,-0.798 0.141,-0.61 0.141,-0.892 0.141,-1.221 0.282,-1.455 0.328,-0.845 0.376,-0.704 0.375,-0.517 0.281,-0.375 0.048,-0.047 0.563,-0.423 0.517,-0.609 0.751,-0.893 1.173,-2.534 0.61,-1.032 0.563,-1.268 0.188,-0.938 0.235,-1.033 0.751,-1.173 0.985,-2.065 1.361,-1.689 1.455,-1.736 0.704,-1.549 0.281,-2.441 0.328,-1.971 -0.094,-0.704 0.188,-1.502 -0.047,-0.563 -0.047,-0.61 0.142,-1.361 0.094,-0.609 0,-1.314 0.516,-2.159 0.845,-1.361 0.376,-0.892 0.328,-0.798 0.423,-0.704 0.328,-0.798 -0.047,-0.61 0,-0.141 0,-0.517 0.094,-0.563 -0.047,-0.235 -0.047,-0.563 -0.141,-0.563 -0.188,-0.517 -0.094,-0.517 -0.517,-0.751 -0.47,-0.892 -0.845,-1.126 -0.375,-1.08 -0.845,-0.798 -0.47,-0.657 -0.281,-0.469 -0.282,-0.329 -0.328,-0.094 -0.141,0 -0.188,0 -0.61,-0.234 -0.892,-0.657 -0.563,-0.328 -0.282,-0.893 -0.141,-0.845 -0.188,-0.516 -0.234,-0.798 -0.142,-0.563 -0.141,-0.423 -0.328,-0.516 -0.329,-0.517 -0.234,-0.563 -0.047,-0.798 -0.094,-0.563 0.094,-0.985 0,-1.032 0.047,-0.798 0.376,-0.892 0.375,-0.846 0.141,-0.422 0.282,-0.61 0.188,-0.61 0.141,-1.173 -0.047,-1.127 0.563,-1.032 0.422,-0.704 0.704,-1.361 0.798,-1.689 0.517,-0.985 0.751,-1.314 0.657,-1.221 0.422,-0.563 2.582,-0.751 1.079,-0.328 0.61,-0.234 0.423,-0.329 0.188,-0.234 0.094,-0.141 0.375,-1.408 0.47,-1.878 0.329,-1.549 -0.142,-0.656 -0.141,-1.361 -0.141,-1.033 -0.141,-0.422 -0.094,-0.376 -0.094,-0.657 0.188,-1.032 0.188,-0.938 0.423,-1.032 0.328,-0.657 0.47,-1.033 0.609,-1.032 0.47,-0.938 0.704,-1.268 1.032,-1.925 0.61,-1.313 0.61,-1.033 0.657,-1.173 0.328,-0.61 0.282,-0.704 0.281,-1.126 0.188,-1.033 0.141,-1.22 0,-0.517 0,-0.094 -0.047,-0.563 0.047,-0.61 0.142,-0.845 0.188,-0.657 0.234,-1.079 0.282,-0.798 0.047,-0.423 0.281,-1.971 1.032,-2.629 3.896,-12.297 1.549,-3.896 0.469,-7.322 -0.281,-1.079 -1.549,-7.135 2.957,-10.467 3.191,-10.795 0.517,-2.112 1.502,-5.162 1.783,-6.243 3.145,-1.173 0,-0.892 1.502,-0.939 3.802,-1.877 2.44,-1.127 2.723,-1.502 1.268,-0.751 0.845,-0.938 0.188,-0.234 0,-1.783 -0.094,-1.831 -0.047,-0.61 0,-1.736 -0.047,-1.126 0.047,-2.488 -0.094,-1.736 0,-3.521 -0.329,-9.903 -0.188,-8.918 -0.376,-9.152 -0.094,-4.693 -0.281,-4.928 -0.188,-7.698 -0.142,-2.628 -0.094,-3.849 0.094,-4.225 -0.094,-2.581 0,-3.474 -0.094,-4.928 0.047,-5.961 0.47,-3.474 0.047,-5.397 -3.802,-108.655 -27.974,-57.73 -9.012,-18.681 -8.776,-17.085 -3.755,-7.087 -1.597,-7.838 -0.703,-4.318 -1.127,-5.585 -1.361,-4.412 -0.845,-2.347 -0.563,-2.488 0.047,-1.783 0.188,-1.079 -0.329,-1.69 -1.455,-1.173 -2.862,-3.661 -1.69,-3.755 -0.422,-0.892 -0.329,-0.751 -0.281,-0.892 -0.141,-0.893 -0.282,-1.126 -0.656,-1.783 -0.846,-2.112 -2.44,-3.755 -2.44,-2.957 -2.019,-1.972 -1.736,-1.689 -0.423,-0.328 -1.643,-1.408 -1.549,-2.065 -1.455,-0.985 -1.83,-0.047 0.375,-0.282 0.986,-0.516 0.516,-0.142 0.376,-0.141 0.47,-0.141 0.375,-0.094 0.281,-0.047 0.47,-0.047 0.281,-0.047 0.61,0 0.61,0.047 0.234,0.047 0.376,0.141 0.234,0.141 0.281,0.235 0.423,0.704 0.281,0.703 0.235,0.517 0.234,0.376 0.281,0.563 0.235,0.188 0.234,0.141 0.188,0.094 0.141,0.047 0.188,0 0.188,-0.047 0.141,0 0.376,-0.141 0.563,-0.235 0.282,-0.281 0.61,-0.845 0.563,-0.751 0.376,-0.234 0.141,-0.047 0.281,-0.095 0.282,0 0.469,0 0.47,0.095 0.563,0.047 0.328,0.141 0.517,0.234 0.563,0.376 0.469,0.234 0.47,0.094 0.61,0.047 0.469,0 0.423,0.047 0.422,0.047 0.47,0.141 1.174,0.47 1.126,0.517 0.657,0.281 1.032,0.234 1.174,0.095 0.469,0.234 0.376,0.094 0.328,0.094 0.751,0 0.423,0 0.517,0 0.609,0.188 1.174,0.188 1.502,0.234 2.253,0.281 0.469,0.047 0.939,0.282 0.61,0.141 0.422,-0.141 0.938,-0.282 0.704,-0.281 0.61,-0.047 0.938,-0.234 1.502,0.563 1.361,0.423 1.314,0.375 1.22,0.517 0.704,0.234 0.893,0.423 1.783,0.657 0.328,0.188 0.798,0.423 1.408,0.609 0.657,0 0.985,0.048 0.657,0 0.798,-0.048 1.08,-0.469 0.845,-0.141 -7.463,-111.19 10.467,-26.472 -0.845,-2.863 -17.366,-56.088 0.188,-0.235 24.125,-41.444 -0.281,-1.689 -11.734,-73.454 22.168,12.464 43.604,27.411 0.328,0.141 42.946,18.962 46.372,18.305 32.573,12.813 5.867,2.347 15.958,9.81 82.982,51.3 z"
       inkscape:connector-curvature="0"
       class="DEP_08 ZON_03" /></g></svg>