<?xml version="1.0" encoding="UTF-8" standalone="no"?>
<!-- Generator: Adobe Illustrator 16.0.0, SVG Export Plug-In . SVG Version: 6.00 Build 0)  -->

<svg
   xmlns:dc="http://purl.org/dc/elements/1.1/"
   xmlns:cc="http://creativecommons.org/ns#"
   xmlns:rdf="http://www.w3.org/1999/02/22-rdf-syntax-ns#"
   xmlns:svg="http://www.w3.org/2000/svg"
   xmlns="http://www.w3.org/2000/svg"
   xmlns:sodipodi="http://sodipodi.sourceforge.net/DTD/sodipodi-0.dtd"
   xmlns:inkscape="http://www.inkscape.org/namespaces/inkscape"
   version="1.1"
   id="SvgMunicipio"
   x="0px"
   y="0px"
   width="1000.052px"
   height="743.067px"
   viewBox="64.705 118.301 1000.052 743.067"
   enable-background="new 64.705 118.301 1000.052 743.067"
   xml:space="preserve"
   inkscape:version="0.91 r13725"
   sodipodi:docname="MUN_ID0803.svg"><metadata
     id="metadata10"><rdf:RDF><cc:Work
         rdf:about=""><dc:format>image/svg+xml</dc:format><dc:type
           rdf:resource="http://purl.org/dc/dcmitype/StillImage" /></cc:Work></rdf:RDF></metadata><defs
     id="defs8" /><sodipodi:namedview
     pagecolor="#ffffff"
     bordercolor="#666666"
     borderopacity="1"
     objecttolerance="10"
     gridtolerance="10"
     guidetolerance="10"
     inkscape:pageopacity="0"
     inkscape:pageshadow="2"
     inkscape:window-width="1366"
     inkscape:window-height="705"
     id="namedview6"
     showgrid="false"
     inkscape:zoom="0.31760258"
     inkscape:cx="500.026"
     inkscape:cy="371.53351"
     inkscape:window-x="-8"
     inkscape:window-y="-8"
     inkscape:window-maximized="1"
     inkscape:current-layer="svg" /><g
     id="g3"><path
       id="MUN_0803"
       d="m 651.277,152.642 3.918,6.915 1.152,1.383 4.379,1.613 1.152,0.23 3.919,-0.23 3.688,-1.383 6.223,-2.535 6.223,-2.766 5.302,-1.844 2.766,-0.691 3.688,0 2.535,0.691 4.379,0.691 3.919,0.922 1.613,0.461 1.152,0.461 2.074,0.922 4.84,1.613 5.762,2.074 5.762,2.074 0,1.153 -0.23,2.535 0,3.227 0,1.844 0.923,2.997 1.152,3.457 2.305,4.379 4.84,2.997 6.453,0.23 4.841,-2.305 0.922,-0.922 4.609,-4.379 2.996,-3.457 3.688,-4.379 2.305,-0.691 4.379,-1.383 2.997,-0.461 3.457,0.23 3.918,1.383 3.688,2.305 6.453,3.688 6.224,3.918 6.453,2.996 3.688,0 7.606,-0.691 4.84,-0.461 2.766,-0.922 1.613,-1.613 0.461,-4.609 -0.23,-6.223 0,-2.074 0.691,-5.993 2.766,-4.379 0.922,-1.844 4.149,-4.149 2.074,-2.074 1.613,-1.383 1.844,-0.461 5.07,-1.613 20.743,36.185 0,0.23 -13.829,26.966 0,0 -6.684,25.122 0.23,0.23 6.453,14.06 0,0 1.383,4.84 8.298,23.509 0,0 15.212,32.958 0,0 7.145,10.833 10.141,15.211 0,0 26.045,33.881 0,0 0.23,0.461 31.114,37.798 0,0.23 3.457,4.379 21.435,29.502 0,0 30.654,29.271 0,0 31.346,28.58 0,0 33.419,39.182 0,0.23 -1.152,7.375 0,0 -2.535,10.372 -7.145,26.735 0,0 -11.985,48.17 0,0 -3.227,44.713 0,0 -14.06,30.654 0,0 -10.832,48.17 0,0 -3.457,41.486 0,0 -11.985,44.714 -4.148,14.289 -6.685,-3.457 -0.23,0 -0.23,-1.383 -0.23,0 -0.697,-1.612 0,0 -1.152,-0.922 -0.23,-0.23 -1.152,-0.23 0,0 -2.074,-0.23 0,0 -3.227,0.691 0,0 -2.305,2.535 0,0 -0.461,2.074 0,0 -0.461,1.844 0,0 0,2.766 0,0.23 -0.691,2.305 -0.23,0.231 -2.074,1.383 0,0 -1.383,0.461 0,0 -2.075,0.23 0,0 -2.074,0.23 -0.23,0 -0.922,0 0,0 -2.305,-0.23 0,0 -1.844,-0.691 0,0 -1.383,-0.922 0,0 -0.691,-0.461 0,0 -1.613,-1.384 0,0 -1.613,-1.152 0,0 -0.922,-0.691 0,0 -1.613,-0.691 0,0 -2.305,-1.152 0,0 -2.535,-0.23 0,0 -2.075,0 0,0 -3.918,0 0,0 -0.922,-0.461 0,-0.23 -1.383,-1.152 0,0 -0.922,-0.922 0,0 -1.844,-2.305 0,0 -1.844,-2.535 0,0 -4.609,-6.223 0,0 -0.922,-1.383 0,0 -0.461,-1.153 0,0 -0.23,-1.152 0,0 -0.23,-0.922 0,0 -0.462,-2.535 0,0 0.23,-5.301 0,0 0,-0.691 0,0 -0.461,-1.152 0,0 -0.461,-0.691 0,-0.23 -0.23,0 0,0 -1.152,-0.922 -0.23,0 -1.383,-0.461 0,0 -1.383,-0.23 -0.23,0 -0.922,0.23 0,0 -0.461,0.461 0,0 -0.922,0.922 0,0 -0.922,1.613 0,0 -0.922,1.613 0,0 -1.383,2.535 0,0 -1.613,2.766 0,0.23 -0.922,0.461 -0.23,0 -2.535,-0.23 0,0 -1.844,-0.922 0,0 -2.996,-2.305 0,0 -1.384,-0.461 0,0 -1.613,-1.152 0,0 -1.383,-1.152 0,0 -1.613,-2.305 0,0 -1.152,-1.152 0,0 -1.844,-2.305 0,0 -2.305,-2.766 0,0 -3.227,-3.688 0,0 -1.844,-1.613 0,0 -3.228,-2.996 0,-0.23 -1.844,-1.613 0,0 -1.383,-1.613 0,0 -2.535,-2.305 0,0 -5.531,-3.457 0,0 -1.152,-0.691 -0.23,0 -1.613,-0.461 0,0 -0.922,0.23 -0.23,0 -0.691,0.922 0,0 -0.691,1.152 0,0 -0.461,1.613 -0.23,0 0,1.152 0,0.23 -0.461,0.461 0,0 -1.152,1.152 0,0.23 -2.767,0.23 0,-0.23 -3.688,-2.996 0,0 -2.766,-2.305 0,0 -2.074,-1.844 0,-0.23 0.23,-0.461 0,-0.23 0,-0.691 0,0 0,-0.922 0,0 0.461,-1.153 0,0 0.691,-1.844 0,0 0,-0.922 0,0 -0.23,-0.691 0,-0.23 -0.23,-0.691 0,0 -0.691,-0.461 0,0 -0.461,-0.23 -0.23,0 -0.922,-0.23 0,0 -1.152,-0.23 0,0 -0.23,0 0,0 -1.152,0 0,0 -0.461,-0.23 -0.23,0 -0.691,-0.691 0,0 -0.461,-0.461 -0.23,0 -0.23,-0.461 0,0 -0.23,-0.23 0,0 -0.922,-0.691 -0.23,0 -0.461,0 0,0 -0.691,0.461 0,0 -1.152,0.691 -0.231,0 -0.461,0 0,0 -0.691,0 0,0 -0.461,-0.461 -0.23,0 -0.23,-0.461 0,0 -0.23,-0.461 0,-0.23 0,-0.461 0,0 0,-1.152 0,0 0.461,-1.152 0,0 0.691,-1.844 0,0 0,-0.691 -0.23,0 -0.23,-0.691 -0.23,-0.23 -0.461,-0.461 0,0 -2.535,-2.074 0,-0.23 -0.23,-0.23 0,0 -0.461,-0.23 0,0 -0.922,-0.461 0,0 -0.922,-0.461 -0.23,-0.231 -0.461,0 0,0 -0.691,0 -0.23,0 -0.922,0.231 0,0.23 -1.152,0.23 0,0 -0.922,0.691 0,0 -1.383,0.691 0,0 -1.613,1.613 0,0 -2.535,0.922 0,0.23 -2.305,0.922 0,0 -1.845,0.461 0,0 -2.074,-0.23 -0.23,0 -0.922,-0.461 0,0 -0.922,-0.691 -0.23,0 0,-1.152 0,0 0.23,-0.922 0,0 0,-1.152 0,0 0.461,-1.152 0,0 0.922,-2.997 0,0 0,-0.23 0,-0.23 0,-0.922 0,0 0.23,-1.613 0,0 0,-0.922 0,-0.23 0.23,-1.613 0,-0.23 0,-1.383 0,0 0,-1.613 0,0 0,-0.922 0,-0.23 0,-0.922 -0.23,-1.152 0,0 0,-0.922 0,-0.23 -0.461,-0.922 -0.23,0 -0.922,-0.461 -0.23,0 0,0.23 -0.23,0 -0.922,0 -0.23,0 -0.461,-0.23 -0.23,0 -0.922,-0.23 0,0 -0.922,-0.23 0,-0.23 -0.922,-0.691 0,0 -1.152,-1.383 -0.23,0 -0.461,-0.923 0,0 -0.922,-0.922 -0.23,0 -0.23,-1.383 0,0 -1.383,-1.152 -0.23,0 -1.383,-1.383 0,0 -2.305,-1.152 0,0 -2.997,-0.461 0,-0.23 -3.227,-0.691 0,0 -3.688,-0.461 -0.23,0 -3.457,-1.383 0,0 -1.844,-1.383 0,-0.23 -0.691,-1.152 0,0 -0.461,-2.074 0,0 0,-0.922 0,-0.23 -1.383,-0.922 0,0 -1.844,-0.691 -0.23,0 -1.613,-1.613 0,0 -0.923,-1.845 0,-0.23 -0.23,-3.227 0,-0.461 0,0 -0.23,-2.535 0,0 0,0 0,0 -0.461,-3.688 -0.23,0 -1.613,-1.613 0,0 0,0 -0.922,-1.613 0,0 0,0 -1.613,-0.922 0,0 0,0 -0.922,-2.074 0,0 0,0 -0.691,-1.844 0,0 -0.23,0 0,0 -0.461,-1.614 0,0 0,0 -0.461,-1.152 0,0 0,0 0,-1.383 0,0 0,0 0.23,-2.766 0,-0.691 0,0 0,0 -0.691,-2.996 0,0 0,0 -0.691,-1.152 0,0 -4.609,-2.305 0,0 0,0 -1.844,-0.691 -6.224,-2.535 -0.23,0 -0.461,-0.691 0,0 0,0 -1.152,-1.844 0,0 0,0 -1.844,-2.536 0,0 0,0 -2.766,-2.305 0,0 0,0 -3.457,-1.383 0,0 0,0 -1.383,0 0,0 0,0 -2.535,0.23 0,0 0,0 -3.688,0.23 -0.23,0 0,0 -1.614,-0.691 0,0 -0.922,-1.844 -0.691,-2.535 -0.23,-0.922 0,-0.23 0,0 0,-2.535 0,0 0,0 0.691,-4.84 0,0 0,0 0.23,-1.152 0,0 0,0 0,-1.613 0,-0.231 0,0 0.23,-1.152 0,-0.23 -0.23,-0.691 0,0 0,0 -0.23,-1.383 0,0 0,0 -0.691,-1.613 0,0 0,0 -0.691,-1.383 0,0 0,0 0,0 -0.461,-1.152 0,0 0,0 -0.461,-0.922 0,0 0,0 -1.152,-1.844 0,0 0,0 0,0 -0.922,-1.844 0,0 0,-0.23 -1.613,-2.766 0,0 0,0 -0.23,-1.152 0,0 -0.922,-2.074 0,0 0,0 -1.152,-4.149 0,0 0,0 0,-1.383 0,0 0,0 0,-1.844 0,-3.227 0,0 0,0 0.23,-1.383 0,-0.23 0,0 0,-1.613 0,0 0,0 -0.23,-0.922 0,0 0,-0.23 0,0 0.23,-1.613 0,0 0,0 -0.23,-3.688 0,0 0,0 0,-1.613 0,0 0,0 0,0 0,-1.614 0,0 0,0 -0.23,-1.383 0,0 0,0 0,-1.844 0,0 0,0 0,0 -0.23,-1.613 0,0 0,0 0,0 -0.691,-2.305 0,-0.23 0,0 -0.691,-1.383 0,0 0,0 -0.691,-1.152 0,0 0,-0.23 -0.922,-0.922 0,0 0,0 -1.383,-0.922 0,0 0,0 -1.383,-0.23 0,0 0,0 -0.691,0 0,0 -0.23,0 -2.075,-0.922 0,0 0,0 -1.613,-0.691 0,0 0,0 -2.766,-2.305 0,0 0,0 -2.074,-2.536 0,0 0,0 -0.23,-0.922 0,0 0,0 -0.461,-0.922 0,0 0,0 -0.461,-1.613 0,0 0,0 -0.691,-1.613 0,0 0,0 -1.613,-2.074 -0.461,-1.152 0,0 0,0 0,0 -1.152,-1.152 0,0 -0.23,0 -1.152,-0.461 0,0 0,0 -1.152,-0.23 0,0 0,0 -2.305,0 0,0 0,0.23 -2.996,0.461 0,0 0,0 -2.075,0.691 0,0 0,0 0,0 -2.305,0.691 -0.23,0 0,0 -3.688,1.152 0,0 0,0 -0.23,0 0,0 -2.766,0 -0.23,0 0,0 -1.383,-0.691 0,0 0,0 -1.844,-1.152 0,0 -0.691,-2.074 0,0 0,0 -0.23,-0.691 0,0 0,0 -0.23,-2.305 0,0 0,0 0,0 0,-1.844 0,0 0,0 -0.23,-1.844 -0.691,-0.922 0,0 0,0 -0.461,-0.461 0,-0.23 -1.844,0 0,0 0,0 -1.383,0 -0.23,0 0,0 -1.614,0 0,0 0,0 -3.227,-0.691 0,0 -0.691,-0.692 0,0 0,0 -1.383,-1.613 0,0 0,0 -0.691,-2.074 0,0 0,0 0.23,-8.758 0,0 0,0 -0.23,-2.535 -0.461,-2.766 0,0 -0.922,-0.922 0,0 0,0 -3.227,-2.997 0,0 0,0 -2.535,-1.613 0,0 0,0 -2.766,-1.152 0,0 0,0 -3.227,-0.461 0,0 0,0 -2.997,0.23 0,0 0,0 -3.688,0.461 0,0 0,0 -2.996,0 0,0 0,0 -1.613,-0.23 0,0 0,0 -1.613,-0.691 -0.23,0 0,0 -1.383,-0.922 0,-0.23 0,0 -1.152,-2.305 0,0 0,0 -0.922,-0.922 -0.23,-0.23 0,0 0,0 -1.152,-2.535 0,0 0,0 0,0 -1.613,-2.305 0,0 0,0 0,0 -2.306,-1.844 0,0 -2.074,-0.23 -0.23,0 -2.305,1.152 0,0 0,0.23 -0.461,0.23 0,0 0,0 -1.844,3.457 0,0 0,0 -2.074,3.457 0,0 0,0 -0.461,3.918 0,0 0,0 -0.461,4.841 -0.23,0 0,0.23 -0.922,1.152 -0.23,0 -3.457,0.922 0,0 0,0 -1.613,1.152 0,0 0,0 -2.766,3.227 0,0 -3.458,4.379 0,0 -2.074,2.074 -0.691,1.152 -1.152,0 -2.996,0 0,0 0,0 -1.844,-0.691 -0.23,0 0,0 -0.23,-0.461 0,0 0,0 -0.691,-0.922 0,0 0,0 -1.152,-1.383 0,0 0,0 -0.922,-2.074 0,0 0,0 -1.152,-1.844 0,-0.23 0,0 -2.305,-1.613 0,0 0,0 -2.767,-1.844 0,0 0,0 -1.613,-0.691 0,0 -0.23,0 -2.074,0 0,0 0,0 -1.613,0.23 -0.23,0 -1.383,1.613 0,0 0,0 -1.613,2.766 0,0 -1.844,1.383 -0.23,0 0,0 -4.148,0.691 0,0 0,0 -3.688,-0.691 0,0 0,0 0,0 -4.149,-1.613 0,0 0,0 -2.996,-1.844 0,0 0,0 -1.383,-1.613 0,0 0,0 -1.613,-2.535 0,0 0,0 -0.922,-2.536 0,0 0,0 -0.23,-12.215 0,0 0,0 -0.23,-2.996 0,0 0,0 -0.461,-2.305 0,0 0,0 -0.691,-1.383 0,0 0,0 -1.152,-1.153 0,0 0,-0.23 -2.535,-0.922 0,0 0,0 -2.535,-0.691 0,0 0,0 -2.075,0.461 0,0.23 0,0 -2.766,1.383 0,0 0,0 -3.227,0.692 0,0 0,0 -3.227,0.691 0,0 0,0 -5.301,0.922 0,0 0,0 -2.535,0 0,0 -0.23,0 -3.458,-0.922 -0.23,0 0,0 -2.074,-0.23 0,0 0,0 -1.844,-0.922 0,0 0,0 -1.844,-0.692 0,0 0,0 -3.688,-1.844 0,0 0,0 -1.383,-0.461 0,0 0,0 -1.844,-0.691 -0.23,0 0,0 -2.535,0.461 0,0 0,0 -2.766,0 0,0 0,0 -2.075,0.691 0,0 0,0 -2.766,-0.461 -0.23,0 0,0 -1.844,-0.922 0,0 0,0 -2.766,-1.383 0,0 0,0 -0.922,-0.922 0,0 -1.383,-1.613 0,0 0,0 0,0 -1.383,-1.613 0,0 0,-0.23 -1.383,-1.152 0,0 -0.23,0 -1.844,-0.922 0,0 -0.23,0 -1.844,-0.23 0,0 0,0 -1.613,0.691 0,0 0,0 -2.767,0.922 0,0 0,0 -2.305,1.152 0,0 0,0 -1.844,1.613 0,0 -0.23,0 -1.613,2.305 0,0 0,0 -2.074,1.613 0,0 -3.227,0.691 0,0 0,0 -0.23,0 -0.23,0 -0.461,0 -2.074,0 0,0 0,0 -2.305,-0.461 0,0 0,0 -3.919,-0.461 0,0 0,0 -3.918,-0.922 0,0 0,0 -3.688,-0.23 0,0 0,0 -2.535,0.691 0,0 0,0 -5.301,0.922 0,0 0,0 -4.841,-0.23 0,-0.23 0,0.23 -3.918,0.461 -0.23,0 0,0 -2.074,-0.461 0,0 0,0 -10.141,-1.383 0,0 0,0 -5.763,-1.383 0,0 0,0 -6.453,-2.305 -4.379,-1.383 0,0 0,0 -4.379,-1.613 -0.23,0 0,0 -4.61,-1.383 0,0 0,0 0,0 -2.305,-0.23 0,0 0,0 -3.688,0 -4.148,0 0,0 0,-0.23 -2.305,-0.461 0,0 0,0 -5.302,-1.152 0,0 -3.227,-0.691 -0.23,1.613 -2.305,2.996 0,0 -4.379,5.992 0,0 -2.535,0.922 0,0 0,0 -3.227,0.461 0,0 0,0 -3.457,-0.23 0,0 0,0 -5.071,-0.691 0,0 0,0 -4.609,1.152 0,0 0,0 -4.609,1.383 0,0 0,0 -3.457,1.844 0,0 0,0 -5.302,2.306 0,0 0,0 -4.148,1.383 0,0 0,0.23 -6.223,1.152 0,-0.23 -1.152,-1.383 0,0 -0.461,-2.305 0,0 0,0 -1.383,-2.306 0,-0.23 0,0 -1.152,-1.613 0,0 -1.844,-0.23 0,0 -2.767,1.844 0,0.23 -1.152,2.536 0,0 0,0 0,2.305 0,0 0,0 -0.23,4.609 0,0 -0.23,5.301 0,0 0,0.23 0,0 1.152,5.762 0,0 0,0 0,0 0,3.919 0,0 0,0 0.23,5.07 0,0 0,0 -1.152,4.609 0,0 0,0 -1.613,3.457 0,0 0,0 -2.535,1.844 0,0 0,0 -3.688,1.152 0,0 0,0 -5.07,-0.691 -0.23,0 0,0 0,0 -3.227,-1.844 0,0 -0.23,0 -1.614,-2.305 0,0 0,0 0,0 -2.766,-4.609 0,0 0,0 -2.535,-4.609 0,0 0,0 0,0 -2.305,-3.227 0,0 -0.23,-2.075 0,0 -1.152,-1.613 0,0 0,0 -2.305,-2.074 -0.922,-0.461 -1.613,0.691 -2.996,1.383 0,0 0,0 -2.766,1.844 -0.23,0 0,0 -1.152,2.075 0,0 0,0 -2.305,3.227 0,0 0,0 -2.997,2.996 0,0 0,0 -3.688,2.996 0,0 0,0 0,0 -4.84,1.844 0,0 0,0 -3.688,-0.23 0,0 0,0 -3.457,-0.461 0,0 0,0 -3.919,0 0,0 -0.23,0 -2.305,0.922 -0.23,0 0,0 -2.996,0.461 0,0 0,0 -3.918,-0.691 0,0 0,0 -6.453,1.383 0,0 0,0 -4.38,1.844 0,0 0,0 -2.074,0.23 -0.23,-0.23 -1.152,-0.461 0,-0.23 -0.691,-1.613 0,0 0,0 -0.691,-2.535 0,0 -0.23,-0.23 -2.305,-2.996 0,0 0,0 -1.844,-0.922 -0.23,-0.23 -1.383,0.461 0,0 -0.23,0 -2.766,1.383 0,0 0,0 -2.305,2.305 0,0.23 0,0 -1.152,2.996 0,0 0,0 0,0.23 0.461,5.301 0,0 0,0 0,4.61 0,0 0,0 0.922,4.379 0,0 0,0 -0.23,3.227 0,0.23 0,0 -0.691,3.688 -0.23,0 0,0 -2.536,2.996 -3.457,-0.461 -0.23,0 -2.996,-1.844 0,0 -4.148,-3.688 0,0 -3.227,-1.613 0,0 -2.766,-0.691 0,0 -4.61,-1.383 0,0 -3.457,-0.23 0,0 -1.613,0 -0.23,0 -1.844,1.613 0,0 -0.922,1.383 0,0 0,2.074 0,0 0.691,2.535 0,0 1.613,1.383 0,0 3.457,2.305 0,0 1.152,0.922 0,0.231 0,2.535 0,0 0.922,3.227 0,0.23 -0.922,2.305 0,0.23 -2.074,1.152 0,0 -2.305,0.461 -0.23,0 -1.844,-0.691 0,0 -2.535,-1.844 0,0 -2.766,-1.613 0,0 -2.305,-1.383 0,0 -3.688,-1.152 0,0 -4.148,0 0,0 -2.766,1.152 0,0 -3.688,2.766 0,0 -3.457,2.535 -0.23,0 -1.613,0.23 0,0 -2.766,0.461 0,0 -2.767,0.691 0,0 -2.074,1.152 0,0.23 -1.383,2.305 0,0 -2.305,4.148 0,0 -2.766,3.458 0,0 -3.227,4.609 0,0 -5.07,6.223 0,0 -2.075,1.152 0,0.23 -4.609,1.383 0,0 -5.07,0.691 0,0 -7.145,0.922 0,0 -6.224,0 0,0 -3.918,-0.461 0,0 -3.918,-1.152 0,0 -2.305,-1.613 0,0 -1.613,-1.383 0,0 -3.457,-2.996 0,0 -2.767,-1.844 -0.23,0 -1.844,-0.691 0,0 -3.227,-1.613 0,-0.23 -3.688,-0.461 0,0 -6.914,-0.23 0,0 -5.071,-0.461 -0.23,0 -2.996,-2.766 -3.918,-2.997 -0.23,0 -2.766,-5.301 -2.766,-5.07 0,0 -1.152,-3.457 0,0 -2.535,-1.613 0,0 -2.536,-3.688 0,0 -5.762,-3.688 1.613,-1.844 2.305,-5.301 0.691,-8.297 0.691,-7.606 1.845,-20.282 -3.228,-23.278 -2.766,-15.212 0.461,-13.598 7.376,-19.821 8.297,-21.204 9.22,-11.985 13.137,-21.665 3.918,-33.65 3.458,-13.368 1.844,-2.996 2.766,-5.993 2.996,-7.145 -2.766,-6.223 -8.528,-7.145 -2.766,-5.07 -5.762,-8.067 -5.531,-7.375 -3.228,-13.137 2.997,-14.059 -5.532,-24.431 8.298,-7.836 17.056,-0.922 19.36,-0.461 13.367,0 10.603,2.536 12.676,-1.153 11.524,-0.23 10.371,0.461 10.142,-1.383 8.297,-2.766 11.755,9.68 4.609,1.383 8.759,-1.383 6.453,0.23 4.609,-2.996 2.074,-5.993 2.535,-4.609 7.606,-4.61 10.832,-5.301 10.372,-2.997 12.906,0.23 14.521,0 5.762,6.684 3.918,4.84 3.228,4.84 3.688,2.996 8.066,2.305 8.298,1.844 7.145,-0.691 8.527,-0.691 10.603,-1.844 16.364,1.614 10.371,3.688 9.911,-1.383 10.602,-5.071 10.833,-1.152 9.91,-3.918 6.223,-1.383 10.603,-6.454 14.751,-9.68 7.145,-0.691 8.758,0 0.692,-5.07 2.535,-9.45 4.148,-6.454 7.145,-0.691 10.372,8.528 9.91,0.922 5.07,-6.915 3.919,-3.457 3.688,-5.532 -1.383,-8.989 10.141,-7.375 7.606,-4.61 8.758,-4.609 10.372,-5.762 5.762,-2.305 5.301,-4.84 4.609,-7.375 5.763,-9.911 2.996,-8.989 0.922,-3.457 1.152,-3.458 1.152,-2.305 4.609,0.461 4.379,-0.23 3.688,-1.383 3.918,-2.305 4.609,-5.301 2.996,-3.688 2.305,-3.227 3.457,-5.301 2.075,-2.766 2.996,-5.532 1.152,-2.074 1.844,-5.071 3.688,-2.535 2.535,-1.152 7.375,3.918 3.688,6.223 4.148,8.297 -0.23,3.457 -0.691,5.993 0.423,6.425 z"
       inkscape:connector-curvature="0"
       class="DEP_08 ZON_03" /></g></svg>