<?xml version="1.0" encoding="UTF-8" standalone="no"?>
<!-- Generator: Adobe Illustrator 16.0.0, SVG Export Plug-In . SVG Version: 6.00 Build 0)  -->

<svg
   xmlns:dc="http://purl.org/dc/elements/1.1/"
   xmlns:cc="http://creativecommons.org/ns#"
   xmlns:rdf="http://www.w3.org/1999/02/22-rdf-syntax-ns#"
   xmlns:svg="http://www.w3.org/2000/svg"
   xmlns="http://www.w3.org/2000/svg"
   xmlns:sodipodi="http://sodipodi.sourceforge.net/DTD/sodipodi-0.dtd"
   xmlns:inkscape="http://www.inkscape.org/namespaces/inkscape"
   version="1.1"
   id="SvgMunicipio"
   x="0px"
   y="0px"
   width="999.889px"
   height="544.56px"
   viewBox="64.759 118.199 999.889 544.56"
   enable-background="new 64.759 118.199 999.889 544.56"
   xml:space="preserve"
   inkscape:version="0.91 r13725"
   sodipodi:docname="MUN_ID0818.svg"><metadata
     id="metadata10"><rdf:RDF><cc:Work
         rdf:about=""><dc:format>image/svg+xml</dc:format><dc:type
           rdf:resource="http://purl.org/dc/dcmitype/StillImage" /></cc:Work></rdf:RDF></metadata><defs
     id="defs8" /><sodipodi:namedview
     pagecolor="#ffffff"
     bordercolor="#666666"
     borderopacity="1"
     objecttolerance="10"
     gridtolerance="10"
     guidetolerance="10"
     inkscape:pageopacity="0"
     inkscape:pageshadow="2"
     inkscape:window-width="682"
     inkscape:window-height="480"
     id="namedview6"
     showgrid="false"
     inkscape:zoom="0.40904541"
     inkscape:cx="499.94449"
     inkscape:cy="272.28"
     inkscape:window-x="0"
     inkscape:window-y="0"
     inkscape:window-maximized="0"
     inkscape:current-layer="svg" /><g
     id="g3"><path
       id="MUN_0818"
       d="m 582.492,124.27 1.412,2.824 3.671,1.977 3.247,1.977 1.836,-0.282 1.694,-0.565 1.271,-0.141 0.847,0 1.13,0.282 0.706,-0.141 1.271,-0.565 1.13,-0.988 0.847,0 1.694,-0.423 1.271,0 0.988,0.423 1.836,0 2.259,0.141 1.694,-0.988 0.847,-2.541 0.988,-0.847 1.554,-1.412 1.835,0 2.118,0.988 2.823,1.835 2.26,1.553 2.259,1.129 1.977,0.565 1.835,0 1.694,0.282 2.4,0.847 2.965,1.412 3.247,1.553 3.954,1.835 3.105,1.129 3.389,-0.282 2.683,-1.129 1.977,-0.988 1.694,-0.706 2.4,0.706 2.117,0.988 1.554,1.694 1.835,2.541 0.706,1.271 1.13,0.847 0.988,0.423 0.564,0.282 1.13,1.13 0.423,0.847 0.565,0.988 1.411,2.259 2.26,2.824 1.129,1.129 0.424,1.13 0.141,0.706 -0.141,1.553 -0.564,2.259 -0.706,2.824 0,1.412 -0.282,2.542 -0.424,0.706 -0.706,0.565 -1.553,1.271 -0.565,1.412 -0.282,1.129 -0.141,3.106 0,1.977 -0.706,0.989 -1.694,1.271 -1.977,1.694 -1.836,1.271 -1.271,0.706 -1.694,1.129 -1.977,1.412 -0.564,0.988 -0.142,1.271 -0.141,1.412 -0.142,0.988 -0.424,0.423 -0.988,0.283 -2.117,-0.565 -0.848,0.141 -0.423,1.694 -0.424,1.694 -0.282,0.706 -0.706,0.706 -0.565,0.283 -1.271,0.564 -1.553,0.282 -1.977,0.142 -0.706,0.423 -0.564,0.565 -0.565,0.706 -0.564,1.694 0.142,1.271 0.564,0.988 0.706,0.706 0.141,0.988 -0.423,1.412 0.988,0.988 0.564,0.706 0.706,1.129 0.282,0.847 0.142,2.259 0,0.424 0.141,0.847 1.13,0.847 1.412,0.564 1.977,0.283 1.835,0.706 1.13,0.988 0.847,1.129 0.564,0.424 0.565,0.847 0.141,0.988 0.282,3.812 0.142,3.389 0.282,1.271 1.412,0.706 1.13,-0.141 0.706,-0.283 0.847,-0.564 1.412,-0.988 1.411,-0.283 2.824,0.142 1.13,0.141 1.271,0.706 0.564,0.564 2.965,2.118 3.247,0.847 9.036,2.965 10.166,4.801 3.953,2.259 5.083,1.553 11.859,1.412 12.848,0 10.59,0 5.506,0.847 4.941,0.424 4.941,0 1.977,-0.141 1.554,-0.283 2.683,-0.423 1.694,-0.424 1.553,-0.423 1.13,0.141 1.411,0.565 1.694,0.706 1.554,0.988 1.271,0.988 1.271,1.13 0.847,1.129 0.424,0.565 1.694,1.129 0.706,0.282 0.847,0.141 0.988,0.282 0.424,0.142 0.706,0.141 0.847,0 0.988,0.141 0.989,-0.141 1.553,-0.141 1.271,0 1.553,0.141 0.848,0.141 0.706,0.141 0.423,0.141 0.706,0.141 0.848,0.141 0.988,0.142 0.988,0 0.564,0 1.13,0.282 0.424,0 0.847,0.141 0.564,0 0.706,0 1.553,0.424 0.848,0.282 1.271,0.282 2.4,0.424 1.271,0.564 1.412,0.565 0.564,0.282 0.848,0.565 0.705,0.423 0.848,0.424 0.988,0.423 1.13,0.283 1.271,0.282 0.706,0.423 0.988,0.283 0.847,0.423 0.988,0.282 0.424,0.141 0.141,0.142 2.118,0.564 1.412,0.141 0.988,0.283 0.564,0.141 0.565,0 1.411,0.423 0.988,0.565 0.565,0.282 0.705,0.565 0.424,0.423 0.564,0.565 0.283,0.282 0,0.141 0.423,0.141 0.283,0.142 0.423,0.282 0.565,0.141 0.847,0.141 0.564,0.141 0.848,0.283 0.564,0.282 0.282,0.282 0.424,0.283 0.706,0.564 0.141,0.141 0.565,0.283 0.282,0.282 0.282,0.141 0.564,0.424 0.282,0.141 0.424,0.141 0.988,0.706 14.543,-15.813 4.8,-4.518 5.789,-3.389 5.506,-1.977 1.13,-0.424 7.2,-1.977 2.683,-0.988 2.259,-2.541 0.142,0 0.282,-3.389 0.988,-4.518 1.836,-2.683 1.694,-2.683 0,0 0,0 0.423,-0.564 5.225,-4.236 4.518,-3.106 0.142,0 0.988,-2.259 1.553,-2.541 4.941,-3.389 4.659,-3.106 3.389,-2.259 2.965,-0.706 2.4,-0.423 4.377,-0.423 0.141,1.977 0,0.141 0.565,1.129 0,0 0.988,0.988 0.141,0 1.13,0.424 0,0 0.847,0.564 0,0.141 0,0.565 0,0 0.282,1.271 0,0 0.424,0.706 0,0.141 1.13,0.847 0,0 2.117,0.847 0.142,0 2.259,0.282 0,0 1.977,0.424 0,0.141 1.836,0.282 0,0 1.412,0.706 0,0 0.847,0.847 0.142,0 0.847,0.706 0,0 0.142,0.847 0.141,0 0.564,0.564 0,0 0.283,0.565 0.141,0 0.706,0.847 0,0 0.564,0.423 0,0.141 0.565,0.142 0,0 0.564,0.141 0.141,0 0.283,0.141 0.141,0 0.565,0 0.141,0 0,-0.141 0.142,0 0.564,0.282 0.142,0 0.282,0.565 0,0.141 0,0.564 0,0 0.141,0.706 0,0.565 0,0.141 0,0.564 0,0 0,0.989 0,0 0,0.847 0,0.142 -0.141,0.988 0,0.141 0,0.564 0,0 -0.142,0.988 0,0 0,0.565 0,0.141 0,0.141 0,0 -0.564,1.835 0,0 -0.282,0.706 0,0 0,0.706 0,0 -0.142,0.565 0,0 0,0.706 0.142,0 0.564,0.424 0,0 0.564,0.282 0.142,0 1.271,0.141 0,0 1.13,-0.282 0,0 1.411,-0.565 0,-0.141 1.554,-0.564 0,0 0.988,-0.989 0,0 0.847,-0.423 0,0 0.565,-0.424 0,0 0.705,-0.141 0,-0.141 0.565,-0.141 0.141,0 0.424,0 0,0 0.282,0 0.142,0.141 0.564,0.282 0,0 0.564,0.283 0,0 0.283,0.141 0,0 0.141,0.141 0,0.141 1.553,1.271 0,0 0.283,0.282 0.141,0.141 0.142,0.424 0.141,0 0,0.423 0,0 -0.423,1.129 0,0 -0.283,0.706 0,0 0,0.706 0,0 0,0.282 0,0.141 0.142,0.283 0,0 0.142,0.282 0.141,0 0.282,0.282 0,0 0.424,0 0,0 0.282,0 0.142,0 0.706,-0.423 0,0 0.423,-0.283 0,0 0.283,0 0.141,0 0.564,0.424 0,0 0.142,0.141 0,0 0.142,0.282 0.141,0 0.282,0.283 0,0 0.424,0.423 0.142,0 0.282,0.141 0,0 0.706,0 0,0 0.141,0 0,0 0.706,0.141 0,0 0.564,0.141 0.142,0 0.282,0.142 0,0 0.424,0.282 0,0 0.141,0.423 0,0.141 0.142,0.424 0,0 0,0.564 0,0 -0.424,1.13 0,0 -0.282,0.706 0,0 0,0.564 0,0 0,0.424 0,0.141 -0.141,0.282 0,0.141 1.271,1.129 0,0 1.694,1.412 0,0 2.259,1.835 0,0.141 1.694,-0.141 0,-0.141 0.706,-0.706 0,0 0.282,-0.282 0,-0.141 0,-0.706 0.141,0 0.283,-0.988 0,0 0.423,-0.706 0,0 0.424,-0.565 0.142,0 0.564,-0.141 0,0 0.988,0.282 0.141,0 0.706,0.424 0,0 3.389,2.118 0,0 1.554,1.412 0,0 0.847,0.988 0,0 1.13,0.988 0,0.141 1.977,1.835 0,0 1.129,0.988 0,0 1.977,2.259 0,0 1.412,1.694 0,0 1.13,1.412 0,0 0.706,0.706 0,0 0.988,1.412 0,0 0.847,0.706 0,0 0.988,0.706 0,0 0.848,0.282 0,0 1.835,1.412 0,0 1.13,0.564 0,0 1.553,0.141 0.142,0 0.564,-0.282 0,-0.141 0.988,-1.694 0,0 0.847,-1.553 0,0 0.565,-0.988 0,0 0.564,-0.988 0,0 0.564,-0.565 0,0 0.282,-0.282 0,0 0.565,-0.141 0.141,0 0.848,0.141 0,0 0.847,0.282 0.142,0 0.706,0.565 0,0 0.141,0 0,0.141 0.282,0.424 0,0 0.283,0.706 0,0 0,0.423 0,0 -0.142,3.248 0,0 0.282,1.553 0,0 0.142,0.565 0,0 0.141,0.706 0,0 0.282,0.706 0,0 0.565,0.847 0,0 2.823,3.812 0,0 1.13,1.553 0,0 1.129,1.412 0,0 0.565,0.565 0,0 0.847,0.706 0,0.141 0.565,0.282 0,0 2.399,0 0,0 1.271,0 0,0 1.554,0.142 0,0 1.412,0.706 0,0 0.988,0.424 0,0 0.564,0.423 0,0 0.988,0.706 0,0 0.988,0.847 0,0 0.424,0.282 0,0 0.847,0.565 0,0 1.13,0.423 0,0 1.412,0.141 0,0 0.564,0 0.141,0 1.271,-0.141 0,0 1.271,-0.141 0,0 0.847,-0.282 0,0 1.271,-0.847 0.142,-0.141 0.424,-1.412 0,-0.141 0,-1.694 0,0 0.282,-1.129 0,0 0.282,-1.271 0,0 1.412,-1.553 0,0 1.977,-0.423 0,0 1.271,0.141 0,0 0.706,0.141 0.142,0.141 0.705,0.565 0,0 0.424,0.988 0.142,0 0.141,0.847 0.142,0 4.094,2.118 2.542,3.671 0.142,0 3.105,3.247 0,0 9.601,6.636 0,0.142 -2.259,2.682 0,0 -4.095,4.8 0,0 -2.965,4.66 0,0 -1.835,6.212 0,0 -2.541,10.024 0,0 -1.13,8.753 0,0 -0.988,7.201 0,0 -0.282,9.177 0,0 2.541,14.26 0,0 1.836,10.872 0,0 -0.565,6.495 0,0 -2.965,6.777 0,0 -2.4,5.224 0,0 -3.671,5.083 0,0 -1.977,2.965 0,0 -1.694,8.895 0,0 -0.141,8.472 -0.142,3.953 0,0 -0.282,4.377 0,0 0.564,14.542 0,0 0.282,4.659 0.142,3.247 0,0.142 2.824,6.354 0,0 3.105,6.212 0,0 2.683,3.389 0,0 2.118,3.812 0,0 4.518,6.637 0,0 2.4,4.659 0,0 0,0.705 -0.282,6.777 0,0 -2.118,9.742 0,0.141 1.271,14.401 0,0 -4.8,1.977 0,0 -7.766,4.659 0,0 -9.459,7.766 0,0 -4.659,3.671 -0.142,0 -3.106,5.365 0,0 -1.411,6.636 0,0.141 -5.507,5.931 -0.141,0 -2.4,3.529 0,0 -4.659,6.777 0,0 -2.542,3.953 -0.141,0 -5.507,1.553 0,0 -6.918,0 0,0 -4.518,0 -0.142,0.142 -5.083,4.094 0,0.142 -1.411,5.365 0,0 -1.412,4.941 0,0.142 1.553,8.612 -220.252,38.968 -196.393,-26.12 -54.78,-7.342 -5.93,-0.706 -3.389,-0.141 -0.564,0.282 -0.282,0.141 -0.848,0 -0.847,0 -0.282,0.142 -0.283,-0.142 -0.564,0 -0.424,0.142 -0.564,-0.142 -0.847,0.142 -0.424,0 -0.142,0.282 -0.706,0.282 -0.988,0.706 -0.988,0.282 -0.847,-0.141 -0.564,-0.142 -0.565,-0.282 -0.564,-0.282 -0.847,-0.564 -0.424,-0.424 -0.142,-0.142 -0.424,-0.141 -0.988,-0.142 -0.705,-0.282 -0.848,-0.142 -0.847,0 -0.565,0 -0.847,0 -1.13,0.283 -0.706,0.141 -0.988,0.424 -1.129,0.282 -1.554,0.424 -1.129,0.141 -1.977,-0.282 -1.13,0 -0.706,0.282 -1.271,0.848 -2.259,0.564 -0.282,0.424 -0.282,1.129 -0.424,0.988 -1.694,0.848 -0.282,0.564 -0.424,0.706 -0.706,0.564 -0.564,0.142 -0.988,-0.142 -0.564,0 -0.424,-0.141 -0.848,-0.424 -0.282,-0.424 -0.564,-0.564 -0.424,-0.847 -0.282,-0.283 -0.706,0 -0.282,-0.423 -0.282,-0.282 -0.706,-0.848 -0.424,-0.282 -0.564,-0.424 -0.564,-0.141 -0.988,-0.142 -0.848,-0.282 -1.129,-0.564 -0.706,-0.283 -0.424,-0.141 -0.424,0 -0.424,0.141 -0.423,0 -0.282,0.283 -0.577,0.292 -0.564,0.424 -0.706,0.141 -1.412,0.142 -1.271,-0.142 -0.988,0.142 -0.706,0 -0.564,-0.142 -0.424,0 -0.706,-0.282 -1.129,-0.282 -0.706,-0.142 -0.848,-0.282 -0.847,-0.142 -0.848,0 -0.564,0 -0.564,0.142 -0.988,0.424 -0.424,0.424 0,0 -1.13,0.423 -0.705,0.424 -0.848,0.706 -1.129,0.706 -0.565,0.706 -0.847,0.423 -0.988,0.706 -1.13,0.706 -1.129,0.848 -1.13,0.705 -0.988,0.424 -0.564,0.424 -0.424,0.706 -1.13,1.129 -0.847,0.988 -0.706,0.706 -0.848,1.13 -0.705,1.412 -0.283,0.847 -0.282,1.13 -0.282,0.988 -0.282,0.564 -0.847,0.282 -0.989,0.424 -0.988,0 -1.129,0.424 -1.13,-0.142 -1.412,0.282 -0.282,0 -0.564,0.282 -0.847,0.142 -0.988,0.282 -0.988,0.282 -0.565,0 -1.129,0.282 -1.271,0.283 -0.847,0.282 -1.412,0.564 -1.129,0.706 -0.988,0.988 -0.988,0.847 -0.848,0.424 -0.847,0.706 -1.13,0.564 -0.424,0.282 -0.847,0 -0.565,-0.282 -0.564,0 -0.706,-0.423 -0.988,-0.142 -0.706,-0.282 -1.129,-0.282 -0.988,0.141 -1.13,0.142 -0.847,0 -0.988,0.141 -1.13,0.283 -0.988,0.564 -0.706,0.564 -0.706,0.848 -0.564,1.553 -0.564,1.271 -0.282,0.848 -0.848,0.847 -0.706,0.848 -1.271,0.705 -0.424,0 -0.564,0.283 -0.706,0.282 -0.847,0.847 -0.988,0.282 -0.565,0.282 -0.423,0.283 -0.565,1.129 -0.706,0.706 -0.705,0.564 -0.424,0.424 -0.565,1.271 -1.271,2.26 -1.411,2.117 -0.706,0.564 -0.706,0 -0.848,-0.141 -0.847,-0.564 -1.13,-0.424 -1.271,-0.282 -0.988,-0.282 -0.847,0 -1.271,0.282 -0.706,0 -0.423,-0.424 -0.282,-0.142 -0.848,0.565 -0.988,0 -1.694,-0.282 -1.129,-0.283 -0.424,0.283 -0.564,0.282 -0.988,0 -1.271,0.141 -0.564,0.424 -0.847,0.847 -0.565,-0.141 -0.988,-0.282 -0.423,0 -1.13,0 -0.424,-0.142 -0.847,-0.424 -0.988,-0.282 -0.565,-0.423 -0.847,0 -0.564,0.423 -0.424,0.142 -0.848,0 -0.847,0 -0.564,0.282 -0.848,0.988 -0.706,0.848 -0.847,0.705 -1.412,-0.282 -0.847,0.282 -1.271,0.565 -0.565,0.423 -0.988,0 -0.988,0 -1.129,0.283 -1.412,0.705 -1.977,2.824 -0.706,0.142 -0.564,0.282 -1.13,0.847 -0.988,0.564 -0.988,1.13 -0.424,0.706 -0.141,1.13 -0.283,1.271 0.142,1.129 -0.142,2.4 0,2.542 -0.282,0.847 -0.706,0.988 -0.988,0.847 -0.988,0.988 -0.847,0.848 -0.988,1.13 -1.554,1.271 -1.693,0.847 -2.118,0.988 -1.694,0.706 -2.259,0.424 -2.824,-0.282 -1.271,-0.424 -1.271,-0.706 -1.13,-0.424 -0.564,0 -0.706,-0.141 -0.705,-0.424 -1.13,-0.282 -0.848,0 -0.423,0 -0.848,1.412 -0.706,1.271 -1.129,2.541 -0.706,1.554 -0.424,0.423 -0.706,0.142 -0.847,0 -1.13,-0.142 -1.412,0 -0.847,0.142 -1.694,0.282 -0.847,0.282 -0.988,0 -0.848,0 -1.271,0 -1.836,-0.282 -1.411,0.424 -0.848,0 -1.835,-0.142 -1.554,0.142 -0.705,0.141 -1.13,0.424 -0.564,-0.142 -0.848,-0.282 -0.847,-0.706 -0.706,-0.847 -0.706,0 -0.564,0.142 -1.271,0.423 -1.693,0.424 -2.118,0.706 -2.259,0.141 -1.977,0 -1.13,-0.423 -1.13,-0.848 -1.835,-0.988 -1.553,-2.259 -1.271,-1.271 -1.271,-0.988 -1.977,-1.271 -1.977,-0.988 -2.4,-0.424 -3.953,0.424 -2.4,0.705 -4.518,1.978 -2.4,0.282 -1.271,-0.142 -0.988,-0.424 -0.564,-0.564 -0.848,-1.271 -0.706,-0.988 -0.564,-0.424 -1.271,-0.424 -1.412,-0.282 -0.847,0.142 -0.848,0.282 -0.988,0.706 -1.412,1.129 -1.411,1.412 -1.694,1.694 -0.706,0 -1.13,0.142 -1.694,0.141 -1.835,-0.141 -0.848,-0.142 -0.847,-0.282 -0.282,-0.282 -0.706,-1.271 -0.424,-0.706 -0.847,-0.706 -0.706,-0.848 -1.13,-0.847 -1.271,-0.564 -1.412,-0.565 -1.129,0 -0.988,0.565 -0.706,0.423 -0.848,1.554 -0.988,1.129 -1.129,1.412 -1.13,0.142 -1.271,0 -1.412,0 -0.141,-0.565 -0.283,-0.847 0.142,-1.13 -0.706,-1.977 -0.847,-0.988 -1.13,-0.706 -0.988,-0.706 -1.13,-0.282 -0.847,-0.282 -1.13,0.142 -0.988,0.282 -0.988,0.424 -1.412,0.705 -0.847,0.424 -0.424,0.848 0,1.835 0.142,0.706 -0.142,0.847 -0.988,0 -0.988,-0.423 -0.847,-0.424 -0.988,-0.564 -0.706,-0.282 -1.271,-0.565 -1.271,0 -1.694,-0.141 -0.988,0 -1.13,0.564 -1.271,0.847 -1.13,0.848 -0.847,1.13 -0.848,0.282 -0.847,0.423 -0.848,0.424 -0.847,0.706 -1.271,0.706 -1.412,0.847 -1.553,0.848 -1.694,0.706 -0.988,0.141 -0.565,-0.141 -0.564,-0.282 -1.13,-0.424 -1.129,-0.848 -0.988,-0.423 -0.848,0.141 -1.129,0.282 -0.565,0 -0.564,-0.141 -0.847,-0.142 -1.694,-0.706 -1.554,-0.564 -1.553,-0.564 -1.412,-0.424 -1.553,-1.13 -0.706,-0.423 -0.424,-0.565 -0.141,-0.847 -0.142,-0.424 -0.706,-0.424 -0.706,-0.564 -0.705,-0.424 -0.424,-0.423 -0.706,-0.706 -0.706,-0.706 -0.988,-0.142 -0.847,-0.141 -0.706,-0.142 -0.706,-0.564 -1.13,-0.282 -0.282,0.141 -1.13,0.282 -1.553,0.706 -0.706,-0.141 -0.847,-0.282 -1.412,0.141 -2.259,0 -1.694,0.142 -2.541,-0.142 -1.694,-0.424 -0.848,-0.423 -0.706,-0.848 -1.271,-1.411 -0.424,-0.706 -0.282,-0.988 -0.706,-1.554 0.283,-1.129 -1.412,-3.671 -0.565,-1.13 -1.411,-1.553 -1.13,-1.13 -0.988,-0.706 -1.13,-0.282 -0.423,-0.141 0.141,-0.989 -0.282,-0.564 -0.988,-0.847 -1.129,-0.565 -0.989,0 -2.399,0 -1.412,-0.141 -1.694,0 -1.271,0.141 -1.836,-0.141 -1.129,0 -1.412,0 -1.271,0.141 -1.271,0.142 -1.13,0.424 -1.271,0.282 -0.848,0 -1.977,0.141 -1.129,0 -1.13,0.283 -0.564,0.564 -0.848,0.847 -1.977,1.554 -1.694,1.129 -0.988,0.282 -1.553,0.424 -3.952,0 0.988,-2.965 0,0 0,-1.694 0,0 0,-2.117 0,0 0,-1.836 0,0 0,-2.118 0,0 -0.282,-1.271 0,0 -0.706,-1.694 0,0 -1.13,-1.694 0,0 -1.835,-2.399 0,0 -1.694,-1.836 0,0 -3.247,-2.683 0,0 -1.13,-0.988 -0.142,0 -1.693,-4.095 0.282,-2.823 0,0 1.411,-2.541 0.142,0 4.095,-2.966 0,0 3.671,-1.271 0,0 3.389,-1.835 0,0 2.117,-1.271 0,0 4.377,-4.095 0,-0.142 3.529,-3.953 0,0 1.554,-1.835 0,0 2.117,-3.389 0,0 0.988,-2.4 0,0 4.519,-3.812 0,0 1.694,-2.26 0,0 2.259,-4.8 0,0 0.988,-4.519 0,0 1.553,-4.094 0,0 1.271,-3.813 0,0 0,0 1.553,-3.529 0,0 2.259,-2.965 0,0 1.977,-3.954 0,0 1.977,-2.259 0,0 2.683,-2.259 0,0 1.694,-1.412 0,0 3.247,-2.259 0,0 2.683,-1.977 0,0 4.095,-1.835 0,0 2.965,-2.26 0,0 1.412,-1.271 0,0 2.823,-4.377 0,0 2.542,-3.529 0,0 1.977,-2.118 0,0 1.835,-1.553 0,0 2.259,-2.118 0,0 1.554,-1.694 0.141,0 1.694,-2.399 0,0 0.565,-1.271 0,0 0.141,-1.694 0,-0.141 -0.706,-2.4 0,0 -0.423,-1.553 0,0 0.423,-2.4 0,-0.142 0.282,-1.694 0,-0.141 -0.282,-2.683 0,0 -0.141,-1.836 0,0 0.988,-1.835 0.141,0 1.13,-0.424 0.141,0 1.694,-0.424 0,0 1.13,-1.411 0,-0.142 0.424,-1.553 0,-0.142 0.706,-0.847 0.141,-0.142 1.694,-0.282 0,0 1.694,0.282 0,0 1.271,0.565 0,0 1.554,-0.142 0.141,0 2.259,-2.683 0,0 1.271,-2.541 0,0 1.411,-1.412 0,0 0.565,-0.988 0.141,-0.142 1.271,-0.423 0,0 1.554,-1.13 0,0 1.411,-0.988 0.142,0 0.988,-2.118 0,0 1.977,-1.553 0,0 2.118,-1.412 0,0 2.541,-1.129 0,0 2.541,-1.271 0,0 2.542,-1.129 0,0 1.553,-0.424 0,-0.142 0,-1.977 0,0 0,-1.977 0,-0.141 0.564,-2.4 0,0 0.989,-1.836 0,0 0.564,-1.271 0,0 0.847,-2.965 0,0 2.118,-2.683 0,0 2.541,-2.823 0.142,0 0.847,-2.824 0,0 1.412,-3.671 0,0 0.706,-2.541 0,0 0.564,-2.259 0,-0.142 -0.282,-2.4 0,0 0.564,-3.529 0,-0.142 0.142,-0.564 0,0 0.142,-2.683 0,0 0,-3.106 0,-1.835 0,0 -0.706,-1.977 0,0 -1.271,-2.683 0,0 -0.141,-1.553 0,0 0,0 0,-1.836 0.141,0 1.412,-1.412 0,0 2.683,-1.129 0.142,0 3.389,-0.565 0,0 2.399,-0.423 0.142,0 1.271,-0.424 0,0 1.694,-1.412 0,0 2.118,0.142 0,0 2.259,1.129 0,0 2.118,1.836 0,0 3.529,2.118 0.142,0 3.529,1.835 0,0 6.212,2.259 0,0 1.271,0.424 4.659,1.412 0,0 6.213,0.988 0,0 3.671,-0.988 0,0 2.965,-2.26 0,0 2.259,-2.399 0,-0.142 0.706,-1.835 0,0 -0.282,-0.988 0,-0.142 -1.836,-2.259 0,0 -2.259,-2.965 0,0 -0.141,-2.4 0,0 -1.13,-6.071 0,0 -0.142,-4.235 0,0 0.565,-5.506 0,0 1.271,-6.354 0,0 0.988,-3.671 0,0 1.129,-3.53 0,0 2.966,-3.247 0,0 2.683,-1.977 0,0 2.399,-2.4 0,0 2.965,-1.271 0,0 3.106,-1.271 0,0 3.953,-1.271 0,0 3.247,-0.424 0.142,0 2.4,-1.835 0,0 3.247,-3.671 0,0 1.977,-2.682 0.142,0 1.553,-1.13 0,0 1.836,-1.835 0,0 2.117,-2.4 0,0 1.836,-1.977 0,0 1.977,-2.4 1.977,-2.259 0,0 1.412,-1.271 0,0 2.823,-1.271 0,0 2.965,-1.835 0,0 2.542,-1.129 0,0 3.247,-0.565 0,0 2.823,-0.282 0,0 2.26,-0.565 0,-0.141 2.117,0 0,-0.141 0.988,-0.706 0.142,0 1.693,-3.953 0,0 1.13,-1.553 0,0 1.694,-2.259 0.142,0 2.399,-0.141 0,0 2.965,0.423 0,0 1.694,0.282 0.142,0 2.259,-1.129 0,0 2.683,-1.977 0,-0.141 3.389,-1.412 0,-0.141 1.412,-1.271 0,0 2.259,-1.977 0,0 0.847,-1.271 0.142,-0.141 1.553,-0.564 0.142,0 1.694,-2.118 0.141,-0.141 0.142,-2.118 0,0 -0.142,-4.094 0,0 -0.282,-2.259 0,0 -0.706,-2.683 0,0 -0.847,-1.977 0,0 -0.706,-1.553 0,0 -0.988,-2.682 0,0 -0.282,-2.259 0,0 0.423,-1.977 0,0 0.989,-2.118 0,-0.141 -0.142,-1.412 0,-0.141 0.988,-1.271 0,0 1.553,-0.706 0,0 1.977,-0.706 0,0 1.977,-1.694 0,0 2.4,-1.129 0,0 2.259,-1.553 0,0 2.824,-1.977 0,0 3.953,-3.671 0,0 1.836,-2.541 0,0 1.693,-3.671 0,0 2.4,-4.659 0,-0.565 0,0 2.118,-4.236 0,-0.141 1.13,-2.542 0,0 0.705,-3.529 0,0 2.4,-5.083 0,0 1.977,-6.777 0.282,-0.706 0,0 2.824,-6.636 0,0 2.259,-4.094 0,0 1.271,-1.694 0.142,-0.141 0.424,-2.824 0,-0.142 1.411,-2.683 0,0 0.706,-1.553 0,0 0.282,-2.965 2.966,-1.271 2.117,-0.282 1.836,0.141 1.694,0.424 2.541,0.423 1.977,0.282 1.694,0.283 1.412,0 2.683,0.141 1.129,-0.141 1.271,-0.283 1.412,-0.564 1.13,-0.565 0.988,-0.423 1.271,-0.565 0.988,-0.282 0.988,-0.706 0.847,-0.847 0.706,-0.988 1.271,-1.694 1.271,-1.835 0.847,-1.271 1.554,-2.259 1.693,-1.553 1.412,-1.694 0.988,-1.271 0.848,-1.694 0.706,-1.835 0.705,-2.118 0.142,-1.553 0.142,-2.965 -0.142,-2.4 0,-1.694 0,-1.835 0.142,-1.835 0.141,-1.412 0.424,-1.412 0.424,-1.271 1.553,-2.542 1.553,-2.542 1.412,-1.835 1.412,-1.694 1.553,-1.271 2.824,-2.118 2.117,-0.847 2.542,-0.847 2.683,-0.988 4.094,-1.271 3.953,-0.988 2.4,-0.565 1.694,-0.706 1.412,-0.706 1.694,-0.988 1.977,-1.129 1.412,-0.706 1.411,-0.706 1.13,-0.988 0.988,-1.553 1.13,-1.835 0.847,-1.694 0.848,-2.683 1.693,-3.671 1.694,-3.388 1.554,-2.965 2.4,-3.67 1.835,-3.53 1.694,-3.671 0.988,-2.118 0.988,-1.977 1.412,-2.118 2.541,-3.388 2.824,-2.683 3.529,2.259 0,0 1.553,2.259 0,0 1.554,0.988 0,0 0.706,2.118 0,0 1.693,3.106 1.694,3.248 0.142,0 2.4,1.835 1.835,1.694 0.142,0 3.105,0.283 0,0 4.236,0.141 0,0 2.259,0.282 0,0.141 1.977,0.988 0,0 1.13,0.424 0.141,0 1.694,1.129 0,0 2.118,1.835 0,0 0.988,0.847 0,0 1.412,0.988 0,0 2.399,0.706 0,0 2.4,0.282 0,0 3.813,0 0,0 4.377,-0.564 0,0 3.105,-0.424 0,0 2.824,-0.847 0,-0.141 1.271,-0.706 0,0 3.106,-3.812 0,0 1.977,-2.824 0,0 1.694,-2.118 0,0 1.411,-2.542 0,0 0.848,-1.412 0,-0.141 1.271,-0.706 0,0 1.694,-0.424 0,0 1.694,-0.282 0,0 0.988,-0.141 0.141,0 2.118,-1.553 0,0 2.259,-1.694 0,0 1.694,-0.706 0,0 2.542,0 0,0 2.259,0.706 0,0 1.412,0.847 0,0 1.693,0.988 0,0 1.554,1.129 0,0 1.129,0.424 0.142,0 1.412,-0.282 0,0 1.271,-0.706 0,-0.141 0.564,-1.412 0,-0.141 -0.564,-1.977 0,0 0,-1.553 0,-0.141 -0.706,-0.565 0,0 -2.118,-1.412 0,0 -0.988,-0.847 0,0 -0.423,-1.553 0,0 0,-1.271 0,0 0.564,-0.847 0,0 1.13,-0.988 0.141,0 0.988,0 0,0 2.118,0.141 0,0 2.823,0.847 0,0 1.694,0.423 0,0 1.977,0.989 0,0 2.542,2.259 0,0 1.835,1.129 0.142,0 2.108,0.288 z"
       inkscape:connector-curvature="0"
       class="DEP_08 ZON_03" /></g></svg>