<?xml version="1.0" encoding="UTF-8" standalone="no"?>
<!-- Generator: Adobe Illustrator 16.0.0, SVG Export Plug-In . SVG Version: 6.00 Build 0)  -->

<svg
   xmlns:dc="http://purl.org/dc/elements/1.1/"
   xmlns:cc="http://creativecommons.org/ns#"
   xmlns:rdf="http://www.w3.org/1999/02/22-rdf-syntax-ns#"
   xmlns:svg="http://www.w3.org/2000/svg"
   xmlns="http://www.w3.org/2000/svg"
   xmlns:sodipodi="http://sodipodi.sourceforge.net/DTD/sodipodi-0.dtd"
   xmlns:inkscape="http://www.inkscape.org/namespaces/inkscape"
   version="1.1"
   id="SvgMunicipio"
   x="0px"
   y="0px"
   width="625.139px"
   height="1000.013px"
   viewBox="64.609 118.246 625.139 1000.013"
   enable-background="new 64.609 118.246 625.139 1000.013"
   xml:space="preserve"
   inkscape:version="0.91 r13725"
   sodipodi:docname="MUN_ID0811.svg"><metadata
     id="metadata10"><rdf:RDF><cc:Work
         rdf:about=""><dc:format>image/svg+xml</dc:format><dc:type
           rdf:resource="http://purl.org/dc/dcmitype/StillImage" /></cc:Work></rdf:RDF></metadata><defs
     id="defs8" /><sodipodi:namedview
     pagecolor="#ffffff"
     bordercolor="#666666"
     borderopacity="1"
     objecttolerance="10"
     gridtolerance="10"
     guidetolerance="10"
     inkscape:pageopacity="0"
     inkscape:pageshadow="2"
     inkscape:window-width="682"
     inkscape:window-height="480"
     id="namedview6"
     showgrid="false"
     inkscape:zoom="0.23599693"
     inkscape:cx="312.56949"
     inkscape:cy="500.0065"
     inkscape:window-x="0"
     inkscape:window-y="0"
     inkscape:window-maximized="0"
     inkscape:current-layer="svg" /><g
     id="g3"><path
       id="MUN_0811"
       d="m 416.288,264.147 172.467,211.894 88.132,134.938 11.174,14.126 1.266,4.006 0.421,3.163 -0.632,2.529 -1.266,2.319 -2.319,2.319 -1.054,1.055 -1.687,4.217 -0.633,3.162 0,2.53 0.422,2.319 -0.844,2.53 -1.687,3.373 -0.422,2.741 -0.633,2.53 0.633,8.012 -0.633,4.639 -0.421,6.325 -1.477,10.963 0.211,3.796 -0.421,9.065 0,5.482 -0.211,5.481 1.897,10.542 0,5.903 0.843,4.217 1.055,7.591 2.108,8.434 1.687,10.331 0.422,6.746 1.265,14.338 0,2.529 2.319,8.855 0,6.958 -1.054,4.639 -2.108,4.428 0.211,4.217 0.421,2.529 -0.421,1.477 -1.898,2.319 -1.476,1.687 -2.319,1.476 -2.74,1.055 -2.741,1.476 -3.585,4.428 -3.373,4.428 -3.373,3.584 -2.108,6.747 -1.266,6.536 -1.476,4.428 -7.801,10.752 -6.536,4.639 -13.072,6.747 -9.487,4.639 -13.494,5.06 -6.747,0.422 -5.06,1.897 -1.898,4.217 -0.632,6.114 -7.169,13.072 -6.325,15.813 -2.319,3.795 -1.897,5.692 -1.476,6.536 -0.211,8.855 -0.422,10.12 0.633,6.536 -2.108,5.903 -5.271,13.916 -2.529,8.854 -1.477,8.223 -2.108,6.325 -0.843,2.53 -2.952,6.747 -3.795,8.012 -1.055,4.428 0.633,5.482 1.476,4.006 -13.915,-12.439 -8.223,-8.645 -16.445,-8.223 -11.175,-9.488 -13.072,-7.169 -19.397,-3.373 -9.487,-3.795 -4.639,-10.542 -12.439,-8.855 -11.596,-4.006 -11.386,1.055 -25.512,2.107 -28.885,0.844 -26.355,1.687 -11.385,4.217 -39.427,-1.054 -0.211,0 2.108,4.006 0.843,4.639 -0.21,4.006 -0.422,4.217 1.054,3.795 3.374,5.481 1.897,5.693 -0.422,5.271 -2.108,5.482 -4.428,9.487 1.897,10.331 1.266,4.428 3.162,2.952 7.801,3.795 5.271,6.114 0.843,3.373 -1.687,3.796 0.844,6.535 -7.169,9.488 -1.897,5.271 -0.422,1.266 -193.34,24.246 -25.512,3.374 0,-3.374 0,0 0,0 0,0 0,0 0,0 0,-0.211 4.217,-6.325 0,0 0,0 4.217,-5.481 0,0 0,0 0,0 0,0 0,0 0,0 2.319,-6.958 0.422,-6.536 0,0 0,0 0,-0.21 0,0 -0.633,-4.217 -0.211,-1.266 0,0 0,0 0,0 0,0 0,0 0,0 0.211,0 0,0 0,0 0,0 0,0 2.319,-4.639 0,0 0,0 0,0 0,0 0,0 0,-0.211 3.163,-1.897 0,0 0,0 0,0 0,0 0,0 0,0 1.897,-2.951 0,0 0.211,0 0,0 0,0 0,0 0,0 0,0 0.421,-9.699 0,0 0,0 0,0 -0.21,-3.162 0,0 -1.898,-5.482 0,0 -3.162,-8.854 -1.897,-8.223 -0.211,-9.066 0.211,-6.747 0,0 0,0 0,0 0,0 -1.055,-4.85 0,0 0,0 -2.108,-4.428 -3.795,-5.06 0,0 -2.108,-4.85 0,0 -0.843,-5.903 0,0 0,0 0,0 0,-0.211 0,0 0,0 0,0 1.897,-6.325 0.421,-3.162 -0.421,-2.319 -2.952,-4.006 -5.692,-4.639 0,0 0,0 0,0 -5.061,-6.114 -3.795,-5.903 -2.108,-4.007 -3.162,-8.012 0,0 0,0 0,0 -0.211,-5.271 0,0 0,0 0,0 0,0 0,0 0,0 2.108,-3.585 4.638,-4.427 0.211,0 0,0 6.747,-3.585 0.844,-0.632 0,0 0,0 0,0 10.12,-5.904 0,0 2.319,-0.843 0,0 0,0 0,0 0,0 0,0 0,0 0,0 6.325,-8.012 0,0 4.217,-3.796 2.74,-0.843 1.898,-6.747 2.108,-4.217 8.012,-5.692 0.211,0 0,0 0,0 0,0 0,0 1.265,-2.319 0,0 2.108,-7.591 0,0 0,0 3.584,-10.963 0,0 1.055,-8.224 0,-6.957 -2.319,-12.861 0,0 0,0 -0.633,-11.386 0,0 0,0 -2.53,-14.548 0,0 0,0 0,0 0,0 -0.843,-10.753 0,0 0,0 0,0 0,0 0,0 0,0 0,0 0,0 0,0 -0.211,0 0,0 0,0 0,0 -5.692,-4.217 0,0 0,0 0,0 -6.958,-3.373 0,0 0,0 0,0 0,-0.211 -0.211,0 0,0 0,0 0,0 -4.428,-8.012 0,0 0,0 0,0 0,0 0,0 -1.054,-7.38 0,0 0,0 0,0 0,0 0,0 0,0 0,0 0,0 0,0 -5.693,-6.114 0,0 0,0 0,0 0,0 0,0 0,0 0,0 0,0 -1.054,-7.168 0,0 0,-0.211 -4.006,-9.699 0,0 0,0 -0.633,-7.59 0,0 0,0 0,0 0,0 0,0 0.211,0 0,0 0,0 7.379,-9.909 0,0 0.211,0 3.585,-7.169 0,0 0,0 0,0 0,0 0,0 0,0 0,-0.211 0,0 8.012,-5.481 0,-0.211 11.807,-11.597 0,0 0,0 10.753,-10.331 0,0 16.024,-16.023 0,0 0,0 0,0 6.957,-8.855 0,0 10.964,-7.379 0,0 0,0 0,0 13.283,-10.542 0,0 15.391,-12.439 0,-0.211 6.536,-7.169 0,0 0,0 0,0 0,-0.211 0,0 0,0 0,0 0,0 0,0 0,0 0,0 0,0 0,0 0,0 0,0 0,0 -3.162,-3.373 0,0 -8.645,-8.223 0,0 0,0 -5.271,-7.802 0,0 0,0 -5.06,-6.325 -1.897,-8.645 -5.482,-7.801 0,0 0,0 0,0 -4.849,-5.692 -0.211,0 -2.319,-4.639 0,0 -5.271,-9.698 0,0 -4.849,-6.114 0,0 0,0 0,0 0,0 0,0 0,0 -1.897,-6.747 0,0 0,0 0.421,-8.012 0,0 0,-0.211 0,0 0,0 0,0 0,0 3.374,-6.114 0,0 4.217,-7.38 0,0 0,0 0,0 0,0 4.217,-6.114 0,0 0,0 0,0 0,0 0,0 0,0 0,0 3.373,-1.687 3.374,-1.476 0.632,-3.796 -0.422,-4.428 0,-3.584 0.211,-4.006 0,0 0,0 0,0 -2.108,-11.175 0,0 0,0 -1.687,-7.379 0,0 -2.741,-5.903 0,0 0,0 0,0 0,0 -2.529,-8.013 0,0 -0.211,-4.427 -0.844,-1.898 -1.054,-0.421 0,-0.208 -0.211,0 -2.741,0.632 -1.687,0.422 -1.476,-1.687 -1.477,-2.741 0,-0.211 -1.265,-5.271 0,0 -0.844,-13.283 0,0 0,0 0,0 0.633,-5.481 0,-0.211 1.476,-4.639 0,0 0.422,-5.903 0,0 0,0 0,0 0,0 0,0 -2.741,-4.85 0,-0.211 -4.638,-4.427 0,0 0,0 0,0 0,0 0,0 0,0 -1.477,-4.217 -0.211,-5.693 0,0 0,0 0,0 0,0 -0.421,-2.951 -1.688,-3.796 -3.795,-6.535 -2.108,-5.482 0,-0.211 -0.422,-4.217 0,0 0,0 0,0 0,0 0.211,-3.162 0,0 0,-0.211 0,0 0,0 -0.843,-2.319 0,0 0,0 -1.055,-2.319 0,-0.211 -0.422,-4.428 -2.108,-1.897 -3.373,-1.897 -0.844,-1.054 -0.421,-2.53 0,0 0,0 0,0 0,0 0.21,0 0,-0.211 0,0 0,0 1.688,-2.952 1.897,-2.53 -0.633,-1.476 -1.476,-0.632 -1.055,-1.687 0,-2.321 0,0 0,0 0,0 0,0 0,-0.211 0,0 0,0 0,0 1.687,-3.584 0,0 0,0 0,0 0,0 0,0 3.585,-3.373 2.108,-1.687 2.319,-2.741 0,-3.163 2.319,-2.741 0,0 0,0 3.162,-4.217 0,0 2.53,-3.584 0,0 0,0 5.271,-7.379 0,0 2.952,-5.482 0,0 0,0 0,0 0,0 0,0 1.476,-1.265 1.055,-2.53 0,-4.217 0.632,-3.374 0,0 0,0 1.477,-7.379 0,0 0,0 0,0 0,-0.211 0,0 0,0 0,0 -0.633,-2.319 -2.53,-4.217 -2.108,-3.795 0,0 0,0 0,0 0,0 0,0 0,0 -0.211,-2.319 -0.421,-4.217 -1.055,-3.163 -1.897,-2.741 0,0 0,0 0,0 0,0 0,-0.211 0,0 0,0 0,0 -2.952,-1.265 -2.108,-2.319 -6.325,-5.481 0,0 0,0 0,0 0,0 0,0 -1.265,-3.374 0,0 0,0 -4.217,-7.379 0,-0.211 0,0 -2.319,-2.952 0,0 0,0 0,0 0,0 -0.211,0 0,-0.211 0,0 0,0 0,0 0,0 0,0 -9.487,-0.843 -3.163,-1.687 -2.108,0.211 -1.476,1.687 -0.422,2.952 -1.054,1.265 -1.688,-0.422 -1.687,-1.265 0,0 0,0 0,0 0,0 -0.211,0 0,0 -2.108,-4.217 0,0 0,0 0,0 0,0 -2.319,-3.584 -0.211,-2.53 -0.632,-3.584 -1.266,-4.006 -1.265,-4.006 0.422,-2.952 0,0 0,-0.211 0,0 -0.422,-2.53 0,0 0,0 0,0 -0.211,0 0,0 0,0 0,0 -1.687,-1.265 0,0 -7.38,-8.223 0,0 0,0 -0.211,0 0,0 0,0 0,0 0,0 0,-0.211 0,0 0,0 0,0 0,0 0.211,0 1.688,-2.319 3.584,-4.639 0,0 3.584,-7.379 0,0 9.488,-16.445 0,0 0,0 0,0 0,0 5.481,-12.018 0,0 0,0 0,0 9.277,-16.867 0,0 13.915,-25.09 0,0 0,0 21.928,-36.264 235.718,133.883 21.297,12.018 z"
       inkscape:connector-curvature="0"
       class="DEP_08 ZON_03" /></g></svg>