<?xml version="1.0" encoding="UTF-8" standalone="no"?>
<!-- Generator: Adobe Illustrator 16.0.0, SVG Export Plug-In . SVG Version: 6.00 Build 0)  -->

<svg
   xmlns:dc="http://purl.org/dc/elements/1.1/"
   xmlns:cc="http://creativecommons.org/ns#"
   xmlns:rdf="http://www.w3.org/1999/02/22-rdf-syntax-ns#"
   xmlns:svg="http://www.w3.org/2000/svg"
   xmlns="http://www.w3.org/2000/svg"
   xmlns:sodipodi="http://sodipodi.sourceforge.net/DTD/sodipodi-0.dtd"
   xmlns:inkscape="http://www.inkscape.org/namespaces/inkscape"
   version="1.1"
   id="SvgMunicipio"
   x="0px"
   y="0px"
   width="961.59px"
   height="1000.011px"
   viewBox="64.7 118.166 961.59 1000.011"
   enable-background="new 64.7 118.166 961.59 1000.011"
   xml:space="preserve"
   inkscape:version="0.91 r13725"
   sodipodi:docname="MUN_ID0814.svg"><metadata
     id="metadata10"><rdf:RDF><cc:Work
         rdf:about=""><dc:format>image/svg+xml</dc:format><dc:type
           rdf:resource="http://purl.org/dc/dcmitype/StillImage" /></cc:Work></rdf:RDF></metadata><defs
     id="defs8" /><sodipodi:namedview
     pagecolor="#ffffff"
     bordercolor="#666666"
     borderopacity="1"
     objecttolerance="10"
     gridtolerance="10"
     guidetolerance="10"
     inkscape:pageopacity="0"
     inkscape:pageshadow="2"
     inkscape:window-width="682"
     inkscape:window-height="480"
     id="namedview6"
     showgrid="false"
     inkscape:zoom="0.23599741"
     inkscape:cx="480.79501"
     inkscape:cy="500.00549"
     inkscape:window-x="0"
     inkscape:window-y="0"
     inkscape:window-maximized="0"
     inkscape:current-layer="svg" /><g
     id="g3"><path
       id="MUN_0814"
       d="m 745.418,585.182 0.53,1.59 1.192,1.855 0,2.782 0.529,2.252 0.795,1.723 0.266,1.987 0.132,2.385 0.795,1.722 0.795,1.987 0.928,2.12 1.59,1.723 1.987,1.722 0.133,0.133 0.795,1.325 1.457,0.795 1.723,0.397 1.06,0.927 0.928,2.12 0.529,1.723 0.928,2.517 0.133,0.928 1.06,1.192 0.662,0.928 0,0.132 -0.265,3.313 0.397,1.325 1.457,1.59 1.458,1.457 1.854,0.662 3.047,0.928 0,0 3.843,1.854 0.132,0 2.782,1.723 0,0 2.385,1.987 2.518,1.192 2.782,1.325 3.18,2.517 3.71,2.518 0,0 3.047,3.18 0,0 2.252,1.987 0,0 1.458,2.12 1.854,2.517 1.987,5.83 0,0 2.649,7.021 0.133,0.133 9.009,3.312 0,0 3.18,0 0.133,0 3.313,1.458 3.709,2.252 0,0 2.12,0.928 2.385,0.265 2.385,0.133 6.624,3.047 0,0 4.107,1.723 2.518,0.529 3.047,-0.265 2.252,0.662 1.192,0.133 2.385,-0.53 1.855,0.133 2.649,0.53 2.252,-0.397 0,0 3.71,-1.061 3.18,-0.265 2.649,0.265 2.518,1.192 3.975,0.795 1.325,0.397 1.324,-0.132 3.048,2.119 2.252,2.385 0.662,1.59 0.53,0.53 1.987,-0.397 2.649,0 0.133,0 3.18,1.987 0,0 1.723,2.12 0,0 1.722,2.517 0.133,0 1.192,1.192 2.518,0.928 1.987,1.06 1.59,1.59 0,0 1.722,1.855 0,0 2.12,3.18 0,0 1.06,2.119 1.987,3.048 2.385,0.132 1.855,0.133 2.517,1.854 1.325,-0.132 0,0 1.59,-1.061 1.325,-1.324 0,0 2.649,-0.663 0.133,0 3.975,-0.132 0,0 4.106,0 2.518,0.265 2.252,1.192 1.458,1.325 1.192,0.927 -0.397,2.518 -0.133,2.252 0,0 0.397,2.12 1.06,1.723 1.987,1.987 1.061,1.722 0,0 0.662,1.987 0,3.313 -0.53,2.782 0.133,0.928 0,0.132 4.372,6.492 0,0 0.928,1.325 2.385,0.927 2.914,0.53 1.723,1.457 0.133,1.855 0,0 -1.855,5.034 0,0 -1.722,2.518 0,0 0.265,1.854 1.457,3.047 0,0 2.385,3.048 0,0 2.12,3.047 0,0 0.53,1.723 -1.723,2.782 -1.457,3.18 -2.12,3.709 -1.457,3.18 0,0.133 1.06,1.192 0.133,0 2.649,1.59 0,0 2.385,2.385 0,0 1.457,1.59 0,0 2.385,1.723 1.59,2.119 0.133,0 0.928,3.048 1.854,2.119 0,0.133 4.637,3.313 0,0 0.928,0.397 0.133,0 2.385,0.662 0,0 3.18,-0.133 0,0 1.987,0.53 0.927,0.397 1.325,0.133 0.53,1.192 -0.133,1.324 1.06,1.59 0.397,2.65 0.795,1.324 0.397,1.325 0,0 -0.529,2.252 0.132,0.133 0.266,1.723 0,0 1.192,1.192 2.252,0.795 2.252,-0.663 1.59,0.397 0.53,0.928 -0.133,1.59 -0.927,3.313 0.132,0.132 0.663,1.458 0,0.132 1.06,1.061 2.385,0.662 1.723,-0.265 0,0 2.385,1.324 0,0 1.06,0.663 0.133,0 0.795,1.59 0,0 -0.397,3.709 0,0.133 0,0 0.265,1.457 0.928,1.325 5.034,1.723 3.842,0.927 1.59,3.843 0.133,0 1.06,0.927 0,0 3.048,2.518 0,0 1.59,1.723 0,0 1.722,2.252 0,0 1.061,1.59 0,0 0.662,1.59 0,0 0.265,1.192 0,0 0,1.987 0,0 0,1.723 0,0 0,1.987 0,0 0,1.59 0,0 -0.927,2.782 -0.928,8.214 0,0 0,0.265 -0.133,1.723 0,0 0.133,0.397 0,0 0.397,2.915 0,0 0.265,1.59 0,0 0.266,5.034 -0.397,3.577 0,0 -0.53,1.723 0,0.132 -2.252,0.663 0,0 -1.458,2.649 0,0 -0.529,2.915 0,0 -0.397,0.927 0,0 -2.12,2.782 -0.133,0.133 -2.914,1.325 0,0 -3.843,1.59 0,0 -5.564,1.457 0,0 -4.77,1.59 0,0 -1.324,0.53 -1.855,-2.518 -0.795,-1.192 -0.397,-1.06 -0.397,-2.12 -0.265,-1.325 -0.397,-0.529 -0.795,-0.663 -0.397,-0.397 0,0 -0.133,-1.06 0.266,-0.795 -0.133,-0.133 -0.53,-0.397 -0.795,-0.397 -0.795,0 -0.927,0 0,0 -1.061,-0.795 -1.59,-0.662 -0.795,-0.53 -1.324,-0.662 -0.133,0 -0.397,0 -0.133,0 -0.927,-0.795 -0.53,-0.795 -0.53,-0.928 -0.397,-1.06 -0.132,-1.06 0.265,-0.53 0,-0.265 0,0 -0.795,-1.458 -0.265,-0.662 0,-1.192 0.265,-1.987 -0.397,-0.928 -0.265,-0.795 -0.133,-1.854 0,-2.518 -0.133,-0.662 -0.529,-0.928 -0.397,-0.662 -0.928,-0.397 -0.662,-0.133 -0.663,0.133 -0.795,0.397 -0.397,0.133 -0.132,0 -1.458,-0.663 -0.927,-0.529 -0.53,-0.266 -1.06,0 -1.59,0 -1.192,-0.397 -0.53,-0.397 -0.133,-0.132 0,-0.53 0.133,-2.12 -0.397,-1.59 -0.265,-0.795 -0.266,-0.529 -0.795,-0.795 -0.662,-0.795 -0.53,-0.397 -0.662,-0.53 -1.192,-0.928 -0.662,-0.397 -1.192,-1.324 -0.53,-1.061 -1.06,-0.795 -0.397,-0.265 -0.928,-0.662 -0.928,-0.266 -0.397,-0.397 -0.927,-0.795 -0.928,-0.927 -1.06,-0.795 -0.663,-0.53 -1.06,-0.265 -1.192,-0.663 -1.59,-0.662 -1.723,-0.928 -1.59,-0.662 -1.722,-0.662 -1.59,-0.795 -1.987,-1.192 -1.325,-1.192 -1.192,-1.192 -0.795,-0.795 -0.662,-0.663 -0.928,-1.06 -1.325,-1.457 -1.457,-1.192 -1.987,-1.59 -1.325,-0.795 -0.662,-0.397 -1.06,-0.795 -0.928,-1.061 -0.928,-0.927 -0.662,-0.795 -1.06,-1.458 -0.397,-1.324 -0.53,-0.663 -0.53,-0.132 -0.662,-0.266 -1.457,-0.132 -1.723,0.132 -1.59,-0.662 -1.723,-0.795 -1.192,-0.265 0,-0.133 -0.662,-0.928 -1.192,-1.59 -0.53,-1.06 -0.265,-1.59 0,-1.59 -0.133,-1.325 -0.397,-1.06 -0.795,-0.928 -0.927,-0.265 -0.663,-0.265 -1.324,-0.133 -1.192,-0.662 -0.663,-0.53 0,0 -0.397,-0.662 -0.132,-0.663 0,-1.854 0.132,-1.59 0,-2.518 -0.132,-2.782 0.132,-2.385 -0.265,-1.192 0,0 -0.662,-0.529 -0.663,-0.53 -1.192,-0.133 -1.06,-0.132 -1.06,-0.53 -0.663,-0.265 -0.795,-0.795 -0.265,-0.53 -0.265,-0.795 -0.795,-1.192 0,-0.133 0.132,0 -0.397,-0.529 -0.662,-0.663 0.133,0.266 -0.663,-0.53 -0.397,-0.133 -1.06,-0.927 -1.192,0 -1.192,-0.663 -0.928,-0.397 -0.795,-0.265 -0.662,-0.397 -0.928,-0.928 -0.529,-1.457 -0.53,-1.457 -0.265,-1.59 -0.133,-0.928 0,-0.928 -0.397,-0.927 -0.795,-1.061 -0.928,-0.397 -0.927,-0.132 -1.325,0 -0.795,-0.133 -0.928,0.133 -1.06,-0.133 -1.723,-0.662 -1.722,-0.397 -1.723,-1.061 -1.987,-1.06 -0.53,-0.397 -1.06,-0.53 -0.662,-0.397 -0.53,-0.132 -1.192,-0.53 -1.325,0.133 -1.854,-0.266 -1.325,-0.529 -0.927,-0.397 -1.458,-0.795 -0.662,-1.061 -0.53,-1.192 -0.529,-1.192 -0.133,-1.192 0,-1.59 -0.133,-1.457 -0.397,-1.457 -0.265,-0.928 -0.53,-1.59 -0.529,-1.192 -0.397,-1.325 -0.795,-0.795 -0.133,0 -1.457,0.133 -1.325,0.928 -0.133,0 -0.795,-0.133 -0.132,-0.133 -0.53,-1.06 -0.133,-0.53 0,-2.119 -0.132,-0.795 -0.53,-1.061 -0.928,-1.457 -1.722,-0.662 -1.723,-0.928 -0.662,-0.53 -1.192,-1.192 -0.928,-0.662 -1.192,-1.06 -1.457,-0.397 -1.325,-0.133 -1.987,0.397 -1.06,0.397 -1.325,-0.265 -2.12,-1.59 -1.324,-1.723 -1.325,-1.06 -1.854,-0.795 -1.325,-0.397 -2.12,-0.133 -1.722,0.265 -1.855,0.266 -1.722,-0.397 -1.192,0 -3.18,-1.061 -1.855,-0.795 -1.457,-0.397 -1.325,-0.529 0,0 -0.927,-1.192 -1.59,-0.928 -1.987,-1.192 -2.385,-0.53 -0.795,-0.662 -0.133,0 -0.265,-0.265 -0.53,-0.397 -0.397,-0.397 -0.928,-0.266 -0.795,-0.397 -1.192,-0.265 -1.324,-0.133 -1.325,0.266 -0.928,0.662 0,0 -3.975,0.133 -3.975,-3.843 -1.324,-3.047 -3.313,-2.915 -4.239,-4.637 -3.18,-2.385 -1.723,-1.854 -1.325,-1.723 -0.795,-3.975 -1.457,-0.662 -2.252,0 -1.855,0.132 -0.662,-0.397 -0.53,-1.06 0.397,-3.313 -1.192,-5.432 -3.577,-3.577 -5.034,-9.539 -5.564,-7.287 -3.18,-5.432 -3.444,-4.77 -2.782,-3.047 -1.59,-1.192 -1.59,-2.12 -4.638,-1.723 -2.782,-2.517 -2.649,-3.18 -2.252,-1.325 -2.915,-2.782 -2.782,-1.723 -1.987,-1.457 -1.723,-2.782 -1.59,-4.239 -4.901,-6.095 -7.685,-6.492 -14.971,-15.766 -7.154,-10.996 -12.587,-15.369 -198.352,155.667 0,0.132 -49.947,109.17 0.133,0.265 -0.133,0.662 0,0.795 0.133,0.397 0,0.53 0.397,0.795 0,0.662 0.132,0.397 0,0.663 0,0.529 0,0.397 -0.265,0.663 -0.265,0.397 -0.397,0.529 -0.397,0.663 -0.266,0.397 -0.397,1.06 -0.265,0.53 -0.53,0.529 -0.662,0.795 -0.662,0.53 -0.397,0.265 -0.663,0.397 -0.132,0.53 -0.397,0.397 -0.397,0.795 -0.266,0.662 -0.397,0.795 -0.265,0.663 -0.265,0.397 -0.397,1.06 -0.397,0.795 -0.266,0.795 -0.265,0.53 -0.265,0.662 0,0.662 -0.266,0.795 -0.397,0.53 -0.397,0.53 -0.662,0.529 -0.397,0.795 -0.662,0.795 -0.133,0.795 -0.133,1.061 -0.132,1.59 0,1.722 0,1.061 -0.133,1.192 -0.265,1.192 -0.266,1.59 -0.795,2.385 -0.662,2.119 -0.53,1.987 -0.795,2.385 -0.662,0.663 -1.06,-0.266 -1.192,-0.397 -0.133,0.133 -0.928,-0.133 -0.662,0.928 -1.854,1.854 -2.782,3.445 -0.928,0.662 -1.192,0.928 -2.12,1.457 -0.927,1.06 -1.061,0.928 -1.987,1.987 -1.854,2.518 -1.59,1.457 -4.372,4.239 -2.649,1.458 -4.505,1.192 -2.385,-0.397 -2.915,1.06 -0.927,0.397 -0.397,0.265 -0.663,0.397 -1.324,0.928 -1.458,0.795 -1.59,0.928 -2.517,1.854 -2.385,3.444 -2.253,2.65 -2.119,1.324 -0.133,0.397 -0.265,0.397 -0.928,1.723 -1.06,2.518 -1.458,0.265 -0.397,0.133 -2.517,0.927 -2.253,0.397 -2.385,-0.132 -1.457,-1.061 -0.795,-1.06 -0.265,-0.53 -0.663,-0.529 -1.06,-0.133 -0.53,0 -0.662,0 -1.325,0.133 -0.397,0 -0.795,-0.133 -0.795,-0.133 -0.397,0.266 -0.662,0.397 -0.53,0.529 -0.397,0.266 -0.662,0.397 0,0 -1.06,0.397 -107.182,23.582 -87.707,155.805 4.107,-19.873 0.795,-5.564 -0.795,-3.047 -1.723,-1.854 -1.324,-0.266 -1.458,-2.252 -2.119,-1.987 0,0 -1.325,-2.782 0,0 0.265,-3.975 0.795,-3.313 0.928,-0.795 1.06,-0.132 0.663,-0.53 1.324,0 1.987,-1.192 1.458,-1.854 1.324,-2.385 1.59,-0.53 1.987,0 2.782,-1.987 4.902,-4.902 0.133,0 1.324,-2.385 0.266,-1.06 0.795,-1.192 0.132,-2.12 -0.529,-2.649 -0.795,-3.047 0,-0.133 1.854,-2.385 1.59,-3.313 0,0 2.385,-4.372 0.795,-2.385 -0.928,-2.517 0,0 0.397,-8.215 0,0 0,-2.252 0,-0.133 2.518,-5.696 1.06,-4.107 0,0 0.133,-7.949 0,0 2.649,-4.77 0,-0.133 0,-2.119 -1.324,-2.385 -1.458,-0.928 -0.927,-2.915 0,-0.132 -0.133,-4.24 -1.06,-4.372 -0.266,-3.975 0.795,-3.047 -0.529,-6.227 0,0 -0.266,-4.107 -1.854,-3.577 -0.397,-1.723 0,0 -0.265,-1.987 0,0 -1.061,-4.372 0.266,-1.722 0.132,0 3.71,-6.492 0.662,-2.252 -0.927,-3.18 0.795,-2.915 0.397,-2.649 0,0 -0.663,-1.59 -3.047,-1.723 -1.59,-0.795 -1.06,-1.987 -0.266,-2.385 0,-0.133 0,-5.299 0,0 -5.696,-7.817 0,-0.132 0.265,-4.638 -0.662,-2.252 -1.458,-2.782 -1.06,-2.915 -0.265,-3.312 -0.53,-2.253 0,0 0.133,-4.901 0,0 -3.312,-3.04 -1.59,-2.649 -0.133,-2.915 1.458,-3.18 0,0 0,-3.312 -2.12,-4.77 0,0 10.201,-14.574 0,-0.132 0.663,-32.592 0,0 -8.215,-26.763 0,0 -5.962,-16.163 0,0 -14.44,-16.429 0,0 -8.612,-11.129 -0.662,-0.795 0,0 0,0 L 65.231,610.222 64.7,608.5 l 92.211,-490.334 408.987,229.732 3.444,1.854 0.662,0.397 1.061,3.842 0,0 0.397,5.83 0.132,0.132 5.3,4.24 0,0 3.313,2.782 0.132,0.132 0.397,3.445 0,0 0.53,3.18 0.133,0 3.709,3.312 0.133,0.132 0.397,4.637 0,0.132 3.444,3.047 0,0 4.24,3.709 0,0.133 -1.855,6.624 0,0 4.902,13.912 0,0 0.795,6.359 0,0 0.133,5.034 0,0.133 -1.855,3.709 0,0.133 3.577,7.949 0,0 4.902,7.552 0,0 3.71,6.492 0,0.132 -1.723,5.697 0,0.133 0,6.227 0,0 0.397,5.962 0,0 1.723,6.359 0,0 6.491,12.321 0,0 20.271,16.826 18.019,14.971 0,0.133 10.467,11.526 0.132,0 32.063,10.599 0,0 17.886,8.744 15.368,7.949 0,0 5.829,1.325 0.133,0.132 1.723,3.975 0.662,4.24 0.397,4.372 0,0.132 -0.265,3.445 0,0 0.662,3.842 0.133,0.133 1.06,1.59 1.192,1.59 1.325,2.119 2.782,2.65 0.927,1.324 0.133,0 z"
       inkscape:connector-curvature="0"
       class="DEP_08 ZON_03" /></g></svg>