<?xml version="1.0" encoding="UTF-8" standalone="no"?>
<!-- Generator: Adobe Illustrator 16.0.0, SVG Export Plug-In . SVG Version: 6.00 Build 0)  -->

<svg
   xmlns:dc="http://purl.org/dc/elements/1.1/"
   xmlns:cc="http://creativecommons.org/ns#"
   xmlns:rdf="http://www.w3.org/1999/02/22-rdf-syntax-ns#"
   xmlns:svg="http://www.w3.org/2000/svg"
   xmlns="http://www.w3.org/2000/svg"
   xmlns:sodipodi="http://sodipodi.sourceforge.net/DTD/sodipodi-0.dtd"
   xmlns:inkscape="http://www.inkscape.org/namespaces/inkscape"
   version="1.1"
   id="SvgMunicipio"
   x="0px"
   y="0px"
   width="1000.077px"
   height="969.313px"
   viewBox="64.625 118.169 1000.077 969.313"
   enable-background="new 64.625 118.169 1000.077 969.313"
   xml:space="preserve"
   inkscape:version="0.91 r13725"
   sodipodi:docname="MUN_ID0807.svg"><metadata
     id="metadata10"><rdf:RDF><cc:Work
         rdf:about=""><dc:format>image/svg+xml</dc:format><dc:type
           rdf:resource="http://purl.org/dc/dcmitype/StillImage" /></cc:Work></rdf:RDF></metadata><defs
     id="defs8" /><sodipodi:namedview
     pagecolor="#ffffff"
     bordercolor="#666666"
     borderopacity="1"
     objecttolerance="10"
     gridtolerance="10"
     guidetolerance="10"
     inkscape:pageopacity="0"
     inkscape:pageshadow="2"
     inkscape:window-width="1366"
     inkscape:window-height="705"
     id="namedview6"
     showgrid="false"
     inkscape:zoom="0.24347141"
     inkscape:cx="500.03851"
     inkscape:cy="484.65649"
     inkscape:window-x="-8"
     inkscape:window-y="-8"
     inkscape:window-maximized="1"
     inkscape:current-layer="svg" /><g
     id="g3"><path
       id="MUN_0807"
       d="m 641.924,118.308 -13.921,33.967 0,0 -4.454,21.16 0,0 -4.315,14.617 0,0 0.974,8.91 0.14,0 6.682,3.341 0,0 20.047,24.362 0,0 11.693,13.643 1.392,1.531 0,0 10.023,12.25 0,0 5.986,5.29 0.139,0.139 14.617,20.325 0,0 11.833,14.617 0,0 9.466,10.858 0,0 14.756,20.046 0,0 10.441,11.415 0.139,0 6.403,8.213 0,0.139 13.086,19.628 0,0 20.324,23.666 0.14,0 16.427,21.299 0,0 16.565,18.515 0,0 10.58,10.72 0,0 0.418,2.923 0.417,0.418 0.418,2.088 -1.81,4.177 0,0.139 -0.975,2.228 0,0 -2.228,2.088 -0.835,4.037 -0.14,5.568 2.784,2.924 3.62,3.341 0,0 0.278,2.228 0,0 1.67,3.201 1.114,1.949 0.696,4.872 0,0 0.139,3.62 0.278,1.252 3.898,1.671 2.088,1.253 2.228,2.088 2.227,2.228 1.531,3.063 0.558,3.202 0.139,2.784 0,0 -0.278,3.48 0,0 -1.81,6.125 0,0 -2.784,5.429 0,0 -0.14,1.81 0.14,0.14 1.393,3.759 0.695,1.948 -0.835,1.393 -3.202,2.645 0,0 -0.278,4.595 0,0 -0.278,5.15 0,0 -0.139,2.784 -0.418,1.949 0.139,0.557 1.531,-0.14 1.811,-0.975 1.81,0.279 0.696,0.974 -0.279,2.924 0.14,0.139 2.228,1.393 0,0 4.176,2.645 0.14,0 3.619,2.646 0,0.139 2.088,2.646 0.975,2.645 0,1.949 0.975,0.975 1.949,0.696 1.67,2.088 1.671,3.48 0,0 1.393,1.392 0,0 3.341,1.671 0,0 3.341,0.835 0,0 3.897,-0.278 0,0 2.367,-0.557 1.81,-1.253 1.67,-0.836 1.949,0.279 5.15,2.366 3.898,-1.113 2.923,-0.558 3.342,-1.392 3.341,-2.228 0,0 1.81,-0.835 1.253,-0.557 0,0 1.67,-0.558 1.393,-0.278 2.088,0.836 0.836,1.252 -0.418,2.506 0.418,2.089 1.81,2.923 2.784,2.506 1.253,2.784 0,0 1.67,1.949 0,0 3.62,3.341 2.645,1.81 2.784,2.784 0,0 2.784,1.949 1.531,1.392 0,0.14 2.506,1.113 3.759,0.418 3.201,0.139 2.924,3.202 0,0 0.835,1.671 0,0 0.278,4.732 0,0 -0.417,4.177 0.278,3.341 1.531,3.898 1.392,4.454 0,0 1.531,3.341 0.14,0 3.202,3.759 0,0 1.113,2.088 -1.392,2.228 -4.315,1.81 -2.089,1.114 0,0 -1.81,4.315 -2.088,2.923 -3.202,3.342 -1.113,1.392 0,0 -0.557,3.202 -0.14,0 -0.975,3.341 -0.696,3.48 -0.139,0.695 0,4.315 0.835,3.898 0,0 0.418,3.48 0,0.139 1.67,3.341 0,0 10.858,5.847 0,0 14.757,2.228 0,0 15.313,0.418 0,0 3.341,0 0.14,0 4.594,10.023 0.14,0 3.758,2.088 0.14,0 10.858,-3.48 0,0 4.176,-7.656 0.14,-0.14 12.946,-3.48 0,0 7.796,3.063 0,0 8.213,0 0.14,0 5.985,-8.074 -0.139,12.528 -1.531,4.872 -1.671,4.733 -3.341,4.733 -3.201,4.037 -1.811,3.201 0.14,6.126 3.897,4.176 3.063,5.43 1.811,4.454 1.392,3.48 -2.506,7.518 -4.037,4.454 -4.315,3.62 -1.392,1.81 0.278,3.897 -0.278,5.29 0.278,5.847 0.417,5.847 0.696,5.43 0,4.315 0,4.315 -0.696,5.012 -1.67,6.82 -0.14,5.012 0,5.847 -0.139,5.151 -0.557,3.759 -2.089,3.341 -4.872,5.429 -3.202,4.177 -1.392,3.341 0.278,3.063 0,2.228 0.14,2.506 0,4.176 -0.418,3.898 -0.975,3.619 0,3.063 -0.418,6.682 0.278,5.568 0.14,2.924 2.228,3.063 3.619,5.012 3.341,4.037 1.393,2.645 1.949,3.063 0.974,2.784 0.418,4.177 1.392,4.315 1.114,7.518 0,0 0.139,3.479 0,3.202 0.696,4.733 1.81,2.923 2.089,3.62 1.81,4.594 2.645,5.429 1.949,4.315 0,4.872 -3.202,6.126 0.14,3.063 -0.418,5.429 1.393,5.012 0.695,2.784 4.177,2.366 8.631,5.43 5.012,3.619 3.201,5.012 2.506,5.707 3.063,3.898 2.646,5.429 0.835,4.177 1.114,4.594 -0.836,3.759 -0.696,4.594 -3.063,3.619 -2.506,4.177 -3.479,3.063 -1.531,4.454 -3.62,4.315 -3.619,3.898 -3.063,3.341 -5.429,6.125 -4.595,6.265 -2.923,2.924 -0.975,5.847 -0.557,2.088 -0.278,0.557 1.531,8.492 5.15,14.338 1.253,2.367 L 789.347,935.326 742.016,906.231 724.615,899.27 628.004,861.266 490.466,806.974 363.09,750.734 362.115,750.317 232.79,669.018 167.084,632.128 64.625,489.857 l 52.899,-137.539 6.682,-5.847 0,0 4.037,-3.48 0,0 3.759,-3.48 0,0 4.455,-4.176 0,-0.139 4.176,0 0,0 4.733,0.139 0.139,-0.139 2.228,-3.62 1.253,-2.088 0,0 1.113,-1.949 0.14,0 3.48,-0.835 0,0 3.759,-0.696 0,0 1.948,-0.278 0,0 1.671,-0.417 0,0 2.923,-0.696 0,0 0.418,-0.279 0,0 1.671,-0.696 0,0 2.366,-1.253 0,0 1.531,-0.696 0,0 2.924,-1.392 0,0 2.366,-0.835 0.14,0 1.252,-0.696 0,0 1.671,-0.696 0,-0.139 1.949,-0.975 0,0 1.948,-0.835 0,0 0.558,-0.139 0,0 1.392,-0.835 0,0 2.228,-1.114 0,0 4.594,-2.506 0,0 3.063,-1.531 0,0 8.631,-3.063 0,0 4.594,-1.392 0,0 2.089,-0.975 0,0 1.81,-0.557 0,0 2.784,-1.253 0.139,0 1.393,-0.417 0.139,0 2.367,-1.114 0,0 3.201,-0.975 0.14,0 3.619,-2.923 0,0 4.037,-2.923 0.14,0 1.949,-1.531 3.341,-2.645 0,0 3.063,-2.645 0,0 3.48,-2.784 0,0 2.645,-1.81 -0.557,0.696 1.392,-1.253 0,0 1.393,-1.67 0,0 1.392,-1.531 0,0 1.253,-1.253 0,0 0.557,-0.557 0,0 2.228,0.139 0,0 1.531,0 0,0.139 1.671,0.696 0,0 1.253,0.696 0,0 1.113,1.67 0,0 0.696,1.531 0,0 0,1.67 0,0 0.418,0.418 0,0.139 0.695,0.417 0,0 2.089,1.392 0.139,0 1.393,0.557 0,0 1.253,0.418 0,0 1.113,0.278 0,0.139 2.228,0.557 0,0 2.784,0.835 0.139,0 1.671,1.114 0,0 1.253,0.696 0.139,0.139 0.418,0.557 0,0 0.557,0.974 0,0 3.898,1.393 0,0 1.948,1.113 0,0 2.367,0.557 0,0 3.48,1.67 0,0 0.835,0.557 0.139,0 1.393,0 0,0 2.366,-0.557 0,0 1.393,-0.139 0,0 1.253,0.278 0,0 1.948,0.835 0,0 1.531,1.113 0,0 2.089,0.835 0,0 1.531,0.975 0,0 1.81,0.557 0,0 0.696,0.278 0,0 1.392,0.418 0,0 1.393,0.417 0.139,0 1.949,0.417 0,0 1.531,0.278 0,0 1.81,0.279 1.392,0.278 0,0 2.367,-0.139 0,0 0.835,0.139 0.14,0 1.81,-0.139 0,0 1.67,-0.279 0,0 1.531,-0.835 0,0 1.671,-1.392 0.14,0 1.252,-0.139 0,0 1.253,0.139 0.14,0 1.671,0.975 0,0 1.531,1.113 0,0 1.67,1.114 0,0 0.696,0.557 0,0 0.278,0.278 0,0 0.278,0.417 0,0 1.114,0.696 2.645,1.81 0,0 2.088,1.531 0,0 1.671,1.253 0,0 0.835,1.253 0.14,0 0.557,1.531 0,0 0.278,1.253 0,0 -0.418,1.81 0,0 -0.139,0.975 0,0 0,0.557 0,0 -0.557,1.392 0,0 -0.558,1.253 0,0 -1.392,1.253 0,0 -0.696,0.557 0,0 -1.253,0.418 0,0 -1.392,0.696 0,0 -0.975,0.557 0,0.139 -1.253,1.113 0,0 -0.696,1.253 0,0 -0.278,0.835 0,0 -0.14,1.392 0,0 0.279,1.531 0,0.139 0.695,1.392 0,0 0.975,1.67 0,0 0.836,1.532 0,0 0.695,1.531 0,0 0.278,1.253 0,0 0.558,1.392 0,0 0.695,1.81 0,0.139 0.14,0.696 0,0 0.975,0.835 0,0 1.253,0.835 0,0 1.531,0.696 0,0 1.948,0.835 0,0 1.114,0.974 0,0 1.392,1.253 0,0 1.253,1.114 0,0 0.696,0.835 0,0 0.557,0.557 0,0 0.418,0 0,0 0.835,0.139 0,0 1.114,0.417 0,0 1.67,0.14 0,0 1.114,0.417 0,0 0.557,0.557 0,0 0.835,0.418 0,0 0.835,0.417 0,0.139 0.975,0 0.14,0 0.278,0.417 0.139,0 1.114,0.278 0,0 0.835,0 0,0 0.557,-0.139 0.14,0 0.557,-0.696 0,0 0.557,-0.975 92.156,-163.709 112.62,-24.779 1.114,-0.417 0,0 0.695,-0.418 0.418,-0.278 0.557,-0.557 0.696,-0.418 0.418,-0.278 0.835,0.139 0.835,0.139 0.418,0 1.392,-0.139 0.696,0 0.557,0 1.114,0.139 0.696,0.557 0.278,0.557 0.835,1.114 1.531,1.114 2.506,0.139 2.366,-0.418 2.646,-0.974 0.417,-0.139 1.531,-0.278 1.114,-2.645 0.975,-1.81 0.278,-0.417 0.139,-0.417 2.228,-1.392 2.366,-2.784 2.506,-3.62 2.646,-1.949 1.67,-0.975 1.531,-0.835 1.393,-0.974 0.696,-0.417 0.417,-0.279 0.975,-0.417 3.063,-1.114 2.506,0.417 4.733,-1.253 2.784,-1.531 4.594,-4.455 1.671,-1.531 1.948,-2.645 2.089,-2.088 1.113,-0.975 0.975,-1.114 2.228,-1.531 1.253,-0.974 0.974,-0.696 2.924,-3.62 1.949,-1.949 0.695,-0.975 0.964,0.145 z"
       inkscape:connector-curvature="0"
       class="DEP_08 ZON_03" /></g></svg>