<?xml version="1.0" encoding="UTF-8" standalone="no"?>
<!-- Generator: Adobe Illustrator 16.0.0, SVG Export Plug-In . SVG Version: 6.00 Build 0)  -->

<svg
   xmlns:dc="http://purl.org/dc/elements/1.1/"
   xmlns:cc="http://creativecommons.org/ns#"
   xmlns:rdf="http://www.w3.org/1999/02/22-rdf-syntax-ns#"
   xmlns:svg="http://www.w3.org/2000/svg"
   xmlns="http://www.w3.org/2000/svg"
   xmlns:sodipodi="http://sodipodi.sourceforge.net/DTD/sodipodi-0.dtd"
   xmlns:inkscape="http://www.inkscape.org/namespaces/inkscape"
   version="1.1"
   id="SvgMunicipio"
   x="0px"
   y="0px"
   width="999.948px"
   height="654.67px"
   viewBox="64.707 118.285 999.948 654.67"
   enable-background="new 64.707 118.285 999.948 654.67"
   xml:space="preserve"
   inkscape:version="0.91 r13725"
   sodipodi:docname="MUN_ID0808.svg"><metadata
     id="metadata10"><rdf:RDF><cc:Work
         rdf:about=""><dc:format>image/svg+xml</dc:format><dc:type
           rdf:resource="http://purl.org/dc/dcmitype/StillImage" /></cc:Work></rdf:RDF></metadata><defs
     id="defs8" /><sodipodi:namedview
     pagecolor="#ffffff"
     bordercolor="#666666"
     borderopacity="1"
     objecttolerance="10"
     gridtolerance="10"
     guidetolerance="10"
     inkscape:pageopacity="0"
     inkscape:pageshadow="2"
     inkscape:window-width="1366"
     inkscape:window-height="705"
     id="namedview6"
     showgrid="false"
     inkscape:zoom="0.36048697"
     inkscape:cx="499.974"
     inkscape:cy="327.33499"
     inkscape:window-x="-8"
     inkscape:window-y="-8"
     inkscape:window-maximized="1"
     inkscape:current-layer="svg" /><g
     id="g3"><path
       id="MUN_0808"
       d="m 817.112,189.47 1.751,13.128 0.146,0 3.355,3.209 0,0 3.209,3.938 0,0 3.209,4.814 0,0 1.604,4.959 0,0 -0.146,6.564 0,0.292 0,0 -0.875,4.23 0,0 6.271,29.174 0,0 14.588,6.855 0,0.146 1.313,6.418 0,0.146 -1.021,2.917 0,0.146 3.939,7.731 0,0 9.335,6.126 0,0.146 -10.064,9.044 0,0.292 9.627,10.648 0.146,0 7.293,-4.084 0,0 2.918,0.875 0.146,0.146 -0.584,7.439 0,0.146 2.334,2.334 0,0.146 6.711,0.146 0,0 1.75,0 0,0 7.731,0.146 0,0 3.501,-0.875 0,0 0.146,0.292 -1.604,1.896 0,0.146 -1.75,6.856 0,0 -1.459,8.898 0,0.146 2.479,8.023 0,0 3.793,3.938 0.146,0 3.355,0 0.146,0 2.042,3.209 0,0.146 1.021,9.19 0,0 -0.146,1.604 0,0 0.146,0.146 5.397,0.438 0,0 2.334,0.583 0,0 4.813,2.188 0,0 7.439,3.355 0,0 4.23,2.917 0,0 6.71,2.334 0,0 4.376,2.917 0,0 3.209,2.188 0,0 4.23,0.729 0,0 3.501,1.021 0,0 2.188,1.167 1.166,0.583 0,0 8.169,3.792 0,0.146 4.668,0.146 0,0 6.71,0.583 0,0 5.397,0 0,0 4.813,0 0,0 2.48,1.604 0.146,0 6.127,-0.438 0,0 7.293,2.334 0,0 5.252,0 0.146,0 3.209,0.146 0,0.146 2.334,2.334 0.146,0 3.209,1.313 0,0 5.688,1.458 0.146,0 2.917,1.459 0.146,0 4.668,0 0,0 2.479,-0.146 2.479,0 0,0 1.751,0.729 2.188,1.896 0,0.146 3.355,0.729 5.251,0.438 7.586,-1.459 1.896,-1.021 1.313,-0.438 0.729,-0.146 0.291,0 0.438,0.146 1.313,0 0.583,0.146 0.438,0.292 0.438,0 0.583,0.291 0.292,0.146 1.021,0.438 0.729,0.438 1.896,0.583 0.438,0.438 0.292,0.291 -24.507,28.153 -5.834,7.294 -97.15,120.781 -67.247,83.438 59.516,132.597 -1.313,-1.021 -1.604,-1.459 -2.479,-1.313 -2.771,-0.292 -4.522,0 0,0 -4.376,0.146 -0.146,0 -2.917,0.729 0,0 -1.459,1.459 -1.751,1.167 0,0 -1.458,0.146 -2.771,-2.042 -2.043,-0.146 -2.625,-0.146 -2.188,-3.354 -1.167,-2.334 0,0 -2.334,-3.501 0,0 -1.896,-2.042 0,0 -1.75,-1.751 -2.188,-1.167 -2.771,-1.021 -1.313,-1.313 -0.146,0 -1.896,-2.771 0,0 -1.896,-2.334 0,0 -3.501,-2.188 -0.146,0 -2.917,0 -2.188,0.438 -0.583,-0.584 -0.729,-1.75 -2.479,-2.626 -3.355,-2.334 -1.459,0.146 -1.458,-0.438 -4.376,-0.875 -2.772,-1.313 -2.917,-0.292 -3.501,0.292 -4.084,1.167 0,0 -2.48,0.438 -2.917,-0.584 -2.042,-0.146 -2.626,0.583 -1.313,-0.146 -2.48,-0.729 -3.354,0.292 -2.771,-0.584 -4.522,-1.896 0,0 -7.293,-3.355 -2.626,-0.146 -2.626,-0.292 -2.334,-1.021 0,0 -4.084,-2.479 -3.647,-1.604 -0.146,0 -3.501,0 0,0 -9.919,-3.646 -0.146,-0.146 -2.917,-7.73 0,0 -2.188,-6.419 -2.042,-2.771 -1.604,-2.334 0,0 -2.479,-2.188 0,0 -3.355,-3.501 0,0 -4.084,-2.771 -3.501,-2.772 -3.063,-1.458 -2.771,-1.313 -2.626,-2.188 0,0 -3.063,-1.896 -0.146,0 -4.23,-2.042 0,0 -3.354,-1.021 -2.042,-0.729 -1.605,-1.604 -1.604,-1.75 -0.438,-1.459 0.292,-3.646 0,-0.146 -0.729,-1.021 -1.167,-1.313 -0.146,-1.021 -1.021,-2.771 -0.583,-1.896 -1.021,-2.334 -1.167,-1.021 -1.896,-0.438 -1.604,-0.875 -0.875,-1.459 -0.146,-0.146 -2.188,-1.896 -1.751,-1.896 -1.021,-2.334 -0.875,-2.188 -0.876,-1.896 -0.146,-2.626 -0.292,-2.188 -0.875,-1.896 -0.583,-2.48 0,-3.063 -1.313,-2.042 -0.583,-1.75 -0.146,0 -1.021,-1.459 -3.063,-2.917 -1.459,-2.334 -1.313,-1.751 -1.167,-1.75 -0.146,-0.146 -0.729,-4.229 0,0 0.291,-3.793 0,-0.146 -0.438,-4.814 -0.729,-4.668 -1.896,-4.376 -0.146,-0.146 -6.418,-1.459 0,0 -16.921,-8.752 -19.693,-9.628 0,0 -35.301,-11.67 -0.146,0 -11.524,-12.69 0,-0.146 -19.838,-16.483 -22.318,-18.526 0,0 -7.147,-13.565 0,0 -1.896,-7.002 0,0 -0.438,-6.564 0,0 0,-6.855 0,-0.146 1.896,-6.272 0,-0.146 -4.085,-7.147 0,0 -5.397,-8.315 0,0 -3.938,-8.752 0,-0.146 2.043,-4.085 0,-0.146 -0.146,-5.543 0,0 -0.875,-7.002 0,0 -5.397,-15.316 0,0 2.042,-7.294 0,-0.146 -4.668,-4.085 0,0 -3.792,-3.354 0,-0.146 -0.438,-5.105 -0.146,-0.146 -4.084,-3.646 -0.146,0 -0.584,-3.501 0,0 -0.438,-3.793 -0.146,-0.146 -3.646,-3.063 0,0 -5.835,-4.668 -0.146,-0.146 -0.438,-6.418 0,0 -1.167,-4.23 -0.729,-0.438 -3.793,-2.042 -450.316,-252.942 552.998,97.734 2.626,-0.583 17.067,-3.063 18.233,-5.543 19.984,-8.314 8.753,-6.272 5.543,-1.604 6.71,1.604 11.961,2.625 11.087,0.146 13.128,-1.896 7.002,-1.021 4.96,2.188 11.961,3.938 14.149,2.772 15.608,3.5 14.879,0 6.71,-3.646 9.046,-11.38 z"
       inkscape:connector-curvature="0"
       class="DEP_08 ZON_03" /></g></svg>