<?xml version="1.0" encoding="UTF-8" standalone="no"?>
<!-- Generator: Adobe Illustrator 16.0.0, SVG Export Plug-In . SVG Version: 6.00 Build 0)  -->

<svg
   xmlns:dc="http://purl.org/dc/elements/1.1/"
   xmlns:cc="http://creativecommons.org/ns#"
   xmlns:rdf="http://www.w3.org/1999/02/22-rdf-syntax-ns#"
   xmlns:svg="http://www.w3.org/2000/svg"
   xmlns="http://www.w3.org/2000/svg"
   xmlns:sodipodi="http://sodipodi.sourceforge.net/DTD/sodipodi-0.dtd"
   xmlns:inkscape="http://www.inkscape.org/namespaces/inkscape"
   version="1.1"
   id="SvgMunicipio"
   x="0px"
   y="0px"
   width="620.739px"
   height="999.98px"
   viewBox="64.637 118.208 620.739 999.98"
   enable-background="new 64.637 118.208 620.739 999.98"
   xml:space="preserve"
   inkscape:version="0.91 r13725"
   sodipodi:docname="MUN_ID0809.svg"><metadata
     id="metadata10"><rdf:RDF><cc:Work
         rdf:about=""><dc:format>image/svg+xml</dc:format><dc:type
           rdf:resource="http://purl.org/dc/dcmitype/StillImage" /></cc:Work></rdf:RDF></metadata><defs
     id="defs8" /><sodipodi:namedview
     pagecolor="#ffffff"
     bordercolor="#666666"
     borderopacity="1"
     objecttolerance="10"
     gridtolerance="10"
     guidetolerance="10"
     inkscape:pageopacity="0"
     inkscape:pageshadow="2"
     inkscape:window-width="1366"
     inkscape:window-height="705"
     id="namedview6"
     showgrid="false"
     inkscape:zoom="0.23600472"
     inkscape:cx="310.36951"
     inkscape:cy="499.98999"
     inkscape:window-x="-8"
     inkscape:window-y="-8"
     inkscape:window-maximized="1"
     inkscape:current-layer="svg" /><g
     id="g3"><path
       id="MUN_0809"
       d="m 664.172,802.199 -0.363,0.635 0,0 -0.362,0.453 -0.091,0 -0.362,0.09 0,0 -0.544,0 0,0 -0.725,-0.181 -0.091,0 -0.181,-0.272 -0.091,0 -0.635,0 0,-0.09 -0.543,-0.272 0,0 -0.544,-0.271 0,0 -0.362,-0.362 0,0 -0.726,-0.272 0,0 -1.087,-0.091 0,0 -0.726,-0.271 0,0 -0.543,-0.091 0,0 -0.272,0 0,0 -0.362,-0.362 0,0 -0.453,-0.544 0,0 -0.815,-0.725 0,0 -0.906,-0.815 0,0 -0.725,-0.635 0,0 -1.269,-0.543 0,0 -0.997,-0.453 0,0 -0.815,-0.544 0,0 -0.635,-0.544 0,0 -0.091,-0.453 0,-0.091 -0.453,-1.178 0,0 -0.362,-0.906 0,0 -0.181,-0.815 0,0 -0.453,-0.997 0,0 -0.544,-0.997 0,0 -0.635,-1.087 0,0 -0.453,-0.906 0,-0.091 -0.181,-0.997 0,0 0.091,-0.905 0,0 0.181,-0.544 0,0 0.453,-0.815 0,0 0.815,-0.726 0,-0.091 0.635,-0.362 0,0 0.906,-0.453 0,0 0.815,-0.271 0,0 0.453,-0.362 0,0 0.906,-0.815 0,0 0.362,-0.816 0,0 0.362,-0.905 0,0 0,-0.363 0,0 0.091,-0.634 0,0 0.271,-1.179 0,0 -0.181,-0.815 0,0 -0.362,-0.996 -0.091,0 -0.544,-0.816 0,0 -1.088,-0.815 0,0 -1.358,-0.996 0,0 -1.722,-1.179 -0.726,-0.453 0,0 -0.181,-0.271 0,0 -0.182,-0.182 0,0 -0.453,-0.362 0,0 -1.088,-0.725 0,0 -0.996,-0.726 0,0 -1.088,-0.634 -0.091,0 -0.815,-0.091 0,0 -0.815,0.091 -0.091,0 -1.087,0.906 0,0 -0.997,0.544 0,0 -1.087,0.181 0,0 -1.179,0.091 -0.091,0 -0.543,-0.091 0,0 -1.541,0.091 0,0 -0.906,-0.182 -1.178,-0.181 0,0 -0.997,-0.182 0,0 -1.269,-0.271 -0.091,0 -0.906,-0.272 0,0 -0.906,-0.271 0,0 -0.453,-0.182 0,0 -1.178,-0.362 0,0 -0.997,-0.634 0,0 -1.358,-0.544 0,0 -0.997,-0.725 0,0 -1.269,-0.544 0,0 -0.816,-0.182 0,0 -0.905,0.091 0,0 -1.541,0.362 0,0 -0.906,0 -0.091,0 -0.543,-0.362 0,0 -2.266,-1.087 0,0 -1.541,-0.363 0,0 -1.269,-0.725 0,0 -2.537,-0.906 0,0 -0.362,-0.634 0,0 -0.272,-0.363 -0.09,-0.09 -0.816,-0.453 0,0 -1.087,-0.726 -0.091,0 -1.813,-0.544 0,0 -1.45,-0.362 0,-0.091 -0.725,-0.181 0,0 -0.815,-0.271 0,0 -0.906,-0.363 -0.091,0 -1.359,-0.906 0,0 -0.453,-0.271 0,-0.091 -0.271,-0.271 0,0 0,-1.088 0,0 -0.453,-0.996 0,0 -0.725,-1.088 0,0 -0.815,-0.453 0,0 -1.088,-0.453 0,-0.091 -0.997,0 0,0 -1.449,-0.09 0,0 -0.363,0.362 0,0 -0.815,0.815 0,0 -0.906,0.997 0,0 -0.906,1.087 0,0 -0.906,0.815 0.363,-0.453 -1.722,1.179 0,0 -2.266,1.812 0,0 -1.994,1.723 0,0 -2.175,1.722 -1.269,0.996 -0.091,0 -2.628,1.903 0,0 -2.355,1.903 -0.091,0 -2.084,0.634 0,0 -1.541,0.726 -0.091,0 -0.906,0.271 -0.09,0 -1.813,0.815 0,0 -1.179,0.362 0,0 -1.359,0.635 0,0 -2.99,0.906 0,0 -5.618,1.993 0,0 -1.993,0.997 0,0 -2.991,1.631 0,0 -1.449,0.726 0,0 -0.906,0.543 0,0 -0.362,0.091 0,0 -1.27,0.544 0,0 -1.269,0.635 0,0.09 -1.087,0.453 0,0 -0.815,0.453 -0.091,0 -1.541,0.544 0,0 -1.902,0.906 0,0 -0.997,0.453 0,0 -1.541,0.815 0,0 -1.087,0.453 0,0 -0.271,0.182 0,0 -1.903,0.453 0,0 -1.088,0.271 0,0 -1.269,0.182 0,0 -2.446,0.453 0,0 -2.266,0.543 -0.091,0 -0.725,1.269 0,0 -0.815,1.359 -1.45,2.356 -0.091,0.091 -3.081,-0.091 0,0 -2.719,0 0,0.091 -2.899,2.719 0,0 -2.446,2.265 0,0 -2.628,2.266 0,0 -4.351,3.807 -4.259,-6.888 0,0 -5.438,-4.35 0,-0.091 -4.712,-7.521 0,0 -6.615,-8.065 -5.709,-6.978 0,0 -2.084,-7.703 0,-0.091 -6.797,-6.434 -0.09,-0.091 -0.635,-10.783 0,0 -3.353,-3.263 0,-0.091 -0.997,-3.171 0,0 -3.443,-4.803 0,0 -28.727,0.996 -73.673,2.538 -27.096,0.996 0,0.091 -0.271,1.269 -0.997,0.635 0,1.54 -0.362,1.541 -0.544,0.634 -0.362,1.269 1.088,3.354 0,0.453 0,0.362 -0.091,0.271 -0.182,0.363 -0.09,0.452 -0.091,0.272 -0.091,0.181 -0.182,0.091 -0.181,0.272 0,0.181 0,0.272 0,0.181 0.091,0.272 0,0.362 0.181,0.362 0.091,0.271 0,0.182 0.091,0.362 0.091,0.453 0,0.271 0,0.272 0,0.634 -0.091,0.182 0,0.362 -0.182,0.453 -0.181,0.362 -0.182,0.272 -0.091,0.181 -0.181,0.182 -0.272,0.181 -0.09,0.091 0,0.272 -0.091,0.271 -0.182,0.182 0,0.362 0,0.181 0,0.272 0,0.271 0.091,0.182 0.091,0.271 0.091,0.091 0.181,0.453 0.182,0.362 0.181,0.271 0.091,0.272 0.182,0.271 0.09,0.091 0.091,0.271 0.091,0.272 0.091,0.362 0.181,0.453 0.091,0.271 0.091,0.453 0.271,0.362 0.091,0.272 0.182,0.271 0.271,0.271 0.182,0.272 0.271,0.091 0.544,0.271 0.362,0.271 0.453,0.091 0.362,0.091 0.362,0.091 0.272,0.181 0.271,0.091 0.362,0.182 0.272,0.091 0.181,0.181 0.091,0.272 0.091,0.181 0.091,0.272 -0.091,0.271 0,0.181 -0.091,0.182 -0.091,0.453 0,0.362 -0.271,0.362 -0.271,0.363 -0.272,0.181 -0.181,0.182 -0.272,0.271 -0.091,0.182 -0.09,0.453 0,0.362 0.09,0.271 0,0.362 0,0.182 0.091,0.182 0.272,0.362 0.271,0.181 0.271,0.182 0.362,0.271 0.453,0.182 0.182,0 0.544,0.091 0.362,0 0.635,0 1.269,0.725 1.359,0.997 1.087,1.813 0.544,2.446 0,0.544 -0.635,2.266 -0.453,1.269 0,1.087 -0.181,1.269 0,1.45 0,0.906 0.996,0.725 0.906,0.544 0.816,0.544 0.271,0.635 0.091,0.725 -0.544,1.45 -1.088,1.722 -0.271,0.362 -0.091,0.997 0.362,0.815 0.363,0.725 0.362,0.635 0.181,0.543 -0.181,0.816 -0.635,0.543 -0.815,0.272 -0.544,0.181 -0.634,0.815 -0.453,0.544 -0.544,0.272 -0.544,0.543 -0.271,1.179 -0.091,0.543 0,0.816 0,0.634 0,1.631 0,0.726 -0.091,0.906 -0.271,0.815 -1.088,1.087 -0.362,0.363 -0.997,0.725 -0.725,0.271 -0.815,0.544 -0.362,0.635 -0.362,0.815 0.09,0.996 0.091,0.997 0.453,1.088 0.453,0.453 0.635,0.725 0.634,0.906 0.272,0.635 0.725,0.543 0.362,0.091 1.269,0.182 1.088,0.453 0.725,0.543 0.453,0.726 0.272,1.359 -0.091,0.725 0.815,1.178 0.091,0.544 0.181,0.997 0,0.544 -0.181,0.906 0,0.725 0,0.815 0,0.635 0,0.725 -0.091,1.269 -0.182,0.906 -0.181,0.725 -0.182,0.815 -0.091,0.635 -0.362,1.178 -0.271,0.272 -0.091,1.087 0,0.635 -0.362,0.634 -0.272,0.453 -0.362,0.091 -0.906,0 -0.725,-0.091 -0.815,-0.09 -0.815,-0.091 -0.544,0 -0.453,0.271 -0.544,0.725 -0.362,1.179 -0.815,1.54 0.271,1.088 -0.181,0.544 -0.182,0.725 -0.271,0.815 -0.635,0.725 -0.544,0.182 -0.543,0 -0.453,0.091 -0.816,0.181 -0.543,0.544 -0.544,0.635 -0.271,0.634 -0.363,0.726 -0.271,0.996 -0.271,0.635 -0.635,0.453 -0.635,0.906 -0.543,0.544 -0.906,0.725 -0.544,0.182 -0.815,0.271 -0.544,0.453 -0.634,0.453 -0.363,0.453 -0.543,0.725 -0.906,1.359 -0.726,1.359 -0.543,0.453 -0.816,1.269 -0.453,0.725 -0.543,0.363 -0.726,0.815 -0.634,0.091 -0.726,0.181 -0.543,0.362 -0.544,0.453 -0.453,0.182 -0.271,0.181 -0.544,0.453 -0.453,0.272 -0.362,0.544 -0.091,0.543 -0.182,0.544 -0.543,0.182 -0.544,0.09 -0.091,0 -0.271,0.363 -0.182,0.453 0.182,1.902 -0.182,0.635 0,0.544 -0.091,0.815 -0.453,0.543 -0.271,0.453 -0.453,1.179 -0.091,0.725 -0.091,1.903 0.272,1.178 0,0.906 0.362,1.903 0,1.359 0,0.725 0,1.269 0,0.725 -0.272,1.088 -0.181,1.54 -0.544,0.906 -0.271,0.906 -0.182,0.453 0,0.906 0.182,0.906 0.453,1.722 0.271,0.635 0.091,0.634 1.178,1.359 0.635,0.544 0.453,0.725 0.453,0.906 0.271,0.906 0.182,0.453 0.543,0.635 0.816,0.725 0.271,0.725 0,0.726 -0.091,0.634 -0.091,0.635 -0.362,0.906 0,0.906 0,1.178 0,1.45 0,1.178 0,1.179 -0.091,1.449 -0.271,1.179 -0.091,0.452 0,0.453 0.091,0.635 0.182,0.815 0.362,1.088 0.271,1.269 0.091,0.906 0.091,0.453 0.271,0.815 0.271,0.906 0,0.544 0.182,2.628 0.091,1.722 0,0.725 0.362,3.716 -0.091,0.725 0,1.359 0,1.087 0.091,0.815 0,1.179 -0.091,2.355 0,0.635 0,0.453 0.091,0.725 0,0.726 0,0.725 0.091,0.635 0,0.815 -0.182,0.543 -0.453,0.635 -0.543,0.635 -1.088,0.453 -0.906,0.362 -0.181,0.362 -0.272,0.544 0,0.996 0,0.816 0.091,0.725 0.271,0.634 0.091,0.635 0.091,1.178 -0.091,1.722 -0.362,0.635 -0.271,0.815 -0.182,0.635 -0.271,0.996 -0.091,0.906 -0.635,1.45 -0.362,0.815 -0.635,0.726 -0.271,0.543 -1.087,1.359 -0.997,0.635 -1.359,0.725 -1.813,0.635 -0.996,0.815 -0.816,0.815 -0.815,0.997 -0.271,0.725 0,1.088 -0.091,1.54 0.182,1.088 0.906,2.446 0.453,1.994 0.09,2.265 0,1.179 -0.271,0.815 -0.453,0.815 -0.635,0.635 -0.996,0.815 -0.906,0.634 -1.631,0.272 -1.723,-0.453 -1.087,-0.182 -1.903,0.271 -1.087,0.997 -0.997,0.906 -0.453,0.635 -0.544,1.178 -0.181,1.087 -0.182,1.359 -0.725,1.088 -0.544,0.453 -2.719,0.997 -1.359,-0.182 -0.725,0 -0.453,0.091 -0.362,1.359 -0.635,1.449 -0.544,1.359 -0.453,1.359 -0.362,1.359 -0.271,0.997 0,1.087 0,1.359 0.091,1.632 0,1.631 0.09,0.997 0.091,0.906 -0.091,0.996 -0.634,1.541 -0.271,1.087 0,0.635 -0.182,0.725 -0.182,1.179 0,1.358 0,0.997 -0.271,1.541 -0.182,0.906 -0.453,1.359 -0.362,0.452 -0.091,1.179 -0.09,1.087 -0.272,1.903 -0.091,2.175 -0.362,1.45 0,1.722 -0.362,1.269 0,0.725 0.272,1.088 0.181,0.906 0.635,0.997 0.815,1.178 0.634,0.815 0.272,1.087 -0.091,1.088 -0.091,0.271 -0.271,0.997 -0.091,0.453 0,0.815 0.362,0.726 0.272,1.358 -0.272,1.179 -0.181,1.269 0,0.725 0,0.815 0.181,0.726 0.726,0.906 1.087,0.996 0.725,0.726 0.726,0.725 0.634,0.544 0.906,1.45 0.544,0.634 0.271,0.906 0.363,1.541 -0.091,0.996 -0.272,0.906 0,0.997 -0.362,0.997 -0.453,1.087 -0.271,0.815 -0.544,0.816 -1.087,0.815 -0.906,0.815 -0.544,0.453 -0.362,1.269 -0.091,1.45 -0.635,2.355 -0.362,1.722 0,0.363 0.453,1.087 0.362,1.088 0.726,0.996 0.271,0.635 0.182,1.178 0.362,0.815 0.091,0.815 0.09,1.088 -0.09,0.725 -0.635,1.088 -0.182,0.815 -0.181,1.088 0.091,0.905 0.09,0.997 -0.09,2.266 0.09,1.178 0,0.997 0,0.906 0,1.813 0,0.635 0,1.178 0.091,0.815 0,0.634 0.272,0.816 0.362,1.178 0.634,0.997 0.272,1.178 0.362,1.088 0.271,0.543 0.182,0.182 0.544,0.725 0.362,0.453 0.362,0.362 0.725,0.272 0.726,0.181 0.725,0.726 1.088,0.725 0.543,1.088 0.453,0.906 0.453,0.725 0.182,0.815 0.271,1.269 0.362,0.997 0.363,1.087 0.181,0.997 0.362,0.815 0.272,0.906 0.181,0.544 -0.181,0.544 -0.091,0.181 -1.178,0.272 -1.903,0.091 -1.541,0 -2.628,0.452 -1.449,0.544 -0.635,0.544 -0.815,0.725 -0.544,0.815 -0.181,0.182 -0.635,-0.362 -1.54,-0.906 -1.269,-1.631 -1.359,-4.26 0,-2.537 -0.635,-1.359 -1.269,-0.906 -3.353,-1.54 -2.085,0 -1.54,-0.997 -1.813,-1.722 -1.541,-1.088 -1.993,-0.725 -3.806,0.453 -2.356,0.182 -2.81,-0.726 -1.54,-0.906 -1.45,-2.175 -2.537,-4.621 -1.088,-2.81 -0.09,-1.359 0.271,-2.628 -0.271,-3.081 -0.997,-1.359 -0.544,-1.087 -0.997,-1.088 -0.996,-1.902 -0.906,-1.722 -0.635,-1.994 -0.815,-2.809 -0.634,-1.994 0.09,-1.269 -0.725,-1.994 -1.541,-2.355 -1.902,-1.903 -0.997,-1.269 -0.815,-1.993 -1.178,-1.813 -0.272,-0.182 -0.271,-0.271 -0.453,-0.362 -1.088,-0.906 -1.087,-1.813 -0.362,-1.541 0.362,-2.537 -0.091,-1.269 -0.362,-1.541 -0.453,-1.358 -0.815,-1.903 -0.815,-2.628 -1.088,-4.078 -0.544,-1.903 -0.725,-1.358 -0.182,-0.997 -0.09,-2.356 -0.091,-2.266 0.181,-4.077 0.091,-1.45 -0.181,-1.631 0.09,-1.541 0.272,-1.269 -0.091,-0.997 -0.182,-0.815 -0.181,-1.269 -0.182,-0.725 -0.997,-1.179 -1.087,-0.725 -3.534,-1.813 -0.635,-1.269 0.726,-0.997 0.362,-0.544 0.634,-0.725 1.541,-0.725 0.725,-0.635 -0.453,-0.996 -0.725,-0.997 -0.544,-1.45 -1.813,-1.722 -1.269,-0.906 -1.993,-1.45 -1.541,0 -0.725,-0.362 -2.266,-1.178 -1.269,0.634 -1.45,1.723 -2.084,1.54 -1.54,0.362 -2.176,-0.271 -0.996,-0.726 -0.815,-1.993 -0.182,-1.813 -0.725,-1.813 -1.813,-1.722 -1.359,-0.362 -1.722,0.182 0,0 -1.813,0.634 0,0 -0.362,0.091 -0.362,0.815 -0.906,0.815 0,0 -0.453,0 -0.726,1.179 -1.722,-0.182 -1.631,-0.544 -1.178,-1.087 -0.091,0 -1.631,-2.175 0,-0.091 -0.363,-1.541 0,-0.091 0.453,-1.178 0,-0.815 -2.175,-1.359 -1.359,-0.997 0,0 -2.355,0.091 0,0 -2.356,-0.453 -2.899,0 -0.091,0 -2.266,-1.54 -1.359,-0.091 -0.906,-0.453 0,0 -1.087,-1.269 -0.726,-0.635 -1.087,0.362 -0.635,0.091 -1.631,-0.725 -0.997,0.544 -0.815,0 -4.35,-1.994 -1.631,-1.449 0,-0.091 -0.272,-1.722 0,0 0.182,-2.628 0,0 -0.453,-1.27 -1.088,-0.905 -0.362,-0.816 -0.181,-1.178 -0.635,-0.544 0.182,-0.543 -0.544,-1.179 -0.725,-0.815 0,0 -1.723,-0.271 0,0 -1.631,0.091 -0.091,0 -1.178,1.54 0,0 -0.815,0.725 -0.635,0 -0.725,0.635 -1.178,1.631 -0.726,-0.271 0,0 -2.265,-1.45 0,0 -1.359,-1.813 0,0 -3.716,-3.262 -2.266,-0.997 -1.269,-1.088 -2.356,-0.543 -0.09,0 -1.359,-1.088 -2.356,-1.178 -2.537,-1.178 -1.813,-1.45 -2.084,-2.356 -1.179,-0.544 0,0 -1.358,0.091 0,0 -1.723,-0.091 -0.09,0 -1.359,-0.543 -1.359,-1.45 0,0 -2.084,-0.815 -0.726,-0.997 -0.362,-1.178 0.271,-1.088 -0.09,-0.906 -0.544,0 -0.091,-0.091 -0.271,-0.815 0,0 -0.453,-1.087 -0.997,-0.635 -1.178,-0.544 -0.815,-0.452 0,-0.091 -0.453,-1.359 -1.27,-0.362 -1.631,0.09 -2.266,0.182 0,0 -2.355,0.635 0,0 -2.447,-0.091 -1.993,-0.726 -0.091,0 -1.45,-1.269 -1.722,-2.355 0,0 -0.906,-1.359 0,0 -0.725,-2.084 0,0 -0.725,-2.629 0,0 -1.179,-2.355 0,0 -1.631,-2.266 -2.084,-1.631 0,0 -3.896,-2.538 0,0 -2.991,-1.449 -1.449,-1.269 0,0 -0.906,-1.45 -1.269,-1.993 -0.635,-2.266 0,-2.175 0,0 -0.362,-1.179 -1.178,-0.725 -0.906,-1.359 -1.269,-2.356 -0.363,-2.265 0,0 -1.087,-1.723 -0.182,-1.449 0.544,-1.722 0.815,-1.813 0.091,-1.45 -0.182,-1.631 0,0 0.997,-1.813 -0.453,-1.088 -0.362,-0.815 -0.815,-1.631 0,-0.091 0.271,-1.359 0.453,-1.902 0,-1.813 0.726,-0.726 0.725,-1.178 0,0 0.181,-1.993 0,-0.091 2.9,-3.807 0.725,-2.718 0,0 -0.453,-3.172 0,-0.091 0.272,-2.446 -0.544,-1.541 0.634,-1.178 0.182,-1.359 0.544,-2.447 0,-0.09 -0.635,-1.269 -0.181,-1.632 0.815,-2.899 0,0 0.091,-1.903 0,0 0,-1.269 -0.997,-1.269 -0.453,-1.903 0,0 -0.815,-5.709 0,0 -0.091,-3.624 0,0 0.091,-1.359 0,0 4.259,-5.891 0,0 0.725,-4.35 0,0 -0.906,-1.269 0,-1.178 0,-1.723 0.544,-1.54 0.091,-1.541 0,-0.09 0.815,-0.544 0,0 1.178,-1.541 -0.634,-1.359 -2.084,-1.54 -1.088,-2.175 -0.181,-2.628 0.181,-4.44 0,-0.091 -1.813,-1.269 0,-0.091 -0.634,-1.449 0,0 1.902,-4.894 0,-0.091 2.628,-2.175 5.528,-3.443 0,-0.091 3.443,-4.169 0.091,0 -0.091,-2.175 -0.091,-0.09 -0.725,-1.45 0,0 -2.356,-3.263 -1.813,-2.628 0,0 -0.543,-1.813 0.634,-2.446 0.635,-2.537 -1.269,-1.722 -0.182,-1.269 -0.091,0 -1.359,-1.723 0,0 -2.899,-0.905 0,0 -2.266,-0.997 -0.453,-1.45 0.091,-2.99 0,0 -0.182,-1.903 -1.359,-1.631 0.091,-0.182 4.35,-2.265 0.997,-0.997 0,0 0.091,-2.81 0.453,-2.899 0,0 1.178,-2.99 0,0 0.091,-3.172 -0.453,-1.994 0,0 -3.081,-4.53 0,0 -0.091,-1.632 0,0 -1.087,-0.906 -0.272,-1.087 1.088,-1.994 0.996,-2.084 -0.634,-0.725 0,-0.091 0.271,-0.997 0,-0.091 -0.453,-0.725 -0.815,-1.45 0.815,-0.996 0.635,-1.45 1.993,-0.635 0.726,-3.443 0,0 0.271,-2.628 -0.091,-0.091 -3.534,-2.355 0,-0.091 -2.175,-2.446 0,0 -2.355,-4.078 0,0 -1.541,-4.169 0,-0.09 0,-1.903 0.815,-2.266 -0.181,-2.084 0.906,-1.541 0,-0.09 -0.816,-0.906 0,-0.635 1.179,-0.635 0.271,-1.087 -0.725,-1.088 -1.45,-1.358 -2.266,-2.719 0,0 -0.271,-1.179 0,0 1.993,-7.521 0,0 1.359,-2.99 0,-0.091 2.719,-3.533 -0.271,-2.628 -0.997,-1.179 -1.722,-1.269 -0.544,-0.815 -0.362,-1.813 -1.088,-1.178 0.272,-0.091 1.269,-1.45 1.178,-1.813 0.815,-1.902 1.632,-2.99 0.906,-0.544 0.815,-0.182 0.996,-0.091 1.632,-0.906 1.178,-1.269 0.362,-0.09 1.179,0.452 1.269,-0.452 0.362,-1.179 -0.906,-1.631 0.181,-0.544 -0.09,-1.45 0.362,-0.453 0.815,-0.09 2.175,0 2.175,-1.359 2.719,-3.263 2.084,-2.719 0.635,-1.359 3.081,-1.993 2.446,-2.446 1.722,-2.719 0.997,-2.81 0.453,-1.45 1.813,-3.353 1.813,-2.537 1.813,-2.356 2.265,-3.172 1.359,-2.265 3.443,-2.538 0.816,-1.54 0.906,-1.178 0,-0.091 2.084,-3.807 0.091,0 2.084,-4.712 4.078,-1.813 1.269,-1.178 0.362,-0.544 0,-0.815 -0.362,-1.087 -0.272,-1.45 0.453,-1.179 1.722,-0.452 0.997,-2.81 -0.271,-2.628 0,-1.359 0,-0.815 0.091,-1.903 0.09,-0.453 0.906,-1.449 0.544,-1.088 0.091,-0.182 0.906,-2.355 0.453,-1.45 0,-0.091 0.271,-1.087 0.182,-0.544 0.09,-0.182 0,-1.631 0,-0.634 0,-0.544 0.182,-0.997 0.091,-0.271 0.181,-0.544 0.544,-1.541 0.091,-0.362 0.362,-1.087 0,-0.726 0,0 0.182,-0.725 0,-0.544 0,-0.091 0,-0.453 0,-0.815 -0.091,-0.181 0,-0.997 0,-0.725 0.091,-0.363 0,-1.178 0,-0.091 -0.182,-0.453 -0.271,-0.453 -0.815,-1.178 -0.182,-0.271 -0.182,-0.544 -0.543,-1.178 -0.182,-0.997 -0.181,-0.906 0.181,-1.631 0,-0.182 0.091,-0.453 0.182,-0.725 0.09,-0.362 0.091,-0.272 0.182,-0.362 0.09,-0.182 0.182,-0.271 0.091,-0.362 0.181,-0.453 0.363,-0.544 0.362,-0.544 0.453,-0.815 0.181,-0.453 0.091,-0.362 0.272,-0.725 0.271,-0.815 0.091,-0.544 0.453,-1.722 0,-0.272 0,-0.181 0,-0.815 0,-0.362 0,0 -0.091,-1.27 0,-0.181 0,0 -0.182,-0.997 0,-0.182 0,-0.09 0.544,-1.541 0,0 0.091,-0.453 0.453,-2.355 0.091,-0.272 -0.091,-0.091 -0.182,-0.543 -0.091,-0.182 0,-0.091 0.091,-0.544 0.091,-0.181 0,0 0.091,-0.544 0,-0.271 0,-0.182 0,-1.902 0,-1.359 0,-0.091 -0.272,-0.815 -0.362,-0.726 0,0 -0.453,-0.634 -0.543,-0.815 0,0 -0.091,-0.182 -0.182,-0.453 0,-0.091 -0.091,-0.362 -0.181,-0.906 -0.091,-0.091 -0.091,-0.271 -0.906,-1.359 -0.091,-0.182 0,-0.181 -0.09,-1.45 0,-0.091 0,-0.09 0.453,-1.27 0,-0.09 0,-0.091 0.543,-0.725 0,0 0.091,-0.091 0.453,-0.726 0.091,-0.09 0.091,-0.182 0.181,-0.635 0.091,-0.09 0,-0.182 0.362,-1.178 0,-0.362 0.091,-0.453 0.091,-0.091 0,0 0,0 0.362,0 2.99,0 0.544,0 1.178,-1.722 0.906,-1.722 2.266,-1.269 0.091,-0.182 0.362,0 3.806,-0.362 7.159,-6.162 2.99,-2.537 1.269,-1.723 3.263,-0.362 4.622,-3.081 0.362,-0.362 2.355,-1.45 0.906,-0.725 0.635,-0.362 0.997,-0.725 0.996,-0.635 0.635,-0.182 3.896,-0.725 0.453,-0.091 0.271,-0.09 0.363,-0.091 0.452,-0.091 1.45,-0.271 0.362,-0.091 0.453,-0.091 0.815,-0.182 -0.09,-0.09 0.634,-0.182 3.354,-1.541 10.059,-3.171 4.168,-1.359 1.632,-0.906 0.543,-0.182 0.362,0.182 0.363,-0.272 2.265,-2.355 3.897,-4.803 3.896,-5.347 1.54,-3.172 0.091,-0.091 0.362,-0.362 -0.181,-1.631 -0.182,-0.725 -0.182,-0.453 1.541,0 0.182,0 2.809,-2.628 3.534,-2.719 1.813,-3.263 0.271,-0.271 2.085,-1.722 2.265,-1.722 1.359,-1.632 1.45,-1.631 2.084,-2.99 0.182,-1.359 0.182,-1.269 -0.091,-0.091 -0.635,-2.628 0.635,-1.45 1.54,-2.537 1.088,-1.722 1.178,-0.091 2.266,0 1.269,-0.091 1.359,0.091 1.813,-0.091 1.178,-0.543 1.631,-1.179 1.179,-0.725 1.902,-1.813 0.816,-1.903 0.725,-1.722 0.815,-3.081 -0.091,-0.181 0.635,-3.896 0.453,-0.182 0.181,-2.99 0.363,-0.906 1.449,-2.175 2.266,-3.354 0.182,-0.452 1.813,-3.988 1.269,-2.809 0.725,-0.725 10.149,-7.793 0,0 1.269,-0.997 408.963,-265.332 -63.07,335.38 0.362,1.179 33.076,95.24 0,0 0,0 0.453,0.544 5.89,7.611 0,0 9.878,11.237 0,0 4.078,11.056 0,0 5.618,18.305 0,0 -0.453,22.292 0,0.091 -6.978,9.968 0,0 1.449,3.263 0,2.266 0,0 -0.996,2.175 0.09,1.993 1.088,1.813 2.266,2.084 0,0 -0.091,3.354 0,0 0.362,1.54 0.182,2.266 0.725,1.994 0.997,1.902 0.453,1.541 -0.182,3.172 0,0.09 3.896,5.347 0,0 0,3.625 0,0.091 0.182,1.631 0.725,1.359 1.088,0.544 2.084,1.178 0.453,1.087 0,0 -0.271,1.813 -0.544,1.994 0.634,2.175 -0.453,1.54 -2.537,4.44 -0.091,0 -0.181,1.179 0.725,2.99 0,0 0.182,1.359 0,0 0.271,1.178 1.269,2.446 0.182,2.81 0,0 0.362,4.259 -0.544,2.085 0.182,2.718 0.725,2.991 0.091,2.899 0,0.091 0.635,1.993 0.996,0.635 0.906,1.631 0,1.45 0,0.091 -1.813,3.262 0,0 -0.09,5.438 0,0 -0.726,2.809 -1.722,3.897 0,0.09 0,1.541 0,0 -0.271,5.618 0,0 0.634,1.722 -0.543,1.631 -1.632,2.991 0,0 -1.087,2.266 -1.269,1.631 0,0.091 0.543,2.084 0.363,1.813 -0.091,1.449 -0.544,0.816 -0.182,0.725 -0.905,1.631 -0.091,0 -3.354,3.354 -1.902,1.358 -1.359,0 -1.088,0.363 -0.906,1.631 -0.996,1.269 -1.359,0.815 -0.906,0 -0.453,0.362 -0.726,0.091 -0.634,0.544 -0.544,2.266 -0.182,2.719 0,0 0.906,1.902 0,0 1.45,1.359 0.997,1.541 0.906,0.181 1.178,1.269 0.544,2.085 -0.544,3.806 -2.802,13.606 z"
       inkscape:connector-curvature="0"
       class="DEP_08 ZON_03" /></g></svg>