<?xml version="1.0" encoding="UTF-8" standalone="no"?>
<!-- Generator: Adobe Illustrator 19.2.0, SVG Export Plug-In . SVG Version: 6.00 Build 0)  -->

<svg
   xmlns:dc="http://purl.org/dc/elements/1.1/"
   xmlns:cc="http://creativecommons.org/ns#"
   xmlns:rdf="http://www.w3.org/1999/02/22-rdf-syntax-ns#"
   xmlns:svg="http://www.w3.org/2000/svg"
   xmlns="http://www.w3.org/2000/svg"
   xmlns:sodipodi="http://sodipodi.sourceforge.net/DTD/sodipodi-0.dtd"
   xmlns:inkscape="http://www.inkscape.org/namespaces/inkscape"
   version="1.1"
   id="SvgMunicipio"
   x="0px"
   y="0px"
   viewBox="0 0 487.3 1000"
   style="enable-background:new 0 0 487.3 1000;"
   xml:space="preserve"
   inkscape:version="0.91 r13725"
   sodipodi:docname="MUN_ID0810.svg"><metadata
     id="metadata10"><rdf:RDF><cc:Work
         rdf:about=""><dc:format>image/svg+xml</dc:format><dc:type
           rdf:resource="http://purl.org/dc/dcmitype/StillImage" /></cc:Work></rdf:RDF></metadata><defs
     id="defs8" /><sodipodi:namedview
     pagecolor="#ffffff"
     bordercolor="#666666"
     borderopacity="1"
     objecttolerance="10"
     gridtolerance="10"
     guidetolerance="10"
     inkscape:pageopacity="0"
     inkscape:pageshadow="2"
     inkscape:window-width="1366"
     inkscape:window-height="705"
     id="namedview6"
     showgrid="false"
     inkscape:zoom="0.236"
     inkscape:cx="243.64999"
     inkscape:cy="500"
     inkscape:window-x="-8"
     inkscape:window-y="-8"
     inkscape:window-maximized="1"
     inkscape:current-layer="svg" /><g
     id="g3"><path
       id="MUN_0810"
       d="m 348.4,0.5 45.5,12.7 113.1,31.6 10.1,2.8 -39,14.5 -1.1,0.4 -2,0.4 -2.2,-0.2 -1.3,-0.5 -1.8,-0.3 -1.9,0.1 -1.3,0 -0.7,0.4 -1.5,0.8 -0.2,0.5 -1.5,0.6 -0.7,1.2 -0.1,1.5 -1,1 -0.7,0.9 -0.3,0.1 -1.1,0.3 -0.9,1.1 -0.4,1.6 -1.2,2 -0.4,1.3 -0.2,2 0.7,0.5 0.7,0.9 -0.2,2 0.9,0.9 -2.3,0.3 -1.9,0.6 -0.3,0.6 -1,-0.1 -0.2,0.1 -0.6,1.3 -2.4,0.3 -1,-0.7 -0.7,0.6 -2.8,0.6 -1,-0.5 -0.9,0.2 -2.7,-2.4 -0.4,0.3 -0.4,-1.1 -1,-0.4 -0.3,0.2 -1.4,1.9 -0.9,-0.7 -0.3,0.1 -2.1,-0.5 -2.7,0.8 -2.6,2.4 -2.8,2.4 -2.3,1.9 -1.8,2 -1.9,3.2 -0.2,0.4 -0.2,0.9 -0.1,1 -0.3,0.4 -0.9,0.9 -1.2,0.5 -0.5,0.3 -0.7,0.5 -1.9,1.4 -0.6,0.6 -1.3,1.2 -0.6,0.6 -0.5,1.3 -0.1,0.1 -0.2,0.3 -0.4,1.1 -0.9,3.2 -0.5,2 -0.5,1.3 -0.5,1.4 0,0.3 -0.3,0.9 -0.4,0.9 -0.4,0.6 -0.3,0.4 -0.3,0.3 -0.5,0.2 -0.8,0.2 -1.1,0.1 -1.1,0.1 -1,0.4 -0.5,0.3 -0.6,0.4 -0.2,0.5 -0.6,0.8 -0.6,1 -0.6,1.3 -0.1,0.4 -0.9,1.9 -0.4,0.5 -1.1,1.3 -1.5,2.1 -0.7,1.1 -0.6,1.9 -0.7,1.9 -0.6,0.7 -0.7,1 -1,0.3 -1.3,0.8 -1.1,0.5 -0.7,0.5 -0.5,0.5 -0.5,0.5 -0.6,0.9 -0.1,0.7 0,0.5 -0.3,1 -0.1,0.7 -0.4,0.7 -0.2,0.4 -0.2,0.4 -0.3,0.3 -0.4,0.8 -0.2,0.7 -0.1,0.4 -0.3,0.3 0,0.2 0,0.3 -0.1,0.2 0.1,0.5 -0.2,0.5 0.1,0.4 -0.2,0.5 -0.1,0.9 0.1,0.6 -0.2,1 -0.1,0.7 -0.2,0.5 -0.1,0.5 -0.1,0.5 -0.1,0.3 -0.4,0.3 -0.4,0.5 -0.6,0.9 -0.5,1 -0.4,0.7 -0.2,0.7 0,0.4 0.1,0.5 0.2,0.6 0.5,0.6 0.5,0.6 0.6,0.7 0.5,0.5 0.3,0.3 0.1,0.1 -0.2,0.3 -0.1,0.2 0,0.2 -0.1,0.2 -0.1,0.2 -0.1,0.1 -0.1,0.2 -0.3,0.5 -0.3,0.3 -0.5,0.6 -0.4,0.4 -0.3,0.3 -0.3,0.4 -0.3,0.4 -0.4,0.4 -0.2,0.4 -0.2,0.3 -0.2,0.3 -0.1,0.2 -0.1,0.2 0,0.3 0,0.3 -0.1,0.3 -0.1,0.4 -0.1,0.4 -0.1,0.3 -0.1,0.3 -0.2,0.4 -0.1,0.4 -0.2,0.3 -0.2,0.2 -0.2,0.3 -0.5,0.7 -0.5,0.4 -0.5,0.5 -0.3,0.5 -0.3,0.4 -0.4,0.8 -0.4,0.6 -0.2,0.3 -0.4,0.4 -0.3,0.5 -0.6,0.7 -0.7,0.8 -0.4,0.6 -0.3,0.3 -0.4,0.4 -0.8,0.7 -0.7,0.6 -0.5,0.4 -1.2,1 -1,0.8 -0.5,0.5 -0.3,0.3 -0.6,0.3 -0.6,0.3 -0.6,0.2 -0.3,0.1 -0.3,0.2 -0.5,0.1 -0.7,0.1 -0.3,0 -0.4,0.1 -0.6,0.3 -0.5,0.3 -0.4,0.4 -0.7,1.2 -0.7,1.2 -0.6,1.4 -0.4,0.7 -0.2,0.8 -0.4,1.2 -0.6,1.9 -0.2,1.1 -0.1,0.9 -0.6,1.1 -0.2,0.6 -0.2,0.5 -0.4,0.5 -1.1,1.1 -0.9,0.4 -0.2,0.2 -0.1,0.1 -0.1,0.2 -0.1,0.3 -0.1,0.3 -0.2,0.4 0,0.7 0.1,1.3 -0.2,1.5 -0.2,1.4 -0.3,1.2 -0.6,2.4 -0.1,0.6 -1.5,3.2 -0.2,1.2 -0.3,1.1 -0.2,1 -0.2,0.6 -0.2,0.7 -0.4,1.7 -0.1,0.4 -0.1,0.3 -0.2,0.4 -0.4,0.5 -0.3,0.4 -0.2,0.4 -0.2,0.9 -0.4,1 -0.3,0.6 -0.2,0.7 0,0.9 0,0.6 0.1,1.4 0.1,1.4 0.1,1 0.2,1.4 0.1,0.7 -0.1,1 -0.1,0.6 -0.1,0.7 -0.1,0.3 0.1,0.4 0.1,0.4 0.4,0.7 0.4,0.8 0.3,0.6 0.3,0.4 0.4,0.3 0.3,0.3 0.3,0.5 0.3,1 0.4,1 0.2,0.5 0.4,0.7 0.2,0.4 0.2,0.4 0.1,0.5 0,0.3 0,0.4 0,0.4 -0.1,0.4 -0.2,0.3 -0.3,0.4 -0.4,0.4 -0.5,0.2 -0.8,0.3 -0.9,0.1 -0.5,-0.1 -0.3,-0.1 -0.7,-0.2 -0.4,-0.2 -0.3,0 0.1,0 -0.4,0.1 -0.4,0.1 -0.2,0.6 -0.4,0.3 -0.2,0.2 -0.1,0.3 -0.2,0.4 -0.2,0.3 -0.2,0.5 -0.4,0.9 -0.3,0.4 -0.2,0.6 -0.2,0.5 -0.1,0.3 -0.2,0.5 -0.3,0.7 -0.3,0.4 -0.2,0.4 -0.1,0.4 0,0.3 0.1,0.7 0.1,0.6 0.4,1.8 0.3,0.4 0.4,0.9 0.5,0.7 0.3,0.5 0.4,0.7 0.4,1 0.4,0.7 0.5,0.7 0.6,0.8 0.4,0.5 0.3,0.5 0.1,0.4 0,0.3 -0.1,0.7 -0.1,0.4 -0.1,0.3 -0.3,0.4 -0.2,0.3 -0.1,0.3 -0.1,0.3 0.2,0.6 0.1,0.4 0.1,0.7 0.1,0.3 -0.1,0.5 -0.1,0.5 -0.1,0.4 -0.4,1 -0.2,0.4 -0.2,0.4 -0.3,0.3 -0.3,0.2 -0.2,0.2 -0.3,0.2 -0.3,0.1 -0.2,0.1 -0.2,0.2 -0.4,0.3 -0.3,0.2 -0.3,0.4 -0.2,0.4 -0.1,0.5 -0.2,1.1 -0.1,1 -0.1,0.7 -0.1,0.4 -0.1,0.3 0.1,0.3 0.1,0.4 0.2,0.4 0.2,0.3 0.1,0.3 0,0.3 0.1,0.2 0,0.2 0,0.3 -0.1,0.2 -0.1,0.3 -0.5,0.9 -0.3,0.4 -0.3,0.4 -0.1,0.2 -0.1,0.4 -0.1,0.4 0,0.4 0.1,0.2 0.2,0.2 0.2,0.1 0.2,0.3 0.1,0.3 0,0.3 0,0.4 -0.1,0.4 -0.1,0.8 -0.1,0.8 -0.1,0.5 -0.2,0.8 -0.2,0.7 -0.1,0.3 -0.1,0.2 -0.2,0.3 -0.2,0.2 -0.2,0.2 -0.2,0.2 -0.2,0.2 -0.1,0.2 -0.2,0.6 -0.1,0.6 -0.1,0.4 0,0.4 -0.1,0.3 -0.1,0.3 -0.2,0.7 0,0.4 0,0.4 0.1,0.4 0.1,0.4 0.2,0.6 0.3,0.9 0.1,0.2 0.2,0.5 0.2,0.5 0.5,1.1 0.2,0.6 0.2,0.5 0.2,0.2 0.2,0.3 0.3,0.3 0.2,0.2 0.2,0.3 0.3,0.3 0.2,0.3 0.2,0.4 0.2,0.3 0.2,0.4 0.1,0.3 0.1,0.3 0,0.6 0,0.8 0.1,0.9 -0.1,0.6 0.1,0.5 0.1,0.6 0.2,0.4 0.3,0.5 0.2,0.6 0.1,0.5 0,0.5 0,0.3 0,0.4 -0.1,0.6 -0.1,0.3 -0.1,0.3 -0.1,0.3 0,0.3 0,0.4 0,0.3 0.1,0.3 0.2,0.3 0.1,0.2 0.6,0.9 0.2,0.3 0.7,0.9 0.1,0.2 0.1,0.2 0,0.2 0,0.2 -0.1,0.2 -0.1,0.2 -0.1,0.1 -0.5,0.3 -0.3,0.1 -0.3,0.1 -0.3,0.1 -0.1,0.2 -0.2,0.1 -0.2,0.3 -0.4,0.4 -0.9,1 -1.1,0.5 -0.5,0.2 -0.3,0.1 -0.4,0 -0.9,0.1 -2.1,0.3 -0.4,0.1 -0.5,0.2 -0.4,0.3 -0.5,0.3 -0.7,0.6 -0.7,0.5 -0.5,0.5 -0.4,0.3 -0.4,0.3 -0.3,0.2 -0.5,0.2 -0.3,0.3 -0.4,0.3 -0.3,0.3 -0.4,0.2 -0.4,0.2 -0.6,0.1 -0.4,0.1 -0.3,0.2 -0.5,0.3 -0.3,0.2 -0.2,0.4 -0.1,0.4 0,0.4 0.1,0.6 0.1,0.6 -0.1,0.4 -0.2,0.4 -0.2,0.4 -0.2,0.2 -0.4,0.2 -0.3,0.1 -1.2,0.2 0.1,-1.1 -0.5,0 -0.6,0.1 -0.4,0.2 -0.4,0.1 -0.5,0.2 -0.3,0.1 -0.3,0.1 -0.3,0 -0.3,0 -0.3,0 -0.2,0.1 -0.2,0.1 -0.4,0.4 -0.3,0.5 -0.3,0.5 -0.2,0.5 -0.1,0.5 -0.1,0.5 -0.1,0.4 -0.1,0.3 -0.1,0.3 -0.1,0.3 -0.2,0.3 -0.2,0.3 -0.4,0.7 -0.5,0.5 -0.9,1 -0.9,1 -0.4,0.4 -0.1,0.4 0.2,0.8 0.1,0.7 0.1,0.3 0.1,0.2 0.1,0.1 0,0.1 0,0.2 -0.1,0.2 -0.5,0.7 -0.7,0.8 -0.6,0.7 -0.4,0.7 -0.3,0.5 -0.2,0.5 -0.1,0.4 -0.1,0.7 -0.1,0.5 -0.1,0.4 -0.2,0.5 -0.3,0.5 -0.3,0.6 -0.4,0.5 -0.3,0.4 -0.4,0.5 -0.4,0.3 -0.6,0.4 -0.4,0.3 -0.4,0.3 -0.2,0.3 -0.2,0.4 -0.1,0.4 -0.1,0.3 -0.1,0.5 0,0.7 0.2,0.4 0.2,0.5 0.4,0.7 0.3,0.4 0.4,0.4 0.5,0.4 0.7,0.5 0.4,0.3 0.3,0.3 0.2,0.2 0.1,0.2 0.1,0.3 0,0.3 -0.2,0.3 -0.1,0.4 -0.2,0.5 -0.1,0.3 0.1,0.4 0.2,0.7 0.2,0.5 0.4,0.9 0.2,0.6 0.4,0.9 0.4,0.6 0.4,0.6 0.2,0.4 0.2,0.4 0.1,0.4 0.2,0.5 0.1,0.4 0,0.4 0,0.4 -0.1,0.6 -0.2,0.6 -0.4,0.9 -0.4,0.5 -0.3,0.4 -0.2,0.5 -0.1,0.5 -0.1,0.5 -0.1,0.4 0,0.5 0,0.4 -0.1,0.4 -0.2,0.4 -0.3,0.6 -0.3,0.6 -0.4,0.6 -0.4,0.7 -0.4,0.5 -0.3,0.4 -0.4,0.4 -0.2,0.4 -0.4,0.4 -0.3,0.4 -0.1,0.5 0,0.5 0,0.6 0.1,0.6 0.1,0.4 0.1,0.8 0.1,0.5 0.1,0.4 0,0.4 0,0.4 -0.1,0.3 0,0.3 -0.2,0.3 -0.2,0.2 -0.4,0.4 -0.3,0.2 -0.3,0.2 -0.3,0.2 -0.3,0.2 -0.3,0.3 -0.2,0.4 -0.1,0.4 0,0.4 0,0.3 0.1,0.5 0.3,0.4 0.2,0.2 0.1,0.4 0.1,0.3 0.1,0.2 0,0.3 -0.2,0.5 -0.1,0.4 -0.3,0.3 3.2,5.7 0.2,0.3 0.2,1.4 0.1,1.6 0.5,2.7 0.2,0.6 0.4,1.4 0.1,1.9 0.2,2.8 0.1,0.7 0.3,3 0.2,2.4 0.5,3 0.2,1 4.1,0.1 1.2,0.2 0,0.2 0,3.4 -0.7,-0.2 0.1,1.9 -0.4,1.1 -0.2,-0.1 0.3,2.4 0.6,2 -0.1,3.8 0.5,1.5 0.1,0.4 0.2,0.4 0.3,2 0.3,3.4 0.1,1.5 0.4,2.1 0.2,2 0.3,2.6 0.3,3.1 0,0.1 -0.1,0.5 -3,66.3 -4.6,0.3 -2.2,0.4 -2.3,0.5 -1.9,0.3 -0.2,0.4 -0.3,0.6 -0.2,0.6 -0.1,0.5 -0.2,0.5 -0.2,0.5 -0.2,0.5 -0.1,0.3 -0.1,0.3 0.1,0.2 0.1,0.2 0.2,0.2 0.2,0.3 0.2,0.2 0,0.2 0,0.2 -0.1,0.2 -0.2,0.3 -0.4,0.2 -0.2,0.3 -0.1,0.2 0,0.3 0.1,0.3 0.2,0.3 0.3,0.3 0.3,0.3 0.2,0.3 0.2,0.4 0.1,0.4 0.1,0.5 -0.2,0.3 -0.3,0.4 -0.3,0.3 0.2,-0.7 -0.2,0.1 -0.3,0.1 -0.3,0.2 -0.1,0.2 -0.1,0.2 -0.1,0.2 -0.3,0.3 -0.2,0.2 -0.4,0.5 -0.3,0.2 -0.3,0.3 -0.3,0.2 -0.2,0.2 -0.1,0.3 -0.1,0.3 0,0.3 0.1,0.3 0.2,0.2 0.2,0.3 0.4,0.6 0.5,0.5 0.3,0.4 0.2,0.2 0.1,0.3 0.1,0.3 0.1,0.4 0,0.4 0,0.4 0,0.5 0,0.3 0,0.5 0,0.5 0.1,0.4 0.1,0.3 0.1,0.3 0,0.3 -0.1,0.2 -0.2,0.3 -0.2,0.3 -0.4,0.3 -0.5,0.4 -0.3,0.2 -0.3,0.3 -0.3,0.2 -0.1,0.3 0,0.2 0.2,0.2 0.3,0.3 0.3,0.2 0.3,0.3 0.3,0.2 0.2,0.1 0.2,0.1 0.1,0.2 -0.1,0.2 -0.4,0.6 -0.2,0.3 -0.1,0.4 -0.1,0.2 0.1,0.4 0.1,0.3 0,0.5 0,0.4 0.1,0.4 0,0.6 -2.9,0.3 -0.3,0.1 -2.6,0.4 -1.4,0.3 -0.5,0.1 -0.9,0.3 -1.5,0.3 -4.7,0.7 -2.5,0.5 -0.6,0.1 -0.6,0.1 -0.1,0.3 -0.2,0.5 -0.1,0.6 -0.1,0.3 -0.1,1 0,0.3 -0.1,1 0,0.5 0.1,0.3 -3,1.4 -0.2,0.6 -0.1,0.4 -0.1,0.3 -0.2,0.3 -0.1,0.3 0.1,0.3 0.1,0.4 0.2,0.3 0.3,0.4 0.1,0.5 0,0.3 0,0.7 0.1,0.7 0.1,0.7 0.1,0.4 0,0.4 -0.1,0.5 -0.3,0.5 -0.1,0.6 0,0.5 0,0.6 0,0.9 0,0.5 0,0.5 -0.1,0.4 -0.1,0.5 -0.1,0.4 -0.2,0.5 -0.2,0.4 -0.2,1 -0.2,0.5 -0.2,0.5 -0.3,0.7 -0.1,0.6 -0.1,0.6 -0.1,0.5 -0.1,0.6 0,0.6 0,0.5 0.1,0.5 0.1,0.6 0,0.7 0.1,0.6 0.1,0.5 0,0.5 -0.1,0.6 -0.1,0.6 -0.1,0.5 -0.2,0.4 -0.4,0.8 -0.3,0.6 -0.2,0.5 -0.1,0.5 -0.1,0.4 0,0.4 -0.1,0.6 -0.1,0.7 0,1.1 0,0.9 -0.1,1.2 -0.1,0.5 -0.2,1 -0.1,0.8 -0.2,0.9 -0.2,1.2 -0.2,0.8 -0.1,0.6 0,0.5 0,0.4 0.1,0.5 0.1,0.4 0.1,0.5 0.1,0.3 0.1,0.4 0,0.3 0,0.4 -0.1,0.5 -0.2,0.4 -0.3,0.5 -0.3,0.5 -0.3,0.4 -0.3,0.5 -0.2,0.5 -0.2,0.9 -0.2,0.7 -0.2,1.3 -0.2,0.7 -0.2,0.7 -0.1,0.7 0,0.6 -0.1,0.5 0.1,0.7 0.2,0.5 0.2,0.4 0.2,0.4 0.2,0.4 0.1,0.3 0,0.4 -0.1,0.4 -0.1,0.4 -0.2,0.4 -0.3,0.4 -0.4,0.3 -0.4,0.3 -0.4,0.3 -0.3,0 -0.2,-0.1 -0.4,-0.1 -0.3,-0.2 -0.3,-0.2 -0.3,-0.1 -0.2,0.1 -0.3,0.1 -0.3,0.3 -0.2,0.3 -0.3,0.4 -0.4,0.4 -0.5,0.5 -0.4,0.4 -0.4,0.3 -0.3,0.3 -0.3,0.3 -0.1,0.3 -0.1,0.3 -0.3,0.7 -0.3,1.3 -0.2,0.4 -0.2,0.4 -0.1,0.4 -0.2,0.4 -0.3,0.4 -0.4,0.7 -0.3,0.5 -0.3,0.5 -0.2,0.4 -0.1,0.5 0,0 -0.2,0.5 -0.1,0.6 -0.2,0.5 -0.2,0.5 -0.2,0.5 -0.4,0.5 -0.4,0.9 -0.3,0.4 -0.2,0.3 -0.2,0.4 -0.3,0.3 -0.2,0.2 -0.3,0.2 -0.2,0.1 -0.5,0.2 -0.3,0.2 -0.2,0.2 0,0.2 -0.2,0.2 -0.2,0.3 -0.3,0.3 -0.3,0.3 -0.1,0.3 -0.1,0.3 -0.1,0.3 0,0.2 0.1,0.3 0.1,0.4 0.1,0.6 0.1,0.5 0.1,0.4 -0.1,0.3 -0.1,0.3 -0.1,0.3 -0.4,0.4 -0.4,0.3 -0.2,0.3 -0.1,0.3 -0.1,0.4 -0.1,0.4 -0.2,0.4 -0.2,0.3 -0.3,0.4 -0.2,0.2 -0.3,0.2 -0.2,0.1 -0.3,0.1 0,0 -0.2,0.2 -0.2,0.2 -0.2,0.4 -0.2,0.5 -0.1,0.6 -0.1,0.4 0,0.3 0.1,0.4 0.1,0.2 0.2,0.2 0.2,0.2 0.3,0.2 0.2,0.1 0.4,0.1 0.1,0 0.4,-0.1 0.4,0 0.3,-0.1 0.4,0.1 0.2,0.2 0.4,0.3 0.3,0.3 0.2,0.3 0.1,0.3 -0.1,0.4 0,0.4 -0.3,0.6 -0.3,0.5 -0.3,0.3 -0.2,0.3 -0.2,0.4 -0.1,0.3 -0.2,0.3 -0.3,0.2 -0.1,0.1 -0.2,-0.6 0,0.3 0.1,0.3 0.1,0.2 0.1,0.2 0.3,0.2 0.2,0.2 0.3,0.2 0.3,0.1 0.4,0 0.3,0.1 0.4,-0.1 0.3,0.1 0.2,0.2 0.2,0.2 0.1,0.4 0,0.3 0,0.3 0,0.4 -0.1,0.3 -0.3,0.5 -0.1,0.4 -0.1,0.5 0,0.4 0,0.3 0.1,0.3 0.2,0.3 0.3,0.3 0.3,0.3 0.3,0.3 0.3,0.6 0.4,0.8 0.2,0.5 0.2,0.3 0.2,0.4 0.2,0.4 0.1,0.2 0.1,0.7 0,0.5 -0.1,0.6 -0.3,1 -0.5,1.2 -0.3,0.6 -0.2,0.3 -0.3,0.3 -0.3,0.2 -0.3,0.3 -0.3,0.3 -0.3,0.2 -0.4,0.2 -0.3,0 -0.4,0 -0.5,0 -0.5,0.1 -0.4,0.3 -0.3,0.3 -0.2,0.3 -0.2,0.4 -0.1,0.2 -0.2,0.4 -0.3,0.3 -0.5,0.3 -0.2,0.2 -0.3,0.4 -0.2,0.3 -0.3,0.5 -0.2,0.5 -0.2,0.4 -0.7,1.1 -0.8,1.2 -0.4,0.9 -0.2,0.6 -0.1,0.7 0,0.4 0.1,0.4 0.1,0.6 0.2,0.4 0.5,1.2 0.5,1.4 0.5,1 0.3,1 0.1,0.4 0.1,0.4 0,0.3 -0.1,0.3 -0.2,0.4 -0.2,1.1 -0.4,1 -0.3,1.1 -0.2,1 0,0.6 0.1,0.4 0.1,0.4 0.2,0.3 0.3,0.4 0.3,0.4 0.4,0.2 0.4,0.3 0.3,0.4 0.3,0.3 0.4,0.3 0.3,0.4 0.4,0.4 0.4,0.3 0.3,0.3 0.3,0.3 0,0.1 0.3,0.3 0.9,0.6 0.6,0.5 0.6,0.5 0.4,0.4 0.3,0.4 0.2,0.3 0.3,0.4 0.1,0.4 0.1,0.5 0.1,0.4 0,0.3 -0.1,0.3 -0.2,0.3 -0.3,0.3 -0.2,0.2 -0.3,0.1 -0.3,0.1 -0.3,0.1 -0.3,0.2 -0.3,0.3 -0.4,0.6 -0.9,0.9 -0.4,0.5 -0.2,0.2 -0.1,0.3 -0.1,0.2 -0.2,0.4 -0.1,0.3 -0.2,0.3 0,0.2 -0.1,0.3 -0.2,0.3 -0.2,0.3 -0.4,0.3 -0.4,0.5 -0.3,0.4 -0.2,0.3 -0.1,0.3 -0.2,0.4 -0.2,-0.6 -0.2,0.2 -0.2,0.3 0,0.4 0,0.3 -0.1,0.4 -0.1,0.4 -0.2,0.4 -0.3,0.3 -0.1,0.4 0,0.3 -0.1,0.4 -0.2,0.7 -0.1,0.5 -0.2,0.2 -0.3,0.3 -0.4,0.2 -0.3,-0.1 -0.2,-0.1 -0.3,-0.2 -0.2,-0.3 -0.2,-0.3 -0.3,-0.4 -0.1,-0.3 -0.1,-0.3 0.1,-0.5 0.1,-0.4 -0.1,-0.2 -0.1,-0.2 -0.2,-0.2 -0.3,-0.2 -0.3,-0.1 -0.3,-0.1 -0.3,-0.1 -0.3,0 -0.3,0 -0.3,0 -0.4,-0.1 -0.5,-0.2 -0.4,-0.1 -0.4,-0.1 -0.5,0 -0.4,0 -0.4,0.1 -0.2,0.2 -0.3,0.2 -0.2,0.4 -0.5,0.7 -0.4,0.4 -0.5,0.4 -0.2,0.1 -0.5,0.2 -0.6,0 -0.5,0.1 -0.5,0.2 -0.3,0.2 -0.5,0.4 -0.2,0.2 -0.3,0.4 -0.1,0.3 -0.1,0.4 0.1,0.4 0.2,0.3 0.5,0.5 0.4,0.4 0.3,0.5 0.2,0.4 0.1,0.4 0,0.4 0,0.5 -0.1,0.4 0,0.3 0,0.3 -0.1,0.2 -0.1,0.2 -0.2,0.3 -0.2,0.2 -0.2,0.4 -0.1,0.3 -0.2,0.4 -0.2,0.3 -0.3,0.2 -0.3,0.2 -0.4,0.1 -0.4,0.1 -0.4,0.1 -0.4,0 -0.7,-0.1 -0.5,0 -0.3,-0.1 -0.5,0.1 -0.3,0 -0.3,0.2 -0.2,0.2 -0.2,0.3 -0.1,0.3 0.1,0.3 0.1,0.4 0.2,0.6 0.2,0.7 0.1,0.5 0.2,0.3 0.2,0.2 0.2,0.2 0.2,0.3 0.1,0.3 0.1,0.2 0.1,0.3 0.1,0.2 0.1,0.2 0.2,0.4 0.2,0.4 0.1,0.4 0,0.4 -0.1,0.3 -0.1,0.4 -0.2,0.3 -0.2,0.2 -0.2,0.2 -0.3,0.2 -0.2,0.2 -0.2,0.2 -0.1,0.3 -0.1,0.5 -0.1,0.5 -0.1,0.4 -0.1,0.3 -0.1,0.4 -0.1,0.4 -0.1,0.6 0,0.5 0,0.4 0.1,0.5 0.1,0.3 0.2,0.5 0.2,0.4 0.2,0.4 0.3,0.3 0.5,0.3 0.5,0.3 0.5,0.3 0.4,0.2 0.4,0.1 0.6,0.1 0.6,0.1 0.5,0.2 0.4,0.2 0.3,0.2 0.2,0.2 0.1,0.3 0,0.2 0.1,0.5 0,0.3 0.1,0.3 0.2,0.4 0.3,0.5 0.4,1 0.5,0.7 0.4,0.4 0.4,0.5 0.4,0.6 0.3,0.4 0.2,0.4 0.1,0.5 0.1,0.6 0.1,0.4 -0.1,0.6 0,0.6 0.1,0.6 0.1,0.3 0.2,0.2 0.2,0.2 0.3,0.2 0.2,0.2 0.2,0.3 0.1,0.2 0.2,0 0.2,0.1 0.2,0.1 0.2,0.2 0.1,0.4 0,0.3 0,0.2 -0.1,0.2 -0.1,0.1 -0.2,0.2 -0.1,0.2 -0.1,0.6 -0.2,0.4 -0.1,0.3 0,0.2 -0.1,0.2 -0.1,0.2 -0.2,0.2 -0.4,0.4 -0.1,0.3 -0.1,0.2 -0.2,0.2 -0.1,0.1 -0.1,0.1 -0.1,0.1 0,0.4 0,0.5 0,0.4 0.1,0.9 0.1,0.2 0.3,0.4 0.4,0.5 0.3,0.3 0.2,0.3 0.1,0.3 0,0.3 0,0.4 0,0.5 0,0.4 0.1,0.2 0.3,0.2 0.3,0.2 0.4,0.3 0.4,0.5 0.3,0.3 0.3,0.3 0.2,0.5 0.2,0.4 0,0.3 -0.2,0.5 -0.1,0.4 0.1,0.4 0.1,0.3 0.2,0.3 0.3,0.3 0.3,0.4 0.2,0.5 0.1,0.4 0.1,0.4 0,0.3 -0.3,0.9 -0.3,0.5 -0.3,0.5 -0.3,0.5 -0.3,0.3 -0.3,0.2 -0.3,0.1 -0.3,0.1 -0.3,-0.2 -0.2,-0.1 -0.2,-0.1 -0.4,0 -0.3,0.1 -0.2,0.2 -0.3,0.3 -0.4,0.4 -0.3,0.3 -0.3,0.1 -1.1,1 -0.9,0.6 -0.9,0.5 -0.7,0.2 -0.3,0.1 -0.4,0.1 -0.4,0.1 -0.3,0.2 -0.2,0.2 -0.3,0.3 -0.2,0.4 -0.2,0.5 -0.1,0.3 -0.1,0.3 -0.2,0.2 -0.3,0.2 -0.3,0.3 -0.6,0.2 -0.4,0.2 -0.3,0.2 -0.2,0.1 -0.2,0.3 0.4,-0.7 -0.2,1.5 -0.1,0.9 -0.1,0.5 -0.2,0.4 -0.1,0.2 -0.2,0.2 -0.2,0.1 -0.4,0.1 -1.1,0.3 -1,0.2 -0.7,0.2 -0.4,0.1 -0.3,0.2 -0.3,0.2 -0.2,0.3 -0.1,0.2 -0.1,0.3 0,0.5 0,0.3 -0.1,0.4 -0.2,0.5 -0.3,0.6 -0.3,0.5 -0.3,0.3 -0.3,0.3 -0.4,0.5 -0.2,0.4 -0.2,0.6 -0.3,0.7 -0.1,0.6 -0.1,0.9 -0.1,1 -0.3,0.8 -0.4,0.8 -0.5,1.1 -0.3,0.6 -0.2,0.2 -0.3,0 -0.2,-0.1 -0.4,0.1 -0.3,0.2 -0.5,0.3 -0.3,0.4 -0.4,0.2 -0.4,0.2 -0.3,0.1 -0.4,0 -0.4,0.1 -0.3,0.1 -0.3,0.2 -0.2,0.3 -0.1,0.2 0,0.3 0,0.3 0.2,0.2 0.3,0.5 0.4,0.6 0.6,1.1 1,1.3 0.6,1 0.5,0.9 0.4,0.5 0.4,0.4 0.3,0.4 0.2,0.2 0.2,0.3 0.1,0.3 0,0.6 0.1,0.6 0.1,0.5 0.1,0.4 0.1,0.3 0,0.3 0,0.3 -0.1,0.2 -0.2,0.2 -0.3,0.2 -0.3,0.2 -0.8,0.2 -0.5,0.2 -0.5,0.3 -0.5,0.3 -0.7,0.5 -0.5,0.5 -0.5,0.6 -1.8,3.2 -0.4,0.9 -0.2,0.4 0,0.3 0,0.3 0,0.2 0.2,0.1 0.2,0.3 0.2,0.3 0.2,0.5 0.1,0.4 0.2,0.4 0.2,0.5 0.2,0.5 0.2,0.7 0.1,0.5 0.1,0.7 0.1,0.5 0,0.4 -0.1,0.3 -0.1,0.3 -0.2,0.3 -0.1,0.3 0,0.4 0,0.3 -0.2,0.4 -0.1,0.4 -0.1,0.5 0.1,0.5 0,0.5 -0.1,0.5 -0.2,0.5 -0.3,0.4 -0.2,0.4 -0.1,0.2 0,0.3 0,0.3 -0.2,0.4 -0.2,0.4 -0.2,0.4 -0.2,0.4 -0.3,0.3 -0.2,0.4 -0.1,0.3 0,0.4 0,0.3 -0.1,0.4 -0.1,0.3 -0.2,0.5 -0.3,0.4 -0.2,0.3 -0.3,0.4 -0.2,0.3 -0.2,0.2 -0.1,0.2 -0.2,0.4 -0.1,0.6 -0.1,0.7 0,0.3 0,0.3 0.1,0.3 0,0.3 0,0.3 -0.1,0.3 -0.2,0.3 -0.2,0.3 -0.2,0.3 -0.2,0.2 -0.3,0.1 -0.2,0.1 -0.3,0.1 -0.2,0 -0.2,0.2 -0.2,0.2 -0.3,0.4 -0.2,0.6 -0.1,0.5 -0.1,0.6 -0.1,0.4 -0.2,0.5 -0.2,0.5 -0.2,0.3 -0.1,0.4 -0.1,0.3 -0.1,0.4 0,0.4 0,0.3 0,0.3 -0.1,0.1 -0.1,0.2 -0.1,0.1 -0.1,0.3 -0.1,0.4 -0.1,0.2 -0.1,0.3 -0.1,0.3 -0.1,0.2 -0.1,0.2 -0.1,0.1 -0.2,0.1 -0.1,0 -0.2,0 -0.1,0.1 -0.1,0.2 0,0.2 0,0.4 0.1,0.4 0.1,0.3 0.1,0.2 0,0.3 -0.1,0.2 -0.1,0.4 0,0.3 0.1,0.3 0.2,0.2 0.2,0.2 0.3,0.3 0.6,0.4 0.3,0.2 0.2,0.2 0.2,0.2 0.1,0.3 0.2,0.3 0.4,0.4 0.4,0.3 0.3,0.4 0.3,0.3 0.4,0.6 0.3,0.4 0.2,0.4 0.2,0.3 0.4,0.3 0.5,0.3 0.3,0.3 0.4,0.5 0.4,0.4 0.4,0.4 0.3,0.3 0.3,0.2 0.2,0.2 0.2,0.2 0.1,0.3 0.2,0.3 0.2,0.4 0.1,0.4 0.2,0.3 0.1,0.3 0.1,0.3 0.1,0.2 0.2,0.2 0.2,0.2 0.1,0.3 0.2,0.3 0.2,0.2 0.2,0.1 0.2,0.1 0.1,0.1 0.2,0.1 0.1,0.3 0.3,0.5 0.2,0.3 0.3,0.5 0.3,0.5 0.1,0.5 0.2,0.3 0.2,0.3 0.2,0.3 0.1,0.3 0.2,0.4 0.2,0.4 0.2,0.2 0.2,0.3 0.1,0.2 -0.1,0.2 -0.1,0.3 -0.1,0.3 0,0.5 0.1,0.4 0.1,0.3 0.1,1 0.1,0.6 0.1,0.5 0,0.4 0,0.5 -0.1,0.4 0,0.3 -0.1,0.3 -0.1,0.2 0,0.3 0,0.3 0,0.2 0.2,0.6 0.2,0.6 0.1,0.6 0.1,0.5 0.1,0.4 0.1,0.5 0.1,0.4 0.1,0.3 0.1,0.3 0.2,0.2 0.1,0.3 0,0.3 0,0.3 -0.1,0.5 -0.1,0.5 -0.1,0.5 -0.1,0.9 -0.1,0.5 -0.1,0.3 -0.1,0.2 -0.2,0.2 -0.1,0.1 -0.1,0.3 0,0.3 0,0.3 0.1,0.3 0.1,0.3 0.1,0.4 0.2,0.4 0.1,0.6 0.1,0.6 0,0.5 0.1,0.4 -0.2,1 -0.1,0.4 0,0.4 0,0.4 0.1,0.5 0,0.5 0,0.5 0,0.3 -0.1,1 -0.1,0.5 -0.1,0.5 0,0.5 0,0.3 0.1,0.3 0.1,0.2 0.2,0.3 0,0.2 0,0.3 0,0.6 -0.2,0.6 -0.2,0.6 -0.3,1.3 -0.1,0.6 0,0.4 0,0.4 0,0.3 0,0.3 0,0.5 -0.1,0.3 -0.1,0.4 -0.1,0.2 -0.1,0.4 0,0.5 -0.1,0.4 -0.2,0.7 -0.1,0.9 -0.2,0.6 -0.3,0.8 -0.2,0.4 -0.2,0.4 -0.3,0.3 -0.2,0.2 -0.2,0.5 -0.1,0.4 0,0.3 -0.1,0.4 0,0.4 -0.2,1 -0.4,1.6 -0.8,2.3 -0.7,2.2 -0.2,0.6 -0.2,0.5 0,0.4 0.1,0.3 0,0.4 -0.1,0.4 -0.2,0.3 -0.2,0.4 -0.1,0.4 0,0.4 0.1,0.3 0.1,0.4 -0.1,0.4 -0.1,0.5 -0.2,0.5 -0.2,0.4 -0.2,0.3 -0.3,0.5 -0.2,0.5 -0.2,0.6 0.5,-1.8 -0.2,1 -0.2,0.8 -0.1,0.6 0,0.5 0,0.3 -0.1,0.4 -0.1,0.4 -0.2,0.9 -0.2,0.5 -0.2,0.4 -0.1,0.5 0,0.4 0.1,0.4 -0.1,0.4 -0.2,0.4 -0.3,0.9 -0.1,1 -0.1,0.5 -0.3,0.4 -0.1,0.3 0,0.3 0,0.5 0,0.3 -0.2,0.5 -0.2,0.6 -0.2,0.3 -0.2,0.4 -0.2,0.5 0,0.6 -0.1,0.5 -0.1,0.4 0,0.5 -0.1,0.4 -0.2,0.4 -0.2,0.4 -0.2,0.4 -0.3,0.2 -0.1,0.2 -0.1,0.5 -0.1,0.5 0.1,0.3 0.1,0.3 -0.1,0.4 -0.3,0.6 -0.4,0.8 -0.4,1.2 -0.4,1.2 -0.3,1.3 -0.1,1 -0.5,1.5 -0.4,1.1 -0.2,0.8 0,0.5 0,0.5 -0.1,0.5 -0.1,0.4 -0.1,0.5 -0.1,0.4 0,0.4 0,0.3 0,0.2 -0.2,0.5 -0.3,0.9 -0.2,0.6 -0.1,0.9 -0.2,0.7 -0.3,0.5 -0.1,0.4 -0.3,0.6 -0.1,0.3 -0.1,0.5 -0.1,0.4 -0.1,0.4 -0.1,0.6 -0.1,0.5 0,0.4 -0.1,0.4 -0.2,0.3 -0.1,0.4 -0.2,0.4 -0.1,0.4 -0.1,0.3 -0.1,0.4 -0.1,0.5 0.6,0.1 0,0.5 0,0.5 -0.2,0.6 -0.3,0.6 -0.3,0.8 -0.1,0.6 0,0.4 -0.1,0.4 -0.1,0.3 -0.2,0.4 -0.2,0.3 -0.1,0.3 -0.2,0.4 -0.1,0.4 -0.1,0.3 0,0.3 -0.1,0.3 -0.1,0.4 -0.1,0.4 0,0.4 -0.1,0.5 -0.1,0.3 -0.2,0.4 0.1,0.5 0,0.2 -0.1,0.3 -0.2,0.4 -0.2,0.5 -0.1,0.4 -9.6,-2 -2.7,-0.5 -9.9,-1.9 -0.4,0.1 -4.5,-0.6 -4.4,-0.6 -3.1,-0.6 -1.5,-0.1 -6,-0.6 -3.6,-0.4 -0.8,-0.1 -1,-0.1 -0.7,-0.1 -0.8,-0.1 -1.2,-0.1 -0.6,-0.1 -0.7,-0.1 -0.6,-0.1 -0.7,-0.1 -1,-0.1 -1.1,-0.1 -0.6,-0.1 -0.7,-0.1 -0.5,-0.1 -0.5,0 -0.3,-0.1 -0.4,0 -0.7,-0.1 -0.3,-0.1 -0.5,0 -0.3,-0.1 -0.5,-0.1 -0.3,0 -0.5,-0.1 -0.4,0 -0.5,-0.1 -0.4,-0.1 -0.3,0 -0.3,-0.1 -0.7,-0.1 -0.2,0 -0.3,0 -0.4,-0.1 -0.8,-0.1 -0.6,-0.1 -0.4,-0.1 -0.4,-0.1 -0.4,-0.1 -0.7,-0.1 -0.6,-0.1 -0.3,0 -0.3,-0.1 -0.2,0 -0.8,-0.1 -0.3,0 -0.1,0 -0.4,-0.1 -0.5,-0.1 -0.6,-0.1 -20.8,-1.8 0.6,-3.6 0.2,-4.8 -0.3,-4.1 -0.9,-5.7 -0.6,-2.4 -1.3,-2 -3.5,-2.8 -3,-2.3 -1.1,-2 -0.5,-1.1 -0.8,-2.7 -0.6,-3.3 -0.3,-2.2 -0.3,-1.8 -0.4,-0.9 -0.5,-1.2 -0.1,-0.9 -0.4,-0.7 -0.9,-1.3 -0.1,-1 -0.1,-1.2 -0.9,-1.4 -2.5,-1.6 -2.4,-1.3 -1.2,-0.5 -1.4,-0.3 -0.8,-0.7 -1.3,-0.9 -1.2,-0.6 -2.3,-1 -1.4,-1.1 -1.8,-1 -1.6,-1.2 -0.5,-0.7 -0.3,-0.7 -0.7,-0.2 -0.7,-0.2 -1.4,-1.4 -1.4,-1.2 -0.9,-2.3 0,-0.9 0.5,-3.2 -0.1,-1.6 -0.6,-1.8 -1.2,-1.4 -2.6,-1.4 -2.4,-0.4 -2.6,-0.9 -1.6,-1.2 -1.2,-1.2 -1.3,-2.2 -1.3,-2 -1.6,-1.8 -1.3,-0.9 -0.6,-0.5 -0.2,-0.1 -0.1,-0.1 -0.3,-0.3 -1,-0.9 -0.7,-0.8 -0.4,-0.9 -0.3,-2.1 -0.2,-2.8 -0.1,-0.7 -0.3,-1.3 -0.3,-2.8 -0.2,-1.6 -0.5,-2.9 -0.3,-1.9 0.2,-0.8 0.2,-0.6 -0.3,-0.6 -1.2,-0.9 -0.6,-0.6 -0.4,-0.5 -0.1,-0.9 0.2,-1.3 0.3,0.7 -0.1,-1 0.3,-1.1 0.1,-1.9 0.3,-1.3 0.3,-1.4 0.1,-1.8 0.5,-1.2 1.8,-2.4 1.4,-3.2 0.2,-1.9 0.4,-1.5 0.3,-0.9 0.2,-3.5 0.2,-1.5 -0.4,-1.5 -1.7,-3.7 -2.2,-4.8 -1.3,-3.1 -1.6,-3.3 -0.9,-1.9 -1.5,-1.4 -3.4,-2.3 -2.8,-3.7 -0.8,-1.3 0.1,-0.5 1.7,-0.9 1.1,-0.8 0.3,-0.6 -0.2,-1 -0.9,-1.6 -1.5,-1.4 -0.8,-0.8 -1.8,-0.4 -0.4,-0.5 0.2,-1.3 0.3,-1.6 0.2,-1.2 -0.6,-1.5 -1.2,-1.9 0.1,-0.7 0.6,-1.1 3.8,-3.3 1.4,-1.4 0.2,-0.9 -0.2,-0.3 -0.6,-0.2 -0.9,-0.2 -0.7,-0.4 -0.1,-0.8 0.3,-1 0.7,-0.5 0.7,-0.4 0.9,0.1 1,0.3 0.9,0.4 0.8,0.3 1,-0.3 0.6,-0.5 0.4,-0.7 0.2,-1.1 0,-0.7 0,-0.2 -0.1,-0.2 -0.2,-0.1 -0.2,0 -0.5,0 -0.6,0.3 -1.1,0.4 -0.7,0.2 -0.9,-0.1 -0.5,0.2 -0.5,0.2 -0.6,-0.2 -0.8,-0.5 -0.7,-1.2 -0.3,-0.6 0,-0.3 0.3,-0.8 0.3,-1 0.2,-0.3 0.5,-0.1 0.7,-0.2 0.3,-0.1 0.5,-1.2 0.2,-0.6 -0.2,-0.3 -0.5,-1 -0.4,-0.3 -0.9,-1.1 -0.4,-0.4 -0.7,-0.3 -0.6,-0.8 -0.6,-0.6 -0.6,-0.6 -0.2,-0.5 0,-0.5 0.4,-0.2 1,-0.5 0.5,-0.5 0.5,-0.3 0.6,-0.2 0.8,0.1 0.5,0.1 0.3,0.2 0.4,0.1 0.3,-0.3 0.3,-0.5 0.3,-1 0.2,-0.9 0.1,-0.6 0.2,-0.6 0.3,-0.9 0.1,-0.5 -0.1,-0.2 -0.5,-0.3 -0.5,-1 -0.1,-1.1 -0.1,-0.9 -0.3,-0.5 -0.3,-0.6 -0.1,-0.4 -0.3,-0.7 -0.2,-0.7 -0.2,-1.2 -0.2,-0.6 -0.2,-0.4 -0.2,-1 -0.1,-1.7 0.1,-1.4 0.3,-2.8 0.1,-1.9 0.3,-4.4 0.2,-1.4 0.5,-1.7 0.6,-1.1 1.1,-0.6 2.8,-0.9 2.3,-1 1.4,-0.7 0.6,-0.7 0.2,-0.9 -0.2,-1.9 0,-1.6 0,-0.9 0.7,-1.2 3.7,-1.9 2.3,-1.1 1.9,-0.6 1.1,-0.6 0.5,-1.4 0,-1.2 0.1,-0.9 1.1,-2 0.6,-0.5 1.1,-1 1.1,-0.9 0.7,-1 0.4,-1.2 0,-0.9 0,-0.7 0.4,-1.1 0.4,-1.4 0.9,-1.2 0.8,-1 1,-0.5 0.9,-0.4 0.5,-0.3 0.6,-0.7 0.4,-0.4 0.4,-0.2 1,0.1 1.3,0.3 0.8,0.3 0.6,-0.2 0.3,-0.5 0.3,-1.2 -0.2,-1.6 -0.2,-1 -0.4,-1.4 -0.3,-1.1 0.2,-1.9 0.6,-0.5 1.1,-0.5 1.1,-0.2 1.1,-0.1 0.6,-0.2 1.3,-0.7 0.9,-0.6 0.4,-0.5 0,-1.1 -0.3,-1.1 -0.5,-1.2 -0.4,-1 0.4,-1.1 1.1,-1.2 0.8,-1.1 9.9,2.5 0.5,0.2 1.1,0.3 1.6,0.1 0.4,-0.3 0.5,-0.3 1.3,-0.9 2.2,-2 2.9,-2.1 3.6,-2.8 2.3,-1.8 2,-1.5 2.8,-1.9 1.3,-0.9 2.3,-1.5 1.1,-0.7 1.2,-0.7 0.9,-0.6 0.7,-0.6 0.9,-0.9 0.3,0 20.1,0.4 3,0.4 1.3,0.2 0.9,0.1 0.9,0.1 1.5,0.2 1.2,0.2 0.7,0.1 0.7,0 0.6,0.1 0.9,0.1 1.9,0.2 2.2,0.3 1.8,0.3 2,0.3 1.4,0.2 0.9,0.1 1.3,0.1 1.1,0.1 0.3,0.2 1.8,0.3 1.2,0.2 0.7,0.1 0.9,0.1 1.4,0.1 1,0.1 1.6,0.1 1.3,0.1 2.4,0.2 1.7,0.2 1.8,0.1 1.6,0.1 1.5,-0.1 1.2,0 1.1,-0.1 1.6,-0.2 3.5,-0.4 -0.1,-0.1 -0.2,-0.2 -0.2,-0.2 -0.1,-0.2 -0.1,-0.2 0,-0.1 0,-0.2 0,-0.3 -0.1,-0.2 0.1,-0.3 -0.1,-0.2 -0.1,-0.2 -0.2,-0.2 -0.2,-0.2 -0.2,-0.2 -0.1,-0.2 -0.2,-0.1 -0.2,-0.2 -0.1,-0.2 -0.2,-0.2 -0.1,-0.2 -0.1,-0.3 -0.1,-0.2 0,-0.2 0.1,-0.3 0.1,-0.2 0.2,-0.2 0.2,-0.2 0.2,-0.2 0.2,-0.2 0,0 0.1,-0.2 0.2,-0.2 0.2,-0.2 0.2,-0.2 0.2,-0.2 0.2,-0.1 0.2,-0.2 0.2,-0.1 0.2,-0.1 0.2,-0.1 0.2,-0.2 0.2,-0.1 0.2,-0.1 0.3,-0.1 0.2,-0.1 0.2,-0.2 0.2,-0.2 0.2,-0.1 0.2,0 0.2,-0.1 0.3,0 0.2,0.1 0.3,0 0.3,0 0.2,0.1 0.2,0.1 0.3,0.1 0.2,0.1 0.2,0.1 0.3,0.2 0.2,0.2 0.2,0.1 0.2,0.2 0.2,0.2 0.3,0.1 0.2,0.1 0.3,0 0.3,0 0.2,-0.1 0.3,-0.1 0.2,-0.2 0.2,-0.2 0.1,-0.3 0.1,-0.2 0,-0.3 0,-0.3 -0.1,-0.2 -0.1,-0.3 0,-0.2 -0.1,-0.2 0,-0.3 0,-0.3 0,-0.2 0,-0.2 0,-0.3 0,0 -0.1,-0.3 -0.1,-0.3 -0.1,-0.2 -0.1,-0.2 -0.2,-0.2 -0.1,-0.2 -0.1,-0.2 -0.1,-0.2 -0.2,-0.2 -0.2,-0.2 -0.2,-0.2 -0.2,-0.1 -0.2,-0.1 -0.2,-0.1 -0.3,-0.1 -0.2,-0.1 -0.2,-0.1 -0.3,-0.1 -0.2,-0.1 -0.2,-0.1 -0.3,-0.1 -0.2,-0.1 -0.2,-0.1 -0.3,-0.1 -0.2,-0.1 -0.3,-0.1 -0.2,-0.1 -0.2,-0.2 -0.1,0.2 -0.2,-0.1 -0.2,-0.2 -0.3,-0.1 -0.1,-0.1 -0.1,-0.3 0,-0.2 0.1,-0.2 0.1,-0.3 0.1,-0.1 0.1,-0.3 0,-0.3 -0.1,-0.3 -0.1,-0.2 -0.1,-0.3 -0.1,-0.2 -0.1,-0.2 -0.1,-0.2 -0.1,-0.2 0,-0.2 0.1,-0.2 0.2,-0.2 0.2,-0.2 0.1,-0.1 0.2,-0.2 0.1,-0.2 0.2,-0.2 0.3,-0.1 0.2,-0.1 0.3,-0.1 0.3,0.1 0.2,0.1 0.2,0 0.3,0.1 0.2,0 0.3,0 0.2,0 0.2,0 0.3,-0.1 0.2,-0.1 0.2,-0.1 0.3,-0.1 0.2,-0.1 0.2,-0.1 0.2,-0.1 0.2,-0.1 0.2,-0.2 0.1,-0.2 0,-0.2 0,-0.2 0,-0.2 0,-0.3 0,-0.3 -0.1,-0.2 -0.2,-0.2 -0.2,-0.1 -0.2,-0.1 -0.2,-0.2 -0.2,-0.2 -0.2,-0.1 -0.2,-0.1 -0.2,-0.1 -0.2,-0.1 -0.3,-0.1 -0.2,-0.2 -0.2,-0.1 -0.2,-0.1 -0.2,-0.1 -0.2,-0.1 -0.2,-0.1 -0.2,-0.2 -0.2,-0.2 -0.2,-0.2 -0.2,-0.2 -0.2,-0.2 -0.1,-0.2 -0.2,-0.2 -0.2,-0.2 -0.2,-0.1 -0.2,-0.1 -0.2,-0.1 -0.2,0.8 -0.1,-0.2 0,-0.2 -0.1,-0.2 -0.2,-0.2 -0.2,-0.1 -0.3,-0.1 -0.2,-0.1 -0.2,-0.1 -0.3,-0.1 -0.3,0 -0.2,-0.1 -0.3,0 -0.3,0.1 -0.2,0 -0.3,0.1 -0.3,0.1 -0.2,0.1 -0.2,0.1 -0.3,0.1 -0.2,0.1 -0.2,0.1 -0.3,0.1 -0.2,0.1 -0.2,0.1 -0.3,0.1 -0.3,0.1 -0.2,0.1 -0.2,0.1 -0.2,0.2 -0.2,0.1 -0.1,0.1 -0.2,0.2 -0.2,0.2 -0.2,0.1 -0.2,0 -0.2,0.1 -0.2,0.2 -0.2,0.2 -0.1,0.2 -0.3,0.1 -0.3,0 -0.2,0 -0.2,-0.1 -0.2,-0.2 -0.1,-0.2 -0.1,-0.3 -0.1,-0.2 -0.2,-0.2 -0.1,-0.2 0,-0.4 0.1,-0.3 0.1,-0.2 0.1,-0.2 0,-0.3 0.1,-0.3 0,-0.2 0.1,-0.3 0.1,-0.2 0.1,-0.2 0.1,-0.3 0.1,-0.2 0.1,-0.2 0.1,-0.2 0.1,-0.2 0.2,-0.2 0.2,-0.2 0.2,-0.2 0.2,-0.2 0.1,-0.2 0.2,-0.2 0.2,-0.2 0.2,-0.2 0.2,-0.2 0.2,-0.2 0.2,-0.2 0.2,-0.2 0.2,-0.1 0.2,-0.1 0.2,0 0.2,0 0.2,-0.1 0.2,-0.2 0.2,-0.2 0.2,-0.2 0.2,-0.2 0.2,-0.2 0.2,-0.2 0.2,-0.2 0.1,-0.2 0.2,-0.2 0.2,-0.2 0.2,-0.2 0.2,-0.2 0.1,-0.1 0.2,-0.2 0.2,-0.2 0.2,-0.2 0.2,-0.2 0.2,-0.2 0.2,-0.2 0.2,-0.2 0.2,-0.1 0.2,-0.1 0.3,-0.1 0.2,-0.1 0.3,-0.1 0.3,0 0.2,0 0.3,-0.1 0.3,0 0.2,-0.1 0.3,-0.1 0.2,-0.1 0.2,-0.2 0.2,-0.2 0.2,-0.2 0.2,-0.2 0.2,-0.2 0.1,-0.2 0.2,-0.2 0.2,-0.2 0.2,-0.2 0.1,-0.2 0.1,-0.2 0,-0.3 0,-0.2 0,-0.3 -0.1,-0.2 -0.2,-0.2 -0.2,-0.1 -0.2,-0.1 -0.1,-0.2 -0.1,-0.2 -0.2,-0.2 -0.2,-0.1 -0.2,-0.2 -0.3,-0.1 -0.2,-0.1 -0.2,-0.2 -0.2,-0.1 -0.2,-0.2 -0.2,-0.2 -0.2,-0.2 -0.2,-0.1 -0.2,-0.2 -0.2,-0.2 -0.2,-0.2 -0.1,-0.1 -0.2,-0.2 -0.2,-0.2 -0.2,-0.2 -0.1,-0.2 -0.2,-0.2 -0.2,-0.1 -0.2,-0.2 -0.2,-0.2 -0.1,-0.2 -0.2,-0.2 -0.2,-0.2 -0.2,-0.2 -0.2,-0.1 -0.2,-0.2 -0.1,-0.2 -0.2,-0.2 -0.2,-0.2 -0.1,-0.2 -0.2,-0.2 -0.2,-0.2 -0.2,-0.2 -0.2,-0.2 -0.1,-0.2 0,-0.2 0,-0.3 0,-0.2 0,-0.2 -0.1,-0.3 0,1.8 0.1,-0.2 0.1,-0.2 0.1,-0.2 0,-0.2 -0.2,-0.2 -0.1,-0.2 -0.1,-0.2 -0.1,-0.3 0,-0.2 0.2,-0.2 0.1,-0.2 0.2,-0.2 0.1,-0.2 0,-0.3 0,-0.1 0.1,-0.2 0.2,-0.2 0.2,-0.1 0.1,-0.2 0.1,-0.4 -0.1,-0.4 -0.1,-1 -0.3,-0.5 -0.2,-0.6 -0.4,-0.5 0,0.2 -0.2,-0.1 -0.2,0 -0.2,-0.1 -0.2,-0.2 -0.2,-0.2 -0.2,-0.1 -0.2,0 -0.2,0.1 -0.3,-0.1 -0.2,-0.1 -0.3,0.1 -0.3,0 -0.2,0 -0.1,0 -0.3,0.1 -0.2,0.1 -0.2,0 -0.2,0 -0.2,-0.2 -0.1,-0.1 -0.2,-0.1 -0.3,-0.1 -0.3,0 -0.2,0.1 -0.3,0 -0.3,0 -0.2,0 -0.2,0.1 -0.3,0 -0.2,0 -0.3,0 -0.3,0.1 -0.2,0.1 -0.3,0.1 -0.2,0.1 -0.2,0.1 -0.2,0.1 -0.3,0.1 -0.2,0.1 -0.2,0.1 -0.3,0.1 -0.2,0.1 -0.3,0.1 -0.2,0 0.1,-0.4 -0.3,0 -0.3,0.1 -0.2,0.1 -0.3,0.1 -0.2,0.1 -0.3,0.1 -0.2,0.1 -0.3,0.1 -0.2,-0.1 -0.1,-0.1 -0.1,-0.2 -0.1,-0.3 0.1,-0.2 0.1,-0.3 0,-0.2 -0.1,-0.3 -0.1,-0.2 -0.1,-0.2 -0.1,-0.2 0,-0.2 0.1,-0.1 0.2,-0.2 0.1,-0.1 0,-0.2 -0.1,-0.3 -0.2,-0.2 -0.1,-0.2 -0.1,-0.2 -0.1,-0.2 -0.1,-0.3 0,-0.2 0,-0.3 0,-0.2 0,-0.2 0.1,-0.3 -0.1,-0.2 -0.2,-0.2 -0.2,-0.2 -0.2,-0.1 -0.2,-0.2 -0.2,-0.2 -0.2,-0.2 -0.1,-0.2 -0.1,-0.2 -0.1,-0.2 -0.1,-0.2 -0.2,-0.2 -0.2,-0.1 -0.2,-0.2 -0.2,-0.1 -0.2,-0.2 -0.2,-0.1 -0.1,-0.2 -0.3,-0.2 -0.1,-0.2 -0.1,-0.2 -0.1,-0.2 0.1,-0.2 0.1,-0.3 0.1,-0.2 -0.1,-0.2 -0.1,-0.2 -0.1,-0.2 -0.2,-0.2 -0.1,-0.2 0,-0.2 0,-0.2 0,0.1 0.2,-0.2 0.2,-0.1 0.3,-0.1 0.2,0 0.3,0 0.3,-0.1 0.2,-0.1 0.3,-0.1 0.2,-0.2 0.2,-0.1 0.2,-0.1 0.3,-0.1 0.2,-0.2 0.2,-0.2 0.2,-0.2 0.2,-0.2 0.1,-0.3 0.1,-0.2 0,-0.3 -0.1,-0.2 0,-0.3 -0.1,-0.3 -0.1,-0.2 -0.1,-0.2 -0.1,-0.2 -0.1,-0.2 -0.2,-0.2 -0.1,-0.3 -0.1,-0.2 -0.1,-0.3 -0.1,-0.2 0,-0.3 0,-0.3 -0.1,-0.2 0,0.4 0.1,-0.3 0,-0.3 0,-0.3 -0.1,-0.2 -0.1,-0.3 -0.1,-0.2 -0.1,-0.2 -0.2,-0.2 -0.2,-0.2 -0.1,-0.2 -0.1,-0.3 0,-0.2 -0.1,-0.3 0,-0.3 0,-0.2 0,-0.3 0,-0.2 0.1,-0.3 0,-0.3 0,-0.2 0,-0.2 0.1,-0.3 0.1,-0.3 0,-0.3 0,-0.2 0,0.3 0,-0.3 0,-0.3 -0.1,-0.3 0,-0.2 -0.1,-0.3 0,-0.2 0,-0.3 0,-0.3 -0.1,-0.2 0,-0.2 0,-0.3 -0.1,-0.2 -0.1,-0.3 -0.1,-0.2 -0.1,-0.2 -0.2,-0.2 -0.1,-0.2 -0.1,-0.3 -0.2,-0.2 -0.2,-0.2 -0.2,-0.1 -0.2,-0.2 -0.2,-0.1 -0.3,-0.1 -0.2,-0.1 -0.2,-0.1 -0.3,-0.1 -0.2,-0.1 -0.2,-0.1 -0.2,-0.1 -0.3,-0.1 -0.2,-0.1 -0.3,0 -0.3,-0.1 -0.2,0 -0.3,0.1 -0.2,0.1 -0.2,0.1 -0.2,0.2 -0.2,0.2 -0.2,0.1 -0.2,0.1 -0.3,0 -0.3,0 -0.2,-0.1 -0.2,-0.1 -0.2,-0.2 -0.2,-0.2 -0.1,-0.2 -0.1,-0.2 0,-0.2 0,-0.3 0,-0.3 0,0.2 0,-0.1 -0.1,-0.2 0,-0.3 0,-0.2 0,-0.2 0,-0.3 0,-0.2 0,-0.2 0,-0.3 -0.1,-0.2 -0.1,-0.3 0,-0.2 0,-0.2 0.1,-0.3 0.1,-0.2 0.2,-0.1 0.3,-0.1 0.2,0 0.2,0.1 0.3,0.1 0.2,0.1 0.2,0.1 0.3,0.2 0.2,0.2 0.2,0.2 0.1,0.1 0.2,0.2 0.2,0.2 0.2,0.2 0.1,0.2 0.2,0.2 0.2,0.2 0.2,0.1 0.2,0.1 0.2,0.2 0.2,0.2 0.2,0.1 0.2,0.1 0.3,0.1 0.2,0.1 0.2,0.1 0.3,-0.1 0.3,0 0.2,-0.1 0.3,-0.1 0.2,-0.1 0.2,-0.2 0.1,-0.2 0.1,-0.2 0.2,-0.2 0.1,-0.2 0.1,-0.2 0,-0.3 0,-0.2 -0.1,-0.2 -0.1,-0.3 -0.1,-0.2 0,-0.3 -0.1,-0.2 0,-0.2 0,-0.3 -0.1,-0.2 -0.1,-0.3 -0.1,-0.2 0,-0.3 -0.1,-0.2 -0.1,-0.2 -0.1,-0.2 -0.2,-0.2 -0.2,-0.2 -0.2,-0.2 -0.2,-0.1 -0.2,-0.2 -0.2,-0.1 -0.2,-0.1 -0.2,-0.1 -0.3,-0.1 -0.2,-0.1 -0.2,-0.1 -0.3,-0.1 -0.3,-0.1 -0.1,-0.1 -0.2,-0.2 -0.2,-0.2 -0.1,-0.2 0,0 0.1,-0.2 0.1,-0.3 0.2,-0.2 0.2,-0.2 0.1,-0.1 0.2,-0.1 0.3,-0.1 0.2,-0.1 0.2,0 0.3,-0.1 0.2,-0.1 0.2,-0.1 0.3,-0.1 0.2,0 0.2,0.1 0.2,0.1 0.2,-0.1 0.3,-0.1 0.2,-0.1 0.3,0 0.3,-0.1 0.2,0 0.2,0.1 0.3,0 0.2,-0.1 0.2,-0.1 0.3,-0.1 0.1,-0.1 0.3,0.1 0.2,0 0.2,-0.1 0.1,-0.1 0.1,-0.2 0.1,-0.2 0.2,-0.2 0.1,-0.2 0.2,-0.2 0.2,-0.2 0.2,-0.2 0.2,-0.2 0.1,-0.2 0.1,-0.2 0,0.3 -0.1,-0.2 -0.1,-0.2 -0.1,-0.2 -0.2,-0.2 -0.1,-0.1 -0.3,0.1 -0.3,0.1 -0.2,0.1 -0.3,0 -0.3,0.1 -0.2,0 -0.2,0 -0.3,0 -0.3,0.1 -0.2,0 -0.3,0 -0.2,0.1 -0.2,0.1 -0.2,0.1 -0.2,0 -0.2,-0.1 -0.1,-0.2 -0.1,-0.2 -0.2,-0.2 -0.2,-0.2 -0.2,-0.1 -0.1,-0.1 -0.1,-0.3 0,-0.2 -0.1,-0.2 -0.2,-0.2 -0.1,-0.2 -0.1,-0.3 -0.1,-0.2 -0.2,-0.1 -0.1,-0.2 -0.1,-0.2 -0.1,-0.2 -0.1,-0.3 -0.1,-0.2 -0.2,-0.1 -0.2,-0.1 -0.2,-0.1 -0.1,-0.2 -0.1,-0.2 -0.1,-0.3 -0.1,-0.3 0,-0.2 -0.1,-0.3 -0.1,-0.2 0,-0.3 -0.1,-0.3 0,-0.2 0,-0.2 0,-0.2 0.1,-0.2 0.2,-0.2 0.2,-0.1 0.3,-0.1 0.2,-0.1 0.3,-0.1 0.2,-0.1 0.4,-0.2 1.3,-1.2 0.4,-0.2 0.2,-0.2 0.1,-0.3 0,-0.2 -0.1,-0.2 -0.1,-0.2 0,-0.3 -0.1,-0.3 -0.1,-0.2 -0.1,-0.3 -0.1,-0.2 -0.2,-0.2 -0.1,-0.3 -0.1,-0.2 0,-0.3 -0.1,-0.2 0,0.3 0,-0.3 0.1,-0.3 0.1,-0.1 0,0 0.2,-0.2 0.1,-0.2 0.1,-0.3 0.1,-0.2 0.2,-0.2 0.1,-0.2 0.1,-0.2 0.2,-0.2 0.2,-0.3 0.2,-0.2 0.2,-0.2 0.2,-0.2 0.2,-0.2 0.2,-0.2 0.2,-0.1 0.2,-0.2 0.2,-0.1 0.2,-0.2 0.2,-0.1 0.2,-0.2 0.2,-0.2 0.1,-0.2 0.1,-0.2 0,-0.3 0.1,-0.2 0.1,-0.3 0.2,-0.2 0.2,-0.1 0.2,-0.1 0.2,-0.2 0.2,-0.2 0.2,-0.2 0.2,-0.2 0.1,-0.2 0.1,-0.2 0.1,-0.2 0.1,-0.2 0.1,-0.3 0.1,-0.2 0.1,-0.3 0.2,-0.2 0.1,-0.2 0.1,-0.2 0.2,-0.2 0.2,-0.2 0.2,-0.2 0.2,-0.1 0.2,-0.2 0.1,-0.2 0.1,-0.2 0.1,-0.3 0.1,-0.2 0.2,-0.2 0.2,-0.1 0.2,-0.2 0.2,-0.2 0.1,-0.2 0.2,-0.2 0.3,-0.1 0.2,0 0.3,0 0.2,0.1 0.2,0.2 0.1,0.2 0.2,0.2 0.2,0.2 0.1,0.2 0.2,0.2 0.1,0.2 0.2,0.3 0.2,0.2 0.2,0.2 0.2,0.1 0.1,0.2 0.2,0.2 0.2,0.2 0.2,0.2 0.2,0 0.3,0 0.3,-0.1 0.2,-0.1 0.1,-0.2 0,-0.3 0,-0.2 0,-0.2 -0.1,-0.2 -0.1,-0.3 -0.1,-0.2 0,-0.3 -0.2,-0.2 -0.1,-0.2 -0.1,-0.3 -0.1,-0.2 -0.1,-0.2 -0.1,-0.1 -0.2,-0.2 -0.1,-0.2 -0.1,-0.2 -0.2,-0.2 -0.1,-0.2 -0.1,-0.2 -0.2,-0.2 -0.1,-0.2 -0.2,-0.2 -0.2,-0.2 -0.2,-0.2 -0.2,-0.2 -0.1,-0.2 -0.1,-0.2 -0.1,-0.2 -0.1,-0.3 -0.2,-0.2 -0.2,-0.2 -0.2,-0.1 -0.2,-0.2 -0.1,-0.1 0,-0.3 0.1,-0.3 0.1,-0.2 0.1,-0.3 -0.1,-0.2 -0.1,-0.3 -0.1,-0.3 -0.1,-0.2 -0.1,-0.2 -0.1,-0.2 0.1,-0.2 0.1,-0.2 0.2,-0.2 0.2,-0.2 0.2,-0.1 0.2,-0.2 0.2,-0.2 0.2,0 0.3,-0.1 0.3,0 0.2,0 0.2,0.1 0.3,0.1 0.2,0.1 0.2,0.1 0.2,0.1 0.3,0.1 0.2,0.1 0.3,0.1 0.3,0.1 0.2,0.1 0.3,0.1 0.2,0.1 0.2,0.1 0.3,0 0.2,0 0.2,-0.1 0.2,-0.2 0.2,-0.2 -0.1,-0.2 -0.1,-0.2 -0.1,-0.2 -0.1,-0.2 -0.1,-0.2 -0.2,-0.2 -0.2,-0.2 -0.2,-0.2 -0.1,-0.1 -0.1,-0.2 -0.2,-0.2 -0.2,-0.2 -0.2,-0.2 -0.2,-0.2 -0.1,-0.2 -0.2,-0.2 -0.1,-0.2 -0.2,-0.2 -0.1,-0.3 -0.1,-0.2 -0.1,-0.2 -0.1,-0.2 -0.1,-0.2 -0.1,-0.3 -0.1,-0.3 0,-0.2 0.1,-0.2 0.1,-0.2 0.1,-0.2 0.2,-0.2 0.2,-0.1 0.2,-0.1 0.2,-0.1 0.2,-0.1 0.3,-0.1 0.2,-0.1 0.2,-0.1 0.3,-0.1 0.2,-0.2 0.1,-0.2 0.1,-0.3 -0.1,-0.2 -0.1,-0.1 -0.1,-0.2 -0.1,-0.2 -0.1,-0.2 0,-0.3 0.1,-0.2 0.1,-0.3 0.1,-0.2 0.1,-0.2 0.2,-0.2 0.1,-0.2 0,-0.1 -0.1,-0.3 -0.1,-0.2 -0.2,-0.2 -0.1,-0.2 0,-0.2 0,1.2 0.1,-0.2 0.1,-0.2 0.2,-0.1 0.3,-0.1 0.2,-0.1 0.3,0.1 0.3,0.1 0.2,0 0.3,0.1 0.3,0 0.2,0.1 0.3,0.1 0.2,0.2 0.2,0.1 0.3,0.2 0.2,0.1 0.2,0.2 0.2,0.2 0.2,0.1 0.2,0.1 0.2,0.1 0.2,0.1 0.2,0.1 0.3,0.1 0.2,0 0.2,0 0.3,0 0.2,0 0.3,-0.1 0.3,-0.1 0.2,-0.1 0.2,-0.1 0.2,-0.2 0.2,-0.2 0.1,-0.2 0.1,-0.2 0.2,-0.2 0.2,-0.2 0.2,-0.1 0.2,-0.1 0.2,0.1 0.2,-0.1 0.2,-0.1 0.2,-0.2 0.2,-0.2 0.2,-0.2 0.2,-0.1 0.2,-0.1 0.2,-0.2 0.2,-0.1 0.2,-0.2 0.2,-0.2 0.2,-0.2 0.1,-0.3 0,-0.3 -0.1,-0.2 -0.1,-0.2 -0.1,-0.3 -0.2,-0.2 -0.1,-0.2 -0.2,-0.2 -0.1,-0.2 -0.1,-0.2 -0.1,-0.2 -0.1,-0.2 -0.1,-0.3 -0.1,-0.2 -0.1,-0.2 -0.1,-0.3 -0.1,-0.2 -0.1,-0.3 -0.1,-0.2 -0.1,-0.2 -0.1,-0.2 -0.1,-0.3 -0.1,-0.2 -0.1,-0.3 -0.1,-0.2 0,-0.3 0,-0.3 0.1,-0.2 0.2,-0.2 0.2,-0.2 0.2,-0.1 0.2,-0.2 0.2,-0.2 0,-0.2 -0.1,-0.2 -0.1,-0.3 -0.1,-0.2 -0.1,-0.2 -0.2,-0.2 -0.2,-0.2 -0.2,-0.2 -0.1,-0.2 -0.1,-0.2 -0.1,-0.1 0.5,-0.6 0.2,-0.2 0.2,-0.2 0.1,-0.2 0,-0.2 0,-0.2 -0.1,-0.3 -0.1,-0.2 0,-0.2 0.1,-0.1 0.2,-0.1 0.2,-0.1 0.1,-0.2 0.1,-0.3 0,-0.2 -0.1,-0.2 -0.1,-0.2 -0.2,-0.1 -0.2,-0.1 -0.2,-0.1 -0.2,-0.1 -0.3,-0.1 -0.2,-0.1 -0.2,-0.2 -0.2,-0.2 -0.1,-0.2 -0.1,-0.3 -0.1,-0.2 0.1,-0.3 0.1,-0.2 0.1,-0.2 0.2,-0.2 0.2,-0.2 0.2,-0.1 0.3,-0.1 0.2,-0.2 0.2,-0.1 0.2,-0.2 0.2,-0.2 0.1,-0.2 0,-0.3 -0.1,-0.2 -0.2,-0.2 -0.2,-0.1 -0.3,-0.1 -0.2,0 -0.2,0 -0.2,0.1 -0.2,0.1 -0.2,0.1 -0.2,0.2 -0.2,0.2 -0.2,0.2 -0.2,0.2 0.8,1.3 -0.2,0.2 -0.2,0.1 -0.2,0.1 -0.2,0 -0.2,-0.1 -0.2,-0.2 -0.1,-0.2 0,-0.3 0.1,-0.2 -0.1,-0.2 -0.2,-0.2 -0.1,-0.1 -0.2,-0.2 -0.1,-0.2 0,-0.2 0.1,-0.2 0.2,-0.1 0.2,-0.2 0.1,-0.2 0.1,-0.2 0.1,-0.2 0.2,-0.2 0.1,-0.2 0.2,-0.2 0.2,-0.1 0.2,-0.2 0.1,-0.2 0.2,-0.2 0.1,-0.2 0.2,-0.2 0.2,-0.2 0.1,-0.2 0.2,-0.2 0.1,-0.2 0.1,-0.2 0.1,-0.3 0.2,-0.2 0.2,-0.1 0.1,-0.2 0.2,-0.2 0.1,-0.3 0.1,-0.2 0.2,-0.2 0.2,-0.1 0.1,-0.2 0.2,-0.2 0.2,-0.1 0.3,-0.1 0.2,-0.1 0.2,-0.1 0.2,-0.2 0.1,-0.2 0.2,-0.1 0.3,-0.1 0.3,0 0.1,0.1 0.2,-0.1 0.2,-0.1 0.2,-0.2 0.1,-0.2 0.2,-0.2 0.1,-0.1 0.2,0 0.2,0.1 0.2,0.1 0.2,0.1 0.2,0.2 0.1,0.2 0.1,0.2 0.1,0.2 0.2,0.1 0.2,0 0.2,-0.1 0.1,-0.2 0.1,-0.2 0.1,-0.2 0,-0.2 -0.1,-0.3 -0.1,-0.2 -0.1,-0.2 -0.2,-0.1 -0.2,-0.2 -0.1,-0.2 -0.1,-0.3 -0.1,-0.2 -0.1,-0.3 -0.1,-0.2 -0.2,-0.1 -0.2,-0.2 -0.2,-0.2 -0.1,-0.2 -0.1,-0.3 -0.1,-0.2 -0.2,-0.1 -0.2,-0.2 -0.2,-0.1 -0.2,-0.2 -0.2,-0.2 -0.1,-0.2 -0.2,-0.2 -0.1,-0.2 -0.2,-0.2 -0.2,-0.2 -0.2,-0.1 -0.2,-0.1 -0.3,-0.1 -0.2,-0.1 -0.2,-0.1 -0.3,-0.1 -0.2,-0.2 -0.1,-0.2 -0.1,-0.2 -0.1,-0.2 0,0.8 0,-0.2 0.1,-0.3 0.1,-0.2 0.1,-0.2 0.2,-0.2 0.3,-0.1 0.2,-0.1 0.2,-0.1 0.2,-0.1 0.1,-0.3 0.1,-0.2 0.1,-0.2 0,-0.3 0,-0.3 -0.2,-0.2 -0.2,-0.2 -0.2,-0.2 -0.2,-0.1 -0.2,-0.2 -0.2,-0.2 -0.1,-0.2 -0.1,-0.3 -0.1,-0.2 -0.1,-0.2 0,-0.3 0,0.1 0,-0.2 0,-0.3 0,-0.2 0,-0.2 0.1,-1 -0.1,-0.2 -0.1,-0.2 -0.1,-0.3 -0.1,-0.2 -0.1,-0.2 -0.1,-0.2 -0.1,-0.3 -0.1,-0.2 -0.1,-0.3 -0.1,-0.3 -0.1,-0.2 -0.1,-0.2 -0.1,-0.3 0,-0.3 -0.1,-0.2 0,-0.2 -0.1,-0.2 -0.1,-0.3 -0.1,-0.2 0.1,-0.3 0,-0.2 0.2,-0.2 0.2,-0.2 0.1,-0.2 0.1,-0.3 0,-0.3 -0.1,-0.2 0,-0.2 0.1,-0.2 0.1,-0.2 0.2,-0.2 0.1,-0.2 0.1,-0.2 0.1,-0.2 0,-0.3 -0.1,-0.2 -0.2,-0.2 -0.2,-0.2 -0.1,-0.2 0,-0.2 -0.1,-0.3 0,-0.3 0,-0.3 0,-0.2 0,-0.2 0.1,-0.3 0,-0.2 0,-0.3 0.1,-0.3 0.1,-0.2 0.1,-0.1 0.1,-0.2 0.1,-0.2 0.2,-0.2 0.2,-0.2 0.1,-0.2 0.1,-0.2 0,-0.2 -0.1,-0.3 -0.1,-0.2 -0.2,-0.2 -0.1,-0.2 -0.2,-0.2 -0.1,-0.3 -0.1,-0.3 -0.1,-0.2 0,-0.3 0,-0.2 -0.1,-0.2 -0.1,-0.3 0,-0.3 0,-0.2 -0.1,-0.2 0,-0.3 0,-0.3 0,-0.3 0.1,-0.2 0,-0.2 0.1,-0.2 0.2,-0.2 0.2,-0.2 0.2,-0.2 0.2,-0.2 0.2,-0.2 0.2,-0.1 0.2,-0.1 0.2,-0.2 0.2,-0.2 0.2,-0.2 0.2,-0.2 0.1,-0.2 0.2,-0.2 0.2,-0.2 0.2,-0.2 0.1,-0.2 0.3,-0.1 0.3,0 0.2,0 0.2,-0.1 0.2,-0.1 0.1,-0.2 0,-0.3 -0.1,-0.2 -0.1,-0.2 -0.1,-0.3 -0.1,-0.2 -0.1,-0.3 -0.1,-0.2 0,-0.3 0,-0.3 0,-0.2 -0.1,-0.2 0,-0.3 0,-0.1 -0.2,-0.6 -0.1,-0.3 -0.1,-0.3 -0.4,-0.2 -0.2,-0.2 -0.2,-0.2 -0.2,-0.2 -0.2,-0.2 -0.2,-0.2 -0.2,-0.2 -0.2,-0.1 -0.2,-0.2 -0.1,-0.2 -0.2,-0.2 -0.1,-0.2 -0.1,-0.2 0,1.5 0.1,-0.3 0,-0.2 -0.1,-0.3 -0.1,-0.1 -0.2,-0.1 -0.2,-0.1 -0.2,-0.1 -0.2,-0.1 -0.2,-0.1 -0.1,-0.3 -0.1,-0.2 -0.1,-0.3 -0.1,-0.2 -0.2,-0.2 -0.2,-0.1 -0.2,0 -0.3,0.1 -0.2,0.1 -0.2,0.1 -0.3,0.2 -0.2,0.2 -0.2,0.1 -0.2,0.1 0.5,0 -0.3,-0.1 -0.2,-0.2 -0.2,-0.2 -0.1,-0.2 -0.1,-0.2 0,-0.2 0.1,-0.3 0.1,-0.2 0,-0.2 0,-0.1 -0.2,-0.1 -0.3,-0.1 -0.2,-0.2 -0.2,-0.2 -0.2,-0.2 -0.1,-0.2 -0.1,-0.2 0,-0.2 0.1,-0.2 0.2,-0.2 0.3,-0.1 0.2,-0.1 0.3,0 0.3,0 0.2,0 0.1,-0.1 0.1,-0.2 -0.1,-0.3 -0.1,-0.2 -0.2,-0.2 -0.1,-0.2 -0.2,-0.2 -0.2,-0.2 -0.2,-0.1 -0.2,-0.1 -0.2,0 -0.2,-0.1 -0.1,-0.2 -0.2,-0.2 -0.1,-0.2 -0.1,-0.2 -0.1,-0.2 -0.1,-0.3 -0.1,-0.2 -0.1,-0.3 0,0.4 0.1,-0.3 0.2,-0.2 0.2,-0.2 0.2,-0.1 0.1,-0.2 0.1,-0.2 0,-0.3 -0.1,-0.3 -0.1,-0.2 -0.1,-0.2 0.1,-0.2 0,-0.3 0,-0.2 -0.1,-0.3 -0.1,-0.2 -0.1,-0.2 0,-0.3 -0.1,-0.2 -0.1,-0.1 -0.3,-0.1 -0.2,0.1 -0.3,0.1 -0.3,-0.1 -0.1,0 -0.1,-0.1 0,-0.2 0.1,-0.2 0.1,-0.2 0.2,-0.2 0.1,-0.2 0.1,-0.2 0.1,-0.3 0,-0.2 0.1,-0.2 0.1,-0.2 0.2,-0.1 0.2,-0.1 0.2,0.1 0.2,0.2 0.1,0.2 0.1,0.3 0.2,0.2 0.2,0.2 0.1,0.1 0.2,-0.1 0.2,-0.2 0.2,-0.1 0.2,-0.2 0.2,-0.2 0.2,-0.1 0.1,-0.1 0.1,-0.1 -0.1,-0.2 -0.1,-0.3 -0.1,-0.2 -0.1,-0.2 -0.1,-0.3 -0.1,-0.3 0,-0.2 -0.1,-0.2 -0.1,-0.2 -0.1,-0.3 -0.1,-0.3 0,-0.2 0,-0.3 0.1,-0.2 0.1,-0.2 0,-0.3 0.1,-0.3 0,-0.2 -0.1,-0.2 -0.1,-0.2 -0.1,-0.2 -0.2,-0.3 -0.1,-0.2 -0.1,-0.2 -0.1,-0.2 0,-0.3 0,-0.3 0,-0.3 0.1,-0.2 0.1,-0.2 0.1,-0.2 0.2,-0.2 0.2,-0.2 0.1,-0.2 0.1,-0.2 0.1,-0.2 0.1,-0.2 0.1,-0.2 0,-0.3 0,-0.3 0.1,-0.2 0.2,-0.2 0.2,-0.1 0.2,-0.2 0.2,-0.2 0.2,-0.2 0.1,-0.2 0.2,0.1 0.3,0.1 0.2,0.1 0.2,0.1 0.3,0 0.2,-0.1 0.1,-0.2 0.2,-0.2 0.1,-0.2 0.2,-0.2 0.2,-0.1 0.2,0 0.2,0.1 0.2,0.1 0.2,0.2 0.1,0.2 0.1,0.2 0.2,0.1 0.2,0 0.2,-0.1 0.3,-0.1 0.2,-0.1 0.2,-0.1 0.3,0 0.3,-0.1 0.2,-0.1 0.3,0 0.2,-0.1 0.2,-0.1 0.3,0 0.3,0 0.2,0 0.3,-0.1 0.3,-0.1 0.2,-0.1 0.2,-0.1 0.2,-0.2 0.2,-0.1 0.2,-0.1 0.3,-0.1 0.2,-0.2 0.2,-0.2 0.1,-0.2 0,-0.2 -0.1,-0.3 -0.1,-0.3 -0.1,-0.2 -0.1,-0.2 -0.1,-0.2 -0.2,-0.2 -0.1,-0.2 -0.2,0.9 -0.1,-0.2 -0.1,-0.3 -0.1,-0.2 0,-0.3 -0.1,-0.2 0.1,-0.3 0.1,-0.3 0.1,-0.1 0.2,-0.2 0.2,-0.2 0.2,-0.1 0.2,-0.2 0.2,-0.2 0.2,-0.1 0.3,-0.1 0.2,-0.1 0.2,-0.1 0.3,-0.1 0.3,0.1 0.2,0.1 0.3,0.1 0.3,0.1 0.2,0 0.3,0 0.2,-0.1 0.2,-0.1 0.2,-0.1 0.2,-0.1 0.1,-0.2 0,-0.2 0,-0.3 -0.1,-0.3 -0.1,-0.2 -0.2,-0.2 -0.1,-0.3 -0.1,-0.2 -0.1,-0.3 0,-0.3 0.1,-0.2 0.2,-0.2 0.2,-0.2 0.1,-0.2 0,-0.2 0.1,-0.2 0.1,-0.2 0.2,-0.2 0.2,-0.1 0.2,-0.1 0.2,-0.1 0.3,0 0.2,-0.1 0.2,-0.1 0.1,-0.2 0.1,-0.2 -0.1,-0.2 -0.1,-0.2 -0.1,-0.2 0,-0.3 0.1,-0.2 0.1,-0.1 0.2,-0.1 0.2,0.1 0.3,0 0.3,0.1 0.2,0 0.2,0 0.3,-0.1 0.2,-0.2 0.2,-0.1 0.1,-0.2 0,-0.2 0,-0.3 0,-0.3 -0.1,-0.2 0,-0.3 0.1,-0.2 0,-0.3 0,-0.2 0,-0.3 -0.1,-0.2 0,0.5 -0.1,-0.3 0,-0.3 -0.1,-0.3 0,-0.1 0,-0.3 0,-0.3 0,-0.3 0,-0.1 0,-0.2 0,-0.3 0.1,-0.3 0.1,-0.2 0.1,-0.3 0.2,-0.1 0.2,-0.2 0.2,-0.2 0.1,-0.2 0.1,-0.2 0.1,-0.3 0.1,-0.2 0.1,-0.3 0.1,-0.3 0.1,-0.2 0.1,-0.3 0,-0.2 -0.1,-0.2 -0.1,-0.2 -0.1,-0.3 -0.1,-0.2 0,-0.1 0,-0.2 0,-0.3 -0.1,-0.2 0,-0.3 -0.1,-0.3 -0.1,-0.2 -0.1,-0.2 -0.1,-0.3 -0.1,-0.2 -0.1,-0.3 0,-0.2 -0.1,-0.2 -0.2,-0.2 -0.1,-0.2 -0.2,-0.2 -0.2,-0.2 -0.1,-0.2 -0.1,-0.2 -0.1,-0.3 -0.1,-0.2 -0.1,-0.3 -0.1,-0.2 0,-0.2 0.1,-0.2 0,-0.1 0.1,-0.2 0.1,-0.2 0.2,-0.2 0.1,-0.2 0.2,-0.1 0.3,-0.2 0.2,-0.1 0.2,-0.1 0.3,-0.2 0.2,-0.2 0.1,-0.2 0.1,-0.2 0,-0.2 0,-0.3 -0.1,-0.2 -0.2,-0.2 -0.2,-0.2 -0.2,-0.2 -0.1,-0.2 -0.2,-0.2 -0.1,-0.2 -0.1,-0.2 -0.1,-0.3 0,-0.3 0,0.4 0.1,-0.3 0.1,-0.2 0.1,-0.2 0.2,-0.2 0.1,-0.2 0.2,-0.2 0.2,-0.1 0.2,-0.2 0.2,-0.1 0.2,-0.2 0.2,-0.2 0.2,-0.2 0.2,-0.2 0.1,-0.2 0.2,-0.2 0.1,-0.3 0.1,-0.2 0.2,-0.2 0.1,-0.2 0.2,-0.2 0.2,-0.2 0.2,-0.2 0.2,-0.2 0.1,-0.2 0.1,-0.2 0.2,-0.2 0.2,-0.2 0.2,-0.2 0.1,-0.2 0,-0.2 0,-0.3 0,0.3 -0.1,-0.3 0,-0.3 0,-0.3 0,-0.3 0.1,-0.2 0,-0.3 0,-0.3 0,-0.3 0,-0.3 0,-0.2 0,-0.3 0,0.1 0,-0.3 0.1,-0.2 0.1,-0.2 0.1,-0.2 0.1,-0.2 0.1,-0.2 0.1,-0.2 0.1,-0.3 0.1,-0.2 0,-0.2 -0.1,-0.3 -0.2,-0.2 -0.2,-0.2 -0.3,-0.1 -0.2,-0.1 -0.3,-0.1 -0.2,-0.1 -0.2,-0.1 -0.2,-0.2 -0.1,-0.2 0,-0.2 0.1,-0.2 0.2,-0.1 0.2,-0.1 0.3,-0.1 0.2,-0.1 0.2,-0.1 0.3,-0.1 0.2,-0.2 0.1,-0.2 -0.1,-0.2 -0.1,-0.2 -0.2,-0.2 -0.2,-0.2 -0.2,-0.2 -0.1,-0.2 0,-0.2 0.2,-0.2 0.2,-0.2 0.3,-0.1 0.2,-0.1 0.1,-0.2 0,-0.2 0.1,0 0.2,-0.2 0.2,-0.2 0.2,-0.2 0.2,-0.2 0.2,-0.2 0.1,-0.1 0.1,-0.2 0,-0.3 0,-0.3 0.1,-0.2 0.1,-0.2 0.1,-0.2 0.1,-0.3 0.1,-0.2 0.1,-0.2 0,-0.2 0,-0.2 0,-0.3 0.6,-0.5 0.2,-0.1 0.4,-0.2 0.2,-0.1 0.3,-0.2 0.2,-0.2 0.3,-0.3 0.4,-0.5 0.2,-0.1 0.1,-0.1 0.2,-0.2 0.6,-0.5 0.2,-0.1 0.4,-0.5 0.7,-0.9 0.2,-0.7 0.2,-0.4 0.1,-0.2 0.4,-0.4 0.3,-0.3 0.1,-0.1 0.2,-0.4 0.2,-0.2 0.4,-0.5 0.1,-0.3 0.8,-2.1 0.2,-0.5 0.2,-0.6 0.1,-0.4 0.1,-0.4 0.1,-0.2 0.1,-0.6 0.1,-0.2 0.3,-0.6 0.1,-0.2 0.5,-1.2 0.1,-0.2 0.1,-0.2 0.2,-1.1 0.2,-0.5 0,0.5 0.2,-0.4 0.3,-0.6 0.1,-0.1 0.1,-0.2 0.1,-0.4 0.7,-2.1 0.1,-0.2 0.2,-0.2 0.3,-0.5 0.2,-0.3 0.2,-0.3 0.2,-0.2 0.3,-0.2 2,-1.4 0.2,-0.1 0.2,-0.1 0.2,-0.1 0.2,0 0.4,-0.1 0.3,0 0.8,-0.3 0.1,-0.2 0.2,-0.2 0.2,-0.4 0.2,-0.2 0.3,-0.3 0.2,-0.2 0.2,-0.1 0.3,-0.1 0.2,-0.1 0.2,-0.1 0.2,-0.1 0.2,-0.1 0.2,-0.1 0.2,-0.2 0.1,-0.1 0.1,-0.2 0.1,-0.2 0.2,-0.6 0.4,-0.7 0.1,-0.2 0.1,-0.4 0.2,-0.3 0.1,-0.2 0.2,-0.3 0.1,-0.2 0,-0.2 0.1,-0.2 0,-0.2 0,-0.4 0,-0.8 0,-0.2 0.1,-0.4 0.1,-0.2 0.1,-0.2 0.2,-0.2 1.4,-1 0.7,-0.4 1.8,-1 0.4,-0.2 2.2,-0.7 0.4,-0.2 0.6,-0.2 0.5,-0.2 0.5,-0.3 0.7,-0.4 0.2,-0.1 0.3,-0.3 0.3,-0.3 0.4,-0.5 0.2,-0.3 0.1,-0.2 0.1,-0.2 0.1,-0.2 0.1,-0.2 0.1,-0.4 0.1,-0.3 0.1,-0.4 0,-0.3 0.1,-0.6 0.1,-0.2 0,-0.2 0.1,-0.2 0.3,-0.5 0.2,-0.4 0.2,-0.4 0.1,-0.4 0.1,-0.4 0.2,-0.6 0.3,-0.7 0.1,-0.4 0.1,-0.4 1.2,-2.9 0.2,-0.4 0.1,-0.2 0.1,-0.3 0.2,-0.5 0.7,-1.3 0.2,-0.4 0.1,-0.2 0.1,-0.2 0.1,-0.2 0,-0.2 0,-0.4 0,-0.1 -0.1,-0.2 -0.1,-0.2 -0.1,-0.2 -0.1,-0.2 1.2,-0.8 0.4,-0.3 0.6,-0.6 1.5,-0.9 0.2,-0.2 0.1,-0.1 0.1,-0.2 0.3,-0.4 0.5,-0.7 0.1,-0.2 0.3,-0.4 1.1,-1 0.2,-0.2 0.2,-0.2 0.1,-0.2 0.1,-0.2 0,-0.2 0.2,-0.4 -13,-8.5 -16.4,-4 -1.8,4.1 -0.2,0.2 -0.3,0.2 -0.6,0.2 -0.5,0.1 -0.9,0.1 -0.6,0.1 -0.7,-0.1 -2.5,0 -0.4,-0.1 -0.3,0 -0.4,0 -0.3,0.1 -0.2,0.1 -0.2,0.2 -0.1,0.3 0.1,0.3 0.1,0.3 0.1,0.4 0.2,0.7 0,0.3 -0.1,0.4 0,0.3 0.1,0.5 0,0.6 -0.2,0.6 -0.2,0.9 -0.2,0.3 0,1 -0.2,0.2 -0.2,0.1 -0.4,0.1 -0.5,0.1 -0.4,0 -0.4,-0.2 -0.4,-0.3 -0.3,-0.2 -0.3,-0.1 -0.3,0 -0.3,0.1 -0.3,0.1 -0.2,0.2 -0.4,0.3 -0.3,0.3 -0.2,0.2 -0.2,0.5 0,0.3 -0.1,0.3 0,0.4 0.1,0.5 0,0.3 -0.1,0.2 -0.1,0.4 -0.2,0.2 -0.2,0.2 -0.4,0.2 -0.3,0.1 -0.3,0.1 -0.3,0.1 -0.2,0.1 -0.6,0.4 -0.3,0.3 -0.2,0.2 -0.2,0.3 -0.1,0.3 -0.1,0.3 -0.2,0.3 -0.2,0.2 -0.3,0.2 -0.4,0.4 -0.4,0.3 -0.3,0.4 -0.2,0.2 -0.2,0.3 0,0.3 -0.1,0.3 -0.1,0.3 -0.2,0.2 -0.3,0.2 -0.2,0.1 -0.3,0 -0.3,-0.1 -0.3,-0.1 -0.4,-0.2 -0.3,-0.1 -0.4,0 -0.3,0.1 -0.5,0.1 -0.5,0.3 -0.2,0.3 -0.2,0.4 -0.2,0.8 -0.2,0.5 -0.1,0.6 0.1,0.4 0.1,0.2 0.2,0.3 0.3,0.5 0.3,0.9 0.4,0.7 0.2,0.5 0.4,0.6 0.7,1.1 0.3,0.4 0.1,0.3 0,0.3 -0.1,0.3 -0.1,0.3 -0.2,0.2 -0.3,0.1 -0.2,0.1 -0.4,-0.1 -0.3,-0.2 -0.5,-0.3 -0.3,-0.3 -0.4,-0.2 -0.4,-0.2 -0.4,-0.1 -0.3,0 -0.4,0 -0.2,0.1 -0.2,0.1 -0.2,0.2 -0.1,0.3 -0.2,0.6 -0.3,0.6 -0.5,0.9 -0.1,0.1 -0.3,0.1 -0.2,-0.1 -0.1,-0.1 -0.1,-0.1 -0.1,-0.2 -0.1,-0.2 -0.2,-0.2 -0.2,-0.1 -0.3,0 -0.4,0 -0.4,0.1 -0.4,0.1 -0.3,0.2 -0.3,0.2 -0.3,0.3 -0.3,0.2 -0.5,0.3 -0.9,0.4 -0.4,0.1 -0.5,0.1 -0.6,0.1 -0.8,0 -0.6,0 -0.5,-0.1 -0.3,0 -0.2,0.1 -0.1,0.1 -0.1,0.2 -0.1,0.2 0,0.2 0.1,0.2 0.1,0.3 0.2,0.4 0.1,0.2 0,0.3 0,0.3 -0.1,0.4 -0.2,0.3 -0.3,0.4 -0.3,0.3 -0.3,0.2 -0.5,0.2 -0.5,0.2 -0.3,0.2 -0.4,0.4 -0.4,0.5 -0.5,0.6 -1.2,1.4 -0.5,0.8 -0.7,0.9 -1.1,1.4 -0.9,1.4 0.6,0.4 0.3,0.2 0.3,0.2 0.2,0.3 0.2,0.4 0.2,0.4 0.1,0.4 0.1,0.3 -0.1,0.3 -0.1,0.3 -0.1,0.3 -0.2,0.4 -0.1,0.3 -0.1,0.3 -0.1,0.3 0,0.3 0.1,0.3 0.1,0.3 0.2,0.3 0.3,0.3 0.3,0.3 0.3,0.2 0.4,0.2 0.4,0.2 0.3,0.1 0.4,0.3 0.2,0.2 0.1,0.2 0.1,0.3 0.1,0.3 0,0.2 0,0.3 -0.1,0.2 -0.1,0.3 -0.1,0.4 -0.1,0.7 0.1,0.3 0.1,0.3 0.2,0.4 0.2,0.3 0.3,0.3 0.4,0.2 0.4,0.3 0.2,0.2 0.3,0.2 0.2,0.2 0.1,0.3 0,0.2 0.1,0.4 0,0.3 -0.1,0.4 -0.1,-0.8 -0.2,0.4 -0.3,0.4 -0.4,0.5 -0.3,0.3 -0.4,0.4 -0.3,0.2 -0.3,0.2 -0.5,0.2 -0.4,0.3 -0.5,0.4 -0.7,0.5 -0.5,0.5 -0.6,0.7 -0.3,0.4 -0.2,0.3 -0.1,0.1 -0.2,0.3 -0.5,1.1 -0.6,0.9 -0.5,0.7 -0.5,0.6 -0.5,0.7 -0.6,0.5 -0.4,0.5 -0.9,0.9 -0.2,0.2 -0.1,0.1 -0.2,0.1 -0.3,0.1 -0.3,0 -0.3,0.1 -0.2,0.1 -0.1,0.1 -0.2,0.2 -0.1,0.2 -0.1,0.2 -0.1,0.3 -0.1,0.3 0.1,1.3 0,0.3 -0.1,0.4 -0.1,0.2 -0.2,0.4 -0.3,0.4 -0.4,0.3 -0.2,0.2 -0.3,-0.6 -0.3,-0.4 -0.5,-0.9 -0.5,-0.8 -0.4,-0.5 -0.3,-0.3 -0.5,-0.5 -0.2,-0.2 -0.5,-0.4 -0.4,-0.4 -0.3,-0.2 -0.1,-0.5 -0.2,-0.5 -0.1,-0.4 -0.1,-1.4 0.1,-0.4 0.1,-0.5 0.1,-0.3 0.8,-1.1 0.3,-0.6 0.1,-0.5 0.1,-0.6 -0.2,-0.5 -0.3,-0.5 -0.4,-0.4 -0.8,-0.4 -0.7,-0.5 -0.3,-0.1 -0.9,-0.4 -1.1,-0.6 -0.2,-0.1 -0.1,-0.2 -0.1,-0.7 -0.1,-0.7 -0.1,-0.7 -0.1,-1.3 -0.1,-1.3 -0.1,-0.6 -0.2,-0.7 -0.2,-0.6 -0.2,-0.5 -0.1,-0.4 -0.3,-1 -0.1,-0.6 0.1,-0.9 0,-1 -0.1,-0.7 -0.1,-0.7 0,-1.4 -0.1,-0.7 -0.2,-1.1 -0.3,-0.7 -0.2,-0.6 -0.3,-0.6 -0.4,-1 -0.4,-1 -0.4,-1.1 -0.5,-1.4 -0.6,-1.1 -1.2,-2.5 -0.4,-0.5 -0.6,-0.6 -0.4,-0.5 -0.4,-0.5 -1.1,-1.2 -0.4,-0.4 -0.2,-0.2 -0.5,-0.6 -0.5,-1 -0.3,-0.4 -0.5,-0.6 -0.4,-0.6 -0.5,-0.5 -1,-1.1 -0.6,-0.6 -0.7,-0.8 -1.1,-1 -0.3,-0.3 -0.6,-0.6 -0.5,-0.5 -0.5,-0.6 -0.3,-0.4 -0.6,-1.2 -0.3,-0.3 -0.5,-0.7 -0.5,-0.6 -0.6,-0.7 -0.5,-0.5 -0.5,-0.5 -0.4,-0.4 -0.1,-0.3 -0.3,-0.6 -0.1,-0.2 -0.3,-0.8 0,-0.6 0,-0.9 -0.1,-0.5 -0.1,-0.5 -0.3,-0.9 -0.3,-1.2 -0.2,-1.2 -0.3,-0.9 0,-0.1 0,-0.5 -0.1,-0.6 -0.2,-1.1 -0.1,-0.7 -0.1,-0.7 0,-0.6 0.1,-0.5 0.4,-0.5 0.7,-1 0.4,-0.6 0.5,-0.6 0.7,-1 1.1,-1 0.7,-0.8 0.5,-0.9 0.2,-0.5 0.3,-0.4 0.3,-0.4 0.4,-0.7 0.3,-0.4 0.2,-0.4 0.3,-0.3 0.3,-0.4 0.2,-0.4 0.4,-0.7 0.4,-0.7 0.2,-0.2 0.4,-0.9 0.3,-0.6 0.2,-0.4 0.2,-0.9 0.1,-0.5 0.2,-0.6 0.2,-0.5 0.2,-0.6 0.2,-0.4 0.2,-0.5 0.2,-0.3 0.2,-0.4 0.3,-0.7 0.3,-0.5 0.2,-0.5 0.3,-0.9 0.2,-0.7 0.2,-0.5 0.2,-0.5 0.4,-0.7 1,-0.7 0.4,-0.5 0.4,-0.3 0.2,-0.4 0.3,-0.3 0.4,-0.6 0.3,-0.6 0.4,-0.6 0.2,-0.4 0.4,-0.7 0.3,-0.5 0.2,-0.5 0.3,-0.6 0.2,-0.3 0.2,-0.5 0.2,-0.4 0.3,-0.4 0.2,-0.6 0.2,-0.5 0.5,-0.7 0.4,-0.6 0.4,-0.6 0.5,-0.8 0.4,-0.8 0.3,-0.5 0.3,-0.6 0.5,-0.7 0.4,-0.7 0.3,-0.4 0.3,-0.5 0.2,-0.4 0.4,-0.5 0.1,-0.3 0.3,-0.5 0.5,-0.7 0.3,-0.5 0.3,-0.6 0.3,-0.6 0.2,-0.3 0.3,-0.5 0.2,-0.2 0.3,-0.4 0.4,-0.7 0,-0.2 0.3,-0.7 0.1,-0.5 0.2,-0.7 0.4,-1.2 0.2,-0.3 0.4,-0.7 0.4,-0.7 0.3,-0.4 0.5,-1 0.2,-0.3 0.2,-0.7 0.1,-0.3 0,-0.2 0,-0.5 0.1,-0.6 0.1,-0.6 0,-0.5 0.1,-1.1 -0.1,0.1 0,-0.5 -0.1,-0.4 0,-0.6 0.1,-0.6 0,-0.6 0,-0.7 0.1,-1.3 0.1,-0.6 0.1,-0.5 0.1,-0.8 0.1,-0.7 0.1,-0.6 0.1,-1.2 0.2,-1.3 0.2,-1.4 0.2,-0.7 0.1,-0.3 0.2,-1.1 0.2,-0.6 0.3,-1.1 0.3,-0.9 0.2,-0.6 0.3,-0.7 0.1,-0.6 0.3,-0.7 0.1,-0.7 0.2,-0.3 0.1,-0.3 0.1,-0.7 0.1,-1.8 -0.1,-1.2 0.1,-1 0.2,-0.9 0.3,-0.6 0.2,-0.4 0.7,-0.6 1.1,-0.7 0.9,-0.7 0.8,-0.5 0.5,-0.4 1.4,-0.9 0.5,-0.4 0.5,-0.5 0.7,-0.7 0.2,-0.3 0.4,-0.4 0.2,-0.3 0.4,-0.4 0.8,-0.7 0.1,-0.1 0.2,-0.1 0.3,-0.2 0.4,-0.1 0.4,-0.1 0.4,-0.1 0.3,0 1,-0.2 0.4,-0.4 0.2,-0.3 0.1,-0.3 0.2,-0.4 0.1,-0.3 0.1,-0.9 0.1,-0.3 0.1,-0.2 0.4,-0.4 0.4,-0.4 0.3,-0.3 0.7,-0.6 0.3,-0.3 0.4,-0.3 0.5,-0.5 0.2,-0.5 0.1,-0.4 0.1,-0.5 0.1,-0.7 0.1,-0.7 0.1,-1.8 0.1,-0.6 0.1,-1.1 0.2,-0.6 0.2,-0.4 0.4,-1 0.1,-0.4 0.3,-0.5 0.2,-0.4 0.3,-0.6 0.3,-0.5 0.4,-0.6 0.3,-0.3 0.4,-0.7 0.2,-0.3 0.3,-0.5 0.2,-0.5 0.2,-0.4 0.3,-0.6 0.2,-0.6 0.1,-0.5 0.4,-1.1 0.1,-0.5 0.2,-0.6 0.1,-0.5 0.2,-0.4 0.4,-0.7 0.2,-0.5 0.3,-0.4 0.1,-0.3 0.2,-0.5 0.1,-0.4 0.1,-0.4 0.1,-0.4 0.1,-0.3 0.1,-0.3 0.1,-0.4 0,0 0.1,-0.3 0.1,-0.4 0.1,-0.4 0.2,-0.5 0.2,-0.7 0.1,-0.4 0.2,-0.6 0.2,-0.4 0.1,-0.5 0.1,-0.3 0.1,-0.6 0.1,-0.2 0.1,-0.4 0.1,-0.2 0.1,-0.5 0.1,-0.4 0.1,-0.5 0.1,-0.3 0.1,-0.4 0.1,-0.3 0.1,-0.5 0.1,-0.4 0.1,-0.3 0.1,-0.5 0.2,-0.3 0.1,-0.3 0.1,-0.2 0.2,-0.3 0.2,-0.3 0.3,-0.4 0.2,-0.3 0.3,-0.3 0.2,-0.2 0.2,-0.3 0.3,-0.3 0.4,-0.5 0.2,-0.4 0.2,-0.3 0.1,-0.2 0.2,-0.4 0.2,-0.5 0.4,-0.8 0.3,-0.6 0.1,-0.4 0.2,-0.4 0.2,-0.6 0.2,-0.5 0.1,-0.2 0.3,-0.9 0.2,-0.3 0.2,-0.6 0.2,-0.4 0.2,-0.2 0.3,-0.4 0.1,-0.3 0.3,-0.5 0.2,-0.4 0.2,-0.5 0.1,-0.3 0.1,-0.4 0.1,-0.5 0.1,-0.3 0.2,-0.4 0,-0.2 0.2,-0.5 0.1,-0.4 0.1,-0.4 0.1,-0.5 0.1,-0.3 0.1,-0.3 0.1,-0.4 0.1,-0.1 0.1,-0.2 0.1,-0.3 0.2,-0.3 0.4,-0.5 0.2,-0.4 0.2,-0.2 0.2,-0.2 0.3,-0.3 0.3,-0.5 0.2,-0.2 0.2,-0.2 0.2,-0.2 0.2,-0.3 0.4,-0.4 0.3,-0.3 0.1,-0.1 0.3,-0.2 0.2,-0.2 0.4,-0.3 0.3,-0.2 0.3,-0.3 0.4,-0.3 0.6,-0.4 0.7,-0.4 0.9,-0.5 0.5,-0.4 0.3,-0.2 0.4,-0.4 0.5,-0.7 0.5,-0.4 0.4,-0.3 0.4,-0.4 0.4,-0.3 0.2,-0.1 0.1,-0.1 0.3,-0.4 0.4,-0.5 0.3,-0.4 0.2,-0.3 0.5,-0.8 0.1,-0.3 0.3,-0.6 0.1,-0.3 0.1,-0.3 0.1,-0.2 0.2,-0.3 0.1,-0.2 0.2,-0.4 0.2,-0.4 0.3,-0.4 0.1,-0.2 0.2,-0.4 0.4,-0.5 0.1,-0.2 0.2,-0.4 0.1,-0.2 0.2,-0.3 0.2,-0.5 0.2,-0.5 0.2,-0.4 0.2,-0.5 0.3,-0.4 0.2,-0.3 0.4,-0.3 0.4,-0.4 0.3,-0.1 0.5,-0.2 0.6,-0.2 0.3,-0.3 0.3,-0.4 0.2,-0.4 0.2,-0.3 0.3,-0.4 0.1,-0.4 0,-0.3 0.2,-0.4 0.1,-0.4 0.1,-0.3 0.3,-0.6 0.1,-0.3 0.1,-0.4 0.2,-0.3 0.3,-0.6 0.3,-0.5 0.3,-0.4 0.2,-0.3 0.3,-0.4 0.2,-0.1 0.2,-0.2 0.3,-0.4 0.5,-0.4 0.2,-0.3 0.3,-0.3 0.3,-0.3 0.3,-0.3 0.2,-0.3 0.2,-0.3 0.2,-0.5 0.4,-0.7 0.3,-0.5 0.3,-0.3 0.4,-0.3 0.2,-0.2 0.6,-0.6 0.5,-0.5 0.2,-0.1 0.3,-0.5 0.4,-0.4 0.2,-0.3 0.1,-0.2 0.2,-0.2 0.2,-0.3 0.2,-0.2 0.2,-0.2 0.2,-0.2 0.1,-0.2 0.1,-0.3 0.2,-0.4 0.3,-0.5 0.2,-0.3 0.1,-0.3 0.2,-0.3 0.2,-0.3 0.2,-0.3 0.3,-0.5 0.2,-0.2 0.2,-0.3 0.2,-0.3 0.2,-0.3 0.4,-0.4 0.2,-0.2 0.1,-0.2 0.3,-0.3 0.3,-0.3 0.2,-0.3 0.3,-0.2 0.3,-0.3 0.2,-0.3 0.1,-0.2 0.1,-0.1 0.3,-0.4 0.3,-0.4 0.3,-0.4 0.2,-0.3 0.2,-0.2 0.2,-0.3 0.1,-0.2 0.3,-0.4 0.1,-0.1 0.1,-0.2 0.2,-0.3 0.2,-0.4 0.3,-0.4 0.2,-0.3 0.2,-0.3 0.2,-0.3 0.3,-0.3 0.1,-0.4 0.2,-0.3 0.4,-0.5 0.3,-0.3 0.5,-0.4 0.6,-0.4 0.9,-0.5 1.1,-0.8 1.1,-0.4 0.7,-0.4 2.2,-1.2 1.6,-1.2 0.4,-0.2 3.1,-1.2 2.2,-0.7 1.3,-0.5 1,-0.4 1.3,-0.2 0.3,-0.1 3.9,-1.7 0,0 1.1,0.3 3.5,0.2 0.8,0.1 0.4,-0.4 0.7,-0.7 0.9,-1.1 0.3,-0.5 0.4,-1 0.1,-0.2 0.4,-0.6 0.2,-0.4 0.4,-1.2 0.7,-0.8 0.6,-0.6 1.3,-1.2 1.4,-0.9 0.8,-0.3 0.3,-0.1 1.4,-1.1 2.2,-3.2 0.7,-1.2 1.5,-2.3 0,-0.1 -0.4,-0.5 -3.6,-4.3 -1.8,-2.3 0,0 0.1,-0.4 0.3,-0.4 0.7,-0.5 0.8,-0.6 2.4,-2.1 -3,0.6 0.5,-0.4 0.2,-0.4 0.2,-0.5 0.5,-1.3 0.8,-1.3 0.5,-0.7 0.3,-0.3 0.5,-0.5 0.5,-0.4 0.3,-0.5 0.4,-0.5 0.7,-0.7 0.6,-0.4 0.3,-0.3 0,-0.2 0.1,-0.4 -0.1,-0.5 -0.1,-1.1 0.1,-0.9 0.2,-0.5 0.4,-0.7 0.1,-0.5 0.1,-0.6 0,-0.5 0.1,-0.3 0.3,-0.5 0.3,-0.4 0.4,-0.6 0.2,-0.5 0.1,-0.6 0.1,-0.4 -0.1,-0.4 0,-0.4 0.4,-1.5 0.3,-1.1 0.4,-0.9 0.2,-0.4 1.3,-1 0.2,-0.2 0.2,-0.5 0.2,-0.5 0.3,-0.5 0.3,-0.4 0.6,-0.6 1.6,-1.6 0.2,-0.3 0.1,-0.4 0.7,-1.1 0.5,-0.7 0.5,-0.6 0.1,-0.4 0.1,-0.3 0,-0.3 0.3,-0.6 0.3,-0.9 0.3,-0.9 0.1,-0.9 0.1,-0.7 0.2,-0.7 0.3,-1 0.4,-1 0.3,-0.6 0.2,-0.5 0.1,-0.5 0.2,-1.3 0.2,-1.6 -0.1,-1.3 -0.1,-0.8 0.1,-0.3 0.2,-0.3 0.2,-0.3 0.1,-0.3 0.1,-0.4 -0.2,-0.4 -0.1,-0.4 -0.2,-0.9 0.1,-0.9 0.1,-0.9 0.2,-0.6 0.1,-0.4 0.1,-0.4 0.2,-0.7 0.2,-0.4 0.3,-0.5 0,-0.3 -0.1,-0.3 0.1,-0.3 0.2,-0.5 0.2,-0.4 0.2,-0.3 0.1,-0.6 0.1,-0.4 0.3,-0.9 0.4,-0.5 0,0 -0.1,-0.1 -2.8,0.1 -0.1,-0.1 0.6,-2.8 -0.2,-3.4 0.7,-2.3 0.7,-1.5 -0.1,-3.9 -4.7,-3.3 0,-0.1 -1.7,-0.5 0,0 -2.9,-1 0,-0.1 -3.3,-2 -0.1,0 -3.6,-0.8 0,0 -4.2,-4 32.4,0.3 0.1,0 7.3,-3 0.1,0 4.1,-2 0,0 3.6,-1.3 0,0 5.1,0.7 0,0 z"
       inkscape:connector-curvature="0"
       class="DEP_08 ZON_03" /></g></svg>