<?xml version="1.0" encoding="UTF-8" standalone="no"?>
<!-- Generator: Adobe Illustrator 19.2.0, SVG Export Plug-In . SVG Version: 6.00 Build 0)  -->

<svg
   xmlns:dc="http://purl.org/dc/elements/1.1/"
   xmlns:cc="http://creativecommons.org/ns#"
   xmlns:rdf="http://www.w3.org/1999/02/22-rdf-syntax-ns#"
   xmlns:svg="http://www.w3.org/2000/svg"
   xmlns="http://www.w3.org/2000/svg"
   xmlns:sodipodi="http://sodipodi.sourceforge.net/DTD/sodipodi-0.dtd"
   xmlns:inkscape="http://www.inkscape.org/namespaces/inkscape"
   version="1.1"
   id="SvgMunicipio"
   x="0px"
   y="0px"
   viewBox="0 0 548 1047.4"
   style="enable-background:new 0 0 548 1047.4;"
   xml:space="preserve"
   inkscape:version="0.91 r13725"
   sodipodi:docname="MUN_ID0821.svg"><metadata
     id="metadata10"><rdf:RDF><cc:Work
         rdf:about=""><dc:format>image/svg+xml</dc:format><dc:type
           rdf:resource="http://purl.org/dc/dcmitype/StillImage" /></cc:Work></rdf:RDF></metadata><defs
     id="defs8" /><sodipodi:namedview
     pagecolor="#ffffff"
     bordercolor="#666666"
     borderopacity="1"
     objecttolerance="10"
     gridtolerance="10"
     guidetolerance="10"
     inkscape:pageopacity="0"
     inkscape:pageshadow="2"
     inkscape:window-width="1366"
     inkscape:window-height="705"
     id="namedview6"
     showgrid="false"
     inkscape:zoom="0.22531983"
     inkscape:cx="274"
     inkscape:cy="523.70001"
     inkscape:window-x="-8"
     inkscape:window-y="-8"
     inkscape:window-maximized="1"
     inkscape:current-layer="svg" /><g
     id="g3"><path
       id="MUN_0821"
       d="m 334.2,69.2 5.5,37.7 0.1,0.1 0.4,1.3 0.3,0.3 0.4,0.4 0.5,0.9 0.5,0.5 0.5,0.8 0.3,0.2 0.2,0.3 0.3,0.3 0.2,0.2 0.2,0.3 0.1,0.2 0.2,0.3 0.1,0 0.1,0.1 0.5,0.5 0.5,0.4 0.8,0.1 0.5,0.3 0.4,0.3 0.5,0.5 0.3,0.3 0.3,0.4 0.4,0.3 0.5,0.4 0.3,0.4 0.2,0.2 0.1,0.3 0.1,0.3 0.1,0.3 0.2,0.3 0.4,0.6 0.6,0.6 0.5,0.3 0.5,0.3 0.4,0.3 0.2,0.3 0.3,0.6 0.4,0.7 0.4,0.6 0.4,0.5 0.5,0.7 0.6,0.7 0.3,0.5 0.3,0.5 0.3,0.5 0.4,0.5 0.5,0.5 0.3,0.5 0.5,0.6 0.3,0.5 0.1,0.3 0,0.3 0.2,0.3 0.3,0.3 0.1,0.4 0.1,0.4 0.2,0.7 0.1,0.6 0.2,0.3 0.2,0.3 0.3,0.3 0.4,0.1 0.4,0.1 0.3,0.3 0.3,0.3 0.2,0.2 0.5,0.3 0.8,0.5 0.6,0.3 0.4,0.2 0.1,0.1 0.1,0.4 0,0.7 0.1,0.6 0.1,0.5 0.3,0.5 0.4,0.7 0.5,0.7 0.4,0.5 0.3,0.5 0.4,0.5 0.3,0.4 0.3,0.3 0.7,3.2 0.2,3.6 0,6.3 -0.9,2.3 -0.6,15.6 0.4,3.7 -1.1,3.4 0.5,2 0.1,0.6 0,0.2 0.2,-0.1 0.2,0 0.2,0.2 0.2,0.4 0.5,0.7 0.5,0.5 0.1,0.4 -0.1,0.5 -0.2,0.5 -0.1,0.7 0.1,0.7 0.2,0.7 0.3,0.5 0.4,0.4 0.4,0.2 0.1,0.5 0.3,0.6 0.1,0.5 0,0.7 0.1,0.4 0.3,0.7 0.3,1 0.5,1 0.3,0.5 0.3,0.4 0.6,0.5 0.5,0.5 0.4,0.5 0.3,0.5 0.1,0.4 0.4,0.6 0.6,1 0.3,0.2 0.2,0.2 0.4,0.5 0.4,0.6 0.4,0.5 0.1,0.4 0.3,0.6 0.3,0.6 0.2,0.7 0.4,0.6 0.4,0.4 0.3,0.5 0.2,0.5 0.3,0.7 0.2,1 0.1,0.5 0,0.7 -0.1,0.5 0,0.5 0.2,0.4 0.3,0.4 0.3,0.5 0.4,0.8 0.2,0.5 0.3,0.4 0.4,0.3 0.6,0.3 1.1,0.6 0.3,0.3 0.2,0.3 0.1,0.3 0,0.4 0.1,0.3 0.7,1.2 0.9,1.3 0.7,1 0.7,0.6 0.8,0.9 0.7,0.6 0.3,0.2 0.2,0.2 0.3,0.1 0.8,0.2 0.6,0.1 0.4,0.2 0.2,0.2 0.3,0.5 0.4,0.5 0.5,0.4 0.4,0.4 0.2,0.4 0.5,0.7 0.4,0.5 0.2,0.2 0.2,0 0.5,0 0.3,0.2 0.3,0.2 0.3,0.4 0.3,0.6 0.4,0.7 0.1,0.2 0.3,0.3 0.4,0.3 0.5,0.3 0.5,0.5 0.3,0.4 0.1,0.3 0.4,0.4 0.2,0.4 0.2,0.4 0.3,0.4 0.2,0.4 0.4,0.7 0.4,0.5 0.5,0.4 0.2,0.3 0.2,0.7 0,0.8 0.1,0.3 0.5,0.8 0.7,1.3 0.3,0.7 0.4,0.6 0.4,0.4 0.2,0.5 0.5,0.5 0.7,0.5 0.5,0.5 0.5,0.9 0.4,0.8 0.1,0.5 0,0.8 0,0.6 -0.3,0.7 -0.4,1.2 -0.2,0.6 0,0.7 0.1,0.5 0.5,1.1 0,0.7 -0.3,0.5 -0.2,0.5 -0.1,0.6 0.1,0.5 0.4,0.4 0.2,0.5 0,0.3 -0.1,0.6 -0.2,0.8 0,0.5 -0.3,0.9 -0.2,0.9 -0.1,0.6 0.1,1.1 -0.3,0.7 -0.5,1.1 -0.2,1.9 -0.3,0.4 -0.1,0.3 -0.1,1.4 -0.2,0.7 -0.4,1.1 -0.4,0.5 -0.2,1.2 -0.3,1 -0.4,0.5 -0.9,0.8 -0.8,0.8 -0.2,0.5 -0.2,0.7 -0.3,0.8 -0.2,0.5 -0.2,0.5 0,0.4 0,0.6 -0.1,0.5 0,0.6 0,0.5 0.1,1.1 0.8,1.1 -0.4,1.5 0.7,2.2 0,0.1 0.1,0.2 0.5,0.6 0.2,0.2 0.2,0.4 0.1,0.3 0.1,0.5 0.1,0.4 0,0.5 0,0.3 -0.1,0.5 -0.2,0.6 -0.3,0.8 -0.3,0.7 -0.3,0.3 -0.3,0.3 -0.3,0.1 -0.3,0 -0.5,0.1 -0.4,0.1 -0.4,0.2 -0.3,0.1 -0.1,0.1 -0.1,0.2 -0.1,0.3 0,0.4 0,0.6 0,0.7 0,0.4 0,0.4 -0.1,0.2 -0.2,0.3 -0.2,0.2 -0.2,0.2 -0.2,0.2 -0.1,0.2 -0.1,0.2 -0.1,0.2 -0.1,0.1 -0.2,0.2 -0.2,0.2 -0.4,0.3 -0.2,0.2 -0.2,0.1 -0.1,0.1 -0.2,0 -0.2,0 -0.2,0 -0.2,0.1 -0.2,0.1 -0.3,0.2 -0.1,0.3 -0.2,0.4 -0.2,0.5 -0.2,0.6 -0.2,0.5 -0.2,0.4 -0.4,-0.5 -0.2,0.3 -0.2,0.3 -0.1,0.2 0,0.2 -0.1,0.5 -0.1,0.5 -0.2,0.5 -0.1,0.4 -0.4,0.6 -0.8,0.9 -0.2,0.3 -0.2,0.5 -0.1,0.3 -0.1,0.5 -0.1,0.5 0,0.2 0.1,0.1 0,0.2 0,0.2 0,0.2 0,0.1 -0.1,0.1 -0.2,0.2 -0.1,0.1 -0.1,0.3 -0.1,0.4 -0.1,0.5 0,0.4 -0.1,0.3 -0.1,0.4 0,0.4 0.1,0.7 0,0.3 -0.1,0.5 -0.1,0.2 -0.3,0.4 -0.2,0.3 -0.2,0.6 -0.1,0.5 -0.1,0.6 0,0.4 0,0.4 0,0.3 0,0.4 0,0.5 0,0.3 0.2,0.2 0.1,0.2 0.1,0.2 0.1,0.4 0.1,0.3 0.1,0.3 0,0.3 0,0.4 -0.1,0.3 -0.2,0.2 -0.1,0.1 -0.3,0.2 -0.4,0.3 -0.4,0.2 -0.5,0.1 -0.5,0.1 -0.4,0.2 -0.4,0.3 -0.1,0.2 -0.3,0.5 -0.3,0.6 -0.1,0.1 -0.2,0.2 -0.4,0.3 -0.4,0.2 -0.7,0.3 -0.2,0.1 -0.2,0.2 -0.3,0.4 -0.2,0.4 -0.3,0.4 -0.4,0.3 -0.5,0.4 -0.4,0.3 -0.3,0.3 -0.2,0.3 -0.2,0.4 -0.2,0.3 -0.1,0.2 0,0.3 -0.1,0.3 0,0.2 0,0.1 0,0.3 0,0.3 0,0.3 0,0.3 0,0.3 0,0.4 0,0.5 0,0.3 -0.1,0.3 -0.2,0.4 -0.2,0.3 -0.3,0.2 -0.3,0.2 -0.4,0.3 -0.3,0.2 -0.4,0.4 -0.4,0.3 -0.3,0.3 -0.3,0.3 -0.2,0.2 -0.1,0.2 -0.1,0.3 -0.1,0.3 -0.2,0.3 -0.4,0.4 -0.1,0.1 -0.5,0.3 -0.4,0.2 -0.3,0.2 -0.3,0.2 -0.4,0.3 -0.2,0.2 -0.3,0.2 -0.4,0.2 -0.2,0.2 -0.2,0.2 -0.1,0.1 0,0.2 0,0.2 -0.1,0.3 -0.1,0.2 -0.1,0.2 0,0.2 0,0.2 0,0.2 -0.1,0.2 -0.1,0.2 -0.1,0.2 -0.2,0.3 -0.1,0.2 -0.1,0.2 0,0.3 0,0.2 0,0.3 0,0.3 0,0.2 0,0.3 0,0.3 0,0.2 -0.1,0.2 0,0.2 0,0.2 0,0.2 0,0.2 -0.1,0.1 -0.1,0.1 -0.1,0.2 -0.1,0.2 -0.2,0.4 -0.1,0.4 -0.1,0.5 -0.1,0.4 -0.1,0.5 -0.1,0.3 -0.1,0.3 -0.2,0.3 -0.1,0.2 -0.1,0.2 -0.1,0.3 -0.3,0.4 -0.2,0.2 -0.1,0.2 0,0.1 0,0.2 0,0.3 0.2,1 0,0.2 0,0.2 0,0.2 0,0.1 0.1,0.1 0.2,0.1 0.2,0.1 0.2,0.2 0.3,0.2 0.3,0.1 0.2,0 0.2,0 0.2,0 0.2,0.1 0.2,0.1 0.2,0.1 0.2,0.2 0.1,0.1 0.1,0.1 0.1,0.1 0.1,0.2 0,0.3 0,0.2 0,0.2 0,0.1 -0.1,0.2 -0.1,0.1 -0.2,0.1 -0.1,0 -0.2,0.1 -0.1,0.1 -0.1,0.1 -0.1,0.2 0,0.2 0,0.2 0,0.1 0,0.1 -0.1,0.2 -0.1,0.1 0,0.2 0,0.1 0.1,0.1 0.1,0.1 0.1,0.1 0.1,0.2 0.2,0.1 0.1,0.2 0.1,0.2 0.2,0.2 0.2,0.3 0.1,0.1 0,0.1 0,0.1 0,0.2 -0.1,0.3 -0.1,0.3 -0.1,0.4 -0.1,0.2 0,0.2 0,0.3 0.1,0.2 0.1,0.2 0.2,0.1 0.2,0.2 0.3,0.2 0,0.3 0,0.2 0.2,0.2 0.1,0.1 0.3,0.2 0.3,0.2 0.2,0.1 0.2,0.1 0.3,0.1 0.2,0.1 0.1,0.1 0,0.2 0,0.2 -0.1,0.2 0,0.2 0,0.2 0,0.2 0,0.1 0,0.2 -0.1,0.2 -0.1,0.3 -0.1,0.2 -0.1,0.2 -0.1,0.2 -0.1,0.2 -0.1,0.3 0,0.2 0,0.3 0,0.2 0,0.2 -0.1,0.3 -0.1,0.3 -0.1,0.4 -0.1,0.4 -0.1,0.5 0,0.3 0,0.1 -0.1,0.1 -0.1,0.1 -0.1,0.1 -0.1,0.1 0,0.1 0,0.1 0.1,0.2 0,0.2 0,0.1 0,0.2 -0.1,0.2 0,0.2 0,0 0,0.1 0,0.2 -0.1,0.2 -0.1,0.4 -0.1,0.2 -0.1,0.3 -0.1,0.2 -0.2,0.5 -0.1,0.3 -0.1,0.3 -0.1,0.2 -0.1,0.2 -0.1,0.1 0,0.2 0.1,0.1 0.1,0.1 0,0.1 0,0.1 0,0.1 -0.1,0.1 -0.1,0.2 -0.2,0.3 -0.1,0.2 -0.1,0.2 -0.1,0.3 -0.2,0.3 -0.1,0.3 -0.1,0.3 -0.2,0.4 -0.1,0.4 -0.2,0.4 -0.2,0.4 -0.2,0.3 -0.2,0.4 -0.1,0.3 -0.1,0.2 -0.2,0.3 -0.2,0.3 -0.1,0.2 -0.1,0.2 0,0.2 0,0.2 0,0.2 0.1,0.2 0,0.2 0,0.2 0.1,0.2 0,0.2 0,0.3 0,0.4 0,0.3 -0.1,0.2 -0.1,0.2 -0.1,0.2 0,0.2 -0.1,0.3 0,0.3 0,0.2 0,0.2 0.1,0.2 0.1,0.2 0,0.1 0,0.3 0,0.2 0,0.2 -0.1,0.2 0,0.2 0,0.2 -0.1,0.4 -0.1,0.3 -0.1,0.3 -0.1,0.3 -0.1,0.2 -0.1,0.2 -0.1,0.1 -0.2,0.2 -0.3,0.2 -0.2,0.1 -0.1,0.1 -0.1,0.1 0,0.1 0,0.3 -0.1,0.3 -0.1,0.3 -0.2,0.4 -0.1,0.5 -0.1,0.5 -0.1,0.6 -0.1,0.5 0,0.3 0,0.5 0,0.4 -0.1,0.5 -0.2,0.3 -0.2,0.3 -0.3,0.3 -0.2,0.3 -0.3,0.3 -0.1,0.2 -0.1,0.3 -0.1,0.2 0,0.2 0,0.2 0,0.2 -0.1,0.3 -0.1,0.3 -0.1,0.2 -0.1,0.3 0,0.1 0.1,0.2 0,0.2 0,0.2 0,0.3 0,0.2 0.1,0.3 0.1,0.3 0.1,0.3 0.1,0.3 0.2,0.3 0.1,0.4 0.1,0.2 0.2,0.2 0.3,0.2 0.2,0.2 0.3,0.2 0.2,0.1 0.2,0.1 0.3,0.2 0.2,0.2 0.2,0.2 0.1,0.2 0.1,0.2 0.1,0.2 0.2,0.2 0.2,0.2 0.2,0.2 0.1,0.2 0,0.2 0,0.2 -0.1,0.2 0,0.2 0.1,0.2 0.2,0.2 0.1,0.2 0.2,0.3 0.2,0.3 0.2,0.3 0.1,0.3 0.3,0.4 0.4,0.5 0.2,0.3 0.2,0.2 0.2,0.2 0.2,0.3 0.3,0.4 0.2,0.3 0.2,0.4 0,0.1 0.1,0.3 0.1,0.4 0.1,0.4 0,0.5 -0.1,0.6 -0.1,0.7 0,0.5 0,0.3 -0.1,0.3 0,0.3 0,0.1 0,0.2 0,0.2 0,0.1 -0.1,0.2 0,0.3 -0.1,0.3 -0.2,0.3 -0.2,0.6 -0.1,0.3 0,0.3 0,0.3 0.1,0.2 0.1,0.2 0,0.2 0.1,0.2 0.1,0.2 0,0.1 -0.1,0.2 0,0.2 0.1,0.2 0.1,0.2 0.1,0.2 0.1,0.3 0.2,0.2 0.2,0 0.1,0.1 0.1,0.2 0,0.3 0,0.2 0,0.3 0.1,0.2 -0.1,0.2 -0.1,0.3 0,0.4 0,0.3 0,0.5 0,0.4 0,0.4 0,0.4 -0.1,0.3 -0.1,0.2 -0.1,0.2 -0.1,0.3 -0.1,0.3 -0.1,0.3 0,0.3 0,0.2 0.1,0.3 0.1,0.4 0.1,0.5 0.1,0.3 0.1,0.4 0.1,0.5 0,0.3 0.2,0.4 0.1,0.3 0.2,0.5 0.2,0.5 0.2,0.4 0.1,0.3 0.2,0.4 0.2,0.4 0.2,0.2 0.2,0.3 0.1,0.2 0.1,0.1 0.3,0.2 0.2,0.1 0.2,0.2 0.2,0.2 0.3,0.2 0.4,0.3 0.1,0.2 0.2,0.2 0.3,0.4 0.3,0.3 0.2,0.3 0.1,0.3 0.1,0.4 0,0.5 0,1 0,1.1 -0.1,1.6 0,0.8 0,0.5 0,0.6 0.2,0.5 0.2,0.6 0.4,1 0.4,0.7 0.4,1 0.2,0.7 0.1,0.4 0,0.7 -0.1,0.6 -0.2,0.6 -0.1,0.6 0,0.6 -0.2,0.6 -0.1,0.4 -0.2,0.2 -0.2,0.2 -0.2,0.1 -0.4,0 -0.4,-0.1 -0.4,-0.1 -0.6,-0.2 -0.4,0 -0.3,0 -0.3,0.1 -0.3,0.2 -0.2,0.3 -0.2,0.4 -0.4,0.6 -0.2,0.3 -0.2,0.6 -0.1,0.6 -0.1,1 0.1,0.5 0.1,0.7 0.1,0.5 -0.1,0.8 -0.2,0.3 -0.1,0.4 -0.3,0.4 -0.2,0.6 -0.3,0.8 -0.1,0.3 -0.2,0.2 -0.3,0.4 -0.5,0.8 -0.3,0.5 -0.2,0.3 -0.2,0.3 -0.1,0.3 -0.1,0.5 -0.1,0.5 0,0.3 0,0.1 0.1,0.2 0.1,0.1 0.1,0 0.1,0 0.2,0 0.3,0 0.2,0 0.2,0.1 0.2,0.1 0.2,0.2 0.3,0.3 0.2,0.2 0.2,0.2 0.1,0.4 0.1,0.3 0.1,0.3 0.2,0.4 0.2,0.4 0.2,0.4 0.2,0.4 0.2,0.2 0.2,0.3 0.2,0.4 0.1,0.3 0.1,0.3 0,0.3 0.1,0.4 0.1,0.4 0,0.5 0.1,0.5 0,0.4 0,0.2 0,0.4 0.1,0.2 0.1,0.2 0.2,0.2 0.3,0.4 0.3,0.3 0.3,0.2 0.2,0.2 0.2,0.1 0.3,0.1 0.3,0 0.5,0.1 0.3,0 0.4,0 0.3,0 0.3,0.1 0.3,0.1 0.3,0.1 0.4,0.2 0.4,0.3 0.4,0.3 0.5,0.2 0.3,0.2 0.3,0.3 0.3,0.2 0.2,0.2 0.3,0.3 0.2,0.2 0.1,0.2 0.1,0.4 0.2,0.7 0.2,0.9 0.2,0.8 0.1,0.7 0.2,0.6 0.1,0.6 0.2,0.5 0.2,0.5 0.1,0.7 0,0.5 0,0.4 0.1,0.5 0.1,0.2 0.1,0.4 0.1,0.4 0.2,0.4 0.2,0.3 0.2,0.4 0.2,0.3 0.1,0.2 0.2,0.2 0.2,0.3 0.2,0.2 0.2,0.4 0.1,0.4 0.1,0.4 0,0.3 -0.1,0.3 -0.2,0.2 -0.1,0.1 -0.3,0.3 -0.2,0.3 -0.4,0.3 -0.2,0.3 -0.3,0.3 -0.3,0.3 -0.2,0.4 -0.2,0.5 0,0.3 0,0.3 0.1,0.4 0.1,0.3 0.2,0.3 0.2,0.2 0.2,0.3 0.2,0.4 0.3,0.6 0.2,0.3 0.2,0.2 0.2,0.2 0.2,0.2 0.1,0.3 0.1,0.5 0.1,0.4 0,0.5 0,0.5 -0.1,0.5 -0.2,0.5 -0.1,0.5 -0.3,0.5 -0.2,0.5 -0.3,0.6 -0.2,0.6 -0.2,0.6 -0.1,0.7 0,0.6 -0.1,0.7 0.1,1 -0.1,0.4 0.1,0.5 0,0.5 0.1,0.4 0.2,0.7 0.1,0.4 0,0.4 0.1,0.4 0.1,0.3 0.3,0.3 0.2,0.2 0.2,0.2 0.2,0.3 0.2,0.5 0.3,0.6 0.1,0.5 0.2,0.3 0.1,0.1 0.3,0.5 0.3,0.6 0.2,0.5 0.3,0.6 0.3,0.7 0.1,0.4 0.2,0.4 0.2,0.4 0.1,0.3 0.3,0.4 0.3,0.3 0.2,0.3 0.3,0.4 0.3,0.3 0.2,0.3 0.2,0.3 0.2,0.4 0.3,0.3 0.3,0.3 0.4,0.3 0.4,0.2 0.4,0.3 0.6,0.3 0.6,0.3 1,0.4 0.5,0.2 0.3,0.1 0.3,0.2 0.3,0.3 0.3,0.3 0.3,0.3 0.7,0.4 1,0.7 0.9,0.6 1.2,0.7 0.9,0.6 0.7,0.3 0.6,0.2 0.9,0.2 1.7,0.4 0.9,0.3 0.9,0.2 1,0.1 0.8,0.1 0.4,0 0.3,0.1 0.3,0.1 0.2,0.1 0.2,0.2 0.1,0.2 0,0.2 0,0.3 0,0.2 0,0.2 0.1,0.2 0.1,0.3 0.1,0.6 0,0.4 0,0.4 0,0.4 0.1,0.6 0.1,0.4 0.2,0.3 0.3,0.2 0.3,0 0.4,0 0.3,0 0.4,0 0.4,0 0.5,0.1 0.5,0.2 0.6,0.1 0.9,0 1.9,0.4 1.3,0.1 1.3,0 1.4,0 1.4,0 1.1,0 1.1,0 1,0 0.5,0 0.3,0 0.2,0.1 0.1,0.1 0.1,0.1 0.2,0.2 0,0.2 0,0.3 0,0.3 0,0.4 0,0.4 0.1,0.3 0.1,0.3 0.2,0.2 0.3,0.5 0.2,0.5 0.3,0.5 0.1,0.5 0.3,0.4 0.2,0.3 0.2,0.2 0.2,0.3 0.3,0.7 0.3,0.7 0.4,0.7 0.4,0.8 0.2,0.5 0.3,0.5 0.2,0.5 0.2,0.6 0.3,0.9 0.3,0.8 0.2,0.5 0.1,0.2 0.2,0.4 0.1,0.4 0.1,0.6 0.1,0.4 0,0.6 0,0.5 -0.1,0.5 0,0.4 0,0.2 0,0.4 -0.1,0.4 0,0.4 0,0.2 0,0.3 -0.1,0.4 -0.2,0.4 -0.3,0.7 -0.3,0.5 -0.1,0.3 0,0.3 0,0.3 0.1,0.3 0.2,0.4 0.3,0.7 0.6,1.3 0.5,0.9 0.5,0.9 0.1,0.5 0.1,0.7 0.2,0.9 0.1,1.1 0,0.5 0,0.5 0,0.8 -0.1,1.2 0,0.5 0,0.5 0,0.4 0,0.7 0,0.4 0.1,0.3 0.1,0.3 0.2,0.2 0.2,0.2 0.2,0.2 0.2,0.1 0.3,0 0.3,0 0.3,0.1 0.2,0 0.3,0.1 0.1,0.1 0.2,0.1 0.2,0.3 0.3,0.4 0.3,0.3 0.3,0.3 0.3,0.2 0.3,0.2 0.5,0.2 0.7,0.4 0.5,0.2 0.5,0.3 0.4,0.3 0.3,0.2 0.3,0.3 0.3,0.3 0.3,0.3 0.3,0.3 0.2,0.2 0.2,0.2 0.4,0.3 0.5,0.3 0.3,0.3 0.2,0.3 0.2,0.2 0.1,0.2 0.1,0.1 0.2,0.1 0.2,0.1 0.2,0 0.3,0.2 0.2,0.2 0.2,0.2 0.3,0.2 0.3,0 0.2,0 0.2,0.1 0.1,0.2 0.1,0.2 0.1,0.2 0.1,0.3 0,0.3 -0.1,0.3 -0.1,0.3 -0.1,0.2 -0.1,0.3 0,0.3 0,0.3 0,0.2 0.1,0.2 0.3,0.3 0.3,0.2 0.3,0.3 0.3,0.2 0.2,0.1 0.3,0.1 0.1,0 0.3,0 0.2,0 0.1,0 0.2,0.1 0.1,0 0.2,0 0.1,-0.1 0.1,-0.2 0.1,-0.1 0.1,0 0.1,0 0.2,0 0.2,0 0.2,0 0.2,0 0.2,0 0.3,-0.1 0.3,0 0.2,0 0.3,0.1 0.3,0 0.2,0 0.2,0.1 0.2,0.2 0.2,0.2 0.2,0.3 0.1,0.3 0.1,0.2 0.2,0.3 0.2,0.3 0.3,0.4 0.2,0.5 0.2,0.5 0.1,0.4 0.1,0.6 0,0.2 0,0.3 -0.1,0.2 0,0.1 0,0.2 0.1,0.2 0.1,0.2 0,0.1 0,0.2 0,0.3 -0.1,0.3 0,0.3 0,0.3 0,0.4 0,0.3 0,0.3 0,0.2 0.1,0.2 0.1,0.2 0.2,0.2 0.2,0.1 0.1,0 0.3,0.1 0.2,0.1 0.3,0.1 0.2,0.1 0.3,0.1 0.3,0.1 0.1,0.1 0.1,0.2 0.2,0.2 0.2,0.3 0.2,0.4 0.2,0.4 0.2,0.5 0.1,0.2 0.1,0.5 0.1,0.4 0.1,0.5 0.1,0.3 0.1,0.5 0.1,0.3 0.1,0.3 0.1,0.3 0,0.4 0.1,0.4 0.1,0.4 0.2,0.4 0.2,0.3 0.2,0.2 0.3,0.2 0.3,0.1 0.3,0.1 0.2,0 0.2,-0.1 0.2,-0.1 0.3,0 0.2,0 0.4,0 0.4,0 0.3,-0.1 0.4,-0.1 0.5,-0.2 0.3,-0.1 0.3,0 0.2,0.1 0.2,0.1 0.3,0.1 0.2,0.1 0.2,0.2 0.2,0.3 0.1,0.2 0.2,0.3 0.2,0.3 0.3,0.3 0.2,0.2 0.2,0.3 0.2,0.3 0.2,0.3 0.2,0.2 0.1,0.2 0.1,0.2 0.1,0.3 0.1,0.3 0.1,0.4 0.2,0.3 0.3,0.3 0.1,0.3 0.1,0.5 0.1,0.4 0.2,0.4 0.2,0.3 0.2,0.3 0.2,0.3 0.2,0.1 0.2,0 0.2,-0.1 0.1,-0.1 0,-0.1 0.1,-0.2 0.2,-0.2 0.2,-0.2 0.3,-0.2 0.1,-0.2 0.2,-0.3 0.3,-0.2 0.2,-0.2 0.2,-0.1 0.1,-0.2 0,-0.2 0,-0.2 -0.1,-0.3 -0.1,-0.3 -0.1,-0.2 0,-0.2 0,-0.4 0.1,-0.3 0.1,-0.2 0.2,-0.2 0.2,-0.2 0.2,-0.1 0.2,-0.1 0.3,-0.1 0.1,-0.2 0.2,-0.2 0.4,-0.3 0.4,-0.2 0.5,-0.1 0.7,-0.3 0.8,-0.3 0.5,-0.2 0.5,-0.2 0.6,-0.2 0.5,-0.2 0.5,-0.1 0.5,0 0.4,0 0.3,0.1 0.6,0.2 0.4,0.1 0.3,0.2 0.3,0.1 0.3,0.2 0.4,0.1 0.3,0.2 0.3,0.1 0.2,0.1 0.2,0.2 0.2,0.2 0.2,0.1 0.2,0.1 0.2,0.2 0.2,0.2 0.1,0.2 0,0.2 0,0.1 0,0.2 -0.1,0.1 -0.1,0.2 0,0.2 0,0.2 0,0.2 0,0.3 0,0.2 -0.1,0.2 -0.1,0.1 -0.1,0.1 -0.3,0.1 -0.5,0.2 -0.3,0.2 -0.3,0.2 -0.1,0.2 -0.1,0.3 -0.1,0.3 0,0.3 0,0.3 0,0.3 0.1,0.2 0.1,0.2 0.2,0.2 0.1,0.2 0.1,0.1 0,0.2 0.1,0.1 0.1,0.1 0.1,0.3 0.2,0.2 0.2,0.3 0.2,0.3 0.2,0.3 0.2,0.3 0.1,0.2 0,0.2 0.1,0.2 0.1,0.3 0.1,0.4 0.1,0.5 0.1,0.5 0.1,0.6 0.1,0.3 0,0.3 0.1,0.3 0,0.3 0,0.4 0.1,0.3 0,0.4 0,0.7 0,0.4 0,0.3 0.1,0.2 0.2,0.2 0.2,0.2 0.2,0.2 0.5,0.3 0.1,0 0.4,-0.1 0.3,-0.1 0.3,-0.1 0.3,0 0.2,0.1 0.2,0.2 0.1,0.2 0.1,0.2 0.2,0.1 0.2,0 0.1,0 0.1,-0.1 0.2,0 0.1,0 0.2,0.1 0.3,0.2 0.3,0.2 0.2,0.2 0.2,0.3 0.2,0.2 0.2,0.3 0.1,0.3 0.2,0.4 0.2,0.3 0.2,0.3 0.2,0.2 0.2,0.2 0.1,0.2 0,0.2 -0.2,0.3 -0.1,0.3 -0.1,0.4 0,0.5 0,0.5 -0.1,0.6 0,0.7 0,0.4 -0.1,0.5 -0.4,0.8 -0.4,0.5 -0.3,0.7 -0.1,0.5 -0.1,1.4 -0.1,0.5 -0.3,1 -0.3,3 -0.1,1.4 0.2,0.7 0.2,0.6 1.3,2.6 0.5,1.2 0.2,0.7 0.5,1.2 0.4,0.9 0,0.1 0.2,0.6 0.4,0.4 1.4,0.8 0.7,0.5 1.6,1.1 2,1.4 0.9,0.9 1.3,1.5 1,1.4 1.4,1.6 1,1.5 1.1,1.7 0,0.2 -0.5,0.8 -0.3,0.5 0.1,0.5 0.2,0.5 0.1,0.5 -0.2,0.2 -0.5,0.1 -0.6,0 -0.7,0.1 -0.4,0.7 -0.3,0.7 -0.1,0.8 -0.1,1 -0.1,0.3 -0.6,0.4 -0.6,0.5 -0.5,0.5 -1,2 -0.7,1.1 -0.7,0.8 -0.8,0.6 -0.9,0.6 -0.5,0.6 -0.5,0.8 -0.3,0.7 -0.2,1.1 -0.2,0.7 0,0.2 0,0.6 -0.3,0.3 0,0 0.1,0.2 0.1,0.3 0.1,0.2 0.1,0.3 0.2,0.3 0.2,0.2 0.2,0.2 0.3,0.2 0.2,0 0.5,0.1 0.2,0 0.4,0.2 0.1,0.2 0.2,0.2 0.1,0.3 0,0.1 -0.1,0.2 -0.1,0.2 -0.1,0.2 -0.2,0.2 -0.1,0.1 -0.1,0 -0.2,0 -0.3,0 -0.3,0 -0.2,0 -0.3,0.1 -0.2,0.2 -0.1,0.2 0,0.2 0,0.1 0,0.3 0.2,0.5 0.1,0.4 0.1,0.2 0.1,0.1 0.1,0 0.1,0 0.2,0 0.2,0 0.2,0 0.1,0.1 0.1,0.2 0,0.2 0.1,0.5 0,0.4 0,0.3 0,0.4 0,0.2 0.1,0.1 0.1,0.1 0.1,0.1 0.1,0.1 0.2,0.2 0.1,0.1 0.1,0.3 0.2,0.2 0.1,0.2 0,0.2 0,0.1 0.1,0.1 0.1,0.1 0.2,0.1 0.1,0.1 0.1,0.1 0.1,0.2 0.2,0.2 0.2,0.1 0.2,0 0.1,0 0.1,-0.2 0,-0.2 0.1,-0.3 0.3,-0.1 0.2,-0.1 0.4,-0.1 0.2,0 0.2,0.1 0.3,0.1 0.2,0.2 0.2,0.3 0.2,0.3 0,0.1 0.1,0.1 0.3,0.3 0.2,0.1 0.1,0.1 0.3,1 -0.3,0.5 -0.5,0.5 -0.8,0.6 -0.5,0.5 -0.2,0.6 -0.1,0.6 0,0.5 0.1,0.2 0.2,0.2 0.5,0.3 0.4,0.3 0.1,0.1 0,0.4 0,0.3 -0.2,0.8 0.1,0.7 0.5,1.1 0.2,0.4 0,0.2 0,0.1 -0.1,1.1 -0.1,0.7 -0.1,0.8 0,0.8 0.1,0.6 0.2,0.7 0.3,0.4 0.5,0.2 0.4,0.3 0.3,0.5 0,0.3 -0.2,0.5 -0.5,0.5 -0.6,0.4 -0.7,0.5 -0.1,0.4 -0.1,0.3 -0.3,0.8 -0.1,0.9 0.1,0.9 0.2,0.9 0.3,0.7 0.8,1.2 0.6,1 0.4,1 0.4,1.1 0.1,1.1 0.1,1.1 0,0.9 0,0.6 -0.1,0.1 -0.1,0.1 0,0.1 0,0.2 0.2,0.8 0,0.3 0,0.6 -0.2,0.6 -0.1,0.2 -0.1,0.2 -0.4,0.3 -0.4,0.2 -0.5,0.3 -0.6,0.4 -0.2,0.2 -0.2,0.3 -0.2,0.2 -1.2,0.7 -0.5,0.5 0,0.1 0.1,0.1 0.3,0.3 0.5,0.5 0.3,0.6 0.3,1 0.5,0.4 0.5,0.5 0.3,0.5 0,1 -0.1,0.3 0,0 0,0 -0.1,0 -0.6,-0.1 -0.1,0 -0.1,0 -0.1,0.1 -0.3,0.2 -0.3,0.3 -0.6,2.9 0,0.8 0,0.1 -0.1,0.1 -0.1,0.1 -0.1,0 -1.3,0.2 -0.6,0.2 -0.5,0.4 -0.5,0.6 -0.6,1 -0.3,1.2 0,0.7 -0.4,0.5 -0.4,0.2 -0.5,0 -0.7,0.1 -0.6,0.8 -0.2,0.7 -0.1,0.1 -0.2,0.1 -0.3,0 -0.9,0 -0.3,0.2 -0.6,0.1 -0.5,0.1 -0.2,0 -0.3,0 -0.4,0 -0.1,0.1 -0.1,0.1 -0.1,0.1 -0.1,0.2 -0.1,0.4 -0.1,0.4 -0.1,0.3 -0.2,0.3 -0.2,0.2 -0.3,0.2 -0.2,0.1 -0.2,0.1 -0.1,0.1 -0.1,0.1 -0.1,0.1 -0.1,0.1 0,0.1 0,0.2 0,0.2 0.1,0.2 0.2,0.3 0.4,0.6 0.1,0.2 0.2,0.2 0.1,0.1 0.1,0 0.1,0 0.1,0 0.1,-0.1 0.1,-0.1 0,-0.1 0.1,-0.2 0.1,-0.1 0.1,-0.1 0.2,0 0.2,0 0.2,0.1 0.2,0.1 0.2,0 0.1,0 0.1,0 0,-0.1 0.1,-0.1 0.1,-0.1 0.2,-0.1 0.1,0 0.1,0 0.1,0.1 0,0.1 0,0.1 -0.1,0.1 -0.1,0.1 -0.2,0.2 -0.1,0.1 0,0.1 -0.1,0.1 0,0.2 0,0.2 0,0.2 0,0.3 0,0.2 0,0.1 0,0.1 0,0.1 -0.1,0.1 -0.1,0 -0.2,0 -0.1,0 -0.1,0 -0.1,0.1 -0.1,0.1 -0.1,0.1 0,0.2 0,0.1 0.1,0.1 0.1,0 0.2,0 0.2,0 0.2,0.1 0.3,0.3 0.1,0.2 0,0.2 0,0.2 -0.1,0.1 -0.1,0.1 -0.1,0.1 -0.2,0.1 -0.2,0.1 -0.1,0.1 -0.1,0.1 -0.1,0.1 0,0.1 0,0.1 0,0.1 0.1,0.1 0.1,0.1 0.1,0.2 0,0.1 0,0.2 0,0.2 -0.1,0.2 -0.2,0.2 -0.2,0.4 -0.1,0.2 -0.1,0.2 0,0.2 0,0.2 0,0.2 -0.1,0.5 -0.2,0.5 -0.1,0.2 -0.1,0.1 -0.1,0 -0.2,0.1 -0.2,0.1 -0.1,0.1 -0.2,0 -0.1,0 -0.1,0.1 -0.1,0.1 -0.1,0.1 -0.1,0.1 -0.1,0.1 -0.1,0.1 -0.1,0.1 -0.1,0.1 -0.1,0.2 0,0.1 -0.1,0.2 0,0.1 -0.1,0.1 -0.1,0.1 -0.1,0.1 -0.1,0 -0.1,0.1 -0.1,0.1 -0.1,0.1 0,0.1 0,0.1 0.1,0.1 0.2,0.1 0.2,0.1 0.1,0.1 0.1,0.2 0.1,0.1 0.1,0.2 0.1,0.2 0.1,0.2 0.1,0.1 0.2,0 0.1,0 0.2,0 0.2,0 0.2,0 0.1,0 0.1,0.1 0.1,0.1 0,0.2 0,0.1 -0.1,0.1 -0.1,0.1 -0.2,0 0,0 -0.2,0 -0.2,0 -0.1,0 -0.1,0.1 -0.1,0.2 0,0.1 0,0.1 0,0.1 0,0.2 0,0.3 0,0.2 0,0.1 0,0.1 -0.1,0.1 -0.1,0.1 -0.2,0.1 -0.2,0.1 -0.2,0.1 -0.1,0.1 -0.1,0.1 0,0.1 0,0.1 0.1,0.1 0.1,0.1 0.1,0.1 0.2,0.1 0.2,0.1 0.1,0.1 0.1,0.1 0.1,0.2 0.1,0.2 0.1,0.2 0.1,0.3 0,0.4 0,0.3 0.1,0.2 0,0.2 0,0.2 0,0.2 0.1,0.3 0,0.3 -0.1,0.4 -0.1,0.1 -0.1,0.1 -0.1,0 -0.1,0 -0.2,0 -0.2,0 -0.2,0.1 -0.2,0.1 -0.2,0.1 -0.2,0.1 -0.3,0.1 -0.2,0.1 -0.2,0 -0.2,0 -0.1,0 -0.2,0 -0.2,0 -0.2,0 -0.1,0.1 -0.1,0.1 -0.2,0.1 -0.2,0.1 -0.1,0.1 -0.3,0 -0.2,0.1 -0.2,0 -0.2,0 -0.2,0 -0.2,0 -0.1,0 -0.2,0 -0.3,0.1 -0.2,0 -0.1,0.1 -0.1,0.1 0,0.1 0,0.1 0,0.1 0.1,0.1 0,0.1 0.1,0.2 0,0.1 0.1,0.2 0.1,0.3 0,0.2 0,0.1 -0.1,0.1 -0.1,0.2 -0.1,0.1 -0.1,0.2 -0.1,0.5 0,0.4 0,0.4 0,0.5 0.1,0.2 0.1,0.4 0.1,0.2 0.2,0.2 0.3,0.2 0.2,0.2 0.2,0.3 0.3,0.5 0.1,0.3 0,0.3 0,0.4 0,0.3 0,0.3 0,0.2 0.1,0.2 0.1,0.2 0.1,0.3 0,0.2 0,0.3 0,0.2 0,0.2 -0.1,0.2 -0.2,0.3 -0.2,0.2 -0.2,0.2 -0.1,0.3 -0.1,0.3 -0.1,0.3 0,0.4 0,0.3 0.1,0.3 0.1,0.3 0,0.2 0,0.2 -0.1,0.2 -0.2,0.1 -0.2,0.1 -0.1,0 -0.1,0 -0.2,-0.1 -0.2,-0.1 -0.2,-0.2 -0.2,-0.2 -0.1,-0.1 -2.9,-8 -0.2,0 -0.2,0 -0.3,0 -0.2,0.1 -0.1,0.1 -0.1,0.2 -0.1,0.2 0,0.2 -0.1,0.2 -0.2,0.2 -0.2,0.2 -0.3,0.2 -0.3,0.2 -0.4,0.3 -0.4,0.4 -0.4,0.4 -0.2,0.1 -0.2,0.1 -0.2,0.1 -0.3,0.1 -0.3,0 -0.3,0 0,0 -0.3,0 -0.2,0.1 -0.2,0.2 -0.2,0.2 -0.2,0.3 -0.2,0.3 -0.2,0.2 -0.4,0.2 -0.5,0.1 -0.4,0.2 -0.3,0.1 -0.3,0.1 -0.2,0.2 -0.2,0.2 -0.2,0.2 -0.1,0.2 -0.2,0.2 -0.2,0.1 -0.2,0.1 -0.2,0.1 -0.2,0.1 -0.2,0.1 -0.2,0.2 -0.2,0.3 -0.1,0.1 0,0.1 0,0.1 0,0.1 0.1,0.1 0.3,0.1 0.2,0.1 0.2,0.1 0.2,0.2 0.1,0.2 0.2,0.4 0.1,0.3 0,0.2 -0.1,0.3 -0.2,0.3 -0.1,0.2 -0.1,0.1 -0.1,0.1 -0.2,0 -0.2,0 -0.2,0 -0.1,0 -0.2,-0.1 -0.2,-0.1 -0.2,0 -0.1,0 -0.1,0 -0.1,0.1 -0.4,0.3 -0.6,0.4 -0.3,0.2 -0.1,0.1 -0.1,0.2 -0.1,0.1 -0.2,0.8 -0.6,0.4 -0.1,0 -0.8,0 -0.7,-0.1 -0.6,-0.3 -0.5,-0.3 -0.4,-0.3 -0.8,-0.7 -0.6,-0.4 -0.1,-0.1 -0.2,-0.1 -0.2,-0.1 -0.2,-0.1 -0.2,0 -0.1,0 -0.2,0 -0.2,0.1 -0.1,0 -0.1,0 -0.2,0.1 -0.1,0.1 0,0.1 -0.1,0.1 0,0.1 0,0.1 0,0.3 0,0.1 -0.1,0.1 -0.1,0.1 -0.1,0 -0.2,0 -0.1,0 -0.1,-0.1 -0.1,-0.1 -0.1,-0.1 -0.1,-0.2 -0.3,-0.2 -0.1,0 -0.1,0 -0.1,0 -0.1,0.1 -0.2,0.1 -0.5,0.2 -0.4,0.1 -0.3,0.1 -0.2,0.1 -0.1,0.1 -0.2,0 -0.2,0 -0.3,0 -0.2,0.1 -0.2,0 -0.1,0.1 -0.1,0.1 -0.2,0.1 -0.1,0 -0.2,0.1 -0.2,0 -0.2,0 -0.2,0.1 -0.1,0.1 -0.1,0.1 -0.1,0.1 -0.1,0.2 0,0.2 -0.1,0.2 -0.1,0.1 -0.1,0.1 -0.2,0 -0.2,0 -0.1,0 -0.1,-0.1 -0.1,0 -0.2,-0.1 -0.2,-0.2 0,-0.1 0,-0.1 0,-0.2 0.2,-0.2 0.1,-0.3 0,-0.2 0,-0.2 -0.1,-0.1 -0.1,-0.1 -0.1,-0.1 -0.1,0 -0.1,0 -0.1,0.1 -0.1,0.1 0,0.1 -0.1,0.1 -0.1,0.1 -0.1,0.1 -0.1,0 -0.1,0 -0.1,-0.1 -0.1,0 -0.1,-0.1 -0.1,0 -0.1,0 -0.1,0 -0.1,0.1 -0.1,0.1 0,0.1 0,0.1 0,0.2 0.1,0.1 0.1,0.1 0.1,0.3 0,1 0,0.3 0,0.2 -0.1,0.1 -0.1,0.1 -0.1,0.2 -0.1,0.2 -0.2,0.3 -0.1,0.2 -0.1,0.1 -0.1,0.1 -0.1,0.1 -0.1,0 -0.1,0 -0.1,0 -0.1,0 -0.1,-0.1 -0.1,-0.1 -0.1,0 -0.2,0 -0.1,-0.1 -0.1,-0.1 -0.2,-0.1 -0.1,0 -0.1,0 -0.1,0.1 0,0.1 0,0.1 0,0.1 0,0.2 0,0.2 0,0.2 0,0.2 -0.1,0.1 -0.1,0.1 -0.1,0.1 -0.2,0.1 -0.2,0.1 -0.1,0 -0.2,0 -0.1,0 -0.1,-0.1 -0.1,-0.1 0,0 -0.2,-0.1 -0.1,-0.1 -0.2,-0.1 -0.4,-0.1 -0.5,-0.2 -0.2,-0.1 -0.3,0 -0.3,0 -0.2,0 -0.1,0.1 -0.2,0.1 -0.2,0.1 -0.2,0.1 -0.1,0.1 -0.1,0.1 -0.1,0.3 -0.2,0.3 -0.1,0.2 -0.1,0.2 0,0.2 -0.1,0.3 0,0.1 -0.1,0.1 -0.1,0.1 -0.5,0 -0.1,0 0,0 -0.1,0 -0.1,0 -0.1,-0.1 -0.2,-0.1 -0.1,-0.1 -0.2,-0.1 -0.1,-0.1 -0.2,0 -0.1,0 -0.1,0 -0.1,0.1 -0.1,0.1 -0.2,0.2 -0.1,0.1 -0.1,0 -0.1,0 -0.1,0 -0.1,0 -0.1,0 -0.1,0 -0.2,0 -0.1,0 -0.2,0 -0.3,0 -0.4,0.1 -0.5,0.2 -0.3,0.1 -0.3,0.1 -0.2,0.1 -0.2,0 -0.2,0 -0.2,0 -0.2,0 -0.2,0 -0.2,0.1 -0.3,0.1 -0.3,0.2 -0.1,0.1 -0.1,0.2 -0.1,0.2 -0.1,0.2 0,0.2 0,0.2 0,0.3 0,0.2 0,0.3 0,0.3 0,0.1 -0.2,0.3 -0.1,0.2 -0.1,0.2 -0.1,0.1 -0.1,0.2 0,0.1 0,0.2 0,0.3 0.1,0.3 0,0.4 0,0.3 -0.1,0.4 -0.1,0.3 -0.1,0.3 -0.1,0.3 -0.1,0.2 -0.2,0.3 -0.1,0.2 0,0.2 0,0.1 0,0.1 0,0.1 0.1,0.1 0,0.1 0,0.1 0,0.1 -0.1,0.1 0,0.1 0,0.2 0,0.1 0,0.1 0,0.2 0,0.2 0,0.3 0,0.3 0,0.2 0,0.2 0,0.2 0,0.1 0.1,0.2 0.1,0.1 0.1,0.2 0.1,0.2 0,0.3 0,0.3 0,0.1 -0.1,0.3 -0.1,0.2 -0.1,0.1 -0.1,0.1 -0.2,0.2 -0.2,0.2 -0.2,0.2 -0.1,0.1 -0.1,0.1 -0.1,0.2 0.4,-0.7 -0.1,0.2 -0.1,0.2 -0.1,0.1 -0.2,0.2 -0.2,0.2 -0.2,0.2 -0.1,0.1 -0.2,0.2 -0.1,0.2 -0.2,0.4 -0.2,0.3 -0.3,0.4 -0.3,0.4 -0.1,0.2 -0.1,0.2 -0.1,0.1 -0.1,0.2 -0.1,0.2 -0.1,0.3 -0.1,0.4 -0.1,0.3 -0.1,0.3 -0.1,0.2 -0.1,0.2 -0.1,0.1 -0.1,0.1 -0.1,0.1 -0.2,0.1 -0.2,0.1 -0.2,0.1 -0.2,0.1 -0.1,0.2 -0.1,0.3 -0.2,0.4 -0.1,0.4 0,0.2 -0.1,0.3 0,0.3 0,0.3 0,0.3 0,0.3 0,0.2 0,0.1 -0.1,0.1 -0.1,0.2 -0.1,0.2 0,0.2 0,0.2 0,0.2 0,0.2 0,0.3 0,0.4 -0.1,0.5 -0.1,0.5 0,0.2 -0.1,0.2 -0.1,0.2 -0.1,0.1 0,0.1 -0.1,0.2 -0.1,0.3 0,0 0,0.1 0,0.1 -0.1,0 0,0.1 0,0.1 0,0.1 0,0.1 0,0.1 0,0.1 0,0.1 0,0.1 -0.1,0.1 0,0.2 0,0.2 0,0.2 0,0.2 0,0.2 0,0.2 0.1,0.2 0.1,0.3 0,0.3 0,0.4 0,0.4 0,0.3 0,0.3 0,0.3 0,0.4 0,0.2 0,0.2 -0.1,0.2 -0.1,0.1 -0.1,0.1 0,0 -0.1,0 -0.1,0 -0.1,0.1 -0.1,0.1 -0.1,0.1 -0.1,0.1 0,0.1 0,0.1 0,0.1 0.1,0.1 0.1,0.1 0.2,0.2 0.1,0.1 0.1,0.1 0.1,0 0.1,0 0.1,0 0.1,0 0.1,0 0.2,0 0.1,0 0.2,0 0.2,0 0.4,0 0.2,0 0.2,0 0.1,0 0.1,0 0.1,0.1 0.1,0.1 0.1,0.1 0,0.1 0,0.1 0,0.1 0,0.1 -0.1,0.2 0,0.1 -0.1,0.2 0,0.1 -0.1,0.1 -0.1,0.1 -0.1,0.2 -0.2,0.4 -0.2,0.3 -0.1,0.2 -0.1,0.2 -0.1,0.3 0,0.2 0,0.2 0,0.2 0,0.2 0,0.3 0,0.2 0,0.2 0.1,0.2 0.2,0.2 0.1,0.1 0.2,0.2 0.1,0.2 0.1,0.2 0.1,0.2 0.2,0.1 0.2,0.1 0.2,0.2 0.2,0.2 0.1,0.2 0.1,0.2 0,0.1 0.1,0.2 0.1,0.2 0.2,0.3 0.1,0.2 0.1,0.1 0.1,0.2 0.1,0.2 0.1,0.1 0,0.2 -0.1,0.2 -0.1,0.2 -0.1,0.2 -0.1,0.2 -0.1,0.3 0,0.2 0,0.2 0.1,0.2 0.1,0.2 0.1,0.1 0.1,0.1 0.1,0.1 0.1,0.1 0.1,0.1 0.1,0.1 0.1,0.2 0.3,0.4 0.4,0.5 0.4,0.5 0.1,0.1 0.1,0.2 0.2,0.2 0.2,0.2 0.3,0.3 0.2,0.2 0.2,0.2 0.1,0.1 0.1,0 0.2,0 0.3,0.2 0.3,0.2 0.2,0.2 0.2,0.1 0.1,0.1 0.1,0.1 0.1,0.1 0.2,0.1 0.2,0.2 0.2,0.1 0.2,0.1 0.3,0.2 0.2,0.2 0.2,0.1 0.2,0.2 0.3,0.2 0.3,0.2 0.2,0.2 0.2,0.2 0.3,0.3 0.2,0.2 0.1,0.1 0.1,0.1 0.2,0.2 0.2,0.2 0.4,0.3 0.6,0.6 0.5,0.4 0.7,0.5 0.2,0.2 0.4,0.4 0.4,0.3 0.3,0.4 0.2,0.3 0.3,0.5 0.2,0.5 0.3,0.5 0.3,0.5 0.3,0.4 0.3,0.3 0.3,0.2 0.1,0.1 0.1,0.1 0.1,0.2 0.1,0.1 0,0.1 0.1,0.1 0,0.1 0,0.2 0,0.1 0,0.2 0,0.2 0,0.2 0,0.2 0,0.1 0,0.2 0,0.2 0,0.2 0,0.1 0.1,0.2 0.1,0.2 0.1,0.2 0.2,0.1 0.3,0.2 0.4,0.2 0.3,0.2 0.4,0.2 0.1,0.1 0.3,0.1 0.3,0.2 0.2,0.1 0.3,0.3 0.2,0.1 0.1,0.1 0.1,0.1 0.1,0.2 0.1,0.2 0.3,0.4 0.2,0.2 0.1,0.2 0.1,0.1 0.1,0.1 0.1,0 0,0.1 0.1,0 0.1,0.1 0.2,0.1 0.2,0.1 0.2,0 0.1,0 0.2,0.1 0.4,0.2 0.3,0.1 0.3,0 0.3,0.1 0.5,0.2 0.4,0.1 0.3,0.2 0.2,0.1 0.2,0.2 0.3,0.3 0.3,0.3 0.2,0.3 0.1,0.1 0.1,0.2 0.1,0.2 0.1,0.2 0.1,0.2 0.2,0.2 0.2,0.2 0.1,0.2 0.1,0.1 0.1,0.1 0.1,0.1 0.1,0.1 0,0.1 0.1,0.1 0,0.1 0.1,0.1 0.1,0.1 0.1,0.1 0.1,0.1 0,0.1 0.1,0.1 0,0.1 0.1,0.1 0.1,0.2 0.2,0.2 0.3,0.2 0.3,0.2 0.3,0.1 0.3,0.2 0.2,0.1 0.3,0.2 0.2,0.2 0.3,0.2 0.3,0.2 0.3,0.3 0.2,0.2 0.1,0.1 0.1,0.1 0,0.1 0,0.1 0.1,0.1 0,0 0.1,0 0.1,0.1 0.1,0 0,0 0.1,0.1 0.1,0.1 0.1,0.1 0.1,0.1 0.1,0.1 0.2,0.1 0.1,0 0.1,0 0.1,-0.1 0.2,-0.2 0.2,-0.1 0.3,-0.2 0.3,-0.2 0.2,0 0.2,0 0.1,0 0.2,0 0.2,0.1 0.2,0.1 0.2,0.1 0.3,0 0.4,0.1 0.2,0.1 0.2,0.1 0.1,0.1 0.1,0.1 0.1,0.1 0.1,0.2 0,0.2 0,0.1 0,0.1 -0.1,0.1 -0.1,0.2 -0.1,0.1 -0.1,0.2 -0.1,0.1 -0.1,0.2 -0.1,0.2 0,0.2 0,0.2 0,0.3 0,0.3 0,0.3 0.1,0.2 0.1,0.2 0.1,0.2 0.1,0.1 0.1,0.2 0.2,0.2 0.2,0.2 0.1,0.1 0.1,0.1 0.1,0.1 0.1,0.2 0.1,0.3 0.1,0.2 0.1,0.2 0.1,0.2 0,0.1 0,0 0,0.1 0,0.1 0,0.1 0,0.1 0.1,0.1 0.1,0.1 0.1,0.1 0.1,0.1 0.1,0.2 0.1,0.1 0.1,0.1 0.1,0.1 0.1,0.2 0.1,0.2 0.1,0.1 0.1,0.2 0.1,0.3 0.1,0.7 0.1,0.6 0.1,0.5 0.1,0.5 0,0.6 0,0.2 0,0.3 0,0.1 0.1,0.2 0.1,0.1 0.1,0.1 0.1,0.1 0.1,0.2 0.1,0.1 0.1,0.2 0,0.1 0,0.2 0,0.2 -0.1,0.2 0,0.1 -0.1,0.2 -0.1,0.3 -0.1,0.3 0,0.2 0,0.2 0,0.2 0,0.1 0.1,0.3 0,0.3 0,0.4 0,0.5 -0.1,0.5 -0.1,0.5 -0.1,0.4 0,0.2 0,0.2 -0.1,0.3 -0.2,0.4 -0.1,0.3 -0.1,0.2 -0.1,0.2 -0.1,0.3 0,0.1 0,0.1 0,0.1 0.1,0.1 0,0.1 0,0.1 0.1,0.1 0.1,0.1 0.2,0.2 0.1,0.1 0.2,0.2 0.1,0.1 0,0.2 0,0.2 0,0.2 0,0.1 -0.1,0.1 -0.2,0.1 -0.2,0.2 -0.2,0.1 -0.1,0.1 -0.1,0 -0.5,0 -0.1,0 -0.1,0 -0.1,0 -0.1,0 -0.1,0.1 -0.1,0.1 -0.1,0 -0.1,0 -0.1,0 -0.2,0.1 -0.2,0.2 -0.1,0.1 -0.1,0.1 -0.2,0.1 -0.1,0.1 -0.2,0.1 -0.2,0.1 -0.2,0 -0.2,0 -0.1,0 -0.2,0 -0.2,0 -0.2,0 -0.2,0 -0.2,0 -0.1,0 -0.1,0 -0.1,0 -0.1,0 -0.1,0.1 0,0.1 -0.1,0.1 0,0.1 0,0.1 0,0.1 0.1,0.1 0.1,0.1 0.1,0.1 0.1,0.1 0.1,0.1 0.1,0.2 0,0.1 0,0.1 0,0.1 0,0.1 -0.1,0.1 -0.1,0.1 -0.2,0.2 0.1,-2.9 -0.1,0.1 -0.2,0.1 -0.1,0.1 -0.1,0.1 -0.1,0.1 -0.1,0.2 -0.1,0.2 -0.1,0.2 -0.2,0.4 -0.2,0.3 -0.1,0.2 -0.2,0.3 -0.2,0.5 0,0.2 -0.2,0.3 -0.2,0.2 -0.2,0.2 -0.2,0.1 -0.2,0.1 -0.2,0.1 -0.2,0.1 -0.3,0.1 -0.3,0.3 -0.3,0.3 -0.2,0.3 -0.1,0.4 -0.2,0.3 -0.1,0.3 -0.2,0.3 -0.3,0.4 -0.2,0.2 -0.2,0.2 -0.1,0.2 -0.2,0.4 -0.2,0.3 0.1,-0.1 -0.3,0.3 -0.2,0.2 -0.2,0.2 -0.3,0.2 -0.2,0.2 -0.3,0.2 -0.4,0.3 -0.5,0.3 -0.4,0.2 -0.4,0.2 -0.3,0.1 -0.3,0.1 -0.2,0.1 -0.3,0.2 -0.2,0.2 -0.3,0.2 -0.1,0.2 -0.3,0.2 -0.4,0.3 -0.6,0.4 -0.3,0.2 -0.2,0.2 -0.1,0.2 -0.2,0.3 -0.1,0.3 -0.2,0.1 -0.2,0.1 -0.3,0.1 -0.2,0.1 -0.2,0 -0.2,0 -0.2,0 -0.2,-0.1 -0.1,-0.1 -0.2,-0.1 -0.2,-0.2 -0.2,-0.1 -0.2,-0.1 -0.2,0 -0.2,0.1 -0.1,0.1 -0.2,0.2 -0.1,0.1 0,0.3 0,0.3 0,0.3 -0.1,0.2 -0.1,0.1 -0.2,0.2 -0.2,0.1 -0.2,0.1 -0.2,0.1 -0.1,0.1 -0.2,0.1 -0.2,0.2 -0.1,0.2 -0.2,0.1 -0.3,0.2 -0.3,0.2 -0.2,0.2 -0.2,0.2 -0.1,0.3 -0.1,0.2 0,0.2 0,0.2 0.1,0.3 0,0.3 0,0.3 0,0.4 -0.1,0.3 -0.1,0.3 -0.1,0.5 0,0.3 0,0.3 0,0.3 0,0.3 0,0.2 -0.1,0.3 -0.2,0.4 -0.3,0.5 -0.2,0.5 -0.2,0.4 -0.2,0.2 -0.2,0.3 -0.2,0.1 -0.2,0.1 -0.4,0.1 -0.4,0.1 -0.8,0.2 -0.7,0.2 -1,0.4 -0.3,0.2 -0.4,0.2 -0.5,0.1 -1.3,0.3 -1.2,0.2 -0.9,0.2 -0.5,0.2 -0.4,0.2 -0.3,0.2 -1.8,-0.5 -0.6,-0.2 -0.9,-0.3 -0.6,-0.2 -0.8,-0.2 -0.3,0 -0.4,0 -0.4,0 -0.4,0 -0.5,0.1 -0.4,0 -0.3,0.1 -0.2,0.1 -0.2,0.1 -0.2,0.1 -0.2,0 -0.3,0 -0.2,-0.1 -0.3,0 -0.2,0.1 -0.2,0.2 -0.1,0.1 -0.2,0.2 -0.2,0.1 -0.2,0.1 -0.2,0 -0.2,0 -0.2,0 -0.2,0 -0.2,-0.1 -0.2,-0.1 -0.2,-0.2 -0.3,-0.3 -0.2,-0.2 -0.2,-0.2 0.8,-0.9 -0.4,-0.1 -0.5,-0.1 -1.5,-0.5 -1.3,-0.5 -0.2,0 -0.1,0 -0.2,0 -0.2,0.1 -0.3,0.1 -0.3,0.1 -0.6,0.2 -0.6,0.2 -0.7,0.2 -0.5,0.1 -0.5,0.2 -0.4,0.1 -0.2,0.1 -0.2,0.1 -0.1,0 -0.2,0 -0.3,-0.1 -0.2,-0.1 -0.2,-0.1 -0.3,-0.2 -0.2,-0.2 -0.2,-0.2 -0.3,-0.2 -0.3,-0.1 0,0 -0.4,0.1 -0.2,0.1 -0.2,0.1 -0.2,0.2 -0.4,0.3 -0.2,0.2 -0.3,0.2 -0.8,0.7 -0.6,0.6 -0.4,0.3 -0.2,0.2 -0.1,0.1 -0.1,0.1 -0.1,0.2 0,0.2 0,0.2 0,0.2 0,0.3 0,0.2 0,0.2 -0.1,0.4 -0.1,0.4 -0.2,0.4 -0.2,0.7 -0.1,0.2 -0.1,0.2 -0.1,0.1 -0.1,0.1 -0.1,0.1 -0.1,0.1 -0.1,0.1 0,0.1 0,0.1 0.1,0.2 0.1,0.3 0.1,0.2 0,0.2 0,0.2 0,0.2 -0.1,0.1 -0.1,0.1 -0.1,0.1 -0.1,0.1 -0.1,0.1 -0.1,0.1 -0.1,0.1 0,0.1 0,0.1 -0.2,-0.1 -0.3,-0.1 -0.3,-0.1 -0.2,-0.1 -0.3,-0.1 -0.2,0 -0.3,0 -0.2,0 -0.2,0 -0.2,0.1 -0.2,0.2 -0.2,0.1 -0.2,0.1 -0.2,0 -0.2,0 -0.1,0 -0.2,0 -0.1,0 -0.1,0 -0.1,0 -0.2,0 -0.2,0 -0.2,0 -0.2,0 -0.1,0 -0.1,0.1 -0.1,0.1 -0.1,0.2 -0.2,0.3 -0.1,0.3 -0.1,0.4 -0.1,0.3 0,0.2 0,0.3 0,0.4 0,0.5 0,0.5 0,0.3 0,0.2 -0.1,0.1 -0.1,0.2 -0.1,0.2 -0.1,0.2 0,0.2 0,0.2 0,0.2 0,0.2 0,0.4 0,0.5 0,0.3 0,0.2 -0.1,0.3 -0.1,0.3 -0.1,0.3 -0.1,0.2 -0.1,0.2 -0.1,0.3 -0.1,0.2 -0.1,0.2 -0.1,0.2 0,0.1 0,0.1 0,0.1 -0.1,0.2 -0.1,0.5 -0.2,0.5 -0.1,0.4 -0.1,0.3 -0.1,0.2 -0.1,0.1 0,0 -0.2,0 -0.2,0 -0.2,0 -0.2,0 -0.2,0.1 -0.2,0.1 -0.3,0.1 -0.2,0.1 -0.2,0.1 -0.2,0.2 -0.3,0.2 -0.5,0.6 -0.3,0.3 -0.2,0.1 -0.2,0.1 -0.1,0 -0.2,0 -0.2,0 -0.2,0 -0.1,-0.1 -0.1,0 -0.2,-0.1 -0.2,0 -0.3,0 -0.2,0.1 -0.2,0.1 -0.2,0.1 -0.1,0.2 -0.1,0.2 -0.1,0.4 -0.1,0.2 -0.1,0.1 -0.2,0.1 -0.2,0.1 -0.2,0.1 -0.5,0.1 -0.5,0.1 -0.5,0.1 -0.2,0.1 -0.2,0.1 -0.2,0.2 -0.2,0.3 -0.2,0.2 -0.2,0.2 -0.2,0.2 -0.4,0.2 -0.1,0.1 -0.3,0 -0.3,0 -0.3,0 -0.4,0 -0.2,0.1 -0.2,0.1 -0.2,0.1 -0.2,0.2 -0.2,0.3 -0.2,0.4 -0.4,0.7 -0.3,0.4 -0.4,0.4 -0.5,0.3 -0.4,0.3 -1.2,0.8 -0.9,0.5 -1,0.7 -0.8,0.7 -1,0.8 -1,0.9 -0.8,0.7 -1.9,1.4 -1.1,0.9 -0.5,0.7 -0.5,0.9 -0.4,0.8 -0.3,0.8 -0.4,1 0,0.5 0,0.5 0,0.4 0.1,0.5 0.2,0.4 0.3,0.5 0.2,0.3 0.4,0.4 0.2,0.2 0.3,0.5 0.2,0.5 0.2,0.5 0.2,0.6 0.3,0.6 0.5,0.5 0.4,0.3 0.7,0.6 0.6,0.8 0.5,0.7 0.5,0.6 0.4,0.4 0.2,0.4 -0.1,0.5 -0.2,0.6 -0.2,0.6 -0.2,0.5 -0.3,0.4 -0.5,0.4 -0.5,0.3 -0.4,0.1 -0.3,0.1 -0.4,0.2 -0.6,0.5 -0.6,0.8 -0.5,1 -0.4,0.9 -0.3,0.6 -0.2,0.6 -0.1,0.5 -0.4,1 -0.5,0.9 -0.7,1.2 -0.8,1.2 -0.5,0.8 -0.3,0.6 -0.3,0.9 -0.5,1.1 -0.5,1 -0.4,0.8 -0.6,0.7 -0.8,0.7 -1.1,0.8 -0.8,0.5 -1.2,0.5 -0.9,0.4 -1.1,0.4 -0.6,0.3 -0.9,0.2 -0.5,0.2 0.1,-0.5 -1.3,0.4 -0.8,0.4 -0.7,0.4 -0.7,0.6 -0.9,1 -0.4,0.6 -0.4,0.6 -0.3,0.6 -0.3,0.6 -0.2,0.5 -0.1,0.4 -0.1,0.4 0,0.3 0,0.4 0.1,0.5 0.1,0.4 0.4,1.2 0.2,0.6 0.2,0.8 0.1,0.5 0,0.4 0,0.4 0,0.3 -0.2,0.6 -0.1,0.3 -0.2,0.4 -0.2,0.4 -0.2,0.4 -0.3,0.4 -0.3,0.4 -0.3,0.4 -0.3,0.4 -0.2,0.4 -0.1,0.4 0,0.4 0,0.3 0.1,0.3 0.2,0.3 0.3,0.2 0.2,0.2 0.7,0.5 0.5,0.4 0.8,0.5 0.9,0.5 0.4,0.3 0.4,0.4 0.4,0.3 0.3,0.4 0.3,0.5 0.2,0.8 0.1,0.6 0,0.9 0,1.1 0,0.5 -0.1,0.4 -0.1,0.3 -0.2,0.3 -0.2,0.2 -0.4,0.2 -0.6,0.2 -0.7,0.1 -0.7,0 -0.9,-0.1 -0.6,0 -0.6,-0.1 -0.5,-0.2 -0.5,-0.3 -0.5,-0.2 -0.6,-0.1 -0.3,0.1 -0.3,0.1 -0.3,0.3 -0.3,0.4 -0.6,0.7 -0.4,0.6 -0.3,0.7 -0.2,0.7 -0.2,1.1 -0.1,0.8 0,0.8 0.2,0.8 0.2,0.9 0.2,0.8 0.3,0.9 0.6,1.5 0.6,1.1 0.6,1 0.6,1.1 0.6,1.1 0.5,0.9 0.4,0.8 0.4,1 0.2,0.9 0.2,1.1 0.1,1 0,0.7 0,0.6 -0.2,1.1 -0.3,0.7 -0.3,0.7 -0.3,0.5 -0.4,0.4 -0.5,0.5 -0.6,0.4 -0.6,0.2 -1.3,0.3 -1.1,0.2 -0.8,0.1 -0.7,0 -1,0 -0.9,0 -0.9,0 -0.8,0.2 -0.5,0.3 -0.3,0.3 -0.3,0.2 -1.2,0.1 -1.9,0 -2.5,0.1 -2.2,-0.1 -1.2,-0.2 -1.2,-0.2 -1.4,-0.5 -1.6,-0.5 -1.4,-0.8 -1.2,-0.7 -0.9,-0.7 -1.1,-0.7 -1.1,-0.5 -1.1,-0.5 -1.2,-1 -0.9,-0.9 -0.9,-1.2 -0.6,-1.1 -0.5,-0.9 -0.3,-1.1 -0.3,-1.6 -0.3,-0.9 -0.1,-0.7 -0.2,-0.9 -0.3,-0.7 -0.9,-1 -0.9,-0.9 -1.2,-1.1 -1.5,-1.2 -2,-1.1 -1.4,-1.1 -0.8,-0.7 -0.9,-1.3 -0.7,-1.6 -0.5,-1.3 -0.7,-1.2 -0.9,-1.1 -0.9,-0.8 -0.9,-0.7 -0.9,-0.5 -1.5,-0.4 -1.5,-0.4 -1.8,-0.3 -3.4,-0.1 -2.3,-0.2 -1.1,-0.4 -1.4,-0.6 -1,-0.8 -1,-1.1 -0.8,-1.1 -0.5,-1.3 -0.4,-1.3 -0.3,-1.4 -0.2,-1.5 -0.3,-1.3 -0.3,-1.1 -0.5,-1.3 -0.8,-1.3 -1,-1.2 -1.3,-1.3 -1.6,-1.4 -1.7,-1.3 -1.6,-1.2 -1.7,-0.7 -1.3,-0.5 -1.2,-0.2 -1.1,0 -0.5,0 -0.6,0 0.6,-2.8 1,-4 0.3,-1.9 0,-2.3 0.1,-1.8 0.3,-2.7 0.3,-1.9 0.5,-1.4 0.9,-1.4 1.1,-1.2 1,-0.9 1.4,-0.7 1.2,-0.5 1.9,-0.2 2.4,-0.2 1.8,-0.1 2.2,-0.1 2.3,-0.3 3.9,-0.6 4.1,-0.5 1.2,-0.1 1.6,-0.1 1.8,0 1.5,0 1,0 1.9,-0.3 1.9,-0.6 1.4,-0.7 1.3,-1 0.9,-0.9 0.7,-0.8 0.3,-0.6 0.3,-0.9 0.2,-1.3 0.1,-1 -0.1,-1.6 -0.3,-1 -0.3,-0.8 -0.4,-0.7 -0.6,-0.8 -0.6,-0.9 -0.7,-0.8 -0.8,-1.1 -0.6,-0.8 -0.3,-0.6 -0.1,-0.6 0,-1.4 0.1,-1.6 0.2,-1.1 0.2,-0.7 0.5,-0.8 0.6,-0.8 0.8,-0.9 0.7,-0.5 1,-0.6 1.6,-0.7 2.4,-1.4 0.7,-0.6 0.7,-0.9 0.5,-0.9 0.2,-0.7 0.1,-0.8 0.1,-0.8 -0.1,-0.6 -0.2,-0.9 -0.2,-1.3 0,-0.9 0.1,-1.3 0.1,-1.8 -0.2,-2.2 -0.4,-1.7 -0.9,-2.2 -1,-1.5 -0.9,-0.9 -0.7,-0.7 -1.9,-1.1 -1.9,-1 -2.5,-0.9 -1.7,-0.6 -2.3,-0.7 -2.9,-0.8 -3.6,-0.8 -1.4,-0.4 -1.2,-0.1 -0.8,0 -1.5,0 -1.3,0.2 -0.9,0.3 -0.6,0.3 -0.5,0.4 -0.6,0.4 -0.6,0.5 -0.4,0.5 -0.5,0.5 -0.6,0.5 -0.9,0.5 -0.9,0.4 -0.6,0.2 -0.8,0.2 -1,0.1 -0.6,0 -0.8,-0.2 -0.6,-0.3 -0.4,-0.3 -0.8,-0.8 -0.3,-0.4 -0.3,-0.5 -0.1,-0.5 -0.1,-0.5 0,-0.5 0,-0.5 0.2,-0.6 0.2,-0.6 0.3,-0.5 0.5,-0.6 0.8,-0.9 0.9,-1.2 0.8,-1.1 1,-1.3 0.3,-0.4 0.1,-0.2 0.4,-0.4 0.5,-0.3 0.5,-0.3 0.6,-0.4 0.3,-0.4 0.2,-0.3 0.2,-0.4 0.1,-0.3 0,-0.3 0,-0.3 0,-0.2 -0.1,-0.3 -0.2,-0.4 -0.9,-0.7 -0.6,-0.7 -0.8,-0.8 -0.4,-0.4 -1.1,-0.9 -0.7,-0.5 -0.5,-0.4 -0.4,-0.4 -0.4,-0.4 -0.4,-0.5 -0.2,-0.5 -0.1,-0.5 -0.1,-0.4 0,-0.4 0.2,-0.4 0.2,-0.6 0.3,-0.7 0.3,-0.8 0.1,-0.6 0.1,-0.6 0.1,-0.5 0.1,-0.3 0.1,-0.4 0.1,-0.3 0.1,-0.3 0,-0.2 0,-0.4 0,-0.4 0,-0.8 0.1,-0.8 0.3,-0.8 0.2,-0.4 0.3,-0.4 0.4,-0.4 0.5,-0.3 0.5,-0.3 0.4,-0.1 0.3,-0.1 0.3,0 0.3,0 0.3,0 0.6,0 1,-0.1 1.4,-0.1 1,-0.1 0.8,-0.1 0.4,0 0.5,0 0.4,0.1 0.5,0.1 0.6,0 0.6,-0.1 0.5,-0.1 0.4,-0.1 0.3,-0.3 0.3,-0.3 0.6,-0.9 0.5,-0.8 0.1,-0.5 0,-0.7 -0.1,-0.5 -0.2,-0.4 -0.2,-0.4 -0.4,-0.4 -0.5,-0.4 -0.5,-0.4 -1.2,-0.6 -1,-0.6 -0.6,-0.3 -0.6,-0.4 -0.4,-0.3 -0.3,-0.3 -0.2,-0.3 -0.3,-0.6 -0.5,-0.6 -0.3,-0.6 -0.2,-0.7 -0.1,-0.5 0,-0.6 0,-0.5 0,-0.4 0.1,-0.4 0.1,-0.3 0.2,-0.3 0.2,-0.3 0.2,-0.2 0.2,-0.1 0.3,-0.2 0.2,-0.1 0.5,0.1 0.2,0.1 0.2,0.2 0.2,0.2 0.2,0.2 0.2,0.2 0.2,0.2 0.2,0 0.2,0 0.1,0.1 0.2,0 0.1,0.1 0.1,0.1 0.1,0.2 0.2,0.3 0.4,0.6 0.4,0.5 0.4,0.5 0.4,0.3 0.4,0.4 0.4,0.2 0.3,0.1 0.4,0.1 0.4,0 0.4,0 0.3,0 0.3,0 0.3,-0.1 0.3,-0.1 0.3,-0.2 0.2,-0.1 0.2,-0.1 0.2,-0.1 0.2,-0.2 0.2,-0.1 0.1,-0.2 0.2,-0.2 0.2,-0.1 0.2,-0.2 0.1,-0.1 0.1,-0.1 0.1,-0.1 0.2,-0.1 0.2,-0.1 0.1,-0.1 0.2,-0.1 0.2,-0.1 0.1,-0.1 0.1,-0.1 0,-0.1 0.1,-0.1 0.1,-0.1 0.1,-0.1 0.2,-0.2 0.1,-0.2 0,-0.3 0,-0.3 0,-0.3 0,-0.4 -0.1,-0.5 -0.1,-0.5 -0.2,-0.5 -0.2,-0.5 -0.7,-0.5 -0.2,-0.3 -0.1,-0.2 -0.1,-0.3 -0.1,-0.2 0,-0.2 0,-0.2 0,-0.2 0,-0.2 -0.2,-0.5 -0.1,-0.2 -0.2,-0.4 -0.2,-0.4 -0.3,-0.5 -0.5,-0.6 -0.5,-0.6 -0.3,-0.3 -0.2,-0.2 -0.2,-0.2 -0.2,-0.1 -0.1,-0.1 -0.2,-0.2 -0.2,-0.2 -0.1,-0.2 -0.1,-0.1 -0.1,-0.1 -0.2,-0.1 -0.1,0 -0.2,0 -0.2,0 -0.1,0 -0.1,-0.1 0,-0.1 -0.1,-0.1 -0.1,-0.2 -0.1,-0.1 -0.2,-0.2 -0.3,-0.1 -0.3,-0.1 -0.2,-0.1 -0.4,-0.2 -0.4,-0.2 -0.4,-0.3 -0.2,-0.2 -0.2,-0.2 -0.2,-0.2 -0.2,-0.2 -0.2,-0.1 -0.1,-0.2 -0.2,-0.2 -0.1,-0.2 0,-0.1 0,-0.2 0,0.4 0,-0.2 0,-0.2 0.1,-0.2 0.1,-0.1 0.1,-0.1 0.1,-0.3 0,-0.2 0.1,-0.1 0.1,-0.1 0.1,-0.2 0,-0.2 0,-0.2 0,-0.2 0,-0.1 0,-0.2 0.1,-0.1 0.1,-0.2 0.1,-0.1 0.1,-0.1 0,-0.2 0,-0.2 -0.1,-0.5 -0.1,-0.4 -0.1,-0.2 -0.3,-0.3 -0.3,-0.4 -0.4,-0.3 -0.3,-0.3 -0.3,-0.2 -0.2,-0.1 -0.4,-0.2 -0.2,-0.1 -0.2,-0.1 -0.2,-0.1 -0.2,-0.1 -0.2,-0.1 -0.2,-0.1 -0.3,-0.3 -0.2,-0.2 -0.1,-0.2 -0.1,-0.1 0,-0.2 0,-0.2 0.1,-0.2 0.2,-0.2 0.2,-0.3 0.1,-0.2 0.2,-0.2 0.2,-0.2 0.2,-0.2 0.2,-0.1 0.1,-0.1 0.2,-0.2 0.1,-0.3 0.2,-0.3 0.1,-0.2 0.1,-0.3 0.1,-0.2 0.1,-0.1 0.1,-0.1 0.1,-0.1 0.1,-0.2 0.1,-0.2 0.1,-0.2 0,-0.1 0,-0.2 0,-0.2 -0.1,-0.1 -0.1,-0.1 -0.2,-0.1 -0.3,-0.1 -0.2,0 -0.2,0 -0.2,0 -0.2,0.1 -0.1,0.1 -0.1,0.1 -0.2,0.2 -0.1,0 -0.1,0 -0.2,0 -0.2,0 -0.1,0 -0.2,0 -0.2,0 -0.1,0 -0.2,0.1 -0.3,0.1 -0.3,0 -0.2,0 -0.2,0 -0.2,-0.1 -0.1,-0.1 -0.2,-0.1 -0.2,0 -0.2,0 -0.6,-0.1 -0.2,-0.1 -0.1,-0.1 -0.1,0 -0.1,-0.2 -0.1,-0.1 -0.1,-0.1 -0.1,-0.2 -0.3,-0.3 -0.1,-0.2 -0.1,-0.1 -0.1,-0.2 0,-0.1 -0.1,-0.2 0,-0.2 0,-0.2 0,-0.3 0,-0.2 0,-0.2 0,-0.2 0.1,-0.2 0.1,-0.1 0.1,-0.1 0.2,-0.1 0.1,0 0.1,-0.1 0.1,-0.2 0.2,-0.3 0.3,-0.5 0.2,-0.3 0.1,-0.1 0,-0.1 0,-0.1 0,-0.2 0,-0.3 0,0.8 0,-0.1 0,-0.1 0,-0.1 -0.1,0 -0.1,0 -0.2,0 -0.3,0 -0.1,0 -0.2,0.1 -0.1,0.1 -0.1,0.1 -0.2,0 -0.2,0 -0.1,0 -0.2,0.1 -0.1,0.1 -0.1,0.1 -0.2,0.2 -0.2,0.1 -0.2,0.2 -0.3,0.2 -0.3,0.1 -0.1,0 -0.4,0 -0.2,0 -0.2,0 -0.1,-0.1 -0.1,-0.1 -0.1,-0.1 -0.1,-0.1 -0.1,-0.1 -0.2,-0.1 -0.3,-0.2 -0.3,-0.1 -0.3,-0.1 0.9,-0.1 -0.2,-0.1 -0.3,0 -0.3,-0.1 -0.3,-0.1 -0.4,-0.1 -0.3,-0.1 -0.2,0 -0.3,0 -0.3,0 -0.3,-0.1 -0.2,-0.1 -0.2,-0.1 -0.1,-0.1 -0.2,-0.2 -0.2,-0.2 -0.1,-0.2 -0.1,-0.1 -0.2,0 -0.1,0 -0.2,0 -0.1,0 -0.1,0 -0.1,0 -0.1,0 -0.1,-0.1 -0.1,-0.1 0,-0.2 0,-0.1 0,-0.1 0.2,-0.2 0.1,-0.2 0.1,-0.2 0.1,-0.3 0.1,-0.2 0,-0.4 0,-0.3 -0.1,-0.3 -0.1,-0.3 -0.1,-0.2 -0.2,-0.2 -0.2,-0.2 -0.2,-0.2 -0.3,-0.3 -0.4,-0.5 -0.4,-0.3 -0.3,-0.2 -0.4,-0.3 -0.4,-0.2 -0.5,-0.2 -0.4,-0.1 -0.5,-0.1 -0.4,0 -0.5,0 -0.6,0 -0.5,-0.1 -0.5,-0.2 -0.3,-0.2 -0.4,-0.3 -0.1,-0.2 -0.1,-0.1 -0.1,-0.2 -0.1,-0.2 -0.1,-0.2 -0.1,-0.2 -0.1,-0.3 -0.1,-0.4 0,-0.3 -0.1,-0.4 -0.1,-0.2 -0.1,-0.2 -0.3,-0.1 -0.5,-0.1 -0.7,-0.1 -0.3,0 -0.3,0 -0.2,0.1 -0.2,0.2 -0.2,0.3 -0.2,0.2 -0.1,0.1 -0.1,0.1 -0.2,0 -0.2,0 -0.2,-0.1 -0.4,-0.4 -0.4,-0.6 -0.4,-0.5 -0.3,-0.4 -0.5,-0.5 -0.5,-0.4 -0.4,-0.3 -0.4,-0.2 -0.2,-0.2 -0.2,-0.3 -0.2,-0.3 -0.2,-0.5 -0.1,-0.3 -0.1,-0.2 -0.1,-0.3 -0.2,-0.1 -0.2,-0.1 -0.3,0 -0.3,-0.1 -0.3,-0.2 -0.3,-0.3 -0.1,-0.3 -0.1,-0.5 -0.1,-0.5 -0.1,-0.5 -0.1,-0.5 0,-0.6 0,-0.5 -0.1,-0.3 -0.1,-0.3 -0.1,-0.2 -0.1,-0.2 -0.2,-0.1 -0.2,-0.1 -0.2,-0.1 -0.1,-0.1 -0.1,-0.3 0,-0.3 0.2,-0.7 0.2,-0.4 0.2,-0.5 0.2,-0.5 0.1,-0.3 0.1,-0.4 0,-0.3 0.1,-1.1 0.1,-0.7 0,-0.5 0.1,-0.5 0,-0.3 0.2,-0.5 0.2,-0.5 0.2,-0.4 0.1,-0.4 0,-0.3 0.1,-0.3 0,-0.4 -0.1,-0.3 -0.1,-0.2 -0.1,-0.2 -0.1,-0.2 -0.1,-0.2 -0.1,-0.3 0,-0.2 0,-0.3 0.1,-0.2 0.1,-0.3 0,-0.2 0,-0.2 -0.1,-0.2 -0.1,-0.2 -0.3,-0.2 -0.2,-0.2 -0.3,-0.2 -0.2,-0.2 -0.1,-0.2 0,-0.2 0.1,-0.3 0.1,-0.3 0.1,-0.2 0,-0.2 -0.1,-0.2 -0.2,-0.2 -0.1,-0.2 -0.1,-0.3 0,-0.3 0,-0.3 0.1,-0.4 0.1,-0.4 0,-0.3 0.1,-0.5 0.1,-0.5 0,-0.3 0.1,-0.8 0.3,-0.9 0,-0.3 0,-0.3 -0.1,-0.2 -0.2,-0.3 -0.3,-0.3 -0.5,-0.1 -0.1,-0.1 0,-0.1 0,-0.1 0,-0.1 0,-0.1 0,-0.2 0,-0.3 0,-0.2 0,-0.1 -0.1,-0.1 -0.1,-0.2 -0.2,-0.2 -0.2,-0.2 -0.1,0 0,-0.1 0,-0.1 0,-0.1 0,-0.1 0,0 0,-0.1 0,-0.1 -0.1,0 -0.1,-0.1 0,-0.1 0,0 0,-0.1 0,-0.1 0,-0.2 0,-0.2 0,-0.1 0,-0.2 0,-0.2 -0.1,-0.2 -0.1,-0.1 -0.2,-0.1 -0.2,-0.2 -0.1,-0.1 -0.1,-0.1 0,-0.1 0,-0.1 0,-0.1 0,-0.1 0,-0.1 0.1,-0.1 0.1,-0.1 0.2,-0.2 0.1,-0.1 0.1,-0.1 0.1,-0.2 0,-0.1 0.1,-0.2 0,-0.1 0,-0.1 0,-0.2 0,-0.3 0,-0.3 0,-0.3 0.1,-0.3 0,-0.1 0.1,-0.1 0.1,-0.1 0.1,-0.1 0.1,-0.2 0.1,-0.2 0,-0.1 0,-0.1 0.1,-0.3 0.1,-0.2 0,-0.2 0.1,-0.2 0.1,-0.2 0.1,-0.1 0,-0.1 0.2,-0.1 0.1,-0.1 0.2,-0.2 0.1,-0.2 0.1,-0.2 0.1,-0.2 0,-0.2 0,-0.2 0,-0.1 0,-0.1 0,-0.1 0,-0.2 0,-0.2 0,-0.2 0,-0.2 0.1,-0.2 0,-0.2 0,-0.1 0.1,-0.1 0.1,-0.1 0.1,-0.1 0.1,-0.1 0.1,-0.2 0.1,-0.1 0.1,-0.2 0,-0.2 0,-0.1 0,-0.2 0,-0.2 0,-0.2 0,-0.1 0.1,-0.1 0,-0.1 0,-0.1 0,-0.2 0,-0.1 0,-0.1 0,0 -0.1,0 -0.1,0 -0.1,0 -0.1,0 1.4,0 -0.1,0 -0.1,0 -0.1,0 -0.1,0 -0.1,0 -0.1,-0.1 -0.1,-0.1 -0.1,-0.1 -0.1,-0.1 0,-0.1 0,-0.1 0,-0.1 0,-0.1 -0.1,0 -0.1,-0.1 -0.1,-0.1 -0.1,0 -0.1,-0.2 -0.1,-0.1 -0.1,-0.1 -0.1,-0.1 -0.1,0 -0.1,-0.1 -0.1,-0.1 -0.2,-0.1 -0.1,-0.2 -0.1,-0.1 -0.1,-0.1 -0.1,-0.2 0,-0.2 0,-0.2 0,-0.1 -0.1,-0.2 -0.1,-0.1 -0.1,-0.1 -0.1,-0.1 -0.2,-0.2 -0.1,-0.1 -0.1,-0.2 -0.2,-0.2 -0.1,-0.2 -0.1,-0.1 0,-0.2 0,-0.2 0,-0.2 0,-0.1 0,-0.1 -0.1,-0.1 -0.2,-0.1 -0.2,-0.1 -0.3,-0.1 -0.2,-0.1 -0.2,-0.1 -0.2,-0.1 -0.1,-0.1 -0.1,-0.1 -0.1,-0.1 -0.1,-0.1 -0.2,-0.1 -0.2,-0.2 -0.2,-0.1 -0.1,-0.1 -0.1,-0.2 -0.1,-0.1 0,-0.1 0,-0.1 0,-0.1 -0.1,-0.1 -0.1,-0.1 0,-0.1 0,-0.1 0.1,-0.3 -48.1,2.4 0,0 1,33.2 -8.5,-4.4 -2.2,-1.1 0,0 -16.9,-10.8 0,0 -13.1,-10.3 0,0 -5.4,4.2 0,0 -1.2,0 0,0 -1.2,0 0,0 -1.9,0 -0.9,-0.1 -1.2,-0.2 0,0 -1.7,-0.4 0,0 -2,-0.8 0,0 -1.1,-0.4 -1.5,-0.7 0,0 -1.5,-0.4 0,0 -0.6,-0.1 -1,-0.2 -1,-0.3 0,0 -1.9,-1.2 0,0 -3.7,-2 0,0 -4.2,-2.4 -1.5,-0.6 0,0 -1.3,-0.5 -1.1,-0.3 -0.7,-0.1 0,0 -0.8,-0.1 -0.6,0.1 -0.8,0.3 0,0 -0.6,0.3 0,0 -1,1.1 0,0 -1.1,1.9 0,0 -1,2.1 0,0 0,0.4 0,0 -0.2,3 0,0 -0.4,3.4 -5.6,-2.6 -0.4,-0.2 -0.3,-0.1 -0.2,-0.1 -0.1,-0.1 -0.4,-0.2 -2.2,-1 -0.8,-0.3 -0.3,-0.1 -0.4,0 -0.4,0 -0.3,-0.1 0,0 -0.2,-0.8 -0.3,-0.3 -0.1,-0.5 -0.5,-0.2 -0.5,-0.2 -0.3,-0.2 -0.2,-0.3 -0.3,-0.3 -2.6,-2.4 -1.8,0 -0.7,0.4 -1.4,-1 -12.8,-8 -2.3,-1.4 -0.7,0 -0.2,0 -0.5,0 -2.1,-1.2 -2.8,-1.6 -0.3,-0.6 -0.5,-0.2 -1,-0.4 -1.2,-0.5 -0.6,-0.2 -0.8,-0.2 -0.6,-0.2 -0.7,-0.3 -0.8,-0.3 -0.6,-0.3 -0.5,-0.2 -0.6,-0.1 -0.4,-0.1 -0.3,0 -0.5,0 -0.6,0 7,-26.7 1.4,-5.5 0.4,-1.1 0.1,-0.5 0.2,-0.8 0.1,-0.6 0.2,-0.7 0.2,-0.8 0.2,-0.6 0.6,-2.6 0.2,-0.7 0.1,-0.9 0.1,-0.4 0,-0.1 0.1,-0.4 0.2,-0.8 0.1,-0.6 0.2,-0.7 0.1,-0.6 0.2,-0.8 0.6,-2.3 0.1,-0.5 0.3,-1.3 0.7,-2.4 0.1,-0.3 0.1,-0.4 0.1,-0.1 0.1,-0.5 0.2,-0.4 0,-0.1 0.1,-0.5 0.1,-0.3 0,-0.1 0.1,-0.5 0.1,-0.5 0.2,-0.9 0.1,-0.3 0.1,-0.3 0.1,-0.1 0.1,-0.3 0.4,-1.4 0.5,-1.9 0.1,-0.6 0.8,-2.8 0.5,-1.6 0.4,-1.3 0.1,-0.3 0.3,-0.9 0.1,-0.5 0.4,-1.5 0.2,-0.7 0.3,-0.8 1,-3.6 0.2,-0.7 0.3,-1 0.6,-1.7 0.1,-0.4 0.2,-0.7 0.3,-1.3 1.2,-4.1 0.5,-2.3 0.5,-1.7 0.5,-1.9 0.3,-0.9 0.2,-0.7 0,-0.2 0.1,-0.2 0.5,-1.7 0.4,-1.3 0.2,-0.5 0.3,-0.8 0.5,-1.3 0.2,-0.5 0.5,-1.5 0.1,-0.4 0.5,-1.5 0.5,-2 0.5,-1.8 0.4,-1.6 0.1,-0.6 0.3,-1.1 0.4,-1.3 0.6,-2.1 0.4,-2 0.5,-2.1 0.3,-1.4 0.1,-0.5 0.1,-0.5 0.8,-3.3 0.2,0 6,1.2 1.6,0.3 5.8,1.2 0.1,-0.3 0.1,-0.3 0.1,-0.2 0.1,-0.2 0,2.9 0,-0.3 0.1,-0.2 0.1,-0.2 0.1,-0.3 0,-0.2 0,-0.3 0.1,-0.3 0.1,-0.2 0,0 0,-0.2 0,-0.2 0.1,-0.2 0.1,-0.2 0.1,-0.2 0.1,-0.3 0.1,-0.2 0,-0.2 0,-0.2 0,-0.4 0.2,-0.5 0.2,-0.4 0.1,-0.4 0,-0.3 0,-0.3 0.1,-0.3 0.1,-0.3 0.1,-0.2 0,-0.2 0,-0.2 0.1,-0.3 0,-0.2 0.1,-0.2 0,-0.2 0,-0.2 0.1,-0.3 0.1,-0.4 0.1,-0.2 0.1,-0.3 0,-0.3 0.1,-0.2 0.2,-0.4 0,-0.3 0.2,-0.3 0.1,-0.5 0.1,-0.5 0.1,-0.4 0.2,-0.5 0.1,-0.3 0,-0.1 0,-0.2 0,-0.3 0,-0.2 0.1,-0.3 0.1,-0.2 0,-0.3 0,-0.3 0,-0.3 0.1,-0.5 0.2,-0.7 0.3,-0.9 0.1,-0.6 0.2,-0.8 0.2,-0.7 0.2,-0.7 0.2,-0.5 0.2,-0.4 0.1,-0.2 0,-0.2 0,-0.2 0,-0.3 0,-0.3 0.1,-0.1 0.2,-0.1 0.1,-0.2 0.1,-0.2 0.1,-0.3 0.1,-0.3 0,-0.3 0,-0.3 0,-0.3 0,-0.4 0.1,-0.3 0.1,-0.2 0.1,-0.2 0.1,-0.4 0.1,-0.3 0,-0.2 0,-0.3 0,-0.2 0.1,-0.2 0.2,-0.2 0.1,-0.3 0.1,-0.6 0.2,-0.5 0.1,-0.3 0,-0.2 0,-0.2 0,-0.3 0.1,-0.3 0.1,-0.2 0.1,-0.3 0.1,-0.5 0.1,-0.3 0,-0.3 0,-0.2 0,-0.3 0.1,-0.4 0.1,-0.5 0.1,-0.6 0.2,-0.7 0.1,-0.4 0.1,-0.3 0.2,-0.3 0.1,-0.2 0.1,-0.3 0.1,-0.3 0.1,-0.3 0,-0.2 0,-0.3 0,-0.2 0,-0.2 0,-0.2 0.1,-0.3 0.1,-0.2 0,-0.2 0,0.5 0,-0.2 0,-0.3 0.1,-0.3 0.1,-0.4 0.4,-1.4 0.5,-1.4 0.2,-1 0.1,-0.6 0,-0.2 0,-0.3 0,0.1 0.1,-0.3 0.1,-0.3 0.1,-0.1 0.2,-0.2 0.1,-0.2 0.1,-0.3 0.2,-0.5 0.1,-0.4 0,-0.5 0.1,-0.4 0,-0.2 0,-0.3 0.1,-0.3 0.1,-0.1 0.1,-0.3 0.1,-0.2 0,-0.3 0,-0.2 0,-0.2 0,-0.2 0,-0.2 0.1,-0.4 0.2,-0.8 0.1,-0.4 0.1,-0.4 0,-0.4 0,0.1 0,-0.1 -0.1,-0.2 0,-0.1 0,-0.2 0,-0.2 0,-0.3 0,-0.3 0.1,-0.3 0.1,-0.6 0,-0.2 0,-0.3 0,-0.2 0,-0.3 0,-0.2 0,-0.2 0,-0.3 0.1,-0.6 0,-0.3 0,-0.3 0,-0.4 0,-0.4 -0.1,-0.3 0,-0.2 -0.1,-0.2 0,-0.2 0,-0.1 0,-0.2 0.1,-0.2 0,-0.1 0.1,-0.1 0,-0.1 0,-0.2 0,-0.3 0.1,-0.5 0,-0.3 0.1,-0.3 0.1,-0.3 0,-0.2 0,-0.2 -0.1,-0.2 -0.1,-0.1 0,-0.2 0,-0.2 -0.1,-0.2 -0.1,-0.3 0,-0.2 0,-0.3 -0.1,-0.4 -0.1,-0.4 -0.1,-0.4 0,-0.1 0,-0.2 0,0.2 0,-0.1 0,-0.2 0,-0.2 0,-0.2 0,-0.3 0,-0.3 0,-0.3 -0.1,-0.4 0,-0.6 0,-0.2 0,-0.3 0,-0.3 0,-0.2 0,-0.2 0,-0.1 0,-0.1 -0.1,-0.2 -0.1,-0.1 -0.1,-0.2 -0.1,-0.2 -0.1,-0.2 -0.1,-0.2 -0.1,-0.2 -0.1,-0.2 -0.1,-0.3 -0.2,-0.3 -0.2,-0.3 -0.1,-0.2 -0.2,-0.3 -0.1,-0.2 -0.1,-0.1 -0.1,0 -0.1,0 -0.1,-0.1 -0.1,-0.1 -0.1,-0.2 -0.1,-0.2 -0.1,-0.1 -0.1,-0.1 -0.1,-0.1 0,-0.2 0,-0.2 -0.1,-0.2 -0.1,-0.3 -0.1,-0.2 -0.1,-0.2 -0.1,-0.2 -0.1,-0.1 -0.1,-0.1 -0.2,-0.1 -0.2,-0.2 -0.2,-0.2 -0.2,-0.3 -0.3,-0.3 -0.2,-0.2 -0.3,-0.2 -0.2,-0.2 -0.1,-0.2 -0.1,-0.2 -0.2,-0.2 -0.3,-0.4 -0.2,-0.2 -0.2,-0.2 -0.2,-0.2 -0.2,-0.3 -0.1,-0.2 -0.1,-0.2 -0.1,-0.1 -0.1,-0.1 -0.2,-0.1 -0.4,-0.2 -0.2,-0.2 -0.1,-0.1 -0.1,-0.1 0,-0.2 0,-0.2 0,-0.2 0,-0.1 0,-0.2 -0.1,-0.1 0,-0.2 0,-0.3 0,-0.3 0,-0.1 0.1,-0.1 0,0 0.1,0 0.1,0 0.1,0 0,0 0.1,-0.1 0.1,-0.1 0,-0.2 0,-0.2 0.1,-0.1 0,-0.2 0,-0.2 0,-0.1 0.1,-0.1 0,-0.1 0,-0.2 0,-0.2 0,-0.3 0.1,-0.3 0,-0.2 0.1,-0.2 0.1,-0.2 0.1,-0.3 0.1,-0.3 0.1,-0.2 0,-0.4 0.1,-0.3 0.1,-0.4 0.2,-0.3 0.1,-0.1 0.1,-0.1 0.1,0 0.2,0 0.1,0 0.2,-0.1 0.1,-0.1 0.1,-0.2 0.1,-0.2 0.1,-0.2 0,-0.2 0,-0.2 0,-0.2 -0.1,-0.2 0,-0.2 0,-0.2 0.1,-0.4 0,-0.4 0.1,-0.3 0,-0.1 0.1,-0.1 0.1,-0.2 0.2,-0.2 0.1,-0.2 0.2,-0.2 0.1,-0.3 0.1,-0.2 0,-0.3 0,-0.2 0,-0.3 0,-0.2 0.1,-0.3 0.2,-0.2 0.1,-0.3 0.1,-0.2 0.1,-0.3 0.1,-0.2 0,-0.2 0,1.4 0.1,-0.1 0.1,-0.3 0.2,-0.2 0.1,-0.3 0.1,-0.3 0,-0.3 0,-0.3 0,-0.3 0,-0.2 0.1,-0.2 0,-0.2 0,-0.3 0,-0.2 0.1,-0.2 0,-0.2 0,-0.2 0,-0.3 0,-0.3 0,-0.4 -0.1,-0.3 -0.1,-0.4 -0.1,-0.3 -0.1,-0.3 -0.1,-0.3 -0.1,-0.2 -0.1,-0.3 -0.1,-0.2 -0.1,-0.2 -0.1,-0.1 0,-0.1 0,-0.2 0,-0.2 0.1,-0.2 0.2,-0.5 1.1,-1.9 0.3,-0.4 0.3,-0.3 0.4,-0.3 0.3,-0.2 0.3,-0.2 0.3,-0.1 0.5,-0.1 0.2,-0.1 0.2,-0.1 0.1,-0.1 0,-0.1 0,-0.2 0,-0.2 0,-0.2 0,-0.2 0,-0.3 0,-0.4 0,-0.4 0,-0.2 -0.1,-0.2 -0.1,-0.1 -0.2,-0.2 -0.2,-0.3 -0.2,-0.3 -0.3,-0.5 -0.4,-0.6 -0.6,-0.8 -0.4,-0.6 -0.3,-0.4 -0.2,-0.3 -0.1,-0.1 0,0 0,-0.2 0.1,-0.1 0.1,-0.2 0.2,-0.1 0.2,0 0.3,-0.1 0.3,0 0.2,-0.1 0.3,-0.1 0.2,-0.1 0.2,-0.3 0.3,-0.2 0.2,-0.1 0.3,-0.1 0.1,0 0.2,0 0.1,-0.1 0.2,-0.4 0.3,-0.7 0.3,-0.5 0.2,-0.5 0.1,-0.6 0,-0.5 0.1,-0.4 0.2,-0.5 0.1,-0.4 0.1,-0.3 0.2,-0.3 0.2,-0.2 0.2,-0.2 0.2,-0.3 0.2,-0.4 0.1,-0.3 0.1,-0.2 0,-0.2 0,-0.3 0,-0.2 0.1,-0.1 0.1,-0.2 0.2,-0.1 0.2,-0.1 0.2,-0.1 0.4,-0.1 0.6,-0.1 0.7,-0.2 0.2,-0.1 0.1,-0.1 0.1,-0.1 0.1,-0.1 0.1,-0.2 0.1,-0.3 0.1,-0.5 0.1,-0.9 0.1,-0.2 0.1,-0.2 0.1,-0.1 0.2,-0.1 0.3,-0.1 0.4,-0.1 0.2,-0.2 0.2,-0.1 0.1,-0.1 0.1,-0.2 0,-0.2 0.1,-0.3 0.1,-0.2 0.2,-0.2 0.1,-0.1 0.2,-0.1 0.2,0 0.3,0 0.2,-0.1 0.4,-0.1 0.5,-0.3 0.5,-0.4 0.7,-0.6 0.2,-0.1 0.2,-0.2 0.3,-0.3 0.2,-0.2 0.1,-0.1 0.2,0 0.2,0 0.1,0 0.1,0 0.2,0.1 0.2,0 0.2,0 0.2,-0.1 0.2,-0.2 0.2,-0.3 0.2,-0.3 0.2,-0.3 0.2,-0.5 0,-0.2 -0.1,-0.2 -0.1,-0.3 -0.1,-0.3 -0.2,-0.3 -0.2,-0.2 -0.7,0.5 -0.1,-0.2 0,-0.3 0.1,-0.3 0.1,-0.3 0,-0.2 -0.1,-0.2 -0.1,-0.3 -0.2,-0.2 -0.2,-0.2 -0.3,-0.3 -0.2,-0.2 -0.2,-0.1 -0.2,-0.1 -0.1,-0.1 0,-0.3 0,-0.3 0,-0.2 0,-0.2 -0.1,-0.2 -0.1,-0.2 -0.2,-0.2 -0.2,-0.3 -0.2,-0.3 -0.1,-0.1 0,-0.5 0,-0.3 0,-0.3 0,-0.3 0.1,-0.1 0.1,0 0.1,0 0.1,-0.1 0.1,-0.1 0,-0.2 0.3,-0.3 0.1,-0.1 0.1,-0.1 0,-0.1 0,-0.1 0,-0.2 0.1,-0.2 0.1,-0.4 0.1,-0.1 0.1,-0.1 0.1,0 0.1,-0.1 0,-0.1 0,-0.2 0,-0.2 -0.1,-0.1 -0.1,0 -0.1,0 -0.1,0 -0.1,-0.1 -0.1,-0.2 -0.1,-0.1 -0.2,-0.1 -0.1,-0.1 -0.1,-0.1 0,-0.2 0,-0.4 0,-0.4 0,-0.4 0,-0.3 -0.1,-0.4 -0.1,-0.3 -0.1,-0.3 -0.2,-0.3 -0.3,-0.4 -0.3,-0.3 -0.2,-0.3 -0.3,-0.4 -0.3,-0.6 -0.2,-0.3 -0.1,-0.3 -0.1,-0.2 0,-0.2 0,-0.3 0,-0.1 0,-0.2 -0.1,-0.1 -0.2,-0.1 -0.2,-0.1 -0.3,-0.1 -0.4,0 -0.4,0 -0.2,-0.1 -0.2,-0.1 -0.3,-0.2 -0.3,-0.2 -0.3,-0.2 -0.2,-0.2 -0.1,-0.2 -0.1,-0.3 -0.1,-0.3 0,-0.2 0,-0.3 0,-0.2 0,-0.3 0.1,-0.4 0,-0.2 0.1,-0.3 0,-0.2 0,-0.3 0,-0.3 0.1,-0.3 0.1,-0.2 0.1,-0.1 0.1,-0.1 0.2,-0.1 0.1,-0.1 0.1,-0.1 0.1,-0.2 0.1,-0.2 0,-0.2 0,0.4 -0.1,-0.3 -0.1,-0.2 -0.1,-0.2 -0.1,-0.1 -0.1,-0.1 0,-0.2 -0.1,-0.1 -0.1,-0.2 -0.1,-0.2 -0.1,-0.1 -0.1,-0.1 -0.1,-0.2 -0.1,-0.3 -0.1,-0.5 -0.1,-0.4 0,-0.3 0,-0.2 0,-0.2 0.1,-0.2 0.1,-0.1 0.2,-0.1 0.2,0 0.3,0 0.2,0 0.3,0 0.5,0.1 0.3,0 0.3,0 0.3,0 0.2,0 0.2,-0.1 0.2,-0.1 0.1,-0.2 0.1,-0.2 0.1,-0.2 0.1,-0.2 0.1,-0.1 0.1,-0.2 0.1,-0.1 0,-0.1 0,-0.2 0,-0.2 0,-0.3 0,-0.3 0,-0.3 -0.1,-0.3 -0.1,-0.3 -0.2,-0.3 -0.2,-0.2 -0.3,-0.3 -0.1,-0.2 0,-0.2 0.1,-0.2 0.1,-0.2 0.2,-0.2 0.1,-0.1 0.3,-0.3 0.2,-0.1 0.3,-0.1 0.3,0 0.4,0 0.3,-0.1 0.1,-0.1 0.3,-0.2 0.2,-0.3 0.3,-0.5 0.1,-0.2 0.2,-0.1 0.1,-0.1 0.2,0 0.2,0 0.3,0 0.2,0 0.3,0.1 0.3,0.1 0.2,0 0.2,0 0.2,0 0.2,0 0.2,0 0.2,0.1 0.2,0.1 0.2,0.1 0.1,0.1 0.1,0.1 0,0.1 0,0.3 -0.1,0.3 0,0.2 0.1,0.2 0.2,0.2 0.1,0.2 0.1,0.2 0.2,0.1 0.1,0.1 0.2,0 0.3,-0.1 0.2,-0.2 0.1,-0.1 0.1,-0.3 0.1,-0.5 0,-0.2 0,-0.2 0,-0.3 0.2,-0.2 0.1,-0.3 0.1,-0.3 0,-0.2 0,-0.2 0,-0.2 0.1,-0.2 0.1,-0.1 0.1,-0.2 0.1,-0.2 0,-0.2 0.1,-0.2 0.2,-0.3 0.2,-0.3 0.3,-0.2 0.1,-0.2 0.1,-0.2 0.1,-0.2 0,-0.1 0.1,-0.2 0.1,-0.2 0.1,-0.2 0,-0.1 0.1,-0.2 0.1,-0.1 0.2,-0.3 0.5,-0.5 0.3,-0.4 0.2,-0.2 0.2,-0.1 0.2,-0.1 0.2,-0.1 0.2,-0.1 0.1,-0.1 0.2,-0.2 0.1,-0.2 0.1,-0.2 0,0.4 0,-0.3 0,-0.3 0,-0.2 -0.8,-0.2 -0.1,-0.2 -0.2,-0.2 -0.3,-0.3 -0.4,-0.3 -0.4,-0.3 -0.5,-0.4 -0.2,-0.2 0,0 -0.2,-0.2 -0.2,-0.2 -0.2,-0.2 -0.2,-0.3 -0.2,-0.2 -0.3,-0.2 -0.2,-0.2 -0.2,-0.2 -0.2,-0.2 -0.2,-0.1 -0.2,-0.2 -0.2,-0.2 -0.1,-0.2 0,-0.2 0,-0.3 0,-0.4 0.1,-0.6 0.2,-0.7 0.2,-0.6 0.1,-0.7 0.1,-0.3 0,-0.2 0,-0.2 0,-0.2 0,-0.1 -0.2,-0.6 -0.3,-0.6 -0.3,-0.8 -0.3,-0.7 -0.1,-0.2 -0.1,-0.4 0,-0.3 0,-0.3 0,-0.4 0.1,-0.4 0.2,-0.5 0.5,-0.7 0.4,-0.6 0.1,-0.2 0.1,-0.3 0.2,-0.3 0.1,-0.2 0.2,-0.2 0.1,-0.1 0.3,-0.2 0.2,-0.2 0.1,-0.2 0.1,-0.1 0.1,-0.2 0.1,-0.2 0.2,-0.2 0.2,-0.2 0.3,0 0.3,0 0.3,0 0.2,0 0.2,-0.1 0.2,-0.1 0.2,-0.2 0.2,-0.2 0.2,-0.1 0.2,-0.2 0.1,-0.2 0.2,-0.4 0.3,-0.7 0.2,-0.6 0.1,-0.4 0,-0.3 0,-0.4 0,-0.1 -0.1,-0.2 -0.1,-0.2 -0.1,-0.2 -0.1,-0.3 -0.3,-0.5 -0.2,-0.4 -0.2,-0.2 -0.2,-0.2 -0.2,-0.2 -0.1,-0.2 -0.1,-0.2 0,-0.2 0,-0.2 0.1,-0.3 0.1,-0.2 0.2,-0.3 0,-0.2 0,-0.3 0,-0.2 0,0 -0.1,-0.2 -0.1,-0.1 -0.1,-0.1 -0.2,-0.1 -0.3,0 -0.2,0 -0.2,0 -0.2,0 -0.2,-0.1 -0.1,-0.1 -0.2,-0.1 0,-0.2 -0.1,-0.1 0,-0.2 0,-0.2 0.1,-0.2 0.1,-0.1 0.2,-0.1 0.1,-0.2 0.1,-0.2 0.1,-0.2 0.1,-0.2 0.2,-0.2 0.2,-0.3 0.2,-0.4 0,-0.2 0,-0.2 -0.1,-0.2 -0.1,-0.2 -0.2,-0.2 -0.2,-0.2 -0.1,-0.1 -0.2,-0.1 -0.2,0 -0.2,0 -0.2,0 -0.1,0 -0.3,0 -0.1,-0.1 -0.2,-0.1 -0.1,-0.1 -0.1,-0.1 0,-0.1 0,-0.2 0,-0.2 0,-0.3 0,-0.4 0.1,-0.3 0.1,-0.3 0.1,-0.1 0.1,-0.1 0.2,0 0.2,0 0.1,-0.1 0.2,-0.1 0.1,-0.1 0.2,-0.2 0.1,-0.2 0.1,-0.3 0.1,-0.3 0.1,-0.2 0.1,-0.2 0.1,-0.2 0.2,-0.2 0.3,-0.2 0.1,-0.2 0.1,-0.2 0,-0.2 0,-0.2 -0.1,-0.3 0,-0.4 -0.1,-0.2 0,-0.2 0,-0.1 0,-0.2 0.1,-0.2 0.1,-0.2 0.2,-0.2 0.2,-0.2 0.1,-0.2 0.1,-0.1 0,-0.1 0.1,-0.1 0.2,-0.1 0.3,-0.1 0.1,-0.1 0.2,-0.1 0.1,-0.1 0.2,-0.2 0.1,-0.2 0.1,-0.2 0.2,-0.2 0.3,-0.5 0.2,-0.3 0.1,-0.3 0.1,-0.3 0.1,-0.3 0.1,-0.4 0.1,-0.3 0,0 0.1,-0.3 0.1,-0.3 0.2,-0.3 0.2,-0.3 0.3,-0.4 0.2,-0.2 0.1,-0.2 0.1,-0.2 0.1,-0.2 0.1,-0.3 0.2,-0.8 0.2,-0.4 0.1,-0.2 0.1,-0.2 0.2,-0.2 0.2,-0.2 0.3,-0.2 0.3,-0.3 0.3,-0.3 0.3,-0.3 0.2,-0.2 0.1,-0.2 0.2,-0.2 0.2,-0.1 0.1,0 0.2,0.1 0.2,0.1 0.2,0.1 0.3,0.1 0.1,0 0.2,0 0.2,-0.2 0.3,-0.2 0.3,-0.2 0.2,-0.2 0.1,-0.2 0.1,-0.2 0,-0.3 0,-0.2 0,-0.2 -0.1,-0.3 -0.1,-0.2 -0.1,-0.2 -0.1,-0.3 0,-0.5 0,-0.3 0,-0.4 0,-0.4 0.1,-0.5 0.1,-0.5 0.1,-0.8 0.1,-0.5 0.1,-0.5 0.1,-0.3 0.2,-0.3 0.2,-0.2 0.2,-0.3 0.2,-0.3 0.1,-0.2 0.1,-0.3 0,-0.2 0,-0.2 0,-0.2 0,-0.2 -0.1,-0.3 -0.1,-0.2 -0.1,-0.3 0,-0.2 0,-0.3 0,-0.4 0.1,-0.5 0.1,-0.7 0.1,-0.5 0.1,-0.5 0.1,-0.6 0,-0.3 0,-0.7 0,-0.5 0,-0.6 0,-0.5 0,-0.4 0,-0.2 0,-0.3 0.1,-0.3 0.1,-0.3 0.2,-0.4 0.3,-0.5 0.1,-0.3 0.1,-0.3 0,-0.4 0,-0.4 0,-0.3 0,-0.3 -0.1,-0.4 0,-0.5 0,-0.4 -0.1,-0.3 0,-0.3 0,-0.4 0.1,-0.4 0.1,-0.3 0,-0.4 0.1,-0.4 0.2,-0.4 0.1,-0.3 0.1,-0.3 0.2,-0.6 0.1,-0.2 0.1,-0.3 0,-0.2 0,-0.3 0,-0.3 0,-0.3 0,-0.3 0,-0.5 0,-0.4 0,-0.3 0.1,-0.4 0.2,-0.3 0.1,-0.3 0,-0.3 -0.1,-0.3 -0.1,-0.4 0,-0.5 0,-0.4 0,-0.2 -0.1,-0.3 -0.2,-0.3 -0.1,-0.2 0,-0.2 0,-0.2 0,-0.2 0.1,-0.2 0,-0.2 0.1,-0.2 0.1,-0.4 1.8,-0.8 0,-0.2 0,-0.3 0.1,-0.6 0.1,-0.6 0.1,-0.6 0,-0.2 0.1,-0.4 0.1,-0.3 0.1,-0.2 0.4,0 0.4,-0.1 1.5,-0.3 2.9,-0.4 0.9,-0.2 0.5,-0.2 0.3,0 0.9,-0.2 1.6,-0.2 0.2,-0.1 1.8,-0.2 0,-0.4 0,-0.2 0,-0.2 0,-0.3 0,-0.2 -0.1,-0.2 0.1,-0.1 0,-0.2 0.1,-0.2 0.2,-0.4 0,-0.1 -0.1,-0.1 -0.1,-0.1 -0.1,-0.1 -0.2,-0.1 -0.2,-0.2 -0.2,-0.1 -0.2,-0.2 -0.1,-0.1 0,-0.1 0,-0.2 0.2,-0.1 0.2,-0.2 0.2,-0.1 0.3,-0.2 0.2,-0.2 0.1,-0.2 0.1,-0.2 0,-0.1 0,-0.2 0,-0.2 -0.1,-0.2 0,-0.2 0,1.5 0,-0.3 0,-0.2 0,-0.3 0,-0.2 0,-0.2 0,-0.2 -0.1,-0.2 -0.1,-0.2 -0.9,-0.2 -0.2,-0.3 -0.3,-0.3 -0.2,-0.4 -0.1,-0.2 -0.1,-0.1 -0.1,-0.2 0,-0.2 0,-0.2 0,-0.2 0.1,-0.1 0.2,-0.1 0.2,-0.2 0.2,-0.1 0.2,-0.3 0.1,-0.1 0.2,-0.2 0,-0.1 0.1,-0.1 0.1,-0.1 0.2,-0.1 0.2,-0.1 0.1,-0.1 0.1,-0.1 0.2,-0.2 0.2,-0.2 0.1,-0.2 0,-0.3 -0.1,-0.2 -0.1,-0.3 -0.1,-0.2 -0.2,-0.2 -0.2,-0.2 -0.1,-0.2 -0.1,-0.2 0,-0.2 0,-0.1 0.1,-0.2 0.2,-0.1 0.1,-0.2 0.1,-0.1 0,-0.1 0,0.3 -0.1,-0.1 -0.1,-0.2 -0.1,-0.1 0,-0.1 0,-0.1 0,-0.2 0,-0.2 0.1,-0.3 0.1,-0.3 0.1,-0.3 0.1,-0.3 0.1,-0.4 0.2,-0.4 0.1,-0.3 1.2,-0.2 1.4,-0.3 1.4,-0.3 2.8,-0.2 1.8,-40.1 0,-0.3 0,-0.1 -0.2,-1.9 -0.2,-1.5 -0.1,-1.2 -0.2,-1.3 -0.1,-0.9 -0.2,-2.1 -0.2,-1.2 -0.1,-0.2 0,-0.3 -0.3,-0.9 0,-2.3 -0.4,-1.2 -0.2,-1.5 0.1,0 0.3,-0.7 0,-1.1 0.5,0.1 0,-2 0,-0.1 -0.7,-0.1 -2.5,0 -0.1,-0.6 -0.3,-1.8 -0.1,-1.5 -0.2,-1.8 0,-0.4 -0.1,-1.7 0,-1.1 -0.2,-0.9 -0.1,-0.4 -0.3,-1.6 -0.1,-1 -0.1,-0.8 -0.1,-0.2 -1.9,-3.5 0.2,-0.2 0.1,-0.2 0.1,-0.3 0,-0.2 0,-0.1 0,-0.2 -0.1,-0.2 -0.1,-0.1 -0.2,-0.2 -0.1,-0.3 0,-0.2 0,-0.2 0.1,-0.2 0.1,-0.2 0.2,-0.2 0.2,-0.1 0.2,-0.1 0.2,-0.1 0.2,-0.1 0.2,-0.2 0.1,-0.1 0.1,-0.2 0,-0.2 0,-0.2 0,-0.2 0,-0.3 0,-0.3 -0.1,-0.3 -0.1,-0.5 0,-0.3 0,-0.4 0,-0.4 0,-0.3 0,-0.3 0.2,-0.3 0.2,-0.3 0.1,-0.3 0.3,-0.3 0.2,-0.2 0.2,-0.3 0.2,-0.5 0.3,-0.4 0.2,-0.4 0.2,-0.4 0.1,-0.2 0,-0.3 0,-0.3 0,-0.3 0,-0.3 0.1,-0.3 0.1,-0.3 0.1,-0.3 0.2,-0.3 0.2,-0.3 0.3,-0.5 0.1,-0.4 0.1,-0.4 0,-0.2 0,-0.2 -0.1,-0.2 -0.1,-0.3 0,-0.2 -0.1,-0.3 -0.1,-0.3 -0.3,-0.4 -0.2,-0.4 -0.3,-0.5 -0.6,0.7 -0.2,-0.5 -0.1,-0.3 -0.1,-0.4 0,-0.3 0,-0.2 0.1,-0.3 0.1,-0.2 0.1,-0.2 0,-0.2 0,-0.2 -0.1,-0.1 -0.1,-0.1 -0.2,-0.2 -0.3,-0.2 -0.4,-0.3 -0.3,-0.3 -0.2,-0.3 -0.2,-0.3 -0.3,-0.5 -0.1,-0.3 -0.1,-0.3 0,-0.4 0.1,-0.3 0,-0.2 0.1,-0.3 0.1,-0.2 0.1,-0.2 0.3,-0.2 0.2,-0.2 0.4,-0.2 0.2,-0.2 0.2,-0.3 0.2,-0.3 0.2,-0.3 0.2,-0.4 0.2,-0.3 0.1,-0.3 0,-0.3 0.1,-0.3 0,-0.4 0,-0.3 0.1,-0.3 0.2,-0.3 0.3,-0.4 0.4,-0.4 0.4,-0.5 0.3,-0.4 0.1,-0.1 0,-0.1 0,-0.1 0,-0.1 0,-0.1 0,-0.2 -0.1,-0.4 -0.1,-0.5 0.1,-0.3 0.2,-0.3 0.5,-0.6 0.5,-0.6 0.3,-0.3 0.3,-0.5 0.1,-0.2 0.1,-0.2 0.1,-0.2 0,-0.2 0,-0.2 0,-0.2 0,-0.3 0.1,-0.3 0.1,-0.3 0.2,-0.3 0.2,-0.3 0.2,-0.3 0.1,-0.1 0.1,-0.1 0.2,0 0.2,0 0.2,0 0.2,0 0.2,0 0.3,-0.1 0.2,-0.1 0.2,-0.1 0.4,0 0.3,0 0.4,0 0.7,-0.1 0.2,-0.1 0.2,-0.1 0.1,-0.1 0.1,-0.3 0.1,-0.2 0,-0.3 -0.1,-0.4 0,-0.4 0,-0.3 0.1,-0.3 0.1,-0.2 0.2,-0.1 0.3,-0.2 0.2,-0.1 0.2,0 0.4,-0.1 0.3,-0.1 0.2,-0.1 0.2,-0.2 0.2,-0.2 0.2,-0.2 0.3,-0.1 0.2,-0.1 0.2,-0.2 0.3,-0.2 0.3,-0.3 0.4,-0.3 0.4,-0.4 0.3,-0.2 0.3,-0.2 0.3,-0.1 0.3,0 1.3,-0.2 0.5,0 0.2,0 0.2,0 0.3,-0.1 0.6,-0.3 0.5,-0.6 0.2,-0.2 0.1,-0.2 0.1,-0.1 0.1,-0.1 0.2,-0.1 0.2,-0.1 0.2,-0.1 0.3,-0.2 0.1,-0.1 0.1,-0.1 0,-0.1 0,-0.1 0,-0.1 -0.1,-0.1 -0.1,-0.1 -0.4,-0.5 -0.1,-0.2 -0.4,-0.5 0,-0.1 -0.1,-0.2 -0.1,-0.2 0,-0.2 0,-0.2 0,-0.2 0,-0.2 0.1,-0.2 0,-0.2 0.1,-0.4 0,-0.2 0,-0.2 0,-0.3 -0.1,-0.3 -0.1,-0.4 -0.2,-0.3 -0.1,-0.2 0,-0.4 0,-0.3 0,-0.4 0,-0.5 0,-0.5 0,-0.4 0,-0.2 -0.1,-0.2 -0.1,-0.2 -0.1,-0.2 -0.1,-0.2 -0.3,1.2 -0.2,-0.2 -0.1,-0.2 -0.1,-0.1 -0.2,-0.2 -0.1,-0.2 -0.1,-0.1 -0.1,-0.3 -0.1,-0.4 -0.3,-0.7 -0.1,-0.3 -0.1,-0.3 0,-0.1 -0.2,-0.5 -0.1,-0.4 -0.1,-0.3 0,-0.3 0,-0.2 0,-0.3 0.1,-0.5 0,-0.2 0,-0.2 0,-0.2 0,-0.3 0.1,-0.4 0.1,-0.4 0,-0.1 0.1,-0.1 0.1,-0.1 0.1,-0.1 0.1,-0.1 0.1,-0.2 0.1,-0.1 0,-0.2 0.1,-0.5 0.1,-0.5 0.1,-0.3 0.1,-0.5 0,-0.5 0,-0.3 0,-0.3 0,-0.2 0,-0.2 -0.1,-0.2 -0.1,-0.1 -0.1,-0.1 0,-0.1 0,-0.2 0,-0.3 0.1,-0.2 0.1,-0.1 0.2,-0.2 0.2,-0.2 0.3,-0.5 0,-0.2 0,-0.1 0,-0.2 0,-0.1 0,-0.1 0,-0.2 -0.1,-0.2 -0.1,-0.2 -0.1,-0.3 0,-0.2 0,-0.2 0,-0.2 0,-0.3 0.1,-0.4 0,-0.6 0.1,-0.7 0.1,-0.3 0.1,-0.3 0.2,-0.3 0.2,-0.1 0.2,-0.2 0.1,-0.1 0.1,0 0.2,-0.1 0.2,-0.1 0.1,-0.1 0.2,-0.1 0.2,-0.2 0.1,-0.2 0.1,-0.2 0.2,-0.6 0.1,-0.2 0.1,-0.3 0,-0.3 0,-0.2 -0.1,-0.4 -0.1,-0.2 -0.1,-0.4 0,-0.2 0.1,-0.2 0.1,-0.2 0.2,-0.2 0.1,-0.2 0.1,-0.2 0.1,-0.4 0,-0.2 -0.1,-0.3 -0.2,-0.3 -0.2,-0.3 -0.4,-0.5 -0.3,-0.5 -0.3,-0.5 -0.2,-0.6 -0.2,-0.5 -0.2,-0.3 -0.3,-0.5 -0.3,-0.5 -0.2,-0.2 -0.2,-1.1 -0.1,-0.4 -0.1,-0.5 0,-0.2 0,-0.2 0.1,-0.2 0.2,-0.3 0.2,-0.4 0.1,-0.3 0.1,-0.2 0.1,-0.3 0.1,-0.4 0.2,-0.3 0.2,-0.5 0.1,-0.3 0.1,-0.2 0.1,-0.3 0.1,-0.2 0.1,-0.1 0.2,-0.2 0.2,-0.1 0.2,-0.1 0.3,0 0.3,0 0.2,0 0.2,0.1 0.4,0.1 0.2,0.1 0.3,0.1 0.5,-0.1 0.5,-0.2 0.3,-0.1 0.3,-0.2 0.2,-0.2 0.1,-0.2 0.1,-0.2 0,-0.3 0,-0.3 0,-0.2 -0.1,-0.3 -0.1,-0.3 -0.1,-0.3 -0.3,-0.5 -0.1,-0.3 -0.3,-0.6 -0.2,-0.6 -0.2,-0.3 -0.2,-0.2 -0.2,-0.2 -0.2,-0.2 -0.2,-0.4 -0.3,-0.5 -0.3,-0.5 0,-0.2 0,-0.2 0,-0.2 0.1,-0.5 0.1,-0.4 0,-0.6 0,-0.5 -0.1,-0.8 -0.1,-0.6 -0.1,-0.9 -0.1,-0.9 0,1.1 0,-0.5 0.1,-0.5 0.2,-0.4 0.2,-0.6 0.1,-0.5 0.1,-0.3 0.2,-0.2 0.2,-0.3 0.1,-0.2 0,-0.2 0,-0.3 0.3,-1 0.1,-0.4 0.1,-0.4 0.1,-0.6 0.2,-0.7 0.1,-0.7 0.9,-2 0.1,-0.4 0.4,-1.4 0.2,-0.7 0.1,-0.9 0.1,-0.9 -0.1,-0.8 0,-0.5 0.1,-0.3 0,-0.2 0.1,-0.2 0.1,-0.1 0,0 0.1,-0.1 0.5,-0.3 0.6,-0.7 0.2,-0.3 0.1,-0.3 0.1,-0.4 0.4,-0.7 0.1,-0.5 0.1,-0.7 0.4,-1.1 0.2,-0.7 0.1,-0.5 0.3,-0.5 0.4,-0.9 0.4,-0.7 0.5,-0.7 0.3,-0.3 0.3,-0.2 0.4,-0.2 0.3,-0.1 0.2,0 0.4,0 0.3,-0.1 0.2,-0.1 0.2,0 0.4,-0.1 0.4,-0.2 0.4,-0.2 0.2,-0.2 0.3,-0.3 0.6,-0.5 0.7,-0.6 0.3,-0.3 0.4,-0.4 0.5,-0.4 0.3,-0.3 0.2,-0.2 0.3,-0.4 0.4,-0.5 0.4,-0.5 0.2,-0.3 0.3,-0.3 0.1,-0.2 0.3,-0.4 0.3,-0.5 0.2,-0.2 0.2,-0.3 0.3,-0.3 0.3,-0.3 0.3,-0.4 0.1,-0.2 0.1,-0.1 0.1,-0.2 0.1,-0.2 0.1,-0.2 0.1,-0.2 0.1,-0.2 0.1,-0.2 0.1,-0.3 0,-0.2 0,-0.2 0,-0.2 0.1,-0.1 0.1,-0.1 0.1,-0.2 0.1,-0.2 0.1,-0.3 0.2,-0.3 0.2,-0.3 0.2,-0.2 0.2,-0.2 0.2,-0.2 0.3,-0.4 0.2,-0.2 0.2,-0.3 0.1,-0.1 0,-0.1 0,-0.1 0,-0.1 0,-0.1 0.1,-0.1 0.1,-0.2 -0.1,-0.1 -0.2,-0.2 -0.3,-0.3 -0.4,-0.5 -0.3,-0.4 -0.3,-0.4 -0.1,-0.4 0,-0.3 0,-0.2 0.1,-0.4 0.3,-0.4 0.3,-0.6 0.4,-0.5 0.2,-0.3 0.2,-0.2 0.1,-0.2 0.1,-0.3 0.1,-0.3 0.1,-0.3 0.1,-0.4 0.1,-0.6 0,-0.4 0.1,-0.5 0.1,-0.3 0,-0.3 0.1,-0.3 0,-0.3 0,-0.1 0,-0.2 0,-0.1 0.2,-0.2 0,-0.3 0.1,-0.5 0.3,-0.5 0.2,-0.2 0.1,-0.2 0.1,-0.2 0.2,-0.4 0,-0.5 0.2,-0.6 0,-0.3 0.1,-0.4 0.4,-0.5 0.3,-0.3 0.3,-0.3 0.4,-0.3 0.7,-0.3 0.8,-0.5 0.6,-0.2 0.4,-0.6 0.4,-0.4 0.5,-1.2 0.4,-1.2 0.5,-0.7 0.9,-1.3 0.7,-0.8 0.2,-0.3 0.5,-1.1 0,-0.3 0.4,-0.8 0.4,-0.6 0.4,-0.5 0.1,-0.3 0.4,-0.3 0.3,-0.2 0.6,-0.2 0.6,-0.1 0.6,0 0.5,-0.1 0.3,-0.1 0.2,-0.2 0.2,-0.3 0.3,-0.4 0.3,-0.5 0.2,-0.5 0,-0.2 0.3,-0.8 0.3,-0.8 0.3,-1.2 0.5,-2 0.2,-0.7 0.1,-0.2 0,0 0.4,-0.7 0.4,-0.4 0.8,-0.7 0.4,-0.4 1.2,-0.8 0.5,-0.3 0.3,-0.2 0.7,-0.3 0.5,-0.5 0.2,-0.3 0,-0.6 0.1,-0.5 0.1,-0.2 1.2,-2 1.1,-1.2 1.4,-1.1 1.7,-1.5 1.5,-1.4 1.6,-0.5 1.3,0.3 0.2,0 0.5,0.4 0.8,-1.1 0.2,-0.1 0.6,0.2 0.3,0.6 0.3,-0.2 1.6,1.4 0.5,-0.1 0.6,0.3 1.7,-0.4 0.5,-0.4 0.7,0.5 1.4,-0.2 0.4,-0.8 0.1,-0.1 0.6,0 0.2,-0.4 1.1,-0.4 1.4,-0.2 -0.5,-0.5 0.1,-1.2 -0.5,-0.5 -0.4,-0.3 0.1,-1.2 0.3,-0.8 0.7,-1.2 0.3,-1 0.5,-0.7 0.6,-0.2 0.2,-0.1 0.4,-0.5 0.6,-0.6 0.1,-0.9 0.4,-0.7 0.9,-0.4 0.1,-0.3 0.9,-0.5 0.4,-0.3 0.8,0 1.1,-0.1 1.1,0.2 0.8,0.3 1.3,0.1 1.2,-0.2 0.7,-0.2 23.6,-8.8 27.7,-13.5 3.2,21.8 z"
       inkscape:connector-curvature="0"
       class="DEP_08 ZON_03" /></g></svg>