<?xml version="1.0" encoding="UTF-8" standalone="no"?>
<!-- Created with Inkscape (http://www.inkscape.org/) -->

<svg
   xmlns:dc="http://purl.org/dc/elements/1.1/"
   xmlns:cc="http://creativecommons.org/ns#"
   xmlns:rdf="http://www.w3.org/1999/02/22-rdf-syntax-ns#"
   xmlns:svg="http://www.w3.org/2000/svg"
   xmlns="http://www.w3.org/2000/svg"
   xmlns:sodipodi="http://sodipodi.sourceforge.net/DTD/sodipodi-0.dtd"
   xmlns:inkscape="http://www.inkscape.org/namespaces/inkscape"
   width="262.20471"
   height="248.03149"
   viewBox="0 0 262.20458 248.03138"
   id="SvgDepartamento"
   version="1.1"
   inkscape:version="0.91 r13725"
   sodipodi:docname="DEP_01.svg">
  <defs
     id="defs3404" />
  <sodipodi:namedview
     id="base"
     pagecolor="#ffffff"
     bordercolor="#666666"
     borderopacity="1.0"
     inkscape:pageopacity="0.0"
     inkscape:pageshadow="2"
     inkscape:zoom="1.4"
     inkscape:cx="18.576387"
     inkscape:cy="129.24005"
     inkscape:document-units="px"
     inkscape:current-layer="layer1"
     showgrid="false"
     inkscape:window-width="1366"
     inkscape:window-height="705"
     inkscape:window-x="-8"
     inkscape:window-y="-8"
     inkscape:window-maximized="1"
     units="px" />
  <metadata
     id="metadata3407">
    <rdf:RDF>
      <cc:Work
         rdf:about="">
        <dc:format>image/svg+xml</dc:format>
        <dc:type
           rdf:resource="http://purl.org/dc/dcmitype/StillImage" />
        <dc:title />
      </cc:Work>
    </rdf:RDF>
  </metadata>
  <g
     inkscape:label="Capa 1"
     inkscape:groupmode="layer"
     id="layer1"
     transform="translate(0,-804.33125)">
    <path
       inkscape:connector-curvature="0"
       style="fill:#b3b3b3"
       d="m 151.36796,816.3182 c 8.175,-6.1375 18.5625,-8.3125 28.6125,-8.075 7.7625,4.2625 14.2,10.625 21.625,15.4875 10.675,1.625 21.525,1.55 32.1875,3.2125 2.3375,0.5125 4.9,1.0125 6.725,2.675 1.175,4.1375 1.1,8.9 4.1125,12.3125 3.4125,4.0875 9.0625,4.725 13.325,7.475 2.9875,4.225 1.5125,9.475 0.6875,14.125 -3.625,3.0125 -8.25,5.525 -9.75,10.3 -3.9875,11.4125 -6.0875,23.5 -11.4625,34.41251 -5.0875,-1.77501 -10.3125,-3.23751 -15.7,-3.65001 -1.5625,2.575 -3.1375,5.15001 -4.6375,7.76251 -4.0875,2.0625 -8.6125,2.8625 -13.1625,2.8375 0.0625,5.85 -1.225,12.3625 2.5375,17.4125 3.3,5 5.9375,10.975 3.5125,16.9375 -6.65,6.675 -15.45,13.95 -15.0375,24.2875 -0.0125,7.025 3.05,13.6375 2.9,20.7 -2.9625,0.625 -5.925,1.2875 -8.8875,1.9125 -0.05,6.17499 0.4125,12.53749 -1.775,18.44999 -2.6125,7.2125 -6.5625,13.9125 -8.425,21.4125 -1.5875,5.725 -3.8375,12.7 -10.075,14.7875 -5.65,0.5625 -10.725,-2.575 -15.075,-5.775 -4.7625,-3.6125 -10.8875,-4.6375 -15.75,-8.0125 -4,-3.6625 -6.9125,-8.325 -9.6375,-12.95 -11.65,7.05 -22.4125,15.95 -30.449991,27 -11.112503,-4.1875 -21.437503,-10.2875 -31.850003,-15.95 -6.9,-3.7125 -15.0625,-3.925 -21.9375,-7.725 -10.4625,-5.7125 -21.7875,-9.675 -32.175,-15.5375 -1.9624997,-0.9 -3.0499997,-2.85 -3.3874997,-4.925 -2.8,-17.54999 -7.69999992,-35.17499 -5.1749999,-53.06249 3.9499999,-6.6875 10.9749996,-11.325 13.4624996,-18.925 2.25,-4.9875 3.075,-11.2125 7.95,-14.4625 6.3875,-4.525 13.125,-8.5125 19.5875,-12.91251 1.6375,-1.175 3.4375,-2.4 4.1125,-4.3875 2.1875,-5.725 3.275,-11.8 5.4125,-17.525 0.6625,-2.05 2.8,-2.925 4.475,-3.975 14.5,-7.6 28.35,-16.4125 43.275004,-23.1875 8.08749,-3.4625 13.32499,-10.7875 19.52499,-16.6625 8.4125,-7.6125 15.725,-16.2875 22.0625,-25.6875 2.75,-0.0375 5.5,-0.075 8.2625,-0.1125 z"
       id="DEP_01" />
  </g>
</svg>
