<?xml version="1.0" encoding="UTF-8" standalone="no"?>
<!-- Generator: Adobe Illustrator 16.0.0, SVG Export Plug-In . SVG Version: 6.00 Build 0)  -->

<svg
   xmlns:dc="http://purl.org/dc/elements/1.1/"
   xmlns:cc="http://creativecommons.org/ns#"
   xmlns:rdf="http://www.w3.org/1999/02/22-rdf-syntax-ns#"
   xmlns:svg="http://www.w3.org/2000/svg"
   xmlns="http://www.w3.org/2000/svg"
   xmlns:sodipodi="http://sodipodi.sourceforge.net/DTD/sodipodi-0.dtd"
   xmlns:inkscape="http://www.inkscape.org/namespaces/inkscape"
   version="1.1"
   id="SvgMunicipio"
   x="0px"
   y="0px"
   width="458.113px"
   height="1000.016px"
   viewBox="0.007 0.011 458.113 1000.016"
   enable-background="new 0.007 0.011 458.113 1000.016"
   xml:space="preserve"
   inkscape:version="0.91 r13725"
   sodipodi:docname="MUN_ID0901.svg"><metadata
     id="metadata10"><rdf:RDF><cc:Work
         rdf:about=""><dc:format>image/svg+xml</dc:format><dc:type
           rdf:resource="http://purl.org/dc/dcmitype/StillImage" /></cc:Work></rdf:RDF></metadata><defs
     id="defs8" /><sodipodi:namedview
     pagecolor="#ffffff"
     bordercolor="#666666"
     borderopacity="1"
     objecttolerance="10"
     gridtolerance="10"
     guidetolerance="10"
     inkscape:pageopacity="0"
     inkscape:pageshadow="2"
     inkscape:window-width="682"
     inkscape:window-height="480"
     id="namedview6"
     showgrid="false"
     inkscape:zoom="0.23599623"
     inkscape:cx="229.0565"
     inkscape:cy="500.008"
     inkscape:window-x="0"
     inkscape:window-y="0"
     inkscape:window-maximized="0"
     inkscape:current-layer="svg" /><g
     id="g3"><path
       id="MUN_0901"
       d="m 458.12,22.009 -1.174,1.71 -0.107,0.107 -1.711,1.174 0,0 -2.029,1.389 0,0 -2.672,1.603 0,0 -1.496,1.283 0,0 -1.389,0.534 0,0 -0.643,0.427 0,0.107 -0.105,1.817 0,0.107 1.176,2.351 0,0 1.176,1.069 0.105,0 0.748,-0.107 0,0 0.748,-0.32 0.107,0 0.533,-0.962 0,0 0.533,-1.496 0,-0.107 0.535,-1.282 0,0 0.641,-0.855 0,0 0.535,-0.321 0.107,0 0.854,0.214 0,0 0.428,0.427 0.105,0.107 0.322,0.855 0,0.107 0.213,1.175 0,0 0.105,2.672 0,0 0,1.923 0,0 0.215,2.672 -0.107,0 -0.748,1.816 0,0.107 -0.32,0.428 0,0 -4.486,3.633 -0.107,0.107 -0.535,1.068 0,0.107 0.322,2.458 0,0 1.496,2.885 0,0.107 -0.107,1.282 0,0 -0.748,2.672 0,0 -0.641,2.458 0,0 -0.107,0.855 0,0 0.107,2.031 0,0 0.213,0.748 -0.105,0 -0.32,1.175 0,0.107 -0.643,0.748 0,0 -1.604,2.137 -0.107,0 -0.426,1.923 0,0.107 0,1.603 0,0 0.533,1.817 0,0.107 0.215,0.427 0,0 -0.535,1.496 0,0.107 -1.068,1.389 0,0 -1.924,2.137 0,0 -1.389,1.817 0,0 -2.672,4.167 0,0 -2.885,3.313 0,0.107 -2.244,2.137 0,0 -0.428,0.427 -0.107,0 -0.213,0.535 0,0.107 0,0.961 0,0 0,0.962 0,0 0,1.603 0,137.748 0,36.334 0,2.992 0,6.091 -80.148,171.518 78.225,97.675 -3.1,6.625 0,0 0.643,11.221 0,0 0,7.054 0,0 0,1.496 0,0 -0.32,2.352 0,0 -0.322,2.672 0,0 -0.854,5.343 0,0 -0.105,0.534 0,0 -0.855,2.458 -0.105,0 -3.313,3.42 -2.457,2.563 0,0 -2.992,2.673 0,0.105 2.885,6.306 0,0 -1.604,7.48 0,0 -0.643,5.129 0,0.107 0.43,0 0,0 3.205,1.175 0.105,0 0.428,0.642 0.107,0 0.854,2.672 0,0 0,1.925 0,0.105 -0.428,2.564 0,0 0,0.748 0,0 0.215,1.176 0,0 0.32,2.886 0,0 0,1.604 0,0 -0.215,1.281 0,0 -0.533,1.711 0,0 -0.428,1.924 -1.391,7.479 0,0 -1.066,5.343 0,0 -1.07,3.313 0,0 -1.281,7.053 0,0 0,0.962 0,0 0.32,2.458 0,0 -0.641,8.655 0,1.71 -2.031,68.18 -1.496,49.8 -0.107,3.313 -1.281,44.99 -1.924,64.226 -1.068,2.352 -0.105,0 -2.244,1.604 0,0 -3.1,1.282 0,0 -1.068,0.748 -0.105,0 -0.963,1.496 0,0 -3.74,1.924 -0.107,0 -2.35,-3.1 0,0 -4.811,-1.925 -0.105,0.107 0,3.42 0,0 0.213,2.992 0,0 -0.641,2.671 0,0 0.641,2.352 0,0.106 0.215,1.604 0,0 -0.855,2.243 -0.105,0.106 0.641,2.992 0.107,0 2.029,2.672 0,0.105 -0.32,3.42 -0.105,0.106 -1.068,1.817 0,0 -0.428,2.243 0,0 -0.963,1.177 0,0.105 0.643,1.816 0,0 0.748,1.176 0.105,0 1.604,-0.214 0,0 2.779,1.924 0,0 2.35,2.778 0,0.105 -0.32,1.71 0,0 -0.105,2.138 0,0 0.215,3.42 0,0 -1.176,2.886 0,0.106 -0.428,4.167 0,0 -0.963,2.353 -0.105,0 -5.451,2.458 0,0 -1.496,0.641 -0.105,0.107 -0.32,1.815 0,0.106 0.428,1.604 0,0.105 -0.643,1.282 0,0 -1.496,0.962 0,0 -1.496,0.748 -7.479,-6.305 -2.779,-2.03 -5.236,-0.962 -4.701,0.533 -5.449,1.068 -1.283,1.71 -1.604,1.816 -1.066,1.39 -0.215,2.564 -0.215,1.924 -0.748,2.138 -1.176,1.282 -0.318,0.428 -2.674,1.816 -2.242,1.389 -3.955,3.74 -6.305,5.344 -6.84,7.16 -3.525,2.671 -3.422,1.176 -3.418,-0.641 -4.168,-1.176 -3.635,-0.962 -1.709,-0.106 -1.709,0 -3.635,-1.176 -2.564,-0.643 -2.352,-1.815 -1.816,-2.139 -1.176,-0.533 -1.709,0 -1.068,0.533 -0.854,1.925 -1.07,0.962 -3.738,0.854 -4.596,0.535 -8.549,-1.604 -2.244,-0.32 -4.275,-2.886 -3.1,-3.42 -1.924,-6.52 0.535,-7.694 1.389,-5.771 2.139,-8.869 -0.535,-3.42 -0.961,-2.778 -2.031,-0.748 -4.061,0.215 -5.236,0.961 -4.916,-2.138 -8.441,-3.42 -4.701,-2.244 -3.1,-2.351 0.748,-4.274 -0.105,-6.306 -0.643,-5.343 0,-2.244 -2.137,-2.353 -3.527,-3.313 -3.42,-3.526 -2.992,0 -3.848,0.962 -2.03,0.534 -1.067,-0.214 -0.962,-0.105 -1.496,-2.139 -1.176,-3.1 -2.03,-2.564 -2.03,-1.281 -3.206,-1.068 -3.206,-1.39 -2.351,-3.313 -1.176,-6.731 0.642,-9.512 1.71,-5.022 0.213,-3.1 -0.105,-2.672 -1.068,-1.815 -1.496,-1.391 -1.496,-0.641 -1.496,0.534 -1.816,-0.854 -4.381,-0.106 -2.887,0.962 -2.029,1.603 -1.604,2.565 -1.817,2.351 -1.709,1.71 -1.176,0.748 -2.138,-0.642 -2.03,-1.389 -2.563,-3.206 -1.391,-1.71 -2.991,-2.138 -2.886,-1.816 -1.496,-0.748 -2.243,-0.534 -1.391,-0.428 -2.778,-1.176 -3.1,-1.495 -4.595,-1.925 -2.992,-1.71 -3.206,-5.983 -2.563,-3.74 -2.673,-4.061 -3.525,-0.643 -2.672,1.71 -1.71,1.391 -1.176,0.961 -2.03,-0.854 -3.634,0.748 -2.991,-0.214 -2.139,0.642 -2.777,0.748 -2.778,-0.962 -2.778,-1.496 -1.816,-0.962 -2.03,-2.886 -1.71,-2.351 -1.068,-3.42 -0.641,-0.748 -1.924,-3.206 -1.068,-1.496 -2.244,-0.961 -2.778,0.427 -1.924,0.214 -1.924,0 -1.496,-0.641 -2.352,-1.817 -1.604,-0.748 -9.725,-8.869 -3.74,-3.954 -2.992,-3.739 -2.029,-2.139 -8.336,-6.839 -3.313,-2.778 -5.13,-3.526 -1.923,-0.748 -3.313,0.748 -3.847,0 -2.886,0.106 -4.274,-1.495 -2.563,-2.03 -2.887,-2.458 -2.243,-2.672 -2.778,-3.313 -1.496,-4.062 -1.068,-3.313 -2.138,-4.273 -2.137,-2.992 -1.496,-1.176 -0.535,-2.244 -0.748,-2.778 -0.641,-2.03 -1.177,-2.138 -1.815,-5.343 -2.992,-4.597 -3.1,-5.343 -2.886,-5.236 3.74,-5.13 2.352,-7.479 0,-6.305 0.854,-7.694 3.633,-9.083 2.244,-6.412 8.764,-13.893 1.709,-5.558 0,-6.198 1.925,-6.625 2.886,-4.062 3.313,-2.563 0.215,-0.107 5.877,-4.381 11.222,-10.9 6.411,-6.092 2.777,-4.915 0,-2.565 -2.777,-3.099 0.534,-3.954 -0.214,-5.45 0,0 0.534,-2.991 0,0 0,-3.635 0,0 0.854,-5.983 0,0 -0.106,-2.352 0,0 -0.642,-1.71 0,-0.105 1.496,-4.916 0,0 1.496,-6.412 0,0 1.496,-3.42 0,0 0,0 2.243,-8.655 1.177,-4.488 -0.429,-0.533 -1.496,-1.925 -0.428,-1.496 -0.854,-1.71 -3.954,-3.42 -3.74,1.282 -7.373,2.031 -3.954,-2.031 -3.74,-0.105 -1.816,-2.03 -1.282,-1.817 -3.526,-5.021 -3.099,-3.848 -3.206,-3.525 -2.244,-2.244 -1.39,-0.962 -0.962,-0.534 -1.175,-0.321 -1.604,1.391 -3.525,3.739 -3.635,0.534 0,-0.105 -0.427,-1.069 0,0 -1.176,-2.885 -1.282,-3.101 0,0 1.068,-3.419 0,0 0.642,-1.604 0,0 0.641,-1.176 0,0 1.496,-2.244 0,0 1.068,-2.457 0,0 0.855,-2.672 0,0 0.962,-2.458 0,0 1.067,-2.458 0,0 1.282,-2.778 0,0 0.321,-0.854 0,0 0.748,-2.672 0,0 1.389,-5.449 0.534,-2.458 0,0 0.321,-2.564 0,0 0.105,-7.374 0,0 0.106,-3.526 0,0 0,-3.42 0,0 0.428,-0.854 0,0 0.854,-2.992 0,0 0.32,-1.068 0,0 0.214,-1.604 0,0 0.214,-2.03 0,0 0.106,-1.496 0,-0.214 0,0 0,-2.03 0,0 -0.214,-2.458 0,-0.105 0.428,-2.244 0,-0.107 1.71,-2.029 0,0 0.962,-1.282 0,0 2.03,-1.282 0.105,-0.106 -0.105,-1.068 0,0 -0.321,-2.244 0,0 -0.319,-2.351 0,0 -0.106,-1.817 0,0 0.106,-1.923 0.106,-0.107 1.389,-1.924 0,-0.105 -1.495,-1.177 0,0 -1.068,-1.389 -0.107,0 -0.534,-1.496 0,-0.106 -0.105,-1.39 0,0 0.105,-5.771 8.217,-1.925 6.092,-0.748 0.106,0 1.067,-1.068 0.855,-5.984 0,0 -0.534,-5.021 0,-0.106 0.641,-12.396 0,-0.106 0,-0.321 -0.105,-0.854 -1.496,-9.832 0,0 -0.32,-6.52 0.106,0 0.962,-1.815 0,0 5.664,-7.053 0,0 6.519,-5.664 0,-0.107 -1.176,-2.885 0,0 -3.42,-4.168 0,0 -0.961,-2.03 0,-0.106 3.419,-4.81 0,0 2.672,-5.771 0.105,0 5.45,-5.236 0.107,-0.106 1.175,-9.189 0,0 1.283,-1.282 0.105,0 7.48,0.213 0,0 4.273,-0.854 0,-0.106 2.353,-1.924 0,0 2.885,-2.672 0,0 3.849,-4.168 0,-0.106 2.243,-2.458 0.106,0 4.061,-1.496 3.42,-1.39 0.107,0 1.496,-0.748 0,0 1.816,-0.427 0,0 2.029,-0.321 0,0 2.353,-1.709 0.105,0 1.391,-1.71 0,0 1.175,-2.03 0,0 0.748,-2.564 0,0 0.748,-3.206 0,0 0.214,-2.244 0,-0.105 5.771,-3.313 0,0 3.313,-2.352 0.105,0 0.643,-0.215 0,0 3.74,-0.214 0,0 2.351,-0.213 0,0 2.458,-0.535 0,0 2.458,-0.748 0.534,-0.105 0.105,0 0.962,-1.068 0.107,-0.106 0.32,-0.962 0,0 0,-2.244 0,0 -0.32,-2.03 0,0 -0.642,-2.137 0,-0.107 -1.71,-2.563 0,0 -1.176,-2.03 0,0 -0.32,-1.068 0,0 -0.215,-1.816 0,-0.106 0,0 -0.641,-2.138 0,0 -0.428,-2.564 0,0 -0.214,-5.878 0,0 1.39,-4.595 0,0 1.71,-5.557 5.984,-1.817 0.105,-0.106 2.139,-4.809 0,0 6.091,-3.633 0,0 8.763,-4.061 0,0 5.45,-1.175 0,0 4.596,-1.924 0.106,0 6.84,-0.534 0,0 4.915,-1.282 0,0 6.092,-3.099 0,0 6.091,-3.847 0.107,0 4.702,-5.343 0,0 3.419,-4.381 0.106,0 -0.962,-4.595 0.214,0.214 0,0 1.068,-0.107 0.105,0 0.643,-0.428 0,0 2.138,-0.961 0,0 2.03,-1.283 0,0 1.923,-0.961 0.107,0 2.351,0 0,0 1.282,0.32 0,0 2.352,0.748 0.106,0 0.428,-0.213 0,0 0.32,-0.642 0,0 0.962,-0.961 0,0 0.642,-0.535 0,-0.107 0.962,0 0,-0.106 0.854,-0.642 0,0 2.244,-2.03 0,0 1.815,-1.71 0,0 1.069,-0.748 0,0 2.244,-1.603 0,0 0.534,-0.534 0,0 0.428,-0.855 0,0 0.105,-0.32 0,0 0.215,-1.924 0,0 0.319,-1.496 0,0 0.429,-0.213 0,0 0.214,-0.107 0,0 0.533,-0.428 0,0 2.244,-1.603 0,0 4.062,-2.778 2.244,-1.603 0,0 1.067,-0.748 0,0 1.391,-1.175 0,0 1.39,-1.496 0,0 1.389,-1.496 0,-0.107 0.963,-1.282 0,0 1.176,-1.71 0.105,0 0.643,-0.748 0.105,0 1.605,-1.603 0,0 0.641,-0.534 0,0 0.961,-0.962 0,0 0.428,-0.641 0,0 0.43,-0.748 0,0 0.748,-1.389 0,-0.107 0.748,-1.389 0,-0.107 0.213,-0.321 0,0 0.854,-0.748 0,0 0.32,-0.427 0,0 0.641,-1.603 0,0 1.07,-1.389 0,0 0.748,-0.855 0,0 0.641,-0.962 0,0 0.641,-0.534 11.328,-6.625 9.404,-6.732 2.029,-1.283 12.609,-7.694 12.824,-9.19 6.84,-7.908 2.992,-6.198 2.672,-9.725 1.389,-15.068 1.176,-13.251 0.963,-15.923 0,-0.118 2.777,-0.427 3.313,-0.748 0.107,0 6.84,-3.099 0,0 2.99,-1.496 0,0 0.855,-0.855 0,0 2.564,-4.168 0,0 1.816,-2.885 0,0 2.029,-2.563 0,-0.107 0.428,-0.214 0,0 1.711,-0.427 0,-0.107 4.594,-5.45 0,0 3.314,-10.58 0,0 4.381,-6.946 0.107,0 12.717,-14.854 0,0 24.365,-25.113 0.105,0 9.725,-13.679 23.512,10.366 0,0 7.053,2.564 0,0 19.662,4.381 0,0 13.573,4.686 z"
       inkscape:connector-curvature="0"
       class="DEP_09 ZON_03" /></g></svg>