<?xml version="1.0" encoding="UTF-8" standalone="no"?>
<!-- Generator: Adobe Illustrator 19.2.0, SVG Export Plug-In . SVG Version: 6.00 Build 0)  -->

<svg
   xmlns:dc="http://purl.org/dc/elements/1.1/"
   xmlns:cc="http://creativecommons.org/ns#"
   xmlns:rdf="http://www.w3.org/1999/02/22-rdf-syntax-ns#"
   xmlns:svg="http://www.w3.org/2000/svg"
   xmlns="http://www.w3.org/2000/svg"
   xmlns:sodipodi="http://sodipodi.sourceforge.net/DTD/sodipodi-0.dtd"
   xmlns:inkscape="http://www.inkscape.org/namespaces/inkscape"
   version="1.1"
   id="SvgMunicipio"
   x="0px"
   y="0px"
   viewBox="0 0 979.2 1000"
   style="enable-background:new 0 0 979.2 1000;"
   xml:space="preserve"
   inkscape:version="0.91 r13725"
   sodipodi:docname="MUN_ID0909.svg"><metadata
     id="metadata10"><rdf:RDF><cc:Work
         rdf:about=""><dc:format>image/svg+xml</dc:format><dc:type
           rdf:resource="http://purl.org/dc/dcmitype/StillImage" /></cc:Work></rdf:RDF></metadata><defs
     id="defs8" /><sodipodi:namedview
     pagecolor="#ffffff"
     bordercolor="#666666"
     borderopacity="1"
     objecttolerance="10"
     gridtolerance="10"
     guidetolerance="10"
     inkscape:pageopacity="0"
     inkscape:pageshadow="2"
     inkscape:window-width="682"
     inkscape:window-height="480"
     id="namedview6"
     showgrid="false"
     inkscape:zoom="0.236"
     inkscape:cx="489.60001"
     inkscape:cy="500"
     inkscape:window-x="0"
     inkscape:window-y="0"
     inkscape:window-maximized="0"
     inkscape:current-layer="svg" /><g
     id="g3"><path
       id="MUN_0909"
       d="m 904.2,14.2 2.8,15.3 3.9,17.7 7.3,15 13.5,21.6 16,23.4 8.7,14.8 7.6,15.4 3.7,9 2.8,5.5 0.7,5.2 -0.5,3.6 -3.3,3 -9.8,5.9 -8.4,5.4 -2.9,2.9 -2.3,3.5 -2.4,10.5 -0.7,9.2 -0.1,8.4 0.6,5.3 2.2,7.1 4.5,7.3 5,6 6.9,9.5 2.2,13.3 3,1.8 -2.5,4.4 -3.4,3.6 -0.7,8.6 -3.3,8.2 -3.3,6.2 -6.8,8.3 -6.3,9.4 -3.5,11.6 -0.2,9.8 3.4,6 8.6,4 4,1.8 3.1,2.2 0.3,6.7 -1.4,8.2 -2.4,5.5 -7.6,8.5 -8.2,7.6 -10.3,11.3 -7.1,8.3 -4.4,9.6 -2.4,7.1 -1.1,8.6 0.5,10.6 0.6,6.1 3.2,6.6 5.5,9.2 6.1,9.3 7,12.5 2.6,8.4 1.4,9.1 -0.4,7.4 0,0.4 -5.8,8.6 -8.3,9.6 -6.8,6.7 -1.1,1.1 -12.5,6.1 -26.8,13.6 -0.8,0.5 -11.5,8.4 -13.4,11.9 -12.1,13.6 -8.8,9.8 -4,8 -4.2,14.8 -1.3,11.8 2.4,9.3 3.2,5.4 4.9,5.9 5.6,4.6 6.7,5.8 6.1,10.8 5.3,10.8 5.1,10.1 1.2,5.3 -2.8,9.4 -9.1,9 -4.5,8.9 -7.3,6.6 -4.8,7.5 -10.2,9.8 -5.2,8 -0.7,8 -2.7,8.5 -4.2,5.9 -11.3,6.1 -11.7,7.4 -13.3,11.9 -3.4,5.2 -7.5,11.5 -5.6,8.6 -10,17.1 -2.2,10.7 -1.5,14.7 0.7,31.9 0.5,17.1 1.5,11.3 7.9,19.6 2.3,13.8 0.3,5 1.5,18.4 1.8,10 0.9,7.9 -10.1,-23.9 0,0 -2.2,-5.6 0,0 -0.9,-3 0,0 -2.6,-6.7 0,-0.1 0,-2.4 0,-0.1 2.2,-1.8 0.1,0 3.9,-0.3 0,0 1.4,-1.8 0,0 0.1,-1.1 0,0 -0.5,-2.4 0,-0.1 -1.3,-1.4 0,0 -1.3,-1.4 0,0 -1,-0.9 0,0 -1.5,-0.9 0,0 -2,-0.7 0,0 -2.6,-0.3 -0.1,0 -1.9,0.3 0,0 -4.3,1.1 0,0 -3.4,1.3 0,0 -4.6,1.4 0,0 -4.2,2.4 0,0 -6.1,2 0,0 -2.8,1.5 0,0 -10.6,1.3 0,0 -2.6,1.5 0,0 -1.9,0.7 0,0 -4.8,1 -0.1,0 -3,0 0,0 -5.8,0.5 -0.1,0.1 -5.7,8.5 -6.1,7.5 0,0 -3.6,0.7 -2.8,-0.7 0,-0.1 -3.8,-3.4 -7.1,-1.8 0,0 -3.8,-0.9 0,0 -3.1,-0.3 -0.1,0.1 -6.3,5.8 -4.4,4.4 0,0 -3.7,5.1 -0.1,0.1 -5.1,3.6 0,0 -5.1,1.6 -0.1,0 -4.8,0 0,0 -17.4,0.1 0,0 -26.9,-2 0,0 -20.5,0.5 0,0 -11.9,0.2 0,0 -7.3,-2.1 0,0 -5.4,-0.3 -0.1,0 -2.9,1.9 0,0 -0.7,1.4 0,0 -0.8,0.3 0,0 -1.5,0.7 0,0 -1.7,-1.3 0,-0.1 -2.3,-3.9 0,0 -1.7,-4.8 0,0 0.7,-9 0,0 -1.5,-2.4 0,-0.1 -4,-2.2 0,0 -2.8,-0.2 -0.1,0.1 -7,3 0,0 -4.2,4.8 -5,7.3 0,0 -3.6,5.7 0,0 -3.7,3.6 0,0 -8.6,5.9 0,0.1 -8.4,4 -0.1,0 -3.2,0.2 -0.1,0 -7.4,-5.4 0,0 -6.5,-5 0,0 -4.6,-4 0,0 -10.8,-6.7 0,0 -2.8,0.1 0,0 -8,4.4 0,0 -19.9,13.7 0,0 -16.3,3 0,0 -3.1,1 -0.1,0 -4.2,-1.9 -3,-1.4 -3,-8.1 -3.9,-1 -3.1,2.6 -1,3.3 -1.6,2 -6.3,2.9 -1.7,-3.8 1.5,-2.2 -1.6,-7.5 -0.4,-2.8 -0.2,-3.8 -4.8,-20.1 -0.4,-4.9 2.4,-2 1.6,0.7 6.4,0.7 1.8,-0.7 1,-0.7 1.2,-0.9 0.7,-1.1 0.8,-2.8 0,-1.4 -0.3,-1.3 -0.2,-0.9 -0.4,-0.5 -2.2,-2.3 -2.8,-1.8 -6.1,-2.2 -4.1,-1.4 -8.6,-1.6 -8.1,-5.7 -5.2,0.1 -4.2,2 -2.3,0.1 -0.9,-0.7 -1.3,-1.1 -1.7,-1.6 -1.6,-2.2 -3.5,-8 -1.8,-5.8 -1.3,-4.8 0.1,-5.4 -0.3,-4.9 -1.1,-2.2 -9,-8.2 -2.2,-2.1 -0.7,-1.9 0,-2.3 0.3,-2 0.5,-1.8 0.7,-1.6 1.3,-1.7 1.5,-1.7 2,-1.4 3.2,-1.5 2,-1.1 2.5,-1.2 0.9,-0.9 0.3,-0.9 0.2,-1.5 0.1,-1.8 0.1,-1.7 -0.1,-1.7 -0.4,-2.4 0.2,-1.6 0.3,-1.8 0.8,-3.9 1.6,-6.3 1.6,-4 2.3,-2.4 5.3,-6.2 0.5,-1.1 0,-0.9 -0.3,-1.1 -0.7,-1.5 -1.1,-1 -1.5,-0.9 -1.2,-0.7 -1,-0.5 -1.3,-0.1 -2.8,-0.1 -3.2,0.3 -3.6,0.4 -3,0.6 -1.6,0.6 -1.1,0.5 -7.7,4.1 -6.1,4.9 -3.2,2.8 -1.7,1.4 -2,1.5 -1.6,1.1 -1.4,0.7 -1.7,0.2 -2,0 -2.4,-0.3 -2.7,-0.5 -2.9,-0.8 -3.2,-0.5 -3.6,-0.9 -2.5,0.7 -3.9,0.9 -4.9,1.4 -2.9,0.7 -2.2,0.2 -1.6,0.1 -1.1,-0.4 -1.3,-0.5 -1.8,-1.2 -1.9,-1.5 -1.4,-1.9 -1.1,-1.6 -1.5,-1.6 -1.3,-1.7 -2,-1.3 -1.1,-0.3 -1.1,-0.2 -2.9,0.2 -3.2,0.3 -3.3,0.5 -3.1,0.1 -2.2,0.5 -1.6,0.7 -1.8,0.2 -2.8,-0.6 -4.4,-1.3 -2.8,-1.3 -0.9,-0.4 0,0 -1.8,-0.8 -1.6,-1.9 -3.2,-3 -2.4,-2.2 -1.8,-2 -1.5,-0.7 -2.2,0.1 -1.3,0.2 -2.4,1.6 -1.1,0.8 -1.2,0.3 -1.4,-0.3 -1.4,-0.7 -0.3,-0.7 0.5,-1.1 0.8,-1.2 0.5,-1 0,-0.8 -0.4,-0.9 -1.1,-1.2 -2.1,-2.5 -2.4,-2.4 -1.9,-1.8 -2,-1.6 -5,-3.9 -4.3,-2.4 -1.9,-1 -1.1,-0.7 -0.2,-0.9 -0.3,-1.5 -0.3,-3.7 -0.4,-1.4 -0.8,-1.5 -1.2,-1.6 -1.3,-1.5 -1.4,-1.3 -1,-1.1 -1.5,-0.8 -11,-8.3 -4.2,-2.7 -5.3,-2.8 -9,-4.4 -2.6,-1.8 -1.3,-1.3 -0.9,-0.9 -1.3,-0.7 -1.2,-0.5 -1.5,-0.3 -1.5,-0.3 -1.3,0.3 -1.2,0.5 -1.2,0.9 -1.1,1.1 -0.5,1.5 -1.1,2 -0.5,1.4 -1,0.9 -1.3,0.6 -0.7,0.2 -3.4,-0.3 -2.1,-0.1 -1.7,-0.4 -2.5,-0.5 -3.6,-1.5 -3.7,-1.5 -2.6,-0.8 -2.5,-0.7 -2,-0.6 -1.8,-0.3 -2.8,-0.1 -8.2,-0.1 -1.9,-0.7 -3,1.3 -3.6,2.7 -1.3,0.2 -5.3,-2.8 -5.5,-2.4 -9.3,-5.9 -3.2,0.3 -2,-0.5 -1.9,-1.3 -2.6,-3.1 -5.6,-9.3 -2.6,-3.5 -2.4,-0.9 -0.9,-1.3 -1.5,-1 -1.3,-1.3 -0.6,-1.3 -2.8,-4.9 -0.3,-1.1 -0.6,-1.1 -6.5,-2.4 -3.4,-0.9 1.8,-2.6 0,0 1.1,-1.5 0.1,-0.1 4.7,-2.8 0,0 5.7,-1.1 0,0 3.5,-1.4 0,-0.1 3.6,-2.4 0,0 2.5,-0.3 0.1,-0.1 0.7,-2.4 0,0 -0.1,-2.5 0,-0.1 1.8,-3.4 0,0 3.2,-3.3 1.3,-1.4 0,0 0.5,-0.5 0,0 0,-1.5 0,-0.7 0.1,-0.1 2.1,-1.1 0,0 0.9,-1.6 0,-0.1 -2.8,-6 0,-0.1 0.1,-1.7 0.1,0 0.3,-0.1 0.1,0 1.5,0.5 0,0 2.6,0.2 0,0 2,-1.2 0,0 0.2,-3.2 0,0 -1,-3.3 0,-0.1 -0.3,-0.7 -0.1,0 -1.7,-1 0,0 -2.7,0.2 0,0 -0.9,0.1 0,0 -0.6,-0.3 -0.1,-0.1 0.5,-2.6 0,0 3.8,-5.7 0,0 5.2,-6.2 0,0 -0.1,-1.5 0,-0.1 -0.3,-0.3 -0.1,0 -2.9,-0.4 -0.1,0 -1.8,-0.9 0,-0.1 -3.6,-6 0,0 0.7,-1.6 0,0 0.3,-1.2 0,0 -1.1,-1.8 0,0 -2,-1.2 0,0 -0.1,-0.4 0,-0.1 1.1,-1.4 0,0 4.2,-2.5 39.4,-18.3 0,0 0,0 47.5,-25.3 56.1,-29.8 36.9,-19.5 53,-28.1 0,0 4.6,9.5 0.8,1.6 8.6,18 17.5,36.5 0.1,0.1 42.3,-19.4 0,0 99.7,-45.7 4.1,-1.8 4.6,-2.1 6.2,-2.8 6.4,-3 6.3,-2.9 8.2,-3.7 8.8,-4.1 15.4,-9.2 -1.8,-9.7 -4.1,-22 -13.3,-72.2 94.5,-59.7 21.2,-13.5 78.6,-93.2 17.5,-126.8 0.4,-0.7 0,0.2 1.5,-0.3 2.2,0.5 3,-0.1 2,-0.8 0.8,-2 2,-1.3 4.8,-1.8 4.8,-0.5 3.3,-0.8 1.8,-1.1 2.8,-3 1.8,-1.3 2.2,-0.1 2.5,1.3 4,2.8 2.3,2 2,0.3 1.5,-0.8 1.3,-2 1.5,-0.8 1.9,0.1 2.2,1.2 3.8,2.6 2.8,2.4 3.4,1.7 0.1,0 2.6,-0.3 1.8,-0.9 1.6,-1.4 1.2,-2.2 2.3,-2.2 4.2,-2.1 5,-2.6 4.3,-2 3.6,-2.7 1.7,-1.4 1.8,-2.4 0.9,-4.2 0.7,-1.5 1.5,-0.7 1.5,0.8 2.4,0.8 2.2,-0.1 2,-0.9 1.3,-1.3 0,-1.6 0.6,-1.7 1,-0.6 3.7,-1.8 6.4,-3 4.2,-3.4 3.8,-3.6 2.9,-3.7 1.8,-2.2 2,-0.5 1.5,0.1 1.6,1.4 2.2,1.9 1.8,2.3 1.7,-0.1 3.4,-1.3 3.1,0.5 3.2,-0.3 3.1,-1.6 2,-2.1 3.2,-3.8 3,-2 6.1,-1.5 3.6,-1.4 5.8,-2.5 4.4,-1.6 5.7,-0.9 8.8,-1.3 2.8,-1.7 1.8,-1.9 1.2,-2.7 0.4,-4.6 -0.1,-5.1 0.3,-3 1.7,-2 2.5,-0.4 2.4,0 3.4,1.6 6.8,2.4 z"
       inkscape:connector-curvature="0"
       class="DEP_09 ZON_03" /></g></svg>