<?xml version="1.0" encoding="UTF-8" standalone="no"?>
<!-- Generator: Adobe Illustrator 16.0.0, SVG Export Plug-In . SVG Version: 6.00 Build 0)  -->

<svg
   xmlns:dc="http://purl.org/dc/elements/1.1/"
   xmlns:cc="http://creativecommons.org/ns#"
   xmlns:rdf="http://www.w3.org/1999/02/22-rdf-syntax-ns#"
   xmlns:svg="http://www.w3.org/2000/svg"
   xmlns="http://www.w3.org/2000/svg"
   xmlns:sodipodi="http://sodipodi.sourceforge.net/DTD/sodipodi-0.dtd"
   xmlns:inkscape="http://www.inkscape.org/namespaces/inkscape"
   version="1.1"
   id="SvgMunicipio"
   x="0px"
   y="0px"
   width="846.361px"
   height="999.956px"
   viewBox="64.715 117.965 846.361 999.956"
   enable-background="new 64.715 117.965 846.361 999.956"
   xml:space="preserve"
   inkscape:version="0.91 r13725"
   sodipodi:docname="MUN_ID0907.svg"><metadata
     id="metadata10"><rdf:RDF><cc:Work
         rdf:about=""><dc:format>image/svg+xml</dc:format><dc:type
           rdf:resource="http://purl.org/dc/dcmitype/StillImage" /></cc:Work></rdf:RDF></metadata><defs
     id="defs8" /><sodipodi:namedview
     pagecolor="#ffffff"
     bordercolor="#666666"
     borderopacity="1"
     objecttolerance="10"
     gridtolerance="10"
     guidetolerance="10"
     inkscape:pageopacity="0"
     inkscape:pageshadow="2"
     inkscape:window-width="682"
     inkscape:window-height="480"
     id="namedview6"
     showgrid="false"
     inkscape:zoom="0.23601039"
     inkscape:cx="423.18051"
     inkscape:cy="499.978"
     inkscape:window-x="0"
     inkscape:window-y="0"
     inkscape:window-maximized="0"
     inkscape:current-layer="svg" /><g
     id="g3"><path
       id="MUN_0907"
       d="m 574.505,551.67 0,0 9.429,-1.097 0,0 3.727,1.206 0,0 1.535,0.438 0,0 2.083,0.11 0,0 1.864,-0.438 0.109,0 2.412,-3.618 0.109,0 7.894,-3.509 0,0 3.069,0 0,0 6.469,0.878 0,0 2.851,0.548 0,0 2.192,0.329 0,0 3.947,-0.22 0,0 4.823,1.097 0.877,0.219 0.987,0.11 -3.289,10.743 -1.974,14.91 0.768,15.02 -0.11,1.315 -0.548,5.592 0.987,1.754 0,0 0.438,1.864 0,0 0.328,0.877 0.11,0.548 0,0 0.219,0.438 0,0.109 1.206,1.097 0,0 6.688,0 0,0 4.275,0.548 0,0 2.303,1.535 0,0 1.863,-0.22 0,0 1.974,-0.657 0,0 0.987,-1.864 0,0 0.657,-0.328 0.109,-0.11 5.263,1.755 0.109,0 1.097,0.219 0,0 2.083,0.329 0,0 2.302,0.109 0,0 2.084,0 0,0 1.315,0.548 0,0 1.096,0.22 0,0 1.206,0.109 0,0 0.438,-0.109 0,0 0.768,-0.438 0,0 0.548,-0.548 0,0 0.658,-0.877 0,0 0.329,-0.329 0.109,0 0.986,-0.22 0,0 0.878,-0.438 1.315,-0.657 0,0 0.986,-0.878 0,-0.109 0.548,-0.657 0,0 0.22,-0.658 0.109,-0.109 1.315,-0.22 0,0 1.097,-0.438 0,-0.109 0.877,-0.877 0,0 0.877,-1.097 0.109,0 0.658,-0.657 0,0 2.96,-2.632 0,0 6.03,-3.179 0,-0.11 -0.768,-4.494 0,-0.11 1.315,-1.754 0,0 1.097,-1.754 0,-0.109 2.302,-0.877 0,0 2.741,0.219 0,-0.109 1.973,-2.96 0,0 1.974,-1.974 0,-0.109 2.631,-7.894 0,-0.11 1.426,-0.109 0,0 2.302,0.329 0.11,0 2.302,-2.083 0,-0.109 1.974,-4.495 0.109,-0.109 2.521,-1.864 0,0 1.645,-0.768 0.109,0 1.426,1.535 0.109,0.109 1.426,-0.329 0,0 1.534,0.22 0.11,0 0.877,0 0,0 0.877,-0.109 0,0 0,0 0.657,0 0.11,0 0.657,-0.22 0,-0.109 0.658,-0.329 0,0 0.219,-0.438 0,0 0.768,-0.877 0,-0.109 0.548,-0.987 0,0 0.22,-0.877 0,-0.109 1.097,-0.877 0,0 0.877,-0.877 0,0 0.768,-0.877 0,0 1.534,-1.097 0,0 0.987,-0.658 0,0 1.206,-0.548 0,0 2.083,-1.097 36.727,-15.567 30.807,-0.658 111.605,-2.96 -2.192,95.052 3.398,7.126 1.645,2.851 0.329,3.179 -0.22,3.838 -1.754,3.069 -2.083,3.398 -1.974,5.043 -1.206,4.057 -1.425,2.303 -0.658,2.85 -0.328,2.193 -0.438,1.754 -1.864,1.645 -3.618,1.863 -3.505,0.76 -1.535,1.864 -0.329,2.521 -0.109,8.771 0,1.425 -1.097,1.206 -0.657,1.097 0.329,1.754 1.315,1.206 -0.658,1.645 -0.329,2.192 -0.438,1.645 -2.96,0.986 -1.425,1.755 -3.509,5.372 -2.631,5.043 -8.989,4.494 -2.851,-0.986 -2.083,0.22 -2.412,1.206 -1.425,1.754 -1.426,0.877 -1.315,1.754 -3.398,-0.329 0.329,4.276 0.986,3.288 -2.96,1.864 -4.715,-0.768 -3.728,0.109 -1.863,1.755 -0.877,7.894 0.329,2.302 -4.166,-0.219 -4.604,1.645 -2.083,1.973 -1.864,1.974 -0.986,1.206 -0.987,1.425 -6.358,-1.645 -5.152,-6.358 -3.398,0.548 -5.482,-1.645 -2.192,0.11 -1.097,0.986 -2.083,1.645 -1.863,0 -0.109,0.109 -2.521,4.386 -5.592,6.358 -1.315,0.986 -2.631,2.193 -2.741,0.986 -1.206,-0.768 -2.96,-3.837 -2.192,-2.302 -1.426,-0.22 -0.109,1.974 -0.657,2.521 -1.535,2.412 -0.877,2.302 -1.645,2.412 -1.426,2.412 -5.152,1.206 -4.386,1.315 -0.328,0.768 -2.521,4.166 -1.755,2.85 -3.728,1.755 -0.109,1.645 -0.438,2.083 -1.425,0.877 -1.315,0.438 -0.987,-0.548 -1.096,-0.439 -1.097,-0.877 -1.315,-1.315 -1.645,-0.877 -1.645,1.426 -1.754,3.727 -0.658,2.412 -2.851,3.398 0.11,4.495 -0.11,3.18 -0.877,1.097 -1.097,0.548 -2.302,0.657 -2.083,0.438 -4.386,-1.644 -5.591,-2.084 -1.863,-1.863 -2.193,-1.206 -1.206,1.206 -0.548,2.741 1.315,4.166 0.22,1.973 0,1.426 -1.206,1.974 -2.412,0.328 -1.535,1.206 -0.877,3.837 2.083,6.14 0.549,2.632 -0.549,2.85 -0.329,1.097 -2.85,-1.754 -3.509,1.645 -0.109,3.728 -1.535,4.823 -2.302,3.289 -2.851,0.768 -8.113,6.03 -1.206,1.973 0.11,1.535 3.617,1.645 0,1.974 -1.973,1.534 -4.604,2.96 -2.193,0.439 -2.851,1.425 -0.986,1.535 0.109,1.206 0.11,1.425 -2.522,5.152 -2.192,2.083 -1.534,1.645 -0.11,1.974 0.877,1.097 2.632,2.192 -2.303,4.166 -1.535,2.631 -1.754,3.289 -2.192,3.947 -1.425,2.302 -2.632,1.864 -3.946,2.74 -2.741,2.083 -1.096,3.289 -1.864,4.714 -2.631,2.961 -2.303,1.206 -2.74,-0.768 -1.645,-3.07 -4.386,0.22 -3.508,5.043 -1.206,0.109 -3.728,0.549 -2.521,2.411 -4.166,3.728 -3.398,1.535 -2.96,3.18 -3.289,4.056 -1.316,3.947 0.11,2.412 1.645,6.577 1.534,2.303 7.784,7.674 0.768,2.303 -0.548,2.851 -0.549,0.438 -3.069,1.863 -3.069,0.22 -1.206,0.986 -2.851,2.96 -8.113,12.389 -5.7,9.758 -2.412,0.767 -7.455,-3.288 -3.618,-2.851 -4.057,-0.987 -6.906,-1.315 -4.604,-3.069 -3.398,-1.864 -3.618,-2.083 -4.495,0.658 -3.18,2.192 -6.249,4.495 -4.166,0.986 -4.933,-0.768 -3.728,-1.534 -2.632,-0.768 -3.617,-0.329 -2.851,0.329 -0.768,2.96 -0.438,4.166 1.974,3.947 2.083,3.398 0.767,2.302 1.864,7.784 -5.811,9.757 -2.631,3.509 -3.18,4.275 -3.069,5.701 -6.14,1.645 -3.18,-0.877 -2.851,-1.645 -3.728,-3.398 -7.235,0.109 -3.728,-2.193 -5.372,-3.837 -3.508,-3.069 -3.618,-1.097 -1.206,-1.645 -0.109,-4.604 -0.658,-3.398 -3.398,-2.851 -4.385,-0.986 -4.715,-1.864 -2.521,0.438 -1.206,1.974 0,7.894 -2.631,1.426 -1.864,-0.22 -2.85,-0.986 -2.961,-1.097 -3.508,-0.22 -2.412,4.167 -3.946,9.209 -4.275,7.017 -2.303,3.508 -3.289,2.741 -4.823,-2.851 -3.947,-3.07 -0.877,0.987 -1.864,3.508 -1.754,8.003 1.864,2.521 1.645,3.509 3.069,6.688 2.631,4.604 2.741,4.604 0.986,3.289 -2.083,0.986 -3.398,-0.328 -3.18,3.398 -0.328,3.289 0.986,5.811 0.22,0.767 -0.878,1.097 -2.302,0.768 -0.438,0.219 0,0 -3.289,0.549 0,0 -4.166,-1.864 -0.109,0 -6.798,5.481 0,0 -7.783,7.127 0,0 -2.193,2.74 0,0 -1.315,1.974 0,0 -1.974,4.495 0,0.109 -2.74,1.206 0,0 -3.398,0.438 -0.11,0 -5.043,2.412 0,0.109 -5.372,5.481 0,0 -3.946,5.372 -0.109,0 -4.166,2.741 -0.11,0 -2.302,0.877 0,0 -4.275,-0.438 0,0 -2.632,0.109 0,0 -5.811,2.412 0,0 -6.358,-0.768 0,0 -14.361,-0.768 0,0 -12.499,0.877 0,0 -4.056,0.548 -0.11,0 -4.166,3.509 -0.109,0 -7.564,-0.986 0,0 -3.289,-1.097 0,0 -11.511,-0.768 0,0 -4.715,-0.986 0,0 -5.591,-2.521 0,0 -5.372,-2.412 -0.109,0 -2.741,-4.275 0,0 -3.069,-5.153 -0.109,-0.109 0,-3.618 0,0 -3.399,-7.126 0,0 -1.315,-2.412 -0.109,-0.109 -1.645,-0.986 -0.109,0 -1.974,-0.658 -0.109,0.109 -3.728,5.481 0,0 -4.276,3.07 0,0.109 -0.219,0 -2.521,0.438 -0.109,0 -1.535,-3.946 0,-0.11 3.398,-5.481 0,-0.109 -1.097,-5.152 0,-0.11 1.316,-3.069 0,0 1.425,-2.521 0,-0.109 1.425,-8.223 0,0 0.658,-2.083 0,0 1.864,-1.206 0.109,0 8.771,0.109 0,0 2.083,-2.192 0,0 5.263,-8.661 0,0 1.863,-6.797 0,0 0.658,-6.688 0,0 -0.329,-2.96 0,-0.11 -5.043,-4.494 0,0 -2.851,-4.276 0,-0.109 -5.263,-3.837 -0.109,-0.109 -1.535,-7.784 0,-0.109 1.754,-3.947 0,0 0.878,-1.097 0,0 2.192,-2.85 0,0 2.412,-5.372 0,0 0.548,-3.07 0,0 -0.877,-3.289 0,0 -3.289,-2.083 0,0 -4.275,0.768 0,0 -1.755,0.22 -0.109,0 -1.645,-0.877 -0.109,-0.11 -0.986,-1.754 -0.11,-0.109 0.658,-3.508 0,0 0.658,-1.535 0,0 3.069,-2.96 0,0 2.083,-1.974 0,0 1.206,-1.535 0,-0.109 -0.987,-4.386 -0.109,0 -0.438,-0.219 -0.548,-0.329 -0.109,0 -1.535,0.658 0,0 -5.701,3.289 0,0 -3.069,0.109 -0.11,-0.109 -2.74,-1.316 -0.109,-0.109 -0.658,-3.398 0,0 -0.768,-5.043 0,0 -2.192,-8.661 -0.109,0 -6.469,-1.425 0,0 -4.714,-0.11 -0.109,0 -3.509,-2.521 0,-0.109 -1.425,-2.521 0,-0.109 -2.193,-1.097 0,0 -2.74,0.109 -0.109,0 -1.864,0.329 0,0 -1.754,0.768 0,0.109 -1.097,0.987 0,0 -1.534,0.768 -0.11,0 -2.74,-1.206 0,-0.11 -2.193,-3.946 0,-0.109 -0.438,-5.153 0,-0.109 -1.645,-2.851 0,-0.109 -6.029,-1.864 0,0 -1.535,-0.986 0,0 -2.412,-2.303 0,0 -2.85,-1.315 0,0 -1.864,-2.411 0,-0.11 -0.768,-2.083 0,0 -2.412,-2.192 0,-0.109 -1.754,-3.07 0,-0.109 -0.438,-7.894 0,-0.109 -1.534,-4.604 -0.11,0 -1.973,-2.083 0,0 -1.426,-0.768 -0.109,0 -1.315,0.109 0,0 -3.399,-1.645 0,0 -3.398,-0.877 0,0 -1.425,0.22 0,0 -1.097,0.438 -0.109,0.109 -3.18,-0.22 0,0 -4.385,-0.438 -0.109,0 -4.276,-2.85 0,0 -5.591,-4.276 -0.109,-0.109 -1.206,-2.741 0,0 -1.097,-4.275 0,0 -0.109,-1.315 0,-0.109 -2.083,-2.412 -0.109,-0.109 -1.206,-3.399 0,0 -4.057,-3.946 0,0 -1.426,-0.986 0,-0.11 -1.754,-0.328 0,0.109 -1.096,0.548 -0.11,0 -0.328,0.987 0,0 -0.329,1.096 0,0 -1.535,1.315 0,0 -2.741,0.438 0,0 -4.166,0 -0.109,-0.109 -0.986,-0.768 0,0 -0.877,-2.412 0,0 0.768,-6.468 0,0 -0.11,-2.083 0,0 -0.328,-4.275 0,0 -0.658,-3.07 0,0 -0.986,-1.645 0,0 -2.521,-3.179 -0.11,0 -2.74,-0.987 0,0 -6.249,-1.096 0,0 -5.372,-2.632 0,0 -1.645,-1.645 0,0 -1.535,-0.877 -0.109,-0.109 -1.206,-1.425 -0.109,0 -2.521,-0.877 0,-0.11 -2.741,-2.521 0,0 -3.946,-4.714 0,0 -2.193,-3.618 0,0 -1.534,-3.069 0,-0.109 0.438,-1.864 0,0 0.877,-1.645 0,-0.109 1.645,-1.974 0,-0.109 0,-0.987 1.534,-0.767 0,0 1.535,-0.987 0,0 0.658,-1.315 0,-0.109 -0.438,-1.645 0,-0.109 0.328,-1.864 0.11,-0.109 1.534,-0.658 0,0 5.592,-2.521 0.109,0 0.986,-2.412 0,0 0.438,-4.275 0,-0.109 1.206,-2.96 0,0 -0.219,-3.509 0,0 0.109,-2.192 0,0 0.329,-1.754 0,-0.109 -2.412,-2.851 0,0 -2.851,-1.974 0,0 -1.645,0.22 -0.109,0 -0.768,-1.206 0,0 -0.657,-1.864 0,-0.109 0.986,-1.206 0,0 0.438,-2.303 0,0 1.097,-1.863 0.109,-0.109 0.329,-3.509 0,-0.109 -2.083,-2.741 -0.11,0 -0.657,-3.069 0.109,-0.109 0.877,-2.303 0,0 -0.219,-1.645 0,-0.109 -0.658,-2.412 0,0 0.658,-2.74 0,0 -0.22,-3.07 0,0 0,-3.508 0.109,-0.109 4.934,1.973 0,0 2.412,3.18 0.109,0 3.838,-1.974 0,0 0.986,-1.534 0.109,0 1.097,-0.768 0,0 3.179,-1.315 0,0 2.303,-1.645 0.109,0 1.097,-2.412 1.974,-65.89 1.315,-46.155 0.109,-3.398 1.535,-51.088 2.083,-69.946 0,-1.754 0.657,-8.88 0,0 -0.328,-2.521 0,0 0,-0.987 0,0 1.315,-7.235 0,0 1.096,-3.398 0,0 1.097,-5.481 0,0 1.425,-7.675 0.438,-1.973 0,0 0.549,-1.755 0,0 0.219,-1.315 0,0 0,-1.645 0,0 -0.328,-2.96 0,0 -0.22,-1.206 0,0 0,-0.768 0,0 0.438,-2.631 0,-0.109 0,-1.974 0,0 -0.877,-2.741 -0.109,0 -0.438,-0.657 -0.11,0 -3.289,-1.206 0,0 -0.438,0 0,-0.109 0.658,-5.263 0,0 1.645,-7.674 0,0 -2.96,-6.469 0,-0.109 3.069,-2.741 0,0 2.521,-2.631 3.398,-3.509 0.11,0 0.877,-2.521 0,0 0.109,-0.548 0,0 0.877,-5.481 0,0 0.329,-2.741 0,0 0.329,-2.411 0,0 0,-1.535 0,0 0,-7.236 0,0 -0.658,-11.511 0,0 3.18,-6.797 -80.27,-100.23 82.225,-175.959 4.714,76.414 5.263,84.526 152.278,37.604 71.919,6.358 -5.152,34.753 -11.842,80.58 103.273,12.06 35.631,37.604 55.035,58.434 1.426,0.329 2.521,0.438 0,0 3.837,2.083 0,0 2.96,1.645 0,0 5.702,0.877 z"
       inkscape:connector-curvature="0"
       class="DEP_09 ZON_03" /></g></svg>