<?xml version="1.0" encoding="UTF-8" standalone="no"?>
<!-- Created with Inkscape (http://www.inkscape.org/) -->

<svg
   xmlns:dc="http://purl.org/dc/elements/1.1/"
   xmlns:cc="http://creativecommons.org/ns#"
   xmlns:rdf="http://www.w3.org/1999/02/22-rdf-syntax-ns#"
   xmlns:svg="http://www.w3.org/2000/svg"
   xmlns="http://www.w3.org/2000/svg"
   xmlns:sodipodi="http://sodipodi.sourceforge.net/DTD/sodipodi-0.dtd"
   xmlns:inkscape="http://www.inkscape.org/namespaces/inkscape"
   width="45mm"
   height="101mm"
   viewBox="0 0 159.44872 357.87381"
   id="SvgDepartamento"
   version="1.1"
   inkscape:version="0.91 r13725"
   sodipodi:docname="DEP_06.svg">
  <defs
     id="defs3519" />
  <sodipodi:namedview
     id="base"
     pagecolor="#ffffff"
     bordercolor="#666666"
     borderopacity="1.0"
     inkscape:pageopacity="0.0"
     inkscape:pageshadow="2"
     inkscape:zoom="0.98994949"
     inkscape:cx="32.708243"
     inkscape:cy="188.15512"
     inkscape:document-units="px"
     inkscape:current-layer="layer1"
     showgrid="false"
     inkscape:window-width="1366"
     inkscape:window-height="705"
     inkscape:window-x="-8"
     inkscape:window-y="-8"
     inkscape:window-maximized="1" />
  <metadata
     id="metadata3522">
    <rdf:RDF>
      <cc:Work
         rdf:about="">
        <dc:format>image/svg+xml</dc:format>
        <dc:type
           rdf:resource="http://purl.org/dc/dcmitype/StillImage" />
        <dc:title></dc:title>
      </cc:Work>
    </rdf:RDF>
  </metadata>
  <g
     inkscape:label="Capa 1"
     inkscape:groupmode="layer"
     id="layer1"
     transform="translate(0,-694.48868)">
    <path
       inkscape:connector-curvature="0"
       style="fill:#b3b3b3"
       d="m 49.551419,705.62586 c 4.575,-1.9875 7.975,-5.825 11.9,-8.775 2.075,0.975 4.275,1.7625 6.1625,3.1 1.4125,1.925 2.1625,4.25 3.15,6.4125 5.1375,-0.125 10.2,-1.05 15.1375,-2.475 -2.85,13.3125 0.1625,27.1375 -3.4375,40.3375 -1.125,4.475 -5.475,6.925 -7.775,10.6875 -0.4625,10.275 8.0875,17.5125 11.4625,26.5875 2.5625,7.2125 9.5125,10.9 15.337501,15.125 -5.487501,5.3125 -11.812501,9.6 -18.400001,13.4125 1.575,2.8 3.175,5.6 4.725,8.4375 -0.3625,2.4875 -0.7625,4.975 -0.8125,7.5 4.95,1.35 10.3625,-0.3625 15.162501,1.475 4.9875,3.8125 5.025,10.725 6.925,16.2125 0.9625,2.975 2.1625,7.5875 6.0625,7.4875 5.675,0.125 11.4125,0.1 16.975,1.4625 2.075,7.3625 6.7,13.6125 9.175,20.825 2.2875,6.55 7.2125,11.725 9.725,18.1875 2.1375,5.35 4.65,10.55 7.825,15.375 -0.6,1.775 -1.2,3.55 -1.7875,5.3375 -8.825,2.175 -18.075,-2.1 -26.6375,1.4375 -5.65,2.2 -10.7125,5.975 -14.3,10.875 -2.0125,2.6875 -2.8,6.5125 -1.4375,9.65 2,2.5875 4.8,4.4 6.8625,6.9375 -1.075,4.5375 -3.0125,8.875 -3.3875,13.575 -0.425,5.075 -4.8375,11 -10.425,9.9875 -8.2375,-0.875 -16.562501,-1.7375 -24.825001,-0.8125 -2.075,0.225 -4.0625,0.9375 -5.825,2.0375 1.675,5.35 3.95,10.525 6.025,15.7375 2.5875,6.5125 10.1625,10.475 10.15,18.1125 0.5375,8.28754 -7.05,13.68754 -9,21.23754 -1.925,6.9875 -7.775,11.825 -10.7625,18.3 -2.8125,0.6625 -5.6125,1.3125 -8.425,1.95 -1,3.0875 -1.7375,6.2875 -3.2,9.2125 -4.125,0.8 -8.425,0.725 -12.5875,0.175 -3.6,-7.6 -3.3875,-16.2625 -5.6875,-24.225 -1.5125,-4.575 -6.125,-6.8625 -9.675,-9.65 -0.2875,-5.1875 1.975,-9.8375 3.625,-14.5875 0.8875,-5.76254 2.05,-11.61254 1.3875,-17.46254 -0.8875,-3.7375 -2.625,-7.3375 -2.4625,-11.2625 -0.3125,-4.15 2.8375,-7.2375 5,-10.4125 0.0125,-2.65 0.025,-5.2875 0.05,-7.925 -3.5875,0 -7.1875,0.0125 -10.775,0.0625 -0.5375,-2.225 -1.2,-4.425 -1.4875,-6.6875 2.275,-3.7 6.55,-5.3625 9.75,-8.1 -0.225,-5.675 -7.8625,-8.2875 -7.45,-14.2625 -0.0875,-1.85 -0.1125,-3.7 -0.0875,-5.5375 -6.525002,-6.5625 -16.200002,-7.05 -23.6875017,-11.9625 0,-2.3375 0,-4.6625 0,-6.975 1.6874997,-0.6125 3.3624997,-1.225 5.0624997,-1.8375 1.05,-3 2.05,-6.0125 3.0125,-9.025 -3.1375,-0.0625 -6.275,-0.1 -9.4124997,-0.125 3.1124997,-6.1125 6.4124997,-12.15 8.7374997,-18.6125 1.325,-7 2.85,-13.9625 3.775,-21.0375 0.7,-8.95 9.175002,-14.575 10.687502,-23.25 2.025,-12.9 5.9875,-25.375 9.4375,-37.9375 2.475,-6.9375 3.6875,-14.25 4.05,-21.5875 -8.4375,-2.05 -17.087502,-3.0625 -25.475002,-5.3375 1.1,-3.85 2.275,-7.7 3.2125,-11.6 -5.825,-3.825 -11.675,-7.625 -17.7499997,-11.0625 -0.1625,-2.925 -1.8625,-6.1875 0.0625,-8.85 2.725,-4.2125 4.6125,-8.9 5.0999997,-13.925 5.0375,-6.6375 13.1875,-9.0125 20.687502,-11.6625 0.025,-1.6875 0.0625,-3.375 0.1125,-5.0625 4.7875,0.825 9.5625,1.9 14.0625,3.8 2.0375,0.625 4.2375,2.0375 6.4,0.975 z"
       id="DEP_06" />
  </g>
</svg>
