<?xml version="1.0" encoding="UTF-8" standalone="no"?>
<!-- Generator: Adobe Illustrator 19.2.0, SVG Export Plug-In . SVG Version: 6.00 Build 0)  -->

<svg
   xmlns:dc="http://purl.org/dc/elements/1.1/"
   xmlns:cc="http://creativecommons.org/ns#"
   xmlns:rdf="http://www.w3.org/1999/02/22-rdf-syntax-ns#"
   xmlns:svg="http://www.w3.org/2000/svg"
   xmlns="http://www.w3.org/2000/svg"
   xmlns:sodipodi="http://sodipodi.sourceforge.net/DTD/sodipodi-0.dtd"
   xmlns:inkscape="http://www.inkscape.org/namespaces/inkscape"
   version="1.1"
   id="SvgMunicipio"
   x="0px"
   y="0px"
   viewBox="0 0 829 1000"
   style="enable-background:new 0 0 829 1000;"
   xml:space="preserve"
   inkscape:version="0.91 r13725"
   sodipodi:docname="MUN_ID1103.svg"><metadata
     id="metadata10"><rdf:RDF><cc:Work
         rdf:about=""><dc:format>image/svg+xml</dc:format><dc:type
           rdf:resource="http://purl.org/dc/dcmitype/StillImage" /></cc:Work></rdf:RDF></metadata><defs
     id="defs8" /><sodipodi:namedview
     pagecolor="#ffffff"
     bordercolor="#666666"
     borderopacity="1"
     objecttolerance="10"
     gridtolerance="10"
     guidetolerance="10"
     inkscape:pageopacity="0"
     inkscape:pageshadow="2"
     inkscape:window-width="665"
     inkscape:window-height="480"
     id="namedview6"
     showgrid="false"
     inkscape:zoom="0.236"
     inkscape:cx="414.5"
     inkscape:cy="500"
     inkscape:window-x="0"
     inkscape:window-y="0"
     inkscape:window-maximized="0"
     inkscape:current-layer="svg" /><g
     id="g3"><path
       id="MUN_1103"
       d="m 829,191.2 -27.5,331.8 -3.7,44.5 -18.7,226.3 -113.4,195.6 -19.8,33.9 -438.3,67 10.6,-456.2 0.6,-25.8 0.6,-11 -7.1,-0.6 -45.4,-3.7 -53,-4.6 L 77.7,585.3 61,584.6 38.5,582.3 25.6,579 22.7,558 20.6,542.2 16.9,531.4 9.6,498.9 4.4,481.8 3.4,463.5 5.7,451.9 0.9,438.8 0,430.9 l 4.2,-15 5.6,-8.9 5.4,-4.6 4.4,-7.5 2.9,-8.1 1.7,-10 2.1,-6.9 6,-18.3 2.5,-7.9 3.5,-13.3 3.5,-9.2 3.7,-14.6 2.9,-9.2 0.6,-4.8 4,-14.4 5.6,-18.5 1.2,-4.6 L 64,241.2 68.6,225 73,212.5 118.6,90.2 405.7,130.8 448.3,137 829,191.2 Z"
       inkscape:connector-curvature="0"
       class="DEP_11 ZON_04" /></g></svg>