<?xml version="1.0" encoding="UTF-8" standalone="no"?>
<!-- Generator: Adobe Illustrator 19.2.0, SVG Export Plug-In . SVG Version: 6.00 Build 0)  -->

<svg
   xmlns:dc="http://purl.org/dc/elements/1.1/"
   xmlns:cc="http://creativecommons.org/ns#"
   xmlns:rdf="http://www.w3.org/1999/02/22-rdf-syntax-ns#"
   xmlns:svg="http://www.w3.org/2000/svg"
   xmlns="http://www.w3.org/2000/svg"
   xmlns:sodipodi="http://sodipodi.sourceforge.net/DTD/sodipodi-0.dtd"
   xmlns:inkscape="http://www.inkscape.org/namespaces/inkscape"
   version="1.1"
   id="SvgMunicipio"
   x="0px"
   y="0px"
   viewBox="0 0 640.8 1000.1"
   style="enable-background:new 0 0 640.8 1000.1;"
   xml:space="preserve"
   inkscape:version="0.91 r13725"
   sodipodi:docname="MUN_ID1118.svg"><metadata
     id="metadata10"><rdf:RDF><cc:Work
         rdf:about=""><dc:format>image/svg+xml</dc:format><dc:type
           rdf:resource="http://purl.org/dc/dcmitype/StillImage" /></cc:Work></rdf:RDF></metadata><defs
     id="defs8" /><sodipodi:namedview
     pagecolor="#ffffff"
     bordercolor="#666666"
     borderopacity="1"
     objecttolerance="10"
     gridtolerance="10"
     guidetolerance="10"
     inkscape:pageopacity="0"
     inkscape:pageshadow="2"
     inkscape:window-width="665"
     inkscape:window-height="480"
     id="namedview6"
     showgrid="false"
     inkscape:zoom="0.23597641"
     inkscape:cx="320.39999"
     inkscape:cy="500.04999"
     inkscape:window-x="0"
     inkscape:window-y="0"
     inkscape:window-maximized="0"
     inkscape:current-layer="svg" /><g
     id="g3"><path
       id="MUN_1118"
       d="m 444.8,264.3 10.8,60.4 17.7,98.5 122.6,-72.2 0.2,1.5 0.8,2.6 0.3,2.2 -1,1.8 -0.2,0.3 -1.3,3.5 0.5,3.4 0.7,2.1 1.7,1.7 2.1,1.1 1.4,1.6 2,1.1 1.9,4.1 1.1,2 0.2,1.9 0.4,1 3.5,6 -0.3,2.4 -1.1,1.1 -0.5,1.3 3.1,3.6 0.2,1.1 0.6,1.4 0.6,1 1.2,1.2 1,1.3 1.5,2.1 0.2,1.6 0.6,1.1 3.8,3.4 0.9,3.2 -0.7,1.6 -0.5,0.8 -1.2,1 -1.4,0.4 -1.2,1.1 -1,1.9 0.4,2.3 0.7,1.5 0.7,1.6 0.1,1 -0.6,1 -0.2,1.8 -0.4,1.8 -4.5,2.1 0.6,0.8 2.1,1 1,1.9 4.9,4 0.3,1.6 -0.5,1.1 -1.6,1 0.2,1.8 -0.3,1.4 -0.3,1.7 1.3,3 -0.1,1.7 -0.6,2.6 -0.5,1.6 -2.2,2.8 1.6,0.3 13.2,2.9 8.6,1.5 1,0.1 -1,2.6 -1.7,3.2 -1.7,3.9 -1.5,3.1 -0.4,5.1 -0.2,5.7 0.3,4.4 0.1,2.3 -1.2,3.3 -0.8,2.3 -0.4,3.6 -1.1,3.3 -2.4,5.1 -3.6,5.9 -0.2,0.8 -0.4,1.5 -1,4.5 -0.4,3.6 -0.7,4 -0.8,3.5 -1.2,4 -1.4,4.1 -1.1,3.1 -1,3 -0.6,2.3 -1.2,5.2 -1.4,4 -0.6,1.7 -0.7,2 1.7,56.5 4.5,149.1 1.1,39.6 -60.9,94.2 -1.1,0 -78.8,75.3 -58.7,56 -37.1,-4 -159.8,-18.2 -1.9,-0.2 -208,-121.6 -8.1,-4.5 0,0 L 0.9,571.2 0,513.3 l 9.2,-15.8 53,-91.4 8.7,-105.7 1.7,-20.8 12.8,-155 73.2,-62.8 21.5,-18.4 5.8,-5.1 62,59.3 0.9,0.8 4.1,1.8 4.1,2.7 4.8,5.7 6.1,6.6 3.6,3.7 0,0 5.5,11.8 15.4,13.6 7.7,6.8 14.6,2.6 6.1,0.6 12.5,10.8 13.8,10.8 17.8,18.7 4.3,12.1 8.6,12.6 1.4,2.7 55.4,35.7 10.2,6.6 z"
       inkscape:connector-curvature="0"
       class="DEP_11 ZON_04" /></g></svg>