<?xml version="1.0" encoding="UTF-8" standalone="no"?>
<!-- Generator: Adobe Illustrator 19.2.0, SVG Export Plug-In . SVG Version: 6.00 Build 0)  -->

<svg
   xmlns:dc="http://purl.org/dc/elements/1.1/"
   xmlns:cc="http://creativecommons.org/ns#"
   xmlns:rdf="http://www.w3.org/1999/02/22-rdf-syntax-ns#"
   xmlns:svg="http://www.w3.org/2000/svg"
   xmlns="http://www.w3.org/2000/svg"
   xmlns:sodipodi="http://sodipodi.sourceforge.net/DTD/sodipodi-0.dtd"
   xmlns:inkscape="http://www.inkscape.org/namespaces/inkscape"
   version="1.1"
   id="SvgMunicipio"
   x="0px"
   y="0px"
   viewBox="0 0 1000 447.7"
   style="enable-background:new 0 0 1000 447.7;"
   xml:space="preserve"
   inkscape:version="0.91 r13725"
   sodipodi:docname="MUN_ID1111.svg"><metadata
     id="metadata10"><rdf:RDF><cc:Work
         rdf:about=""><dc:format>image/svg+xml</dc:format><dc:type
           rdf:resource="http://purl.org/dc/dcmitype/StillImage" /></cc:Work></rdf:RDF></metadata><defs
     id="defs8" /><sodipodi:namedview
     pagecolor="#ffffff"
     bordercolor="#666666"
     borderopacity="1"
     objecttolerance="10"
     gridtolerance="10"
     guidetolerance="10"
     inkscape:pageopacity="0"
     inkscape:pageshadow="2"
     inkscape:window-width="665"
     inkscape:window-height="480"
     id="namedview6"
     showgrid="false"
     inkscape:zoom="0.426"
     inkscape:cx="500"
     inkscape:cy="223.85001"
     inkscape:window-x="0"
     inkscape:window-y="0"
     inkscape:window-maximized="0"
     inkscape:current-layer="svg" /><g
     id="g3"><path
       id="MUN_1111"
       d="m 283.1,0.1 0.7,0.2 0.7,-0.3 0.3,-0.4 0,-0.8 0,-0.8 0.3,-0.5 0.5,-0.5 0.8,-0.4 3.4,1.1 3,1.4 0.8,2.5 1.2,2.4 3.6,0.6 1.3,1.1 1.4,2.5 1.2,3.5 3.4,2.7 3.7,0.6 2.5,2.3 4.4,4.4 1.2,3.5 3.4,2.1 5.3,0.3 2.7,0.8 2.1,2.1 4.1,-1.2 2.2,-2.5 4.9,1 2.5,1.8 1.7,0.8 6.5,0.6 4.2,3.4 13.2,6.9 4.5,1.4 3,-1.4 4.3,1.3 0.6,0.9 0.4,3 4.3,2.9 3,2.3 1.5,0.8 0.1,0.1 1.8,-1 1.8,-0.5 2.3,0.5 2.3,-0.1 1.2,-0.6 1.4,0.2 1.1,1.1 3.2,1.1 2.1,0.4 1.6,1.2 1,0.7 1.4,0.5 2.4,0.6 0.8,0.6 0.7,0.9 0.5,1.3 1,0.8 1.2,-0.1 1.1,-0.6 1.2,0.1 0.7,1.6 -0.1,1.5 1.2,1.3 2.5,0.5 0.5,1 3.7,4.9 4.9,4.1 1.8,1.3 4,2.5 4.5,1.9 2.3,2.1 2.4,2.2 1.8,1.2 1.6,-0.3 2.1,0.9 0.8,0.5 3.4,0.8 1.2,0.1 3.2,3.3 1.2,-1.1 1,0.2 1.2,1.3 1.9,2.6 1.8,1.7 4.5,3.6 1.9,3.6 1.1,1.6 0.2,0.1 44.5,-25.2 73.6,-41.4 1.5,-0.1 99.9,-1.3 48.6,-0.7 34.8,-0.4 54.2,-0.8 0.6,-0.1 53.2,-5.2 1.5,5.5 0.1,0.5 2.7,7.5 0,2.7 2.3,4.1 5.9,7.6 -0.8,5.4 -0.5,3.8 1.3,1.5 0.5,0.3 5.5,2.8 2.9,4.7 0.5,2.1 0.6,2.1 -0.1,1.9 -0.1,2.5 0.5,2.6 0,0.1 0.1,1.4 -0.7,6.3 2.4,4.5 -0.5,6.2 1.8,4.9 1.9,2.3 0.8,1.6 2,2.6 0.9,3.2 0.1,1.9 0.1,3.1 1.4,2.4 1.4,1.5 0.1,0.2 0.4,0.4 0.5,0.6 0.4,0.3 1.8,1.6 1.4,1.1 2.5,1.6 1,1.1 0.7,1.4 1.6,7.3 0.6,0.8 0.8,2.1 0.5,1.8 0.5,5.6 1,2.3 1.7,3.6 2.4,3.4 -0.1,8.4 1.2,6.8 1.4,2.9 0.6,5.3 -1,4.7 -0.9,4 1.6,6.1 -0.1,3 -2.5,8.1 -0.3,2.9 -3.8,7.8 1.4,0.8 -0.8,3.4 2.6,2.6 -0.8,4.8 8.8,1 3.5,12.3 1.7,10.4 0.1,0.5 8.4,2.3 6.6,7.3 5.3,2.3 6.6,0.1 10.6,2.4 1.8,2.9 -0.1,2.5 -3.2,3.7 -0.6,2.5 1.3,1.8 0.9,0.5 0.7,0.3 2.4,-0.3 1.6,-2.5 1.3,-7.1 0.6,-2.5 2.9,-1.3 2.5,0.5 3,0.1 3.1,-0.6 3.4,-0.8 1.6,0.6 0.5,0.4 5.3,3.4 0,0.2 0.5,6.4 -2.5,2.9 -0.9,0.5 -1.2,1.4 -1.8,3.6 -1.4,9.3 0.7,2.6 -0.6,1.5 -0.8,2.3 -3.2,3.7 -2.7,2.2 -1.1,2.1 0.1,3.3 2.7,4.1 -0.1,5.3 -0.1,3.7 0.3,6 -0.4,3.3 -2.3,3.2 -3.4,3 -1.6,3.7 -2.5,5 -2.5,5.1 -2.7,4.7 -3,2.7 -1.1,3.4 -2.8,3.8 1,5 -0.1,0.1 -1.1,3.3 -1,1.4 -0.9,0.9 -1,1.7 -0.3,2.9 0.8,6.4 -0.4,1.8 -0.8,0.6 -0.5,0.9 -0.9,2.1 0.6,4.9 -1.2,2.1 -8.4,12.8 -0.9,3.2 -1.5,2.1 -1.9,1.7 -4.4,2.8 -3.4,2.3 -3.4,1.4 -3.3,0 -8.7,4.1 -1.6,-0.6 -44.1,-15.1 -96.1,-32.5 -48.4,-16.4 -0.1,0.1 -33.8,55.5 -29.8,-3.4 -129.3,-14.7 -0.3,0 -58.6,1.6 0.5,-6.4 -1.4,-2.9 -0.3,-1.4 0,-1.5 1.2,-2.5 0.6,-2.3 -1.2,-2.2 -1.4,-2.4 1.2,-4 0.9,-2.5 -1.6,-3.6 -1.5,-3.2 -2.7,-3.8 -3.6,-3.4 -3.1,-2.9 -1,-3 -1.9,-2.7 -1.5,-3.4 -1,-1.8 -2.1,-4.9 -1.3,-9.1 1.3,-1.1 0.9,-2.3 -0.7,-1.7 -1.9,-1.4 -2.6,-1.9 -1.9,-1.9 -0.5,-2 1.6,-2.2 0.6,-2.3 -1.7,-7.7 -2.7,-3.4 -2.7,-3 -1.8,-1.6 -1.2,-2.5 -2.4,-6.2 -1.2,-2.7 -2.9,-5.3 -3,-2.9 -3.8,-2.2 -4.7,-1.8 -3.4,-2 -3.2,-4.4 -2.9,-5.4 -1.9,-4.2 -4.3,-17.6 -1.1,-3 -0.4,-2.3 -1.6,-2.3 -2.4,-2.4 -0.6,-2.7 -0.4,-2 -0.4,-0.8 -1.1,0.3 -1.2,0.6 -1.6,0.4 -1.4,-0.8 -0.7,-2.2 0,-17.4 0.3,-2.3 1.8,-0.2 3,-0.1 3.4,-0.8 1.5,-1.2 1.4,-1.4 0.5,-2.1 -0.1,-2.7 L 415,211.5 264,211 227.5,183.6 155.3,129.4 24,129.1 l -1.6,-4.6 0,0 -0.4,-2.5 0,0 0,-0.9 0,-0.3 1.9,-3 10.9,-5.6 13,-8 8.9,-6 29.2,-11 53.9,3.9 36.6,-34.3 9.6,-1.8 29.8,-5.4 4,-1.8 17.4,-7.3 16.8,-11.7 6.5,-8.5 13.4,-26.3 0,0 2.4,1.9 3.3,1.2 0.9,0.8 0.6,0.5 1.2,1.2 0.8,0.5 z"
       inkscape:connector-curvature="0"
       class="DEP_11 ZON_04" /></g></svg>