<?xml version="1.0" encoding="UTF-8" standalone="no"?>
<!-- Generator: Adobe Illustrator 19.2.0, SVG Export Plug-In . SVG Version: 6.00 Build 0)  -->

<svg
   xmlns:dc="http://purl.org/dc/elements/1.1/"
   xmlns:cc="http://creativecommons.org/ns#"
   xmlns:rdf="http://www.w3.org/1999/02/22-rdf-syntax-ns#"
   xmlns:svg="http://www.w3.org/2000/svg"
   xmlns="http://www.w3.org/2000/svg"
   xmlns:sodipodi="http://sodipodi.sourceforge.net/DTD/sodipodi-0.dtd"
   xmlns:inkscape="http://www.inkscape.org/namespaces/inkscape"
   version="1.1"
   id="SvgMunicipio"
   x="0px"
   y="0px"
   viewBox="0 0 1000 725.1"
   style="enable-background:new 0 0 1000 725.1;"
   xml:space="preserve"
   inkscape:version="0.91 r13725"
   sodipodi:docname="MUN_ID1121.svg"><metadata
     id="metadata10"><rdf:RDF><cc:Work
         rdf:about=""><dc:format>image/svg+xml</dc:format><dc:type
           rdf:resource="http://purl.org/dc/dcmitype/StillImage" /></cc:Work></rdf:RDF></metadata><defs
     id="defs8" /><sodipodi:namedview
     pagecolor="#ffffff"
     bordercolor="#666666"
     borderopacity="1"
     objecttolerance="10"
     gridtolerance="10"
     guidetolerance="10"
     inkscape:pageopacity="0"
     inkscape:pageshadow="2"
     inkscape:window-width="665"
     inkscape:window-height="480"
     id="namedview6"
     showgrid="false"
     inkscape:zoom="0.32547236"
     inkscape:cx="500"
     inkscape:cy="362.54999"
     inkscape:window-x="0"
     inkscape:window-y="0"
     inkscape:window-maximized="0"
     inkscape:current-layer="svg" /><g
     id="g3"><path
       id="MUN_1121"
       d="m 911,173.2 -2.4,8.5 -2.2,8.7 -1.2,22.4 0.7,5 2.2,10.5 -0.9,10.2 0,1 -0.4,4.6 -8,10.2 -0.1,13.2 0.4,20.8 -0.1,0.3 -0.5,5.2 -0.3,11 4.3,14.3 5.1,21.8 3.4,15.6 -1,16.3 1.8,16.8 5.5,13.4 2.5,5.9 0.9,8 -4.5,17.8 -1.4,8.5 -2.9,7.2 -0.8,5.8 -10.1,37.7 0.8,24.4 -18,79.3 -5.1,22.5 -7.9,6.8 -29,24.8 -98.7,84.7 -239.9,-34.1 -26.9,-3.9 -180.9,-25.6 -115.9,-2.4 -192.5,-3.9 0.3,-113.7 250.5,-116.3 12.2,-5.6 52.7,-69.4 91.5,-120.5 16.1,5.1 6.2,5.1 7.5,6.9 4.7,3.9 7.9,3.1 14.3,-0.5 1.4,-0.5 6.7,-2.4 2.9,-1.7 5.1,-3 8.7,-3.7 6.8,-1.4 5.2,-1.3 5,-1.2 4.1,-1.4 3.9,-1.7 3.4,-2.5 4.1,-3.5 3.9,-5.4 4.3,-6.3 2.8,-2.9 5,-3.8 7.3,-3.5 0.4,-0.3 7.2,-18.1 2.5,-4.9 2.1,-2.9 5.6,-4.6 8.5,-6.8 8.3,-4.9 6.4,-2.9 1,-0.3 6.8,0 6.3,1.3 7.3,1.3 8,-0.8 5.1,-0.1 0.4,0 6.6,-3 3,-3.8 2.4,-6.4 3.5,-8.9 2.6,-6.3 3.4,-5.5 5.5,-5.1 2.8,-1.6 1.8,-1.6 12.1,-11 1.6,-0.4 3.8,-0.9 4.7,-2.5 3.1,-4.2 1,-2.8 3.3,-11.7 1.6,-5.6 2.1,-17.6 0.8,-2.2 2.5,-5.8 5.9,-9.7 6.9,-9 12.3,-18.5 4.5,-5.2 6.4,-4.6 13.9,-9.6 193.6,1.4 0.5,0 67.3,0.4 -4.6,13 -2,11.9 -2.5,16.1 -30.5,38.3 -5.5,3.8 0,10.2 -2.2,2.1 -13.5,19 -8.5,18.6 -3,2.9 0,4.7 0,7.1 -1.7,5.2 -1.9,7.6 z"
       inkscape:connector-curvature="0"
       class="DEP_11 ZON_04" /></g></svg>