<?xml version="1.0" encoding="UTF-8" standalone="no"?>
<!-- Generator: Adobe Illustrator 19.2.0, SVG Export Plug-In . SVG Version: 6.00 Build 0)  -->

<svg
   xmlns:dc="http://purl.org/dc/elements/1.1/"
   xmlns:cc="http://creativecommons.org/ns#"
   xmlns:rdf="http://www.w3.org/1999/02/22-rdf-syntax-ns#"
   xmlns:svg="http://www.w3.org/2000/svg"
   xmlns="http://www.w3.org/2000/svg"
   xmlns:sodipodi="http://sodipodi.sourceforge.net/DTD/sodipodi-0.dtd"
   xmlns:inkscape="http://www.inkscape.org/namespaces/inkscape"
   version="1.1"
   id="SvgMunicipio"
   x="0px"
   y="0px"
   viewBox="0 0 1000 629.5"
   style="enable-background:new 0 0 1000 629.5;"
   xml:space="preserve"
   inkscape:version="0.91 r13725"
   sodipodi:docname="MUN_ID1110.svg"><metadata
     id="metadata10"><rdf:RDF><cc:Work
         rdf:about=""><dc:format>image/svg+xml</dc:format><dc:type
           rdf:resource="http://purl.org/dc/dcmitype/StillImage" /></cc:Work></rdf:RDF></metadata><defs
     id="defs8" /><sodipodi:namedview
     pagecolor="#ffffff"
     bordercolor="#666666"
     borderopacity="1"
     objecttolerance="10"
     gridtolerance="10"
     guidetolerance="10"
     inkscape:pageopacity="0"
     inkscape:pageshadow="2"
     inkscape:window-width="665"
     inkscape:window-height="480"
     id="namedview6"
     showgrid="false"
     inkscape:zoom="0.37490071"
     inkscape:cx="500"
     inkscape:cy="314.75"
     inkscape:window-x="0"
     inkscape:window-y="0"
     inkscape:window-maximized="0"
     inkscape:current-layer="svg" /><g
     id="g3"><path
       id="MUN_1110"
       d="m 417.1,13.6 1.3,1.1 1.8,1.1 1.6,0.6 2,0.6 2.5,0.9 2.1,0.5 1.6,-0.1 1.4,-0.8 0.6,-2.1 0,-2 0.1,-2.3 0.6,-1.3 0.8,-0.6 0.9,-0.1 0.9,0 2.1,0.8 3.4,1.3 3.9,1.1 4.4,1 2.8,0.6 1.3,0.3 1.1,1.1 0.7,1.4 0.6,1.7 -0.4,2.3 -1.8,1.6 -1.4,0.3 -1.6,-0.9 -1.1,-2.5 -0.8,-2.4 -0.3,-0.9 -0.8,-0.2 -1.3,0.5 -1.4,2.2 -1.1,1.5 -1.9,1.1 -2.2,0.9 -1.7,2.4 -1.1,3.6 -0.7,1.4 0,1.3 0.7,0.8 1.5,-0.3 1.2,-1.1 1.3,-2.6 1.2,-0.9 1.1,-0.9 0.9,-0.4 1.5,-0.3 1.2,0.2 0.5,1.1 -0.7,2.2 0,2.1 0.9,0.9 1.8,0.4 1.7,0 2.7,0.3 2.8,0.1 3.1,-0.3 2.6,-1 2.1,-0.5 1.1,0.1 0.8,0.5 0.9,0.5 0.5,0.7 0,0.9 -0.7,2.5 -0.7,3.2 -0.5,2.5 -0.3,2.5 0.2,2 0.3,1.7 0.5,0.8 0.8,0.4 1,0.5 1.9,-0.2 1,0.1 1.3,0.4 0.4,-0.3 0.3,-0.9 -0.5,-1.2 -1.8,-1.6 -1.7,-2.2 -0.5,-1 0,-0.8 0.6,-1.1 0.8,0 0.9,0 1.2,1 1.8,1.8 1,0.8 1.1,0.2 1,-0.2 3,-2.6 1.7,-1.4 1,-0.3 1.3,-0.4 1.4,-1.1 0.5,-1.1 1.3,-2 1,-0.8 1.6,-1.1 1.4,0 2.4,1.7 2.8,2.6 2.7,2.5 1.5,1.3 1.3,1 1.4,1 0.9,0.4 2.5,-0.5 2.1,-0.9 1.3,-0.8 0.3,-1.1 -0.4,-0.8 -0.8,-0.9 -0.7,-0.9 0.3,-1 0.9,-0.7 4.3,-1.6 4.2,-1 2.4,-0.4 2.3,0.9 0.5,1.3 0.2,1.8 -1.1,2.2 -0.9,2.1 -0.7,3 -0.3,1.9 0.5,1 0.8,0.4 1.7,0.2 3.7,-1.8 0.8,-0.7 1.7,-1.6 2.1,-2.7 0.2,-1.1 0,-1.7 -0.6,-2.4 -1.2,-1 -0.5,-2.4 0.6,-3 0.6,-1.6 1.1,0 3.3,0.9 1.5,1.4 -0.5,3.4 -0.8,4.2 -0.7,2.5 -0.4,1.2 0.7,0.9 1,-0.2 1.5,-1.1 2.4,-1.7 1.3,-0.8 2.5,0 3.7,0.2 2.4,-0.2 0.5,-1.1 -1.3,-1.6 -1.5,-1 -1.2,-1.1 -1.1,-1.2 -0.8,-1.5 -0.6,-1.8 -0.4,-1.2 -1.1,-1.3 -1.9,-1.2 -0.8,-1.7 1,-0.9 2,-0.5 2.9,-0.7 1.1,0.1 0.9,0.5 1.3,1.1 1.8,1 1.7,-0.3 0.4,-0.6 0.3,-1.6 -0.7,-2.3 -0.5,-1.9 0,-0.9 0.5,-1.9 0.6,-1.3 0.9,-1 0.5,-1.3 0.6,-0.8 1.5,-0.1 1.1,0.8 1.5,2.4 0.5,2.2 0,2 -0.7,1.9 -0.8,1.7 -0.5,2.1 1.2,3 0.5,1.1 0.8,0.9 1,0.4 0.5,0 0.9,0 0.9,-0.3 0.4,-0.9 0.3,-1.3 0.2,-1 0.4,-0.9 1.7,1.3 0.6,1.6 -0.3,1.2 -1.1,2.5 0.9,1.1 1.1,0.9 1.3,0.4 1.1,0.5 0.3,1.1 0,2.1 2.7,3.1 1.5,0.5 1.4,-0.2 0.5,-0.6 0.4,-0.9 0.1,-0.2 0,-0.2 0.3,-1.3 0.5,-0.7 1.8,0 1.8,0.5 1.5,1.2 -0.7,1.5 -0.5,2 -0.1,1.5 -0.3,1.1 -0.3,1 -0.1,1.2 -0.1,0.9 0.5,1.1 0.5,0.6 0.3,0.7 0.5,0.8 0.5,0.7 0.5,0.2 0.9,0.4 0.8,0.3 0.6,0.3 0.3,0.7 0,0.9 0,1.2 0.2,0.8 0.5,1.2 0.3,1.1 0,0.9 -0.2,1.6 0.3,1.1 0.8,1 1.5,1.4 0.7,0.8 0.9,0.3 0.9,0.2 0.9,0.5 0.4,1.3 0.4,1.3 0.5,0.9 0.5,1.1 1.1,2.2 0.3,1.8 0.3,0.7 1.9,2.1 1.5,0.8 1.4,0.9 1,0.8 0.5,0.8 0.3,1.2 0.1,1.8 0.3,1.5 0.4,1.5 0.7,0.8 0.6,1.6 0.4,0.9 -0.7,2.2 0.5,1.5 0,1.4 0.1,1.3 0.3,1.3 0.4,1.2 0.8,1.1 0.2,0.8 0,1.8 0.3,1.1 0.4,1.9 0.7,1.4 0.7,1.3 1.4,0.9 0.8,0.7 0.9,0.7 0.3,1.2 -0.1,1.1 -1.6,1 -1.2,0.3 -0.8,0.7 0.2,2.1 0.6,2.7 0.2,1.3 0.3,1.6 0.1,1.2 0,1.1 0,1 0.4,0.6 0.6,0.8 1,0.4 0.7,0.3 1,0.1 1.7,-0.2 1.1,-0.1 1.1,-0.1 1.4,0.1 0.9,0.1 1,0.7 1,0.4 0.8,0 0.7,0 0.9,0.5 1.3,0.2 0.7,0.2 1.1,0.6 0.8,0.4 0.7,0.9 0.5,0.6 0.2,0.3 0.5,0.3 1.2,0.3 0.8,0.3 0.6,0.3 0.8,0.4 1,0.5 0.5,0.3 0.7,0.2 0.5,0.2 0.5,0.3 0.4,0.3 0.7,0.6 0.8,0.4 0.8,0.5 1.3,-0.1 0.5,-0.3 0.5,0.1 0.6,0.5 0.4,0.2 0.5,0.1 0.3,0 0.5,-0.2 0.9,-0.3 0.7,-0.4 1.3,-0.1 1.2,0.3 1.1,-0.5 0.8,-0.5 0.3,-0.4 0.4,-0.7 0.6,-0.6 0.7,-0.2 0.8,0 0.9,0.5 0.6,0.6 0.5,0.4 0.4,0.2 0.3,0 0.6,0 0.5,-0.3 0.4,-0.6 0.4,-0.4 0.5,-0.7 0.4,-0.8 0.3,-0.7 0.3,-0.8 0,-0.5 0,-0.8 0,-0.6 0.3,-0.7 0.4,-0.6 0.8,-0.2 0.8,-0.3 0.6,-0.1 1.1,-1.1 0.5,-1.6 1.1,-0.9 2.5,0 6.3,0 15.3,2.5 4.2,1 4.7,0.3 2.7,0.8 5.3,3.9 4,4 2.6,3.9 2,4.8 1.7,1.8 2.9,1 3.6,2 6.7,3.6 -32.4,27.5 -19.8,13 -23.6,17.5 -0.3,0.7 -0.7,0.5 -1.1,0 -0.6,0 -1.3,0.1 -1.2,0.2 -1.4,0.2 -1.2,0.2 -1.2,0 -0.8,0.1 -0.9,0.3 -1,0.8 -0.4,0.4 -0.9,0.7 -0.5,0.6 -0.3,0.5 -0.6,0.3 -0.9,0.7 -0.9,0.5 -0.6,0.4 -0.5,0.3 -0.8,-0.1 -0.8,-0.8 -0.5,-0.6 -0.3,-0.1 0.3,-0.5 -0.2,0.5 -0.3,0.6 -0.3,1 -0.5,1.1 -0.3,0.8 -0.4,0.4 0,0.6 -0.3,0.5 0.5,1.1 -0.6,0.8 -0.1,0.7 -0.4,0.5 -0.9,0.5 -1.2,0.9 -0.7,0.6 -0.8,0.2 -0.5,0 -0.4,0.3 -0.6,0.6 -0.2,0.5 0.1,0.8 0,0.5 -0.2,0.6 -0.2,0.6 -0.9,0.3 -1.1,0.9 -1.3,0.9 -1,1 -0.9,0.9 -0.9,1.3 -0.3,1.8 0,1.4 -0.8,0.4 -1.3,0 -0.9,0 -1.3,0.3 -0.9,0.7 -1.3,0.7 -0.8,1 -0.3,1.1 0,1.5 -0.5,1.3 -0.2,0.9 -0.6,1.1 -1,1 -0.9,0.5 -1,0.5 -0.4,0.4 0,0.7 0,0.9 -0.3,0.7 -0.5,0.7 -0.4,0.6 -0.7,0.8 -0.5,1.1 -0.5,1.4 -0.5,1.1 -0.4,1.1 -0.8,0.7 -0.6,0.3 -4,8.9 -0.7,5.4 -2,14.9 0.3,4.1 0.3,5.3 0.3,1.3 0.2,5.5 3.2,1.2 9,0.8 10.2,-0.4 7.4,0.4 7,1.4 0.4,1.6 0.6,0.8 0.5,0.4 0.8,0.2 0.9,0.2 1.1,0 0.7,-0.3 1,-0.7 0.9,-0.4 0.8,-0.8 1.3,-1 0.9,-0.7 1.9,-1 0.7,-0.3 0.9,-0.1 1.6,0.1 0.6,0 1.1,0.5 0.9,0.4 0.5,0.2 0.8,0 52.5,1.1 0.7,0 22.1,5.6 15.8,10.8 2.4,-3.3 5.8,-1.1 4.1,0.5 0.6,-2.6 12.1,7.3 13.6,2.8 2.9,1.6 3.2,0.4 0.9,-0.8 1.9,0 0.4,-1.2 4.3,1.1 -0.5,2.1 0.3,0.9 0.5,0.3 0.5,0.3 0.5,0.3 0.7,0.4 0.7,0.4 0.5,0.8 0.2,0.5 0.1,1.1 0.1,1 0.2,1.9 0.2,0.7 0.8,1.4 0.6,0.8 0.6,0.5 1,0.5 0.8,0.2 1.3,0.2 1,0.3 1.4,0.5 1.6,0.5 1.4,0.5 2.2,0.8 0.8,0.4 0.8,0.4 0.9,0.4 0.5,0.1 0.7,0 0.8,-0.1 0.6,0 1.6,0 1.6,0.1 1.4,0 1.3,0 1,-0.1 1.3,-0.4 0.9,-0.1 0.9,-0.1 0.6,0 -4.8,28.4 -0.2,1.2 -0.3,0.5 -0.8,0.7 -0.7,0.5 -0.4,0.4 -0.2,0.7 0,0.8 0.2,0.5 0.3,0.8 0.6,0.5 0.5,0.4 1.1,0.6 1,0.4 1.1,0 1.4,-0.4 1.1,0 0.9,-0.2 0.7,-0.1 0.8,0.2 0.5,0 1.2,1.1 1.2,1.2 0.8,1.2 0.7,0.4 0.8,0.8 1,0.5 0.8,0.4 0,0 80.2,85.2 1.7,6.6 0.8,2 0.9,2.2 1.3,1.3 1.3,1.2 1.3,1 1.6,0.5 1.2,0.9 1.1,0.9 1.9,0.9 0.8,0.6 1.1,1.5 0.9,1.3 0.8,0.8 0.9,1 0.6,1.1 0.8,1.6 1,0.9 1.1,0.7 1.4,1.1 0.5,1.7 1.6,0.8 0.8,0.8 1.3,0.9 1.4,1.6 0.6,0.6 0.5,1.3 0.3,0.8 0.1,0.9 0.2,1.1 0.3,1 0.7,0.8 0.7,0.5 1,0.6 0.7,0.5 0.6,0.9 0.4,0.8 0.4,1 0,1.1 -0.1,0.9 0.8,1.1 1,0.8 0.8,0.9 1,0.7 0.7,0.5 13.2,15.6 15.9,18.9 4.2,12.1 4.2,12.1 -6.3,-0.4 -5.2,0.6 -3.1,1.6 2.1,4.7 -1.8,2.9 -2.7,2.2 -2.6,0.6 -1.1,-3.9 -3.7,1.8 -1.5,0.6 -4.4,-0.1 -2.1,-1 -2.3,-2.8 -2.2,-0.5 -1,-1.2 -3.2,-0.5 -4.2,-0.5 -2.9,-1 -0.9,0 -4.4,0.3 -8.9,-1.5 -17.2,-1.8 -5.4,-0.5 -8.2,-1 -5,0 -5.3,-0.6 -3.4,-0.8 -2.8,-0.4 -3.2,0.3 -3,-0.6 -2.5,0 -2.6,0 -5.2,-0.7 -4.3,-0.5 -3.5,0.3 -1.7,0.5 -0.2,1.8 0,1.6 -1.9,-0.2 -1.3,-0.3 -1.1,-1.4 -1.8,-1.5 -2.4,-0.3 -2.6,-1 -7.1,-0.1 -7.9,1.3 -4.5,0 -1.9,0 -1.4,1.1 -0.5,1.8 -1.8,0.4 -1.6,-0.5 -2.2,2.9 -1.6,1.7 -2.1,0.4 -0.6,0 -0.5,1.1 -1.3,0.6 -1.8,0.3 -0.6,0.4 -0.8,-2.8 -3.1,-1.5 -9.5,-1.3 -5.5,-0.3 -3.4,0 -2.4,-0.5 -1.5,0.4 -0.5,1.6 -1.5,1 -0.7,-2.1 -1.8,-1.8 -2.3,0.4 -7.2,0.3 -6.8,-0.7 -6,-0.9 -3.7,0.8 -1.3,0.5 -0.7,0 -1.5,-1.2 -6.5,0.5 -4.4,0.5 -2.5,0.1 -2.5,0.5 -0.4,1.7 -1.6,0.6 -2,0.1 -2.3,0.6 -2.3,4.7 -2.1,2.8 -2,-0.1 -2.6,-1.8 -2.5,-1.3 -4.7,1.6 -2.1,0 -1.9,-1.5 -1.7,-1.6 -4.5,-0.8 -6.4,-0.6 -3.7,1.2 -3.9,1.9 -1.4,1.8 -2.9,-0.5 -3,0.1 -2.8,1.7 -1.1,1.9 -2.6,0.8 -1.3,1.7 -0.2,3.7 -3.2,0.8 -2,0.7 -3.4,-1.8 -3.4,-0.5 -3.1,0.9 -2.8,2.4 -0.2,3.6 -0.5,3.7 -2.2,0.4 -2.2,-2.3 -2.5,0.4 -0.3,1.7 -1.3,1 -3.5,-1.1 -3,-0.7 -3.3,-2.9 -4.9,-0.5 -1.1,1.2 -3.6,-0.8 -2.1,0.8 -2.9,3.2 -0.5,3.2 -1.1,2.5 -1.1,-1.2 -0.8,-5.2 -1.5,-1.1 -1.7,-1.8 -3.5,-0.3 -1.9,0.4 -2,0.7 -1.9,-1.4 -3.5,0.5 -2.8,0.2 -1.9,2 -0.6,3.7 -1.5,2.5 -0.5,1.1 -1.9,-0.8 -2.8,-1.8 -1.1,-3.7 -0.6,-1.6 -2.6,0.8 -1.7,-0.9 -2.5,1.1 -1.2,0.3 -1.1,-1.8 -2.9,-3.1 -5,1.2 -16.5,-2.4 -0.6,-0.1 -6.1,-0.9 -4,-1.8 -4.2,-0.1 -6.3,-0.7 -7.1,-1.1 -4.7,-0.1 -4.8,-1 -3.7,0 -7.4,-1.5 -7,-1.5 -4.2,-1.9 -2.6,-1.7 -1.4,-7.2 -1.2,-3.9 -1.3,-2.4 -3.4,-3 -7.5,-2.4 -6.5,1.2 -6.5,-1.5 -5.8,-4.6 -8,-2 -10.1,0.3 -7.7,3.4 -5,0 -3.2,0 -7.9,0 -8.7,1.2 -1.4,-4.2 -9.4,-2.2 -7.2,-2 -5.3,-3.9 -8.2,-3.9 -6.3,-3.7 -3.9,-2 -10.3,0.9 -6,0.5 1.9,-4.8 -4.3,-1.5 -4.3,3.6 7.4,5.6 11.8,1.8 7,1.9 9.1,6.6 15.2,10 6.5,5.3 4.1,2.2 -2.2,-7.3 2.4,1 16.6,6.1 15.2,-3.1 8.9,-1.9 7.2,4.6 6.3,3.2 8.7,1 3.2,0.3 6.5,-2.6 5.5,-2.9 0,4.6 -5.5,3.9 -6.8,1.4 -11.6,1.4 -16.3,-4 -21,-2.7 -39.5,-5.9 -25.7,-3 -35.9,-4.7 -13,-1.7 -29.6,-2.7 -10.8,-1.5 -15.4,0.9 -16.4,-2.3 -47.2,-1.1 -17.1,-0.8 -8.2,0.5 -6.3,-1 -3.4,-1.5 -14,1.2 -18.3,-1.3 -59.8,8.8 -2.1,-10.5 -1.5,-16.4 0,-0.2 1.8,-8.3 4.1,-3.2 6.9,-6.1 7.3,-5.3 3.6,-4.6 4.5,-7.6 -0.8,-8.8 -2,-3.5 -4.6,-4.4 -6.1,-4.4 -7.6,-3.2 -5.5,-3.1 -6.1,-1.8 -9.7,-3.8 -5.4,-2.4 -6.9,-3.6 -7.1,-4.9 -7.4,-7.8 -9.9,-9 -4.4,-6.5 -3.7,-7.2 -1.1,-3.7 -0.9,-3.1 -0.8,-2.7 6.3,-1.8 4.6,-1.6 5.8,-1.7 5.2,-0.2 5.5,3.1 2.9,3.4 2.8,2.8 3.2,2.2 2.8,1.4 2.9,0.5 1.8,0.5 2.3,-0.3 3.2,-1.7 3.7,-3.7 1.8,-1.7 5.1,-5.7 7.4,-5.6 6.7,-2.4 4.7,-2.3 2.1,-1.5 0.9,-1.9 0.3,-3.2 2.1,-3.1 5,-1.6 15.2,-3.1 8.7,-4.8 5.8,-2.8 7,0.8 6.9,0.3 2.9,-0.8 3,-1.4 9.3,-8.8 28.8,-22.9 1.4,-4 2.1,-5 1.7,-2.1 3.1,0.5 1.1,0.5 3.1,0.7 1.2,-0.7 0.7,-1.9 0.3,-2.4 0.6,-1.3 1,-0.8 1.2,-0.8 1,-1.6 -0.7,-4 0,-6.6 33.5,-48.9 -0.3,-28.5 42.9,-10.8 11,-3.3 11.6,-1.9 11.3,-2.1 10.9,-0.9 11.3,-4 18.6,6.1 31.2,-20 -16.5,-16.8 -24.2,-24.2 -7,-3.5 -4.5,-14.6 0.8,-9.6 1,-4.6 -2.5,-12.1 1.4,-5.3 5.7,-0.8 1.4,-13.4 5.8,-4.2 8.2,-6.6 5.8,-6.3 2.1,-3 3.4,-6.9 1.6,-6.9 -1,-5.8 -2.5,-4.5 -5.5,-11.5 -1.7,-2.3 -3.4,-2.7 0.1,-0.2 2.1,-5 1.7,-2.2 5.9,-4 3,-2.6 1.5,-0.5 3.7,-0.3 1.1,-0.3 1.1,-0.6 1.1,-1.3 0.7,-1.9 0.5,-1.8 0.8,-1.3 0.8,-0.7 1.2,-0.6 0.6,0.2 1.6,0.8 1.8,1.6 1.6,2.3 2.4,2.7 1.1,1.3 1.2,2.7 1.7,1.7 0.9,0.4 1.2,0.2 2,-0.5 1,-1.4 0.7,-1.4 -0.4,-1.9 -1.1,-0.9 -1.1,-1.5 -1,-2.1 -0.5,-1.2 0,-2.4 0.1,-1.4 0.6,-1.5 1.2,-0.9 1.1,-0.3 1.4,0.3 1.5,1.2 1,1.6 1.1,0.9 0.8,0.5 1.6,0.6 1.6,-0.1 2.1,-0.6 1,-1.3 0.2,-1.1 -0.4,-1.6 -0.5,-1.5 -1.5,-1.4 -2,-1.5 -0.4,-1.4 -0.6,-1.3 0,-1.3 0.4,-1.1 0.6,-1.2 1.2,-1.2 1,-0.5 0.8,0 0.9,0.2 0.7,0.5 1,1.6 1.2,1.5 0.7,1 0.8,0.7 1.2,0.9 1.5,0.2 1.3,-0.8 0.5,-1.1 -0.4,-1.5 -0.3,-1.7 -0.3,-1.7 -0.1,-1.2 0.5,-0.9 1,-0.5 10.5,-2.6 2.7,-0.9 1.6,-2.6 2.5,-3.7 3.2,-4.8 0,0 0.9,3.6 0.8,4.2 0.5,2.2 -0.1,1.7 -0.9,1.6 -3.2,1.6 -1.8,1.5 -1.3,1.9 -0.7,1.7 0.5,2.1 0.7,0.9 z"
       inkscape:connector-curvature="0"
       class="DEP_11 ZON_04" /></g></svg>