<?xml version="1.0" encoding="UTF-8" standalone="no"?>
<!-- Generator: Adobe Illustrator 19.2.0, SVG Export Plug-In . SVG Version: 6.00 Build 0)  -->

<svg
   xmlns:dc="http://purl.org/dc/elements/1.1/"
   xmlns:cc="http://creativecommons.org/ns#"
   xmlns:rdf="http://www.w3.org/1999/02/22-rdf-syntax-ns#"
   xmlns:svg="http://www.w3.org/2000/svg"
   xmlns="http://www.w3.org/2000/svg"
   xmlns:sodipodi="http://sodipodi.sourceforge.net/DTD/sodipodi-0.dtd"
   xmlns:inkscape="http://www.inkscape.org/namespaces/inkscape"
   version="1.1"
   id="SvgMunicipio"
   x="0px"
   y="0px"
   viewBox="0 0 1000 894.5"
   style="enable-background:new 0 0 1000 894.5;"
   xml:space="preserve"
   inkscape:version="0.91 r13725"
   sodipodi:docname="MUN_ID1107.svg"><metadata
     id="metadata10"><rdf:RDF><cc:Work
         rdf:about=""><dc:format>image/svg+xml</dc:format><dc:type
           rdf:resource="http://purl.org/dc/dcmitype/StillImage" /></cc:Work></rdf:RDF></metadata><defs
     id="defs8" /><sodipodi:namedview
     pagecolor="#ffffff"
     bordercolor="#666666"
     borderopacity="1"
     objecttolerance="10"
     gridtolerance="10"
     guidetolerance="10"
     inkscape:pageopacity="0"
     inkscape:pageshadow="2"
     inkscape:window-width="665"
     inkscape:window-height="480"
     id="namedview6"
     showgrid="false"
     inkscape:zoom="0.26383454"
     inkscape:cx="500"
     inkscape:cy="447.25"
     inkscape:window-x="0"
     inkscape:window-y="0"
     inkscape:window-maximized="0"
     inkscape:current-layer="svg" /><g
     id="g3"><path
       id="MUN_1107"
       d="m 652.8,187.2 5.8,1.3 9.9,-1.3 4.5,-0.9 1.2,1.6 1.1,1.5 2.2,0.3 5,-1.3 1.6,-0.1 3.8,0.1 2.2,1 0.5,0.2 4.9,-0.8 2.3,0.7 1.4,3.1 1,3.1 3.5,0.3 3.9,-3.2 1.9,-2.9 5,0.4 2.6,-2.1 1.3,-2.5 4.5,-0.9 3.5,-1.9 4.7,-6.8 4.4,-4.3 1,-0.1 6.9,-0.5 2.3,-7.1 6,-7.8 2.9,-4.7 10.7,-6.7 5.3,-5 115,5.2 0.2,0 6,5.5 2.6,2.6 2.4,3.3 -2.4,4.4 -1.4,2.9 -1.1,3.1 -0.4,5.6 -0.5,5.5 -1.9,3.4 -5.4,2.6 -0.8,2.2 6.4,6.5 4.2,6.9 -1.1,1.6 -8.1,-1.3 -5.4,-1.6 -2.5,0.1 -0.5,2.2 -1.4,10.3 -4.2,7.6 -6.4,5.8 -0.9,6.1 -0.2,1.5 -8.1,21 -10.5,15.6 -2.7,9.4 -0.5,1.6 0.1,6.8 5.3,5 -0.8,2.3 -4.4,3.1 1.4,7.3 -2.4,5.3 -0.3,3.4 0.9,3.4 1.3,4.3 0.9,2.3 0,1.4 0.3,5.3 0.1,6.5 0.9,2.9 2.6,2.2 3.4,1.9 1,1.2 1.1,1 3,8.8 3.1,2.9 5.7,0.5 2.1,-4.2 1,-4.4 -0.8,-3.7 -0.1,-5.5 0,-3 -2.3,-6.7 0.9,-2.7 3.9,1.1 7.1,1.5 6.1,2.3 6.4,2 6,1.5 8.1,0.9 9.5,2.3 8,2.5 2.7,1.2 5,0 12.1,-3.8 4.6,0.1 0.7,1.8 0.3,3.8 0,5.5 0,2.7 2.1,10 3.9,3.5 7.8,5.7 3,6.4 1.5,15.3 -0.1,5.2 -0.1,3.5 0,7.6 0.4,6.4 -0.8,23.1 -0.4,3 -0.8,2.6 -3.9,8.5 -0.4,5.5 1,9.4 3,11.5 3.5,5 7.6,7.3 8.2,17.3 1.9,9 2.1,13.3 0,2.1 -1.2,8 -0.3,10.7 8.8,14 0.9,4.1 0.7,2.5 0.4,3.7 -1.2,4.3 -36.9,20 -6.9,3.8 -3.4,7 -2.2,4.6 -4.1,8 -3.3,4.2 -4.9,4.8 1.4,1.5 4.3,4.1 2.1,9.1 1.8,7 3.1,6.7 0.7,2.3 0.7,9.9 -0.7,2.5 0.3,3 -0.4,6.6 2.5,3.4 1.5,2.2 1.4,4.7 0.9,7.5 0.7,6.8 0.4,3.8 3.5,7 -0.4,3 2.3,5.7 -0.9,22.4 -0.8,7.7 -1.3,12.5 0,12.8 -91.6,1.3 -58.8,0.7 -82.1,1.2 -168.9,2.2 -2.5,0.1 -124.4,70 -75.3,42.5 -0.3,-0.2 -1.9,-2.6 -3.3,-6.1 -7.7,-6 -3.1,-2.8 -3.2,-4.4 -2,-2.2 -1.8,-0.3 -2.1,1.9 -5.5,-5.6 -2.1,-0.1 -5.7,-1.3 -1.4,-0.9 -3.5,-1.5 -2.6,0.4 -3,-2 -4.1,-3.7 -3.9,-3.6 -7.7,-3.3 -6.8,-4.2 -3.1,-2.2 -8.2,-6.9 -6.2,-8.3 -0.8,-1.6 -4.3,-0.8 -2.1,-2.2 0.1,-2.5 -1.2,-2.7 -2,-0.2 -1.9,1 -2,0.1 -1.5,-1.8 -0.8,-2.2 -1.2,-1.5 -1.4,-1.1 -4.1,-1.1 -2.4,-0.8 -1.8,-1.2 -2.6,-2.1 -3.6,-0.7 -5.5,-1.9 -1.9,-1.9 -2.3,-0.3 -2,1 -3.8,0.1 -3.9,-0.9 -3.1,0.8 -3.1,1.6 -0.2,-0.1 -2.5,-1.4 -5,-3.9 -7.3,-4.8 -0.7,-5 -1.1,-1.5 -7.2,-2.2 -5,2.4 -7.6,-2.4 -22.4,-11.6 -7.1,-5.7 -11,-1.1 -2.9,-1.4 -4.3,-3 -8.3,-1.6 -3.7,4.3 -6.9,2 -3.6,-3.6 -4.5,-1.4 -9,-0.4 -5.7,-3.5 -2,-5.9 -7.5,-7.5 -4.2,-3.9 -6.2,-1 -5.8,-4.5 -2.1,-5.9 -2.4,-4.2 -2.2,-1.9 -6,-1.1 -2,-4.1 -1.4,-4.3 -5.2,-2.3 -5.8,-1.9 -1.4,0.7 -0.8,0.9 -0.5,0.8 0,1.3 0,1.3 -0.4,0.7 -1.2,0.4 -1.2,-0.3 -1.1,-0.9 -2.1,-2.1 -1.1,-0.9 -1.5,-1.3 -5.6,-2 -4.1,-3.2 0,0 -4.7,-20.2 -4.1,-15.1 1,-3.7 7.4,-25.8 6.2,-17.4 6.1,-17.5 10.1,-17.1 4.6,-11.5 7.1,-10.6 12.4,-14 13.8,-18.4 13.5,-20.2 7.1,-10.5 10.5,-5.7 13.8,-4.5 9.9,-6 22.5,-24.6 6.9,-13.3 0.7,-8.7 4.3,-53.5 1.5,-28.5 6,-15.8 3.6,-3.1 5,-6.2 20.2,-9.8 18.1,-9.2 11.9,-8.8 19,-18 33.8,-53.4 8.8,-9.6 14.6,-14.1 7,-5.6 20.9,-10 6.7,-4.7 1.2,-0.9 7,-6.6 5.7,-7.5 13.8,-6.9 14.9,-3.1 14.7,-2.3 20.3,-3.5 8.2,-5.6 4.9,-6.2 5.8,-10.7 1.4,-11.7 1.8,-15.9 5,-10.5 8.7,-15.1 11.4,-10.9 19.5,-14.7 25.8,-13.3 22.5,-6.1 15.7,-13 19.4,-8.8 13.6,-7.9 13.6,-10.5 36.1,20.4 6.9,15.9 0.9,1.3 -6.4,7.8 -0.5,1.9 1,4.7 -6.4,11 -0.7,2.2 1.8,3.5 0,1.1 5.6,4.6 1.3,2.2 8.4,14 9.5,14.3 2.3,1.2 5.6,1.3 -0.7,3.7 -7.5,9.9 -2.6,10.2 -1.3,17.2 1.1,5.4 0.9,3.5 2.5,3.2 2.8,3 1.5,1.4 1.6,2.2 2.7,6.8 2.6,4.3 z"
       inkscape:connector-curvature="0"
        class="DEP_11 ZON_04" /></g></svg>