<?xml version="1.0" encoding="UTF-8" standalone="no"?>
<!-- Generator: Adobe Illustrator 16.0.0, SVG Export Plug-In . SVG Version: 6.00 Build 0)  -->

<svg
   xmlns:dc="http://purl.org/dc/elements/1.1/"
   xmlns:cc="http://creativecommons.org/ns#"
   xmlns:rdf="http://www.w3.org/1999/02/22-rdf-syntax-ns#"
   xmlns:svg="http://www.w3.org/2000/svg"
   xmlns="http://www.w3.org/2000/svg"
   xmlns:sodipodi="http://sodipodi.sourceforge.net/DTD/sodipodi-0.dtd"
   xmlns:inkscape="http://www.inkscape.org/namespaces/inkscape"
   version="1.1"
   id="SvgMunicipio"
   x="0px"
   y="0px"
   width="1000.012px"
   height="847.329px"
   viewBox="65.148 118.547 1000.012 847.329"
   enable-background="new 65.148 118.547 1000.012 847.329"
   xml:space="preserve"
   inkscape:version="0.91 r13725"
   sodipodi:docname="MUN_ID1117.svg"><metadata
     id="metadata10"><rdf:RDF><cc:Work
         rdf:about=""><dc:format>image/svg+xml</dc:format><dc:type
           rdf:resource="http://purl.org/dc/dcmitype/StillImage" /></cc:Work></rdf:RDF></metadata><defs
     id="defs8" /><sodipodi:namedview
     pagecolor="#ffffff"
     bordercolor="#666666"
     borderopacity="1"
     objecttolerance="10"
     gridtolerance="10"
     guidetolerance="10"
     inkscape:pageopacity="0"
     inkscape:pageshadow="2"
     inkscape:window-width="665"
     inkscape:window-height="480"
     id="namedview6"
     showgrid="false"
     inkscape:zoom="0.27852228"
     inkscape:cx="500.00601"
     inkscape:cy="423.66449"
     inkscape:window-x="0"
     inkscape:window-y="0"
     inkscape:window-maximized="0"
     inkscape:current-layer="svg" /><g
     id="g3"><path
       id="MUN_1117"
       d="m 1065.159,378.645 -184.071,472.876 -16.246,42.113 -4.259,3.471 -8.518,5.678 -3.786,2.366 -5.521,3.47 -3.313,1.578 -2.365,1.734 -1.42,2.523 -0.789,1.894 0.315,7.255 -0.788,4.102 -1.262,2.051 -2.524,2.208 -1.419,1.577 -3.155,0.157 -2.208,-0.315 -2.523,-1.104 -1.735,-0.946 -1.893,-0.474 -1.893,-0.157 -1.735,0.631 -1.262,0.788 -2.682,3.155 -0.946,1.577 -1.262,1.577 -1.104,0.157 -1.578,-0.157 -1.417,-0.63 -1.735,-1.893 -2.208,-1.578 -2.051,-0.473 -2.997,0.473 -2.365,1.578 -2.051,4.101 -2.051,5.836 -1.262,2.839 -1.735,1.104 -5.047,0.474 -1.735,0.157 -1.734,0.946 -1.104,1.735 -0.631,4.101 -0.631,3.943 -2.997,4.259 -2.366,0.474 -90.222,-37.067 -188.33,-77.761 -242.274,-99.844 0.474,-3.943 -2.051,-4.416 -2.997,-1.577 -0.631,-1.893 3.785,-4.89 3.313,0.473 3.628,1.577 3.786,-0.157 2.996,-3.313 -0.157,-2.682 -1.42,-1.42 -2.05,-0.473 -0.947,-3.785 0.158,-2.997 0.946,-1.104 1.262,-4.101 1.42,-1.104 1.104,-1.893 0.158,-5.048 1.893,-2.681 1.262,0.315 1.42,2.05 1.262,1.104 1.262,-0.789 1.42,-2.365 2.682,-3.471 3.785,-1.577 0.946,-2.208 -0.157,-1.735 -1.42,-3.943 -1.577,-2.681 -3.313,-1.578 -0.315,-4.259 -1.577,-1.734 -8.36,0.473 -8.518,-8.833 -4.731,-5.205 -0.158,-3.943 2.051,-4.258 1.104,-5.679 -2.051,-5.836 0.631,-12.618 -1.893,-2.997 -2.839,-2.051 -1.577,-2.523 -0.474,-4.89 0,-5.363 -3.154,-5.678 -1.263,-2.997 0,-1.42 -2.05,-0.315 -2.997,-0.788 -2.208,-1.42 -3.628,-0.789 -5.836,-1.104 -4.259,-3.155 -0.315,-4.731 -0.631,-1.735 -2.208,-2.05 -3.943,-1.42 -3.471,-2.051 -2.05,-1.262 -0.947,-2.523 -0.473,-5.363 -2.366,-3.943 -2.366,-4.731 0.474,-2.997 2.051,-4.89 -1.735,-5.836 -3.154,-5.521 -6.31,-7.256 -7.098,-6.151 -0.789,-1.735 -0.473,-3.628 -0.789,-5.678 -0.631,-3.785 -1.42,-2.682 -3.154,-1.577 -3.154,-1.263 -3.471,-2.05 -2.208,-2.208 -4.574,-2.051 -4.416,-2.84 -3.155,-2.681 -1.419,-3.471 -1.893,-4.731 -0.631,-2.051 -3.155,-3.628 -15.142,-17.034 -2.84,-2.84 -4.259,-1.893 -2.996,-1.42 -4.102,-3.627 -2.051,-0.631 -2.996,0.631 -2.366,0.631 -3.313,-2.366 -2.523,-1.893 -4.417,-0.789 -2.839,-3.47 -1.42,-4.732 -1.104,-7.255 -2.839,-4.417 -3.155,-2.997 -4.101,-2.681 -12.935,-15.458 -5.678,-189.908 -0.315,-8.518 294.325,-59.149 222.084,-44.638 0.789,0.473 178.551,96.058 73.503,39.433 230.758,124.137 z"
       inkscape:connector-curvature="0"
       class="DEP_11 ZON_04" /></g></svg>