<?xml version="1.0" encoding="UTF-8" standalone="no"?>
<!-- Generator: Adobe Illustrator 19.2.0, SVG Export Plug-In . SVG Version: 6.00 Build 0)  -->

<svg
   xmlns:dc="http://purl.org/dc/elements/1.1/"
   xmlns:cc="http://creativecommons.org/ns#"
   xmlns:rdf="http://www.w3.org/1999/02/22-rdf-syntax-ns#"
   xmlns:svg="http://www.w3.org/2000/svg"
   xmlns="http://www.w3.org/2000/svg"
   xmlns:sodipodi="http://sodipodi.sourceforge.net/DTD/sodipodi-0.dtd"
   xmlns:inkscape="http://www.inkscape.org/namespaces/inkscape"
   version="1.1"
   id="SvgMunicipio"
   x="0px"
   y="0px"
   viewBox="0 0 1000 722.8"
   style="enable-background:new 0 0 1000 722.8;"
   xml:space="preserve"
   inkscape:version="0.91 r13725"
   sodipodi:docname="MUN_ID1114.svg"><metadata
     id="metadata10"><rdf:RDF><cc:Work
         rdf:about=""><dc:format>image/svg+xml</dc:format><dc:type
           rdf:resource="http://purl.org/dc/dcmitype/StillImage" /></cc:Work></rdf:RDF></metadata><defs
     id="defs8" /><sodipodi:namedview
     pagecolor="#ffffff"
     bordercolor="#666666"
     borderopacity="1"
     objecttolerance="10"
     gridtolerance="10"
     guidetolerance="10"
     inkscape:pageopacity="0"
     inkscape:pageshadow="2"
     inkscape:window-width="665"
     inkscape:window-height="480"
     id="namedview6"
     showgrid="false"
     inkscape:zoom="0.32650803"
     inkscape:cx="500"
     inkscape:cy="361.39999"
     inkscape:window-x="0"
     inkscape:window-y="0"
     inkscape:window-maximized="0"
     inkscape:current-layer="svg" /><g
     id="g3"><path
       id="MUN_1114"
       d="m 639.2,-17 -0.7,39.3 71.7,1.8 -0.7,33.8 -9.1,85.3 -8,79.3 -1.3,7.1 -1.8,5 -0.3,1.4 -0.1,2.1 -0.3,1.3 -1.6,0.2 -1,0.1 -0.5,0.6 -0.5,0.2 -1,0.3 -0.9,0.9 -2,2.8 -1.7,1.8 -1.8,7.1 -3.4,0.4 -0.1,4.3 -7.5,4.8 -1.3,3.5 1.7,2.1 2.6,3.4 -1.2,3.1 -5.9,9.9 -0.4,2.2 -1.1,11 -5.9,3.9 -8,-1.3 -10.5,-0.6 -6.4,2.9 -2.8,5.2 -9.3,22.5 1.6,15.9 0.4,6.5 -4.4,4.4 -5.6,2.8 -13.4,13.5 13.9,6.2 1.1,0.4 7.8,1.2 7.7,-0.6 10,0.4 58.2,-7.9 41.2,-2.8 1.9,1.1 10.5,5.3 6.4,7.6 0,10.1 3.2,5.3 4.8,3.6 6,-2.4 12.8,-9.3 22.9,-14.1 13.6,-5.2 12,9.3 21.2,19 4.2,17.7 4.6,12.4 8.8,13.4 14.4,6 15.2,4 12.9,-7.2 6.4,-12.1 11.7,-15.4 10.4,0.9 13.2,11.7 12.5,6.5 10,3.7 12,6.9 11.7,12.9 -0.4,13.3 -4.5,12.1 -6.8,14.5 -10.6,5.8 -18.3,18.6 -14.5,48.3 -0.6,24.8 -0.8,7.9 -3,30.7 -0.1,26.6 0.5,35.2 -99.5,-18.1 -103.3,-35.4 -21.5,-4 -43,-17 -452.1,-109 -39.9,-2.5 -123,-7.8 28.1,-170.8 0.3,-1.5 -12.2,1.8 -3.8,-1.9 -6.8,-5.2 -5,-1.4 -2.4,0.7 -1.9,5.7 -5.3,2.2 -1.2,-0.9 -4.1,-1.2 -5,-0.7 -8.5,-3.2 -13.9,-9 -2,-2.1 -1.4,0.6 -1.4,3.3 -2.3,2.3 -5,-1.3 -4.7,-7.5 2,-7.6 2.4,-5.1 5.3,-10.8 12,-21.9 20,-26.1 9.3,-8.1 6.9,-4.4 6.8,-3 13.2,-6.7 17.6,-5.8 17.6,-6 14,-4.8 6,-1.6 14.4,-3.6 6.2,-3.2 16.2,-4.6 20.1,-2 18.4,2.8 7.2,1 12.8,-0.2 23.1,1.3 4.7,0.9 2.8,0.5 17.9,1 10.4,0.2 15.6,0.3 14.1,-1.1 4.1,-1.2 7.9,-1.3 7.9,-3.7 5,-3.6 2,-2 3.1,-4.8 4.3,-6.4 2.4,-4.4 1.6,-6.3 1.1,-12.3 0.1,-0.8 2.3,-3 -1,-1.8 0.3,-1.7 1.2,-0.1 0.9,-0.3 1,-0.9 0.6,-3 1.1,-4.3 2,-6.4 0.5,-1.1 1,-0.3 0.9,0.1 0.5,0.2 0.9,0.4 0.6,0.2 0.4,0.2 0.5,0.3 0.7,0.2 1,0 0.4,0 1.1,0.3 0.7,0.7 4,0.6 1,-2.4 0.7,-3.9 1.5,-1.4 2.8,0.1 1,-0.7 0.4,-1.9 1.6,-1.2 2.9,-0.4 1.5,-0.6 0.9,-1.6 0.8,-2.1 0.2,-2.1 0.2,-1.9 1.8,-0.5 1.6,-1.3 0.2,-7.2 -0.5,-3.5 1.5,-2.6 2.1,-1.2 2.7,-1.8 -0.6,-2.4 1.1,-3.6 1.2,-2.3 0.7,-2.7 1.3,-2.2 -0.1,-4.8 -4.3,-3.7 -0.7,-5 7.7,-22.2 8.5,-25 15.5,-0.3 74.7,-1.8 -0.7,-39.2 0,-0.4 131.9,5.6 z"
       inkscape:connector-curvature="0"
       class="DEP_11 ZON_04" /></g></svg>