<?xml version="1.0" encoding="UTF-8" standalone="no"?>
<!-- Generator: Adobe Illustrator 19.2.0, SVG Export Plug-In . SVG Version: 6.00 Build 0)  -->

<svg
   xmlns:dc="http://purl.org/dc/elements/1.1/"
   xmlns:cc="http://creativecommons.org/ns#"
   xmlns:rdf="http://www.w3.org/1999/02/22-rdf-syntax-ns#"
   xmlns:svg="http://www.w3.org/2000/svg"
   xmlns="http://www.w3.org/2000/svg"
   xmlns:sodipodi="http://sodipodi.sourceforge.net/DTD/sodipodi-0.dtd"
   xmlns:inkscape="http://www.inkscape.org/namespaces/inkscape"
   version="1.1"
   id="SvgMunicipio"
   x="0px"
   y="0px"
   viewBox="0 0 696.5 1000"
   style="enable-background:new 0 0 696.5 1000;"
   xml:space="preserve"
   inkscape:version="0.91 r13725"
   sodipodi:docname="MUN_ID1106.svg"><metadata
     id="metadata10"><rdf:RDF><cc:Work
         rdf:about=""><dc:format>image/svg+xml</dc:format><dc:type
           rdf:resource="http://purl.org/dc/dcmitype/StillImage" /></cc:Work></rdf:RDF></metadata><defs
     id="defs8" /><sodipodi:namedview
     pagecolor="#ffffff"
     bordercolor="#666666"
     borderopacity="1"
     objecttolerance="10"
     gridtolerance="10"
     guidetolerance="10"
     inkscape:pageopacity="0"
     inkscape:pageshadow="2"
     inkscape:window-width="665"
     inkscape:window-height="480"
     id="namedview6"
     showgrid="false"
     inkscape:zoom="0.236"
     inkscape:cx="348.25"
     inkscape:cy="500"
     inkscape:window-x="0"
     inkscape:window-y="0"
     inkscape:window-maximized="0"
     inkscape:current-layer="svg" /><g
     id="g3"><path
       id="MUN_1106"
       d="m 215.2,22.4 1,4.7 2.4,4.1 4,2.9 11.1,10.6 7.7,4 5.5,2.4 3.8,1.8 4.1,1.8 3.5,2.4 5.9,3.8 3.2,2.1 9,1.6 5.3,1.2 5,5.6 6.8,6.8 5.3,5.5 8.5,8.1 6.5,5.7 7.4,5.9 5.5,10.3 4.7,9.1 4.4,8.5 5.5,8.1 3.5,4 7.5,3.7 13.1,6.2 5,2.8 5.5,2.1 4.6,1.2 10,-1.3 7.4,-1.3 5.7,-0.9 4.4,0.1 8.3,1.9 6,0 3.7,-0.4 6.2,-0.6 5.7,-2.4 1.2,6.9 0.6,5.2 0.4,3.4 1.8,5.2 2.7,8.8 1.8,5.6 2.9,6.8 1.5,5.2 0.9,4.3 0.6,4.6 -0.1,10.3 0,8.1 0,0 6.3,0.3 12.4,0.4 7.4,0.9 5.9,1 2.5,5.2 2.2,2.7 1.3,-1.3 1.9,-1 5.6,2.2 5.2,2.5 5.9,2.7 5.3,1.8 8,1.6 3.5,-0.4 7.7,-0.7 6.9,-0.7 5.6,-0.4 9,0.6 9.1,2.1 1.9,0.9 -0.4,0.4 -3.8,4.6 -2.7,1.9 -3.5,2.7 -1.9,1.9 -1.6,2.1 -2.2,2.7 1,1.8 0,0 2.8,2.1 2.8,1.9 3.1,2.1 8.1,6 4.1,2.8 5.5,4.1 6,4.4 4.9,3.4 5.6,4.1 4,2.9 11.9,8.7 4.1,2.4 4.1,2.9 3.5,1.3 5.7,0.7 2.8,0.4 6.5,0.1 1.9,-0.1 4.1,0.1 3.4,-0.3 4,0.3 4.3,-0.4 3.8,-0.1 5.7,0.1 5.2,-0.3 6.9,0.3 5.6,0.1 4.6,0 5.3,-0.3 2.4,0.1 6.6,1 1.5,0.3 -1.2,8.5 -0.1,4.1 0,3.8 0,5.6 -2.5,8.4 -1.6,6.6 -1.9,6.5 -2.4,14.4 -0.1,4.3 0.4,4.9 1.3,6.2 1,5.3 0.1,7.2 -0.6,6.5 -1.2,5.5 -2.4,5.6 -1.8,8.8 -1.3,11.6 -0.4,8.8 -0.9,7.1 0.4,4.9 1,9.7 -13.6,4.6 -8.4,0.7 -18.1,2.2 -19.5,1.8 -31.5,3.2 -8.4,-0.7 -8,-1 -3.5,-0.7 -16.7,-5.2 -22.3,-7.4 -10.3,-2.7 -13.1,-4.3 -1.3,-0.4 -10.2,-2.9 -5.5,-2.9 -7.2,-4.7 -7.4,-6.6 -7.5,-8.3 -6.6,-6.6 -5.7,-5.7 -6.2,-4.3 -17.8,-7.1 -3.2,-0.6 2.2,9.7 1.9,6.6 0.9,6 -1.3,5.5 -2.8,3.1 -2.7,2.5 -11.1,2.8 -5.3,4.3 -4.4,5.2 3.1,5 3.5,4.6 3.1,9.1 -0.4,5.4 -6,4.7 -8.1,4.4 -3.8,3.4 -6.8,8.5 -7.5,8.4 -4.7,3.8 -1.2,4.1 -1,4.1 -1.3,5.7 -6.9,4.4 -5,4 -3.1,5.2 -3.1,5.6 -2.2,11.1 3.7,8.1 2.2,4.6 0.1,5 -0.4,1.6 -1.5,1.9 -2.5,1.8 -3.4,1.2 -4.4,1.5 -2.4,2.1 -1.2,0.9 0.4,5.2 1.3,9.3 0.1,7.1 -1.6,7.4 -2.4,6.2 -2.9,4.3 -7.4,6.9 -7.4,8.4 -3.2,5.6 -3.1,6.9 -3.4,8.1 -3.4,9.4 -1,2.2 0.3,3.5 -0.7,3.1 -0.6,2.2 -1.2,1.6 -3.1,1.5 -3.7,1.2 -3.2,2.2 -1.9,3.7 4.4,1.9 3.2,2.1 4.6,4.3 3.7,4.1 2.2,4.1 -0.1,4.4 -2.8,4.7 -4.3,5.2 -6.2,8.5 -5.2,8 1.3,4 0.4,2.5 1.8,1.6 2.8,1 3.5,0.3 2.2,-1.2 1.6,-1.9 2.8,-2.8 1.2,-2.7 2.2,-2.4 2.2,1.6 1.8,1.8 6.6,12.2 0.4,1.8 0.3,1.8 -1.3,2.8 -1.3,3.5 -0.7,4.7 -0.3,5.7 0,4.3 -1,6.8 -1,3.1 -0.9,1.5 -1.8,2.7 -2.2,3.2 -2.9,5.6 -1.5,2.9 -1,4 -1.3,5.7 -0.1,5.2 0.7,6.8 -0.7,2.7 -1,2.1 -2.9,3.2 -0.6,1.9 0.6,1.8 2.7,2.7 8.1,10.9 -2.4,7.7 -1.3,4 0.9,16.2 -3.7,12.5 -2.9,1.2 -7.4,1.2 -6,1.9 -1.8,2.8 -1.8,3.2 0.3,3.2 0,1 -0.1,1.2 -0.1,3.4 -0.6,3.1 -2.7,1.5 -5.2,1.3 -6.3,0.4 -9.1,3.7 -8.1,5.6 -3.2,1.9 -5.6,4 -5.6,5.6 -4.1,6 0.1,4.3 0.7,2.2 2.4,1.6 4.9,0.3 4.6,0.4 2.4,2.5 0.7,2.2 -0.9,0.7 -1.3,1.5 -5.2,1.3 -4.1,4.1 -1.8,14.9 2.4,5.6 6.5,3.7 2.5,3.7 0.9,5.9 1.3,4.9 2.7,4.4 2.9,-0.6 8.1,1 3.5,2.9 4,3.4 -3.7,0.4 -2.9,0.9 -2.8,1.8 -3.5,1.2 -2.9,0.4 -1,-0.3 -0.9,-0.4 -1.9,-0.4 -0.7,-0.3 -1.9,-0.7 -2.5,-1 -3.8,-0.4 -2.9,-0.3 -2.2,-0.4 -1.5,-0.6 -1.6,-1.3 -1.6,-1.9 -3.4,-2.1 -3.8,-0.6 -2.5,-0.3 -2.9,0.1 -2.9,-1.5 -2.8,-3.4 -1,-1.3 -1,-0.9 -4.4,-1.6 -2.9,-1 -1.9,-0.9 -1.6,-1.8 -0.6,-1.5 -1.6,-2.1 -0.3,-1.3 -0.3,-1.6 -0.4,-0.6 -0.4,-0.3 -0.9,-0.6 -1.5,-0.6 -1.3,0 -2.1,0 -1.9,0.3 -1.6,0.6 -2.1,-0.1 -1.5,0 -1.6,0 -2.4,-0.4 -2.5,-0.1 -2.8,-0.1 -3.2,-0.1 -1,0 -0.6,-0.3 -1.3,-0.4 -2.2,-0.9 -4.1,-1.8 L 127.4,649.7 107.8,544.2 77.1,384 l -1.2,-5.5 -0.1,-1.3 -5.2,-7.2 -1,-3.8 -0.1,-4.3 0.4,-9.6 -0.4,-7.5 -2.2,-12.7 -1.5,-14.3 -0.3,-8.3 L 63,297.1 59,279 56.1,270.2 48.4,257.8 40.1,246 l -2.8,-2.5 -5.5,-2.4 -5.3,-2.9 -4,-2.5 -10.5,-7.4 -7,-6.8 89,-84.9 119.6,-114.2 1.6,0 0,0 z"
       inkscape:connector-curvature="0"
       class="DEP_11 ZON_04" /></g></svg>