<?xml version="1.0" encoding="UTF-8" standalone="no"?>
<!-- Generator: Adobe Illustrator 19.2.0, SVG Export Plug-In . SVG Version: 6.00 Build 0)  -->

<svg
   xmlns:dc="http://purl.org/dc/elements/1.1/"
   xmlns:cc="http://creativecommons.org/ns#"
   xmlns:rdf="http://www.w3.org/1999/02/22-rdf-syntax-ns#"
   xmlns:svg="http://www.w3.org/2000/svg"
   xmlns="http://www.w3.org/2000/svg"
   xmlns:sodipodi="http://sodipodi.sourceforge.net/DTD/sodipodi-0.dtd"
   xmlns:inkscape="http://www.inkscape.org/namespaces/inkscape"
   version="1.1"
   id="SvgMunicipio"
   x="0px"
   y="0px"
   viewBox="0 0 851.8 1000"
   style="enable-background:new 0 0 851.8 1000;"
   xml:space="preserve"
   inkscape:version="0.91 r13725"
   sodipodi:docname="MUN_ID1109.svg"><metadata
     id="metadata10"><rdf:RDF><cc:Work
         rdf:about=""><dc:format>image/svg+xml</dc:format><dc:type
           rdf:resource="http://purl.org/dc/dcmitype/StillImage" /></cc:Work></rdf:RDF></metadata><defs
     id="defs8" /><sodipodi:namedview
     pagecolor="#ffffff"
     bordercolor="#666666"
     borderopacity="1"
     objecttolerance="10"
     gridtolerance="10"
     guidetolerance="10"
     inkscape:pageopacity="0"
     inkscape:pageshadow="2"
     inkscape:window-width="665"
     inkscape:window-height="480"
     id="namedview6"
     showgrid="false"
     inkscape:zoom="0.236"
     inkscape:cx="425.89999"
     inkscape:cy="500"
     inkscape:window-x="0"
     inkscape:window-y="0"
     inkscape:window-maximized="0"
     inkscape:current-layer="svg" /><g
     id="g3"><path
       id="MUN_1109"
       d="m 810.1,75.9 17.5,160.4 15.9,111.5 5.4,36.7 7.1,50.1 -2.6,57.2 -5.4,3.4 -5,2.3 -5.3,-1.5 -9,0.3 -8.9,2.5 -3.3,0.5 -1.9,1 -2.5,1.6 -2.2,1.7 -2.2,-0.6 -3,0.1 -1.9,1.5 -2.4,2.2 -1.4,3.2 -0.1,2.1 -0.6,1.7 -2.1,2.7 -2.1,2.6 -2.1,3.5 -2.6,4.1 -2.7,4.1 -2.9,2.2 -1.4,2.3 -0.2,2.9 -1.1,2.5 -1.4,1.6 -2.2,2.3 -2.4,0.7 -1.7,0.9 -1.1,1 -1.3,1.7 -2.3,1.5 -1.7,1 -1.7,2.2 -1.7,1 -1.9,1.8 -1.4,1.9 -2.3,2.6 -2.4,0.6 -7.2,-1 -3.4,-0.8 -3.5,-0.2 -3,0.7 -2.4,0.2 -3.1,-1.6 -30.7,0.8 0,0.2 -0.5,3.8 -0.7,4.9 -1.1,6.6 -1.1,7.3 0.6,4.7 2.2,3.5 3.9,3.5 3.4,3.1 3.5,4.2 0.1,5.5 0.1,4.6 2.2,2.2 3.8,2.4 5.3,4 1,2.3 2.4,7.1 2.6,8 1,4.3 1.7,7.9 2.1,4 4.1,3.9 2.2,4.6 2.1,3.9 0.2,0.3 -0.5,2.4 -3,5.9 -0.7,4 1.3,5.1 1.5,5.4 -1.4,3.4 -0.1,2.7 3.3,3.2 3.1,3.1 0.8,2.9 0,3.1 0.2,8.1 0.5,8.5 -1,3.9 -3.9,6.4 -2.5,3.8 -0.1,3.5 0.6,4.1 0.6,4.7 0.8,8.7 1.1,7 0.7,4 0.8,2.1 -0.1,0 -131.5,-16.2 -48.3,-5.8 -8.1,253.6 -12.1,-7.9 -65.1,-41.9 -1.6,-3.2 -10.1,-14.9 -5,-14.2 -21.1,-21.9 -16.2,-12.7 -14.7,-12.7 -7.2,-0.7 -17.1,-3.1 -9,-8 -18,-16 -6.5,-13.8 0,0 -4.2,-4.3 -7.2,-7.8 -5.6,-6.7 -4.8,-3.2 -4.8,-2.1 -1,-0.9 -72.9,-69.7 4.5,-19.6 15.6,-69.1 -0.7,-21.2 8.8,-32.8 0.7,-5 2.5,-6.3 1.3,-7.4 3.9,-15.5 -0.8,-7 -2.2,-5.1 -4.8,-11.7 -1.6,-14.6 0.9,-14.2 -3,-13.6 -4.5,-19 -3.8,-12.5 0.2,-9.6 0.5,-4.6 0.1,-0.2 -0.3,-18.2 0.1,-11.5 7,-8.9 0.3,-4 0,-0.9 0.8,-8.9 -1.9,-9.1 -0.6,-4.3 1,-19.5 1.9,-7.5 2.1,-7.4 1.6,-6.5 1.5,-4.6 0,-6.2 0,-4.1 2.6,-2.5 7.4,-16.2 11.8,-16.6 1.9,-1.8 0,-8.9 4.8,-3.3 26.7,-33 2.2,-14 1.7,-10.4 4,-11.3 -58.6,-0.3 -0.5,0 -168.7,-1.3 0,0 -114,2.4 -1.6,0 15.3,-134.4 3.5,-3.9 1.8,-3 0.8,-1.8 1.5,-3.5 2.2,-4.7 1.4,-1.7 1,-0.9 0.7,-1 2.1,-8.9 2.1,-4.9 5.4,-9.9 4.3,-6.2 1.9,-1.1 5.1,-1 4.9,-7.3 L 175,35.2 387.5,4 l 0.2,0 131.4,41.5 50.7,16.1 24.8,7.1 89,25.5 26.5,7.5 69.1,-17.8 30.9,-8 z"
       inkscape:connector-curvature="0"
       class="DEP_11 ZON_04" /></g></svg>