<?xml version="1.0" encoding="UTF-8" standalone="no"?>
<!-- Generator: Adobe Illustrator 19.2.0, SVG Export Plug-In . SVG Version: 6.00 Build 0)  -->

<svg
   xmlns:dc="http://purl.org/dc/elements/1.1/"
   xmlns:cc="http://creativecommons.org/ns#"
   xmlns:rdf="http://www.w3.org/1999/02/22-rdf-syntax-ns#"
   xmlns:svg="http://www.w3.org/2000/svg"
   xmlns="http://www.w3.org/2000/svg"
   xmlns:sodipodi="http://sodipodi.sourceforge.net/DTD/sodipodi-0.dtd"
   xmlns:inkscape="http://www.inkscape.org/namespaces/inkscape"
   version="1.1"
   id="SvgMunicipio"
   x="0px"
   y="0px"
   viewBox="0 0 665.2 1000"
   style="enable-background:new 0 0 665.2 1000;"
   xml:space="preserve"
   inkscape:version="0.91 r13725"
   sodipodi:docname="MUN_ID1123.svg"><metadata
     id="metadata10"><rdf:RDF><cc:Work
         rdf:about=""><dc:format>image/svg+xml</dc:format><dc:type
           rdf:resource="http://purl.org/dc/dcmitype/StillImage" /></cc:Work></rdf:RDF></metadata><defs
     id="defs8" /><sodipodi:namedview
     pagecolor="#ffffff"
     bordercolor="#666666"
     borderopacity="1"
     objecttolerance="10"
     gridtolerance="10"
     guidetolerance="10"
     inkscape:pageopacity="0"
     inkscape:pageshadow="2"
     inkscape:window-width="1366"
     inkscape:window-height="705"
     id="namedview6"
     showgrid="false"
     inkscape:zoom="0.472"
     inkscape:cx="112.31543"
     inkscape:cy="753.86078"
     inkscape:window-x="-8"
     inkscape:window-y="-8"
     inkscape:window-maximized="1"
     inkscape:current-layer="svg" /><g
     id="MUN_0123"
     transform="translate(0,16.949153)"
     inkscape:transform-center-x="-64.418624"
     inkscape:transform-center-y="8.9886457"><path
       id="MUN_1123"
       d="m 389.4,184.5 -3.6,39.3 -5.4,59.3 0.3,2.5 0.2,1.9 -0.2,2.1 -0.3,1.3 -0.4,1.7 -0.6,1.5 -0.8,0.9 -0.1,1.4 0.6,0.9 0.1,0.4 0.1,0.6 0.1,1.2 -0.1,1.6 -0.4,1 -1.2,1.4 -1,0.5 -0.9,0.3 -0.8,0.4 0.4,0.4 0.1,0.1 0.2,0.2 0.1,0 0.9,1.2 0.9,0.8 0.9,1.2 0.9,1 0.6,0.7 0.7,1.4 1.5,1.2 1.4,1.1 1.1,1 0.6,0.6 0.7,0.5 0.9,0.6 1,0.4 1,0 0.9,-0.2 1.5,0.9 1.7,1.1 0.8,0.7 0.6,0.5 0.8,0.6 0.5,0.8 0.4,0.8 0.3,1.3 0.2,1.1 0.2,0.7 0.9,1.2 0.5,0.8 0.7,0.7 1.4,0.9 1.6,1 0.9,0.3 3.3,0.2 2.2,0.2 0,0 0.6,-0.1 1.3,0.3 1.7,0.5 2.6,0.7 2.6,0.5 2.4,0.6 1.3,0.4 1.3,0.2 1.8,0.2 2,0.2 1.4,0.3 0.9,0.3 1.8,0.8 0.6,0.3 1.3,0.7 1.5,-0.2 0.8,-0.2 0.9,-0.4 1.3,-0.3 1.4,-0.4 1,-0.3 1.2,-0.2 0.6,0 2.6,0.2 1.6,0.1 2.1,-0.1 1.1,-0.2 3.1,-0.5 2.4,-0.3 1.3,-0.3 1.4,-0.2 0.2,0 0.2,0 0.9,0.5 0.7,2.4 0.1,0.5 0,0.7 -0.5,4.4 -0.1,1.2 -0.5,4.6 -0.5,3.5 -0.8,6.5 -0.2,1.1 -0.8,6.6 -0.3,2.6 -0.2,1.6 -0.6,5.5 -1,8.4 -0.2,1.5 -0.9,6.9 -0.2,1.4 -0.6,4.7 0.1,0.1 1,0.6 1.4,0.6 0.9,0.3 0.7,-0.2 1,-0.5 0.9,-0.6 1.2,-0.3 0.5,0.2 0.5,0.3 0.6,0.4 0.4,0.4 0.6,-0.2 0.5,-0.1 0.4,0 0.4,0.1 0.3,0.2 0.6,1 1.1,1.3 0.6,0.8 1.2,0.7 0.4,0.2 0.6,0.2 0.1,0 0.6,0 0.4,-0.3 0.5,-0.4 0.4,-0.5 0.3,0 0.4,0 0.7,0.4 0.6,0 0.4,0.1 0.5,-0.1 0.6,0.2 0.4,0.3 0.6,0.3 0.5,0.1 0.3,0.1 0.5,-0.1 0.4,0 0.9,-0.1 0.7,0.2 1,0.4 0.6,0.2 1,-0.1 0.6,-0.1 0.4,-0.2 0.7,-0.1 0.5,0 0.6,0 0.5,-0.2 0.2,-0.1 0.2,0 0.4,-0.1 0.4,0 0.5,0.1 0.5,0.4 0.3,0.3 0.4,0 0.4,-0.1 0.4,0 0.6,-0.3 0.4,-0.4 0.5,-0.1 0.8,-0.1 0.9,-0.1 0.4,0 0.6,-0.1 1,-0.6 0.4,-0.5 0.4,-0.3 0.6,0.2 0.5,0.2 0.7,0.2 0.5,-0.2 0.8,-0.4 0.5,-0.4 0.8,0 0.4,0 0.7,0.1 1.1,0 0.6,0 1,-0.2 1.3,-0.8 1.3,-0.6 1.6,-0.2 0.4,0.1 0.4,0.2 0.3,0.2 0.4,0.2 0.6,0.3 0.4,0.2 0.5,0.4 0.3,0 0.4,0.4 0.5,0.1 0.2,0.2 0.6,0.1 0.4,0.2 0.3,0.1 0.4,0.2 0.6,0.3 0.6,0.3 0.6,-0.2 0.8,0.2 0.6,0.2 0.6,0.2 0.6,0.2 0.8,0 0.9,0.2 1,0.2 1.1,-0.1 0.5,-0.2 0.2,-0.2 0.1,0 1.1,0.5 0.6,0.2 0.4,0.1 0.2,0.1 0.3,0 0.9,0 0.8,0 0.7,0 0.6,0.1 0.4,0 0.4,0 0.6,0 0.4,-0.2 0.5,-0.1 0.6,0 0.4,0 0.4,0.2 0.2,0.2 0.1,0.1 0.1,0.2 0.1,0.4 0.1,0.4 0.4,0.6 0.2,0.4 0.4,0.5 0.5,0.2 0.8,0.3 1.2,0.4 0.3,0.2 0.3,0.4 0.8,0.9 0.8,0.4 0.8,0 0.7,0.1 1.1,0.2 0.9,0.6 0.4,0.5 0.4,0.4 0.4,0.2 0.6,0.1 0.8,0.1 1.1,0.1 0.7,0.3 0.5,0.2 0.2,0.1 0.5,0.1 0.2,0.1 0.3,0.1 0.8,-0.1 1,-0.3 0.8,-0.5 0.8,-0.2 1,-0.1 6.8,3.4 1.8,4.8 -3.8,3.7 -3.5,-2 -6,3.3 -5.7,2.4 -4.7,0.7 -0.7,3.6 1.2,10.5 -2.6,2.3 -8.1,-0.6 -5.4,-0.4 -6.1,3.8 -6.6,3.4 -4.4,2 -6.5,-5.3 -4.6,-4.2 -6.9,-1.5 -5.2,3.4 -2.3,1.8 -0.4,0.4 -3.6,2.8 -2.6,3.2 -2.1,5.4 0.2,7.2 -0.4,7.1 -9.5,11.4 -3.4,5.4 -9,10 -2.1,5.1 -2.8,8.1 -1.7,7 -0.6,2.6 -2.3,5.7 -5.4,2.7 -5.1,1.6 -5.3,3.8 -0.3,4.1 0.4,4.5 -1.5,2.8 -4.4,3.4 -3.1,5.4 0.1,3.3 4.8,6.4 0.8,1.4 4,6.5 3.8,3.9 0.9,1.1 9.3,3.4 8.7,1.8 4.8,2.9 0.1,2.8 -3.3,3.7 -3.2,4.5 -0.6,4.4 2.4,3.5 3.9,1.5 6.4,-3.7 4.1,1.1 3.3,-0.4 5.7,-4.3 3.3,-2.6 0.6,-3.5 2.7,-1.3 2.2,-0.9 3.1,0.7 4.1,0.4 3.9,1.2 4.9,4.3 1.3,0.8 1.9,0.9 4.1,0.9 3.5,0.4 1.3,0.9 1.4,1.9 4.4,4.7 4.2,1.7 2,-0.1 4.9,3.5 5.3,3.8 1.1,1.5 2,3 3.9,2.6 3.7,2.5 4.4,3.1 2.3,0.8 3.6,0 2.8,0.5 3.4,0.9 1.7,0.9 1.4,1.7 3.4,0.3 2.8,0.5 10.9,9.3 2.6,0.2 0.2,0 0,0 0.4,-0.1 0.2,0 0.3,0 0.4,0 0.6,0 1,-0.1 1.2,0 0.9,0.3 1.1,0.6 0.9,0.8 1.1,0.8 0.2,0.2 0.2,0.1 0.3,0 0.2,0 0.4,0.2 0.4,0.2 1.2,0.2 0.8,0.2 1.1,0.4 1.7,1.3 1.1,0.2 1.1,0 1.1,-0.5 1.7,-2.3 2.3,-1.3 -0.2,-3.3 2.6,-2.2 1.3,-0.4 0.9,-0.3 2,0.7 2.5,2.4 5.8,5.7 5.8,2.4 0.4,1.1 0.4,1.7 -0.1,1.4 -2.7,5.6 -0.6,0.8 -0.6,2.1 0.6,1.7 3.5,2.2 3.2,0.7 2.8,1 2.2,0.9 2.2,1.9 0.8,4.3 0.1,0.3 0.1,2.2 1.3,2.8 2.7,2.8 6.4,2.2 3.9,1.6 1.8,1.6 3.3,1.4 -1.5,5.8 -4.7,4 -8.6,0.4 -5.2,0.3 -1.9,0.4 -3.7,1.6 -2.8,5.8 1.7,7.4 5.2,6 10.5,3.8 7.7,4.7 4.6,4.1 4,4 0.9,4.1 2,4.9 2.6,6.7 3.9,23.1 -14.6,3 -4.9,1.5 -2.1,3 -0.2,3 -0.9,1.9 -2,1.5 -4.5,2.2 -6.4,2.4 -7.2,5.4 -4.9,5.5 -1.7,1.6 -3.5,3.5 -3,1.7 -2.2,0.2 -1.7,-0.4 -2.8,-0.5 -2.7,-1.3 -3.1,-2.2 -2.7,-2.7 -2.8,-3.3 -5.3,-3 -5,0.2 -5.6,1.6 -4.5,1.6 -6,1.8 0.8,2.6 0.9,3 1.1,3.6 3.6,6.9 4.2,6.2 9.5,8.6 7.6,6.7 6.9,4.7 6.7,3.4 5.2,2.4 9.4,3.7 5.8,1.7 5.4,3 7.4,3.1 5.9,4.3 4.4,4.2 1.9,3.4 0.8,8.5 -4.4,7.4 -3.5,4.5 -7.1,5.2 -6.7,5.9 -4,3 -1.7,8 0,0.2 1.5,15.9 2.1,10.1 -33.2,4.9 -24.5,-0.6 -36.8,-1.1 -40.9,2.5 -26.1,6.1 -37.3,10.2 -34.8,4.5 -33.2,-4.7 -15.9,-9.3 -12.2,-14.9 -71.5,14 -0.4,-26.9 0.1,-20.2 2.3,-23.4 0.6,-6 0.5,-18.9 11.1,-37.3 14,-14.2 8.1,-4.4 5.2,-11.1 3.4,-9.2 0.3,-10.1 -8.9,-9.9 -9.1,-5.2 -7.6,-2.8 -9.5,-4.9 -10.1,-8.9 -8,-0.7 -8.9,11.7 -4.9,9.2 -9.8,5.5 -11.6,-3.1 -11,-4.5 -6.7,-10.2 -3.5,-9.5 -3.2,-13.5 -16.1,-14.5 -9.2,-7.1 -10.4,4 -17.5,10.7 -9.8,7.1 -4.6,1.8 -3.7,-2.8 -2.4,-4 0,-7.7 -4.9,-5.8 -8,-4.1 -1.5,-0.8 -31.4,2.1 -44.3,6 -7.6,-0.3 -5.9,0.5 -6,-0.9 L 10.6,715 0,710.3 10.2,700 l 4.3,-2.1 3.4,-3.4 -0.3,-4.9 -1.2,-12.1 7.1,-17.2 2.2,-3.9 4.9,-2.2 8,0.5 6.1,1 4.5,-3 0.8,-8.4 0.3,-1.7 4.5,-7.5 0.9,-2.4 -1.9,-2.6 -1.3,-1.6 1,-2.7 5.7,-3.7 0,-3.2 2.6,-0.3 1.3,-5.4 1.3,-1.4 1.5,-2.2 0.7,-0.6 0.8,-0.2 0.4,-0.1 0.4,-0.4 0.8,0 1.2,-0.2 0.2,-1 0.1,-1.6 0.2,-1.1 1.4,-3.8 1,-5.4 6.1,-60.4 6.9,-65 0.6,-25.7 -54.6,-1.4 0.5,-29.9 -0.2,-29 26.9,0.1 4.9,-22.2 0,-0.1 11.5,-52.5 59.6,-10.7 0.4,-1.1 0.1,-0.6 0.2,-1.1 0.6,-1.7 0.9,-1.7 0.4,-0.8 0.5,-0.7 0.5,-0.8 0.9,-1.3 0.5,-0.6 1.1,-1.4 0.6,-0.4 0.3,-0.6 0.7,-0.8 0.9,-0.9 0.6,-0.7 0.6,-0.9 1.3,-1.7 0.3,-0.4 0.2,-0.7 0.2,-0.6 -0.1,-1.6 -0.1,-1.6 6.1,-2.2 2.6,-0.3 0.6,-1.8 3.1,-3.1 1.8,-1.3 0.5,-0.8 0,-0.9 -0.4,-1 -0.1,-1.4 -0.2,-1.6 0,-1.3 -0.1,-1.2 -0.8,-1.4 -2.3,-1.6 -1,-1 -0.1,-2.1 0,-2.8 -0.1,-0.4 -0.5,-0.5 -0.5,-1 -0.5,-0.7 -1.1,-1.1 -0.1,-0.7 1,-1.7 -0.9,-1 -1.3,-0.6 -1.2,-0.4 -0.7,-1.9 -0.4,-0.7 -0.4,-0.7 -0.1,-2.1 -0.2,-0.9 -1.5,-2 -0.4,-2.4 0.1,-2.9 0,-1.4 -0.8,-1.1 -0.8,-1.1 -1.7,-1.2 -0.4,-5.9 0,-1.3 -1,-4.9 -0.2,-2.4 0,-2 -0.4,-1.5 0.4,-1.5 0.5,-1.8 0.6,-1.8 1.7,-1.6 0.9,-2.1 0.2,-1.1 0,-1.5 0,-1.9 0.8,-2 -0.2,-1.5 0.9,-2.5 0.4,-1.8 -0.3,-1.7 -0.9,-1.5 -0.5,-2.4 -0.2,-1.6 0.3,-1.4 0.3,-1.5 -0.4,-1.2 0.9,-1.5 -0.6,-0.9 1.3,-2.6 -1.2,-1.1 -0.6,-2.2 0.1,-1.5 0.1,-1.7 0.2,-1.6 0.6,-1.2 0.4,-0.8 0.9,-1.3 0.7,-2.6 0.4,-1.1 3,-2.6 1.1,-1.7 1.7,-1.9 0.8,-1.7 -0.6,-1.1 1.6,-0.6 3.8,-1.5 2,-2.6 1.3,-2.3 0.9,-5.3 2.2,-2.6 2.2,-2.5 1.5,-5.1 17.6,-59.5 11.8,-39.9 10.1,-34.3 85.5,-13.1 0.4,24.2 1.9,133.4 0,0 3.4,1.9 87,50.4 z"
       inkscape:connector-curvature="0"
       class="DEP_11 ZON_04" /></g><g
     transform="matrix(0.22847754,0,0,0.22847754,132.46587,368.3341)"
     id="MUN_0117"
     style="fill:#ff0000"
     inkscape:transform-center-x="6.6405101"
     inkscape:transform-center-y="9.7063997"><path
       id="MUN_1117"
       d="m 1065.159,378.645 -184.071,472.876 -16.246,42.113 -4.259,3.471 -8.518,5.678 -3.786,2.366 -5.521,3.47 -3.313,1.578 -2.365,1.734 -1.42,2.523 -0.789,1.894 0.315,7.255 -0.788,4.102 -1.262,2.051 -2.524,2.208 -1.419,1.577 -3.155,0.157 -2.208,-0.315 -2.523,-1.104 -1.735,-0.946 -1.893,-0.474 -1.893,-0.157 -1.735,0.631 -1.262,0.788 -2.682,3.155 -0.946,1.577 -1.262,1.577 -1.104,0.157 -1.578,-0.157 -1.417,-0.63 -1.735,-1.893 -2.208,-1.578 -2.051,-0.473 -2.997,0.473 -2.365,1.578 -2.051,4.101 -2.051,5.836 -1.262,2.839 -1.735,1.104 -5.047,0.474 -1.735,0.157 -1.734,0.946 -1.104,1.735 -0.631,4.101 -0.631,3.943 -2.997,4.259 -2.366,0.474 -90.222,-37.067 -188.33,-77.761 -242.274,-99.844 0.474,-3.943 -2.051,-4.416 -2.997,-1.577 -0.631,-1.893 3.785,-4.89 3.313,0.473 3.628,1.577 3.786,-0.157 2.996,-3.313 -0.157,-2.682 -1.42,-1.42 -2.05,-0.473 -0.947,-3.785 0.158,-2.997 0.946,-1.104 1.262,-4.101 1.42,-1.104 1.104,-1.893 0.158,-5.048 1.893,-2.681 1.262,0.315 1.42,2.05 1.262,1.104 1.262,-0.789 1.42,-2.365 2.682,-3.471 3.785,-1.577 0.946,-2.208 -0.157,-1.735 -1.42,-3.943 -1.577,-2.681 -3.313,-1.578 -0.315,-4.259 -1.577,-1.734 -8.36,0.473 -8.518,-8.833 -4.731,-5.205 -0.158,-3.943 2.051,-4.258 1.104,-5.679 -2.051,-5.836 0.631,-12.618 -1.893,-2.997 -2.839,-2.051 -1.577,-2.523 -0.474,-4.89 0,-5.363 -3.154,-5.678 -1.263,-2.997 0,-1.42 -2.05,-0.315 -2.997,-0.788 -2.208,-1.42 -3.628,-0.789 -5.836,-1.104 -4.259,-3.155 -0.315,-4.731 -0.631,-1.735 -2.208,-2.05 -3.943,-1.42 -3.471,-2.051 -2.05,-1.262 -0.947,-2.523 -0.473,-5.363 -2.366,-3.943 -2.366,-4.731 0.474,-2.997 2.051,-4.89 -1.735,-5.836 -3.154,-5.521 -6.31,-7.256 -7.098,-6.151 -0.789,-1.735 -0.473,-3.628 -0.789,-5.678 -0.631,-3.785 -1.42,-2.682 -3.154,-1.577 -3.154,-1.263 -3.471,-2.05 -2.208,-2.208 -4.574,-2.051 -4.416,-2.84 -3.155,-2.681 -1.419,-3.471 -1.893,-4.731 -0.631,-2.051 -3.155,-3.628 -15.142,-17.034 -2.84,-2.84 -4.259,-1.893 -2.996,-1.42 -4.102,-3.627 -2.051,-0.631 -2.996,0.631 -2.366,0.631 -3.313,-2.366 -2.523,-1.893 -4.417,-0.789 -2.839,-3.47 -1.42,-4.732 -1.104,-7.255 -2.839,-4.417 -3.155,-2.997 -4.101,-2.681 -12.935,-15.458 -5.678,-189.908 -0.315,-8.518 294.325,-59.149 222.084,-44.638 0.789,0.473 178.551,96.058 73.503,39.433 230.758,124.137 z"
       inkscape:connector-curvature="0"
       class="DEP_11 ZON_04"
       style="fill:#ff0000" /></g></svg>