<?xml version="1.0" encoding="UTF-8" standalone="no"?>
<!-- Generator: Adobe Illustrator 19.2.0, SVG Export Plug-In . SVG Version: 6.00 Build 0)  -->

<svg
   xmlns:dc="http://purl.org/dc/elements/1.1/"
   xmlns:cc="http://creativecommons.org/ns#"
   xmlns:rdf="http://www.w3.org/1999/02/22-rdf-syntax-ns#"
   xmlns:svg="http://www.w3.org/2000/svg"
   xmlns="http://www.w3.org/2000/svg"
   xmlns:sodipodi="http://sodipodi.sourceforge.net/DTD/sodipodi-0.dtd"
   xmlns:inkscape="http://www.inkscape.org/namespaces/inkscape"
   version="1.1"
   id="SvgMunicipio"
   x="0px"
   y="0px"
   viewBox="0 0 1000.1 990"
   style="enable-background:new 0 0 1000.1 990;"
   xml:space="preserve"
   inkscape:version="0.91 r13725"
   sodipodi:docname="MUN_ID1122.svg"><metadata
     id="metadata10"><rdf:RDF><cc:Work
         rdf:about=""><dc:format>image/svg+xml</dc:format><dc:type
           rdf:resource="http://purl.org/dc/dcmitype/StillImage" /></cc:Work></rdf:RDF></metadata><defs
     id="defs8" /><sodipodi:namedview
     pagecolor="#ffffff"
     bordercolor="#666666"
     borderopacity="1"
     objecttolerance="10"
     gridtolerance="10"
     guidetolerance="10"
     inkscape:pageopacity="0"
     inkscape:pageshadow="2"
     inkscape:window-width="665"
     inkscape:window-height="480"
     id="namedview6"
     showgrid="false"
     inkscape:zoom="0.23838384"
     inkscape:cx="500.04999"
     inkscape:cy="495"
     inkscape:window-x="0"
     inkscape:window-y="0"
     inkscape:window-maximized="0"
     inkscape:current-layer="svg" /><g
     id="g3"><path
       id="MUN_1122"
       d="m 588.7,0 210.4,4.3 126.6,2.6 -31.4,84.2 -3,8.6 -3.2,11.2 -2.9,9.6 -0.9,3.2 -3.9,12.7 -2.7,9.9 -0.4,3.3 -2,6.3 -2.6,10 -2.4,6.3 -2.4,9.2 -1.7,5.4 -4.2,12.6 -1.4,4.7 -1.1,6.9 -2,5.6 -3,5.2 -3.7,3.2 -3.9,6.2 -2.9,10.3 0.6,5.4 3.3,9 -1.6,8 0.7,12.6 3.6,11.7 5,22.3 2.6,7.4 1.4,10.9 2,14.5 8.9,2.3 15.5,1.6 11.6,0.4 24.9,2.1 36.5,3.1 31.2,2.6 4.9,0.4 -0.4,7.6 -0.4,17.8 -7.3,314.2 -155.4,14.6 -3,1.7 -2.3,1.1 -2.9,2.1 -7.4,3.4 -9.5,0.6 -8.7,-2.7 -10.2,-3.2 -11.7,-0.9 -6.7,2.1 -5.3,3 -6.6,3.4 -4.7,1.6 -5.4,1.3 -6,0.9 -9.3,-2.1 -4.9,0.9 -3.7,3.4 -3,2.1 -5,1.1 -6.2,2.7 -4.4,5.4 -5.3,2 -10.2,-0.4 -7.4,2.7 -2.6,7.3 -0.1,7 -1.3,3.9 -2.1,2.3 -3.3,1.6 -3.6,1.9 -7.2,2.3 -12.6,1.7 -8,7.3 -4.6,11.6 -3.9,5.6 -3.2,4.3 -0.6,7.4 4.4,11.3 2.6,9.7 -2.1,9.5 -3.9,12.5 -4.3,5.6 -0.6,8.3 -4.4,12.5 -1.3,7.9 -2.1,4.2 -4.6,8.6 -1.1,7.4 -5.7,9.3 -5.4,6.6 -4.3,3.4 -6.4,2.6 -2.9,1.7 -2.3,5 -3.9,1.9 -2.4,3.9 -5.7,5.2 -3,4.7 -3.4,2.7 -2.3,2.9 -2.6,2.7 1.4,1.7 1.9,2.6 3.6,4.4 1.3,3.3 2.1,6.7 -0.3,4.7 -0.4,2.4 -4,2.9 -3.3,1.9 -4.3,2.3 -4,-0.4 -3,0.9 -2.6,0.1 -1.3,-0.6 -2.3,-0.6 -6.6,-2.9 -3,-1.4 -19.2,-2.1 -34.7,-3.7 -2.7,-0.1 L 374.3,969 358.7,967.1 312.4,942.2 75.6,814.1 74,813.2 -1.5,772.2 -5.1,770.5 137.1,443.5 158,395.5 87.2,285.2 82.8,278.3 133.4,258 237,216.5 588.7,0 l 0,0 z"
       inkscape:connector-curvature="0"
       class="DEP_11 ZON_04" /></g></svg>