<?xml version="1.0" encoding="UTF-8" standalone="no"?>
<!-- Generator: Adobe Illustrator 19.2.0, SVG Export Plug-In . SVG Version: 6.00 Build 0)  -->

<svg
   xmlns:dc="http://purl.org/dc/elements/1.1/"
   xmlns:cc="http://creativecommons.org/ns#"
   xmlns:rdf="http://www.w3.org/1999/02/22-rdf-syntax-ns#"
   xmlns:svg="http://www.w3.org/2000/svg"
   xmlns="http://www.w3.org/2000/svg"
   xmlns:sodipodi="http://sodipodi.sourceforge.net/DTD/sodipodi-0.dtd"
   xmlns:inkscape="http://www.inkscape.org/namespaces/inkscape"
   version="1.1"
   id="SvgMunicipio"
   x="0px"
   y="0px"
   viewBox="0 0 657.4 1000.1"
   style="enable-background:new 0 0 657.4 1000.1;"
   xml:space="preserve"
   inkscape:version="0.91 r13725"
   sodipodi:docname="MUN_ID1120.svg"><metadata
     id="metadata10"><rdf:RDF><cc:Work
         rdf:about=""><dc:format>image/svg+xml</dc:format><dc:type
           rdf:resource="http://purl.org/dc/dcmitype/StillImage" /></cc:Work></rdf:RDF></metadata><defs
     id="defs8" /><sodipodi:namedview
     pagecolor="#ffffff"
     bordercolor="#666666"
     borderopacity="1"
     objecttolerance="10"
     gridtolerance="10"
     guidetolerance="10"
     inkscape:pageopacity="0"
     inkscape:pageshadow="2"
     inkscape:window-width="665"
     inkscape:window-height="480"
     id="namedview6"
     showgrid="false"
     inkscape:zoom="0.23597641"
     inkscape:cx="328.70001"
     inkscape:cy="500.04999"
     inkscape:window-x="0"
     inkscape:window-y="0"
     inkscape:window-maximized="0"
     inkscape:current-layer="svg" /><g
     id="g3"><path
       id="MUN_1120"
       d="m 462.5,56.4 8.8,8.5 13.1,9.2 5,3.1 6.6,3.7 6.8,2.9 3.5,3.1 10.3,14.7 9.6,15.5 3.7,11.1 5,22.7 3.1,15.5 0.4,10.3 1.8,17.9 2.8,15.9 0.6,9.4 -0.6,12 0.2,5.3 1.3,4.8 6.5,9 0.2,1.7 1.5,6.8 37,200.3 24.5,132 61.4,421.5 -0.4,0.2 -0.9,0.7 -2.2,0.7 -5,0.6 -4.4,-0.7 -3.9,-1.1 -3.5,-0.2 -2.9,-0.9 -2.6,-1.1 -2.6,-1.1 -3.5,-0.9 -2.6,0.7 -2.8,-1.5 -2.8,-1.3 -1.7,-0.9 -1.3,-0.4 -2,-1.1 -2.8,-0.6 -0.7,-1.1 -2.2,-0.4 -1.8,-1.8 -1.3,-0.2 -2.4,-1.7 -1.8,-1.1 -2.8,-1.5 -2,-1.1 -1.5,-0.9 -1.8,-0.7 -1.8,-0.6 -7.2,0.7 -5.9,2.8 -5.9,3.5 -4.6,1.1 -3,0 -4.8,0 -3.3,-0.6 -2,0 -3.7,0 -2.4,1.7 -3.7,1.8 -2.4,0.7 -3.3,-0.7 -2.2,-0.9 -2.6,-0.9 -2,1.3 -2,2.4 -4.4,2.9 -2.6,0.6 -1.8,0 -3.9,0.6 -3.7,0.4 -2.4,0.4 -1.8,1.8 -2.9,1.3 -1.7,0.2 -2,0.4 -2,0.2 -1.3,-1.3 -2.4,-1.7 -2.4,-0.6 -1.8,0 -1.8,0.6 -0.7,0.2 -1.1,0.4 -2.2,0.7 -2.6,0.2 -2.2,-0.2 -3.1,0.6 -1.8,0.7 -2.6,0.4 -4.4,0.4 -2.9,-1.1 -4.6,-2 -3.3,-0.9 -3.9,0.6 -1.7,0.2 -2.2,0.4 -1.5,-0.6 -2.4,-0.4 -2.6,-1.5 -1.7,-1.3 -2.8,-0.7 -2.4,0.6 -1.7,-0.6 -2.9,-0.2 -3.1,-1.8 -1.7,-0.2 -1.3,-0.2 -1.7,2.2 -2.2,1.8 -2,1.5 -2.9,0.2 -0.4,0.2 -2.9,-0.7 -1.7,-0.7 -5.5,-3.3 -2.9,-3.7 -5.2,-6.1 -2.6,-4.4 -1.5,-1.1 -1.7,-0.4 -1.7,-0.2 -2.2,0.4 -2.6,0.7 -1.8,-1.7 -2.8,-1.8 -2.2,-1.5 -2.4,-0.9 -5.5,1.5 -4.1,2.8 -4.4,2.2 -3.3,1.1 -3.9,-1.5 -6.3,-2.8 -4.4,-2.8 -0.6,-0.4 2.9,-21.2 0.7,-6.5 4.1,-31.3 0.7,-7 4.6,-38.2 2.9,-24.9 0.9,-7.2 1.3,-12 3.7,-30 0.7,-4.8 3.7,-29.7 2.2,-16 2.4,-21 0.6,-5.3 2.4,-20.1 0,-3.1 -0.6,-2.2 -3.3,-10.7 -3.9,-2.2 -1.1,0.2 -0.7,0 -6.3,0.9 -5.7,1.5 -11.1,1.5 -14.2,2.2 -5,0.7 -9.8,0.6 -7.4,-0.6 -11.6,-0.7 -2.9,-0.2 -5.3,0.9 -4.6,1.3 -6.5,1.7 -5.7,1.5 -3.9,2 -3.5,0.9 -7,0.9 -5.9,-3.3 -2.9,-1.3 -8.1,-3.5 -3.9,-1.3 -6.5,-1.3 -9,-1.1 -8.3,-0.9 -5.7,-0.7 -5.7,-1.8 -10.9,-2.6 -12,-2.4 -11.6,-3.1 -7.7,-2.2 -6.1,-1.5 -2.9,0.4 -0.2,-0.2 -10.1,-0.9 -15.1,-1.1 -4.1,-1.5 -7.4,-4.4 -6.4,-4.2 -3.1,-3.3 -2.2,-3.7 -4.2,-5.3 -0.7,-3.3 -0.9,-5.2 -1.5,-5.7 -2,-3.5 -2.2,-3.7 -3.5,-2.8 -2.6,-2.4 -3.7,-3.3 -7.6,-5.2 -6.8,-3.9 -4.2,0.7 -4.6,0 -4.4,-2 -3.9,-2.6 -3.1,-2.4 -2.8,-2.8 -5.2,-4.4 -6.3,-5.2 -6.6,-5.3 -3.3,-6.3 -2.9,-3.1 -4.2,-4.4 -4.1,-5.3 -3.9,-3.7 -3.9,-5.3 -0.4,-0.2 -0.7,-0.9 -0.4,-0.6 -2,-2 3.7,-2 4.2,-1.3 4.6,-2.2 5.5,-6.3 2,-4.4 0.6,-7.2 -0.4,-5.3 -0.6,-2.6 -0.6,-2 -2.6,-4.1 0.6,-6.3 3.5,-4.1 2.9,-6.8 1.7,-7.6 1.3,-6.1 0.9,-9.8 -0.7,-8.8 -1.3,-11.2 24.7,-269.6 16.5,-179 3.7,0.4 303.7,33 70.4,7.5 z"
       inkscape:connector-curvature="0"
       class="DEP_11 ZON_04" /></g></svg>