<?xml version="1.0" encoding="UTF-8" standalone="no"?>
<!-- Generator: Adobe Illustrator 19.2.0, SVG Export Plug-In . SVG Version: 6.00 Build 0)  -->

<svg
   xmlns:dc="http://purl.org/dc/elements/1.1/"
   xmlns:cc="http://creativecommons.org/ns#"
   xmlns:rdf="http://www.w3.org/1999/02/22-rdf-syntax-ns#"
   xmlns:svg="http://www.w3.org/2000/svg"
   xmlns="http://www.w3.org/2000/svg"
   xmlns:sodipodi="http://sodipodi.sourceforge.net/DTD/sodipodi-0.dtd"
   xmlns:inkscape="http://www.inkscape.org/namespaces/inkscape"
   version="1.1"
   id="SvgMunicipio"
   x="0px"
   y="0px"
   viewBox="0 0 953.3 1000"
   style="enable-background:new 0 0 953.3 1000;"
   xml:space="preserve"
   inkscape:version="0.91 r13725"
   sodipodi:docname="MUN_ID1101.svg"><metadata
     id="metadata10"><rdf:RDF><cc:Work
         rdf:about=""><dc:format>image/svg+xml</dc:format><dc:type
           rdf:resource="http://purl.org/dc/dcmitype/StillImage" /></cc:Work></rdf:RDF></metadata><defs
     id="defs8" /><sodipodi:namedview
     pagecolor="#ffffff"
     bordercolor="#666666"
     borderopacity="1"
     objecttolerance="10"
     gridtolerance="10"
     guidetolerance="10"
     inkscape:pageopacity="0"
     inkscape:pageshadow="2"
     inkscape:window-width="665"
     inkscape:window-height="480"
     id="namedview6"
     showgrid="false"
     inkscape:zoom="0.236"
     inkscape:cx="476.64999"
     inkscape:cy="500"
     inkscape:window-x="0"
     inkscape:window-y="0"
     inkscape:window-maximized="0"
     inkscape:current-layer="svg" /><g
     id="g3"><path
       id="MUN_1101"
       d="m 691.6,111.2 79.1,26.8 2.9,1.1 15.8,-7.4 6,0 6.1,-2.5 6.1,-4.2 8,-5.1 3.4,-3.1 30.8,2.6 -15.8,138.5 1.6,0 117.6,-2.5 0,0 -12.5,8.6 -5.8,4.1 -4,4.7 -10.9,16.6 -6.2,8.1 -5.3,8.7 -2.2,5.2 -0.7,2 -1.9,15.8 -1.4,5.1 -2.9,10.5 -0.9,2.5 -2.8,3.8 -4.2,2.2 -3.4,0.8 -1.4,0.4 -10.8,9.9 -1.7,1.4 -2.5,1.4 -4.9,4.6 -3.1,4.9 -2.4,5.7 -3.2,8 -2.1,5.8 -2.7,3.4 -5.9,2.7 -0.4,0 -4.6,0.1 -7.2,0.7 -6.6,-1.2 -5.7,-1.2 -6.1,0 -0.9,0.2 -5.8,2.6 -7.4,4.4 -7.7,6.1 -5.1,4.1 -1.9,2.6 -2.2,4.4 -6.5,16.3 -0.4,0.2 -6.6,3.2 -4.5,3.4 -2.5,2.6 -3.9,5.7 -3.5,4.8 -3.7,3.2 -3.1,2.2 -3.5,1.5 -3.7,1.3 -4.5,1.1 -4.7,1.2 -6.1,1.3 -7.8,3.3 -4.6,2.7 -2.6,1.5 -6,2.1 -1.3,0.5 -12.8,0.5 -7.1,-2.8 -4.2,-3.5 -6.7,-6.2 -5.5,-4.6 -14.5,-4.6 -82.3,108.3 -47.4,62.3 -11,5.1 -225.1,104.4 -0.2,102.2 0,0 L 0,1022.4 19.9,964.8 145.3,600.9 133.4,567.3 104.9,486.9 97.5,466.2 89.3,448.9 69,406.4 42,350 l -0.1,0.1 0.2,-9.9 2.8,-2.5 2.9,-0.7 2.8,1.3 2.5,-1.2 0.5,-3.1 0.9,-7.8 -2.5,-6.5 -0.1,-2.6 6.5,-8.2 1.3,-7 -0.9,-3.1 -2,-4.5 -1.3,-2.4 -1.5,-2.5 -2.4,-3.4 -3.2,-2.2 -2.8,-2.2 -1.6,-1.8 -1.8,-1.9 -0.5,-3.2 -0.1,-3.2 -0.9,-2.1 -2.2,-3.3 -2.8,-3.5 -2.2,-3.4 -2.2,-6.6 0.7,-4.4 1.2,-1.6 0.6,-2.5 0.5,-4 -0.1,-1.1 0,-0.9 0.2,-1.3 1.3,-3.1 3.1,-3.9 4,-4.1 3.9,-4.2 3.7,-6.8 4.6,-6.8 0.4,-2.9 0.9,-3.2 1.3,-1.6 0.7,-1.8 0,-0.1 -0.2,-1.4 -1.4,-2.2 -1.2,-2.2 0.4,-2.8 0.7,-0.8 0.8,-0.9 2.5,-1.8 3.9,-2.8 1.6,-5.4 2.2,-2.7 2.4,-6.2 -0.5,-5.2 -1.4,-4.8 -2,-2.7 -2.6,0 -3.5,-0.1 -2,-2.6 0.4,-3.4 -0.2,-2.1 0.9,-1.6 1.5,-1.3 2.6,-4.2 3.3,-6.8 1.5,-6.1 1.9,-7.4 2.8,-9.2 2,-9.3 3.5,-11.3 0.5,0 234.7,27 54.2,6.1 61.5,-100.9 0.1,-0.2 88,29.8 174.4,58.4 z"
       inkscape:connector-curvature="0"
       class="DEP_11 ZON_04" /></g></svg>