<?xml version="1.0" encoding="UTF-8" standalone="no"?>
<!-- Generator: Adobe Illustrator 19.2.0, SVG Export Plug-In . SVG Version: 6.00 Build 0)  -->

<svg
   xmlns:dc="http://purl.org/dc/elements/1.1/"
   xmlns:cc="http://creativecommons.org/ns#"
   xmlns:rdf="http://www.w3.org/1999/02/22-rdf-syntax-ns#"
   xmlns:svg="http://www.w3.org/2000/svg"
   xmlns="http://www.w3.org/2000/svg"
   xmlns:sodipodi="http://sodipodi.sourceforge.net/DTD/sodipodi-0.dtd"
   xmlns:inkscape="http://www.inkscape.org/namespaces/inkscape"
   version="1.1"
   id="SvgMunicipio"
   x="0px"
   y="0px"
   viewBox="0 0 1000 906.2"
   style="enable-background:new 0 0 1000 906.2;"
   xml:space="preserve"
   inkscape:version="0.91 r13725"
   sodipodi:docname="MUN_ID1113.svg"><metadata
     id="metadata10"><rdf:RDF><cc:Work
         rdf:about=""><dc:format>image/svg+xml</dc:format><dc:type
           rdf:resource="http://purl.org/dc/dcmitype/StillImage" /></cc:Work></rdf:RDF></metadata><defs
     id="defs8" /><sodipodi:namedview
     pagecolor="#ffffff"
     bordercolor="#666666"
     borderopacity="1"
     objecttolerance="10"
     gridtolerance="10"
     guidetolerance="10"
     inkscape:pageopacity="0"
     inkscape:pageshadow="2"
     inkscape:window-width="665"
     inkscape:window-height="480"
     id="namedview6"
     showgrid="false"
     inkscape:zoom="0.26042816"
     inkscape:cx="500"
     inkscape:cy="453.10001"
     inkscape:window-x="0"
     inkscape:window-y="0"
     inkscape:window-maximized="0"
     inkscape:current-layer="svg" /><g
     id="g3"><path
       id="MUN_1113"
       d="m 633.4,917.6 -35.9,6.3 -19.6,3.5 -40.4,7.4 -6.6,1.1 -64,10.6 7.9,-13.9 2.3,-10 -0.1,-3.9 3.9,-5.6 2.9,-6.9 3,-6.5 5.9,-9.4 3.7,-6.9 4,-5.9 3.7,-6.1 0,-2 -0.1,-5.9 1.1,-1.9 3.7,-2.9 2.8,-2.7 0.3,-8.8 1,-5.8 3.2,-10.6 0,-5.5 -0.4,-5.9 -0.8,-7.7 -0.2,-3.6 2.4,-4.3 1.5,-5 1.5,-5.4 3,-3.3 3.2,-3 3.7,-2.2 3.3,-2 0.8,-0.7 2.7,-2.8 3.2,-4.3 1.9,-1.9 4.4,-6.6 2.7,-2.9 7,-4.6 -5.6,-8.3 1.8,-2.5 7.1,-4.1 0.7,-2.8 -0.7,-3 1,-2.5 2.3,-4.9 0.2,-3.8 0.1,-4 1.9,-2 3.1,-3.8 0.3,-2.8 -0.8,-2.9 0,0.1 -0.7,-3.3 1,-1.4 2.3,-0.4 3,-1.1 1,-7.5 0.3,-5.1 -1.5,-3 -2,-2.4 -1,-5.9 -2.8,-11.4 1.4,-8.8 -2.5,-13.4 -0.8,-8.7 -0.3,-3.5 -4.4,-5.8 0.9,-3.2 2.2,-2.4 5.8,-7.3 -1,0 L 540,614.8 403.3,600 240,582.2 4.1,556.7 5.5,545 l 0.4,-2.7 2,-4.6 2,-3.9 2.9,-1.8 2.2,-1.1 0.1,-1.7 1.2,-3.8 2.9,-2.5 2.9,-3.3 2.8,-1.5 5.8,-3.7 3.3,-2.4 1.1,-0.8 1,-1.8 1.8,-2.8 3.2,-5 2.7,-6.3 3.9,-5.8 2.2,-5.9 3,-4.9 7.9,-11.1 0.9,-1.3 1,-2.5 0.8,-1.5 0,-4 1.1,-3.4 0.3,-2.7 7.1,-9.4 3.9,-7 1.2,-2.7 0.2,-0.3 -0.3,-3.3 1.3,-4.2 0.7,-2.7 5.3,-3.4 3.2,-14.6 2.7,-5.2 1.9,-3.5 3.4,-1.7 6.2,-1.1 2.4,-0.6 1.9,-2 2.5,-0.6 3.6,-1.9 4,-2.9 0.2,-0.7 3.4,-5.4 1.2,-3.3 6.4,-13.2 2.1,-4.1 1.4,-6.2 0.6,-4.5 1.9,-4.8 3.2,-9.2 5,-11.4 3.1,-4.1 7.3,-6.1 5.6,-7.6 0.9,-3.2 1,-3.4 2.8,-6.4 8.1,-8.5 0.6,-2.4 4.1,-1.4 3.9,-1.9 1.7,-1.3 2,-1.4 4.3,-2 2.8,-1 1.2,-1 2,-2.7 2.9,-2 3.5,-0.6 2.2,0.7 1.8,0.7 3.8,1 2.1,-1.3 1.1,-2.5 0.6,-2.1 0.1,-4.3 1.2,-3.6 0.9,-1.7 1.4,-2.9 0.4,-3 0,-3.2 2.3,-4.8 1,-3.8 0.7,-4.6 0.9,-8.7 0.1,-2.9 -1.1,-2.7 -2.1,-3.2 -1,-3.9 -0.3,-4.9 0.1,-4.8 1.5,-4 3.3,-5.1 1.1,-2.5 0.2,-2.4 -0.1,-2.3 -0.3,-0.4 -1.2,-3 1.5,-2.7 4,-3.2 -5.9,-4.6 -2.1,-15.9 7.1,-5.6 0.3,-1 3.4,-10.3 1.5,-2.5 1.9,-2.4 0.4,-2.2 0,-1.7 -0.3,-1.5 0.2,-1.9 1.8,-4.5 1,-2.3 0.1,-2.9 0.6,-2 2.7,-13.4 2.8,1.3 58.3,31.6 1.2,0.7 182.8,99 35.7,19.2 12.1,1.4 81.4,7.3 2.1,0.1 26.8,2.9 14.8,1.7 2.3,1.1 5.1,2.2 1.8,0.4 1,0.4 2,-0.1 2.3,-0.7 2.9,0.4 3.3,-1.8 2.5,-1.4 3.1,-2.2 0.3,-1.9 0.2,-3.6 -1.7,-5.2 -1,-2.5 -2.8,-3.4 -1.4,-2 -1.1,-1.3 2,-2.1 1.8,-2.2 2.7,-2.1 2.3,-3.6 4.4,-4 1.9,-3 3,-1.4 1.8,-3.9 2.2,-1.3 5,-2 3.3,-2.7 4.2,-5.1 4.4,-7.2 0.9,-5.8 3.5,-6.6 1.7,-3.2 1,-6.1 3.4,-9.6 0.4,-6.4 3.3,-4.3 3,-9.6 1.7,-7.3 -2,-7.5 -3.4,-8.7 0.4,-5.8 2.4,-3.3 3,-4.3 3.5,-9 6.2,-5.6 9.7,-1.3 5.5,-1.8 2.8,-1.4 2.5,-1.2 1.7,-1.8 1,-3 0.1,-5.4 2,-5.6 5.8,-2.1 7.9,0.3 4.1,-1.5 3.4,-4.2 4.8,-2.1 3.9,-0.9 2.3,-1.7 2.9,-2.7 3.8,-0.7 7.2,1.7 4.6,-0.7 4.2,-1 3.7,-1.2 5.1,-2.7 4.1,-2.3 5.2,-1.7 9.1,0.7 7.9,2.4 6.7,2.1 7.3,-0.4 5.8,-2.7 2.2,-1.7 1.8,-0.9 2.3,-1.3 120,-11.3 -27.7,93.5 -32.2,108.7 -48,162.4 -4.1,13.9 -6.1,6.9 -6,7.1 -2.5,14.5 -3.7,6.3 -5.4,7 -10.4,4 -4.4,1.8 1.8,3.1 -2.2,4.5 -4.6,5.1 -3.1,4.8 -8.3,7.1 -1,3.1 -1.9,7 -2.4,3.7 -1.2,2.2 -2,3 -0.4,4.4 -0.2,4.8 -0.3,4 1.8,6.1 3.2,3.1 -3.4,7.2 1.8,2.3 -2.3,4 1.1,3.3 -0.9,4 -0.9,3.8 0.4,4.3 1.4,6.5 2.3,4.2 0.9,4.6 -1,5 -2.4,6.7 0.4,4.2 -2.2,5.5 0.1,5.1 0.1,4.1 -0.6,3 -2.3,5.8 -4.6,4.3 -1.5,4.9 -1.4,5 -1.2,4.2 1,4 0,5.4 0.6,6.6 2.7,13.3 -0.1,3.5 1.2,16.1 4.5,3.3 2.1,2.9 2.1,2.9 -0.1,3.9 -0.3,8 1.1,6.4 4,5.5 0.6,2.5 0.2,5.9 1.2,1.9 1.1,2 1.9,5.1 3.2,1.2 3.6,1.8 2.5,2.8 -2.7,4.5 0.2,2 2.9,2.9 1.4,2 1.3,2.8 0.8,1.7 0.2,1 -0.1,7.7 0.2,5.9 2.8,2.7 6.3,4.3 2.2,3.8 0.2,3.3 0,3.4 0.7,4.4 0.2,3.8 1.1,2.7 0.1,2.3 -1.4,2.2 -4.9,3.7 -8.5,8.5 -1.7,4.9 -7.2,0.8 -16.7,6 0.3,4.3 0.2,4.3 -0.4,1.5 -0.6,1.9 -0.9,1.2 -3.6,4.8 -1.5,2.3 -1.7,1.9 -2.3,2.3 -2,2.2 -0.8,1.7 -1.5,1.1 -2.9,3.9 -1.4,1.8 -2.5,3.5 -1.4,2.1 -1.4,2 -1,2.2 -2.5,4.5 -1.5,4.5 -0.4,3 -0.3,1.8 -1,3.1 -162.9,29 z"
       inkscape:connector-curvature="0"
       class="DEP_11 ZON_04" /></g></svg>