<?xml version="1.0" encoding="UTF-8" standalone="no"?>
<!-- Generator: Adobe Illustrator 19.2.0, SVG Export Plug-In . SVG Version: 6.00 Build 0)  -->

<svg
   xmlns:dc="http://purl.org/dc/elements/1.1/"
   xmlns:cc="http://creativecommons.org/ns#"
   xmlns:rdf="http://www.w3.org/1999/02/22-rdf-syntax-ns#"
   xmlns:svg="http://www.w3.org/2000/svg"
   xmlns="http://www.w3.org/2000/svg"
   xmlns:sodipodi="http://sodipodi.sourceforge.net/DTD/sodipodi-0.dtd"
   xmlns:inkscape="http://www.inkscape.org/namespaces/inkscape"
   version="1.1"
   id="SvgMunicipio"
   x="0px"
   y="0px"
   viewBox="0 0 1000 913.6"
   style="enable-background:new 0 0 1000 913.6;"
   xml:space="preserve"
   inkscape:version="0.91 r13725"
   sodipodi:docname="MUN_ID1102.svg"><metadata
     id="metadata10"><rdf:RDF><cc:Work
         rdf:about=""><dc:format>image/svg+xml</dc:format><dc:type
           rdf:resource="http://purl.org/dc/dcmitype/StillImage" /></cc:Work></rdf:RDF></metadata><defs
     id="defs8" /><sodipodi:namedview
     pagecolor="#ffffff"
     bordercolor="#666666"
     borderopacity="1"
     objecttolerance="10"
     gridtolerance="10"
     guidetolerance="10"
     inkscape:pageopacity="0"
     inkscape:pageshadow="2"
     inkscape:window-width="665"
     inkscape:window-height="480"
     id="namedview6"
     showgrid="false"
     inkscape:zoom="0.25831875"
     inkscape:cx="500"
     inkscape:cy="456.79999"
     inkscape:window-x="0"
     inkscape:window-y="0"
     inkscape:window-maximized="0"
     inkscape:current-layer="svg" /><g
     id="g3"><path
       id="MUN_1102"
       d="m 388.9,23.6 -2.1,3.2 0,0.3 0,1 0,0 0.4,2.6 0,0 1.7,4.9 139.4,0.3 76.7,57.6 38.8,29.1 160.4,0.3 20.5,0.1 0.1,2.9 -0.5,2.3 -1.4,1.5 -1.6,1.2 -3.7,0.8 -3.2,0.1 -1.9,0.2 -0.3,2.5 0,18.5 0.8,2.3 1.4,0.9 1.7,-0.4 1.2,-0.7 1.2,-0.3 0.4,0.8 0.4,2.1 0.7,2.8 2.5,2.5 1.7,2.5 0.4,2.4 1.2,3.2 4.6,18.7 2,4.5 3.1,5.7 3.4,4.7 3.7,2.1 5,1.9 4,2.3 3.2,3 3,5.6 1.3,2.9 2.5,6.5 1.3,2.6 1.9,1.7 2.9,3.2 2.8,3.6 1.8,8.2 -0.7,2.4 -1.7,2.3 0.5,2.1 2.1,2.1 2.8,2 2,1.5 0.8,1.8 -1,2.5 -1.4,1.2 1.4,9.7 2.3,5.2 1.1,1.9 1.6,3.6 2,2.9 1,3.2 3.3,3.1 3.8,3.6 2.8,4 1.6,3.4 1.7,3.9 -1,2.7 -1.2,4.2 1.5,2.5 1.3,2.3 -0.7,2.4 -1.2,2.6 0,1.6 0.3,1.5 1.5,3.1 -0.6,6.8 62.3,-1.7 -2.1,6.6 -1.2,5.4 -1.7,5.4 -1.1,4.3 -0.9,3.6 -1.9,4 -1.5,2.5 -0.9,0.8 -0.6,1 0.1,1.2 -0.2,2 1.2,1.5 2.1,0.1 1.5,0 1.2,1.6 0.8,2.8 0.3,3 -1.4,3.6 -1.3,1.6 -1,3.2 -2.3,1.7 -1.4,1 -0.5,0.6 -0.4,0.5 -0.2,1.7 0.7,1.3 0.8,1.3 0.1,0.8 0,0.1 -0.4,1 -0.8,1 -0.6,1.9 -0.2,1.7 -2.7,4 -2.1,4 -2.3,2.5 -2.3,2.4 -1.8,2.3 -0.8,1.8 -0.1,0.8 0,0.6 0.1,0.6 -0.3,2.3 -0.3,1.4 -0.7,1 -0.4,2.5 1.3,3.9 1.3,2 1.7,2.1 1.3,1.9 0.6,1.2 0.1,1.9 0.3,1.9 1,1.1 1,1 1.7,1.3 1.9,1.3 1.4,2 0.9,1.4 0.8,1.4 1.2,2.6 0.6,1.8 -0.8,4.1 -3.8,4.8 0.1,1.5 1.4,3.8 -0.6,4.5 -0.3,1.8 -1.4,0.7 -1.7,-0.8 -1.7,0.4 -1.7,1.4 -0.1,5.8 0.1,-0.1 15.8,33 11.8,24.9 4.8,10.1 4.3,12.1 16.7,47 7,19.6 -73.3,212.6 -11.6,33.7 -49.8,20 -24.3,9.8 -87.6,-111.4 -29.8,-46.3 -10.3,-16 -33.3,-12.1 -28.7,-10.6 -3.5,-1.2 -38.8,-14.2 -10,-3.4 -20.2,-6.9 -24.7,-8.9 -14.3,-5.1 -10.9,-3.9 -15.3,-92.2 -3,1.4 -1.9,-0.4 -1.6,-1.2 -2.6,-1.7 -1.3,0.5 -0.8,1 -1.9,0.8 -4.1,0.2 -2.3,0.1 -0.7,2 -0.6,2.1 -1.1,1.3 -1.7,1 -2.1,0.3 -0.9,1.3 -2.2,1.9 -2.1,1.2 -1.7,1.4 -0.6,2.1 -1.4,1.2 -1.7,0.6 -2.4,-0.7 -1.7,-0.3 -1.4,1.2 -0.8,1.4 0.3,1.3 -0.1,1 -4.3,2.3 -2.3,0.3 -2,0 -1.7,-0.9 -1.6,-2 -1.9,-0.3 -2.6,0.3 -1.7,-0.1 -2.3,-1 -1.7,-0.3 -2.8,-0.5 -2.3,-1 -2.6,-1.2 -3.4,0.2 -2.9,1 -2,0.5 -2.3,0.3 -1.5,2.8 -1.4,2 -1.8,1.9 -1.4,1.6 -1.7,2 -1,2.1 -0.6,1.7 -1.3,1.2 -1.3,0.9 -1,0.8 -1.7,0.6 -3.7,1.5 -1.8,0 -1.4,-0.4 -2.3,0.5 -2.2,1.9 -1.7,0.3 -2.1,-0.1 -3.4,-0.1 -0.8,-0.1 -3.2,0.2 -1.9,1.1 -38.6,-19.9 -99.9,-50.7 -85.3,-43.3 -159.4,-81 5.7,-14.8 4.6,-6.3 0.6,-1.5 3.4,-8.1 0,-7.4 0.7,-19.9 -4.3,-10.7 -8.5,-14 -6.9,-14.9 -3.7,-18.2 2.3,-9 4.5,-10.2 4.5,-8.1 6.4,-12.9 0.1,-0.1 4.3,-7.5 17.4,-21.8 12.6,-11.3 17.3,-6.1 7.1,0.5 11.6,8 5,4.8 7,4.4 4,3.6 5.6,3.8 6.3,1.2 7.5,-0.5 12.9,-0.9 10.8,-10.7 11.9,-17.1 0.8,-1 5.8,-7.4 0.8,-8.7 -0.7,-7.6 0.5,-4.3 -0.3,-5.9 -0.9,-8.8 -0.9,-9.7 1.2,-12.5 1.6,-4.9 3.5,-10.7 8.4,-11.6 8.3,-9 1.8,-0.5 14.3,-3.5 8.1,-7.6 7.9,-9.8 10.1,-16 1.4,-11.6 -0.2,-8.6 1,-10.7 -4.1,-8.4 -4.8,-15.6 1.3,-2.9 8.8,-19.7 17.9,-4.4 11.7,0.6 5.4,0.5 16.5,2.4 28,4.8 9,3.4 19.1,5.4 22,3.3 26.5,3.2 z"
       class="DEP_11 ZON_04"
       inkscape:connector-curvature="0" /></g></svg>