<?xml version="1.0" encoding="UTF-8" standalone="no"?>
<!-- Generator: Adobe Illustrator 19.2.0, SVG Export Plug-In . SVG Version: 6.00 Build 0)  -->

<svg
   xmlns:dc="http://purl.org/dc/elements/1.1/"
   xmlns:cc="http://creativecommons.org/ns#"
   xmlns:rdf="http://www.w3.org/1999/02/22-rdf-syntax-ns#"
   xmlns:svg="http://www.w3.org/2000/svg"
   xmlns="http://www.w3.org/2000/svg"
   xmlns:sodipodi="http://sodipodi.sourceforge.net/DTD/sodipodi-0.dtd"
   xmlns:inkscape="http://www.inkscape.org/namespaces/inkscape"
   version="1.1"
   id="SvgMunicipio"
   x="0px"
   y="0px"
   viewBox="0 0 879.9 1000"
   style="enable-background:new 0 0 879.9 1000;"
   xml:space="preserve"
   inkscape:version="0.91 r13725"
   sodipodi:docname="MUN_ID1003.svg"><metadata
     id="metadata10"><rdf:RDF><cc:Work
         rdf:about=""><dc:format>image/svg+xml</dc:format><dc:type
           rdf:resource="http://purl.org/dc/dcmitype/StillImage" /></cc:Work></rdf:RDF></metadata><defs
     id="defs8" /><sodipodi:namedview
     pagecolor="#ffffff"
     bordercolor="#666666"
     borderopacity="1"
     objecttolerance="10"
     gridtolerance="10"
     guidetolerance="10"
     inkscape:pageopacity="0"
     inkscape:pageshadow="2"
     inkscape:window-width="682"
     inkscape:window-height="480"
     id="namedview6"
     showgrid="false"
     inkscape:zoom="0.236"
     inkscape:cx="439.95001"
     inkscape:cy="500"
     inkscape:window-x="0"
     inkscape:window-y="0"
     inkscape:window-maximized="0"
     inkscape:current-layer="svg" /><g
     id="g3"><path
       id="MUN_1003"
       d="m 737.7,7.2 0.8,0.8 0.8,-0.3 5,-1.3 6.3,1.3 3.3,0.8 1.5,0.3 5.3,0.3 2.3,-3 1,-1 1.8,-1 1.8,-0.3 0.5,3 2.3,8 1,5 1.8,4.8 0.3,0.3 7.5,3.8 4,2.8 0.3,5 3,1.8 4.3,-3.5 5.5,2 -0.1,5.2 1.8,2.8 2.5,-0.3 1.3,-3.8 4.3,0 3,3.8 0.8,3.5 3.5,0.3 0.3,0.5 0.3,0.3 0.3,4.3 0.5,0.3 4.5,1.3 2.8,-8 7.8,2.3 0,0.3 0.8,5.5 -5.8,8 0.3,0.8 2,4.5 1.8,4 1.3,2 2.5,4 1.8,1.5 1,1.5 3,2.3 8.8,6 6.8,4.5 0.8,0.3 2.3,0.3 0.8,0.5 5.8,3 6.8,2.3 2,0.3 -5,7 -5.3,6.3 -2,1.3 -1.3,1 -4,4.5 -4.3,4.5 -2.3,2 -2.5,1.8 -3.8,2.3 -3.3,1.5 -3.3,1.3 -3.3,4 -1.3,1.5 -1.3,1.8 -0.5,1.3 -1.5,1.3 -0.3,0.8 -1.3,0.8 -1.3,1.3 24.5,27.8 0,12.8 -1.3,4.5 3,6.5 0.3,3 -2,3.8 0.8,9.5 -0.8,3.3 -0.5,4 0.5,3.5 -0.8,4.8 -5,3.5 -0.8,6.8 3,0.8 0.3,4 3.5,2 0.3,1.3 4.8,5.5 -0.8,6 -3,5 -0.5,2 -5.5,1.8 -5,1.3 -5.6,0.3 -3.8,4 -1.8,1.3 -1.5,1.3 -2.3,1 -1.3,-0.3 -4.8,1.3 1,4.8 0.8,4.5 -10.6,14.1 -3.3,1.5 -6,4.8 -6.5,1.5 -1.3,3.3 -0.8,4.3 1.8,1.8 5.8,4 0,17.8 0,7.3 -1,1.8 -2.8,4 -3,2.3 -3,2.5 -1.3,2.8 -1,4.3 -1,4.3 0.5,8.8 -0.5,2 2.8,2 2.3,3.5 -6,5 -5.3,4.8 -1,5.8 2.5,6.3 1.5,1.5 3.8,1.5 2.3,1 6.5,-1.5 1.8,-0.8 8,-8 3.3,-2.8 6.5,-1.3 8,0.5 4.5,5.3 -0.5,5 -0.8,6 -0.3,4 0.5,3 2.5,4.3 3,1.3 5,1 6.5,5 1,1.8 -5.5,5.5 -3.3,3.5 -1.5,4.3 2.5,7 13,-0.8 5,0.8 2,6 0.3,3.5 3,4.3 0.8,1.5 7.3,-3.3 1.5,-0.8 2.3,0.8 5.5,5.5 8.3,9.5 4,3.8 -0.3,6.8 -1.5,5.3 -6.5,-1.5 -4,-1.5 -4,1.3 -6,6.5 -3,3.3 -4.5,1.8 -5.5,-1.8 -7,-4.5 -4.3,-4.5 -3.3,0.4 -1.8,5.5 0,5.8 -2.3,5 -8.8,3 -2.8,-5.5 -4.8,-5.5 -3.5,-1.3 -6.3,2.3 -4.8,-2.8 -5.8,-3.8 -9.1,0 -11,3 -2.8,4.8 -0.8,11 -3.3,7 -6.3,6.5 -6,6.5 -2.5,7 -2.3,10.3 -1.8,8.8 -4.5,4 -0.8,4.8 0.3,4.8 -4.5,4 -7.3,6 -9,2 -2.8,2.5 -2.3,7.8 -10.8,6 -16.5,15 -9,3.5 -1.3,2.8 2.8,3.5 -3,7.5 -12,8 -4.5,4 -2,6.8 -1.5,5 -3,1.3 -7,0.3 -9.8,6.5 -6.8,1.5 -6,-1.5 -9.3,-4 -7,0.8 -6.8,2.3 -4.3,-1.8 -3.3,-4.3 -2.5,-0.8 -2,3 0.3,6.5 -4,2 -3.8,-0.3 -3.8,-2 -5,-0.3 -3.5,-1.5 -5.5,-2.5 -6.5,-2.3 -8.3,-0.3 -6.3,-3.3 -1.3,1.3 -3,3 -2.5,4.3 -0.3,0.5 1,3.8 0.3,7.3 -4.8,5 -6.5,7.8 -7.5,8.8 -4.8,8 -6.3,10.8 -4,4.8 -3.8,3.8 -8.3,6.8 -10.5,14.3 3.5,0.5 3.3,16.8 6.8,6 3,3 1.8,3.3 2,2 11.3,3.8 4,2.5 3.8,3.5 -10.8,13 -4.5,3 -4.5,-1.3 -1.3,-0.3 -4.3,6.8 -1.8,3.8 -4.8,6.8 -0.5,0.8 -6.5,0.8 -4.8,9.5 -18.8,20 -5.8,4 -1.5,0 -10,-6 -6,1.3 -6.5,-1.8 -11,9.5 -5.8,4.8 -5.3,2.5 -6,0.3 -4.5,-3.3 -5,1.5 -16.5,13.9 -7.3,6 -1.8,2.5 -0.5,3.5 -2.8,5.3 -2,5.8 3,6.3 -12,11.3 -5.3,5.5 -1,5.3 1.8,8.3 -1.5,6 -5.5,8 -4.5,7.8 -1.3,2 -4.3,3.2 -4.3,3.5 -3.3,1.5 -4.5,3.3 -2,3.8 0,1.3 -3.3,5 -3.8,3.3 -4.5,1.8 -5,4.8 -165,-57.3 -7,-13.5 -3.8,-4.3 -5,-1.8 -1.5,-0.5 -1,-0.5 -2.3,-0.5 -5.8,-1.3 -3.8,-3.8 -5,-5.3 -5.5,-2.3 -7,-3 -7,-3.3 -5,-3 -4,-3 -4,-2.5 -5.3,-3.3 -10,-6 -4.5,-2.8 -0.3,-0.5 -2.3,-4.8 -2,-3.8 -3.3,-5.8 1,-4.8 0.5,-1.5 1,-5.3 0.5,-3.8 1.3,-7.3 1,-3.3 0.8,-3.3 0,-1.8 0.8,-4.5 -0.5,-1.3 -1,-1.5 0.5,-1 1,-3 0.8,-2 0.8,-2 1.3,-3.3 1.5,-3.5 1.5,-3 0.3,-3 1.5,-8.5 0.3,-3.3 2,-37.3 1,-9 1.3,-14.8 1,-15 1.5,-27.5 0.3,-3 0.1,-2.8 0.5,-9.5 0.8,-9 0.3,-8.8 2,-27.8 1.3,-13.8 6.8,-20.5 6.8,-20.5 8.3,-23.8 8.5,-23.8 2,-6 0.5,-4 0.8,-4.3 4.3,-7.3 7.5,-14.8 5,-9.5 6.5,-13.5 5,-7.8 3.5,-1.3 9.3,-3.5 6,-2.3 14.3,-6.8 4.5,-1.8 11.8,-4 2.5,-0.8 2,-1.3 -0.5,-2 -0.5,-1.5 -6.8,0.8 -7,-5 -4.3,-3 -2.8,-2 -6.3,-4 -3.5,-2.8 -3.3,-2.5 -5.5,-3.3 -2.5,-1.5 -7.3,-4.5 -4.8,-2.5 -5,-2.8 -1.3,-1.3 -2.3,-2.8 -2,-2.8 -1,-5.8 -0.5,-3 -2,-4.5 -12.8,-4.3 -8.3,-2.8 -3,-1 -3.5,-1.5 -2.3,-1.3 -2,-3.3 -1.5,-4 -1.3,-4 -1.8,-4.3 -1.5,-4 -1.3,-3.3 -1,-3.3 -2,-2.3 -3.5,-2.5 -7.5,-4.5 -0.5,-4.3 -0.3,-4.3 -1.8,-9.3 -1,-4.3 -2.5,-6 -2.8,-5.8 -2.3,-3 -3.5,-0.8 -0.3,-2.3 -3,-4 -0.8,-4 0.3,-4.8 -2,-0.3 -2.3,-5.8 0.3,-3.3 -1,-2.3 -5.8,-1.3 0.8,-4 -2.3,1.3 -1,-2.5 0.8,-2.3 -0.8,-3.5 0,-4.5 -1.8,-2.5 -0.3,-1.3 -0.2,-1 0,-1.5 0,-1 -0.5,-0.8 -3.3,-5.5 -2.5,-4.8 -3,-3.8 -0.3,-1.5 -0.3,-2.5 -0.8,-3 -0.5,-1.5 0,-3.3 -1,-3.3 -1.3,-4 0.5,-6.8 -2.3,-9.5 -3.8,-9 -1,-0.3 -2,-1.8 1,-5 11.8,-6.5 -0.5,-9.3 15,-10.5 3,-4 0.5,-7.8 2.8,-2.5 1.3,-6.3 1.8,-6.3 7.5,-6 4.8,-11.8 -2,-12.3 3,-1.8 2.5,-0.8 6.3,-1 6.3,0.5 2,1 2,3 5,1.8 7.8,0.5 5,-2.8 1,-0.3 8.3,-2.3 4,1 6,2.8 2.3,-0.5 2.8,-4.5 2.3,-0.8 4.3,1.8 1,5 4.3,8.3 1.5,3 1.8,1.5 3,1.5 7.5,2.5 5.5,5.5 1.8,0.3 16,6.8 1,0.8 6,0.5 4.5,-4.5 3.5,-3 1.3,0 3.5,1.5 11,6.5 9.8,-0.3 9.5,-2.8 2.5,-0.5 6.3,-1.5 8,-6.3 7.5,-6.3 11.3,0.8 4.5,0.3 6.3,0.3 11.3,-0.3 12,-1.8 5.5,0 5.8,-0.8 14.5,0.3 4.3,0.8 6.8,2 3.3,-0.8 3.3,-4.8 3,-3.3 7.5,-7.8 2.8,-2.8 15.8,-7.3 4.8,-1.5 1,-1.5 1,-1.8 -0.5,-7.3 5.3,-0.5 2,4 2.3,0.5 4.5,0.5 6.5,-1.5 5.3,-1 9.5,-2.5 4.8,-1.5 9.3,-2.5 2.5,-0.3 4.8,-0.5 6,-1.8 5.8,-5.3 4.5,-4.5 1.8,-1.3 3,-2.5 1.3,-1.3 4.3,-3.3 2,-2.3 2.8,0 0.8,0.5 2.8,3.5 3.8,4.8 3.5,5 1.8,1.5 3.3,-0.3 6.3,1.3 6.3,1.8 6.8,0.8 4.3,1.5 5.8,0.3 3.3,-1 3.8,-0.8 7,-3.5 2.5,-1.3 4.3,-5 1.8,-3.3 2.5,-2.3 1.8,-1.3 4.3,-0.8 11.5,1.3 1.5,0.3 6,0.8 4.5,1 8.5,3 9,1.5 5.3,1.3 3.5,0.3 6.5,0.3 5,-1 3.8,-0.8 5.3,-1.5 8.3,-3.8 4.5,-4 2,-1.8 6.5,-1 1.5,-0.8 10.8,-7 8,-4 8.3,-4.8 7.3,-3.8 2,-0.5 3.8,1.3 4.5,1 4.5,-1.5 6.3,-2 5,-2 1.3,-0.5 3.3,-2.8 6.3,-5.3 4,-3.3 7.5,-5.5 4,-2.3 5,-3.8 4.3,-0.3 4,-1.3 3,-1.5 1,0.8 2.3,2.5 2,1.5 0.8,5.7 z"
       inkscape:connector-curvature="0"
       class="DEP_09 ZON_03" /></g></svg>