<?xml version="1.0" encoding="UTF-8" standalone="no"?>
<!-- Generator: Adobe Illustrator 19.2.0, SVG Export Plug-In . SVG Version: 6.00 Build 0)  -->

<svg
   xmlns:dc="http://purl.org/dc/elements/1.1/"
   xmlns:cc="http://creativecommons.org/ns#"
   xmlns:rdf="http://www.w3.org/1999/02/22-rdf-syntax-ns#"
   xmlns:svg="http://www.w3.org/2000/svg"
   xmlns="http://www.w3.org/2000/svg"
   xmlns:sodipodi="http://sodipodi.sourceforge.net/DTD/sodipodi-0.dtd"
   xmlns:inkscape="http://www.inkscape.org/namespaces/inkscape"
   version="1.1"
   id="SvgMunicipio"
   x="0px"
   y="0px"
   viewBox="0 0 500.9 1000"
   style="enable-background:new 0 0 500.9 1000;"
   xml:space="preserve"
   inkscape:version="0.91 r13725"
   sodipodi:docname="MUN_ID1011.svg"><metadata
     id="metadata10"><rdf:RDF><cc:Work
         rdf:about=""><dc:format>image/svg+xml</dc:format><dc:type
           rdf:resource="http://purl.org/dc/dcmitype/StillImage" /></cc:Work></rdf:RDF></metadata><defs
     id="defs8" /><sodipodi:namedview
     pagecolor="#ffffff"
     bordercolor="#666666"
     borderopacity="1"
     objecttolerance="10"
     gridtolerance="10"
     guidetolerance="10"
     inkscape:pageopacity="0"
     inkscape:pageshadow="2"
     inkscape:window-width="682"
     inkscape:window-height="480"
     id="namedview6"
     showgrid="false"
     inkscape:zoom="0.236"
     inkscape:cx="286.46695"
     inkscape:cy="463.98305"
     inkscape:window-x="0"
     inkscape:window-y="0"
     inkscape:window-maximized="0"
     inkscape:current-layer="svg" /><g
     id="g3"><path
       id="MUN_1011"
       d="m 100.4,76.7 -0.7,1.1 1.6,-0.8 1.6,-0.8 1.3,1.9 0.4,0.6 1,1.4 1,1.4 0.2,0.4 0.2,0.4 0.1,0.4 0.7,0.4 0.7,0.4 0.1,0.4 0.1,0.4 0.3,0.5 0.5,0.3 0.3,0.4 0.7,0.8 0.5,0.8 0.5,0.8 0.2,0.7 0.3,0.7 0.3,0.7 0,0.6 0.3,0.6 0.1,0.7 0.1,0.8 0.2,0.8 0.3,0.7 -0.1,0.7 -0.3,0.8 -1.1,1.3 -0.3,0.4 -0.4,0.4 -1,0.5 -0.4,0.5 0.2,0.8 0.4,0.9 -0.5,0.4 0.9,0.8 0.4,1.1 0.2,0.9 -0.1,0.8 0.1,0.4 0.5,1.1 0.1,0.7 0.9,0.9 0.1,0.3 0,0.2 0.1,0 0.9,1 0.2,0.4 -0.1,0.6 0.4,0.7 0.1,0.4 -0.1,0.5 0.2,0.7 -0.2,0.7 0.1,0.6 1,0.6 0.7,0.1 0.1,0.5 -0.1,0.7 0.3,1.9 0.9,1.4 0.1,0.9 -1,1.3 -0.3,1 -0.4,0.4 -0.5,0.7 0,0.6 -0.2,0.5 0.3,1.1 -0.1,0.6 0.5,0.4 0.2,0.9 1,1.2 0.1,0.6 0,0.9 -0.1,0.8 0.6,0.3 0.5,0 0.6,0.4 0.4,0.6 0.2,1.2 0.5,0.2 0.8,0.8 0,1 0.5,0.7 0.3,0.6 0.5,0.3 0.4,-0.1 0.4,0.2 0.4,0.6 0.1,0.8 0.1,0.7 0.6,0.9 0,1.9 0.1,0.7 0,0.8 0,0.8 0.2,0.7 0,0.4 0.4,0.7 0.4,0.7 0.1,0.5 1.3,0.9 0.2,0.7 0.3,0.4 0.3,0.4 0.1,0.8 0.6,0.8 0.1,1.2 -0.3,1.3 0.2,1 1,1.7 0.3,1.7 0.5,1.9 1,0.7 0.3,0.2 1.4,0.7 1.6,0.6 1.3,0 1.1,2 0.5,0.5 1.9,1.6 0.5,0 0.9,0 0.1,0.1 0.6,0.6 0.3,0.8 0.4,0.1 0.9,0.2 0.7,1.1 1.6,0.6 1,1.6 2.2,1.2 0.3,1.4 1.8,1.3 0.6,1.1 0.3,0.6 -0.2,1 0.3,0.8 -1,1.4 0.5,1 1.1,0.4 0.3,0.2 0.5,0.8 0.4,0.9 1.2,0.9 0.2,1.1 -0.1,1.1 0.7,0.3 1,0.1 0.5,0.5 0.7,-1.2 1.8,-3.5 3,-6.1 1.3,-2.8 0.5,-0.8 0.4,-0.8 0.5,-1 0.5,-1 1,-2 1.1,-1.2 1.1,-1.2 1,-1.1 1,-1 2.6,-2.7 0.3,0.2 0.1,1.6 -0.2,1.1 0.2,0.8 0.7,0.6 0,1 0,1 -0.7,0.7 0.1,1.1 -0.1,1.1 -0.5,1.2 0.6,1.1 0.7,0.3 0.5,0.7 -0.3,0.5 -1.4,0.2 -0.1,1 0.1,0.5 0.6,0.7 0.7,0.7 0.4,0.7 -0.7,1.1 0.5,0.9 0.2,0.9 0.9,1.6 0.7,0.8 0.4,0.4 0.7,0.1 0,0.5 -0.2,0.2 0.6,0.4 0.8,0.5 1,-0.2 0.5,-0.3 -0.3,-0.5 7.7,-3 1.6,2 0.1,0.1 0.1,-0.1 -0.1,-0.1 -2.1,-2.7 -1,-1.9 1.7,-0.6 2.2,-0.5 0.5,1.2 0,0.7 0.3,0.2 0.1,1.4 3.3,-1 0.7,-0.4 0,-0.2 -0.1,-0.2 -0.3,-1 -0.4,0 -0.1,-0.5 -1.3,-1.7 -1.3,-1.8 -1.2,-2.4 -0.7,-1.3 3.3,-2.3 1.9,-1.4 0,-0.2 1.6,-0.8 1.3,-0.8 0.6,0.1 0.5,-0.2 1.8,-1.2 0.2,-0.1 2.4,-1.4 2.4,-1.4 0.4,0.8 0.3,0.4 0.2,0.1 0.1,0.1 0,0.4 0.2,0.3 0.3,0.1 0.8,-0.8 0.5,-0.3 1.1,0 0,0 0.1,-2.1 0.1,-0.9 0.1,-1.3 0,-0.6 -0.1,-1.3 0,-0.4 -0.1,-0.6 -0.1,-0.6 0,-0.8 -0.1,-1 -0.1,-0.8 -0.1,-0.8 -0.1,-0.8 -0.1,-1.3 0,-0.8 0,-1.3 0,-0.7 -0.1,-0.9 0,-0.7 0.1,-1.9 0.2,-1.5 0.1,-1.4 0.2,-1.5 0.3,-1.8 0.3,-2 0.2,-1.1 0.1,-1.1 -0.1,-1.6 -0.1,-0.8 -0.3,-1 -0.1,-0.2 -0.3,-0.6 -0.7,-0.8 -0.8,-0.8 -0.6,-0.8 -0.2,-0.6 0,-0.3 0.1,0.1 0.4,0.4 0.4,0.4 0.4,0.4 0.1,0.1 0.8,0.3 0.4,0.8 0.4,0.2 0.7,0.4 0.9,0.4 0.5,0.1 0.5,0.1 0.4,0.1 0.5,0.1 0.5,0.2 0.2,0.1 0.2,0.3 0.2,0.6 0.1,0.2 0.3,0.3 0.4,0.4 0.2,0.1 0.4,0.1 0.4,-0.1 0.4,-0.1 0.6,-0.4 0.6,-0.1 0.6,0.2 0.4,0.5 0,0.1 0.1,0.9 -0.2,0.6 0,0.7 0.8,0.2 1.3,-0.3 1.3,-0.6 0.1,0 1,0.5 0.5,0.5 0.3,0.6 0,0.7 0.1,0.8 0.1,0.6 1.4,-0.4 1,-0.2 1.4,0.2 0.4,0.2 0.7,0.3 1.2,0.1 0.6,0.4 0.5,0.7 0.4,0.1 0.4,-0.3 0.8,-1.2 0.4,-0.1 0.5,0.1 0.8,0.3 0.7,-0.1 0.5,0.1 0.7,0.3 1,1.4 0.6,0.1 0.8,-0.1 0.4,0.1 0.2,0.5 0,0.8 -1.1,1.3 -0.2,0.3 0,0.7 0.4,1.4 0.6,0.8 0.5,0.4 1.4,0.9 0.5,0 1.5,-0.6 0.6,0 0.5,0.1 0.5,0 0.4,0.5 0.3,0.2 0.9,0.3 0.2,0.1 0.4,0.3 0.8,0.6 0.4,0.9 0.3,1 0.1,0.6 0.1,0.5 0.3,0.3 1.3,1 1.3,0.7 0.4,0.4 0.9,1.1 0.7,1 0.7,0.9 0.7,0.5 1,0.8 1,0.8 0.1,0.6 0,0.6 -0.4,0.8 -0.7,0.6 -1.5,0.6 -0.8,0.1 -0.6,0.8 -0.1,0.6 0.1,0.4 0.2,0.4 0.1,0.5 0.2,0.7 0.6,1.2 0.3,0.9 0.1,0.6 0.8,1.2 1.2,1.7 0.2,0.5 0.2,0.4 -0.1,0.9 -0.1,0.2 -0.7,0.5 -1.1,1.1 -0.3,0.6 -0.1,0.4 -0.2,0.1 -0.7,0.6 0.1,1.4 0.4,1 0.5,1 6.3,-1.1 13.5,-1.7 -0.1,2 0.3,2.9 0.2,0.5 0.1,0.4 0.3,0.1 0.8,0.4 0.6,-0.3 0.7,-0.5 1.5,-0.4 0.7,0 0.8,0.3 1,1 1.3,1.2 1.1,0.6 0.6,0.4 0.8,0.3 1.8,0.4 1,0.5 0.5,0.1 0.7,0.6 1.7,1.1 0.8,-0.2 1.4,0.4 0.8,0.7 1.5,0.6 2,1 1.5,0.5 3.9,1.2 0.5,-0.2 3.1,-1.7 3.8,0.4 1.8,0.5 1.2,1.1 1,1.7 0.1,1.3 -0.4,2.5 0.7,0.8 0.2,1.3 0.9,3.9 0.7,0.7 1.6,0.2 0.1,0 1.5,0.4 0.1,0.7 0.1,0.6 0.1,0.8 0,0.6 1,0.7 1.6,-0.4 1.8,0.9 0.8,0.4 2.3,1.6 0.8,0.6 0.7,0.6 1,-0.3 0.9,-0.9 0.3,-0.3 0.4,-0.2 1.1,1.2 0.5,2.6 0,0.4 0.8,2.6 0.7,0.4 0.5,0.4 2.4,-0.6 1.7,0.1 1.6,0.7 0.4,1.2 0.2,0.8 0.8,2.1 0.4,1.3 -0.1,1.6 -0.2,0.3 1,0.7 1.1,-0.1 0,-0.9 0.3,-0.9 0.7,-0.5 0.2,-0.1 0.9,-0.1 2.3,1.9 1,0.8 1.4,1.1 1.2,1 1.4,1.3 0.9,0.7 0.6,0.5 0.8,0.7 0.8,0.6 0,0 1.3,1.4 1,1.2 0.7,0.8 0.3,0.4 0.4,1 0.7,1.7 -0.6,0.6 -1.9,1.1 -3.6,2.1 -0.9,1.4 0.4,1.9 1.6,1.8 0.6,0.4 1.2,0.4 1.3,0.4 1.1,2.3 0.9,2.2 3.9,0.5 0.3,1 -2.1,1.5 -1.1,1.5 0.7,0.9 1.3,1.4 0.7,0.7 0.4,0.9 0.6,1.5 0.3,2.3 0.1,1.8 0.1,3.3 -0.1,2.8 -0.2,1 -0.4,1.8 -0.1,0.5 -0.5,0.9 0.3,0.6 1.2,0.4 3.1,-0.1 1.8,2.2 0.3,2 0.2,0.9 0.8,2.4 -0.2,0.6 -0.2,0.2 -0.6,0.3 -0.7,0.7 -0.1,0.6 0.1,0.7 0.5,1.2 0.4,0.8 1,0.2 0.5,-0.4 1.7,-0.1 1.1,0 1,0.7 0.6,0.7 -0.1,0.6 -0.5,0.6 -1.1,1.5 -0.5,0.5 -0.7,1.1 -1,1.4 -0.1,0.1 -0.6,0.7 -0.4,0.4 -0.7,1.5 -1.7,1.8 -1.1,1 -0.2,0.7 0.5,1.7 0.9,3.3 0.2,0.3 1.1,0.7 1.8,0.7 1,0.4 1.8,1.6 2.1,0.5 0.6,-0.2 0.5,-0.2 2.2,-0.5 1.7,-0.1 1.5,0.7 1.9,1.6 0.2,0.6 0.7,1.7 -0.1,1.8 -0.6,1.4 0,0.5 0.6,0.5 1.6,1.8 0,1.3 0.6,1.5 2.2,3.1 1.6,1.9 0.5,1.1 0.1,0.7 -0.2,2.5 0.5,1.6 1.2,1.3 0.7,0.3 2.9,1.5 3.6,1.4 2.6,0.1 1.7,1.2 0.1,1.3 -2.3,1.1 -1.3,0.7 -0.4,1 -0.5,2.3 -0.2,1.5 1,1.8 1.3,1.1 1.9,1.1 2.2,0.7 0.8,0.7 1,1.6 0.3,0.7 59,16.1 23.5,6.4 -0.3,2.3 0,3.2 -0.7,5.2 -0.5,3 -0.7,2.5 -0.1,0.4 -1.4,3.7 -1.6,3.2 -1.3,2.3 -3.3,4.2 -7.3,3.1 -6.8,3.1 -3.1,1.8 -3,2 -2.5,1.3 -1.2,0.9 -1.5,1 -4.3,4.4 -0.5,1.3 -1.9,5.3 -0.3,6 -0.3,5.1 -1.3,5.5 -1,6.8 -0.5,4.6 -0.1,2.2 -0.1,2.1 0.4,4.5 -0.1,2.5 0,2 -0.1,1.6 -0.4,2.3 -0.3,1 -1.3,4.5 -2.1,4.8 -2.7,5.9 -3.7,5.2 -9.9,7.1 -2.3,1.1 -6.3,4.9 -4.6,5 -3,2.5 -3.1,2.5 -3.2,1.7 -5.1,2.2 -6.8,6.7 -3,4.8 -1.9,4 -3.1,3.2 -2.2,4.5 -3.3,4.5 -3.9,8.5 0,3.4 0.1,0.6 0.3,0.8 0.1,0.8 -0.1,0.8 -0.4,1.5 -1.6,5.3 -1.3,5.1 -0.3,1.9 0.8,2.1 -0.2,2 -0.6,3.2 -0.1,5.4 -1.7,3 -0.1,1.9 -0.1,0.4 -0.9,1.7 -1.4,2.5 -0.9,2.3 -1,1.9 -1.9,2.8 -2.7,6.1 -0.9,1.5 -1,1.6 -1.5,1.7 -1,1 -1,2.3 -1.8,0.6 -2.1,1.7 -3.1,4.4 -2.2,5.3 -1.1,5.3 0.3,2.2 0.6,1.8 -1.1,3.9 -0.3,4.7 -0.6,8.9 -0.2,4.7 0.2,5.9 0.1,3.6 0,5 -0.1,4.6 0.2,2.2 1,2.7 1.6,3.1 2.8,4.1 2.1,5.4 2.1,3.4 2.3,2.4 3.7,5.2 3.4,4.2 2.1,2.9 1.6,1.7 1.9,2.8 0.8,2.5 0.8,2.6 0.5,2.3 0.3,0.5 0,0.8 -0.1,1.8 -0.8,2.3 -0.9,2.6 -1,1.7 -2.1,2.5 -3,3.3 -1.6,1.6 -2.1,2.8 -2.5,2.2 -2.1,1.8 -1.7,1.5 -4,2 -2.8,0.5 -4.5,1.3 -2.9,0.7 -1.9,0.8 -2.9,1.2 -4.6,0.7 -3.5,1.8 -3.2,1.9 -3.3,1.6 -1.5,1.9 -2.7,0.7 -2.6,2.1 -3.8,2.9 -2.5,1.9 -4.1,6.1 -1.3,7.4 -2.2,6.1 -1.5,2.3 -1.3,1.9 -4.1,3.7 -5.3,8.4 -3.1,5.1 -5.5,5.4 -3.8,1.5 -8,4.4 -2.8,3.3 -7.2,5.2 -5.7,6.1 -0.4,1 -0.5,1.6 -0.2,1.1 -0.8,0.9 -0.4,2.9 -0.7,2 -1.4,2.4 -1.2,3.5 -2.5,7.8 -5.5,4.8 -8.2,3.2 -3.1,0.9 -4.1,0.7 -1,0 -1.8,0.4 -1.9,0.6 -7,0.1 -4.2,1.7 -2.2,0.9 -3.2,1.2 -3.8,2.2 -3.1,3.4 -2,1.6 -3.3,3.5 -4.5,1.7 -4.4,3.1 -4,2.8 -0.1,0.1 -3.2,5.7 -3,2.7 -3.4,3.3 -6.3,3.5 -5.4,1.7 -3.2,0.6 -3.9,0.9 -4.6,3.5 -5,4.5 -9,6.6 -5.6,4.2 -0.9,0.5 -2.2,2.2 -3.5,3.1 -3.3,3.4 -1.6,2.5 -1.5,2.4 -0.9,2.1 -0.2,0.8 0,3.7 0.7,6.5 1.1,5.1 3.2,9.7 2.4,7 1.7,5 0.3,2.7 0.8,6.7 -7.4,-2.7 -8,6.5 -15.2,-9.8 -32.7,-21 -1,-0.6 -2.4,-1.3 -4.9,-3.2 -1.7,-1.1 -2.1,-1.4 -12.5,-7.5 -10.9,-6.5 -4.4,-2.6 -4.3,-2.6 -5.4,-3.1 -4.2,-2.5 -5.3,-2.9 -4.1,-2 0.4,-1.8 0.1,-0.3 0,-0.1 0,-0.2 0,-0.3 0,-0.1 0,-0.1 0,-0.1 0,-0.1 0,-0.1 0,-0.1 0,-0.1 0.1,0 0,-0.1 0.1,-0.1 0,-0.1 0,-0.1 0,-0.1 0,-0.1 0,-0.1 0,-0.1 0.1,-0.1 0.1,-0.1 0.1,0 0.1,0 0.1,0 0.1,0 0.1,0 0.1,0.1 0.1,0.1 0.1,0.1 0,0.1 0,0.1 0,0.1 0,0.1 0,0.1 0.1,0.1 0.4,0.5 0.1,0.1 0.1,0.1 0.1,0 0.1,0 0.1,0 0.1,0 0.1,0 0.2,-0.1 0.1,-0.1 0.1,-0.1 0.1,-0.1 0.1,0 0.1,0 0.1,0 0,0 0.1,0 0,0.1 0.3,0.1 0.1,0 0.1,0 0,0 0.1,0 0.1,0 0.1,-0.1 0.1,-0.1 0.1,-0.1 0.1,0 0.1,0 0.1,0 0.1,0 0.1,0 0,0.1 0,0.1 0.1,0.3 0,0.1 0.1,0.1 0.1,0.1 0.1,0.1 0.4,0.3 0.2,0.2 0.1,0 0.1,0 0.2,0 0.2,-0.1 0.1,0 0.1,0 0.2,0 -0.3,0.2 0.2,0.1 0.2,0.1 0.3,0.2 0.5,0.3 0.5,0.4 0.3,0.2 0.3,0.2 0.3,0.2 0.3,0.1 0.3,0.1 0.2,0 0.2,0 0.3,0 0.4,0 0.4,0.1 0.4,0.1 0.4,0.1 0.6,0.1 0.7,0.2 0.7,0.3 0.7,0.3 0.7,0.4 0.7,0.4 1.1,0.5 0.8,0.2 0.9,0.2 1,0.1 0.5,0 0.5,-0.1 0.5,-0.1 0.4,-0.1 0.4,-0.1 0.7,-0.1 1.8,0 0.8,-0.1 0.8,-0.2 0.6,-0.2 0.9,-0.3 0.3,0 0.3,0 0.4,0 0.4,0 1,0.1 1,0.2 1.1,0.3 0.7,0.3 1.3,0.9 1,0.9 1.1,1.3 0.4,0.5 0.5,0.6 0.7,0.8 0.6,0.7 0.4,0.5 0.6,0.8 0.4,0.6 0.3,0.5 0.3,0.2 0.1,0.7 -0.5,1 -0.7,0.7 0,0.6 0.1,0.6 0.9,1.1 0.6,0.5 0.8,0.8 0.4,0.3 0.9,1 1.1,1.2 1.4,1.5 0.4,0.4 0.3,0.3 0.4,0.3 0.2,0.1 0.3,0.2 0.4,0.3 0.6,0.5 0.7,0.5 0.5,0.3 0.5,0.1 0.6,0.1 0.5,0.3 0.6,0.3 0.5,0.4 1.1,0.7 0.6,0.3 0.8,0.3 0.4,0.1 0.4,0.1 0.3,0 0.4,0 0.5,-0.1 0.6,-0.1 0.7,-0.1 0.5,-0.1 0.3,-0.1 0.5,-0.2 0.5,-0.2 0.3,-0.1 0.3,-0.2 0.4,-0.2 0.9,-0.7 0.7,-0.5 -0.8,-1 -0.5,-0.7 -0.2,-0.4 -0.2,-0.5 -0.1,-0.4 0,-0.3 0.1,-1.2 0.1,-1 0.1,-0.5 0.1,-0.8 0,-0.5 0.1,-0.5 0.1,-0.7 0.1,-0.4 0,-0.4 0,-0.6 -0.1,-0.6 0,-0.6 0,-0.7 -0.1,-0.6 -0.2,-0.5 -0.3,-0.6 -0.4,-0.7 -0.4,-0.7 -0.2,-0.5 -0.1,-0.6 -0.1,-0.7 -0.2,-0.8 -0.2,-0.5 -0.4,-1.2 -0.6,-1.6 -0.6,-1.4 -0.7,-1.6 -0.3,-0.7 -0.2,-0.4 -0.1,-0.3 0.3,-0.2 0.3,-0.3 0.5,-0.2 0.7,-0.1 0.9,0 0.9,0 1,0 0.6,0 0.7,-0.1 1,-0.2 1.2,-0.3 0.6,-0.1 0.5,-0.3 0.5,-0.4 0.3,-0.4 0.3,-0.5 0.3,-0.7 0.3,-0.6 0.1,-1 0,-0.6 0,-0.7 -0.1,-0.9 -0.2,-1 -0.2,-0.9 -0.3,-1 -0.3,-0.7 -0.4,-0.8 -0.6,-1 -0.6,-1 -0.5,-0.9 -0.6,-1 -0.6,-1.4 -0.2,-0.8 -0.2,-0.8 -0.2,-0.8 -0.1,-0.8 0,-0.7 0.1,-0.7 0.2,-1 0.1,-0.6 0.3,-0.7 0.4,-0.6 0.6,-0.6 0.3,-0.4 0.3,-0.2 0.3,-0.1 0.3,-0.1 0.6,0.1 0.4,0.1 0.5,0.3 0.5,0.1 0.5,0.1 0.6,0 0.8,0.1 0.7,0 0.6,-0.1 0.6,-0.2 0.4,-0.2 0.2,-0.1 0.2,-0.3 0.1,-0.3 0.1,-0.4 0,-0.5 0,-1 0,-0.9 -0.1,-0.5 -0.2,-0.8 -0.2,-0.5 -0.2,-0.4 -0.3,-0.3 -0.4,-0.4 -0.4,-0.2 -0.8,-0.5 -0.8,-0.5 -0.4,-0.4 -0.6,-0.4 -0.1,-0.2 -0.2,-0.2 -0.2,-0.2 -0.1,-0.3 0,-0.3 0,-0.4 0.1,-0.4 0.1,-0.3 0.2,-0.4 0.3,-0.4 0.3,-0.4 0.3,-0.4 0.2,-0.4 0.2,-0.4 0.1,-0.4 0.1,-0.3 0.2,-0.5 0,-0.3 0,-0.3 0,-0.3 -0.1,-0.4 -0.2,-0.8 -0.2,-0.6 -0.3,-1.1 -0.1,-0.3 -0.1,-0.4 0,-0.4 0,-0.3 0.1,-0.4 0.1,-0.4 0.1,-0.4 0.2,-0.5 0.3,-0.5 0.3,-0.5 0.4,-0.5 0.8,-1 0.7,-0.6 0.7,-0.4 0.8,-0.4 1.2,-0.4 0.6,-0.1 0.5,-0.1 0.8,-0.2 0.6,-0.2 1,-0.4 0.8,-0.4 1.1,-0.5 0.8,-0.4 1,-0.7 0.7,-0.7 0.6,-0.7 0.4,-0.7 0.5,-0.9 0.4,-1 0.3,-0.8 0.2,-0.6 0.4,-0.8 0.7,-1.1 0.7,-1.1 0.4,-0.9 0.3,-1 0.1,-0.5 0.1,-0.6 0.2,-0.6 0.4,-0.9 0.5,-0.9 0.5,-0.7 0.5,-0.4 0.3,-0.1 0.3,-0.1 0.3,-0.1 0.4,-0.3 0.4,-0.3 0.3,-0.4 0.2,-0.4 0.2,-0.5 0.1,-0.5 0.1,-0.4 -0.2,-0.4 -0.3,-0.4 -0.4,-0.6 -0.4,-0.7 -0.6,-0.7 -0.6,-0.6 -0.4,-0.3 -0.4,-0.5 -0.2,-0.5 -0.1,-0.5 -0.1,-0.5 -0.1,-0.5 -0.2,-0.5 -0.1,-0.2 -0.4,-0.4 -0.2,-0.3 -0.3,-0.4 -0.2,-0.4 -0.1,-0.5 0,-0.3 0,-0.4 0,-0.5 0.3,-0.9 0.3,-0.7 0.4,-0.7 0.5,-0.8 0.5,-0.6 1,-0.8 1.7,-1.3 0.7,-0.6 0.9,-0.8 1,-0.8 0.7,-0.6 0.9,-0.6 0.8,-0.5 1.1,-0.7 0.3,-0.2 0.4,-0.3 0.4,-0.4 0.2,-0.4 0.4,-0.7 0.2,-0.3 0.2,-0.2 0.2,-0.2 0.1,-0.1 0.2,-0.1 0.2,-0.1 0.3,0 0.2,0 0.2,0 0.3,0 0.1,-0.1 0.4,-0.2 0.2,-0.2 0.1,-0.2 0.2,-0.2 0.2,-0.3 0.2,-0.1 0.2,-0.1 0.2,-0.1 0.4,-0.1 0.5,-0.1 0.4,-0.1 0.2,-0.1 0.1,-0.1 0.1,-0.1 0.1,-0.1 0.1,-0.1 0.1,-0.3 0.1,-0.1 0.1,-0.1 0.2,-0.1 0.2,-0.1 0.2,-0.1 0.3,0 0.1,0 0.2,0.1 0.1,0 0.1,0.1 0.1,0 0.1,0 0.1,0 0.1,0 0.2,-0.1 0.1,-0.1 0.2,-0.2 0.5,-0.5 0.3,-0.2 0.2,-0.2 0.2,-0.1 0.1,-0.1 0.2,-0.1 0.2,-0.1 0.2,-0.1 0.2,0 0.2,0 0.2,0 0.1,0 0,0 0.1,-0.1 0.1,-0.2 0.1,-0.3 0.1,-0.4 0.1,-0.5 0.1,-0.5 0.1,-0.2 0,-0.1 0,-0.1 0,-0.1 0.1,-0.1 0.1,-0.2 0.1,-0.2 0.1,-0.2 0.1,-0.2 0.1,-0.2 0.1,-0.2 0.1,-0.3 0.1,-0.2 0,-0.2 0,-0.3 0,-0.4 0,-0.4 0,-0.1 0,-0.2 0,-0.2 0,-0.2 0.1,-0.2 0.1,-0.1 0.1,-0.1 0.1,-0.1 0,-0.2 0,-0.2 0,-0.4 0,-0.4 0,-0.4 0,-0.3 0,-0.2 0.1,-0.3 0.1,-0.4 0.1,-0.3 0.2,-0.3 0.1,-0.1 0.1,-0.1 0.1,-0.1 0.1,0 0.1,0 0.2,0 0.2,0 0.2,0 0.1,0 0.1,0 0.1,0 0.1,0 0.1,0 0.2,0 0.2,0 0.2,-0.1 0.2,-0.1 0.2,-0.1 0.1,-0.1 0.2,0 0.2,0 0.2,0 0.2,0 0.2,0.1 0.2,0.1 0.2,0.1 0.3,0.1 0.2,0.1 0,-0.1 0,-0.1 0.1,-0.1 0.1,-0.1 0.1,-0.1 0.1,-0.1 0.1,-0.1 0.1,-0.1 0.1,-0.1 0,-0.1 0,-0.2 0,-0.1 -0.1,-0.2 0.4,-1.1 -0.1,-0.1 0,-0.1 0,-0.1 0.1,-0.1 0.1,-0.1 0.1,-0.1 0.1,-0.1 0.1,-0.1 0.1,-0.2 0.1,-0.2 0.2,-0.7 0.1,-0.4 0.1,-0.3 0.1,-0.4 0,-0.2 0,-0.2 0,-0.3 0,-0.2 0,-0.2 0,-0.2 0.1,-0.1 0.1,-0.1 0.1,-0.1 0.1,-0.1 0.3,-0.3 0.5,-0.6 0.7,-0.6 0.3,-0.2 0.2,-0.2 0.3,-0.2 0.2,-0.1 0.2,-0.1 0.2,-0.1 0.4,-0.1 0.1,0 0.3,0.1 0.2,0.1 0.2,0.2 0.2,0.2 0.3,0.1 0.2,0.1 0.2,0.1 0.2,0.1 0.1,0 0.1,0 0.2,-0.1 0.2,-0.1 0.3,-0.1 0.4,-0.1 0.4,-0.1 0.6,-0.2 0.6,-0.1 0.6,-0.2 0.3,-0.1 0.3,-0.1 0.1,-0.1 0.1,0 0.2,0 0.2,0 1.2,0.5 1.4,0.5 0.5,0.1 0.3,0.1 0.2,0.1 0.2,0.2 0.1,0.2 0.3,0.2 0.2,0.2 0.1,0.1 0.2,0.1 0.2,0 0.2,0 0.2,0 0.2,0 0.1,-0.1 0.1,-0.1 0.2,-0.1 0.1,-0.1 0.1,-0.1 0.1,-0.1 0.2,0 0.2,0.1 0.2,0 0.2,0 0.2,-0.1 0.1,-0.1 0.2,-0.1 0.3,-0.1 0.3,0 0.5,-0.1 0.4,0 0.4,0 0.3,0 0.3,0 0.7,0.1 0.5,0.1 0.9,0.3 0.5,0.1 1.7,0.5 0.3,-0.2 0.3,-0.1 0.4,-0.1 0.8,-0.2 1.1,-0.2 1.2,-0.3 0.4,-0.1 0.4,-0.2 0.3,-0.2 0.9,-0.4 0.7,-0.2 0.7,-0.2 0.4,-0.1 0.3,-0.1 0.2,-0.1 0.2,-0.1 0.2,-0.3 0.2,-0.2 0.2,-0.4 0.2,-0.4 0.2,-0.4 0.2,-0.4 0.1,-0.2 0,-0.1 0,-0.2 0,-0.3 0,-0.3 0,-0.3 0.1,-0.4 0.1,-0.3 0.1,-0.3 0,-0.3 0,-0.2 0,-0.2 -0.1,-0.3 0,-0.1 0,-0.2 0.1,-0.1 0.1,-0.2 0.2,-0.2 0.2,-0.2 0.3,-0.2 0.3,-0.2 0.2,-0.1 0.1,-0.1 0.2,-0.2 0.1,-0.1 0.1,-0.1 0.2,-0.1 0.2,-0.1 0.2,-0.1 0.1,-0.1 0.1,-0.1 0.1,-0.2 0,-0.2 0,-0.3 0,-0.2 0.1,-0.1 0.2,-0.1 0.1,-0.1 0.2,-0.1 0.2,0 0.2,0.1 0.2,0.1 0.1,0.2 0.2,0.1 0.1,0.1 0.2,0.1 0.1,0 0.2,0 0.2,0 0.2,-0.1 0.2,-0.1 0.2,-0.1 0.2,-0.1 0.1,-0.3 0.2,-0.3 0.1,-0.1 0.2,-0.1 0.2,-0.1 0.6,-0.3 0.4,-0.2 0.2,-0.1 0.1,-0.1 0.2,-0.2 0.2,-0.2 0.2,-0.1 0.1,-0.1 0.2,-0.1 0.2,-0.1 0.4,-0.1 0.3,-0.2 0.4,-0.3 0.4,-0.3 0.2,-0.2 0.2,-0.2 0.3,-0.2 0.2,-0.2 0.2,-0.2 0.2,-0.3 0.1,-0.2 0.2,-0.3 0.2,-0.4 0.1,-0.2 0.2,-0.2 0.2,-0.2 0.2,-0.3 0.2,-0.3 0.1,-0.3 0.1,-0.3 0.1,-0.3 0.1,-0.2 0.2,-0.3 0.3,-0.2 0.2,-0.1 0.2,-0.1 0.2,-0.1 0.2,-0.1 0.2,-0.1 0.1,-0.1 0.2,-0.1 0.2,-0.3 0,-0.1 0.1,-0.4 0.1,-0.3 0.1,-0.2 0.2,-0.2 0.1,-0.3 0.1,-0.2 0.1,-0.2 0.1,-0.2 0.1,-0.1 0.1,-0.1 0.1,-0.1 0.1,-0.1 0.1,-0.1 0.1,-0.1 0.2,-0.1 0.1,-0.1 0.1,-0.1 0,-0.1 0,-0.1 0,-0.1 0,-0.1 -0.1,-0.1 -0.1,-0.1 -0.1,-0.1 -0.1,-0.1 -0.1,-0.1 -0.1,-0.1 0,-0.1 0,-0.1 0,-0.1 0.1,-0.1 0,-0.1 0.1,-0.1 0.1,0 0.1,0 0.1,0 0.1,0 0.2,0 0.2,0 0.1,0 0.1,0 0.1,0 0.1,0 0.2,0 0.1,0 0.2,-0.1 0.1,-0.1 0.1,-0.1 0.2,-0.1 0.1,-0.1 0.1,-0.1 0.1,-0.1 0.1,-0.1 0.1,0 0.1,0 0.1,0 0.1,-0.1 0.1,-0.1 0.1,0 0.1,0 0.1,0 0.1,0 0.1,0 0.1,0 0.1,-0.1 0.2,-0.1 0.2,-0.1 0.1,-0.1 0.1,-0.1 0,-0.1 0,-0.1 0,-0.1 0,-0.1 -0.1,-0.1 -0.1,-0.2 -0.1,-0.1 -0.1,-0.1 -0.1,-0.1 -0.1,-0.1 0,-0.1 0,-0.1 -0.1,-0.1 0,-0.1 0,-0.1 0,-0.1 0.1,-0.2 0.1,-0.2 0.1,-0.1 0.1,-0.2 0.1,-0.4 0.1,-0.2 0,-0.2 0,-0.1 0.1,-0.3 0.1,-0.5 0.1,-0.5 0,-0.5 0,-0.4 0,-0.3 -0.1,-0.3 0,-0.1 0,-0.2 0,-0.2 0,-0.2 0.1,-0.2 0.1,-0.3 0.1,-0.2 0,-0.1 0.1,-0.2 0,-0.2 0,-0.2 0,-0.1 1.2,-1.4 -0.1,-0.1 -0.1,-0.1 -0.1,-0.1 -0.1,-0.1 -0.1,-0.1 -0.1,-0.1 0,-0.1 0,-0.3 0,-0.1 0,-0.5 -0.1,-0.4 -0.1,-0.4 -0.1,-0.5 -0.1,-0.7 -0.1,-0.3 -0.1,-0.2 -0.1,-0.1 -0.1,-0.2 -0.1,-0.2 -0.1,-0.1 -0.1,-0.1 -0.1,-0.1 -0.1,-0.2 -0.1,-0.1 -0.1,-0.1 -0.1,-0.1 -0.1,-0.1 0,-0.1 0,-0.1 0,-0.1 0,-0.1 0,0 0,-0.1 -0.1,-0.2 -0.1,-0.2 -0.1,-0.2 -0.1,-0.3 -0.1,-0.2 -0.1,-0.1 -0.1,-0.1 -0.1,-0.1 -0.2,-0.2 -0.2,-0.2 -0.1,-0.2 -0.1,-0.1 -0.1,-0.2 -0.1,-0.2 -0.1,-0.2 0,-0.3 0,-0.3 0,-0.2 0,-0.2 0,-0.1 0.1,-0.2 0.1,-0.1 0.1,-0.1 0.1,-0.2 0.1,-0.1 0.1,-0.2 0.1,-0.1 0,-0.1 0,-0.1 0,-0.1 -0.1,-0.2 -0.1,-0.1 -0.1,-0.1 -0.1,-0.1 -0.1,-0.1 -0.2,-0.1 -0.3,-0.1 -0.3,0 -0.2,-0.1 -0.2,-0.1 -0.2,-0.1 -0.2,0 -0.1,0 -0.2,0 -0.1,0 -0.2,0.1 -0.3,0.2 -0.1,0.1 -0.2,0.1 -0.1,0.1 -0.1,0 -0.2,0 -0.2,-0.1 -0.1,-0.1 -0.1,-0.1 -0.1,-0.1 -0.1,-0.1 -0.1,-0.1 0,0 -0.1,0 -0.1,-0.1 -0.1,0 0,0 -0.1,-0.1 0,-0.1 0,-0.1 -0.1,-0.1 -0.1,-0.1 -0.2,-0.2 -0.3,-0.2 -0.2,-0.2 -0.2,-0.1 -0.2,-0.2 -0.3,-0.1 -0.2,-0.1 -0.2,-0.1 -0.2,-0.1 -0.3,-0.2 -0.3,-0.2 -0.1,-0.2 -0.1,-0.1 -0.1,-0.1 0,-0.1 -0.1,-0.1 0,-0.1 -0.1,-0.1 -0.1,-0.1 -0.1,-0.1 -0.1,-0.1 0,-0.1 -0.1,-0.1 0,-0.1 -0.1,-0.1 -0.1,-0.1 -0.1,-0.1 -0.1,-0.1 -0.1,-0.1 -0.2,-0.2 -0.1,-0.2 -0.1,-0.2 -0.1,-0.2 -0.1,-0.2 -0.1,-0.2 -0.1,-0.1 -0.1,-0.2 -0.2,-0.3 -0.2,-0.3 -0.2,-0.2 -0.2,-0.1 -0.3,-0.2 -0.3,-0.1 -0.4,-0.1 -0.3,-0.1 -0.3,0 -0.2,-0.1 -0.4,-0.1 -0.1,-0.1 -0.1,0 -0.2,0 -0.1,-0.1 -0.2,-0.1 -0.1,-0.1 -0.1,0 0,-0.1 -0.1,0 -0.1,-0.1 -0.1,-0.1 -0.1,-0.2 -0.1,-0.2 -0.3,-0.4 -0.1,-0.2 -0.1,-0.1 -0.1,-0.1 -0.1,-0.1 -0.1,-0.1 -0.2,-0.2 -0.2,-0.1 -0.3,-0.2 -0.3,-0.1 -0.1,-0.1 -0.4,-0.2 -0.3,-0.2 -0.4,-0.2 -0.3,-0.2 -0.2,-0.1 -0.1,-0.2 -0.1,-0.1 -0.1,-0.1 0,-0.1 0,-0.1 0,-0.1 0,-0.1 0,0 0,-0.1 0,-0.1 0,-0.1 0,-0.1 0,-0.1 0,-0.1 0,-0.1 -0.1,-0.1 0,-0.1 -0.1,-0.1 -0.1,-0.1 -0.1,-0.1 -0.1,-0.1 -0.3,-0.2 -0.3,-0.3 -0.3,-0.4 -0.3,-0.4 -0.3,-0.4 -0.2,-0.4 -0.2,-0.4 -0.2,-0.3 -0.3,-0.3 -0.4,-0.2 -0.4,-0.3 -0.2,-0.2 -0.7,-0.5 -0.4,-0.4 -0.6,-0.6 -0.4,-0.3 -0.2,-0.1 -0.1,-0.2 -0.1,-0.1 -0.1,-0.1 -0.2,-0.1 -0.3,-0.3 -0.2,-0.2 -0.2,-0.2 -0.3,-0.2 -0.3,-0.2 -0.1,-0.1 -0.2,-0.1 -0.2,-0.1 -0.2,-0.2 -0.1,-0.1 0.2,-0.8 -0.2,-0.1 -0.2,-0.1 -0.1,-0.1 -0.1,-0.1 -0.1,-0.1 -0.1,-0.1 -0.2,-0.2 -0.3,-0.2 -0.2,-0.2 -0.1,0 -0.1,0 -0.1,-0.1 -0.1,-0.1 -0.2,-0.2 -0.3,-0.2 -0.2,-0.2 -0.2,-0.2 -0.1,-0.2 -0.1,-0.1 -0.3,-0.4 -0.4,-0.5 -0.3,-0.4 -0.1,-0.1 -0.1,-0.1 -0.1,-0.1 -0.1,-0.1 -0.1,-0.1 -0.1,-0.1 -0.1,-0.1 -0.1,-0.2 -0.2,-0.3 0,-0.2 0,-0.1 0.1,-0.3 0.1,-0.2 0.1,-0.2 0.1,-0.2 0.1,-0.2 0,-0.2 -0.1,-0.1 -0.1,-0.2 -0.1,-0.2 -0.1,-0.1 -0.1,-0.2 -0.1,-0.2 -0.1,-0.1 -0.1,-0.2 0,-0.1 -0.1,-0.2 -0.1,-0.2 -0.1,-0.2 -0.2,-0.1 -0.1,-0.1 -0.1,-0.1 -0.1,-0.1 -0.1,-0.2 -0.1,-0.2 -0.1,-0.1 -0.1,-0.1 -0.1,-0.2 -0.1,-0.2 0,-0.2 0,-0.2 0,-0.3 0,-0.1 0,-0.2 0,-0.2 0,-0.1 0.1,-0.3 0.1,-0.2 0.1,-0.1 0.1,-0.3 0.1,-0.4 0.1,-0.1 0.1,-0.1 0.1,-0.1 0,-0.1 0.1,-0.1 0,-0.1 0.1,-0.1 0,-0.1 0,-0.1 0,-0.1 0,-0.1 -0.1,-0.1 -0.1,-0.1 -0.1,-0.1 -0.1,0 -0.1,0 -0.1,0 -0.1,0 -0.3,0 -0.2,0 -0.2,0 -0.1,0 -0.1,0 -0.1,0 -0.1,0 -0.1,0 -0.1,0 -0.1,0 -0.1,-0.1 -0.1,-0.1 -0.1,-0.2 -0.1,-0.1 -0.1,-0.1 0,-0.1 0,-0.1 0,-0.1 0.1,-0.1 0.1,-0.1 0.1,-0.1 0.1,-0.1 0.1,0 0.1,0 0,0 0.1,-0.1 0.1,-0.1 0.1,-0.1 0,-0.1 0,-0.1 0,-0.4 0,-0.2 0,-0.3 0,-0.3 0,-0.4 0,-0.3 0,-0.2 -0.1,-0.3 -0.1,-0.2 0,-0.2 0,-0.1 0,-0.1 0,-0.2 0,-0.2 0,-0.2 0.1,-0.1 0,-0.1 0,-0.1 0,-0.1 0,-0.1 0,-0.1 0,-0.1 0,-0.1 0,-0.1 0.1,0 0,-0.1 0,-0.1 0,0 0.1,-0.2 0.1,-0.2 0,-0.1 0.1,-0.1 0.1,-0.2 0.1,-0.2 0,-0.2 0.1,-0.4 0.1,-0.4 0,-0.5 0,-0.3 0,-0.2 0,-0.2 0,-0.1 0,-0.2 0.1,-0.1 0.1,-0.2 0.1,-0.1 0,-0.1 0,-0.2 0,-0.3 0,-0.3 0,-0.2 0,-0.3 0.1,-0.2 0,-0.2 0.1,-0.4 0.1,-0.4 0.1,-0.2 0.1,-0.2 0.1,-0.1 0.1,-0.1 0.1,-0.1 0.1,-0.1 0.1,-0.1 0.1,-0.1 0.1,-0.1 0.1,-0.2 0.1,-0.1 0.1,-0.3 0.1,-0.3 0.1,-0.4 0.1,-0.2 0.1,-0.2 0.1,-0.2 0.1,-0.1 0.1,-0.2 0.1,-0.1 0.3,-0.4 0.2,-0.4 0.2,-0.3 0.1,-0.3 0.1,-0.1 0.1,-0.2 0.1,-0.1 0.1,-0.2 0.2,-0.1 0.1,-0.2 0.1,-0.1 0.1,-0.2 0.1,-0.1 0.1,-0.1 0.1,-0.1 0.1,-0.1 0.1,-0.1 0.2,-0.2 0.1,-0.1 0.1,-0.2 0.1,-0.1 0.1,-0.1 0.1,-0.2 0.1,-0.3 0,-0.1 0,-0.2 0,-0.2 -0.1,-0.2 -0.1,-0.2 -0.1,-0.1 -0.1,-0.1 0,-0.1 0,-0.1 0,-0.1 0,-0.2 0,-0.3 0,-0.2 0,-0.2 0,-0.1 0,-0.1 0,-0.1 0,-0.1 0,-0.1 0.1,-0.1 0,-0.1 0,-0.1 0,-0.1 -0.1,-0.1 0,-0.1 0,-0.1 0,-0.1 0,-0.2 0.1,-0.2 0.2,-0.3 0.1,-0.2 0.1,-0.2 0.1,-0.3 0.1,-0.3 0.1,-0.4 0,-0.2 0,-0.4 -0.1,-0.2 0,-0.2 0,-0.1 0,-0.1 0.1,-0.2 0.1,-0.1 0.1,-0.2 0.1,-0.2 0.1,-0.3 0,-0.1 0,-0.2 0,-0.2 0,-0.2 0,-0.2 0,-0.5 0,-0.2 0.1,-0.1 0.1,-0.1 0.1,-0.1 0.1,-0.1 0.3,-0.2 0.2,-0.1 0.2,-0.1 0.2,0 0.1,0 0.1,0 0.1,0 0.1,0 0.2,-0.1 0.2,-0.1 0.3,-0.1 0.5,-0.1 0.4,-0.1 0.3,0 0.1,0 0.1,0 0.2,0 0.1,0 0.1,0 0.1,0 0.1,0 0.1,0 0.1,0 0.1,-0.1 0.1,-0.2 0.1,-0.1 0.1,-0.1 0.1,0 0.1,0 0.1,0 0.1,0.1 0.2,0.1 0.1,0.1 0.1,0.1 0.1,0.1 0.1,0 0.1,0 0,0 0.1,0 0.1,0 0.1,-0.1 0.1,-0.1 0,-0.1 0.1,-0.3 0,-0.1 0.1,-0.2 0.1,-0.2 0.1,-0.2 0.1,-0.2 0.1,-0.1 0.1,-0.1 0.1,-0.1 0.1,-0.1 0.1,-0.1 0.1,-0.1 0.1,0 0.2,0 0.2,0 0.2,0.1 0.5,0.2 0.3,0.1 0.2,0.1 0.1,0.1 0.1,0.1 0,0 0.1,0.1 0.1,0.1 0.1,0 0.2,0 0.1,0 0.1,-0.1 0.1,-0.1 0.1,-0.1 0.1,-0.1 0.1,-0.1 0,-0.2 0,-0.2 0,-0.2 0,-0.2 0,-0.1 0,-0.1 0,-0.1 0.1,-0.1 0.1,0 0.1,0 0.1,0.1 0.1,0.1 0.1,0.1 0.2,0 0.1,0 0.1,0.1 0.1,0.1 0.1,0 0.1,0 0.1,0 0.1,0 0.1,-0.1 0.1,-0.1 0.1,-0.1 0.1,-0.2 0.1,-0.2 0.1,-0.2 0.1,-0.2 0.1,-0.1 0.1,-0.1 0,-0.1 0,-0.3 0,-0.9 -0.1,-0.2 -0.1,-0.1 -0.1,-0.1 0,-0.1 0,-0.1 0,-0.1 0.1,-0.1 0.1,-0.1 0.1,0 0.1,0 0.1,0 0.1,0.1 0.1,0 0.1,0.1 0.1,0 0.1,0 0.1,-0.1 0.1,-0.1 0.1,-0.1 0,-0.1 0.1,-0.1 0.1,-0.1 0.1,0 0.1,0 0.1,0.1 0.1,0.1 0.1,0.1 0,0.1 0,0.1 -0.1,0.3 -0.1,0.2 0,0.2 0,0.1 0,0.1 0.1,0.2 0.1,0.1 0.1,0 0.1,0.1 0.1,0 0.1,0 0.1,0 0.1,-0.1 0.1,-0.1 0.1,-0.2 0,-0.1 0.1,-0.2 0.1,-0.1 0.1,-0.1 0.1,-0.1 0.2,-0.1 0.1,0 0.2,0 0.2,-0.1 0.1,0 0.2,-0.1 0.1,-0.1 0.1,-0.1 0.2,0 0.2,-0.1 0.2,0 0.1,0 0.2,0 0.1,-0.1 0.2,-0.1 0.2,-0.1 0.4,-0.1 0.5,-0.2 0.2,-0.1 0.1,-0.1 0.1,0 0.1,0 0.1,0 0.3,0.2 0.1,0.1 0.1,0.1 0.1,0.1 0.1,0.1 0.1,0 0.2,0 0.1,0 0.1,-0.1 0.1,-0.1 0,-0.1 0,-0.3 0,-0.1 0,-0.1 0.1,-0.1 0,-0.1 0.1,-0.1 0.1,-0.1 0.1,0 0.1,0 0.2,-0.1 0.1,0 0.1,0 0.2,0 0.1,0.1 0.1,0.1 0.1,0.1 0.1,0.1 0.6,0.4 0.7,0.7 0.4,0.3 0.4,0.2 0.6,0.3 0.7,0.1 0.7,0 0.1,0 0.6,-0.4 0.1,-0.7 0.1,-0.1 0.1,-0.1 0.1,-0.1 0.3,-0.2 0.6,-0.4 0.4,-0.2 0.1,-0.1 0.1,0 0.1,0 0.2,0 0.2,0.1 0.1,0.1 0.1,0 0.2,0 0.1,0 0.1,0 0.1,-0.1 0.1,-0.1 0.1,-0.1 0.1,-0.3 0.1,-0.2 0,-0.1 -0.1,-0.3 -0.1,-0.4 -0.1,-0.2 -0.1,-0.1 -0.1,-0.1 -0.1,-0.1 -0.3,-0.1 -0.1,-0.1 0,-0.1 0,-0.1 0,-0.7 0.1,-0.1 0.2,-0.2 0.2,-0.2 0.2,-0.1 0.2,-0.1 0.2,-0.1 0.2,-0.1 0.1,-0.1 0.1,-0.1 0.1,-0.2 0.1,-0.2 0.2,-0.2 0.2,-0.1 0.2,-0.1 0.3,-0.1 0.4,-0.2 0.4,-0.1 0.4,-0.2 0.2,-0.2 0.2,-0.2 0.2,-0.3 0.2,-0.2 0.2,-0.1 0.2,-0.1 0.2,0 0.3,0 0.3,0 0.3,0 0.3,-0.1 0.2,-0.1 0.2,-0.1 0.1,-0.1 0.4,-0.3 0.3,-0.4 0.4,-0.3 0.2,-0.2 0.2,-0.2 0.2,-0.2 0.1,-0.2 0.1,-0.2 0,-0.1 0.1,-0.1 0.1,-0.1 0.1,-0.1 0.1,-0.1 0.2,0 0.2,0 0.2,0 0.2,0.1 0.1,0.1 0.1,0.1 0.1,0.2 0.1,0.1 0.2,0.1 0.1,0 0.1,0 0.2,-0.1 0.1,-0.1 0.1,-0.1 0,-0.1 0,-0.1 -0.1,-0.3 -0.1,-0.3 0,-0.3 0,-0.3 0.1,-0.2 0.1,-0.2 0.1,-0.2 0.1,-0.2 0.2,-0.2 0.1,-0.2 0.1,-0.2 0,-0.1 0,-0.2 0,-0.3 0,-0.2 -0.1,-0.3 -0.1,-0.2 -0.1,-0.1 0,-0.2 0,-0.2 0,-0.2 0,-0.4 0,-0.3 -0.1,-0.2 -0.3,-0.5 -0.1,-0.3 -0.2,-0.2 -0.2,-0.2 -0.1,-0.1 -0.1,-0.2 -0.1,-0.4 -0.1,-0.2 0,-0.5 0,-0.3 0,-0.4 0.1,-0.4 0.1,-0.2 0.1,-0.1 0.1,-0.1 0.1,-0.1 0,-0.1 0,-0.1 -0.1,-0.2 -0.1,-0.1 0,-0.1 -0.1,-0.1 0,-0.1 -0.1,-0.1 0,-0.1 0,-0.1 0,-0.1 0.1,-0.1 0.1,-0.1 0.1,0 0.2,-0.1 0.2,0 0.1,0 0.1,0 0.2,0 0.2,0 0.1,0 0.2,-0.1 0.2,0 0.1,-0.1 0.1,-0.1 0.1,-0.1 0.1,-0.1 0.1,-0.1 0.2,0 0.2,0 0.2,0 0.1,0 0.2,0 0.2,0 0.2,-0.1 0.2,-0.1 0.2,-0.1 0.2,-0.1 0.1,-0.1 0.2,-0.1 0.2,0 0.2,0 0.1,0 0.1,0 0.1,-0.1 0.1,-0.1 0.1,-0.3 0,-0.2 -0.1,-0.2 0,-0.2 0,-0.2 0,-0.2 -0.1,-0.2 0,-0.3 0,-0.4 -0.1,-0.3 -0.1,-0.2 -0.1,-0.2 -0.1,-0.2 -0.1,-0.1 -0.1,-0.1 -0.2,-0.1 -0.1,-0.1 -0.1,-0.1 -0.1,-0.1 -0.1,-0.1 0,-0.1 0,-0.1 0.1,-0.1 0.1,-0.1 0.2,-0.1 0.1,-0.1 0.1,-0.1 0.1,-0.1 0.1,-0.1 0,-0.1 0,-0.1 0,-0.2 0,-0.2 0,-0.2 0,-0.1 0,-0.1 0,-0.1 0.1,-0.2 0.1,-0.1 0.1,0 0.1,0 0.1,0 0,0 0.1,0 0.1,-0.1 0.1,-0.1 0,-0.1 0,-0.1 -0.1,-0.1 -0.1,-0.1 -0.1,0 -0.1,0 -0.2,0 -0.2,0 -0.1,0 -0.2,0 -0.1,-0.1 -0.1,-0.1 -0.1,-0.2 -0.1,-0.2 -0.1,-0.1 -0.1,-0.2 -0.1,-0.1 -0.1,-0.1 -0.1,-0.1 -0.1,-0.1 0,-0.1 0,-0.1 0.1,-0.1 0.1,-0.1 0.1,-0.1 0.1,0 0.1,-0.1 0.1,-0.1 0.1,-0.1 0,-0.1 0.1,-0.1 0,-0.1 0.1,-0.2 0.1,-0.1 0.1,-0.1 0.1,-0.1 0.1,-0.1 0.1,-0.1 0.1,-0.1 0.1,-0.1 0.1,-0.1 0.1,0 0.1,0 0.1,-0.1 0.1,-0.1 0.1,-0.1 0.1,0 0.1,-0.1 0.1,-0.2 0.2,-0.4 0.1,-0.4 0,-0.2 0,-0.2 0,-0.2 0.1,-0.2 0.1,-0.1 0.2,-0.4 0.2,-0.2 0.1,-0.2 0,-0.1 0,-0.2 0,-0.1 -0.1,-0.2 -0.1,-0.1 -0.1,-0.1 0,-0.1 0,-0.1 0,-0.1 0.1,-0.1 0.1,-0.1 0.1,-0.1 0.1,-0.1 0.1,-0.1 0.1,-0.1 0.1,-0.1 0.1,-0.1 0,-0.2 0,-0.2 -0.1,-0.1 -0.3,-0.3 -0.1,-0.1 -0.1,0 -0.2,0 -0.1,0 -0.1,-0.1 0,-0.1 0,-0.1 0.1,-0.1 0.1,-0.1 0.1,-0.1 0.1,0 0.1,0 0.1,0 0.1,0 0.1,-0.1 0,-0.1 0,-0.1 0,-0.1 0,-0.2 0,-0.9 0,-0.2 0,-0.1 0,-0.1 0.1,-0.1 0,-0.1 0.1,-0.1 0.1,-0.2 0.1,-0.1 0.1,-0.1 0,-0.1 0,-0.1 -0.1,-0.1 -0.1,0 -0.1,0 -0.1,0.1 -0.1,0.1 -0.1,0.1 0,0.1 -0.1,0 -0.1,0 -0.1,0 -0.1,-0.1 -0.1,-0.1 -0.1,0 -0.1,0 -0.1,0.1 -0.1,0.1 -0.1,0.1 0,0.1 -0.1,0.1 -0.1,0.1 -0.1,0 -0.1,0 -0.1,0 -0.1,-0.1 -0.2,-0.1 -0.1,-0.2 -0.4,-0.5 -0.2,-0.3 -0.1,-0.2 0,-0.1 0,-0.1 0,-0.1 0.1,-0.1 0.1,-0.1 0.1,-0.1 0.1,-0.1 0.2,-0.1 0.2,-0.1 0.3,-0.2 0.1,-0.2 0.2,-0.2 0.1,-0.2 0.1,-0.4 0.1,-0.4 0.1,-0.2 0.1,-0.1 0.1,-0.1 0.1,-0.1 0.4,0 0.3,0 0.2,0 0.5,-0.1 0.6,-0.1 0.3,-0.1 0.8,0 0.2,0 0.2,-0.1 0.1,-0.1 0.2,-0.6 0.5,-0.8 0.7,-0.1 0.5,0 0.3,-0.1 0.4,-0.5 0,-0.6 0.3,-1.1 0.6,-0.9 0.4,-0.6 0.5,-0.4 0.5,-0.1 1.2,-0.2 0.1,0 0.1,-0.1 0.1,-0.1 0,-0.1 0,-0.7 0.6,-2.7 0.2,-0.3 0.3,-0.2 0.1,-0.1 0.1,0 0.1,0 0.5,0.1 0.1,0 0,0 0,0 0.1,-0.2 0,-0.9 -0.2,-0.4 -0.4,-0.5 -0.4,-0.4 -0.3,-0.9 -0.3,-0.6 -0.4,-0.5 -0.2,-0.2 -0.1,-0.1 0,-0.1 0.5,-0.4 1.1,-0.6 0.2,-0.2 0.2,-0.2 0.2,-0.1 0.5,-0.4 0.4,-0.2 0.3,-0.2 0.4,-0.3 0.1,-0.1 0.1,-0.2 0.2,-0.5 0,-0.6 0,-0.3 -0.1,-0.7 0,-0.2 0,-0.1 0.1,-0.1 0.1,-0.1 0,-0.6 0,-0.8 -0.1,-1 -0.1,-1 -0.3,-1 -0.4,-0.9 -0.6,-1 -0.7,-1.1 -0.3,-0.7 -0.2,-0.8 -0.1,-0.8 0.1,-0.8 0.3,-0.8 0.1,-0.3 0.1,-0.3 0.6,-0.5 0.6,-0.4 0.4,-0.5 0.2,-0.4 0,-0.3 -0.2,-0.5 -0.4,-0.2 -0.4,-0.2 -0.2,-0.3 -0.2,-0.6 -0.1,-0.6 0,-1.6 0.1,-0.7 0.1,-0.7 0.1,-1 0,-0.1 0,-0.2 -0.2,-0.4 -0.5,-1 -0.1,-0.6 0.2,-0.8 0,-0.3 0,-0.4 -0.1,-0.1 -0.4,-0.2 -0.4,-0.3 -0.2,-0.1 -0.1,-0.2 0,-0.5 0.1,-0.6 0.2,-0.5 0.4,-0.5 0.7,-0.6 0.5,-0.4 0.2,-0.4 -0.2,-0.9 -0.1,-0.1 -0.1,-0.1 -0.2,-0.2 -0.1,-0.1 0,-0.1 -0.2,-0.3 -0.2,-0.3 -0.2,-0.2 -0.2,-0.1 -0.2,-0.1 -0.2,0 1.3,0.1 -0.2,0.1 -0.2,0.1 -0.1,0.3 0,0.1 -0.1,0.1 -0.1,0 -0.2,0 -0.1,-0.1 -0.1,-0.2 -0.1,-0.2 -0.1,-0.1 -0.1,-0.1 -0.1,-0.1 -0.1,-0.1 -0.1,-0.1 0,-0.1 0,-0.2 -0.1,-0.2 -0.1,-0.2 -0.1,-0.2 -0.1,-0.1 -0.1,-0.2 -0.1,-0.1 -0.1,-0.1 -0.1,-0.1 -0.1,-0.1 0,-0.2 0,-0.3 0,-0.3 0,-0.4 -0.1,-0.4 0,-0.1 -0.1,-0.2 -0.1,-0.1 -0.2,0 -0.2,0 -0.2,0 -0.1,0 -0.1,0 -0.1,-0.1 -0.1,-0.2 -0.1,-0.3 -0.1,-0.5 0,-0.2 0,-0.1 0,-0.2 0.1,-0.2 0.1,-0.1 0.2,-0.1 0.2,0 0.2,0 0.3,0 0.2,0 0.1,0 0.1,-0.1 0.1,-0.1 0.1,-0.1 0.1,-0.2 0.1,-0.1 0,-0.1 -0.1,-0.2 -0.1,-0.2 -0.1,-0.1 -0.3,-0.1 -0.2,0 -0.4,-0.1 -0.2,0 -0.2,-0.1 -0.2,-0.2 -0.2,-0.2 -0.1,-0.2 -0.1,-0.3 -0.1,-0.2 -0.1,-0.3 -0.1,-0.2 0,0 0.3,-0.3 0,-0.5 0,-0.2 0.2,-0.6 0.1,-1 0.2,-0.6 0.5,-0.8 0.5,-0.6 0.8,-0.6 0.7,-0.6 0.7,-0.7 0.7,-1 0.9,-1.9 0.4,-0.4 0.6,-0.4 0.5,-0.4 0.1,-0.3 0.1,-0.9 0.1,-0.7 0.2,-0.7 0.4,-0.6 0.7,-0.1 0.6,0 0.4,-0.1 0.1,-0.1 -0.1,-0.4 -0.2,-0.4 -0.1,-0.4 0.2,-0.4 0.4,-0.8 0,-0.2 -1,-1.6 -1,-1.4 -1.3,-1.5 -0.9,-1.3 -1.2,-1.4 -0.8,-0.8 -1.9,-1.3 -1.5,-1 -0.6,-0.5 -1.3,-0.7 -0.4,-0.4 -0.2,-0.5 0,-0.1 -0.2,-1.8 -0.4,-1.1 -0.2,-0.6 -0.5,-1.1 -1.2,-2.4 -0.1,-0.6 -0.1,-0.7 0.1,-1.3 0.3,-2.8 0.3,-1 0.1,-0.4 0.1,-1.3 0.1,-0.5 0.3,-0.6 0.3,-0.5 0.4,-0.7 0.1,-0.4 0,-0.3 0,-0.7 0.1,-0.6 0,-0.5 0,-0.4 0.1,-0.3 0.1,-0.3 0.1,-0.2 0,-0.2 -0.1,-0.2 -0.1,-0.2 -0.1,-0.2 -0.2,-0.2 -0.2,-0.3 -0.1,-0.4 -0.1,-0.2 -0.1,-0.3 -0.2,-0.2 -0.2,-0.3 -0.2,-0.2 -0.2,-0.2 -0.2,-0.2 -0.2,-0.1 -0.1,0 -0.1,0 -0.1,0.1 -0.1,0 -0.1,0 -0.1,-0.1 -0.1,-0.2 -0.1,-0.2 -0.1,-0.1 -0.1,-0.1 -0.2,0 -0.3,0.1 -0.3,0.1 -0.3,0.1 -0.1,0 -0.5,-0.2 -0.2,-0.1 -0.2,-0.2 -0.1,-0.2 -0.1,-0.2 0,-0.3 0,-0.4 0,-0.7 0,-0.4 -0.1,-0.3 0,-0.4 0,-0.3 -0.1,-0.3 0,-0.3 -0.1,-0.3 -0.1,-0.6 -0.1,-0.4 -0.1,-0.4 -0.1,-0.3 -0.1,-0.3 -0.1,-0.2 0,-0.2 -0.1,-0.2 -0.2,-0.3 -0.1,-0.2 -0.2,-0.3 -0.1,-0.2 -0.2,-0.2 -0.1,-0.2 -0.1,-0.1 -0.1,-0.1 0,-0.2 -0.1,-0.1 -0.1,-0.2 -0.1,-0.1 -0.1,-0.1 -0.1,-0.2 0,-0.2 0,-0.3 0,-0.2 0.1,-0.3 0.1,-0.2 0.1,-0.1 0.3,-0.2 0.2,-0.2 0.4,-0.2 0.3,-0.1 0.1,-0.1 0.1,-0.1 0.1,-0.2 0,-0.2 0,-0.2 0,-0.2 0,-0.2 0,-0.2 0.1,-0.1 0.1,-0.1 0,-0.1 0,-0.1 0,-0.2 -0.1,-0.2 -0.2,-0.2 -0.2,-0.1 -0.2,-0.1 -0.2,-0.1 -0.1,-0.1 -0.1,-0.2 -0.2,-0.1 -0.2,-0.1 -0.3,-0.2 -0.4,-0.1 -0.3,-0.1 -0.3,-0.1 -0.3,-0.2 -0.4,-0.1 -0.5,-0.2 -0.3,-0.1 -0.4,0 -0.5,0 -0.4,0.1 -0.5,0.1 -0.6,0.1 -0.4,0.1 -0.4,0.1 -0.8,0.3 -0.7,0.2 -0.5,0.1 -0.3,0.2 -0.4,0.2 -0.2,0.2 -0.1,0.1 -0.2,0.1 -0.2,0.1 -0.1,0.1 -0.2,0.2 -0.2,0.2 -0.1,0.2 -0.1,0.3 0,0.3 0,0.2 0.1,0.2 0.1,0.2 0.1,0.2 0,0.2 0,0.1 -0.1,0.2 -0.2,0.1 -0.1,0.1 -0.2,0.2 -0.2,0.3 -0.1,0.1 -0.3,0.2 -0.1,0.1 -0.2,0.2 -0.1,0.1 0,0.1 -0.1,0.1 -0.2,0.1 -0.1,0 -0.2,-0.1 -0.2,-0.2 -0.2,-0.3 -0.2,-0.3 -0.1,-0.4 -0.1,-0.4 -0.1,-0.4 -0.1,-0.2 -0.2,-0.3 -0.1,-0.3 -0.1,-0.4 -0.1,-0.3 -0.1,-0.2 -0.1,-0.2 -0.1,-0.2 -0.1,-0.2 -0.1,-0.2 -0.2,-0.3 -0.2,-0.3 -0.2,-0.2 -0.2,-0.2 -0.2,-0.3 -0.2,-0.3 -0.1,-0.2 -0.2,-0.3 -0.1,-0.2 -0.2,-0.1 -0.2,-0.1 -0.2,-0.1 -0.2,-0.1 -0.3,0 -0.3,0.1 -0.4,0.1 -0.3,0.1 -0.2,0.1 -0.3,0 -0.4,0 -1.8,0 -0.3,0 -0.2,0.1 -0.2,0.1 -0.2,0 -0.3,-0.1 -0.3,-0.1 -0.2,-0.2 -0.1,-0.2 -0.1,-0.3 -0.1,-0.4 -0.1,-0.4 -0.1,-0.3 0,-0.4 -0.1,-0.2 -0.1,-0.3 -0.1,-0.3 -0.1,-0.4 -0.1,-0.2 -0.1,-0.4 -0.1,-0.4 -0.1,-0.4 -0.1,-0.2 -0.2,-0.4 -0.2,-0.4 -0.2,-0.4 -0.2,-0.3 -0.2,-0.2 -0.1,-0.2 -0.1,-0.1 -0.2,-0.1 -0.2,-0.1 -0.2,-0.1 -0.2,-0.1 -0.2,-0.1 -0.3,-0.1 -0.1,0 -0.1,-0.1 -0.1,-0.1 -0.1,-0.1 -0.1,-0.2 0,-0.2 0,-0.2 0,-0.2 0,-0.3 0,-0.3 0,-0.3 0.1,-0.3 0,-0.2 0,-0.2 0,-0.1 -0.1,-0.1 -0.1,-0.2 0,-0.2 0,-0.1 0.1,-0.2 0,-0.2 0,-0.2 -0.1,-0.6 -0.1,-0.3 -0.1,-0.4 -0.2,-0.4 -0.3,-0.4 -0.2,-0.3 -0.1,-0.2 -0.1,-0.1 -0.1,-0.2 -0.2,-0.3 -0.2,-0.2 -0.2,-0.2 -0.1,-0.1 -0.2,0 -0.3,0 -0.3,-0.1 -0.2,0 -0.3,0 -0.2,0.1 -0.2,0 -0.2,0 -0.1,0 -0.2,0 -0.1,0 -0.1,0 -0.1,0 -0.1,0.1 -0.1,0.2 -0.1,0.1 -0.2,0 -0.1,0 -0.2,-0.1 -0.1,0 -0.2,0 -0.2,0 -0.1,0 -0.2,-0.1 -0.1,-0.1 -0.3,-0.1 -0.2,-0.2 -0.2,-0.2 -0.2,-0.2 -0.1,-0.1 0,-0.2 0,-0.3 0,-0.3 0.1,-0.3 0.1,-0.2 0.1,-0.2 0.1,-0.3 0,-0.2 -0.1,-0.2 -0.1,-0.2 -0.1,-0.2 -0.1,-0.2 -0.2,-0.1 -0.2,0 -0.2,0 -0.2,-0.1 -0.2,-0.2 -0.2,-0.2 -0.3,-0.2 -0.2,0 -0.2,-0.1 -0.1,-0.1 -0.1,-0.1 -0.1,-0.1 -0.1,-0.2 -0.2,-0.2 -0.3,-0.2 -0.4,-0.3 -0.4,-0.3 -0.2,-0.2 -0.2,-0.2 -0.3,-0.3 -0.3,-0.3 -0.3,-0.3 -0.3,-0.3 -0.3,-0.2 -0.4,-0.2 -0.4,-0.2 -0.4,-0.2 -0.7,-0.4 -0.4,-0.2 -0.3,-0.1 -0.2,-0.2 -0.2,-0.2 -0.2,-0.3 -0.2,-0.4 -0.2,-0.2 -0.1,-0.1 -0.1,-0.1 -0.2,-0.1 -0.2,0 -0.3,-0.1 -0.2,0 -0.3,0 -0.2,-0.1 -0.2,-0.1 -0.1,-0.1 -0.1,-0.2 -0.1,-0.3 -0.1,-0.3 0,-0.3 0,-0.6 0,-0.4 0,-1 0,-0.5 0.1,-1.1 0,-0.7 0,-0.4 0,-0.5 -0.1,-1 -0.1,-0.8 -0.1,-0.7 -0.1,-0.5 -0.4,-0.9 -0.4,-0.8 -0.5,-1.2 -0.3,-0.7 -0.2,-0.3 -0.1,-0.2 0,-0.3 0,-0.3 0.1,-0.3 0.2,-0.5 0.3,-0.6 0.2,-0.4 0.1,-0.4 0,-0.3 0,-0.2 0,-0.3 0.1,-0.3 0,-0.4 0,-0.2 0,-0.3 0.1,-0.5 0,-0.5 0,-0.6 -0.1,-0.4 -0.1,-0.6 -0.1,-0.4 -0.1,-0.4 -0.1,-0.2 -0.1,-0.5 -0.2,-0.7 -0.2,-0.8 -0.2,-0.6 -0.2,-0.4 -0.3,-0.4 -0.1,-0.4 -0.3,-0.7 -0.3,-0.7 -0.3,-0.7 -0.2,-0.6 -0.2,-0.3 -0.2,-0.2 -0.1,-0.2 -0.2,-0.3 -0.1,-0.4 -0.2,-0.5 -0.2,-0.4 -0.3,-0.5 -0.1,-0.2 -0.1,-0.3 -0.1,-0.2 0,-0.4 0,-0.3 0,-0.3 0,-0.3 0,-0.2 -0.1,-0.2 -0.1,-0.1 -0.1,-0.1 -0.2,-0.1 -0.3,0 -0.4,0 -0.9,0 -1,0 -1,0 -1.3,0 -1.3,0 -1.2,0 -1.2,-0.1 -1.7,-0.4 -0.8,0 -0.5,-0.1 -0.4,-0.1 -0.4,-0.1 -0.3,0 -0.3,0 -0.3,0 -0.4,0 -0.3,0 -0.3,-0.1 -0.2,-0.3 -0.1,-0.4 -1.5,-0.7 0,-0.4 0,-0.4 0,-0.4 -0.1,-0.5 -0.1,-0.2 -0.1,-0.1 0,-0.2 0,-0.2 0,-0.2 0,-0.2 -0.1,-0.2 -0.2,-0.1 -0.2,-0.1 -0.3,-0.1 -0.2,-0.1 -0.3,0 -0.7,-0.1 -0.9,-0.1 -0.8,-0.2 -0.9,-0.2 -1.6,-0.4 -0.8,-0.2 -0.5,-0.1 -0.7,-0.3 -0.8,-0.5 -1.1,-0.7 -0.8,-0.6 -1,-0.7 -0.7,-0.4 -0.3,-0.3 -0.3,-0.3 -0.3,-0.3 -0.2,-0.1 -0.3,-0.1 -0.5,-0.2 -0.9,-0.4 -0.5,-0.2 -0.6,-0.2 -0.4,-0.2 -0.3,-0.2 -0.4,-0.3 -0.3,-0.2 -0.3,-0.2 -0.2,-0.4 -0.2,-0.3 -0.2,-0.3 -0.2,-0.3 -0.2,-0.4 -0.2,-0.3 -0.2,-0.2 -0.3,-0.4 -0.1,-0.3 -0.1,-0.4 -0.2,-0.3 -0.1,-0.3 -0.3,-0.7 -0.2,-0.6 -0.1,-0.4 -0.3,-0.6 -0.3,-0.4 -0.1,-0.1 -0.2,-0.3 -0.1,-0.4 -0.3,-0.6 -0.1,-0.5 -0.2,-0.3 -0.1,-0.2 -0.2,-0.2 -0.2,-0.3 -0.1,-0.3 -0.1,-0.4 0,-0.4 -0.1,-0.4 -0.1,-0.7 -0.2,-0.2 0,-0.4 -0.1,-0.5 0.1,-0.4 -0.1,-0.9 0.1,-0.7 0,-0.6 0.1,-0.7 0.2,-0.6 0.2,-0.5 0.2,-0.5 0.2,-0.5 0.3,-0.4 0.1,-0.4 0.1,-0.5 0.1,-0.5 0,-0.5 0,-0.5 -0.1,-0.3 -0.1,-0.4 -0.1,-0.3 -0.1,-0.2 -0.2,-0.2 -0.1,-0.2 -0.2,-0.3 -0.3,-0.5 -0.2,-0.3 -0.2,-0.2 -0.2,-0.2 -0.1,-0.3 -0.1,-0.2 -0.1,-0.4 0,-0.3 0,-0.3 0.1,-0.4 0.2,-0.4 0.3,-0.3 0.2,-0.3 0.2,-0.2 0.3,-0.3 0.2,-0.2 0.3,-0.3 0.1,-0.1 0.1,-0.2 0.1,-0.3 0,-0.3 -0.1,-0.4 -0.1,-0.3 -0.2,-0.4 -0.1,-0.2 -0.1,-0.3 -0.1,-0.2 -0.1,-0.2 -0.1,-0.3 -0.2,-0.3 -0.1,-0.3 -0.1,-0.4 -0.1,-0.4 -0.1,-0.3 -0.1,-0.2 -0.1,-0.5 0,-0.4 0,-0.4 -0.1,-0.7 -0.1,-0.5 -0.2,-0.4 -0.1,-0.5 -0.2,-0.6 -0.1,-0.7 -0.1,-0.7 -0.2,-0.8 -0.2,-0.6 -0.1,-0.3 -0.1,-0.2 -0.2,-0.2 -0.3,-0.3 -0.2,-0.2 -0.3,-0.2 -0.3,-0.2 -0.3,-0.2 -0.4,-0.2 -0.4,-0.3 -0.4,-0.2 -0.4,-0.1 -0.3,-0.1 -0.3,-0.1 -0.3,-0.1 -0.3,0 -0.4,0 -0.3,0 -0.4,-0.1 -0.3,0 -0.3,-0.1 -0.2,-0.1 -0.2,-0.1 -0.2,-0.2 -0.2,-0.3 -0.3,-0.3 -0.1,-0.2 -0.1,-0.2 -0.1,-0.2 0,-0.3 0,-0.2 0,-0.4 -0.1,-0.5 0,-0.5 -0.1,-0.4 -0.1,-0.3 0,-0.2 -0.1,-0.3 -0.1,-0.3 -0.2,-0.4 -0.1,-0.3 -0.2,-0.2 -0.2,-0.4 -0.2,-0.4 -0.2,-0.4 -0.2,-0.4 -0.1,-0.3 -0.1,-0.3 -0.1,-0.3 -0.2,-0.2 -0.2,-0.2 -0.3,-0.3 -0.1,-0.2 -0.1,-0.1 -0.2,-0.1 -0.6,0 -0.3,0 -0.1,0 -0.1,0 -0.1,0 -0.1,-0.1 -0.1,-0.1 0,-0.1 0,-0.2 0.1,-0.5 0.1,-0.4 0.1,-0.3 0.1,-0.3 0.2,-0.3 0.2,-0.5 0.5,-0.7 0.3,-0.4 0.1,-0.2 0.1,-0.2 0.3,-0.7 0.2,-0.6 0.2,-0.4 0.1,-0.3 0.1,-0.3 0.1,-0.7 -0.1,-0.4 -0.1,-0.6 -0.1,-0.5 0.1,-1 0.1,-0.6 0.1,-0.6 0.1,-0.3 0.3,-0.6 0.2,-0.3 0.1,-0.2 0.2,-0.2 0.3,-0.1 0.3,0 0.4,0 0.6,0.1 0.3,0.1 0.4,0.1 0.3,0 0.2,-0.1 0.2,-0.2 0.1,-0.2 0.1,-0.4 0.2,-0.6 0,-0.5 0.1,-0.6 0.2,-0.6 0.1,-0.6 0,-0.7 -0.1,-0.3 -0.2,-0.7 -0.4,-0.9 -0.3,-0.7 -0.4,-0.9 -0.2,-0.6 -0.1,-0.4 0,-0.5 0,-0.4 0,-0.8 0.1,-1.5 0,-1 0,-0.9 0,-0.4 -0.1,-0.4 -0.1,-0.3 -0.2,-0.3 -0.2,-0.3 -0.3,-0.4 -0.2,-0.2 -0.1,-0.2 -0.4,-0.2 -0.2,-0.2 -0.2,-0.1 -0.2,-0.1 -0.2,-0.1 -0.2,-0.2 -0.1,-0.1 -0.1,-0.1 -0.2,-0.3 -0.1,-0.2 -0.2,-0.3 -0.2,-0.4 -0.1,-0.3 -0.2,-0.4 -0.2,-0.4 -0.2,-0.4 -0.1,-0.3 -0.1,-0.3 0,-0.3 -0.1,-0.4 -0.1,-0.3 -0.1,-0.3 -0.1,-0.5 -0.1,-0.3 -0.1,-0.3 0,-0.2 0,-0.2 0.1,-0.3 0.1,-0.2 0.1,-0.3 0.1,-0.2 0.1,-0.2 0.1,-0.2 0,-0.4 0,-0.4 0,-0.4 0,-0.5 0,-0.3 0,-0.3 0.1,-0.3 0.1,-0.2 -0.1,-0.2 0,-0.3 0,-0.2 0,-0.2 -0.1,-0.1 -0.1,-0.1 -0.1,0 -0.1,-0.2 -0.1,-0.3 -0.1,-0.2 -0.1,-0.1 -0.1,-0.1 0,-0.2 0.1,-0.2 0,-0.1 -0.1,-0.2 -0.1,-0.2 0,-0.2 -0.1,-0.2 -0.1,-0.2 0,-0.3 0,-0.3 0.1,-0.3 0.1,-0.6 0.1,-0.3 0.1,-0.2 0,-0.2 0.1,-0.2 0,-0.1 0,-0.2 0,-0.2 0,-0.1 0,-0.2 0.1,-0.2 0,-0.3 0,-0.4 0.1,-0.7 0.1,-0.5 0,-0.5 -0.1,-0.4 -0.1,-0.4 -0.1,-0.3 0,-0.1 -0.2,-0.4 -0.1,-0.3 -0.3,-0.4 -0.2,-0.3 -0.2,-0.2 -0.1,-0.2 -0.2,-0.3 -0.3,-0.5 -0.2,-0.4 -0.1,-0.3 -0.2,-0.3 -0.2,-0.3 -0.2,-0.2 -0.1,-0.1 -0.1,-0.1 -0.1,-0.2 0,-0.1 0.1,-0.1 0,-0.2 0,-0.2 -0.1,-0.1 -0.1,-0.2 -0.1,-0.2 -0.1,-0.1 -0.1,-0.2 -0.1,-0.2 -0.1,-0.1 -0.1,-0.2 -0.2,-0.2 -0.3,-0.2 -0.2,-0.1 -0.2,-0.1 -0.2,-0.1 -0.2,-0.1 -0.2,-0.2 -0.1,-0.2 -0.1,-0.1 -0.1,-0.3 -0.1,-0.2 -0.1,-0.3 -0.1,-0.2 -0.1,-0.3 -0.1,-0.3 0,-0.2 0,-0.2 0,-0.2 0,-0.1 -0.1,-0.1 0,-0.1 0.1,-0.2 0.1,-0.1 0.1,-0.3 0.1,-0.2 0,-0.2 0,-0.2 0,-0.2 0.1,-0.2 0.1,-0.2 0.1,-0.2 0.3,-0.3 0.2,-0.3 0.3,-0.3 0.1,-0.3 0.1,-0.3 0.1,-0.5 0,-0.3 0,-0.4 0,-0.3 0.1,-0.5 0.1,-0.5 0.1,-0.5 0.1,-0.5 0.1,-0.4 0.1,-0.2 0.1,-0.2 0,-0.2 0,-0.1 0.1,-0.1 0.1,-0.1 0,-1 0.3,-0.2 0.2,-0.1 0.1,-0.1 0.1,-0.1 0.1,-0.2 0.1,-0.2 0.1,-0.2 0.1,-0.3 0.1,-0.3 0,-0.2 0,-0.2 0.1,-0.2 0,-0.2 0,-0.2 0,-0.2 0,-0.1 -0.1,-0.1 -0.1,-0.2 0,-0.2 0,-0.2 0,-0.3 0.1,-0.2 0,-0.1 0.1,-0.2 0.1,-0.1 0.1,-0.2 0,-0.3 0,-0.3 0,-0.2 0,-0.2 -0.1,-0.2 0,-0.2 0,-0.2 -0.1,-0.2 0,-0.2 0,-0.2 0,-0.1 0.1,-0.2 0.1,-0.1 0.2,-0.3 0.2,-0.2 0.1,-0.2 0.1,-0.2 0.2,-0.3 0.1,-0.3 0.2,-0.4 0.2,-0.4 0.1,-0.3 0.2,-0.4 0.1,-0.3 0.1,-0.3 0.1,-0.3 0.1,-0.3 0.1,-0.1 0.1,-0.2 0.2,-0.3 0.1,-0.2 0.1,-0.1 0,-0.1 0,-0.1 0,-0.1 -0.1,-0.1 -0.1,-0.1 0,-0.1 0.1,-0.1 0.1,-0.1 0.1,-0.1 0.1,-0.3 0.1,-0.2 0.2,-0.4 0.1,-0.2 0.1,-0.2 0.1,-0.2 0.1,-0.3 0.1,-0.2 0,-0.2 0,-0.1 0,0 0,-0.2 0.1,-0.2 0,-0.2 0,-0.1 0,-0.2 -0.1,-0.2 0,-0.1 0,-0.1 0.1,-0.1 0.1,-0.1 0.1,-0.1 0.1,-0.1 0,-0.1 0,-0.2 0.1,-0.4 0.1,-0.4 0.1,-0.4 0.1,-0.2 0.1,-0.3 0,-0.2 0,-0.2 0,-0.3 0,-0.2 0.1,-0.3 0.1,-0.1 0.1,-0.1 0.1,-0.2 0.1,-0.2 0.1,-0.3 0.1,-0.2 0,-0.1 0,-0.1 0,-0.2 0,-0.2 0,-0.2 0.1,-0.2 0,-0.1 0,-0.1 -0.1,-0.1 -0.1,-0.1 -0.3,-0.1 -0.2,-0.1 -0.2,-0.1 -0.2,-0.2 -0.3,-0.2 -0.1,-0.1 -0.2,-0.2 0,-0.9 0,-0.3 -0.3,-0.1 -0.2,-0.2 -0.2,-0.1 -0.1,-0.2 -0.1,-0.2 0,-0.3 0,-0.2 0.1,-0.2 0.1,-0.4 0.1,-0.2 0.1,-0.3 0,-0.2 0,-0.1 0,-0.1 -0.1,-0.1 -0.2,-0.2 -0.1,-0.1 -0.1,-0.2 -0.1,-0.1 -0.1,-0.1 -0.1,-0.1 -0.1,-0.1 -0.1,-0.1 -0.1,-0.1 0,-0.1 0,-0.1 0.1,-0.1 0.1,-0.1 0,-0.1 0,-0.1 0,-0.2 0,-0.1 0.1,-0.1 0.1,-0.1 0.1,-0.1 0.2,-0.1 0.1,0 0.1,-0.1 -0.4,-0.3 0.1,-0.1 0,-0.1 0,-0.2 0,-0.2 0,-0.3 -0.1,-0.2 -0.1,-0.1 -0.1,-0.1 -0.1,-0.1 -0.2,-0.1 -0.2,-0.1 -0.2,-0.1 -0.2,-0.1 -0.2,0 -0.2,0 -0.1,0 -0.3,-0.1 -0.2,-0.1 -0.2,-0.1 -0.2,-0.1 -0.2,-0.1 -0.1,-0.1 0,-0.1 0,-0.5 0,-0.2 0,-0.2 -0.1,-0.9 0,-0.2 0,-0.2 0,-0.1 0.1,-0.2 0.1,-0.2 0.3,-0.4 0.1,-0.2 0.1,-0.2 0.1,-0.1 0.2,-0.3 0.1,-0.2 0.1,-0.2 0.1,-0.5 0.1,-0.4 0.1,-0.5 0.1,-0.4 0.1,-0.3 0.1,-0.2 0.1,-0.1 0.1,-0.1 0.1,-0.1 0,-0.1 0,-0.1 0,-0.4 0,-0.1 0.1,-0.1 0,-0.2 0,-0.3 0,-0.3 0,-0.2 0,-0.3 0,-0.3 0,-0.2 0,-0.2 0.1,-0.2 0.1,-0.2 0.1,-0.2 0.1,-0.1 0.1,-0.2 0.1,-0.1 0,-0.2 0,-0.1 0,-0.2 0.1,-0.3 0.1,-0.1 0.1,-0.3 0,-0.1 0,-0.2 0.1,-0.1 0.1,-0.1 0.2,-0.1 0.3,-0.2 0.3,-0.2 0.2,-0.1 0.4,-0.2 0.2,-0.2 0.2,-0.2 0.4,-0.1 0.5,-0.3 0.1,-0.1 0.4,-0.4 0.1,-0.3 0.1,-0.3 0.1,-0.3 0.1,-0.2 0.2,-0.2 0.2,-0.3 0.3,-0.3 0.3,-0.3 0.4,-0.3 0.3,-0.2 0.4,-0.3 0.2,-0.2 0.2,-0.2 0.1,-0.2 0.2,-0.4 0.1,-0.3 0,-0.2 0,-0.4 0,-0.3 0,-0.2 0,-0.2 0,-0.2 0,-0.2 0,-0.3 0,-0.1 0,-0.1 0.1,-0.2 0,-0.2 0.1,-0.2 0.2,-0.2 0.2,-0.4 0.2,-0.3 0.3,-0.3 0.4,-0.3 0.4,-0.4 0.3,-0.3 0.3,-0.3 0.2,-0.3 0.2,-0.3 0.1,-0.2 0.1,-0.1 0.6,-0.3 0.3,-0.2 0.3,-0.2 0.2,-0.1 0.1,-0.1 0.2,-0.5 0.2,-0.4 0.1,-0.1 0.4,-0.3 0.4,-0.2 0.5,-0.1 0.5,-0.1 0.4,-0.1 0.4,-0.3 0.3,-0.1 0.1,-0.1 0.1,-0.2 0.1,-0.2 0,-0.3 0,-0.2 -0.1,-0.3 -0.1,-0.3 -0.1,-0.3 -0.1,-0.2 -0.1,-0.2 -0.1,-0.2 0,-0.2 0,-0.5 0,-0.3 0,-0.3 0,-0.3 0,-0.3 0.1,-0.6 0.1,-0.4 0.2,-0.5 0.2,-0.3 0.2,-0.3 0.1,-0.2 0.1,-0.5 0,-0.3 -0.1,-0.6 0,-0.3 0.1,-0.3 0.1,-0.2 0,-0.4 0.1,-0.5 0.1,-0.4 0.1,-0.3 0.1,-0.1 0.1,-0.1 0.1,-0.1 0,-0.1 0,-0.2 0,-0.1 0,-0.2 -0.1,-0.1 0,-0.2 0.1,-0.4 0.1,-0.5 0.1,-0.3 0.1,-0.4 0.2,-0.3 0.7,-0.9 0.4,-0.6 0.1,-0.4 0.1,-0.5 0.1,-0.5 0.1,-0.4 0,-0.2 0.1,-0.1 0.2,-0.3 0.1,-0.2 0.2,-0.3 0.2,-0.4 0.2,-0.4 0.1,-0.5 0.1,-0.4 0.2,-0.4 0.1,-0.2 0.2,-0.1 0.2,-0.1 0.2,-0.1 0.2,0 0.2,0 0.2,0 0.1,-0.1 0.2,-0.1 0.2,-0.2 0.3,-0.2 0.2,-0.2 0.1,-0.1 0.1,-0.1 0.1,-0.2 0.1,-0.1 0.1,-0.1 0.1,-0.2 0.2,-0.2 0.1,-0.2 0.1,-0.2 0.1,-0.1 0,-0.4 0,-2.1 0,-0.7 0,-0.6 0,-0.3 0.1,-0.2 0.1,-0.2 0.1,-0.1 0.2,-0.1 0.4,-0.2 0.3,-0.1 0.4,-0.1 0.3,0 0.2,-0.1 0.3,-0.3 0.2,-0.3 0.2,-0.7 0.2,-0.7 0.1,-0.5 0.1,-0.4 0,-0.4 0,-0.4 -0.1,-0.4 -0.1,-0.4 -0.1,-0.3 -0.2,-0.4 -0.2,-0.2 -0.4,-0.6 -0.1,-0.2 0,-0.1 -0.6,-2 0.3,-1.4 -0.7,-1 -0.1,-1 0,-0.6 0,-0.6 0.1,-0.5 0,-0.6 0,-0.3 0.1,-0.4 0.1,-0.5 0.2,-0.7 0.1,-0.7 0.2,-0.5 0.7,-0.7 0.8,-0.8 0.4,-0.4 0.3,-0.9 0.2,-1.1 0.3,-0.5 0.4,-1 0.2,-0.6 0.1,-1.3 0.1,-0.2 0.3,-0.4 0.2,-1.8 0.4,-1 0.3,-0.7 -0.1,-1 0.1,-0.5 0.2,-0.8 0.3,-0.8 0,-0.5 0.2,-0.7 0.1,-0.6 0,-0.2 -0.2,-0.4 -0.3,-0.4 -0.1,-0.4 0.1,-0.6 0.2,-0.4 0.3,-0.4 0,-0.6 -0.5,-1 -0.1,-0.4 0,-0.7 0.1,-0.6 0.4,-1.1 0.3,-0.7 0,-0.5 0,-0.7 -0.1,-0.5 -0.4,-0.8 -0.5,-0.8 -0.5,-0.5 -0.7,-0.4 -0.4,-0.5 -0.2,-0.4 -0.4,-0.4 -0.4,-0.6 -0.3,-0.6 -0.7,-1.2 -0.4,-0.8 -0.1,-0.3 0,-0.7 -0.2,-0.7 -0.2,-0.3 -0.5,-0.3 -0.4,-0.4 -0.3,-0.7 -0.2,-0.3 -0.3,-0.4 -0.2,-0.4 -0.2,-0.4 -0.3,-0.3 -0.1,-0.3 -0.3,-0.3 -0.4,-0.4 -0.5,-0.3 -0.4,-0.2 -0.3,-0.3 -0.1,-0.2 -0.4,-0.6 -0.2,-0.5 -0.3,-0.4 -0.2,-0.2 -0.3,-0.1 -0.5,0 -0.1,0 -0.2,-0.2 -0.4,-0.5 -0.5,-0.7 -0.2,-0.3 -0.4,-0.3 -0.4,-0.3 -0.4,-0.5 -0.3,-0.5 -0.1,-0.2 -0.3,-0.1 -0.5,-0.1 -0.7,-0.1 -0.3,-0.1 -0.2,-0.1 -0.2,-0.1 -0.6,-0.6 -0.7,-0.8 -0.7,-0.6 -0.7,-1 -0.9,-1.2 -0.7,-1.1 -0.1,-0.3 0,-0.4 -0.1,-0.3 -0.2,-0.3 -0.2,-0.3 -1,-0.6 -0.5,-0.2 -0.4,-0.3 -0.3,-0.4 -0.2,-0.5 -0.4,-0.7 -0.3,-0.4 -0.3,-0.4 -0.2,-0.4 0,-0.4 0.1,-0.5 0,-0.7 -0.1,-0.5 -0.2,-0.9 -0.3,-0.6 -0.1,-0.4 -0.2,-0.4 -0.3,-0.4 -0.4,-0.6 -0.2,-0.6 -0.3,-0.6 -0.2,-0.6 -0.1,-0.4 -0.4,-0.4 -0.4,-0.6 -0.4,-0.5 -0.2,-0.2 -0.3,-0.2 -0.6,-0.9 -0.3,-0.6 -0.1,-0.4 -0.3,-0.5 -0.4,-0.5 -0.4,-0.4 -0.6,-0.5 -0.3,-0.4 -0.3,-0.4 -0.5,-0.9 -0.3,-0.9 -0.2,-0.7 -0.1,-0.3 0,-0.6 -0.1,-0.5 -0.3,-0.6 -0.1,-0.5 -0.3,-0.2 -0.4,-0.4 -0.3,-0.4 -0.2,-0.7 -0.1,-0.7 0.1,-0.7 0.1,-0.4 0.1,-0.5 -0.1,-0.4 -0.4,-0.5 -0.5,-0.6 -0.2,-0.3 -0.2,-0.2 -0.2,0 -0.2,0.1 0,-0.2 -0.1,-0.6 -0.4,-1.9 1,-3.2 -0.3,-3.4 0.6,-14.5 0.8,-2.1 0,-6.5 -0.2,-3.4 -0.7,-3 L 75.6,99.3 75.3,98.9 74.9,98.5 74.6,98.1 74.2,97.7 73.8,97.1 73.4,96.5 73.2,96 73.1,95.6 73,95 73,94.3 72.9,94 72.8,93.9 72.4,93.7 71.8,93.4 71,92.9 70.6,92.7 70.4,92.5 70.2,92.2 69.9,91.9 69.6,91.8 69.3,91.7 70,91.4 69.8,91.1 69.7,90.9 69.6,90.4 69.5,89.7 69.4,89.3 69.3,88.9 69.1,88.6 69,88.4 69,88.1 68.9,87.9 68.6,87.5 68,86.8 67.8,86.4 67.4,86 67,85.5 66.7,85.1 66.4,84.6 66.1,84.1 65.6,83.4 65,82.8 64.6,82.3 64.2,81.7 64,81.1 63.7,80.6 63.6,80.3 63.3,80 62.9,79.7 62.4,79.4 61.8,78.9 61.4,78.3 61.2,78 61.1,77.8 61,77.5 61,77.2 60.8,77 60.5,76.7 60.1,76.3 59.7,76 59.5,75.6 59.2,75.3 58.8,74.8 58.4,74.5 58,74.3 57.3,74.2 56.9,73.9 56.4,73.4 56.3,73.3 56.2,73.3 56.1,73 56,72.9 55.8,72.7 55.7,72.5 55.5,72.2 55,71.9 54.7,71.8 54.3,71 53.8,70.6 53.4,69.8 53,69.4 52.8,69.1 52.4,67.9 52.3,67.8 47.2,32.7 44.2,12.4 64.7,23 l 0.7,0 0.5,0.5 0.5,0.4 0.2,0.3 0.4,0.3 0.7,0.4 0.4,0.3 0.2,0 1.2,0.8 0.8,0.9 1,0.8 0.1,0.1 0.8,0.9 0.6,0.2 0.2,0.4 -0.1,0.7 0.4,0.5 0.7,0.5 0.4,0.7 2.5,1.4 0.7,1.1 1,0.7 0.8,1 1.2,1.1 0.3,0.8 0.7,0.7 0.7,1.3 0.6,0.7 0.9,0.3 0.9,0.2 0.6,0.4 0.8,1 0.8,0.9 0.7,0.5 0.8,0.8 0.8,0.2 1.5,0.7 0.8,0.1 0.6,0.6 -0.1,0.8 1,0.3 0.8,0.1 0.9,0.7 0.9,0.7 0.8,0.6 0.8,0.6 0.7,0 1.7,1.6 1.8,1.4 -0.5,0.6 -0.2,0.1 0,0.4 0.1,1.1 0.1,1.1 -0.1,0.3 -0.8,0.6 -0.1,1.3 0.5,1.2 0.3,0.9 0.4,0.9 0.1,1.2 0.2,1.3 0,1.1 0,0.4 0,0.8 0,0.4 -0.1,1.1 -0.1,1.1 -0.6,1.9 -0.1,1.2 0.4,0.4 0.3,0.3 0.4,0.4 -0.4,0.9 -0.4,0.6 -0.4,1 0,1.1 z"
       inkscape:connector-curvature="0"
       class="DEP_09 ZON_03" /></g></svg>