<?xml version="1.0" encoding="UTF-8" standalone="no"?>
<!-- Generator: Adobe Illustrator 19.2.0, SVG Export Plug-In . SVG Version: 6.00 Build 0)  -->

<svg
   xmlns:dc="http://purl.org/dc/elements/1.1/"
   xmlns:cc="http://creativecommons.org/ns#"
   xmlns:rdf="http://www.w3.org/1999/02/22-rdf-syntax-ns#"
   xmlns:svg="http://www.w3.org/2000/svg"
   xmlns="http://www.w3.org/2000/svg"
   xmlns:sodipodi="http://sodipodi.sourceforge.net/DTD/sodipodi-0.dtd"
   xmlns:inkscape="http://www.inkscape.org/namespaces/inkscape"
   version="1.1"
   id="SvgMunicipio"
   x="0px"
   y="0px"
   viewBox="0 0 825.4 1000"
   style="enable-background:new 0 0 825.4 1000;"
   xml:space="preserve"
   inkscape:version="0.91 r13725"
   sodipodi:docname="MUN_ID1013.svg"><metadata
     id="metadata10"><rdf:RDF><cc:Work
         rdf:about=""><dc:format>image/svg+xml</dc:format><dc:type
           rdf:resource="http://purl.org/dc/dcmitype/StillImage" /></cc:Work></rdf:RDF></metadata><defs
     id="defs8" /><sodipodi:namedview
     pagecolor="#ffffff"
     bordercolor="#666666"
     borderopacity="1"
     objecttolerance="10"
     gridtolerance="10"
     guidetolerance="10"
     inkscape:pageopacity="0"
     inkscape:pageshadow="2"
     inkscape:window-width="665"
     inkscape:window-height="480"
     id="namedview6"
     showgrid="false"
     inkscape:zoom="0.236"
     inkscape:cx="412.70001"
     inkscape:cy="500"
     inkscape:window-x="0"
     inkscape:window-y="0"
     inkscape:window-maximized="0"
     inkscape:current-layer="svg" /><g
     id="g3"><path
       id="MUN_1013"
       d="m 633.3,2.5 12.4,10.4 5.2,0 6.8,-4.3 4.1,-0.4 2.2,5.8 1.1,5.9 5.4,4.7 1.3,0.7 1.6,1.4 2.5,0.9 4.3,0.9 5,0.9 0.9,0.2 5,2.9 2.5,3.6 3.1,4.5 8.1,12.4 0,0.2 4.5,5.4 5.4,3.9 10.2,3.8 7,2.7 6.6,3.2 3.9,2.3 2.2,3.8 2.7,5.9 2.2,8.3 0.9,2.7 -1.4,4.3 -0.2,1.3 -2,1.1 -2.9,2.5 -2.2,3.4 0.4,2.3 2.2,2.2 1.8,4.7 -4.7,5.9 0.9,1.6 3.2,5.6 1.4,3.4 0,0 1.6,3.4 -0.2,6.3 -1.3,5 -2.9,6.5 -1.1,6.8 -3,3.6 -0.4,5.7 -2,6.6 -0.2,6.6 0.4,2 2.7,2.9 0.4,4.8 0.5,5.2 4.5,-0.4 0.2,-1.4 1.8,-0.4 1.1,3.8 2,0.9 3.6,2.7 -0.7,3.6 2,4.1 1.8,0.2 1.1,2.7 9.7,-5 5.6,2.2 1.6,2.9 0.4,1.4 -0.2,4.3 -0.2,3 0.2,4.5 2.5,-0.2 0.5,2.5 0.9,3.4 4.1,-1.6 0.4,3 -1.6,2.5 1.3,1.8 3.8,2.9 5.2,6.3 3.2,-0.9 2.7,-0.5 4.8,4.5 0.4,6.1 3.6,12 2.7,9.7 2.3,24.2 8.1,244.9 4.8,142.3 0,0.7 0,1.6 -0.5,1.3 -0.2,2 0,1.8 0,0.2 0,1.4 -2.5,2.3 -3.4,3 -0.7,0.7 -1.4,1.8 -1.4,2.1 -3.2,4.1 -0.5,2.2 -0.4,1.8 -0.4,1.4 -0.4,2.2 -0.2,1.6 -0.5,2.3 -0.7,3.4 -0.2,2 -0.4,1.6 -0.2,1.3 0,1.3 -0.5,2.3 -0.5,2.9 -1.1,6.3 -0.2,2 0,2 -0.2,2.5 0,2 -0.7,3.6 -0.5,3.6 -0.5,2.2 -0.4,3.4 -0.4,3.2 -0.7,7.2 0.5,1.4 1.1,5.9 0.5,3.4 0,2.9 0.2,4.3 -1.3,2.3 -0.2,0.7 -1.6,3.2 -0.4,2.9 -0.4,5.9 -0.4,1.3 -0.5,5 0.9,3 0.9,2.7 -0.5,2.2 -0.9,3.9 -0.5,1.6 -0.2,1.6 -0.5,2.3 -0.4,2 0,2.7 -0.2,2.7 0.2,2.7 0.7,1.6 1.1,2.7 0.4,1.8 -0.2,0.5 -0.2,0.9 -0.7,1.4 -0.7,1.6 -0.7,0.9 0.9,2.7 0.7,2.7 0.9,2.9 0.7,1.8 3.9,11.7 2,9.5 1.1,9.3 0,1.3 0.5,4.5 0,4.1 0.4,5 0.4,4.3 0.5,4.5 2.9,7.2 2.3,8.4 -0.2,4.3 0.2,10.6 -2.9,3.4 1.8,2.9 -0.4,4.1 -0.9,1.8 -0.2,6.5 -131.1,15.8 -120.8,14.5 -3.4,-6.6 -3.8,-5.7 -3.2,-4.7 -6.8,-9.5 -9,-12 -6.8,-10 -6.3,-9.3 -9,-11.7 -6.8,-6.8 -8.8,-5.7 -6.8,-7.7 -5.6,-4.7 -0.2,-0.2 -363.3,31.4 3.2,-11.1 9.3,-34.8 0,0 2.7,-32.3 0,0 8.4,-37.5 0,0 10.9,-23.9 0,0 2.5,-34.8 0,0 9.3,-37.5 0,0 5.6,-20.8 2,-8.1 0,0 0.9,-5.7 0,-0.3 -26,-30.5 0,0 -24.4,-22.2 0,0 -23.9,-22.8 0,0 -16.7,-23 -2.7,-3.4 0,-0.2 -24.2,-29.4 -0.2,-0.4 0,0 -20.3,-26.4 0,0 -7.9,-11.8 -5.6,-8.4 0,0 -11.8,-25.7 0,0 -6.5,-18.3 -1.1,-3.8 0,0 -5,-10.9 -0.2,-0.2 5.2,-19.6 0,0 10.8,-21 0,-0.2 -15.9,-28 1.8,-0.9 3.9,-2 1.8,0 10,-4.5 5.9,-4.3 4.7,-2.9 1.9,1.8 1.8,6.1 -0.2,9.1 0.7,1.6 6.3,3 6.5,2.2 5.9,1.3 5.4,-2 5.7,-7.5 7.2,-4.8 9.3,5 5.2,0.9 5.2,0.2 0.5,-1.6 1.3,-4.3 2.7,-6.1 10.4,-0.9 7.4,-1.4 2.5,-2.3 2.5,-3.9 0.5,-6.6 -0.7,-9.3 3.1,-6.3 8.8,-8.3 6.8,-10.2 1.4,-3.6 2.9,-11.8 1.6,-2 7.7,-3.8 2.7,-1.8 6.8,-5.9 6.3,-10 4.8,-7.9 0.7,-0.2 3.4,-0.4 6.8,5.6 2.3,0.5 3.2,0.5 3.4,-3.9 0,-1.8 0.9,-10.9 -1.6,-9 1.3,-2.2 2.9,-5 1.4,-6.8 6.8,-1.8 9.9,-3 2,-2.3 2.9,-4.1 -5.7,-8.4 2.5,-7.9 1.4,-1.8 1.8,-1.4 5.6,-4.7 5.6,-7.2 1.4,-2.3 4.8,-9.1 7,-3.4 8.1,-5.6 6.3,-5.7 2.7,-4.1 9.7,-16 7.5,-7 4.5,-8.8 3,-1.3 0,0 5.7,0.2 10.6,0 7.9,-0.5 7.7,-2.7 18.5,0.5 10,-3.6 8.4,-12.7 2,-7.2 2.2,-2.3 8.1,-0.7 1.1,0.7 10.8,11.5 10,6.8 4.3,-1.1 4.5,-2 11.1,-0.7 8.6,4.3 6.1,3.2 4.1,-1.3 5.9,-6.8 8.3,-10.8 7.2,-7.5 5,-3.2 6.5,0 5.6,-0.5 11.5,-8.4 11.3,-3.4 11.3,-1.8 11.1,-2.9 2.3,-3.4 6.3,-8.4 4.5,-3.9 6.1,-4.3 2,-1.4 10.8,-8.8 3.9,-7.4 5.4,-4.3 9,-11.3 0.4,-0.5 19.7,2.3 15.6,-2.5 16.1,-5.7 5.4,-5.9 3.6,-11.3 4.7,-6.5 1.6,-2 0.2,0.2 8.8,1.9 z"
       inkscape:connector-curvature="0"
       class="DEP_09 ZON_03" /></g></svg>