<?xml version="1.0" encoding="UTF-8" standalone="no"?>
<!-- Generator: Adobe Illustrator 19.2.0, SVG Export Plug-In . SVG Version: 6.00 Build 0)  -->

<svg
   xmlns:dc="http://purl.org/dc/elements/1.1/"
   xmlns:cc="http://creativecommons.org/ns#"
   xmlns:rdf="http://www.w3.org/1999/02/22-rdf-syntax-ns#"
   xmlns:svg="http://www.w3.org/2000/svg"
   xmlns="http://www.w3.org/2000/svg"
   xmlns:sodipodi="http://sodipodi.sourceforge.net/DTD/sodipodi-0.dtd"
   xmlns:inkscape="http://www.inkscape.org/namespaces/inkscape"
   version="1.1"
   id="SvgMunicipio"
   x="0px"
   y="0px"
   viewBox="0 0 1000 811.9"
   style="enable-background:new 0 0 1000 811.9;"
   xml:space="preserve"
   inkscape:version="0.91 r13725"
   sodipodi:docname="MUN_ID1002.svg"><metadata
     id="metadata10"><rdf:RDF><cc:Work
         rdf:about=""><dc:format>image/svg+xml</dc:format><dc:type
           rdf:resource="http://purl.org/dc/dcmitype/StillImage" /></cc:Work></rdf:RDF></metadata><defs
     id="defs8" /><sodipodi:namedview
     pagecolor="#ffffff"
     bordercolor="#666666"
     borderopacity="1"
     objecttolerance="10"
     gridtolerance="10"
     guidetolerance="10"
     inkscape:pageopacity="0"
     inkscape:pageshadow="2"
     inkscape:window-width="682"
     inkscape:window-height="480"
     id="namedview6"
     showgrid="false"
     inkscape:zoom="0.29067618"
     inkscape:cx="500"
     inkscape:cy="405.95001"
     inkscape:window-x="0"
     inkscape:window-y="0"
     inkscape:window-maximized="0"
     inkscape:current-layer="svg" /><g
     id="g3"><path
       id="MUN_1002"
       d="m 519.8,88.4 3.4,6.7 121.1,-14.8 131.6,-15.8 96.1,109.2 5.8,3.6 1.6,12.4 0.4,4 2.7,11.2 2.3,5.4 2,7.4 -2.7,9 5.4,1.1 0.2,6.1 -3.6,2.7 -5.6,4.9 -1.1,4.5 0.4,5.8 3.6,3.2 8.6,2.3 2.7,6.8 0.4,7 1.1,5.9 2.7,3.2 5.2,6.3 4.1,4.7 5.8,4.5 16.4,1.1 3.2,0 2.3,5.2 2,7.7 3.8,5.8 5.6,5 3.8,4 1.6,1.3 -0.2,3.6 -1.3,12.1 2.5,9.4 4.1,9.5 0.4,7 -1.4,7.4 2.3,13.1 0.7,6.8 -0.2,5.8 0,5.6 -1.3,4.7 -0.7,5.9 0.9,2.9 -0.2,3.8 -1.3,7.6 -1.4,9.9 -0.5,10.3 0.9,11.5 0,12.2 -0.5,7.4 0.4,9.2 0.4,12.4 -0.2,6.3 9,10.4 2.9,4.7 1.6,5 1.4,2.7 2,4.9 1.8,6.1 3.1,13 1.3,9.5 1.3,8.6 19.6,151.5 -160.9,85.3 -34,-9.5 -383,-107.1 -153.9,-43 0,0 -18,-2 0,0 -12.2,4.5 0,0 -14,6.8 -0.2,0 -24.7,10.3 -0.2,0 L 89.5,671 58.9,536.9 l 0,0 L 2,420.8 l -2,-11 0,-0.2 1.8,-6.3 0,0 1.8,-6.8 0,-0.2 6.5,-5.2 0.2,-0.2 5.7,0 0,0 8.8,0 0,0 7,-2 0.2,0 3.2,-5 0,0 5.9,-8.6 0,0 3.1,-4.5 0.2,0 7,-7.6 0,-0.2 1.8,-8.5 0,0 4,-6.8 0.2,0 5.9,-4.7 0,0 12.1,-9.9 0,0 9.9,-5.9 0,0 6.1,-2.5 0,0 -1.6,-18.4 0,-0.2 2.7,-12.4 0,0 0.4,-8.6 0,-0.9 0,0 -3.1,-5.9 0,0 -5.8,-8.5 0,0 -2.7,-4.9 0,0 -3.4,-4.3 0,0 -4,-7.9 0,0 -3.6,-8.1 0,-0.2 -0.2,-4.1 -0.4,-5.9 0,0 -0.7,-18.5 0,0 0.4,-5.6 0,0 0.2,-5 0.2,-10.8 0,0 2.2,-11.5 0,0 2.5,-3.8 0,0 4.7,-6.5 0,0 3.1,-6.7 0,0 3.8,-8.6 0,0 0.7,-8.3 0,0 -2.3,-13.9 0,0 -3.2,-18.2 0,0 0.4,-11.7 0,0 1.3,-9.2 0,0 1.4,-11.2 0,0 3.2,-12.8 0,0 2.3,-7.9 0,0 3.8,-5.9 0,0 5.2,-6.1 0,0 2.9,-3.4 0,-0.2 -12.2,-8.5 0,0 -4,-4.1 -0.2,0 -3.2,-4.7 364.3,-31.3 0.2,0.2 5.6,4.7 6.8,7.7 8.8,5.8 6.8,6.8 9,11.7 6.3,9.4 6.8,10.1 9,12.1 6.8,9.5 3.2,4.7 4,5.7 z"
       inkscape:connector-curvature="0"
       class="DEP_09 ZON_03" /></g></svg>