<?xml version="1.0" encoding="UTF-8" standalone="no"?>
<!-- Created with Inkscape (http://www.inkscape.org/) -->

<svg
   xmlns:dc="http://purl.org/dc/elements/1.1/"
   xmlns:cc="http://creativecommons.org/ns#"
   xmlns:rdf="http://www.w3.org/1999/02/22-rdf-syntax-ns#"
   xmlns:svg="http://www.w3.org/2000/svg"
   xmlns="http://www.w3.org/2000/svg"
   xmlns:sodipodi="http://sodipodi.sourceforge.net/DTD/sodipodi-0.dtd"
   xmlns:inkscape="http://www.inkscape.org/namespaces/inkscape"
   width="58mm"
   height="79mm"
   viewBox="0 0 205.51168 279.92107"
   id="SvgDepartamento"
   version="1.1"
   inkscape:version="0.91 r13725"
   sodipodi:docname="DEP_13.svg">
  <defs
     id="defs3681" />
  <sodipodi:namedview
     id="base"
     pagecolor="#ffffff"
     bordercolor="#666666"
     borderopacity="1.0"
     inkscape:pageopacity="0.0"
     inkscape:pageshadow="2"
     inkscape:zoom="3.959798"
     inkscape:cx="116.33834"
     inkscape:cy="131.70913"
     inkscape:document-units="px"
     inkscape:current-layer="layer1"
     showgrid="false"
     inkscape:window-width="1366"
     inkscape:window-height="705"
     inkscape:window-x="-8"
     inkscape:window-y="-8"
     inkscape:window-maximized="1" />
  <metadata
     id="metadata3684">
    <rdf:RDF>
      <cc:Work
         rdf:about="">
        <dc:format>image/svg+xml</dc:format>
        <dc:type
           rdf:resource="http://purl.org/dc/dcmitype/StillImage" />
        <dc:title></dc:title>
      </cc:Work>
    </rdf:RDF>
  </metadata>
  <g
     inkscape:label="Capa 1"
     inkscape:groupmode="layer"
     id="layer1"
     transform="translate(0,-772.44083)">
    <path
       inkscape:connector-curvature="0"
       style="fill:#b3b3b3"
       d="m 66.991287,782.81309 c 8.4,-1.05 15.6625,-6.0375 23.900003,-7.6875 10.1375,3.2625 19.51251,8.6375 29.20001,13.0375 3.3625,1.6875 7.15,3.2125 9.1375,6.625 8.5375,13.3 16.6625,26.875 24.7875,40.4375 2.4375,4.0125 4.15,8.4625 7.0125,12.225 3.275,0.15 6.1875,-1.6875 9.1375,-2.8625 7.4,-3.4875 15.175,-6.1125 22.5125,-9.7375 -1.4625,5.925 -4.0625,11.925 -3,18.15 1.6375,8.8875 3.65,17.75 4.35,26.775 -0.35,5.4 -1.05,10.775 -0.925,16.2125 0.125,7.25 -4.0125,13.8375 -3.6625,21.075 3.25,2.875 8.2375,1 12.225,1.4625 1.575,6.7125 3.8875,13.675 2.15,20.6125 -0.9125,4.7125 -3.325,8.9 -5.7875,12.95 -3.025,4.9125 -4.675,10.4625 -6.7,15.8125 -3.0625,8.5375 -8.5125,15.9 -12.275,24.1125 -7.1375,13.08751 -7.6875,29.25001 -17.6375,40.86251 -7.5875,5.7 -17.9125,7.275 -27.1625,5.9 -4.6,2.8875 -9.0125,6.4 -14.4625,7.4625 -7,1.4875 -13.775,3.875 -20.83751,5.075 -0.5875,-5.1125 -2.1875,-10.4 -6.25,-13.8375 -4.15,-3.4625 -9.137503,-5.7125 -13.512503,-8.8375 0.925,-1 1.8625,-1.9875 2.8125,-2.9625 -0.0125,-4.1 0,-8.1875 0.0875,-12.275 -1.975,-2.5 -3.5875,-5.525 -6.4125,-7.1375 -5.4,-0.275 -10.7625,0.8125 -16.1125,1.325 -9.075,0.9375 -16.7875,6.5625 -25.875,7.5125 1.925,-2.5875 4,-5.075 6.15,-7.4875 -6.8,-9.25 -12.5875,-19.37501 -20.8875,-27.40001 -3.625,-3.8625 -6.725,-8.225 -10.8,-11.6375 -2.5875,-2.375 -6.1,-4.75 -5.9875,-8.7125 -0.175,-6.5375 -1.2,-13.9375 3.1,-19.4875 2.9125,-3.375 6.7375,-5.825 9.65,-9.225 3.7625,-4.275 9.6375,-5.3625 14.5875,-7.6875 0,-4.1125 -0.0125,-8.225 0,-12.3375 -2.975,-2.95 -5.825,-6.025 -8.9,-8.85 -3.5125,-3.2375 -8.0875,-5.1125 -11.2375,-8.75 -4.525,-5.2 -8.2625,-11.7375 -7.3875,-18.8875 -0.7875,-6.5375 4.5375,-11 8.75,-15.05 0.075,-3.475 -0.25,-7.05 0.65,-10.45 1.6875,-1.3875 3.675,-2.35 5.5875,-3.425 0.0625,-0.9125 0.1875,-2.75 0.25,-3.6625 -2.025,-1.0375 -4.0375,-2.0625 -6.05,-3.075 0.0625,-4.45 -1.75,-8.4875 -2.8375,-12.6875 5.05,-9.225 12.3375,-17.1 18.0625,-25.95 5.775,-7.7875 11.4,-15.8375 18.275,-22.675 7.5625,1.1125 14.525,5.325 22.325,5.15 z"
       id="DEP_13" />
  </g>
</svg>
