<?xml version="1.0" encoding="UTF-8" standalone="no"?>
<!-- Generator: Adobe Illustrator 16.0.0, SVG Export Plug-In . SVG Version: 6.00 Build 0)  -->

<svg
   xmlns:dc="http://purl.org/dc/elements/1.1/"
   xmlns:cc="http://creativecommons.org/ns#"
   xmlns:rdf="http://www.w3.org/1999/02/22-rdf-syntax-ns#"
   xmlns:svg="http://www.w3.org/2000/svg"
   xmlns="http://www.w3.org/2000/svg"
   xmlns:sodipodi="http://sodipodi.sourceforge.net/DTD/sodipodi-0.dtd"
   xmlns:inkscape="http://www.inkscape.org/namespaces/inkscape"
   version="1.1"
   id="SvgMunicipio"
   x="0px"
   y="0px"
   width="681.636px"
   height="999.972px"
   viewBox="65.262 118.099 681.636 999.972"
   enable-background="new 65.262 118.099 681.636 999.972"
   xml:space="preserve"
   inkscape:version="0.91 r13725"
   sodipodi:docname="MUN_ID1309.svg"><metadata
     id="metadata10"><rdf:RDF><cc:Work
         rdf:about=""><dc:format>image/svg+xml</dc:format><dc:type
           rdf:resource="http://purl.org/dc/dcmitype/StillImage" /></cc:Work></rdf:RDF></metadata><defs
     id="defs8" /><sodipodi:namedview
     pagecolor="#ffffff"
     bordercolor="#666666"
     borderopacity="1"
     objecttolerance="10"
     gridtolerance="10"
     guidetolerance="10"
     inkscape:pageopacity="0"
     inkscape:pageshadow="2"
     inkscape:window-width="665"
     inkscape:window-height="480"
     id="namedview6"
     showgrid="false"
     inkscape:zoom="0.23600661"
     inkscape:cx="340.81799"
     inkscape:cy="499.98599"
     inkscape:window-x="0"
     inkscape:window-y="0"
     inkscape:window-maximized="0"
     inkscape:current-layer="svg" /><g
     id="g3"><path
       id="MUN_1309"
       d="m 746.898,1081.284 -1.604,2.404 -1.603,2.966 -0.642,1.844 -2.003,0.881 -2.324,1.282 -1.443,0.722 -0.721,0.24 -1.523,0.08 -3.285,-0.24 -1.604,-0.4 -4.488,-1.523 -1.442,-0.16 -4.007,-0.08 -4.008,0 -2.404,-0.721 -2.725,0.32 -1.764,0.48 -1.122,1.844 -1.843,2.404 -1.684,1.362 -2.003,0.562 -2.164,0.48 -1.844,0.962 -1.442,3.366 -1.122,2.324 -0.882,1.843 -0.561,2.324 -0.562,2.484 -1.122,2.565 -0.721,0.4 -4.328,1.603 -4.328,1.764 -2.324,0.802 -1.362,0.561 -1.763,0.561 -1.523,0.481 -3.366,-0.24 -2.805,-0.241 -6.813,-0.881 -4.408,-0.882 -2.404,-0.16 -3.927,0.561 -5.53,-0.801 -3.126,0.16 -4.087,0.721 -1.362,0.722 -1.523,0.561 -1.843,0 -4.969,-1.522 -4.168,-1.442 -4.248,-1.282 -4.969,-0.882 -3.446,-0.08 -12.262,0.882 -8.816,0.48 -4.167,0.24 -6.092,0.401 -3.366,-0.802 -2.885,-0.32 -2.885,0.08 -1.604,-0.481 -1.122,-0.961 2.484,-2.164 4.729,-2.084 8.656,-4.168 2.003,-0.08 1.764,1.282 2.404,1.042 2.645,1.924 1.523,0.16 1.923,0.16 2.646,-0.962 5.049,-0.4 1.122,0.16 1.683,1.362 1.604,-1.202 2.564,-1.603 1.924,-1.764 0.881,-1.041 0.24,-2.404 0.481,-3.206 -0.16,-1.282 -0.722,-1.844 -1.202,-1.763 -2.965,-2.886 -2.405,-4.408 -1.603,-3.927 -0.24,-1.924 0.882,-4.729 -0.08,-2.725 -28.372,-7.935 -177.521,-71.729 -29.733,-132.561 -0.241,-1.042 -83.511,-82.39 -14.987,-72.611 -1.282,-0.641 -3.206,-2.004 -3.687,-2.966 -2.004,-4.087 -0.961,0 -2.806,-1.122 -2.324,-1.122 -4.328,-2.564 -3.847,-2.485 -2.725,-1.282 -3.366,-0.16 -4.729,0 -2.244,-1.362 -1.924,-2.084 -2.164,-2.885 -2.965,-1.282 -2.244,-0.16 -3.526,-0.882 -2.805,-1.442 -2.886,-1.202 -2.564,-1.523 -1.282,0.962 -1.282,1.122 -1.604,-0.802 -0.48,-2.725 -0.562,-4.648 0.642,-5.771 0.882,-1.042 0.4,-2.324 -23.242,-27.489 -46.645,42.797 -0.16,-2.003 -0.16,-2.726 1.122,-3.446 1.122,-3.205 0,0 -0.562,-1.202 -1.362,-1.523 -1.522,-1.763 -1.202,-0.882 -1.604,-1.442 -1.282,-0.962 -2.003,-1.522 -1.764,-1.202 -1.683,-1.042 -2.324,-1.042 -1.282,-1.122 -1.122,-1.604 -0.401,-0.721 0.722,-2.324 -0.24,-1.924 -0.08,-0.48 -0.802,-1.282 -2.244,-1.684 -2.004,-1.442 -1.442,-1.683 -2.244,-2.646 -1.202,-1.202 -1.924,-1.522 -1.843,-1.683 -1.042,-0.882 -2.164,-1.924 -0.882,-2.645 -1.522,-4.809 -0.16,-3.206 0.24,-1.603 1.042,-1.604 1.122,-1.763 0,-2.646 -0.642,-2.564 -0.721,-1.763 -0.562,-1.282 -1.763,-1.202 -1.202,-0.802 -0.481,-3.606 -0.24,-1.924 -0.08,-1.522 0.08,-1.924 -0.32,-2.084 0.16,-2.163 -0.08,-1.684 -0.4,-2.244 -0.722,-1.522 -1.042,-1.362 0.08,-2.404 1.042,-2.646 1.122,-1.683 0.4,-2.564 0.802,-4.488 -0.802,-3.446 -1.683,-3.526 -2.806,-3.687 -3.365,-2.404 -1.283,-2.886 -2.404,-3.687 -1.683,-2.564 -2.885,-7.053 -0.722,-3.046 -0.16,-3.206 0.48,-3.285 -0.16,-4.328 0,-2.806 0.32,-3.687 0.562,-1.603 -0.08,-1.282 -1.924,-3.046 -2.084,-3.286 -2.244,-4.487 -1.442,-5.53 -0.641,-3.286 -0.241,-1.844 0.321,-1.603 -0.241,-1.042 -0.641,-1.442 0.4,-4.248 0.401,-1.362 0.561,-3.045 0,-3.768 -0.4,-3.286 -1.122,-3.205 -1.604,-2.886 -1.202,-2.725 -1.202,-1.362 -1.042,-2.084 -0.48,-1.764 -1.122,-3.927 -3.847,-9.457 0.32,-4.248 -1.844,-4.087 -0.48,-2.004 -0.962,-4.648 0,-3.286 0.08,-3.125 0.24,-2.484 1.042,-3.046 1.764,-3.206 1.603,-2.484 1.924,-3.046 1.924,-1.683 0.24,-1.042 0,-1.924 -0.401,-1.362 3.286,-4.247 0.321,-0.722 1.202,-3.606 0,-1.924 0.24,-2.885 3.606,-2.725 0.48,-1.683 0.401,-4.809 -0.161,-5.29 0.962,-3.206 1.523,-5.45 0.561,-3.126 0.32,-2.324 0.321,-3.687 1.603,-8.015 2.484,-2.965 -0.32,-4.488 0.08,-2.485 0.722,-1.763 2.243,-3.687 1.042,-3.526 -0.32,-5.049 -0.24,-5.209 0.4,-3.767 0.642,-2.885 1.763,-5.129 1.362,-3.526 0.562,-2.244 0.561,-4.007 -1.282,-3.847 -1.362,-2.004 -0.641,-5.29 -0.321,-3.045 0.401,-4.328 2.083,-1.844 1.122,-0.24 0.802,-1.843 -0.08,-2.004 -0.642,-1.763 -0.24,-1.282 -1.122,-3.847 -0.4,-1.763 -0.24,-1.523 0.16,-1.042 0.641,-1.122 0.161,-0.561 0.881,-0.801 0.802,-1.362 0.722,-2.244 1.122,-0.481 2.083,-1.122 0.802,-0.401 0.562,-0.4 1.522,-0.161 1.202,-0.32 0.882,-0.161 1.282,-0.881 1.202,-0.641 1.362,-0.641 2.084,-0.401 1.522,-1.122 1.603,-0.561 2.004,0 1.924,-0.721 0.641,-0.882 0.321,-1.362 0.4,-1.442 0.24,-1.363 0.802,-0.641 1.122,-0.962 1.122,-0.24 0.561,0.08 0.642,0.882 1.522,1.202 1.042,0.962 1.522,1.042 1.122,0.561 1.523,0.641 1.763,0.401 0.802,0.24 1.282,0.802 0.802,1.042 0.881,1.442 2.646,4.889 0.641,0.081 0.802,-0.802 0.721,-1.122 1.202,-0.961 0.802,-0.962 1.042,-0.801 1.603,-0.481 0.802,-0.16 1.442,0.16 1.122,0.24 1.122,0.16 0.962,-0.801 0.4,-0.08 0.642,-0.481 0.722,-0.481 0.32,-0.16 0.48,-0.24 0.401,-0.241 0.641,-0.4 0.562,-0.161 0.561,-0.08 0.401,-0.08 0.641,0 0.32,-0.08 0.642,-0.241 0.641,-0.24 0.481,-0.32 0,-0.321 0.08,-0.561 0.08,-0.641 0.08,-0.882 0,-2.404 0.08,-1.603 0.24,-1.202 0.722,-0.881 0.962,-0.321 0.962,0.161 0.801,0.4 1.042,0.802 1.282,0.801 1.282,1.122 1.523,0.882 2.164,0.4 1.603,-0.08 1.202,-0.24 1.042,-1.523 0.641,-0.721 0.882,-0.641 1.202,0.16 0.962,0.481 0.722,0.4 0.961,0.321 0.722,0.16 0.32,0 0.401,0.081 0.24,0.08 0.24,0.08 0.4,0.08 0.642,0.24 0.642,0.08 0.24,0.08 0.24,0.081 0.642,0.16 0.4,0.24 0.24,0.241 0.722,0.481 0.561,0.721 0.562,0.721 0.48,0.401 0.32,0.32 0.321,0.241 0.4,0.24 0.4,0.321 0.321,0.24 0.24,0.16 0.32,0.161 0.24,0.16 0.24,0 0.722,0.24 0.48,0.401 0.401,0.16 0.802,0.321 0.881,-0.321 0.802,-0.32 0.32,-0.561 0.16,-0.481 0.241,-0.721 0.48,-0.08 0.561,-0.081 0.481,0.081 0.641,0.08 1.202,0.24 0.962,-0.24 1.122,-0.641 1.764,-1.042 1.362,-0.321 0.962,0 1.603,0.641 2.244,0.802 2.164,0.801 1.924,0.401 1.923,-0.08 0.882,-0.802 1.122,-1.042 0.641,-1.042 0.882,-1.202 0.882,-0.962 0.962,-1.042 0.801,-0.481 1.684,0.321 1.042,-0.08 1.202,-0.561 0.962,-0.401 0.641,-0.24 0.481,-0.08 0.32,0.08 1.362,-0.08 1.042,-0.081 0.642,-1.282 0.801,-1.282 0.481,-1.202 0.24,-0.24 1.362,0.32 0.882,0.241 1.362,0.961 1.042,0.962 1.282,0.24 0.4,-0.24 0.321,-0.641 0.48,-0.321 0.4,-0.961 0.481,-0.481 0.4,-0.401 0.32,-0.801 0.562,-0.16 1.282,0.08 1.202,0 1.042,0 0.962,-0.08 0.721,0.08 0.802,-0.161 0.642,-0.32 0.561,-0.401 0.561,-0.24 0.481,-0.241 0.802,-0.08 1.202,0.08 1.122,-0.16 0.881,0.24 1.202,0.321 0.882,0.641 1.042,1.202 0.561,0.241 0.642,0.16 1.202,0.24 0.642,-0.481 0.801,-0.561 0.401,-0.32 0.641,-0.641 0.722,-1.122 0.48,-0.641 0.16,-0.321 0.401,-0.641 0.641,-0.24 0.481,0.08 0.962,0 1.362,0.24 0.881,0.321 0.882,0.401 0.802,0.24 0.561,0.24 1.122,0.722 0.642,0.16 0.882,0.4 1.202,0.321 2.003,0.401 1.202,0.32 0.722,-0.561 1.282,-0.961 0.642,-0.241 0.48,0.321 0.882,0.561 1.122,0.641 0.962,0.801 2.564,0.641 0.641,-0.24 0.962,-0.321 0.642,-0.16 1.202,-0.481 0.962,-0.4 1.442,-0.481 1.042,-1.763 0.48,-1.683 3.286,0 1.683,-0.641 1.844,0.08 1.202,-0.721 0.722,-1.283 2.484,-0.641 2.564,-1.122 1.923,-0.801 1.202,0 1.122,-0.641 0.962,-1.443 0.882,-1.282 0.48,-0.32 0.962,-0.241 1.122,-0.4 0.882,-0.161 1.282,-0.32 2.164,0 1.282,-0.802 0.642,-0.881 0.961,-0.561 0.401,-0.321 1.763,-1.603 1.764,-1.603 0.4,-0.721 0.562,-1.443 1.442,-1.202 0.561,-0.881 0.481,-0.641 0.32,-0.161 1.042,-0.16 1.362,-0.16 0.962,-0.161 0.24,-0.4 0.562,-1.122 0.4,-0.481 0.32,-0.321 0.4,0 0.401,-0.08 0.721,0.08 0.882,0.081 1.924,0.32 1.202,0 2.324,0.481 0.882,-0.561 1.603,-0.08 1.603,0 0.802,0.24 1.362,0.401 1.924,-0.561 1.202,-0.962 0.32,-1.122 -0.08,-1.042 0,-0.962 0.24,-1.122 0.562,-1.202 1.202,-1.362 1.362,-0.802 1.764,-1.282 1.041,-0.721 0.722,-0.481 2.004,-0.481 1.282,0 0.962,0 1.683,-1.282 1.202,-0.481 0.642,-0.24 0.24,-1.122 0.24,-1.202 0.08,-0.802 -0.721,-1.122 -0.882,-0.561 -0.962,-0.321 -0.802,-1.042 0.401,-1.042 1.202,-0.721 1.042,-1.282 2.564,-1.603 0.962,-0.561 1.041,-0.481 0.882,-0.48 0.722,0 0.882,0.08 0.48,0 0.962,0.08 0.962,-0.08 0.801,0.08 0.562,-0.721 0.561,-0.401 0.642,-0.481 0.4,-0.32 1.042,-1.042 1.202,-0.641 1.604,-1.122 1.041,-0.721 0.802,-0.321 1.362,-0.561 0.802,-0.24 1.924,0 1.683,-0.321 1.522,-0.16 0.962,-1.363 1.362,-1.603 0.882,-1.443 1.122,-1.442 0.4,-1.363 0.241,-1.603 0.641,-2.164 -0.32,-2.164 -1.362,-3.847 -0.882,-5.209 0.641,-4.328 1.684,-3.927 5.209,-5.931 2.485,-1.603 3.285,-3.607 1.523,-2.484 0.48,-3.045 14.186,-6.572 60.109,67.001 10.419,8.575 0.08,0.08 0.721,2.404 0,1.203 -0.561,1.122 -0.16,1.042 1.683,3.126 0.08,0.32 0,1.843 -0.48,4.328 0.16,3.687 0.24,0.882 -0.08,0.641 -1.122,3.446 0,1.683 0.08,0.081 1.042,0.961 0.642,2.004 1.522,4.809 0.722,2.004 0.4,0.48 1.042,0.561 0.802,0.401 1.282,0.561 0.801,0.881 0.722,0.802 0.882,1.683 1.282,1.763 1.202,0.881 0.962,0.08 1.202,1.122 0.16,1.443 0.48,1.442 0.08,0.962 0.241,0.721 0.32,0.962 0.32,1.202 0.562,2.645 0.24,2.405 -0.481,3.526 -0.961,1.202 0,0.08 -0.241,1.683 -0.16,2.164 -0.641,0.561 -0.321,1.122 -0.641,0.802 0.16,2.404 -0.561,1.202 0.08,1.763 -0.161,1.442 -0.32,0.962 0,0.881 0.802,1.924 -0.722,1.202 0,0.481 0.562,0.881 1.042,2.885 -0.241,1.442 -1.763,0.882 -1.684,0.641 -0.961,1.363 -1.042,2.564 -0.562,2.564 -0.641,2.645 0.16,2.484 0.641,2.244 0.161,2.404 -0.081,0.481 -0.561,1.683 -0.722,2.083 -0.32,7.053 0.4,3.286 2.806,3.526 1.683,2.725 0.401,2.324 2.484,1.603 2.324,4.969 1.362,5.209 0.4,0.962 1.202,2.725 0.962,2.004 1.042,1.202 0,0.561 -0.562,1.442 0.081,0.481 4.007,3.206 0.24,0.32 2.645,5.45 1.203,2.084 2.083,2.885 0.722,3.286 0.16,2.003 0.24,5.37 0.562,2.725 1.282,7.854 0,0.561 -0.562,1.683 0.802,1.122 3.687,1.523 0.24,1.362 0.722,6.171 -0.24,1.442 1.522,3.366 0.08,0 3.046,6.892 1.042,2.164 0.721,1.122 0.321,3.848 2.003,4.567 0.722,1.523 1.442,1.763 0.32,1.282 -1.122,3.768 0.321,1.843 2.484,2.725 0.641,0.882 0.321,1.202 1.122,0.882 0.962,1.522 0.16,1.282 0.48,0.962 0.722,0.562 2.003,0.48 2.324,0.642 1.924,0.16 1.844,-0.24 1.683,0.48 1.683,1.362 2.324,2.966 0.081,0.48 0.801,0 0.962,-0.721 0.722,0.16 0.561,-0.16 0.642,-0.481 1.362,0 0.641,0 1.202,0.08 2.646,1.202 0,1.684 0.721,1.362 0.321,2.084 0.16,0.881 2.564,1.122 1.844,-1.362 1.843,-0.48 2.966,0.08 1.603,0.721 1.362,1.202 0.562,1.203 -0.08,3.205 0,0.962 0.561,2.084 -0.08,2.324 0.48,1.122 1.363,4.087 1.603,2.084 2.564,2.886 0.642,1.603 0.32,1.522 -0.4,3.446 0.801,2.084 0.161,1.362 0.961,3.526 0.321,1.684 0.08,1.202 0.16,2.404 0.32,0.962 1.442,2.564 2.004,2.404 0.802,1.442 -0.08,0.562 -1.282,2.885 0.24,1.683 1.122,1.604 0.08,0.48 0.16,1.202 2.645,2.484 3.606,2.806 0.962,1.362 0.882,2.886 1.442,1.202 0.882,1.683 0.48,1.362 1.604,0.802 1.442,2.404 1.924,1.282 0.4,0.561 1.282,1.042 2.164,0.642 1.282,1.683 0.882,1.282 1.122,1.443 0.08,0.721 0.48,2.886 0.481,4.809 -0.642,1.924 -0.642,1.442 0.161,0.561 0.32,0.642 0.722,0.882 1.843,1.603 0.481,3.446 0.32,1.442 0.32,0.642 2.645,1.763 6.092,-0.48 3.205,0.4 2.404,0.882 1.523,1.202 0.881,1.282 3.046,1.282 4.328,2.564 0.721,0.16 2.244,-0.48 4.809,-1.683 1.764,0.561 2.564,1.442 1.522,0 0.882,2.404 0.481,0.642 0.801,0.722 0,0.561 0.401,1.122 0.801,-0.24 0.481,-0.24 0.641,0.32 1.202,0 1.604,0.48 3.606,1.924 0.48,0.16 0.962,0.08 1.202,1.924 -0.48,2.805 -1.202,1.764 -4.89,-0.16 -3.847,2.324 -1.282,1.522 -0.48,0.962 1.122,2.164 0.641,2.003 0.481,1.443 1.763,0.881 2.725,0.321 0.321,0.24 0.4,0.32 0.24,0.802 0.08,0.721 -0.641,0.802 -4.088,2.645 -0.561,0.321 0.08,0.881 0.4,0.882 1.122,1.442 0.642,0.722 0.641,0.882 1.122,0.561 1.522,0.481 1.764,0.16 4.568,0 3.286,1.603 1.923,2.404 1.363,2.564 2.003,2.966 3.366,2.564 1.122,0.882 0.802,1.122 0.4,0.962 -0.16,0.641 -1.603,4.088 0.4,2.564 0.4,0.48 4.328,0.962 0.882,0.481 3.125,1.522 1.684,0.16 1.282,0.561 1.442,0.882 0.802,1.523 0.48,2.885 -0.08,4.729 0.08,1.683 0.321,2.164 0.48,0.962 0.722,0.562 0.961,0.24 1.122,-0.4 0.722,-0.401 1.362,-0.962 5.13,-2.564 0.4,-0.08 2.404,-0.32 0.962,0.32 2.324,3.286 1.042,2.805 0.721,0.802 0.481,0.08 1.442,0.32 0.802,0.642 0.32,0.561 0.32,1.523 0.481,0.721 0,2.404 0.32,3.126 0.722,1.042 0.641,0.641 2.966,1.363 1.923,1.362 1.684,2.164 0.32,1.042 0.48,1.041 -0.24,1.363 -0.561,1.122 -0.962,2.564 -0.16,1.923 -0.321,1.283 -0.721,1.683 -0.962,0.48 -3.767,1.684 -2.404,0.32 -1.122,0.642 -0.401,1.442 -0.801,1.362 -1.202,0.4 -1.042,0.241 -4.889,1.923 -1.443,1.122 -0.4,1.202 0,0.08 0.16,1.363 1.282,1.683 0.802,2.164 1.764,3.206 0.721,2.404 -0.32,1.603 -0.642,0.882 -2.564,0.962 -0.4,0.881 0.08,2.646 0.16,1.202 0.802,1.282 1.522,1.042 0.802,1.042 2.404,5.369 0.961,3.526 1.684,2.084 3.206,2.324 0.48,0.48 1.684,3.768 -1.122,3.687 -1.443,1.442 -3.125,3.767 -0.802,1.522 1.522,2.084 1.362,1.844 -0.08,9.057 -0.08,0.641 -1.282,1.282 -0.24,-0.08 -4.007,0.802 -0.481,1.683 0.562,2.004 -2.324,4.648 -4.568,0.562 -5.53,3.045 -4.408,4.328 -0.962,0.802 -5.609,4.567 -0.401,0.321 -1.042,1.603 0,2.966 0.481,2.164 0.561,3.285 0,0.882 -0.721,0.642 -0.802,0.24 -2.645,-0.882 -3.046,-0.48 -4.488,-0.241 -3.206,1.443 -0.721,0.561 -1.844,5.05 -0.16,1.041 2.404,3.366 0.24,0.562 0.321,2.805 -0.321,0.722 -2.645,4.328 -0.641,0.641 -2.485,1.442 -0.721,0.321 -0.962,0.16 -2.244,0.32 -1.843,-0.32 -2.084,0.962 -4.248,0.32 -6.492,8.655 -1.282,3.767 -0.08,7.214 -4.729,3.526 -0.24,0.561 -3.687,6.973 -0.24,7.534 1.843,3.285 -1.282,2.084 -6.011,12.903 -1.683,2.564 -0.161,1.443 0.722,2.965 1.442,2.324 2.084,2.484 1.683,2.966 0.882,4.969 2.886,1.522 9.938,5.37 4.408,13.625 1.042,5.129 -0.16,0.882 -0.642,2.244 -0.561,1.683 -1.042,0.962 -0.32,3.446 -0.722,1.122 -1.202,2.805 -9.858,7.214 -0.961,3.927 -4.648,5.69 -0.321,1.042 0.962,4.007 1.042,3.126 0.962,3.206 2.885,-0.802 1.684,-0.642 2.004,3.526 0.08,1.042 0.561,1.122 0.722,2.646 0.962,2.163 0.24,1.764 0.561,5.45 -1.923,2.083 -0.642,0.962 -5.53,8.335 -4.007,6.893 -3.046,5.771 37.829,2.244 0,0 7.693,18.834 5.45,12.743 2.645,5.61 0.16,2.404 0.161,0.4 0.961,1.764 0.321,0.802 0.641,1.122 0.401,1.202 0.881,2.003 0.962,1.764 2.084,2.564 1.362,1.924 0.48,2.164 1.523,5.529 0.08,2.726 7.693,8.655 1.604,0.962 1.522,0.48 0.882,0.642 0.32,0.32 -1.042,7.373 0.321,1.122 0.4,0.562 1.924,1.202 2.564,1.202 4.729,1.844 2.164,0.961 3.285,2.646 3.446,4.247 1.295,1.282 z"
       inkscape:connector-curvature="0"
       class="DEP_13 ZON_04" /></g></svg>