<?xml version="1.0" encoding="UTF-8" standalone="no"?>
<!-- Generator: Adobe Illustrator 19.2.0, SVG Export Plug-In . SVG Version: 6.00 Build 0)  -->

<svg
   xmlns:dc="http://purl.org/dc/elements/1.1/"
   xmlns:cc="http://creativecommons.org/ns#"
   xmlns:rdf="http://www.w3.org/1999/02/22-rdf-syntax-ns#"
   xmlns:svg="http://www.w3.org/2000/svg"
   xmlns="http://www.w3.org/2000/svg"
   xmlns:sodipodi="http://sodipodi.sourceforge.net/DTD/sodipodi-0.dtd"
   xmlns:inkscape="http://www.inkscape.org/namespaces/inkscape"
   version="1.1"
   id="SvgMunicipio"
   x="0px"
   y="0px"
   viewBox="0 0 950.7 999.9"
   style="enable-background:new 0 0 950.7 999.9;"
   xml:space="preserve"
   inkscape:version="0.91 r13725"
   sodipodi:docname="MUN_ID1307.svg"><metadata
     id="metadata10"><rdf:RDF><cc:Work
         rdf:about=""><dc:format>image/svg+xml</dc:format><dc:type
           rdf:resource="http://purl.org/dc/dcmitype/StillImage" /></cc:Work></rdf:RDF></metadata><defs
     id="defs8" /><sodipodi:namedview
     pagecolor="#ffffff"
     bordercolor="#666666"
     borderopacity="1"
     objecttolerance="10"
     gridtolerance="10"
     guidetolerance="10"
     inkscape:pageopacity="0"
     inkscape:pageshadow="2"
     inkscape:window-width="665"
     inkscape:window-height="480"
     id="namedview6"
     showgrid="false"
     inkscape:zoom="0.2360236"
     inkscape:cx="475.35001"
     inkscape:cy="499.95001"
     inkscape:window-x="0"
     inkscape:window-y="0"
     inkscape:window-maximized="0"
     inkscape:current-layer="svg" /><g
     id="g3"><path
       id="MUN_1307"
       d="m 671.3,34.3 116.1,97.2 103.3,232.1 -11.6,87.3 -14.1,107.4 -0.2,4.9 -5.3,33.2 -6.3,25.8 3.8,11.4 3.2,8.7 1.3,10.4 0.2,9.3 -2.5,6.6 -3,7 -2.8,10.2 -2.5,9.7 1.7,10 2.8,7 4.9,5.9 13.3,8.3 7.8,5.3 7.4,6.1 8,7 8.9,8.1 6.1,2.8 0.9,5.3 0.4,8.3 1.7,6.6 1.7,7.8 1.5,6.1 -1.7,5.5 -1.5,6.6 -2.1,5.9 0,7.8 2.5,5.3 0.6,8.5 2.8,5.5 2.5,1.5 33.9,148.3 -1.9,-1.5 -9.3,-7.6 -7.2,-4 -5.3,-3 -6.4,-0.6 -6.8,0.2 -6.3,0.2 -5.3,1.1 -6.1,5.3 -4.7,0.8 -3.8,5.5 -3.4,6.8 -3.6,6.8 -5.9,4.7 -5,0 -6,-1.7 -4.4,-3.8 -3.8,-4.4 -3.4,-4.2 -8.1,-4.4 -5.5,-2.8 -7.8,-2.1 -7.4,-3 -3.2,-2.3 -9.5,-2.1 -6.4,-0.6 -10.4,0.4 -6.3,0.4 -6.8,-1.5 -5.7,-1.9 -6.6,-2.8 -5.9,-1.1 -8,0 -5.7,0 -7.8,1.1 -8.1,4.4 -7.8,2.7 -6.8,1.3 -6.3,1.9 -5.9,-0.8 -6.6,-0.4 -5.3,0 -5.5,1.1 -6.3,2.1 -7.4,0 -7.6,0.2 -6.3,0.6 -9.3,3 -4.5,2.1 -4,3.8 -4.7,1.5 -5.7,0.9 -6.1,0.6 -5.5,-0.8 -5.5,-1.1 -12.5,-2.3 -10.4,-3.4 -6.1,-1.1 -8.1,-2.1 -7.2,-1.9 -8,-3.2 -6.4,-3.6 -4.5,-6.3 -6.4,-6.6 -9.3,-5.7 -8.9,-4.2 -13.3,-6.3 -12.1,-4.4 -3,-2.3 -2.7,-2.8 -2.1,-4.5 -1.9,-5.3 -0.8,-3.4 -1.7,-4 -1.5,-4 -1.3,-3.2 0.8,-4 0.4,-4.5 -0.9,-3.2 -0.4,-3.4 -1.9,-5.3 -3.2,-3.8 -6.8,-8.7 -3,-6.1 -2.7,-4.4 -3.8,-3.6 -3.2,-0.9 -5.1,-0.4 -6.6,-0.2 -4.4,0 -4.1,0 -4.7,0.6 -4.2,1.1 -5.1,1.3 -3.8,1.9 -3.2,1.1 -4.2,0 -3.6,-0.4 -4.9,-0.4 -3.6,-2.1 -3,-1.3 -2.1,-1.5 -4,-4 -7.8,-8.1 -7.6,-9.1 -4.4,-8.7 -3.4,-8.1 -3.2,-4.2 -9.5,-4.4 -4.2,-4.7 -5.9,-5.9 -6.1,-5.7 -7.4,-2.3 -8.7,-1.9 -14.8,-13.6 -5.3,-2.7 -8.5,-1.7 -3.4,-2.7 -6.3,-4.5 -8.9,-3.6 -7.2,-4.7 -5.7,-10 -2.1,-2.5 -4.7,-2.7 -11.6,-5.7 -8.7,-11.2 -8.3,-10.2 -7.2,-9.1 -21.6,-19.3 -11,-10.8 -8.9,-9.9 -11,-11.9 -7,-8 -5.7,-11.4 -4,-10.2 -3.8,-10.4 -5.5,-9.9 -4.7,-11 -2.8,-8.7 -3.2,-5.5 -4.2,-5.3 -2.3,-2.5 -5.3,-6.4 -8.1,-2.7 -7,-3.8 -4.5,-4.5 -7.8,-5.1 -4.2,-7.6 -1.1,-8.1 -0.6,-10.4 -0.8,-8.1 -0.9,-7.8 -1.5,-6.8 -1.7,-4.5 -4.4,-4.5 -5.3,-1.9 -8.3,-3 -5.5,-3 -4,-4.4 -0.2,-2.5 0.6,-6.6 2.5,-6.1 -4.7,-5.7 -10.4,-10.2 -2.3,-2.1 -8.1,-7.6 -0.6,-5.1 -2.1,-5.9 -4,-7.2 -3,-5.1 -0.6,-5.1 -2.5,-7.6 -3.6,-7 -4.4,-5.5 -5.1,-4.4 -10.2,-12.6 56.1,-10 237.8,-43 0.2,-1.3 3.6,-212.8 1.7,-18.8 -2.8,-7.8 L 290,49.4 283.9,33.7 276.7,14.2 271,0 l 14.6,0 33,0 22.4,0.2 53.6,0.2 16.3,-0.2 26.3,0.4 20.8,0 19,0 10.2,0 6.3,1.1 21.6,4 0.8,0.2 6.4,1.1 2.1,0.2 4.4,0.9 4.2,0.8 3,0.6 4.4,0.8 3.2,0.6 6.4,1.1 1.7,0.2 2.7,0.6 4.7,0.9 2.7,0.4 2.7,0.6 2.8,0.6 3.6,0.8 4.2,0.6 5.3,0.9 2.5,0.6 5.7,0.9 1.5,0.4 5.7,0.9 1.9,0.4 4.4,0.8 2.9,0.4 5.1,0.9 2.5,0.6 3.6,0.6 2.8,0.6 4,0.6 2.7,0.6 5.1,0.9 3.2,0.6 1.3,0.4 2.5,0.4 3.8,0.8 2.1,0.4 2.8,0.6 2.1,0.2 2.1,0.4 1.7,0.2 2.1,0.6 2.5,0.4 3.8,0.8 1.7,0.4 2.1,0.4 1.5,0.2 1.5,0.4 1.7,0.2 2,0.1 z"
       inkscape:connector-curvature="0"
       class="DEP_13 ZON_04" /></g></svg>