<?xml version="1.0" encoding="UTF-8" standalone="no"?>
<!-- Generator: Adobe Illustrator 19.2.0, SVG Export Plug-In . SVG Version: 6.00 Build 0)  -->

<svg
   xmlns:dc="http://purl.org/dc/elements/1.1/"
   xmlns:cc="http://creativecommons.org/ns#"
   xmlns:rdf="http://www.w3.org/1999/02/22-rdf-syntax-ns#"
   xmlns:svg="http://www.w3.org/2000/svg"
   xmlns="http://www.w3.org/2000/svg"
   xmlns:sodipodi="http://sodipodi.sourceforge.net/DTD/sodipodi-0.dtd"
   xmlns:inkscape="http://www.inkscape.org/namespaces/inkscape"
   version="1.1"
   id="SvgMunicipio"
   x="0px"
   y="0px"
   viewBox="0 0 1000 647.1"
   style="enable-background:new 0 0 1000 647.1;"
   xml:space="preserve"
   inkscape:version="0.91 r13725"
   sodipodi:docname="MUN_ID1304.svg"><metadata
     id="metadata10"><rdf:RDF><cc:Work
         rdf:about=""><dc:format>image/svg+xml</dc:format><dc:type
           rdf:resource="http://purl.org/dc/dcmitype/StillImage" /></cc:Work></rdf:RDF></metadata><defs
     id="defs8" /><sodipodi:namedview
     pagecolor="#ffffff"
     bordercolor="#666666"
     borderopacity="1"
     objecttolerance="10"
     gridtolerance="10"
     guidetolerance="10"
     inkscape:pageopacity="0"
     inkscape:pageshadow="2"
     inkscape:window-width="682"
     inkscape:window-height="480"
     id="namedview6"
     showgrid="false"
     inkscape:zoom="0.36470408"
     inkscape:cx="500"
     inkscape:cy="323.54999"
     inkscape:window-x="0"
     inkscape:window-y="0"
     inkscape:window-maximized="0"
     inkscape:current-layer="svg" /><g
     id="g3"><path
       id="MUN_1304"
       d="m 136.2,2.9 25.2,4.5 61.2,6.2 52.2,6.5 16.1,27.6 8.2,15 61.3,33 23.2,7.4 18.6,4.4 25.3,6.3 9.8,2.2 84.6,18.2 116.1,24 31.4,6.6 8.9,2 189.3,40.3 64,15.8 0,0 10.8,0.3 2.5,-0.6 2.4,-0.5 13.1,-0.8 -0.1,4.1 1.3,3.6 2.3,3 1.3,3.8 1.7,0.9 1.5,0.3 0.7,0.1 2.1,1.9 3.8,0.7 3.2,-0.2 1.6,0.5 1.4,-0.4 1.7,0.4 3.5,2.9 2.5,1.8 2,1.9 1.3,1 2.2,0.8 2,2 1.5,2.2 0.5,2.9 1.4,2.4 -1.4,4.1 -2.1,4.6 -1.6,1.1 -0.8,0.4 -0.5,0.1 1,5.4 1.6,1.5 0,0 1.2,1 0,1.3 -0.3,1.3 -1.2,0.3 -1.1,0 -1.2,0.2 -0.8,0.7 -1.4,0.4 -0.3,1.3 1.2,1.2 1,4.4 -0.5,2.1 -1.2,1.3 0.1,1.9 0.6,1.3 1.3,1.3 1.2,0.7 0.5,0.6 -3.1,2.6 -1.3,1.9 -0.2,10.6 -1.2,4.4 -4.2,3.1 -1.3,1.5 -0.9,1.9 0,1.5 0,1.4 0.4,3.7 0.1,0.8 0.1,3.4 -1,3.5 -0.6,1.1 -1.5,2.8 -1.1,1.2 -2.1,1.8 -3.3,2 -0.5,0.4 -1.7,2.2 -2.4,4.5 -3.9,7.9 -1.4,3.3 -0.3,2.8 1.3,4 0.2,7.9 0.9,2 1.8,4.2 1.6,3 0.9,2.6 0.1,1.4 -0.9,0.8 -1,1.2 -2.6,2.6 -3.6,3.5 -0.9,1.8 -0.6,2 0.8,1.9 0.8,2.1 1,2 0.4,2.5 -1.2,2.2 -2.8,1.6 -6.5,3.8 -3.9,2.1 -3.4,1.8 -3,2.2 -4,4 -1.3,1.8 -1.7,3 -0.8,2.9 0.1,3 1.3,1.2 3.2,0 2.3,0.6 5,1.2 6.4,2.7 3.8,2.9 1.1,1.9 1,1.8 2.1,4.6 1.6,5.5 0.2,4.6 1.8,5.1 0.7,5.5 1.1,6.5 0.9,12.1 -6.8,12.7 -2,1.4 -31.4,23.6 -94.6,71.2 -160.5,17.7 -3.4,1.2 -4.9,5.5 -1.1,1.3 -1,1.5 -1.1,0.7 -8.1,5.5 -1.4,1 -0.8,0.4 -1,1.6 -0.4,0.4 -0.4,1.5 -0.8,0.6 -1.3,0.6 -1.6,0.4 -2.9,0.9 -12.9,1 -0.1,-0.3 -3.3,-4 -1.9,-4.5 -3.8,0 -1.9,1.3 -1.4,-5.4 -0.4,1.4 -1.1,1.2 -6.1,-0.9 -5.9,0.2 -3.9,-2 -7.9,-5.7 -1.7,-3.2 -0.6,-0.1 -4.5,-2.9 -5.7,-6 -1.2,-2.3 -1.4,-0.8 -6.2,-8.8 -2.5,-2.7 -0.4,-0.6 -6.5,-6.9 -8.9,-6.5 -8.3,-3.8 -7.8,-5.8 -2,-1.3 -2,-3.1 0,-6.7 -0.1,-8.5 -5.5,-7.4 -1.3,-2.7 -4.5,-4.2 -7.8,-5 -3.2,-3.5 -1.3,-0.8 -68.5,77.7 -18.8,21.2 -1,-1.3 -2.1,-0.8 -1,-1 -0.8,-0.2 -0.7,-0.4 -0.4,-0.6 0.2,-5.1 0,-1.7 -0.4,-1.2 -0.4,-4.2 1.2,-4.1 0.1,-1.6 0.7,-1 0.7,-2.6 1.7,-5.4 0.5,-1 0.5,-1 0.4,-2.6 -0.7,-2 -4,-2.4 -1.2,-1.3 -1.2,-2.1 -0.1,-2.1 0.3,-1.8 1.3,-1.3 3.7,-2.1 1,-4.3 1.8,-5.2 0,-6.1 -1.1,-2 -0.8,-3.9 0.3,-3.9 0.3,-1 1.5,-2.5 1.2,-0.9 0.4,-1.1 0,-3.2 0.2,-1.1 1.2,-2 0.1,-0.8 0.4,-1.3 0,-6 -0.3,-2.2 1.2,-2.6 1,-0.7 1.2,-1.1 0.4,-0.9 1.2,-1.1 0.8,-1.6 0.4,-4.4 -1.4,-2.4 -1.3,-1 -1.3,-0.8 -2.4,-0.4 -2.1,-2 -0.4,-0.8 0.7,-1.7 2,-3.1 3.6,-3.5 2.5,-1.4 1,-2.3 -1.3,-2.3 -2.4,-2.4 -4.4,-2.1 -3.7,-2.2 -2.8,-2.2 -1.1,-2.8 -0.3,-3.1 -2.7,-6.6 0.4,-3.3 3.3,-3 0,-3.1 -2.2,-1.3 -2.4,-1 -5.1,-2.4 -0.9,-1.3 -0.6,-2.9 -1,-4.7 0,-3.6 1.2,-6.3 -2.8,-3 -2.6,-4.7 -1.8,-4.9 -0.1,-1.8 0.1,-0.8 -1.5,-0.7 -2.5,-3.8 -0.4,-1.1 -0.7,-2.3 -0.3,-2.2 0.8,-1.4 2.1,-1.4 2.3,-0.5 3,-1.6 -0.1,-3.5 -1.2,-3.2 0.2,-3.8 1.4,-3.5 2.2,-2.7 3,-3.7 1.4,-6.4 1.3,-10.8 -2.1,-5.8 0.1,-0.7 0.6,-0.7 -0.4,-1.5 1,-1.6 -0.3,-2.1 -1.4,-2.5 -0.4,-1.4 -3,-0.4 -1.3,-0.1 -2.9,-1.3 -2.1,-1.3 -2.8,-1.3 -0.3,-2.1 -0.3,-0.2 0.1,-0.5 -4.7,-2.7 -2.2,-1 -2.6,-2.9 -7.6,-1.5 -3.5,2.3 -10.2,-1.9 -6.8,-2 -3.8,-2.6 -3.2,-3.8 -3.2,-3.7 -4.9,-2.2 -6.4,-2.5 -5.4,1.2 -5.8,2 -4.3,1.8 -4.6,-3.7 -79.6,-12.8 -8.9,-1.4 -56.7,6.1 1.4,-8.8 -16.8,-82 -0.8,-1.3 -1.5,-0.4 -0.4,-0.1 -2.1,-1.4 1.8,-1.7 -1.3,-3 -0.8,-1.3 -0.4,-1.9 -4.7,-1.5 -2.9,0.9 -0.4,-0.1 -3.3,-1.7 -0.4,-0.2 0.2,-2 -1.3,-0.5 -2,-0.4 -1.6,-1.5 -3.9,-2.1 -0.1,-21.5 -0.4,-4 -7.5,-7.2 -13.7,-2.1 L 91,167.5 82.9,170 64.7,171.5 56,171 38.3,174 37.9,163.8 35.3,157.7 26.7,149.5 0,127.7 l 3.8,-0.5 1.7,-1.2 1.2,-1.1 1.9,-3 0.9,-1.1 3,-3.4 1.4,-4.4 0.4,-2.2 0.6,-3 0.6,-1.4 1.8,-3 0.1,-1.8 -0.2,-3.6 0.5,-4.4 0.6,-5.2 0.3,-1 0.2,-1.3 0.6,-3.2 -0.7,-5.6 0,-4.5 -0.1,-2.1 0.4,-2.5 1.7,-3.2 2.5,-4.1 -0.2,-1.1 -0.4,-1.3 0.4,-1 1.3,-1.1 2.5,-0.4 0.5,-0.3 0.8,-0.3 1.4,-0.6 3,0 4.7,-3.2 2.7,-3.2 0.6,-2 1.3,-2.1 3.7,-2.9 2.3,-1.6 0.4,-1 0,-0.2 0.2,-0.8 33.3,-21.1 9.6,-6.4 15.5,-10.3 29.4,2.9 z"
       inkscape:connector-curvature="0"
       class="DEP_13 ZON_04" /></g></svg>