<?xml version="1.0" encoding="UTF-8" standalone="no"?>
<!-- Generator: Adobe Illustrator 19.2.0, SVG Export Plug-In . SVG Version: 6.00 Build 0)  -->

<svg
   xmlns:dc="http://purl.org/dc/elements/1.1/"
   xmlns:cc="http://creativecommons.org/ns#"
   xmlns:rdf="http://www.w3.org/1999/02/22-rdf-syntax-ns#"
   xmlns:svg="http://www.w3.org/2000/svg"
   xmlns="http://www.w3.org/2000/svg"
   xmlns:sodipodi="http://sodipodi.sourceforge.net/DTD/sodipodi-0.dtd"
   xmlns:inkscape="http://www.inkscape.org/namespaces/inkscape"
   version="1.1"
   id="SvgMunicipio"
   x="0px"
   y="0px"
   viewBox="0 0 975.3 999.9"
   style="enable-background:new 0 0 975.3 999.9;"
   xml:space="preserve"
   inkscape:version="0.91 r13725"
   sodipodi:docname="MUN_ID1302.svg"><metadata
     id="metadata10"><rdf:RDF><cc:Work
         rdf:about=""><dc:format>image/svg+xml</dc:format><dc:type
           rdf:resource="http://purl.org/dc/dcmitype/StillImage" /></cc:Work></rdf:RDF></metadata><defs
     id="defs8" /><sodipodi:namedview
     pagecolor="#ffffff"
     bordercolor="#666666"
     borderopacity="1"
     objecttolerance="10"
     gridtolerance="10"
     guidetolerance="10"
     inkscape:pageopacity="0"
     inkscape:pageshadow="2"
     inkscape:window-width="682"
     inkscape:window-height="480"
     id="namedview6"
     showgrid="false"
     inkscape:zoom="0.2360236"
     inkscape:cx="487.64999"
     inkscape:cy="499.95001"
     inkscape:window-x="0"
     inkscape:window-y="0"
     inkscape:window-maximized="0"
     inkscape:current-layer="svg" /><g
     id="g3"><path
       id="MUN_1302"
       d="m 671,-5.4 26.6,28.3 9.4,-0.3 3.9,0.4 1.5,0.5 2,-1.1 2.3,0.3 2.9,0.2 6.3,0.5 3.3,1.1 3.9,1 4.2,1.5 2.1,1.6 4.5,2.7 4.1,1.5 2.8,2.3 2.2,2.1 4.5,2.5 3,1.7 2.1,1.3 2.4,0.3 3.5,0.1 2.5,0.5 1.8,1.2 1.6,1.4 2,0.7 5.3,8.5 1.2,3 3.5,5.8 3.2,6.1 -1.8,6.8 -2.9,5.1 -1.8,5.3 -1,5 0.5,3.9 2,5.4 2.3,3.1 4.7,3.9 3.8,2.3 2.7,1.8 1,2.1 1.2,4.7 2.7,5.1 0.9,5.1 1.5,4.4 0.8,3.7 1.7,4.5 1.5,2.9 1.7,3 2.4,3.2 2.8,2.3 1.5,2.1 1.8,3.2 1.3,1.7 0,2.1 -0.5,1.8 -2.1,1.2 -2.1,0.8 -1.6,0.6 -1.7,0.8 -0.8,1.7 0.2,2.6 1,3.1 1.3,3.1 1.1,1.9 1,3 0.7,2.6 -0.3,3.2 0.8,0.8 0,0.1 1.8,0 3.1,-1.5 4.6,-1.1 3.5,0.1 3.8,0.4 2.2,0.8 2.2,2 2,1.4 1.5,1.7 0.6,0.6 3.1,-0.3 2.1,-0.4 2.5,0.5 3.5,0.2 2.7,-2.2 3.3,-2.1 2.6,-0.2 3.6,3.3 3.6,3.6 2.1,2.1 1.2,1.8 0.1,3.5 -0.7,1.8 -0.2,1.1 0.9,0.5 2.2,0.4 2.5,-2.1 4.3,-2.8 1.3,-0.2 2.8,-2.1 1.5,-0.2 1.1,0.6 1.7,1.7 1.9,1.5 2.1,0.6 2.3,0.6 1.6,0.8 2.2,0.5 2.8,0 3.6,-0.6 2.3,-0.8 1.8,-1 2.2,-1.3 1.8,-0.8 1.9,-0.4 1.9,0.3 3.3,0.7 3.5,-0.5 2.9,-1.6 2.3,0 0.4,0 3.7,0.7 0.8,2.7 2,3.1 3.2,2.5 3.5,1.3 3,2.5 4.9,3.1 2.8,2.4 4,1.9 4.8,3.3 3.8,1.8 1.5,2.2 1.8,3.4 2.9,3.1 4.5,2.8 2.9,2.6 3.1,1.9 3.3,3.5 4.1,4.7 1.4,4.1 1.4,15.4 0.5,167.1 -19.1,41.4 -0.8,-0.2 -3.4,-2.5 -2.6,-1.2 -0.6,-1.3 -2,-0.6 -0.8,0.2 -3.1,-0.1 -5.7,-0.1 -2.2,-1.2 -1.2,0.5 -1,0.8 -1.8,-0.1 -3.1,1.2 -3.8,-0.8 -5.5,-0.5 -1.8,0.8 -1.2,2.2 -2.3,0.9 -0.5,1 -1.6,4.6 -2.8,1.8 -1.6,1.6 -1.4,0.6 -3,3.3 -1.8,3 -0.5,3.8 -4.8,2.3 -0.8,1 0.7,3.8 -1,1.8 0.2,2 -0.8,2.8 -0.9,1.2 -4.1,2.8 -2.1,3.1 -2,3 -1.1,0.9 0,1.5 1,2.4 1.7,2.3 1.6,3.3 0.8,3.1 0.2,1.2 0.2,5.3 1.3,3 2,3.8 0.9,2.8 0.5,4.6 1.5,2.5 2.5,1.5 1.2,1.5 0.5,1.3 -0.3,1.3 -0.4,0 -0.9,0.2 -3.8,-0.7 -3.1,-0.2 3.8,35.7 3.1,29.6 -1.5,55.3 -0.2,3.2 -0.2,0.3 -1.6,0.2 -1.7,0.2 -3.8,-0.2 -2.9,-1.4 -6,-2.5 -3.3,0.5 -1.8,1.1 -2.8,2.5 -2.9,-1.4 -2.2,0.2 -2.2,-1.2 -1.2,-0.9 -1.8,-2.5 -1.7,-1.2 -1.8,-1.8 -0.7,-2.3 -1.2,-1.7 -1.8,-0.7 -4.4,-4.3 -2.3,-1.6 -4.1,-2.2 -2.5,-0.7 -3.1,-0.2 -3,0.6 -7,0.6 -1.9,-2.1 -3.5,-0.3 -1.3,0.2 -2.2,1.3 -2.5,2.5 -2.8,2.1 -2.8,1.4 -1.7,0.5 -2.1,-0.2 -4.8,-1.2 -1.2,0.5 -4.3,4.9 -4.8,2.2 -4.4,1.7 -5.5,1.8 -3.1,1.7 -4.8,1.2 -2.8,1 -1.1,0.6 -2,1.5 -3.1,-0.2 -4.5,-1 -14.4,-0.9 -1.9,0.5 -1.8,1.8 0.2,2.4 1,1.8 3.1,2.1 4.7,2.1 2.8,1 1.1,0.7 0.5,1.3 -1,1.9 -1.5,1.8 -0.7,2.4 -0.7,1.5 -1.1,1.5 -3.7,1.4 -4.7,0.6 -2.6,1.9 -1.8,3 -0.4,5.5 -1.3,3.5 -2.4,2.9 -0.3,0.3 -2.4,0.7 -2,-0.2 -2.2,-0.1 -0.8,0.1 -4.1,1.6 -3.1,2.6 -3.7,2.1 -6.5,-0.3 -1.8,-1.4 -2.5,-1.2 -4.9,0.8 -4,1.6 -1.3,2.5 0.7,1.9 0.4,6.5 -1.2,2.2 -0.3,0.5 -2.3,1.3 -0.7,-0.2 -2.2,-2.2 -1.8,-3.4 -0.5,-0.6 -2.1,0.1 -2.2,0.8 -0.2,0.1 -3.1,1.7 -3.9,2.2 -0.6,0.6 -0.2,1.2 -0.3,1.1 -1.3,2.6 -5,4.2 -2.1,2.2 -2.5,5.8 -0.2,3.4 -0.1,0.6 0.2,1.5 0.1,0.6 -1.2,0.8 -0.6,-0.1 -3,-1.4 -3.2,0.2 -1.2,2.5 -0.2,5.3 1,1.5 0.3,3.1 -0.4,5.6 -0.5,5.1 -0.3,0.7 -4.8,1.9 -1.3,1.2 -1.8,2.1 -0.3,0.4 1.7,0.1 1.5,1.1 2.3,1.2 0.3,0.4 0.8,3.9 0.4,3.5 0.3,1.5 0.1,2.7 0.3,1.5 1,0.6 2.5,1.5 8.4,2.3 2.1,1.2 2.2,2.8 -0.5,3.9 -1.5,3.3 -1.1,1.9 0,3.2 -0.4,3.1 0.8,1.8 0.5,0.5 4.6,1 3.8,-1.7 1.1,-0.2 6.8,0.3 2.2,0.2 3.1,1.4 1.8,0.8 4.9,2.8 4,0.4 3.5,0.5 4,0.7 6.9,1.7 1.8,0.7 4.2,3.1 4.2,2.2 2.7,2.5 1.5,2.1 2.9,3.5 0.9,2.5 -3.6,6.1 0.7,2.6 -0.1,3.5 2.2,3.8 1.8,1.4 7,8.5 2.3,3.1 4.7,2.5 1,0.6 0.5,1.1 0,0.8 -4.1,8.1 -1.6,1.5 -0.8,3.1 1.1,1.3 3.8,1.6 4.8,2.8 -0.2,1.2 -2.8,1.5 -2.4,2.3 -0.1,0.1 -0.3,1.2 -4.1,2.4 -1.8,2.1 -2,5.9 0.3,2.7 -1,2.4 -3.4,2.1 -1.2,2 -3.1,0.2 -4.2,-0.5 -4.7,-1.3 -2.4,-0.7 -0.5,0.8 -0.5,2.1 -0.1,2.2 -3.1,1.1 -1.5,-1.5 -2.1,-0.5 -6.8,2.4 -0.1,3.1 1.3,0.8 1.2,0.2 -0.8,1.4 -2.1,1.5 -1.1,1.2 -3.6,-1.6 -2.2,1.8 -1,4.7 -1.5,0.5 -2.8,2.5 -4.1,-0.5 -3,-2 -0.9,-0.4 -1.5,0.6 -0.8,1.9 -1.8,0.6 0.2,1.5 2,1 0.9,2.3 -1.7,1.2 -3.1,1.3 -1.2,1.3 -1.5,0.5 -1.7,-0.1 -0.2,1.2 -0.9,0.4 -1.7,1 -0.9,2.2 -1.1,1.2 -0.2,0.4 0.5,1.7 -39,12.7 -59.4,-27.8 -1,-0.2 -3.5,-0.5 -74.9,-9.4 -38.4,-7.4 -65,-17.7 0.1,-1.8 0.4,-12.7 -9,-7.8 -16.2,-11.4 -4.7,0.1 -2.5,-1.9 1.9,-42 -16.7,2.6 -70.9,11.2 -19,2.2 -6.2,0.8 -55.8,10 -61.8,-209.9 0.2,-20 0.5,-1.2 0.6,-1.5 0.7,-1.2 1.2,-0.8 1.2,0.5 1.2,0.6 1.5,0.3 1.7,-0.2 0.9,1.2 1.6,0.2 0.8,-1.1 0.7,-1.8 1.5,-1.4 1.4,-1.2 1.2,-1.8 -0.8,-1.5 0,-1.2 -0.2,-1.8 -0.4,-1 -0.2,-0.3 -0.3,-0.4 -0.2,-0.7 -0.2,-1.3 0.6,-2.1 -1.5,-2.1 -1.2,-0.3 -1.8,-3.3 0.9,-1 -0.6,-1.4 0.4,-1.2 -0.6,-2.6 1.3,-2.1 -0.1,-0.5 0.2,-0.8 -0.1,-1 0.1,-0.3 0.1,-0.2 -0.2,-0.4 -0.1,-0.6 -0.4,-0.8 -0.2,-0.4 -0.2,-0.6 -0.2,-0.7 -0.2,-0.6 0.2,-1.2 0,-0.7 0.2,-1.2 0.8,-0.8 -1.3,-8.6 -0.3,-4.2 4.8,-3.5 4.7,-0.5 0.2,-0.4 -0.2,-3.2 2,-3.4 0.1,-1.6 -2.4,-3.1 2.5,-3.7 -0.8,-3.6 1.4,-5.6 1.5,-1.9 -0.3,-1.4 -0.3,-1.3 -0.3,-1.5 -1,-5 1.8,-6.7 1.3,-3 -0.8,-1.2 -1.2,0.1 -3.3,-3.5 1.2,-3.5 -0.4,-0.2 -0.3,-0.3 -0.4,-0.4 -0.4,-0.3 -0.7,-0.3 -0.8,0 -0.8,0.1 -0.8,0 -0.6,0 -0.8,-0.5 -0.4,-0.7 0.4,-0.8 0.2,-0.4 -0.2,-2 -3.2,1.8 -2.8,2.1 -2.2,0.1 -2,-1.5 -2.5,-1.6 -1.9,-2.4 -2.5,-3.1 -4.6,-3.4 -4.8,-3.2 -4.8,-6.8 -2.8,-2.1 -6.4,-3.1 -2.7,-2 -2.1,-0.9 -3.8,-0.8 -3.1,-0.8 -3.5,-1.3 -2.4,-0.4 -3.1,-0.2 -5.1,1 -4.3,1.4 -7.2,1.5 -3,-0.2 -1.2,-1.6 -0.9,-2.3 -1.5,-4.4 -2.5,-4.2 -2.6,-4.1 -2.2,-2.1 -4.8,-4.8 -4.3,-2.1 -4.6,-1.8 -7.7,-2.1 -2.2,-0.7 -3.1,-0.2 -5,-1.1 -2.4,1.5 -4.8,0.7 -5.4,-2.8 -4.8,-3.1 -2,-2.1 0.2,-3.1 -0.1,-2.6 0.3,-2.2 31.1,-6.1 76,-16.6 -90.3,-63.9 1.3,-2.2 2.1,-2.5 5.8,-1.5 2.8,-0.3 14,-0.8 7.9,-0.2 8,0.2 3.1,-0.8 2.7,-1.5 2.9,0.1 11.2,3.9 4,0.8 4.2,1.9 2.2,0.3 3.6,0 1.7,-1.2 1.1,-1.4 0.2,-1.1 -0.2,-2.4 1.8,-2.5 1.8,-0.6 5.1,-1.2 1.8,-0.5 1.3,-1.2 -0.1,-1.1 -0.8,-1.9 -1.9,-2.3 -1.8,-2.7 -0.2,-1.8 0.9,-1.7 2.2,-1.2 1.5,-0.4 3.8,-0.5 4.5,-0.2 8.4,-1.1 6.4,0 0.3,0 3.1,-0.4 3.4,0.2 1.8,1.2 3.9,1.8 4.3,1.2 1.8,0.5 2.7,-1.1 1.8,-0.8 0.9,-0.7 1.6,-2.2 0.2,-8.1 -0.8,-9.6 -0.5,-3.5 -0.5,-4.7 -0.6,-5.4 2.9,-3.3 2.4,-0.4 2.4,-0.3 2.4,-0.4 2,-0.8 0.3,-0.6 0.9,-1.8 1.2,-2.6 1.1,-4.5 1.3,-3.5 -0.4,-5 -1.4,-3.4 -0.8,-2.9 0.3,-2.9 1.3,-4.5 2.3,-3.3 3.8,-3.2 4.3,-0.9 4.5,-0.3 3.8,-2.1 2.9,-1.8 0.2,-3.5 -1.2,-2.1 1.5,-2.5 2.7,-2 3.4,-0.8 1.7,0.1 2.6,-0.1 2.1,-0.2 2.7,0.6 3.1,0 1.4,0.8 1.2,1.7 -0.2,2.2 -0.2,2.5 -0.6,2.5 0,1.9 0.6,1.6 1.2,0.4 1.5,-0.8 1.8,0.2 0.9,1.4 0.8,1.5 1.3,1.6 0.2,2.2 1.2,1.7 0.8,2 1.1,1.5 2.7,0.1 2,-0.5 1.7,-1.8 1.9,-0.6 1.8,-0.5 3.8,1.1 1.6,1.8 3.5,0.9 0.9,1.1 1.2,1.3 1.4,2.1 0.2,2.1 1.5,0.7 1.9,0 1,-0.8 1.9,-0.8 1.3,-1 -0.5,-2.3 -1.2,-2.9 -1.3,-3.3 -1.2,-3.1 0.7,-2.4 0.8,-2.2 0.8,-2.1 -0.7,-2.2 -2.1,-1.5 -2.7,-0.4 -3.3,0 -3.1,-0.5 -1.8,-2.4 -0.8,-2.2 0.8,-2 2.8,-1.3 2.2,-0.5 3.2,-1.5 2.7,0 3.1,-0.6 2.8,-0.3 2.3,0 1.6,-1.3 1.5,0.5 1.5,1.2 2.1,0.8 0.5,1.5 1.6,1 1.4,0.8 0.9,1.5 1.5,1.4 1.4,0 1.4,1 1.3,3.2 0.9,2.1 1.2,-0.2 1.8,0.6 2,0.5 1.9,0.4 1.6,0 1.7,-0.9 0.5,-1.5 2,-1.2 0.3,-1.7 0.6,-1.9 0.3,-2.1 0.4,-3.6 0.2,-2.7 1.8,-1.1 2,-0.2 2.8,-0.5 2.5,-0.2 3.9,-0.4 1.2,-0.8 1.7,-1.1 4.1,0 3.8,0.1 3.1,0 3.2,0.4 3.7,0.6 2.5,0.4 3.1,1 3.1,0 2.1,1 2,0.2 4.3,-0.4 3.3,-0.1 6.1,-0.1 3.3,-1 2.7,-3 2.7,-1 2.5,0 2.7,1.2 1.4,2.4 1.7,2 2.1,0 3,-1.5 2,-2.1 2.5,-0.5 1.8,0.9 0.9,1.5 -0.2,3.3 0,3.4 0.4,1.8 2.3,1 1,-1.1 1.8,-2.5 1.8,-1.6 3,-0.1 3.4,0.1 2.2,1 1.8,1.8 2.7,0.1 2.1,-1.4 2.7,-1.5 2.6,-1 4.6,1 3.8,0.2 2.3,0 2.3,-0.2 0.5,2.1 0.2,2 0.6,1.5 0.8,1 2.9,0.2 1.9,0.2 1.8,0.6 1.9,0.3 1.9,1.8 0.1,1.6 1.9,0 2,0.4 3.5,0.5 3.1,0 1.6,-1.2 2.1,-0.2 1.5,0.4 0.8,1.8 0.7,1.5 1.5,1.4 4.4,0.2 5.6,-0.2 1.1,-1.3 0.6,-1.5 2.2,0.2 2.1,2.1 2,1.6 2,0.8 1.8,-0.3 1.8,-1.6 2.1,-2.3 1.5,-1.8 0.9,-1 1.3,0.2 0.5,0.8 0.4,0.9 0.3,1.4 0,1.7 -0.3,2 -0.4,1.8 0.2,2 0.1,1.8 -0.3,2.5 0,1.6 0.3,1 1.2,1.3 1.8,1 2.3,0.6 2.7,-0.3 2,0.1 2.5,0.2 1.4,0.6 1.2,0.9 0.8,0.7 0.8,1 1,0.9 0.6,0.4 3.5,-0.8 -0.2,-8.9 -0.4,-8.7 -0.2,-3.9 -2.7,-5 0.5,-5.5 0.7,-9 0.3,-10.3 -2.2,-1.6 -0.8,-1.5 0.8,-3.2 0.2,-2.2 0.1,-2.5 0.6,-2.3 1.6,-1.8 0.3,-1 -0.1,-2 1,-2.2 1.3,-2.1 0.3,-1.7 -0.1,-1.6 -0.3,-1.6 -0.3,-0.8 0.2,-1.6 1,-1.7 0.7,-1.3 -0.2,-1.8 0,-2.3 0.6,-1.2 0.6,-1.8 -0.4,-3.4 -0.2,-3.2 -0.3,-3.2 0,-2.1 0.4,-2.4 0.7,-2.3 0.1,-1.8 -1.4,-2.9 -0.9,-2.1 -1.3,-1.6 -0.1,-1 0.7,-2.5 0.2,-2.1 0.2,-1.2 -2.2,-3 -2.8,-3.4 -2.2,-0.5 -1.5,-0.9 -3.7,-3.8 -4.1,-3 -1.8,-2.1 -1.6,-2.2 -1.2,-2.1 -1,-1.9 -0.4,-1.4 0.2,-2.3 0.2,-1.8 0.9,-2 0.8,-1.5 1.2,-1.2 0.7,-0.8 0.2,-1.1 -0.3,-1.2 -0.3,-1.1 0,-0.3 0.1,-0.2 1.1,-0.8 1.4,-1 1.4,-1.4 0.9,-1.4 0.4,-1.6 0.5,-1.6 0.3,-1.6 0.5,-5.5 -0.4,-1.6 -0.5,-2 -0.2,-2.4 -0.2,-2.1 -0.3,-1.5 -0.5,-0.8 -0.6,-1.6 -0.2,-1 -0.2,-1.6 -0.5,-1.5 -0.2,-1.5 -0.1,-1.4 0.5,-1.2 1.2,-1.8 0.9,-1.5 0.7,-1 0.8,-0.8 0.9,-0.1 1,0.2 0.8,0.5 0.8,0.5 1,0.5 0.9,0.2 0.7,0.3 1,0.1 0.9,0 0.8,0 0.5,-0.5 0.5,-1.5 0.4,-1.3 0.1,-1.7 0.2,-1.8 0.2,-1.2 0.3,-1 0.8,-0.8 0.8,-0.4 1.2,-0.5 1.4,-0.5 1.2,-0.2 1.2,-0.4 0.5,-0.7 0.2,-0.8 -0.2,-1.2 -0.2,-0.8 -0.2,-1.5 0,-1.1 0.8,-1 1.5,-0.6 1.2,-0.8 1.2,-0.4 1,-0.2 1.3,-0.1 1.1,-0.1 1.5,-0.8 2.5,-1.4 1.4,-1 1.2,-0.3 1.8,0 1.6,0 1.5,-0.2 1.3,-1.2 1.2,-1 0.9,-0.8 1.6,-0.8 1.8,-0.8 2.4,3.1 1.2,0.2 1.3,-0.3 4.2,-2.3 2.3,-1.2 2.1,-0.6 1.4,0.1 1.7,0.5 1.2,0.8 1.7,1 1.3,0.6 2.8,0.6 3,0.1 1.5,0.6 4.1,2.4 2.7,-0.2 1.9,-1.1 1.7,-0.7 2.2,-0.3 1.9,0.2 0.9,0.5 1.7,0.5 1.8,0.4 2.5,0.5 2.2,0.1 1.6,0.5 2,0.2 1.4,-0.4 1.7,-0.5 1.4,-1 0.6,-1.2 1.1,-1.3 1.1,-1.2 1.4,-0.3 1.8,0 1.7,-0.1 1.5,-1.4 1.5,-1.2 0.7,-1.5 1.2,-1.9 1.2,-0.6 1.1,-0.8 1.4,-1.6 1.3,-0.9 3.8,0 2,0.2 2.2,0 1.9,0.2 2.6,0 25,-53 0.6,0.5 z"
       inkscape:connector-curvature="0"
       class="DEP_13 ZON_04" /></g></svg>