<?xml version="1.0" encoding="UTF-8" standalone="no"?>
<!-- Generator: Adobe Illustrator 19.2.0, SVG Export Plug-In . SVG Version: 6.00 Build 0)  -->

<svg
   xmlns:dc="http://purl.org/dc/elements/1.1/"
   xmlns:cc="http://creativecommons.org/ns#"
   xmlns:rdf="http://www.w3.org/1999/02/22-rdf-syntax-ns#"
   xmlns:svg="http://www.w3.org/2000/svg"
   xmlns="http://www.w3.org/2000/svg"
   xmlns:sodipodi="http://sodipodi.sourceforge.net/DTD/sodipodi-0.dtd"
   xmlns:inkscape="http://www.inkscape.org/namespaces/inkscape"
   version="1.1"
   id="SvgMunicipio"
   x="0px"
   y="0px"
   viewBox="0 0 1000 995.7"
   style="enable-background:new 0 0 1000 995.7;"
   xml:space="preserve"
   inkscape:version="0.91 r13725"
   sodipodi:docname="MUN_ID1324.svg"><metadata
     id="metadata10"><rdf:RDF><cc:Work
         rdf:about=""><dc:format>image/svg+xml</dc:format><dc:type
           rdf:resource="http://purl.org/dc/dcmitype/StillImage" /></cc:Work></rdf:RDF></metadata><defs
     id="defs8" /><sodipodi:namedview
     pagecolor="#ffffff"
     bordercolor="#666666"
     borderopacity="1"
     objecttolerance="10"
     gridtolerance="10"
     guidetolerance="10"
     inkscape:pageopacity="0"
     inkscape:pageshadow="2"
     inkscape:window-width="665"
     inkscape:window-height="480"
     id="namedview6"
     showgrid="false"
     inkscape:zoom="0.23701918"
     inkscape:cx="500"
     inkscape:cy="497.85001"
     inkscape:window-x="0"
     inkscape:window-y="0"
     inkscape:window-maximized="0"
     inkscape:current-layer="svg" /><g
     id="g3"><path
       id="MUN_1324"
       d="m 665.8,168.3 120.9,44.8 95.4,221.6 104.3,-124.8 -1.4,13.5 -6.9,7.5 -8.2,6.6 -6,6.8 -2.4,8.7 -5.4,4.7 -0.6,7.8 -2.6,8.7 -4.7,4.8 -3.8,7 -7.6,4.3 -5.1,4.5 2.3,1.8 0,0 4.8,2.2 1.8,1 0.5,3.3 -1.9,5.7 -5.1,11.9 -8.9,12.9 -8.3,11.1 -4.2,6.4 -2.4,3.2 -4.2,0.8 -4.1,1.9 -3.4,3.3 -2.2,5.4 5,9.4 2,4.3 0.9,3.6 -0.8,4.2 -1.7,3.1 0,3.2 0.8,3.2 3.8,3.3 2.5,3.8 4.3,5.9 4.1,1.3 4.8,1 5.4,1.7 1.1,1.8 -0.3,2.4 -2,3.7 -3.8,4.3 -5.5,1.4 -5,0.7 -3.4,1.8 0.6,4.1 2.8,3.8 0.9,6.9 -1.7,4.3 -4.6,4.7 -2.3,3.4 0.6,3.6 2.5,3.3 6.4,6.5 1.7,2.2 2.7,3.8 4.2,4.5 5.1,1.1 6.2,-0.9 5,-1.4 2.4,0 0.9,2.4 0.4,7.1 0.6,3.2 4.3,4.1 9.8,9.6 1.7,3.1 0.5,4.2 -0.1,3.2 1.7,3.2 4.5,1.3 5.2,0.9 3.6,1.8 4,1 4.6,-0.4 4.6,-3.1 5.1,-4.5 4,-2.7 1.9,-0.6 2.9,0 2.2,3.2 -0.8,12.6 -0.5,7.3 -2,6.4 -1.5,3.3 0.6,4.2 0.9,4.6 3.2,7.5 3.4,3.7 3.1,3.4 0.1,3.2 -2.2,4.5 -3.8,3.6 -4.5,1.4 -4,0 -2.9,0.4 -4.7,2.3 -2.7,0.9 -3.4,0.1 -3.8,0 -3.7,3.3 -0.6,3.3 1.3,4.5 -0.1,4.1 -2.6,0.9 -5.6,0 -3.3,2 -2,3.2 0.1,6.2 2.7,3.6 3.2,4 1.9,4.6 1.8,4.5 0.4,3.2 -0.3,3.3 -2.3,2.5 -2.2,2.9 0.9,4.8 0.8,5 1.4,9.8 -0.6,4 -2.6,3.1 -3.1,2 -6.9,0 -5.4,-1.4 -5.6,0 -5.7,-0.6 -5.1,0 -7.9,-1 -3.4,-0.3 -4.5,-2.7 -6.4,1.3 -14.9,-18.9 -5.4,-1.3 4.8,19.1 -5.5,1.3 -3.1,1.1 0,1.3 -1.4,-0.4 -1.1,-0.1 -1,-0.3 -1,-0.1 -1.4,-0.3 -1.1,-0.3 -2.5,-0.5 -1.7,-0.3 -1.4,-0.4 -1.1,-0.1 -1.4,-0.3 -1.4,-0.1 -1.9,-0.4 -1.4,-0.3 -2.5,-0.5 -1.7,-0.3 -0.9,-0.3 -2.2,-0.4 -3.4,-0.6 -1.8,-0.4 -2.7,-0.4 -1.9,-0.4 -2.4,-0.4 -1.7,-0.4 -3.4,-0.6 -2.2,-0.4 -2.9,-0.5 -1.3,-0.3 -3.8,-0.6 -1,-0.3 -3.8,-0.6 -1.7,-0.4 -3.6,-0.6 -2.8,-0.4 -2.4,-0.5 -1.9,-0.4 -1.8,-0.4 -1.8,-0.3 -3.2,-0.6 -1.8,-0.4 -1.1,-0.1 -4.3,-0.8 -2.2,-0.4 -2.9,-0.5 -2,-0.4 -2.8,-0.5 -2.9,-0.6 -1.4,-0.1 -4.3,-0.8 -0.5,-0.1 -14.5,-2.7 -4.2,-0.8 -6.9,0 -13.1,0 -14,0 -17.7,-0.3 -11,0.1 -36.1,-0.1 -15,-0.1 -22.2,0 -9.8,0 3.8,9.6 4.8,13.1 4.1,10.6 7.3,19.1 1.9,5.2 -1.1,13.1 -2.4,143.2 -0.1,0.9 -160,28.9 -37.7,6.8 -6,-4.5 -3.6,-0.4 -4,-0.3 -4.5,0.9 -3.6,0.9 -3.3,0.5 -4.3,0.4 -2.8,1 -4,0.3 -5.7,0 -0.9,-0.8 -2.4,-1.1 -1.4,-1.4 -2.2,-1.4 -1.3,-1.3 -1.5,-1.7 -3.3,-4.7 -1.9,-1.4 -1.4,-2.2 -1.1,-1.7 -1.8,-2.3 -1.7,-2.2 -2.9,-2.8 -13.9,-6.5 -12.7,-6.2 -11.3,-8.8 -2,-3.4 -1.8,-8.2 -0.8,-3.8 -1.9,-2.8 -4.3,-1.1 -3.7,-0.6 -1.8,0.3 -2.9,1.9 -4,-0.9 -1.7,-1.3 -4.3,-0.3 -5.6,0.4 -6.6,1.3 -2.9,-0.1 -5.9,-0.3 -6,2.3 -8.5,5 -7.3,4.7 -1.7,3.4 -6.2,2.7 -4.1,1.8 -2.5,1.7 -2.6,1.7 -1.9,2.8 -2,1.5 -3.2,0.6 -3.7,0.3 -3.8,-1.9 -3.4,-1.3 -5,-1 -3.4,-3.6 -5.4,-2.9 -6.5,-1.4 -6.2,-2.2 -7.1,-0.3 -5.4,-1 -5.4,-1.9 -5.2,-3.4 -2,-2.6 -2.8,-5.1 -2,-0.8 -4.6,0.1 -6.2,0 -7,0.8 -3.8,0.3 -4.2,0.4 -3.1,0.5 -2.3,2.2 -3.4,6.9 -12,-151.3 -53,-213.8 -23,-132.9 0.5,-0.3 2.8,-3.3 -0.3,-8.5 -1.5,-5.1 -3.4,-4 -5.9,-3.6 -4,-2.9 -4,-4.3 -2,-4.1 -3.1,-4.5 -1.8,-4.3 -3.1,-7.1 -4,-3.6 -2.7,-2.7 -4.7,-5.1 -2.2,-3.3 -1,-8 0.4,-2.9 0.3,-2.9 2.3,-4.6 4.1,-3.1 8,-2.8 7.3,-0.3 5.7,-2.7 3.6,-1.9 5.1,-5.2 2,-3.3 -1.3,-4.3 -3.8,-2.2 -5.9,-0.5 -4,-1.4 -3.2,-2.4 -2.3,-3.4 -1.3,-3.7 -0.3,-6.1 -0.9,-4.2 0,-3.9 0.9,-3.2 2.2,-1.5 4.1,-0.3 1.7,-0.1 0.8,-1.4 0.4,-1.1 -0.1,-1.5 -0.3,-1.1 -0.6,-0.6 -3.6,-5 -4.1,-4.3 -2.9,-3.2 -1.9,-2.4 -1.9,-2.8 -1.1,-1.9 -0.1,-2.3 -0.9,-2.8 0.3,-2.8 0.5,-2.9 -0.4,-4.2 -3.1,-4 -2,-2.4 -1.5,-2.2 -0.8,-2.2 0,-2.3 0.6,-2.4 1.8,-2.8 1.9,-2.7 1.1,-3.6 1.5,-4.7 1.4,-3.7 0.8,-2.8 1.8,-4.2 1.8,-1.9 1.8,-1.5 3.8,-1 3.4,0.8 4.6,1.4 3.8,0.9 2.7,0 2.2,-0.5 2,-0.6 1.1,-1.4 0.5,-1.8 -1.3,-2.3 -1.5,-1.7 -0.4,-1.5 0.1,-2.3 2.2,-1.4 4.8,-0.8 5.4,-0.1 4.1,-1.1 3.4,-1.9 3.7,-1.3 2.8,0.5 2.6,2.4 0.5,2 1.1,2 2.7,2.5 2.2,1.8 4.1,0.6 3.2,-0.8 2.4,-1.9 4,-1.9 10.5,-0.6 87.2,-6.5 169.1,-12.4 109.8,21 86,-208.3 1.8,2.8 105.5,165.5 z"
       inkscape:connector-curvature="0"
       class="DEP_13 ZON_04" /></g></svg>