<?xml version="1.0" encoding="UTF-8" standalone="no"?>
<!-- Generator: Adobe Illustrator 19.2.0, SVG Export Plug-In . SVG Version: 6.00 Build 0)  -->

<svg
   xmlns:dc="http://purl.org/dc/elements/1.1/"
   xmlns:cc="http://creativecommons.org/ns#"
   xmlns:rdf="http://www.w3.org/1999/02/22-rdf-syntax-ns#"
   xmlns:svg="http://www.w3.org/2000/svg"
   xmlns="http://www.w3.org/2000/svg"
   xmlns:sodipodi="http://sodipodi.sourceforge.net/DTD/sodipodi-0.dtd"
   xmlns:inkscape="http://www.inkscape.org/namespaces/inkscape"
   version="1.1"
   id="SvgMunicipio"
   x="0px"
   y="0px"
   viewBox="0 0 1000 671.9"
   style="enable-background:new 0 0 1000 671.9;"
   xml:space="preserve"
   inkscape:version="0.91 r13725"
   sodipodi:docname="MUN_ID1313.svg"><metadata
     id="metadata10"><rdf:RDF><cc:Work
         rdf:about=""><dc:format>image/svg+xml</dc:format><dc:type
           rdf:resource="http://purl.org/dc/dcmitype/StillImage" /></cc:Work></rdf:RDF></metadata><defs
     id="defs8" /><sodipodi:namedview
     pagecolor="#ffffff"
     bordercolor="#666666"
     borderopacity="1"
     objecttolerance="10"
     gridtolerance="10"
     guidetolerance="10"
     inkscape:pageopacity="0"
     inkscape:pageshadow="2"
     inkscape:window-width="665"
     inkscape:window-height="480"
     id="namedview6"
     showgrid="false"
     inkscape:zoom="0.35124273"
     inkscape:cx="500"
     inkscape:cy="335.95001"
     inkscape:window-x="0"
     inkscape:window-y="0"
     inkscape:window-maximized="0"
     inkscape:current-layer="svg" /><g
     id="g3"><path
       id="MUN_1313"
       d="m 455.6,119.6 4.6,3.6 8.8,-0.1 30.3,21.4 16.8,14.5 -0.7,23.7 -0.1,3.4 121.4,33.1 71.7,13.8 139.9,17.5 6.5,0.9 1.9,0.3 111,51.9 27.1,135.1 5.5,31.4 -11.6,3.6 -133.7,42.5 -51.1,53.8 -37.9,40.6 -78.6,83.6 -62.8,-48.1 -176,57.1 -28.8,9.3 -1.4,0.4 -233.1,-99.3 -134.9,-56.5 1.9,-3.6 -0.7,-4 -1.6,-3.2 -1.3,-3.4 -1.3,-3 1,-3.2 1.4,-2.9 5.7,-5.6 4.2,-4.2 1.6,-1.9 1.4,-1.3 -0.1,-2.3 -1.4,-4.2 -2.6,-4.9 -2.9,-6.7 -1.4,-3.2 -0.3,-12.6 -2.2,-6.5 0.4,-4.4 2.3,-5.3 6.3,-12.6 3.9,-7.2 2.7,-3.6 0.9,-0.6 5.3,-3.2 3.4,-2.9 1.7,-1.9 2.4,-4.4 1,-1.7 1.6,-5.6 -0.1,-5.5 -0.1,-1.3 -0.7,-5.9 0,-2.3 0,-2.4 1.4,-3 2,-2.4 6.7,-5 1.9,-7 0.3,-17.1 2,-3 5.3,-4.3 -0.9,-1 -1.9,-1.1 -2.2,-2.2 -1,-2.2 -0.1,-3 1.9,-2.2 0.9,-3.4 -1.6,-7 -1.9,-1.9 0.4,-2.2 2.3,-0.6 1.3,-1.1 1.9,-0.3 1.7,0 1.9,-0.4 0.4,-2 0,-2 -1.9,-1.6 0,0 -2.6,-2.4 -1.6,-8.6 0.9,-0.1 1.3,-0.6 2.6,-1.7 3.3,-7.3 2.3,-6.6 -2.3,-3.9 -0.9,-4.6 -2.4,-3.6 -3.2,-3.2 -3.6,-1.3 -2,-1.6 -3.2,-3 -4,-2.9 -5.6,-4.6 -2.7,-0.7 -2.3,0.6 -2.6,-0.9 -5.2,0.3 -6.2,-1.1 -3.4,-3 -1.1,-0.1 -2.4,-0.4 -2.7,-1.4 -2,-6.2 -3.7,-4.9 -2.2,-5.7 0.1,-6.6 -21,1.5 -3.9,0.9 -4,1 -17.3,-0.5 0,0 1,-5.2 0.6,-4.9 -0.3,-4.2 0.3,-5.5 1.6,-2.2 1.6,-1.9 1.3,-3.2 0.3,-3.2 1.1,-3 0,-3 0.9,-2 4,-1 2,-2.2 1.1,-1.4 2.6,0.4 1,-1.1 0.9,-1 0.1,-1.1 0.6,-1.1 0.9,-1.3 0.9,-0.4 0.7,-0.7 0.3,-2 0.6,-1.4 0.4,-0.1 1,-0.7 0.4,-0.3 0.1,-1.1 0.1,-1 0.1,-0.9 0.1,-0.7 -0.7,-0.6 -0.7,-0.7 -0.6,-0.7 -0.3,-1.6 -1,-1.1 -1.1,-1.3 -1,-1.7 -0.6,-2.3 -3.2,-3.3 -1.7,-3.4 -1.1,-3.9 0,-3.4 0,-2.3 0.3,-2.9 17.1,-45.3 45.2,-13.1 67.4,-14.2 104.3,-18.6 11.6,-1.4 35.4,-4.2 132.5,-21 31.1,-4.9 -3.6,78.5 z"
       inkscape:connector-curvature="0"
       class="DEP_13 ZON_04" /></g></svg>