<?xml version="1.0" encoding="UTF-8" standalone="no"?>
<!-- Generator: Adobe Illustrator 19.2.0, SVG Export Plug-In . SVG Version: 6.00 Build 0)  -->

<svg
   xmlns:dc="http://purl.org/dc/elements/1.1/"
   xmlns:cc="http://creativecommons.org/ns#"
   xmlns:rdf="http://www.w3.org/1999/02/22-rdf-syntax-ns#"
   xmlns:svg="http://www.w3.org/2000/svg"
   xmlns="http://www.w3.org/2000/svg"
   xmlns:sodipodi="http://sodipodi.sourceforge.net/DTD/sodipodi-0.dtd"
   xmlns:inkscape="http://www.inkscape.org/namespaces/inkscape"
   version="1.1"
   id="SvgMunicipio"
   x="0px"
   y="0px"
   viewBox="0 0 889 1000"
   style="enable-background:new 0 0 889 1000;"
   xml:space="preserve"
   inkscape:version="0.91 r13725"
   sodipodi:docname="MUN_ID1301.svg"><metadata
     id="metadata10"><rdf:RDF><cc:Work
         rdf:about=""><dc:format>image/svg+xml</dc:format><dc:type
           rdf:resource="http://purl.org/dc/dcmitype/StillImage" /></cc:Work></rdf:RDF></metadata><defs
     id="defs8" /><sodipodi:namedview
     pagecolor="#ffffff"
     bordercolor="#666666"
     borderopacity="1"
     objecttolerance="10"
     gridtolerance="10"
     guidetolerance="10"
     inkscape:pageopacity="0"
     inkscape:pageshadow="2"
     inkscape:window-width="682"
     inkscape:window-height="480"
     id="namedview6"
     showgrid="false"
     inkscape:zoom="0.236"
     inkscape:cx="444.5"
     inkscape:cy="500"
     inkscape:window-x="0"
     inkscape:window-y="0"
     inkscape:window-maximized="0"
     inkscape:current-layer="svg" /><g
     id="g3"><path
       id="MUN_1301"
       d="m 703.6,30.6 0.9,3.1 -2.6,6.9 -7.6,9.7 -1.8,10.5 -1.4,11.9 -3.5,13.8 0,6.3 -0.3,8.6 -4.3,9 0.9,18.2 -0.5,11.7 -5.3,12.7 1,7.1 -4.3,6.3 -2.3,9.4 4.6,15.9 -4.7,8.3 2.5,9.7 5.2,8.9 4,8.2 4.5,9.7 2.8,8 18.7,-23.1 1.8,-10 8.6,-10.9 8.2,-12.5 -0.3,-12.9 -0.6,-15 5.5,-9.8 4,1.3 4.2,-4.8 5,-3.8 7.6,-0.7 9.8,-3.7 3.3,-7.4 6.3,-9.1 5.8,-1.3 5.3,-8.1 6.1,-19.3 11.4,-20.6 2.3,-7.5 -1.7,-10.9 68,16.8 -0.8,57.7 -1.2,68.4 2.8,18.4 -0.7,25.1 2.7,6.9 2.6,8.5 2.9,5.9 4.7,4.8 6.8,4.5 3.3,3.4 0.2,0.2 -44.4,186.6 -38.8,199 -104.8,69.4 -125.5,83.5 -3.6,2.5 -40.4,172.9 -217.2,-60.1 -16.5,-5.9 -12,-3.3 -3.6,-9.6 -1.5,-6.8 3.7,-7.2 2.4,-9.8 -2.6,-9.1 -4,-5.4 -6.6,-5.3 -10,-3.3 -5.2,-6.6 -5.8,-4.9 -3,-7.6 -1.9,-6.6 1.3,-6.5 6.2,-6.3 3.6,-8.9 0,-6.2 -3.2,-11.3 1.3,-5.1 5.6,-2.4 5.5,-6.6 1.2,-2.6 2.1,-5.2 2.1,-7.1 -2,-4.6 -2,-6.3 -2.9,-5.3 2.3,-3.2 5.9,-5.6 1.4,-2.7 -3,-10.8 -6.2,-10.6 -0.7,0.2 -106.6,21.7 -34.7,7 -2.2,-8.2 -4.8,-7.3 -6.7,-7.4 -7.5,-9.2 -5.5,-9.2 -5.3,-4.9 -6.7,-1 -3.4,-2.7 -12.4,-5.4 -15.6,-1.3 -31.7,-17.5 -11.3,-10.2 -3.2,-7.1 -5,-15.2 -3.6,-11.5 1.2,-9.7 4,-8.3 4.8,-13 0.3,-7.5 3,-26.6 4.8,-17.1 6,-9.1 6,-5.2 11.6,-4.4 11,-5.4 24.2,-3.3 12.2,1.8 6.5,8.1 6.7,7.6 11.7,8.2 1.2,3.7 0.4,20.9 7.9,7.1 3.8,-0.3 -0.6,-9.4 4.5,-5.4 8,-19.4 12.7,-26.9 17.2,-36.1 3,-17.5 8,-45.7 5.4,-24.2 1.7,-1.4 59.9,-45.3 5.7,-6 24.5,-27.5 5.7,-32.9 3.9,-8.8 1.8,-7.2 -1.4,-4.7 12.7,-59.2 22.8,-49.6 8.5,-0.6 -4.4,-35.9 -2.8,-2.6 -2.6,-6.1 -0.9,-6.8 2.4,-4.8 5.7,-9.7 0.1,-3.6 0.5,-0.6 3.8,-3.7 4,-4.6 3,-1.4 3.5,-0.7 3.4,0.8 3.1,1.3 2.7,0 2,0.1 1.9,-0.9 3.3,-2.7 2.1,-3.4 3.3,-4.7 1.9,-2.5 2.6,-0.7 2.3,0 2.3,0.3 2.4,1.6 5.2,3.3 3.4,1.9 2.6,1.3 3.2,0.1 2.3,0 2.6,-2.2 2.5,-2.2 2.2,-2.8 2.6,-2.1 3.4,-2.6 3.3,-2.2 3.4,-2.4 3,-0.9 3.6,-0.8 3.3,-0.1 3.5,-2.2 3.2,-3.7 7.1,-3.6 3.6,-1.1 2.8,-0.7 3.3,-1.4 3.6,-1.5 3.2,-1.1 3.6,-2 3.7,0 3.5,0 2.3,0 2.3,-1.1 1.7,-1.3 0.7,-2.1 0.9,-3.2 0.6,-4.6 2.4,-4.8 2.4,-2.7 3.9,-1.2 3.2,-0.9 3.1,0.1 3.3,1.3 2.8,1.3 4.3,-0.4 3,-0.4 3,-2.1 3.9,-2.3 3.7,-2.7 3.5,-2 3.9,0.1 4.2,0 5.7,-0.4 2.3,-1.4 1.4,-2.4 1.4,-2 1.3,-1.4 14.2,-4.7 148.6,41.6 z"
       inkscape:connector-curvature="0"
       class="DEP_13 ZON_04" /></g></svg>