<?xml version="1.0" encoding="UTF-8" standalone="no"?>
<!-- Generator: Adobe Illustrator 19.2.0, SVG Export Plug-In . SVG Version: 6.00 Build 0)  -->

<svg
   xmlns:dc="http://purl.org/dc/elements/1.1/"
   xmlns:cc="http://creativecommons.org/ns#"
   xmlns:rdf="http://www.w3.org/1999/02/22-rdf-syntax-ns#"
   xmlns:svg="http://www.w3.org/2000/svg"
   xmlns="http://www.w3.org/2000/svg"
   xmlns:sodipodi="http://sodipodi.sourceforge.net/DTD/sodipodi-0.dtd"
   xmlns:inkscape="http://www.inkscape.org/namespaces/inkscape"
   version="1.1"
   id="SvgMunicipio"
   x="0px"
   y="0px"
   viewBox="0 0 1000 926.6"
   style="enable-background:new 0 0 1000 926.6;"
   xml:space="preserve"
   inkscape:version="0.91 r13725"
   sodipodi:docname="MUN_ID1311.svg"><metadata
     id="metadata10"><rdf:RDF><cc:Work
         rdf:about=""><dc:format>image/svg+xml</dc:format><dc:type
           rdf:resource="http://purl.org/dc/dcmitype/StillImage" /></cc:Work></rdf:RDF></metadata><defs
     id="defs8" /><sodipodi:namedview
     pagecolor="#ffffff"
     bordercolor="#666666"
     borderopacity="1"
     objecttolerance="10"
     gridtolerance="10"
     guidetolerance="10"
     inkscape:pageopacity="0"
     inkscape:pageshadow="2"
     inkscape:window-width="665"
     inkscape:window-height="480"
     id="namedview6"
     showgrid="false"
     inkscape:zoom="0.25469459"
     inkscape:cx="500"
     inkscape:cy="463.29999"
     inkscape:window-x="0"
     inkscape:window-y="0"
     inkscape:window-maximized="0"
     inkscape:current-layer="svg" /><g
     id="g3"><path
       id="MUN_1311"
       d="m 511.7,37 27.4,2.3 21.9,9.5 6.1,4.7 11.8,1.7 9.4,8.7 9.7,16.1 13.2,16.1 11.8,13 8.5,12.8 3.8,14.4 61.1,-12.3 188,-38.2 1.2,-0.3 10.9,18.7 5.2,19.1 -2.4,4.7 -10.4,9.9 -4,5.6 5,9.4 3.5,11.1 3.5,8.2 -3.6,12.5 -3.6,9.2 -2.1,4.5 -9.7,11.6 -9.9,4.2 -2.3,9 5.6,20 0,10.9 -6.4,15.6 -10.9,11.1 -2.3,11.5 3.3,11.6 5.2,13.4 10.2,8.7 9.2,11.6 17.7,5.9 11.6,9.4 7.1,9.5 4.5,16 -4.2,17.2 -6.6,12.7 2.6,12 6.4,16.8 21.2,5.9 29.2,10.4 8.3,9.2 -0.7,9.2 -6.1,7.3 -0.3,8.5 0,7.6 1.9,8 4.3,6.1 3.3,3.6 7.1,5.9 7.6,4.3 4.9,8.2 -0.2,6.9 4.7,8.9 0.2,6.2 2.1,4.3 -2.1,8 -2.4,9.4 -5.7,4 0,1.7 -2.4,6.4 -3.1,3.6 -5.2,2.8 -2.1,4.3 -3.8,6.4 -2.4,6.4 -3.8,4.7 -3.5,4 -5.2,1.6 -5.6,0 -3,1 -3.6,3 -3.5,8.3 -5.7,5.4 -4.2,3.3 -0.5,2.6 1.9,4.9 6.1,6.4 4.3,8.2 -2.4,5.2 -4.7,3 -4,3.8 -3.6,7.6 -1.7,6.9 -5,1 -6.1,-2.6 -9,0.3 -3.1,3.5 -1,5.4 0,6.4 0.9,5.4 4.9,3 3,2.4 -0.7,4.3 -3.5,1.4 0,5.9 -2.4,4 -6.6,3 -8.9,0.7 -2.4,3 -1.2,1 -2.3,6.8 -3.6,2.4 -6.1,0 -3.5,4.5 -4.3,8.5 -0.3,6.8 0.9,6.4 1.9,9 3.5,8.5 1.7,6.8 -1.2,6.2 -3.5,6.9 -1.9,6.6 2.6,8.7 1.4,5.4 -1.7,7.3 -2.8,6.2 -2.6,0.7 -94.8,29.7 -101.9,10.2 -108.3,-16 -128.1,-18.9 -152.3,3.7 -6.4,13.7 -1.9,1.9 -5.7,5.4 -5.2,4.9 -6.2,6.8 -5.9,6.9 -6.1,5 -6.6,3.6 -5.7,0.9 -5.6,1.7 -4,3.3 -6.6,3.1 -7.3,2.8 -5.6,3.5 -94.6,-212.6 -106.4,-89 0,-1.7 4.2,-1.6 7.5,-1.7 -6.6,-26 7.3,1.7 20.3,25.7 8.7,-1.7 6.1,3.6 4.7,0.3 10.8,1.4 6.8,0 7.8,0.9 7.6,0 7.3,1.9 9.4,0 4.2,-2.8 3.5,-4.2 0.9,-5.4 -1.9,-13.4 -1,-6.8 -1.2,-6.6 3,-4 3.1,-3.5 0.3,-4.5 -0.5,-4.3 -2.4,-6.1 -2.6,-6.2 -4.3,-5.4 -3.6,-4.9 -0.2,-8.5 2.8,-4.3 4.5,-2.8 7.6,0 3.5,-1.2 0.2,-5.6 -1.7,-6.1 0.9,-4.5 5,-4.5 5.2,0 4.7,-0.2 3.6,-1.2 6.4,-3.1 4,-0.5 5.4,0 6.1,-1.9 5.2,-4.9 3,-6.1 -0.2,-4.3 -4.2,-4.7 -4.7,-5 -4.3,-10.2 -1.2,-6.2 -0.9,-5.7 2.1,-4.5 2.8,-8.7 0.7,-9.9 1,-17.2 -3,-4.3 -4,0 -2.6,0.9 -5.4,3.6 -6.9,6.1 -6.2,4.2 -6.2,0.5 -5.4,-1.4 -4.9,-2.4 -7.1,-1.2 -6.1,-1.7 -2.3,-4.3 0.2,-4.3 -0.7,-5.7 -2.3,-4.2 -13.4,-13 -5.9,-5.6 -0.9,-4.3 -0.5,-9.7 -1.2,-3.3 -3.3,0 -6.8,1.9 -8.5,1.2 -6.9,-1.6 -5.7,-6.1 -3.6,-5.2 -2.3,-3 -8.7,-8.9 -3.5,-4.5 -0.9,-4.9 3.1,-4.7 6.2,-6.4 2.3,-5.9 -1.2,-9.4 -3.8,-5.2 -0.9,-5.6 4.7,-2.4 6.9,-1.2 7.5,-1.9 5.2,-5.9 2.8,-5 0.3,-3.3 -1.6,-2.4 -7.3,-2.3 -6.6,-1.4 -5.6,-1.7 -5.9,-8 -3.5,-5.2 -5.2,-4.5 -1,-4.3 0,-4.3 2.3,-4.2 1,-5.7 -1.2,-4.9 -2.8,-5.9 -6.8,-12.8 3,-7.3 4.7,-4.5 5.6,-2.6 5.7,-1 3.3,-4.3 5.7,-8.7 11.2,-15.3 12.2,-17.5 6.9,-16.1 2.6,-7.8 -0.7,-4.5 -2.4,-1.4 -6.6,-3.1 0,0 -3.1,-2.4 6.9,-6.1 10.4,-5.9 5.2,-9.5 6.4,-6.6 3.5,-11.8 0.9,-10.6 7.3,-6.4 3.3,-11.8 8.2,-9.2 11.1,-9 9.4,-10.2 1.8,-18.5 70.8,75.7 76.5,-5.6 83.8,-8.9 L 511.7,37 Z"
       inkscape:connector-curvature="0"
       class="DEP_13 ZON_04" /></g></svg>