<?xml version="1.0" encoding="UTF-8" standalone="no"?>
<!-- Generator: Adobe Illustrator 19.2.0, SVG Export Plug-In . SVG Version: 6.00 Build 0)  -->

<svg
   xmlns:dc="http://purl.org/dc/elements/1.1/"
   xmlns:cc="http://creativecommons.org/ns#"
   xmlns:rdf="http://www.w3.org/1999/02/22-rdf-syntax-ns#"
   xmlns:svg="http://www.w3.org/2000/svg"
   xmlns="http://www.w3.org/2000/svg"
   xmlns:sodipodi="http://sodipodi.sourceforge.net/DTD/sodipodi-0.dtd"
   xmlns:inkscape="http://www.inkscape.org/namespaces/inkscape"
   version="1.1"
   id="SvgMunicipio"
   x="0px"
   y="0px"
   viewBox="0 0 999.9 801.3"
   style="enable-background:new 0 0 999.9 801.3;"
   xml:space="preserve"
   inkscape:version="0.91 r13725"
   sodipodi:docname="MUN_ID1317.svg"><metadata
     id="metadata10"><rdf:RDF><cc:Work
         rdf:about=""><dc:format>image/svg+xml</dc:format><dc:type
           rdf:resource="http://purl.org/dc/dcmitype/StillImage" /></cc:Work></rdf:RDF></metadata><defs
     id="defs8" /><sodipodi:namedview
     pagecolor="#ffffff"
     bordercolor="#666666"
     borderopacity="1"
     objecttolerance="10"
     gridtolerance="10"
     guidetolerance="10"
     inkscape:pageopacity="0"
     inkscape:pageshadow="2"
     inkscape:window-width="665"
     inkscape:window-height="480"
     id="namedview6"
     showgrid="false"
     inkscape:zoom="0.29452141"
     inkscape:cx="499.95001"
     inkscape:cy="400.64999"
     inkscape:window-x="0"
     inkscape:window-y="0"
     inkscape:window-maximized="0"
     inkscape:current-layer="svg" /><g
     id="g3"><path
       id="MUN_1317"
       d="m 526.4,74.5 142.8,47.4 4.3,-1.9 121,-51.9 0.3,0 4.8,-0.6 0.8,-1.3 0.5,-1.6 0.6,-1.4 2.5,-0.2 3.3,1.5 5.1,3 1.7,2.5 3,2.5 1.7,0.3 1.6,-0.4 3.6,-0.5 6.3,0.6 6.6,3.8 7.2,-0.1 4.7,1.6 6.7,4.8 0.3,1.8 0.3,0 1.5,1.1 1.5,0.8 2.5,1.5 2.7,1.5 1.9,1.6 1.9,1.8 3.2,2.3 3,0.1 2.4,0.3 2,1.1 3.9,2.3 1.9,0.6 1.3,0.9 0.8,0.8 0.8,0.8 -0.3,1.9 -0.6,2.3 -0.1,2.7 0.6,2.2 1.4,0.9 1.6,0.6 1.9,0 2.2,-0.9 2.2,0 2.5,1.4 1.1,1 1.3,2 1.1,1 1.9,1.5 1.3,-0.3 0.8,-0.5 1.3,0 1.3,0.5 0.4,1.4 0,2.4 -0.5,1.9 -1,1.8 -1.4,1.3 -2.2,1 -1,1.4 -0.9,0.9 0.5,1.1 2.2,0.3 3.9,0.4 1.9,1.1 2,2 2.3,0.6 1.4,0.6 1.9,0.4 3.7,-1.5 0.6,1.6 1.9,7.1 2.2,8.1 1.3,3.2 2,1.9 5.3,-0.4 8.5,-2.2 18,-9.3 1.8,-0.3 7.2,1.3 9.6,2.5 8.4,3.2 4.2,4.7 1.8,4.4 0.9,3.8 -0.4,4.3 -1.3,4.8 -2.7,5.5 -7.6,8.9 -7.2,14.2 -2.9,7.1 -5.3,12.4 -5,7.1 -12.1,18.3 -2,7.5 -0.5,3.8 1.8,4.3 3,3.8 6.5,3.8 13.6,5.8 7.7,2.8 3,-0.5 1.4,2.2 8.8,4.3 2.4,3.8 0.5,6.1 0.5,8.8 0.6,6.6 2.8,9.9 0,5.7 -3.4,5.3 -5,3 -7.5,2.9 -6.9,3.7 -5,2.9 -1.9,1.9 -1.6,2.7 -0.5,4.3 2,4.1 5.3,5.1 2.3,1.5 4.2,-1 11.6,-6.1 3.2,0.5 3.6,3.3 5,14.6 -1.1,2.8 -7.6,6.2 -5.2,0.5 -10.5,6.1 -0.1,0 -4.8,3.4 -8.6,11.6 -6,4.4 -11,-2.9 -24.1,-11.3 -3.8,0 -3.9,3.3 -0.6,2.3 -0.6,6.2 -2.2,6.6 -2,3.4 -2.3,1.5 -3.2,3.9 -4.8,2.7 -18.9,2.9 -22.2,1.5 -3.7,3.2 -1.3,2.4 0,4.3 3.4,6.5 3.7,3.9 0.8,3.2 -1.3,10.2 0.6,23.1 1,6.2 5.2,8.1 3.4,2.9 0.3,3.8 -0.8,1.7 -5.2,3.4 -4.4,1.4 -7.2,5.8 -1.6,6.3 -3.3,12.7 1.9,7.6 5,10.7 0.5,3.3 -0.6,4.1 -1,1.1 -6.7,0 -6.1,-4.6 -7.9,-3.9 -13.2,3.7 -9,7.6 -14,46 -2.5,6.6 -1.8,1.5 -0.3,0.3 -1.7,1.5 -4.8,0.3 -12.9,-0.6 -5.2,-1.8 -6.2,-1.1 -5,4.4 -4.8,1.1 -4.6,3.4 -3.6,1.4 -4.6,4.2 -4.2,2.5 -11,1.1 -12.6,-10.7 -14,-7.2 -14.2,-13.7 -3.7,-1.3 -26.2,6.7 -5.5,0 -7.2,-1.9 -4.2,-1.3 -3.2,-0.9 -35.2,18.7 -5,11.8 -8.1,4.7 -29.3,7.2 -58.4,36.3 -1.9,1.3 -12.2,5.1 -8.8,1 -8,-0.5 -8.9,-1.5 -6.1,0.3 -10.7,3.3 0,6.6 -2.3,1.9 -10.9,2.2 -2.7,-3 -10.3,-11.8 -9.3,-4.1 -11,3.4 -0.6,2.5 -5,27 -2.9,13.5 -3.9,13.8 -5,14.6 -2,18.4 -5,2.5 -7.1,6.2 -1.5,2.8 -8.6,12.9 -1.9,2.2 -2.9,2 -6.6,-2.2 -8,-9.4 -5,-0.6 -15.2,2.2 -4.8,-1.3 -8.1,-2.3 -10.5,-11 -9.8,-5.1 -1,-5 -21.1,-19.2 -14.6,-20.1 -11.2,-17.4 -2.8,-8.9 -1.9,-10 2,-6.9 5,-3.6 5.8,-2.9 9.6,1.9 6.2,3.7 8.4,2.3 10.3,-2.2 4.8,-0.8 0.9,-3.3 -3.6,-5.3 -14.9,-4.7 -6.6,-2.5 -7.6,-5.5 -3.8,-4.1 -6.3,-7.4 -6.3,-9 -10.7,-15.4 -5.6,-9.4 -3.6,-4.7 -1.6,-2.7 -5.1,-1 -4.6,-3.6 -1.1,-3.7 -0.1,-3.4 0.6,-3.4 4.1,-9.3 1.4,-5.5 -0.8,-5.8 -2.9,-5.6 -7.1,0.1 -5.2,1.7 -5.6,-2.7 -4.7,-3.2 -5.2,-1.9 -5.2,-1.3 -2.6,-1.1 -2.5,-2.8 -0.3,-5.2 3.3,-4.2 12.4,0.9 2.9,-2.9 2.8,-3.6 0.5,-0.6 5.6,-8.6 4.8,-6.9 -1,-3.2 -1.6,-3.6 -3.7,-4.6 -3.8,-3.9 -11.3,-8.5 -1.3,-1.1 -2.8,-2.2 -2.8,-2.8 -3.6,-8.1 -1.6,-1.7 -3,1 -2.5,5.5 -3.7,8.3 2,2 2.7,3.7 -0.1,5.7 -7.4,0.4 -9.1,0.8 -2.9,-1 -3.2,-6.3 -0.1,-3.4 -0.4,-3.7 -3.3,-0.6 -2.3,-0.3 -3.6,0.3 -4.4,-0.5 -5.3,-1.9 -4.1,-1 -4.2,-1 -5.2,-1.3 -5.3,0.9 -2.2,-2.9 -0.6,-3.3 -1.8,-1.3 -2.2,0.5 -8.3,1 L 83,495.5 7,290.2 332.9,10.2 526.4,74.5 Z"
       inkscape:connector-curvature="0"
       class="DEP_13 ZON_04" /></g></svg>