<?xml version="1.0" encoding="UTF-8" standalone="no"?>
<!-- Generator: Adobe Illustrator 19.2.0, SVG Export Plug-In . SVG Version: 6.00 Build 0)  -->

<svg
   xmlns:dc="http://purl.org/dc/elements/1.1/"
   xmlns:cc="http://creativecommons.org/ns#"
   xmlns:rdf="http://www.w3.org/1999/02/22-rdf-syntax-ns#"
   xmlns:svg="http://www.w3.org/2000/svg"
   xmlns="http://www.w3.org/2000/svg"
   xmlns:sodipodi="http://sodipodi.sourceforge.net/DTD/sodipodi-0.dtd"
   xmlns:inkscape="http://www.inkscape.org/namespaces/inkscape"
   version="1.1"
   id="SvgMunicipio"
   x="0px"
   y="0px"
   viewBox="0 0 1000.2 833.6"
   style="enable-background:new 0 0 1000.2 833.6;"
   xml:space="preserve"
   inkscape:version="0.91 r13725"
   sodipodi:docname="MUN_ID1320.svg"><metadata
     id="metadata10"><rdf:RDF><cc:Work
         rdf:about=""><dc:format>image/svg+xml</dc:format><dc:type
           rdf:resource="http://purl.org/dc/dcmitype/StillImage" /></cc:Work></rdf:RDF></metadata><defs
     id="defs8" /><sodipodi:namedview
     pagecolor="#ffffff"
     bordercolor="#666666"
     borderopacity="1"
     objecttolerance="10"
     gridtolerance="10"
     guidetolerance="10"
     inkscape:pageopacity="0"
     inkscape:pageshadow="2"
     inkscape:window-width="665"
     inkscape:window-height="480"
     id="namedview6"
     showgrid="false"
     inkscape:zoom="0.28310941"
     inkscape:cx="500.10001"
     inkscape:cy="416.79999"
     inkscape:window-x="0"
     inkscape:window-y="0"
     inkscape:window-maximized="0"
     inkscape:current-layer="svg" /><g
     id="g3"><path
       id="MUN_1320"
       d="m 466.2,3.2 8.2,1.8 6.1,-3.9 3.7,-0.5 7.6,1.3 9,2.4 3.9,5.8 1.6,7.9 3.7,16.9 4.2,7.1 23.4,18 26.3,12.9 28.7,13.4 6.1,5.8 3.4,4.5 3.7,4.7 2.4,3.4 2.9,4.5 3.9,2.9 6.8,9.7 3.2,3.4 2.6,2.6 4.5,2.9 2.9,2.9 5,2.4 1.8,1.6 11.8,0 8.2,-0.5 5.8,-2.1 9,-0.8 6.8,-1.1 7.4,-1.8 9.2,-1.8 8.2,0.5 7.4,0.8 12.4,9.2 14.5,17.9 7.1,6.1 6.1,7.6 5,9.7 3.4,10.5 0.8,7.1 4.2,7.1 5.5,10 2.9,8.2 0.8,7.1 11.3,10.5 3.2,2.9 14.5,14.2 6.6,7.9 -3.4,8.4 -0.8,9.2 0.3,3.4 5.5,6.1 7.6,4.2 11.6,4.2 7.4,2.6 6.1,6.3 2.4,6.3 2.1,9.5 1.3,10.8 1.1,11.3 0.8,14.5 1.6,11.3 5.8,10.5 10.8,7.1 6.3,6.3 9.7,5.3 11.3,3.7 7.4,9 3.2,3.4 5.8,7.4 4.5,7.6 3.9,12.1 6.6,15.3 7.6,13.7 5.3,14.5 5.5,14.2 7.9,15.8 9.7,11.1 15.3,16.6 12.4,13.7 15.3,15 -8.2,6.3 -6.3,1.1 -5.5,3.4 -3.9,3.7 -4.5,5 -1.6,6.6 -2.4,7.1 0.8,5.8 -1.1,4.7 -4.2,3.4 -2.6,3.7 -3.4,5.8 -5.3,7.9 -2.9,12.1 -2.1,9.7 -0.8,7.1 -3.4,2.6 -7.9,3.4 -6.3,10.3 -4.5,5.3 -7.7,5.8 -4.7,2.1 -1.8,1.6 -1.6,5 1.8,6.1 -1.1,3.4 -3.7,1.3 -5.5,-2.6 -4.7,-2.1 -9.7,-0.8 -7.9,0 -5.8,-1.3 -3.2,1.1 -1.3,5.5 -2.6,3.2 -5.5,1.1 -6.3,4.5 -6.8,4.2 -25,12.1 -12.9,1.1 -10.8,-0.3 -7.9,1.6 -9,2.6 -7.9,-0.3 -8.4,1.6 -8.2,5.3 -7.1,3.4 -5,0.3 -4.2,-2.6 -5,-1.3 -5.8,-2.1 -8.2,-0.5 -4.7,-2.6 -3.7,-2.9 -2.4,-1.3 -3.2,1.8 0.8,4.2 0,3.2 -2.4,1.8 -3.2,1.8 -5.5,1.6 -4.5,1.6 -6.3,2.6 -16.3,4.2 -8.2,1.8 -7.6,0.5 -12.1,1.1 -9.7,0.3 -7.6,-1.1 L 477,725.9 433.8,833.6 11.3,443.9 18.1,414.4 91.3,84.8 l 14,-61.1 7.1,-14.2 4.7,-4.5 6.3,-1.1 8.7,-0.8 7.9,-0.5 14.5,-1.6 12.1,0 9.5,-0.3 4.2,1.6 5.8,10.5 4.2,5.3 10.8,7.1 11.1,3.9 11.1,2.1 14.7,0.5 12.9,4.5 13.4,2.9 11.1,6.1 7.1,7.4 10.3,2.1 7.1,2.6 7.9,3.9 7.6,-0.5 6.6,-1.3 4.2,-3.2 3.9,-5.8 5.3,-3.4 5.3,-3.4 8.4,-3.7 12.9,-5.5 3.4,-7.1 15,-9.7 17.6,-10.2 12.4,-4.7 12.1,0.5 6.1,0.3 13.7,-2.6 11.5,-0.9 9,0.5 3.4,2.7 z"
       inkscape:connector-curvature="0"
       class="DEP_13 ZON_04" /></g></svg>