<?xml version="1.0" encoding="UTF-8" standalone="no"?>
<!-- Generator: Adobe Illustrator 19.2.0, SVG Export Plug-In . SVG Version: 6.00 Build 0)  -->

<svg
   xmlns:dc="http://purl.org/dc/elements/1.1/"
   xmlns:cc="http://creativecommons.org/ns#"
   xmlns:rdf="http://www.w3.org/1999/02/22-rdf-syntax-ns#"
   xmlns:svg="http://www.w3.org/2000/svg"
   xmlns="http://www.w3.org/2000/svg"
   xmlns:sodipodi="http://sodipodi.sourceforge.net/DTD/sodipodi-0.dtd"
   xmlns:inkscape="http://www.inkscape.org/namespaces/inkscape"
   version="1.1"
   id="SvgMunicipio"
   x="0px"
   y="0px"
   viewBox="0 0 1000.1 955.1"
   style="enable-background:new 0 0 1000.1 955.1;"
   xml:space="preserve"
   inkscape:version="0.91 r13725"
   sodipodi:docname="MUN_ID1306.svg"><metadata
     id="metadata10"><rdf:RDF><cc:Work
         rdf:about=""><dc:format>image/svg+xml</dc:format><dc:type
           rdf:resource="http://purl.org/dc/dcmitype/StillImage" /></cc:Work></rdf:RDF></metadata><defs
     id="defs8" /><sodipodi:namedview
     pagecolor="#ffffff"
     bordercolor="#666666"
     borderopacity="1"
     objecttolerance="10"
     gridtolerance="10"
     guidetolerance="10"
     inkscape:pageopacity="0"
     inkscape:pageshadow="2"
     inkscape:window-width="665"
     inkscape:window-height="480"
     id="namedview6"
     showgrid="false"
     inkscape:zoom="0.24709455"
     inkscape:cx="500.04999"
     inkscape:cy="477.54999"
     inkscape:window-x="0"
     inkscape:window-y="0"
     inkscape:window-maximized="0"
     inkscape:current-layer="svg" /><g
     id="g3"><path
       id="MUN_1306"
       d="m 845.1,24.7 1,2.3 1.1,-1.8 0.5,-1 1.9,-1.1 1.7,-0.4 4.1,-0.4 3.9,-0.3 4.4,-0.2 7,0.7 5.8,2.1 6.6,2.7 2.2,0.8 5.7,-0.1 5.3,-0.4 5.8,-1.8 52.5,264.4 0,0.2 -2.1,19.1 -8.9,80.4 -9.1,82.1 36.6,135.5 29,107.7 -197.1,25.7 -4,-0.5 1.1,-11.5 0,-10.4 8.2,-4.4 9.8,-0.5 0.1,-4.9 -8.7,-4.4 -4.5,0 2.1,-5.5 11.4,0.1 6.6,-0.6 3.3,-7 5.4,-6 4.5,-9.2 -2.7,-9.2 -0.6,-8.3 -4.8,-12 -2.8,-5.5 -10.3,-0.5 -10.3,-5 3.9,-7.5 -5.9,-6.7 2.8,-8.1 12.4,-12.1 33.8,-27.2 27.2,-20.6 5.9,-6.4 -31.3,6 -354.2,66.8 -65.2,-39.6 -20.8,-12.6 6.8,21.8 61.4,197.9 -88.9,61.1 -44.3,67.9 -53.7,-151 -0.5,-1.5 -68.9,-53.3 -17.4,-14.5 -80.3,-67.2 0,0 -14.9,-3.6 -17.1,-4.4 -15.7,-4.5 -15.6,-4.5 7.1,-4.4 2.9,-2.3 2.3,-1.9 0.2,-2.3 0,-1.7 -2.3,-1.1 -3.2,-2.2 -6.6,-0.6 -7.7,-0.3 -11.5,-1.3 -7.2,-1.8 -6.1,-2.1 -4.5,-3.1 -5.7,-5.5 -2.3,-2.9 -2.3,-3.8 -1,-5.9 -2.2,-5.2 -1.2,-3.5 -2,-5.9 -1.9,-4.8 -2.9,-5.5 -1,-1.6 -1,-2.5 -1.9,-4.5 -1.7,-3.5 -1.4,-7.4 -1,-5.2 -0.1,-2.8 -0.1,-4.9 0,-6.9 1.1,-4.7 1.7,-6.2 4.9,-5.7 8.3,-5.3 9.1,-4.2 8.7,-4.7 6.9,-4.1 10.8,-8 5.9,-5.4 5.2,-6.5 3.7,-5.8 3.4,-8.7 1.4,-6.5 0.7,-2.9 0.5,-4.6 -0.4,-4.2 -0.4,-4.1 0.4,-2.5 1.1,-1.9 3.4,-5.5 4.8,-2.7 0.6,-2.7 8.2,4.2 8.8,9.2 6.8,1.9 4,1.1 12.7,-1.8 4.1,0.5 6.7,7.9 5.5,1.8 2.4,-1.7 1.6,-1.8 7.4,-10.8 1.3,-2.3 5.9,-5.2 4.1,-2.1 1.7,-15.4 4.1,-12.2 3.3,-11.6 2.4,-11.3 4.1,-22.6 0.5,-2.1 9.2,-2.9 7.7,3.4 8.6,9.9 2.2,2.5 9.1,-1.8 1.9,-1.6 0,-5.5 8.9,-2.8 5.1,-0.2 7.4,1.3 6.7,0.4 7.3,-0.8 10.2,-4.2 1.6,-1.1 48.8,-30.4 24.5,-6 6.8,-3.9 4.1,-9.9 29.4,-15.6 2.7,0.7 3.5,1.1 6,1.6 4.6,0 21.9,-5.6 3.1,1.1 11.9,11.5 11.7,6 10.5,8.9 9.2,-1 3.5,-2.1 3.8,-3.5 3,-1.2 3.8,-2.9 4,-1 4.1,-3.7 5.2,1 4.4,1.5 11.2,0.6 4,-0.2 1.4,-1.3 0.2,-0.2 1.5,-1.3 2.1,-5.5 11.7,-38.4 7.5,-6.4 11,-3.1 6.6,3.3 5.1,3.8 5.6,0 0.8,-1 0.5,-3.4 -0.4,-2.8 -4.1,-8.9 -1.6,-6.4 2.8,-10.6 1.4,-5.3 6,-4.9 3.7,-1.2 4.4,-2.9 0.6,-1.4 -0.2,-3.2 -2.9,-2.4 -4.4,-6.8 -0.8,-5.2 -0.5,-19.3 1.1,-8.5 -0.6,-2.7 -3.1,-3.3 -2.9,-5.4 0,-3.6 1.1,-2 3.1,-2.7 18.6,-1.3 15.8,-2.4 4,-2.2 2.7,-3.3 1.9,-1.3 1.7,-2.9 1.8,-5.5 0.5,-5.2 0.5,-1.9 3.3,-2.8 3.1,0 20.2,9.4 9.2,2.4 5,-3.7 7.2,-9.7 4,-2.9 0.1,0 8.8,-5.1 4.4,-0.4 6.4,-5.2 1,-2.3 -4.1,-12.2 -3,-2.8 -2.7,-0.4 -9.7,5.1 -3.5,0.8 -1.9,-1.3 -4.5,-4.2 -1.7,-3.4 0.4,-3.6 1.4,-2.2 1.6,-1.6 4.1,-2.4 5.7,-3.1 6.3,-2.4 4.1,-2.5 2.9,-4.5 0,-4.8 -2.3,-7.9 -0.5,-5.5 -0.4,-7.3 -0.4,-5.1 -2,-3.2 -7.3,-3.6 -1.2,-1.8 180.2,-16.3 -7.2,2.9 -3.2,3.9 -0.4,3.2 1.1,5.5 1.1,3.6 1.2,6.2 -0.4,2.1 -1.4,1.3 -1.7,1 -1.7,1.6 0,2 2.3,2.7 1.3,2.1 0,1.9 -1.1,2.4 -1.3,1.2 -0.4,1.6 0.1,2.2 1.3,2 1.6,1.8 3.2,1.2 1.3,1.1 1.1,1.5 0.4,1.4 -0.3,2.4 0,2.3 0.8,2.3 z"
       inkscape:connector-curvature="0"
       class="DEP_13 ZON_04" /></g></svg>