<?xml version="1.0" encoding="UTF-8" standalone="no"?>
<!-- Generator: Adobe Illustrator 19.2.0, SVG Export Plug-In . SVG Version: 6.00 Build 0)  -->

<svg
   xmlns:dc="http://purl.org/dc/elements/1.1/"
   xmlns:cc="http://creativecommons.org/ns#"
   xmlns:rdf="http://www.w3.org/1999/02/22-rdf-syntax-ns#"
   xmlns:svg="http://www.w3.org/2000/svg"
   xmlns="http://www.w3.org/2000/svg"
   xmlns:sodipodi="http://sodipodi.sourceforge.net/DTD/sodipodi-0.dtd"
   xmlns:inkscape="http://www.inkscape.org/namespaces/inkscape"
   version="1.1"
   id="SvgMunicipio"
   x="0px"
   y="0px"
   viewBox="0 0 912.8 1000.1"
   style="enable-background:new 0 0 912.8 1000.1;"
   xml:space="preserve"
   inkscape:version="0.91 r13725"
   sodipodi:docname="MUN_ID1315.svg"><metadata
     id="metadata10"><rdf:RDF><cc:Work
         rdf:about=""><dc:format>image/svg+xml</dc:format><dc:type
           rdf:resource="http://purl.org/dc/dcmitype/StillImage" /></cc:Work></rdf:RDF></metadata><defs
     id="defs8" /><sodipodi:namedview
     pagecolor="#ffffff"
     bordercolor="#666666"
     borderopacity="1"
     objecttolerance="10"
     gridtolerance="10"
     guidetolerance="10"
     inkscape:pageopacity="0"
     inkscape:pageshadow="2"
     inkscape:window-width="665"
     inkscape:window-height="480"
     id="namedview6"
     showgrid="false"
     inkscape:zoom="0.23597641"
     inkscape:cx="456.39999"
     inkscape:cy="500.04999"
     inkscape:window-x="0"
     inkscape:window-y="0"
     inkscape:window-maximized="0"
     inkscape:current-layer="svg" /><g
     id="g3"><path
       id="MUN_1315"
       d="m 450.2,24 2.4,0.3 1.8,-0.1 7.8,-0.3 6.9,-0.6 4.8,0.1 4.7,1.4 5,2.8 12.3,5 10.8,3.2 7.3,2.4 4.2,0.1 2.2,-0.1 5.3,-1.7 7.5,-1.5 3.5,0.1 4.3,0.8 5,1.2 7.2,1.7 5.5,1.9 5.8,2.8 5.7,2.1 1.4,0.6 4.6,-0.3 7.5,-0.4 4.6,-0.6 1.5,-0.1 6.4,-1.1 6,-0.7 24.4,-2.8 6.8,-1.5 4.4,-1.7 13,-2.1 10.3,-1.1 4.4,0 4.3,0.8 6.9,1.5 2.4,1.4 1.7,1 3.2,2.9 7.3,6.6 2.8,1.9 5.1,3.2 3.5,1.5 5.5,2.2 3,1.8 0.8,1.2 1,6.4 0.6,4.2 3.3,7.5 2.5,5.1 0.7,2.9 3.2,1.5 2.7,0.6 4,2.1 5.4,3.7 1.9,1.7 6.5,3.6 8.2,3.5 4,1 2.8,1.2 2.8,1.4 4.7,2.8 3.6,2.6 4.3,3.6 6.1,4.8 5.8,9.1 6.2,10.9 11.8,23.1 4.8,7.3 1,9.8 -3,10.8 -7.5,8 -3.3,6.8 3.6,10 7.1,6.8 2.5,2.2 10.9,4.4 7.1,7.8 17.6,13.4 12.2,8.7 7.1,11.6 6.5,9.6 6.4,10.8 7.6,13.2 2.5,15.5 7.6,15.8 3.2,4.4 4.4,19 0.7,15 -0.3,8.2 -1.2,5.7 -2.8,5.8 -3.7,6.2 -2.4,2.6 -1.8,2.4 -3,1 -3.6,0 -4.7,-2.5 -5.1,0.4 -4.3,-1.1 -1.7,-1.9 -1,-0.8 -3,2.5 -1.9,2.8 -9,4.6 -5.1,6.9 1.7,3.7 0.3,1.7 0.3,4.2 -1.5,2.8 -5.8,2.9 -3.9,4.2 -0.6,0.4 -1.8,0.8 -11.2,12.2 -8.5,7.3 1,4.3 -1.1,2.5 -3.2,3.6 -8,3.5 -0.6,0.4 -2.5,4.2 -3,1.8 -4.4,-1.2 -3.6,-5.1 -4.3,0.7 -3.2,2.8 -4.8,3 -6.9,8 -5.7,5 -2.8,3 -3.3,5.3 1.4,1.7 1.8,3.6 -0.4,10.9 1.7,10.7 -2.9,13.3 0.8,2.2 3.9,7.1 -0.8,3.3 -10.7,0.3 -3.9,1.2 -1.1,8.5 -3.2,0.7 -9.7,-1.1 -11.5,-1.2 -3.7,-0.4 -7.3,0.7 -1.7,-2.1 -3.8,0 -13.7,6.6 -0.1,0.1 -1.5,1.8 -5.5,6.2 2.1,1.9 0.6,1.2 -1.2,2.1 -3.6,0.8 -0.8,0.3 -1.5,1.4 1.2,2.6 -6.8,5.5 1,3.2 -0.7,1.1 -6.8,2.6 -4.4,0.7 -1.9,2.1 -6.8,1.8 -1.8,1.5 -2.5,4.6 -0.3,2.9 3,1.9 3.5,0.7 -0.1,10.5 -0.6,2.4 -2.8,2.8 -0.1,0 -0.7,0.3 -476,159.7 -21.7,7.3 -43.4,111.2 -36.7,94 -80.8,-10.1 0.7,-9.7 -5.4,-11.9 -3.6,-14.5 3.7,-17.3 6.8,-7.8 11.8,-10.5 13.6,-3.5 9.7,-11.1 5.8,-13.9 -5.4,-23.5 0.7,-6.6 -2.5,-4.3 -5.1,-1.9 -2.6,-4.7 -4.8,-4 -1.7,-6.8 5.7,-3.9 0.3,-4.7 1.9,-8.5 6.5,-1.8 5.3,-8 13.7,-9.1 1.1,-3 4.6,-5.4 1.9,-8.6 -3.6,-6.8 2.1,-5.3 6.5,-0.7 5.5,-1.9 4.2,-5.7 2.6,-5.1 3.3,-7.2 4,-9.3 1.9,-13.2 6.9,-6.2 1.3,-4.5 -0.1,-7.6 3.9,-7.8 -3.3,-11.1 -1.2,-9.3 6.1,-13.2 5.4,-15.9 -0.8,-14.1 -1.2,-5.7 -4.3,-4.4 -5.8,-3.3 -6.1,-5.7 -6.6,-5.3 -3.9,-1.8 -2.9,-4 -0.6,-7.5 2.2,-8.6 -1,-6.9 -2.1,-8 -3.5,-6 -8.9,-10 -6.2,-6.8 -0.4,-4.6 3,-6 1,-6.9 -2.2,-9.3 -3,-8 -5,-7.2 -1.7,-6.4 -0.4,-2.1 -1.2,-0.4 -1.2,-1.9 -1.1,-5.4 -2.2,-7.5 2.1,-5 -2.2,-4.7 0.6,-3 2.2,-0.3 1.4,0 0.6,-5 0.3,-2.5 -2.4,-5.7 -0.3,-1.7 3.3,-6.1 2.2,-7.1 0.6,-6.8 1.7,-2.2 0,-4.2 -0.7,-1.5 1,-1.1 2.6,-2.1 1.9,-2.1 2.1,-1.2 1.8,-1.7 3.7,0.4 0.3,-9.7 1.9,-3.2 3.9,-1.9 1.7,-5 4.7,-4.6 0.7,-10.5 1,-5.5 -1.9,-12.5 -0.3,-5.3 1.7,-5 0.1,-3.7 -5.1,-6.1 -3.5,-7.1 -0.3,-1.1 -0.6,-2.4 -0.5,-3.1 0,-1.7 0.7,-5.5 -1.8,-6.2 4.4,-18.1 -1.8,-5 -0.8,-5.5 -5,-5.3 -0.4,-1 0.7,-1.5 1.2,-5.4 0,-7.3 -1.7,-6.6 -0.4,-2.9 2.9,-3.6 4.6,-6.5 -0.1,-2.2 -6.8,-7.6 1.1,-5.7 0.1,-0.7 -1.4,-3.5 -5,-5.7 -0.3,-6.1 -3.9,-7.2 0.4,-4.4 -2.4,-6.2 -4.4,-2.4 -1.4,-3.9 0.1,-0.4 1.1,-4 2.9,-5.3 -0.3,-10.8 -1.7,-1.7 -4.4,-2.5 -3.2,-10.5 0,-0.8 3.2,-10 -2.2,-4.8 -2.5,-7.9 -4,-7.8 -3.5,-5 -1.7,-3.9 -0.4,-6.6 -0.3,-1.1 -0.7,-0.7 -3.9,-2.2 -3.3,-1.5 -1.1,-5.3 1.2,-4.7 2.5,-1.7 4.4,-2.6 1.2,-4.8 0.7,-4.8 -2.1,-4.3 -3.2,-3.2 -2.8,-5.8 0.7,-5.1 2.5,-5.3 2.2,-5.3 L 26,58 25.4,52.5 27.5,45 l 4,0.8 4,0.6 4.5,-0.4 4.2,-0.7 3.5,-1.1 2.9,-2.8 3.3,-1.5 6.8,-2.2 4.6,-0.4 5.5,-0.1 5.4,0 4.6,-1.5 4,-0.8 3.9,0 4.8,0.3 4.3,0.6 4.6,-1.4 5,-1 5.7,-1.9 6,-3.2 5.7,-0.8 4.2,0 5.8,0 4.3,0.8 4.8,2.1 4.2,1.4 5,1.1 4.6,-0.3 7.6,-0.3 4.7,0.4 6.9,1.5 2.4,1.7 5.4,2.2 5.7,1.5 4,2.1 6,3.2 2.5,3 2.8,3.2 3.2,2.8 4.4,1.4 3.6,0 4.3,-3.5 2.6,-5 2.5,-5 2.8,-4 3.5,-0.6 4.4,-3.9 3.9,-0.8 4.6,-0.1 5,-0.1 4.7,0.4 3.9,2.2 5.3,2.9 6.8,5.5 1.4,1.1 5.4,4.4 7.1,6.5 6.2,5.1 7.1,2.2 5.5,1.7 6.1,0 4.7,-1.5 6.1,-3.7 4.4,-4.2 9,-10.4 11.5,-12.3 3.3,-7.1 4.6,-4.6 7.8,-6.1 5.4,-5.7 2.8,-1.9 3.7,-0.7 4.7,-1.1 3.5,-1.9 2.6,-1.9 4.2,-1.1 4.3,0 3.5,1.4 1.9,2.4 9.7,3.5 5.7,1.1 3.6,1.2 3.9,1.4 4.4,2.8 10.4,4.7 14.5,5.4 z"
       inkscape:connector-curvature="0"
       class="DEP_13 ZON_04" /></g></svg>