<?xml version="1.0" encoding="UTF-8" standalone="no"?>
<!-- Generator: Adobe Illustrator 19.2.0, SVG Export Plug-In . SVG Version: 6.00 Build 0)  -->

<svg
   xmlns:dc="http://purl.org/dc/elements/1.1/"
   xmlns:cc="http://creativecommons.org/ns#"
   xmlns:rdf="http://www.w3.org/1999/02/22-rdf-syntax-ns#"
   xmlns:svg="http://www.w3.org/2000/svg"
   xmlns="http://www.w3.org/2000/svg"
   xmlns:sodipodi="http://sodipodi.sourceforge.net/DTD/sodipodi-0.dtd"
   xmlns:inkscape="http://www.inkscape.org/namespaces/inkscape"
   version="1.1"
   id="SvgMunicipio"
   x="0px"
   y="0px"
   viewBox="0 0 1000.1 520.1"
   style="enable-background:new 0 0 1000.1 520.1;"
   xml:space="preserve"
   inkscape:version="0.91 r13725"
   sodipodi:docname="MUN_ID1326.svg"><metadata
     id="metadata10"><rdf:RDF><cc:Work
         rdf:about=""><dc:format>image/svg+xml</dc:format><dc:type
           rdf:resource="http://purl.org/dc/dcmitype/StillImage" /></cc:Work></rdf:RDF></metadata><defs
     id="defs8" /><sodipodi:namedview
     pagecolor="#ffffff"
     bordercolor="#666666"
     borderopacity="1"
     objecttolerance="10"
     gridtolerance="10"
     guidetolerance="10"
     inkscape:pageopacity="0"
     inkscape:pageshadow="2"
     inkscape:window-width="665"
     inkscape:window-height="480"
     id="namedview6"
     showgrid="false"
     inkscape:zoom="0.42595741"
     inkscape:cx="500.04999"
     inkscape:cy="260.04999"
     inkscape:window-x="0"
     inkscape:window-y="0"
     inkscape:window-maximized="0"
     inkscape:current-layer="svg" /><g
     id="g3"><path
       id="MUN_1326"
       d="m 1014.1,365 -63.6,13.4 -42.6,12.3 -16.1,42.8 -0.3,2.7 0,2.2 0,3.2 1.1,3.7 1.6,3.2 3,3.1 0.5,2.2 0.9,1.6 1.1,1.2 0.9,1.1 0.3,1.5 0.5,0.7 0.7,0.7 0.7,0.5 -0.1,0.7 -0.1,0.8 -0.1,0.9 -0.1,1.1 -0.4,0.3 -0.9,0.7 -0.4,0.1 -0.7,1.3 -0.3,1.9 -0.7,0.7 -0.8,0.4 -0.8,1.2 -0.5,1.1 -0.1,1.1 -0.8,0.9 -0.9,1.1 -2.4,-0.4 -1.1,1.4 -1.9,2 -3.8,0.9 -0.8,1.9 0,2.8 -1.1,2.8 -0.3,3 -1.2,3 -1.5,1.8 -1.5,2 -0.3,5.1 0.3,3.9 -0.5,4.6 -0.9,4.9 -96.8,-24 -286.4,-61 -13.4,-3 -47.5,-10 -175.7,-36.3 -128,-27.5 -14.8,-3.4 L 77.2,340.4 49,334 14,322.8 l 3.7,-3.1 5.7,-3.2 2.2,-1.4 3.5,-2.2 3.5,-1.4 5.1,-2.7 1.8,-1.5 3.8,-2.4 2.2,-1.4 3.1,-1.5 3.8,-2.8 3.4,-3.1 3.7,-5 3,-3.5 3.9,-3.9 2.6,-0.1 1.6,0.3 2.2,0.4 2,-0.1 2.2,0 1.9,-0.4 2.3,-1.8 1.8,-1.1 1.1,-2.4 1.4,-2.8 5,-3.2 4.3,-1.8 4.5,-2.4 2.7,-2.4 4.5,-5.7 4.1,-3.7 2.2,-3.2 6.8,-5.7 6,-5 3.2,-3.1 4.7,-2.6 4.6,-1.1 5.3,-0.9 3,-1.8 3,-1.2 3.1,0.7 3.5,-0.5 3.7,1.1 2.7,2.4 3.2,1.5 4.1,-0.9 3,-4.5 2.2,1.6 2.3,-2 3.2,-0.3 2.3,0.4 3.8,-3.1 4.6,0.7 2.3,1.6 2.4,1.1 2,0.3 2.4,0.4 2.4,-1.5 2.2,0 9.1,-5.5 4.7,0.7 4.2,-0.7 3.5,0 0.7,0.3 3,-1.2 4.5,-1.5 1.2,-1.2 2.6,-3.2 1.9,-1.5 8.9,-6 2.2,0.8 1.9,-1.6 3.2,-0.1 3.4,-2.2 3.7,0.1 1.9,-1.5 2.4,0.4 2.2,1.6 4.7,-3 3.7,-1.4 2.2,0.1 3.2,-3.4 4.3,-1.6 5.4,1.2 3.9,1.2 3.7,1.4 1.9,-0.1 0.9,-1.6 2.3,-0.9 4.5,-0.1 0.3,-0.3 0.7,-1.6 3.2,0.8 1.8,-2.6 2,-1.1 6.6,1.6 0.5,0 2.3,-0.8 1.5,-0.9 2.6,-6.5 0.9,-1.5 0.5,0.1 3.5,2 1.9,0.1 2.8,-0.7 2.2,0 2,1.1 2.3,-0.5 3.8,-3 3.1,0.7 3.2,-1.4 3.1,-2.8 3.8,-0.3 2,-0.8 1.9,-0.5 3.8,-3.5 0.3,-0.4 3,-1.2 0.7,-1.2 1.1,-5.4 1.1,-1.2 1.2,-0.1 8.1,2.3 2.3,-0.4 2.4,0 4.2,3.7 2.4,0.4 1.9,0.4 1.8,1.2 3.4,0.8 4.5,-1.5 3.9,-3.8 2.3,-0.7 0.9,-0.8 0.9,-1.9 1.6,-1.8 2.7,-1.2 0.9,0.1 1.8,0.4 2.2,-0.3 2.8,0.7 2.2,0.4 1.4,-0.7 3.9,-2.7 2.7,-0.7 0.8,0.1 2.6,1.1 0.9,2 3.9,1.4 2,3 2.2,-0.8 1.2,0.8 1.2,0.9 3.9,-2.7 4.1,-0.4 3.9,-0.4 2.4,0 2,-1.6 4.3,0.1 1.2,-1.8 -0.8,-1.9 0.4,-5.7 3.7,-6.9 6.8,-0.4 2,-0.7 2,-2.7 -0.7,-4.2 -3.7,-4.9 0.1,-1.8 1.5,-1.4 3.8,0 2.6,1.6 0.9,5.4 2.2,2.8 3.2,-0.7 5.1,-1.2 0.7,0.4 0.5,2.4 0.8,0.9 1.8,-0.1 2.4,-1.4 1.5,0.4 2.6,3.2 -0.7,5.3 0.5,4.3 0.5,0.5 3.2,-0.8 3.5,-9.2 2.3,-2.2 2.2,-0.1 5.1,0.4 4.2,0.5 3.9,1.5 1.5,0.8 2.8,0.4 1.8,-0.9 1.1,-4.6 1.5,-1.2 2.8,0.1 1.1,-1.4 -0.9,-3 -1.5,-2.3 0.3,-2.6 2.2,-4.2 0.9,-1.4 3,0 1.9,0.7 2.7,0.3 2.4,-1.4 1.8,-4.3 2.7,-3.7 0.1,-6.4 0.4,-0.7 2.8,0 4.7,6.5 3.1,2.8 4.7,0.8 5.1,-1.4 1.1,-53.6 30.7,-2.4 53.6,-4.2 29.2,-2.3 57,-16.8 142.3,-45.9 108.9,369.9 z"
       inkscape:connector-curvature="0"
       class="DEP_13 ZON_04" /></g></svg>