<?xml version="1.0" encoding="UTF-8" standalone="no"?>
<!-- Generator: Adobe Illustrator 19.2.0, SVG Export Plug-In . SVG Version: 6.00 Build 0)  -->

<svg
   xmlns:dc="http://purl.org/dc/elements/1.1/"
   xmlns:cc="http://creativecommons.org/ns#"
   xmlns:rdf="http://www.w3.org/1999/02/22-rdf-syntax-ns#"
   xmlns:svg="http://www.w3.org/2000/svg"
   xmlns="http://www.w3.org/2000/svg"
   xmlns:sodipodi="http://sodipodi.sourceforge.net/DTD/sodipodi-0.dtd"
   xmlns:inkscape="http://www.inkscape.org/namespaces/inkscape"
   version="1.1"
   id="SvgMunicipio"
   x="0px"
   y="0px"
   viewBox="0 0 401.5 1000"
   style="enable-background:new 0 0 401.5 1000;"
   xml:space="preserve"
   inkscape:version="0.91 r13725"
   sodipodi:docname="MUN_ID1308.svg"><metadata
     id="metadata10"><rdf:RDF><cc:Work
         rdf:about=""><dc:format>image/svg+xml</dc:format><dc:type
           rdf:resource="http://purl.org/dc/dcmitype/StillImage" /></cc:Work></rdf:RDF></metadata><defs
     id="defs8" /><sodipodi:namedview
     pagecolor="#ffffff"
     bordercolor="#666666"
     borderopacity="1"
     objecttolerance="10"
     gridtolerance="10"
     guidetolerance="10"
     inkscape:pageopacity="0"
     inkscape:pageshadow="2"
     inkscape:window-width="665"
     inkscape:window-height="480"
     id="namedview6"
     showgrid="false"
     inkscape:zoom="0.236"
     inkscape:cx="200.75"
     inkscape:cy="500"
     inkscape:window-x="0"
     inkscape:window-y="0"
     inkscape:window-maximized="0"
     inkscape:current-layer="svg" /><g
     id="g3"><path
       id="MUN_1308"
       d="m 236.6,40.6 1.9,3.1 2.1,4.3 4.8,6.1 2.3,2.7 1.3,3.7 0.3,2.4 0.7,2.3 -0.3,3.2 -0.5,2.8 0.9,2.3 1.1,2.8 1.2,2.8 0.5,2.4 1.3,3.7 1.5,3.2 1.9,2 2.1,1.6 8.5,3.1 9.3,4.4 6.3,2.9 6.5,4 4.5,4.7 3.2,4.4 4.5,2.5 5.6,2.3 5.1,1.3 5.7,1.5 4.3,0.8 7.3,2.4 8.8,1.6 -2,7.2 0.5,5.3 1.1,3.6 -2.1,5.1 -2.4,5.1 -0.7,4.9 2.7,5.6 3.1,3.1 2,4.1 -0.7,4.7 -1.2,4.7 -4.3,2.5 -2.4,1.6 -1.2,4.5 1.1,5.1 3.2,1.5 3.7,2.1 0.7,0.7 0.3,1.1 0.4,6.4 1.6,3.7 3.3,4.8 3.9,7.5 2.4,7.6 2.1,4.7 -3.1,9.6 0,0.8 3.3,10 4.3,2.4 1.6,1.6 0.3,10.4 -2.8,5.1 -1.1,3.9 -0.1,0.4 1.3,3.7 4.3,2.3 2.3,6 -0.4,4.3 3.7,6.9 0.3,5.9 4.8,5.5 1.3,3.3 -0.1,0.7 -1.1,5.5 6.5,7.3 0.1,2.1 -4.4,6.3 -2.8,3.5 0.4,2.8 1.6,6.4 0,7.1 -1.2,5.2 -0.7,1.5 0.4,0.9 4.8,5.1 0.8,5.3 1.7,4.8 -4.3,17.5 1.7,6 -0.7,5.3 0,1.6 0.1,3.1 0.5,2.3 0.3,1.1 3.3,6.8 4.9,5.9 -0.1,3.6 -1.6,4.8 0.3,5.1 1.9,12 -0.9,5.3 -0.7,10.1 -4.5,4.4 -1.6,4.8 -3.7,1.9 -1.9,3.1 -0.3,9.3 -3.6,-0.4 -1.7,1.6 -2,1.2 -1.9,2 -2.5,2 -0.9,1.1 0.7,1.5 0,4.3 -1.6,2.1 -0.5,6.5 -2.1,6.8 -3.2,5.9 0.3,1.6 2.3,5.5 -0.3,2.4 -0.5,4.8 -1.3,0 -2.1,0.3 -0.5,2.9 2.1,4.5 -2,4.8 2.1,7.2 1.1,5.2 1.2,1.9 1.2,0.4 0.4,2 1.6,6.1 4.8,6.9 2.9,7.7 2.1,8.9 -0.9,6.7 -2.9,5.7 0.4,4.4 6,6.5 8.5,9.6 3.3,5.7 2,7.7 0.9,6.7 -2.1,8.3 0.5,7.2 2.8,3.9 3.7,1.7 6.4,5.1 5.9,5.5 5.6,3.2 4.1,4.3 1.2,5.5 0.8,13.6 -5.2,15.3 -5.9,12.7 1.2,8.9 3.2,10.7 -3.7,7.5 0.1,7.3 -1.2,4.3 -6.7,6 -1.9,12.7 -3.9,8.9 -3.2,6.9 -2.5,4.9 -4,5.5 -5.3,1.9 -6.3,0.7 -2,5.1 3.5,6.5 -1.9,8.3 -4.4,5.2 -1.1,2.9 -13.2,8.8 -5.1,7.7 -6.3,1.7 -1.9,8.1 -0.3,4.5 -5.5,3.7 1.6,6.5 4.7,3.9 2.5,4.5 4.9,1.9 2.4,4.1 -0.7,6.4 5.2,22.7 -5.6,13.3 -9.3,10.7 -12.6,2.6 -11.3,10.1 -6.5,7.5 -3.6,16.7 3.5,14 5.2,11.5 -0.7,9.3 -91.2,-9.2 -37.6,-6.7 -9.5,-123.6 -19.2,-16.4 -3.2,-4.4 -3.2,-1.9 -4.4,-2 -3.7,-2.4 0.3,-4 0.9,-3.5 -2.3,-2.7 -5.1,-2.4 -2.1,-2.4 -3.2,-7.3 0.3,-3.3 -1.1,-1.3 -3.3,-0.4 -8.5,-2.9 -3.3,-2.5 -2.5,-4.8 -1.7,-1.1 -2.1,-1.5 -1.3,-4.4 -1.9,-4.3 -1.2,-0.8 -4.1,-3.5 0.5,-2.3 0,-3.7 -3.6,-2.4 -4,-1.9 -0.8,-0.4 -2,-2.5 -1.1,-5.1 0.4,-3.5 -3.3,-5.7 -1.5,-2.9 -0.3,-1.3 0.3,-2.9 1.2,-2.5 1.7,-2.7 3.9,-2.3 1.2,-4.1 0.1,-7.1 -2.5,-9.7 0.4,-3.6 1.1,-2 5.1,-1.7 3.9,-0.4 6.8,-2.1 3.5,-5.3 3.2,-10.3 7.6,-21.3 10.1,-6.3 4.7,-3.9 3.7,-6.7 -1.2,-6.8 6.3,-5.1 4.9,-5.5 2.4,-3.6 -0.5,-2.9 -3.3,-2.4 -1.2,-2.8 1.5,-8.1 -8.8,-10.8 2,-3.2 -0.5,-3.5 -7.1,-1.9 -0.8,-3.2 4.5,-9.2 -0.8,-2.3 0,-3.3 -1.1,-1.3 -5.6,1.1 -3.6,-1.6 0.5,-7.2 -4,-7.2 1.2,-4.5 -1.5,-5.9 -3.5,-7.5 -0.5,-15.6 -3.6,-5.5 10.8,-18.3 -1.2,-2.5 -0.1,-1.7 1.1,-4.1 -1.3,-4.1 -1.3,-1.6 -2.3,-0.9 -1.9,-2.9 -2.4,-2.3 -1.5,-0.5 -2.4,0.8 -5.3,-7.1 2.3,-5.3 2.1,-2.7 -1.5,-4.7 -8.9,-7.5 -0.5,-4.3 -2.3,-0.8 -5.1,2.8 -1.3,0.1 -4.4,0.6 -4.3,-0.3 -4.1,-1.1 -1.2,-2.3 -0.1,-2.7 8.5,-16.9 -0.8,-6.4 -1.5,-7.3 -1.7,-5.6 -0.1,-2 -1.9,-2.3 -1.1,-0.8 -4.8,-2.9 -1.9,-1.7 -1.9,-1.6 -2.3,-2.7 -3.3,-5.2 -2.1,-3.3 -1.3,-4.5 -1.7,-3.2 1.1,-7.2 -0.3,-4.5 -0.8,-2.5 0.4,-2.5 -0.7,-3.9 0.7,-3.9 1.5,-3.3 -0.4,-2.1 -0.1,-1.1 -1.2,-2.4 -1.6,-2.9 -0.1,-4.7 -0.7,-2.3 -1.1,-1.5 -0.3,-1.3 0.4,-1.6 1.7,-2.5 0.5,-2.4 -1.1,-2.7 -4.4,-4.8 -1.1,-1.2 -1.5,-2.5 1.7,-1.7 4.7,-2.1 0.5,-0.5 -0.1,-1.6 -1.6,-4.4 -1.7,-7.5 -0.1,-4 -2.9,-8.3 -1.5,-3.2 -3.3,-2.5 -7.5,-3.7 -4.1,-4 -1.7,-2.9 -1.2,-2.5 -2.8,-2.3 -3.1,-1.6 -1.6,-2.4 -2.7,-2.3 -4,-1.5 -1.5,-2.5 -0.4,-1.1 -0.5,-9.9 3.5,-4 0.3,-2.3 2.5,-6.3 1.9,-0.9 4.7,1.3 2.3,0.3 4.3,-1.1 3.5,0 3.6,-0.7 1.3,-4 2.4,-3.1 2.3,-3.6 0.7,-1.6 0.1,-2.3 -0.5,-5.3 0,-4 1.2,-2.8 1.5,-2.4 3.5,-1.9 0.9,-0.8 4.1,-7.7 3.2,-2.7 2.7,-2.5 2.3,-3.2 1.6,-5.2 0.4,-3.3 0.5,-3.2 1.1,-2.7 1.7,-2.5 2.5,-2.4 2.3,-4.4 0.1,-7.9 -2.3,-6.8 -2.5,-8.7 1.7,-8.4 8.5,-5.7 11.1,-2.7 11.2,0.1 7.7,-0.1 5.5,1.9 6.9,3.3 4.5,0.9 4.9,-3.3 3.6,-2.3 4.8,1.7 3.3,-2.3 -0.5,-4.3 -3.7,-2.7 -2.3,-7.5 4,-7.1 3.1,-8.1 5.2,-6.5 7.6,-7.1 6.1,-9.7 6.7,-12.8 0.5,-14 1.2,-4.4 1.7,-3.7 2.7,-4.9 3.5,-2.5 2.7,-2.3 1.9,-2.5 -0.4,-2.9 -1.6,-3.3 -0.9,-2.8 0.1,-3.7 1.1,-4.4 3.6,-4.9 1.5,1.1 2.1,0.9 2.5,1.5 3.5,0.3 2.5,0.3 2.9,0 2.3,-0.8 2.7,-1.3 3.6,-0.9 2.9,-0.8 3.3,-0.4 2.9,0 3.1,0 4.7,0.1 3.6,0.3 2.3,0.7 2.6,2.4 z"
       inkscape:connector-curvature="0"
       class="DEP_13 ZON_04" /></g></svg>