<?xml version="1.0" encoding="UTF-8" standalone="no"?>
<!-- Created with Inkscape (http://www.inkscape.org/) -->

<svg
   xmlns:dc="http://purl.org/dc/elements/1.1/"
   xmlns:cc="http://creativecommons.org/ns#"
   xmlns:rdf="http://www.w3.org/1999/02/22-rdf-syntax-ns#"
   xmlns:svg="http://www.w3.org/2000/svg"
   xmlns="http://www.w3.org/2000/svg"
   xmlns:sodipodi="http://sodipodi.sourceforge.net/DTD/sodipodi-0.dtd"
   xmlns:inkscape="http://www.inkscape.org/namespaces/inkscape"
   width="87mm"
   height="49mm"
   viewBox="0 0 308.26754 173.62194"
   id="SvgDepartamento"
   version="1.1"
   inkscape:version="0.91 r13725"
   sodipodi:docname="DEP_09.svg">
  <defs
     id="defs3588" />
  <sodipodi:namedview
     id="base"
     pagecolor="#ffffff"
     bordercolor="#666666"
     borderopacity="1.0"
     inkscape:pageopacity="0.0"
     inkscape:pageshadow="2"
     inkscape:zoom="1.979899"
     inkscape:cx="119.28285"
     inkscape:cy="96.465138"
     inkscape:document-units="px"
     inkscape:current-layer="layer1"
     showgrid="false"
     inkscape:window-width="1366"
     inkscape:window-height="705"
     inkscape:window-x="-8"
     inkscape:window-y="-8"
     inkscape:window-maximized="1" />
  <metadata
     id="metadata3591">
    <rdf:RDF>
      <cc:Work
         rdf:about="">
        <dc:format>image/svg+xml</dc:format>
        <dc:type
           rdf:resource="http://purl.org/dc/dcmitype/StillImage" />
        <dc:title></dc:title>
      </cc:Work>
    </rdf:RDF>
  </metadata>
  <g
     inkscape:label="Capa 1"
     inkscape:groupmode="layer"
     id="layer1"
     transform="translate(0,-878.73984)">
    <path
       inkscape:connector-curvature="0"
       style="fill:#b3b3b3"
       d="m 176.50021,887.98184 c 5.67501,-2.1625 10.78751,-5.475 15.98751,-8.5625 3.725,2.075 7.275,4.7125 11.4875,5.725 6.6625,0.825 13.5125,-0.5875 20.1,1.0625 22.275,5.5625 44.3,12.1 66.6875,17.2625 5.15,1.025 10.1375,3.9 12.7125,8.6125 -0.4125,6.9125 -1.725,13.775 -2.1875,20.6875 -0.35,5.8875 -2.175,11.8875 -0.3375,17.7 2.4875,8.5875 4.025,17.4125 6.4125,26.025 -1.925,4.0375 -4.925,7.9 -4.8625,12.575 -0.1125,3.0875 0.1625,6.1875 0.675,9.24996 -0.775,1.575 -1.5625,3.1375 -2.35,4.7 -4.85,3.225 -8.275,8 -10.1875,13.4625 1.2,0.1 3.5875,0.3125 4.7875,0.425 -0.775,7.4875 -5.4375,13.55 -8.9375,19.9375 -1.8375,3.0125 -1.3625,6.65 -1.6,10.0125 -1.375,0.8625 -2.70001,1.75 -4.03751,2.65 -10.02499,-3.85 -20.41249,0.35 -30.52499,1.5125 -2.225,-2.2125 -4.6625,-4.275 -6.3375,-6.95 -1.375,-2.6625 -1.3375,-5.7625 -1.8,-8.6625 -5.6875,-2.55 -11.725,-4.325 -17.15,-7.425 -4.95,-2.975 -11.2875,-3.85 -14.7625,-8.8875 -7.25,0.25 -14.9875,-1.5125 -21.7125,2.0125 -5.5625,-1.15 -11.20001,-1.8125 -16.78751,-2.775 -5.925,-1.45 -11.5,-4.5875 -17.75,-4.4375 -10.3,-0.6875 -20.675,1.7125 -29.75,6.5875 -4.275,2.4625 -9.0875,4.1875 -14.0875,3.55 -7.7375,-0.8125 -15.5625,-2.275 -23.324999,-1.0125 -4.3,1.7375 -7.1,5.6625 -10.375,8.75 -4.05,-3.8875 -8.0625,-7.8125 -11.65,-12.1375 -4.775,-6.975 -14.3875,-3.0625 -20.9875,-6.675 -0.8,-6.8625 -5.1875,-12.725 -5.0125,-19.73746 -3.6125,-3.8375 -6.6125,-8.1875 -8.975,-12.8875 -4.575,-0.2 -9.3,0.4875 -13.775,-0.625 -4.4375,-3.6375 -8.475,-7.7625 -12.7375,-11.5875 -0.925,-5.15 -1.05,-10.7625 0.225,-15.8625 4.5,-7.15 12.65,-11.075 17.1125,-18.3625 2.7,1.1625 5.4,2.475 8.3375,2.975 4.2625,-0.375 8.175,-2.65 12.5,-2.6875 4.175,0.275 8.2,1.9 12.425,1.675 4.075,-0.2 8.125,-0.85 12.1,-1.75 4.4,-0.9125 6.85,-5.625 11.5,-5.9875 10.175,-1.7875 19.412499,-6.5375 28.912499,-10.3375 5.225,-2.0375 10.0375,-4.9375 14.925,-7.6625 4.275,-2.3875 9.225,-3.1 13.5875,-5.2625 5.7625,-3.5125 8.95,-10.4 15.425,-12.8625 8.4625,-2.675 17.6875,-1.05 26.1,-4.0125 z"
       id="DEP_09" />
  </g>
</svg>
