<?xml version="1.0" encoding="UTF-8" standalone="no"?>
<!-- Generator: Adobe Illustrator 19.2.0, SVG Export Plug-In . SVG Version: 6.00 Build 0)  -->

<svg
   xmlns:dc="http://purl.org/dc/elements/1.1/"
   xmlns:cc="http://creativecommons.org/ns#"
   xmlns:rdf="http://www.w3.org/1999/02/22-rdf-syntax-ns#"
   xmlns:svg="http://www.w3.org/2000/svg"
   xmlns="http://www.w3.org/2000/svg"
   xmlns:sodipodi="http://sodipodi.sourceforge.net/DTD/sodipodi-0.dtd"
   xmlns:inkscape="http://www.inkscape.org/namespaces/inkscape"
   version="1.1"
   id="SvgMunicipio"
   x="0px"
   y="0px"
   viewBox="0 0 494.3 1000.1"
   style="enable-background:new 0 0 494.3 1000.1;"
   xml:space="preserve"
   inkscape:version="0.91 r13725"
   sodipodi:docname="MUN_ID0613.svg"><metadata
     id="metadata10"><rdf:RDF><cc:Work
         rdf:about=""><dc:format>image/svg+xml</dc:format><dc:type
           rdf:resource="http://purl.org/dc/dcmitype/StillImage" /></cc:Work></rdf:RDF></metadata><defs
     id="defs8" /><sodipodi:namedview
     pagecolor="#ffffff"
     bordercolor="#666666"
     borderopacity="1"
     objecttolerance="10"
     gridtolerance="10"
     guidetolerance="10"
     inkscape:pageopacity="0"
     inkscape:pageshadow="2"
     inkscape:window-width="682"
     inkscape:window-height="480"
     id="namedview6"
     showgrid="false"
     inkscape:zoom="0.23597641"
     inkscape:cx="247.14999"
     inkscape:cy="500.04999"
     inkscape:window-x="0"
     inkscape:window-y="0"
     inkscape:window-maximized="0"
     inkscape:current-layer="svg" /><g
     id="g3"><path
       id="MUN_0613"
       d="m 55.1,6.1 0,8.7 2,0.1 0.6,0 1,-0.1 2,-0.1 1.9,-0.2 2.1,-0.2 0.9,-0.1 0.1,-1.1 0.5,-0.2 7.3,0.4 17.4,-0.4 2.4,0 5.4,0 4.2,-0.2 0.7,0.1 9.4,0.2 4,0.1 5.4,0 4,0.1 0.7,0.1 2.9,0.2 2.5,0.1 4,0.1 1.1,-0.1 3.6,0.1 0.6,0.1 1.6,0 0.7,0 0.9,0 1.3,-0.2 2.1,0 2.2,0.2 11.7,0.5 0.7,2.7 4.6,-0.5 0.4,-0.2 0.5,-0.2 0.7,-1.5 0.9,-0.2 3.9,0 0.3,0 5.2,0 3,0 1.3,0 4,0 3.5,0 -5.9,66.9 3.5,7.9 0.6,1.4 0,0 58.5,91.6 0,0 25,34.4 36,49.6 2.9,4 0,0 -0.2,23.9 0,0 7.4,26.4 0,0 9.3,25 0,0.1 12.7,8.8 0.1,0.1 -4.7,19.1 0.1,0.1 25.7,17.6 0.4,-0.1 0.2,0.1 1.3,0.9 2.3,1.6 0.7,0.4 1.6,1.2 0.2,0.1 0.2,0.2 2.3,1.3 1.2,0.9 1.2,0.7 0.1,-0.2 1.6,0.5 0.7,0.3 1.6,0.8 0.2,1.4 1.2,1.2 1.3,1 0.1,0.1 1.4,0.5 1.4,0.6 0.3,0.2 0.4,0.3 0.2,0.2 0.2,0.2 0.4,0.1 -0.2,0.2 0.9,0.9 1.2,1 1.4,1.6 1.3,1.6 0.8,1.4 0.7,1.3 1.2,1.9 1.2,1.9 0.8,1.2 1.2,1.6 0.4,0.4 0.5,1 0.9,1.9 0.8,1.2 3.2,4.2 0.8,0.9 1.4,0.7 0.6,0.9 0.4,0.4 0.4,0.5 0.2,0.6 0,0.5 0,0.2 0,0.5 0.3,0.3 0.2,0.2 0.4,0.7 0.2,0.6 0.1,0.6 0.1,1.3 -1.3,49.6 21.2,42.5 43.9,131.5 25.1,73.7 18.4,46.3 -84.4,222.5 -225.9,-242.2 -1.8,-3.4 -9.9,-15.1 -0.4,-1.2 -0.2,-0.2 -0.4,-0.2 -1.7,-0.5 -0.2,-0.2 -0.2,-0.8 -0.4,-1.2 -0.2,-0.9 -0.3,-1.4 -0.2,-0.6 -0.4,-0.6 -0.5,-0.5 -0.7,-0.4 -0.8,-0.4 -0.8,-0.2 -0.9,-0.2 -1.1,-0.1 -2.8,-2.2 -2.2,-1.4 0.7,-1.5 0.2,-0.5 -0.5,-0.1 -1.6,-0.3 -1,-0.1 -0.5,-0.2 -0.5,-0.1 -0.5,-0.1 -0.8,-0.2 -0.5,-0.1 -0.5,-0.1 -7.5,-1 -2,-4.7 -4.5,-9.6 -0.2,-0.4 -0.5,-0.9 -2.6,-3 -0.6,0.3 -0.9,-0.7 -1.5,-1.4 -2.7,-1.6 -2.6,-0.9 -0.5,-0.7 -1.9,-0.4 -0.2,-1.6 -2.6,-0.1 -6.9,-0.1 -0.5,0.6 -0.5,0.5 -0.2,0.2 -0.5,0.8 -0.5,0.3 -0.3,0.5 -0.2,0.4 0,0.1 0,0 0,0 0,0 0,0 0,0.1 0,0 -0.4,0 0,0 0,0 0,0.1 0,0 0,0.1 0,0 0,0 0,0 0,0 0,0.1 0,0 0,0 0,0.1 0,0 -0.1,0 0,0.1 0,0 0,0 0,0 0,0.1 0,0 0,0 0,0.1 0,0 0,0 0,0 0,0 0,0.1 0,0 0,0 0,0.1 -0.1,0 0,0 0,0 0,0 0,0.1 0,0 0,0 0,0 0,0.1 0,0 0,0 0,0 0,0.1 0,0 -0.1,0 0,0 0,0.1 0,0 0,0 0,0 0,0 0,0 0,0.1 0,0 0,0 0,0 0,0 0,0 0,0.1 0,0.1 0,0 0,0.1 0,0 0,0 0,0 0,0 0,0 0,0.1 0,0 0,0 0,0 0,0 0,0 0,0 0.1,0.1 0,0 0,0 0,0.1 0,0 0,0 0,0 0,0 0,0.1 0,0 0,0 0,0 0,0 0,0 0,0.1 0,0 0.1,0.1 0,0 0,0 0,0 0,0 0,0.1 0,0 0,0 0,0 0,0.1 0,0 0,0 0,0 0,0 0,0.1 0,0 0.1,0 0,0 0,0 0,0.1 0,0 0,0 0,0.1 0,0 0,0 0,0 0,0.1 0,0 0,0 0,0 0.1,0.1 0,0 0,0 0,0 0,0.1 0,0 0,0 0,0 0,0 0,0.1 0,0 0.1,0 0,0 0,0 0,0.1 0,0 0,0 0,0 0,0 0,0.1 0,0 0,0 0,0.1 0,0 0,0 0,0 0,0 0,0.1 0,0 0,0 0,0 0,0 0,0 0,0.1 0,0 0,0 0,0 0,0 0,0 0,0.1 0,0 0,0 0.1,0.1 0,0 0,0 0,0.1 0,0 0,0 0,0 0.1,0 0,0.1 0,0 0,0 0,0 0,0 0,0 0,0 0,0 0.1,0 0,0.1 0,0 0,0 0,0 0,0.1 0,0 0.1,0 0,0 0,0.1 0,0 0,0 0,0 0,0 0,0.1 0.1,0 0,0.1 0,0 0,0 0,0 0,0 0,0.1 0.1,0 0,0 0,0.1 0,0 0,0 0,0 0,0 0.1,0.1 0,0 0,0 0,0 0,0.1 0.1,0 0,0.1 0,0 0,0 0,0 0,0.1 0.1,0 0,0 0,0 0,0 0,0 0,0.1 0,0 0,0 0,0 0,0 0,0.1 0,0 0,0 0,0 0,0.1 0,0 0.1,0 0,0.1 0,0 0,0 0,0 0,0.1 0,0 0,0 0,0 0,0 0,0 0,0.1 0,0 0,0.1 0,0 0,0 0,0 0,0 0,0.1 0,0 0,0 0,0.1 0,0 0,0 0,0.1 0,0 0,0.1 0,0 0,0 0,0.1 0,0 0,0 0,0 0,0.1 0,0 0,0 0,0 0.1,0 0,0 0,0 0,0 0,0 0,0.1 0,0 0,0 0,0 0,0.1 0,0 0,0 0,0 0,0.1 0,0 0,0 0,0 0,0 0,0.1 0,0 0,0.1 0,0 0,0 0,0 0,0 0,0.1 0,0 0,0 0,0 0,0 0,0.1 0,0 0,0 -0.1,0.1 0,0 0,0.1 0,0 0,0 0,0 -0.1,0.1 0,0 0,0 0,0.1 0,0 0,0 0,0 0,0 -0.1,0.1 0,0 0,0 0,0 0,0.1 0,0 0,0 -0.1,0 0,0.1 0,0 0,0 0,0.1 -0.1,0 0,0 0,0 0,0.1 0,0 0,0 0,0 0,0.1 0,0 -0.1,0 0,0 0,0.2 0,0 0,0 0,0.1 0,0 0,0 0,0 0,0.1 0,0 0,0.1 -0.2,0.2 -0.2,1.1 -0.1,1.9 0.5,1.3 0,0 0,0 0.1,0 0,0 0,0 0,0 0,0 0.1,0 0,0.1 0,0 0,0 0,0 0.1,0 0,0 0,0 0,0 0,0.1 0,0 0,0 0,0 0.1,0 0,0.1 0,0 0,0 0,0 0,0.1 0,0 0,0 0,0 0,0 0,0.1 0,0 0,0 0,0 0,0.1 0,0 0,0 0,0 0,0.1 0,0 0,0 0,0 0.1,0.1 0,0 0,0 0,0 0,0.1 0,0 0,0.1 0,0 0,0 0,0.1 0,0 0.1,0 0,0 0,0.1 0,0 0,0 0,0 0,0.1 0,0 0,0 0.1,0.1 0,0 0,0 0,0 0,0.1 0,0 0,0 0.1,0 0,0 0,0 0,0 0,0 0,0.1 0,0 0,0.1 0,0 0,0 0,0 0,0.1 0,0 0,0 0.1,0 0,0.1 0,0 0,0 0,0 0.1,0.1 0,0.2 -0.1,0.2 0,0 0,0 0,0.1 0,0 0,0 0,0.1 -0.1,0 0,0.1 0,0 0,0 0,0.1 0,0 0,0 0,0.1 0,0 0,0 0,0.1 0,0 0,0 0,0 0,0.1 -0.1,0 0,0.1 0,0 0,0 0,0.1 0,0 0,0 0,0.1 0,0 -0.1,0 0,0.1 0,0 0,0 0,0.1 0,0 0,0 0,0.1 0,0 0,0 0,0.1 0,0 -0.3,0 0,0 0,0 0,0.1 0,0 -0.1,0 0,0.1 0,0 0,0 0,0.1 0,0 0,0 0,0.1 -0.1,0 0,0 0,0 0,0.1 0,0 0,0 0,0.1 0,0.1 0,0 0,0 0,0.1 0,0 0,0.1 0,0 0,0 0,0.1 0,0 0,0.1 0,0.1 0,0.1 0,0.1 0,0 0,0 0,0.1 0,0 0,0 0,0.1 0,0 0,0 0,0.1 0,0 0,0 0,0.1 -0.1,0 0,0 0,0.1 0,0 0,0 0,0.1 0,0 0,0.1 -0.1,0 0,0.1 0,0 0,0 0,0 0,0.1 0,0 -0.1,0.1 0,0 0,0 0,0 0,0 0,0 0,0.1 0,0 -0.1,0 0,0.1 0,0 0,0.1 0,0 0,0 0,0.1 0,0 0,0 -0.1,0.1 0,0 0,0 0,0.1 0,0 0,0 0,0.1 0,0 0,0.1 0,0 0,0 0,0.1 0,0 0,0 -0.1,0.1 0,0.1 0,0 0,0 0,0.1 0,0 0,0 0,0.1 0,0 0,0.1 0,0 0,0 -0.1,0.1 0,0 0,0 0,0.1 0,0 0,0 0,0.1 0,0 0,0 0,0.1 0,0 -0.1,0 0,0.1 0,0 0,0 0,0.1 0,0 0,0.1 0,0 0,0.1 0,0 0,0 0,0.1 0,0 0,0 0,0 0,0 0,0 0,0.1 0,0 -0.1,0 0,0 0,0.1 0,0 0,0 0,0.1 0,0 0,0.1 0,0 0,0 0,0 0,0.1 0,0 0,0 0,0.1 0,0 0,0.1 0,0 0,0 0,0 0,0.1 0,0 0,0 0,0.1 0,0 0,0.1 0,0 0,0 0,0.1 0,0 0,0 0.1,0 0,0.1 0,0 0,0 0,0 0,0.1 0,0 0,0 0,0.1 0,0 0,0 0,0 0,0.1 0,0 0,0.1 0,0 0,0 0,0.1 0,0 0,0 0,0.1 0.1,0 0,0 0,0.1 0,0 0,0 0,0.1 0,0 0,0 0,0.1 0,0 0,0.1 0,0 0,0 0,0.1 0,0 0,0 0.1,0.1 0,0 0,0 0,0 0,0 0,0 0,0 0,0.1 0,0 0,0.1 0,0 0.1,0 0,0.1 0,0 0,0 0,0.1 0,0 0,0 0,0 0,0.1 0,0 0,0 0,0.1 0,0.1 0,0 0,0 0.1,0 0,0.1 0,0 0,0 0,0 0,0.1 0,0 0,0 0,0 0,0.1 0,0 0,0 0,0.1 0,0 0,0.1 0,0 0,0 0,0 0,0.1 0,0 0,0 0,0.1 0,0 0,0 0,0 0,0 0,0.1 0,0 0,0.1 0,0 -0.1,0 0,0.1 0,0 0,0 0,0 0,0.1 0,0 -0.1,0.1 0,0 0,0.1 0,0 0,0 -0.1,0.1 0,0 0,0.1 0,0 0,0 0,0 -0.1,0.1 0,0 0,0 0,0 0,0 0,0 0,0 0,0 0,0.1 -0.1,0 0,0 0,0 0,0.1 0,0 0,0 0,0 0,0.1 0,0 0,0 0,0 0,0.1 0,0 0,0 0,0 -0.1,0.1 0,0 0,0 0,0 0,0.1 0,0 0.2,0 0,0 0,0 0,0.1 0,0 -0.1,0 0,0.1 0,0 0,0 -0.1,0 0,0 0,0.1 0,0 0,0 -0.1,0 0,0.2 -0.1,0 0,0 0,0 0,0.1 0,0 0,0 -0.1,0 0,0.1 0,0 0,0 0,0 -0.1,0.1 0,0 0,0 0,0 0,0.1 0,0 0,0 0,0 -0.1,0.1 0,0 0,0 0,0 0,0.1 0,0 0,0 0,0 0,0 0,0 0,0.1 0,0 0,0 0,0 0,0 0,0 0,0 0,0.1 0,0 0,0 0,0 0,0.1 0,0 0,0 0,0.1 0,0 0,0 0,0.1 0,0 0,0 0,0 0,0.1 0,0 0,0 0,0.1 0,0 0,0 0,0 0,0 0,0 0,0.1 0,0 0,0 0,0.1 0,0 0,0 0,0.1 0,0 0,0 0,0 0,0.1 0,0 0,0 0,0.1 0,0 0,0 0,0 0,0 0,0.1 0,0 0,0 0,0 0,0 0,0 0,0.1 0,0 0,0 0,0 0,0 0,0.1 0,0 0,0 0,0 0,0.1 0,0 0,0 0,0.1 0,0 0,0 0,0.1 0,0 0,0.1 0,0 0,0 0,0.1 0,0 0,0 0,0.1 0,0 0,0 0,0 0,0.1 0,0 0,0 0,0.1 0,0 0,0 0,0 0,0.1 0,0 0,0 0,0 0,0.1 0,0 0,0 0,0 0,0.1 0,0 0,0 0,0 0,0.1 0,0 0,0 0,0.1 0,0 0,0.1 0.1,0 0,0.1 0,0 0,0 0,0 0,0.1 -0.3,-0.4 -0.2,-0.3 -0.2,-0.2 -0.4,-0.5 -0.4,-0.5 -0.4,-0.2 -0.4,-0.3 -0.2,-0.2 -0.1,-0.1 0,-0.1 -0.1,-0.1 -1.5,0.2 -4.9,1.9 -1.1,-1.9 -0.7,-1.8 -0.8,-1.9 -0.4,-1.6 -0.9,-2.6 -0.5,0.2 -1.1,-2.3 -0.7,-1.2 -1.6,-2.7 -3.3,-2.1 -6,-2.3 -0.2,-0.3 -0.5,-1.4 -2.3,-1.5 -0.5,0.4 -2.2,1.6 -0.5,0.2 -0.5,0.4 -0.4,0.7 -6.1,-9.6 -1,-1.1 -1,-0.3 -2.6,-1.2 -0.8,-0.2 -1.5,-0.4 -3,0.8 -0.2,0.7 0.2,0.7 -0.2,0.5 -0.7,0.2 -0.9,0.2 -0.7,0 -0.5,-0.1 -0.5,-0.3 0.1,-0.7 -1.2,-0.5 -0.3,-0.1 -7,-5.4 -3.1,-6.3 0.8,-0.2 0.8,-0.3 0.2,-0.1 0.2,-0.1 0.3,-0.2 0.2,-0.2 0.2,-0.2 0.3,-0.2 0.3,-0.1 0.1,0 0.5,-0.9 0,-0.1 0.3,-0.6 0.5,-0.3 0.6,-0.8 0.5,-0.5 0.2,-0.1 0.4,-0.2 0.5,-0.3 0.2,-0.5 0.1,-0.3 0.2,-0.3 0,-5.3 -0.2,-1 -0.6,-0.4 -0.4,-0.3 -0.5,-0.3 -1.6,-0.9 -1,-1 -0.2,0.2 -0.3,0 -0.5,-0.9 -0.3,-0.7 -0.2,-0.3 -0.5,-0.8 -0.2,-0.6 -0.3,-0.5 -0.6,-1 -0.3,-0.6 2.9,-1.4 0.2,-0.1 -0.4,-0.5 -0.9,-1.2 -1.2,-1.8 -0.5,-0.9 -0.4,0.1 -1.3,0.5 -2.3,0.8 -0.9,0.3 -0.2,-1.2 -0.7,0.1 -0.6,0.2 -1.5,0.2 -2.1,-0.1 -0.8,-0.1 -0.5,-0.1 -0.2,0 -0.1,-0.1 -0.2,-0.2 -0.3,-0.1 -0.3,0 -0.2,-0.1 0.3,-0.6 2.4,-1.6 0.5,-0.5 -1.9,-2.6 -0.2,0.2 -1.6,-2.3 0.3,0.1 0.3,-0.2 0.3,-0.2 -0.3,-0.7 -0.2,-0.3 -0.1,-0.4 0.1,0 -0.1,-0.4 -0.2,-0.3 0.1,-0.4 -0.1,-0.4 0,0 -0.1,-0.3 -0.1,-0.4 -0.2,-0.3 -0.1,-0.3 -0.1,-0.4 0,-0.5 0.1,-0.1 0.1,0.1 0.5,-0.3 -0.9,-1.9 0,-0.1 -0.2,-0.3 -0.2,-0.2 0,-0.1 0,-0.4 0.1,-1 0.5,-0.4 0.9,-0.5 0.7,-0.5 0,-0.6 0.5,-3.8 0.8,-3 1.2,-4.8 2,-4.7 0.9,-3.7 0.1,-2.6 -0.9,-2.6 0,-0.2 -0.1,-0.2 0,-0.2 -0.1,-0.2 0,-0.1 -0.1,-0.2 0,-0.2 0,-0.3 -0.1,-0.4 -0.2,-0.7 -0.4,-0.1 -0.6,-0.1 0.1,-0.2 0,0 0.5,-2.2 0.5,-1.4 0.7,-2.1 0.3,-2.5 0.9,-3.9 0.9,-0.9 0.1,-0.6 0.2,-0.5 0.2,-0.3 0.1,-0.5 0.2,-0.4 0.1,-0.5 -0.1,-0.4 -0.2,-0.2 0.2,-0.9 0.5,-0.8 0.1,-0.7 0.1,-0.5 0.2,-0.5 0.1,-0.5 0.2,-0.9 -0.1,0 0.8,-0.4 1,-1.1 0.5,-0.8 0.3,-1.8 0.2,-0.4 0.2,0 0.2,-1.2 0.2,-0.2 0.2,-0.7 0.1,-0.9 1.1,-1.7 0.2,-0.2 0.9,-1.5 0.4,-0.7 0.5,-0.9 -0.2,0 -1.3,-0.4 -0.9,-0.3 -0.7,-0.1 -1,-0.2 -2.5,-0.4 -6.8,-1.7 0.3,-4.4 0.2,-0.8 0.4,-2.9 0.5,0.2 1,0.3 3,0.5 0.5,0.1 0.9,0.1 2.1,0.2 0.8,-6.7 0.2,-1.4 0,-1.3 0.6,-3.2 0.2,-0.8 -0.1,-0.2 0.3,-1.4 0.2,-1.4 -0.1,-3.2 0.5,-1.2 0.8,-3.3 0.5,-3.2 0.5,-0.8 0.1,-0.2 0.9,-0.6 0.6,-1.9 -0.5,-1.2 -0.6,-1.4 0.1,-1.8 1.1,-10.2 0.9,-5.3 2.3,-9.3 0.5,-3.3 0.1,-0.5 -0.1,-0.2 -0.2,-2.7 -0.5,-4.5 -0.2,-0.6 -0.3,-1.4 0,-0.1 -1.1,-3.5 -0.7,-2.7 -0.3,-1.2 0.2,-1.5 0,-0.8 -0.2,-0.1 0.9,-11.4 -0.6,-0.8 -4.6,-2.6 -2.7,-1.6 0.2,-0.3 -0.7,-3.2 0.2,-0.5 -3,-2.4 -0.5,-1.2 -0.9,-0.4 -1.1,-1.5 -0.2,-0.5 -0.1,-2.8 -1.9,-0.1 -0.2,-0.3 0,-0.3 0.4,-2.9 -0.5,-2 -0.5,-3.9 -0.7,-6 -1.1,-5.4 0.2,-2.2 -1.6,-0.3 -1.6,-2.1 -1.2,-2.9 0.3,-1.6 -0.9,-1.6 -1,-1.1 0.1,-1.7 1.5,-3.2 0.5,-2.1 -0.2,-1.7 -1.6,-1.2 -1.7,0 -1.6,-0.7 -0.9,-0.8 -0.4,-0.7 -1.2,-0.6 -0.5,-1.4 -3,-4.4 -1.8,-1.3 -0.2,-0.2 -0.1,-0.9 0.5,-0.9 0.9,-1.1 0.6,-0.9 -0.3,-1.6 -1.3,-3 0,0.1 -0.2,-0.8 -0.2,-0.9 -0.1,-0.2 -0.5,-0.8 -0.5,-1.1 -0.1,0 -0.5,-0.6 -0.5,-0.7 0,0.1 -0.5,-0.5 -0.5,-0.8 -0.8,-1.3 -0.9,-1.6 0,0 0.2,-0.5 0.2,-0.7 0,-0.1 0.1,-0.2 0.1,-0.2 0,-0.1 0.1,-0.2 0,-0.4 0,-0.1 0,-0.8 -0.1,-0.4 -0.1,-0.5 0,-0.2 -0.3,-0.6 -0.2,-0.7 -0.2,-0.3 -0.1,-0.2 -0.2,-0.2 -0.1,-0.1 0.1,-0.9 0.1,-1.1 0,-0.6 0,-1.1 0.4,-1.4 1.2,-1.2 0.9,-1.2 0.9,-1.8 0.4,-2.2 0.2,-0.8 0.1,-0.2 0.4,-1.2 0.1,-1.1 -0.2,-1.3 0.1,-0.9 0.5,-0.5 1.2,-0.8 0.9,-0.7 0.5,-0.6 1.3,-0.3 0.1,0 0,0 0.4,-0.2 0.2,0.1 0.2,0.1 1.9,0.9 0.1,0 0,0.1 0.6,0.6 0,0 0,0 1,0.9 0.5,0.4 0,0 0.5,0.2 0.6,0.2 1.2,0.4 0.1,0 0.2,0 0.1,-0.1 0.2,0 1,-0.6 2.3,-1 0.8,-0.2 0.4,-0.2 1.3,-0.5 0.5,-0.1 1.3,-0.2 0.9,-0.9 1.2,-1.2 1.3,-1.1 2.3,-0.3 1.9,-0.5 2,-1.4 1.4,-1.6 0.6,-1.1 -0.1,-1.5 -0.6,0 -2.4,0 -2.3,-0.2 -1.2,-0.8 -0.5,-3.3 0,-0.9 0.4,-0.7 0.5,-1 0.3,-0.7 -0.1,-0.9 -0.2,-0.7 0,-0.5 0.4,-0.8 0.5,-0.6 0.4,-0.7 0.5,-2 0,-0.8 -0.1,-1.2 -0.5,-1.9 -0.2,-1.3 0,-1.1 -0.2,-1.3 -0.4,-2.4 0,-1.2 0,-1.9 -0.3,-1.8 0,-1.6 0.2,-1.2 0.2,-1.6 0.2,-1.8 0.8,-1.9 0.5,-3.7 0.5,-4.7 0.6,-3.3 0.2,-1.1 0.1,-1.7 -0.1,-1.2 -0.5,-2.3 -0.3,-1.9 -0.3,-1 0,-1.2 0.2,-1.2 0.4,-0.7 0.6,-1.9 0.3,-2 0,-1.5 -0.1,-2.1 0.5,-4.6 -0.1,-3.7 0,-2.5 0.1,-0.5 0.5,-1.2 0.7,-1.2 1.2,-1.7 0.8,-1.9 0.7,-1.9 0.4,-2.9 -0.2,-2.7 -0.2,-1.7 0.4,-2.1 0,-1.5 -0.3,-1.7 -0.4,-1.9 -0.8,-1.4 -1.9,-2.5 -1.1,-1.9 -0.9,-1.9 -1.5,-2.9 -1,-0.8 -0.4,-2.3 -1.4,-4 -1.2,-1.7 -0.6,-1.8 0.2,-1.5 0.9,-1.2 1,-1.4 0.8,-1.1 0.2,-0.9 -0.2,-0.9 -0.1,-0.9 -0.2,-1.1 -0.2,-0.7 -0.6,-0.8 -0.5,-1 -0.2,-1.1 -0.1,-1.6 0.5,-3 0.3,-1.2 0,-1.2 -0.6,-1.3 -0.5,-0.8 -0.3,-0.5 -0.5,-0.5 -1,-0.9 -1.2,-0.5 -0.5,-0.1 -1.4,-0.3 -0.7,-0.5 0,-0.3 -0.3,-0.7 -1.2,-1.6 -0.9,-0.9 -1.2,-1.7 -0.8,-1.3 -0.2,-1.8 0.2,-2.5 -0.3,-1.8 0,-2.2 0,-1.7 0.2,-2.2 0.2,-1.2 -0.1,-5.4 -0.2,-1.9 0,-1.6 0.5,-1.7 0.2,-1.1 0.2,-1.3 -0.1,-1.1 0.2,-0.5 0,-0.9 0,-1.2 -0.5,-1.6 -0.5,-1.6 -0.7,-1.2 -1.1,-0.8 -1.3,-0.8 -4,-1.7 -1.9,-0.9 -1.6,-0.9 -2,-1.1 -1.6,-0.5 -1.6,-0.6 -1.3,-0.5 -0.1,-0.7 0.2,-1.2 1.2,-2 0.7,-1.2 1.1,-1.9 1.2,-2.3 0.5,-1.2 0.5,-0.9 0.7,-1 1.2,-1.1 0.5,-0.8 0.4,-1 0.1,-1.3 -0.5,-1.6 -0.9,-1.3 -0.5,-1 0,-1.1 0.5,-1.5 0.5,-1.9 0.8,-1.5 0.4,-1.1 0.1,-1.1 0,-1.3 0.2,-1.2 0.5,-0.5 0.5,0 0.9,0.2 1.3,0.2 0.9,0.1 0.7,-0.2 0.5,-0.6 0.3,-1.1 -0.1,-1.2 -0.3,-1.1 -0.2,-0.6 -1,-2.3 -0.2,-0.9 -0.4,-0.8 -0.5,-0.7 -0.6,-0.2 -0.3,-0.3 -0.6,-0.6 -0.6,-0.9 -0.9,-1.1 -0.7,-1.1 -0.3,-0.6 -0.2,-0.5 0,-0.7 0.2,-0.9 0.7,-0.9 0.9,-0.8 0,-1.3 0.2,-2.2 0.1,-0.7 0,-0.8 -0.2,-1.6 -0.1,-0.6 0,-0.4 0.1,-0.5 0.2,-0.5 0.2,-0.2 0.5,-0.6 0.6,-0.7 0.5,-0.5 0.7,-0.4 0.6,-0.2 1.1,-0.6 0.9,-0.6 0.5,-0.4 0.5,-0.5 0.6,-0.9 0.9,-1.2 0.6,-0.7 0.5,-0.7 0.8,-0.8 1.4,-1.2 0.8,-0.6 0.4,-0.5 0.4,-0.7 0,-0.9 L 54,87.1 53.6,86 53.4,84.8 52.5,84.5 52,83.4 50.2,81.1 48.6,80 46.8,79 45.1,77.8 43.3,77.6 41.1,77.8 38.5,77.6 35.8,76.8 34,75.7 33,73.8 32.8,73.1 31.9,69.7 29.5,66.1 29.2,63.6 28.7,59.1 28,56.5 l 0.3,-1.8 0.1,-1.2 0.9,-4.8 0.2,-3.3 -1,-2.6 0,-1.9 -0.2,-0.1 2.3,-2.6 0,-0.5 -1.9,-1.9 -0.7,-0.5 -1.1,-0.8 -1.6,-1.4 -0.5,-0.9 -1.1,-2 -0.2,-0.7 -0.2,-0.7 0.2,-0.6 0.3,-1.2 -0.2,-1.2 -0.6,-1.5 -0.7,-1.1 -0.2,-0.9 0.2,-0.5 0.3,-3.1 0.1,-1.1 0.4,-2.3 -1.2,-1.5 -2.3,-1.2 -0.9,-1.9 1.9,-0.2 1.9,-0.2 0.5,-0.5 1.2,0.8 1.2,0.7 0.5,0.2 0.6,0.2 1.1,0 1,-0.1 3.6,-0.8 2.5,0 1,-0.1 1.1,-0.1 0.9,-0.3 0.9,-0.3 1,-0.5 0.4,0.1 0.5,-0.2 0.6,-0.3 1,-0.5 0.5,-0.3 1.4,-0.5 1.2,-0.5 1.6,-0.7 1.1,-0.5 1.2,-0.5 2.4,-0.8 2.2,-0.7 1.4,2 z"
       inkscape:connector-curvature="0"
       class="DEP_06 ZON_02" /></g></svg>