<?xml version="1.0" encoding="UTF-8" standalone="no"?>
<!-- Generator: Adobe Illustrator 19.2.0, SVG Export Plug-In . SVG Version: 6.00 Build 0)  -->

<svg
   xmlns:dc="http://purl.org/dc/elements/1.1/"
   xmlns:cc="http://creativecommons.org/ns#"
   xmlns:rdf="http://www.w3.org/1999/02/22-rdf-syntax-ns#"
   xmlns:svg="http://www.w3.org/2000/svg"
   xmlns="http://www.w3.org/2000/svg"
   xmlns:sodipodi="http://sodipodi.sourceforge.net/DTD/sodipodi-0.dtd"
   xmlns:inkscape="http://www.inkscape.org/namespaces/inkscape"
   version="1.1"
   id="SvgMunicipio"
   x="0px"
   y="0px"
   viewBox="0 0 813.6 1000.1"
   style="enable-background:new 0 0 813.6 1000.1;"
   xml:space="preserve"
   inkscape:version="0.91 r13725"
   sodipodi:docname="MUN_ID0616.svg"><metadata
     id="metadata10"><rdf:RDF><cc:Work
         rdf:about=""><dc:format>image/svg+xml</dc:format><dc:type
           rdf:resource="http://purl.org/dc/dcmitype/StillImage" /></cc:Work></rdf:RDF></metadata><defs
     id="defs8" /><sodipodi:namedview
     pagecolor="#ffffff"
     bordercolor="#666666"
     borderopacity="1"
     objecttolerance="10"
     gridtolerance="10"
     guidetolerance="10"
     inkscape:pageopacity="0"
     inkscape:pageshadow="2"
     inkscape:window-width="682"
     inkscape:window-height="480"
     id="namedview6"
     showgrid="false"
     inkscape:zoom="0.23597641"
     inkscape:cx="406.79999"
     inkscape:cy="500.04999"
     inkscape:window-x="0"
     inkscape:window-y="0"
     inkscape:window-maximized="0"
     inkscape:current-layer="svg" /><g
     id="g3"><path
       id="MUN_0616"
       d="m 750.7,0.3 2.1,0.5 0.2,0 2.4,1.9 0.3,0.3 2.9,2.4 0.3,0.3 2.9,4.8 0.3,0.6 2.3,4.4 0.2,0.5 0.5,0.6 0,2.9 -1.1,2.6 -0.3,0.5 -1.6,2.6 -0.2,0.8 -1.6,2.4 -0.3,0.8 1,1.1 1.1,1.5 0.6,1 2.6,1 1,0.3 3.4,1.8 1.5,0.8 -0.5,2.7 -0.3,1.3 0.6,2.6 0.3,1.1 0,0.6 1.3,1 0.6,0.6 2.1,0.5 1.3,0 4.7,-0.8 3.2,-0.6 1.8,-0.5 1.3,-0.5 1.1,0.5 0.2,0.2 1.1,0.6 0.3,4.2 0.3,3.9 1,3.9 1.3,3.7 1.9,1.5 2.3,1.8 1.1,0.5 1.6,0.5 -1.6,1.5 -2.9,1.3 -1.5,0.6 4.8,8.9 -21,28.4 -7.4,1.3 1.6,5.6 -1.8,5 -7.1,1.9 -8.4,-8.9 -14.7,0 -4.2,10.5 1.3,13.1 -0.5,7.7 -0.2,2.7 3.5,-0.3 0,-1.8 1.3,-3.4 1.9,-2.4 2.4,-2.3 5.2,-1.3 4.4,-1.8 3.5,-2.9 3.2,-1 2.9,-0.3 2.4,0.6 3.5,2.6 1.9,2.4 1.3,2.7 1.5,2.3 2.4,-1 3.5,-4.4 1.3,-2.3 2.1,-3.5 1.1,-1.3 0.8,0.5 0.8,0.3 25.1,14.8 1,0.6 -3.5,1.5 -1.6,2.4 -1.8,2.9 -0.5,2.9 -0.6,1.3 -0.8,1.3 -1.1,1.3 -1.8,5.6 -4.5,4.8 -2.1,1.9 -3.1,2.1 -4.5,1.5 -2.6,6 0.8,2.9 0.5,1.8 0,2.4 -1,2.4 -2.6,4 -1.9,3.7 -2.9,1.1 -2.6,0.8 -2.4,1 -4.4,3.7 -4.2,1.3 -1.6,1.5 -0.8,1.8 -1.5,3.5 -2.1,4.2 -1.1,2.6 -1.9,3.1 -1.9,1.6 -1.9,1.9 -0.5,2.3 -2.1,4.7 -2.9,2.9 -6.3,2.6 -3.1,3.2 -3.9,2.6 -3.5,1.6 -2.1,1.1 -1.3,1.3 -0.5,0.3 -1.1,2.3 -2.3,4.4 -2.6,2.7 -1.1,1.8 -0.3,1 0.3,3.2 1.9,3.5 1.9,4.8 0,1.9 -0.5,2.7 -1.1,2.1 -1.1,1.8 -1.9,1.5 -6,0.6 -1.3,1.1 -2.1,2.3 -4,5.8 -1.9,4.5 -1.1,1.9 -0.6,0.3 -5,-0.6 -1.3,0.2 -0.6,1 -1.1,0.8 -2.9,3.7 -3.4,1 -3.7,1.1 -2.9,0.8 -1.8,1.3 -1.9,2.4 -1.5,2.1 -2.7,3.5 -4.2,4.8 -1.1,1.8 -0.8,1.5 -0.6,1.5 -1.9,5.3 -1.3,1.8 -1,0.2 -3.4,0 -2.6,0 -1.9,0.2 -1.3,0.2 -0.6,0.6 -0.5,0.6 -0.5,1.6 -0.5,0.3 -1.5,0 -2.6,-0.2 -2.7,0 -1.8,0.8 -1.1,1.1 -0.5,1.1 -0.5,2.9 -0.5,2.7 -0.2,3.7 -0.5,0.8 -0.8,1.1 -0.2,1.3 0.2,1.1 0.8,1 1.3,1.1 2.9,2.1 1.1,1 0.6,0.8 0.5,0.8 0.3,1.3 0.2,0.8 -0.2,0.8 0.5,0.5 0.6,0.5 1,0.8 0.3,0 0.3,0.3 1,0.6 1.6,1.8 1.1,1 1.6,1.6 1.8,1.9 1.3,1 1.1,1.6 1.3,1.5 2.4,1.8 1.8,2.1 0.6,1.1 1.1,2.4 0.3,0.8 0,1.3 0,1.6 0,0.8 0.2,2.3 0.3,1.6 0.3,1.6 0.8,1.6 0.2,1 0.3,1.1 0.2,1.1 0,0.5 -0.3,2.3 -0.3,1.3 -0.5,0.8 -0.5,1.3 0,0 -4.5,-1 -11,1 -2.1,2.7 -0.2,0.5 -2.6,2.7 -6,4.7 3.7,8.9 1,2.6 -12.7,3.1 -0.6,0.2 0.3,2.3 0.5,1.3 0.2,1.3 0.3,0.6 0.5,1.1 1,0.6 1.1,1 0.2,1 0,1.3 0,1 -0.2,1.5 0.2,1.9 1.3,7.1 0.2,1.8 0.3,1.3 0.5,1.1 1.1,1.3 1.1,1 1.6,1.3 0.2,0 1.8,0.8 1.1,0.8 1,1 0.8,1.8 0.5,2.3 0.6,1.6 0.8,2.1 0.6,1.8 1.3,3.2 0.8,1.9 0.2,1.6 0,0 0.5,1.9 0.2,1.9 0.3,0.6 0.8,1.3 1.1,1.3 0.5,1.3 0.2,0.8 -0.3,1.1 -0.2,1 -0.3,0.6 -0.8,1 -0.8,1.3 -0.5,1 -0.6,1.8 -0.5,2.3 -0.6,2.4 0.2,0.8 0.3,1.3 0.8,0.6 2.9,1.3 3.2,1.3 1.9,1 0.5,0.8 0.5,1.5 -0.5,2.7 -0.2,1.5 -0.3,1.9 0.2,1.6 0.2,0.8 1.6,2.3 0.5,0.8 0.3,0.8 0.2,1.6 -0.2,0.8 0.3,1.8 0,2.1 0.3,1.1 0.2,1.9 -0.2,1.9 -0.2,1.6 -0.2,1.1 -0.3,0.6 -0.8,1 -1.1,1.3 -0.3,0.8 0,1.3 0.2,1 0.8,2.1 0.6,1.1 1.9,2.4 2.1,2.7 1.9,3.2 1.1,1.5 2.9,2.7 3.1,3.7 1.1,0.8 1,0.3 2.6,0 1.6,0.5 1.6,2.1 0,0 1.6,1.8 1.1,2.1 0.5,1.6 2.7,11 1.9,7.3 0.8,3.5 -0.8,5.2 3.4,1.1 1.9,1 0.2,0 1.8,0.8 3.9,2.7 1.8,1.3 1,1.3 1.3,1.9 0.2,1.3 0,3.7 -0.2,1.8 -0.6,2.1 -1.6,3.9 -1,1.9 -1.5,4.5 -1,0 -0.6,0 -7.3,1.6 -1.9,0.5 -0.2,-0.5 -1.6,-6.3 -2.3,-0.3 -7.7,-1.9 -0.5,1.8 -2.3,-0.8 -1.9,-0.8 -0.2,0.2 -1,-0.2 -1.3,-0.3 -0.5,0 -0.3,-0.2 -1.9,-0.3 -0.8,-0.8 0.4,0 -0.5,2.7 -2.7,-0.8 -0.8,-1.3 -1.6,-0.3 -3.9,-0.6 -0.8,1.3 -0.2,2.4 -4.2,6.1 3.9,3.7 3.7,3.5 2.1,1.5 -0.2,1.8 4,1.1 0,0 -0.2,1.9 -0.2,1.9 -0.2,2.3 0.5,2.3 0.5,2.6 1.1,4 0.6,2.4 0.2,3.2 -0.3,2.3 -1.3,2.1 -1.6,3.1 -1.1,1.8 -0.5,1.3 -1.3,2.9 -0.6,5.6 -0.2,4 -0.5,1.6 -0.3,2.6 0,4.5 0.8,6.6 -0.5,2.4 -2.3,3.5 -1.1,2.1 -0.5,2.1 -0.5,2.1 -0.2,4.7 1.8,4.2 0.2,0.8 0,1 -0.8,2.7 0,0.8 1.3,1.3 -0.5,6.6 -0.2,2.1 -0.8,1.8 0.3,1.6 0,0.6 1.6,0.8 1.8,0.5 1.5,1.1 0.6,2.3 -0.2,1.1 0.5,2.1 0.2,1.9 -0.6,3.2 -1,3.1 -0.6,1.5 -0.6,1.3 -1.3,1.5 -2.6,2.6 -2.1,1 -0.6,1 -0.6,1.5 -0.2,1.8 -0.2,1.1 -0.5,1 -1,1.9 -1.6,1.9 -1.3,1.1 0.3,2.7 1,0.8 1.1,0.3 1.5,-0.2 1.9,-0.3 1.8,0.2 1.5,0.2 1.3,0.5 1.3,0.6 0.3,0.5 0,0.8 -0.8,0.8 -1,1 -0.5,1.8 -1,2.3 0,1.6 0.2,2.4 -1,2.1 -1.6,1 -0.8,0.5 -2.3,0.2 -1.3,0.3 -1,0.6 -0.5,1.1 0.3,1.9 0,1.1 -0.2,1.1 -1,1.1 -1.3,1.9 -1.5,1.1 -1.1,1.5 0.5,1.9 2.7,3.9 2.4,3.4 0.6,1 0.2,3.9 -0.3,0.8 -1,3.1 -0.5,3.4 0,1.5 0.5,4 -1.1,1.8 -1.6,2.7 -1.6,0.6 -5.3,0.6 -2.6,0.6 -2.3,0.8 -1.1,1.6 -1.5,2.6 -0.5,1.3 -1.1,2.6 -0.6,2.3 -0.2,2.3 -1.5,2.7 -1.8,3.5 -2.6,2.4 -2.7,1.9 -1.3,3.1 0,2.6 1.1,4 0,3.5 -0.6,1.9 -0.8,1 -1.3,1 -3.9,-0.2 -1.9,-0.2 -1.5,-0.7 -3.1,-0.2 -2.3,0.2 0.3,3.1 1.3,6.1 1.6,7.4 0.6,3.5 -0.5,1.6 -1,1.1 -10.3,8.5 0,5.3 1.6,5.6 3.4,4.8 1.6,4.2 1.9,6.4 -0.3,4.8 -1.1,3.1 -1.3,3.9 -0.5,3.2 0.5,2.4 0.8,2.1 4.8,8.4 -3.2,15 0,4.8 1.3,2.6 1.9,1.9 3.9,4.7 -85.6,2.1 -343.8,8.2 L 102.5,812 43.8,621.3 0,460.1 l 1,0.2 1.3,0.2 1.1,-0.2 2.4,-0.3 4.4,-1.3 1.1,-0.2 3.1,0.2 1.3,0.2 1.8,0 0.5,0 0.8,0 0.6,-0.2 0.6,-0.5 2.3,-1.9 1.1,-1.5 1.3,-2.4 0.8,-2.4 0.6,-1.9 0.5,-0.6 0.6,-0.8 0.8,-0.5 2.6,-0.6 1.9,0 2.6,0.5 1.4,0.6 1.5,1 1,0.8 2.1,1.1 0.8,0 1.9,0.2 2.3,-0.6 1.6,-0.8 2.9,-1.8 1.9,-0.8 1.6,0 2.3,-0.3 2.3,0.2 3.4,-0.3 1.6,-1.1 1.4,-1.6 2.4,-1.8 5.2,-2.9 1.8,-0.6 4,-1 2.4,-0.5 2.4,-0.3 1.6,-0.2 3.7,-0.8 3.4,-0.3 2.6,-0.5 3.7,-0.2 2.9,-1.1 2.4,-1 1.9,-0.8 0.2,-0.3 11.3,-46.3 0.6,-1.9 6.6,-20.3 4.5,-13.2 95.6,-263.4 2.3,1.1 4.4,1.9 7.1,1.3 7.3,1.6 0.2,0 31.8,3.4 14.2,1.6 8.4,4 5.6,3.7 7.3,3.1 6.9,3.1 6.3,2.4 3.1,1.3 0.5,0.2 0.6,0.3 6.8,0.5 1.5,0.3 2.4,1.3 -4.7,3.4 -1.3,0.6 -1,0.3 -0.3,-0.5 -1.9,2.4 -1.3,1.5 -1.9,5.3 -1.5,1.3 -1.5,1.3 -1.1,1.4 -0.3,1 -0.3,1 -0.3,1.6 0.3,1 0.2,0.8 1,2.4 0,1.5 0.3,3.1 1.1,1.6 1.1,2.9 1.5,2.6 1.8,2.9 0.8,0.3 0.8,0.8 0.8,0.6 1,0.6 2.7,0.8 1.3,0 3.7,-0.5 1.1,1.9 1.1,1.8 8.4,3.5 5.8,3.4 3.9,-3.9 1.6,0.2 4.5,3.4 1.9,-1.1 2.9,-2.9 3.9,-2.3 1,-0.2 1.1,-0.2 1.9,0 0.5,0.2 0.5,0.3 1,0.8 1.6,2.3 1.6,2.3 2.3,0.8 4.2,1.8 3.9,1.9 1,0.3 1,0.3 3.1,1.3 4.2,-0.5 4,-1.3 1.3,-0.2 1.8,-0.3 2.9,-0.3 3.5,-0.3 0.2,0 3.2,-0.2 2.6,0 1.1,-0.2 3.1,-1.3 2.7,-1.1 3.5,-1.8 1.6,-1.1 4,-4.4 1.6,-1.5 7.3,-6.1 0.8,-0.5 0.5,-1.3 0,-0.3 0,-1.8 -1,-1.1 -2.6,-2.3 -0.5,-1.3 -0.3,-1.3 -0.8,-0.6 -0.2,-0.5 -0.3,-1.7 -0.8,-1.3 -1,-1 -1.1,-1.3 -1.1,-1 -0.5,-1 0,-0.6 0,-0.8 -0.2,-0.5 0.6,-1.5 1.6,-2.6 1,-4.5 1.3,-2.9 18.9,-16.3 1.9,-3.7 1.5,-1 1.8,-1 3.9,-0.2 0.3,-3.7 0.2,-0.8 0.2,-0.5 0.2,-0.3 0,0 0.2,-0.2 4.5,-3.9 0.6,-0.5 2.6,-2.3 0.8,-0.8 0.2,0 0.3,-0.6 0.6,-0.6 0,0 0.5,-0.5 0.2,-0.5 0.2,0 0.2,-0.2 0.2,-1.3 0,-0.3 0.2,-1.3 0,-0.3 0,-0.3 0,-0.3 1.1,-1 0.6,-0.5 1.5,-1.3 0.5,-0.8 0.5,-0.6 0.6,-1.8 0.5,-0.6 0.5,-0.5 0.8,-1.1 0.6,-0.5 0.6,-0.3 1.5,-1 0.3,-0.3 0.3,-0.5 1,-0.8 0.2,0 0.3,-0.2 0.8,-0.3 0.2,0 0.3,-0.2 0.8,-0.2 0,0 0.2,-0.2 0.3,-0.3 0,0 0,-0.2 0.2,-0.2 0,0 0,-0.2 0.2,0 0,-0.2 0,-0.2 0.2,-0.3 0,-0.2 0.2,-0.3 0,-0.3 0.2,-0.3 0,0 0,-0.2 0,-0.2 0,-0.2 0.2,-0.3 0,-0.3 0.2,0 0.2,-0.3 0,-0.2 0,0 0.2,-0.2 0,-0.2 0,0 0,-0.2 0,-0.2 0,-0.2 0,-0.2 0,0.7 0,0 0,-0.2 0,0 0,-0.2 0.2,-0.5 0.3,-0.5 0,0 0.2,-0.3 0.2,-0.3 0,0 0,-0.2 0.2,-0.3 0,0 0,-0.2 0,-0.3 0,0 0,0 0,-0.2 0,0 -0.2,0 -0.3,-0.5 0,0 -0.2,-0.2 -0.3,-0.2 0,-0.2 0,0 -0.3,-0.3 -0.2,0 0,0 -1.4,-0.4 -0.2,0 0,-0.2 -0.3,-0.5 -0.2,0 0,0 0,-0.2 -0.2,0 0,0 -0.1,0 0,0 -0.2,0 -0.2,-0.2 0,0 0,0 -0.5,-0.2 0,0 -0.1,0 -0.2,-0.2 0,0 -0.2,-0.2 0,0 0,0 0,0 -0.2,-0.2 0,-0.2 0,0 -0.2,-0.3 0,0 -0.2,-0.2 -0.2,-0.8 0,-0.2 -0.3,-0.3 0,-0.2 0,0 0,-0.2 0,0 0,0 0,0.3 0,0 0,0 0,0 0,0 0,0 -0.2,0 0,0 -0.2,0 0,0 -0.2,0 -0.2,0 0,0 -0.2,0 -0.2,0 0,-0.2 0,0 -0.2,0 -0.2,-0.2 0,0 0,-0.2 -0.2,0 0,0 0,-0.2 0,0 0,-0.2 0,0 0,0 0,-0.2 0.2,-0.2 0,0 0,0 0,-0.2 0,0 0,-0.2 0.3,-0.3 0,0 0,-0.2 0.2,-0.2 0.2,-0.2 0,0 0.3,-0.5 0.2,-0.2 0,0 0.2,0 0,0 0,0 0.3,-0.2 0.2,-0.2 0,0 0.5,-0.3 0.2,0 0.2,-0.2 0.5,-0.5 0.3,-0.2 0,0 0.2,-0.2 0,-0.2 0,0 0,0.4 0,-0.2 0,0 0.2,-0.2 0.2,-0.2 0,-0.2 0,0 0.2,0 0,-0.2 0,0 0,0 0,-0.2 0.2,-0.2 0,0 0,-0.2 0,-0.2 0,0 0,0 0,0 0,-0.2 0,0 0,-0.2 0,-0.2 0,0 0,-0.2 0,-0.2 0,-0.2 0.2,-0.3 0,0 0,-0.2 0,0 0,-0.2 0,0 0.2,-0.6 0,0.3 0,0 0,-0.3 0.2,0 0,0 0,-0.3 0,-0.2 0.2,0 0,-0.2 0,0 0,0 0,-0.2 0.2,0 0,0 0,-0.2 0,0 0.2,-0.2 0,0 0.2,0 0,-0.2 0,0 0,0 0,0 0,0 0,0 0,-0.2 0,0 0,0 0,-0.2 0,-0.2 0.2,-0.2 0,-0.2 0,-0.2 0,-0.2 0,0 0.2,-0.2 0,0 0,0 0,-0.2 0,0 0,0 0,-0.2 0,0 0,0 0,-0.2 0,-0.2 0,0 0,-0.2 0,0 0,-0.2 0,0 0,-0.2 0,-0.2 0,0 0,0 0,0 0,-0.2 0,-0.2 0,0 0,0 0.2,-0.5 0,0 0,0 0,-0.3 0,0 0,-0.2 0.2,-0.5 0,0 0,0 0,-0.2 0,0 0,0 0,-0.5 0,0.6 0,0 0,-0.3 0,0 0,0 0.2,-0.5 0,-0.2 0,0 0.3,-0.3 0,-0.2 0,0 0.3,-0.3 0,-0.2 0,0 0.2,-0.3 0,0 0,-0.2 0,0 0,-0.2 0,0 0.2,-0.2 0,0 0,0 0.2,-0.2 0,0 0,0.1 0.2,0 0,-0.2 0.2,0 0,-0.2 0.2,0 0,0 0,-0.2 0,-0.2 0.2,-0.2 0,0 0,0 0,-0.2 0,0 0,-0.2 0.2,0 0,0 0,-0.2 0,0 0,0 0,-0.2 0,0 0,-0.2 0,-0.2 0,0 0,-0.2 0,0 -0.2,-0.2 0,0 0,-0.2 0,-0.2 0,0 -0.2,-0.2 0,-0.2 0,0 -0.2,-0.2 -0.2,-0.2 0,0 0,-0.2 -0.2,0 0,-0.2 -0.2,0 0,0 0,0 -0.3,-0.2 0,0 -0.6,0 -0.3,-0.2 -0.2,0 0,0.6 -0.3,0 -0.2,0 0,0 -0.3,-0.2 -0.2,0 -0.2,-0.2 -0.2,0 0,0 -0.2,0 -0.2,-0.2 0,0 -0.2,-0.2 -0.2,-0.2 0,0 -0.2,-0.2 0,0 0,0 0,-0.2 -0.2,0 0,0 0,-0.2 0,0 0,0 0,0 0,-0.2 0,0 0,-0.2 0,0 0,0 0,-0.2 0,-0.2 0,0 0.2,0 0,-0.3 0.2,0 0,0 0,-0.2 0,0 0.2,0 0,-0.2 0,0 0.5,0 0,0 0,-0.2 0.6,-0.2 0,0 0,0 0.2,-0.2 0,0 0.2,0 0.6,-0.5 0,0 0,0 0.5,-0.3 0,0 0,0 0.2,-0.5 0.2,0 0,0 0,0 0,-0.2 0,0 0,-0.5 0,0 0,-0.2 -0.2,-0.5 0,-0.2 0,-0.2 -0.2,-0.3 0,-0.2 0,0 -0.3,-0.6 0,-0.1 0,-0.2 -0.5,-0.6 0.6,-0.3 1.1,-0.5 0.5,-0.8 0.6,-0.3 0.6,-0.5 1.5,-1.5 1.1,-0.6 1,-0.6 1.3,-0.6 0,0 2.7,0.2 1.3,0 2.3,0.2 1.3,0 1.1,0.3 0.5,-0.2 0.8,-0.2 0.3,-0.8 0.2,-0.5 2.7,-0.2 16.1,-1.9 16.3,-1.6 4.2,25 0,0.6 2.6,15.3 12.2,-7.7 6.1,12.7 -1.8,11.9 3.5,5.6 10.5,1.9 2.4,0.3 0.8,-1.3 0.8,-1.5 2.9,1.1 2.9,1 1.9,-1.1 1.8,-1 0.3,-0.2 0.6,-0.6 1.1,-0.5 1,-0.5 1.3,-0.8 0.6,0.8 0.6,1.1 0.8,1.3 1,1.9 0.6,0.8 0.3,0.2 1,1.1 1.8,-0.2 2.4,-0.6 1.6,-1.5 3.2,-3.2 1.6,-1.1 3.7,-2.9 0.5,-0.3 1.3,-0.5 0.2,0.2 1.1,0.5 4,1.8 0.5,-0.2 1.6,-1 0.6,0 1.8,-0.2 0.2,0 0.5,0 0.2,-0.3 0.6,-1.3 0.3,-1.1 0.3,-0.6 2.3,-4 0.5,0 2.9,-0.3 0.5,0 4.2,0 0.2,0 2.9,-0.3 0.2,0 0.3,0 2.7,-0.5 0.2,-0.2 5.5,-6.6 0,0 3.7,-0.6 0,0 4.4,0.8 0.2,0 1.6,0.5 0.5,0.2 0.2,0 2.4,-0.2 0.2,-0.2 1.8,0.5 0,0 1.9,-1.3 0.2,-0.2 1.6,-2.3 0.3,-0.5 0.3,-0.5 0.8,-1.8 0.2,-0.5 1.3,-4.8 0.2,-0.8 1.3,-1.5 0.2,-0.3 2.7,-0.5 0.6,0 1.5,-0.5 0.2,0 0.2,-0.2 4.7,-1 1.8,-0.5 4,-1.9 1.6,-0.8 1.6,-1.1 0.8,-0.6 0.8,-1.6 0.2,-0.6 -0.2,-0.8 -0.2,-0.8 -0.2,-0.8 -1,-1.4 -0.5,-1.1 -0.8,-1.1 -0.6,-0.6 -1.3,-1.8 -1.1,-1.3 0.6,-1.6 0.5,-1 0.2,-0.3 1.3,-1.4 1.1,-1.1 2.4,-0.2 2.3,0 1.3,1 1.1,1.1 0.2,0.2 0.2,0.2 0.6,0.2 0,0 0.6,0.2 0.3,-0.3 0.6,-0.5 0.3,-0.5 0.5,-0.6 0.2,-0.8 0.2,-1.5 -0.8,-3.4 -1.5,-6 0,-0.2 0.6,-1 1.3,-2.4 1,0 2.6,0 1,0.6 2.4,1.1 0.5,1 1.5,2.4 0.2,1 0.2,1.3 0.3,1.8 0.3,0.8 1.1,2.1 0.1,0.5 1,1.3 0,0 0,-0.2 0.5,0.2 1.9,0.6 0.3,-0.2 0,0 1.9,-0.5 0.3,-0.2 1.8,-1.8 0,-0.2 1,-1.5 0,-0.2 0.8,-1.3 0.2,0 1.1,-1.3 0.5,-0.6 0.2,0 2.1,-3.2 0,-0.1 1.9,-4 0,0 3.1,-1.5 0,0 2.3,-0.3 0.2,0 0.6,0.3 z"
       inkscape:connector-curvature="0"
       class="DEP_06 ZON_02" /></g></svg>