<?xml version="1.0" encoding="UTF-8" standalone="no"?>
<!-- Generator: Adobe Illustrator 19.2.0, SVG Export Plug-In . SVG Version: 6.00 Build 0)  -->

<svg
   xmlns:dc="http://purl.org/dc/elements/1.1/"
   xmlns:cc="http://creativecommons.org/ns#"
   xmlns:rdf="http://www.w3.org/1999/02/22-rdf-syntax-ns#"
   xmlns:svg="http://www.w3.org/2000/svg"
   xmlns="http://www.w3.org/2000/svg"
   xmlns:sodipodi="http://sodipodi.sourceforge.net/DTD/sodipodi-0.dtd"
   xmlns:inkscape="http://www.inkscape.org/namespaces/inkscape"
   version="1.1"
   id="SvgMunicipio"
   x="0px"
   y="0px"
   viewBox="0 0 1000 582.4"
   style="enable-background:new 0 0 1000 582.4;"
   xml:space="preserve"
   inkscape:version="0.91 r13725"
   sodipodi:docname="MUN_ID0607.svg"><metadata
     id="metadata10"><rdf:RDF><cc:Work
         rdf:about=""><dc:format>image/svg+xml</dc:format><dc:type
           rdf:resource="http://purl.org/dc/dcmitype/StillImage" /></cc:Work></rdf:RDF></metadata><defs
     id="defs8" /><sodipodi:namedview
     pagecolor="#ffffff"
     bordercolor="#666666"
     borderopacity="1"
     objecttolerance="10"
     gridtolerance="10"
     guidetolerance="10"
     inkscape:pageopacity="0"
     inkscape:pageshadow="2"
     inkscape:window-width="682"
     inkscape:window-height="480"
     id="namedview6"
     showgrid="false"
     inkscape:zoom="0.40521976"
     inkscape:cx="500"
     inkscape:cy="291.20001"
     inkscape:window-x="0"
     inkscape:window-y="0"
     inkscape:window-maximized="0"
     inkscape:current-layer="svg" /><g
     id="g3"><path
       id="MUN_0607"
       d="m 241.9,1.1 1,0.3 3.6,0 2.5,1.1 1.3,1.2 -0.2,2.4 0,1.5 1,1.2 1.6,0.7 2.4,-0.1 1.6,0 0.9,-0.1 0,0 0.8,-1.1 1.6,-1.2 1.3,-0.4 1.1,-0.3 0.9,-0.2 0.7,-0.3 0.2,0.1 1.1,1 1.2,1.1 0.8,1.3 0.4,1.2 0.9,0.9 0.2,0.2 0.5,0.2 1.5,1 1.3,1.2 1,0.8 1.4,0.4 1.3,0 0.8,-0.3 0.8,-0.8 1.7,-1 1,0 1.2,0.8 2.2,0.2 2.3,-0.3 1.3,0.8 2.5,0.9 1.6,1 0.1,0.1 1.2,0.2 0.3,0.4 0.8,0.1 2.2,-0.5 0.9,0.2 1.6,1 0.9,0.9 1.1,0 1.5,0.5 1.4,0.5 4.9,6.4 -0.9,1.1 -0.9,0.3 0,0.7 -0.3,0.4 3.2,0.8 0.1,1.7 -0.1,1.6 1.3,0.8 3.2,1 3.1,0 1.3,0.9 1.5,1.7 0.8,1.2 0.9,1.2 0.5,1.5 1.9,2.2 2.3,2.1 1.4,2 1.2,1.2 0.7,0.5 0.8,0.4 6.3,2.2 2.9,0.2 2.7,-0.3 2,-0.4 2.2,-0.2 2.9,-0.1 4.3,3.8 3.2,2.4 0.8,0.1 -0.1,-0.7 0.1,-0.1 -0.8,-2.6 -0.9,-3.2 -0.5,-1.6 0.8,-0.2 1.1,-0.3 3.3,-0.9 3.4,-1 3.5,-1 5.4,-1.4 0,2.1 0.2,0.9 0.3,1 0.2,1.1 0.4,1.9 0.2,0.8 3.2,-1 2.3,-0.5 2,-0.5 2.3,-0.7 2.1,-0.7 2.3,-0.5 2.7,-0.8 3.1,11.4 1.7,6.5 1.6,6.1 3.4,-0.4 4.6,0.1 4.4,0.3 1.3,0.1 1.6,0.7 1,0.5 1.4,0.1 0.1,-0.2 3.8,0.3 1,0.1 1,0.1 0.7,0 0.7,0.1 0.8,0.2 2.8,1 0.7,0.3 1.3,0.7 0.9,0.4 0.5,0.4 0.5,0.3 0.2,0.5 0.7,0.7 1.2,1.2 0.1,0 0.7,0.2 0.7,0.4 0.7,0.4 1,0.5 1.3,0.8 0.9,0.2 0.2,0.1 0.2,0 1.2,0.3 0.3,0.2 1.3,0.4 0.4,0.1 0,0 0.4,0.2 0.1,0 0.4,0.2 0.7,0.2 1,0.3 0.3,0.1 0.5,0.1 0.9,0.2 1.4,0.2 0.7,0.2 3.7,0.5 0.7,0.3 1.2,0.3 1.4,0.3 1.2,0.5 1.5,0.9 3.5,1.1 0.5,0.1 0.8,0.2 0.4,0.1 1.3,0.3 1.2,0.4 0.4,0 1.9,0.8 1.7,0.5 0.7,0.2 1.2,0.4 0.7,0.5 0.3,0.2 0.4,0.3 0.4,0.2 1.7,0.5 0.7,0.9 0.2,-0.1 1.1,0.1 0.5,0.2 0,0.1 0.2,-0.3 0.9,0.4 1.6,1.5 0.9,-0.7 1.4,-0.1 0.3,0.2 2.2,3.3 0.3,-0.2 2.6,3.7 -0.8,0.7 -3.4,2.3 -0.4,0.9 0.3,0.1 0.4,0 0.4,0.1 0.3,0.2 0.1,0.1 0.3,0 0.7,0.1 1.1,0.1 2.9,0.1 2.1,-0.2 0.9,-0.2 1,-0.1 0.2,1.7 1.2,-0.4 3.2,-1.1 1.9,-0.7 0.5,-0.1 0.8,1.3 1.7,2.5 1.2,1.6 0.5,0.8 -0.2,0.1 -4,2 0.4,0.9 0.9,1.4 0.4,0.7 0.4,0.9 0.7,1.1 0.3,0.4 0.4,1 0.8,1.2 0.4,0 0.3,-0.3 1.4,1.4 2.3,1.3 0.7,0.4 0.5,0.4 0.9,0.5 0.3,1.4 0,0.3 -0.2,0.4 0.2,0.9 -0.3,0.7 -0.8,0.4 -0.5,0.3 -0.2,0.1 -0.8,0.8 -0.9,1.1 -0.8,0.4 -0.4,0.9 0,0.1 -0.7,1.3 -0.1,0 -0.4,0.1 -0.4,0.2 -0.3,0.2 -0.3,0.2 -0.4,0.2 -0.2,0.1 -0.3,0.1 -1.1,0.4 -1.1,0.3 4.4,8.8 9.8,7.5 0.4,0.1 1.6,0.7 -0.1,1 0.8,0.4 0.7,0.1 1,0 1.3,-0.2 1,-0.2 0.3,-0.7 -0.2,-1 0.3,-1 4.1,-1.1 2.1,0.5 1.1,0.3 3.7,1.6 1.4,0.4 1.4,1.5 8.6,13.4 0.5,-1 0.7,-0.5 0.8,-0.3 3.1,-2.2 0.8,-0.5 3.2,2.1 0.7,2 0.3,0.4 8.4,3.2 4.7,2.9 2.3,3.8 1,1.7 1.5,3.2 0.7,-0.3 1.2,3.7 0.5,2.3 1.1,2.6 1,2.5 1.5,2.7 6.9,-2.7 2.1,-0.2 0.1,0.1 0,0.1 0.1,0.1 0.2,0.2 0.5,0.4 0.5,0.2 0.5,0.7 0.5,0.7 0.3,0.3 0.2,0.4 0.4,0.5 0,-0.1 0,0 0,0 0,0 0,-0.1 -0.1,0 0,-0.1 0,0 0,0.2 0,0 0,0 0,-0.1 0,0 0,0 0,0 0,-0.1 0,0 0,0 0,0 0,-0.1 0,0 0,0 0,0 0,-0.1 0,0 0,0 0,0 0,-0.1 0,0 0,0 0,-0.1 0,0 0,0 0,0 0,-0.1 0,0 0,0 0,-0.1 0,0 0,0 0,-0.1 0,0 0,-0.1 0,0 0,0 0,-0.1 0,0 0,0 0,-0.1 0,0 0,0 0,0 0,-0.1 0,0 0,0 0,0 0,0 0,-0.1 0,0 0,0 0,0 0,0 0,0 0,-0.1 0,0 0,0 0,0 0,0 0,-0.1 0,0 0,0 0,-0.1 0,0 0,0 0,0 0,-0.1 0,0 0,0 0,-0.2 0,0 0,0 0,-0.1 0,0 0,0 0,0 0,0 0,0 0,-0.1 0,0 0,0 0,-0.1 0,0 0,0 0,0 0,-0.1 0,0 0,0 0,-0.1 0,0 0,0 0,-0.1 0,0 0,0 0,0 0,-0.1 0,0 0,0 0,0 0,0 0,0 0,0 0,-0.1 0,0 0,0 0,0 0,0 0,0 0,-0.2 0,0 0,0 0,0 0.1,-0.1 0,0 0,0 0,0 0,-0.1 0,0 0,0 0,0 0.1,-0.1 0,0 0,0 0,0 0,-0.1 0.1,0 0,0 0,0 0,-0.1 0,0 0,0 0.1,0 0,-0.2 0.1,0 0,0 0,0 0,-0.1 0,0 0.1,0 0,0 0,0 0,-0.2 0.1,0 0,0 0,-0.1 0,0 0,0 0.1,0 0,0 0,-0.1 0,0 0,0 0,0 0.1,-0.1 0,0 0,0 0,0 0,-0.1 0,0 0,0 0,0 0,-0.1 0,0 0,0 0,0 0,-0.1 0,0 0,0 0.1,0 0,-0.1 0,0 0,0 0,0 0,0 0,0 0,0 0,0 0.1,-0.1 0,0 0,0 0,0 0,-0.2 0,0 0.1,-0.1 0,0 0,0 0,-0.1 0,0 0.1,-0.1 0,0 0,-0.1 0,0 0,0 0,0 0,-0.1 0.1,0 0,0 0,-0.1 0,0 0,-0.1 0,0 0,0 0,0 0,0 0,-0.1 0,0 0,0 0,-0.2 0,0 0,0 0,0 0,-0.1 0,0 0,-0.1 0,0 0,0 0,-0.1 0,0 0,0 0,0 0,-0.1 0,0 0,0 0,0 0,-0.1 -0.1,0 0,0 0,0 0,-0.1 0,-0.1 0,0 0,0 0,-0.1 0,0 0,0 0,0 0,-0.1 0,0 0,0 0,-0.1 -0.2,0 0,0 0,-0.1 0,0 0,-0.1 0,0 0,0 0,0 0,0 0,0 0,0 -0.1,-0.1 0,0 0,0 0,-0.1 0,0 0,0 0,-0.1 0,0 0,-0.1 0,0 0,0 0,-0.1 0,0 0,0 0,-0.1 0,0 -0.1,0 0,-0.2 0,0 0,0 0,-0.1 0,0 0,0 0,-0.1 0,0 0,-0.1 0,0 0,0 0,0 0,-0.1 0,0 0,0 0,-0.1 0,0 0,0 0,0 0,-0.1 -0.1,0 0,0 0,0 0,-0.1 0,0 0,0 0,-0.1 0,0 0,-0.2 0,0 0,0 0,-0.1 0,0 0,0 0,0 0,-0.1 0,0 0,-0.1 0,0 0,0 0,-0.1 0,0 0,0 0,0 0,-0.1 0,0 0,-0.1 0,0 0,0 0,-0.1 0,0 0.1,0 0,0 0,-0.1 0,0 0,0 0,0 0,0 0,0 0,-0.2 0,0 0,0 0,-0.1 0,0 0,-0.1 0,0 0,-0.1 0,0 0,0 0,-0.1 0.1,0 0,0 0,-0.1 0,0 0,0 0,-0.1 0,0 0,0 0,-0.1 0,0 0,0 0.1,-0.1 0,0 0,0 0,-0.2 0,0 0,-0.1 0,0 0,0 0,-0.1 0,0 0,0 0,-0.1 0.1,-0.1 0,0 0,0 0,-0.1 0,0 0,0 0,-0.1 0,0 0,-0.1 0,0 0,0 0,-0.1 0,0 0,0 0.1,-0.1 0,0 0,0 0,-0.1 0,0 0,0 0,-0.1 0,0 0,-0.1 0.1,0 0,0 0,-0.1 0,0 0,0 0,0 0,0 0,0 0.1,-0.1 0,0 0,-0.1 0,0 0,0 0,0 0,-0.1 0.1,0 0,-0.1 0,0 0,-0.1 0,0 0,0 0,-0.2 0,0 0.1,0 0,-0.1 0,0 0,0 0,-0.1 0,0 0,0 0,-0.1 0,0 0,0 0,-0.1 0,0 0,0 0,-0.1 0,-0.1 0,-0.1 0,-0.1 0,0 0,-0.2 0,0 0,0 0,-0.1 0,0 0,-0.1 0,0 0,0 0,-0.1 0,-0.1 0,0 0,0 0,-0.1 0,0 0,0 0.1,0 0,-0.1 0,0 0,0 0,-0.1 0,0 0,0 0,-0.1 0.1,0 0,0 0,-0.2 0,0 0,0 0.1,0 0,0 0,-0.1 0,0 0,0 0,-0.1 0,0 0,0 0,-0.1 0,0 0,0 0,-0.1 0.1,0 0,0 0,-0.1 0,0 0,0 0,-0.1 0,0 0,0 0,-0.1 0.1,0 0,-0.1 0,0 0,0 0,0 0,-0.2 0,0 0,0 0,-0.1 0,0 0,0 0,-0.1 0,0 0,0 0,-0.1 0.1,0 0,-0.1 0,0 0,0 0,-0.1 0,0 0,0 0.1,-0.3 0,-0.2 -0.1,-0.1 0,0 0,0 0,0 0,-0.1 -0.1,0 0,0 0,0 0,-0.1 0,0 0,0 0,0 0,-0.1 0,0 0,-0.1 0,0 0,0 0,0 0,0 -0.1,0 0,0 0,0 0,-0.1 0,0 0,0 0,0 -0.1,-0.1 0,0 0,0 0,-0.1 0,0 0,0 0,0 0,-0.1 0,0 -0.1,0 0,0 0,-0.1 0,0 0,0 0,-0.1 0,0 0,-0.1 0,0 0,0 0,0 -0.1,-0.1 0,0 0,0 0,0 0,-0.1 0,0 0,0 0,0 0,-0.1 0,0 0,0 0,0 0,-0.1 0,0 0,0 0,0 0,0 0,-0.1 0,0 0,0 0,0 0,-0.3 -0.1,0 0,0 0,0 0,0 0,-0.1 0,0 0,0 0,0 -0.1,0 0,0 0,0 0,0 0,-0.1 -0.1,0 0,0 0,0 0,0 0,0 -0.1,0 0,0 0,0 -0.7,-1.9 0.1,-2.6 0.2,-1.5 0.2,-0.2 0,-0.1 0,0 0,-0.1 0,0 0,0 0,0 0,-0.1 0,0 0,0 0,-0.3 0,0 0.1,0 0,0 0,-0.1 0,0 0,0 0,0 0,-0.1 0,0 0,0 0.1,0 0,-0.1 0,0 0,0 0,-0.1 0.1,0 0,0 0,0 0,-0.1 0,0 0,0 0,0 0.1,-0.1 0,0 0,0 0,0 0,0 0,-0.1 0,0 0,0 0.1,-0.1 0,0 0,0 0,0 0,-0.2 0,0 0.1,-0.1 0,0 0,0 0,-0.1 0,0 0,0 0,0 0,0 0,-0.1 0,0 0,0 0,0 0,0 0,-0.1 0,0 0,-0.1 0,0 0,0 0,0 0,0 0,-0.1 0,0 0,0 0,0 0,-0.1 0,0 0,0 0,0 0,-0.1 0,0 0,0 0,0 0,0 -0.1,0 0,0 0,0 0,0 0,-0.2 0,0 0,0 0,0 0,-0.1 0,0 0,0 0,-0.1 0,0 0,-0.1 0,0 0,0 0,-0.1 0,0 0,0 0,-0.1 0,0 0,0 0,0 0,0 0,-0.1 0,0 0,-0.1 0,0 0,0 0,0 0,0 0,0 0,-0.1 0,0 0,0 0,0 0,-0.1 -0.1,0 0,0 0,-0.1 0,0 0,0 0,0 0,-0.1 0,0 0,0 0,0 0,0 0,-0.1 0,0 0,0 0,0 0,0 -0.1,0 0,-0.1 0,0 0,0 0,0 0,-0.1 -0.1,0 0,-0.1 0,0 0,0 0,0 -0.1,-0.1 0,0 0,0 0,0 0,0 0,-0.1 0,0 -0.1,0 0,-0.1 0,0 0,0 0,0 0,0 0,-0.2 -0.1,0 0,-0.1 0,0 0,0 0,0 0,0 0,-0.1 0,0 0,0 0,0 0,-0.1 0,0 0,0 0,0 0,-0.1 -0.1,0 0,0 0,0 0,0 0,0 0,0 0,0 0,0 0,-0.1 -0.1,0 0,0 0,0 0,0 0,-0.1 0,0 0,0 -0.1,-0.1 0,0 0,0 0,-0.1 0,0 0,0 0,0 0,0 0,0 0,-0.2 0,0 0,0 0,0 0,0 0,0 0,-0.1 0,0 0,0 0,0 0,0 0,-0.1 0,0 0,0 0,-0.1 0,0 0,0 0,0 0,0 0,-0.1 0,0 0,0 -0.1,0 0,0 0,-0.1 0,0 0,0 0,0 0,0 0,-0.1 0,0 0,0 0,0 -0.1,-0.1 0,0 0,0 0,0 0,-0.1 0,0 0,0 0,0 0,-0.2 0,0 0,0 0,-0.1 0,0 0,0 -0.1,0 0,0 0,-0.1 0,0 0,0 0,0 0,0 0,-0.1 0,0 0,0 0,0 0,-0.1 0,0 0,0 0,0 0,0 -0.1,-0.1 0,0 0,-0.1 0,0 0,0 0,0 0,0 0,0 0,-0.1 0,0 0,0 0,0 0,0 0,-0.1 0,0 0,0 -0.1,-0.1 0,0 0,0 0,0 0,0 0,0 0,0 0,-0.1 0,0 0,0 0,0 0,0 0,0 0,-0.1 0,0 0,-0.1 0,-0.1 0,0 0,0 0,0 0,0 0,0 0,-0.1 0,0 0,0 0,0 0,0 0,0 0,-0.1 0,0 0.1,0 0,0 0,-0.1 0,0 0,0 0,0 0,-0.1 0,0 0,0 0,0 0,-0.3 0,0 0,0 0,0 0.1,0 0,-0.1 0,0 0,0 0,-0.1 0,0 0,0 0,0 0,0 0,-0.1 0,0 0,0 0,-0.1 0,0 0,0 0,0 0,-0.1 0.1,0 0,0 0,-0.1 0,0 0,0 0,-0.1 0,0 0,0 0,0 0,0 0,-0.1 0,0 0,-0.1 0,0 0,0 0.1,0 0,0 0,-0.1 0,0 0,0 0,0 0,0 0,-0.1 0.3,-0.5 0.4,-0.7 0.7,-0.4 0.8,-1.1 0.3,-0.3 0.7,-0.8 0.8,-0.9 9.7,0.1 3.6,0.1 0.3,2.2 2.7,0.5 0.8,1 3.7,1.3 3.8,2.2 2.1,2 1.2,1 0.9,-0.4 3.7,4.1 0.8,1.2 0.3,0.5 6.3,13.4 2.8,6.5 10.5,1.4 0.8,0.1 0.8,0.1 1.1,0.2 0.7,0.1 0.8,0.1 0.8,0.2 1.4,0.1 2.3,0.4 0.7,0.1 -0.3,0.7 -1,2.1 3.1,2 3.9,3.1 1.5,0.1 1.3,0.2 1.1,0.3 1.1,0.5 1,0.5 0.8,0.7 0.5,0.9 0.3,0.9 0.4,2 0.3,1.2 0.5,1.6 0.2,1.1 0.2,0.3 2.4,0.8 0.5,0.2 0.2,0.2 0.5,1.7 13.8,21.1 2.5,4.8 315.6,339.6 -593.5,-108.6 -5.9,0.8 -4.8,0.5 -4,0.4 -4.9,0.5 -5.7,0.7 -3.2,0.4 -10.2,1 -0.4,0 -4.8,-7.7 -0.3,0.2 -7,3.7 -1.1,2.7 -1.7,3.6 -0.7,1.4 -1,2.9 -0.4,3.8 0.1,6.6 0.1,0.2 -2.2,0.4 -1.3,0.4 -1.2,0.7 -0.7,0.3 -0.5,0.4 -0.7,0.2 -0.1,0 -1.5,0.2 -0.9,0.1 -1.1,0.3 -1,0.5 -2.1,1.5 -1.3,0.8 -1.9,0.4 -1.1,0 -2.3,0.3 -3.2,0.1 -0.5,0 -0.4,-0.5 -0.8,-5.2 -0.9,-5.8 -0.5,-4.1 -1.2,-8 -0.3,-2.5 -0.5,-4.5 -0.9,-5 -0.5,-3.8 -0.5,-3.6 -0.2,0 -0.1,0.1 0.1,0.7 -7.5,0.9 -0.1,-1.1 -2,0.1 0.1,4 0,0.2 0.1,2.1 0.1,0.2 0.3,1.4 0.1,0.2 1.5,2.3 0.2,0.3 1.5,3.4 0.3,0.5 1.3,3.8 0.3,0.8 1.2,4.7 0.3,1.1 1.6,7.3 0.3,1.9 1.1,3.3 0.2,0.9 4,10.4 1.3,3.5 0.8,3.8 0.2,1.3 1.1,2.8 0.3,1.2 3.5,11.1 1.6,5 1.4,4.6 0.7,2.3 -0.9,0 -4.1,2.2 -6.2,3.5 -6.2,3.5 3.5,8 0.4,0.9 -1,-0.2 -0.7,-0.1 -0.2,0 -0.2,-0.1 -1,-0.3 -1.2,-0.3 -0.9,-0.3 -1.1,-0.3 -2.1,-0.4 -2.7,-0.4 -2.9,-0.1 -4.3,-0.2 -5.1,2.6 -8,4.1 -1.9,-1.6 -3.3,-2.8 -2.3,-1.5 -4.3,-2.7 -2.5,-1 -5.1,-2.2 -0.7,-0.2 -1.6,-0.4 -1.4,-0.4 -3.5,-1 -1.1,-0.3 -3.2,-1.2 -1.1,-0.4 -3.6,-1.4 -0.4,-0.4 -1.6,-1.4 -0.1,-0.2 -0.7,-0.9 -0.1,-0.3 -0.2,-1.5 -0.1,-0.1 -0.5,-1 -0.4,-0.5 -2.8,-3.4 -0.5,-0.3 -4,-3.2 -0.5,-0.4 -5,-3.8 -0.2,-0.1 -2.1,-2 -0.1,0 -2,-2.5 -0.1,0 -4.1,-0.5 0,0 -5.6,-1.4 -0.1,-0.1 -1.9,-0.1 -0.3,0 0.2,0 -1.2,0 -0.3,0 -0.1,0 -4.6,-0.2 -1.6,-0.1 -0.7,0 -1.5,-0.1 -0.9,-0.2 -0.3,0 -0.5,-0.2 -0.5,-0.1 -0.2,-0.1 -1,-0.5 -1.1,-0.4 -0.5,-1.1 -1.2,-0.8 -1.7,-0.9 -0.7,-0.3 -0.4,-0.4 -0.7,-0.9 -0.3,-0.3 -0.2,-0.3 -0.7,-1 -0.3,-0.4 0,-0.1 -0.4,-0.8 -0.1,-0.3 0,-0.1 -0.2,-0.9 -0.1,-0.3 0,-0.1 -0.1,-2.1 0,-0.4 0,-0.4 0.3,-7.8 -0.2,-0.8 -0.7,-0.2 -0.8,-0.3 -1,3.6 -1.9,5.2 -0.8,2.5 -1.3,3.4 -1.2,3.9 -1.3,2.2 1.3,1.3 -0.4,1 -0.9,2.4 -0.8,2.6 -0.9,1.9 0,0.1 -1.1,2 -0.3,1.1 -2.6,5.7 -1.4,4.7 -0.1,0.2 7.2,16.5 -1.1,-0.3 -0.8,-0.3 -1.5,-1.2 -1.3,-1 -0.9,-2.5 -0.7,-2.6 -0.2,-2.6 -0.2,-2.8 -0.8,-0.4 -0.1,-0.1 -0.8,-0.3 -0.9,0.3 -1.2,0.3 -2.2,0.4 -3.2,0.5 -0.9,0 -1.4,-0.3 -0.4,-0.4 -0.9,-0.7 0,-0.3 -0.2,-0.8 -0.4,-1.7 0.2,-0.9 0.3,-1.9 -1,-0.5 -2.3,-1.2 -0.7,-0.2 -1.7,-0.7 -0.4,-0.7 -0.8,-1 -0.7,-0.8 0.2,-0.5 1.1,-1.6 0.1,-0.5 1.1,-1.7 0.2,-0.3 0.8,-1.7 0,-2 -0.3,-0.4 -0.1,-0.3 -1.5,-2.9 -0.2,-0.4 -2,-3.3 -0.2,-0.2 -2,-1.6 -0.2,-0.2 -1.6,-1.3 -0.1,0 -1.4,-0.3 -0.5,-0.2 -0.1,0 -1.5,0.2 0,0 -2.1,1 0,0 -1.3,2.7 0,0.1 -1.4,2.2 -0.1,0 -0.3,0.4 -0.8,0.9 -0.1,0 -0.5,0.9 0,0.1 -0.7,1 0,0.2 -1.2,1.2 -0.2,0.1 -1.3,0.3 0,0 -0.2,0.1 -1.3,-0.4 -0.3,-0.1 0,0.1 0,0 -0.7,-0.9 -0.1,-0.3 -0.8,-1.4 -0.2,-0.5 -0.2,-1.2 -0.1,-0.9 -0.1,-0.7 -1,-1.6 -0.3,-0.7 -1.6,-0.8 -0.7,-0.4 -1.7,0 -0.7,0 -0.9,1.6 -0.4,0.7 0,0.1 0.8,3.8 0.5,2.3 -0.1,1 -0.1,0.5 -0.3,0.4 -0.2,0.3 -0.4,0.3 -0.2,0.2 -0.4,-0.1 0,0 -0.4,-0.1 -0.1,-0.1 -0.1,-0.1 -0.8,-0.8 -0.9,-0.7 -1.6,0 -1.6,0.1 -0.8,0.8 -0.9,1 -0.1,0.2 -0.3,0.7 -0.4,1.1 0.8,0.9 0.9,1.2 0.4,0.4 0.5,0.8 0.3,0.8 0.7,1 0.1,0.5 0.1,0.5 0.1,0.5 -0.1,0.4 -0.5,1.1 -0.5,0.4 -1.1,0.8 -1.1,0.5 -2.7,1.3 -1.2,0.3 -3.2,0.7 -0.1,0.1 -0.1,0 -1,0.3 -0.4,0 -1.9,0.3 -0.1,0.2 -0.9,1 -0.1,0.5 -0.9,3.3 -0.1,0.3 -0.5,1.2 -0.2,0.3 -0.2,0.3 -1.1,1.5 -0.1,0.1 -1.3,0.9 0,0 -1.2,-0.3 -0.2,-0.2 -1.6,0.1 -0.1,0 -0.3,-0.1 -1.1,-0.3 -0.1,0 -2.9,-0.5 0,0 -2.5,0.4 0,0 -3.7,4.5 -0.1,0.1 -1.9,0.3 -0.2,0 -0.1,0 -2,0.2 -0.1,0 -2.8,0 -0.3,0 -2,0.2 -0.3,0 -1.5,2.7 -0.2,0.4 -0.2,0.8 -0.4,0.9 -0.1,0.2 -0.3,0 -0.1,0 -1.2,0.1 -0.4,0 -1.1,0.7 -0.3,0.1 -2.7,-1.2 -0.8,-0.3 -0.1,-0.1 -0.9,0.3 -0.3,0.2 -2.5,2 -1.1,0.8 -2.2,2.2 -1.1,1 -1.6,0.4 -0.8,0.3 -0.7,-0.8 -0.2,-0.1 -0.4,-0.5 -0.7,-1.3 -0.5,-0.9 -0.4,-0.8 -0.4,-0.5 -0.9,0.5 -0.7,0.3 -0.8,0.3 -0.4,0.4 -0.2,0.1 -1.2,0.7 -1.3,0.8 -2,-0.7 -2,-0.8 -0.5,1 -0.5,0.9 -1.6,-0.2 -7.1,-1.3 -2.4,-3.8 1.2,-8.1 -4.1,-8.6 -8.3,5.2 -1.7,-10.4 0,-0.4 -3.2,-16.8 -11,1.1 -10.9,1.3 -1.9,0.1 0.2,-0.7 0,-0.3 -0.2,-0.3 0,-0.5 0.1,-1 -0.2,-0.5 -1,-0.9 -1.1,-1 -0.1,-0.3 0.1,-0.3 0.1,-0.7 0.1,-0.4 -0.1,-0.5 -0.1,-0.9 -0.3,-1 -0.1,-1.6 0,-1.6 0,-0.2 0,-0.2 0,-0.5 0,0 0,-0.2 0.3,-1 0.4,-0.9 0.1,-0.3 0.1,-0.3 0.1,-0.3 0,-0.4 0.1,-0.1 0.2,-0.3 0.2,-0.3 0.4,-0.5 0.4,-0.4 0.5,-0.8 0.8,-0.7 0.7,-0.5 0.3,-0.3 0.2,-0.3 0.3,-0.3 0.5,-0.8 0.4,-0.9 0.3,-0.9 0.4,-1.1 0.3,-1.2 0.1,-0.8 0,-0.5 0.1,-0.7 0,-0.9 0.1,-1.9 0.1,-5.2 0.1,-1.4 0.1,-1.6 0.2,-1.6 0.2,-1.7 0.5,-2.1 0.7,-2.2 0.8,-1.7 0.5,-1.6 0.2,-0.8 1.5,-2 -2.4,-47.7 0.9,-3.7 0.8,-3.2 1,-3.4 0.8,-3.4 1.1,-3.7 2.5,-10.6 1.7,-7 0.4,-2.1 0.9,-3.2 0.8,-3.1 1.1,-4.3 0.2,-0.8 0.1,-1.1 0.8,-3.1 0.5,-2.2 0.2,-0.9 1.1,-3.2 0,-0.1 16,-67 2.1,-1.4 0.7,-0.4 2.4,-0.8 1.7,-0.8 1.4,-0.5 2.3,-0.2 0.8,-0.5 2.9,-2.3 1.2,-1.3 0.1,-1.9 0.3,-1.4 1.2,-1 0.7,-0.9 1.1,-1.2 0.2,-0.3 0.1,-0.2 0.1,-0.2 0.1,-0.3 0.2,-0.3 0.3,-0.2 0.3,-0.2 0.3,-0.4 0.1,-0.1 0.8,-0.7 0.8,-0.7 0.8,-0.3 0.4,0 0.5,0 0.4,0 0.4,-0.2 0.4,-0.3 0.4,-0.3 0.1,-0.2 0.1,-0.2 -0.1,-0.2 -0.1,-0.3 -0.2,-0.2 -0.1,-0.1 0,-0.2 0.1,-0.2 0.2,-0.2 0.3,-0.3 0.8,-0.5 0.9,-0.4 0.9,-0.4 0.3,-0.3 0.2,-0.4 0.3,-0.5 0.3,-0.2 0.9,-0.8 0.5,-0.4 0.8,-1 0.8,-0.9 0.8,-0.9 0.9,-1.1 0.7,-1.1 0.8,-1.2 0.5,-0.8 0.7,-0.9 0.4,-0.3 0.1,-0.3 0.2,-0.5 0.1,-0.7 0.1,-0.3 0,-0.4 -0.1,-0.3 -0.1,-0.1 -0.2,0 -0.2,0.1 -0.2,0 -0.1,-0.1 -0.2,-0.1 -0.1,-0.2 0,-0.3 -0.1,-0.2 -0.2,-0.3 -0.3,-0.2 -0.1,0 -0.2,0.1 -0.2,0.2 -0.3,0.1 -0.3,0 -0.5,0.1 -0.4,0.2 -0.4,0.1 -0.7,0.1 -0.5,0.1 -0.4,-0.1 -0.3,0 -0.3,0 -0.2,0 -0.2,0.1 -0.3,0 -0.1,0 -0.2,-0.1 -0.1,-0.2 -0.1,-0.1 0,-0.7 -0.1,-0.5 -0.2,-0.4 -0.1,-0.2 0,-0.3 0.1,-0.4 0.5,-1.5 0.2,-0.8 0.3,-1 -0.1,-0.4 0,-0.1 -0.3,-0.1 -0.2,0 -0.3,0.1 -0.3,0 -0.2,-0.2 -0.7,-0.8 -0.7,-0.8 -0.2,-0.9 -0.3,-0.8 -0.1,-0.8 -0.1,-0.8 -0.1,-0.9 0.1,-0.5 0.1,-0.4 0.3,-0.5 0.7,-1.7 0.9,-1.5 0.7,-0.9 0.5,-0.8 0.1,-0.4 -0.1,-0.3 -0.3,-0.1 -0.3,-0.2 -0.3,-0.2 -0.2,-0.5 -0.2,-0.9 0,-1.5 -0.1,-0.8 -0.2,-1 0,-1 0,-0.5 0.1,-0.9 0.4,-1.4 0.2,-1.7 0.7,-2.2 0.2,-0.9 0.1,-0.7 -0.3,-1.1 -0.3,-0.8 -0.3,-0.3 -0.8,-1.1 -1.3,-1.4 -0.7,-0.9 -0.3,-0.7 -0.3,-0.8 -0.2,-0.9 -0.1,-1.2 -0.1,-1.3 -0.2,-2 0.1,-0.9 0.2,-1.3 0.8,-2 1.2,-2.4 0.2,-1 -0.2,-1.2 -0.4,-0.7 -0.8,-1.1 -0.2,-1.1 0.2,-1.3 1.1,-2.4 2.4,-3.1 1.7,-1.6 0.8,-0.7 0.3,-0.5 0.7,-1.4 1,-1.1 1.1,-1.5 1,-1.5 0.7,-1.9 0.9,-1.9 1.2,-1.9 1.4,-1.7 1.2,-2 0.4,-0.8 -0.1,-2 -0.4,-1.1 -0.7,-1.4 -0.8,-0.9 -1.3,-1.5 -2,-2.4 -0.4,-1.1 -0.2,-1.2 0.5,-0.8 0.8,-1.4 1.1,-2.2 1.6,-3.1 1.3,-1.5 1.2,-1.2 0.4,-0.2 0.9,0 1.3,0.2 0.9,0.4 1,0.4 1.7,1.3 2.2,0.2 1.2,0.1 0.9,-0.1 0.7,-0.5 0.1,-0.3 -0.2,-1.1 -0.1,-1.1 0.2,-0.7 0.2,-0.8 0.8,-0.8 2,-1 0.9,-1.1 1.6,-1.2 2.7,-1 1.7,-0.2 1.3,-0.5 1.6,-1.3 1.1,-1.1 1.4,-1.9 2,-2.1 1.7,-1.5 1.1,-0.5 0.8,0 0.8,0 0.7,0.2 1,0.4 1.3,0.7 1.4,0.7 1.4,0.8 2.2,0.5 1.3,0.3 1.1,0.1 0.4,0 1.5,-0.2 1.5,-0.2 2,0.1 0.7,0 2.1,-0.2 0.7,-0.1 0.2,-0.2 0.4,-0.7 0.3,-0.5 0.2,-0.5 0.1,-0.9 0,-0.2 -0.1,-0.8 -0.1,-0.3 -0.1,-0.7 0.3,-0.7 0.4,-0.2 0.1,-0.1 0.3,0 0.2,0 0.2,0 0.5,-0.2 0.5,-0.1 0.4,0.3 0.2,0.2 -0.3,0.5 -0.3,0.5 -0.1,0.3 0.3,0.7 0.4,0.5 0.4,0.4 0.1,0.8 0.3,1 0.8,1.2 0.4,0.7 0.5,0.5 0.9,0.3 1,0.1 0.4,0 0.2,-0.1 0.3,-0.2 0.2,-0.3 0.3,-0.7 0.7,-0.8 0.3,-0.4 0.1,-0.4 0,-0.4 0,-0.7 0.4,-0.8 0.9,-1 0.8,-0.7 1,-1 0.8,-0.4 0.9,-0.5 0.7,-0.3 0.4,-0.3 0.4,-0.4 0.4,-0.4 1.1,-1.9 0.7,-1 1.7,-2 0.7,-0.9 0.5,-1.3 1.1,-1.4 0.8,-0.5 1,-0.3 0.5,-1.4 1.1,-3.2 0.1,-0.9 0.4,-1.1 0.4,-1.4 0.8,-1.4 1.5,-2.6 1.6,-2.8 1.1,-1 0.9,-1 0.1,-1 1.4,0.3 1.1,0.1 2.7,-0.3 1,-0.7 0.5,-0.5 0.5,-0.8 0.2,-1.1 0.1,-1.6 -0.2,-1.9 -0.2,-1.1 -0.3,-1.2 0,-0.7 0.1,-1 0.3,-1.1 0.7,-0.9 0.8,-1.3 0.8,-1 0.8,-0.8 0.1,-0.3 0,-0.3 0.1,-0.3 0.2,-0.2 0.3,-0.2 0.3,-0.4 0.8,-0.8 0.8,-0.9 0.2,-0.4 0.3,-0.7 0.2,-0.5 0.2,-0.3 0.2,-0.3 0.4,-0.2 0.8,-0.7 1.3,-1.1 0.5,-1 0.7,-1 0.9,-1.4 0.5,-1.1 0.7,-1.5 1,-2.6 0.5,-1.3 0.4,-1.1 0.3,-0.5 0.5,-0.5 0.2,-0.5 0.4,-0.9 1,-1.5 0.5,-1.4 0.3,-1 0.1,-0.8 -0.2,-1.4 0,-0.8 0.2,-1.2 0.7,-2.5 0.3,-1.3 0.5,-0.4 0.9,-0.5 2.1,-0.3 1.2,-0.3 1,-0.7 2.7,-2.5 1.6,-2.5 2.2,-3.5 0.5,-2.4 0.1,-1.9 -0.4,-4.1 -1.6,-5.1 -4.7,-8.4 -2.1,-4.4 -2.8,-8.2 -2.4,-5.1 -6.3,-6 5,-0.2 4.5,-0.8 2.6,0.8 2.4,0.5 0.1,0.1 3.3,-1 2.7,-0.9 1.3,-0.9 3.2,-1.3 2,-1.5 1.6,-0.8 3.5,0 1.6,-0.2 2.5,0.4 3.2,0.9 1.9,-1.1 0.8,-0.8 1.3,-0.1 1.3,1.6 z"
       inkscape:connector-curvature="0"
       class="DEP_06 ZON_02" /></g></svg>