<?xml version="1.0" encoding="UTF-8" standalone="no"?>
<!-- Generator: Adobe Illustrator 19.2.0, SVG Export Plug-In . SVG Version: 6.00 Build 0)  -->

<svg
   xmlns:dc="http://purl.org/dc/elements/1.1/"
   xmlns:cc="http://creativecommons.org/ns#"
   xmlns:rdf="http://www.w3.org/1999/02/22-rdf-syntax-ns#"
   xmlns:svg="http://www.w3.org/2000/svg"
   xmlns="http://www.w3.org/2000/svg"
   xmlns:sodipodi="http://sodipodi.sourceforge.net/DTD/sodipodi-0.dtd"
   xmlns:inkscape="http://www.inkscape.org/namespaces/inkscape"
   version="1.1"
   id="SvgMunicipio"
   x="0px"
   y="0px"
   viewBox="0 0 564.5 1000"
   style="enable-background:new 0 0 564.5 1000;"
   xml:space="preserve"
   inkscape:version="0.91 r13725"
   sodipodi:docname="MUN_ID0609.svg"><metadata
     id="metadata10"><rdf:RDF><cc:Work
         rdf:about=""><dc:format>image/svg+xml</dc:format><dc:type
           rdf:resource="http://purl.org/dc/dcmitype/StillImage" /></cc:Work></rdf:RDF></metadata><defs
     id="defs8" /><sodipodi:namedview
     pagecolor="#ffffff"
     bordercolor="#666666"
     borderopacity="1"
     objecttolerance="10"
     gridtolerance="10"
     guidetolerance="10"
     inkscape:pageopacity="0"
     inkscape:pageshadow="2"
     inkscape:window-width="682"
     inkscape:window-height="480"
     id="namedview6"
     showgrid="false"
     inkscape:zoom="0.236"
     inkscape:cx="282.25"
     inkscape:cy="500"
     inkscape:window-x="0"
     inkscape:window-y="0"
     inkscape:window-maximized="0"
     inkscape:current-layer="svg" /><g
     id="g3"><path
       id="MUN_0609"
       d="m 309.2,61.9 4.5,0.9 3.1,0.6 1.7,0 0.4,0.1 7.3,0.1 4,0.1 8.5,0.1 0.1,0 9.9,0.2 22.7,-1.3 0.5,0.5 4.1,4.8 0.3,0.5 1.3,1.5 3.1,3.9 11,12.1 5.5,6.1 2.3,2.6 2.5,2.8 2.3,2.8 2.6,3.1 1.8,2.2 11.5,14.1 5.7,6.9 0.4,0.6 5.9,7.2 3.3,4 0.8,1.4 -1,1.2 -0.8,2.4 -0.3,2.2 0.3,2.8 1.3,3.8 2.7,5.9 1.5,4 0.7,1.3 2,2.6 1.4,1.1 1.4,0.8 1.4,0.7 1.4,1.8 1,2.3 -0.1,2.2 -0.3,2.9 0.7,1.7 1.4,1.7 5.6,3 3,2.6 4.4,3.4 0.7,0.9 0.9,1.8 -1,3.3 0,3.5 0.6,1.7 0.3,3 -0.1,2.7 0.6,5.9 0,2.3 -0.5,2.9 -0.6,2.6 -0.8,3.5 -0.3,2.2 -0.7,1.4 -1.3,1.7 -0.8,1.7 1.2,1.7 3.4,4.1 3.8,3.8 2.6,3.4 2.6,3.1 1.5,2.7 0.8,4 0.6,10.4 0.6,6.7 0.1,4.3 0.1,4.8 2.2,8.1 1.9,2.2 1.6,1.8 2.3,4.5 1.4,1.6 2.1,1.5 1.3,1.1 1.7,-0.1 4.8,-1.8 3.3,-0.4 2.3,0.4 1.1,1.8 0.1,1.4 2,5 0.9,2 0.3,1.9 2.2,3.1 1.9,1.4 1.1,1.8 2,2.6 7.7,6 2.1,1.8 4.7,4.2 5.1,4.4 0.7,0.9 0.6,0.8 0.3,4.6 -0.3,4 -0.7,5.8 -0.5,3.7 -0.1,1.5 -0.2,6.3 -1.1,4.2 -0.2,3 0.3,1.9 1.2,1.4 6,3.9 8.1,4.2 3.4,2.7 3.5,4.7 1.7,2.7 1,2.2 0,3.4 -0.7,4.3 -1.1,4 -0.9,3.9 -0.2,4.2 0.1,1.7 -0.3,1.3 -1.3,2.3 -0.7,1 -1.1,1.6 -0.6,1.6 -0.6,4.3 -0.7,3.6 -0.3,5 -0.5,1.6 -0.8,0.9 -1.4,1.4 -2.2,0.7 -2.3,0.2 -3.4,-0.3 -3.2,-0.9 -6,-2 -4.7,-2.3 -1.5,-1.2 -1.2,-2.1 -1.2,-2.1 -1.2,-1.3 -1.9,-0.7 -1.2,0 -1.4,1.3 -1.8,3 -1.5,5 -1.9,4.7 -1.4,2.2 -1,0.1 -2.4,-0.7 -3.1,-0.6 -2.7,-1 -3.8,-1.5 -1.6,-0.5 -1.9,0.1 -1.8,0.3 -2.6,1.1 -2.2,0.8 -1.8,0.6 -1.1,-0.3 -0.7,-0.9 -0.7,-1.7 1.1,-6.3 0.4,-0.9 1.1,-1.5 0.3,-1.1 0,-0.7 -0.1,-0.8 -0.3,-0.6 -1.1,-0.3 -1,0 -1.9,0.2 -1.5,0.3 -3,0.5 -1.1,0.5 -0.8,0.6 -1.1,0.5 -1.7,0.2 -1.8,-0.1 -1.7,-0.1 -1.7,0.1 -1.7,0 -1.3,0.1 -0.7,0.9 0,1.7 0.8,2 0.5,1.5 1.9,1.9 1.5,2 1.1,2.8 -0.1,1.1 -0.8,1 -0.9,1.1 -3.2,4.6 -2.5,3.8 -1.4,3 -0.6,3 -0.1,1.4 -0.5,4.8 0.1,1.1 2.7,4.1 1.7,1.9 0.8,1.3 0.2,1.1 -0.1,1.6 -1.8,5.6 -0.3,2.4 0,2.2 0.6,1.1 0.7,3.5 0.1,1.8 -0.5,0.7 -0.3,1.4 1.2,1.1 3.6,1.5 1.8,1.1 0.6,0.9 -0.4,1.7 -0.7,1.8 -1.4,2.1 -1,2 -0.7,3.7 0.1,2.4 0.7,1.5 0.8,1 0.7,0.6 1,0.2 0.7,0.1 1.8,-0.4 1.9,-0.6 1.2,0.3 1.3,1.6 1.1,2.5 0.4,1.8 -0.3,1.4 -1.4,2.7 -1.7,3.1 -0.8,2.6 -0.1,1.1 0.5,1.3 1.7,2.3 1.9,2.4 1.4,1.5 0.9,1.2 0.5,2.3 0.2,1.5 -0.3,1.1 -0.6,0.7 0.1,1.1 0.9,0.9 1.7,0.5 2.9,1 0.9,0.9 0.4,1.3 -0.3,3.1 -0.6,3.4 -0.6,2.9 -0.5,3 -0.3,0.9 -1.2,1.8 -0.6,1.6 0.3,1.5 0.8,1.9 0.7,1.9 0.2,2.5 0.5,1.3 0.5,1.4 0.6,1 0.5,2 0.5,1.6 0,1.6 -0.3,2 0.3,1.2 0.9,1.4 0,1.4 -0.1,2.5 0,1.2 0.2,1 0.3,1.1 0.3,1.4 0.7,1.5 0.7,1 1.3,0.4 1.5,0.5 2.6,0.9 1.1,-0.1 1,-0.1 1.3,0.7 1.2,1.6 1.5,1.5 -139.4,102.1 -1,0.3 -1.4,0.3 -1.9,0.5 -0.8,0.2 -0.9,0.2 -1.7,0.2 -1.8,0.2 -2.7,0.2 -1.7,0.2 -2.1,0.2 -2.3,0.3 -2.2,0.2 -2.1,0.3 -1.9,0.1 -1.2,-0.1 -2,-0.2 -0.9,-0.2 -1.4,-0.4 -1.9,-0.6 -1.1,-0.3 -0.2,0.7 -0.6,1.7 -1.1,-0.2 -0.2,-0.1 -0.4,-0.1 -0.3,-0.2 -0.3,-0.1 -0.8,-0.2 -0.7,-0.2 -0.1,0.5 -0.1,0.5 -0.3,1.2 -0.2,1.1 -0.1,0.3 -0.6,2.7 -0.6,2.7 -0.3,1.4 -7.1,1.9 -2.6,0.9 -2.7,0.8 -2.8,0.9 0,-4.2 0,-0.5 -0.1,-0.6 0,-1.2 -2.3,0.8 -0.9,0.3 -0.3,0 -0.3,0.1 -1.4,0.5 -1,0.3 -1.1,0.3 -0.3,0.1 -0.6,-0.2 0,0.2 0.4,1.1 -0.2,0.9 -0.1,3.6 0,0.7 -0.5,0.9 -1.1,1.2 -4,4.9 -4.6,5.1 -1,1.1 -2,2.3 -0.3,0.2 -0.3,0.3 -0.8,1.2 -0.6,1.2 -0.5,0.4 -0.9,0.3 -0.9,0.5 -0.5,0.6 -1.3,0.9 -0.9,0.9 -1.6,1.5 -1.7,1.2 -1.8,0.2 -2.4,0.7 -0.7,0.5 -0.4,0.6 -1.7,2.1 -2.2,3.2 -0.6,1.7 -0.3,2 -1.1,1.1 -1.2,1.5 -0.5,1.1 -0.2,1.5 -0.2,1.5 0.2,2 -4.5,-1.6 -4.7,-2.3 -2.7,-2.1 0.7,-0.5 1,-0.7 0.2,-0.1 1,-2.9 1.5,-4.2 0.3,-0.9 0,-0.5 -3.5,2 -2.4,2 -1.6,5.7 -4.3,4.4 -1.7,3.2 -4.3,3 -2.3,2.6 0.4,3 0.2,1.1 -0.1,2.8 -1.6,2.6 -1.7,4.3 -0.4,0.5 -0.6,1 -0.9,2 -0.7,2.3 -1.4,2.2 -1.8,2 -1.1,1.8 -1.5,2.3 -1.5,2.7 1.7,3.7 1.5,5.6 -0.1,0.8 -0.1,0.3 0,0.1 0,0.2 0,0.1 0,0.1 -0.2,0.6 -0.1,0.2 -0.1,0.1 -0.1,0.4 -0.1,0.2 0,0.1 0,0.3 -0.1,0.1 0,0.1 -0.1,0.2 0,0.1 0,0.1 -0.1,0.6 -0.1,0.2 0,0.2 0,0.1 0,0.1 0,0.1 0.3,1.7 -0.9,1.9 -2.5,3.1 -2.4,2 -2.6,2.2 -1.8,3 -0.1,5.4 -2.1,2.2 -3.6,5.1 -2,4.6 -3,5.6 -1.4,6.2 -0.3,2.4 -0.7,1.9 0.2,1.3 0.2,1.6 0.1,0.7 -0.5,0.6 -0.5,0.7 -0.3,0.3 -0.1,0.2 -0.1,0.1 -0.1,0.1 -0.2,0.7 -0.2,0.8 -0.2,0.6 0,1.3 -0.7,1 -0.7,1.1 -0.6,1 0,0.1 0,0.2 0.1,0.1 0.1,0.4 0.1,0.4 0.1,0.5 0,0.1 0,0.1 0,0 -0.1,0.3 -0.1,0.3 -0.2,0.4 0.5,0.1 0.3,0.1 0.6,0.1 0.1,0.4 0.1,0.3 0.1,0.6 0.3,1.7 -1.6,8 -0.4,4.4 -0.9,3.4 -0.2,5 -0.3,2.6 -0.1,1.1 -0.5,1.1 -0.5,1.4 0.1,1.7 0,1.4 0.8,1.2 0.1,1.8 -1.2,2.8 -1.9,2 0.3,2.1 0.2,1.8 0.2,0.9 0.2,0.3 -0.1,0.5 -0.3,0.5 0,1 0.2,1.4 -40,60.6 1,2.6 -1.6,5.5 -0.2,1 -13.8,-3.5 -0.3,-0.1 0,0.4 -0.6,3.7 -0.5,1.2 -0.2,2.1 -0.2,1.3 -0.1,1.1 -1.1,3.9 -1.5,-0.6 -0.9,1.5 -0.9,-0.4 -3.2,-1.4 0.1,-1.8 0,-0.1 -0.3,-1.3 -2.8,-0.1 -1.6,-0.4 -0.6,-3 -4.5,0.5 -0.7,0 -0.6,0 -2.1,-0.1 -0.9,0 -0.1,0 -0.3,0 -0.6,-1.9 -0.2,-0.2 -2.6,-3.4 -5.3,-6.9 -0.2,-0.3 -1,0.6 -2.6,1.5 -0.2,0.4 -0.1,0.2 0.3,0.3 0.5,0.7 0.1,0.3 0.2,1 1.3,1.1 -5.2,2.3 -0.1,-0.1 -4.3,-2.5 -1.5,1.8 -0.6,0.7 -1.1,1.9 -1.5,2.5 -0.1,-0.1 -2.3,-2.7 -0.1,0.1 -0.6,-0.7 -0.6,-0.7 -0.3,-0.4 -0.6,-0.7 -1.9,1.9 -1.4,1.3 -0.4,0.3 -2.1,-1.4 -1.2,-0.6 -1,-0.3 -1,0.9 -0.4,0.5 -0.3,0.5 -0.2,0.3 -0.1,0.2 -0.2,0.5 -0.1,0.1 -0.1,0.5 -0.2,0.9 -0.1,0.9 -0.1,1 -0.1,0.7 -0.2,0.5 -0.2,0.1 -3.4,1.8 -1.9,1.1 -1.4,0.7 -1.4,0.8 -1.2,0.6 -0.7,0.5 -0.9,0.3 -0.2,0.1 0.1,-0.6 -0.2,0.1 0.2,0 -0.1,0.1 -0.6,0.2 -0.5,0.2 -0.3,0.1 -0.7,0.3 -0.7,0.3 -0.4,0.3 -0.7,0.3 -0.7,0.3 -0.8,0.4 -1.1,0.6 -0.8,0.4 -0.9,0.5 -1.1,0.5 -1.4,0.7 -0.9,0.5 -0.3,0.1 -0.8,0.5 -0.3,0.2 -0.3,0.2 -1.1,0.6 -0.5,0.3 -0.2,0.2 -0.9,0.5 -0.5,0.2 -0.3,0.2 -0.5,0.3 -0.3,0.2 -0.5,0.3 -0.2,0.1 -0.6,0.3 -0.3,0.2 -0.1,0.1 -0.6,0.3 -0.2,0.2 -0.3,0.2 -0.1,0.1 -0.4,0.2 -0.4,0.2 -0.5,0.3 -0.2,0.1 -0.1,0.1 -0.5,0.3 -0.5,0.2 -0.1,0.1 -0.5,0.3 -0.5,0.3 -0.3,0.2 -0.1,-0.1 -1.3,0.7 0.3,0.4 0.1,0 0.3,0.4 0.3,0.3 0,0 0.2,0.2 0.1,0.1 -0.1,0.1 -0.2,0.1 -0.3,0.1 -0.3,0.2 -0.1,0 -0.2,0.1 -0.3,0.1 -0.3,0.1 -0.2,0.2 -0.3,0.1 0.1,0.1 -0.4,0.1 -0.9,0.3 -1,0.6 -0.5,-0.7 -0.1,-0.2 -0.1,-0.2 -6.8,2.6 -10.4,4 -3.8,1.4 -17.7,7 33.4,-28.1 0.8,-1 1.4,-1.4 2,-2.2 0.7,-0.8 0.9,-1.1 0.8,-0.7 1.9,-2.1 1.9,-1.5 0.8,-1.1 4.7,-5.6 0.3,-0.2 1.1,-1.4 0.8,-0.9 3.1,-3 3.4,-2.7 0.5,-0.8 3,-2.4 5,-4.7 1.1,-1.3 3.4,-3.5 2.1,1.5 0.5,-0.3 0.5,-0.3 0.7,-1.8 -0.3,-0.1 -0.2,-0.1 -0.3,-0.5 -0.3,-0.5 -0.2,-0.3 -0.1,-0.1 0.2,0 0.1,0 1.7,-1.7 0.1,-0.1 3,-3.8 3.1,-2.9 0.9,-1.2 1.8,-0.2 0.9,0 0.2,-3.2 3.4,-5.5 1.2,-0.3 -0.2,-0.6 -0.1,-1.2 -0.2,-0.7 -0.5,-1.1 -0.3,-0.9 -0.3,-1.3 -0.2,-0.9 -0.1,-0.8 -0.2,-0.4 -0.3,-0.3 -0.3,-0.5 -0.3,-0.5 -0.8,-2.4 0.2,-0.1 2,0.3 1.7,0.2 3.8,0.3 7.2,0.7 1.5,-1 1.3,-1 1.3,-1 3,-2 1.7,-1.3 0.3,-0.2 1,0.3 1,0.2 1,0.3 0.2,-0.2 0.5,-1.5 -0.3,-0.9 -0.2,-0.6 0.1,-0.1 0.2,-0.5 0.1,-0.2 0.3,-0.6 0.4,-1.2 0.5,-0.7 0.2,-0.5 0.2,-0.5 0.2,-0.4 0.1,-0.2 0.1,-0.1 0.2,-0.3 0.2,-0.1 0.2,-0.3 0.1,-0.2 0.2,-0.2 0.2,-0.2 0.3,-0.1 0.3,0 0.2,0.1 0.2,0.3 0.3,0.7 0.4,1.7 0.4,0.6 0.5,0.5 0.5,0.3 0.5,0.2 0.4,0.1 0.3,0.1 0.3,0 0.2,-0.1 0.2,-0.2 0.1,-0.2 0.1,-0.2 0,0 -0.1,-0.2 0.1,-0.3 0,-0.4 -1.1,-1.5 -0.9,-1.5 0,-4.3 -0.2,-0.2 0.1,-0.6 1.8,-2.7 0.6,-0.7 0.6,-0.5 0.5,-0.5 0.1,-0.2 0.1,-0.3 0.1,-0.7 -0.1,-2.4 0.1,-1.9 0.1,-0.6 0.2,-1.1 0.1,-1 0,-0.7 0.1,-0.5 0.2,-0.5 0.4,-0.7 0.7,-1.4 0.3,-0.9 0.1,-0.5 0.1,-0.5 0.1,-0.5 0,-0.6 0.1,-1.4 0.1,-0.6 0.2,-0.6 0.3,-0.7 0.7,-0.9 0.2,-0.4 0.2,-0.4 0.1,-0.6 0.1,-1.3 0.1,-0.9 0.1,-0.9 0.1,-0.8 0.2,-0.9 0.3,-1 0.1,-0.5 0,-0.4 0,-0.4 -0.1,-0.3 -0.2,-0.6 -0.5,-0.8 -0.2,-0.6 -0.2,-0.4 0,-0.2 0.2,-0.7 0.3,-1.1 0.1,-0.6 0.1,-0.9 0.1,-1.4 0.1,-0.7 -0.2,-0.5 -0.2,-0.8 -0.2,-0.9 0.6,-1 1,-1.5 1.1,-2 -0.3,-1.1 -0.7,-1.8 -0.9,-2.6 0.1,-0.6 0.4,-1.3 0.5,-1.9 0.1,-0.2 0.2,-0.5 0.2,-0.8 0.1,-0.1 0,-0.1 0,-0.2 0,0.4 0,-0.1 0,-0.1 -0.1,-0.1 -0.1,-0.3 -0.2,-0.4 0,0 -0.1,-0.2 -0.1,-0.4 -0.1,0 0,-0.2 -0.1,-0.3 0,0 -0.1,-0.1 -0.1,-0.2 0,0 -0.1,-0.2 -0.2,-0.3 -0.1,-0.1 -0.1,-0.2 -0.2,-0.3 0,-0.1 -0.2,-0.2 -0.4,-0.5 -0.1,-0.1 0,-0.3 -0.2,-0.6 0,0.3 0,-0.1 0,-0.1 0,-0.1 -0.1,-0.1 -0.1,-0.3 0,-0.1 -0.1,-0.1 -1.1,-0.1 -0.1,-0.1 -0.1,-0.1 -0.1,-0.2 -0.1,-0.1 -0.1,-0.1 -0.2,-0.3 -0.1,-0.1 -0.1,-0.1 -0.1,-0.4 -0.1,-0.2 -0.1,-0.1 0,-0.2 0,0 0,-0.1 0.1,-0.3 0,-0.1 0.1,-0.1 0.2,-0.6 0.2,-0.2 0,-0.1 0.3,-0.6 0.2,-0.3 0.1,0 0.2,-0.3 0.1,-0.2 0,0 0.1,-0.2 0,-0.1 0,0 0,-0.1 0,-0.1 0,0 0,-0.3 -0.1,-0.2 0,0 -0.1,-0.5 -0.1,-0.3 0,-0.1 0,-0.2 0,-0.1 0,-0.1 0,-0.4 0,-0.3 0,-0.1 0,-0.5 0,-0.3 0,-0.1 -0.1,-0.5 -0.1,-0.4 -0.1,-0.2 0.1,-0.2 0.1,-0.2 0,-0.1 0,0 0,0 0,0 0.1,-0.4 0.1,-0.3 0.1,-0.2 0.3,-1.2 0.5,-1.3 0.2,-0.7 0.3,-0.7 0.3,-0.7 0.2,-0.5 0.1,-0.6 0.1,-0.8 0.1,-0.5 0.2,-0.7 0.2,-0.9 0.2,-0.7 0.1,-0.4 0.1,-0.6 0.1,-0.5 0,-0.1 0.1,-0.2 0,-0.2 0.1,-0.2 0.2,-0.4 0.1,-0.3 0.1,-0.2 0.2,-0.5 0.2,-0.5 0.1,-0.1 0.1,-0.1 0,-0.2 0.1,-0.1 0,-0.2 0.1,-0.2 0,-0.1 -0.1,-0.3 0,-0.3 -0.1,-0.1 -0.1,-0.3 -0.1,-0.3 0,-0.2 -0.2,-0.5 -0.2,-0.7 -0.1,-0.2 -0.5,-1.4 -0.6,-1.7 -0.1,-0.2 -0.3,-1.9 -0.3,-2.3 1.8,-0.5 2.2,0.1 0.2,-0.1 0,-0.1 -0.2,-1.7 -0.1,-0.5 -0.3,-2 0.1,-1.7 0.2,-0.7 0.3,-1.5 0.1,-0.3 0.5,-1.5 0.2,-0.7 0.6,-2 0.6,-1.7 0.3,-0.7 0.6,-1.5 0.5,-1.8 0.2,-0.5 0.2,-0.7 0.1,-1.4 0.1,-0.7 0.3,-1.1 0.6,-2 0.2,-0.7 0.3,-1.5 0.1,-0.7 0.1,-0.6 0.1,-1 -0.2,-0.1 -1,-0.5 -1.1,-0.5 -0.7,-0.9 -0.3,-1.7 -0.1,-0.9 -0.1,-1.5 -0.5,-1.2 -0.6,-1.1 -0.4,-0.5 -1.5,-0.1 -0.2,-0.3 0.3,-1.1 0.3,-1.3 0.2,-0.4 -0.1,-0.2 -0.1,-0.3 0,-0.1 -0.1,-0.2 -0.1,-0.3 0,-0.1 -0.1,-0.2 -0.1,-0.1 0.6,-0.6 0.4,-0.5 0.7,-0.7 0.3,-0.5 0.2,-0.5 0.1,-0.5 0.1,-0.4 0,-1.3 -0.1,-1.7 0,-0.5 -0.1,-0.4 -0.3,-0.3 -0.5,-0.4 -0.9,-0.5 -0.4,-0.3 -0.3,-0.3 -0.3,-0.3 -0.1,-0.1 -0.1,-0.6 0.1,-0.7 0.2,-0.7 0.2,-0.6 0.2,-0.6 0.4,-0.6 0.1,-0.5 0.3,-0.6 0.5,-1.5 0.1,-0.3 0.1,-1 -0.4,-1 0,-1.9 0.1,-1 0.1,-0.8 0,-1 0.6,-1.3 0.1,-0.8 0.3,-0.8 0.3,-0.7 0.1,-0.4 0,-1.3 0.7,-1.8 0.1,-0.3 0.3,-0.7 0.1,-0.2 0,0.1 0.1,-0.7 0.1,-0.6 0.2,-0.6 0.2,-0.5 0.3,-1.1 0.2,-0.7 0,-0.4 0,-0.3 -0.5,-0.9 -0.1,-0.5 -0.1,-0.3 0.1,-0.8 0.1,-0.7 0.2,-1.1 0.1,-0.5 -0.1,-0.3 -0.2,-0.5 -0.5,-1.2 -0.2,-0.4 -0.1,-0.3 0,-0.3 0.1,-0.3 0.3,-0.7 -1.2,-2.7 -0.2,-0.9 -0.1,-0.9 0.1,-0.7 0.1,-0.5 0.1,-0.3 0.3,-0.5 0.3,-0.9 0.2,-0.9 0,-0.4 -0.2,-0.5 -0.6,-0.7 -0.3,-0.4 0,0 0.1,-0.3 0.5,-1.2 0,-0.2 -0.1,-0.2 -0.2,-0.2 -0.2,-0.2 -0.1,-0.1 -0.2,-0.6 -0.1,-0.6 0,-0.4 0.2,-0.4 0.3,-0.5 0.2,-0.4 0.2,-0.3 0.1,-0.5 0,-0.5 -0.4,-0.9 -0.6,-0.9 -0.3,-0.8 -0.2,-0.4 -0.1,-0.2 0.1,-0.5 0.9,-0.6 0.3,-0.3 0.2,-0.3 0.1,-0.3 0,-0.4 -0.1,-0.3 -0.3,-0.6 -0.2,-0.3 -0.6,-0.7 -0.1,-0.2 -0.2,-1.4 -0.2,-1.9 -0.1,-1.8 -0.4,-1.9 0.3,-1 -0.2,-2 -1.3,-2.2 -0.8,-0.6 -0.9,-1.1 -0.2,-0.6 0.1,-1.3 0.8,-1.9 0.7,-1.3 0.1,-1 -0.1,-1.8 1.5,-2.1 0.9,-1.2 0.1,-1.5 0.3,-2.4 0.1,-0.3 0,-0.1 0,-0.3 0.1,-1.4 0.5,-1.8 -0.9,-0.4 -0.9,-0.3 -0.4,-0.2 -17.8,-6.8 -0.1,0 0.6,-1.7 0.2,-3.1 -1.7,-3.1 1.8,-2.7 0,-0.1 0.5,-2 -0.8,-1.3 0,-1.5 -1.1,-1.5 0.2,-1 -1,-1.1 -0.4,-1.4 0.3,-1.3 0,-1.8 0.1,-3 0.3,-1.6 -0.2,-0.5 0.6,-1.2 0.1,-0.5 0,-0.2 0.7,-0.8 0,-2.3 0.6,-1 0.2,-1 0.2,-0.9 0.2,-1 0.5,-0.2 1.1,-0.6 1.4,-0.4 1.7,-0.3 1.2,-1 -0.2,-1.4 0.4,-0.9 0.6,-0.2 0.3,-1 -0.3,-1.4 -0.1,-1.3 0.8,-0.3 0.7,-0.1 1.9,-1.5 0.3,0 0.2,0 0.1,0 1.5,-0.6 0.9,-1.4 0.8,-0.3 1.4,-1.9 0.8,-0.9 1.7,-1.4 2.7,-2.4 0.3,-0.3 0.9,-0.9 0.7,-0.8 0.3,-0.5 1.1,-2 0.1,-0.3 0.6,-1.3 1.3,-1 0.3,-0.6 -0.2,-0.1 0.1,-0.5 0,-0.4 0.1,-0.2 0.1,-0.3 0.1,-0.4 0.3,-1.6 0.5,-0.9 0.3,-0.7 0.3,-0.5 0.2,-0.3 0.8,-1.3 1.1,-1.9 0.8,-0.9 0.2,-0.2 0.4,-0.3 0,0 0.1,-0.1 0.5,-0.6 0,0 0.2,-0.2 1.3,-1 0.1,-0.1 1.7,-1.5 0.2,-0.2 0.2,-0.1 3.9,-4.2 1.7,-1.9 0.9,-0.6 2.2,-0.9 2.3,-0.4 2.1,-0.1 0.5,-0.2 0.2,-0.2 0.7,-0.8 0.3,-0.6 0.1,-0.1 0.1,-0.1 1.2,-1.5 0,-0.2 0,-0.1 0,-0.1 0.1,-0.5 0,-0.1 0.1,-0.1 0,-0.1 0,0 0,0 0.3,-0.4 0.1,-0.1 0.1,-0.2 0.1,-0.1 0.1,-0.1 0,-0.1 0,0 0,0 0,0 0.1,-0.4 0.1,-0.1 0,-0.2 0,-0.1 0,-0.1 -0.5,0 -0.1,-0.1 0,-0.1 0,-0.1 -0.1,-0.1 -0.1,-0.1 -0.1,-0.1 0,0 0,0 0,0 -0.2,-0.4 -0.1,-0.2 -0.2,-0.3 -0.1,-0.3 -0.1,-0.1 -0.1,-0.2 0,-0.1 0,-0.1 0,-0.1 0,-0.1 0,0 0,-0.1 0,-0.2 0,0 0,-0.2 0,-0.2 0,-0.1 0,-0.5 0,-0.1 0,-0.1 0.1,-0.2 0,-0.1 0,-0.1 0,-0.2 -0.1,-0.3 -0.1,-0.2 -0.3,-0.6 -0.1,-0.1 0,-0.1 -0.2,-0.3 0,0 0,0 0,0 -0.1,-0.2 0,-0.1 -0.3,-0.7 0,-0.1 0,-0.1 -0.1,-0.2 -0.1,-0.4 -0.2,-0.3 -0.6,-1.6 0,0 0,-0.1 0,-0.2 0,-0.1 0,1 0.1,-0.2 0,-0.1 0.1,0 0,-0.2 0.1,-0.1 0,-0.1 0.1,-0.3 0,0 0,0 -0.1,-0.2 0,-0.1 0,-0.2 -0.1,-0.9 0,0 0,-0.1 -0.1,-0.5 0,0 0,-0.1 0,0.1 0,0 0,0 0,-0.2 0,0 0.1,-0.1 0.1,-0.1 1.1,1.1 0.9,-2.1 0,-0.1 0.9,-2.1 0,0 0.9,-2.2 -0.2,-0.1 0.6,-1.8 0,-0.1 1.6,-3.1 0,0 1.7,-3.5 1.7,-3.8 0.1,-0.1 1,-2.2 0.2,-0.4 0.8,-2.1 0.8,-2.1 0,-0.1 0.3,-0.9 0.3,-0.9 0.9,-3.6 0.4,-1.3 1.2,-3.2 0,-0.1 1.3,-6.1 0.1,-0.6 1.2,-4.8 0.1,-0.4 2.3,-7.5 3,-9.7 0.3,-1 0.2,-0.5 0.1,-0.3 1.5,-5 0,0.1 0.1,-0.3 1.5,-4.4 3.1,-9.6 0.7,-2 1.2,-3.4 2.4,-6.6 0.3,-0.7 1.7,-4.6 1.6,-5.8 0.5,-0.8 5.6,-6.8 6.8,-9 2.3,-3 1.1,-2.2 0.5,-5.6 0.2,-1.2 0.4,-2.9 0.6,-2.6 0,0 1,-3.1 0.7,-2.3 0.9,-2.2 1.4,-3.4 1.8,-6.9 0,-0.1 0,0 1.8,-9.2 0.2,-1.3 0.5,-2 0.4,-2.1 0.4,-1.8 0.5,-2.4 0,-0.1 1.4,-6.9 0.4,-2.7 0.6,-3.7 1,-5.1 1.4,-7 0.9,-4.8 0.5,-0.7 0.3,-0.7 0.3,-0.6 0.3,-0.9 0.3,-1 0.2,-0.7 0.2,-1.1 0.1,-0.7 1.3,-4 0.1,-3.5 0.1,-0.5 0.8,-8.8 0.1,-0.5 0.6,-3.6 0.1,-0.7 0.4,-2.6 0.3,-1.8 0.3,-1.7 0.4,-2.8 0.4,-3.2 0.3,-2.2 0.4,-3.8 0.5,-3.8 0,-0.3 0.1,-0.1 0.5,-4.2 0.3,-3.5 0,-0.4 1.2,-11 0.5,-4.4 0.7,-6.8 0,-0.8 3.2,-30.7 3.2,-30.6 3.1,-9.4 0,0 1.7,-4.1 2.1,-5.2 0.6,-1.7 0.1,-0.4 1.7,-0.9 0.5,-0.7 0.1,-1.7 -0.7,-0.7 0.9,-1.3 0.5,-0.8 0.4,-1.8 0.8,-1.6 0.5,-5.8 0.8,-1.1 0.1,-0.9 0.7,-3.1 -0.9,-4.2 -2.4,-9.6 0.2,-6.5 0.1,-2 0,-0.7 0.1,-1 0.1,-1.7 0,-0.7 0.1,-1.9 0.9,-4.6 0.3,-1.3 0.2,-0.9 0.1,-0.8 0.1,-1.5 0.2,-2.3 0.2,-1.3 0.2,-2.3 0.1,-1 0.2,-2.7 0.3,-4.2 0.1,-1.3 0.1,-2.2 0.3,-5.4 0.2,-3.6 0,-0.5 0.2,-3.7 0.5,-7.2 0.1,-1.9 1.1,-13.5 0.3,-4.1 1.4,-11.8 0.6,-4.5 0.4,-3.2 0.5,-5.5 0.8,-9 40.4,8 z"
       inkscape:connector-curvature="0"
       class="DEP_06 ZON_02" /></g></svg>