<?xml version="1.0" encoding="UTF-8" standalone="no"?>
<!-- Created with Inkscape (http://www.inkscape.org/) -->

<svg
   xmlns:dc="http://purl.org/dc/elements/1.1/"
   xmlns:cc="http://creativecommons.org/ns#"
   xmlns:rdf="http://www.w3.org/1999/02/22-rdf-syntax-ns#"
   xmlns:svg="http://www.w3.org/2000/svg"
   xmlns="http://www.w3.org/2000/svg"
   xmlns:sodipodi="http://sodipodi.sourceforge.net/DTD/sodipodi-0.dtd"
   xmlns:inkscape="http://www.inkscape.org/namespaces/inkscape"
   width="74mm"
   height="135mm"
   viewBox="0 0 262.20459 478.3462"
   id="SvgDepartamento"
   version="1.1"
   inkscape:version="0.91 r13725"
   sodipodi:docname="DEP_14.svg">
  <defs
     id="defs3704" />
  <sodipodi:namedview
     id="base"
     pagecolor="#ffffff"
     bordercolor="#666666"
     borderopacity="1.0"
     inkscape:pageopacity="0.0"
     inkscape:pageshadow="2"
     inkscape:zoom="0.9899495"
     inkscape:cx="11.061947"
     inkscape:cy="230.20238"
     inkscape:document-units="px"
     inkscape:current-layer="layer1"
     showgrid="false"
     inkscape:window-width="1366"
     inkscape:window-height="705"
     inkscape:window-x="-8"
     inkscape:window-y="-8"
     inkscape:window-maximized="1" />
  <metadata
     id="metadata3707">
    <rdf:RDF>
      <cc:Work
         rdf:about="">
        <dc:format>image/svg+xml</dc:format>
        <dc:type
           rdf:resource="http://purl.org/dc/dcmitype/StillImage" />
        <dc:title></dc:title>
      </cc:Work>
    </rdf:RDF>
  </metadata>
  <g
     inkscape:label="Capa 1"
     inkscape:groupmode="layer"
     id="layer1"
     transform="translate(0,-574.01597)">
    <path
       style="fill:#b3b3b3;fill-rule:evenodd;stroke:none;stroke-width:0.80000001px;stroke-linecap:butt;stroke-linejoin:miter;stroke-opacity:1"
       d="m 138.30191,576.95093 c -8.54259,0.84109 -16.85748,3.6775 -25.57617,2.56055 -4.52523,-0.0633 -9.05219,-0.15091 -13.578118,-0.13867 -2.66241,8.69484 -6.14188,17.97018 -2.79101,26.99412 2.15633,10.668 4.268348,21.35529 2.07031,32.18748 0.6608,9.78211 -2.87008,18.93314 -4.66406,28.40038 4.13907,0.015 9.484518,-2.1531 12.972658,-1.23242 4.34479,10.704 4.3506,23.77126 -3.04102,33.16794 -5.515658,10.72867 -8.280218,22.72066 -15.183588,32.78319 -6.50095,10.67029 -9.74773,22.73895 -13.63085,34.46677 -3.35404,7.30145 -6.56165,16.44522 -15.36132,18.46679 -7.27113,1.869 -11.8517,9.00643 -11.30859,16.35937 -0.70794,8.50025 2.20737,16.52924 6.22461,23.85935 -0.82634,3.54278 -0.47458,8.63662 -3.19922,10.98828 -6.64083,2.45254 -13.56729,6.89388 -14.45116,14.59179 -1.29272,8.09561 -1.83873,16.68051 -0.0215,24.72264 1.67317,3.91898 3.19402,8.98713 6.21874,11.4707 2.57544,1.30084 9.53587,-0.6746 7.57813,3.8164 -1.45166,6.24089 -2.944,13.08637 -6.18945,18.42577 -3.06115,1.21576 -6.21116,2.84958 -4.14258,6.46484 2.04904,6.44663 6.25047,15.71142 -1.41797,20.19335 -4.41659,3.50606 -0.30267,7.16653 3.46289,8.71679 2.45371,2.02511 7.63241,6.8359 2.51562,8.8164 -6.17681,2.5233 0.35796,8.05 0.58203,12.54882 1.36596,6.147 -1.16785,12.2878 -2.04882,18.32421 -8.07705,-0.24764 -16.66831,-2.84375 -24.41991,-1.77734 -7.49746,6.97678 -10.3156995,17.42867 -11.2128795,27.17577 -1.88623,8.717 -3.44799,17.4235 -5.98437,25.9902 12.6904995,0.2163 25.4934595,-1.3858 37.6347395,2.9355 17.30482,4.6084 35.56743,-0.8579 52.68942,4.6367 10.458348,2.2144 21.341608,0.2616 31.685528,3.1582 4.25272,2.8513 8.1453,-6.4663 3.77149,-8.2402 -4.96596,-4.7762 -9.52451,-9.9727 -13.59375,-15.5332 -1.72272,2.196 -8.4885,7.6645 -9.18944,3.6308 -0.19858,-4.9828 5.69525,-8.1488 9.74608,-10.1718 5.47983,-0.4765 11.1506,-0.938 15.32616,-5.0351 7.73182,-5.1627 16.27198,-9.1105 24.41015,-13.5586 6.80005,-0.6937 13.78234,-1.7666 19.18163,-6.4062 9.74721,-5.95256 16.5366,-15.32881 23.33982,-24.22464 1.41337,-3.27618 4.72655,-7.39062 3.47266,-10.54688 -4.51434,-5.23209 -10.52514,-9.18313 -16.61718,-12.07225 0.25779,-5.44776 -2.5563,-11.05492 -8.2871,-12.21679 -7.74088,-2.7029 -16.04056,-5.00978 -21.5078,-11.59179 -5.88586,-3.68179 -8.29222,-10.86423 -8.41211,-17.3203 2.67402,-4.89612 3.89751,-10.17961 4.78125,-15.60546 3.3595,-7.74316 8.73702,-15.04994 15.48241,-20.12499 4.64257,-2.32374 5.84211,5.20595 7.44336,8.12304 1.88185,5.80679 5.92867,10.46989 9.86913,14.98241 18.62682,-11.97984 38.98849,-21.3663 55.74802,-36.08592 3.46677,-2.72559 8.21705,-4.68378 7.67186,-9.83592 0.63753,-6.29646 -0.73167,-12.65739 -3.25975,-18.41601 -13.63897,-1.92307 -26.83921,-6.54955 -39.75194,-11.4414 1.62619,-16.73595 3.15439,-33.34526 9.70507,-49.00387 15.24529,-45.64327 28.05642,-92.1287 45.6035,-136.98234 -12.62821,-2.31989 -23.36943,-10.79987 -29.43554,-21.98827 -7.52444,-10.1925 -19.86764,-15.20816 -29.63865,-22.8535 -5.12527,-4.44542 -11.75387,-6.19241 -18.45897,-5.36523 -14.38508,0.20881 -28.54734,0.50459 -42.81247,-1.18946 z m 69.1282,418.01107 c 0,0 -0.30624,-0.4237 -0.78085,-0.412 -4.39347,-0.2465 -7.89268,0.096 -12.13645,1.233 0.0163,6.2177 -0.40766,10.7268 -0.2686,16.9382 0.44304,0.2518 1.37521,0.1084 1.69873,0.3803 0.0809,0.068 0.0764,0.8858 0.3126,0.9898 0.16625,0.4247 0.14027,0.4576 0.60211,0.766 0.23097,0.1039 1.22869,0.1641 1.29902,0.232 0.28131,0.2712 0.65556,1.2631 0.972,1.5131 0.31644,0.25 1.17485,0.1685 1.60376,0.3765 l 1.28208,2.0398 c 0,0 3.25543,0.2605 4.42284,-0.2264 1.16742,-0.4869 0.51467,-0.8285 1.09119,-1.6755 1.15303,-1.694 1.90471,-3.0776 1.40953,-5.5752 -0.62324,-3.1481 -0.72066,-4.1238 1.70005,-5.5633 2.06524,-2.9682 0.60563,-5.9007 -1.84653,-7.6914 l -0.26479,-2.4493 z m 32.55952,25.9211 -4.13003,-0.264 c -5.57809,2.4246 -7.76464,11.9135 -4.98549,19.9233 1.43684,1.5089 2.30239,3.2394 2.42743,5.0264 0.12504,1.787 -0.49042,3.6306 0.4844,4.2942 2.1841,0.2357 4.21308,-4.8031 4.21308,-4.8031 0,0 2.68129,-1.5233 4.02715,1.1003 0.49618,2.829 2.42861,4.1473 2.42861,4.1473 0,0 2.04455,-1.3316 2.76502,-3.8025 l 5.2349,0.483 -0.30072,-4.2542 c 0,0 -0.18309,-1.433 -2.91799,-2.808 -0.0151,-5.9526 -4.89575,-8.1284 -4.70842,-14.0946 -0.46812,-2.6467 -1.69116,-4.7622 -4.53794,-4.9481 z"
       id="FONDO"
       inkscape:connector-curvature="0"
       sodipodi:nodetypes="ccccccccccccccccccccccccccccccccccccccccccccccccccccccccccccccsccssccsscccccccscsccccccccc" />
  </g>
</svg>
