<?xml version="1.0" encoding="UTF-8" standalone="no"?>
<!-- Created with Inkscape (http://www.inkscape.org/) -->

<svg
   xmlns:dc="http://purl.org/dc/elements/1.1/"
   xmlns:cc="http://creativecommons.org/ns#"
   xmlns:rdf="http://www.w3.org/1999/02/22-rdf-syntax-ns#"
   xmlns:svg="http://www.w3.org/2000/svg"
   xmlns="http://www.w3.org/2000/svg"
   xmlns:sodipodi="http://sodipodi.sourceforge.net/DTD/sodipodi-0.dtd"
   xmlns:inkscape="http://www.inkscape.org/namespaces/inkscape"
   width="53mm"
   height="72mm"
   viewBox="0 0 187.79516 255.11796"
   id="SvgDepartamento"
   version="1.1"
   inkscape:version="0.91 r13725"
   sodipodi:docname="DEP_07.svg">
  <defs
     id="defs3542" />
  <sodipodi:namedview
     id="base"
     pagecolor="#ffffff"
     bordercolor="#666666"
     borderopacity="1.0"
     inkscape:pageopacity="0.0"
     inkscape:pageshadow="2"
     inkscape:zoom="1.4"
     inkscape:cx="-164.72287"
     inkscape:cy="119.28313"
     inkscape:document-units="px"
     inkscape:current-layer="layer1"
     showgrid="false"
     inkscape:window-width="1366"
     inkscape:window-height="705"
     inkscape:window-x="-8"
     inkscape:window-y="-8"
     inkscape:window-maximized="1" />
  <metadata
     id="metadata3545">
    <rdf:RDF>
      <cc:Work
         rdf:about="">
        <dc:format>image/svg+xml</dc:format>
        <dc:type
           rdf:resource="http://purl.org/dc/dcmitype/StillImage" />
        <dc:title></dc:title>
      </cc:Work>
    </rdf:RDF>
  </metadata>
  <g
     inkscape:label="Capa 1"
     inkscape:groupmode="layer"
     id="layer1"
     transform="translate(0,-797.24398)">
    <path
       inkscape:connector-curvature="0"
       style="fill:#b3b3b3"
       d="m 21.294277,797.97603 c 4.0625,2.9 6.6625,7.15 9.475,11.15 2.5375,3.625 6.9125,5.025 10.825,6.625 2.575,-1.325 5.0875,-2.8625 7.9125,-3.575 3.55,-0.1625 6.9375,1.3 10.2625,2.375 2.475,7.1625 9.8625,9.6625 16.0875,12.6 -0.65,1.6625 -1.2875,3.325 -1.9375,4.9875 -1.9875,2.2125 -5.8125,4.2875 -4.05,7.775 0.525,5.275 6.65,5.0125 10.5125,6.225 0.75,1.0625 1.5,2.1375 2.2625,3.2 1.7625,1.0875 3.6,2.1 5.225,3.425 -0.5375,1.8625 -1.2875,3.6625 -1.9625,5.475 2.3375,3.4125 3.2,7.475 4.55,11.325 2.825,2.5625 6.5125,4.3625 8.112503,8.0625 2.75,5.4375 8.2375,8.5625 11.875,13.275 -0.5625,1.5625 -1.3875,3 -2.1125,4.5 -0.3375,5.7 -0.25,11.4375 -0.175,17.15 5.5875,2.775 9.5,7.7125 14.275,11.55 4.075,1.025 8.3875,0.275 12.5,1.125 4.5375,5.275 10.225,10.8 9.8125,18.375 2.35,3.5 3.525,7.55 3.65,11.7625 0.8125,0.9 1.6375,1.8125 2.475,2.7375 5.775,1.2 11.6875,1.5875 17.475,2.75 4.25,5.5875 9.4375,10.3625 14.4875,15.2125 0.875,5.125 1.6625,10.275 3.125,15.275 -1.8375,3.9875 -4,7.86247 -5.0875,12.13747 -1,4.9 0.1625,9.875 0.375,14.7875 -5.3125,4.85 -11.7625,8.575 -15.6375,14.8625 -3.1,-0.45 -6.3875,-1.1125 -9.3625,0.225 -4.5625,1.9375 -9.425,3.075 -13.975,5 -2.3375,3.775 -3.3125,8.1875 -4.8125,12.325 -2.1625,-0.25 -4.4,-0.275 -6.45,-1.05 -8.5875,-3.75 -16.925,-8.2125 -24.0625,-14.325 0.8125,-4.2375 3.8125,-7.85 3.8,-12.2625 0.125,-4.7625 -0.1,-9.5375 -0.1125,-14.3 -3.675,0.3125 -8.025,-0.725 -11,2.0375 -2.287503,1.75 -4.425003,3.675 -6.612503,5.525 -2.2375,-1.2125 -4.4625,-2.425 -6.675,-3.6625 1.625,-4.7 -2.15,-8.3625 -3.9375,-12.3125 -2.7125,-5.63747 -4.5375,-11.76247 -8.4,-16.76247 -4.3625,-5.4625 -5.375,-12.6125 -9.0375,-18.45 -2.3625,-3.7625 -3.225,-8.2625 -5.6875,-11.9375 -6.0875,-2.8375 -12.9625,-0.5125 -19.35,-1.775 -3.375,-4.55 -3.55,-10.55 -5.45,-15.7625 -0.925,-3.6875 -3.9,-6.225 -6.3625,-8.9 -4.4875,0.05 -8.9875,0.0625 -13.475,0.075 0.375,-2.35 1.4,-4.725 0.9,-7.1125 -1.0875,-2.5375 -2.6625,-4.8 -4.1,-7.125 7.1,-3.95 13.9625,-8.7 18.8625,-15.3125 -4.2375,-2.925 -9.1625,-4.9375 -12.8625,-8.5625 -3.65,-4.925 -5.3375,-11 -8.825,-16.0375 -3.2000001,-4.5875 -6.1375001,-9.65 -6.4500001,-15.375 2.0875,-2.525 4.9625,-4.275 7.0000001,-6.85 2.775,-7.9625 3.1,-16.5125 2.7375,-24.8625 -0.3375,-6.7 1.125,-13.275 1.6375,-19.9125 1.4,-0.05 2.8125,-0.0875 4.225,-0.1125 1.1625,-2.5375 2.3375,-5.05 3.525,-7.575 z"
       id="DEP_07" />
  </g>
</svg>
