<?xml version="1.0" encoding="UTF-8" standalone="no"?>
<svg
   xmlns:osb="http://www.openswatchbook.org/uri/2009/osb"
   xmlns:dc="http://purl.org/dc/elements/1.1/"
   xmlns:cc="http://creativecommons.org/ns#"
   xmlns:rdf="http://www.w3.org/1999/02/22-rdf-syntax-ns#"
   xmlns:svg="http://www.w3.org/2000/svg"
   xmlns="http://www.w3.org/2000/svg"
   xmlns:sodipodi="http://sodipodi.sourceforge.net/DTD/sodipodi-0.dtd"
   xmlns:inkscape="http://www.inkscape.org/namespaces/inkscape"
   width="1276.25"
   height="706.25"
   viewBox="0 0 1021 565"
   version="1.1"
   id="mapa_svg"
   inkscape:version="0.91 r13725"
   sodipodi:docname="MAP_FULL_DEPTOS.svg">
  <metadata
     id="metadata62">
    <rdf:RDF>
      <cc:Work
         rdf:about="">
        <dc:format>image/svg+xml</dc:format>
        <dc:type
           rdf:resource="http://purl.org/dc/dcmitype/StillImage" />
        <dc:title />
      </cc:Work>
    </rdf:RDF>
  </metadata>
  <defs
     id="defs60">
    <linearGradient
       id="linearGradient5154"
       osb:paint="solid">
      <stop
         style="stop-color:#000000;stop-opacity:1;"
         offset="0"
         id="stop5156" />
    </linearGradient>
    <pattern
       y="0"
       x="0"
       height="6"
       width="6"
       patternUnits="userSpaceOnUse"
       id="EMFhbasepattern" />
  </defs>
  <sodipodi:namedview
     pagecolor="#ffffff"
     bordercolor="#666666"
     borderopacity="1"
     objecttolerance="10"
     gridtolerance="10"
     guidetolerance="10"
     inkscape:pageopacity="0"
     inkscape:pageshadow="2"
     inkscape:window-width="1366"
     inkscape:window-height="705"
     id="namedview58"
     showgrid="false"
     inkscape:zoom="0.67255295"
     inkscape:cx="-82.077747"
     inkscape:cy="264.2849"
     inkscape:window-x="-8"
     inkscape:window-y="-8"
     inkscape:window-maximized="1"
     inkscape:current-layer="mapa_svg"
     inkscape:document-units="px"
     units="px" />
  <g
     id="grupMapa">
    <path
       style="fill:#ffffff"
       d="m 306.10488,1.348467 c -4.42599,4.434594 -9.28142,9.084573 -10.42444,15.547383 -4.24552,-0.09443 -8.50902,0.206446 -12.72875,-0.326318 -3.73847,-0.730502 -7.32169,-2.080316 -10.96563,-3.1288 -7.09878,5.199458 -14.88536,9.385102 -22.70605,13.381384 -3.95332,-5.276828 -8.34518,-10.193234 -12.52196,-15.289556 -2.58685,2.535278 -5.15649,5.105723 -7.69178,7.701176 -0.61879,3.901742 -2.1045,7.820418 -1.60602,11.799507 1.95085,4.013475 5.31118,7.116508 7.56285,10.949502 -2.81889,3.824395 -7.71003,5.267947 -10.8555,8.748595 -0.76487,2.861855 -0.22346,5.947153 -0.30079,8.894952 4.1252,0.782081 8.29443,1.340437 12.44542,2.002188 3.36032,6.024501 7.4933,11.575784 10.90518,17.583112 2.647,4.563496 3.24887,9.909615 4.70128,14.902824 -1.05709,3.635314 -1.685,7.434464 -3.34367,10.863554 -9.05824,0.86801 -18.25401,-0.68862 -27.24351,1.00444 -7.45971,1.20318 -14.57516,3.85878 -21.88019,5.71512 -3.07671,0.96254 -6.77247,1.32404 -8.7835,4.16012 -4.82133,6.39406 -9.58195,12.8402 -14.27438,19.32882 -5.80105,7.1675 -9.35983,15.76141 -14.14679,23.5735 -4.48614,6.81517 -3.32541,15.27104 -4.77782,22.93702 -6.31671,-1.62429 -13.23527,-0.0853 -19.26838,-2.88711 -4.70961,-3.13686 -9.0757,-6.7719 -13.59623,-10.16662 -3.47205,0.4211 -6.95268,0.73829 -10.39894,1.27974 -3.30876,0.52423 -6.11879,2.39884 -9.13533,3.72233 -2.25167,1.0141 -4.81273,0.85081 -7.13316,1.6329 -2.5009,2.10557 -4.064772,5.07889 -6.0844,7.63134 -3.540795,4.97604 -8.293634,8.88583 -12.43602,13.32903 -2.629811,2.81026 -5.362759,5.67295 -8.937929,7.27146 -9.565313,4.45177 -18.622749,9.85751 -27.792718,15.03977 -2.045414,1.21179 -4.392693,2.01882 -6.128716,3.68609 -2.200105,4.29709 -2.612625,9.25672 -4.511934,13.67413 -0.567213,1.23755 -1.778186,1.98445 -2.826674,2.7837 -4.288487,2.90483 -8.6981,5.64716 -12.986586,8.5606 -3.472044,2.2173 -4.064503,6.64329 -5.637235,10.14111 -1.6930506,5.23385 -5.9895948,8.89415 -9.3327248,13.05372 0.1976661,7.64881 -0.79093169,15.3927 0.8419595,22.93837 1.1258353,5.99873 2.0446052,12.04902 3.3852946,18.00477 8.6371357,4.52054 17.6532177,8.2324 26.3075407,12.70995 4.262704,2.0626 9.195756,2.21812 13.363925,4.52134 7.640211,4.34865 15.426253,8.51601 23.573521,11.85054 5.517459,5.92139 13.380842,8.5523 20.350711,12.27356 5.388537,2.29464 9.64265,6.51329 14.996815,8.86809 2.70716,1.32351 5.68047,2.13162 8.18997,3.84188 2.55247,1.94226 3.85126,5.06195 4.79662,8.03552 1.74461,6.48 2.1139,13.21863 3.42021,19.77599 0.84223,4.20255 3.75484,8.23267 8.06911,9.28976 4.37443,-0.55863 8.43168,-2.71603 12.85768,-3.0684 6.58313,0.18039 13.10582,1.55529 19.70614,1.44356 8.58557,-0.80785 17.18833,-1.64929 25.7825,-2.39698 4.2541,0.89381 8.00949,3.31762 11.97139,5.04505 5.73232,3.04233 12.4355,2.31075 18.58891,3.84053 8.80043,2.14852 17.68707,3.96298 26.48747,6.12869 9.13561,0.86802 18.41703,-0.61098 27.52686,0.85003 4.08222,0.49847 8.22541,-0.0173 12.29904,0.66201 4.92447,0.8938 9.94371,0.0434 14.88536,0.67949 5.68934,0.8852 11.499,0.53203 17.14536,1.79536 3.30876,0.56721 6.17006,2.72463 9.50461,3.11136 6.50578,-0.64455 13.02848,-1.12637 19.53427,-1.75374 16.27734,8.35351 32.50393,16.89721 49.38287,24.00457 5.09633,1.99384 8.63607,6.33308 13.20815,9.14338 7.85506,4.18536 15.8992,8.07825 23.4191,12.83083 7.10737,6.17061 16.02892,9.61684 24.67465,13.02015 4.94163,2.02823 9.6515,4.79662 15.01427,5.61307 5.72372,0.82504 10.18353,4.76063 15.34862,7.0123 6.23938,2.75873 12.5816,5.41485 18.3311,9.14471 2.68136,1.69308 5.35389,3.5486 8.44779,4.41659 2.02824,-1.27191 2.88818,-3.60901 3.94527,-5.63723 -3.64395,-1.70163 -7.42591,-3.30043 -10.47683,-5.99039 -3.62674,-3.25717 -7.03003,-6.81491 -11.04351,-9.608 -3.32592,-1.67586 -7.33888,-1.13526 -10.57887,-3.10331 -6.61751,-2.45793 -12.65062,-6.27348 -19.46577,-8.18996 0.75625,-1.29773 1.5378,-2.59546 2.32848,-3.86737 2.15712,2.86184 4.64084,5.73203 8.29336,6.643 4.21113,1.97666 8.94651,3.09473 13.40691,1.16962 1.29771,2.29464 3.30095,3.90202 6.02529,4.01375 0.57581,-1.44382 1.16022,-2.8879 1.76181,-4.31455 1.83055,2.01103 3.11915,4.42575 4.13325,6.94384 4.97602,3.49781 10.9495,5.01924 16.14898,8.09595 3.50642,2.02823 7.45141,3.17152 11.44769,3.71295 -0.50704,1.60711 -1.10114,3.20536 -1.35895,4.8812 -0.8852,4.11662 4.14319,5.61121 6.75581,7.63943 2.40637,-0.4469 4.87262,-0.42917 7.28758,-0.008 2.5267,-2.56965 4.77864,-5.50025 7.96707,-7.30502 -1.59852,3.01654 -4.06557,5.41432 -6.56648,7.69178 0.008,1.22896 0.026,2.46678 0.0604,3.71295 1.10005,0.42111 2.21704,0.85885 3.33427,1.29716 -0.75629,2.74153 -1.89018,5.49999 -1.64095,8.40482 2.37199,3.23999 6.75421,3.54939 10.38954,4.21113 3.60956,0.42972 7.03917,1.65868 10.39089,3.00797 5.70653,2.28606 11.94644,2.11416 17.91077,3.17984 9.68558,1.60711 19.37903,3.22334 28.90995,5.57816 7.22769,1.83055 14.78222,1.39226 22.10448,2.66418 5.69791,1.18602 11.05154,3.66916 16.80964,4.60594 4.52912,0.8594 9.23898,0.73158 13.63921,2.21835 4.82991,1.68447 9.03325,4.97604 14.10382,6.01593 2.95639,0.0515 5.74867,-1.21232 8.54179,-2.05454 -3.24859,-2.89622 -6.67768,-5.57789 -9.66843,-8.74053 -3.65251,0 -7.47693,0.12028 -10.87161,-1.41803 -2.10557,-1.57275 -3.52388,-4.18563 -6.24823,-4.78723 -4.66664,-1.52975 -9.65958,0.008 -14.37777,-1.09978 -3.58374,-1.08287 -6.58314,-3.42827 -9.32467,-5.8776 3.43767,0.87661 6.66106,2.38918 10.04712,3.43767 2.67278,0.63596 5.55182,-1.18602 5.75809,-4.03926 -2.054,-2.39779 -4.89036,-4.03149 -6.67796,-6.66989 -1.53835,-1.98524 -2.58709,-4.35668 -4.40046,-6.10991 -3.09389,-1.88211 -6.95187,-2.25247 -10.4325,-1.42745 -4.44318,0.97975 -9.31716,1.55581 -12.70327,4.91614 1.27196,0.39535 2.56214,0.80007 3.85128,1.2126 -4.46038,1.22036 -8.95593,2.28579 -13.4163,3.50614 -2.07979,-1.81336 -3.8843,-3.92807 -6.04144,-5.62112 -3.58377,-0.80786 -7.23654,0.12028 -10.5453,1.50396 -2.29459,-1.10862 -4.84657,-2.26884 -5.6802,-4.89866 -1.0313,-2.81029 -3.56631,-4.46064 -5.99846,-5.94744 0.24923,-0.7047 0.51511,-1.40002 0.78152,-2.09615 1.26336,0.4555 2.53501,0.91877 3.80697,1.40864 1.05708,1.04848 1.93341,2.42463 3.33426,3.07778 2.73294,-0.0173 5.02812,-1.82196 7.38292,-3.00798 4.28849,3.20563 9.75491,3.28246 14.77389,4.43408 2.90485,-0.21491 5.43986,-1.96754 8.06108,-3.10196 -2.372,-2.45795 -4.8901,-4.75259 -7.51989,-6.9183 2.87045,-0.0173 5.75753,-0.008 8.64517,-0.008 -0.0945,-1.15162 -0.18929,-2.30269 -0.27527,-3.44573 0.94536,0.008 1.90037,0.0258 2.86293,0.043 0.95396,1.41802 1.90789,2.82666 2.87903,4.24468 1.03132,-0.39533 2.07095,-0.7646 3.11943,-1.14274 2.35479,1.52116 5.07027,1.83888 7.80322,1.78732 4.32286,1.18599 8.74833,2.87932 11.91098,6.20525 1.79619,0.0342 3.60149,0.0512 5.40628,0.0686 3.03371,4.34865 5.93909,8.97312 10.43385,11.99826 2.86184,2.51809 7.15034,3.71214 10.69972,1.98472 3.35172,-1.99386 3.18737,-6.37607 5.30151,-9.27232 1.30633,-1.32349 3.01764,-2.14852 4.58181,-3.13686 3.60095,2.87048 7.38988,5.49974 11.44632,7.69984 3.10249,1.65868 5.49278,4.37444 6.94519,7.56288 1.71022,4.21113 6.76333,5.19971 10.81117,5.47474 3.78144,0.0258 7.3907,1.36646 11.15495,1.54694 5.72373,-0.44688 11.30132,-2.70691 17.10239,-2.25999 5.38854,0.59299 6.76414,6.69378 8.15642,10.97366 -3.61816,1.71882 -7.88972,1.52143 -11.36178,3.58405 -1.94227,1.59851 -2.36421,4.2627 -3.23222,6.48859 3.86738,0.8938 7.76914,1.89126 11.77401,1.92562 4.05643,0.0517 8.16474,-0.13831 12.17821,0.67815 6.66048,1.36647 13.46677,1.81418 20.13583,3.18923 6.31673,1.30632 12.82252,1.67613 19.25094,1.04875 4.59789,-0.52423 9.06683,-1.95087 13.70769,-2.19151 3.79862,-0.20623 7.6147,-0.16412 11.40473,-0.611 5.019,-0.61876 10.10757,-0.16346 15.13515,-0.79091 6.29951,-0.83364 12.6667,-0.47216 19.00919,-0.5237 5.62051,-0.0342 10.8295,2.46624 16.38134,3.03344 9.71141,1.39226 19.76597,-1.14248 29.27112,1.83971 5.83544,1.69305 11.98028,0.78985 17.91884,1.75239 3.27437,0.38674 6.57479,1.23837 9.90073,0.86883 0.66174,-1.21177 1.18573,-2.5189 1.35763,-3.87678 -1.10007,-2.01102 -2.97385,-3.43685 -4.48645,-5.10411 -2.39774,-2.39778 -4.08169,-5.37163 -6.32478,-7.88112 -2.27743,1.22897 -4.33944,2.84466 -6.71142,3.91034 0.46409,-2.05401 0.93615,-4.35724 2.84407,-5.58621 2.81027,-2.45793 6.65137,-2.60377 10.19213,-2.73267 5.52607,-4.46898 12.15305,-7.1251 18.18613,-10.77763 3.70409,-2.45794 8.49042,-1.29692 12.29766,-3.47124 2.68997,-1.4524 5.10552,-3.36891 7.55486,-5.19948 4.33145,-3.12826 7.27068,-7.68398 10.7427,-11.65447 2.32043,-2.62122 3.64334,-5.89478 4.82075,-9.14338 -3.39472,-3.73848 -7.1415,-7.21133 -11.75658,-9.37705 -0.55862,-2.84466 -1.19458,-6.25682 -4.03927,-7.70923 -4.32285,-2.08839 -9.18766,-2.96418 -13.26989,-5.53384 -2.56966,-1.99384 -5.05312,-4.18563 -7.02979,-6.76386 -1.10004,-2.31184 -1.46038,-4.89036 -2.32838,-7.27954 1.55554,-3.08529 2.88761,-6.30837 3.26578,-9.77184 0.54142,-4.22831 3.59236,-7.44254 6.05888,-10.69973 1.57274,-2.1743 3.75565,-3.75564 6.05889,-5.07054 1.02269,2.14854 1.95946,4.33224 2.87905,6.54095 1.56411,3.82441 4.31452,6.96988 6.54898,10.39893 7.33083,-3.95331 14.32625,-8.50042 21.5969,-12.55687 7.24487,-3.98769 13.41576,-9.54786 20.04186,-14.42073 4.0564,-2.87046 3.4118,-8.53402 2.6641,-12.80532 -0.55,-2.20009 -0.774,-5.39685 -3.5585,-5.78357 -8.5684,-2.26889 -17.37743,-4.01348 -25.39578,-7.9496 0.55005,-6.89253 1.52067,-13.7762 2.6293,-20.60854 2.63841,-9.61689 6.41151,-18.8908 9.08429,-28.49905 8.50819,-25.99737 15.90779,-52.38117 25.86839,-77.88865 -5.5518,-1.57275 -11.1028,-3.92701 -15.0733,-8.25847 -3.0939,-3.56655 -5.1146,-8.02694 -8.83588,-11.04349 -4.29707,-3.49782 -8.97229,-6.48914 -13.5358,-9.6174 -2.96498,-1.91652 -5.69767,-4.28876 -9.00642,-5.60367 -10.83724,-0.60159 -21.8034,0.82504 -32.57188,-0.90239 -3.24861,-0.21491 -6.62636,-0.50625 -9.77182,0.48208 -7.27925,2.50948 -15.11713,0.29999 -22.55968,1.45161 -6.90113,2.87045 -13.87846,5.60447 -20.59908,8.87884 -5.48309,-11.29273 -12.64204,-21.67502 -19.07906,-32.4349 -1.58993,-2.38059 -2.73295,-5.38048 -5.50027,-6.65243 -7.48544,-3.8072 -15.02371,-7.50163 -22.71548,-10.84475 -1.89932,-1.09147 -3.91786,0.0597 -5.73122,0.69559 -4.37443,1.76179 -8.77466,3.48062 -13.36392,4.59787 -4.52914,-1.13441 -8.96482,-2.56912 -13.43379,-3.87543 -1.78758,-0.73909 -2.88763,1.34875 -4.03926,2.32849 -8.11289,9.53093 -15.24578,19.84365 -22.32735,30.14805 -2.2087,3.33452 -6.37661,4.19476 -9.90881,5.42373 -10.38173,3.16264 -22.06952,4.79501 -29.93318,13.0282 -4.44319,-1.95946 -8.25873,-5.6211 -13.3035,-5.92192 -4.03926,-0.56721 -8.50904,-1.33128 -12.17014,0.95478 -7.53709,4.09941 -15.42654,7.46858 -23.11831,11.23283 -2.72437,-1.51256 -5.37934,-3.14574 -8.08658,-4.6583 -1.35785,-4.91586 -2.19232,-9.96144 -3.53301,-14.87732 -0.68752,-2.74153 -1.64096,-5.49944 -1.42609,-8.36989 0.55002,-6.69487 1.44407,-13.36367 2.12305,-20.04993 0.48126,-2.62122 -2.03659,-4.29788 -3.59212,-5.98234 -2.60403,-2.75013 -6.52325,-3.14492 -9.98668,-4.0473 -13.91396,-3.38613 -27.699,-7.27926 -41.55279,-10.87163 -5.0104,-1.3493 -10.28801,0.22371 -15.30702,-0.97087 -5.10494,-2.23449 -9.38482,-5.92245 -14.00848,-8.96479 -1.88212,-1.43522 -4.28741,-2.71496 -4.87182,-5.19005 -1.78759,-5.92999 -2.57854,-12.12611 -4.70128,-17.94437 -2.89622,-6.38546 -7.68344,-11.62896 -12.13522,-16.95734 -0.99692,-1.05709 -1.92456,-2.28605 -3.27383,-2.87906 -3.13687,-0.38672 -6.23991,0.44797 -9.31662,0.92924 -4.51194,5.19089 -8.59417,10.7932 -13.32097,15.78642 -2.68996,-0.0945 -5.32835,-0.76462 -7.94957,-1.31464 -1.46103,-6.07609 -2.38005,-12.45215 -5.42239,-17.99538 -6.66908,-9.94344 -13.52801,-20.34237 -23.90116,-26.81378 -3.48925,-1.35789 -7.44229,-1.97747 -11.15499,-1.3415 -4.52911,1.51256 -9.01473,3.18817 -13.67277,4.27961 -0.49845,-5.65496 -1.58238,-11.29246 -4.71066,-16.139557 -5.92999,-13.312371 -15.51194,-24.492566 -22.13803,-37.418186 -1.6243,-3.506415 -5.13045,-5.80186 -8.83452,-6.583941 -3.34316,0.206228 -6.56649,1.280543 -9.87525,1.718832 -0.7305,-2.655584 -1.46127,-5.302594 -2.20896,-7.949604 -2.44935,0 -4.89787,-0.0088 -7.33861,-0.01736 -2.44074,-2.956395 -4.90701,-5.886718 -7.58838,-8.61967 -4.93306,1.529755 -9.96116,2.725158 -14.81689,4.478355 -3.65252,1.323506 -7.54538,0.454699 -11.28387,0.119394 -3.96188,-0.412521 -8.22514,0.05232 -11.76595,-2.139124 -4.90725,-2.208701 -4.91559,-8.388175 -7.28758,-12.564939 -9.86609,-1.246159 -19.78376,-1.976661 -29.69282,-2.879048 -6.54876,-0.747696 -13.26911,-1.470144 -19.31941,-4.289017 -3.22281,-1.779008 -4.77836,-5.336981 -7.09019,-8.035547 -1.65866,-2.286045 -4.42679,-3.230611 -6.97067,-4.158767 -4.2713,-1.469601 -8.51628,-3.009038 -12.68445,-4.75366 z M 985.12442,522.12791 c -0.38426,-0.0241 -0.92252,0.0725 -1.19649,0.0725 -2.66264,0 -3.2895,0.57018 -6.52624,1.31196 l 0,10e-4 -0.15717,8.95673 c 0,0.28542 -0.10415,2.91064 -0.0523,2.96769 0.26204,0.28539 0.99306,-0.0569 1.20181,0.22827 0,0 -9e-5,1.1408 0.20948,1.42608 0.26203,0.28541 0.78249,-0.2281 1.09569,0 0.41783,0.22814 0.1576,1.19788 0.57476,1.42611 0.31326,0.17106 0.73145,-0.17127 1.0447,0 0.41743,0.28539 1.04342,1.31195 1.04342,1.31195 0,0 -0.3135,0.97008 2.97573,-0.11417 l 1.04473,-2.39563 c 0.10449,-0.39938 0,-0.79906 0,-1.25553 l 0,-3.59479 c -1.09638,-2.96695 1.98334,-1.08361 1.98334,-3.65117 0,-0.45643 0.15738,-0.85617 0,-1.25556 -0.41742,-1.027 -1.56586,-1.36861 -1.98334,-2.39563 -0.57446,-1.31232 0.3135,-0.85704 -0.20949,-2.11227 -0.2097,-0.51351 -0.31429,-0.57009 -0.73189,-0.85539 -0.0781,-0.0428 -0.18887,-0.0645 -0.31687,-0.0725 z m 22.45628,19.98548 -2.4548,0.91311 -1.1494,1.3697 -1.931,4.05001 -0.1047,3.93719 1.5134,5.64932 1.0448,1.88268 0.2093,0.39881 -0.3652,2.11094 0,1.02728 0.9399,-0.45659 0.9401,-1.4825 0.6257,-1.94038 3.1852,0.22828 0.94,1.54024 0.1572,0.96954 0.053,0.62843 0.5748,0.79899 0.4699,-0.79899 0.6259,-1.36968 0.3666,-0.79899 2.4009,0.34242 1.2006,0.28603 -0.1572,-2.62526 -1.5658,-1.19781 -0.47,-0.28601 -1.0447,-5.13503 -1.8276,-1.54024 -0.9386,-5.76211 -2.1406,-2.22643 -1.097,-0.51295 z"
       id="FONDO"
       inkscape:connector-curvature="0" />
    <path
       class="ZON_01"
       style="fill:#cccccc"
       inkscape:connector-curvature="0"
       id="DEP_02"
       d="m 300.68144,8.558711 c 1.68444,-2.139949 3.49782,-4.185359 5.31119,-6.222173 5.80106,2.66418 11.98027,4.36582 17.77273,7.038619 4.04787,5.715115 8.28478,11.29273 12.78813,16.664074 2.81887,3.643936 7.02141,5.72371 10.62237,8.46526 1.27193,3.231393 2.55248,6.454212 3.8244,9.694203 5.887,2.483722 11.55055,5.887001 15.77031,10.759903 1.26332,1.340676 1.15162,3.12828 0.41252,4.692398 -1.52118,3.549398 -0.21492,7.597257 -1.72744,11.138037 -1.64148,3.841611 -3.54079,7.588662 -4.8385,11.567752 -0.83364,2.268853 -1.65868,5.096344 -4.27132,5.869808 -5.38853,1.796178 -11.16382,2.114181 -16.50078,4.108013 -1.71882,0.524252 -2.87045,2.492317 -2.62982,4.236917 0.57582,1.882148 1.65866,3.575188 2.18292,5.483098 -0.36097,5.79246 -1.16883,11.55054 -1.4954,17.34301 -3.76424,1.80479 -7.47691,4.39162 -11.87712,3.89316 -3.1025,-0.42113 -5.94716,0.84223 -8.50823,2.44933 0.67035,5.17369 -3.14545,9.26451 -7.01283,12.07481 -3.31736,2.22589 -7.08161,3.71266 -10.33878,6.04169 0.10302,3.48062 0.12028,6.97847 0.0173,10.46768 -3.7127,2.88766 -8.09571,6.798 -7.70038,11.9459 0.043,4.86431 -1.25475,9.63405 -0.89378,14.51554 2.62982,1.03989 5.31119,2.01963 8.13867,2.37199 3.25718,0.49846 6.9097,0.19776 9.65985,2.3634 -0.39535,2.97358 -0.51566,5.99013 -0.91099,8.96371 -1.39226,2.60404 -3.72987,4.8557 -3.90177,7.97538 -0.21491,4.35725 0.0603,8.73167 -0.06,13.0975 -8.18164,3.9877 -15.71013,9.19578 -24.1324,12.71938 -3.22282,8.25899 -1.27195,17.19693 -0.13749,25.66215 0.4211,6.37687 0.61018,12.89126 -0.88521,19.165 -1.67585,1.01412 -4.08223,1.63288 -4.47756,3.85878 -1.10862,2.40638 -0.0773,4.95025 0.83364,7.22769 0.32659,1.01411 0.69612,2.03683 1.04848,3.05952 -4.75257,-1.52976 -9.72858,0.19776 -14.48976,0.88521 -4.82132,-2.30325 -9.53091,-4.82991 -14.38662,-7.07301 -0.008,-1.85633 -0.0258,-3.71267 -0.0342,-5.56042 -2.18293,-1.35788 -4.38302,-2.68997 -6.63471,-3.92753 -0.39533,-2.05401 -0.80784,-4.09942 -1.18598,-6.14483 3.20563,-1.96806 7.0558,-3.3775 9.12699,-6.71203 1.71023,-2.58687 3.17127,-5.31979 4.75257,-7.984 -1.90788,-3.6783 -2.10557,-9.49654 -6.98704,-10.51924 -3.13687,-0.13748 -6.20501,0.79925 -9.33327,0.91099 -3.09391,3.3689 -8.06992,7.05581 -6.61751,12.23806 0.40394,3.90177 0.72193,7.8379 2.07979,11.55917 -4.64944,1.06567 -9.29888,2.25167 -13.51862,4.52912 -0.70472,2.70717 -1.43522,5.40574 -2.17431,8.0957 -1.28055,1.57275 -2.5095,3.18844 -3.72988,4.81273 -0.90238,-0.44688 -1.80477,-0.89379 -2.70715,-1.3321 -0.008,-2.36339 -0.0172,-4.73539 -0.0345,-7.09876 -0.65317,-0.67896 -1.29772,-1.34928 -1.94229,-2.01964 -3.85019,-0.16324 -7.64882,0.40394 -11.43884,0.96254 2.00245,-4.03926 5.13931,-7.3308 8.22463,-10.55362 0.008,-2.18291 0.0172,-4.35725 0.0345,-6.52297 -3.17125,-0.36956 -6.31672,-0.95397 -9.48797,-1.26335 0.0172,-4.49474 0.008,-8.98089 0.0172,-13.46703 -3.73846,-0.11178 -8.18165,0.8508 -10.77707,-2.59546 -6.75501,-0.0603 -13.43268,1.42663 -20.22207,0.84223 4.39161,-8.17304 5.48307,-17.57506 9.04965,-26.0833 2.58684,-1.85633 5.66356,-3.8158 6.16201,-7.26207 1.02272,-3.24858 -0.28359,-6.51435 -1.40944,-9.53951 -3.23141,-0.85082 -6.37686,-2.02821 -9.23871,-3.77283 -1.32352,-2.62982 -2.06261,-5.50028 -2.01964,-8.45666 -2.50091,-1.93369 -5.47448,-3.04235 -8.52541,-3.76425 1.58133,-7.02143 0.32658,-14.79914 4.32286,-21.15025 4.89867,-7.97536 8.50822,-16.76721 14.44679,-24.07223 4.45177,-6.12766 8.88636,-12.28106 13.53582,-18.2626 1.95946,-2.82749 5.53463,-3.2572 8.57696,-4.15959 8.24181,-2.13135 16.30311,-5.18226 24.81134,-6.13623 8.29337,-1.29772 16.79301,0.27502 25.04339,-0.85081 1.82197,-3.64394 2.44076,-7.74335 3.42051,-11.662291 5.01037,0.438311 9.95201,1.976661 15.01397,1.710237 2.51809,-0.644558 6.25657,-1.933678 6.0503,-5.139305 -0.30079,-2.59543 -2.44933,-4.434591 -3.9791,-6.394059 -4.98461,-5.345577 -9.15277,-11.954483 -15.99374,-15.125723 -1.31491,-0.653157 -2.63839,-1.263352 -3.96189,-1.873526 -1.99385,0.833638 -3.95334,2.629817 -6.15343,2.483722 -3.5408,-2.793108 -4.22834,-8.044144 -7.89804,-10.708347 -3.56657,-1.177386 -7.3738,-1.263328 -11.04351,-1.993831 0.0173,-2.105586 0.0342,-4.219747 0.06,-6.325312 4.04785,-2.844661 8.06133,-5.749499 12.10919,-8.602758 -2.48373,-4.443188 -6.25656,-8.078506 -8.45666,-12.659195 -0.0174,-3.652533 1.15163,-7.20191 1.67585,-10.802863 1.85636,-1.890719 3.77284,-3.721282 5.74091,-5.500269 3.91893,5.156498 8.27617,9.952033 12.28105,15.031184 7.88945,-4.142378 15.88201,-8.276181 23.01518,-13.664719 3.43766,1.031313 6.84096,2.260256 10.37315,2.982185 4.89869,0.335174 9.82311,-0.06013 14.73899,0.128952 0.89378,-3.136877 1.44384,-6.565945 3.63534,-9.127012 z" />
    <path
       class="ZON_02"
       sodipodi:nodetypes="ccccccccccccccccccccccccccccccccsszcscccccccccccccccccccccccccccccccccccccccccccccccccccccccccccccccccc"
       style="fill:#cccccc"
       inkscape:connector-curvature="0"
       id="DEP_04"
       d="m 332.90955,19.344382 c 8.8262,4.202554 18.80404,3.944725 28.30059,5.147902 6.50578,0.670349 13.13187,0.713308 19.50874,2.277448 2.19153,3.136877 2.75015,7.141757 4.53772,10.536438 3.35173,1.503988 6.56595,3.979112 10.44191,3.575187 5.92997,-0.111787 12.092,2.303239 17.84148,-0.06882 4.4346,-1.727429 9.10123,-2.724356 13.75925,-3.669703 2.05401,2.879025 4.36585,5.560421 6.94409,7.983967 2.10559,0.04298 4.21975,0.09443 6.3339,0.163244 0.57581,2.535279 1.16022,5.070556 1.73603,7.605834 3.84158,0.257828 7.68317,-0.163245 11.28413,-1.589908 2.85326,1.323483 6.21357,2.509488 7.47693,5.697922 4.02207,8.05274 9.34185,15.314801 14.05145,22.95502 3.94472,5.526035 6.50578,11.84275 9.70282,17.798497 2.45794,4.47755 2.21728,9.74578 2.99935,14.65305 4.22833,-1.16022 8.52541,-2.15714 12.60764,-3.8158 1.94227,-0.71333 3.91893,-1.72743 6.06748,-1.41804 3.30875,0.46407 7.01283,0.61877 9.56531,3.0853 5.7323,4.32288 10.57082,9.67703 14.54991,15.64138 2.54387,3.97911 5.99874,7.47692 7.51129,12.04041 1.65868,5.00182 2.8189,10.14971 3.81583,15.3234 3.35172,0.71331 6.69484,1.71025 10.1411,1.7704 4.93307,-4.6924 9.02387,-10.28721 13.41549,-15.48667 2.65561,-1.0399 5.70653,-1.81337 8.56838,-1.3407 5.06198,5.3026 9.93486,11.00053 13.38112,17.52351 2.59543,6.49718 3.19703,13.60457 5.56042,20.17909 2.60402,4.1252 7.8207,5.48306 10.97475,9.10982 -2.0626,1.99384 -4.74397,3.10248 -7.26206,4.37443 -5.84404,2.99075 -11.67389,2.33391 -17.89606,3.70897 -1.33639,0.30509 -2.16636,-0.73563 -2.16636,-0.73563 l -5.41825,2.51993 -8.79658,-5.81546 c 0,0 -8.67916,-3.39844 -10.25461,-3.24891 -1.24545,0.11834 7.85938,4.4865 7.91768,4.79832 0.48845,2.61321 5.6392,5.91523 7.37492,6.19203 1.73571,0.27681 -1.82375,2.82254 -2.94313,3.4714 -0.77134,0.32228 -2.36422,0.82384 -3.64198,1.2594 -1.27779,0.43554 -6.54027,2.03782 -6.54027,2.03782 l 0.36324,2.42862 -4.34615,2.16068 -3.70053,0.0823 -0.26265,2.15138 -6.69239,1.9338 c 0,0 -4.03429,-0.07 -5.82188,0.69464 -3.89316,1.75323 -6.57683,4.57053 -10.74498,5.30962 -0.75631,0.99691 -2.23544,0.6385 -2.97455,1.64401 -1.56414,0.36095 -3.02072,0.47661 -4.55905,0.88053 0.008,-4.06503 0.008,-5.87113 0.06,-9.93616 -3.31735,-0.85083 -6.21285,-0.12374 -9.59896,-0.0292 -2.19151,2.2173 -4.3317,3.90498 -6.89277,5.71833 -2.91341,0.67035 -6.03752,0.826 -8.96812,1.2643 -6.09326,1.37506 -11.93753,-2.54342 -15.24628,-7.28737 -1.58992,-0.70474 -3.54127,-2.13231 -5.11401,-2.85421 -0.0342,-2.39779 -0.18538,-4.68359 -0.83852,-7.02979 -1.78758,-4.78696 -1.15579,-9.625 -1.98083,-14.60101 0.52425,-4.51194 1.18158,-9.19157 -0.27943,-13.63476 -2.31183,-2.965 -4.60623,-5.62036 -6.87509,-8.61113 -5.12213,0.9024 -11.28232,-3.27066 -13.55623,-2.24258 l -3.33019,-2.68834 -2.33146,3.27595 c -1.55554,0.043 -4.42348,0.19842 -5.94465,-0.0174 -2.44935,1.61573 -5.40596,2.56967 -8.19047,3.42048 -0.61879,-2.53528 -1.53136,-5.04774 -1.6173,-7.65177 -1.41803,-0.60159 -1.9072,-1.55328 -3.39399,-1.94863 -1.53835,-0.0342 -2.74268,0.9637 -3.73961,2.02077 -1.53835,1.31491 -0.59073,2.6194 -0.56495,4.28665 -2.372,3.29157 -4.57209,6.69487 -6.54016,10.23565 -4.31426,0.83363 -8.61992,1.7618 -12.95999,2.43216 -0.4211,-1.49538 -0.86801,-2.97358 -1.27194,-4.46898 -2.14854,-0.69611 -4.28848,-1.91649 -6.60891,-1.65867 -3.24858,1.7876 -5.56042,5.04478 -9.31606,6.01592 -3.85879,-2.51809 -8.43087,-3.46345 -12.97721,-3.65251 -0.42971,1.14303 -0.29218,2.61262 -1.10004,3.57517 -2.5181,1.45241 -5.33698,2.26885 -8.00978,3.3861 -1.38365,-2.0798 -2.7759,-4.15959 -4.21112,-6.1964 -1.37507,1.20318 -2.59543,2.64701 -4.22831,3.50642 -1.61573,0.27501 -3.25722,0.22345 -4.8901,0.25781 -0.0173,-2.56963 -0.0258,-5.14789 -0.0342,-7.71753 -5.30258,-1.69307 -11.84276,-1.18601 -15.50387,3.48062 -2.3462,3.47205 -6.73782,2.32904 -10.2872,2.50949 -0.71334,2.77592 -1.50399,5.55184 -2.66421,8.18164 -2.02821,0.51566 -4.03924,1.09147 -6.0417,1.68447 -5.21664,-3.49782 -12.06618,-1.44381 -17.30863,-4.76117 0.0258,-4.58929 0.80785,-9.15278 0.8938,-13.75066 0.22344,-4.50333 4.45176,-7.04721 7.14174,-10.10675 0.86802,-3.36888 0.0173,-6.93548 0.62738,-10.34734 3.11109,-2.22591 6.88393,-3.36032 9.83173,-5.86125 3.56657,-3.01655 7.4855,-6.72921 7.15032,-11.83415 2.59546,-1.83056 5.70655,-2.38918 8.84341,-2.16574 4.19395,0.33518 7.666,-2.39776 11.18102,-4.25411 0.76486,-5.49165 1.01409,-11.0349 1.72741,-16.52657 0.68754,-3.42047 -1.63288,-6.38546 -1.84775,-9.728589 5.19088,-1.349272 10.40754,-2.586835 15.66716,-3.669704 3.03375,-0.498465 5.63778,-2.698568 6.63471,-5.620577 1.53835,-4.348648 3.34312,-8.594162 5.26821,-12.788119 1.69305,-3.076724 0.46409,-6.660485 1.29773,-9.926265 0.58438,-1.856333 1.59851,-3.5408 2.2087,-5.388537 -1.87354,-4.15957 -5.6378,-7.004254 -9.1442,-9.728589 -2.62123,-2.131353 -5.95576,-3.119684 -8.58558,-5.19948 -1.86492,-2.664181 -2.27745,-6.067483 -4.06502,-8.774645 -2.76732,-3.059509 -6.85815,-4.52911 -9.62548,-7.605833 -1.90789,-2.131354 -3.65251,-4.400207 -5.56042,-6.514367 z" />
    <path
       class="HIDRO LAGO"
       inkscape:label="Lago de Guija"
       style="fill:#ffffff"
       inkscape:connector-curvature="0"
       id="LAGO_DE_GUIJA"
       d="m 245.54986,72.052384 c 1.66729,-0.859405 3.33456,-1.718832 5.00181,-2.586834 2.57827,1.246136 5.25104,2.354796 7.60583,4.013474 4.04787,3.085298 6.86676,7.408158 10.3302,11.077862 2.00245,2.13995 3.88456,4.511939 4.54631,7.433948 -2.28603,0.893813 -4.57209,2.329027 -7.13315,1.942297 -4.19396,-0.50706 -8.34494,-1.375062 -12.5389,-1.873526 -0.73909,-3.489244 -1.34927,-7.021448 -2.56964,-10.381768 -1.34069,-3.411875 -3.44626,-6.445616 -5.24246,-9.625453 z" />
    <path
       class="ZON_02"
       style="fill:#cccccc"
       inkscape:connector-curvature="0"
       id="DEP_05"
       d="m 336.25267,169.51021 c 2.58686,-0.85083 5.27683,-0.1804 7.8465,0.35235 -0.0173,2.53527 -0.0173,5.07915 -0.008,7.62303 2.2173,0 4.44316,0 6.66905,0 1.05709,-1.13444 2.11416,-2.26027 3.17983,-3.39469 1.08287,1.59849 2.34623,3.11109 3.05954,4.93304 -1.21178,1.67586 -2.74153,3.08531 -4.19396,4.55491 -0.58441,3.91034 -1.78758,7.77773 -4.60646,10.67394 0.17194,2.41498 0.65317,4.79556 1.14303,7.16755 4.02205,2.46653 8.0871,4.88147 11.96306,7.58864 -1.1688,2.48372 -2.5009,4.89867 -3.49782,7.46832 5.86123,2.61263 12.3756,2.81889 18.51183,4.43459 -0.1461,5.13932 -1.65009,10.11533 -3.25719,14.96245 -1.28911,4.9846 -2.647,9.94343 -4.00487,14.91086 -1.34071,4.70101 -1.12585,9.90908 -3.76425,14.18039 -1.99384,3.31733 -4.79556,6.37686 -5.25103,10.39033 -0.85083,5.73231 -1.70164,11.50759 -3.45486,17.05941 -1.58993,4.15956 -4.2885,7.84646 -5.30259,12.2381 2.0626,0.0173 4.13378,0.043 6.19637,0.0688 -0.5586,2.73295 -2.50948,4.59789 -4.79551,5.99014 -0.0258,2.01101 -0.043,4.02208 -0.0688,6.03308 4.17677,3.79863 10.23566,3.66971 14.63586,7.00424 2.56965,1.44384 1.36647,4.92446 1.779,7.33944 1.60709,1.78759 3.10248,3.6697 4.54631,5.59479 -2.22588,1.80477 -4.76117,3.39469 -6.30812,5.86982 -0.3008,2.29464 0.4297,4.5549 0.86801,6.79798 2.647,0.008 5.30259,0.0516 7.9582,0.16324 -0.6188,2.81029 -2.22588,5.20806 -3.52361,7.72615 -1.32351,4.2971 0.38674,8.57699 1.29773,12.73656 -0.33518,4.33146 -0.55002,8.8348 -2.35481,12.85687 -1.29771,2.66418 -0.94537,5.68933 -0.99693,8.55979 2.55248,2.26884 6.38547,3.95331 6.7636,7.7863 0.93679,5.51746 1.80478,11.06929 3.62675,16.38048 3.74705,-0.0258 7.4941,-0.0174 11.24977,-0.0174 0.51562,-2.0368 0.8508,-4.14237 1.71882,-6.05029 1.47819,-0.81645 3.11109,-1.28912 4.70101,-1.85632 0.0342,2.3376 0.0515,4.67522 0.0688,7.03001 3.47206,0.0174 6.95268,0.0516 10.43333,0.12028 -2.09699,4.23694 -3.92753,9.10983 -8.74025,10.93179 0.80783,1.6157 1.61569,3.23999 2.42353,4.8643 -1.6157,3.72987 -3.10248,7.51989 -4.61507,11.3013 -7.68318,-3.79859 -15.73589,-6.78078 -23.34172,-10.73409 -9.16998,-4.60646 -18.35715,-9.16995 -27.51852,-13.81082 -2.52668,-1.40085 -5.49167,-1.14304 -8.24182,-0.76488 -4.09942,0.61878 -8.25899,0.63596 -12.35841,1.1688 -2.34619,0.4469 -4.44316,-0.8852 -6.54015,-1.67585 -5.85261,-2.59545 -12.41857,-1.9337 -18.61495,-2.76731 -5.21668,-0.80788 -10.52787,0.0342 -15.74452,-0.78209 -4.29709,-0.71331 -8.6801,-0.23204 -12.99436,-0.77346 -9.35905,-1.38366 -18.8728,0.24063 -28.24042,-0.93677 -8.57699,-2.13136 -17.2485,-3.86738 -25.82547,-5.98154 -4.77835,-1.10004 -9.69421,-1.3321 -14.50695,-2.19151 0.61019,-2.15715 1.21178,-4.31427 1.80477,-6.46281 5.019,-3.89316 10.8974,-6.84098 14.85073,-11.9373 3.02514,-3.85018 6.73781,-7.10739 9.59109,-11.09507 3.45483,-4.67522 1.32348,-11.61931 5.61197,-15.82185 4.03068,-4.09083 7.56287,-8.63713 11.61071,-12.71076 -0.53282,-2.69857 -0.51563,-5.46591 0.18909,-8.12148 1.82196,-6.26517 -0.62738,-12.65063 -0.043,-19.0189 5.3284,-2.41495 11.24977,-2.56964 16.93913,-3.47202 1.10863,-3.85019 3.17124,-7.36521 6.35968,-9.84892 4.20254,-0.44692 8.07849,-2.13136 11.79978,-4.03068 1.35787,-2.75012 1.89932,-5.77527 1.88212,-8.8262 -1.9337,-1.00552 -4.18537,-1.65008 -5.68075,-3.28297 -1.83915,-3.6611 -3.62674,-7.94101 -2.01962,-12.01464 1.28912,-0.80785 2.85326,-1.33209 3.833,-2.55247 1.05707,-2.63841 1.08286,-5.53462 1.14301,-8.33633 -0.008,-5.1565 0.1461,-10.34739 -0.5844,-15.46951 -0.76487,-5.95574 -1.99383,-12.15214 -0.24064,-18.05633 0.42971,-2.28605 2.87905,-3.0681 4.66664,-4.06503 5.37135,-2.42354 10.30439,-5.66357 15.51246,-8.4051 1.44383,-0.81644 2.98218,-1.55554 4.18536,-2.73295 0.8938,-4.58067 -0.23205,-9.30747 0.61878,-13.90534 0.50706,-2.66421 2.38919,-4.74398 3.47206,-7.15896 0.81643,-3.04232 0.11177,-6.47141 1.736,-9.28168 2.12275,-1.27194 4.56352,-1.85635 6.88392,-2.64701 0.69613,-2.5009 1.36649,-5.01039 2.03683,-7.5199 2.38916,-0.0516 4.78695,-0.086 7.19331,-0.12901 2.45792,-2.57825 4.96743,-5.56041 8.6801,-6.22217 z" />
    <path
       class="ZON_01"
       style="fill:#cccccc"
       inkscape:connector-curvature="0"
       id="DEP_01"
       d="m 104.27902,175.72379 c 5.60339,-4.2971 12.76233,-5.62919 19.66345,-5.58621 5.294,3.02515 9.77156,7.31363 14.86789,10.67393 5.93857,0.96257 11.97168,1.00554 17.93603,1.70167 3.01654,0.35234 6.35968,0.43828 8.88636,2.34619 0.71332,2.86186 0.62738,6.14483 2.73295,8.45667 2.26885,2.72433 5.90419,3.35173 8.91214,4.87288 2.43215,2.83608 1.35788,6.73784 0.71332,10.0294 -2.45793,2.07978 -5.68933,3.75564 -6.68627,7.05581 -2.71575,7.86363 -4.16815,16.1914 -7.89803,23.68551 -3.48064,-1.27194 -7.073,-2.29465 -10.78567,-2.47514 -1.06567,1.73603 -2.13135,3.47206 -3.16265,5.22527 -2.77592,1.53836 -5.8956,2.08838 -9.04965,1.97665 0.14608,3.81581 -0.94538,8.10429 1.42663,11.45604 2.0626,3.56657 5.20805,8.11287 2.34621,12.13494 -3.26579,4.15959 -7.75195,7.58866 -9.54813,12.74517 -1.67586,6.18778 1.78759,12.07479 1.53836,18.2454 -2.02823,0.42971 -4.04785,0.8852 -6.07607,1.3149 -0.0343,4.23692 0.34376,8.61994 -1.20319,12.66779 -1.80477,4.97602 -4.5549,9.59109 -5.80965,14.76479 -1.06568,3.95329 -2.68138,8.70587 -6.94409,10.17546 -3.86737,0.22348 -7.40816,-1.71883 -10.35596,-4.03923 -3.23141,-2.51812 -7.459738,-3.1025 -10.785677,-5.41432 -2.775917,-2.61264 -4.821329,-5.887 -6.832363,-9.10124 -6.144826,4.00489 -11.816972,8.67151 -17.033631,13.81941 -1.237559,1.45241 -2.096976,3.17984 -3.282971,4.67523 -2.406366,-0.008 -4.494747,-1.48678 -6.617506,-2.44933 -4.924455,-2.48371 -9.891881,-4.89006 -14.610077,-7.74333 -4.958832,-3.09392 -11.095066,-3.05094 -16.165621,-5.86982 -7.365201,-4.03925 -15.37496,-6.7722 -22.6370283,-10.99193 C 6.4258712,309.35443 6.0821048,307.70433 5.8156855,306.30351 4.7500093,299.44536 3.3319722,292.64738 2.2834844,285.78923 1.8279936,280.64132 2.145978,275.45904 2.0944125,270.30254 c 2.7157558,-2.99076 5.4401056,-5.99871 7.8378774,-9.24732 2.9993631,-4.36581 2.8618561,-10.81147 7.6659931,-13.85378 4.898674,-3.44625 10.209867,-6.3167 14.902281,-10.03798 2.81029,-4.39162 2.758728,-10.06378 5.216656,-14.63587 6.926896,-4.34865 14.317876,-7.99257 21.390875,-12.11777 4.039256,-2.38918 8.379308,-4.17676 12.530289,-6.3253 3.69549,-1.86493 6.308116,-5.15651 9.178568,-8.01835 3.231405,-3.36892 6.720637,-6.48 9.883286,-9.91768 2.853264,-3.25718 5.31979,-6.84095 7.872255,-10.33019 1.899307,-0.0342 3.807217,-0.06 5.706527,-0.0945 z" />
    <path
       class="ZON_03"
       style="fill:#cccccc"
       inkscape:connector-curvature="0"
       id="DEP_07"
       d="m 414.1158,169.74226 c 2.73295,1.71882 4.46038,4.43459 6.15343,7.09016 1.73601,2.81891 4.96741,3.95332 7.90663,5.06197 1.96807,-0.97115 3.87596,-2.39776 6.13624,-2.54388 2.2001,0.23204 4.29706,0.98834 6.35968,1.75322 1.58132,4.9846 6.76359,6.54875 10.98333,8.61136 -0.4297,1.16878 -0.86802,2.33759 -1.30631,3.50641 -1.06567,0.99693 -2.17433,1.95947 -3.05092,3.13688 0.16325,1.65864 0.64455,3.25718 1.04847,4.87288 2.13995,0.48987 4.2885,0.98833 6.43704,1.46959 0.50705,0.78208 1.0141,1.56415 1.53836,2.34621 1.23756,0.71333 2.62122,1.30631 3.63532,2.35482 -0.41252,1.28053 -0.96254,2.50089 -1.46102,3.73845 1.89072,2.22588 2.33763,5.09634 3.10251,7.8207 1.79616,1.58991 4.38303,2.44933 5.32837,4.84709 1.79619,4.10801 5.887,6.3511 8.59417,9.75437 -0.41253,1.03989 -0.99692,2.01105 -1.52115,2.99939 -0.25784,3.97049 -0.16325,7.95818 -0.12028,11.93729 3.91893,1.77898 6.52297,5.26821 9.78877,7.91521 2.86184,0.74769 5.87839,0.39532 8.8176,0.45548 1.73601,2.8103 3.92753,5.28543 5.79245,8.00978 0.6016,1.55554 0.46411,3.30873 0.69614,4.95883 1.7704,2.32043 2.56105,5.12211 2.52669,8.03554 0.5758,0.61878 1.16021,1.23757 1.74462,1.87353 3.97908,0.8852 8.0871,0.98833 12.05759,1.92509 2.87046,3.87596 6.47141,7.09878 9.91767,10.44192 0.66175,3.50641 1.08287,7.08157 2.17433,10.50207 -1.26334,2.73292 -2.77593,5.37993 -3.52361,8.31914 -0.72192,3.3775 0.0945,6.79798 0.32658,10.18409 -3.72128,3.29154 -8.17307,5.8784 -10.81146,10.27001 -2.13994,-0.37813 -4.43458,-0.95394 -6.4714,0.0945 -3.14547,1.43521 -6.43704,2.50948 -9.81453,3.20562 -1.03132,2.85326 -2.01965,5.71512 -2.99079,8.58557 -1.29771,-0.06 -2.6384,0.1461 -3.87594,-0.24063 -6.02453,-2.73295 -12.01467,-5.71512 -17.05084,-10.07236 -0.10313,-2.71576 2.32042,-4.93307 2.43214,-7.6746 0.16325,-3.54939 -0.043,-7.09878 -0.0258,-10.64815 -1.97664,0.008 -3.97049,-0.12903 -5.91277,0.24063 -2.30324,1.3235 -4.15099,3.26577 -6.21357,4.90725 -1.57273,-0.85942 -3.14548,-1.71022 -4.70103,-2.57825 0.48129,-1.57271 0.62737,-3.23999 -0.48126,-4.58928 -3.33454,-4.99322 -4.45178,-11.13803 -8.24179,-15.85622 -2.74156,-3.42908 -3.22282,-7.99257 -5.56903,-11.6365 -1.55555,-2.43215 -2.40637,-5.19947 -3.5408,-7.81208 -0.54144,-1.3751 -2.21729,-1.45244 -3.42047,-1.80479 -3.50644,-0.37815 -7.05581,0.24063 -10.53647,-0.33517 -2.33758,-3.11968 -2.45792,-7.24489 -3.73844,-10.82865 -0.61021,-2.56107 -2.68138,-4.30567 -4.4088,-6.13624 -3.11108,0.0258 -6.21359,0.0258 -9.31608,0.043 0.2836,-1.61572 1.06567,-3.2572 0.68753,-4.90729 -0.7477,-1.7618 -1.87353,-3.31734 -2.87905,-4.92443 4.94165,-2.61263 9.65984,-5.93859 12.99438,-10.50208 -2.87904,-2.02822 -6.26515,-3.37752 -8.80902,-5.84403 -2.60403,-3.58377 -3.79861,-7.99257 -6.40266,-11.59353 -2.14852,-2.97359 -3.91893,-6.36827 -4.0994,-10.09814 1.45241,-1.71025 3.46344,-2.85326 4.84709,-4.62366 1.78758,-5.50886 2.13137,-11.36147 1.86496,-17.11098 -0.27502,-4.60648 0.75627,-9.11842 1.08285,-13.6733 0.97973,-0.043 1.95946,-0.0773 2.94779,-0.11178 0.78208,-1.71023 1.57273,-3.42048 2.37199,-5.12213 z" />
    <path
       class="ZON_02"
       style="fill:#cccccc"
       inkscape:connector-curvature="0"
       id="DEP_06"
       d="m 380.98531,176.59179 c 3.88456,-0.70472 6.35966,-4.19396 9.48795,-6.30812 1.4438,0.64457 2.96498,1.16023 4.30569,2.03682 0.91956,1.34929 1.40082,2.93061 2.03682,4.42599 3.56657,0.008 7.09017,-0.64457 10.48487,-1.71024 -2.08839,9.5825 0.36095,19.65486 -2.7931,29.05686 -1.17741,2.3634 -3.58379,3.80724 -4.92446,6.06748 -0.34377,7.09018 5.60338,12.00606 7.88084,18.27122 1.69305,5.03617 6.59172,7.40815 10.51925,10.4247 -3.73844,3.65253 -8.0613,6.58313 -12.58184,9.16138 0.98833,1.77901 2.15712,3.50643 2.82747,5.44871 0.31798,1.89931 -0.2836,3.86737 0.1461,5.75809 3.33454,0.61877 6.96987,-0.43831 10.14111,0.8422 4.54632,3.73848 3.22281,10.63101 6.53158,15.14294 0.8766,1.43523 2.68137,1.08285 4.10802,1.18599 3.35171,-0.0688 6.72063,0.12028 9.98641,0.97114 1.14302,4.86431 4.35722,8.8262 5.94714,13.51003 0.79067,2.32903 1.88213,4.5549 3.30018,6.57454 3.85019,5.31978 5.18225,11.97164 9.10979,17.26568 -0.42969,1.20317 -0.8508,2.41494 -1.26332,3.62674 -6.42845,1.71883 -13.32956,-1.78761 -19.42281,1.51256 -4.34866,2.15714 -9.17859,5.51746 -10.13252,10.57942 -0.84224,3.79003 3.22279,5.34556 5.20804,7.75193 -0.7133,3.5322 -3.10249,6.75503 -2.11416,10.51066 -1.76179,2.56105 -3.63533,6.6261 -7.41675,5.80105 -5.68935,-0.72189 -11.44744,-1.1688 -17.17115,-0.59299 -1.42662,0.13734 -2.78451,0.65316 -3.9705,1.43524 2.3634,5.62057 3.60956,12.04899 8.15586,16.44922 1.89932,2.06258 3.16266,4.79554 2.99077,7.6574 -0.0688,3.74705 -2.56106,6.73783 -4.46896,9.74578 -1.82196,2.69857 -1.82196,6.25655 -3.9619,8.76604 -1.95947,2.42354 -3.69549,5.0276 -5.11354,7.80352 -1.95087,0.46408 -3.90174,0.91098 -5.85262,1.34067 -0.67035,2.12276 -1.16881,4.30569 -2.13994,6.32531 -2.85327,0.57581 -5.83545,0.50707 -8.71451,0.13734 -2.46651,-5.21664 -2.34619,-11.18099 -3.89313,-16.66408 -0.98833,-3.13686 -4.16817,-4.6838 -6.59173,-6.57453 0.0174,-1.57275 0.043,-3.14546 0.086,-4.70959 1.02273,-1.95947 2.32904,-3.89317 2.50952,-6.15342 0.2836,-3.74707 1.3149,-7.47694 0.79065,-11.24978 -0.65316,-2.55244 -1.86493,-5.02756 -1.69305,-7.72614 -0.26642,-2.86185 1.93369,-4.96744 3.43767,-7.12455 0.008,-1.82198 0.0258,-3.64394 0.043,-5.4659 -2.45793,0 -4.92446,0.0174 -7.38239,0.043 -0.39533,-1.51259 -0.8766,-3.00795 -1.10865,-4.55491 1.52976,-2.60404 4.51195,-3.72987 6.755,-5.59481 -0.0516,-3.40327 -4.00486,-5.11353 -4.98461,-8.19024 -0.26642,-1.79617 -0.18039,-3.61814 -0.19753,-5.42291 -4.40882,-4.68383 -11.25838,-4.68383 -16.27736,-8.33634 -0.008,-1.58134 -0.008,-3.15405 -0.008,-4.72678 1.15162,-0.42113 2.30321,-0.84224 3.46342,-1.26336 0.70474,-2.0368 1.39226,-4.08223 2.03681,-6.12763 -2.13991,-0.11178 -4.27987,-0.20622 -6.41983,-0.3008 2.87906,-5.41431 6.10186,-10.83725 6.74642,-17.05941 0.3094,-1.16022 0.62738,-2.31184 0.96255,-3.46345 0.25784,-3.41188 0.65317,-6.85814 1.74461,-10.11532 1.9337,-4.52913 6.00732,-8.06134 6.64329,-13.15766 1.10866,-8.05275 3.85019,-15.74451 5.76669,-23.61679 1.91649,-5.33696 3.13687,-10.91456 3.32594,-16.59531 -5.79246,-1.42664 -11.73961,-2.0712 -17.49772,-3.67831 0.79066,-2.6556 1.58133,-5.31118 2.18292,-8.00975 -3.98769,-2.60404 -7.97538,-5.22524 -12.13497,-7.54567 -0.13749,-2.02822 -1.461,-4.30569 -0.0173,-6.12765 1.95948,-2.83608 3.19705,-6.07607 3.51502,-9.52233 3.42047,-4.64085 9.08404,-6.20498 14.24913,-8.06134 0.0173,-1.15159 0.043,-2.30322 0.0773,-3.44625 4.45175,0.41252 8.53398,2.26027 12.74513,3.56657 z" />
    <path
       class="ZON_03"
       style="fill:#cccccc"
       inkscape:connector-curvature="0"
       id="DEP_09"
       d="m 595.55496,192.05972 c 3.41189,-1.40945 6.3339,-3.79863 9.77157,-5.12214 2.79311,0.84224 5.019,3.01656 7.88085,3.66112 4.58929,0.53283 9.29889,-0.48128 13.82802,0.70473 15.77028,3.94472 31.37729,8.54258 47.21632,12.25526 3.51501,1.00553 8.46526,3.97053 7.21051,8.26759 -0.63596,4.68383 -1.16021,9.38485 -1.52977,14.10304 -0.45549,3.15403 -1.04849,6.42842 -0.0342,9.54811 1.73603,5.89558 2.73295,11.98027 4.42599,17.89305 -1.33209,2.76732 -3.40327,5.4229 -3.3689,8.62853 -0.0773,2.12276 0.12028,4.2627 0.50705,6.35969 -0.55002,1.10864 -1.10006,2.22587 -1.65868,3.32594 -3.37752,2.13995 -5.73231,5.43151 -6.95268,9.21294 0.80784,0.06 2.42357,0.1804 3.23141,0.24064 -0.41251,5.18227 -3.75563,9.32468 -6.12764,13.74207 -1.28912,2.07977 -0.95395,4.59788 -1.11725,6.92688 -0.94534,0.59301 -1.87351,1.18601 -2.78451,1.79618 -6.86673,-2.68136 -13.99989,0.24924 -20.92677,1.0399 -1.67587,-1.66726 -3.60955,-3.19704 -4.69242,-5.33696 -0.63597,-1.71883 -0.66175,-3.57519 -0.88519,-5.37137 -4.11661,-1.90789 -8.54263,-3.09389 -12.43577,-5.46587 -3.17983,-1.92509 -7.41676,-2.30325 -9.45359,-5.79248 -3.20559,-0.0258 -6.41123,-0.17193 -9.60825,-0.0688 -2.45793,-0.06 -4.68383,1.65865 -7.15035,1.13442 -3.29157,-0.51564 -6.58313,-1.03991 -9.85752,-1.55554 -4.05644,-1.0399 -7.88083,-3.23141 -12.16933,-3.07673 -7.51988,-0.50704 -15.05697,1.42665 -21.60572,5.10494 -2.81031,1.73603 -6.15342,2.16572 -9.38482,1.81338 -5.03619,-0.66175 -10.14972,-1.40086 -15.22026,-0.65316 -2.93063,1.20318 -4.83852,3.91034 -7.09021,6.0245 -3.12827,-2.96499 -6.15342,-6.03309 -8.90353,-9.35045 -2.58684,-2.94781 -6.93549,-1.62429 -10.3216,-2.59543 -1.25475,-0.42972 -3.51502,-0.31799 -3.65251,-2.06261 0.0173,-4.47755 -3.62674,-7.9496 -2.98219,-12.52169 -2.54388,-2.57824 -4.59787,-5.5862 -6.17919,-8.84339 -3.17985,-0.17194 -6.49719,0.39532 -9.5825,-0.44689 -3.10247,-2.48372 -5.54325,-5.7495 -9.00667,-7.79492 0.22343,-4.70101 -1.46101,-10.55363 2.69856,-14.03427 3.42907,-2.97356 7.01283,-5.87841 9.54811,-9.7114 1.85633,0.83363 3.71268,1.77898 5.7409,2.14855 2.93921,-0.30938 5.62058,-1.87352 8.59417,-1.95947 3.30016,0.31798 6.50576,1.77899 9.87468,1.12584 4.17677,-0.78207 9.49655,-0.33518 11.89432,-4.60649 8.56838,-1.16021 16.32893,-5.10491 24.25275,-8.31054 3.10248,-1.28054 5.97293,-3.05093 8.88635,-4.70102 2.91343,-1.70164 6.35969,-2.07977 9.35905,-3.56657 3.93613,-2.46653 6.12763,-7.19331 10.58803,-8.89497 6.22216,-1.95087 13.11467,-0.53283 19.17355,-3.2142 z" />
    <path
       class="ZON_04"
       style="fill:#cccccc"
       inkscape:connector-curvature="0"
       id="DEP_13"
       d="m 839.44097,201.025 c 1.03988,-0.32658 2.0626,0.30939 3.04232,0.63597 5.3284,2.42355 10.68254,4.79553 15.91639,7.41676 3.05953,1.56414 6.77221,2.6642 8.45667,5.96434 7.03001,11.37009 14.26631,22.64563 20.5916,34.44543 0.76488,2.23445 3.30015,0.79925 4.81275,0.24923 5.84402,-2.79311 11.98885,-4.8987 17.81569,-7.73476 -0.87659,3.66111 -2.40637,7.28785 -2.2173,11.11226 1.02271,8.26757 4.15958,16.51798 2.70717,24.91448 -0.33518,3.53221 0.16325,7.15034 -0.77348,10.62239 -0.71332,3.27436 -2.22587,6.46279 -1.93369,9.88329 2.2087,1.99382 5.63777,0.68752 8.37933,0.98831 1.07426,4.40882 2.56104,8.95512 1.62428,13.53581 -0.53285,3.27439 -2.02822,6.25655 -3.79002,9.02387 -3.32595,5.19088 -4.36583,11.41304 -7.30505,16.8016 -2.06259,3.70407 -4.23691,7.34801 -6.05888,11.1896 -4.90728,9.00668 -5.27682,20.13612 -12.14355,28.12868 -5.22525,3.80723 -12.29824,5.08775 -18.62356,3.96192 -3.17124,1.98527 -6.1706,4.52914 -9.96063,5.19945 -4.88147,0.90239 -9.51374,2.81891 -14.4382,3.45487 -0.18908,-4.08222 -1.99383,-8.15585 -5.44009,-10.49348 -2.70716,-1.74459 -5.612,-3.20559 -8.02695,-5.35415 0.48126,-0.42111 1.43522,-1.26334 1.91648,-1.68447 -0.008,-2.82747 -0.008,-5.66353 0.043,-8.48242 -1.3407,-1.74462 -2.45794,-3.78144 -4.34865,-4.95883 -3.73846,-0.15479 -7.44255,0.61876 -11.14663,0.94535 -6.23938,0.55002 -11.48181,4.60648 -17.74695,5.10494 1.28053,-1.77041 2.69856,-3.42907 4.19396,-5.02759 -3.4033,-5.07916 -7.01285,-10.02939 -10.61382,-14.96243 -4.46895,-4.20257 -7.85506,-9.42781 -12.66779,-13.2608 -1.4438,-1.15162 -2.68136,-2.75015 -2.62121,-4.67524 -0.0342,-3.91034 -0.72191,-8.13867 1.13443,-11.74823 1.46099,-3.26578 4.96744,-4.76114 7.12456,-7.4683 2.55247,-3.36891 6.94407,-4.09083 10.55364,-5.80966 -0.008,-2.8275 -0.008,-5.65496 -0.008,-8.48246 -3.11968,-2.99075 -5.86121,-6.4542 -9.62547,-8.68011 -4.27989,-2.50087 -7.27925,-6.80657 -8.95511,-11.39583 -0.41253,-3.60954 -1.07425,-7.91525 1.41804,-10.94898 1.28051,-1.58991 2.7931,-2.97356 4.2541,-4.40021 0.0516,-2.41498 -0.18039,-4.89006 0.43831,-7.25346 1.17738,-0.91099 2.53527,-1.54697 3.85019,-2.25169 0.043,-0.64455 0.12902,-1.91648 0.17192,-2.55247 -1.40944,-0.7133 -2.81029,-1.42661 -4.21114,-2.13135 0.14609,-3.0681 -1.10006,-5.83541 -1.98526,-8.6715 1.57274,-3.2486 4.09081,-5.94716 6.0503,-8.97232 6.23936,-8.24178 11.76542,-17.11096 19.00169,-24.5449 5.18229,0.8508 9.99501,3.68688 15.35778,3.58375 5.52604,-0.80785 10.41611,-3.80723 15.78748,-5.21666 z" />
    <path
       class="ZON_01"
       style="fill:#cccccc"
       inkscape:connector-curvature="0"
       id="DEP_03"
       d="m 150.03435,243.08484 c 1.72741,-1.39225 2.85326,-3.35173 4.15957,-5.10494 8.78323,3.38611 18.33135,3.18843 27.51852,2.01965 2.56105,-0.55005 4.52052,1.54694 6.83235,2.20009 1.95088,0.2922 3.93613,0.17193 5.90419,0.17193 0.10302,4.44317 0.12029,8.88635 0.0946,13.32955 3.16265,0.43828 6.32529,0.90239 9.48795,1.28911 -0.18048,2.01963 0.37814,4.4174 -1.21178,6.00733 -2.01962,2.45793 -4.1252,4.86429 -6.53157,6.95268 -0.0258,1.32352 -0.043,2.64699 -0.0603,3.97909 2.92202,-0.0173 5.85263,-0.19776 8.74027,-0.69611 1.3321,-0.10302 3.12828,-0.67895 3.87597,0.85941 0.50706,2.43213 0.28361,4.95025 0.29221,7.41675 1.58132,0.85083 3.01654,2.41496 4.87289,2.52669 2.08837,-1.7618 3.8072,-3.96191 5.11351,-6.35969 1.23756,-2.3634 1.28054,-5.2854 2.87045,-7.44255 4.7182,-3.02515 10.56222,-3.6611 16.01952,-4.26269 0.42971,2.06259 0.89381,4.10799 1.31491,6.17061 2.22588,1.30631 4.45178,2.60403 6.69486,3.88455 0.0258,1.85635 0.0515,3.71268 0.0688,5.57761 4.93304,2.56107 9.81452,5.27682 14.92803,7.45974 4.42601,0.52425 8.80045,-1.27193 13.23503,-1.19458 3.04234,1.01409 5.95576,2.53527 8.61137,4.34865 0.81644,2.9564 -0.55004,6.43702 -3.28297,7.89803 -2.86187,1.61569 -6.16202,2.13135 -9.32468,2.86185 -3.09391,2.58685 -5.61199,5.72372 -7.18474,9.45359 -5.58618,1.6157 -11.73961,1.20317 -16.96486,4.14238 -0.0173,3.89316 -0.29221,7.8293 0.35236,11.69666 1.13441,5.49166 -2.35479,10.80286 -0.85941,16.31172 -4.11662,3.90174 -7.51988,8.45666 -11.53338,12.47013 -4.15099,4.05645 -2.24308,10.71694 -5.32837,15.34917 -2.08839,2.99937 -4.68383,5.58622 -7.14176,8.27619 -2.06259,2.23449 -3.89315,4.71819 -6.33389,6.58314 -3.38609,2.73292 -7.34801,4.72678 -10.51066,7.74332 -1.55554,2.08841 -1.79617,4.82993 -2.54387,7.26207 -4.17676,-2.10557 -8.40509,-4.14238 -12.74515,-5.8956 -1.35787,-0.59298 -2.86185,-0.73911 -4.32286,-0.55861 -8.31055,0.97973 -16.66409,1.55554 -24.98323,2.44074 -6.05029,-0.1461 -12.04902,-1.21177 -18.09071,-1.61571 -4.73539,-0.043 -9.01528,2.48374 -13.66472,2.9564 -3.60096,-0.81645 -5.58621,-4.61508 -6.17062,-7.98397 -0.97114,-5.612 -1.58992,-11.29273 -2.67278,-16.87893 -0.86802,-4.22835 -2.77592,-8.42228 -6.09326,-11.25838 -2.86186,-2.30323 -6.53157,-3.12828 -9.76297,-4.75256 -4.004885,-1.82196 -7.270667,-4.84711 -11.146634,-6.89251 -6.308117,-3.34315 -12.934216,-6.08467 -19.036074,-9.80596 -1.727425,-0.98833 -2.672784,-2.80168 -3.747053,-4.39161 3.987691,-7.20192 11.27554,-11.6537 17.532093,-16.68126 1.890716,2.38058 3.618142,4.89006 5.689336,7.11597 2.423554,2.51807 5.998726,3.19702 9.032462,4.70098 2.46653,1.10866 4.40022,3.06814 6.70345,4.45179 2.45793,1.22896 5.23385,1.58133 7.92382,2.01962 1.55554,-1.06566 3.14546,-2.07118 4.76117,-3.04233 0.1375,-0.4125 0.42111,-1.24614 0.55862,-1.66725 2.95639,-4.09944 3.22281,-9.32468 5.42291,-13.77646 1.63289,-3.86737 3.77284,-7.61442 4.37443,-11.81699 0.24064,-2.74153 0.086,-5.50023 0.0601,-8.25038 2.01963,-0.42112 4.03065,-0.8766 6.05889,-1.28052 -0.009,-2.88765 0.29219,-5.85264 -0.61878,-8.63716 -1.21179,-3.95328 -1.98527,-8.57696 0.15469,-12.3584 2.26025,-3.9447 5.19087,-7.58004 8.96372,-10.17547 0.4211,-2.05401 1.22035,-4.151 0.82502,-6.27376 -0.65315,-2.99075 -2.5009,-5.50025 -3.97909,-8.11289 -1.59852,-2.56105 -0.94536,-5.71511 -1.10006,-8.55977 2.69857,-0.37814 5.64637,-0.46408 7.89803,-2.2001 z" />
    <path
       class="ZON_04"
       inkscape:connector-curvature="0"
       id="DEP_14"
       d="m 938.04713,239.76266 c -3.80644,0.0643 -7.41298,1.88104 -11.25562,1.78328 -4.78693,0.0342 -9.56502,-0.0935 -14.3348,-0.102 -1.09147,4.46897 -3.48062,9.00667 -2.27745,13.70769 1.12583,5.09636 1.88212,10.26064 2.66418,15.41714 0.69614,4.22832 -0.8844,8.38844 -0.63517,12.62536 0.36094,5.33698 -1.8738,10.31326 -2.76758,15.48693 2.62122,-0.29218 5.24166,-0.71385 7.85428,-1.15213 2.38918,5.50027 3.53247,11.71331 2.16597,17.62609 -0.95393,4.29709 -4.08195,7.61524 -5.65469,11.65449 -1.80477,4.47757 -3.11992,9.18689 -5.56068,13.38944 -2.78449,4.76975 -5.41457,9.64318 -7.58031,14.73092 -2.23447,5.19949 -2.94753,10.93073 -5.52577,16.00128 -1.53838,2.99076 -2.87019,6.17088 -5.13907,8.69756 -2.68997,2.18292 -6.09299,3.15485 -9.26426,4.39242 -1.20317,2.04541 -2.85299,4.05617 -2.86158,6.55707 -0.1804,3.97911 -0.19755,8.11262 1.28912,11.88546 0.79068,2.13135 2.15634,3.99577 2.91265,6.15288 -0.22345,2.87045 -1.09171,5.63857 -1.77925,8.43169 -3.30876,1.66727 -7.39907,2.8009 -9.28978,6.26434 -2.35479,5.09633 -1.7441,10.84584 -1.76988,16.28594 -0.043,3.79861 2.31079,6.97065 3.75462,10.3224 2.24308,0.45549 4.50334,0.7732 6.78938,1.05679 -0.55862,5.70654 -2.4397,11.23285 -4.61402,16.51827 -1.15162,0.49847 -2.28683,0.98806 -3.36108,1.61543 0.83361,4.27991 3.54963,8.52487 2.20896,12.98525 -0.46412,2.01963 -2.38945,3.06837 -3.84186,4.31453 -0.0173,0.40392 -0.0421,1.20398 -0.0508,1.59933 3.11109,1.76179 7.02925,3.93585 6.82299,8.10402 -1.05707,1.16021 -2.26001,2.15687 -3.42023,3.20536 1.32351,3.12829 2.96551,6.39378 2.5272,9.90881 -0.43829,3.50641 -1.25447,6.9524 -1.91622,10.42444 -5.68935,-0.39532 -11.32816,-1.26307 -17.00029,-1.70138 -2.11421,1.92509 -3.39391,4.55464 -4.76038,7.02977 -1.9165,3.60956 -1.76234,7.80429 -2.65615,11.69746 -1.20318,5.15651 -2.00189,10.41585 -3.53165,15.495 4.22832,0.0173 8.46499,-0.043 12.7019,-0.086 4.73538,-0.22343 9.1189,1.86494 13.74258,2.53529 8.74026,1.89071 17.72874,0.43857 26.57212,1.09172 4.86429,0.90238 9.63484,2.68059 14.66241,2.43995 5.36277,-0.18908 10.70809,0.63596 15.9677,1.67585 0.35236,-0.89378 0.72243,-1.77012 1.10919,-2.64671 -3.48927,-3.24862 -6.73003,-6.75475 -9.5489,-10.59636 -1.98525,2.17433 -4.6057,3.24834 -7.5535,2.8616 -0.0173,-1.64149 0.008,-3.24886 0.0258,-4.87317 2.09698,-2.01104 4.09031,-4.30461 6.79748,-5.51638 2.29461,-1.05708 4.93329,-0.43856 7.32248,-1.13469 3.09389,-1.779 5.72395,-4.29763 9.04129,-5.70705 3.67832,-1.6329 7.00426,-3.9015 10.57083,-5.74064 2.83609,-1.57275 6.29119,-0.58387 9.21322,-1.89878 3.2314,-1.44382 5.99845,-3.6877 8.83454,-5.76749 3.88455,-2.68997 6.17919,-6.9438 9.4106,-10.29554 2.3634,-2.38058 3.62623,-5.5263 4.77784,-8.61162 -3.18843,-3.62672 -7.16754,-6.42868 -11.68808,-8.13893 -0.24063,-2.46653 -0.0773,-5.45623 -2.34593,-7.06334 -5.47448,-2.84466 -12.35868,-3.35252 -16.56122,-8.30276 -1.95946,-2.25168 -5.25962,-3.62621 -5.92995,-6.75447 -0.52427,-2.29464 -1.26259,-4.51194 -1.79543,-6.7894 0.51566,-1.85635 1.57198,-3.4895 2.31108,-5.2599 1.16878,-2.647 0.64531,-5.74063 2.02896,-8.31889 1.73604,-3.30875 4.24451,-6.12736 6.54773,-9.04938 1.74465,-2.07118 3.97936,-4.52966 6.97873,-4.11713 2.66419,2.07119 3.50669,5.50831 4.78721,8.4733 1.09146,2.82748 3.19729,5.06251 5.13096,7.33996 7.39959,-4.67523 15.03069,-8.96373 22.56778,-13.40689 6.78078,-3.91897 12.43627,-9.42809 18.89907,-13.8111 1.2204,-4.68382 0.5753,-9.66869 -1.4529,-14.02595 -9.59971,-1.39225 -18.71734,-4.75149 -27.74981,-8.13759 1.36648,-10.27003 1.50399,-20.90182 5.37135,-30.64759 10.98333,-32.33984 19.94626,-65.35835 32.30466,-97.22551 -4.7955,-1.01413 -9.058,-3.57465 -12.8308,-6.62556 -4.383,-3.72988 -6.2222,-9.66949 -10.9146,-13.08999 -6.0245,-4.38301 -12.23781,-8.48243 -18.41703,-12.6334 -1.38365,-0.92818 -2.95714,-1.67562 -4.65021,-1.65842 -10.90599,-0.32659 -21.87997,0.71411 -32.73438,-0.80705 -0.55322,-0.073 -1.10118,-0.10063 -1.64501,-0.0914 z m 47.16855,282.79498 c -0.35975,-0.0231 -0.86346,0.0699 -1.1199,0.0699 -2.49276,0 -3.21533,0.36472 -6.24557,1.07429 l -0.1463,8.56865 c 0,0.27302 -0.0984,2.7842 -0.0499,2.83876 0.24528,0.273 0.92851,-0.055 1.12394,0.21753 0,0 0,1.09142 0.19733,1.36435 0.24534,0.27297 0.73265,-0.21824 1.02588,0 0.39103,0.2182 0.14652,1.14601 0.53714,1.36431 0.2934,0.16367 0.68425,-0.16369 0.97757,0 0.39077,0.27299 0.9776,1.25556 0.9776,1.25556 0,0 -0.2929,0.92834 2.78638,-0.10882 l 0.70636,-2.11229 c 0.0979,-0.38204 0,-0.76385 0,-1.2005 l 0,-3.43766 c -1.0264,-2.83811 1.85694,-1.85094 2.0828,-3.71967 0.0525,-0.43345 0.14719,-0.81848 0,-1.20049 -0.39085,-0.98241 -1.60187,-1.21986 -1.99281,-2.20227 -0.53773,-1.25533 0.29359,-0.81889 -0.19603,-2.01961 -0.19624,-0.49121 0.0233,-0.40926 -0.36799,-0.68217 -0.0731,-0.0408 -0.1767,-0.062 -0.29675,-0.0699 z m 22.19712,20.11168 -1.9364,0.96282 -1.0755,1.31061 -1.8089,3.87542 -0.098,3.76532 1.418,5.40359 1.2932,1.71077 -0.029,0.0196 -0.3424,1.79402 -0.1357,0.846 0.5639,-0.0296 0.8796,-1.41938 0.5868,-1.85578 3.478,0.17324 0.8809,1.47443 0.1463,0.9279 0.05,0.60026 0.5385,0.76406 0.078,-0.58412 0.5868,-1.30926 0.3411,-0.76409 2.2493,0.32766 1.034,0.0914 -0.3733,-2.10288 -1.2851,-1.28241 -0.4404,-0.27259 -0.9776,-4.9121 -1.7109,-1.38313 -0.8795,-5.51235 -2.0048,-2.1284 -1.026,-0.4915 z"
       style="fill:#cccccc" />
    <path
       style="fill:#ffffff"
       inkscape:connector-curvature="0"
       class="HIDRO LAGO"
       inkscape:label="Lago de Coatepeque"
       id="LAGO_DE_COATEPEQUE"
       d="m 238.02138,243.1192 c 2.59545,-0.93675 5.39714,-1.05707 8.08712,-1.60711 0.96254,0.47269 1.9165,0.95396 2.87905,1.43525 0.75628,2.66419 1.71024,5.2768 2.85326,7.80349 -2.08839,3.11968 -3.47204,6.81518 -6.24797,9.42779 -3.22282,2.13136 -6.37686,4.90727 -10.44192,5.07056 -1.51255,-4.88148 -2.38056,-10.02078 -2.28603,-15.12572 1.0485,-2.72437 2.85328,-5.21666 5.15649,-7.00426 z" />
    <path
       class="ZON_03"
       style="fill:#cccccc"
       inkscape:connector-curvature="0"
       id="DEP_10"
       d="m 556.71017,286.1502 c 8.78323,-4.54633 19.33687,-8.68872 29.10843,-4.7268 4.92446,2.14853 10.35596,2.27746 15.55544,3.3689 3.17123,0.71333 5.97294,-1.56414 9.12699,-1.55554 2.42356,0.0602 5.34558,-0.64456 7.29645,1.22036 2.87904,2.67281 6.89252,3.33457 10.14111,5.41433 3.34313,2.00246 7.14175,2.98219 10.68255,4.56353 0.20622,1.93367 -0.0688,4.11658 1.24616,5.7323 1.57271,2.02821 3.51501,3.72986 5.30259,5.57759 5.11351,-0.7219 10.20127,-1.65866 15.332,-2.32042 2.68137,0.1804 5.73231,0.73911 7.54566,2.92203 1.7704,2.11415 3.22282,4.46894 4.53772,6.89252 1.58134,0.42971 3.16265,0.85081 4.76976,1.22896 4.30568,4.82992 6.59172,11.17241 7.52849,17.49771 -0.38672,1.57274 -1.34069,3.04235 -2.67279,3.97051 -3.62673,0.31798 -7.33082,-0.043 -10.87163,1.0313 -0.91096,1.83056 -1.83053,3.66111 -2.74152,5.49168 -1.26334,0.12888 -2.50951,0.26642 -3.74704,0.4125 -2.81889,3.30018 -5.70655,6.63471 -7.31364,10.73412 -1.02273,2.87045 -4.48615,3.36032 -6.29092,5.54324 -0.9196,3.2314 -0.0258,7.0816 -2.26028,9.90047 -1.96807,1.3235 -4.36583,1.76182 -6.60891,2.41497 -3.01656,-1.0399 -5.73231,0.68752 -8.52541,1.51255 -2.54388,-0.30938 -4.88148,-1.4524 -7.26207,-2.32039 -2.12275,2.51807 -4.32286,5.11351 -5.37135,8.30194 -0.79067,2.07979 -1.06567,4.40879 -2.28606,6.30812 -2.39774,2.00245 -5.8698,1.3407 -8.60274,2.56107 -1.52118,1.3235 -2.30324,3.25717 -2.93062,5.1221 -0.97115,2.68998 0.67034,5.52606 -0.15479,8.25899 -1.08286,4.15099 -1.36646,8.45667 -2.61261,12.58187 -0.34378,4.60645 -0.12888,9.37624 -1.88213,13.75926 -0.90239,2.09697 -2.60403,3.66971 -3.98768,5.4315 -2.16574,2.60403 -3.21422,5.887 -5.0104,8.72309 -1.95947,3.15405 -4.5721,5.82682 -7.17613,8.44804 -0.43832,2.08839 -0.89379,4.17677 -1.31491,6.26516 -3.41189,2.20869 -5.97293,5.79246 -6.58314,9.83173 0.29222,4.03924 3.11108,7.16752 5.06196,10.51064 0.086,3.03375 -3.0595,4.2885 -5.33695,5.39714 -3.32595,1.3579 -5.66357,4.14239 -8.00118,6.74642 -2.63842,2.84466 -2.93061,7.07301 -5.39714,10.0294 -2.47512,1.63289 -5.46587,2.31182 -7.88085,4.06503 -1.88212,1.18599 -2.81887,3.27439 -3.87595,5.13931 -1.9337,0.63597 -3.86738,1.24616 -5.7839,1.9251 -1.13441,-1.01412 -4.2541,-1.89071 -2.4751,-3.73847 2.60403,-2.96497 5.55184,-5.66356 7.53709,-9.12699 -2.10558,-0.043 -4.19396,-0.06 -6.29095,-0.0773 -1.75319,2.32039 -3.56657,4.58069 -5.49164,6.75499 -0.82504,-0.36094 -1.65009,-0.70471 -2.46653,-1.04848 0.36953,-4.15958 0.39532,-8.5426 2.07978,-12.41856 2.77591,-2.28604 6.84955,-2.24309 9.65123,-4.57209 1.46961,-1.26335 3.20563,-2.8103 3.08532,-4.94165 0.24923,-3.17125 -2.65561,-5.49168 -2.65561,-8.62855 -0.17192,-4.25412 -0.0173,-8.51682 -0.06,-12.77092 2.43215,-1.85635 5.1565,-3.40329 7.24488,-5.67214 1.25474,-2.26029 1.65868,-4.85571 2.38917,-7.30504 -3.24857,-5.78387 -7.83788,-10.71692 -12.82248,-15.04838 -2.62123,-2.66421 -3.24861,-6.59174 -4.1424,-10.07236 -0.98833,-6.32531 -0.0342,-13.08891 3.05094,-18.73527 1.10005,-2.27748 2.24308,-4.81275 1.48678,-7.38241 -1.20317,-4.95883 -4.18535,-9.2559 -5.6034,-14.15457 -1.03128,-3.66973 -2.64698,-7.11597 -3.9447,-10.67396 -1.14302,-2.98219 -0.0342,-6.11904 0.1804,-9.16138 -0.19755,-0.13735 -0.59298,-0.4297 -0.79066,-0.57581 -4.05643,0.36954 -8.00975,1.94227 -12.12637,1.19459 -3.28297,-0.68754 -6.96126,0.91957 -9.99501,-0.56722 -0.81645,-4.82133 1.44384,-9.5653 0.62739,-14.38663 -0.44691,-1.73602 -1.46103,-3.23999 -2.38918,-4.74398 -1.72743,-8.94651 5.39713,-16.42342 12.9514,-19.86968 -0.67034,-4.35726 -1.95089,-9.06688 0.10302,-13.25221 0.88521,-2.80171 3.70408,-5.49167 2.29464,-8.58559 -0.63596,-2.68138 -1.49537,-5.44869 -1.25473,-8.21601 2.4837,-3.41187 6.02449,-7.17613 10.68253,-6.52296 6.07608,0.5758 12.37561,1.83055 18.39151,0.38673 z" />
    <path
       style="fill:#ffffff"
       inkscape:connector-curvature="0"
       class="HIDRO LAGO"
       inkscape:label="Lago de Ilopango"
       id="LAGO_DE_ILOPANGO"
       d="m 465.40578,320.32058 c 2.61262,-1.95088 4.69239,-5.16509 8.43086,-4.55491 -0.10302,4.01348 0.59301,8.21604 -0.97972,12.04043 -1.34929,3.41188 -1.88212,7.33941 -4.93306,9.77157 -0.10302,2.83607 -0.086,5.68073 -0.0688,8.5254 -2.7759,0.0946 -5.7409,-0.32657 -8.32773,0.90239 -2.28605,1.42663 -3.50644,3.9877 -5.52607,5.70654 -1.18598,0.46407 -2.52668,0.27499 -3.5236,-0.48128 -4.8643,-3.77284 -11.34429,-0.76489 -16.87036,-2.19153 -1.4352,-0.8508 -2.15711,-2.51807 -2.58683,-4.05643 1.03989,-3.08531 2.94781,-5.94715 2.67278,-9.35906 -2.37198,-1.35787 -6.26513,-2.6384 -5.33698,-6.17059 1.15162,-4.54632 5.44012,-7.51132 9.53094,-9.2903 6.46282,-3.19704 13.93115,1.10866 20.41974,-2.19151 2.23447,0.75629 4.81272,3.21421 7.09878,1.34928 z" />
    <path
       class="ZON_03"
       sodipodi:nodetypes="cccccccccccccccccccccccccccccccccccccccccsccccccccccccccccccccccccccccc"
       inkscape:connector-curvature="0"
       id="DEP_08"
       d="m 454.49214,474.61718 c 3.04233,2.09698 5.55947,2.17734 8.85104,3.81883 4.69241,2.38057 10.33931,1.98577 14.81688,4.89062 4.88147,3.16263 10.26141,5.36194 15.55543,7.72533 6.5917,2.78451 12.34982,7.07381 18.69229,10.32239 0.52425,-0.89379 1.05656,-1.77899 1.59798,-2.66417 -7.57145,-2.88766 -12.47819,-9.52234 -18.78631,-14.22335 -2.33759,-1.83915 -5.43258,-1.7884 -8.23427,-2.11498 -3.93613,-2.27745 -8.38737,-3.42073 -12.38366,-5.56068 -3.9877,-2.19151 -8.56784,-3.18737 -12.21178,-5.98905 1.18602,-1.66727 4.43085,-4.57218 4.43085,-4.57218 l 2.54657,0.20536 c 0,0 2.32928,3.46371 4.31452,4.14265 2.70716,0.98832 5.38023,2.09778 8.09597,3.06032 2.58684,0.91959 5.10467,-0.66229 7.45946,-1.53888 1.18602,1.52117 2.36394,3.05038 3.51555,4.60593 1.4782,-1.27194 2.56967,-4.08169 4.85571,-3.53167 3.48923,0.87659 3.32541,5.32005 5.89507,7.27952 3.77283,3.37751 9.20516,3.45486 13.20144,6.44564 4.11659,3.0595 9.41814,3.23973 13.98163,5.22498 -0.42112,2.67279 -1.31411,5.23385 -1.9243,7.86364 1.9165,1.26335 3.80668,2.56132 5.72319,3.84187 0.48986,-0.24923 1.46932,-0.75655 1.95918,-1.00578 0.23206,-4.40021 0.17194,-9.06738 2.0626,-13.14101 3.01655,-4.1252 9.72029,-2.91316 12.39306,-7.50244 1.29772,-3.28297 -2.38943,-5.83544 -2.29491,-9.06685 -0.12887,-4.8385 0.11178,-9.67676 0,-14.50667 2.41496,-2.01106 4.91588,-3.90982 7.47694,-5.7232 0.56721,-2.12275 1.13549,-4.24657 1.74566,-6.34355 -3.04232,-5.01898 -6.98811,-9.50462 -11.50004,-13.24306 -3.44627,-2.93921 -4.44293,-7.6746 -5.31094,-11.90293 -0.55002,-6.1878 -0.2914,-12.79725 2.71657,-18.38344 0.83362,-1.79619 1.7618,-3.60068 2.06258,-5.56875 -0.20622,-3.59235 -2.04566,-6.79718 -3.49807,-10.00281 -2.23449,-4.63227 -3.26552,-9.7122 -5.43984,-14.36166 -1.55554,-3.15404 -1.16102,-6.737 -1.16961,-10.13171 -4.24552,1.08287 -8.61055,1.27945 -12.92483,0.57474 -3.2572,0.34378 -6.60944,0.86829 -9.48849,-1.14276 -0.10302,-4.09081 0.29168,-8.14699 0.86749,-12.18625 0.45547,-2.74153 -1.08287,-5.19034 -2.40638,-7.44201 -0.25783,-3.37752 -0.13637,-6.78134 0.58546,-10.09009 -0.53068,-0.0926 -1.06176,-0.13693 -1.59125,-0.14241 -1.58844,-0.0152 -3.16588,0.3169 -4.69993,0.73588 -0.34377,0.32657 -1.02324,0.97865 -1.36701,1.30524 -1.98525,0.46406 -4.07336,0.75707 -5.86955,1.77119 -1.70163,2.89622 -1.52089,7.62329 -5.39687,8.65457 -3.49781,0.93679 -6.28232,-1.90868 -9.32466,-3.06031 -4.31426,-1.65008 -7.64021,-4.94086 -11.60212,-7.20971 -0.90238,1.15163 -1.94227,2.22484 -2.62121,3.53975 -0.48987,3.08529 -0.19777,6.23988 -0.25783,9.35957 -2.94781,0.13748 -6.05109,-0.39481 -8.8614,0.67946 -2.38916,0.90239 -3.25692,3.50642 -4.3226,5.58622 -3.12826,0.91958 -7.17611,1.61544 -9.02385,-1.82222 -4.59787,-0.19777 -9.18691,-0.14632 -13.77619,-0.10337 -0.90238,-0.60158 -1.80529,-1.18625 -2.69908,-1.77925 -1.58134,2.20869 -3.40277,4.22887 -5.29348,6.17972 -7.44255,0.0603 -15.19502,-2.57018 -22.42271,0.13693 2.32902,4.31426 2.91421,9.5825 6.41205,13.235 2.4837,2.62124 4.77809,5.87896 4.27962,9.70335 0.52426,5.78388 -5.13019,9.26399 -6.19587,14.57519 -0.8508,4.27989 -4.68486,6.89252 -6.47246,10.69973 -1.45242,2.48371 -1.21982,5.44012 -1.25422,8.20743 3.86739,0 7.74361,-0.008 11.6196,0.0257 -1.73604,4.08222 -3.8075,8.00197 -5.7326,11.99825 -1.08285,0.40392 -2.166,0.82424 -3.24025,1.23675 0.56722,1.54695 1.59877,3.01681 1.65034,4.70127 -1.28913,4.11662 -3.20536,8.01003 -4.83825,12.00631 3.30876,2.6728 6.45421,5.65497 10.35598,7.47693 5.96434,2.75872 11.54142,6.25683 17.41122,9.21322 4.66664,2.29464 8.16473,6.368 12.90872,8.53372 3.66969,1.81338 7.0264,3.82301 10.8164,5.39575"
       style="fill:#cccccc" />
    <path
       style="fill:#ffffff"
       inkscape:connector-curvature="0"
       class="HIDRO LAGUNA"
       inkscape:label="Laguna de Olomega"
       id="LAGUNA_DE_OLOMEGA"
       d="m 855.7355,487.18486 c 1.86492,-1.02269 3.63532,-2.32043 5.73231,-2.84467 2.59542,-0.57581 4.426,1.65869 6.19638,3.14547 1.71883,2.3548 4.15098,4.00486 6.64329,5.4659 0,0.97973 0.008,1.96806 0.0342,2.95638 -1.58133,1.24615 -3.20563,2.42355 -4.94166,3.44625 -1.50397,1.26336 -2.96499,2.58686 -4.3916,3.93613 -3.05094,-1.5899 -5.85264,-3.6611 -9.05827,-4.90727 -2.97358,-0.64456 -6.03309,-1.07426 -8.6973,-2.63839 1.45243,-2.91344 3.93613,-5.04479 7.09879,-5.86984 0.45549,-0.90238 0.91957,-1.79616 1.38367,-2.68996 z" />
    <path
       inkscape:connector-curvature="0"
       class="ZON_04"
       d="m 703.1973,327.82266 c -2.71576,1.38367 -5.44132,2.77646 -8.32036,3.78199 -2.39779,0.93683 -5.05197,0.40261 -7.49272,1.11592 -2.1571,1.4954 -3.58445,3.80004 -5.68144,5.37277 -3.19703,-0.5586 -6.41857,-0.50532 -9.52106,0.50881 -0.93677,1.83914 -1.90157,3.66115 -2.88991,5.47452 -1.33208,0.28362 -2.83497,0.0945 -4.02957,0.77335 -3.04232,2.72433 -4.98364,6.3744 -6.44463,10.12145 -0.90239,2.75871 -4.03874,3.43038 -6.28181,4.74527 -0.24923,3.6955 0.11987,8.00939 -2.51,10.98298 -3.24861,1.73605 -7.07358,3.47124 -10.78626,2.22509 -1.79617,0.77347 -3.51416,1.77118 -5.4135,2.23526 -2.46648,-0.48128 -4.78041,-1.51107 -7.10942,-2.40485 -1.56412,2.39778 -3.11861,4.85586 -3.90069,7.63179 -0.81642,2.26884 -1.17623,4.94062 -3.14429,6.57351 -2.32899,2.09699 -5.67239,1.76979 -8.51706,2.46589 -2.19153,2.88765 -2.71514,6.73857 -1.06505,10.01293 -1.94227,4.19396 -2.01261,8.86893 -3.19857,13.26912 -1.13447,4.30568 -0.27524,8.85856 -1.5128,13.14701 -0.57581,2.9564 -2.66303,5.21776 -4.54515,7.43506 -2.62123,3.07672 -3.70474,7.08996 -6.06812,10.33855 -1.52117,2.16571 -3.47128,3.97046 -5.1557,5.99009 -2.15714,2.54388 -1.35724,6.61004 -3.99564,8.83591 -2.45796,2.01965 -3.99075,4.82917 -5.25408,7.69963 1.30631,3.85875 3.17323,7.55582 6.09524,10.46063 -1.03988,1.74462 -1.82957,3.73652 -3.38511,5.11161 -2.83608,2.09694 -6.56864,2.95887 -8.84609,5.80354 -3.88457,3.69549 -5.39661,8.93535 -7.81155,13.56762 -2.54388,0.85082 -5.20667,1.52903 -7.49272,2.98147 -2.09701,1.35788 -3.06763,3.76545 -4.75206,5.51864 -1.86494,1.17741 -4.12585,1.46852 -6.06812,2.49983 -1.26334,2.16572 -1.54862,4.73538 -2.16741,7.13318 3.33451,1.45241 6.90375,2.23542 10.5047,2.73385 5.6034,0.70475 10.43919,4.18691 16.12852,4.59943 10.68255,1.15163 21.26424,3.05941 31.80928,5.10481 6.3425,1.24614 12.55446,3.46111 19.1032,3.35801 4.92446,0.7219 10.02257,0.40448 14.77514,2.12331 6.6433,2.22588 13.42293,4.27193 20.47014,4.66727 7.3996,0.31797 13.26918,5.35278 20.14451,7.4927 1.58134,-0.36092 3.18045,-0.66791 4.79617,-0.94292 -2.11416,-2.12278 -4.00615,-4.54016 -6.53281,-6.19023 -2.93061,-0.81647 -6.08462,-0.16194 -9.04962,-0.8751 -3.46342,-0.33518 -4.52744,-4.54482 -7.76744,-5.33548 -4.66664,-1.58132 -9.64245,-0.53583 -14.4122,-1.18039 -3.84159,-1.00553 -6.83239,-3.80519 -10.19266,-5.75606 -1.79623,0.30078 -3.86087,1.29888 -5.45079,-0.0846 -3.30878,-2.38059 -5.85942,-5.63239 -8.79863,-8.4255 -4.2541,1.16021 -8.54195,2.15976 -12.78746,3.37157 -2.45796,-1.77041 -4.57328,-3.96213 -6.91951,-5.84426 -2.70714,-0.82504 -5.4413,0.45536 -8.06253,1.03113 -2.14856,0.80788 -4.24437,-0.51766 -6.07491,-1.50599 -2.86184,-1.34931 -2.74049,-5.17307 -5.17266,-6.92629 -1.22896,-1.08281 -2.79591,-1.83729 -3.74125,-3.19517 -0.043,-1.57272 0.41491,-3.0952 0.71569,-4.61637 2.0368,0.2922 4.21834,0.29224 6.09186,1.27198 1.16877,0.93675 2.13196,2.10666 3.2664,3.10357 2.60401,-0.49844 4.81185,-2.05508 7.0721,-3.36139 2.17436,1.29773 4.20443,3.23227 6.86863,3.37834 2.62979,0.13763 5.23377,0.59092 7.64874,1.68239 1.79616,-0.67036 3.58994,-1.34805 5.40331,-2.00123 -2.43215,-2.58682 -6.66917,-3.69641 -8.01846,-7.06533 2.97358,-1.51255 6.38665,-0.94406 9.5923,-0.98704 0.008,-1.13445 0.025,-2.26765 0.0508,-3.40206 1.78758,-0.043 3.57478,-0.086 5.37956,-0.12889 0.96255,1.27193 1.90878,2.55885 2.86277,3.8566 0.93675,-0.43832 1.86653,-0.87461 2.8119,-1.2957 1.3063,0.81643 2.62128,1.64086 3.94478,2.46588 1.43522,-0.28358 2.87722,-0.53319 4.33825,-0.73941 3.78142,2.57826 8.79226,3.0435 11.68849,6.91948 1.71883,0.0257 3.4468,0.0422 5.18283,0.0508 3.56657,3.31735 5.3457,8.1878 9.41931,11.00673 2.82748,2.26885 6.39476,4.21351 10.14179,3.51739 2.66419,-1.09146 3.72078,-3.90207 3.60901,-6.60064 1.78756,-2.88762 4.25291,-5.58568 7.73354,-6.28183 3.49784,1.77902 6.26678,4.70704 9.81616,6.43448 3.43766,1.64148 5.97313,4.53911 8.90374,6.90252 0.40395,1.46099 0.82533,2.92969 1.25501,4.39928 2.23449,0.97975 4.44031,2.09047 6.83809,2.64909 2.60403,0.48985 5.31109,0.0592 7.90653,0.7123 2.26886,0.43831 4.5665,1.46855 6.91268,0.84118 6.87534,-1.14301 14.30829,-3.83089 20.96877,-0.41039 1.50397,3.45483 3.36687,6.78933 4.3552,10.45043 -0.18038,1.07427 -0.49676,2.12951 -0.76316,3.19518 -3.25719,0.54145 -6.56716,0.9385 -9.72121,1.90965 -1.89072,0.61879 -2.75837,2.54276 -3.84979,4.02957 6.53156,2.35479 13.45846,1.85625 20.25642,2.04531 8.2762,1.71883 16.71672,2.44102 25.01869,4.05672 3.66973,0.73052 7.4087,1.16009 11.17295,1.03114 6.70344,0.17192 13.05439,-2.74071 19.75784,-2.61175 6.84954,0.27499 13.58646,-1.50317 20.45319,-0.82423 -4.83851,-8.66294 -8.12902,-18.25579 -14.09339,-26.23979 -2.56105,-3.8244 -7.57102,-2.89493 -11.49856,-3.03235 -4.38302,-0.22347 -8.45645,1.63232 -12.75355,2.07923 -1.82195,-2.05401 -3.6022,-4.14299 -5.26084,-6.32593 3.56657,-3.29155 6.47865,-7.21092 8.6358,-11.55959 -2.62123,-2.52667 -6.18645,-3.83266 -8.6358,-6.52263 -1.40083,-2.6384 -0.66228,-5.84335 -0.85136,-8.7138 -2.53528,1.04852 -5.00899,2.40684 -7.75049,2.76781 -2.3978,-0.79068 -4.30603,-2.62997 -6.72954,-3.30033 -2.15716,0.49846 -4.07336,1.6655 -6.00707,2.67959 -1.87353,6.3597 -0.96226,13.03052 0.9972,19.2355 -3.85877,1.56415 -7.77046,2.99119 -11.62065,4.55532 -1.42664,-0.63599 -2.83721,-1.25717 -4.24666,-1.85876 -2.13136,-3.87597 -2.62999,-8.44629 -1.77058,-12.74339 2.60406,-5.15649 8.46544,-7.36475 11.96325,-11.75633 -1.31491,-2.86185 -2.06916,-6.1281 -4.22633,-8.50012 -4.92446,-4.29706 -11.80945,-2.62979 -17.7566,-2.9306 -0.96254,-0.94535 -1.92422,-1.88373 -2.86956,-2.81188 -0.0688,-1.85636 -0.1218,-3.71159 -0.15609,-5.55932 -3.79001,-3.66973 -10.06172,-5.33689 -11.61726,-10.83717 -1.03131,-7.16751 -0.13068,-14.49163 2.42183,-21.26383 -0.82504,-0.8852 -1.64268,-1.76728 -2.45912,-2.65247 -0.17193,-1.27193 -0.27424,-2.54442 -0.56646,-3.78198 -1.74462,-1.18599 -3.89297,-1.69436 -5.49147,-3.08661 -1.72745,-2.49235 -1.47045,-6.40341 0.95309,-8.35427 1.86496,-0.87659 3.95443,-1.03759 5.9053,-1.69934 0.7821,-2.39779 0.92128,-5.03846 2.29634,-7.22139 0.95397,-1.88212 2.61897,-3.54871 2.60159,-5.78319 0.13762,-4.32288 0.0941,-8.65455 0.0174,-12.97741 0.043,-2.91341 -1.52072,-5.4382 -2.83563,-7.91333 -1.83055,-1.09147 -4.19389,-1.97892 -4.71815,-4.29075 0.39533,-2.32901 2.30496,-4.19407 2.42521,-6.6176 0.20624,-2.35481 0.102,-4.72412 0.0846,-7.0789 2.57826,-0.55007 5.21748,-0.3711 7.8387,-0.26797 0.85938,-1.84778 0.56638,-3.95421 0.69533,-5.92228 -1.77041,-1.66728 -3.50739,-3.36971 -5.2778,-5.03698 -0.33518,-3.11967 0.81675,-5.88429 2.39807,-8.47974 -0.38672,-3.82441 -1.7429,-7.96861 -5.22352,-10.05703 -1.75322,0.79069 -3.49923,1.90164 -5.50168,1.74685 -3.05092,0.13762 -5.65503,-1.6772 -8.27625,-2.95772 -4.06504,-3.19704 -6.86627,-7.86436 -11.62744,-10.14181 z m -81.03262,190.70643 c 2.92201,3.60096 6.11657,7.07221 10.12148,9.48718 1.40082,-0.37816 2.80981,-0.72174 4.23647,-1.03113 -5.45733,-1.64149 -9.04676,-6.50517 -14.35795,-8.45605 z m 53.64298,8.10327 c -3.38611,1.74462 -7.09801,2.65662 -10.75912,3.61916 2.97359,1.4524 6.32427,1.52828 9.50412,0.74621 5.4573,-1.40944 11.18886,2.17493 16.36253,-0.93615 -4.97602,-1.46101 -10.35495,-1.10879 -15.10753,-3.42922 z m 31.34457,13.45907 c -2.45789,2.4837 -4.86707,5.05097 -6.67187,8.07611 2.92205,1.82199 6.31973,2.59839 9.71441,2.96796 3.29154,0.26638 6.82179,0.53976 9.82974,-1.15328 -1.77041,-1.26336 -5.12168,-1.27952 -5.63732,-3.64288 3.17984,-1.77041 6.71226,-2.75017 10.04681,-4.20258 -5.8956,0.27499 -11.42056,-2.20008 -17.28177,-2.04533 z m -84.77406,-23.78955 c 3.5236,-0.86801 7.01285,-1.91649 10.6052,-2.46651 2.76732,-0.48129 5.4315,0.68752 8.02696,1.49537 2.35479,4.53774 5.50884,8.75746 9.93483,11.44742 -1.19458,0.71333 -2.38059,1.42664 -3.54938,2.15714 -4.36584,-2.36338 -9.24732,-3.39468 -13.78504,-5.25962 -3.79861,-2.38059 -7.12457,-5.47448 -11.23257,-7.3738 z"
       style="fill:#cccccc"
       id="DEP_11" />
    <path
       inkscape:label="Rio Lempa"
       class="HIDRO RIO"
       sodipodi:nodetypes="ccccccccccccccccsssssssssscssssssssssssssaassccccccccccccccccccccccccc"
       inkscape:connector-curvature="0"
       style="fill:#ffffff"
       id="RIO_LEMPA"
       d="m 417.85653,159.1556 c 1.04848,-0.7305 2.09697,-1.45241 3.16264,-2.17432 0.89379,0.5844 1.80477,1.17739 2.71576,1.77039 0.0174,2.85327 0.74769,5.62918 2.42354,7.9668 2.99939,-0.80786 6.24797,-1.26336 8.6973,-3.35173 2.56967,0.68753 5.20809,0.4211 7.72618,-0.35236 0.0688,-0.73911 0.20622,-2.2087 0.2836,-2.9392 1.37504,1.69304 2.82748,3.76425 5.25103,2.3462 3.56658,1.67588 7.38238,2.75872 11.36147,2.57826 3.8502,3.81579 7.94101,8.57696 7.02145,14.42959 -1.40945,5.94717 0.14609,11.96307 0.46408,17.93602 1.22037,3.63534 1.73602,7.42536 1.461,11.26695 2.80171,1.33208 5.67216,2.72435 7.77772,5.08773 3.34313,3.59239 8.25038,6.53158 13.32095,5.54325 3.22282,-0.51566 6.50579,-0.36956 9.75437,-0.72189 2.78452,-1.55556 4.39164,-4.5807 7.09021,-6.27376 2.43214,-0.62737 5.55558,-1.91206 7.34912,-0.1804 1.30981,1.26456 0.66239,6.41115 0.60127,8.43637 -0.0307,1.01262 1.74669,1.05327 3.41343,1.03539 0.41669,-0.005 3.6545,-1.12798 5.60875,-1.97206 0.48856,-0.211 10.73535,-5.5339 11.25648,-5.85841 0.52119,-0.32451 6.82649,-0.75347 7.35487,-1.1137 0.13221,-0.09 4.34291,-1.3172 5.05357,-1.50087 0.71064,-0.18365 -0.33316,-2.07664 0.56959,-2.28974 0.22567,-0.0531 1.90327,-0.0392 2.69239,-0.19255 0.78908,-0.15326 3.97964,-2.15249 4.94849,-2.33772 0.48439,-0.0927 -0.32103,-2.35415 -0.32103,-2.35415 0,0 9.45965,-2.76772 10.361,-2.89193 0.22532,-0.031 2.63083,-3.84146 3.21067,-4.20448 0.28993,-0.18149 -2.30061,-0.91387 -3.91448,-2.38908 -1.61386,-1.47523 -3.59391,-3.55903 -3.69448,-4.0264 -0.21841,-1.0151 -6.40338,-2.94334 -6.94641,-3.71362 -0.54305,-0.77026 5.26415,1.70404 5.57384,1.51975 0.30968,-0.1843 9.91279,5.84419 11.46697,7.08742 0.77708,0.6216 4.25008,-2.03679 5.22947,-2.30903 0.97939,-0.27222 0.87518,0.4989 0.0706,1.26537 0,0 -10.99809,8.99237 -10.04895,8.85887 0.94916,-0.13346 -7.71498,2.32188 -7.61938,2.30324 0.76483,-0.14891 -7.79959,4.77283 -7.6225,4.72822 0.70838,-0.17844 -6.43123,2.96656 -6.30368,2.88703 0.5102,-0.31808 -4.3664,1.95576 -8.53256,3.16759 -3.89415,1.1327 -4.3474,1.44856 -6.51387,2.1941 -2.08706,0.71824 -4.23606,1.28578 -6.24699,2.19563 -1.05102,0.47552 -1.46181,1.14823 -3.01731,1.69484 -1.55554,0.54667 -5.33301,1.18331 -6.22799,1.22793 -3.57999,0.17843 -7.31141,-0.0907 -8.67787,-0.62786 -3.95333,-1.4696 -8.04414,0.06 -11.71385,1.54693 -2.34622,-0.82502 -4.55606,-1.67586 -6.91944,-2.41496 -2.4751,3.4119 -4.94163,7.0902 -8.66292,9.24733 -1.28052,1.02271 -2.67277,-0.17192 -3.95331,-0.55003 -1.15163,-1.9079 -2.74152,-3.48062 -4.58069,-4.701 -0.73911,-1.76181 -1.41802,-3.54939 -2.09696,-5.32839 -1.69305,-0.73909 -3.38613,-1.48678 -5.07917,-2.20009 -0.0173,-1.53837 -0.0258,-3.06813 -0.0342,-4.59788 -0.78206,-0.73052 -1.55554,-1.46102 -2.329,-2.18292 1.03989,-2.01965 1.92507,-4.21974 0.79065,-6.40266 -1.4868,-0.66174 -2.9478,-1.34068 -4.4088,-2.0368 -0.0173,-0.56722 -0.0516,-1.71884 -0.0688,-2.29464 -2.2087,-0.14611 -4.4002,-0.4727 -6.52296,-1.07428 -0.40393,-1.00552 -0.79927,-2.00245 -1.1946,-2.99077 3.13687,-1.53836 4.39163,-4.7182 4.63227,-8.02696 -3.06813,-1.63289 -6.17062,-3.17984 -9.27311,-4.72679 -0.96254,-1.62429 -1.66727,-3.54939 -3.29157,-4.64084 -1.82196,-1.02271 -3.89315,-1.51258 -5.92996,-1.83057 -2.56107,-0.46407 -4.7268,1.24617 -6.90972,2.26886 -1.89931,-0.73911 -3.93613,-1.27193 -5.55183,-2.56104 -1.80477,-1.52978 -2.31183,-3.97052 -3.59236,-5.86124 -1.11724,-1.21178 -2.50091,-2.11416 -3.78142,-3.11968 1.97665,-2.70717 4.98461,-5.74088 2.88764,-9.27309 z" />
    <path
       class="ZON_04"
       style="fill:#cccccc"
       inkscape:connector-curvature="0"
       id="DEP_12"
       d="m 760.20547,244.33928 c 7.29645,-1.99384 14.64446,-3.85878 21.66588,-6.72062 0.85943,2.66419 1.3493,5.45728 2.44073,8.05273 0.911,1.12583 2.12277,1.96806 3.17124,2.99076 -1.10862,0.91958 -2.59542,1.461 -3.37747,2.70716 -0.67036,2.50952 -0.39534,5.1737 -1.0571,7.68318 -1.64148,2.81889 -5.16509,4.60648 -5.41432,8.13009 -0.40392,4.13381 -0.38675,8.6629 2.16571,12.17792 3.94474,6.74642 11.73965,9.56529 16.48362,15.62419 0.008,2.43216 0.0174,4.8729 0.0342,7.31363 -3.34315,1.40085 -7.04722,2.41497 -9.58249,5.16511 -2.24309,2.36338 -4.80415,4.41739 -6.95268,6.85813 -2.48372,2.86185 -2.25168,6.86673 -2.30324,10.40754 0.11177,2.93919 -0.28362,6.55735 2.43215,8.51681 4.67523,3.66112 8.16444,8.49103 12.28965,12.71078 3.77284,4.81273 7.00424,10.03797 10.76848,14.88509 -1.83054,2.08836 -3.40328,4.383 -4.64944,6.86674 4.38303,0.51565 8.7145,-0.4555 12.62484,-2.44935 5.82683,-2.98219 12.53028,-2.29464 18.77823,-3.61815 2.50951,3.17126 2.94779,7.16755 2.64701,11.08648 -0.90239,1.10865 -1.79618,2.21731 -2.67278,3.34314 3.24,2.40637 6.85813,4.23691 10.14971,6.55734 3.17984,2.32041 3.60955,6.49718 3.93613,10.11533 5.71511,0.60159 10.93174,-2.04542 16.43201,-3.04234 3.74705,-0.66176 6.77219,-3.06811 9.92626,-5.01898 2.87045,0.36954 5.80107,0.36094 8.60275,-0.4555 -0.86801,1.37506 -1.82196,2.72435 -2.3548,4.27131 -0.97115,7.01281 -0.48987,14.67023 3.94481,20.51427 -0.59299,2.19151 -0.79065,4.5463 -1.908,6.55732 -2.9478,2.48373 -7.10737,3.64394 -9.05825,7.22771 -2.68996,4.97601 -1.63288,10.82864 -1.86492,16.25158 -0.32658,4.27127 1.61568,8.26758 3.97049,11.70524 1.43524,2.12275 4.30569,1.96806 6.54016,2.4837 -1.33208,3.60095 -2.20011,7.33943 -3.36032,10.99194 -0.65316,2.48372 -3.63531,2.74155 -5.56902,3.78143 1.72744,4.94163 4.25414,10.10673 2.78451,15.4609 -1.52976,0.71332 -3.04231,1.4438 -4.56349,2.15714 -0.50707,-0.98833 -1.0055,-1.96805 -1.49538,-2.94779 -2.54387,0.19754 -5.35417,-0.34378 -7.59725,1.12583 -2.85327,1.68444 -5.1135,4.15097 -7.82925,6.0245 -2.15715,1.55554 -4.67522,3.6869 -4.2799,6.66048 1.48679,2.86187 4.95024,3.18844 7.76054,3.79002 4.34861,0.62739 7.45969,4.19395 11.63647,5.31981 1.95946,-1.51258 3.60094,-3.41191 5.67213,-4.79556 1.44383,0.54144 1.84775,2.2087 2.31185,3.515 1.58991,4.53774 -0.15478,9.25593 -0.96257,13.76787 -5.50884,-1.07429 -11.12943,-1.29773 -16.69845,-1.95088 -1.70163,2.77591 -3.53217,5.47448 -5.09631,8.32774 -1.99385,3.60096 -1.98525,7.82929 -2.81889,11.76541 -1.14302,5.32837 -2.13136,10.69974 -3.58377,15.95938 -2.72434,0.18039 -5.40572,0.79925 -8.12148,0.90238 -4.99321,-7.91524 -7.91522,-17.03362 -13.22642,-24.76838 -2.00244,-2.52668 -4.19395,-5.89561 -7.76912,-5.97295 -5.52604,-0.0258 -11.23257,-0.67034 -16.4836,1.40944 -2.62982,1.23757 -4.66662,-1.30631 -5.94717,-3.23141 0.54144,-1.80477 2.07979,-3.05092 3.19704,-4.49474 2.10557,-2.33761 3.54938,-5.14791 4.95023,-7.93242 -2.28605,-3.60954 -6.49717,-4.87287 -9.50515,-7.60582 -0.55861,-3.42048 -0.21491,-6.90972 -0.30939,-10.36457 -3.11967,1.27194 -6.21358,2.61263 -9.33325,3.88456 -2.24307,-1.25475 -4.32286,-3.33454 -6.98704,-3.48062 -3.29157,0.5844 -7.12457,2.44932 -7.8379,6.04168 -1.08287,5.55183 -0.37813,11.27554 0.79927,16.75002 -3.29156,1.10866 -6.56594,2.26028 -9.71142,3.73848 -1.64148,-1.25476 -3.67829,-2.36341 -4.28846,-4.48618 -0.68755,-2.54388 -0.39534,-5.20806 -0.43832,-7.80348 3.26579,-3.4119 6.72064,-6.7894 11.22399,-8.49962 1.95946,-4.59789 -0.32659,-9.40203 -2.89624,-13.21784 -3.19704,-3.47205 -8.19025,-4.10801 -12.65061,-3.6611 -2.76733,-0.19777 -6.6347,0.90239 -8.21603,-2.11417 -0.42971,-1.83915 -0.32658,-3.73847 -0.38673,-5.6034 -3.14548,-2.73295 -6.48,-5.25964 -10.05516,-7.39958 -3.87598,-7.03002 -1.31491,-15.25464 1.0141,-22.34484 1.24615,-2.28604 -1.68446,-3.62671 -2.82748,-5.19945 -0.06,-1.52975 -0.11178,-3.04233 -0.15478,-4.55492 -2.02824,-0.7133 -4.04785,-1.40083 -6.07607,-2.07977 -0.24064,-1.86493 -0.17193,-3.73846 0.0773,-5.59482 2.3376,-0.42111 4.67522,-0.79065 7.03862,-1.06568 0.68755,-2.64697 1.26333,-5.31117 1.86494,-7.97535 1.04848,-1.39226 2.0798,-2.80171 3.12827,-4.18536 -0.043,-5.63777 0.043,-11.27555 0.086,-16.91333 0.17193,-4.76116 -2.84466,-9.24732 -7.15036,-11.1982 0.61021,-1.3321 1.24617,-2.65559 1.90792,-3.97049 0.0516,-2.53527 -0.21492,-5.13073 0.36954,-7.61442 1.58134,-2.60403 5.24244,-0.0945 7.67459,-0.12028 0.57583,-2.89622 0.97974,-5.9042 0.51565,-8.84341 -1.30632,-2.22588 -3.37749,-3.83299 -5.20806,-5.58619 -0.008,-2.44934 1.09147,-4.56351 2.87046,-6.18779 -0.1804,-5.04477 -1.93369,-10.45052 -6.58314,-13.05456 -2.53529,0.91959 -5.25961,2.47512 -8.00977,1.46963 -4.8471,-1.58134 -8.6715,-5.16509 -11.92868,-8.94653 -1.87352,-2.05401 -4.86431,-4.29709 -7.70038,-2.75014 -4.64943,1.89072 -9.52233,4.77835 -14.7218,3.27437 -1.71023,-6.10184 -3.55798,-12.32402 -7.88085,-17.16254 -5.33698,-0.52424 -7.58004,-5.69793 -10.46768,-9.4278 0.96254,-0.64457 1.94228,-1.28912 2.91341,-1.93368 0.14609,-3.00795 0.35236,-6.16201 2.10558,-8.74025 2.55244,-4.08226 5.08773,-8.37933 5.3112,-13.33815 -0.7477,-0.14608 -2.22591,-0.4383 -2.965,-0.593 1.93368,-4.43459 6.74644,-6.63469 8.40508,-11.22399 -0.52423,-2.54387 -1.19457,-5.20804 -0.57581,-7.79491 0.58442,-2.02822 1.65869,-3.86736 2.60403,-5.7409 2.93923,1.66728 5.84405,3.37753 8.83482,4.95025 8.07851,-3.77284 16.2086,-7.45973 24.10662,-11.6365 3.42908,-2.03681 7.5027,-1.12583 11.18959,-0.48127 4.91587,0.72192 8.90357,3.91034 13.32957,5.91279 4.71818,-4.41741 10.51924,-7.64881 16.7758,-9.2903 z" />
  </g>
</svg>
