<?xml version="1.0" encoding="UTF-8" standalone="no"?>
<!-- Generator: Adobe Illustrator 19.2.0, SVG Export Plug-In . SVG Version: 6.00 Build 0)  -->

<svg
   xmlns:dc="http://purl.org/dc/elements/1.1/"
   xmlns:cc="http://creativecommons.org/ns#"
   xmlns:rdf="http://www.w3.org/1999/02/22-rdf-syntax-ns#"
   xmlns:svg="http://www.w3.org/2000/svg"
   xmlns="http://www.w3.org/2000/svg"
   xmlns:sodipodi="http://sodipodi.sourceforge.net/DTD/sodipodi-0.dtd"
   xmlns:inkscape="http://www.inkscape.org/namespaces/inkscape"
   version="1.1"
   id="SvgMunicipio"
   x="0px"
   y="0px"
   viewBox="0 0 1000 983.3"
   style="enable-background:new 0 0 1000 983.3;"
   xml:space="preserve"
   inkscape:version="0.91 r13725"
   sodipodi:docname="MUN_ID1212.svg"><metadata
     id="metadata10"><rdf:RDF><cc:Work
         rdf:about=""><dc:format>image/svg+xml</dc:format><dc:type
           rdf:resource="http://purl.org/dc/dcmitype/StillImage" /></cc:Work></rdf:RDF></metadata><defs
     id="defs8" /><sodipodi:namedview
     pagecolor="#ffffff"
     bordercolor="#666666"
     borderopacity="1"
     objecttolerance="10"
     gridtolerance="10"
     guidetolerance="10"
     inkscape:pageopacity="0"
     inkscape:pageshadow="2"
     inkscape:window-width="682"
     inkscape:window-height="480"
     id="namedview6"
     showgrid="false"
     inkscape:zoom="0.24000814"
     inkscape:cx="500"
     inkscape:cy="491.64999"
     inkscape:window-x="0"
     inkscape:window-y="0"
     inkscape:window-maximized="0"
     inkscape:current-layer="svg" /><g
     id="g3"><path
       id="MUN_1212"
       d="m 769.4,36.6 2.2,3.9 5.7,-0.5 3.4,0.5 7.9,11.1 8.3,13.7 4.2,8.1 1,6.4 0.8,13 3.7,16.5 0.8,4.2 1.2,7.6 3,8.1 -1.3,8.9 -3.5,9.6 -2.5,14 0.8,6.7 -1,13.5 5.9,1.3 4.4,1 8.3,3.2 9.4,3.4 11.6,4 13.3,1.3 4.7,-1 8.9,-1.2 8.4,-2.2 4.9,3.5 3.4,0 3.2,-1.3 4.6,0 6.9,2.7 4.2,1 8.6,-2.4 9.3,6.4 13,7.3 2.7,2.7 7.3,2.2 4.6,3.7 8.3,13.5 11.1,5.6 9.3,-0.3 13.2,0.7 6.6,1.7 6.1,0.2 12.1,2.9 12.1,2.2 2.7,18 2.2,20.1 0.8,14.5 -1,16.4 -3.5,25 -11.3,25.3 -2,24.5 -4.4,52.3 -0.3,3.5 0,0.3 -1.5,12.3 -5.1,32.5 -3.7,24.5 -3.5,23.4 -0.5,0 -0.7,-0.2 -1,0 -2,-0.2 -3,0 -2.7,-0.2 0,4.4 -73,-8.6 -0.5,8.3 2.4,7.4 21.4,42.8 22.9,41.8 -4,0.3 -11.8,1.9 -3.9,0.8 -4.6,0 -4.2,-0.5 -3.4,-0.8 -3.9,-1.3 -5.2,-2.2 -5.4,-1.7 -11.8,-3.4 -16.2,-5.4 -22.1,-7.8 -12.6,-1.5 -26.3,1.7 -29,14 -21.9,23.1 -6.1,23.6 -12.8,10.6 -18.7,6.2 -46.7,32.9 -116.5,-37.8 -103.7,-33.2 -11.5,-3.7 0,0 -0.8,9.3 -0.3,9.6 -2.7,3.9 -2.9,7.9 1.5,6.4 -4.4,2 -6.2,-1.7 -3.4,1.3 -1.7,2.2 -7.9,3.5 -3.4,3.9 -8.9,0.7 -4.4,2.5 -5.1,-0.3 -2.2,1.3 -2.9,5.9 -9.3,5.1 -6.9,2 -3.5,-1 -12.6,11.1 -2.9,6.9 -8.8,7.3 -4,0 -5.6,2.5 -3.9,3.2 -1.9,2.4 -3.5,3.7 -2.9,4.7 -4.7,3.7 -6.7,5.1 -6.7,6.7 -7.3,7.1 -6.1,8.3 -4,3.5 -5.1,3.7 -3.4,2.5 -4.6,1 -5.2,1.5 -4.4,2 -6.6,10.1 -6.1,9.4 -3.9,5.2 -7.6,9.3 -5.1,6.7 -6.7,12.5 -7.4,11.8 -11.3,16.5 -3.4,5.6 -14.8,8.3 -11.1,11 -12,11.5 -19.2,1 -20.4,-4.4 -6.1,2.9 -8.6,16.4 -12.9,21.2 -12.6,8.4 -8.4,1.7 -7.6,2.7 L 76.6,975 66,981.7 62.1,983 61.8,983.2 36.3,948 259.1,581 312.7,492.3 409.5,394.2 647.1,152.9 736.9,0 l 8.6,14.2 6.4,6.1 5.1,4.7 5.7,2.9 5.6,5.7 1.1,3 z"
       inkscape:connector-curvature="0"
       class="DEP_12 ZON_04" /></g></svg>