<?xml version="1.0" encoding="UTF-8" standalone="no"?>
<!-- Generator: Adobe Illustrator 19.2.0, SVG Export Plug-In . SVG Version: 6.00 Build 0)  -->

<svg
   xmlns:dc="http://purl.org/dc/elements/1.1/"
   xmlns:cc="http://creativecommons.org/ns#"
   xmlns:rdf="http://www.w3.org/1999/02/22-rdf-syntax-ns#"
   xmlns:svg="http://www.w3.org/2000/svg"
   xmlns="http://www.w3.org/2000/svg"
   xmlns:sodipodi="http://sodipodi.sourceforge.net/DTD/sodipodi-0.dtd"
   xmlns:inkscape="http://www.inkscape.org/namespaces/inkscape"
   version="1.1"
   id="SvgMunicipio"
   x="0px"
   y="0px"
   viewBox="0 0 1000 703.7"
   style="enable-background:new 0 0 1000 703.7;"
   xml:space="preserve"
   inkscape:version="0.91 r13725"
   sodipodi:docname="MUN_ID1219.svg"><metadata
     id="metadata10"><rdf:RDF><cc:Work
         rdf:about=""><dc:format>image/svg+xml</dc:format><dc:type
           rdf:resource="http://purl.org/dc/dcmitype/StillImage" /></cc:Work></rdf:RDF></metadata><defs
     id="defs8" /><sodipodi:namedview
     pagecolor="#ffffff"
     bordercolor="#666666"
     borderopacity="1"
     objecttolerance="10"
     gridtolerance="10"
     guidetolerance="10"
     inkscape:pageopacity="0"
     inkscape:pageshadow="2"
     inkscape:window-width="682"
     inkscape:window-height="480"
     id="namedview6"
     showgrid="false"
     inkscape:zoom="0.33537018"
     inkscape:cx="500"
     inkscape:cy="351.85001"
     inkscape:window-x="0"
     inkscape:window-y="0"
     inkscape:window-maximized="0"
     inkscape:current-layer="svg" /><g
     id="g3"><path
       id="MUN_1219"
       d="m 976,203.4 -29.5,98 13.6,31.6 0,0 14.3,39.1 19.1,52.4 6.5,13.4 -30.3,87.7 -43.4,27.1 0,0.1 -0.4,1.3 -30.4,83.1 5.3,79.5 -80.3,-23.3 -19.1,-5.5 -38.1,17.3 -3.3,0.2 -88.6,5.4 -0.5,-0.9 -1.1,-1.7 -0.3,-4.2 0,-0.4 0.2,-2.4 1.8,0 1.8,0 1.6,0 0.5,-0.9 0.8,-1.1 0.8,-1.1 -0.1,-1.8 0,-1.6 0.9,-0.3 0.8,-0.2 1.5,-0.3 0.8,-0.9 -1.2,-1 -1.4,-1.4 -0.4,-2.3 -0.1,-0.4 -0.8,-0.3 -0.7,-0.2 -1.6,-0.6 -2.4,-2.3 -0.7,-0.8 -0.6,-2.1 -0.1,-0.4 0.2,-2 0.4,-2.5 0,-2.8 0,-0.2 1.3,-2.2 -1,-1.5 -1.8,-2.5 0.2,-1.5 0.2,-1.8 1,-1.9 0.5,-1.1 0.5,-1.1 0,-0.7 0.4,-1.9 0.5,-2.2 -1.2,-0.9 -2.6,-2 -0.6,-0.5 -1.3,-1 -0.2,-0.9 -0.6,-2.2 -0.6,-2 -0.1,-2.9 -0.1,-3.3 0,-1.2 -1.6,-4.5 -2.5,-2.6 -1.3,-3.6 0.1,-2.6 0.8,-2.7 0.2,-1.1 0.2,-0.9 0.2,-0.9 0.2,-1.1 0.1,-0.5 0.6,-2.5 0.6,-2.4 0.1,-0.7 0.2,-1.7 -0.5,-1.9 -0.9,-2.9 -0.9,-3.3 -0.8,-2.7 -0.4,-1.6 -0.3,-2.2 -0.1,-1.3 -0.1,-0.4 -1.3,-0.2 -1.1,-0.2 -0.6,-1 -0.7,-0.2 -0.3,-0.5 0.2,-0.1 -0.4,-1.2 0.7,-1.1 0,-1.7 -1,-1 -0.9,-1.1 -0.6,-2.5 -1,-0.9 -2.4,-1.8 -2.3,-2.8 0,-2.3 0,-1 0,-3.8 -2.5,-4.5 -1.1,-1.9 -0.9,-2.3 -1.5,0 -2.3,2.5 -1.2,2.6 -2.3,3.8 -3.7,4.4 -1.9,10.8 -1.4,0.2 -1.3,0.2 -0.6,0.3 -1.1,1.1 -1.6,1.5 -1,1.2 -0.4,1.2 -0.6,1.7 -0.8,2.4 -0.6,1.3 -0.8,1 -1.7,1.5 -1.1,1 -1.1,1.7 -1.1,0.7 -2,0.5 -2.9,1.5 -2.3,1.2 -2.1,1.4 -1.5,1 -1.1,1 -1,1 -0.8,1 -0.8,1.2 -0.6,1.3 -1,1.5 -0.6,0.9 -0.4,0.7 -0.4,0.7 -0.4,0.7 -1.1,1.8 -1.1,1.1 -0.9,0.7 -1.3,0.3 -0.7,0.4 -1,0.9 -1.3,1.6 -0.4,0.6 -0.7,0.4 -0.7,0 -1.5,0 -0.4,0.2 -0.2,0.5 0.2,0.6 0.4,0.6 0.4,1 -0.1,0.7 -0.4,1 -0.8,1.2 -0.9,1.3 -1,1.1 -1.1,1.1 -1.6,1.2 -1.5,1.7 -1.9,1.1 -2.2,1.5 -1.6,0.7 -0.9,0.2 -0.2,0 -2.1,-1.6 -1.3,-1.7 -1.9,-3.5 -1.2,-1.6 -1.2,-1.4 -1.1,-0.1 -1.9,1.7 -1.5,-0.2 -1,-0.9 -1.1,-1.3 -1.6,-2.3 -1.5,-1.4 -3,-1.7 -1.1,-1 -1.9,-0.5 -3.2,-0.1 -0.8,-0.7 -1.5,0.2 -2,-0.4 -1.2,-1.3 -1.5,-1.9 -1.7,-0.8 -1.3,-0.5 -1.8,-0.5 -0.6,-1.3 -0.3,-0.5 -0.8,-1.8 -0.6,-1.1 -0.9,-1.5 -0.5,-0.6 -0.7,-1.6 -1,-2.8 -1.3,-2.8 -1.5,-2.2 -1.1,-1 -1.3,-1.1 -1.8,-1.2 -1.5,-0.9 -2.2,-1 -1.6,-0.8 -1.1,-0.7 -1.6,-0.9 -2,-1.3 -2.8,-1.9 -1.8,-1.4 -0.8,-0.5 -1,-0.4 -0.7,0.2 -0.6,1 -0.3,1.2 -0.2,1.3 -0.4,1.9 -1,3.3 -1.1,1.6 -0.8,0.3 -1.6,0.2 -1.1,-0.1 -0.8,-0.5 -0.7,-0.8 -0.9,-1.2 -0.7,-1.4 -0.7,-0.7 -1.3,0.2 -1.1,-0.4 -0.9,0.6 -0.7,0.8 -0.8,1.1 -1.3,2.5 -1.3,1.3 -1.8,0.5 -1.3,-0.4 -0.3,-3.2 -0.6,-1.9 -0.5,-2.3 -0.9,-2.2 -1.2,-0.8 -1.1,-0.4 -0.6,-0.1 -1,-0.3 -1,-0.3 -0.8,-0.3 -1.6,-0.3 -1.2,-1.1 -1.2,-0.5 -0.9,-0.4 -0.2,0.3 -0.5,0.1 -0.4,0.3 -0.2,0.1 -1.4,0.3 -5.7,-3.3 -1.5,-1.9 -2.1,-2.5 -0.8,-2.7 -0.5,-2.1 0.1,-4.9 2.7,-4.4 2.2,-2.5 1.7,-2.7 0.9,-3.1 1.1,-3.4 -0.1,-2.2 -1.3,-1.7 -1.6,-0.9 -1.6,0 -1.1,0.5 -1,1.1 -0.8,1.3 -1.1,0.3 -1,-0.1 -2.3,-0.6 -1.8,-0.5 -2.2,-1.2 -1.5,-0.8 -0.8,-0.2 -0.8,1.5 -0.6,1.9 -1.2,1.4 -1.5,0.8 -1,0.1 -0.5,-0.8 -0.8,-1.4 -0.5,-1.7 -0.3,-2.4 0.4,-1.5 0.4,-2.5 0.2,-1.9 -0.5,-2.2 -0.9,-2.7 -0.3,-2.4 -0.9,-2 -0.6,-2 -1.2,-0.9 -1.7,-0.3 -0.9,0.9 -0.8,1.5 -1,2.7 -1.2,3 -1.1,2.3 -1.6,2.5 -1.8,1.7 -2,0.7 -1.4,0 -0.8,-0.5 -0.7,-0.6 -0.1,-1.6 0.3,-2.1 0,-3 0.2,-2.2 0.1,-3.3 0.1,-3.6 -1,-1.9 -1.4,-1.2 -2.7,-0.5 -2.4,-0.5 -2.4,-0.1 -1.7,-0.2 -1.7,0 -0.7,-0.1 -1.3,-0.4 -0.7,-0.2 -1.8,-0.6 -1.6,-1 -1.9,-1.4 -1.9,-1.7 -0.9,-1.6 -0.5,-1.6 -0.2,-3.1 -1.1,-3.5 -1.6,-3.8 -1.6,-3.3 -1.8,-1.4 -3,-0.8 -2.2,-0.7 -2.2,-1.1 -3.3,-1.6 -3.6,-2.4 -1.4,-2.6 0,-2.4 0.5,-3.8 -0.8,-2.3 -0.7,-3.1 -1.4,-4 -1.9,-2.9 -2.3,-4.6 -1.1,-2.8 -3.2,-3.6 -13,-7.7 -5.2,-3.1 -9.8,-6.3 -11,-4.5 -13.6,-2.7 -8,4.2 -8.7,2.6 -18.1,2.7 -21.1,4.1 -14,1.5 -8.3,-3.3 -9.8,-5.7 -8.9,-3 -11.4,-0.7 -10.7,-0.9 -9.3,-3.7 -0.8,-0.3 -12.9,-5.4 -11.9,-3.9 -11.6,-2.6 -1.8,-0.4 -24,-4.8 L 108.3,409.1 106,393 102.2,365.2 93.7,342.1 73.1,324.5 57,321.1 41.5,317.5 40.4,317 l -10.9,-5.3 -11.6,-5.2 -8.9,-9 -9,-8 8.7,-5.7 10.8,-12.3 0.8,-6.5 2.1,-3.3 3.4,-2.1 13.1,-0.7 6.2,-3.4 3.4,0 2.2,0.5 3.6,-1 2.2,-1.3 1.9,-1.3 1.8,-1.3 3.1,0.2 1.6,1.6 0.1,2.2 1.8,1.6 2.3,1.5 0.9,0.6 1.9,0.5 2.3,1 1.9,0.6 1,1.7 0.8,2.6 0.6,1.5 1.4,0.4 0.5,2.5 1.1,2.1 1.3,1.1 2.8,1.9 2.6,2.3 0.8,0.5 1.3,1.5 -0.2,3.1 1.2,0.8 0.9,0.3 1.1,1.3 1,1.9 0.4,1.5 1.9,1 0.3,0.3 1.3,-0.5 1,-1 1.3,0 1.2,-1.1 0.7,-1.2 0.9,0 1.3,0.1 0.7,0 0.9,0.1 0.2,-0.2 0,-0.7 0,-0.4 0.7,-0.1 0.6,0.1 0.9,0.5 0.6,0.3 0.7,-0.8 0.3,-0.3 1.2,1.2 0.8,1.4 0.5,0.4 1.3,1.2 1.3,0.1 0.9,-0.4 0.6,-0.2 0.7,0.5 0.7,0 0.6,-0.1 1.1,1.2 0.8,0.4 1.1,-0.9 1,-0.3 1.7,-0.7 0.6,0.8 -0.1,1.5 1.1,0.2 1.1,-1.1 0.8,-0.2 1.2,-1.1 0.7,1.3 0.4,-0.1 0.1,-2.2 0.7,-0.2 1.9,1.1 1.5,1.6 1.6,0.4 0.7,1 0.6,2.1 0.8,1.1 1.4,0.5 1.5,1.7 1.7,0.5 3.7,0.5 2.2,0.7 2.3,2.2 4,0.4 2.4,1 3.5,-0.3 2.2,-0.8 1.7,-6.2 0,-3.4 0.9,-2.6 0.5,-3 0,-5.3 -0.8,-3.2 0.4,-1.1 1.1,-1.8 0.8,-1.5 -1.1,-3.2 -1.1,-3.1 -1.9,-2.9 -1.7,-3.7 -1.9,-3.8 -1.4,-1.5 0.2,-3.8 0.4,-2.5 -0.1,-2.5 -2.4,-3.9 -0.4,-4.8 -1.4,-8.5 1,-1.9 2.2,-1.2 2.2,-1.5 1.8,-1.3 1,-1.4 0.6,-2.5 0.4,-2 1,-1.6 1.8,-0.9 1.8,-0.5 2.4,0.1 1.9,0 2.6,0.3 2.6,1.6 1.3,1.5 1,1.8 0.7,2.6 1,2.2 1.9,2.3 2.5,2 1.5,0.3 1.8,-0.3 3.3,0.9 2.6,0.9 1.9,0.6 2.4,0 3.3,0.9 3.9,-0.6 3.3,0.6 1.4,0 67.7,-1.9 57.2,-1.6 27.8,-8.3 10,-23.3 0,-0.1 17.7,-41.3 85.1,52.2 69.3,-47.2 47.9,-32.6 40.8,-27.7 1.7,-1 31,-72.7 102.9,-13.1 -1.4,3.8 -47.9,36.4 -38,25 3,1.9 60.9,40.2 29.2,11.6 3.2,1.5 48.4,22.8 0.2,0.1 36.2,17 11.3,2.7 9.2,2.1 14.5,3.5 54.8,13.2 21.9,4.9 -0.6,4.3 z"
       inkscape:connector-curvature="0"
       class="DEP_12 ZON_04" /></g></svg>