<?xml version="1.0" encoding="UTF-8" standalone="no"?>
<!-- Generator: Adobe Illustrator 19.2.0, SVG Export Plug-In . SVG Version: 6.00 Build 0)  -->

<svg
   xmlns:dc="http://purl.org/dc/elements/1.1/"
   xmlns:cc="http://creativecommons.org/ns#"
   xmlns:rdf="http://www.w3.org/1999/02/22-rdf-syntax-ns#"
   xmlns:svg="http://www.w3.org/2000/svg"
   xmlns="http://www.w3.org/2000/svg"
   xmlns:sodipodi="http://sodipodi.sourceforge.net/DTD/sodipodi-0.dtd"
   xmlns:inkscape="http://www.inkscape.org/namespaces/inkscape"
   version="1.1"
   id="SvgMunicipio"
   x="0px"
   y="0px"
   viewBox="0 0 1000 984.4"
   style="enable-background:new 0 0 1000 984.4;"
   xml:space="preserve"
   inkscape:version="0.91 r13725"
   sodipodi:docname="MUN_ID1205.svg"><metadata
     id="metadata10"><rdf:RDF><cc:Work
         rdf:about=""><dc:format>image/svg+xml</dc:format><dc:type
           rdf:resource="http://purl.org/dc/dcmitype/StillImage" /></cc:Work></rdf:RDF></metadata><defs
     id="defs8" /><sodipodi:namedview
     pagecolor="#ffffff"
     bordercolor="#666666"
     borderopacity="1"
     objecttolerance="10"
     gridtolerance="10"
     guidetolerance="10"
     inkscape:pageopacity="0"
     inkscape:pageshadow="2"
     inkscape:window-width="665"
     inkscape:window-height="480"
     id="namedview6"
     showgrid="false"
     inkscape:zoom="0.23973994"
     inkscape:cx="500"
     inkscape:cy="492.20001"
     inkscape:window-x="0"
     inkscape:window-y="0"
     inkscape:window-maximized="0"
     inkscape:current-layer="svg" /><g
     id="g3"><path
       id="MUN_1205"
       d="m 780.5,1.7 0.3,1.7 -0.3,1.1 -0.6,1 -0.8,1 -0.3,1 0.2,0.8 0.6,0.8 1,0.1 1.2,-0.3 0.6,0.7 0,0.8 -0.7,1.3 -1.5,1.7 -1.3,2.1 -0.3,1.4 0.8,2 0.6,1.7 0.4,2.7 -0.3,3.1 -0.9,1.3 -1.2,1 -1.6,1.3 -2.7,1.8 -1.9,1.3 -1.2,1.3 -0.5,1.6 -0.6,1.6 -0.8,1.6 -1.5,2.1 -1.1,1.8 -0.5,1.9 0.8,2.3 0.5,1.7 0.3,2.3 -0.1,2.4 0.3,2.5 1,2.4 0.2,1.4 -0.8,0.7 -1.2,0.2 -1.1,0.3 -0.1,1.1 1.3,1.3 0.3,1.2 -0.4,1.4 -0.6,1.1 -0.4,1.3 -0.4,1.9 -0.8,0.5 -0.8,0.1 -2.1,-0.3 -0.9,0.3 -1.3,0.9 -1.4,0.3 -1.8,-0.1 -1.8,0.8 -1.1,1 -0.7,1.7 0.2,2.8 0.2,1.3 0.2,2 0.4,3.7 -0.2,1.8 0.5,3.8 0.8,1.3 1.7,0.5 1.8,1.1 0.3,1.5 -0.5,2.1 -2.2,1.8 -2.8,1.6 -1.6,1.1 -1.4,1.8 -1.3,2.1 0.1,2.6 3.8,77.9 0,0.3 48.1,128.4 49.3,131.8 27.8,74.3 15.3,28.5 113,185.9 -54.8,6.7 -127.2,15.8 -211.8,-22.7 -103.7,-11 -138.4,-14.9 -18.4,-1.9 -51.5,71 -16.7,23.1 -132.7,182.6 0.6,-1.8 0.5,-1.4 1.2,-3.4 1,-4.4 0.5,-2 0.8,-2.6 0.9,-2.7 1.2,-3.5 1,-3.4 0.7,-3 0.6,-3.4 0.3,-3.1 0.8,-3.8 0.3,-1.3 0.2,-0.7 3.1,-5.1 2.1,-4.3 0.9,-2.8 0.3,-3.1 0.7,-2 1,-2.8 -0.1,-2 -0.3,-3.8 0.2,-4.9 0.3,-4.3 1.3,-2.7 1.4,-3.3 1.4,-2.8 0.8,-2.3 -0.8,-0.1 -7.4,-1.3 -11.4,-2.5 -1.3,-0.3 1.9,-2.4 0.4,-1.3 0.5,-2.3 0.1,-1.5 -1.1,-2.6 0.3,-1.5 0.3,-1.2 -0.2,-1.5 1.3,-0.8 0.4,-0.9 -0.3,-1.3 -4.2,-3.4 -0.8,-1.7 -1.8,-0.8 -0.5,-0.7 3.8,-1.8 0.3,-1.5 0.2,-1.6 0.5,-0.8 -0.1,-0.8 -0.6,-1.3 -0.6,-1.3 -0.3,-2 0.8,-1.7 1,-0.9 1.2,-0.3 1,-0.8 0.4,-0.7 0.6,-1.3 -0.8,-2.8 -3.3,-2.9 -0.5,-0.9 -0.2,-1.3 -1.3,-1.8 -0.8,-1.1 -1,-1 -0.5,-0.8 -0.5,-1.2 -0.2,-0.9 -2.7,-3.1 0.4,-1.1 0.9,-0.9 0.3,-2.1 -3,-5.2 -0.3,-0.8 -0.2,-1.7 -0.9,-1.8 -1.7,-3.5 -1.8,-0.9 -1.2,-1.3 -1.8,-0.9 -1.4,-1.5 -0.6,-1.8 -0.4,-2.9 1.1,-3 0.2,-0.3 0.8,-1.5 -0.3,-1.9 -0.7,-2.3 -0.2,-1.3 L 30.5,860 15.3,775.2 6,723.3 l 5.9,-185.6 35.4,4.3 96.2,11.9 0.1,0 -0.6,-1.5 -0.5,-2.9 -0.8,-5.1 -0.6,-6.4 -0.4,-3.4 -0.4,-3 0.1,-2.6 1.8,-2.8 2.8,-4.7 0.8,-2.8 -0.3,-6.2 -0.2,-5.9 0,-2.3 -0.6,-2.1 -2.3,-2.3 -2.4,-2.3 0.1,-2 1,-2.5 -1.1,-3.9 -0.9,-3.8 0.5,-2.9 2.2,-4.3 0.3,-1.8 -0.2,-0.3 -1.5,-2.8 -1.6,-3.3 -3,-2.8 -1.5,-2.9 -1.3,-5.8 -0.8,-3.2 -1.9,-5.9 -1.8,-5.2 -0.8,-1.7 -3.8,-2.9 -2.8,-1.8 -1.6,-1.6 -0.1,-3.3 -0.1,-4 -2.6,-3.1 -2.5,-2.3 -2.8,-2.6 -1.6,-2.6 -0.4,-3.4 0.8,-5.4 0.8,-4.8 0.5,-3.6 0.3,-2.8 0,-0.2 22.5,-0.6 2.3,1.2 1.8,-0.2 2.2,-0.5 2.6,0.2 2.5,0.6 5.3,0.8 1.8,-0.4 1.7,-1.9 1,-1.4 1.4,-1.3 1.3,-0.8 1.3,-1.6 1.3,-0.8 1.7,-1.1 0.9,-1.3 0.8,-0.8 1.3,-0.7 1.8,-0.5 1.6,-1.7 1,-1.2 0.8,-1.8 0.2,-2.1 1,-1.7 2.1,-1.6 2,-3 1.9,-3 1.5,-2.6 1.5,-1.9 1.5,-2 0.4,-1.3 0.1,-1.5 1,-2.3 1.8,-1.6 1.4,-1.1 2.2,-0.1 1.6,0.4 1.6,-1.3 1.8,-1.2 1.4,-0.8 2.4,-0.3 6.5,-1.8 6.6,-0.3 3.8,1.1 3.7,-1.7 3.9,-2.5 1.9,-41.9 -5.2,-36.7 -3.9,-26.8 -11.6,-81.6 -12.8,-117 0.3,0.1 0.3,0.6 0.4,0.6 1.1,0.8 0.8,0.8 0.8,0.9 0.5,1 0.4,0.9 0.9,0.7 1.6,0.8 1.8,0.6 1.6,0.5 1.6,0.9 3.1,1.8 4.2,1.9 2.4,0.8 2.1,1.2 1.9,1.1 2.6,1.4 0.9,0.7 1.2,1.4 1.5,1.3 2.5,2.4 1,1.2 1,1.8 1.8,2 1.9,1.9 1.1,1.1 1.1,0.2 1.3,-0.1 1.8,0 2.2,0.5 0.8,0.1 0.8,0.2 0,-0.3 3.4,-11.5 -0.2,-2.6 2.7,-0.4 7.3,1.5 5.5,-2.1 3,-0.8 2.9,-0.2 7.6,1.6 2.1,1 0.2,-0.7 0.2,-2.7 6.4,-1.3 1,0.1 8.1,0.3 1.2,-1.8 8,-1.1 5.4,-0.6 3.7,-0.5 0,0.5 0,1.5 0.2,4.5 0.1,6.6 3.4,1.8 3,2.2 0.5,0.1 3.3,-0.2 3.7,0.1 1.1,0.3 0.7,0.6 0.9,1.9 0.8,1.3 0.8,2.4 -0.3,1.3 0,2.1 0.3,1.3 1.6,1.4 1.8,-0.2 0.8,-0.3 0.8,0.3 0.6,0.3 1.3,2.8 3.1,6.9 4.7,10.3 2.3,5.1 1.3,-1.7 1.2,-1.8 0.8,-1 2.4,-0.9 1.3,-0.7 1,-1.2 1.3,-1.4 1.8,-1.6 0.2,-1.2 0,0 0.5,0.3 1.8,1.1 1.7,1.4 2.1,-0.9 2.1,-0.2 0.7,0.9 0,1.8 2.3,2.8 -1.1,3.3 0.8,0.3 0.7,0.2 0.6,0.3 0.6,-0.7 0.2,-0.9 0,-0.4 0.5,-0.3 0.7,-0.5 0.4,-0.3 0.3,-0.3 0.3,0.1 0.7,0.3 -0.5,1.4 -0.3,0.7 -0.3,0.9 1.1,0.8 0.1,0.3 0.6,1.2 0.6,0.1 1.1,0.2 0.3,0.4 0.6,0.8 0.1,0.9 0,1.3 0.1,0.9 0,1.1 0,0.3 0,1.3 0.1,1.3 0.4,-0.2 1,-0.5 0.3,0.1 1,0.1 0.3,0.1 0.2,0.2 0.6,0.3 0.9,0.7 0.2,0 0.6,-0.3 0.9,0.5 0.7,-0.7 0.3,-0.3 0.3,-0.1 0.3,-0.1 0.3,0 0.3,0 0.3,-0.1 0.2,-0.1 0.3,-0.1 0.1,0.3 0.4,0.5 0.3,0.8 2.8,0.3 35,5.7 150.4,24.7 0.3,0.1 57.8,-56.9 0.1,-0.2 -0.2,2.1 -0.1,0.6 0.7,0.8 1.7,1.4 0.8,0.6 3.7,-0.1 2.4,0.2 1.2,0.9 1.3,1.8 0.4,0.8 1,-0.6 0.8,-0.6 1.3,-0.8 0.9,-0.8 0.8,-0.5 2.6,-0.4 2.1,-1.7 1.3,-0.6 0.9,-0.1 1,0.3 1,-0.1 0.2,-0.1 1.6,-2.8 1,-5 0.5,-2.8 0.2,-2.4 1.7,-1.6 1.8,-0.2 3.4,-0.4 3.3,0.3 1.3,-0.7 1.7,-1.3 2.3,-2.2 -0.3,-0.5 2.2,0.4 4.9,-2.4 2.6,-1.6 1,-0.9 1.8,-3 2.3,-2.7 2.7,-2.8 1.5,-1.2 2.8,-1.3 0.4,-1.3 0.3,-3.7 0.9,-2.1 3.1,-4 2.1,-3.4 1.3,-2.1 2.3,-2.6 1.7,-2.6 1.1,-2.8 1,-2.7 1,-2.6 2.1,-2.4 1.9,-2.2 2.8,-1.8 2,-1.2 4.2,-0.6 2.6,-0.6 3,-2.1 1.3,-1 1.6,-2.5 0.3,-0.9 -0.2,-2.1 0,0 0.8,-0.7 0.1,-0.7 2.1,-1.3 0.3,-1.4 1.7,-0.4 4.4,1.3 1.6,-0.9 1.8,1.1 1.8,0.3 1,1.3 1.6,0.6 2.1,-0.9 0.7,-2.9 1.1,-1.1 1,0.2 0.8,0.8 1.5,-0.4 0.8,0.7 3.2,-0.4 2.2,-2.1 1.2,-1.5 2.1,-0.4 0.7,-0.5 -0.1,-1.9 1.8,-1.8 2.1,-1 1.8,0.5 1.8,1.1 1.6,0.1 -0.2,-0.9 0.6,-0.7 0.3,-0.2 0.2,-0.1 1.2,-1.1 0.2,0.8 0,1 z"
       inkscape:connector-curvature="0"
       class="DEP_12 ZON_04" /></g></svg>