<?xml version="1.0" encoding="UTF-8" standalone="no"?>
<!-- Generator: Adobe Illustrator 19.2.0, SVG Export Plug-In . SVG Version: 6.00 Build 0)  -->

<svg
   xmlns:dc="http://purl.org/dc/elements/1.1/"
   xmlns:cc="http://creativecommons.org/ns#"
   xmlns:rdf="http://www.w3.org/1999/02/22-rdf-syntax-ns#"
   xmlns:svg="http://www.w3.org/2000/svg"
   xmlns="http://www.w3.org/2000/svg"
   xmlns:sodipodi="http://sodipodi.sourceforge.net/DTD/sodipodi-0.dtd"
   xmlns:inkscape="http://www.inkscape.org/namespaces/inkscape"
   version="1.1"
   id="SvgMunicipio"
   x="0px"
   y="0px"
   viewBox="0 0 999.9 378.8"
   style="enable-background:new 0 0 999.9 378.8;"
   xml:space="preserve"
   inkscape:version="0.91 r13725"
   sodipodi:docname="MUN_ID1210.svg"><metadata
     id="metadata10"><rdf:RDF><cc:Work
         rdf:about=""><dc:format>image/svg+xml</dc:format><dc:type
           rdf:resource="http://purl.org/dc/dcmitype/StillImage" /></cc:Work></rdf:RDF></metadata><defs
     id="defs8" /><sodipodi:namedview
     pagecolor="#ffffff"
     bordercolor="#666666"
     borderopacity="1"
     objecttolerance="10"
     gridtolerance="10"
     guidetolerance="10"
     inkscape:pageopacity="0"
     inkscape:pageshadow="2"
     inkscape:window-width="682"
     inkscape:window-height="480"
     id="namedview6"
     showgrid="false"
     inkscape:zoom="0.40904089"
     inkscape:cx="499.95001"
     inkscape:cy="189.39999"
     inkscape:window-x="0"
     inkscape:window-y="0"
     inkscape:window-maximized="0"
     inkscape:current-layer="svg" /><g
     id="g3"><path
       id="MUN_1210"
       d="m 903.7,-4.2 2.6,0.7 2.9,1.1 1.9,0.5 6,1.5 4.1,1.5 3.3,0.7 3.8,0.8 3.4,0.5 4.6,0 3.3,0 3.4,-0.4 3,0.3 2.8,0.7 3.2,0.8 2.4,0.7 3.8,0.3 4.1,0.7 3.3,1.2 2.9,1.5 1.6,1.5 3.4,3.3 1.6,2.8 0.7,2.5 0.9,1.7 2.3,1.5 2,0.5 3.3,0 2.4,-0.4 2.1,-0.9 2.1,0.1 2.6,1.3 2.6,1.2 2.1,1.1 0.8,0.3 0.7,0.1 -1.2,1.1 -0.9,2.1 -1.1,2.4 -0.9,2.8 -0.8,3.7 -1.2,3.2 -1.5,2.5 -1.5,1.7 -2.3,4 -0.9,4.4 0.1,4.2 -0.3,2.4 -0.4,4.8 0.3,1.3 0.7,2.9 0.7,1.3 2,2.9 -0.1,2.3 0.4,0.3 2.9,1.7 1.7,3.4 -0.5,2.6 -0.3,1.1 -0.1,0.5 -3.3,1.5 -1.9,0.8 -1.7,1.9 -1.7,1.9 -0.3,2 -1.9,0.8 -3.2,0.7 0.3,6.4 -0.1,3.8 -0.8,1.9 -1.7,4 -1.3,1.1 -0.9,0 -0.7,0.8 -1.6,2 -1.7,1.7 -0.5,2.4 -3.4,4.5 1.7,3 0.3,2.6 0.1,2.5 -0.3,2.1 -1.9,1.7 -0.3,0.1 -0.5,0.3 -0.9,1.1 -0.8,1.1 -2.5,-0.1 -2.8,-1.7 -2.8,-0.8 -3.3,1.6 -2.8,2.9 0.1,3 -1.1,0.8 -3.3,0.7 -1.9,2.4 -3.4,3.3 -5,0.7 -1.2,-1.1 -2.4,0.7 -1.3,-1.3 -1.6,-0.3 -1.7,1.7 -1.1,4.6 -3.3,1.5 -2.5,-0.9 -1.6,-2 -2.8,-0.5 -2.8,-1.7 -2.5,1.5 -7,-2 -2.6,0.7 -0.4,2.3 -3.3,2 -0.1,1.1 -1.2,1.1 0,0 0.3,3.3 -0.4,1.5 -2.5,4 -2,1.6 -4.8,3.3 -4.1,0.9 -6.6,0.9 -3.2,1.9 -4.5,2.8 -3,3.4 -3.3,3.8 -1.6,4.1 -1.6,4.2 -1.7,4.5 -2.6,4.1 -3.6,4.1 -2.1,3.3 -3.3,5.4 -4.9,6.4 -1.5,3.3 -0.4,5.8 -0.7,2.1 -4.4,2.1 -2.4,1.9 -4.2,4.5 -3.7,4.2 -2.8,4.8 -1.6,1.5 -4.1,2.5 -7.8,3.8 -3.4,-0.7 -0.9,0.3 -3.7,3.4 -2.6,2 -2.1,1.1 -5.2,-0.4 -5.4,0.7 -2.8,0.3 -2.6,2.5 -0.3,3.8 -0.8,4.4 -1.6,7.9 -2.5,4.4 -0.3,0.1 -1.6,0.1 -1.6,-0.5 -1.5,0.1 -2.1,0.9 -3.3,2.6 -4.1,0.7 -1.2,0.8 -1.5,1.2 -2,1.3 -1.1,0 -1.6,0.9 -0.7,-1.2 -2.1,-2.8 -1.9,-1.5 -3.8,-0.3 -5.8,0.1 -1.3,-0.9 -2.6,-2.3 -1.2,-1 0.1,-0.9 0.3,-3.3 -0.1,0.3 -91.5,90.2 -0.4,-0.1 -238.1,-39.2 -55.5,-9 -4.5,-0.5 -0.4,-1.3 -0.7,-0.8 -0.1,-0.4 -0.5,0.1 -0.3,0.1 -0.4,0.1 -0.4,0 -0.4,0 -0.4,0.1 -0.4,0.1 -0.5,0.5 -1.1,1.1 -1.5,-0.8 -0.9,0.4 -0.3,0 -1.5,-1.1 -0.9,-0.5 -0.3,-0.3 -0.5,-0.1 -1.6,-0.1 -0.4,-0.1 -1.6,0.8 -0.7,0.3 -0.1,-2 0,-2 0,-0.4 0,-1.7 -0.1,-1.5 0,-2 -0.1,-1.5 -0.9,-1.2 -0.5,-0.7 -1.7,-0.3 -0.9,-0.1 -0.9,-1.9 -0.1,-0.4 -1.7,-1.2 0.5,-1.5 0.4,-1.1 0.8,-2.3 -1.1,-0.5 -0.5,-0.1 -0.5,0.4 -0.7,0.5 -1.1,0.8 -0.8,0.5 0,0.7 -0.3,1.5 -0.9,1.1 -0.9,-0.4 -1.1,-0.3 -1.2,-0.5 1.7,-5.3 -3.7,-4.5 0,-2.8 -1.1,-1.5 -3.3,0.3 -3.3,1.5 -2.6,-2.3 -2.9,-1.7 -0.8,-0.4 0,0 -0.3,1.9 -2.8,2.5 -2,2.3 -1.6,1.9 -2,1.1 -3.8,1.5 -1.2,1.6 -1.9,2.9 -2.1,2.6 -3.6,-8.1 -7.4,-16.3 -4.9,-10.9 -2,-4.5 -0.9,-0.4 -1.3,-0.4 -1.3,0.5 -2.8,0.3 -2.5,-2.3 -0.5,-2 0,-3.3 0.1,-2 -1.2,-3.8 -1.2,-2 -1.5,-3 -1.1,-0.9 -1.7,-0.5 -5.8,-0.1 -5.3,0.3 -0.8,-0.1 -4.8,-3.4 -5.4,-2.9 -0.1,-10.5 -0.3,-7.1 0,-2.4 0,-0.8 -5.8,0.8 -8.5,0.9 -12.7,1.7 -1.9,2.8 -12.8,-0.4 -1.6,-0.1 -10.2,2.1 -0.3,4.2 -0.3,1.1 -3.3,-1.6 -12,-2.5 -4.6,0.3 -4.8,1.2 -8.7,3.3 -11.5,-2.4 -4.2,0.7 0.3,4.1 -5.4,18.3 0,0.4 -1.2,-0.3 -1.2,-0.1 -3.4,-0.8 -3,0 -2.1,0.1 -1.7,-0.3 -1.7,-1.7 -3,-3 -2.9,-3.2 -1.6,-2.8 -1.6,-1.9 -4,-3.8 -2.4,-2.1 -1.9,-2.3 -1.5,-1.1 -4.1,-2.3 -3,-1.7 -3.3,-1.9 -3.8,-1.2 -6.6,-3 -4.9,-2.9 -2.5,-1.5 -2.5,-0.8 -2.9,-0.9 -2.5,-1.3 -1.5,-1.1 -0.7,-1.5 -0.8,-1.6 -1.3,-1.5 -1.2,-1.3 -1.7,-1.2 -0.7,-0.9 -0.4,-0.9 -0.4,-0.1 -15,-13.1 -5.2,-7.5 L 10.5,171.2 7.2,151.9 3.2,140.3 0,86.9 2.8,90 l 2.6,1 4.2,0.8 1.9,0.4 1.1,0 2,0.9 2,0.3 2.9,1.1 3.4,0.8 1.9,-0.4 2.6,-1.3 2.5,-1.7 2.9,-2.3 1.6,-1.5 0.5,-0.9 1.3,-1.7 1.3,-1.5 2.5,-2 2.3,-1.5 2.9,-2 2.4,-1.7 2.8,-1.2 2.9,-1.5 2.8,-2 3.3,-2.3 3,-3.2 2.9,-0.7 6.1,-0.4 4.9,-0.3 2.6,0.3 2,1.7 1.6,2 1.7,2.5 1.2,2.3 1.6,0.9 2.3,0.5 2.6,1.1 4.2,1.6 3.7,-0.3 3.6,-1.3 3.7,-1.3 6.1,1.6 4.2,1.3 3.6,1.5 3,1.6 3.3,2.3 3.8,-0.4 4.5,-0.1 2.4,0 1.7,-0.1 2.4,0.5 2.5,0.9 3.4,1.7 1.6,3.3 2.8,1.9 4.2,0.8 3.2,0.8 2,0.4 6.2,-2.9 4.5,-1.9 4.6,-1.3 4.1,-1.1 3.2,-0.4 1.7,0.9 4.5,1.7 4.8,1.7 4.9,2 4,1.1 4.2,2 1.7,3.4 1.9,1.1 2,0.9 2.4,0.3 3.8,-1.5 2.5,-2.1 -0.4,-2.8 2.5,-3 4,-1.5 3.4,-0.1 1.6,0.4 1.3,0.5 0.8,3.8 1.2,1.9 0.7,2.3 1.9,0.9 2.5,1.7 2.3,0.1 2.9,-0.4 4.2,-0.3 0.8,-0.1 1.6,-0.5 2.5,-1.2 1.5,-1.9 2.4,-2.8 1.3,-0.9 0.7,-0.5 4,-2.4 2.6,-1.2 2.1,-1.9 2.6,-2.6 3.2,-2.5 2.5,-1.2 4.1,-2.8 4.6,0.1 2.9,0.8 2.8,0.9 3,0.8 3.3,0.8 2.9,0.7 3.3,1.5 2.8,1.6 1.9,1.5 2.1,0.5 3.2,-0.4 3.6,1.1 4.1,2.3 2.9,2 2.4,1.9 3.2,2.3 2.3,3.2 1.6,2.1 1.2,1.5 2.8,2 2.8,2.9 1.7,1.9 2,0.5 3.3,0.1 2.5,0.3 3.3,0.5 2.6,0.5 3.3,0.7 2.3,0.5 1.5,3.3 2,4.2 1.6,2.5 0.1,3.7 -0.9,3.7 -0.7,3.8 1.5,2.1 4.2,3.3 8.2,-1.6 2,2.3 2.1,3.7 -0.7,3.7 -0.3,2.1 -1.6,3.6 -2.9,4.6 0.7,2.5 1.1,3 0.9,2 2.9,3.4 2.5,1.3 2.3,0.7 6.9,-0.5 4.9,2.8 1.2,1.6 2,6 1.7,2 2.9,0.4 6.5,3.7 1.5,0.9 4.8,1.7 6.4,-1.6 9.4,-3 12.2,-2.8 6.6,-4.5 2.9,-0.7 1.7,0.4 2.1,-1.2 3,-2.8 3.7,-3.3 0.7,-4.4 0.7,-4.4 1.5,-4.5 2.1,-2.1 6.6,-6.5 2.4,-5.3 2.9,-3 9.7,-7.1 3.4,-2.9 6.2,-5.8 4.5,-7 4,-5.7 4.2,-8.2 4,-4.1 2.6,-2.5 5.6,-5.2 0.9,-1.3 0.8,-1.6 0.3,-2.1 0.5,-3.3 0.1,-1.6 -0.5,-1.7 -1.1,-3.3 -0.7,-2.4 -0.3,-3.4 1.6,-7.4 0,-4.4 -1.1,-3 -0.8,-3.7 -1.2,-2.8 -1.1,-2.9 -2,-4.2 0.5,-4.5 0.1,0 337.3,-43.8 5.2,1.1 2.8,0.5 2,0.4 2.3,-0.1 3.6,-0.9 4.1,-0.1 2.9,-0.5 2.4,-0.5 2.1,-0.4 2.9,0.5 4,0.8 3.8,0.9 z"
       inkscape:connector-curvature="0"
       class="DEP_12 ZON_04" /></g></svg>