<?xml version="1.0" encoding="UTF-8" standalone="no"?>
<!-- Generator: Adobe Illustrator 19.2.0, SVG Export Plug-In . SVG Version: 6.00 Build 0)  -->

<svg
   xmlns:dc="http://purl.org/dc/elements/1.1/"
   xmlns:cc="http://creativecommons.org/ns#"
   xmlns:rdf="http://www.w3.org/1999/02/22-rdf-syntax-ns#"
   xmlns:svg="http://www.w3.org/2000/svg"
   xmlns="http://www.w3.org/2000/svg"
   xmlns:sodipodi="http://sodipodi.sourceforge.net/DTD/sodipodi-0.dtd"
   xmlns:inkscape="http://www.inkscape.org/namespaces/inkscape"
   version="1.1"
   id="SvgMunicipio"
   x="0px"
   y="0px"
   viewBox="0 0 1000 658.5"
   style="enable-background:new 0 0 1000 658.5;"
   xml:space="preserve"
   inkscape:version="0.91 r13725"
   sodipodi:docname="MUN_ID1215.svg"><metadata
     id="metadata10"><rdf:RDF><cc:Work
         rdf:about=""><dc:format>image/svg+xml</dc:format><dc:type
           rdf:resource="http://purl.org/dc/dcmitype/StillImage" /></cc:Work></rdf:RDF></metadata><defs
     id="defs8" /><sodipodi:namedview
     pagecolor="#ffffff"
     bordercolor="#666666"
     borderopacity="1"
     objecttolerance="10"
     gridtolerance="10"
     guidetolerance="10"
     inkscape:pageopacity="0"
     inkscape:pageshadow="2"
     inkscape:window-width="682"
     inkscape:window-height="480"
     id="namedview6"
     showgrid="false"
     inkscape:zoom="0.35839028"
     inkscape:cx="500"
     inkscape:cy="329.25"
     inkscape:window-x="0"
     inkscape:window-y="0"
     inkscape:window-maximized="0"
     inkscape:current-layer="svg" /><g
     id="g3"><path
       id="MUN_1215"
       d="m 1004.1,75.1 -10.1,97.5 -15.9,154.8 -14.4,138.7 -2.1,2.7 -2.1,2.6 -4,5 -2.9,5.2 -1.9,3.6 -1.9,3.6 -1.7,1.6 -1.6,0.7 -2.5,0.7 -3.4,0.7 -3.2,0.2 -3.1,0.6 -4.7,0.9 -4.8,0.1 -3.5,0.4 -2.7,1 -1.9,0.9 -1.7,2.1 -1.7,2 -3.1,1.9 -2.5,2.5 -1.7,3.1 -1,2.9 -1,4.8 -0.7,4.2 -1.5,4.3 -2.1,5.5 -1.7,3.6 -2.4,4.2 -2.5,3 -2.6,2.1 -3.1,4.7 -2.6,3.5 -1.7,2.9 -1.2,2 -1.2,4 -0.5,1.2 -1.1,1.4 -1.9,1.5 -0.9,1.1 -1.4,1.5 -1,1.9 -3.7,3.4 -128.4,86.6 -58.4,-5 -135.6,-11.8 -176.1,-58.5 0,0 -0.4,-0.1 L 180.2,493.8 4.1,411.1 201.3,139.6 226.1,105.3 302.6,0 329.9,2.9 535.5,25 l 154,16.4 314.6,33.7 z"
       inkscape:connector-curvature="0"
       class="DEP_12 ZON_04" /></g></svg>