<?xml version="1.0" encoding="UTF-8" standalone="no"?>
<!-- Generator: Adobe Illustrator 19.2.0, SVG Export Plug-In . SVG Version: 6.00 Build 0)  -->

<svg
   xmlns:dc="http://purl.org/dc/elements/1.1/"
   xmlns:cc="http://creativecommons.org/ns#"
   xmlns:rdf="http://www.w3.org/1999/02/22-rdf-syntax-ns#"
   xmlns:svg="http://www.w3.org/2000/svg"
   xmlns="http://www.w3.org/2000/svg"
   xmlns:sodipodi="http://sodipodi.sourceforge.net/DTD/sodipodi-0.dtd"
   xmlns:inkscape="http://www.inkscape.org/namespaces/inkscape"
   version="1.1"
   id="SvgMunicipio"
   x="0px"
   y="0px"
   viewBox="0 0 460 1000"
   style="enable-background:new 0 0 460 1000;"
   xml:space="preserve"
   inkscape:version="0.91 r13725"
   sodipodi:docname="MUN_ID1214.svg"><metadata
     id="metadata10"><rdf:RDF><cc:Work
         rdf:about=""><dc:format>image/svg+xml</dc:format><dc:type
           rdf:resource="http://purl.org/dc/dcmitype/StillImage" /></cc:Work></rdf:RDF></metadata><defs
     id="defs8" /><sodipodi:namedview
     pagecolor="#ffffff"
     bordercolor="#666666"
     borderopacity="1"
     objecttolerance="10"
     gridtolerance="10"
     guidetolerance="10"
     inkscape:pageopacity="0"
     inkscape:pageshadow="2"
     inkscape:window-width="682"
     inkscape:window-height="480"
     id="namedview6"
     showgrid="false"
     inkscape:zoom="0.236"
     inkscape:cx="230"
     inkscape:cy="500"
     inkscape:window-x="0"
     inkscape:window-y="0"
     inkscape:window-maximized="0"
     inkscape:current-layer="svg" /><g
     id="g3"><path
       id="MUN_1214"
       d="m 204.7,52.1 2.1,1.3 5.2,-0.1 5,-0.1 4.9,-0.7 6.1,-0.7 6.7,-0.9 6,-2.2 3.8,-1.7 3.8,-3.1 3.2,-3 3.6,-3.9 3.1,-2.2 2.8,-1.8 2.8,-0.5 1.8,-0.1 2.2,-1 2.5,-0.9 1.7,-0.7 2.2,-1.3 1.5,-1.3 2.5,-1.8 4,-0.1 6.1,0.8 3.7,0.4 4.8,1.2 5,0.9 4.7,-0.1 8.5,-0.6 5.1,0.1 3.6,0.9 2.5,1.6 3.1,0.6 3.4,0.8 2.2,1.6 1,4 0.6,1.4 2.5,0.1 3.9,-0.1 5.3,-1.8 4.5,-2.1 2.2,-1.3 0.2,-0.2 75.9,34.8 -15.6,77.2 -28.3,97.4 -0.1,0.4 -0.2,3 -0.2,3.5 -0.8,2.2 0.1,2.2 -0.1,3.1 -0.6,1.9 -2.5,1.6 -0.5,0.9 0.5,1.5 0.2,1.3 -0.3,2.2 0.1,3.1 0.7,1 2.2,1.4 0.9,0.7 1.4,1.6 1.9,-0.1 1.4,-0.4 1.6,-0.4 0.8,0.5 0.7,1 1.1,1.8 0.3,3.6 -0.1,4.7 0,2.8 1,2.6 2,3 1,3.7 -0.1,3.8 -0.7,3.1 -0.4,2.4 0.1,2.5 0.5,1.6 1.3,2 1.9,2.5 2.2,2.5 2.1,2.3 2.4,1.5 2.1,0.3 1.3,1 0.9,1 0.8,2.9 0.4,2.5 1,1.7 0.9,1.6 0.7,1.9 0.4,1.9 1.2,4.3 2.1,1.4 1.2,1 1.1,2.1 0.1,2.5 1.1,2.5 1.6,4 0.5,3.7 0.1,2.6 1.4,6.1 2.6,8.1 1.8,4.1 0.4,2.1 0.1,2.8 -0.5,1.3 -0.9,2 -0.5,2.1 0,1.7 -0.9,2.5 -1,2.5 -0.4,2.1 -0.1,2.8 0.9,1.9 1,1.8 2,1.4 1.8,0.3 -1.9,62.7 -5.4,182.6 33.1,76.2 -47.6,111.6 -2.5,1.6 -62.6,42.5 -73.6,50.1 -106.4,72.4 L 36.6,925.7 0.4,776.4 0,774.8 24.3,723 l 0.1,-2.7 3.1,-69.9 5.9,-136 0.1,-5.5 -0.4,-0.7 2.2,-5.4 10.7,-37.1 7,-24.2 28.2,-64.2 38.3,-87.3 0,-23.9 -9.5,-6.2 -3.5,-8.5 -4.2,-6.9 -10.5,-7 -2.8,-1.1 -4.1,0.4 -5,1.9 -4,1.8 -2.6,-3.1 -2.1,-3.4 -2.4,-0.6 -2.6,0.4 -2.2,-0.6 -3.5,-3 -4.7,-0.1 -6.5,0.2 -2.8,-7 -4.9,-1.4 -2.4,-3.4 -3.7,-3.1 -1.8,-1.9 -0.6,-3.8 -0.7,-2.8 -2.9,-3.8 -1.7,-2.6 -2.2,-1.9 -0.2,-5.5 2.2,-1.3 1.8,-2.9 2.4,-2.8 3.5,-3.3 3.1,-4.9 1.9,-3.4 1.2,-6.2 0.1,-4.9 -0.8,-4.9 -1,-6.5 0,-5.2 0.6,-4.7 1.9,-3.4 2,-4.6 2.3,-3.6 1.3,-4.1 2.4,-5.6 0.3,-5.2 0.7,-6.1 1.6,-4.1 2.2,-1.9 4.1,-1.6 4,-2.3 2.5,-1.7 1,-1.9 0.7,-4.6 0.1,-4.2 0.7,-3.3 1.5,-1.8 4,-2.2 2.5,-2.6 1.3,-4 1.3,-5.5 1,-4.1 1.9,-3.7 1.6,-3.4 2.3,-2.5 2,-1.3 2.2,-1.3 3.4,0 3.7,1.2 3.6,1.4 4.3,1.5 4.5,1.1 6.1,1.1 4.3,-0.6 5.3,-1 5.4,-1.7 5.5,-2.3 2.8,-1.3 2.7,-1.6 0.9,-0.9 1.6,-1.6 2.9,-3.4 2.2,-2.5 2.2,-1.6 2.8,-2.3 4,-3.1 3.5,-4.6 2.8,-2.9 1.9,-3.7 2.5,-3.1 0.9,-3.5 0.2,-4 0.4,-3.1 1.9,-1.7 2.3,-0.5 3.2,1.9 3.4,2.8 3.7,4.4 2.9,3.7 1.9,3.1 1.7,3.3 2.3,6.1 1.3,4 1.7,2.1 0.9,2.5 1.4,3.5 2.2,4.9 2.4,3.1 1.3,-0.1 z"
       inkscape:connector-curvature="0"
       class="DEP_12 ZON_04" /></g></svg>