<?xml version="1.0" encoding="UTF-8" standalone="no"?>
<!-- Generator: Adobe Illustrator 19.2.0, SVG Export Plug-In . SVG Version: 6.00 Build 0)  -->

<svg
   xmlns:dc="http://purl.org/dc/elements/1.1/"
   xmlns:cc="http://creativecommons.org/ns#"
   xmlns:rdf="http://www.w3.org/1999/02/22-rdf-syntax-ns#"
   xmlns:svg="http://www.w3.org/2000/svg"
   xmlns="http://www.w3.org/2000/svg"
   xmlns:sodipodi="http://sodipodi.sourceforge.net/DTD/sodipodi-0.dtd"
   xmlns:inkscape="http://www.inkscape.org/namespaces/inkscape"
   version="1.1"
   id="SvgMunicipio"
   x="0px"
   y="0px"
   viewBox="0 0 1000 415.5"
   style="enable-background:new 0 0 1000 415.5;"
   xml:space="preserve"
   inkscape:version="0.91 r13725"
   sodipodi:docname="MUN_ID1218.svg"><metadata
     id="metadata10"><rdf:RDF><cc:Work
         rdf:about=""><dc:format>image/svg+xml</dc:format><dc:type
           rdf:resource="http://purl.org/dc/dcmitype/StillImage" /></cc:Work></rdf:RDF></metadata><defs
     id="defs8" /><sodipodi:namedview
     pagecolor="#ffffff"
     bordercolor="#666666"
     borderopacity="1"
     objecttolerance="10"
     gridtolerance="10"
     guidetolerance="10"
     inkscape:pageopacity="0"
     inkscape:pageshadow="2"
     inkscape:window-width="682"
     inkscape:window-height="480"
     id="namedview6"
     showgrid="false"
     inkscape:zoom="0.409"
     inkscape:cx="500"
     inkscape:cy="207.75"
     inkscape:window-x="0"
     inkscape:window-y="0"
     inkscape:window-maximized="0"
     inkscape:current-layer="svg" /><g
     id="g3"><path
       id="MUN_1218"
       d="m 497.1,161.3 38.8,3.3 85.5,-57.6 2.5,-2.2 0.7,-1.2 0.9,-1 0.6,-0.7 1.2,-1 0.7,-0.9 0.3,-0.8 0.8,-2.6 0.8,-1.3 1.2,-1.9 1.7,-2.3 2.1,-3.1 1.7,-1.4 1.7,-2 1.6,-2.8 1.2,-2.4 1.4,-3.6 1,-2.9 0.5,-2.8 0.7,-3.2 0.7,-1.9 1.2,-2.1 1.7,-1.7 2.1,-1.2 1.2,-1.3 1.2,-1.4 1.2,-0.6 1.8,-0.7 2.3,-0.2 3.2,-0.1 3.1,-0.6 2.1,-0.4 2.1,-0.2 2.2,-0.5 1.7,-0.5 1.1,-0.5 1.2,-1.1 1.2,-2.4 1.2,-2.4 1.9,-3.5 2.6,-3.3 1.4,-1.7 1.4,-1.8 143.4,82.5 172.2,99.3 -251.8,43.7 -344.7,60 -45.6,32.7 -0.2,0.1 -69.9,31.5 -2.1,0.9 -29.9,-6.8 0.7,-1.4 0.6,-1.1 -15.5,-4.8 -10.7,-2.5 -7.9,-0.4 -1.2,1.9 -0.1,0.5 -2.3,12.1 -1.2,5.3 -8.4,8.8 -6,7.7 -4.8,5.6 -2.6,3.1 -1.1,-0.5 -5.1,-1.2 -5,-0.3 -3.1,0.2 -3.9,0.4 -4.3,0.4 -2,0.2 -4.5,-0.9 -3,-1 -3.3,-1.5 -2.9,-1.4 -3.1,-1.2 -1.1,0.6 -0.7,0.7 -1.2,-1.5 -1.4,-2.9 -3.3,-0.6 -4.1,-0.5 -6.9,-0.2 -3.6,-0.2 0,0 0,-4.5 0.1,-5.8 -0.3,-2.6 -0.5,-2.4 -0.8,-2.9 -1.7,-3.8 -1,-3.1 -1.5,-5 -1,-2.9 -0.2,-1.9 -0.3,-2.9 -0.7,-3.9 -3.2,1.3 -3.5,0.3 -2.1,0.2 -3.4,0 -4.6,-1.1 -2.5,-0.1 -3.2,0.5 -4.1,0.7 -5.6,0.7 -2.6,-0.7 -3.1,-1.2 -2.8,-1.6 -7.4,-3.5 -4.2,-2.1 -2,-2.2 -3.1,-4.5 -2.5,-4.8 -2.6,-5.1 -3.1,-5.8 -4.1,-3.3 -3.6,-3.2 -4.8,-4.5 -3,-3.1 -3.8,-3.8 -2.8,-3.1 -3,-0.7 -5,-0.9 -1.8,-1.2 -3.3,-2.1 -2,-1.3 -2.3,-1 -2.1,-1 -3.1,-1.3 -4.3,-2.2 -6.2,-6 L 2,293 0.7,290.7 0,288.5 51.8,208.4 50.9,174.8 47.1,48 45.7,0 l 117.2,55 126.5,59.4 0.2,0.1 0,0 117.2,38.9 90.3,7.9 z"
       inkscape:connector-curvature="0"
       class="DEP_12 ZON_04" /></g></svg>