<?xml version="1.0" encoding="UTF-8" standalone="no"?>
<!-- Generator: Adobe Illustrator 19.2.0, SVG Export Plug-In . SVG Version: 6.00 Build 0)  -->

<svg
   xmlns:dc="http://purl.org/dc/elements/1.1/"
   xmlns:cc="http://creativecommons.org/ns#"
   xmlns:rdf="http://www.w3.org/1999/02/22-rdf-syntax-ns#"
   xmlns:svg="http://www.w3.org/2000/svg"
   xmlns="http://www.w3.org/2000/svg"
   xmlns:sodipodi="http://sodipodi.sourceforge.net/DTD/sodipodi-0.dtd"
   xmlns:inkscape="http://www.inkscape.org/namespaces/inkscape"
   version="1.1"
   id="SvgMunicipio"
   x="0px"
   y="0px"
   viewBox="0 0 1000 885.9"
   style="enable-background:new 0 0 1000 885.9;"
   xml:space="preserve"
   inkscape:version="0.91 r13725"
   sodipodi:docname="MUN_ID1204.svg"><metadata
     id="metadata10"><rdf:RDF><cc:Work
         rdf:about=""><dc:format>image/svg+xml</dc:format><dc:type
           rdf:resource="http://purl.org/dc/dcmitype/StillImage" /></cc:Work></rdf:RDF></metadata><defs
     id="defs8" /><sodipodi:namedview
     pagecolor="#ffffff"
     bordercolor="#666666"
     borderopacity="1"
     objecttolerance="10"
     gridtolerance="10"
     guidetolerance="10"
     inkscape:pageopacity="0"
     inkscape:pageshadow="2"
     inkscape:window-width="665"
     inkscape:window-height="480"
     id="namedview6"
     showgrid="false"
     inkscape:zoom="0.26639575"
     inkscape:cx="500"
     inkscape:cy="442.95001"
     inkscape:window-x="0"
     inkscape:window-y="0"
     inkscape:window-maximized="0"
     inkscape:current-layer="svg" /><g
     id="g3"><path
       id="MUN_1204"
       d="m 480.8,40 -0.1,2.5 1.1,1.4 0.7,1.6 0.4,2.3 0.1,1.7 -0.2,2.2 0.3,2.2 -0.1,2 0.1,1.6 0.2,2 0.5,3.7 1.2,0.8 1.8,1.2 0.6,1.3 0.7,1.8 0.7,2.6 0,2.7 -1.2,1.8 -1.1,1.7 -0.2,1.7 0.2,3.3 1.6,5 0.9,2.7 2.2,2 1.1,0.9 1.9,1.7 2,1.6 1.2,1.2 2.3,2.7 1.5,1.7 2.1,1.5 2.3,1.7 0.8,1.3 0.1,0.5 0.2,2 -0.7,2.4 0.4,0.7 1.2,1.7 1.3,1.2 2.4,1.1 1.7,1.1 1.8,1.2 2.1,1.6 1.3,1 1.7,1.5 1.2,0.9 1.6,1.8 1.4,1.6 0.6,1.2 0,0 -1.2,3.3 -1.2,3.6 0.2,2.8 0.2,2.1 48.2,-44.2 24,28.4 -0.4,2.4 -0.9,1.1 -0.7,6 0.6,4.8 0.5,2.8 1.7,0.8 1.3,-1.2 1.3,-1 2.6,1.6 3,1.2 2.9,1.5 3.6,0.9 2.3,0.2 3.1,1.3 2.2,3 2,2.2 2.3,1.4 4.9,0 3.5,0.2 2.8,1.3 4,2.6 4.5,2.6 2.4,1.2 2.9,1.2 1,0 2.1,4.2 3.8,3.1 3.3,2.1 1.3,0.7 15.5,75 86.2,85.1 0.2,1.1 30.7,136.9 183.6,74 29.3,8.2 0.1,2.8 -0.9,4.9 0.2,2 1.7,4.1 2.5,4.6 3.1,3 1.2,1.8 0.7,1.9 0.2,1.3 -0.5,3.3 -0.2,2.5 -0.9,1.1 -2,1.8 -2.6,1.7 -1.7,1.2 -1.7,-1.4 -1.2,-0.2 -5.2,0.4 -2.7,1 -2,-0.2 -1.6,-0.2 -2.7,-2 -2.5,-1.1 -1.8,-1.3 -2.1,0.1 -8.9,4.3 -4.9,2.2 -2.6,2.2 -1.7,0.5 -1.1,0.7 -2.3,0.9 -2.7,-0.2 -1.9,-0.2 -2.2,-1.3 -1.7,-1.5 -1.7,-1.5 -2.6,-0.2 -1.8,-0.7 -1.7,0.5 -0.7,0.7 -1,0.7 -0.7,1.4 -0.4,1.6 0.5,2.9 0.5,1.3 0.1,2 0.5,3.1 0.4,2.3 0.3,3.6 -1.2,2 -0.2,2.2 -1,2.4 -1.1,2.4 -1.9,1.5 -1.8,2.3 -4.8,3.5 -6.1,4.8 -2.5,1.5 -1.5,1.5 -0.2,1.5 -0.4,1.6 0.9,2.1 2.3,0.7 1.7,0.9 1.2,1.1 0.4,1.5 0,1.7 -1.9,1.7 -1.2,1 -2.5,0.7 -3.3,-0.2 -2.5,-0.7 -0.1,-2.1 -0.7,-2.2 -1.1,-1.5 -0.6,-0.7 -1.5,-1.5 -1.5,-1.2 -1.5,-1.6 -0.9,-0.8 -1,-1 -3.1,0.5 -1.3,0.6 -1.3,0.1 -0.8,1.8 -0.8,2 -0.8,1.9 -0.7,1.6 -0.9,1.1 -1.2,1.4 -1.5,2.2 -1.6,1.8 -0.8,0.7 -0.3,1.2 0.2,1.3 0.3,1.9 0.2,2.4 -0.6,2.2 -0.9,1.7 -1.1,1.2 -2.2,0 -2.4,-0.2 -1.8,0.4 -1.6,0.7 -3.1,1.5 -2.1,1.7 -1.2,1.2 -0.7,0.7 -0.1,1.1 0.7,1.2 0.9,1.1 1.4,1.8 1.9,3.1 -0.7,2.2 -1.2,2 -1,1.8 -1.1,2.1 -1.2,2.2 -0.9,2.5 -1.5,2.2 -0.9,2 -0.8,2 -0.5,1.2 -0.6,1.7 -0.3,1.7 -1.7,3.2 -0.7,2.1 -0.7,2.9 -2.2,3.1 -0.7,2.9 0,1.5 0.1,2.5 0,1.6 -0.6,4.1 -0.4,2.4 -0.6,1.8 -0.7,0.8 -0.7,1.5 -0.5,0.7 -1.2,1.7 -1.2,2.1 -1.9,2 -2.2,3 -1.8,2.1 -0.2,0.7 0.3,2.9 0.1,1.3 1.2,1.1 1.1,0.2 0.2,0.2 2.2,0.6 1.5,0.3 2.4,-0.7 2.4,-0.3 2.1,0.6 1.7,0.5 1.7,1.5 0.9,1.6 1,2.5 0.9,2.6 -3.1,0.1 -2.9,0.6 -2,0.1 -1.5,0.2 -1.8,0.8 -2.5,3.1 -1,1.7 -1.1,1 -2.6,1.2 -1.7,0.7 -2.1,0.1 -1.3,1.2 -1.3,0.2 -1.6,1.1 -1.7,0 -1.9,-2.6 -1,-0.9 -0.4,-1.6 -0.6,-1.8 -0.3,-1.5 -0.3,-1.2 -1.4,-0.9 -1.7,-0.2 -2.5,-0.2 -3.2,-0.7 -2.1,-0.5 -1.2,-0.5 -1,-1 -0.6,-1.2 -0.3,-1.3 -0.2,-1.5 -0.4,-1 -0.9,-1.1 -0.5,-0.7 -0.9,-1.1 -0.4,-0.5 -0.2,-1.3 -0.2,-1.2 0,-1.1 -0.3,-0.9 -0.5,-0.9 -0.4,-1.2 0.1,-1.7 -0.2,-0.9 -2.1,-0.8 -1.6,-0.8 -1.7,-0.6 -1.6,-0.2 -1.4,-0.3 -1.1,-1.5 -0.6,-0.8 -8,1.7 -16.8,3.8 -21.7,7.4 -0.2,0.1 5.7,8 1.4,2.8 2.3,3 1.8,4.5 1.5,4 0.7,4.7 -0.3,2.8 -1.7,1.9 -2.6,-0.3 -4.1,-0.1 -2.8,0.5 -1.9,0.7 -0.7,0.3 -1.1,0.7 -1.9,1.3 -1.4,1.2 -1.2,0.5 -0.4,0.4 -0.5,0.2 -0.7,0.7 -1.1,-1.1 -1,-0.9 -0.8,-1.3 -1.1,-0.7 -1.6,-1.2 -2.6,-0.3 -1.6,-0.6 -1.3,0.8 -1,1.5 -1.1,1.4 -1.5,2.5 -1.7,0.6 -1.2,0.3 -2,0.5 -1.5,0.5 -1.2,0.6 -0.7,0.2 -0.6,0.1 -1.2,0.3 -0.7,0.2 -0.3,0 -0.3,0.1 -0.6,0.2 -0.2,0.2 -1,0.2 -0.4,-0.1 -0.3,0 -0.6,-0.1 -1,-0.2 -1.3,-0.4 -2.9,-0.7 -3.7,-1 -1.9,-0.3 -1.2,-0.5 -0.8,-0.2 -1.9,-0.5 -1.3,-0.4 -1.3,-0.3 -1,-0.7 -0.5,-0.7 -0.2,-1.2 -0.1,-0.4 -0.2,-0.5 -0.3,-0.4 -0.2,-0.7 -0.2,-0.5 -0.2,-0.4 -0.2,-0.5 -0.4,-0.6 -0.2,-0.4 -0.2,-0.7 -0.3,-1 -0.7,-1.3 -0.1,-0.8 -0.2,-0.7 -0.4,-1.5 -0.5,-1.2 -0.2,-0.9 -0.3,-1.2 -0.7,-0.7 -2,-0.2 -2.8,-0.2 -5.2,-0.5 -5,-0.1 -3.2,-0.2 -2.1,-2 -2.2,-1.3 -4.2,-0.3 -1.8,0.8 -4.1,0.7 -3.3,1.7 -1.5,1.2 -3.1,-0.2 -5,-1 -1.6,-2.2 -2.6,-2.6 -2.2,-2.3 -3.3,-3.2 -0.5,-0.3 -2.8,1.3 -2.6,1.2 -1.3,-0.4 -1,-1.7 -0.4,-2.5 -0.9,-1.2 -2,0.2 -1.5,-0.4 -0.7,-0.2 -2.1,-0.2 -0.7,-0.9 -0.8,-1 -0.4,-0.6 -0.7,-0.8 -0.2,-0.1 -0.5,-0.2 -0.2,-0.1 -1.1,-0.3 -0.4,0 -0.6,0 -1.3,-0.3 -0.6,-0.5 -0.4,-0.6 -0.4,-0.4 -0.2,-0.4 -0.6,-0.6 -0.7,0 -1.1,0.7 -1,0.4 -0.9,0.4 -1.1,-0.7 -0.7,-0.5 -1,-0.7 -1.2,-0.9 -0.7,-0.4 -1.2,-0.9 -1.4,-1.2 -0.8,-0.8 -0.5,-0.7 -0.5,-1.2 -0.6,-1 -0.7,-1.7 -1.3,-1 -1.2,-0.2 -2.2,0.3 -1.8,0.2 -2.3,0.5 -3.4,0.2 -4.4,1.5 -1.2,1.8 -2.2,3.3 -2.6,4.8 -1.7,1.7 -2.2,1.1 -1.4,0.2 -1.6,-0.2 -3.2,0.7 -1.4,-0.2 -3.7,-1.6 -1.6,0.2 -2.6,0.2 -2.3,0.2 -2.2,0.2 -2.9,1.4 -3.7,1.1 -0.2,2.6 -1.9,1.2 -2.6,1.7 -3.5,2.7 -2.1,-0.8 -0.9,3.1 -2.1,1.9 -1.3,1.1 -1,1.2 -0.8,-0.3 -2.4,-0.9 -3.1,-0.6 -2.3,-0.2 -2.6,1.8 -4.2,2.4 -1.8,1.9 -0.7,0.7 -0.7,2.6 -1.6,1.7 -1.6,2.3 -2,1.8 -1.3,2.3 -1.7,2.2 -1.9,2 -1.6,1.6 -1.6,1.3 -1,2.3 -0.6,1.9 -1.1,1.2 -0.7,1.2 -1,1.2 -16.4,-3.4 -1.8,0.1 -1.1,0.1 -6.3,0.6 -5.6,0.8 -2.9,1.9 -2.9,2.7 -2.6,4.5 -3.1,4.6 -0.6,1.7 -2.3,2.6 -2.5,2.6 -2,1.7 -5.1,2.6 -4.3,3.6 -2.2,2.6 -2.4,1 -5,1.7 -2.1,0.5 -2.3,1.6 -1.9,0.8 -3.3,1 -5.1,-0.4 -2.5,-0.1 -3.3,-0.6 -2,-0.6 -1.1,-0.3 -3.6,0.1 -1.7,0.2 -5.9,3.1 -4.8,2.9 -3.3,1.4 -3.5,1.5 -4.4,-0.6 -7.8,0.2 -5,0.2 -3.6,-0.2 -3.3,0.7 -7.4,2.7 -2.4,-4.8 -2.9,-7.3 -2.9,-6 -0.4,-3.6 0,-1.2 -3.1,0.2 -4.1,0.2 -2.1,1.1 -42.1,12.9 0.1,-19.2 -31.5,1 -0.5,-12.3 -5.5,0.9 -2.6,1.2 -3.1,1.8 -2.6,1.7 -2.9,1 -3.9,0.2 -3.8,1.9 -2.3,1.1 -0.8,0.4 -2.3,-0.2 -1.2,-0.2 -1.8,-1.1 -1.3,-0.7 -1.7,-0.1 -2,0.4 -2.2,-0.7 -1.6,-1.7 -1.8,-1.1 -3.2,-0.6 -2.2,0.1 -3.1,-1 -3,-2.2 -2.7,-1 -1.9,-0.3 -1.9,-0.1 -3.7,-0.2 -2.6,-0.7 -2.2,-0.7 -2.5,-1.4 -2.8,-1.2 -1.6,0.2 -1.9,0 -4,0.7 -2.8,0.6 -5.5,1.2 -1.4,-0.7 -1.8,-0.8 -2.2,-1 -1.2,-0.5 -1.2,0.6 -0.6,1.7 -2.3,1.2 -1.3,0.3 -2.6,0.4 -2,0.1 -3,-0.3 -3.2,-0.1 -2.8,0.7 -1.1,1.1 -2.2,0.5 -0.7,0.2 -2.3,1.6 -0.5,1.7 -0.2,1.9 -1.1,1.5 -1.9,0.6 -1.9,0.8 -4,2.9 -0.7,0.8 -0.1,1.1 -0.7,1.9 -0.2,1.2 0.6,1.4 0.1,1 -1.1,1.6 -1.2,0.5 -2.2,-0.9 -1.5,0.1 -1.8,0.9 0,1.5 -1.2,2.2 -0.7,1.9 -0.5,1.7 -1.1,1.2 -1.5,0.5 -1.4,0.1 -2.1,-1.7 -1.7,-1.3 -1.9,0.3 -1.5,0.9 -2.6,0.4 -2.2,0 -1.7,0 -1.2,1 0.1,1.7 0.3,1.6 -0.6,1.7 -1.5,0.9 -2,0.8 -1.5,1.3 -1.6,0.7 -2.1,-0.5 -2.2,-1.3 -2.2,-0.2 -2.1,0.7 -2.2,1.2 -0.7,1.7 0.9,2.2 1,1.9 0.1,1.6 -1.7,1.2 -2.7,-0.2 -1.7,-1.1 -2.2,-1.6 -1.3,-0.6 -2.6,1.1 -1.1,2.9 -0.5,4.1 -0.8,4 -0.6,3.4 -0.4,2.5 0,5.1 -0.4,2.3 -0.8,1.9 -6.3,2.9 -2.6,1.6 -2.7,3.3 -1.8,3.2 -3.1,3.9 0.3,-1 78.6,-189.9 26.7,-64.6 L 56,540.2 46.3,505.3 22,417.4 13,282.2 64.8,141 l 0.7,-2.2 0.1,-0.2 73.8,-46 96.9,-58.9 61.9,-11 57.4,-10.1 40.7,-7.1 2.1,-0.3 82.4,34.8 z"
       inkscape:connector-curvature="0"
       class="DEP_12 ZON_04" /></g></svg>