<?xml version="1.0" encoding="UTF-8" standalone="no"?>
<!-- Generator: Adobe Illustrator 19.2.0, SVG Export Plug-In . SVG Version: 6.00 Build 0)  -->

<svg
   xmlns:dc="http://purl.org/dc/elements/1.1/"
   xmlns:cc="http://creativecommons.org/ns#"
   xmlns:rdf="http://www.w3.org/1999/02/22-rdf-syntax-ns#"
   xmlns:svg="http://www.w3.org/2000/svg"
   xmlns="http://www.w3.org/2000/svg"
   xmlns:sodipodi="http://sodipodi.sourceforge.net/DTD/sodipodi-0.dtd"
   xmlns:inkscape="http://www.inkscape.org/namespaces/inkscape"
   version="1.1"
   id="SvgMunicipio"
   x="0px"
   y="0px"
   viewBox="0 0 1000 667.9"
   style="enable-background:new 0 0 1000 667.9;"
   xml:space="preserve"
   inkscape:version="0.91 r13725"
   sodipodi:docname="MUN_ID1220.svg"><metadata
     id="metadata10"><rdf:RDF><cc:Work
         rdf:about=""><dc:format>image/svg+xml</dc:format><dc:type
           rdf:resource="http://purl.org/dc/dcmitype/StillImage" /></cc:Work></rdf:RDF></metadata><defs
     id="defs8" /><sodipodi:namedview
     pagecolor="#ffffff"
     bordercolor="#666666"
     borderopacity="1"
     objecttolerance="10"
     gridtolerance="10"
     guidetolerance="10"
     inkscape:pageopacity="0"
     inkscape:pageshadow="2"
     inkscape:window-width="682"
     inkscape:window-height="480"
     id="namedview6"
     showgrid="false"
     inkscape:zoom="0.3533463"
     inkscape:cx="500"
     inkscape:cy="333.95001"
     inkscape:window-x="0"
     inkscape:window-y="0"
     inkscape:window-maximized="0"
     inkscape:current-layer="svg" /><g
     id="g3"><path
       id="MUN_1220"
       d="m 138,63.5 2.3,0.7 2.7,-0.7 2.6,-1.2 2.6,-1.6 2,-1.7 2.6,-1.6 0.7,-0.4 1.4,-0.1 2,-0.3 2.9,-0.3 1.6,0.1 2.5,0.1 2.2,0.1 1.4,0.1 1,-0.1 2.3,0.1 1.9,0.3 3.9,-4.9 0.1,-3.6 0.1,-3.2 0.6,-3.8 0.4,-3.2 2,1 1.9,1.2 1.7,0.7 1.9,1.2 4.1,1.6 2.9,1.9 4.8,3.3 7.8,6.9 13.1,13 5.9,5.2 4.6,4.6 3.8,4.8 2.9,3 1.6,1.7 3.3,3.3 2.5,3 2,1.2 1.6,1.2 2.3,1.4 1.9,1.4 1.7,0.9 2.3,0.6 3.3,0.6 1.3,-0.1 1,-0.1 1.4,-0.6 1.4,-0.3 1.6,-0.7 1.3,-0.6 0.7,-0.1 1.4,-0.3 1.2,-0.4 1.6,-0.3 1.2,0 1,0 1,0.1 1,-0.1 1.2,0.1 0.9,0.6 4.2,2.5 4.8,0.4 2.7,-0.9 3.2,-2.2 1.4,-1.3 0.4,-0.3 3.9,-1.2 80.7,-5.1 0.4,-0.1 265.5,-16.8 101.9,45.4 20.3,2.5 10.7,1.6 13.9,1.9 11.6,-0.3 12.2,-0.4 8.8,-2.5 6.1,0 11.4,0.1 6.7,0 5.4,-0.7 6.9,-1.4 10.1,-3.3 6.2,-3 5.4,-1.2 7.5,0.4 7.5,2.2 4.6,2.5 3.9,0.9 4.2,-0.4 8.1,-1.2 14,-0.4 11.6,-0.4 10.3,1.3 9.4,0.3 8.5,-0.7 9.3,0.1 8.1,-1.2 5.4,-0.7 5.6,-0.4 -5.5,17.8 -5.9,5.2 -5.8,8 -6.7,9.6 -4.1,5.5 -4.8,8.2 -6.9,12.7 -4.2,6.9 -3,1.2 -3.3,-0.7 -3.6,-3 -4.6,-2.3 -5.4,-1.6 -6.5,0 -4.2,1.6 -3.8,4.1 -2.2,3.2 0,2.6 0.7,4.8 0.9,4.5 -1.3,4.5 -2.5,5.1 -2.6,3.2 -2.6,3.3 3.5,1.2 6.1,-1.4 4.8,-1.9 7.8,-0.1 6.2,1 2.9,1.6 1,5.6 0.9,2.9 1.3,2.9 5.1,7.5 4.9,9.7 3.9,8.4 2.3,8.5 1.6,12.7 0,9.4 -1.2,6.2 -3,7.5 -3.2,5.6 -5.4,8.5 -56.7,71.5 -103.1,132 -79.3,98.8 -48.9,64.3 -246.6,6.5 -16.9,0.4 L 247.3,693 22,618.1 l 6.4,-18.2 3.9,-5.4 2.3,-9.3 1.3,-3.3 2.6,-4.1 -0.4,-1.6 -1.4,-3 1.4,-4.5 2.7,-3.3 -0.1,-3.3 -1.9,-8 -1.9,-6.8 -0.1,-4.3 1.6,-2.3 5.2,-4.2 6.2,-2 5.8,-3 2.3,-3.6 1.6,-5.1 -0.4,-3.6 -2.6,-3.5 -1.9,-3.5 1.6,-4.3 2.6,-1.4 7.4,-0.6 5.2,0.4 5.4,2.2 3.2,-0.9 7.1,-1.4 9.1,-4.2 6.4,-4.6 3.9,-5.6 5.6,-3 4.3,-4.5 1,-4.5 1.2,-5.1 4.6,-5.1 2,-6.5 1.6,-6.4 4.6,-7.8 4.5,-5.8 2.3,-5.2 2.6,-3.2 -128.2,-56 -11.7,-5.2 -0.9,-0.4 109.8,-348 4.1,0.3 3.9,1.2 2,3.9 2.7,4.3 1.3,3.2 2.9,4.8 2.2,4.2 1.3,1.3 2.5,0.9 3.2,1.9 1.3,1 1.3,3.6 -0.5,7.8 z"
       inkscape:connector-curvature="0"
       class="DEP_12 ZON_04" /></g></svg>