<?xml version="1.0" encoding="UTF-8" standalone="no"?>
<!-- Generator: Adobe Illustrator 19.2.0, SVG Export Plug-In . SVG Version: 6.00 Build 0)  -->

<svg
   xmlns:dc="http://purl.org/dc/elements/1.1/"
   xmlns:cc="http://creativecommons.org/ns#"
   xmlns:rdf="http://www.w3.org/1999/02/22-rdf-syntax-ns#"
   xmlns:svg="http://www.w3.org/2000/svg"
   xmlns="http://www.w3.org/2000/svg"
   xmlns:sodipodi="http://sodipodi.sourceforge.net/DTD/sodipodi-0.dtd"
   xmlns:inkscape="http://www.inkscape.org/namespaces/inkscape"
   version="1.1"
   id="SvgMunicipio"
   x="0px"
   y="0px"
   viewBox="0 0 717.4 1000"
   style="enable-background:new 0 0 717.4 1000;"
   xml:space="preserve"
   inkscape:version="0.91 r13725"
   sodipodi:docname="MUN_ID1211.svg"><metadata
     id="metadata10"><rdf:RDF><cc:Work
         rdf:about=""><dc:format>image/svg+xml</dc:format><dc:type
           rdf:resource="http://purl.org/dc/dcmitype/StillImage" /></cc:Work></rdf:RDF></metadata><defs
     id="defs8" /><sodipodi:namedview
     pagecolor="#ffffff"
     bordercolor="#666666"
     borderopacity="1"
     objecttolerance="10"
     gridtolerance="10"
     guidetolerance="10"
     inkscape:pageopacity="0"
     inkscape:pageshadow="2"
     inkscape:window-width="682"
     inkscape:window-height="480"
     id="namedview6"
     showgrid="false"
     inkscape:zoom="0.236"
     inkscape:cx="358.70001"
     inkscape:cy="500"
     inkscape:window-x="0"
     inkscape:window-y="0"
     inkscape:window-maximized="0"
     inkscape:current-layer="svg" /><g
     id="g3"><path
       id="MUN_1211"
       d="m 540.5,3.6 4.1,1.5 5.7,0.1 3.4,1.4 4.8,1.6 4.6,2.9 4.4,5 2.9,4.7 3,4.7 2.9,4.1 2.5,2.9 3,1.9 1.2,0.8 2.4,-0.1 0.2,5.6 2.2,1.9 1.7,2.6 2.9,3.8 0.8,2.9 0.6,3.8 1.8,2 3.8,3.2 2.4,3.4 5,1.4 2.8,7.1 6.6,-0.2 4.7,0.2 3.5,3 2.3,0.6 2.6,-0.4 2.4,0.6 2.1,3.4 2.6,3.1 4,-1.8 5.1,-1.9 4.1,-0.4 2.8,1.1 10.5,7.1 4.2,6.9 3.5,8.5 9.6,6.3 0,24.1 -38.6,87.9 -28.4,64.6 -7.1,24.3 -10.8,37.4 -2.3,5.4 0.5,0.7 -0.2,5.5 -6,137 -3.1,70.4 -0.1,2.7 -24.5,52.2 0.5,1.7 36.9,150.3 -27.3,63.8 -0.1,0.2 -15.4,36 -42.9,12.8 -88.4,2.4 -104.6,2.9 -2.3,0 -5,-0.9 -6,0.9 -5,-1.4 -3.8,0 -2.9,-0.9 -4.1,-1.4 -5,-1.4 -2.8,0.5 -2.3,-0.5 -3.8,-3.2 -3,-3.5 -1.5,-3.4 -1.1,-4.1 -1.5,-2.7 -2,-2.3 -4,-2.5 -4.1,-0.5 -3,0 -3.7,-0.2 -2.8,0.8 -2.7,1.4 -1.5,2.4 -0.7,3.1 -0.9,3.8 -1.5,2.2 -2.7,2 -3.5,2.3 -3.4,1.8 -1.5,3 2.1,13.2 0.7,7.5 3.7,6.1 0.2,3.8 -0.7,3.8 -0.4,5.9 2.1,2.3 2.9,5.9 2.6,5.7 2.9,4.5 1.7,4.8 1.7,4.9 -1.3,2.3 -1.7,2.7 -0.6,1.7 1.2,4.9 0.1,8.1 -0.8,4.6 -1.4,4.1 0.1,5.2 -2.6,9.6 -3.4,1.2 -5.3,0.5 -3.8,-1.5 -6.3,-0.7 -3.6,-3.5 -3.5,-1.1 -5.7,-0.8 -2.6,-0.8 -2.3,-2.6 -2.2,-0.8 -1.3,-1.7 -1,-3.3 -1.1,-1.5 -2.5,-0.6 -2.3,-2.4 -2.9,-1.7 -1.1,0.3 -0.2,3.4 -0.7,0.2 -1.1,-2 -1.8,1.7 -1.2,0.3 -1.7,1.7 -1.7,-0.4 0.1,-2.3 -0.9,-1.2 -2.6,1.1 -1.6,0.5 -1.7,1.4 -1.2,-0.7 -1.7,-1.9 -0.9,0.2 -1.1,-0.1 -1.1,-0.8 -1,0.3 -1.4,0.7 -2,-0.2 -2,-1.9 -0.8,-0.7 -1.2,-2.2 -1.9,-1.9 -0.5,0.5 -1.1,1.2 -0.9,-0.5 -1.4,-0.8 -1,-0.2 -1.1,0.2 0.1,0.7 0.1,1.1 -0.4,0.3 -1.4,-0.2 -1.1,0.1 -2,-0.2 -1.4,0.1 -1.1,1.8 -1.8,1.7 -2,0 -1.5,1.5 -2,0.8 -0.5,-0.5 -3,-1.5 -0.7,-2.3 -1.6,-3 -1.7,-2 -1.4,-0.5 -1.8,-1.3 0.3,-4.8 -2,-2.3 -1.3,-0.8 -4,-3.5 -4.3,-3 -2,-1.7 -1.7,-3.3 -0.8,-3.8 -2.1,-0.7 -1,-2.3 -1.2,-4.1 -1.5,-2.6 -3,-1 -3.5,-1.5 -3,-0.8 -1.4,-1 -3.5,-2.3 -2.8,-2.5 -0.2,-3.4 -2.5,-2.5 -4.8,-0.3 -2.7,2 -2.9,2 -3.5,2 -5.6,1.5 -3.5,-0.8 -5.3,0 -9.6,5.3 -20.2,1.1 -5.2,3.2 -3.3,5 -1.3,10.1 -16.6,19 -13.5,8.9 -0.6,-3.2 -3.9,-20.1 -6.6,-26 -6.2,-23.2 9.6,-23.9 -1,-9 -2,-11.5 -1.7,-21 -0.4,-5.7 -2.6,-15.7 -9,-22.4 -1.7,-12.9 -0.5,-19.5 -0.8,-36.4 1.7,-16.9 2.5,-12.2 11.4,-19.5 6.4,-9.9 8.5,-13.2 3.8,-6 15.1,-13.6 13.4,-8.4 13,-6.9 4.8,-6.8 3.1,-9.7 0.8,-9.1 5.9,-9.2 11.6,-11.1 5.4,-8.6 8.3,-7.5 5.1,-10.2 11.3,-10 3.2,-10.8 -1.4,-6.1 -5.9,-11.5 -6.2,-12.4 -6.9,-12.3 -7.6,-6.6 -6.4,-5.2 -5.6,-6.7 -3.6,-6.2 -2.7,-10.6 1.5,-13.5 4.7,-16.9 4.6,-9.1 10.1,-11.2 14,-15.1 15.4,-13.8 13.1,-9.6 0.9,-0.6 30.6,-15.5 14.2,-7 1.3,-1.2 7.8,-7.7 9.5,-11 6.6,-9.8 0,-0.5 0.5,-8.4 -1.6,-10.4 -2.9,-9.6 -8,-14.3 -7,-10.6 -6.3,-10.5 -3.7,-7.5 -0.7,-7 -0.5,-12.1 1.2,-9.8 2.7,-8.1 5,-11 8.1,-9.5 11.8,-12.9 9.3,-8.7 8.7,-9.7 2.7,-6.3 1.6,-9.3 -0.3,-7.7 -3.5,-2.5 -4.6,-2.1 -9.8,-4.6 -3.9,-6.9 0.2,-11.2 4,-13.3 7.2,-10.8 7.8,-9.5 3.8,-7.1 3.8,-9.3 0.8,-9.8 3.9,-4.1 2.9,-5 7.3,-0.9 7.9,-2.6 4.2,-2.4 6.3,-1.1 5.9,0.3 10.5,3 6.6,2.7 5.1,2.4 0.5,2.3 0.9,3.7 0.7,1.7 3.6,2.4 5.6,1.9 5.1,3 9,4.6 6.8,2.9 6.9,2 7,2.4 5.5,1.7 4,2.2 4.4,1.5 5,1.4 5.2,1.2 5,1 3.3,0.5 4.9,1.7 3.7,1.7 2.5,1.6 2,3.2 0.8,0.9 1.1,2.2 2.5,4.7 1.1,2 2.2,6 2.9,6.5 3.1,6 2.1,3.4 4.1,2.9 2.6,1.7 4.7,0.3 5.3,-1.6 1.7,-2.5 1.2,-4.4 1.2,-5.4 2.7,-11.8 0.8,-7.2 2.3,-8.4 0.9,-6.9 0.4,-4 -1.4,-9.9 -1.4,-4 0,-3.8 -4,-14.2 -1.4,-4.6 0.7,-3.5 0.8,-4.1 0.6,-4.4 2.1,-2.4 2.7,-0.3 5.3,1.6 6.3,2.1 5.1,2.3 4.4,2.3 3.4,2.6 2.6,2.5 1.9,1.4 2.5,0.1 3.5,-1.1 3.1,-1.7 6.1,-2 4.9,-0.9 4.4,0.5 6.3,2 5.7,2.3 4.8,3.2 4.5,2.9 6.5,2.5 5.2,3.2 4.7,1.9 5,0.4 1.7,-0.5 2.8,-2.6 1.4,-3.2 0.8,-3.2 0.8,-3.5 0.5,-5.2 0.2,-5.5 0.7,-6.6 0.2,-3.6 1.1,-1.8 2.9,-1.7 3.5,-0.2 7.7,0.6 6.9,1 6.5,1.7 z"
       inkscape:connector-curvature="0"
       class="DEP_12 ZON_04" /></g></svg>