<?xml version="1.0" encoding="UTF-8" standalone="no"?>
<!-- Generator: Adobe Illustrator 19.2.0, SVG Export Plug-In . SVG Version: 6.00 Build 0)  -->

<svg
   xmlns:dc="http://purl.org/dc/elements/1.1/"
   xmlns:cc="http://creativecommons.org/ns#"
   xmlns:rdf="http://www.w3.org/1999/02/22-rdf-syntax-ns#"
   xmlns:svg="http://www.w3.org/2000/svg"
   xmlns="http://www.w3.org/2000/svg"
   xmlns:sodipodi="http://sodipodi.sourceforge.net/DTD/sodipodi-0.dtd"
   xmlns:inkscape="http://www.inkscape.org/namespaces/inkscape"
   version="1.1"
   id="SvgMunicipio"
   x="0px"
   y="0px"
   viewBox="0 0 1000 703.9"
   style="enable-background:new 0 0 1000 703.9;"
   xml:space="preserve"
   inkscape:version="0.91 r13725"
   sodipodi:docname="MUN_ID1203.svg"><metadata
     id="metadata10"><rdf:RDF><cc:Work
         rdf:about=""><dc:format>image/svg+xml</dc:format><dc:type
           rdf:resource="http://purl.org/dc/dcmitype/StillImage" /></cc:Work></rdf:RDF></metadata><defs
     id="defs8" /><sodipodi:namedview
     pagecolor="#ffffff"
     bordercolor="#666666"
     borderopacity="1"
     objecttolerance="10"
     gridtolerance="10"
     guidetolerance="10"
     inkscape:pageopacity="0"
     inkscape:pageshadow="2"
     inkscape:window-width="665"
     inkscape:window-height="480"
     id="namedview6"
     showgrid="false"
     inkscape:zoom="0.33527489"
     inkscape:cx="500"
     inkscape:cy="351.95001"
     inkscape:window-x="0"
     inkscape:window-y="0"
     inkscape:window-maximized="0"
     inkscape:current-layer="svg" /><g
     id="g3"><path
       id="MUN_1203"
       d="m 830.9,11.1 4.7,0.1 4.9,-1.8 3.4,-1.8 3.3,-2.3 2.4,-0.5 1.6,0.1 3.3,1.1 2.6,0.1 3,0.5 3.5,-0.4 4.5,-0.6 5.3,-0.6 5,0.1 3.3,0.1 3.9,0.5 4.7,1.1 4.2,1.1 3.7,0.8 3.3,0.5 3.8,-1 2.4,-1.1 4.5,-2.9 2.1,-0.6 3.7,-0.5 3.8,0.1 4.9,0.8 4.3,1.3 5,3 3.1,2.3 1.3,1.8 0.6,1.1 0.5,1.4 -2.8,2.9 -3.7,3.4 -1.8,6.7 -1.8,4.7 -1.9,3.9 -4,3.1 -4.2,3.4 -1.9,2.3 -1.3,5.2 -0.8,3.8 -4.3,6.4 -3.1,4.8 -3.7,5.8 -4.8,7.8 -0.8,1.4 -2,3.9 -0.1,5.2 0.8,4.8 0.4,4 0.8,3.1 1.4,4.4 2.5,3.9 3.8,3.7 3.7,7.6 2.8,6.9 1,7.8 0.9,6.7 -1,5.9 -1.3,6.4 -0.8,5.4 0.4,4.8 3.7,7.8 3,7.7 8.2,21 3.8,8.9 2.6,3.7 -1.3,7.3 -3.8,18.5 16.4,117.5 6.3,45.7 1.6,12.1 21.6,162.2 15.5,117.3 -4.9,0.4 -4.7,0.6 -7.1,1 -8.1,-0.1 -7.4,0.6 -8.2,-0.3 -8.9,-1.1 -10.1,0.4 -12.2,0.4 -7,1 -3.7,0.4 -3.4,-0.8 -4,-2.1 -6.5,-1.9 -6.5,-0.4 -4.7,1 -5.4,2.6 -8.8,2.9 -6,1.3 -4.7,0.6 -5.8,0 -9.9,-0.1 -5.3,0 -7.7,2.1 -10.6,0.4 -10.1,0.3 -12.1,-1.6 -9.3,-1.4 -17.6,-2.1 -88.6,-39.5 -231,14.6 -0.4,0.1 -70.3,4.4 -3.4,1 -0.4,0.3 -1.3,1.1 -2.8,1.9 -2.4,0.8 -4.2,-0.4 -3.6,-2.1 -0.8,-0.5 -1,-0.1 -0.9,0.1 -0.9,-0.1 -0.9,0 -1,0 -1.4,0.3 -1,0.4 -1.3,0.3 -0.6,0.1 -1.1,0.5 -1.4,0.6 -1.3,0.3 -1.3,0.5 -0.9,0.1 -1.1,0.1 -2.9,-0.5 -2,-0.5 -1.5,-0.8 -1.6,-1.3 -2,-1.3 -1.4,-1 -1.8,-1 -2.1,-2.6 -2.9,-2.9 -1.4,-1.5 -2.5,-2.6 -3.3,-4.2 -4,-4 -5.2,-4.5 -10.9,-11.4 -6.8,-6 -4.2,-2.9 -2.5,-1.6 -3.5,-1.4 -1.6,-1 -1.5,-0.6 -1.6,-1 -1.8,-0.9 -0.4,2.8 -0.5,3.3 -0.1,2.8 -0.1,3.1 -3.4,4.3 -1.6,-0.3 -2,-0.1 -0.9,0.1 -1.3,-0.1 -1.9,-0.1 -2.1,-0.1 -1.4,-0.1 -2.5,0.3 -1.8,0.3 -1.3,0.1 -0.6,0.4 -2.3,1.4 -1.8,1.5 -2.3,1.4 -2.3,1 -2.4,0.6 -2,-0.6 0.4,-6.8 -1.1,-3.1 -1.1,-0.9 -2.8,-1.6 -2.1,-0.8 -1.1,-1.1 -1.9,-3.7 -2.5,-4.2 -1.1,-2.8 -2.4,-3.8 -1.8,-3.4 -3.4,-1 -3.5,-0.3 L 159.7,554.4 36.8,420.5 -8.5,288.1 44,207.5 149.5,135 l 195.4,45.3 2.6,0.5 414.6,-131.2 40,-48.8 0.6,-0.8 3.9,0.6 5.2,1.3 4,1.4 3,2.1 3.8,2.8 2.4,1.8 2.8,0.5 3.1,0.6 z"
       inkscape:connector-curvature="0"
       class="DEP_12 ZON_04" /></g></svg>