<?xml version="1.0" encoding="UTF-8" standalone="no"?>
<!-- Generator: Adobe Illustrator 16.0.0, SVG Export Plug-In . SVG Version: 6.00 Build 0)  -->

<svg
   xmlns:dc="http://purl.org/dc/elements/1.1/"
   xmlns:cc="http://creativecommons.org/ns#"
   xmlns:rdf="http://www.w3.org/1999/02/22-rdf-syntax-ns#"
   xmlns:svg="http://www.w3.org/2000/svg"
   xmlns="http://www.w3.org/2000/svg"
   xmlns:sodipodi="http://sodipodi.sourceforge.net/DTD/sodipodi-0.dtd"
   xmlns:inkscape="http://www.inkscape.org/namespaces/inkscape"
   version="1.1"
   id="SvgMunicipio"
   x="0px"
   y="0px"
   width="714.548px"
   height="1000.086px"
   viewBox="64.473 118.23 714.548 1000.086"
   enable-background="new 64.473 118.23 714.548 1000.086"
   xml:space="preserve"
   inkscape:version="0.91 r13725"
   sodipodi:docname="MUN_ID0501.svg"><metadata
     id="metadata10"><rdf:RDF><cc:Work
         rdf:about=""><dc:format>image/svg+xml</dc:format><dc:type
           rdf:resource="http://purl.org/dc/dcmitype/StillImage" /></cc:Work></rdf:RDF></metadata><defs
     id="defs8" /><sodipodi:namedview
     pagecolor="#ffffff"
     bordercolor="#666666"
     borderopacity="1"
     objecttolerance="10"
     gridtolerance="10"
     guidetolerance="10"
     inkscape:pageopacity="0"
     inkscape:pageshadow="2"
     inkscape:window-width="682"
     inkscape:window-height="480"
     id="namedview6"
     showgrid="false"
     inkscape:zoom="0.23597971"
     inkscape:cx="357.27399"
     inkscape:cy="500.043"
     inkscape:window-x="174"
     inkscape:window-y="49"
     inkscape:window-maximized="0"
     inkscape:current-layer="svg" /><g
     id="g3"><path
       id="MUN_0501"
       d="m 301.439,118.511 0.982,0.842 0.702,0.562 -0.562,1.123 -0.982,2.808 1.965,3.931 3.089,5.896 2.105,3.51 1.685,3.509 0.562,1.404 -0.702,1.123 -0.14,2.526 0.28,2.387 0,1.685 0.421,1.264 1.545,2.386 0.842,1.965 0.702,1.965 1.123,2.246 1.825,2.106 1.403,1.965 1.123,4.071 -0.141,2.246 0.702,3.509 2.246,4.071 1.966,3.65 0.562,3.369 0.14,2.387 0.422,2.105 1.123,1.825 1.685,1.685 0.982,1.263 1.825,0.702 1.544,1.544 0.843,0.983 0.14,1.685 0.562,1.123 0.702,1.404 0.843,1.825 0.28,0.562 0.281,0.421 1.824,0.983 0.702,1.404 1.404,1.685 0.562,1.404 0.842,1.123 0.281,0.982 0.562,1.123 0.701,1.123 0.141,0.702 0.562,1.825 0.843,1.685 0,1.825 0.14,1.685 0.562,1.965 0.422,1.264 1.685,3.088 29.34,91.951 5.194,-0.141 4.071,1.685 4.772,5.054 6.317,3.791 4.352,4.352 4.212,4.352 6.177,8.423 7.861,3.931 5.054,2.387 3.79,4.211 3.089,4.211 3.229,0.281 4.492,-0.14 4.212,0.842 2.667,1.685 4.071,3.79 3.649,2.948 1.545,0.421 1.123,0 0.701,-0.421 0.562,-0.842 1.825,-0.842 1.264,0 0.843,0.702 0.982,1.123 0.28,0.562 0.281,0.421 0.421,1.264 -0.141,0.702 -0.141,0.562 0.141,1.264 -0.421,1.685 -0.28,0.702 -0.563,0.421 -0.561,0.702 0.28,0.842 1.123,0.702 0.843,0 0.982,-0.141 0.982,-0.281 1.544,0.421 0.843,0.562 0.842,0.421 5.054,1.825 0.843,0.281 1.544,0.702 0.421,0.141 0.843,0.842 0,0.982 -1.404,1.264 -1.685,0.281 -0.982,0.14 -0.421,0 -0.281,0.421 0.141,0.421 0.141,0.702 0.562,2.246 0.141,0.562 0.28,0.421 0.843,1.123 0.701,1.263 -0.14,0.983 0.562,0.982 0.421,0.281 1.544,1.403 0.281,0.702 0.701,0.141 1.686,0.982 1.544,0.421 1.685,0 1.685,-0.842 1.965,1.403 0.562,0.982 0.422,1.685 0.28,0.702 1.264,2.808 0,2.246 0.28,1.685 0.702,7.02 1.825,6.036 1.403,4.492 2.948,2.808 2.948,1.264 -1.825,7.159 -1.264,4.633 -1.403,4.212 -0.281,1.685 -0.14,0.982 -0.141,0.843 0,1.544 1.685,7.861 1.123,3.79 0.421,1.404 0.141,1.264 0,1.123 -0.281,1.403 -0.28,1.264 -1.685,5.334 -1.544,4.773 -2.527,7.861 1.685,2.667 1.264,3.229 3.649,6.879 9.547,-5.616 6.457,-3.79 4.633,-1.965 3.089,-0.843 4.352,0.562 8.002,1.123 2.808,-0.421 5.194,-1.685 0.562,-0.281 1.403,2.948 2.667,-2.387 7.722,-9.265 4.492,-3.369 6.036,-2.106 7.44,-2.246 0,0 5.756,-2.667 4.772,-1.264 3.089,-0.842 3.088,-0.562 2.948,-0.562 4.773,-0.702 2.948,0.141 2.947,0.141 4.914,0.14 2.105,0 6.458,0.983 3.79,0 2.667,0.14 2.808,-0.14 1.123,0 3.089,0.28 3.088,0 4.914,0.281 7.58,0.562 5.476,0.14 4.632,0.281 3.369,0.141 11.091,0.842 5.194,0.562 4.632,-0.141 4.914,0 11.933,0.422 5.193,0.421 3.369,0 -1.965,5.334 -1.544,3.51 -6.317,2.246 -3.79,0.982 -1.55,0.84 -4.211,1.264 -4.773,2.808 72.578,228.543 24.427,39.729 -0.702,0.701 -4.071,6.599 -1.685,3.229 -1.825,3.089 -0.421,0.982 -0.28,0.982 -0.422,1.544 -0.28,1.545 -0.141,3.229 -0.421,3.649 0.702,1.685 -0.983,1.264 -6.738,5.896 -2.105,1.965 -3.79,3.51 -1.123,0.843 -1.966,1.544 -7.3,5.756 -3.65,2.667 -3.649,5.194 -4.212,8.703 -2.105,3.369 -3.088,4.914 -1.825,2.387 -5.756,4.772 -1.264,2.808 -35.517,-29.62 -71.876,10.528 -21.76,49.977 -0.562,1.263 -1.263,1.264 -1.685,0.843 -0.843,1.123 -0.562,1.965 -0.562,1.966 -0.562,1.403 -0.842,1.825 -0.843,1.404 -1.123,2.105 -0.842,1.544 -0.562,1.404 -0.562,0.701 -0.562,1.685 -0.702,1.404 -0.562,1.825 -0.422,1.263 -0.421,0.702 -0.562,1.966 -0.141,0.842 -0.561,1.544 -0.422,1.264 -0.701,1.545 -0.422,1.685 -0.702,1.403 -0.562,1.123 -0.28,0.982 -0.281,0.843 -0.28,0.982 -0.562,1.544 -0.843,2.527 0,0.28 -7.019,17.408 -7.3,36.358 -1.123,5.476 -0.843,4.07 -0.421,5.194 -0.562,2.948 -0.843,3.65 -0.982,3.088 -2.246,3.931 -1.685,3.089 -1.544,2.948 -0.421,2.246 0.982,3.229 -0.702,0.562 -0.28,0.842 -0.843,1.685 -1.264,1.123 -1.544,1.123 -0.562,0.983 -0.421,1.544 -0.141,1.404 -0.28,1.123 -0.281,1.263 -0.421,1.264 -0.562,0.843 -0.982,1.123 -0.843,0.701 -0.702,0.422 -0.562,0.982 -0.28,0.842 -0.422,0.983 -0.982,1.263 -0.562,1.123 -0.421,0.562 -0.141,0.562 -0.141,0.422 0,2.105 0.141,1.403 0,1.124 0,0.842 0,1.685 0,1.685 0,0.982 0,1.264 0,1.825 0.141,2.526 0.141,1.966 0.14,2.387 0,1.544 0.422,0.702 0.842,1.123 0.702,1.123 0.421,1.123 0.281,0.562 0.562,1.403 0.421,1.545 0.421,1.965 0.562,1.404 0.702,1.965 0.702,1.966 0.14,1.403 0.422,1.123 0.28,0.702 0.422,1.403 0.28,1.545 0.141,0.982 0.141,2.105 0.14,1.264 0.141,1.544 0.141,0.843 0.141,1.825 -0.141,1.123 -0.141,1.403 -0.28,1.825 -0.141,1.403 -0.281,1.123 -0.14,1.264 0,0.982 0,1.545 0,1.123 0.28,1.264 0.281,1.544 0.421,1.544 0.421,1.544 0.421,0.843 0.422,1.544 0.28,0.982 0,1.123 0.421,1.123 0.281,1.123 0.28,0.983 0,0.842 -0.28,0.141 -38.044,7.861 -3.088,-7.159 -5.335,-8.283 -2.387,-6.457 -2.948,-4.071 -0.701,-3.369 0.14,-3.79 -6.036,-0.422 -7.159,-0.14 -3.931,0.562 -1.545,0.14 -4.772,0.562 -5.476,0.562 -10.388,1.685 0.562,-3.088 -0.281,-6.458 -0.701,-4.352 0.842,-3.369 0,-4.352 1.264,-2.948 -0.281,-3.65 -0.982,-4.352 1.264,-2.527 -1.123,-1.403 0.562,-2.387 -0.421,-4.352 0.421,-1.264 -1.404,0 -4.913,0.141 -2.948,0.141 -2.808,0.421 -0.702,-3.931 -0.562,-4.914 -0.28,-1.123 -0.141,-3.509 -0.842,-6.317 -0.422,-4.913 -0.421,-4.493 -0.421,-11.792 -0.421,-6.598 0,-6.458 0.28,-4.772 0.141,-6.036 -0.141,-4.773 0.141,-4.773 0.421,-4.913 -0.141,-1.685 0,-4.492 0,-2.667 0.422,-6.458 -1.966,-0.842 -4.071,-2.527 -6.457,-6.177 -5.476,-2.948 -4.211,-3.229 -2.527,-2.246 -11.09,5.475 -3.931,2.387 -7.581,3.089 -4.632,0.982 -2.948,0.702 -3.791,-1.545 -3.509,-3.229 -3.51,-7.861 -3.79,-1.966 -1.124,-1.403 0,-2.246 0,-2.246 -0.14,-2.387 0,-1.544 0,-1.966 0.421,-1.685 1.123,-2.667 0.562,-2.387 0.281,-0.28 2.105,-0.281 1.403,-2.526 -1.544,-4.353 0.702,-1.544 0,-3.089 0.28,-1.685 -0.421,-3.649 0.141,-2.667 0.562,-2.527 0.421,-1.123 -0.28,-0.141 0.14,-0.982 -0.14,-2.527 1.403,-10.669 0.562,-11.371 0.421,-5.193 0.422,-4.914 0.421,-3.509 0.141,-1.264 -2.387,-0.422 -2.948,0.983 5.896,-10.248 0.701,-3.79 0,-2.387 -0.842,-2.948 -3.65,-0.141 -3.088,0 -1.544,-0.28 -0.983,-0.141 -3.51,-0.281 -10.107,-0.14 -3.79,0.14 -1.685,0 -6.738,-0.421 -6.738,-0.982 -6.879,-0.982 -2.667,-0.562 -11.933,-2.387 -2.527,-0.141 -3.649,-0.141 -3.79,-0.421 -4.071,-1.123 -6.317,-1.264 -6.036,-1.123 -2.106,-0.421 -3.088,-0.562 -7.02,-0.141 -1.123,-0.14 -5.054,-0.702 -4.211,-0.562 -2.387,-0.141 -12.635,-1.123 -16.705,-2.667 -19.373,-3.229 -53.767,-8.142 0,0 -5.335,4.772 -2.947,0.562 -0.983,0.422 -1.685,-0.141 -1.123,-0.843 -1.263,-2.105 -1.545,-4.633 0,-0.421 -7.3,-1.264 -0.702,-0.14 -1.263,-0.141 -0.983,0 -1.685,-0.141 -1.263,-0.421 -3.65,-0.702 -1.685,-0.28 0.421,-1.545 -4.352,-0.982 -12.494,-2.948 0.421,2.527 -27.649,-42.255 2.246,-2.526 3.791,-2.948 3.79,-3.088 0.702,-0.562 4.07,-3.369 4.071,-3.369 6.458,-5.194 6.317,-5.335 1.824,-1.965 4.773,-3.65 8.282,-6.317 7.3,-5.475 4.914,-3.79 7.58,-5.194 8.143,-4.353 7.721,-4.07 8.984,-3.65 5.896,-2.526 6.598,-2.106 23.023,-7.3 13.617,-3.931 7.159,-2.526 8.143,-3.51 5.896,-3.089 3.931,-2.246 4.071,-1.965 0.28,-0.141 1.404,-0.421 0.843,-0.702 1.544,-0.562 1.544,-0.982 0.843,-0.843 1.123,-1.123 0.842,-1.123 0.702,-1.123 0.702,-1.123 0.421,-1.264 0.141,-1.263 0.14,-1.545 0.141,-1.123 0,-1.824 0.141,-2.246 0.141,-2.247 0,-13.055 0.14,-1.685 0.141,-1.686 0,-2.105 0.281,-7.58 0.28,-7.02 0.421,-4.913 0.562,-6.177 2.246,-13.758 2.527,-16.145 0.141,-2.246 0.14,-1.544 1.685,-14.038 1.545,-4.071 1.264,-5.615 8.984,-35.096 -1.966,-1.825 -0.141,-1.965 0,-0.562 -0.982,-5.194 0,-0.421 -0.28,-0.141 -3.369,-2.105 -0.281,-0.141 -0.141,-0.141 -4.633,-2.105 -0.28,-0.141 -0.141,-0.141 -1.965,-0.842 0,0 -0.141,0 -1.825,-2.527 0,0 -0.28,-0.28 -0.843,-2.387 0,-0.141 -0.141,-0.28 -0.28,-0.421 0,0 0,0 -2.667,-0.702 -0.281,0 -0.421,-0.141 -0.982,-0.28 -0.141,0 -0.281,-0.141 -2.246,-3.931 -0.421,-0.562 -0.421,-0.982 -1.264,-0.422 -0.28,0 -0.141,-0.14 -2.387,0.701 -0.702,0.141 -0.702,0.281 -2.667,-0.702 -0.842,-0.141 -0.843,-0.28 -1.264,-0.562 -0.28,-0.281 -0.421,-0.28 -1.404,0.14 -0.842,0 -0.702,0.141 -1.404,0.141 -0.842,0.141 -0.702,0.14 -0.562,-0.562 -0.28,-0.421 -0.422,-0.141 0,-0.982 -0.14,-0.843 -0.141,-0.701 -0.843,-0.562 -0.701,-0.422 -0.562,-0.421 -1.825,0.982 -2.106,1.404 -1.685,0.982 -0.28,-0.842 -0.562,-1.123 -0.421,-0.702 -0.562,0 -1.264,0.28 -0.843,0.281 0,0 0,0 0,0 -0.421,-0.141 -0.842,-0.28 -0.562,-0.141 -0.141,-0.141 -0.702,-0.842 -0.421,-0.562 -0.281,-0.141 -2.386,-0.281 -1.685,-0.14 -0.422,0.14 -4.352,1.404 -2.948,0.842 -0.141,0 -2.947,0 -1.966,0 -0.141,0 -0.14,-0.14 -0.141,0 0,0 -0.702,-0.562 -0.562,-0.281 -0.141,-0.141 -1.403,-0.421 -0.982,-0.28 -0.281,-0.141 -0.421,0.141 -0.281,0.14 -0.28,0 -0.702,-0.421 -0.141,-0.28 -0.421,-0.141 -0.702,-0.421 -0.421,-0.141 -0.28,-0.281 -0.422,-0.28 -0.28,-0.281 -0.281,-0.28 -0.28,-0.562 0,-0.141 -0.141,-0.421 0.141,-0.562 0.141,-0.141 0.14,-0.421 -0.421,-0.562 0,-0.141 -0.28,-0.702 -0.281,-0.982 0,-0.141 -0.141,-0.982 0.422,-0.982 0,-0.141 0.562,-1.123 0.842,-1.264 0.141,0 0.982,-1.263 0.843,-1.123 0,0 0.982,-1.404 0.421,-0.141 0,0 0.562,-0.28 0,-0.281 0,0 0.141,-0.421 -0.281,0.141 0,0 -0.421,0 0,-0.141 0.141,0 0,-0.141 0.141,-0.28 0,-0.141 0.14,-0.843 -0.28,0 -0.281,0 -0.982,-0.14 -0.421,-0.562 -0.421,-0.702 -1.825,-2.808 -0.421,-0.421 -0.422,-0.562 -1.825,-1.966 -0.14,-0.28 -0.281,-0.843 -0.702,-2.808 -0.14,-0.28 -0.281,-1.264 -0.702,-3.65 -0.14,-0.141 -1.966,-3.649 -4.913,-9.546 -0.281,-0.421 -0.562,-0.843 -1.263,-2.526 -0.141,-0.281 -2.808,-3.089 -3.51,-3.369 0.281,-0.28 -1.545,-1.685 -0.982,-1.264 -1.404,-1.264 -0.982,-1.263 -0.421,-0.702 -0.141,-0.562 -0.141,-0.702 -0.14,-0.702 -0.422,-1.685 -0.14,-0.842 -0.281,-0.983 -0.28,-0.982 -0.281,-0.421 -0.842,-1.264 -1.825,-1.404 -1.685,-0.14 -1.825,-0.702 -1.544,-1.123 -0.702,-0.982 -0.562,-0.842 -0.982,-1.685 -0.281,-1.544 -0.28,-0.421 -0.702,-2.387 -0.421,-1.123 -0.281,-0.562 -0.28,-0.562 -0.281,-0.562 -0.141,-0.421 -1.403,-1.123 -0.843,-0.983 -1.965,-1.825 -1.544,-1.825 -0.702,-1.123 -0.421,-0.983 -0.702,-1.825 -0.281,-0.702 -0.14,-0.421 -0.562,-2.246 -0.281,-1.123 -0.562,-0.842 -0.28,-1.404 -0.281,-0.983 -0.141,-0.842 -3.649,-3.229 -3.79,-3.65 -2.809,-2.386 -0.562,-0.702 -0.28,-0.842 -0.421,-0.562 -1.545,-2.948 -2.526,-4.492 -1.685,-3.229 -0.141,-0.982 -0.28,-1.966 -0.141,-1.263 0,-0.141 0,-0.281 0,-0.14 0,-0.281 -0.141,-0.702 0,-0.562 0,0 -0.141,-0.14 0,-0.141 -0.14,-0.14 -1.404,-1.825 -0.842,-1.123 0,0 0,-0.281 -0.141,0 0,0 -1.685,-1.965 -0.843,-1.263 0,-0.141 -0.562,-0.421 -0.421,-0.281 0,-0.141 -0.421,-0.14 -0.281,-0.141 0,0 -0.842,-0.421 -0.421,-0.141 -0.141,-0.14 -0.702,-0.421 -0.421,-0.281 -0.281,-0.14 -0.28,-0.281 -0.141,-0.141 -0.141,-0.14 -1.825,-2.106 -0.701,-0.842 -0.983,-0.983 -0.842,-2.386 -0.421,-0.702 -0.562,-1.263 -0.281,0 -0.141,0.14 -0.14,0 -0.702,-0.982 -0.141,-0.281 -0.702,-0.702 -0.842,-1.404 -0.141,-0.14 -0.842,-1.264 -0.422,-0.421 0,0 -0.28,-0.281 0,-0.281 0,0 0,-0.421 -0.281,-0.562 0,0 -0.28,-0.562 -0.141,-0.281 0,0 -0.28,-0.281 -0.281,-0.14 0,0 -0.421,-0.281 -0.281,-0.141 -0.14,-0.14 -0.843,-0.141 -0.421,-0.14 0,-0.141 -0.562,-0.421 -0.421,-0.281 -0.141,-0.141 -0.843,-0.842 -0.14,-0.281 0,-0.14 -0.562,-0.702 -0.141,0 0,-0.281 -0.562,-0.562 0,0 0,-0.14 -0.141,0 0,-0.281 0,-0.562 -0.28,-1.544 0,0 0,-0.14 0,-0.562 -0.141,-0.141 0,-0.702 -0.141,-2.105 0,0 -0.141,-0.141 -0.14,-0.14 0,0 -0.281,-0.562 -0.843,-1.264 0,-0.14 0,0 -0.14,-0.141 0,0 -0.281,-0.421 -0.562,-0.702 -0.141,-0.281 -0.421,-0.421 -0.702,-0.842 -0.14,-0.281 -0.141,-0.281 -0.702,-0.281 -0.28,-0.281 0,0 -0.281,-0.141 0,0 -0.421,-0.281 -0.843,-0.421 -0.562,-0.421 -0.14,0 -0.562,-0.281 -0.422,-0.14 -0.14,0 -0.562,-0.141 -0.422,-0.14 -0.28,0 -0.421,-0.141 -0.702,-0.14 -0.141,0 -0.421,-0.281 -0.281,-0.281 -0.14,0 -0.422,-0.281 -0.562,-0.281 -0.14,0 -0.562,-0.562 -0.702,-0.842 0,-0.141 -0.421,-0.421 -0.562,-0.842 -0.141,-0.141 -0.281,-0.281 -0.562,-0.562 -0.14,0 -0.141,-0.281 -0.421,-0.421 -0.141,-0.141 -0.281,-0.562 -0.982,-1.404 0,0 -0.28,-0.14 -0.843,-0.562 0,0 0,-0.281 -0.421,-0.562 0,-0.14 0,-0.281 -0.281,-1.965 0,0 0,0 0.141,-0.562 0,0 0,-0.421 -0.141,-2.808 0,-0.14 0.141,0 0.562,-0.842 0,0 0,0 0,-1.264 0,0 0.281,-0.982 0,0 0,-0.141 0.842,-1.544 0,0 0,0 0.281,-0.983 0,0 0,-0.14 0.28,-4.914 0,-0.421 0,-0.562 0,-2.386 0,-0.281 0,-0.421 0,-0.421 0,-0.141 0,0 -0.562,-2.246 -0.141,-0.421 0,-0.281 -0.421,-2.106 0,-0.562 -0.141,-0.421 -0.28,-1.123 -0.141,-0.421 0,-0.281 -0.28,-0.842 0,-0.281 -0.141,-0.14 -0.281,-0.702 -0.14,-0.421 -0.141,-0.281 -0.281,-0.421 -0.141,-0.281 -0.14,-0.14 -0.562,-0.983 -0.422,-0.702 -0.28,-0.281 -0.982,-2.105 -0.843,-1.264 -0.421,-0.982 -0.281,-0.562 0,-0.141 -0.421,-0.702 0.281,-0.141 -0.983,-1.825 -0.562,-0.983 -0.562,-0.562 -0.982,-0.562 -2.246,-2.246 -0.982,-1.123 -0.702,-0.982 -0.702,-0.983 -1.403,-1.965 -1.685,-2.386 -1.264,-1.685 -0.982,-1.404 -0.421,-0.562 0,-1.263 0.701,-1.965 0,-0.983 -0.14,-0.982 0,-0.562 0.28,-0.421 0.702,-0.421 0.562,-0.281 0.562,-0.421 0.28,-1.685 0.141,-0.842 0,-0.842 0.141,-0.562 0.982,-2.387 2.105,-2.808 0.422,-0.842 0.421,-1.685 -0.141,-1.123 -1.123,-2.246 -0.421,-1.123 -0.141,-0.702 0,-1.123 -0.28,-1.123 -0.422,-0.562 -1.123,-1.123 -0.842,-0.983 -0.843,-0.562 -0.421,-1.123 -0.702,-1.685 -0.14,-1.263 -0.281,-0.562 -0.421,-0.702 -0.141,-0.421 1.825,-1.544 52.644,-57.557 181.374,-3.79 1.144,0.311 z"
       inkscape:connector-curvature="0"
       class="DEP_05 ZON_02" /></g></svg>