<?xml version="1.0" encoding="UTF-8" standalone="no"?>
<!-- Generator: Adobe Illustrator 16.0.0, SVG Export Plug-In . SVG Version: 6.00 Build 0)  -->

<svg
   xmlns:dc="http://purl.org/dc/elements/1.1/"
   xmlns:cc="http://creativecommons.org/ns#"
   xmlns:rdf="http://www.w3.org/1999/02/22-rdf-syntax-ns#"
   xmlns:svg="http://www.w3.org/2000/svg"
   xmlns="http://www.w3.org/2000/svg"
   xmlns:sodipodi="http://sodipodi.sourceforge.net/DTD/sodipodi-0.dtd"
   xmlns:inkscape="http://www.inkscape.org/namespaces/inkscape"
   version="1.1"
   id="SvgMunicipio"
   x="0px"
   y="0px"
   width="1000.042px"
   height="884.34px"
   viewBox="64.386 118.143 1000.042 884.34"
   enable-background="new 64.386 118.143 1000.042 884.34"
   xml:space="preserve"
   inkscape:version="0.91 r13725"
   sodipodi:docname="MUN_ID0521.svg"><metadata
     id="metadata10"><rdf:RDF><cc:Work
         rdf:about=""><dc:format>image/svg+xml</dc:format><dc:type
           rdf:resource="http://purl.org/dc/dcmitype/StillImage" /></cc:Work></rdf:RDF></metadata><defs
     id="defs8" /><sodipodi:namedview
     pagecolor="#ffffff"
     bordercolor="#666666"
     borderopacity="1"
     objecttolerance="10"
     gridtolerance="10"
     guidetolerance="10"
     inkscape:pageopacity="0"
     inkscape:pageshadow="2"
     inkscape:window-width="682"
     inkscape:window-height="480"
     id="namedview6"
     showgrid="false"
     inkscape:zoom="0.26686568"
     inkscape:cx="500.021"
     inkscape:cy="442.17001"
     inkscape:window-x="0"
     inkscape:window-y="0"
     inkscape:window-maximized="0"
     inkscape:current-layer="svg" /><g
     id="g3"><path
       id="MUN_0521"
       d="m 1059.677,197.635 -0.316,1.267 -0.317,0.95 0.106,0.528 0.845,0.739 0.633,1.689 1.372,1.161 1.479,2.745 0.527,2.217 0.317,3.483 0.105,2.534 -0.528,2.639 -0.527,1.267 -1.161,2.533 -0.845,1.267 -1.795,2.639 -0.316,1.478 -0.212,4.54 0,0.316 0,2.534 -0.105,1.9 0.105,4.645 0.106,4.856 0,1.161 0,2.534 -0.317,1.373 0.423,2.533 0.633,4.329 0.212,1.794 -0.634,4.012 -0.95,4.117 -0.845,4.011 -0.633,3.695 -0.317,2.85 0.211,2.534 -0.527,6.545 -1.584,5.278 -1.688,5.279 -0.739,2.005 -0.527,2.006 -1.268,2.111 -1.688,2.006 -2.217,2.745 -2.429,2.745 -1.161,1.372 -2.851,2.323 -4.961,1.267 -0.95,0.739 -2.322,1.794 -1.161,1.583 0,1.056 0.316,0.845 0.738,3.589 -1.161,4.223 -0.211,1.267 -0.422,2.323 -0.634,1.267 -1.161,1.056 -4.117,2.745 -2.322,2.323 -2.111,3.272 -1.689,3.695 -2.217,1.056 -2.111,-0.105 -2.428,-0.845 -2.64,-0.211 -1.583,0.633 -0.634,0.317 -0.739,0.528 -0.422,0.316 -3.906,4.645 -1.583,3.273 -1.373,2.217 -1.688,3.062 -1.795,2.111 -1.161,1.9 -0.316,1.794 0.738,1.478 4.223,4.539 2.64,4.962 0.527,3.695 0,0.317 -0.316,1.161 -1.478,1.161 -2.111,1.056 -2.745,1.9 -1.478,2.639 -0.105,1.056 -0.423,2.111 -0.422,0.95 -0.845,2.111 0.634,2.006 0.105,1.161 -0.95,1.373 -1.373,0.105 -3.061,-0.316 -0.845,0.105 -0.845,0.316 -1.479,0.422 -2.006,0.423 -1.688,1.267 -2.111,2.64 -1.479,2.111 -64.818,-21.325 -365.477,432.405 -9.501,4.75 -1.268,1.056 -4.328,4.117 -1.583,2.64 -0.739,0.95 -1.372,1.267 -3.59,2.639 -3.589,2.111 -1.372,0.845 -1.795,0.528 -0.95,0.738 -5.384,5.807 -3.484,3.59 -2.217,1.794 -1.056,0.95 -1.478,1.479 -3.801,3.378 -2.428,1.267 -3.483,-0.211 -7.39,-2.64 -1.056,-0.316 -2.64,0.634 -0.316,0.316 -0.212,0.527 -0.211,0.634 -0.527,0.634 -0.528,0.422 -0.527,0.211 -0.528,-0.105 -0.633,-0.211 -0.528,0.211 -0.633,0.423 -0.212,0 -1.056,-0.106 -1.161,-0.527 -0.422,0.105 -1.056,0.316 -1.689,1.161 -1.056,0.212 -1.478,0.633 -4.012,1.056 -3.483,0.634 -1.9,1.056 -1.9,2.217 -2.64,1.372 -1.267,0.634 -0.527,0.527 -0.739,0.845 -0.105,0.845 0.105,0.95 -0.211,0.527 -0.211,0.212 -0.95,0 -1.584,-0.423 -1.583,0.528 -1.795,0.316 -0.634,0 -0.738,-0.422 -1.689,-1.373 -0.316,0 -0.317,0.317 -0.738,1.583 -0.317,0.316 -0.316,0 -2.533,-0.105 -0.212,0.105 -3.272,1.689 -1.056,0.634 -0.633,0.211 -0.634,0 -5.173,-0.845 -0.634,0.105 -1.161,0.739 -1.267,0.211 -1.795,-0.105 -1.161,-0.527 -2.533,-1.584 -0.95,-1.056 -0.528,-0.105 -1.794,0 -5.49,4.962 -2.955,2.322 -4.329,2.956 -1.372,1.161 -1.161,1.056 -1.161,1.056 -2.534,2.322 -2.955,2.851 -2.956,2.744 -2.006,1.584 -0.95,1.372 -0.634,1.161 -0.316,0.95 -0.316,1.9 -0.211,0.423 -0.739,0.738 -4.117,3.906 -0.316,0.95 -3.484,3.167 -2.006,1.9 -1.161,1.583 -1.056,0.95 -1.478,1.056 -2.745,1.795 -0.739,0.422 -1.161,0.634 -0.633,0.527 -0.528,0.528 -0.422,0.634 -0.423,0.949 -2.217,6.44 -0.738,1.794 -1.056,2.429 -0.95,2.744 -2.111,7.39 -0.634,2.323 -0.634,1.688 -0.844,0.95 -1.056,0.95 -1.373,1.056 -1.478,0.634 -2.428,1.161 -1.268,0.845 -2.111,2.322 -1.478,2.006 -2.111,3.272 -0.634,1.478 -0.422,2.111 0.105,3.167 -0.105,3.167 -0.316,2.218 -0.528,2.217 -0.211,2.322 -0.105,0.739 -1.268,1.899 -1.055,1.795 -0.95,1.9 -0.634,1.267 -0.739,0.95 -0.738,0.739 -0.95,0.105 -0.739,-0.423 -0.316,-0.211 -0.423,0 -0.105,0.634 -0.422,0.634 -1.056,0.633 -2.534,1.584 -0.845,1.478 -1.372,3.483 -1.161,3.273 -0.634,0.422 -0.105,0.105 -7.706,-6.756 -5.067,-4.329 -1.056,-1.267 -5.7,-6.123 -5.067,1.479 -3.801,-4.012 -7.917,-8.34 -0.423,0.211 -5.173,1.689 -5.173,1.794 -10.557,5.385 -13.09,6.861 -0.845,0.528 -6.018,3.272 -2.851,1.583 -5.489,2.745 -2.533,1.372 -0.634,0.317 -0.316,0.105 -1.9,0.316 -1.795,0.105 -1.267,0 -2.006,0.95 -0.845,0.527 -0.633,0.528 -0.423,0.422 -0.422,0.528 -0.845,1.372 -0.211,0.105 0,0 -0.845,0.634 -2.322,1.161 -2.428,1.267 -0.212,-0.527 -0.527,-1.689 -2.322,-2.006 -2.218,-1.161 -2.322,-1.372 -1.372,-0.634 -1.161,-0.633 -0.316,-0.212 -0.845,-0.633 -0.317,-0.211 -0.738,-1.373 -0.528,-2.85 -1.267,-4.012 -1.056,-3.062 -0.105,-0.423 0.105,-1.583 0,-0.105 0.316,-7.179 -0.527,-1.056 -0.317,-0.528 -0.316,-0.527 -0.633,-2.322 -0.739,-2.218 -0.848,-3.159 -1.267,-2.955 -1.479,-2.111 -2.428,-1.9 -0.634,-0.528 -4.328,-2.639 -5.173,-3.379 -6.65,-3.905 -6.123,-8.34 -13.513,-23.964 -5.173,-8.763 -7.812,-13.829 -0.739,-1.161 -0.211,-0.316 -0.211,-0.212 -1.479,2.534 -0.95,2.217 -0.527,1.795 -0.423,4.75 -0.633,6.862 -2.217,3.167 -3.484,4.328 -2.428,2.533 -0.739,0.845 -2.006,1.9 -1.794,1.267 -3.379,1.795 -0.738,0.316 -1.161,0.212 -1.479,0.105 -1.9,-0.105 -0.738,-0.317 -0.739,-1.688 -0.95,-1.584 -0.634,-0.527 -0.633,-0.634 -0.105,-0.105 -1.268,-0.95 -2.639,-1.9 -4.434,-2.851 -1.056,-0.844 -0.739,-0.528 -0.105,-1.478 -0.95,-1.584 -0.739,-0.739 -1.478,-1.478 -0.423,-1.372 1.056,-3.167 1.689,-3.801 0.105,-1.267 0.105,-0.845 -1.056,-1.267 -1.795,-0.211 -2.005,0.422 -2.323,-0.422 -0.844,0.422 -0.423,0.105 -0.316,0.105 -0.211,-0.316 -1.161,-1.161 -0.845,-0.739 -1.056,-1.795 -0.212,-0.211 -1.056,-1.688 -1.056,-1.584 -0.844,-1.689 -0.95,-1.056 -0.423,-0.527 -1.478,-0.634 -1.372,-0.422 -0.634,-0.739 -0.634,-0.633 -1.372,-1.268 -1.478,-1.372 -2.111,-1.583 -2.111,-1.479 -1.9,-2.217 -1.584,-2.322 -1.583,-2.322 -3.062,-3.59 -3.167,-3.801 -1.689,-1.899 -0.211,-0.212 1.267,-0.844 6.651,-4.223 4.75,-1.479 1.372,-1.056 0.845,-0.633 1.795,-0.95 1.9,-1.9 1.372,-1.479 0.95,-1.372 0.845,-0.95 0.527,-0.845 1.161,-0.95 1.056,-0.844 0.95,-0.528 0.212,-0.316 0.211,-0.528 0.316,-0.633 0.422,-0.95 0.845,-0.317 0.95,-0.105 0.739,-0.211 0.95,-0.316 0.739,-0.105 0.738,0.316 0.634,0.528 0.845,0.844 0.633,0.528 0.845,0.422 1.267,0.423 1.161,0.422 0.423,0.211 0.211,0.211 1.267,0.739 1.161,0.739 0.739,0.211 0.845,0.316 0.527,0.317 0.739,0.316 0.422,0.316 0.423,0.212 0.845,0.211 0.633,0.105 0.634,0.105 0.633,0 0.423,0.105 0.95,0.528 0.527,0.422 0.528,0.211 0.211,0.211 0.316,0.212 0.739,0.211 0.422,0 0.634,-0.423 0.95,-0.844 0.739,-0.739 0.844,-0.739 0.845,-0.527 0.634,-0.528 0.95,-0.316 0.845,-0.528 1.899,-1.056 1.584,-0.422 0.527,0 0.528,0 0.634,0.211 0.527,0.211 0.739,0.634 0.633,0.634 0.739,0.633 0.634,0.634 0.738,0.633 0.423,0.212 0.527,0.211 0.317,0 0.316,0.105 1.056,0.105 1.056,0.105 1.161,0.105 1.584,0.105 1.056,-0.211 1.372,-0.422 1.267,-0.105 0.316,0 0.423,0 1.056,0 1.056,0.316 0.845,0.105 0.527,-0.105 0.423,0 1.056,-0.423 0.316,-0.105 1.161,-0.527 1.056,-0.528 0.634,-0.211 0.422,-0.211 2.851,-1.372 2.006,-1.056 0.211,-0.212 0.422,-0.422 0.317,-0.422 0.316,-0.739 -0.105,-1.056 0,-0.634 0.316,-0.527 0.528,-0.634 0.316,-0.105 0.316,-0.211 0.634,-0.423 0.633,0.106 -0.527,-1.268 -0.739,-2.322 -0.316,-1.9 0.105,-1.9 -0.105,-2.955 -0.105,-1.9 2.111,-2.429 0.527,-0.844 3.379,3.589 4.117,1.056 4.328,-1.9 3.167,0.95 3.062,0.95 8.656,0.105 7.495,-0.105 4.223,-5.595 4.117,-2.217 4.751,-0.845 6.756,0.211 8.656,3.589 5.385,-3.272 -0.423,-6.861 3.59,-4.117 0.422,-3.59 0.739,-3.589 3.062,-7.601 1.056,-1.373 0.95,-2.111 -5.385,-0.527 -0.527,-0.105 -3.801,-0.317 -2.217,-0.95 -2.006,-0.844 -3.694,-1.161 -1.161,0 -1.161,0.105 -0.528,-0.212 -1.9,-0.316 -1.267,-0.739 -1.161,-0.738 -1.161,-2.111 -1.795,-1.479 -3.695,-2.744 -3.8,-2.745 -3.801,-2.851 -3.062,-2.639 -2.956,-2.64 2.534,-2.744 2.639,-2.745 -1.899,-0.316 -1.795,-0.317 -2.006,-0.105 -1.478,-0.422 -1.373,-0.423 -1.161,-0.527 -1.161,-0.316 -0.634,-0.423 -0.738,-0.422 -1.584,-0.845 -1.478,-0.739 -1.689,-0.845 -1.056,-0.422 -1.056,-0.316 -0.845,-0.317 -0.845,-0.211 -1.583,-0.422 -0.845,-0.634 -1.267,-0.422 -1.056,-0.211 -1.056,-0.845 -1.479,-0.845 5.173,-7.601 2.64,-4.117 2.428,-4.012 -0.422,-0.211 -0.739,-0.423 -0.739,-0.316 -1.267,-0.527 -0.633,-0.528 -0.212,-0.422 -0.527,-1.056 -0.316,-1.162 -0.528,-1.161 -0.633,-2.006 -0.528,-1.688 -0.95,-2.111 -1.056,-1.795 -0.316,-0.845 -0.423,-0.527 2.006,-0.423 0.423,-0.738 1.161,-2.217 1.161,-2.112 3.062,-4.539 -0.105,-0.105 0.316,-1.795 0.316,-1.794 -0.844,-0.739 -1.056,-0.316 -2.534,-1.162 -1.372,-1.056 -3.695,-2.533 -6.334,-4.223 -2.533,-2.217 -2.006,-4.434 -1.161,-2.429 -4.012,-0.316 -0.316,-3.062 -0.423,-4.328 0,-1.372 0.105,-0.739 0,-4.328 0,-4.646 -0.105,-2.428 -0.105,-2.322 1.056,-1.689 0.634,-0.739 -0.528,0.105 -1.795,0.212 0.106,-0.317 0.949,-1.583 2.851,-1.689 -0.105,-0.211 -0.105,-0.211 -0.105,-0.211 -0.105,0 -0.211,-0.212 -0.317,-0.105 -0.422,0 -0.316,0 -0.634,0 -0.95,0.317 -0.634,0.211 -0.633,0.211 1.056,-3.062 0.633,-1.583 0.95,-2.851 0.212,-0.528 0.211,-0.422 0.211,-0.845 0.422,-1.478 0.528,-1.479 0.316,-1.267 0.528,-1.372 2.111,-3.59 2.111,-3.8 0.527,-0.845 0.528,-0.739 0.633,-1.267 0.634,-1.056 0.634,-0.95 0.633,-0.95 0.211,-0.95 0.106,-1.056 0.316,-0.739 0.211,-0.738 0.739,-1.689 0.316,-1.161 0.316,-0.739 0.423,-0.527 0.422,-0.423 0.105,-0.422 0.105,-0.316 0.105,-0.634 0,-0.634 0.212,-0.633 0.211,-0.634 0.316,-0.95 0.423,-0.738 0.105,-0.423 0.633,-2.006 0,-2.533 -0.105,-1.372 -0.105,-1.373 -0.211,-0.738 -1.584,-1.584 -0.316,-0.422 -1.267,-1.268 -0.528,-0.422 -0.844,-0.634 -0.106,0 0,0 0.212,-1.478 0.316,-0.211 0.105,-1.056 0.95,-1.267 1.056,-0.528 0.211,-0.211 0.211,-1.161 0.845,-1.689 2.217,-1.056 1.267,0.634 1.689,-0.105 -0.422,-2.534 -0.317,-1.9 0.528,-4.012 0.527,-4.116 0,0 0.106,0 0.316,-0.212 0.316,-0.105 0.105,-0.105 0,0 -0.422,-2.956 -0.95,-11.718 -1.056,-11.718 -0.211,-3.062 -0.528,-0.105 -0.845,-1.267 -0.316,-5.067 -0.316,-1.795 -2.322,-0.422 -2.851,-1.584 -1.267,-0.422 -0.423,0 -2.428,0.316 -2.006,1.267 -1.056,0.95 -0.316,0.105 4.117,-4.434 2.322,-2.64 0,-0.316 2.217,-2.322 3.589,1.161 4.435,-4.645 2.955,-0.528 -4.003,-4.856 -3.906,-4.539 -0.845,0.105 -0.739,0.739 -0.633,1.478 -0.423,0.211 -0.844,-2.428 -1.689,0.528 -1.689,0.633 -2.639,0.95 -2.322,0.739 -1.056,-4.646 -1.057,-4.645 -1.688,-7.495 -1.795,-7.39 -0.105,-3.695 -2.217,-3.272 -2.64,-3.906 0.317,-0.211 1.056,-0.211 1.9,-0.316 1.794,-0.423 1.267,-0.95 0,-1.056 -0.422,-2.428 -1.056,-2.217 -1.583,-2.006 -1.584,-0.95 -0.95,-1.161 0,-1.584 1.161,-2.217 2.64,-2.639 2.639,-1.584 3.484,-2.217 4.75,-3.272 2.745,-2.217 0.739,-1.161 0.211,-1.479 -0.317,-2.217 1.162,-2.956 0.316,-2.639 0.527,-1.161 2.851,-2.111 0.422,-0.317 0,-0.105 -2.111,-2.956 -1.688,-2.428 -0.95,-3.801 -1.372,-5.595 -0.317,-1.795 -0.316,-1.583 -0.316,-1.584 -0.528,-1.583 2.851,-3.272 2.322,-3.695 5.067,-4.117 1.478,-1.056 4.329,-6.018 1.267,-2.217 3.483,-5.911 0,-0.106 1.161,-2.744 0.317,-0.528 2.005,-4.751 4.117,-6.545 1.268,-2.111 1.688,-4.54 4.962,-1.372 -0.316,1.583 15.307,6.017 0.845,0.317 4.012,-14.568 10.557,6.545 -6.968,18.052 12.669,1.689 0,-1.161 0,-0.739 -0.845,-0.634 -1.161,-0.739 -1.056,-0.739 -1.056,-1.056 -0.95,-1.056 -0.211,-0.528 0,-0.633 0,-0.528 0.527,-1.267 0.845,-1.056 1.372,-1.795 1.267,-2.428 1.373,-2.323 1.267,-2.322 0.739,-1.478 -0.317,-0.845 -0.422,-1.161 -0.211,-0.317 -0.105,-0.633 0.316,-1.161 0.316,-1.056 1.161,-0.211 0.634,-0.528 0.527,-0.422 0.317,-0.422 0.422,0 0.528,-0.105 0.422,0.211 0,0.317 0.105,0.316 0,0.317 0.105,0.422 0.212,0.211 0.422,0.105 0.422,-0.105 0.317,-0.105 0.633,-0.317 0.528,-0.211 0.422,-0.317 0.316,-0.105 0.423,-0.211 0.633,-0.105 0.845,0.211 0.528,0 0.316,-0.211 0.316,-0.317 0.212,-0.105 0.211,-0.211 0.316,-0.211 0.422,0 0.317,0.105 0.316,0.105 0.316,0.105 0.212,0.106 0.422,0.105 0.528,0.211 0.422,0 0.316,0 0.317,0.106 0.211,0.211 0.316,0.105 0.211,0 0.105,0.105 0.423,0 0.527,0 0.105,-0.211 0.105,-0.211 -0.738,-0.634 -0.105,-0.528 0.211,-0.316 0.422,-0.106 0.317,0 0.211,0 0.211,-0.105 0.211,0 0.316,0 0.317,-0.105 0.316,-0.105 0.422,-0.105 0.212,-0.105 0.316,0 0.422,0 0.423,-0.106 0.422,0.106 0.528,0.211 0.211,0.316 0.316,0.211 0.423,0.211 0.422,0.211 0.316,0.211 0.528,0.211 0.422,0.211 0.317,0.317 0.105,0.105 0.211,0.211 1.161,0.739 0.634,0.633 0.738,0.633 0.423,0.845 0.738,0.739 0.212,0.105 0.738,0.633 1.161,0.845 0.739,0.211 1.161,0.106 1.689,0 0.633,-0.106 0.528,-0.316 0.739,-0.317 0.95,-0.316 1.583,-0.634 0.316,-0.316 0.423,-0.739 1.056,-2.111 0.105,-0.422 0.422,-0.422 1.268,-0.739 1.267,-1.056 1.056,-0.95 0.527,-0.211 0.739,0 0.422,-0.105 0.423,-0.528 0.95,-1.161 0.105,-0.211 0.316,0 0.634,0.211 0.738,0.422 0.634,0.634 0.634,0.211 0.633,0.211 0.317,-0.211 0.527,-0.95 0.739,-0.739 0.845,-0.317 0.738,-0.105 0.845,0 0.845,0.528 0.95,0.845 0.739,0.528 0.316,0.316 0.422,0 0.634,-0.211 0.633,-0.633 0.95,-1.162 0.528,-0.105 1.372,-0.211 0.739,-0.211 0.633,0.211 0.739,0.316 0.423,0 0.633,-0.739 -0.316,-0.95 -0.105,-0.316 0.739,-1.373 0.738,-1.9 0.845,-0.95 0.739,-1.056 1.583,-1.372 0.422,-0.317 0.528,0.211 0.95,0.105 0.527,-0.105 1.689,-1.056 1.689,-0.95 1.056,-0.845 1.161,-0.422 1.372,-0.316 1.267,-0.211 0.845,-0.316 0.634,-0.422 0.422,-0.105 1.056,0.105 1.161,0.528 0.739,0.528 0.634,0.422 0.422,0 0.211,-0.317 -0.105,-0.528 -0.422,-1.056 0.105,-0.95 0.422,-1.478 0.316,-0.739 0.845,-0.528 0.739,-0.317 0.95,0 1.056,0.106 1.161,-0.211 1.478,-0.844 1.584,-0.95 1.161,-0.422 1.9,-0.95 1.688,-0.528 2.956,-0.95 1.795,-0.633 0.845,-0.317 1.056,-0.528 0.739,-0.211 1.899,-0.317 0.95,-0.211 0.739,-0.317 1.056,-0.95 0.634,-0.634 1.161,-0.95 0.95,-0.422 1.161,-0.422 0.633,-0.633 0.845,-1.161 0.528,-0.739 0.633,-0.316 0.528,-0.106 0.845,0.317 1.161,0.316 0.633,-0.211 0.528,-0.528 0.739,-0.317 0.316,0 0.422,0.211 0.211,0.317 0.528,0.211 0.634,0.316 1.688,0.422 0.528,0.211 0.316,0.422 0.422,0.845 0.423,0.739 0.316,0.844 0.211,0.528 0.423,0.422 0.95,0.422 0.422,0.211 0.845,0.317 0.316,0.316 0.316,0.528 0.317,0.422 0.422,0.211 0.423,-0.422 0.316,-0.422 0.105,-1.161 -0.211,-1.478 0.105,-0.633 0.633,-1.056 0.845,-1.056 1.056,-1.056 0.845,-0.95 0.634,-0.739 0.527,-0.95 0.845,-1.162 1.689,-2.111 1.267,-1.267 0.739,-1.161 1.056,-0.739 1.372,-1.372 1.161,-0.95 0.528,-0.317 0.949,-0.211 0.845,0.316 0.95,0.211 1.161,0.316 1.161,0.422 0.528,0.422 1.056,0.422 0.422,0.105 0.528,-0.317 -0.105,-0.211 -0.634,-2.639 0.211,-1.689 0.845,-3.273 0.105,-0.105 0.739,-2.639 0.316,-0.844 2.111,-0.211 3.272,-0.105 2.006,0 2.006,-0.211 2.006,0.633 1.372,1.056 2.534,2.006 1.161,2.639 1.584,1.794 2.744,2.534 2.956,2.745 1.056,0.633 3.272,1.478 3.062,1.9 1.056,1.478 0.316,1.267 0.317,1.056 0.845,1.267 0.949,1.161 0.528,0.317 0.422,0.105 1.056,0 1.479,-0.211 1.372,0.317 2.534,0.95 1.899,0.528 2.217,0.95 4.751,0.739 6.968,0.317 5.173,1.161 1.161,0.211 1.583,-0.105 1.479,-0.317 1.372,-0.528 1.372,-0.633 1.373,-0.528 0.633,0 0.739,0.422 1.056,-0.739 2.322,-1.795 0.634,-0.633 1.161,-1.373 1.583,-1.583 1.056,-0.95 3.168,-2.956 0.949,-0.422 0.528,-0.105 0.527,0.105 1.689,0.317 2.111,0.528 1.161,-0.95 1.056,-0.95 0.739,-0.95 0.739,-0.845 1.478,-2.322 0.739,-1.161 0.527,-1.9 0,-1.056 0.105,-1.689 0.105,-2.639 0.317,-0.528 0.527,-0.528 1.689,-1.161 2.745,-2.111 2.111,-1.584 1.161,-1.161 0.95,-0.844 2.005,-2.323 1.479,-1.161 1.478,-1.056 0.317,-0.105 1.161,-0.634 0.527,-0.316 0.95,-0.422 3.167,-1.373 2.534,-1.372 2.322,-1.267 0,-0.316 -0.105,-2.745 0,-4.645 0.105,-4.434 0,-5.806 0.105,-6.229 0.316,-3.695 0.739,-3.589 0.105,-0.211 1.267,0.739 0.105,0.105 0.212,-0.422 0.95,-2.64 6.545,-0.528 1.372,-0.528 2.006,-1.372 2.111,-0.845 0.739,-0.316 1.688,-1.162 2.218,-1.267 1.899,-1.9 2.534,-2.956 5.173,-2.111 2.956,-1.056 2.533,-1.584 2.217,-1.372 2.111,-0.739 4.117,-0.422 1.479,-0.845 1.478,-0.845 9.396,-4.645 3.801,-2.64 5.806,-3.167 2.745,-5.067 0.105,-0.422 0.527,-0.845 0.739,-0.528 1.161,-0.317 1.689,-0.316 1.583,0.105 1.161,0.105 2.956,-0.316 3.167,-3.167 3.484,-1.583 3.589,-1.583 2.956,-0.422 4.539,-3.167 7.073,-8.023 0.739,-0.95 2.428,-2.006 0.845,-0.634 1.267,-0.316 0.95,-0.105 1.584,-0.106 1.478,-0.316 1.584,-0.633 0.844,-1.267 1.373,-2.111 1.372,-2.006 0.634,-1.9 0.633,-0.422 2.217,0.844 1.056,1.056 1.584,0.422 1.794,0.106 0.739,-0.528 0.739,-1.478 0.527,-0.422 0.528,0.105 3.801,-0.105 0.527,0.105 0.739,0.422 0.422,0.528 0.211,0.105 0.423,0.317 0.739,0 0.738,-0.317 0.528,-0.317 1.161,-1.478 1.795,-2.217 1.478,-1.267 2.111,-0.845 4.962,-0.95 1.161,-0.528 1.583,-0.527 0.528,-0.106 0.845,0.422 1.478,0.95 0.845,0.633 0.527,0 1.268,-0.211 1.056,-0.528 1.899,-0.634 1.162,-0.316 2.85,-0.739 2.64,-0.739 2.111,-0.633 1.372,-1.056 1.161,-1.056 1.056,-1.795 0.845,-2.217 1.161,-1.267 0.634,-0.528 1.688,0 4.856,0.316 1.584,0.211 1.688,0.316 0.634,0.105 0.422,-0.105 0.423,-0.211 0,-1.056 0.211,-0.739 0.211,-0.633 0.105,-0.633 2.006,-2.745 0.423,-0.422 0.422,-0.422 0.422,0 1.056,0.211 0.845,0.316 0.528,0.317 0.422,0.316 0.845,0.422 0.527,0.211 2.111,0.634 3.167,0.739 2.323,-0.528 3.167,-0.845 3.167,-1.794 1.688,-1.9 1.268,-2.428 0.527,-0.739 1.161,-0.422 1.056,0.739 0.95,0.845 0.423,1.267 0.738,0.528 1.373,-0.211 0.844,-0.528 3.484,-2.217 2.639,-1.583 0.105,-2.322 0,-1.373 0,-0.633 0.95,-0.528 0.95,-0.211 0.739,-0.106 1.9,0.634 1.794,0.633 0.423,-0.105 1.795,-2.006 0.422,-1.795 -0.105,-4.856 0,-2.745 0.316,-3.062 1.372,-5.067 1.057,-2.217 1.372,-0.95 6.968,-3.906 4.011,-1.267 2.745,-0.422 2.745,-0.528 0.95,-0.211 1.161,-0.317 4.011,-3.167 1.795,-0.844 2.64,-1.162 9.817,-3.378 0.845,0.211 3.801,1.795 1.161,0.528 3.905,0.528 1.584,0.422 3.062,0.844 1.9,0.317 4.855,1.373 1.584,-0.106 2.428,-0.528 2.111,-0.739 2.745,-1.373 3.483,-3.483 3.59,-1.056 1.056,0.211 1.372,0.211 3.272,-0.844 1.9,-0.528 0.95,-0.845 0.845,-0.316 1.267,-0.422 1.161,-0.106 1.267,0.845 2.534,0.528 0.527,-0.211 0.528,0 0.527,0.316 0.105,0.528 0,0.211 0,0.633 0.211,0.105 0.95,1.161 0.528,0.528 1.9,1.478 1.688,0.845 0.634,0.316 1.161,0.422 0.95,0.422 0.739,0.211 0.527,0.106 0.528,0.316 0.422,0.422 0.316,0.317 0.212,0.316 0.316,0.633 0.105,0.845 0.105,0.95 0.105,0.739 0.211,0.95 0.423,0.633 0.316,0.211 0.739,0.739 0.739,0.634 0.738,0.316 0.95,0 0.739,-0.211 1.056,-0.211 0.211,-0.211 1.161,-0.845 0.211,-0.211 0.212,-0.105 3.062,-0.422 1.161,0 1.794,-0.211 3.167,-0.528 2.218,-0.316 0.844,-0.317 1.584,-0.844 1.267,-0.634 1.267,-0.633 2.111,-0.422 3.062,-0.316 4.117,-1.267 1.056,-0.105 0.739,0 0.739,0.211 1.688,0.739 1.056,0.528 0.845,0.633 1.056,0.422 0.845,0.316 1.267,0.211 1.479,-0.105 1.899,-0.95 1.161,-0.95 0.845,-0.95 0.423,-0.316 2.217,-0.845 1.267,-0.317 0.422,-0.211 0.845,0 2.429,-0.211 2.005,0 2.64,-0.211 1.795,-0.105 1.478,-0.528 0.528,-0.211 0.527,0 0.211,-0.106 0.212,0 0.105,0.106 0.316,0 0.316,0 0.211,0.105 0.317,0 0.211,-0.105 0.211,0 0.105,-0.106 0.212,-0.105 0.105,-0.211 0.211,-0.317 0.211,-0.316 0.211,0.211 46.556,32.726 0.211,-0.528 0.211,-1.161 0.211,-1.162 0.423,-2.534 0.105,-1.478 0.316,-2.323 0.105,-0.844 3.167,0.316 2.218,0.845 2.111,1.9 2.428,3.167 2.744,2.533 2.323,1.267 5.278,3.272 2.428,1.373 3.062,1.372 6.123,3.273 4.856,2.217 2.533,1.373 0.845,0.527 0.422,0.211 0.423,0.317 5.7,3.378 2.745,1.373 4.539,2.745 5.278,3.167 1.795,1.056 3.378,2.006 3.378,1.9 0.423,0.211 0.316,0.316 1.372,0.634 1.268,0.739 1.688,0.95 1.268,0.633 1.372,0.739 1.688,1.056 1.373,0.739 1.478,0.739 1.689,0.95 1.478,0.739 1.161,0.633 2.217,1.161 0.845,0.528 1.584,0.633 0.527,0.422 0.634,0.317 0.346,0.113 z"
       inkscape:connector-curvature="0"
       class="DEP_05 ZON_02" /></g></svg>