<?xml version="1.0" encoding="UTF-8" standalone="no"?>
<!-- Generator: Adobe Illustrator 19.2.0, SVG Export Plug-In . SVG Version: 6.00 Build 0)  -->

<svg
   xmlns:dc="http://purl.org/dc/elements/1.1/"
   xmlns:cc="http://creativecommons.org/ns#"
   xmlns:rdf="http://www.w3.org/1999/02/22-rdf-syntax-ns#"
   xmlns:svg="http://www.w3.org/2000/svg"
   xmlns="http://www.w3.org/2000/svg"
   xmlns:sodipodi="http://sodipodi.sourceforge.net/DTD/sodipodi-0.dtd"
   xmlns:inkscape="http://www.inkscape.org/namespaces/inkscape"
   version="1.1"
   id="SvgMunicipio"
   x="0px"
   y="0px"
   viewBox="0 0 874.7 1000"
   style="enable-background:new 0 0 874.7 1000;"
   xml:space="preserve"
   inkscape:version="0.91 r13725"
   sodipodi:docname="MUN_ID0510.svg"><metadata
     id="metadata10"><rdf:RDF><cc:Work
         rdf:about=""><dc:format>image/svg+xml</dc:format><dc:type
           rdf:resource="http://purl.org/dc/dcmitype/StillImage" /></cc:Work></rdf:RDF></metadata><defs
     id="defs8" /><sodipodi:namedview
     pagecolor="#ffffff"
     bordercolor="#666666"
     borderopacity="1"
     objecttolerance="10"
     gridtolerance="10"
     guidetolerance="10"
     inkscape:pageopacity="0"
     inkscape:pageshadow="2"
     inkscape:window-width="682"
     inkscape:window-height="480"
     id="namedview6"
     showgrid="false"
     inkscape:zoom="0.236"
     inkscape:cx="437.35001"
     inkscape:cy="500"
     inkscape:window-x="0"
     inkscape:window-y="0"
     inkscape:window-maximized="0"
     inkscape:current-layer="svg" /><g
     id="g3"><path
       id="MUN_0510"
       d="m 170.6,12.6 8.5,1.9 -0.8,3 3.3,0.5 7.1,1.4 2.5,0.8 3.3,0.3 1.9,0 2.5,0.3 1.4,0.3 14.2,2.5 0,0.8 3,9 2.5,4.1 2.2,1.6 3.3,0.3 1.9,-0.8 5.7,-1.1 10.4,-9.3 0,0 104.3,15.8 37.7,6.3 32.5,5.2 24.6,2.2 4.6,0.3 8.2,1.1 9.8,1.4 2.2,0.3 13.7,0.3 6,1.1 4.1,0.8 11.7,2.2 12.3,2.5 7.9,2.2 7.4,0.8 7.1,0.3 4.9,0.3 23.2,4.6 5.2,1.1 13.4,1.9 13.1,1.9 13.1,0.8 3.3,0 7.4,-0.3 19.7,0.3 6.8,0.5 1.9,0.3 3,0.5 6,0 7.1,0.3 1.6,5.7 0,4.6 -1.4,7.4 -11.5,19.9 5.7,-1.9 4.6,0.8 -0.3,2.5 -0.8,6.8 -0.8,9.6 -0.8,10.1 -1.1,22.1 -2.7,20.8 0.3,4.9 -0.3,1.9 0.5,0.3 -0.8,2.2 -1.1,4.9 -0.3,5.2 0.8,7.1 -0.5,3.3 0,6 -1.4,3 3,8.5 -2.7,4.9 -4.1,0.5 -0.5,0.5 -1.1,4.6 -2.2,5.2 -0.8,3.3 0,3.8 0,3 0.3,4.6 0,4.4 0,4.4 2.2,2.7 7.4,3.8 6.8,15.3 6.8,6.3 7.4,3 5.7,-1.4 9,-1.9 14.7,-6 7.6,-4.6 21.6,-10.6 4.9,4.4 8.2,6.3 10.7,5.7 12.6,12 7.9,4.9 3.8,1.6 -0.8,12.6 0,5.2 0,8.7 0.3,3.3 -0.8,9.6 -0.3,9.3 0.3,9.3 -0.3,11.7 -0.5,9.3 0,12.4 0.8,12.8 0.8,22.9 0.8,8.7 0.8,9.6 1.6,12.3 0.3,6.8 0.5,2.2 1.1,9.6 1.4,7.6 5.5,-0.8 5.7,-0.3 9.6,-0.3 2.7,0 -0.8,2.5 0.8,8.5 -1.1,4.6 2.2,2.7 -2.5,4.9 1.9,8.5 0.5,7.1 -2.5,5.7 0,8.5 -1.6,6.6 1.4,8.5 0.5,12.6 -1.1,6 20.2,-3.3 10.7,-1.1 9.3,-1.1 3,-0.3 7.6,-1.1 13.9,0.3 11.7,0.8 -0.3,7.4 1.4,6.6 5.7,7.9 4.6,12.6 10.4,16.1 6,13.9 -153.5,19.1 -159.8,6 -429.3,334.2 5.5,-4.9 -3,-6.6 10.4,-6 10.4,-1.9 -6,-11.5 6.8,-4.1 4.1,-6.3 12.6,-7.1 -0.8,-3 0.3,-0.8 -0.5,-0.5 0.8,-3.3 1.6,-2.5 0.3,-1.6 -0.8,-0.5 -6.3,-3.3 -5.5,-3 -13.9,0.3 -7.9,-6.8 -4.6,-1.4 0,-15.6 2.7,-5.2 2.7,-14.2 30,-3.8 5.2,-5.5 4.1,-6 4.4,-6.3 0.5,-4.1 1.6,-4.6 0,-5.2 -1.1,-7.1 -1.6,-2.7 2.5,-6.6 1.4,-1.6 -1.1,-2.7 0.3,-3.3 -0.3,-2.2 -0.3,-2.2 2.5,-6.8 0.3,-5.7 -3.3,-3.3 3.8,-8.5 1.6,-4.9 2.5,-9.8 6,-17.2 4.6,-12 4.6,-11.5 -157,-43.7 0,0 0,-1.1 -1.9,-1.6 -4.1,-2.7 -7.9,1.6 -4.1,0.8 -8.5,-5.2 -2.7,-6.6 -1.1,-2.5 -3.6,-2.7 -1.1,-6.3 -5.7,-6 -0.8,-1.1 -1.9,-1.9 -1.1,-1.1 -1.1,-2.7 -2.2,-4.9 -1.1,-2.2 0,0 -3.3,-7.6 3.3,-7.9 2.2,-4.6 -0.3,-4.1 -3,-4.1 -0.8,-1.1 0.8,-3.8 1.9,-7.9 0.5,-2.2 1.9,-1.6 0.8,-10.9 2.2,-18.8 0.5,0 0,-0.9 0,-0.3 -0.5,-7.1 0,-1.6 0.8,-2.2 1.4,-6 0.8,-2.2 -0.8,-0.5 -1.6,-1.6 -0.8,-0.8 0.5,-2.5 1.1,-5.5 0.8,-4.1 1.1,-2.2 2.2,-5.5 2.2,-4.6 0.3,-1.1 0.5,-2.2 0.5,-2.7 -0.5,-24 -0.3,-6.8 -0.5,-20.5 0.3,-2.7 0.3,-4.9 -0.3,-1.4 -1.1,-5.5 -1.4,-4.4 -0.5,-5.5 -1.1,-5.5 -0.3,-2.7 -0.3,-5.2 0,-5.2 0,-2.7 1.6,-4.9 0.5,0 1.9,-3.8 1.1,-3.5 1.9,-4.9 -0.5,-3.8 0.8,-9.3 0,-1.1 0.5,-3 0,-3.8 1.1,-5.2 0.5,-4.1 0,0 0.8,-3.8 1.1,-4.9 0.8,-4.6 0.5,-3.6 0.3,-1.9 0.3,-1.4 0.3,-1.1 0.8,-5.5 0.5,-3.3 1.1,-5.7 0.3,-1.1 0,-0.8 0.3,-2.5 0,-0.8 0,-3.3 0,-6 0.3,-3 0.3,-2.7 0,-0.3 0,-0.8 -0.3,-1.4 0.3,-6 0.5,-4.6 0,-1.4 0.3,-3 0,-0.5 0.5,-5.5 -0.3,0 1.1,-6.8 0.8,-3.3 -0.3,0 0.5,-5.2 -0.3,0 1.1,-5.2 0.5,-1.9 0.3,-1.1 1.6,-6 0.3,0.3 0,0 0,0 1.1,-2.2 0,-1.1 0.5,-0.5 0.5,0 0,-0.4 1.6,0.3 0.8,-1.9 2.2,-2.2 1.4,-4.1 1.1,-1.6 1.1,-5.2 1.1,-4.9 1.6,-2.2 1.4,-2.7 0.5,-3 3.8,-16.4 2.5,-9.8 7.6,-31.4 5.7,-25.7 2.7,-10.4 1.6,-6.6 6.6,-22.4 1.6,-6.6 1.6,-8.5 2.2,-10.6 1.1,-8.7 1.6,-16.7 0.5,-3.6 0,-4.1 2.5,-1.1 3.6,-18 -0.8,-0.3 9,-38 -0.8,-4.9 25.3,5.9 z"
       inkscape:connector-curvature="0"
       class="DEP_05 ZON_02" /></g></svg>