<?xml version="1.0" encoding="UTF-8" standalone="no"?>
<!-- Generator: Adobe Illustrator 19.2.0, SVG Export Plug-In . SVG Version: 6.00 Build 0)  -->

<svg
   xmlns:dc="http://purl.org/dc/elements/1.1/"
   xmlns:cc="http://creativecommons.org/ns#"
   xmlns:rdf="http://www.w3.org/1999/02/22-rdf-syntax-ns#"
   xmlns:svg="http://www.w3.org/2000/svg"
   xmlns="http://www.w3.org/2000/svg"
   xmlns:sodipodi="http://sodipodi.sourceforge.net/DTD/sodipodi-0.dtd"
   xmlns:inkscape="http://www.inkscape.org/namespaces/inkscape"
   version="1.1"
   id="SvgMunicipio"
   x="0px"
   y="0px"
   viewBox="0 0 1000 537.5"
   style="enable-background:new 0 0 1000 537.5;"
   xml:space="preserve"
   inkscape:version="0.91 r13725"
   sodipodi:docname="MUN_ID0509.svg"><metadata
     id="metadata10"><rdf:RDF><cc:Work
         rdf:about=""><dc:format>image/svg+xml</dc:format><dc:type
           rdf:resource="http://purl.org/dc/dcmitype/StillImage" /></cc:Work></rdf:RDF></metadata><defs
     id="defs8" /><sodipodi:namedview
     pagecolor="#ffffff"
     bordercolor="#666666"
     borderopacity="1"
     objecttolerance="10"
     gridtolerance="10"
     guidetolerance="10"
     inkscape:pageopacity="0"
     inkscape:pageshadow="2"
     inkscape:window-width="682"
     inkscape:window-height="480"
     id="namedview6"
     showgrid="false"
     inkscape:zoom="0.409"
     inkscape:cx="500"
     inkscape:cy="268.75"
     inkscape:window-x="0"
     inkscape:window-y="0"
     inkscape:window-maximized="0"
     inkscape:current-layer="svg" /><g
     id="g3"><path
       id="MUN_0509"
       d="M 38.9,0.2 39.6,3.3 40,6 40.1,6.7 45.2,6.4 47,5.9 46.9,4.9 48.3,5 51,5.1 l 1.3,0.2 3.4,0.2 0.1,0 0.2,0.1 0.3,0.1 2,0 1.2,0.1 2.1,0.2 3.2,0.2 0,0 0.9,0.7 1.5,1.1 2.3,1.7 0.1,0.2 0.6,0.9 1.2,1.8 0,0.1 0,0.3 0.6,1.9 0.9,3.1 0,0.1 0.2,0.6 0.4,1.9 0.3,1 0.2,0.4 0.6,1.1 0.5,1 0.2,0.4 1.1,2.5 0.1,0.3 0,0.1 0.3,1.9 0,0.8 0,0.1 2.7,2.7 2.7,2.9 0,0 0.2,0.3 1,2 0.7,1.4 0,0.1 0.3,0.8 0,0 0.6,1.5 0,0 1.5,2 0.9,1.4 0.8,1.3 1,1.9 2.4,3.1 0.1,0.2 0,0.2 0,1 -0.1,0.6 0.2,0 1.6,-1.3 5.9,-5 2.2,-1.9 0.4,-0.4 0,-0.1 -0.1,-0.1 -1,-0.6 -0.7,-0.9 -0.7,-0.8 -0.8,-0.1 0,-0.4 1,-0.9 -0.4,-1 0.7,-0.8 0.8,-1 0.3,-0.3 0.3,-0.4 0.4,-0.5 0.3,-0.4 1.9,-2.3 0.3,-0.3 0.8,-1 0.3,-0.3 0.9,-1 0,-0.1 0,0 1.1,-1.3 0.6,0.3 1.4,1.1 0.8,-0.2 0.4,-0.1 0.7,-0.1 0.6,0.7 0,0.3 0.2,0.7 0.2,0.6 0.3,0.5 0.1,0.2 0.2,0.7 0,0.3 0.1,0.3 0.1,0.4 0,0.2 0,0.1 0.1,0.5 0.1,0.3 0,0 0,0 0,0 0,0.1 0.1,0.2 0.1,0.4 0.3,0.6 0.2,0.5 0.2,0.4 -0.1,0.6 0.1,0.2 1.8,0 1.9,-0.4 0,0.2 0.3,-0.1 0.3,-0.1 0.1,0 0.2,0 0.4,-0.2 0.1,0 0.3,-0.1 0.5,-0.2 0.2,-0.1 0.1,0 0.2,-0.1 0.4,-0.1 0.3,-0.1 0.2,0 0.1,0 0.1,0 0.1,0 0.1,0 0.1,0 0,0 0,0 0.2,-0.1 0,0 0.1,0 0.1,0 0.2,-0.1 0,0 0.1,0 0.1,0 0,-0.1 2.7,-0.5 4.7,-0.9 1.2,-0.2 0.5,-0.1 -0.3,0.5 0.1,1.3 1,2.1 0.6,0.6 1.6,1.5 0.8,1.3 0.6,1.8 -0.1,0.9 -0.2,0.7 -0.4,1.2 -0.5,0.5 -3,1.5 -1,0.6 -0.8,1.2 -0.1,1 0.2,0.6 0.6,1.3 0.3,0.3 0.4,-0.1 2.4,-0.5 0.4,0 1,0.1 0.3,0 0.8,-0.1 0.7,-0.1 1.2,0 0.6,-0.1 1.5,-0.3 1.9,-1.5 0.5,-0.4 0.9,-0.2 2,1.1 3.6,2 1.3,0.7 0.1,-0.1 0.6,-1.6 0.7,-1.9 0.4,-1.5 0,-2.3 0,-0.8 0,-0.3 4.8,0.2 0.1,0 -0.3,-1 -0.3,-0.8 -0.5,-3.2 -0.4,-2.6 -0.4,-1.8 -0.8,-1.7 -0.8,-2 -0.6,-1 -0.5,-0.5 -1,-0.7 -0.9,-0.9 -0.4,-0.5 -0.2,-0.6 0,-0.8 1.4,-0.3 1.7,-0.6 0.7,-0.5 1.2,-1 0.7,-0.6 0.3,-0.9 0.5,-2.1 0,-0.5 0,-0.1 0,0 0.1,0.1 0.1,0.1 0.2,0.3 2,2.9 0.3,0.3 -0.2,1.3 -0.4,2.3 -0.2,1.5 2,0.5 0.6,0.2 0.8,0.2 0.5,0.2 0.4,0.3 0.5,0.3 0.2,0 0.2,0.1 0.3,0 0.4,0 0.4,0 0.1,0 0.3,0 2.6,0.4 2.4,0.3 2.1,0.1 0,-0.8 2.9,0.2 0.7,0 0,0.2 -0.9,1.4 -1.7,2.9 0,1.1 0.2,0.7 2.1,2.9 0,0.1 0.3,-0.1 1.3,-0.6 1.6,-0.7 5.2,-2.3 2.1,-1.1 4,-1.6 2.2,-0.8 0,-0.1 2.3,-1.1 0.6,-1.4 -4.2,-4.3 -1.5,-1 0.1,-0.7 1.7,-0.4 1.7,-1 0.2,-0.6 0.7,-4.4 -1.3,-3.7 0.1,-0.6 2.7,-6 1.8,1.2 2,1.6 2.3,2.1 0.7,0.6 0.1,0.1 0.1,0 7,5.4 2.8,2.4 3.3,2.6 2,1.7 2.5,2 0.9,0.8 0.3,0.2 0.7,0.8 0.7,0.7 0.5,0.3 2.3,1.3 2.8,0.1 1.9,-0.3 0.7,0.4 0.9,0.1 2.4,-0.7 1.9,-0.5 0.1,0.1 1.3,-0.4 1.3,-0.5 1,-0.3 1.6,-0.4 0.3,-0.1 0.9,-0.2 0.6,-0.4 0.9,-0.7 0.9,-0.7 1.4,-1.3 0.8,-0.8 0.6,-0.9 0.2,-0.2 0.5,-0.5 0.3,-0.5 0.4,-0.9 0.3,-0.6 0.4,-0.5 0.9,-0.6 0.9,-0.6 2,-1.3 0.8,-0.7 0.5,-0.3 0.7,-0.1 1.2,-0.5 0.8,-0.3 0.7,-0.1 0.3,0 1.2,0 0.5,-0.2 0.9,-0.5 0.8,-0.5 0.6,-0.4 0.5,-0.1 0.7,-0.2 0.8,-0.3 1.2,-0.4 0.9,-0.3 0.4,-0.2 0.5,-0.1 1,0.6 -0.4,1 0.2,0.5 1,0.8 0.9,0.7 0.5,0.7 0.4,0.9 0.4,2.1 0.3,1 1.3,1 0.9,0.5 2.1,-0.1 1.1,0.3 1.2,0.4 0.3,0.3 1.9,-0.2 0.3,0 1.5,-0.4 1.7,-0.4 1.2,0.7 0.1,0.3 0.9,1 -0.8,3.1 -0.5,1.8 -0.3,2.4 0.2,2.2 0.2,1.3 0.1,1.8 0.8,2.7 0,1.4 44.5,13.6 28.4,10.6 22.1,3.3 -0.1,-0.4 -0.2,-1.3 -0.4,-1 -0.3,-1.7 -0.3,-2.5 0.2,-4.3 0.4,0 3.2,-0.2 0.1,3 0.3,0.7 0.3,0.7 2.8,1 2.8,1 -0.1,2.6 -0.1,2.6 1.1,2.3 1.1,2.5 1.1,2.5 1.3,2.5 0.7,1.5 0.2,1.4 4.7,0 3,0.9 4,-0.1 4.1,-0.1 0.1,0 2.8,-0.1 0.1,0 0.4,-0.3 0,0.4 -0.1,0.6 0.1,1.3 0.3,0.9 0.4,0.5 0.6,0.3 2.6,0.5 1.8,0.5 0.7,0.3 0.4,0.6 0.3,0.7 0.1,0.7 -0.2,1 -0.4,1.1 0,0.7 0.2,1 0.6,1.2 0.7,1.8 0.4,0.7 0.9,1.5 0.5,0.9 0.1,1 0.3,2.4 0.8,1.7 0.2,0.4 0.2,0.9 0.6,0.8 1.1,0.5 0.6,0.3 1.4,0.4 0.7,0.3 0.4,0.5 0.1,0.6 0,1 0,1.5 -0.1,0.7 0.2,0.7 0.3,0.4 0.9,0.2 1.2,0.3 1.1,0.3 0.4,0.4 0,0.6 -0.1,0.8 0,1 0.1,0.4 0.7,0.8 1.3,0.7 1,0.4 2.3,0.9 0.9,0.8 1,1.3 0.5,1 0.4,1.3 0.1,1.7 0,0.5 0.4,1 0.4,1 0.9,0.7 0.7,0.3 0.6,0.2 1.6,0.2 1.6,0.4 0.8,0.1 0.9,0 0.9,0.2 0.7,0.2 0.7,0.3 0.6,0.5 0.3,0.6 0.4,0.9 0.1,1 -0.2,0.5 -1.1,1.7 -1.6,2.4 -0.7,2.1 -1.4,1.2 0.1,1.1 1,1.5 0.6,0.5 2.2,-1.4 0.3,-0.2 0.4,-0.2 0.3,-0.2 0.3,-0.2 0.5,-0.5 1,-0.4 0.3,-0.1 0.8,-0.1 1.2,0.3 0.3,0.1 0.3,0.1 0.7,0.3 0.6,0.3 0.8,0.2 0.7,0.3 1.6,0.4 1.5,-1 2,-0.3 1,-1.1 -0.1,-1.1 0,-0.3 0.4,-0.8 1,-0.3 0,-0.5 0.3,-1.4 1,-0.3 0.5,0.3 1.2,0.8 0.6,0.4 0.8,0.4 0.3,0.1 0.1,0 0.1,0 0.3,-0.1 0.4,-0.2 0.9,-0.6 0.8,-0.7 0.1,-0.4 0.3,-0.8 0.1,-0.4 -0.1,-2 0,-2.6 0.1,-2.6 0,-0.1 0,-0.1 0.3,-0.6 0.2,-0.7 0.5,-1.1 0.3,-0.8 0.3,-0.9 0.3,-0.7 0.2,-0.9 1.4,-2 0.8,-1 1,-0.7 1.5,-0.9 0.2,-0.1 0.3,-0.2 1.5,-0.6 0.8,-0.3 0.8,-0.4 0.3,-0.2 0.2,-0.1 0.4,-0.9 0.1,-0.5 0.6,-1.6 1.6,-3.2 0.1,-0.1 0,-0.8 0,-0.7 0.2,-1.1 0.2,-1.7 0.1,-1.3 0,-0.4 0,0 0.1,0.1 5.1,-0.4 0.9,0.1 5.1,0.4 0.2,-0.3 0.9,-1.7 1.1,-0.3 0.5,-0.8 2.8,-0.2 0.7,-1.8 1.1,-2.4 -0.5,-2 1,-0.1 1.9,-2.4 2.1,-2.7 0.6,-2.5 1.5,-0.1 0.2,-0.1 0,0.4 0,1 -0.1,0.7 -0.2,0.6 -0.4,0.8 -0.5,0.8 -0.3,0.7 -0.2,0.7 -0.3,1.3 0,1.5 0,0.4 0.7,1.6 0.7,1.7 -0.1,1.5 -0.3,1.4 -0.1,0.7 -1,1.4 -0.7,0.4 -0.6,0.4 -0.4,0.5 -0.3,0.3 -0.1,0.2 0.2,0 8.6,1.5 2,0.3 7.2,1 9,1.6 0.3,0 0.3,-1.3 0.1,-1 -0.1,-0.5 -0.3,-0.7 -1,-1 -0.7,-0.7 -0.4,-1 0.2,0 11.2,1.3 0.8,0.1 -0.2,0.5 -0.5,1.7 -0.4,0.7 -0.7,1.1 -0.5,1.2 -0.1,0.6 0,0.7 0,0.7 0.4,0.8 0.3,0.9 -0.1,0.6 -0.5,1.3 -0.4,1.5 -0.1,0.5 0,0.6 0,0.4 0,0.7 0,0.5 0.3,0.7 0.2,0.7 0.2,0.7 0.3,0.6 1.5,1.7 0.5,0.8 0.1,0.5 0,1.3 0,1.3 0,1.1 0.1,0.6 0.2,1 0.3,0.9 0.5,1.4 0.8,2 0.3,0.7 -0.1,1.2 -0.5,0.8 -0.6,0.7 -1.9,1.9 -3.2,3 -0.3,0.4 -0.3,0.5 0,0.6 0,0.5 0.3,0.5 1,1.2 0.9,1 0.4,0.4 1,0.7 0.7,0.6 0.3,0.4 0,0.6 0,0.3 -0.4,0.7 -0.6,1 -1.1,1.6 -0.6,0.8 -0.3,0.6 -0.1,0.7 0,0.3 0.3,0.7 0.7,0.7 1.7,1.4 0.5,0.7 0.1,0.6 -0.2,1.1 -0.3,2.1 -0.3,1.1 0,0 0,0.5 0,0.2 0,0.5 0.2,0.4 0.4,0.6 1.3,1.2 1.7,1.5 1,0.9 1,0.8 1.9,1.2 0.8,0.7 0.7,0.7 0.6,0.7 0.2,0.6 0.2,0.5 0,0.5 -0.1,0.3 -0.5,0.8 -0.7,0.7 -1.7,1.4 -0.3,0.6 -1.1,1.9 -0.3,0.9 -0.2,0.5 0,0.5 0.2,0.8 0.2,0.7 0.4,0.3 1,0.1 1,-0.1 0.7,0.1 0.7,0.3 0.7,0.4 0.5,0.7 0.5,0.8 0,0.5 -0.2,0.9 -0.8,0.7 -1,0.7 -0.5,0.6 -0.5,0.8 -0.2,0.4 0.4,0 8,-0.8 8,-0.8 4.6,5.2 2.1,-0.5 2.6,-4.4 0.4,0 1.5,-0.2 1.7,-0.2 0.8,-0.1 0.8,0 1.5,-0.1 0.7,0 0.7,0 0.7,0 0.7,0 0.7,0 0.6,0 8,-0.6 0,0 0,0.2 0.1,0.2 0.1,0.1 0.3,0.1 0.1,0.1 0.1,0.2 0,0.3 0,0.3 -0.2,0.2 -0.2,0.2 -0.3,0.1 -0.2,0.3 -0.1,0.3 -0.1,0.3 0,0.6 0,0.2 0,0.1 0.2,0.2 0.3,0 0.2,0.1 0,0.2 0,0.2 0,0.2 -0.3,0.4 -0.1,0.2 -0.1,0.3 0,0.2 0,0.3 0.1,0.3 0,0.3 0.2,0.2 0.2,0.3 0.1,0.2 0.3,0.4 0.3,0.4 0.4,1.1 0.1,1.4 -0.1,1.1 -1,2.7 -0.6,1.7 0.2,1.5 0.8,1.3 2.3,1.1 1,0.8 0.5,2.8 0,1 -0.3,1.4 0,2 -0.4,2.2 -0.7,0.6 -1.2,0.1 -3,1.6 -0.5,1 -0.3,1.6 -0.6,1.9 0.8,2.2 0.7,2 0,1.7 -0.4,0.7 -2.7,2.4 0.1,1.8 0.2,0.6 0.3,0.3 0.9,0.6 1.3,0.4 1.3,-0.1 3,-0.4 0.1,0.1 0.9,1.1 0.5,0 4,-0.2 0.2,-0.1 1.5,0 1,1.7 2.5,0.6 2.6,0.3 0.6,0 1.7,-0.3 1.9,-0.3 5.2,1.6 0.6,0 1,0 1.5,0.1 1.9,-0.6 0.1,-0.3 0.1,-0.3 0.1,-0.5 0.1,-0.4 0.2,-0.8 0.3,-1 0.5,-2 0.3,-1.6 0.3,-1.1 0,-0.2 -0.1,-0.7 0,0 -0.3,-1.2 -1.9,-5.2 -0.1,-0.2 -1.4,-2.8 -1.5,-3.2 -0.1,-0.4 -0.5,-1.7 -0.8,-2.9 -0.6,-2 -0.3,-0.8 -1,-2.2 -0.7,-1.7 -0.3,-0.6 -0.2,-0.3 -0.5,-1.3 -0.5,-1.4 -0.3,-0.7 -0.9,-2.1 -0.3,-0.7 -0.3,-2.6 0,0 0,-0.3 -0.1,-0.4 -0.4,-0.8 -0.3,-0.5 -0.4,-0.9 -0.4,-1.5 -1,-3.4 -1,-3.8 0,0 1.9,-0.2 2.5,-0.2 0.7,-0.1 0,0 0.3,0 0.2,-0.1 2.3,-0.1 2.7,-0.1 2.7,-0.1 4.1,-0.3 2.3,-0.2 1,-0.1 1.4,0 0.9,-0.3 0.4,0 1.4,-0.1 2.8,-0.2 2.7,-0.2 1.9,-0.2 1.5,0 1.5,0 0.6,-0.3 0.2,0 2,-0.1 1.3,-0.1 2.6,-0.1 0.9,0 0.7,0 3.7,-0.1 1.7,0 2,0 1.9,-0.2 2.7,-0.3 2.2,-0.2 2.8,-0.4 2.8,-0.6 1.2,-0.3 1,-0.3 1.3,-0.3 2.3,-0.7 1,-0.3 0.2,-0.1 0.4,0 -0.4,1.4 -0.7,2.7 -0.6,1.7 -1,3.6 -0.2,1.1 -0.1,1 0.1,0.8 0.3,0.5 0.5,0.4 0.6,0.2 0.7,0.2 1,0 0.8,-0.3 1.6,-1 1.1,-0.6 0.7,-0.2 1,-0.1 1,0.1 2.8,0.4 2.3,0.6 1,0.4 0.5,0.6 0.3,1.4 0.3,0.7 0.3,0.5 0.6,0.3 0.8,-0.1 1.6,-0.7 1.7,0 1,0.3 2.3,1.7 1.8,0.9 1.2,1.3 0.7,0.9 0.6,1.3 0.3,1 0.4,2.1 0.6,2.3 0.5,1.7 0.6,2.1 0.2,1 0.1,1.7 -0.1,1.6 -0.2,1.5 -0.2,1.6 -0.1,1.4 0.2,1 0.3,0.9 1.1,1 1.6,0.8 1.4,0.8 1,0.6 0.6,0.7 0.3,0.7 0.2,0.7 0,0.6 -0.3,0.7 -0.8,1.7 -1.7,1.5 -0.8,0.8 -0.3,0.7 -0.1,0.6 -0.1,0.6 0.4,0.4 0.3,0.5 0.3,0.9 0.1,0.5 0,1 0,1.3 0,0.4 0,1.1 -0.1,2 -0.2,1.2 -1,0 -0.5,0.1 -0.4,0 -0.3,0.1 -0.4,0.3 -0.6,0.6 -0.8,0.8 -1,1.3 -0.6,1 -0.1,0.7 0.1,0.7 0.1,0.9 -0.1,0.6 -0.2,2 -0.1,0.6 -0.1,0.9 -0.1,1.7 -0.1,1.1 -0.2,1 -0.2,0.6 0.1,0.7 0.9,2.1 0.7,1.8 0.4,0.7 0.4,0.6 0.9,1.4 0.7,0.9 0.5,0.5 0.4,0.7 0.3,0.8 0.2,0.7 0.1,1.3 0,0.1 -0.1,1.5 -2.2,2.8 -0.2,0.2 1.4,0 0.3,0 0.7,0 2.8,0.3 2.9,0.2 2,0.1 1.3,0 4.3,0.1 0.6,0 4,0.1 3.7,0.2 3.5,0.2 7,0.4 6.9,0.3 1,0 8.2,0.4 4.8,0.4 6,1.5 3,0.9 0.3,0.1 3.9,1.2 2.4,0.8 1.9,0.7 1.1,0.3 3.7,1.2 2.6,0.6 2.3,0.7 1.5,0.5 2.8,0.9 1.6,0.5 3.5,1.1 2.7,0.8 6.6,2 3.2,0.9 0.1,-1.2 -0.1,-1.1 0.1,-1.3 0.2,-0.9 0.3,-0.8 0.6,-1.4 0,-0.3 0.2,-1.1 0.3,-1 0.1,-1 0.2,-1 0,-0.7 -0.1,-1.4 0.1,-1.4 0.3,-1.6 0.3,-1.2 0.3,-1 0.1,-0.7 0.2,-0.5 0.3,-0.4 0.2,-0.3 0.2,-0.3 0.1,-0.5 0.1,-0.3 0.1,-0.3 0,-0.3 0,-0.3 0.2,-0.1 0.2,-0.3 0.5,-0.4 0.5,-0.3 0.5,-0.3 0.6,-0.3 0.8,-0.5 0.7,-0.4 1,-0.1 0.8,-0.3 0.7,-0.1 0.7,-0.4 0.5,-0.3 0.4,-0.3 0.3,-0.3 0.2,-0.3 0.1,-0.2 0.2,-0.1 0,-0.1 0,-0.2 0.1,-0.4 0.3,-0.7 0.1,-0.5 0.3,-1.1 0.3,-0.7 0.2,-1.7 0,-0.7 0.1,-0.7 0.1,-0.3 0.3,-0.4 0.3,-0.3 0.1,-0.2 0.1,-0.3 0.1,-0.1 0.4,-0.2 0.3,-0.1 0.3,0 1,-0.3 1.1,-0.3 0.5,0 0.3,0.1 0.4,0.2 1.5,0.3 0.4,0.3 0.4,0.1 0.5,0.1 0.6,0.1 0.5,0.1 0.6,0 0.6,0 0.5,0 0.6,0 0.3,-0.2 0.4,-0.3 0.8,-0.3 0.6,-0.1 0.5,0 0.8,0 0.8,0 0.4,0 0.4,-0.1 0.4,0 0.4,0.1 0.3,0.1 0.2,0.1 0.3,0.1 0.2,0.1 0.3,0 0.3,0 0.3,-0.1 0.2,0 0.2,-0.1 0.4,0 0.3,0 0.3,0 0.2,-0.1 0.4,0 0.2,-0.1 0.2,0 0.1,-0.1 0.2,-0.1 0.1,-0.1 0.1,0 0.2,-0.1 0.1,-0.1 0.1,0 0.2,0 0.1,0 0.1,0 0.1,0 0.2,-0.1 0.3,-0.1 0.3,-0.2 0.3,-0.2 0.3,-0.1 0.2,-0.1 0.3,-0.1 0.2,-0.1 0.3,-0.1 0.3,-0.1 0.1,0 0.2,-0.1 0.2,-0.2 0.1,-0.1 0.2,-0.2 0.3,-0.2 0.2,-0.2 0.2,0 0.2,-0.1 0.2,-0.2 0.3,-0.1 0.3,-0.2 0.2,-0.2 0.2,-0.2 0,-0.3 -0.1,-0.7 -0.3,-0.4 -0.6,-0.6 -0.9,-1.2 0,-0.7 0.6,-2.9 0.3,-1.7 1,-1.7 0.1,-1.1 -0.3,-0.8 -0.7,-0.7 -0.6,-0.7 -0.4,-0.5 -0.7,-0.7 -0.7,-0.6 -0.6,-0.5 -0.9,-0.6 -0.5,-0.4 -0.4,-0.6 -0.7,-1.3 -0.3,-0.8 -0.1,-0.5 0.1,-0.8 0,-0.6 0.1,-0.6 0.2,-0.4 1,-1.3 0.9,-1.5 0.4,-0.6 0.4,-0.7 0.3,-0.3 0.4,-0.4 0.4,-0.2 0.8,-0.3 0.6,-0.5 0.5,0 0.6,-0.1 0.7,-0.5 0.6,-0.4 0.9,0.1 0.3,0 0.1,0.3 0.3,0.7 0.2,0.4 0.3,0.7 0.3,0.4 0.4,0.4 0.2,0.3 0.3,0.5 0.9,1 0.5,0.5 0.8,0.7 0.5,0.5 0.4,0.2 0.2,0 0.3,-0.1 0.3,-0.6 0.5,-1 1,-0.9 0.6,-0.3 0.4,-0.1 0.4,0 0.6,-0.2 0.5,-0.4 0.3,-0.4 0.3,-0.8 0.5,-0.9 0.3,-0.4 0.2,-0.3 0.4,-0.7 0.6,-0.4 0.4,-0.2 0.6,-0.4 1,-0.5 0.7,-0.4 0.6,-0.3 0.6,-0.3 0.3,-0.4 0.7,-0.3 0.9,-0.5 0.7,-0.3 0.6,-0.1 0.3,0 0.3,-0.1 0.5,0 0.3,0 0.7,0.2 0.7,0.2 0.4,0.2 0.6,0.3 0.5,0.2 0.3,0.1 0.3,0 0.7,0 0.3,0 0.3,0 0.6,0.1 1.2,0.8 1,0.7 0.5,0.3 0.4,0.3 0.2,0 0.2,0 0.1,0.1 0,0.4 0.2,0.5 0.3,0.5 0.2,0.3 0.2,0.3 0.3,0.2 0.7,0.5 0.8,0.5 1,0.4 0.5,0.2 0.7,0.1 0.6,0.1 1,0.6 1.4,0.1 1.1,0 0.3,-0.1 0.3,-0.3 0.5,-0.7 0.3,-1.1 0.1,-1.5 -0.1,-0.7 -0.2,-0.5 -0.9,-0.9 0,-1.3 0.8,0.6 1.5,1.4 0.2,0.6 0,0.7 -0.2,1.2 0.1,1.3 -0.9,1.6 0.7,0.3 0.6,0.2 1.2,0.5 3.2,1.2 -0.3,3.1 -0.1,0.5 -0.3,0.9 -0.8,1.3 -0.9,1.2 -0.8,0.7 -0.6,0.6 -2.6,1.2 -0.7,0 -0.7,0 -0.7,0.3 -0.8,0.4 -0.3,0 -1.3,0 -1.7,-0.2 -0.4,0.1 -0.7,2.2 -0.7,2 -0.6,1.7 -0.3,1.3 -0.3,1.4 -2.3,0.1 0,0.1 -0.7,8.4 0.7,0 1.9,-0.1 1.8,-0.1 3,-0.1 0.1,3 -1.5,3 0,0.6 0,0.8 0,1.3 -0.3,1.1 -0.3,2.4 1.7,-0.1 0,7.3 0,0.3 1.1,-0.3 0,0.1 -0.3,2.7 1.7,-0.1 -0.1,7.8 -0.2,6.3 -0.1,4 1.2,-0.2 5.2,-1 2.1,-0.4 1.8,-0.3 2.2,-0.4 4.3,-0.8 2.2,-0.4 2.4,-0.4 1.4,-0.3 1.3,-0.3 2.8,-0.5 2.4,-0.5 3,-0.6 3,-0.6 5.6,-1.1 9.5,-1.8 9.6,-1.9 7.7,-1.4 8.3,-0.4 1,0 4.7,-0.1 23.2,19.7 -26.8,72.1 -19.9,53.6 -38,102.3 0,0 -0.5,-0.3 -0.8,-0.5 -0.4,-0.2 -1.2,-0.5 -0.8,-0.4 -0.7,-0.3 -0.8,-0.5 -0.6,-0.3 -1.3,-0.7 -0.7,-0.4 -0.6,-0.3 -0.7,-0.4 -0.8,-0.5 -0.7,-0.3 -0.9,-0.3 -0.5,-0.3 -0.7,-0.4 -0.9,-0.3 -0.6,-0.3 -0.7,-0.3 -1.1,-0.6 -1,-0.6 -0.7,-0.4 -1.9,-0.9 -0.8,-0.3 -0.8,-0.5 -0.8,-0.5 -1,-0.4 -0.8,-0.4 -0.5,-0.2 -2,-0.9 -0.7,-0.4 -1.4,-0.9 -0.6,-0.3 -0.5,-0.2 -0.5,-0.3 -1.1,-0.4 -0.7,-0.3 -1,-0.5 -1,-0.5 -0.7,-0.5 -0.7,-0.4 -0.6,-0.4 -0.8,-0.3 -0.5,-0.3 -0.4,-0.2 -0.7,-0.4 -0.5,-0.3 -0.8,-0.4 -0.7,-0.3 -1.1,-0.6 -1,-0.5 -0.7,-0.3 -0.8,-0.4 -0.9,-0.4 -1,-0.5 -1.3,-0.7 -0.9,-0.5 -0.6,-0.3 -0.7,-0.3 -0.3,-0.2 -0.4,-0.3 -0.3,-0.3 -0.3,-0.1 -0.3,-0.1 -0.6,-0.5 -0.4,-0.4 -0.3,-0.5 -0.3,-0.6 0,0 0,0 -2.3,-0.8 -1.7,-0.7 -2.1,-0.8 -1.2,-0.6 -1.2,-0.5 -1.3,-0.6 -1.5,-0.8 -1.7,-0.9 -0.9,-0.6 -1,-0.7 -0.8,-0.6 -1.5,-0.6 -3.3,-2.1 -0.3,-0.1 -0.1,0 -0.1,0 -0.1,0 -0.1,0 -0.1,0 -0.1,0 -0.1,-0.1 -0.1,0 0,0 0,0 0,0 -0.1,0 -0.1,0 -0.1,0 0,0 0,0 0,0 -0.1,-0.1 -0.1,0 -0.1,0 -0.1,0 0,0 -0.1,0 -0.1,0 0,0 -0.1,0 -0.1,0 -0.1,-0.1 -0.1,0 -0.1,-0.1 -0.1,-0.1 -0.2,-0.1 -0.1,0 -0.1,0 0,-0.1 -0.1,0 -0.3,-0.1 0,0 -0.1,0 0,0 -0.1,0 -0.1,0 -0.1,-0.1 -0.1,-0.1 -0.1,0 -0.1,0 0,0 -0.1,-0.1 -0.1,0 -0.1,0 -0.1,0 0,0 -0.1,-0.1 -0.1,0 0,0 -0.1,0 -0.1,0 -0.1,-0.1 -0.1,0 -0.1,-0.1 0,0 -0.2,0 -0.1,0 -0.2,-0.1 0,0 0,0 -0.1,0 -0.1,0 -0.1,0 -0.1,-0.1 -0.1,0 -0.1,-0.1 0,0 -0.1,0 0,0 0,0 -0.2,-0.1 -0.1,0 -0.1,0 0,0 -0.3,-0.1 -0.1,-0.1 -0.1,0 -0.1,-0.1 -0.1,0 -0.1,0 -0.1,0 -0.1,-0.1 -0.4,-0.2 -0.1,0 0,0 -0.1,-0.1 -0.1,0 -0.1,0 -0.1,-0.1 -0.2,0 -0.1,-0.1 -0.1,0 -0.2,-0.1 -0.1,-0.1 -0.1,0 -0.1,0 -0.1,-0.1 -0.1,0 -0.1,-0.1 -0.1,0 -0.1,0 -0.1,0 -0.1,0 0,0 -0.1,0 -0.1,0 -0.1,-0.1 -0.1,0 -0.1,-0.1 -0.1,-0.1 -0.1,0 -0.1,0 -0.1,0 -0.1,0 0,0 -0.1,0 -0.1,0 -0.1,0 -0.1,-0.1 -0.1,-0.1 -0.1,0 -0.1,-0.1 -0.1,0 -0.1,0 -0.1,0 -0.1,0 0,0 -0.2,-0.1 -0.1,0 -0.1,0 0,0 -0.1,0 -0.1,-0.1 -0.2,-0.1 -0.3,-0.1 -0.1,0 -0.1,0 -0.2,-0.1 -0.1,0 -0.1,-0.1 -0.1,0 -0.1,0 -0.1,-0.1 -0.1,0 -0.1,-0.1 -0.1,-0.1 -0.1,0 -0.1,0 -0.1,-0.1 -0.1,0 0,-0.1 -0.1,0 -0.1,-0.1 -0.2,-0.1 -0.2,-0.1 0,0 -0.1,0 -0.1,0 -0.1,0 -0.3,-0.1 -0.1,0 -0.1,-0.1 -0.2,-0.1 -0.1,0 0,-0.1 -0.2,0 -0.1,0 -0.1,-0.1 -0.2,-0.1 -0.2,-0.1 -0.2,-0.1 -0.1,0 0,0 -0.1,-0.1 -0.1,0 -0.1,0 -0.1,0 -0.1,0 -0.1,-0.1 -0.2,0 -0.2,-0.1 -0.1,-0.1 -0.1,0 -0.2,-0.1 -0.1,0 -0.3,-0.1 0,0 0,0 -0.1,0 0,0 -0.1,-0.1 -0.1,0 -0.1,0 -0.1,0 0,0 0,0 -0.1,0 -0.1,-0.1 -0.1,0 -0.1,0 -0.1,-0.1 -0.1,0 -0.1,-0.1 -0.1,-0.1 -0.1,-0.1 -0.1,0 -0.1,-0.1 0,0 -0.2,0 -0.2,-0.1 -0.1,0 0,-0.1 -0.1,-0.1 0,-0.1 -0.2,0 -0.1,-0.1 -0.1,0 -0.1,0 -0.1,0 -0.1,0 -0.1,0 -0.1,-0.1 -0.1,0 -0.1,-0.1 -0.3,-0.1 -0.1,0 0,0 -0.1,-0.1 -0.1,0 -0.1,0 -0.1,0 -0.1,-0.1 -0.1,0 -0.1,0 -0.1,0 -0.1,0 0,0 0,0 -0.1,0 -0.1,0 -0.1,0 -0.1,0 0,0 -0.1,0 -0.2,-0.1 -0.2,0 -0.1,0 0,0 -0.1,0 -0.1,0 -0.1,0 0,0 -0.2,-0.1 0,0 -0.1,0 -0.1,0 -0.1,0 -0.1,-0.1 -0.1,0 -0.1,0 -0.1,-0.1 -0.1,0 -0.1,-0.1 -0.1,0 -0.1,0 -0.1,0 0,0 -0.1,0 -0.1,0 0,0 -0.1,0 0,0 -0.1,0 0,-0.1 0,0 0,-0.1 0,-0.1 -0.1,0 -0.1,0 -0.1,0 -0.1,0 -0.1,0 -0.1,0 -0.2,0 -0.1,0 -0.1,0 0,0 -0.1,0 -0.1,0 -0.1,0 -0.1,0 -0.3,-0.1 -0.1,-0.1 0,0 -0.1,0 0,0 -0.1,0 -0.1,0 0,0 -0.1,0 -0.1,0 0,0 -0.1,0 -0.1,0 -0.1,0 0,0 -0.1,0 -0.1,0 -0.1,-0.1 -0.1,0 -0.1,0 -0.1,0 -1.4,0 -0.1,0 0,0 0,0 -0.1,0 0,0 0,0 -0.1,-0.1 -0.1,0 -0.1,0 -0.1,0 -0.1,0 -0.1,0 -0.1,0 -0.1,0 -0.1,0 -0.2,-0.1 -0.1,0 -0.1,-0.1 -0.1,0 -0.1,0 0,0 -0.3,0 -0.1,0 -0.1,0 -0.1,-0.1 -0.1,0 -0.2,-0.1 -0.1,0 -0.1,0 -0.1,-0.1 -0.3,-0.1 0,0 -0.2,-0.1 -0.1,-0.1 -0.2,0 -0.1,0 -0.1,0 -0.1,-0.1 -0.1,0 -0.1,0 -0.1,-0.1 -0.1,-0.1 -0.1,0 -0.1,-0.1 -0.1,0 -0.1,0 0,0 -0.1,0 -0.1,0 -0.1,0 -0.1,0 -0.1,-0.1 0,-0.1 -0.1,0 -0.1,0 -0.1,-0.1 -0.1,0 -0.1,0 -0.1,0 -0.1,0 -0.1,-0.1 -0.2,0 -0.1,0 -0.1,-0.1 -0.1,0 -0.1,-0.1 -0.1,-0.1 -0.1,0 0,-0.1 -0.2,0 -0.1,0 -0.1,-0.1 -0.1,0 0,0 -0.1,-0.1 -0.1,0 -0.1,0 -0.1,-0.1 -0.1,0 -0.1,0 -0.1,0 -0.1,0 -0.1,0 -0.1,0 0,0 0,-0.1 0,0 0,0 -0.1,0 0,0 -0.1,0 -0.3,0 -0.1,0 -0.2,-0.1 -0.1,-0.1 -0.1,0 -0.1,0 -0.1,-0.1 -0.2,0 -0.1,-0.1 -0.1,-0.1 -0.1,0 -0.1,-0.1 -0.2,0 -0.1,-0.1 -0.1,-0.1 -0.1,-0.1 -0.1,0 -0.1,-0.1 -0.1,0 -0.1,0 -0.1,0 -0.1,0 -0.1,0 -0.1,0 -0.2,-0.1 -0.1,0 -0.1,0 -0.1,-0.1 -0.2,-0.1 0,-0.1 -0.1,0 0,0 -0.1,0 -0.1,0 -0.2,0 -0.1,0 -0.1,0 -0.2,-0.1 -0.1,0 -0.3,-0.1 -0.1,-0.1 -0.1,-0.1 -0.1,-0.1 -0.1,0 -1.1,0 -0.1,0 -0.1,0 -0.1,0 -0.1,0 -0.1,-0.1 0,0 -0.1,0 0,0 0,-0.1 0,0 -0.1,0 -0.1,-0.1 -0.1,0 -0.1,0 -0.1,0 0,0 -0.1,0 -0.1,0 -0.1,0 -0.1,0 -0.1,-0.1 -0.1,-0.1 -0.1,-0.1 -0.1,0 -0.1,-0.1 -0.1,0 -0.1,0 0,0 -0.2,0 0,-0.1 -0.1,0 -0.2,-0.1 -0.1,0 -0.1,0 -0.1,0 -0.1,-0.1 -0.1,0 -0.1,0 0,0 -0.1,0 -0.1,0 -0.1,0 -0.1,-0.1 -0.1,0 -0.1,0 0,-0.1 -0.1,0 -0.2,-0.1 -0.1,-0.1 0,0 0,0 0,0 0,0 0,0 -0.1,0 -0.1,0 -0.1,0 -0.1,0 -0.1,0 -0.1,0 -0.1,-0.1 -0.1,0 -0.1,0 -0.1,0 0,0 0,-0.1 0,0 0,0 -0.1,0 0,0 0,0 -0.1,0 0,0 0,0 -0.1,0 0,0 0,0 0,0 0,0 -0.1,0 0,0 -0.1,-0.1 -0.1,0 0,0 0,0 0,0 0,0 0,0 -0.1,0 -0.1,0 0,0 0,0 -0.1,0 -0.1,0 -0.1,-0.1 0,0 -0.1,0 0,0 -0.2,-0.1 -0.1,0 -0.1,0 -0.1,0 0,0 -0.1,0 -0.1,0 -0.1,0 -0.1,0 -0.1,0 -0.1,0 -0.1,0 -0.1,0 -0.1,0 0,0 0,0 0,0 -0.1,0 -0.1,0 0,0 -0.1,0 -0.1,0 -1.7,0 -0.1,0 -0.1,0 0,0 -0.1,0 0,-0.1 -0.1,-0.1 -0.1,0 0,0 0,0 -0.1,0 0,0 -0.1,0 0,0 0,0 0,0 0,0 -0.3,0 0,0 0,0 0,0 -0.1,0 0,0 -0.1,0 -0.1,0 0,0 0,0 0,0 0,0 0,0 0,0 -0.1,0 0,0 0,0 0,0 0,0 0,0 0,0 -0.6,0 0,0 0,0 -0.1,0 0,0 -0.1,0 0,0 -0.1,0 0,0 -0.1,0 -0.1,0 -0.1,0 0,0 0,0 0,0 -0.1,0 -0.1,0 -0.1,-0.1 -0.1,0 -0.1,0 0,0 0,0 -0.1,0 0,0 -0.1,0 -0.1,0 -0.1,0 0,0 0,0 -0.1,0 0,0 -0.2,-0.1 -0.1,0 -0.1,0 0,0 -0.1,0 0,0 -0.1,-0.1 0,0 0,0 -0.1,0 -0.1,0 -0.1,0 0,0 -0.1,0 0,0 -0.1,0 -0.1,0 -0.1,0 0,0 -0.1,0 -0.1,0 -0.1,0 0,0 0,0 -0.1,0 0,0 -0.1,0 0,0 0,0 0,0 0,0 -0.1,0 0,0 0,0 0,0 0,0 0,0 0,0 0,0 -0.1,0 -0.1,0 -0.1,0 0,0 -0.1,0 -0.1,-0.1 -0.1,0 0,0 -0.1,0 0,0 -0.1,0 0,0 -0.1,0 -0.1,0 -0.1,0 0,0 -0.1,0 -0.1,0 -0.1,0 0,0 -0.1,0 -0.1,0 -0.1,0 -0.1,0 -0.1,-0.1 -0.1,-0.1 -0.1,-0.1 -0.1,0 -0.1,0 0,0 -0.1,0 0,0 -0.1,0 0,0 -0.1,0 -0.1,0 -0.1,0 0,0 -0.1,-0.1 0,0 0,0 -0.1,-0.1 0,0 -0.1,0 0,0 -0.1,0 0,0 -0.1,0 -0.1,0 0,0 0,0 -0.1,0 0,0 0,0 -0.1,0 -0.1,0 -0.1,0 -0.1,0 -0.1,0 0,0 0,0 0,0 0,0 0,0 0,-0.1 0,-0.1 0,0 0,0 0,0 0,0 0,-0.2 0,0 0,-0.1 0,0 0.1,0 0.1,0 0,0 0,0 0,-0.1 0,-18 0,0 0,-0.1 0,0 -0.1,0 0,0 -0.1,0 0,0 0,0.1 0,0.1 0,0.1 0,0 0,0.1 0,0.1 -0.1,0.1 0,0.1 0,0 0,0.1 0,0 0,0 -0.1,0 -0.1,0 -0.1,0 0,0 0,0 -0.1,0 -0.1,0 -0.1,0 -0.2,-0.1 0,0 -0.1,-0.1 -0.1,0 -0.1,-0.1 -0.1,0 -0.1,-0.1 -0.1,0 -0.1,-0.1 -0.1,0 -0.1,0 -0.1,0 -0.2,0 -0.1,-0.1 -0.1,0 -0.1,0 -0.1,-0.1 -0.1,0 0,0 -0.1,0 0,0 -0.1,0 0,0 -0.1,0 0,0 -0.1,0 -0.1,0 -0.1,0 -0.1,0 -0.1,0 -0.2,-0.1 -0.1,0 0,0 0,0 0,0 0,0 -0.2,0 -0.1,0 -0.2,0 -0.1,0 -0.1,0 -2.1,0 -0.1,0 -0.1,0 -0.1,0 -0.1,0 -0.1,0 0,0 0,0 0,0 -0.1,0 0,0 0,-0.1 -0.1,0 -0.1,0 -0.1,0 0,0 0,0 -0.1,0 -0.2,0 0,0 0,0 0,0 0,0 0,0 -0.1,0 0,0 0,-0.1 -0.1,0 0,0 0,0 -0.1,0 0,0 -0.1,-0.1 0,0 -0.1,0 0,0 0,0 -0.1,0 0,0 0,0 -0.2,0 -0.1,0 -0.1,0 0,0 -0.1,0 0,0 -0.1,0 0,0 -0.1,0 0,0 0,0 -0.1,0 -0.1,0 0,0 0,-0.1 -0.1,0 0,0 -0.1,0 0,0 0,-0.1 -0.1,0 0,0 0,0 0,0 0,0 0,0 0,0 0,0 -0.1,0 -0.1,-0.1 -0.1,-0.1 0,0 0,0 0,0 -0.1,-0.1 -0.1,0 -1.5,0 -0.1,0 0,0 -0.1,0 0,0 0,0 0,0 -0.1,0 0,0 -0.1,-0.1 -0.1,0 0,0 0,0 0,0 0,0 0,0 -0.1,0 0,0 0,0 0,0 0,0 0,0 0,0 0,0 0,0 -0.1,0 -0.1,0 -0.1,0 -0.1,0 -0.1,0 -0.2,0 -0.1,0 0,0 -0.1,0 -0.1,0 -0.1,0 -0.1,0 0,0 0,0 0,-0.1 0,0 0,0 0,0 0,0 -0.1,0 -0.1,0 0,-0.1 -0.1,0 0,0 0,0 -0.1,0 0,0 0,0 0,0 -0.1,0 -0.1,0 -0.1,0 -0.1,0 -0.1,0 0,0 0,0 0,0 0,0 0,0 -0.1,0 -0.1,0 0,0 -0.1,0 -0.1,0 0,0 -0.1,0 -0.1,0 0,0 0,0 -0.1,0 0,0 -0.2,-0.1 0,0 0,-0.1 0,0 -0.1,0 0,0 -0.1,-0.1 0,0 -0.1,0 -0.1,-0.1 -0.2,0 0,0 -0.2,-0.1 -0.1,-0.1 -0.1,0 0,0 -0.2,0 -0.1,0 -0.1,0 0,0 -0.1,0 -0.1,-0.1 -0.1,0 -0.1,0 -0.1,0 -0.1,-0.1 -0.1,0 0,0 0,0 -0.1,0 -0.1,0 0,0 -0.1,0 0,0 0,0 -0.1,-0.1 -0.1,-0.1 0,0 -0.1,0 0,0 0,0 -0.1,0 0,0 -0.1,0 0,0 -0.1,0 0,0 0,0 -0.1,0 0,0 0,-0.1 0,0 -0.1,0 -0.1,0 0,0 0,0 -0.1,0 0,0 0,-0.1 0,0 0,0 0,0 0,0 -0.1,-0.1 -0.1,0 -0.1,0 0,0 -0.1,0 0,0 0,0 -2.6,0 -0.1,0 -0.1,0 -0.1,0 0,0 0,0 0,0 0,0 -0.1,0 -0.1,-0.1 -0.1,-0.1 0,-0.1 0,0 0,0 -0.1,0 0,0 -0.1,0 -0.1,0 -0.1,0 -0.1,0 0,0 0,0 0,0 0,0 0,0 0,0 0,0 0,0 0,0 0,0 0,0 0,0 0,0 0,-0.1 -0.1,0 -0.1,0 0,0 0,0 0,0 -0.1,0 -0.1,0 -0.1,0 0,0 -0.1,0 0,0 -0.1,0 -0.1,-0.1 -0.1,0 -0.1,0 -0.1,-0.1 -0.2,-0.1 0,-0.1 -0.1,0 0,0 -0.1,0 -0.1,0 -0.1,-0.1 -0.1,0 0,0 -0.1,-0.1 -0.1,0 -0.1,0 -0.1,0 0,0 0,0 0,0 0,-0.1 0,0 -0.1,0 0,0 -0.1,-0.1 -0.1,0 -0.1,0 -0.1,0 -0.1,0 0,0 0,0 -0.1,0 0,0 -0.1,0 -0.1,0 -0.1,0 -0.1,0 0,0 0,0 -0.1,0 0,0 0,0 0,-0.1 0,0 -1.5,0 0,0 -0.1,0 -2,-1 -0.3,-0.1 -0.4,-0.3 0,0 -0.1,0 0,0 0,0 -0.1,0 -0.1,0 0,0 0,0 -0.1,0 0,0 -0.1,0 0,0 0,0 -0.1,0 -0.1,0 -0.1,0 0,0 0,0 0,-0.1 0,0 -0.1,0 0,0 0,0 -0.1,0 0,0 -0.1,0 0,0 0,0 -0.1,0 0,0 0,0 0,0 -0.1,-0.1 -0.1,0 -0.1,0 -0.1,0 -0.1,0 -0.1,0 0,0 -0.1,0 -0.1,0 0,0 -0.1,-0.1 -0.1,0 0,0 -0.1,0 -0.1,0 0,0 -0.1,0 0,0 0,0 -0.1,0 0,0 0,0 0,0 -0.2,0 0,0 0,0 -0.1,0 -0.1,0 0,0 0,0 0,0 -0.1,0 -0.1,0 -0.1,0 -0.1,0 0,0 -0.1,-0.1 0,0 0,0 0,0 0,0 -0.1,0 -0.1,-0.1 -0.1,0 -1.4,0 0,0 0,0 0,0 0,0 0,0 0,0 -0.1,0 0,0 -0.1,-0.1 -0.1,0 0,0 -0.1,0 -0.1,0 0,0 -0.1,0 -0.3,-0.2 -0.2,-0.1 -0.2,-0.1 -0.1,0 0,0 -0.1,0 -0.1,0 -0.1,-0.1 -0.1,0 -0.1,0 0,0 -0.1,0 -0.1,0 -0.1,0 0,-0.1 -0.1,0 0,0 -0.7,0 0,-0.1 -0.3,-0.1 -0.1,0 -0.1,0 -0.1,0 0,-0.1 -0.1,0 0,0 -0.1,0 0,-0.1 0,0 -0.1,0 -0.1,0 0,0 -0.1,0 0,0 -0.1,0 -0.1,0 -0.1,0 -0.1,0 -0.1,0 -0.1,0 -0.3,0 -0.1,0 -0.1,0 -0.3,-0.1 -0.1,0 -0.1,0 -0.1,0 -0.1,0 -0.1,0 -0.1,0 0,0 -0.1,0 -0.1,-0.1 -0.1,-0.1 -0.1,0 -0.1,0 0,-0.1 0,0 0,0 -0.2,-0.1 -0.1,-0.1 0,0 -0.1,-0.1 -0.1,-0.1 -0.1,-0.1 -0.1,0 -0.1,-0.1 -0.1,0 -0.1,0 -0.1,0 -0.1,0 0,0 -0.1,0 0,0 0,0 0,0 0,0 0,0 -0.1,0 0,0 0,0 0,-0.1 0,0 -0.1,0 -0.1,0 0,0 -0.2,-0.1 -0.1,-0.1 0,0 -0.5,0 0,0 0,0 -0.1,-0.1 -0.1,0 0,0 0,0 -0.1,0 0,0 -0.1,0 0,0 -0.1,0 0,0 0,0 0,-0.1 0,0 0,0 0,0 0,0 -0.1,-0.1 -0.1,0 -0.1,-0.1 -0.1,0 -0.1,0 -0.1,0 -0.1,0 -0.1,0 -0.1,0 0,0 -0.1,0 -0.1,0 -0.1,0 -0.1,0 -0.1,0 0,0 0,-0.1 -0.1,-0.1 0,0 0,0 -0.1,-0.1 0,0 -0.3,-0.1 0,0 0,0 -0.1,0 -0.1,0 -0.1,0 0,0 -0.1,0 -0.1,0 0,0 -0.1,-0.1 -0.1,0 0,-0.1 -0.1,0 0,-0.1 -0.1,0 -0.1,0 -0.1,0 0,0 -0.1,0 -0.1,0 0,0 -0.1,0 -0.1,0 0,0 -0.1,0 -0.1,0 0,0 0,0 0,0 0,0 -0.1,-0.1 0,0 -0.1,0 -0.1,0 0,0 -0.1,0 0,0 -0.1,0 0,0 -0.1,0 -0.1,0 0,0 -0.1,0 0,0 -0.1,0 0,0 0,0 0,0 -0.1,-0.1 -0.1,0 0,0 0,0 -0.1,-0.1 0,0 -0.1,0 -0.1,0 0,-0.1 -0.1,0 0,0 -1.4,0 -0.1,0 -0.1,0 0,0 -0.1,0 -0.1,0 -0.1,0 -0.1,-0.1 0,0 -0.1,0 0,0 0,0 0,0 0,0 0,0 -0.1,0 -0.1,0 0,0 -0.1,0 -0.1,0 0,0 -0.1,0 -0.1,0 0,0 0,0 -0.1,-0.1 0,0 -0.1,0 0,0 0,0 0,0 0,0 0,-0.1 -0.1,0 0,0 -0.1,0 -0.1,-0.1 -0.1,0 -0.1,0 0,0 -0.1,0 -0.1,0 -0.1,0 -0.1,0 0,0 -0.1,0 0,-0.1 0,0 -0.1,0 0,0 0,0 -0.1,0 0,0 0,0 -0.1,0 0,0 0,0 -0.1,0 0,0 -0.2,0 -0.1,0 -0.1,0 -0.1,0 0,0 -0.1,0 -0.1,0 0,0 0,0 -0.1,0 -0.1,0 0,0 -0.1,0 0,0 0,0 -1.1,0 0,0 0,0 0,0 0,0 0,0 0,0 0,0 0,0 0,0 0,0 -0.1,0 0,0 -0.1,0 -0.1,0 -0.1,0 0,0 0,0 0,0 0,0 0,0 0,-0.1 -0.1,0 -0.2,0 -0.1,0 -0.1,0 -0.1,0 -0.1,0 0,0 -0.1,0 -0.1,0 -0.1,0 0,0 -0.2,-0.1 -0.1,0 0,0 -0.1,0 -0.1,-0.1 -0.1,0 -0.1,0 -0.1,0 -0.1,0 -0.1,0 -0.1,0 0,0 -0.1,0 -0.1,0 0,0 -0.1,0 0,0 -0.1,0 0,0 -0.1,-0.1 -0.1,0 -0.9,0 0,0 0,0 0,0 -0.1,0 0,0 0,0 -0.1,0 0,0 -0.1,-0.1 -0.1,-0.1 0,0 0,0 -0.1,0 -0.1,0 -0.1,0 0,0 0,0 -0.1,0 0,0 -0.1,0 0,0 -0.1,0 0,0 -0.1,0 -0.1,0 0,0 0,0 0,-0.1 -0.1,0 0,0 -0.1,0 0,0 0,0 -0.1,0 0,0 0,0 -0.1,0 0,0 0,0 0,0 0,0 0,0 -0.1,0 0,0 -0.1,0 0,0 0,0 -0.1,0 0,0 0,-0.1 0,0 0,0 0,0 0,0 0,0 -0.1,0 -0.1,0 -0.1,0 -0.1,0 -0.1,0 0,0 -0.1,0 0,0 -0.1,-0.1 0,0 0,0 0,0 0,0 0,0 0,0 0,0 0,0 -0.1,0 0,0 -0.2,0 0,0 -0.1,-0.1 -0.1,0 -0.1,0 0,0 -0.1,0 0,0 -0.1,0 0,0 -0.1,0 -0.1,0 0,0 -0.1,0 -0.1,-0.1 -0.1,0 0,0 0,0 0,-0.1 0,0 0,0 -0.1,0 0,0 0,0 0,0 -0.1,0 0,0 -0.1,0 0,-0.1 0,0 -0.1,0 -0.1,0 -0.1,0 0,0 -0.1,0 -0.1,0 -0.1,0 -0.1,-0.1 -0.1,0 -0.1,-0.1 -0.1,0 0,0 0,0 -0.1,0 0,0 -0.1,0 0,0 -0.1,0 0,0 0,0 -0.1,0 0,0 -0.1,0 0,0 0,0 0,0 0,0 0,0 0,0 -0.1,0 -0.1,0 -0.1,0 0,0 0,0 0,0 -0.1,0 -0.1,0 -0.1,-0.1 -0.1,0 -0.1,-0.1 -0.1,0 0,0 0,0 0,0 0,0 -0.1,0 0,0 -0.1,0 -0.1,0 0,0 -0.1,0 0,0 -0.1,0 -0.1,0 -0.1,0 0,-0.1 -0.1,0 -0.1,0 0,0 -0.1,0 -0.1,0 0,0 0,0 0,0 0,0 0,0 0,0 0,0 0,0 -0.1,0 0,0 -3.2,0 -0.1,0 0,0 -0.1,0 -0.1,0 -0.1,0 -0.1,0 0,0 -0.1,0 0,-0.1 0,0 0,0 0,-0.1 0,0 0,0 0,0 0,0 -0.1,0 -0.1,0 0,0 -0.2,0 0,0 -0.1,0 -0.1,0 0,0 0,0 0,0 0,0 -0.1,0 0,0 -0.1,0 0,0 0,0 0,0 0,-0.1 0,0 0,0 -0.1,0 0,0 0,0 -0.1,0 0,0 0,0 -0.1,0 0,0 -0.1,0 0,0 0,0 -0.1,0 0,0 -0.1,0 0,0 -0.1,0 -0.1,0 -0.1,-0.1 0,0 0,0 0,0 -0.1,0 0,0 0,0 -0.1,0 -0.1,0 0,0 -0.1,0 0,0 0,0 0,0 0,0 -0.1,0 0,0 -0.1,0 0,0 -0.1,0 0,0 0,0 0,0 0,0 0,0 0,0 -0.1,0 0,0 0,0 0,0 0,0 0,0 0,0 0,0 0,0 0,0 0,0 0,0 0,0 0,0 -0.1,0 -0.1,0 0,0 -0.1,0 -0.1,0 0,0 0,0 0,0 0,-0.1 0,0 -0.1,0 -0.1,0 0,0 0,0 0,0 0,0 -0.1,0 0,0 -0.1,-0.1 -0.1,0 -0.1,0 -0.1,0 -0.1,0 -0.1,0 -0.1,-0.1 -0.1,-0.1 -0.1,0 -0.1,-0.1 -0.1,-0.1 -0.1,-0.1 -0.1,0 -0.2,-0.1 -0.1,0 -0.1,-0.1 -0.1,0 -0.1,-0.1 -0.1,-0.1 -0.1,0 -0.1,0 -0.1,0 0,0 -0.1,0 -0.1,-0.1 -0.3,-0.1 -0.2,-0.1 -0.1,-0.1 -0.2,0 -0.1,0 -0.1,0 -0.1,0 -0.1,-0.1 -0.1,0 -0.1,0 -0.1,-0.1 -0.1,0 -0.1,0 -0.1,0 0,0 -0.1,-0.1 -0.1,0 0,0 -0.1,-0.1 -0.1,-0.1 0,0 0,-0.1 -0.1,0 0,0 0,0 0,-0.1 -0.1,0 0,0 -0.2,-0.1 -0.1,0 0,0 -0.1,0 -0.1,0 -0.1,0 -0.1,0 -0.1,0 0,0 0,-0.1 0,0 0,-0.1 0,0 0,0 0,0 -0.1,0 -0.1,0 -0.1,0 -0.1,0 -0.1,0 -0.1,0 -0.1,0 -0.1,0 -0.1,0 0,0 -2.6,-27.2 0,-0.1 -0.1,-0.1 0,-0.1 -0.1,0 0,0 -0.1,0 -0.1,0 -0.1,0 -0.1,0 -0.1,0 -0.1,0 -0.1,0 -0.1,0 -0.1,0 -0.1,0 -0.1,-0.1 -0.2,0 -0.2,-0.1 -0.1,-0.1 0,0 -0.2,-0.4 -0.1,-0.1 -0.1,0 -0.1,0 -0.1,0 -0.3,-0.1 -0.1,0 -0.1,0 -0.1,0 -0.1,0 -0.1,0 -0.1,-0.1 -0.1,0 -0.1,0 0,0 -0.1,0 -0.1,0 -0.1,-0.1 0,-0.1 -0.1,-0.1 -0.1,0 0,0 -0.3,-0.1 0,0 -0.1,0 -0.3,-0.2 -0.1,0 -0.1,0 -0.1,0 -0.1,0 -0.1,0 -0.1,0 -0.1,0 -0.1,0 -0.1,0 -0.1,-0.1 0,-0.1 0,0 -0.1,0 -0.1,0 -0.1,0 -0.1,0 -0.1,0 -0.1,0 0,0 0,0 0,-0.1 -0.1,0 -0.1,0 -0.1,0 -0.4,0 0,-0.1 -0.1,0 0,0 0,0 0,0 -0.1,0 -0.1,0 -0.1,0 -0.1,0 -0.1,0 0,0 -0.1,0 -0.1,0 -0.1,0 -0.1,-0.1 -0.1,0 -0.1,0 -0.1,-0.1 -0.1,-0.1 -0.1,0 -0.1,0 -0.1,-0.1 0,0 -0.1,0 -0.1,0 -0.2,0 -0.1,0 -0.1,0 -0.1,0 -0.2,0 -0.1,0 -0.1,-0.1 0,0 -0.1,0 -0.1,0 -0.1,0 -0.1,-0.1 -0.1,0 -0.1,-0.1 -0.1,0 -0.1,0 -0.1,0 -0.1,0 -0.1,0 -0.3,-0.1 -0.1,-0.1 -0.1,0 -0.1,-0.1 -0.1,0 -0.1,-0.1 -0.1,0 -0.1,-0.1 -0.1,0 -0.1,-0.1 0,0 -0.2,0 -0.1,-0.1 -0.1,-0.1 -0.1,0 -0.2,-0.1 0,0 -0.1,0 -0.1,0 0,0 -0.1,0 0,0 -0.1,0 -0.1,0 -0.1,-0.1 -0.1,0 -0.2,-0.2 0,0 0,0 0,-0.1 -0.1,0 -0.1,-0.1 -0.1,0 0,0 -0.1,0 -0.1,0 0,0 -0.1,0 -0.1,0 -0.1,0 -0.1,0 -0.1,-0.1 -0.1,0 -0.1,0 -0.1,0 -0.1,0 -0.1,0 -0.1,-0.1 -0.1,0 -0.1,0 -0.1,0 -0.2,0 -0.1,0 0,0 -0.1,-0.1 -0.1,-0.1 -0.1,0 -0.1,-0.1 -0.3,-0.1 -0.2,0 -0.2,0 -0.1,0 -0.1,0 -0.2,0 -0.1,0 -0.1,0 -0.1,-0.1 -0.1,0 -0.3,-0.1 -0.1,0 -0.1,-0.1 0,-0.1 -0.1,0 -0.1,0 -0.1,0 -0.1,-0.1 -0.1,0 0,0 -0.1,-0.1 -0.2,0 -0.1,-0.1 -0.1,0 -0.3,-0.2 -0.1,0 -0.5,-0.3 -0.4,-0.2 -0.3,-0.1 -0.3,-0.2 -0.2,-0.1 -0.2,0 -0.1,-0.1 -0.1,-0.1 -0.1,-0.1 -0.2,-0.1 -0.2,-0.1 -0.1,-0.1 -0.2,-0.1 -0.2,0 -0.2,-0.1 -0.2,-0.1 -0.1,-0.1 -0.2,0 -0.1,-0.1 -0.2,0 -0.1,0 -0.1,-0.1 -0.1,0 -0.2,-0.2 -0.1,-0.1 -0.2,0 -0.1,0 -0.1,-0.1 -0.1,0 -0.1,0 -0.1,0 -0.1,-0.1 -0.1,0 -0.1,0 -0.1,0 0,0 -0.1,-0.1 -0.1,0 -0.1,0 -0.1,-0.1 0,0 -0.1,0 -0.1,0 -0.1,0 -0.1,0 -0.1,-0.1 0,0 0,0 -0.1,0 -0.1,0 -0.1,-0.1 -0.2,-0.1 -0.1,0 -0.1,0 -0.1,0 -0.1,-0.1 -0.1,0 0,0 -0.2,0 -0.1,-0.1 -0.1,0 -0.1,0 -0.1,0 0,0 -0.1,-0.1 -0.1,0 -0.1,-0.1 -0.1,0 -0.1,0 -0.1,-0.1 -0.1,0 -0.1,0 -0.1,0 -0.1,0 0,-0.1 -0.1,0 -0.1,0 -0.1,0 -0.1,-0.1 -0.2,-0.1 0,0 -0.1,0 -0.1,0 -0.1,-0.1 -0.1,0 0,0 -0.1,0 -0.1,0 -0.1,0 -0.1,-0.1 -0.1,0 0,0 -0.1,0 -0.1,0 0,0 -0.1,0 -0.1,0 -0.1,0 -0.1,0 -0.1,-0.1 -0.1,0 -0.1,-0.1 -0.1,0 -0.1,0 -0.1,0 -0.1,-0.1 -0.1,0 -0.1,0 -0.1,0 -0.1,-0.1 -0.1,0 -0.1,0 -0.1,0 -0.1,0 -0.1,0 -0.1,0 -0.1,0 -0.1,-0.1 -0.1,0 -0.1,0 0,0 0,0 -0.2,-0.1 0,0 0,0 -0.1,0 -0.1,-0.1 0,0 -0.1,0 -0.1,0 -0.1,0 -0.1,0 -0.1,0 -0.1,0 0,0 -0.1,0 -1.7,0 -0.2,-0.1 -0.1,0 -0.1,0 0,0 0,0 -0.1,-0.1 -0.1,0 -0.1,0 0,0 0,0 -0.1,0 -0.1,0 0,0 -0.1,0 -0.1,-0.1 -0.1,0 -0.1,-0.1 -0.1,0 0,0 0,0 0,0 -0.1,0 0,0 -0.1,0 -0.1,0 0,-0.1 -0.1,0 -0.1,0 0,-0.1 -0.1,0 -0.1,0 -0.3,-0.1 -0.1,0 -0.2,0 -0.1,0 -0.1,0 0,-0.1 -0.1,0 -0.1,0 0,0 -0.1,0 -0.1,-0.1 -0.1,0 -0.1,0 -0.1,0 -0.1,-0.1 -0.1,0 -0.1,0 -0.1,0 0,0 -0.1,0 -0.1,0 0,0 0,-0.1 0,0 -0.1,-0.1 -0.1,0 -0.1,0 -0.3,0 0,0 -0.1,0 -0.1,0 -0.2,-0.1 -0.1,0 -0.1,0 -0.1,-0.1 0,0 -0.1,0 -0.3,-0.1 0,0 -0.3,-0.2 -0.1,0 -0.1,0 -0.1,0 0,0 -0.1,-0.1 -0.1,-0.1 -0.1,0 -0.1,-0.1 -0.1,0 0,0 -0.1,0 -0.1,-0.1 -0.1,0 -0.3,-0.1 -0.1,0 -0.1,0 -0.1,0 -0.1,0 -0.1,0 -0.1,0 0,-0.1 -0.1,0 0,0 0,0 -0.1,0 -0.1,0 -0.1,0 -0.1,0 -0.1,0 -0.1,-0.1 0,0 -0.1,0 0,0 -0.1,-0.1 -0.1,0 -0.1,-0.1 -0.1,0 0,0 -0.1,0 -0.1,0 -0.1,0 -0.1,-0.1 -0.1,0 -0.1,0 -0.1,0 -0.1,0 -0.1,0 0,-0.1 -0.1,0 -0.1,0 0,0 0,0 -0.1,0 -0.1,0 -0.1,0 -0.1,0 -0.1,0 -0.1,-0.1 0,0 0,0 -0.1,-0.1 -0.1,0 -0.1,0 0,0 -0.1,0 0,0 -0.1,0 -0.1,0 -0.1,0 0,0 -0.1,0 -0.1,0 0,0 -0.1,0 0,0 -0.1,0 0,0 -6,-3.2 -3.3,-1.5 -3.2,-1.9 -3.6,-1.7 -3,-1.6 -1.7,-1 -1,-0.3 -1,-0.7 -1.2,-0.6 -1.4,-0.7 -1.5,-0.5 -2.4,-1.2 -2.6,-1.3 -1.9,-1 -1.3,-0.8 -1.4,-0.8 -0.7,-0.4 -1.3,-0.5 -1.7,-0.8 -0.5,-0.3 -0.5,-0.2 -1.8,-0.8 -0.7,-0.4 -0.7,-0.5 -0.9,-0.6 -0.8,-0.4 -0.9,-0.4 -0.7,-0.3 -0.6,-0.2 -0.4,-0.2 -0.4,-0.1 -0.7,-0.3 -3.8,-1.6 -2.7,-1.6 -1.5,-0.7 -1.8,-0.8 -2.2,-1.2 -3.3,-1.6 -3,-1.6 -2.8,-1.3 -2.3,-1.2 -1.9,-0.8 -1.7,-0.9 -2,-1 -1.9,-0.8 -4,-1.7 -2.9,-1.5 -2.5,-1.2 -1.9,-1 -1.2,-0.5 -1.5,-0.7 -1.9,-0.8 -3.1,-1.6 -3,-1.4 -2.4,-0.9 -3,-1.7 -2.9,-1.7 -1.8,-0.8 -1.3,-0.7 -1.8,-0.9 0,0 -2.1,-0.9 -2,-0.9 -2.7,-1.3 -1.4,-0.8 -1.3,-0.6 -1.2,-0.6 -1.3,-0.6 -1.6,-0.8 -1.8,-0.7 -1.3,-0.6 -1.8,-0.8 -1.3,-0.7 -1.6,-0.7 -1.4,-0.7 -1.2,-0.5 -2.3,-1 -0.3,-0.1 -3.3,-1.6 -3.7,-1.6 -2,-0.9 -1,-0.5 -0.9,-0.3 -1.9,-0.9 -0.4,-0.1 -1.7,-0.8 -1.7,-0.6 -1.8,-0.7 -2.2,-1 -1.7,-0.9 -1.4,-0.7 -1.7,-0.7 -0.7,-0.3 -1.5,-0.6 -0.8,-0.4 -1,-0.5 -0.8,-0.4 -1,-0.4 -0.9,-0.3 -0.9,-0.5 -1.1,-0.4 -0.9,-0.5 -0.5,-0.3 -0.6,-0.2 -0.7,-0.3 -0.7,-0.4 -0.7,-0.3 -0.9,-0.4 -0.8,-0.4 -0.9,-0.3 -1,-0.5 -0.3,-0.1 -0.6,-0.2 -0.9,-0.4 -0.7,-0.3 -0.8,-0.5 -0.7,-0.3 -0.9,-0.3 -0.6,-0.2 -0.4,-0.2 -0.9,-0.3 -0.6,-0.2 -0.3,-0.1 -0.4,-0.3 -0.5,-0.3 -0.1,-0.1 -0.5,-0.2 -0.6,-0.2 -0.8,-0.3 -0.6,-0.2 -0.3,-0.1 -0.5,-0.3 -0.4,-0.1 -0.5,-0.3 -0.4,-0.3 -0.4,-0.3 -0.4,-0.2 -0.5,-0.1 -0.5,-0.2 -0.6,-0.3 -1.3,-0.5 -0.9,-0.3 -1,-0.4 -1,-0.4 -0.5,-0.2 -1.3,-0.5 -1.1,-0.5 -1,-0.5 -1,-0.4 -1,-0.5 -1.3,-0.5 -1,-0.4 -1,-0.5 -1.1,-0.4 -1,-0.3 -1,-0.4 -0.9,-0.3 -0.8,-0.3 -0.6,-0.2 -0.8,-0.3 -0.6,-0.3 -0.6,-0.2 -0.6,-0.3 -0.4,-0.2 -1.5,-0.6 -0.5,-0.2 -0.4,-0.3 -0.6,-0.3 -0.6,-0.3 -0.6,-0.3 -0.7,-0.3 -0.7,-0.3 -0.6,-0.3 -0.6,-0.3 -1,-0.3 -1,-0.4 -0.8,-0.3 -0.6,-0.3 -0.6,-0.2 -0.5,-0.2 -0.6,-0.3 -0.4,-0.1 -0.6,-0.3 -1.4,-0.7 -0.8,-0.3 -0.9,-0.4 -0.9,-0.3 -0.8,-0.3 -0.9,-0.3 -0.9,-0.3 -0.7,-0.3 -0.9,-0.3 -0.8,-0.4 -0.7,-0.3 -0.4,-0.2 -1,-0.4 -0.7,-0.3 -0.7,-0.2 -0.6,-0.3 -0.7,-0.2 -0.7,-0.3 -1.9,-0.7 -0.8,-0.4 -1,-0.5 -0.8,-0.4 -0.6,-0.2 -0.6,-0.3 -0.6,-0.2 -0.7,-0.1 -1.2,-0.4 -0.9,-0.4 -0.9,-0.4 -0.9,-0.4 -0.9,-0.4 -0.9,-0.3 -0.9,-0.3 -0.8,-0.3 -0.7,-0.3 -0.8,-0.3 -0.6,-0.3 -1,-0.4 -0.7,-0.2 -0.6,-0.3 -0.6,-0.3 -0.7,-0.3 -0.9,-0.3 -0.8,-0.3 -0.7,-0.3 -0.6,-0.2 -0.5,-0.1 -0.7,-0.2 -0.6,-0.2 -0.5,-0.2 -0.6,-0.2 -0.5,-0.2 -0.7,-0.2 -1.2,-0.5 -0.9,-0.3 -0.6,-0.2 -0.7,-0.3 -0.9,-0.5 -0.5,-0.2 -0.5,-0.3 -0.6,-0.3 -0.6,-0.2 -0.6,-0.1 -0.6,-0.2 -0.6,-0.3 -0.6,-0.3 -0.9,-0.2 -0.8,-0.3 -0.8,-0.2 -0.7,-0.2 -0.3,-0.2 -0.4,-0.1 -0.3,-0.1 0,0 -0.2,-0.1 -0.2,-0.1 -0.1,-0.1 -0.3,-0.1 -0.2,0 -0.2,-0.1 -0.2,0 -0.2,0 -0.2,0 -0.1,-0.1 -0.3,-0.1 -0.2,0 -0.2,0 -0.3,-0.1 -0.3,-0.2 -0.3,-0.1 -0.2,-0.1 -0.3,-0.1 -0.3,-0.1 -0.3,-0.1 -0.3,-0.1 -0.3,-0.1 -0.2,-0.1 -0.2,-0.1 -0.2,0 -0.2,0 -0.2,0 -0.1,0 -0.2,0 -0.2,-0.1 -0.2,-0.2 -0.2,0 -0.3,0 -0.2,-0.1 -0.3,0 -0.1,0 -0.3,0 -0.1,0 -0.2,0 -0.2,0 -0.2,0 -0.1,0 -0.3,0 -0.2,-0.1 -0.2,0 -0.3,-0.1 -0.2,0 -0.2,-0.1 -0.3,0 -0.3,0 -0.3,-0.1 -0.2,0 -0.3,0 -0.3,-0.1 -0.5,-0.2 -0.4,0 -0.4,-0.1 -0.4,-0.1 -0.9,-0.1 -0.3,0 -0.3,0 -0.2,-0.1 -0.3,0 -0.3,0 -0.3,-0.1 -0.3,-0.1 -0.3,-0.1 -0.3,-0.1 -0.4,-0.1 -0.4,-0.1 -0.7,-0.2 -0.5,-0.2 -0.4,-0.2 -0.4,-0.1 -0.2,-0.1 -0.3,0 -0.3,0 -0.4,-0.1 -0.2,-0.1 -0.2,0 -0.2,0 -0.3,0 -0.5,-0.1 -0.4,-0.1 -0.2,-0.1 -0.2,0 -0.2,0 -0.2,0 -0.1,0 -0.2,0 -0.3,-0.1 -0.2,0 -0.2,0 -0.2,0 -0.3,0 -0.3,0 -0.4,-0.1 -0.3,-0.1 -0.4,-0.1 -0.2,0 -0.4,0 -0.3,0 -0.3,0 -0.3,-0.1 -0.4,-0.1 -0.3,-0.1 -0.2,0 -0.3,-0.1 -0.3,-0.1 -0.5,0 -0.3,0 -0.3,0 -0.3,-0.1 -0.3,-0.1 -0.3,-0.1 -0.4,-0.1 -0.4,-0.1 -0.3,-0.1 -0.4,0 -0.3,-0.1 -1,-0.3 -0.3,-0.1 -0.6,-0.2 -0.3,-0.1 -0.3,-0.1 -0.3,-0.1 -0.3,0 -0.4,0 -0.2,0 -0.2,0 -0.3,0 -0.3,-0.1 -0.3,0 -0.3,0 -0.3,0 -0.3,0 -0.3,0 -0.3,0 -0.3,0 -0.3,0 -0.3,0 -0.3,0 -0.3,0 -0.3,0 -0.3,0 -0.3,0 -0.2,0 -0.3,0 -0.3,0 -0.4,-0.1 -0.3,0 -0.3,0 -0.3,0 -0.2,0 -0.2,0 -0.1,0 -0.2,0 -0.3,0 -0.1,0 -0.3,0 -0.2,0 -0.2,0 -0.3,0 -0.1,0 -0.3,0 -0.2,0 -0.1,0 -0.2,0 -0.2,-0.1 -0.2,-0.1 -0.2,-0.1 -0.3,-0.1 -0.2,-0.1 -0.2,0 -0.3,-0.1 -0.2,0 -0.2,0 -0.2,0 -0.1,0 -0.2,-0.1 -0.3,-0.1 -0.1,-0.1 -0.1,-0.1 -0.2,-0.2 -0.2,-0.2 -0.1,-0.1 -0.1,-0.1 -0.1,-0.1 -0.1,-0.1 0,-0.1 -0.1,-0.1 -0.1,-0.1 -0.1,0 -0.2,0 -0.2,0 -0.2,0 -0.1,0 -0.1,0 -0.2,0 -0.2,0.1 -0.2,0.1 -0.2,0.1 -0.3,0 -0.2,0.1 -0.2,0 -0.2,0 -0.1,0 -0.1,0 -0.1,0 0.1,0 -0.1,0 -0.1,0 -0.1,0 -0.1,0 -0.1,0.1 -0.3,0.1 -0.2,0 -0.1,0 -0.2,0 -0.2,0 -0.2,0 -0.2,0 -0.3,0.1 -0.2,0.1 -0.1,0 -0.3,0.1 -0.2,0 -0.2,0 -0.2,0 -0.2,0 -0.2,0 -0.2,0 -0.2,0 -0.2,0 -0.2,0 -0.2,0 -0.1,0 -0.4,0 -0.1,0 -0.1,0 -0.1,0 -0.2,0 -0.1,0 -0.1,0 0,0.1 0,0.1 0.1,0 0.1,0 0.1,0 0,0.1 0,0.1 0,0.2 0,0.2 0.1,0.2 0,0.2 0,0 0,0.1 0,0.1 -0.1,0 0,0 0,0 0,-0.1 0,-0.1 0,0 0,0 -0.1,0 -0.1,0.1 -0.1,0.1 0,0 -0.1,0 -0.1,0 -0.1,0 -0.1,0 -0.1,0 -0.1,0 -0.1,0.1 -0.2,0 -0.2,0.1 0,0 0,0.1 0,0.1 0,0.1 -0.1,0 -0.1,0 -0.2,0 -0.1,0 -0.1,-0.1 0,-12.9 0,-0.1 0,-0.2 0,0 -0.1,0 -0.1,0 0,0 0,0.1 0,0.1 0,0.1 0,0.1 -0.1,0 0,0 -0.1,0 -0.1,-0.1 -0.1,0 -0.1,0 -0.1,-0.1 -0.2,0 0,0 -0.1,0 -0.1,0 -0.2,0.1 -0.1,0.1 0,0.1 0,0 0,0.1 0,0 -0.1,0 -0.1,0 -0.1,0 -0.1,0 -0.1,0 0,-0.1 -0.1,-0.1 -0.1,-0.1 -0.1,-0.1 -0.1,-0.1 -0.2,0 0,0 0,0 0,0 0,0.1 0,0.3 0,0.1 0,0 0,0.3 0,0.1 0,0.1 0,0.3 0,0 0,0 0,0.1 -0.1,0 -0.6,0 -0.1,0 -0.1,0 0,0 0,0 0,0 0,0 -0.1,0.1 -0.1,0 -0.1,0 0,-0.1 0,0 -0.1,-0.1 0,0 -0.2,0 0,0 0,0 0,-0.1 0,-0.1 0.1,0 0,0 -0.1,0 0,0 0,0 0,0 -0.1,0 0,-0.1 -0.1,-0.1 -0.1,0 -0.1,-0.1 -0.1,0 0,0 -0.3,-0.1 -0.1,0 0,0 0,0.1 0,0 0,0.1 -0.1,0 0,0 0,0 -0.1,-0.1 0,-0.1 0,0 0,0 -0.1,0 -0.1,0 -0.1,0 -0.1,0 -0.1,0 -0.1,0 -0.2,0 -0.1,0 -0.1,0 -0.1,0 -0.1,0 -0.1,0.1 0,0.1 0,0.1 0,0.1 0,0.1 0,0.1 0,0 0,0.1 0,0 0,0 0,0.1 0,0.1 0,0.1 0,0.1 0,0 0,0 0,0.1 0,0.1 0,0 0,0.1 0,0 0,0 0,0 0,0.1 0,0 0,0 0,0.1 0,0.1 0,0.1 0,0.2 0,0.1 0,0.1 0,0 -0.2,0.2 0,0 -0.6,0.1 0,-0.1 0,0 -0.2,0 0,0 -0.1,0 0,0 0,0 0,0 0,0 0,0 0,0 0,0 -0.1,0 0,0 0,-0.1 -0.1,0 0,0 0,0 0,0 0,0 0,0 0,0 0,0 0,0 0,0 0,0 0,0 0,0 0,0 -0.1,0 0,0 0,0 -0.1,0 0,0 0,0 0,0 0,0 -0.1,0 0,0 0,0 0,0 0,0 0,0 0,-0.8 0,0 0,0 0,0 0.1,0 0,0 0,-0.1 0,0 0,0 0,0 0.1,0 0,-0.1 0,0 0,-0.1 0.1,0.1 0,0 0,0 0,0 0,0 -0.1,-0.1 -0.1,0 0,0 -0.1,0 0,0 0,0 0,0 0,0 0,0 0,0 0,0 0,0 0,0 0,-0.2 -0.1,0 0,0 0,0 0,0 0.1,0 0,-0.1 -0.1,0 0,0 0,0 0,0 0,0 0,0 0,-0.1 0,0 0,0 -0.1,0 0,0 -0.1,0 0,0 0,0.1 -0.1,0.1 0,0 -0.1,0 0,0 0,0 -0.1,-0.1 0,0 0,-0.1 0,0 0,-0.1 0,0 0,-0.1 0,-0.1 0,0 -0.1,0 -0.2,0 -0.1,0 0,0 0,0 0,-0.1 0,-0.1 -0.1,-0.1 -0.1,0 0,0 -0.1,0 0,0 0,0.1 0,0 0,0 0,0 0,0 0,0 0,0 0,0 0,0 0,0 0,0 0,0 0,0 0,0 0,0 0,0 -0.1,0 0,-0.1 0,0 0,0 0,0 0,0.1 0,0 0,0.1 0,0 0,0 0,0 0,0 0,0 0,0 0,0 0,0 0,0.1 0,0 0,0 -0.1,0.1 -0.1,0 0,0 0,0 0,0 0,0 0,0 0,0 0,-0.1 0,-0.1 0.1,0 0,0 0,0 0,0 -0.1,0 -0.1,0 -0.1,0 0,0 0,0 0,0 0,0 0,0 -0.1,0 0,0 0,-0.1 0,0 0,-0.1 0,0 0,0 0,0 0,-0.1 0.1,-0.1 0,0 0,0 0,0 0.1,0 0,-0.1 0,0 0,0 -0.1,-0.1 0,0 0,0 -0.1,-0.1 -0.1,-0.1 -0.1,0 0,0 0,0 0,0 0,-0.1 0,0 0,0 0,0 0,0.1 0,0.1 0,0 0,0 0,0 -0.1,0 0,0 0,0 0,0 0,0 -0.1,0 0,0 0,0 0,0 0,0 0,-0.1 0,0 0,0 0,0 -0.1,0 0,0 -0.1,0 0,0 -0.1,0 -0.1,0 0,0 0,0 0,0 0,0 0,0 0,0 0,0 0,0 0,0 0,0 0,0 0,0 0,0 0,-0.1 0,-0.2 -0.1,-0.1 -0.1,-0.2 -0.2,-0.2 -0.1,-0.1 -0.8,-0.2 -0.4,-0.1 -0.6,0 -0.7,0 -0.2,0 -0.8,0 -0.4,0 -0.3,-0.1 -0.2,0 -0.1,0 -0.2,0 -0.3,0 -0.1,0 -1.9,0 -0.5,0 -0.4,0 -0.7,0 -0.7,-0.2 -0.2,0 -0.1,0 -0.1,-0.1 -0.2,-0.1 -0.3,-0.1 -0.3,-0.1 -0.1,0 0,0.1 -0.1,0.1 -0.1,0.2 0,0 -0.2,0 -0.4,-0.1 -0.1,0 -0.2,-0.1 -0.3,-0.1 -0.1,0 -0.3,0 -0.2,0 -0.2,0 -0.1,0 0,0 0,-0.1 0,-0.2 -0.1,-0.2 -0.3,-0.4 -0.2,-0.2 -0.3,0 -0.9,0 -0.3,0 -0.1,0.2 0,0 0,0.1 0,0.1 0,0.1 0,0.1 0,0.1 -0.1,0 -0.2,0 -0.1,0 0,0 0,-0.2 0,-0.1 0,-0.1 0,-0.1 0,-0.1 0,-0.1 0,-0.1 0,-0.2 0,-0.1 -0.1,0 -0.2,0 -0.2,0 -0.2,0 -0.2,0 -0.3,0 -0.5,0.1 -0.3,0 -0.3,0 -0.3,0 -0.6,0 -0.6,0 -0.3,0 -0.3,0 -0.4,0.1 -0.7,0 -0.3,0 -0.3,0 -0.7,-0.1 -1.2,0 -0.9,-0.1 -0.3,0 -0.2,0 -0.2,-0.1 -0.1,0 -0.4,0.3 -0.2,0 -0.2,0 -0.7,0.1 -0.3,0 -0.8,0.1 -0.4,0 -1.3,0.1 -0.3,0 -0.8,0.1 -0.3,0 -0.3,0 -0.5,0 -0.4,0.1 -0.6,0.1 -0.2,0 -0.3,0 -0.4,0.1 -0.3,0.1 -0.3,0.1 -0.4,0.1 -0.4,0 -0.3,0.1 -0.4,0 -0.4,0 -0.3,0.1 -0.3,0 -0.3,0 -0.3,0.1 -0.4,0.1 -0.3,0.1 -0.3,0.1 -0.3,0.1 -0.3,0 -0.1,0 -0.3,0 -0.3,0.1 -0.4,0.1 -0.3,0.1 -0.3,0.2 -0.3,0.2 -0.4,0.3 -0.2,0.1 -0.2,0.1 -0.2,0.2 -0.1,0.3 -0.1,0.3 0,0.2 0,0.1 -0.1,0.3 -0.1,0.2 -0.1,0.3 -0.1,0.3 0,0.3 0,0.1 0,0.1 -0.1,0.3 -0.1,0.2 -0.1,0.2 -0.1,0.2 -0.1,0.2 -0.1,0.2 -0.1,0.2 -0.1,0.2 0,0.2 -0.1,0.2 0,0.3 -0.1,0.3 -0.1,0.2 0,0.2 0,0.2 -0.2,0.6 -0.1,0.2 -0.1,0.3 -0.1,0.2 0,0.2 -0.1,0.2 -0.1,0.2 -0.1,0.2 -0.1,0.3 0,0.2 -0.1,0.2 -0.1,0.2 -0.1,0.2 -0.1,0.2 -0.1,0.2 -0.1,0.2 -0.1,0.1 -0.1,0.2 -0.1,0.1 -0.2,0.2 -0.1,0.3 -0.2,0.2 -0.1,0.1 -0.1,0.3 -0.1,0.2 -0.2,0.2 -0.2,0.2 -0.2,0.2 -0.2,0.2 -0.2,0.2 -0.8,-1.4 -0.2,0.2 -0.2,0.2 -0.2,0.3 -0.2,0.2 -0.2,0.1 -0.3,0.4 -0.3,0.3 -0.1,0.1 0,0.2 -0.1,0.1 -0.1,0.2 -0.1,0 -0.1,0.1 -0.1,0.1 0,0.1 -0.2,0.3 -0.1,0.1 -0.1,0.1 -0.1,0.1 0,0.1 -0.1,0.1 -0.1,0.2 0,0.1 -0.1,0.2 -0.1,0.1 -0.1,0.1 -0.1,0.1 -0.1,0.1 -0.1,0.2 -0.1,0.1 -0.1,0.2 -0.1,0.2 -0.1,0.1 0,0.2 0,0.2 0,0.2 -0.1,0.2 -0.2,0.3 -0.1,0.2 -0.1,0.2 0,0.1 -0.1,0.2 0,0.1 -0.1,0.2 -0.1,0.1 -0.1,0.2 0,0.2 0,0.2 -0.1,0.2 -0.1,0.1 -0.1,0.1 -0.2,0.1 -0.1,0.1 -0.1,0.1 -0.1,0.1 -0.1,0.2 0,0.1 -0.1,0.2 -0.1,0.1 -0.1,0.1 -0.1,0.1 -0.1,0.1 -0.1,0 -0.1,0 -0.1,0.1 -0.1,0 -0.2,0 -0.2,0 -0.1,0 -0.9,0 -0.1,0 -0.1,0 -0.1,0 -0.1,0 0,-0.1 -0.1,0 0,0 0,0.1 0,0.1 0,0.1 0,0.2 0,0.1 -0.1,0.1 -0.1,0.1 -0.1,0.1 -0.2,0 -0.1,0 -0.2,0 -0.1,0 -0.2,0 -0.2,0 -0.2,0 -0.2,0 -0.2,0 -0.2,0 -0.1,0 -0.1,0 -0.2,0 -0.1,0 -0.2,0 -0.1,0 -0.2,0 -0.2,0 -0.1,0 -0.1,0 -0.2,0 -0.1,0 -0.2,0 -0.1,0 -0.2,0 -0.1,0 -0.1,0 -0.1,0 -0.1,0 -0.1,-0.1 -0.1,0 0,-0.1 -0.1,-0.1 -0.1,0 -0.1,0 -0.2,-0.1 -0.4,-0.2 -0.2,-0.1 -0.1,0 -0.2,0 -0.1,-0.1 -0.1,0 -0.1,0 -0.1,-0.1 -0.1,-0.1 -0.1,-0.1 0,-0.1 0,-0.1 0,-0.1 -0.1,0 -0.1,0 -0.1,-0.1 -0.2,0 -0.2,-0.1 -0.2,0 -0.2,0 -0.1,0 -0.1,0 -0.1,0 -0.1,0 -0.1,0 -0.1,0 -0.1,0 -0.1,0 -0.2,0 -0.1,0 -0.1,0 -0.1,0 -0.2,0 -0.2,-0.1 -0.1,0 -0.2,0 -0.2,0 -0.3,0 -0.3,-0.1 -0.2,0 -0.2,0 -0.2,0 -0.2,0 -0.1,0 -0.2,0 -0.2,0 -0.1,0 -0.2,0 -0.2,0 -0.2,0 -0.3,0 -0.4,0 -0.1,0 -0.2,0 -0.2,0 -0.2,0 -0.2,0 -0.1,0 -0.2,0 -0.2,0 -0.2,0 -0.2,0 -0.1,0 -0.1,0 -0.1,0 -0.1,0 -0.2,0 -0.1,0 -0.2,0 -0.2,0 -0.2,0 -0.1,0 -0.1,0 -0.1,-0.1 0,-0.1 0,-0.1 0,-0.1 0,-0.1 0,0 -0.1,-0.1 -0.1,-0.1 0,-0.1 -0.1,-0.1 -0.1,-0.1 -0.1,-0.1 -0.1,-0.1 -0.1,-0.1 -0.1,0 -0.1,-0.1 -0.2,0 -0.1,0 0,0 -0.1,-0.1 -0.1,0 -0.1,-0.1 -0.1,0 -0.1,-0.1 -0.1,-0.1 -0.2,0 -0.1,-0.1 -0.1,0 -0.1,0 -0.1,0 -0.1,-0.1 -0.1,0 -0.1,-0.1 -0.1,-0.1 -0.1,-0.1 -0.1,0 -0.1,-0.1 -0.1,0 -0.1,0 -0.1,-0.1 -0.1,0 -0.1,0 -0.2,-0.1 -0.2,0 -0.1,-0.1 -0.1,0 -0.2,-0.1 -0.1,0 0,0 -0.1,0 -0.1,0 -0.1,0 -0.1,0 -0.1,0 -0.1,0 -0.1,0 -0.1,-0.1 -0.1,0 -0.1,0 -0.1,0 -0.1,0 -0.2,0 -0.2,0 -0.1,0 -0.1,0 -0.1,0 -0.1,0 -0.1,0 -0.1,0 -0.1,0 -0.2,0 -0.1,0 -0.2,0 -0.1,0 -0.2,0 -0.1,0 -0.1,0 -0.1,0 -0.2,0 -0.2,-0.1 -0.2,0 -0.1,0 -0.2,0 -0.1,0 0,0 -0.1,-0.1 -0.1,0 -0.1,0 -0.2,0 -0.1,0 -0.2,0 -0.1,0 -0.8,0 -0.1,0 -0.1,0 -0.1,0 -0.1,0 -0.1,0 -0.1,0 -0.1,0 -0.1,0 -0.2,-0.1 -0.1,0 -0.2,0 -0.1,0 -0.1,0 -0.1,0 -0.1,0 -0.1,0 -0.2,0 -0.1,0 -0.1,0 0,-0.1 -0.1,0 -0.1,0 -0.1,0 -0.1,0 -0.1,0 0,0 -0.1,-0.1 -0.1,0 -0.1,0 -0.1,0 0,0 -0.1,0 -0.1,0 -0.2,0 -0.1,0 0,0 -0.1,0 -0.1,0 -0.1,0 -0.1,0 -0.1,0 -0.1,0 0,-0.1 -0.1,0 -0.1,0 -0.1,0 -0.1,0 -0.1,0 -0.1,0 -0.1,0 -0.2,0 -0.1,0 -0.1,0 -0.1,0 -0.1,0 -0.1,0 -0.1,0 -0.1,0 -0.1,0 -0.1,0 0,0 -0.1,0 -0.1,0 0,0 0,0 0,0 0,0 0,0 0,0 0,0 -0.1,0 -0.1,0 0,0 -0.1,0 -0.1,0 -0.1,0 -0.1,0 -0.1,0 -0.1,0 0,0 -0.1,-0.1 -0.1,0 -0.1,0 -0.1,0 -0.1,0 0,0 -0.1,0 -0.1,0 -0.1,0 -0.2,0 -0.1,0 -0.1,0 -0.1,0 -0.1,0 -0.1,0 -0.1,0 0,0 0,0 -0.1,-0.1 -0.1,0 0,0 -0.2,0 -0.1,0 -0.1,0 -0.1,0 -0.1,0 -0.1,0 -0.2,-0.1 -0.1,0 -0.1,0 -0.1,0 -0.1,0 0,0 -0.1,0 -0.1,0 -0.1,0 -0.1,0 -0.1,0 -0.1,0 -0.2,0 -0.1,0 -0.1,0 -0.1,0 -0.1,0 -0.1,0 -0.1,0 -0.1,0 -0.1,0 -0.1,0 -0.1,0 -0.1,0 -0.1,0 -1.9,0 -0.1,-0.1 -0.1,0 -0.1,0 -0.1,0 -0.1,0 -0.1,0 -0.1,0 -0.1,0 -0.1,0 -0.1,0 -0.1,0 -0.1,0 0,0 -0.1,0 -0.1,0 -0.1,0 -0.1,0 -0.1,0 -0.1,0 -0.2,0 -0.1,0 -0.1,0 -0.1,0 -0.1,0 0,0 -0.1,0 -0.1,0 -0.1,0 -0.1,0 -0.1,0 -0.1,0 -0.2,0 -0.3,0 -0.1,0 -0.1,0 -0.2,0 -0.1,0 -0.1,0 -0.1,0 -0.1,0 -0.2,0 -0.2,0 -0.1,0 -0.1,0 0,0 -0.2,-0.1 -0.2,-0.1 -0.2,-0.1 -0.2,0 -0.2,-0.1 -0.1,0 -0.2,-0.1 -0.2,-0.1 -0.2,0 -0.3,-0.1 -0.1,-0.1 -0.2,-0.1 -0.2,0 -0.1,-0.1 -0.5,-6.8 -0.2,-0.1 -0.2,-0.1 -0.1,-0.1 -0.2,-0.1 -0.2,-0.1 -0.2,-0.1 -0.3,-0.1 -0.2,-0.1 -0.2,0 -0.2,-0.1 -0.2,-0.1 -0.3,-0.1 -0.2,-0.1 -0.2,-0.2 -0.3,-0.1 -0.2,-0.1 -0.3,-0.1 -0.2,0 -0.1,-0.1 -0.3,0 -0.2,0 -0.2,-0.1 -0.2,-0.1 -0.2,-0.1 -0.2,-0.1 -0.3,-0.1 -0.2,-0.1 -0.1,-0.1 -0.2,-0.1 -0.2,0 -0.2,0 -0.2,0 -0.2,-0.1 -0.2,0 -0.2,0 -0.3,0 -0.2,0 -0.2,-0.1 -0.3,0 -0.2,0 -0.2,0 -0.3,0 -0.2,0 -0.2,0 -0.2,0 -0.3,0 -0.2,0 -0.3,-0.1 -0.3,0 -0.3,0 -0.4,0 -0.3,0 0,0 0,0 -0.1,0 0,0 -0.1,0 0,0 -0.1,0 0,0 0,0 0,0 0,0 -0.1,0 0,0 0,0 -0.1,0 0,0 0,0 0,0 0,0 -0.1,0 0,0 -0.1,0 0,0 0,0 -0.1,0 0,0 0,0 0,0 0,0 -0.1,0 0,0 0,0 -0.1,0 0,0 -0.1,0 0,0 0,0 0,0 0,0 0,0 -0.1,0 0,0 -0.1,0 0,0 0,0 -0.1,0 0,0 0,0 0,0 0,0 -0.1,0 0,0 0,0 -0.1,0 0,0 0,0 -0.1,0 0,0 0,0 0,0 -0.1,0 0,0 0,0 -0.1,0 0,0 0,0 0,0 -0.1,0 0,0 0,0 0,0 0,0 0,0 0,0 -0.1,0 0,0 0,0 -0.1,0 0,0 0,0 0,0 0,0 0,0 0,0 -0.1,0 0,0 0,0 -0.1,0 0,0 0,0 -0.1,0 0,0 0,0 0,0 -0.1,0 0,0 0,0 -0.1,0 0,0 0,0 0,0 0,0 -2.6,0 0,0 0,0 0,0 0,0 -0.1,0 0,0 0,0 0,0 -0.1,0 0,0 0,0 0,0 0,0 0,0 0,0 0,0 -0.1,0 0,0 0,0 0,0 -0.1,0 0,0 0,0 -0.1,0 0,0 0,0 -0.1,0 0,0 0,0 -0.1,0 0,0 0,0 -0.1,0 0,0 0,0 0,0 0,0 0,0 -0.1,0 0,0 0,0 0,0 -0.1,0 0,0 0,0 -0.1,0 0,0 0,0 -0.1,0 -0.1,0 -0.1,0 0,0 -0.1,0 -1.5,0 0,0 0,0 -0.1,0 -0.1,0 0,0 -0.1,0 -0.1,0 -0.1,0 0,0 0,0 -0.1,0 0,0 -0.1,0 -0.3,0 -0.1,0 0,0 -0.1,0 -0.1,0 0,0 0,0 -0.1,0 -0.1,0 -0.1,0 0,0 -0.1,0 -0.1,0 0,0 -0.2,0 0,0 -0.1,0 0,0 -0.1,0 -0.1,0 0,0 -0.1,0 0,0 -0.1,0 -0.1,0 -0.1,0 0,0 -0.1,0 -0.1,0 0,0 -0.1,0 0,0 -0.1,0 0,0 -0.1,0 -0.1,0 0,0 -0.1,0 -0.1,0 0,0 0,0 -0.1,0 -0.1,0 -0.3,0 0,0 -0.1,0 -0.1,0 0,0 0,0 -0.1,0 -0.1,0 0,0 -0.1,0 -0.1,0 -0.1,0 0,0 0,0 -0.3,0 -0.1,0 0,0 -0.1,0 -0.1,0 0,0 -0.1,0 -0.1,0 0,0 0,0 -0.1,0 -0.1,0 0,0 -0.1,0 -0.2,0 0,0 0,0 -0.1,0 -0.1,0 -0.1,0 -0.1,0 -0.1,0 -0.1,0 0,0 -0.1,0 -0.1,0 -0.1,0 -0.1,0 -0.1,0 0,0 -0.1,0 -0.1,0 -0.1,0 -0.1,0 -0.1,0 -0.4,0 -0.1,0 -0.1,0 -0.1,0 -0.1,0 0,0 -0.1,0 -0.1,0 -0.1,0 -0.1,0 -0.2,0 0,0 -0.1,-0.1 -0.1,0 -0.1,0 -0.1,0 -0.1,0 -0.1,0 -0.1,0 -0.1,0 -0.1,0 -0.1,0 -0.1,0 -0.1,0 -0.1,0 -0.1,0 -0.1,0 -0.1,0 -0.1,0 -0.1,0 -0.1,0 -0.1,0 -0.1,0 -0.1,0 -0.1,0 -0.1,0 -0.1,0 -0.1,0 -0.1,0 -0.1,0 -0.1,0 -0.1,0 -0.1,0 -0.1,0 -0.1,0 -0.1,0 -0.1,0 -0.1,0 -0.1,0 -0.1,0 -0.1,0 -0.1,0 -0.1,0 -0.1,0 -0.1,0 -0.1,0 -0.1,0 -0.1,0 -0.1,0 0,0 -0.2,-0.1 -0.1,0 -0.1,0 -0.1,0 0,0 -0.1,0 -0.1,0 -0.1,0 -0.1,0 -0.1,0 -0.1,0 -0.1,0 -0.1,0 -0.1,0 -0.1,0 -0.1,0 -0.1,0 -0.1,0 -0.1,0 -0.1,0 -0.1,0 -0.4,0 -0.7,-0.2 -0.7,-0.1 -0.7,0 -0.6,0.1 -1.3,0.2 -1.2,0.2 -1.5,0.3 -1.6,0.5 -1.3,0.6 -1.3,0.7 -0.7,0.7 -0.5,0.6 -0.9,0.6 -0.3,0.1 -0.9,0.2 -1,0.3 -0.6,0.3 -1,0.4 -2.4,0.1 -0.7,0.2 -1.4,0.4 -1.8,0.4 -1.5,0.4 -1.2,0 -0.9,-0.9 -0.6,-0.3 -1.5,0 -1.3,0.1 -1.7,-5.8 -1.1,0.3 -1.6,-1.3 -1.9,-1.5 -2.6,-2.3 -2.1,-1.5 -1.4,-1 -2.9,-1.7 -3,-1.5 -3,-1.6 -4.5,-2.2 -1.5,-0.7 -1.2,-0.6 -1.2,-0.4 -0.2,-0.1 -1.2,-0.4 -0.4,-0.1 -2.5,-1.3 -1.2,-0.7 -1.2,-0.7 -0.6,-0.2 -1.3,-0.3 -1.1,-0.4 -0.3,-0.1 -1.6,-0.7 -0.3,-0.1 -0.3,-0.1 -0.4,-0.2 -0.3,-0.1 -0.3,-0.1 -0.2,-0.3 -0.5,-0.3 -0.3,-0.1 -0.4,-0.2 -0.5,-0.3 -0.6,-0.3 -0.4,-0.1 -0.5,-0.3 -0.6,-0.3 -0.3,-0.1 -0.3,-0.1 -0.5,-0.1 -0.4,-0.2 -0.5,-0.1 -0.3,-0.1 -0.2,-0.1 -0.3,-0.2 -0.2,0 -0.4,-0.2 -0.3,-0.1 -0.3,-0.1 -0.4,-0.2 -0.2,-0.1 -0.6,-0.2 -0.5,-0.2 -1,-0.2 -0.3,-0.1 -0.6,-0.2 -0.6,-0.1 -0.5,-0.2 -0.6,-0.2 -0.4,-0.3 -0.3,-0.1 -0.3,-0.1 -0.2,-0.1 -0.3,0 -0.2,0 -0.3,0 -0.2,0 -0.1,0 -0.2,0 -0.2,0 -0.3,0 -0.2,0 -0.2,0 -0.1,0 -0.2,0 -0.2,-0.1 -0.1,-0.1 -0.1,-0.1 -0.2,-0.2 0,-0.1 0,0 -0.2,-0.1 -0.2,-0.1 0,0 -0.1,0.1 0,0.1 0.1,0.1 0,0.1 -0.1,0.1 -0.1,0 -0.1,0 0,0.1 -0.1,0 -0.2,0 -0.2,0 -0.1,0 0,0 -0.1,-0.2 0,-0.2 0,-0.1 -0.1,-0.1 0,-0.7 0,-0.1 -0.1,-0.1 -0.1,-0.1 -0.1,0 -0.1,0 -0.1,0 -0.1,0 -0.1,-0.2 -0.2,-0.1 0,-0.1 0,-0.1 0,-0.2 -0.2,-0.1 -0.1,0 -0.1,0 0,0.1 0.1,0.2 0,0.1 0.1,0.1 0,0.1 0,0.1 -0.1,0 -0.1,0 -0.1,0 -0.1,0 -0.2,0 0,0 0,0 0,0.1 0,0 -0.1,0 -0.1,0 -0.2,0.1 -0.1,0 -0.2,0 -0.1,0 -0.2,0 -0.1,0 -0.1,0 -0.2,0 -0.1,0 -0.1,0 -0.1,0 -0.3,0 0,0.1 -0.1,0 0,0 -0.1,-0.1 0,0 0,0 -0.1,0 -0.1,0 -0.1,0 0,0.1 0,0 0,0.1 0.1,0.1 0,0.1 0.1,0.1 0.1,0.2 0,0.1 0,0.1 -0.1,0 -0.1,-0.1 -0.1,-0.2 -0.1,-0.1 -0.1,0 0,0 0.1,0.1 0,0.1 0,0.1 0,0.1 0,0 0,-0.1 0,-0.2 -0.1,-0.2 0,-0.2 0,-0.1 0,-0.1 0,0.2 0,-0.2 0,-0.2 0,-0.1 0.1,0 0.1,-0.1 0.1,0 0,0 -0.1,0 -0.1,0 -0.1,0 -0.1,0 -0.1,0 0,0 0,-0.1 0,-0.1 -0.1,0 -0.1,0 -0.1,0 0,0 0,0.2 0,0.1 0,0.1 0,0.2 -0.1,0 -0.1,0 0,0 -0.1,0 -0.1,0 0,0 0,-0.1 0,-0.2 0,-0.2 0,-0.1 0.1,-0.3 0,-0.1 0,-0.1 0,-0.1 0,0 -0.1,0 -0.1,0.1 0,0.1 0,0.1 0,0.2 -0.1,0.1 0,0.1 0,0.1 0,0 -0.1,0.1 0,0 0,0.2 -0.1,0 -0.1,0 -0.1,0 0,0 -0.1,0 0,0 0,-0.2 0,-0.1 0,-0.1 0.1,-0.1 0.1,0 0,0 0,-0.2 0,0 -0.1,0 0,0 0,0 0,0 0,-0.1 -0.1,0 0,0 0,0 0,0.1 0,0 0,0 -0.2,0 -0.1,0 0,0 0,0 0,0.1 0,0.1 -0.1,0 -0.1,0.1 0,0 -0.1,0 -0.1,0 0,-0.1 0,-0.1 0,-0.1 0,0 0.1,0 0,0 -0.1,0 -0.1,0 0,-0.1 0,-0.1 0,0 0.1,0 0.1,0 0.2,0 0.1,0 -0.1,0 -0.1,0 -0.1,0 -0.2,0 -0.2,0 0,-0.1 0,-0.1 -0.1,-0.1 -0.2,0 -0.3,0 -0.2,0.1 0,0.1 0,0.1 0,0.1 0,0.1 0,0.2 0,0.1 -0.1,0 -0.1,0 -0.1,0 -0.1,-0.1 -0.1,0 -0.1,-0.1 -0.1,0 0,0 -0.1,0.1 -0.1,0.1 -0.1,0 -0.1,0.1 -0.1,0 -0.7,0 -0.1,0 0,-0.4 0,-0.1 0,-0.1 0,-0.1 -0.1,-0.2 0,-0.1 0,-0.1 -0.1,-0.1 -0.2,0 -0.2,0 -0.1,0 -0.1,0 -0.1,-0.1 -0.2,0 -0.1,0 -0.2,0 0,0.1 0,0 0,0 0.1,0.1 0,0.1 0,0.1 0,0.1 -0.1,0 0,0.1 0,0 0,0.1 -0.1,0 -0.2,-0.1 -0.1,0 -0.1,-0.1 -0.2,-0.1 -0.1,-0.1 -0.2,-0.2 0,-0.1 -0.1,-0.1 -0.1,-0.1 -0.1,0 0.1,0.1 0,0.1 -0.1,0 -0.1,0 -0.1,0 0,0 0.1,0.1 0.1,0 0,0.1 0,0.1 0,0 0,0.1 0,0.1 0,0.2 0,0 -0.1,0 -0.2,0 0,0 -0.1,0 -0.1,-0.2 -0.1,-0.2 -0.1,0 0,0 -0.1,0 -0.1,-0.2 -0.1,-0.1 0,0 0,0.1 -0.1,0 -0.2,-0.1 -0.1,-0.1 0,-0.1 0.1,0 0,0 0,0 0,0 0.1,-0.1 0.1,0 -0.1,0 0.1,0 0.1,0 0,0 -0.1,0 -0.1,0 -0.2,0 -0.1,0 0,0 0,0 0,0 0,0 0,0 -0.1,0 -0.1,-0.1 -0.1,-0.1 -0.1,0 0,0 -0.3,0 0,0.4 0,0 -0.1,0 0.1,0 0,-0.1 0,-0.1 0,-0.1 0,0 0,0 0,0 0,0 -0.1,0 -0.1,0 -0.1,0 -0.1,0 -0.1,0 -0.1,0 -0.1,0 -0.1,0 0,0.1 0,0.1 -0.1,0 -0.1,0 -0.1,-0.1 -0.1,0 -0.1,0 0,0 0,-0.1 0,0 -0.1,-0.1 0,0 -0.1,0 0,0 -0.1,-0.1 -0.4,0 -0.1,0 -0.1,0 -0.1,0 -0.2,0 -0.2,0 -0.1,0 -0.1,0 -0.1,0 -0.1,0.1 0,0 -0.1,0 -0.2,0 -0.1,0 0,-0.6 0,-0.1 -0.1,-0.1 -0.1,0 -0.1,0 -0.1,0 -0.1,0 -0.1,0 0,0.1 0,0.1 0,0.1 -0.1,0.1 -0.1,0 -0.2,0 -0.1,0 -0.2,0 -0.1,0 -0.2,-0.1 -0.1,0 -0.1,0 -0.1,0 0,0 -0.1,0 -0.1,-0.1 -0.2,-0.1 -0.1,-0.1 -0.2,-0.1 -0.1,0 0,0 0,0 -0.1,0.1 -0.1,0.1 0,-0.1 0,-0.2 0,-0.1 0,0 0,0 0,0 -0.1,0 -0.1,0 -0.1,0 -0.1,0 -0.1,-0.1 0,0 -0.1,0 0,0 -0.1,0 -0.1,0 -0.1,0 -0.1,0 -0.6,0 -0.1,0 -0.1,0 0,0 -0.1,0.1 0,0 0,0.1 0,0.1 0,0.1 -0.1,0.1 0,0.2 -0.1,0.1 -0.1,0 -0.1,0 0,0.1 0,0.1 -0.1,0.1 0,0.1 0,0.1 -0.2,0 0,0 0,0 0,-0.1 0,0 0,-0.1 0,-0.1 0,-0.1 0,0 -0.1,0 -0.1,0 -0.1,0 0,-0.1 0,0 0,0 0,0 0,-0.1 0,0 -0.1,0 -0.1,0 0,0 -0.1,0 -0.1,0.1 0,0 0,0.2 0,0.1 0,0 0,0.1 0,0.1 0,0.1 -0.1,0 0,0 0,0 0,-0.8 0,-0.1 0,0 0,0 0,0 -0.1,0 -0.1,0 0,0.1 0,0 0,0.1 0,0.1 0,0 -0.1,0.1 0,0.1 -0.1,0 0,0 0,-0.1 0,0 0,0 0,-0.1 0,-0.2 0,-0.1 0,-0.1 0,-0.1 -0.1,0 -0.1,0 -0.1,0 0,0 0,0.1 0,0 0,0 0,0 0,0.1 0,0.1 0,0 0,0.1 0,0.1 0,0.1 0,0.1 -0.1,0 0,0 0,0 0,0 0,0 0,-0.1 0,0 0,-0.1 0.1,0 0,0 0,-0.1 0,0 0,0 0,0 0,0 0,-0.1 0,-0.1 0,-0.1 0,0 0,0 -0.1,0 0,0 0,0 0,0 0,0 0,0 0,0 0,-0.1 0,0 0,0 0,0 0,0 -0.1,0 0,0 0,0.1 0,0.1 0,0.1 0,0.1 0,0 0,0.1 0,0 0,-0.1 0,0 0,0 0,-0.1 0,-0.1 0,0 0,-0.1 0,-0.1 -0.1,0 -0.1,0 -0.1,0 -0.1,0.1 -0.1,0 -0.1,0 0,0 0,0.2 0,0.1 0,0.1 0,0 -0.1,0 -0.1,0 -0.1,-0.1 -0.1,-0.1 0,0 0,0 -0.1,0 0,0 0,-0.1 0,-0.2 -0.1,-0.1 -0.1,0 -0.2,0.1 0,0.1 0,0.1 0,0.2 -0.1,0.2 0,0 0,0 0,0 0,0 0,0 0,0 -0.1,0 0,0 -0.1,0 0,0 0,0.1 -0.1,0 0,-0.1 0,-0.1 -0.1,-0.1 -0.1,-0.1 -0.1,-0.1 0,-0.2 0,-0.1 -0.1,-0.3 -0.1,-0.1 -0.2,-0.1 0,0 -0.1,0 -0.1,0 0,-0.1 0,0 -0.1,0 0,0 -0.1,-0.1 0,0 0,0 0,0 0,0 -0.1,0 -0.1,0 -0.1,0 0,-0.1 0,0.2 0.1,0 0,-0.1 0,0 -0.1,0 0,0 0,-0.1 -0.1,0 -0.2,-0.1 -0.1,0 -0.2,0.1 -0.1,0 -0.2,0 -0.3,0 -0.2,0 -0.3,0 -0.3,0 -0.5,0 -0.3,0.1 -0.2,0 -0.3,0.1 -0.3,0.1 -0.3,0.1 -0.4,0.2 -0.3,0 -0.4,0 -0.4,0.3 -0.4,0.2 -0.5,0.3 -0.4,0.1 -0.5,0 -0.3,0 -0.3,0 -0.3,0.1 -0.4,0 -0.3,0 -0.3,0 -0.3,0 -0.3,0.1 -0.4,0 -0.3,0 -0.4,0 -0.4,0 -0.3,-0.1 -0.3,-0.3 -0.1,-0.2 -0.3,-0.1 -0.1,-0.2 -0.3,0.3 -0.4,0 0,0 -0.2,-0.1 -0.3,0 -0.2,-0.1 2.2,-2.3 1,-0.7 1.7,-0.8 1.7,-0.3 1.8,-0.1 1,-0.2 1.9,0.1 3,0.5 2.5,0 0.9,-0.4 0.5,-0.6 0.8,-1.1 0.5,-1.1 0.8,-1.6 0.4,-1.5 0.3,-1.7 0.1,-0.4 0.3,-1 0.3,-0.3 0.6,-0.4 0.7,-0.3 0.5,-0.3 0.4,-0.2 -1.2,-1 1.7,0 1.3,0.3 0.7,0.3 0.7,0.4 0.3,2.2 0.1,0.4 0.1,0.5 1.9,1.3 0.3,0.1 0.9,0.1 0.5,0.1 0.6,0 1.1,-0.4 3.8,-1.4 5.9,-2.7 1.8,-0.9 1.3,-0.9 0.5,-0.5 0,-0.9 -0.7,-0.6 -1.3,-0.7 -0.9,-0.5 -1.4,-0.6 -1.7,-1 -1.8,-1.7 -1.7,-2 -4.2,-4.7 -2.5,-2.2 -0.7,-0.5 -0.6,-1.4 -0.1,-3.8 -0.1,-2.7 1.6,-6.5 -0.1,-1.5 -0.6,-1.7 1,-2.5 2,-3.4 1.4,-2.9 0.7,-3.5 0.3,-1.5 -0.4,-1 -1,-0.8 -3.7,-1.7 -2.4,-1.7 -2.1,-1.6 -1.6,-1.8 -0.7,-2.1 -0.7,-1.8 0,-1.3 0.2,-0.3 0.1,-0.2 0.6,-0.1 1.8,0.4 2.4,0.3 1.4,-0.4 1.4,-0.9 1.3,-2.5 1.1,-2.9 3,-2 0.8,-0.9 0.5,-0.3 0.7,-0.4 1.7,-0.2 3.2,0.8 2,0.3 1.3,-0.5 1,-0.9 0.8,-2.1 -0.2,-2 -0.6,-1.5 -0.8,-1.7 -4.4,-5.2 -0.3,-1.1 0.3,-3 0.6,-1.6 1.2,-1.7 2.1,-0.4 2.7,0 2,-0.2 1.3,-0.7 1.8,-2.3 1.1,-2 0.3,-1.3 -0.3,-2 -0.5,-0.7 -1.3,-0.7 -0.6,0 -2.3,0.5 -1.9,0.8 -1,0 -0.6,-0.6 -0.7,-1.2 -0.7,-1.9 -0.6,-5.2 -0.4,-4.5 -0.3,-3.4 -0.4,-1.4 -1.1,-5.7 0,-3 0.4,-2.7 0,-3.1 0,-1.9 L 56,76.8 57.6,73.1 59,69.5 59.1,67.9 59,64.1 58.9,63.5 58.3,60.9 57.7,59 57.4,58.3 56.9,57.7 55.3,56.9 54,56.3 l -0.9,-0.8 -1,-1.8 -0.9,-2.7 -0.6,-1.7 -0.7,-1.5 -1.7,-2.2 -1.6,-2.8 -0.9,-2 -0.6,-1.5 0,-1 0.4,-1.2 -0.1,-0.9 -0.5,-0.5 -0.4,0 -0.3,0 -0.8,0.3 -5.1,2.7 -3,2.5 -0.7,0.2 -0.3,-0.4 -0.7,-0.6 -0.5,-0.8 -0.4,-1.7 -0.3,-1.3 -0.2,-1.8 0,-3.3 0.1,-3.2 0.7,-1.9 0.8,-1.8 0,-0.7 -0.4,-0.6 -1.2,-0.9 -1,-0.3 -1.5,0 -2.3,1.4 -1,-0.3 -1.4,-0.6 -0.7,-0.6 -0.5,-1 -0.2,-1.3 0.2,-0.9 0.9,-1 0.5,-0.6 1.7,-3 L 27,13.1 27.3,12 27.5,10.8 27.4,10 27.4,9.5 26.7,7.4 26,5.2 25,3 24.5,1.9 24.2,1 l 0.5,-0.1 4.4,-0.4 2.7,-0.3 0.3,0 0.3,0.1 0.6,0 0.7,-0.1 2.6,-0.1 2.3,-0.1 0.2,0 0.1,0.2 z"
       inkscape:connector-curvature="0"
       class="DEP_05 ZON_02" /></g></svg>