<?xml version="1.0" encoding="UTF-8" standalone="no"?>
<!-- Created with Inkscape (http://www.inkscape.org/) -->

<svg
   xmlns:dc="http://purl.org/dc/elements/1.1/"
   xmlns:cc="http://creativecommons.org/ns#"
   xmlns:rdf="http://www.w3.org/1999/02/22-rdf-syntax-ns#"
   xmlns:svg="http://www.w3.org/2000/svg"
   xmlns="http://www.w3.org/2000/svg"
   xmlns:sodipodi="http://sodipodi.sourceforge.net/DTD/sodipodi-0.dtd"
   xmlns:inkscape="http://www.inkscape.org/namespaces/inkscape"
   width="72mm"
   height="95mm"
   viewBox="0 0 255.11797 336.61402"
   id="SvgDepartamento"
   version="1.1"
   inkscape:version="0.91 r13725"
   sodipodi:docname="DEP_10.svg">
  <defs
     id="defs3611" />
  <sodipodi:namedview
     id="base"
     pagecolor="#ffffff"
     bordercolor="#666666"
     borderopacity="1.0"
     inkscape:pageopacity="0.0"
     inkscape:pageshadow="2"
     inkscape:zoom="2.8"
     inkscape:cx="149.94803"
     inkscape:cy="286.46696"
     inkscape:document-units="px"
     inkscape:current-layer="layer1"
     showgrid="false"
     inkscape:window-width="1366"
     inkscape:window-height="705"
     inkscape:window-x="-8"
     inkscape:window-y="-8"
     inkscape:window-maximized="1" />
  <metadata
     id="metadata3614">
    <rdf:RDF>
      <cc:Work
         rdf:about="">
        <dc:format>image/svg+xml</dc:format>
        <dc:type
           rdf:resource="http://purl.org/dc/dcmitype/StillImage" />
        <dc:title></dc:title>
      </cc:Work>
    </rdf:RDF>
  </metadata>
  <g
     inkscape:label="Capa 1"
     inkscape:groupmode="layer"
     id="layer1"
     transform="translate(0,-715.74812)">
    <path
       inkscape:connector-curvature="0"
       style="fill:#b3b3b3"
       d="m 66.801646,725.98274 c 9.6,-4.9375 19.9,-9.1625 30.8625,-9.3 6.562504,0.075 12.537504,3.1 18.762504,4.775 5.1,0.9 10.2375,1.6875 15.3625,2.5625 4.1625,0.8875 7.925,-1.675 11.975,-2.1125 3.2125,-0.3125 6.5875,-0.5625 9.75,0.2875 2.0625,1.0875 3.8125,2.675 5.825,3.875 8.8375,4.05 17.35,8.7625 26.575,11.925 -1,7.3125 5.0125,11.9375 9.6125,16.4875 7.45,-0.975 14.825,-2.475 22.3,-3.3125 3.8875,0.2375 8.325,1.0125 10.9625,4.1875 2.55,3.0875 4.675,6.525 6.6125,10.0375 2.3125,0.625 4.65,1.25 7,1.8125 6.45,7.0125 8.8,16.3625 11.35,25.2625 -1.35,2.025 -2.5,4.2625 -4.3875,5.85 -5.275,0.5 -10.65,0.225 -15.8375,1.5375 -1.3125,2.6875 -2.65,5.375 -3.9625,8.075 -1.8125,0.15 -3.6125,0.3125 -5.4,0.475 -3.875,4.525 -7.825,9.1125 -10.2125,14.65 -1.525,4.6125 -6.5875,5.95 -9.6875,9.1625 -1.2125,4.7 -0.0375,10.2875 -3.2875,14.325 -2.7875,1.9375 -6.25,2.5375 -9.4625,3.475 -4.4375,-1.2 -8.6625,0.575 -12.4875,2.65 -3.5625,-1.2375 -7.1,-2.5125 -10.625,-3.8125 -3.4875,4.1875 -6.95,8.625 -8.35,14 -1.0125,2.6375 -1.2625,5.8375 -3.375,7.8875 -3.6875,1.8875 -8.0125,1.6625 -11.825,3.1375 -3.275,3.125 -5.2375,7.9625 -4.625,12.5 1.175,6.65 -1.6375,13.075 -2.3875,19.6125 -2.45,7.4625 -0.95,15.4875 -3.1875,23 -0.9125,4.2 -4.025,7.3125 -6.6125,10.55 -3.5,4.275 -5.1625,9.6625 -8.325,14.1625 -2.675,3.9875 -6.075,7.4 -9.425,10.8125 -0.65,3 -1.3125,6 -1.9375,9.0125 -4.775,3.3875 -8.725001,8.3875 -9.562501,14.3 0.3375,5.2875 3.762501,9.6 6.475001,13.91246 2.325,2.85 -0.875,6.4875 -3.6,7.6 -5.187504,2.4125 -10.075004,5.525 -13.675004,10.0625 -4.65,4.35 -5.2625,11.175 -9.1375,16.0125 -4.0875,2.7125 -9.175,3.7375 -12.85,7.125 -1.825,1.8125 -2.9875,4.15 -4.3125,6.325 -2.6875,0.875 -5.4,1.7 -8.075,2.6 -1.8125,-1.0125 -3.6125,-2.0375 -5.4,-3.0625 4.175,-5.1875 9.0375,-9.825 12.6375,-15.475 -3.075,-0.062 -6.15,-0.1 -9.2125,-0.1125 -2.5875,3.35 -5.2375,6.6375 -8.0125,9.8375 -1.2125,-0.5375 -2.4125,-1.0625 -3.6,-1.575 0.35,-5.4875 0.8125,-11.025 2.2875,-16.3375 0.65,-2.9125 3.975,-3.4375 6.3,-4.425 4.9375,-1.5875 10.3375,-3.8875 12.6625,-8.8875 1.65,-5.35 -3.2,-9.5375 -3.5125,-14.64996 -0.35,-6.225 -0.075,-12.4625 -0.15,-18.675 3.7375,-2.9125 8.2375,-5.1625 11.025,-9.0875 1.9,-4.2875 4.05,-9.8125 0.6375,-13.95 -4.4875,-6.2625 -9.75,-12 -15.55,-17.075 -4.3625,-3.8875 -5.4875,-9.975 -6.7625,-15.4 -1.525,-9.2 0.0875,-18.9625 4.45,-27.2125 1.525,-3.2875 3.2375,-6.9125 2.175,-10.6 -1.7625,-7.225 -6.0375,-13.5125 -8.15,-20.625 -1.55,-5.3375 -3.9,-10.375 -5.75,-15.6 -1.625,-4.625 0.05,-9.475 0.2375,-14.175 -5.825,0.4 -11.4875,2.475 -17.3625,1.875 -5.375,-0.4875 -10.75,-0.3 -16.1124999,0.0125 -0.875,-9.6375 4.6249999,-20.5125 -2.425,-28.875 -2.4,-13.0125 7.9499999,-23.75 18.8749999,-28.8375 -0.7,-4.7625 -1.9875,-9.5625 -1.3125,-14.4 0.9625,-5.05 3.6125,-9.5375 5.8375,-14.1 -1.7375,-4.8375 -3.0125,-9.9625 -2.8875,-15.1 3.525,-5.025 8.7875,-10.4375 15.525,-9.5375 8.825,0.8625 17.9875,2.675 26.7375,0.5625 z"
       id="DEP_10" />
  </g>
</svg>
