<?xml version="1.0" encoding="UTF-8" standalone="no"?>
<!-- Generator: Adobe Illustrator 19.2.0, SVG Export Plug-In . SVG Version: 6.00 Build 0)  -->

<svg
   xmlns:dc="http://purl.org/dc/elements/1.1/"
   xmlns:cc="http://creativecommons.org/ns#"
   xmlns:rdf="http://www.w3.org/1999/02/22-rdf-syntax-ns#"
   xmlns:svg="http://www.w3.org/2000/svg"
   xmlns="http://www.w3.org/2000/svg"
   xmlns:sodipodi="http://sodipodi.sourceforge.net/DTD/sodipodi-0.dtd"
   xmlns:inkscape="http://www.inkscape.org/namespaces/inkscape"
   version="1.1"
   id="SvgMunicipio"
   x="0px"
   y="0px"
   viewBox="0 0 1000 624.6"
   style="enable-background:new 0 0 1000 624.6;"
   xml:space="preserve"
   inkscape:version="0.91 r13725"
   sodipodi:docname="MUN_ID1401.svg"><metadata
     id="metadata10"><rdf:RDF><cc:Work
         rdf:about=""><dc:format>image/svg+xml</dc:format><dc:type
           rdf:resource="http://purl.org/dc/dcmitype/StillImage" /></cc:Work></rdf:RDF></metadata><defs
     id="defs8" /><sodipodi:namedview
     pagecolor="#ffffff"
     bordercolor="#666666"
     borderopacity="1"
     objecttolerance="10"
     gridtolerance="10"
     guidetolerance="10"
     inkscape:pageopacity="0"
     inkscape:pageshadow="2"
     inkscape:window-width="665"
     inkscape:window-height="480"
     id="namedview6"
     showgrid="false"
     inkscape:zoom="0.37784183"
     inkscape:cx="500"
     inkscape:cy="312.29999"
     inkscape:window-x="0"
     inkscape:window-y="0"
     inkscape:window-maximized="0"
     inkscape:current-layer="svg" /><g
     id="g3"><path
       id="MUN_1401"
       d="m 200.3,118.6 -1.5,0.7 -1,-0.2 -1.1,0.2 -0.8,1.2 0.6,2 -1.5,3 -1,2.6 0.2,1.8 0.5,3.5 0.2,4 1,1 0.9,1.2 0.3,1.2 1.6,0.4 1.2,1.6 0.7,0.4 3.4,1.8 0.9,1 0.5,2.7 0.8,2.3 -0.1,2 0.5,3.5 0.8,0.4 1,1.6 0.1,0 21.6,-16.2 26.5,-18.3 30.1,-19.8 22.9,-13.3 18.9,-11.5 4.6,-2.6 7,-4 0.2,-0.1 50.4,-11.4 29,-6.8 23.9,-5.7 20.9,-26.3 19,-24.3 7,-10 1.3,-0.2 3.8,1.2 1.6,1 0.8,0.5 0.8,0.4 2.1,1.5 0.5,0.9 0.9,1.5 0.5,1.3 1.5,0.3 1.2,1.3 0.2,0.2 1.6,0.5 2.2,0.6 0.4,-0.1 1.6,0.5 1.3,0.4 1.3,0.4 1,0.6 2.5,0.3 1.5,1.1 2.4,0.5 2.8,1.4 3.2,1.4 0.6,0.3 1.8,-0.2 1.2,0.6 1.6,-0.4 1.3,-0.4 0.8,-1.6 1.1,-1.8 0.5,-1.4 0.8,-0.5 0.4,-0.2 0.4,-0.1 0.5,-0.3 1,-0.4 2.3,-0.1 0,0 1.3,-0.4 0.1,0.2 2.8,-0.3 2.4,-1.5 4.1,-2.6 0.8,-0.5 0.2,-0.1 0.9,-0.3 1.2,0.5 1.6,0.7 0.1,1.5 2.2,5.7 1.2,2.4 4.2,0.7 31.7,2.1 48.1,2.2 14.3,12 20.6,23.3 6,0.3 15,-1.1 7.3,-1.4 5.9,-0.5 8.7,4.1 3.6,0.7 2.9,0.9 5.4,1.3 4.9,1.5 6.4,3 4.9,1.5 3.5,1.1 2,0.7 7.3,6.2 5.4,4.8 1.4,0.1 8,0.6 24.9,1.6 5.2,0.4 12.7,22.4 7.7,14.4 8.2,15.7 1.3,9.3 1.9,9 4,19.5 4.8,25.7 2.8,14.9 2.3,13.3 1.8,10.7 2.2,11.5 2,9.9 0.8,1.9 6.3,9.5 9.8,15.7 3.8,6.5 8.7,11.2 7.5,8.4 8.9,12.3 0.3,0.5 10.2,13.8 4.6,6.2 13.7,18 3,4.7 -0.1,7.7 0.7,11.7 0.5,5.2 7,-4.1 6.1,-3.7 5.7,-4.1 5.9,-4.8 2.6,-5.7 4.8,5.7 -0.1,1.8 0.5,2 1.3,3.4 1.6,2.5 0.2,1.9 1.6,0.2 0.2,1.6 0.3,1.1 2.1,2.6 0.2,2.1 1.2,1.5 0.3,2.2 -0.4,1.8 1,1.8 -0.5,3.3 0.1,2.8 0.7,2.4 2.4,1.5 2.7,0.5 2.7,0.1 2.9,2 2.4,0.9 0.7,1.3 1.3,2.8 2.1,2.8 0.1,0.2 0.3,0.6 0.3,0.4 0.4,0.3 -14.1,3 -27.9,1.5 -6,0.8 -3.2,1.2 -5.6,4.9 -11.4,5.1 -23.7,10.4 -19.3,6.6 5.5,19.8 0.4,1.3 -0.1,8.8 2.6,0.5 5.7,6.2 5.5,6.4 1.3,2.7 2,1.2 0.6,0.6 -0.2,1.3 -2.3,1.5 -1,2.6 -0.4,1.5 2.4,1.3 1.4,1.2 0.3,0.9 -0.1,0.3 0.1,2 -2.9,5.8 -2.3,1.2 -1.8,2 -2,2 -2.9,4.6 -0.7,2 0.3,2.3 2,3 3.1,2.4 1.4,-0.3 0.7,1.8 2.7,0.9 2.3,0.3 0.9,2.1 0.7,2 1.9,3.8 -1.9,-0.2 -2.2,-0.1 -3.3,-1.1 -4.1,0.2 -5.9,-0.1 -3.9,-1.2 -2.3,0.7 -3.5,6 -3.7,6.1 -2.2,2.7 -1.8,2.3 -1.8,2 -0.7,1.8 -0.1,4.4 -1.5,1.2 -3.8,1.8 -8.4,0.4 -3.5,0.4 -5.8,0.4 -3.4,-0.4 -2.7,0.2 -4.5,1.5 -2.7,-4.2 -1.1,-4 -1.6,-6.9 -2.2,-3.2 -2,-3.4 -1.2,-2.4 -1.8,-2.8 -3.8,-3.1 -4,-0.5 -8.4,0.7 -3.2,0.5 -2.6,0.5 -2.7,0.7 -2.5,2 -5.6,4.2 -4.8,3.9 -6.5,5.7 -1.5,3.8 -4.8,0.2 -4.5,0.5 -3.4,-0.5 -4.7,-1.5 -2.7,-2.1 -3.3,-4.1 -1.9,-4.8 -2.9,-4.3 -5.4,-5 -3.5,-0.9 -1.8,0.4 -3.7,-0.9 -4.5,-2.3 -6.4,-7.7 -2.1,-1.2 -2.3,-0.7 -5.5,-0.9 -10.5,-0.5 0,0.1 -0.3,3 -2.8,-0.4 -3.8,-0.9 -1.2,-0.1 -4.3,0.2 -2.9,2.7 1.2,3.7 -0.9,1.8 -2.7,2.6 -0.2,4.8 -2.9,1.5 0,3.5 -1.5,2.7 -10.3,-0.4 2.9,5 3.1,6.2 2.3,5.5 -0.1,5.6 -0.2,4.9 -1.2,2.1 -4.7,4.2 -9,7.3 -13.9,13.2 -26.5,-2 -10.2,-1.2 -20.7,-3.5 -41.9,-7.2 -14.5,-3.7 -19.9,-5.5 -19.5,-5.9 -24.9,-7.1 -0.1,-0.1 -12,-13.9 -1.3,-1.5 -22.2,-24.8 -50,-55 -0.2,-0.1 -71.3,-9.1 -2,-0.2 -65.3,-6 -64.6,-36.8 -4.1,-6.1 -8.5,-11 -4.7,-7 -5.7,-8.8 -4.5,-7.1 -1.7,-7.7 1.6,-8.1 3.8,-8.2 3.7,-3 1.7,-0.2 1.7,-4.4 0.9,-2.5 6,-16.2 7.7,-20.5 8.7,-24 3.1,-10.9 1,-5.8 0.1,-4.4 0,-0.5 -1.8,0.4 -1.5,-0.9 -1.6,-1.8 -1.5,-3.9 -1,-3.4 1,-4.4 -1,-0.2 -1.7,-1.8 -1.5,-0.6 -0.5,0.1 -1.6,0.4 -3.1,0.2 -2,-0.3 -6.5,-1 -1.6,1.8 -1.3,1.2 -3.4,0.5 -4.6,-1.3 -1.4,-1.5 -1.8,-2 -0.9,-0.9 -1,0.1 -1.3,0 -0.5,1.2 -1.4,0.7 -0.9,0.6 -1,0.7 -0.7,1.1 -0.2,0.7 0.4,1.3 -0.2,2 -0.8,0.2 -0.2,-1 -1,0.1 -1,0.7 -1.4,-0.4 -1.2,-0.4 -1.3,-0.7 -3.7,-1.3 -2.3,3.8 -1.3,1.5 -3.2,0.9 -2.6,-0.1 -1.6,0.4 -0.6,-0.2 -2.6,0 -1.2,0.9 -2.5,-0.6 -1.5,0.5 -2,4.3 -1.5,0 -2.3,2.5 -0.5,0.6 -1.7,1.4 -0.1,1.2 -0.4,2.9 -0.5,0.7 -2.1,1.9 -2.2,0.5 -2,0.8 -2.9,2.7 -4.8,0.5 -1.5,2.7 -2.7,2.5 -0.5,1 -0.2,1.6 -0.7,1.8 -0.2,0.7 -2.1,0.2 -2,-0.9 -3,0.1 -3.2,2.6 -2.5,0.2 -1.5,2.4 -4.9,0.2 -1.7,-1.6 -1.2,-1 -1.3,-3.5 -2.4,-6.6 -19.3,0.9 -5.5,-0.3 -7.1,-0.9 -6,-1.2 -6.8,0.4 -5.9,0.7 -4.9,-0.1 -5.1,0.8 -1.9,0.1 -5,0.3 -4.3,-0.2 20.9,-47.8 29.9,-70.9 11.5,-9.7 10.6,-9.4 40.4,-33.2 18.1,-32.8 22.7,-41.5 1.9,-3.3 29.1,-52 1,8.2 7,53 5.7,37.6 2.3,14.5 1.5,3.5 0.2,0.2 -0.1,0.5 -0.5,0.8 -0.9,1.8 -1.2,1.3 -0.2,1.4 -0.2,3.1 0.4,1.6 2.5,2 0.2,1.6 -0.2,4.6 -1.2,1.8 -1.1,1.1 z"
       inkscape:connector-curvature="0"
       class="DEP_13 ZON_04" /></g></svg>