<?xml version="1.0" encoding="UTF-8" standalone="no"?>
<!-- Generator: Adobe Illustrator 19.2.0, SVG Export Plug-In . SVG Version: 6.00 Build 0)  -->

<svg
   xmlns:dc="http://purl.org/dc/elements/1.1/"
   xmlns:cc="http://creativecommons.org/ns#"
   xmlns:rdf="http://www.w3.org/1999/02/22-rdf-syntax-ns#"
   xmlns:svg="http://www.w3.org/2000/svg"
   xmlns="http://www.w3.org/2000/svg"
   xmlns:sodipodi="http://sodipodi.sourceforge.net/DTD/sodipodi-0.dtd"
   xmlns:inkscape="http://www.inkscape.org/namespaces/inkscape"
   version="1.1"
   id="SvgMunicipio"
   x="0px"
   y="0px"
   viewBox="0 0 1000 986.4"
   style="enable-background:new 0 0 1000 986.4;"
   xml:space="preserve"
   inkscape:version="0.91 r13725"
   sodipodi:docname="MUN_ID1416.svg"><metadata
     id="metadata10"><rdf:RDF><cc:Work
         rdf:about=""><dc:format>image/svg+xml</dc:format><dc:type
           rdf:resource="http://purl.org/dc/dcmitype/StillImage" /></cc:Work></rdf:RDF></metadata><defs
     id="defs8" /><sodipodi:namedview
     pagecolor="#ffffff"
     bordercolor="#666666"
     borderopacity="1"
     objecttolerance="10"
     gridtolerance="10"
     guidetolerance="10"
     inkscape:pageopacity="0"
     inkscape:pageshadow="2"
     inkscape:window-width="665"
     inkscape:window-height="480"
     id="namedview6"
     showgrid="false"
     inkscape:zoom="0.23925385"
     inkscape:cx="500"
     inkscape:cy="493.20001"
     inkscape:window-x="0"
     inkscape:window-y="0"
     inkscape:window-maximized="0"
     inkscape:current-layer="svg" /><g
     id="g3"><path
       id="MUN_1416"
       d="m 750.7,255.2 11.3,0.7 7.4,-0.4 6.5,-1.4 6,0.7 5.5,3.3 10.8,9.6 5.5,9.8 5.3,8.9 1.3,12.2 0,4.2 5.1,6 8.3,4.3 5.3,5.8 4.4,11.3 0.7,4.2 -1,2.1 -2.8,-0.5 -1.8,-4.9 -1.6,-3.9 -4.6,-2.9 -4.9,-1 -7.4,0.2 -7.2,4.6 -4.7,6.3 -4.2,7.9 6.4,11.8 3,6.5 3.8,10.4 1.2,3.2 10.9,8.2 2.4,3.3 4.6,6.8 2.3,2.1 1.3,2.1 0.6,5.4 0.8,2 1.1,2 1.5,2.3 0.9,3.1 -0.1,7 -0.3,1.8 -1.3,0.7 -1.5,1.4 0.3,1.5 2.9,3.3 5.5,9.7 6.4,12 2,6 0.2,3.1 -0.8,3 -1.1,2.9 -0.3,2.5 3.1,2.9 6.7,4 10.8,20.4 5.5,10.2 1.1,2.2 22.4,45.8 11.2,22.8 7.2,13.7 6.4,7 0.7,0.7 7.3,6.9 3.8,2.1 2.7,2.4 2.9,4.1 2.6,3.8 6,4.3 2.4,1.8 1.6,2.9 2.7,5.7 5,7.4 1.7,1 2.2,0.7 2.1,2.1 2.5,3.7 2.9,3.9 3,1.9 3.2,0.8 2.7,-0.6 2.8,0.7 0.3,2.2 0.5,0.4 0.2,0.3 1.9,3 1.1,3.5 1.2,1.3 -0.8,2.2 -1.2,2 -0.5,1.1 0.7,2 2.3,3.1 1.3,2.8 4.6,1.6 3.6,1.3 2.9,2 0,1 0,1.2 0.1,2.9 3.3,4.5 1.2,0.1 0.8,0.9 0.2,0.6 4.2,2.9 1.5,0.4 1.6,2 1.4,3.3 -7.7,2.1 -125.5,111.7 -1.5,0 -11,-4.4 -30.9,-14.9 -29.8,-13.9 -4.6,-5.5 -4.5,-8.8 -8.8,5.3 -0.6,0.3 -7.1,5.2 -4.9,3.9 -2.5,2.7 -2.6,4.5 -7.1,8.1 -9.5,13.9 -4.7,10.2 -0.9,5.1 1.5,3.3 2.2,1.1 3.5,4.6 -1.5,6.4 -4.2,4.6 -1.1,1.5 -3,3.4 -0.8,5 0.8,3.9 0,0 -78.4,104.7 -105.1,9.7 -13.9,1.1 -5.8,2.7 -7.2,3.2 -6.7,1 -3.4,-1.4 -3.5,-2 -5.2,-6 -6.9,-0.9 -9.7,-0.3 -5.8,2.1 -5.9,3.8 -5.3,0.4 -4.6,-1 -5.5,2.2 -7.1,3 -7.5,3.3 -9.5,6.2 -8.2,3.3 -9.5,0 -10,0.8 -0.9,-0.2 -5.6,-1.6 0,0 -3.4,-2.4 -0.7,-0.4 -1.9,-0.7 -2.2,-0.7 -0.9,-0.2 0,0 -1.5,-0.4 -0.6,-0.5 -4,0.6 -6.2,1.1 -6.4,-1.1 -4.8,0.9 -8,0.2 -8.6,-1.2 -9.2,-2.4 -2,-12.8 -3.1,-12.2 -3.7,-16.8 -2.4,-2 -4.2,0.4 -6.5,-0.4 -5.5,-1.5 -6,-2.6 -2.2,-4.6 -1.3,-5.8 -1.4,-4.8 0.4,-4.7 -0.3,-5.1 -2.6,-5.2 -4,-10.4 -2.4,-4.7 -3.2,-4.1 -4.6,-2.2 -4.7,-2.2 -4.6,-3.3 -3.9,-2.6 -4.2,0 -6.6,0.3 -8.2,1.5 -5.1,0.4 -1.2,0.8 -2.7,1.8 -3.6,3.3 -7.6,1.5 -6.4,-0.8 -6.6,-2.2 -13.1,-3.8 -1.9,-23.2 -2,-9.1 -1.3,-0.3 -35.6,-10.4 -22.2,-4.4 -10.8,-2.1 -59.4,-11 -65.3,-11.9 -11.5,-2.3 13.2,-57.7 15.7,-63.8 0,0 3,-9.2 1.6,-3.8 3.5,-5 9.4,-11.8 4.2,-6.3 1.6,-6.8 0.8,-5.1 6.7,-9.4 0.2,-0.2 -4,-4.2 -0.4,-4.2 -0.5,-4.8 0.2,-4.2 0.7,-2 0.4,-1.4 2.8,-0.4 3.3,-1.5 1.6,-1.1 2.2,-0.4 2.4,2 2.4,0.8 2.4,0.1 1.6,0.8 2.4,2.4 3.5,0 4.5,-1.2 1.9,-6.4 3.5,-2.5 1.4,-1.8 3.8,-1.4 2,-2 3.1,-1.2 1.1,-0.2 3,1.9 1,-1.1 -0.2,-0.4 -0.9,-2 0.3,-3.8 2.6,-0.7 2.5,0.1 3.7,-0.6 2.9,0.8 7.3,2.4 4.6,1.2 2.8,0.2 2.7,0.6 3.6,3.5 2.9,-0.1 3.4,0.1 1.8,0.6 0.8,-1.4 0.2,-1.5 2,-1.3 1.6,-2.3 0.9,-2.7 1.8,-1 1.6,-1.4 3.4,1.6 1.6,1 1.3,1.6 4.3,-5.6 -3,-1.5 0.4,-3.4 0.2,-2.7 -0.2,-5.5 -0.7,-0.7 -3.6,-2 -4.9,-3.8 -6.9,-8.5 -1.8,-3.8 -2,-1.3 -1.3,-1.9 -1.1,-4.1 0.1,-9.6 -2.4,-6.3 -0.7,-2.1 -2.9,-4.7 -1.7,-5.8 -1.8,-6.4 -3.8,-3.8 -2.7,-4 -1.9,-4.9 -1.5,-2 -3.3,-2.1 -2.3,-3.1 -2.9,-2.7 -2.3,-0.7 -0.8,-2.2 -0.7,-4.5 -1.9,-2.3 -2.9,-1.8 -3.7,-1.5 -5.6,-0.4 -1.2,-3.1 0.7,-2.3 0.3,-2.7 1,-4.2 0.3,-4.4 0.1,-1.2 -0.7,-6.1 0.9,-4.4 4.1,-5.1 -0.2,-1.1 -0.3,-2.5 4.2,-20.9 18.4,-21.3 8.7,-10 13.9,-15.3 4.6,-6.5 -0.7,0.1 -1.2,0.1 -2,-1.6 -1.2,-3.3 -3.1,-4 -4.2,-3.2 -2.9,-1.5 -4,-0.9 -1.7,0 -2.8,-1.4 -1.7,0.4 -2,2.1 -3.3,4.4 -1.6,3.1 -1,3.5 -0.4,2.5 -0.7,0.8 -1.9,-0.5 -1,-0.9 -0.6,-2 2,-11 1.1,-4.2 -0.7,-3.3 -0.1,-1.8 -0.7,-4 -0.2,-1.5 -2.1,-1.5 -0.2,-2.3 1.9,-0.5 1.4,0.4 2.4,2.4 1.5,0 1.7,-1.7 0.4,-1.2 0.4,-1.6 0.2,-3 0.1,-2.2 -1.1,-3.1 -2.9,-2.6 -3.1,-1.1 -11.7,-0.6 -2.3,-0.8 0.3,-2.7 5.7,-6.6 5.2,-5.3 0.6,-5 -0.7,-5.1 0.7,-3.7 0.5,-6.5 -0.9,-1.3 -1.7,-2 -2.3,-2.3 -5.1,-2.4 -5.2,-2.1 -2.9,-1.4 -2,-5.2 -1.1,-3.6 -4,-1.3 -2.8,1.9 -1.5,0.6 -0.7,-79 1.4,-12.4 2.3,-12.1 17,-93.1 6.7,-37.3 1.7,-10.9 -1,-6.1 86.4,49.2 87.4,8.1 2.6,0.3 95.4,12.2 0.2,0.2 66.8,73.5 30.6,33.8 1.8,2 16,18.6 0.1,0.1 33.4,9.5 26,7.8 26.7,7.4 19.4,5 56,9.6 27.7,4.7 13.7,1.5 36.1,2.5 z"
       inkscape:connector-curvature="0"
       class="DEP_14 ZON_04" /></g></svg>