<?xml version="1.0" encoding="UTF-8" standalone="no"?>
<!-- Generator: Adobe Illustrator 19.2.0, SVG Export Plug-In . SVG Version: 6.00 Build 0)  -->

<svg
   xmlns:dc="http://purl.org/dc/elements/1.1/"
   xmlns:cc="http://creativecommons.org/ns#"
   xmlns:rdf="http://www.w3.org/1999/02/22-rdf-syntax-ns#"
   xmlns:svg="http://www.w3.org/2000/svg"
   xmlns="http://www.w3.org/2000/svg"
   xmlns:sodipodi="http://sodipodi.sourceforge.net/DTD/sodipodi-0.dtd"
   xmlns:inkscape="http://www.inkscape.org/namespaces/inkscape"
   version="1.1"
   id="SvgMunicipio"
   x="0px"
   y="0px"
   viewBox="0 0 1000 825.4"
   style="enable-background:new 0 0 1000 825.4;"
   xml:space="preserve"
   inkscape:version="0.91 r13725"
   sodipodi:docname="MUN_ID1407.svg"><metadata
     id="metadata10"><rdf:RDF><cc:Work
         rdf:about=""><dc:format>image/svg+xml</dc:format><dc:type
           rdf:resource="http://purl.org/dc/dcmitype/StillImage" /></cc:Work></rdf:RDF></metadata><defs
     id="defs8" /><sodipodi:namedview
     pagecolor="#ffffff"
     bordercolor="#666666"
     borderopacity="1"
     objecttolerance="10"
     gridtolerance="10"
     guidetolerance="10"
     inkscape:pageopacity="0"
     inkscape:pageshadow="2"
     inkscape:window-width="682"
     inkscape:window-height="480"
     id="namedview6"
     showgrid="false"
     inkscape:zoom="0.28592197"
     inkscape:cx="500"
     inkscape:cy="412.70001"
     inkscape:window-x="0"
     inkscape:window-y="0"
     inkscape:window-maximized="0"
     inkscape:current-layer="svg" /><g
     id="g3"><path
       id="MUN_1407"
       d="m 706.9,59.1 105.3,162.8 6.7,10.4 14.8,45.7 20.4,55 15.9,45.5 2.8,6.6 65.9,154.1 0.4,10.5 -0.8,9.8 -1.2,6.8 0.6,6.3 0,0 -0.5,1.5 -1,2.2 0.2,3.3 0.7,1.7 0.1,1 -2,3.4 -1.4,3 -0.3,1.9 1.6,9.2 1.2,1.6 1.4,0.5 1.6,0.8 1.3,1 1,1.7 -0.9,3.7 -1,3 -1.1,2.8 -1.6,0.9 -2.8,-0.5 -2.6,-0.1 -1.5,0.6 -0.5,1 -0.4,0.5 -0.4,1.5 -0.4,1.4 0.1,1.8 1.6,5.4 1.8,6 0.9,1.6 4,4.4 1.4,4.7 0,1.8 -0.4,2.7 -0.8,1.8 -0.5,2.1 -0.5,0.5 -4,-2.5 -1,0.4 -0.8,1.6 -0.4,1.6 0.4,1.6 2.3,1.5 0.5,0.9 1.7,1.9 3.8,0.7 3.8,0.3 0.2,1.5 -0.3,2.8 -0.6,1.1 -1.3,0.3 -2.6,1.4 -2.1,2.7 -2.7,0.5 -0.9,1 0.2,1 2.7,2.1 -0.1,1.7 -0.9,1.6 -1,0.9 -1.6,-1.9 -1.9,-0.9 -1.7,0.3 -1.4,1.5 -0.5,1.8 -0.1,2 1,0.8 0.3,0.5 -0.5,1.6 0,1.5 0.7,0.8 1.6,1.1 -0.3,4.1 -1,4.7 1.2,2 0.4,1.6 0.8,1.2 -1.3,1.5 0.4,1.1 -0.9,0.8 0.1,0.9 2.4,0.5 0.9,3.2 0.5,1.6 2,1.1 0.9,1.1 0.7,1.4 0.3,2 -0.1,1.1 0.1,0.8 -0.7,0.7 -0.1,1.1 -1,3.1 -1.6,1.7 -0.8,0.2 -1.5,-0.2 -0.8,0.4 -1.4,-0.1 -0.7,0.5 0.3,1 0.1,1.2 1.3,0.8 0.8,0.9 2.7,3.7 0.6,1.6 0,0.5 -1,2.6 -0.9,2.5 0.7,2.5 4.9,1.7 1.6,1.6 1.4,2 0.4,4.8 0.5,4.3 0.9,4.1 0.5,1.7 3,-0.8 3.7,0 6,0.4 7.1,0.9 5.2,1.1 2.5,2.7 1.3,3.2 -1.2,4.7 -3.8,6.9 -3.5,9 3,6.3 11.7,0.1 10,-2.8 7.5,1.2 3.5,1.8 1.6,3.2 0.6,6.4 -3.6,7.1 -2.3,6 -16.4,-7.2 -17.1,0.2 -11.7,-0.9 -14.4,-3.5 -11.5,-0.5 -14.8,-2.2 -18.1,-3.4 -15.5,-1.6 -23.1,-2.7 -15.9,-2.1 -10.4,-1.7 -13.9,-2 -8.5,-0.5 -9.6,-0.2 -6.1,-1.3 -14,-1.4 -38.4,-4.9 -16.3,-0.5 -7.3,-0.5 -10.7,-1.4 -9.4,-1.2 -15.7,-2 -11.7,-0.5 -23.6,-2.6 -13.7,-0.6 -13.5,-2 -9.6,-0.5 -17.4,0 -21.3,-2.9 -13.2,-1.5 -10.8,-0.4 -11.8,0.3 -25.5,-2.1 -20.9,-2.1 -22.5,-2.9 -13.8,-1.1 -10.4,-2.1 -3.8,0.5 -11,0.6 -9.3,1.8 -5.8,-2.8 -10.3,0.3 -22.7,-0.6 -19.1,-2.9 -29.8,-3 -9.3,-0.5 -10.1,0 -6.7,-1.3 -12.8,-1.6 -14,-1 -14.8,-2 -12.7,-4.8 -10.8,-6.1 -2.9,-8.1 0.9,-8 1.8,-3.8 -13.4,0.4 -6.8,17 -6.2,4.9 -6.4,2.8 -6.3,-0.7 -21.4,2 -15.6,0 -12.7,-0.4 -10.6,-0.8 -9.9,-2.9 -9,-1.4 -10,0 L 71,734.1 58.7,733.9 44.3,731 23,728.6 13.4,726.2 6,724 l -4,-3.9 0,0 -2,-96 55.9,-120 20.5,-70.1 0,0 7.5,-25.8 L 93,387 164.5,221.2 137,61.8 219.8,66.7 334.3,73.4 465,48.1 666,-4 706.9,59.1 Z"
       inkscape:connector-curvature="0"
       class="DEP_14 ZON_04" /></g></svg>