<?xml version="1.0" encoding="UTF-8" standalone="no"?>
<!-- Generator: Adobe Illustrator 19.2.0, SVG Export Plug-In . SVG Version: 6.00 Build 0)  -->

<svg
   xmlns:dc="http://purl.org/dc/elements/1.1/"
   xmlns:cc="http://creativecommons.org/ns#"
   xmlns:rdf="http://www.w3.org/1999/02/22-rdf-syntax-ns#"
   xmlns:svg="http://www.w3.org/2000/svg"
   xmlns="http://www.w3.org/2000/svg"
   xmlns:sodipodi="http://sodipodi.sourceforge.net/DTD/sodipodi-0.dtd"
   xmlns:inkscape="http://www.inkscape.org/namespaces/inkscape"
   version="1.1"
   id="SvgMunicipio"
   x="0px"
   y="0px"
   viewBox="0 0 973.8 1000"
   style="enable-background:new 0 0 973.8 1000;"
   xml:space="preserve"
   inkscape:version="0.91 r13725"
   sodipodi:docname="MUN_ID1406.svg"><metadata
     id="metadata10"><rdf:RDF><cc:Work
         rdf:about=""><dc:format>image/svg+xml</dc:format><dc:type
           rdf:resource="http://purl.org/dc/dcmitype/StillImage" /></cc:Work></rdf:RDF></metadata><defs
     id="defs8" /><sodipodi:namedview
     pagecolor="#ffffff"
     bordercolor="#666666"
     borderopacity="1"
     objecttolerance="10"
     gridtolerance="10"
     guidetolerance="10"
     inkscape:pageopacity="0"
     inkscape:pageshadow="2"
     inkscape:window-width="682"
     inkscape:window-height="480"
     id="namedview6"
     showgrid="false"
     inkscape:zoom="0.236"
     inkscape:cx="486.89999"
     inkscape:cy="500"
     inkscape:window-x="0"
     inkscape:window-y="0"
     inkscape:window-maximized="0"
     inkscape:current-layer="svg" /><g
     id="g3"><path
       id="MUN_1406"
       d="m 490.3,27.7 13.7,12.7 16.3,13.9 -8.5,20 3.4,9.6 6.6,16 3.9,9.2 0.4,8.4 3,15.3 2.9,9.5 0.2,6.5 6.9,9.6 12.4,18.1 6.5,9.9 4.4,5.5 3.3,5.2 8.9,14 4.4,6.6 2.3,5.6 -0.6,4.1 -1.6,4.3 -4.3,3.4 0.2,6.5 1.2,0.6 6.6,2.2 1.3,-2.6 1.5,-2.2 4,-0.8 4.8,-1.5 7.5,-2.5 1.2,-0.7 3.7,-1.4 2.8,2.4 2.2,2.8 9.4,0.2 3.5,-1.6 3,-0.6 2.6,-3.9 3.5,-2.3 1,-5.3 2.5,-10.3 0.4,-5.7 1.6,-5.1 4.4,-7.1 6.6,-4.4 5.8,-2.1 7.8,2 8.5,5 7.9,3.6 7.4,2.7 6.6,1.1 6.6,1.5 5.8,-2.5 2.9,-3.9 0.9,-5.3 -2.3,-4.2 -1.5,-3 -2.9,-4.6 -0.4,-7.7 2.5,-6.6 3.9,-6.5 1.6,-8 -1.3,-12.1 -0.8,-8.3 -0.1,-0.2 6.7,-1.8 9.1,-1.5 7.4,-2.1 14,-2.8 18.6,-4.3 5.5,8.4 6.7,10.2 1.6,4.4 4.4,8 4.4,4.4 4,3.9 4.4,4.3 2.3,2.4 0.3,3 3.9,3.7 7.4,4.1 16.5,7.8 5.3,-1 4.7,-3.4 4.3,1.1 2.7,2.4 6,2.3 3.9,5.7 4.7,7.5 5,5 0.9,7.7 3.3,3.3 1.3,4.4 5.7,7.7 1.6,1.3 2.1,1.4 7.3,1.3 3.3,1 2.7,0.7 2.5,1.3 2.8,-0.2 3.9,0.3 5.7,1.3 3.8,8.6 10.7,11.1 18.1,12.6 17.6,13.1 9.9,7.5 6.1,6.3 5.7,6.6 3.3,2.5 1,3.9 -0.7,2.1 -4.1,2.2 -6.6,-0.1 -4.5,2.4 -6.2,9.8 -4.5,7.4 -6.9,6.9 -4.3,4.8 -3.5,2.8 -3.9,7.4 -3,4.5 -6,13.6 -3,14.7 -5.5,11.7 -8.3,13.7 -7.3,12.9 -4.8,7.8 -3.9,3.9 -12.8,2.5 -12.1,5.4 -9.8,6.4 -2.1,6.8 1.1,10.3 5.6,9.4 2.5,7.2 0.9,7.3 -0.2,30.5 -0.4,22.6 -0.2,13 -4.4,9.4 -6.7,14.7 -1.2,3.4 -2.3,6.7 4.8,11.4 4.4,8 5.5,7.9 2.3,4.7 0.3,5.3 -7.2,12.8 -6.9,14 -7.4,14 -4.8,14 -0.4,12.4 2.5,7.7 3.3,5.1 3.9,2.1 8.2,-0.3 5.4,-0.9 3.3,0 1.4,2.1 2.9,6.3 1.6,5 1.1,9.8 0.7,8.2 -1.3,5.9 -3.2,4.5 -3.4,3 -0.3,9.9 -0.4,10 3,8.5 3.4,5.3 4.4,8 1.6,5.5 0.1,5.1 -2.1,2.6 -3.4,4.1 -3.7,6.2 -1.2,4.8 -4.8,10.7 -3,7.4 -1.4,5.3 -1.7,4.4 -3,10.4 -1.3,7.9 0.8,8 1.7,6.4 -0.7,23.4 1.5,17.2 1.4,9.6 0.8,13.5 0.7,13 -1.5,9.1 -2.5,10.8 -1.1,10.6 -2.4,3.9 -1.6,2.5 0,0 -0.2,0.6 -0.1,0 -23.9,-0.6 -60,-0.6 -53.3,-0.7 -122.1,0.3 -63.5,-0.1 -9.6,0.5 -6.7,-1.3 -51.5,-9.7 -17.6,-2.4 -35.1,-6.1 -18.9,-3.3 -12.1,-1.1 -98.9,15.4 -6,1 -1.4,-3.3 -1.6,-2.1 -1.5,-0.4 -4.2,-3 -0.2,-0.6 -0.8,-0.9 -1.2,-0.1 -3.4,-4.5 -0.1,-3 0,-1.2 0,-1 -2.9,-2.1 -3.6,-1.3 -4.7,-1.6 -1.3,-2.8 -2.3,-3.1 -0.7,-2.1 0.5,-1.1 1.2,-2.1 0.8,-2.2 -1.2,-1.3 -1.1,-3.5 -1.9,-3 -0.2,-0.3 -0.5,-0.4 -0.3,-2.2 -2.8,-0.7 -2.6,0.7 -3.2,-0.8 -3,-1.9 -3,-3.9 -2.5,-3.7 -2.1,-2.1 -2.2,-0.7 -1.7,-1 -5,-7.5 -2.7,-5.7 -1.6,-3 -2.5,-1.8 -6,-4.4 -2.6,-3.9 -3,-4.1 -2.7,-2.4 -3.9,-2.1 -7.4,-7 -0.7,-0.7 -6.5,-7.1 -7.2,-13.8 -11.2,-23 -22.6,-46.1 -1.1,-2.2 -5.5,-10.3 -11.1,-20.4 -6.7,-4 -3.1,-2.9 0.3,-2.5 1.1,-3 0.9,-2.9 -0.2,-3.1 -2.1,-6.1 -6.5,-12.1 -5.6,-9.8 -2.9,-3.4 -0.3,-1.6 1.6,-1.4 1.3,-0.7 0.3,-1.8 0.1,-7.1 -0.9,-3.1 -1.6,-2.3 -1.1,-2.1 -0.8,-2.1 -0.6,-5.4 -1.3,-2.1 -2.3,-2.1 -4.6,-6.8 -2.5,-3.4 -11,-8.2 -1.2,-3.2 -3.8,-10.4 -3,-6.6 -6.4,-11.9 4.2,-8 4.8,-6.3 7.2,-4.6 7.5,-0.2 4.9,1 4.6,2.9 1.6,3.9 1.8,4.9 2.8,0.5 1,-2.1 -0.7,-4.2 -4.3,-11.1 -5.3,-5.8 -8.4,-4.4 -5.1,-6 0,-4.3 -1.3,-12.2 -5.3,-8.9 -5.6,-9.9 -10.8,-9.7 -5.6,-3.4 -6.1,-0.7 -6.6,1.4 -7.5,0.4 -11.3,-0.7 18.7,-17.8 12.1,-9.8 6.3,-5.7 1.6,-2.8 0.2,-6.6 0.1,-7.6 -3,-7.5 -4.2,-8.3 -3.9,-6.7 13.9,0.5 2,-3.7 0,-4.8 3.9,-2.1 0.3,-6.4 3.7,-3.4 1.1,-2.4 -1.6,-4.9 3.9,-3.7 5.8,-0.2 1.6,0.2 5.1,1.2 3.8,0.6 0.4,-4.1 0,0.2 14.1,0.7 7.4,1.1 3,1 2.8,1.6 8.6,10.4 6,3 4.9,1.2 2.5,-0.5 4.7,1.1 7.3,6.7 3.9,5.7 2.5,6.4 4.4,5.6 3.6,2.9 6.3,2.1 4.5,0.7 6.1,-0.7 6.5,-0.3 2,-5.2 8.7,-7.7 6.5,-5.3 7.6,-5.7 3.4,-2.6 3.7,-1 3.4,-0.7 4.4,-0.7 11.2,-1 5.4,0.7 5.2,4.2 2.5,3.8 1.6,3.2 2.6,4.5 3,4.4 2.1,9.3 1.5,5.3 3.6,5.7 6,-2.1 3.6,-0.3 4.6,0.6 7.8,-0.6 4.8,-0.6 11.3,-0.6 5.1,-2.4 2.1,-1.6 0.2,-5.9 1,-2.5 2.5,-2.7 2.4,-3 3,-3.6 5,-8.2 4.7,-8 3.1,-1 5.3,1.6 7.9,0.2 5.6,-0.3 4.4,1.5 3,0.2 2.5,0.2 -2.5,-5.1 -1,-2.7 -1.2,-2.9 -3,-0.4 -3.6,-1.1 -0.9,-2.5 -1.9,0.4 -4.2,-3.3 -2.6,-4.1 -0.4,-3.1 1,-2.7 3.9,-6.2 2.6,-2.6 2.4,-2.6 3,-1.6 3.9,-7.8 -0.2,-2.7 0.2,-0.4 -0.4,-1.1 -1.9,-1.6 -3.3,-1.7 0.6,-2.1 1.3,-3.4 3.1,-2.1 0.2,-1.7 -0.8,-0.8 -2.7,-1.6 -1.7,-3.6 -7.5,-8.6 -7.7,-8.3 -3.5,-0.8 0.1,-11.9 -0.5,-1.7 -7.4,-26.6 25.9,-8.9 31.9,-14 15.4,-6.8 7.6,-6.6 4.3,-1.6 8,-1.1 37.6,-2 19,-4 9.9,2.4 3.9,0.8 3.8,-0.1 3,-1.7 3.6,0.6 2.7,0.7 2.9,2.1 3.4,1 3.5,-0.5 4.2,-3 1.4,-1 1.2,-0.7 3.2,0.8 8.1,3.9 1.5,0.4 6.2,3.4 2.1,0.2 0.7,-0.7 1.6,-2.4 1.8,-3.3 0.3,-3 -0.1,-2.4 -2.1,-5 1.3,-3.9 1.6,-7.4 0.5,-2.9 1.1,-1.4 -0.2,-0.7 -0.3,-1 -0.2,-0.4 -3,-5.2 -2,-4 -0.6,-2.1 -0.2,-1.1 1.7,-4.8 -0.7,-2.1 -0.7,-2.1 0.7,-4.1 0.6,-2.6 0.8,-2.3 0.1,-0.5 0,-0.9 0.2,-2.1 -0.2,-0.8 -0.6,-1 -0.1,-0.7 0,-1.2 -6,-3.8 -0.9,-0.8 -1.1,-0.4 -1.8,-0.1 -0.9,-0.2 -0.7,-0.7 -2.3,-2.1 -1.5,-1.8 -1.9,-2.5 -1.7,-3 -0.8,-1.5 -4.8,-4.5 -0.9,-0.8 -2.9,-3.9 -0.4,-1.9 0.1,-1.6 0,-1.7 -0.8,-1.1 -2.7,-2.7 -2.6,-2.8 -3.6,-0.1 -7.2,0.3 -5.4,0.4 -1.4,-0.7 -2.3,-1.4 -2.8,-2.5 -2.5,-2 -1.2,-0.9 -1,-0.6 -1.5,-0.1 -1.4,0.1 -1.1,0.1 -2.1,1 -1.4,0 -1,-0.1 -1,-0.3 -0.7,-0.6 -0.7,-0.9 -0.2,-1 0,-0.6 2.1,-1.6 5.3,-5.1 3.8,-1.8 1,-1.7 0.3,-1.4 -1.5,-1.7 -1.3,-3.4 -0.9,-2.1 -3.5,-3.5 -5.1,-6.2 -1,-2.5 -1.2,-6.3 -1.2,-1.6 -3.2,-3.2 -1.1,-3 0.1,-4.4 0.1,-1.3 -0.1,-1.6 -0.4,-1.1 -1.1,-0.8 -1.8,-1.8 -3.6,-2.1 -1.5,-1.2 0.1,-2.9 1,-2.8 -0.4,-4.6 -2.2,-2.5 -2.1,-1.2 -2.2,-0.4 -4.2,-1.2 -1.2,-1 -5.3,-7.3 -2.1,-3.4 -1.7,-5.7 -0.3,-3.6 1.1,-3.2 1.1,-2.3 0.3,-3.2 1.6,-8.2 0,-1.2 -3,-2.8 -1.6,-1.7 -0.2,-1.6 0.9,-2.5 3.6,-2.4 0.9,-7.5 -0.4,-1.1 -4,-0.2 -3,3.2 -2.7,1.6 -1.5,1.6 -0.2,3.7 -1.1,0.5 -4.3,1.1 -2.1,-0.4 -2.6,-2.5 -3.9,-6.9 -1.1,-3.6 -0.2,-3.8 0.2,-4.3 -1.3,-5.1 -1.8,-2.6 -1.7,-2.7 -5.2,-1 11.2,-4.9 9.4,-5.4 12.9,-7.8 9.1,2.7 17.7,6.7 10.4,3.8 20.1,7.4 7.7,7.1 z"
       inkscape:connector-curvature="0"
       class="DEP_14 ZON_04" /></g></svg>