<?xml version="1.0" encoding="UTF-8" standalone="no"?>
<!-- Generator: Adobe Illustrator 19.2.0, SVG Export Plug-In . SVG Version: 6.00 Build 0)  -->

<svg
   xmlns:dc="http://purl.org/dc/elements/1.1/"
   xmlns:cc="http://creativecommons.org/ns#"
   xmlns:rdf="http://www.w3.org/1999/02/22-rdf-syntax-ns#"
   xmlns:svg="http://www.w3.org/2000/svg"
   xmlns="http://www.w3.org/2000/svg"
   xmlns:sodipodi="http://sodipodi.sourceforge.net/DTD/sodipodi-0.dtd"
   xmlns:inkscape="http://www.inkscape.org/namespaces/inkscape"
   version="1.1"
   id="SvgMunicipio"
   x="0px"
   y="0px"
   viewBox="0 0 623.1 1000"
   style="enable-background:new 0 0 623.1 1000;"
   xml:space="preserve"
   inkscape:version="0.91 r13725"
   sodipodi:docname="MUN_ID1405.svg"><metadata
     id="metadata10"><rdf:RDF><cc:Work
         rdf:about=""><dc:format>image/svg+xml</dc:format><dc:type
           rdf:resource="http://purl.org/dc/dcmitype/StillImage" /></cc:Work></rdf:RDF></metadata><defs
     id="defs8" /><sodipodi:namedview
     pagecolor="#ffffff"
     bordercolor="#666666"
     borderopacity="1"
     objecttolerance="10"
     gridtolerance="10"
     guidetolerance="10"
     inkscape:pageopacity="0"
     inkscape:pageshadow="2"
     inkscape:window-width="665"
     inkscape:window-height="480"
     id="namedview6"
     showgrid="false"
     inkscape:zoom="0.236"
     inkscape:cx="311.54999"
     inkscape:cy="536.01695"
     inkscape:window-x="0"
     inkscape:window-y="0"
     inkscape:window-maximized="0"
     inkscape:current-layer="svg" /><g
     id="g3"><path
       id="MUN_1405"
       d="m 210.3,2.5 85.8,39.2 5.9,2.6 50.6,23.1 111.2,50.7 99.4,45.4 11.1,5 1.4,17.4 2.4,24.8 0.4,4.2 2.7,32.8 1.3,13.4 1.7,18.9 4.6,44.9 2.8,29 1.2,12.2 1.9,14 3.9,48.6 4.9,56.5 11.5,70.9 8.2,50.5 0,0.2 -58.4,68.4 -60.9,71.5 -118.4,138.7 -71.7,88.1 -21.6,26.5 -4.6,-7.1 -71.8,-111 -27.9,-43 -137.1,35.5 2.9,-27.1 1,-25.9 4.3,-31.5 -0.8,-16.2 -1.4,-0.9 0.7,-3.9 -0.8,-5.9 0.4,-11 0.6,-16 1.1,-17 1.5,-6.1 0.6,-10.1 5.4,-14.1 1.8,-7.5 -0.1,-4 0.1,-9.8 -0.4,-4.1 1.1,-14.5 -0.1,-6.8 0,-6.8 -0.1,-12.1 -0.1,-1.3 -0.1,-2.3 0.2,-3.4 0,-1.1 0.3,-2.1 0.2,-2.1 1.6,-4.8 0.1,-1 0.6,-3.5 0.4,-3.1 -0.1,-3 -0.1,-2.6 0,-1.5 -0.3,-2.1 -0.3,-1.8 -0.7,-3.4 -0.4,-2.3 -0.6,-3.1 -0.1,-0.8 0.2,-2.5 -0.1,-1.3 0.1,-1.6 0.4,-2.4 0.4,-2.5 0.6,-4.8 0.6,-3.6 0.9,-4.7 -39.6,-95.1 6.3,-4.4 1.8,-1.3 3.5,-3.9 3.8,-3.5 2.2,-4.2 0.9,-4.1 1.4,-5.3 1.5,-3.3 -0.2,-4.3 2.1,-5.4 0.8,-2.1 1.3,-2.1 2.1,-2.4 2.1,-2.1 2.9,-2.1 4.5,-2.3 1.3,-3.4 1.8,-5 2.1,-3 2.1,-3.7 3,-3.3 0.9,-4.7 1.9,-4.2 1.1,-7.2 -2.3,-3.4 -0.9,-3.3 2.6,-4.7 5.9,0.1 4.4,3.4 3.6,3.5 2.2,3 4.4,1.8 4.1,0.1 3.3,-1.8 0.1,-0.4 0.7,-2.1 -0.8,-1.3 -1.6,-3.9 -0.9,-5.1 -2,-5.8 -1.4,-5.3 3.2,-5.8 3.6,-4.4 4.6,-6.4 0.5,-1.7 2.2,-5.7 1,-3.6 1.5,-4.5 0.3,-2.7 -0.8,-2.6 -0.8,-2.1 -1.6,-1.3 -1.6,0.2 -3.2,0.6 -2.7,0.4 -6.1,-2 -2.1,-0.5 -2.4,-1.8 -1.3,-2.6 -1.4,-4.4 -1.9,-4.6 -1.5,-3.7 -1.1,-2.1 -3.4,-2.9 -0.9,-2.2 -0.9,-2.6 -0.3,-4.5 -1.3,-1.8 -1,-2.8 -1.4,-5.7 -0.3,-2.9 -0.5,-2.4 0.1,-2.4 -0.8,-1.4 -1.4,-1.9 -1.6,-0.9 -2.4,-1.3 -2.8,-1.8 -2.1,-1.8 -1.7,-1.5 -1.4,-1.4 -6.1,-4.8 -4.9,-16.1 -4.3,-3 -2,-2.9 -3.7,-1.9 -3.4,-4.6 -2.9,-0.6 -2.6,-2.8 -4.3,-2.1 -4.2,-1.6 -5.1,-3.8 -1.9,-0.6 -1.9,0 -2.6,-3 -4.8,-2 -2.1,-2.6 -2.7,-1.1 -2.6,-0.9 -2.8,-0.1 -4.7,-5 1.9,-5.9 0.3,-2.2 0.4,-2.8 0.6,-4.3 0.3,-3 4.4,-2.4 2.9,0.3 6.1,0.5 6.3,0.5 4.4,2 2.9,-0.6 2.8,-0.7 3.3,-1 1.5,-0.3 3.4,-1.3 5.1,-1.6 5.8,-1.3 6.3,-1.3 10,-3.3 3,-1.3 4.1,-1.9 5.4,-2.5 1.9,-2.2 0.6,-1.1 3.9,-7.4 1.4,-5.9 1.1,-7.4 1.3,-7.2 0.7,-3.1 0.7,-4.1 -0.1,-1.4 -0.3,-2.6 0.9,-1.3 -0.1,-2 -0.1,-0.7 -0.9,-0.9 -1.6,-0.8 -3.3,-0.6 -2.1,-0.6 -0.8,-3.1 -0.1,-2.1 -0.2,-1.8 -1.6,-0.9 -1.3,-1.8 -1.3,-2.4 -0.5,-1.6 1.8,-2.8 1.9,-1.2 1.4,-2.6 0.4,-2.3 -0.6,-4.4 -0.1,-1.1 -2.5,-1.2 -1.4,-0.6 -0.5,-1.1 -0.8,-1.9 -0.1,-1.1 -0.1,-1.4 -1.4,-2.3 0.4,-1.5 1.1,-0.7 4.2,-0.5 2.1,-2.9 -0.3,-1.1 -1.3,-1.7 -1.6,-1.2 2,-2.9 1.6,-0.3 3.2,-0.9 1.1,-1.8 0.5,-1.9 -0.1,-2.6 0.7,-1.4 1.2,-1.7 1.6,-2.9 1.6,-2.6 0.6,-0.2 2.3,0.6 2.3,2.4 1.7,1.1 1.7,1.3 1.2,0.2 1.1,-0.8 0.7,0.2 3.3,-0.5 3.3,-1.1 1.1,-1.8 0.6,-1.9 1,-1.7 0.7,-1.3 -0.6,-1.1 -2.6,-2.3 -0.3,-0.9 0.6,-0.9 1.8,-1.1 0.9,-2 1,-1.9 1.1,-1.4 1.4,0.2 2.6,2 1.4,1.4 1.6,1.5 1.1,-0.3 0.8,-0.8 0.7,-1.4 1.4,-1.7 1.6,-0.9 1.3,-0.6 1.8,-0.1 0.9,0.4 0.4,0.1 1.2,0 1.6,-0.8 1,-1.4 1.3,-1.4 1.8,0.8 1.2,5.2 1.4,2.1 6.3,0.3 3.4,-1.4 2.2,-2.8 -0.5,-5.4 -1.3,-3 3.1,-1.4 2.8,-1.5 1.7,-0.4 2,0.3 1.8,0.4 8.5,-2.6 3.8,0.1 3.3,0.2 2,-0.4 2.3,-0.8 2.1,0.1 0.7,1.5 0.4,2.1 0.9,1.7 1.3,0.3 2.1,-0.4 1.3,-1.1 0.9,-2.1 1.8,-3.5 0.9,-1.3 1.4,-0.9 4.2,-0.8 1.6,-0.1 1.9,0.8 2,1.6 z"
       inkscape:connector-curvature="0"
       class="DEP_14 ZON_04" /></g></svg>