<?xml version="1.0" encoding="UTF-8" standalone="no"?>
<!-- Generator: Adobe Illustrator 19.2.0, SVG Export Plug-In . SVG Version: 6.00 Build 0)  -->

<svg
   xmlns:dc="http://purl.org/dc/elements/1.1/"
   xmlns:cc="http://creativecommons.org/ns#"
   xmlns:rdf="http://www.w3.org/1999/02/22-rdf-syntax-ns#"
   xmlns:svg="http://www.w3.org/2000/svg"
   xmlns="http://www.w3.org/2000/svg"
   xmlns:sodipodi="http://sodipodi.sourceforge.net/DTD/sodipodi-0.dtd"
   xmlns:inkscape="http://www.inkscape.org/namespaces/inkscape"
   version="1.1"
   id="SvgMunicipio"
   x="0px"
   y="0px"
   viewBox="0 0 448.1 1000"
   style="enable-background:new 0 0 448.1 1000;"
   xml:space="preserve"
   inkscape:version="0.91 r13725"
   sodipodi:docname="MUN_ID1411.svg"><metadata
     id="metadata10"><rdf:RDF><cc:Work
         rdf:about=""><dc:format>image/svg+xml</dc:format><dc:type
           rdf:resource="http://purl.org/dc/dcmitype/StillImage" /></cc:Work></rdf:RDF></metadata><defs
     id="defs8" /><sodipodi:namedview
     pagecolor="#ffffff"
     bordercolor="#666666"
     borderopacity="1"
     objecttolerance="10"
     gridtolerance="10"
     guidetolerance="10"
     inkscape:pageopacity="0"
     inkscape:pageshadow="2"
     inkscape:window-width="682"
     inkscape:window-height="480"
     id="namedview6"
     showgrid="false"
     inkscape:zoom="0.236"
     inkscape:cx="224.05"
     inkscape:cy="500"
     inkscape:window-x="0"
     inkscape:window-y="0"
     inkscape:window-maximized="0"
     inkscape:current-layer="svg" /><g
     id="g3"><path
       id="MUN_1411"
       d="m 80.6,27 2,0.8 3.2,-0.8 3.6,-1.1 2.7,0 4.3,0.5 4.3,0.4 4.4,0.5 3.6,1.2 1.6,-0.3 1.4,-2.6 2.7,-3.2 1.8,-1.8 2.9,-0.9 3.5,-0.4 2,-1.1 1,-2.2 0.1,-2.2 0.1,-2.3 1,-1.5 1.9,-0.2 1,0.8 0.3,3.1 0.4,2.6 0.3,2.1 0.3,1.2 1.6,1.2 3.3,1 2.9,0.7 2.2,1.3 1.1,2.5 0.8,2.5 1.5,0.9 2.7,0.3 1.8,-1.2 1.9,-1.2 1.6,-0.7 1.8,0.3 1.5,1.6 0.3,1.9 -0.9,2.7 -0.8,1.7 0.3,1.8 1.5,0.5 1.2,0.1 1.5,-0.7 1.6,-1.4 1,-0.6 2.5,0.7 3,1 2.2,0.7 1.7,-0.1 1.3,-1 0.8,-2.4 2.4,-0.2 3.6,0.4 1.4,0.8 1.6,0.9 1.1,0.1 2.1,-1 2.4,-1.4 2,-1 1.8,-0.4 2.7,-0.5 2.5,-0.4 2,-1.1 2.6,-1.1 2,-1 2,-0.9 1.9,-1.3 2.4,-1.8 2.2,-0.1 2.8,0 1.7,-0.5 1.2,-0.8 1.7,-2.7 0.8,-1.3 2,-0.8 7.8,-0.4 1.3,1.3 4.2,5.9 0.1,1.2 2.2,-0.2 5.1,0 2.8,-0.1 1.9,2.1 -0.3,1.7 -5.8,7.9 -0.1,2.8 3.7,0.6 6.7,1.5 5.3,0.7 2.5,0.9 1.4,1.5 0.9,2 2.4,0.5 4.4,1.4 3,2.1 4.6,2.2 6,1.1 3.2,0.5 3.2,-0.7 3.1,-0.9 2.5,2.6 5,3.9 3.9,1.1 6.7,3.8 3.7,0.8 3,0.2 1.8,-1.2 2.1,0.8 1.6,1.7 7.6,8.4 0.9,-1.4 1.6,-1.6 2.8,-0.4 2.4,1.3 2.7,-1.4 2.7,-3.6 4.3,-2.6 3.9,-1.5 2.9,2.3 3.3,1.6 3.9,0.8 4.2,0.8 3.1,-0.1 3.1,-1 5.3,1 7,1.5 4.1,1.2 3.3,-0.5 2.5,-0.7 4.2,0 5,-0.4 5,-2.1 0.7,3.1 1.4,11.3 3.3,3.6 2.6,6.2 1,2.9 0.6,3 0.2,1.6 -0.2,3.6 -2.3,2.6 -0.8,2.9 0.3,3.6 1.3,4.8 -2.4,1.1 -0.7,0.3 -3.3,1 22.7,35.3 -1.5,0.6 -109.3,40 -10.4,3.8 -1.2,11.1 -1.9,12.2 -1.3,11.6 4.1,2.9 3.7,1.7 3.2,4.7 2.5,3.8 1.8,5.7 -0.4,3 1.6,7.3 4.3,7.1 -2,3.2 -13.4,15.1 -0.1,2.9 -1.3,15.2 -2.4,17.5 -0.3,2.2 -0.2,1.8 -0.9,8.7 -8.8,16.6 -4.5,13 -0.5,1.4 -12.4,35.5 25.3,24.4 -21.4,21.9 0.9,21.9 0.9,18.1 0.4,8.2 28.4,30.2 17.8,17.8 7.6,7.6 3.8,3.2 0.5,0.2 2.3,1.2 2.6,-0.1 4.3,1.9 3.2,0.5 3.2,1.2 3.2,2.2 3.1,3.6 3.4,2.5 2.6,2.6 -0.2,3.2 0.8,4.8 0.7,12.9 0.7,13.1 2.7,45 0.8,10 0.4,3.2 0.2,2.2 0.8,2 1.3,1 0.4,0.3 0.7,0.5 3.7,0.4 3,0.2 4.7,0.7 5,2.9 3,3.8 0.2,2.6 0.7,2.8 1,1.6 2.5,2 4.3,2 2.4,0.8 1.6,1.6 1.5,2.4 1.4,3.3 2.7,3.9 3.8,3.2 1.4,1 3,1 2.1,1.5 1,0.8 2.2,1.6 5.4,3.5 4.4,1.5 1,0 1.6,1.9 2.9,1.6 1.6,0.9 1.2,0 1.3,0.7 1.2,2 3.8,1.8 7.1,3.8 -0.2,1.1 -3.5,20.1 -1.4,9.4 -1.1,0.5 -26.5,11.1 -19.8,8.2 -1.9,0.6 -15.2,5.1 -5.4,9.8 -7.1,13.4 -5,12.5 3.5,0.7 1.1,1.8 1.2,1.8 0.9,3.4 -0.1,2.8 0.2,2.5 0.7,2.4 2.6,4.6 1.8,1.7 1.4,0.3 2.9,-0.8 0.8,-0.3 0.2,-2.5 1,-1.1 1.8,-1 2,-2.1 2.7,0.1 0.3,0.7 -0.6,5 -2.4,1.6 -0.6,1.6 0.2,1 1,1.2 2,1.9 0,0.8 -1.1,5.5 -0.2,2.1 -0.8,1.5 -0.7,2.1 0.2,2.4 1.1,3.8 1.4,2.3 3.5,4.9 0.8,0.7 2.8,0.8 1.5,0.3 1.4,0.8 1.5,1.6 0.3,3.1 -0.7,1.9 -0.1,1.9 1,0.8 2.4,1.4 1.2,1.2 0.7,0.5 0.3,0.8 0.1,1.1 -0.1,0.9 -0.1,3 0.7,2 2.1,2.1 0.8,1.1 0.8,4.2 0.7,1.6 3.4,4.2 2.4,2.4 0.6,1.4 0.9,2.2 1,1.2 -0.2,0.9 -0.7,1.2 -2.5,1.2 -3.6,3.4 -1.4,1.1 0,0.4 0.2,0.7 0.5,0.6 0.4,0.4 0.7,0.2 0.7,0.1 0.9,0 1.4,-0.7 0.8,-0.1 0.9,-0.1 1,0.1 0.7,0.4 0.8,0.6 1.7,1.3 1.9,1.6 1.5,0.9 0.9,0.5 3.6,-0.3 4.8,-0.2 2.4,0.1 1.8,1.9 1.8,1.8 0.5,0.8 0,1.2 -0.1,1 0.3,1.3 1.9,2.6 0.6,0.5 3.2,3 0.5,1 1.1,2 1.3,1.7 1,1.2 1.5,1.4 0.5,0.5 0.6,0.1 1.2,0.1 0.7,0.3 0.6,0.5 4,2.5 0,0.8 0.1,0.5 0.4,0.7 0.2,0.5 -0.1,1.4 0,0.6 -0.1,0.3 -0.5,1.5 -0.4,1.8 -0.5,2.7 0.4,1.4 0.4,1.4 -1.1,3.2 0.1,0.8 0.4,1.4 1.3,2.7 2,3.5 0.2,0.3 0.2,0.7 0.1,0.4 -0.7,0.9 -0.3,1.9 -1.1,4.9 -0.9,2.6 1.4,3.3 0.1,1.6 -0.2,2 -1.2,2.2 -1,1.6 -0.4,0.4 -1.4,-0.1 -4.1,-2.2 -1,-0.3 -5.4,-2.6 -2.1,-0.5 -0.8,0.5 -0.9,0.7 -2.8,2 -2.4,0.3 -2.2,-0.7 -1.9,-1.4 -1.8,-0.5 -2.4,-0.4 -2,1.2 -2.5,0.1 -2.6,-0.5 -6.6,-1.6 -0.4,-0.3 -0.3,-0.3 -0.3,-0.5 -0.1,-0.2 -1.9,-2.5 -1.2,-2.5 -0.6,-1.2 -2.2,-0.8 -2.6,-1.8 -2.5,-0.1 -2.4,-0.4 -2.1,-1.4 -0.6,-2.1 -0.1,-2.5 0.4,-3 -0.9,-1.6 0.3,-1.6 -0.3,-2 -1.1,-1.4 -0.2,-1.9 -1.9,-2.3 -0.3,-1 -0.2,-1.5 -1.5,-0.2 -0.2,-1.7 -1.4,-2.2 -1.2,-3 -1.2,-1.5 0.1,-1.6 -4.3,-5.2 -2.4,5.2 -5.3,4.3 -5.1,3.7 -5.5,3.3 -6.2,3.7 -0.5,-4.7 -0.6,-10.5 0.1,-6.9 -2.7,-4.2 -12.3,-16.2 -4.2,-5.5 -9.1,-12.4 -0.3,-0.4 -8,-11.1 -6.7,-7.6 -7.8,-10 -3.4,-5.9 -8.8,-14.1 -5.7,-8.5 -0.7,-1.7 -1.8,-8.9 -2,-10.4 -1.6,-9.6 -2.1,-11.9 -2.5,-13.4 -4.3,-23.1 -3.6,-17.5 -1.7,-8.1 -1.1,-8.4 -7.4,-14.1 -6.9,-12.9 -11.6,-20.3 -4.7,-0.4 -22.4,-1.4 -7.2,-0.5 -1.3,-0.1 -4.8,-4.3 -6.6,-5.5 -1.8,-0.6 -3.2,-1 -4.4,-1.4 -5.8,-2.7 -4.4,-1.4 -4.8,-1.2 -2.6,-0.8 -3.2,-0.7 -7.8,-3.7 -5.3,0.4 -6.6,1.3 -13.5,1 -5.4,-0.3 -18.5,-20.8 -12.8,-10.9 8.3,-33 7,-40.1 0.3,-1.9 0.8,-4.3 0.5,-3.1 2,-10.2 2.5,-12.8 -10.2,-6.8 -12.7,-9.1 -1.3,-1 -1.3,-1 -0.5,-0.3 -0.4,-0.1 -0.8,-0.2 -1.3,-0.1 -0.6,-0.1 -0.6,-0.2 -0.9,-0.4 -0.4,-0.2 -0.4,-0.3 -0.7,-0.5 -0.8,-0.9 -0.8,-1 -0.3,-0.6 -0.5,-1 -0.4,-1 -0.1,-0.5 0,-0.7 0,-0.4 -0.1,-0.3 -0.3,-0.8 -0.4,-0.7 -0.8,-0.9 -0.8,-0.9 -1.6,-1.5 -0.9,-0.6 -0.9,-0.6 -2,-1 -0.1,-0.1 -2.2,-1 -2,-1 -2,-1.1 -1,-0.6 -0.7,-0.5 -0.9,-0.9 -0.8,-1 -0.1,-0.2 -0.2,-0.2 -1.2,-1.9 -1.1,-1.9 -1.5,-2.5 -2.5,-3.7 -2.4,-3.7 -0.2,-0.4 -0.2,-0.8 -0.2,-1.3 -0.2,-0.5 -0.2,-0.5 -1.4,-1.8 -1,-1.3 -1.8,-1.8 -1.8,-1.7 -3.7,-3 -1.9,-1.5 -1.8,-1.5 -2,-1.8 -1.9,-1.9 -0.9,-0.8 -0.9,-0.8 -2.1,-2.1 -2.1,-2.1 -0.2,-0.2 -1,-1 -1.6,-2 -1.5,-2 -0.4,-0.6 -0.5,-0.9 -0.4,-0.9 -0.2,-0.7 0.3,-0.8 0.1,-0.9 0.1,-0.7 0.2,-0.5 0.5,-0.9 0.5,-0.9 1.5,-2.4 1.5,-2.4 2.1,-2.9 2.2,-3 1.5,-2.2 1.4,-2.3 0.9,-1.5 1.2,-2.4 0.5,-1.2 0.5,-1.2 0.9,-2.4 0.6,-1.9 0.8,-2.7 0.7,-2.7 0.5,-2.2 0.5,-2.1 0.1,-0.3 0.1,-0.4 0.2,0 0.4,0.1 0.4,0 0.5,-0.1 0.4,-0.1 0.7,-0.3 0.5,-0.4 0.1,-0.2 0.1,-0.1 0.1,-0.1 0.3,-0.1 0.4,-0.1 0.4,-0.1 0.4,-0.1 0.3,-0.1 0.6,-0.1 1,-0.1 0.4,-0.1 0.5,-0.2 0.7,-0.3 0.9,-0.6 0.4,-0.3 0.4,-0.2 5.3,-1.5 5.4,-1.5 0.9,-2.9 0.1,-0.1 1.6,-3.1 0,-0.1 0.6,-0.9 0.8,-1.4 0.1,-0.2 0.8,-2.7 0,-0.2 -0.2,-3 0.1,-1.6 0.1,-1.6 -0.8,-0.4 -0.4,-0.2 -0.3,-0.3 -0.4,-0.5 -0.5,-0.9 -1.4,-3.2 -3.2,-6.7 -4.2,-10.6 -3,-7.6 -1,-1.1 -0.1,-5.5 0,-8.2 0,0 -0.1,-14.2 -0.1,-1.1 -0.2,-1.2 -0.3,-2.4 -0.1,-0.2 -0.2,-0.3 -0.2,-0.2 -1,-0.3 -1,-0.3 -2,-0.5 -2.1,-0.5 -0.8,-0.3 -1.1,-0.6 -0.5,-0.3 -0.5,-0.2 -0.2,-0.1 -0.4,0.2 -0.3,0.2 -0.5,0.5 -0.7,0.9 -0.4,0.4 -0.4,0.2 -0.2,1 -0.6,0.1 -0.3,-0.1 -0.2,-0.1 -0.7,-0.7 -0.6,-0.7 -0.9,-0.8 -0.9,-0.8 -0.3,-0.3 -0.7,-0.4 -0.6,-0.3 -0.2,0.1 -0.2,0.2 -0.2,0.4 -0.1,0.2 -0.1,0.1 -0.7,0.2 -1.1,0.1 -0.5,0 -0.5,-0.1 -0.5,-0.2 -0.8,-0.5 -0.4,-0.2 -0.5,-0.2 -0.7,-0.1 -0.3,0 -0.4,0 -0.2,0.2 -0.4,0.3 -0.3,0.4 -0.2,0.4 -0.2,0.6 -0.3,0.7 -1.2,2.2 -0.3,0.5 -0.3,0.3 -0.5,0.4 -0.6,0.3 -3.5,1 -3.5,1 -0.2,-0.4 -0.2,-0.3 -0.1,-0.3 0,-0.4 0,-0.4 0,-0.8 0,-0.8 0.2,-2.2 0.2,-2.2 0.1,-0.5 -0.1,-0.3 -0.2,-0.3 -0.2,-0.3 -0.3,-0.2 -0.4,-0.2 -0.7,-0.5 -0.3,-0.3 -0.2,-0.4 -0.2,-0.8 -0.1,-0.8 0,-1.3 0.1,-1.1 0.4,-3 0.3,-3.3 0.2,-1.6 0.3,-1.6 0.3,-0.9 0.5,-1.3 0.6,-1.3 0.4,-0.8 0.5,-0.8 0.6,-1.1 0.7,-1.1 0.4,-0.7 0.8,-0.8 0.9,-0.8 0.3,-0.2 0.5,-0.1 0.9,0 0.4,-0.1 0.4,-0.2 0.2,-0.2 0.1,-0.3 0.1,-0.5 0.1,-0.8 0.1,-0.4 0.2,-0.3 0.5,-0.3 0.8,-0.3 0.4,-0.2 0.4,-0.3 0.4,-0.5 0.5,-0.8 0.4,-0.9 0.1,-0.3 0,-0.6 -0.1,-0.9 0,-0.4 0.1,-0.4 0.4,-0.8 0.8,-1 0.2,-0.4 0.2,-0.1 0.2,-0.5 0.2,-0.5 0.2,-0.8 0.2,-0.4 0.2,-0.4 0.8,-0.8 1.3,-1 0.7,-0.5 0.6,-0.5 0.6,-0.7 0.7,-0.7 0.6,-0.4 0.9,-0.4 0.5,-0.3 0.1,-0.1 0.7,-0.7 0.3,-0.4 0.3,-0.4 0.1,-0.4 0.2,-0.6 0.1,-0.6 -0.1,-0.5 -0.2,-0.9 -0.5,-1.3 -0.2,-0.7 -0.1,-0.7 -0.2,-1 -0.1,-0.8 0.1,-1.2 0.1,-0.5 0.1,-0.6 0.3,-0.6 0.3,-0.4 0.5,-0.7 0.5,-0.5 0.5,-0.3 0.6,-0.4 0.7,-0.4 0.5,-0.5 0.4,-0.5 0.1,-0.4 0.1,-0.6 0,-0.4 -0.1,-0.7 -0.2,-0.6 -0.4,-0.7 -0.5,-0.5 -0.2,-0.2 -0.5,-0.1 -0.2,-0.1 -0.1,-0.2 -0.2,-0.3 -0.1,-0.5 -0.1,-0.4 -0.1,-1 0,-0.4 0.1,-0.5 0.5,-0.9 0.7,-0.9 1.3,-2.2 0.3,-0.5 0.6,-0.8 0.4,-0.3 0.4,-0.2 0.8,-0.4 1.2,-0.5 1.2,-0.4 1.5,-0.7 1.5,-0.7 0.4,-0.4 0.3,-0.3 0.4,-0.8 0.5,-1.2 0.3,-0.6 0.4,-0.5 0.5,-0.5 0.5,-0.5 0.4,-0.3 0.3,-0.2 0.3,-0.1 0.3,-0.1 0.4,0.1 0.4,0.3 0.3,0.3 0.3,0.6 0.3,0.6 0.1,0.4 0.1,0.4 0.3,0.7 0.2,0.3 0.2,0.2 0.3,0.1 0.2,-0.1 0.3,-0.2 0.3,-0.2 0.4,-0.4 0.4,-0.4 0.2,-0.4 0.2,-0.7 0.3,-0.7 0.4,-0.7 0.5,-0.7 0.5,-0.5 0.3,-0.3 0.3,-0.1 2.5,-0.5 2.4,-0.4 -0.2,-1.3 -0.4,-1.3 -0.7,-2.3 -0.8,-2 -0.7,-1.7 -1.5,-2.9 -2.3,-4.3 -1.1,-2.2 -1.2,-2.1 -2.8,-5.6 -2.7,-5.6 -0.6,-1.3 -0.8,-2 -0.9,-2.1 -0.8,-1.5 -0.7,-1.2 -1.2,-1.5 -1.3,-1.5 -1.4,-1.4 -2.5,-2.3 -3.8,-3.3 -2,-1.6 -1.9,-1.8 -0.6,-0.5 -0.5,-0.7 -0.2,-0.4 -0.1,-0.5 -0.3,-1.4 -0.3,-2.1 -0.1,-1 -0.2,-1.1 -0.2,-0.8 -0.3,-0.9 -0.2,-0.4 -0.4,-0.6 -0.2,-0.4 -0.1,-0.4 -0.1,-0.7 0,-0.8 -0.1,-1.4 0.1,-0.6 0.2,-0.7 0.4,-1 0.7,-1.4 0.7,-1.4 0.4,-0.9 0.3,-0.8 0.2,-0.2 0.4,-0.3 0.7,-0.4 0.2,-0.2 0.2,-0.3 0.3,-0.6 0.2,-0.6 0.3,-0.6 1,-2 0.2,-0.5 0.1,-0.4 0.1,-0.5 -0.1,-0.5 -0.1,-0.3 -0.4,-0.3 -0.3,-0.3 -0.5,-0.5 -0.4,-0.5 -0.2,-0.3 -0.1,-0.3 0.1,-0.5 0.2,-0.4 0.3,-0.4 0.3,-0.5 1,-1.8 0.3,-0.9 0.2,-0.4 0.1,-0.5 -0.1,-1.2 -0.1,-1.2 0,-2.2 -0.1,-2.4 0.1,-0.4 0.2,-0.4 0.2,-0.5 0.5,-0.5 0.2,-0.3 0.1,-0.4 0.1,-0.5 0.1,-0.8 0,-0.7 -0.1,-0.8 0,-0.3 -0.1,-0.3 -0.1,-0.2 -0.3,-0.3 -0.3,-0.2 -0.3,-0.5 -0.5,-0.8 -0.5,-0.8 -0.1,-0.1 -0.4,-0.2 -0.5,-0.2 -0.2,-0.1 -0.1,-0.2 -0.1,-0.3 0.1,-0.5 0.2,-0.5 0.1,-0.6 0.1,-0.3 0.1,-0.3 0.3,-0.2 0.5,-0.3 0.4,-0.2 0.5,-0.2 0.8,-0.2 0.4,-0.2 0.3,-0.1 0.1,-0.2 0.1,-0.1 -0.1,-0.2 -0.2,-0.2 -0.4,-0.4 -0.7,-0.7 -0.3,-0.4 -0.1,-0.2 -0.1,-0.2 0,-1.3 0.1,-0.7 0.1,-0.7 0.6,-2.4 0.6,-2.4 0.5,-2.2 0.6,-2.2 0.6,-1.8 1.1,-2.6 1.2,-2.6 0.4,-0.7 0.8,-1.2 1.2,-1.6 0.5,-0.9 0.4,-0.9 0.7,-2.4 0.8,-2.3 2.4,-7.3 2.4,-7.4 0.2,-0.7 0,-0.5 -0.1,-1.1 -0.4,-1.6 -0.2,-0.8 -0.1,-0.8 0.5,-9.1 0.4,-9.1 0.4,-7.4 0.3,-7.4 0.1,-3.3 0,-1.6 -0.1,-1.6 -0.1,-1.3 -0.4,-2 L 65.5,21 64.8,20 64.4,16.5 64.2,14.8 64.1,13.2 64,9.1 63.9,5 65,6 l 1.6,1.6 0.5,3.3 1.2,3 2.3,4.7 1.2,2.1 1.5,2.4 1.6,1.3 3.1,1.5 2.6,1.1 z"
       inkscape:connector-curvature="0"
       class="DEP_14 ZON_04" /></g></svg>