<?xml version="1.0" encoding="UTF-8" standalone="no"?>
<!-- Generator: Adobe Illustrator 19.2.0, SVG Export Plug-In . SVG Version: 6.00 Build 0)  -->

<svg
   xmlns:dc="http://purl.org/dc/elements/1.1/"
   xmlns:cc="http://creativecommons.org/ns#"
   xmlns:rdf="http://www.w3.org/1999/02/22-rdf-syntax-ns#"
   xmlns:svg="http://www.w3.org/2000/svg"
   xmlns="http://www.w3.org/2000/svg"
   xmlns:sodipodi="http://sodipodi.sourceforge.net/DTD/sodipodi-0.dtd"
   xmlns:inkscape="http://www.inkscape.org/namespaces/inkscape"
   version="1.1"
   id="SvgMunicipio"
   x="0px"
   y="0px"
   viewBox="0 0 799 1000"
   style="enable-background:new 0 0 799 1000;"
   xml:space="preserve"
   inkscape:version="0.91 r13725"
   sodipodi:docname="MUN_ID1415.svg"><metadata
     id="metadata10"><rdf:RDF><cc:Work
         rdf:about=""><dc:format>image/svg+xml</dc:format><dc:type
           rdf:resource="http://purl.org/dc/dcmitype/StillImage" /></cc:Work></rdf:RDF></metadata><defs
     id="defs8" /><sodipodi:namedview
     pagecolor="#ffffff"
     bordercolor="#666666"
     borderopacity="1"
     objecttolerance="10"
     gridtolerance="10"
     guidetolerance="10"
     inkscape:pageopacity="0"
     inkscape:pageshadow="2"
     inkscape:window-width="665"
     inkscape:window-height="480"
     id="namedview6"
     showgrid="false"
     inkscape:zoom="0.236"
     inkscape:cx="399.5"
     inkscape:cy="500"
     inkscape:window-x="0"
     inkscape:window-y="0"
     inkscape:window-maximized="0"
     inkscape:current-layer="svg" /><g
     id="g3"><path
       id="MUN_1415"
       d="m 550.1,915 -4.1,0.1 -6.9,-1.4 -5.1,0.9 -7.2,10.5 -7,7.6 -4.6,6.1 -3.8,4.5 -10.1,9.5 -3.1,3.1 -4.5,3 -5.7,-0.7 -8,-0.1 -3,1.2 -5.1,6.1 -3.2,3.5 -3.8,2.7 -0.3,0.3 -11,1.4 -6.4,1.9 -11,-0.7 -5.8,0.9 -4.9,0.1 0.8,2.8 -9.3,7.3 -11.1,-0.3 -2.2,0.7 -7.2,3.1 -10.5,1.2 -6.4,5.8 -0.8,4.6 -7.4,1.4 -10.1,3.5 -11.5,0.9 -12.3,-6.6 -5,-9.2 -22,-12.8 -8.1,-3.2 -7.2,-1.8 -4.6,-2.6 -4.1,-5 -1.1,-1.2 -4.3,-4.2 -11.5,-4.2 -1.6,-1.2 -2.2,-3.2 -1.5,-6.2 -2.8,-0.8 -3.5,0.1 -2.7,-2.3 -1.9,0.5 -0.3,0.1 -4.9,3.9 -1.5,8.9 -1.6,3.1 -2.3,2.6 -12.3,7 -2.3,3.1 -15.7,13.5 -2,5.8 -4.5,8.8 0,3 -3.7,7.4 -1.4,4.3 -0.3,4.7 -16.2,-3.5 -4.1,-0.5 -11.1,-3.1 -20.2,-2.2 -17.6,-1.2 -0.7,-27.7 3.2,-6.6 -22.9,-83.7 -9.6,-44.6 -10,-39.6 -7.7,-29.5 -2.6,-19.2 4.2,-8.4 2.6,-12.8 3.9,-8.7 2.4,-24.9 2.4,-40.4 2.7,-33.7 5.5,-43.1 2.2,-19.6 0,-1.5 0,-2.3 -3.4,-2 -1.5,-1.1 -2.4,-5.3 -1.6,-4.1 -1.2,-4.6 -0.4,-6.2 -2.6,-6.4 0.4,-5.7 0.4,-6.2 0,-3.2 -3.7,-5.8 -2.6,-2.4 -8.5,-8.3 -1.5,-2.8 1.4,-12.7 0.7,-7.3 0.7,-6 -8.4,-12.8 -2,-7.3 -1.2,-2 -2.8,-2.8 -5.4,-4.3 -4.2,-6.5 -2.7,-6.5 -3.2,-8.4 -3.3,-3.3 -7.3,-5.3 -3.4,-7.3 -4.9,-7.6 -1.1,-4.1 0.7,-9.1 0.5,-10.4 0.8,-9.7 0.3,-5.5 5.4,-8.8 1.1,-1.2 -7.8,-13.4 -2.4,-4.3 -1.8,-4.9 -3.7,-7.2 -1.9,-4.7 -4.9,-3.4 -3.7,-3.5 -3,-7.3 -1.2,-1.2 -3.9,-2.4 -1.4,-2.7 -0.9,-5.1 1.6,-2 0.8,-0.8 0.4,-10 0.1,-6.9 0.9,-6.2 2.6,-7.7 0.1,-3.9 1.4,-9.7 -1.1,-7 1.9,-7.4 0,-1.2 0,-8 2.4,-6.9 4.2,-9.7 0.1,-0.4 0.4,-1.4 4.6,-2.7 5.3,1.2 4.2,1.8 3,-6.2 3,-6.9 3.9,-3 11,-3.5 1.6,-2.8 2,-7.6 3.2,-6.9 3.8,-14.3 2.8,-3.7 1.2,-3.2 6.8,-6.5 7.6,-9.1 0.8,-3.8 2,-3.8 8.3,-4.6 7,-3.2 5.5,-9.1 4.6,-4.5 2.4,-8.1 2.6,-2.7 1.1,-3.5 1.4,-1.4 7,-4.5 4.1,-3.8 7.8,-8.9 4.7,-3.9 1.4,-3.1 1.2,-1.2 15.3,4.1 14.3,2 13.3,-0.3 8,-1.5 10.7,1.9 10.3,-1.9 6.6,-0.9 0.9,0.8 2.6,0.7 0,0 1.5,0.4 3.7,1.2 3.1,1.1 1.1,0.7 5.7,4.1 0,0 9.3,2.6 1.5,0.3 16.6,-1.4 15.7,0 13.5,-5.5 15.7,-10.3 12.4,-5.5 11.8,-5 9.1,-3.7 7.6,1.6 8.8,-0.7 9.7,-6.4 9.6,-3.5 16.1,0.5 11.5,1.5 8.7,10 5.8,3.2 5.7,2.3 11.1,-1.6 11.9,-5.3 9.6,-4.7 23.1,-1.8 174.2,-16.1 3.8,35.4 0.4,6.4 7,81.3 5.5,68.2 2.2,30.7 0.3,18.3 -13.9,75.5 -10.4,56.5 70.6,54.9 75.7,61.4 0,0 -9.6,13.1 -36.5,49.2 -52.6,68.4 -31.5,40.8 -11.4,36.9 -18.5,51.9 -23.1,66.4 -18.4,21.6 -50.6,58.7 -0.2,0.3 z"
       inkscape:connector-curvature="0"
       class="DEP_14 ZON_04" /></g></svg>