<?xml version="1.0" encoding="UTF-8" standalone="no"?>
<!-- Generator: Adobe Illustrator 19.2.0, SVG Export Plug-In . SVG Version: 6.00 Build 0)  -->

<svg
   xmlns:dc="http://purl.org/dc/elements/1.1/"
   xmlns:cc="http://creativecommons.org/ns#"
   xmlns:rdf="http://www.w3.org/1999/02/22-rdf-syntax-ns#"
   xmlns:svg="http://www.w3.org/2000/svg"
   xmlns="http://www.w3.org/2000/svg"
   xmlns:sodipodi="http://sodipodi.sourceforge.net/DTD/sodipodi-0.dtd"
   xmlns:inkscape="http://www.inkscape.org/namespaces/inkscape"
   version="1.1"
   id="SvgMunicipio"
   x="0px"
   y="0px"
   viewBox="0 0 680.6 1000"
   style="enable-background:new 0 0 680.6 1000;"
   xml:space="preserve"
   inkscape:version="0.91 r13725"
   sodipodi:docname="MUN_ID1402.svg"><metadata
     id="metadata10"><rdf:RDF><cc:Work
         rdf:about=""><dc:format>image/svg+xml</dc:format><dc:type
           rdf:resource="http://purl.org/dc/dcmitype/StillImage" /></cc:Work></rdf:RDF></metadata><defs
     id="defs8" /><sodipodi:namedview
     pagecolor="#ffffff"
     bordercolor="#666666"
     borderopacity="1"
     objecttolerance="10"
     gridtolerance="10"
     guidetolerance="10"
     inkscape:pageopacity="0"
     inkscape:pageshadow="2"
     inkscape:window-width="665"
     inkscape:window-height="480"
     id="namedview6"
     showgrid="false"
     inkscape:zoom="0.236"
     inkscape:cx="340.29999"
     inkscape:cy="500"
     inkscape:window-x="0"
     inkscape:window-y="0"
     inkscape:window-maximized="0"
     inkscape:current-layer="svg" /><g
     id="g3"><path
       id="MUN_1402"
       d="m 537.5,101.6 8,1 9.5,-1.9 4.5,-4 3.4,-2.3 1.5,-1 6.5,-0.5 10.3,-1.9 8.3,-0.4 5.3,0 4.9,3.3 5.7,4.1 5.9,2.8 5.7,2.8 4,5.1 3,5.9 5.1,12.9 3.3,6.6 0.4,6.4 -0.5,5.9 1.7,6.1 1.6,7.3 2.8,5.8 7.5,3.3 7,1.8 8.2,0.5 5.3,-0.5 3,2.6 4.6,21.1 3.9,15.4 2.5,16.1 -0.9,0.9 -1,2.4 -3.6,3 -5.9,6.8 -3.1,2.9 -5.3,3.4 -1,1 -0.8,2.7 -1.9,2.1 -1.9,5.9 -3.5,3.4 -4.2,6.9 -5.3,2.5 -6.3,3.5 -1.5,2.9 -0.6,2.9 -5.7,6.9 -5.1,4.9 -0.9,2.5 -2.2,2.8 -2.9,10.9 -2.5,5.2 -1.5,5.7 -1.2,2.2 -8.3,2.7 -3,2.3 -2.3,5.2 -2.3,4.7 -3.2,-1.3 -4,-0.9 -3.5,2.1 -0.3,1 -0.1,0.3 -3.2,7.4 -1.8,5.2 0,6.1 0,0.9 -1.4,5.6 0.8,5.3 -1,7.4 -0.1,3 -1.9,5.8 -0.7,4.7 -0.1,5.2 -0.3,7.6 -0.6,0.6 -1.2,1.5 0.7,3.9 1.1,2.1 3,1.8 0.9,0.9 2.3,5.5 2.8,2.7 3.7,2.6 1.4,3.6 2.8,5.4 1.3,3.7 1.8,3.3 5.9,10.2 -0.8,0.7 -4.1,6.7 -0.2,4.2 -0.6,7.4 -0.4,7.9 -0.5,6.9 0.8,3.1 3.7,5.7 2.6,5.5 5.5,4 2.9,2.6 2.5,6.4 2.1,4.9 3.2,4.9 4.1,3.3 2.2,2.2 0.9,1.5 1.5,5.5 6.4,9.7 -0.5,4.5 -0.5,5.5 -1,9.6 1.1,2.2 6.5,6.3 1.9,1.8 2.8,4.4 0,2.5 -0.3,4.7 -0.3,4.3 1.9,4.8 0.3,4.7 0.9,3.5 1.2,3.1 1.8,4 1.1,0.8 2.6,1.5 0,1.7 0,1.1 -1.6,14.9 -4.2,32.7 -2.1,25.5 -1.8,30.7 -1.8,18.9 -3,6.6 -1.9,9.7 -3.2,6.4 1.9,14.6 5.8,22.4 7.6,30 7.3,33.8 17.3,63.5 -2.5,5 0.5,21 -7.9,-0.4 -9.1,0.9 -8.8,-1.9 -8.1,2.8 -8,0.7 -10.5,0 -12.9,5.1 -6.3,0.4 -3.4,0.4 -4.1,3.7 -1.9,3 -3.5,1.2 -2.7,-0.6 -6.7,2.3 -3.2,0.3 -7.2,2.6 -7.9,-0.2 -6.5,0.6 -14.8,-0.8 -10.3,4.5 -9.1,1.2 -8.7,3.4 -11.3,4.2 -13.1,1.5 -0.2,0 -15.3,-2.4 -11.3,-4.9 -8.9,-2.2 -2.1,0.3 -0.6,0.2 -9.6,3.1 -5.6,9.1 -1.7,2.2 -4.5,4.8 -6.5,6.7 -4.2,-0.4 -3.7,0 -3.2,-0.9 -6.6,-1.6 -7.9,-0.4 -4,-1.2 -11.9,-7 -9.9,-0.7 -13,2.9 -14.8,1.9 -4.6,-0.2 -13.7,-1.1 -6.3,-1.3 -1.6,-3.3 -1.4,-1 -3.2,-0.2 -3.7,0.1 -3.7,0.9 -3.8,0.5 -4.7,0.4 -29.1,-3.8 -12.9,-6.8 -6.5,-7.9 -7.2,-13 -3.5,-20.2 1.2,-22.8 -3.3,-11.8 -1.5,-1.3 -3.7,-3.1 -4,-8 -5,-2.5 -0.6,-1.6 -0.1,-7 0,-2.7 -0.5,-2.2 -1.1,-2.1 -0.8,0 1,-9 -7.8,-8.3 -0.1,-0.9 -6.6,-5.7 7.1,-8.4 -18.5,-11.6 -4.4,0.7 -7.6,-4.2 -12.9,-9 -2.8,-4.3 3.2,-10.9 -2.7,-3.3 -0.1,-0.1 0.4,-13.2 0,-0.3 -0.3,-1 0.1,-8.2 -2.1,-12.2 4.2,-13.6 9.8,-104.3 4.3,-55.9 -1.6,-3.3 -0.2,-0.7 0,0 -3.8,-10.8 -2.1,-4.2 -0.6,-2.1 -0.2,-5.3 -0.2,-2.7 -3.7,0.2 -4.3,0.8 -1.1,0 -1.2,-4.3 0,-9.4 -3,-2.8 -1.7,-0.2 0,-0.2 -0.3,-4.3 -4.2,-2.2 -3.5,-4.5 -2.5,-7.8 0,-7.9 -3.3,-3.6 -1.1,-10.7 -0.7,-3.7 -0.4,-2.4 -5.8,-5.4 -16,-11.6 -10.2,-5.2 -17.5,-11 -18.8,-9.5 -0.1,0 -2.6,-4.3 -5,-3.2 -0.7,-1 -0.3,-8.2 1.5,-2.8 0.1,-0.2 2.7,-4.1 6.5,-6.2 5.8,-0.8 1.6,-0.5 7,-4.8 0.5,-5.4 -4.6,-4.2 -5,-1.7 -3.5,5.9 -1.2,0.5 -1.7,-1.3 -1.3,-1.7 0,-10.6 -2.9,-13.2 5.7,-8.3 4.7,-9.5 -2.9,-6.6 -6.1,-3.5 -2.4,-0.9 -0.7,-1 -2.6,-4.9 -0.9,-0.6 -1.9,0.6 -4.5,2.5 -1.3,0 -2.8,0.2 -8,-2.4 -1,-1.3 -2.7,-3.5 0.4,-1.9 1.9,-1.3 1.7,-0.8 0.7,-2.3 -1.1,-4.4 -5.1,-8.2 0.3,-4.2 0,0 12.4,-9.7 2.8,-2.6 -0.5,-3 2.2,-0.7 4.6,2.3 0.3,0.2 0.9,-0.1 1.2,0 0.8,-1.6 0.7,-3.8 -0.6,-5.1 1.3,-1.6 1.2,-4.2 -1.2,-3.8 -1.2,-4.7 -2.6,-6 -1.5,-6.5 -5,-6.3 0,-4.3 -4.2,-3.2 0.3,-4 5.9,-4.8 5.4,-3.1 1.7,-3.5 3,-8.9 2.9,-7 8.9,-3.2 1.5,-3.6 -0.7,-3.4 -1,-5.4 -1.3,-3.8 -0.9,-3.2 -0.2,-0.6 -2.1,-7.1 -1.8,-5.7 -3.8,-5.2 -3.4,-5.7 -4.4,-4.2 -2.4,-3.2 -2.9,-4.5 -1.3,-3.7 -0.4,-4.9 -1,-4.8 -2.2,-4.5 -0.7,-0.7 -4,-3.5 -3.1,-2.3 -0.8,-0.8 -2.8,-2.9 -1.9,-4.6 -1.8,-6.5 -1.5,-3.3 -1.5,-1.8 -1.3,-3 -1.1,-3.2 -2.9,-2.5 -5.5,-2.3 -5.9,-0.5 -3.7,0 L 6.9,111 4.5,109.9 1.6,106 0,102 140.4,43.9 209.8,15 235.7,3.8 240,2.5 248.7,0 l 14.5,2.9 82,15 74.8,13.8 13.6,2.7 27.9,5.5 44.8,13.1 1.6,0.4 2.5,11.4 2.4,29.2 16.4,4.8 8.3,2.8 z"
       inkscape:connector-curvature="0"
       class="DEP_13 ZON_04" /></g></svg>