<?xml version="1.0" encoding="UTF-8" standalone="no"?>
<!-- Created with Inkscape (http://www.inkscape.org/) -->

<svg
   xmlns:dc="http://purl.org/dc/elements/1.1/"
   xmlns:cc="http://creativecommons.org/ns#"
   xmlns:rdf="http://www.w3.org/1999/02/22-rdf-syntax-ns#"
   xmlns:svg="http://www.w3.org/2000/svg"
   xmlns="http://www.w3.org/2000/svg"
   xmlns:sodipodi="http://sodipodi.sourceforge.net/DTD/sodipodi-0.dtd"
   xmlns:inkscape="http://www.inkscape.org/namespaces/inkscape"
   width="87mm"
   height="118mm"
   viewBox="0 0 308.26754 418.10999"
   id="SvgDepartamento"
   version="1.1"
   inkscape:version="0.91 r13725"
   sodipodi:docname="DEP_02.svg">
  <defs
     id="defs3427" />
  <sodipodi:namedview
     id="base"
     pagecolor="#ffffff"
     bordercolor="#666666"
     borderopacity="1.0"
     inkscape:pageopacity="0.0"
     inkscape:pageshadow="2"
     inkscape:zoom="0.98994949"
     inkscape:cx="59.767719"
     inkscape:cy="215.8337"
     inkscape:document-units="px"
     inkscape:current-layer="layer1"
     showgrid="false"
     inkscape:window-width="1366"
     inkscape:window-height="705"
     inkscape:window-x="-8"
     inkscape:window-y="-8"
     inkscape:window-maximized="1" />
  <metadata
     id="metadata3430">
    <rdf:RDF>
      <cc:Work
         rdf:about="">
        <dc:format>image/svg+xml</dc:format>
        <dc:type
           rdf:resource="http://purl.org/dc/dcmitype/StillImage" />
        <dc:title></dc:title>
      </cc:Work>
    </rdf:RDF>
  </metadata>
  <g
     inkscape:label="Capa 1"
     inkscape:groupmode="layer"
     id="layer1"
     transform="translate(0,-634.25207)">
    <path
       inkscape:connector-curvature="0"
       style="fill:#b3b3b3"
       d="m 207.26518,645.63486 c 2.425,-3.1375 5.0625,-6.1125 7.7125,-9.075 8.45,3.7875 17.3875,6.375 25.825,10.1875 6.2625,8.775 12.75,17.3875 19.7625,25.575 4.0625,4.5125 9.5,7.4125 14.325,11 1.8375,4.7 3.6875,9.3875 5.55,14.0875 9.6125,4.3 19.675,9.75 25.0125,19.2375 -4.3375,6.4 -1.2625,14.5125 -4.7125,21.175 -2.2375,4.975 -4.5625,9.925 -6.3,15.1 -1.2375,3.2875 -2.425,7.4 -6.2125,8.5125 -7.825,2.6625 -16.2625,3.05 -24,6.0125 -2.2875,0.65 -3.6125,2.95 -3.925,5.1875 0.5,3.1375 2.45,5.85 3.125,8.9625 -0.3,8.425 -1.6625,16.7875 -2.0625,25.2125 -3.425,1.675 -6.7375,3.6125 -10.35,4.8875 -4.0875,1.2375 -8.4625,0.2875 -12.6125,1.1375 -2.325,0.75 -4.4625,1.9625 -6.6125,3.0875 -0.075,3.9125 -0.45,8.0375 -3.2875,11.025 -5.4125,7.525 -14.575,10.375 -21.975,15.3625 0.1375,5.05 0.15,10.1125 0.0125,15.175 -3.8,2.8625 -7.225,6.3 -9.6625,10.4125 -2.45,3.575 -1.2,8.1125 -1.8,12.15 -0.7,5.3375 -1.25,10.6875 -1.075,16.0875 8.2875,3.9875 17.7875,3.05 26.2375,6.4 -1.1625,4.3875 -1.0125,8.95 -1.725,13.4125 -1.9,3.85 -5.275,7.1625 -5.6,11.6625 -0.325,6.325 0.0875,12.675 -0.0375,19 -11.9125,5.8625 -22.925,13.4125 -35.1875,18.575 -4.575,12.0125 -1.8875,25 -0.1875,37.30004 0.6875,9.25 0.8625,18.675 -1.25,27.7625 -2.3625,1.5875 -5.85,2.475 -6.5125,5.6375 -2.075,5.0625 1.1625,10.05 2.75,14.75 -8.7875,-2.9125 -18.375,4.2 -26.625,-1.0125 -5.1,-2.65 -10.1875,-5.3125 -15.4125,-7.7 -0.0125,-2.7 -0.0125,-5.3875 -0.0125,-8.075 -3.225,-1.9875 -6.4625,-3.95 -9.775,-5.775 -0.3875,-2.875 -1.625,-5.825 -1.0125,-8.7 3.7875,-3.4375 9.175,-4.9125 12.175,-9.2375 2.775,-3.925 4.975,-8.2125 7.4125,-12.33754 -2.6375,-5.1375 -2.975,-12.85 -9.225,-15.025 -4.825,-0.95 -9.6875,0.925 -14.5375,1.075 -4.4625,4.9 -11.6,10.2 -9.6875,17.71254 0.575,5.7 1.25,11.425 3.05,16.9 -6.7375,1.5 -13.4625,3.325 -19.6,6.5625 -1.0375,3.9125 -2.0875,7.8125 -3.15,11.725 -1.8,2.2625 -3.5125,4.5875 -5.2125,6.9375 -1.3875,-0.575 -2.775,-1.1375 -4.1625,-1.6875 -0.0125,-3.4875 -0.0375,-6.95 -0.05,-10.425 -0.95,-1 -1.9,-2 -2.85,-2.9875 -5.6,-0.175 -11.15,0.55 -16.675,1.4125 3.1375,-5.75 7.4625,-10.7125 12.025,-15.35 0.0125,-3.1625 0.0125,-6.3125 0.025,-9.475 -4.6,-0.575 -9.1625,-1.4 -13.775,-1.8625 0.0125,-6.52504 0.0125,-13.03754 0.0125,-19.55004 -5.475,-0.0875 -11.8625,1.0375 -15.7875,-3.7875 -9.7875,-0.1125 -19.4375,2.0375 -29.2625,1.275 6.2875,-11.925 7.9875,-25.5125 13.1,-37.8875 3.7375,-2.775 8.25,-5.6125 9.0125,-10.625 1.4625,-4.7 -0.4375,-9.45 -2.0125,-13.85 -4.7,-1.35 -9.3,-3.0875 -13.5625,-5.5 -1.7875,-3.925 -2.7875,-8.1375 -2.925,-12.45 -3.7,-2.625 -7.95,-4.275 -12.3,-5.4375 2.2375,-10.175 0.525,-21.4375 6.2375,-30.65 5.275,-8.9375 9.975,-18.1875 15.2625,-27.1 7.775,-10.925 15.775,-21.675 23.7625,-32.4375 2.275,-3.25 5.3875,-6.0375 9.4,-6.7875 13.925,-3.5375 27.475,-8.7625 41.825,-10.375 11.7375,-1.65 23.7,0.425 35.4125,-1.0625 2.6625,-5.3375 3.6,-11.325 5.0375,-17.0625 7.2625,0.8 14.45,2.9125 21.8,2.5125 4.4375,-0.725 10.9625,-4.25 8.2375,-9.7 -4.3125,-7.05 -10.4625,-12.7875 -15.75,-19.1125 -4.8625,-5.875 -11.475,-9.7875 -18.45,-12.675 -2.9125,1.1875 -5.8375,3.8625 -9,3.5625 -4.85,-3.975 -6.15,-10.8375 -10.75,-15.075 -5.275,-2.325 -11.2125,-2.225 -16.8,-3.35 0.025,-3.0625 0.05,-6.125 0.0875,-9.1875 5.9,-4.1625 11.7625,-8.375 17.65,-12.55 -3.675,-6.4125 -9.15,-11.7125 -12.275,-18.4125 -0.0625,-5.3125 1.5875,-10.475 2.3875,-15.7 2.725,-2.7 5.4875,-5.3625 8.2875,-7.9875 5.8,7.4375 12.05,14.5 17.9375,21.8625 11.4875,-6.0125 23.0875,-12.05 33.475,-19.8625 5,1.525 9.95,3.3 15.0875,4.325 7.1125,0.4875 14.2625,-0.0625 21.3875,0.15 1.325,-4.5375 2.225,-9.45 5.325,-13.1875 z"
       id="DEP_02" />
  </g>
</svg>
