<?xml version="1.0" encoding="UTF-8" standalone="no"?>
<!-- Created with Inkscape (http://www.inkscape.org/) -->

<svg
   xmlns:dc="http://purl.org/dc/elements/1.1/"
   xmlns:cc="http://creativecommons.org/ns#"
   xmlns:rdf="http://www.w3.org/1999/02/22-rdf-syntax-ns#"
   xmlns:svg="http://www.w3.org/2000/svg"
   xmlns="http://www.w3.org/2000/svg"
   xmlns:sodipodi="http://sodipodi.sourceforge.net/DTD/sodipodi-0.dtd"
   xmlns:inkscape="http://www.inkscape.org/namespaces/inkscape"
   width="89mm"
   height="69mm"
   viewBox="0 0 315.35415 244.48804"
   id="SvgDepartamento"
   version="1.1"
   inkscape:version="0.91 r13725"
   sodipodi:docname="DEP_03.svg">
  <defs
     id="defs3450" />
  <sodipodi:namedview
     id="base"
     pagecolor="#ffffff"
     bordercolor="#666666"
     borderopacity="1.0"
     inkscape:pageopacity="0.0"
     inkscape:pageshadow="2"
     inkscape:zoom="1.4"
     inkscape:cx="68.369098"
     inkscape:cy="164.44609"
     inkscape:document-units="px"
     inkscape:current-layer="layer1"
     showgrid="false"
     inkscape:window-width="1366"
     inkscape:window-height="705"
     inkscape:window-x="-8"
     inkscape:window-y="-8"
     inkscape:window-maximized="1" />
  <metadata
     id="metadata3453">
    <rdf:RDF>
      <cc:Work
         rdf:about="">
        <dc:format>image/svg+xml</dc:format>
        <dc:type
           rdf:resource="http://purl.org/dc/dcmitype/StillImage" />
        <dc:title></dc:title>
      </cc:Work>
    </rdf:RDF>
  </metadata>
  <g
     inkscape:label="Capa 1"
     inkscape:groupmode="layer"
     id="layer1"
     transform="translate(0,-807.87384)">
    <path
       inkscape:connector-curvature="0"
       style="fill:#999999"
       d="m 120.06089,818.45149 c 2.0875,-2.05 3.6625,-4.5125 5.3875,-6.8375 12.3625,4.7625 25.7875,4.6875 38.75,3.05 2.9875,-0.675 5.7875,0.5375 8.3875,1.8625 3.4875,1.925 7.575,1.4375 11.4,1.55 0.125,6.4375 0.15,12.8625 0.125,19.3 4.6125,0.6375 9.2125,1.3375 13.825,1.9 -0.325,2.9125 0.375,6.35 -1.8,8.7 -2.9,3.625 -6.0875,7.0125 -9.5125,10.15 -0.025,1.9375 -0.0375,3.8625 -0.0625,5.8125 5.675,0.275 11.2875,-1.375 16.9125,-1.075 3.45,2.725 1.2625,8.25 1.875,12.15 2.25,1.325 4.3875,2.975 6.9375,3.7125 2.9125,-2.425 5.3375,-5.4375 7.2,-8.7375 2.0125,-3.6 2.225,-7.975 4.5125,-11.4125 6.825,-4.5125 15.3625,-5.325 23.3125,-6.275 0.625,3 1.3,6 1.9125,9 3.275,1.8875 6.5375,3.7875 9.8125,5.675 0,2.6875 0.0125,5.375 0.0125,8.075 6,3.2125 12.0875,6.275 18.175,9.3375 7.375,4.3125 15.7625,-1.0625 23.55,0.0375 4.1375,1.525 8.1875,3.475 11.75,6.0875 1.225,4.275 -0.7875,9.3625 -4.7625,11.4625 -4.175,2.3375 -8.9625,3.1 -13.5625,4.1625 -4.5125,3.7375 -7.975,8.425 -10.55,13.6625 -8.0375,2.4875 -16.95,1.9 -24.5625,6.05 -0.025,5.6875 -0.375,11.425 0.475,17.0875 1.575,7.9875 -3.2875,15.7 -1.2375,23.7125 -4.35,4.35 -8.4625,8.9375 -12.475,13.6 -2.725,3.2125 -6.55,5.8625 -7.5875,10.175 -1.55,5.275 -1.3625,11.10001 -4.05,16.02501 -2.525,3.9375 -5.825,7.3 -8.975,10.75 -4.0875,4.275 -7.575,9.2 -12.45,12.65 -4.675,3.65 -10.2125,6.2625 -14.25,10.675 -1.775,3.0625 -2.35,6.6375 -3.325,10.0125 -6.0625,-3.025 -12.1375,-6.075 -18.45,-8.5375 -2.4,-1.025 -5.0375,-1.05 -7.575,-0.7375 -10.8125,1.3375 -21.6875,1.975 -32.5,3.25 -10.125,0.65 -20.1125,-1.975 -30.2125,-2.1125 -6.4,0.3625 -12.225,3.65 -18.5875,4.175 -3.775,-0.65 -6.4125,-4.075 -7.7875,-7.4375 -4.175,-13.2125 -2.15,-28.35 -9.825,-40.4125 -5.5,-8.83751 -17.0375,-9.27501 -24.775,-15.25001 -11.125,-8.45 -24.6,-12.7875 -36.4625,-19.975 -2.8749999,-1.5375 -4.6624999,-4.3125 -6.4874999,-6.8875 5.9874999,-10.4375 16.3749999,-17.2 25.7499999,-24.3125 2.6375,3.5125 5.1,7.1625 8.15,10.35 4.0125,4.025 9.9125,4.8875 14.675,7.7 3.7625,2.025 6.7125,5.4375 10.8875,6.675 2.8375,0.9 5.7875,1.4125 8.725,1.9125 2.2875,-1.5625 4.6375,-3.05 7.0125,-4.4875 0.2125,-0.6 0.6375,-1.8 0.85,-2.4 2.2875,-3.6625 3.8625,-7.7125 4.9125,-11.9 1.8625,-7.1125 5.725,-13.4625 8.125,-20.375 1.9875,-5.4375 1.2625,-11.3 1.25,-16.95 2.95,-0.6125 5.8875,-1.275 8.85,-1.8625 1.6125,-9.5375 -4.6625,-18.5875 -1.8625,-28 2.9875,-6.9625 8.1125,-12.9875 14.2375,-17.4125 0.5875,-2.975 1.7,-5.9875 1.15,-9.05 -0.975,-4.375 -3.675,-8.0375 -5.7875,-11.9 -2.2,-3.7125 -1.425,-8.225 -1.6,-12.325 4.1875,-0.6375 8.875,-0.825 12.1875,-3.825 z"
       id="DEP_03" />
  </g>
</svg>
