<?xml version="1.0" encoding="UTF-8" standalone="no"?>
<!-- Created with Inkscape (http://www.inkscape.org/) -->

<svg
   xmlns:dc="http://purl.org/dc/elements/1.1/"
   xmlns:cc="http://creativecommons.org/ns#"
   xmlns:rdf="http://www.w3.org/1999/02/22-rdf-syntax-ns#"
   xmlns:svg="http://www.w3.org/2000/svg"
   xmlns="http://www.w3.org/2000/svg"
   xmlns:sodipodi="http://sodipodi.sourceforge.net/DTD/sodipodi-0.dtd"
   xmlns:inkscape="http://www.inkscape.org/namespaces/inkscape"
   width="85mm"
   height="113mm"
   viewBox="0 0 301.18092 400.39346"
   id="SvgDepartamento"
   version="1.1"
   inkscape:version="0.91 r13725"
   sodipodi:docname="DEP_05.svg">
  <defs
     id="defs3496" />
  <sodipodi:namedview
     id="base"
     pagecolor="#ffffff"
     bordercolor="#666666"
     borderopacity="1.0"
     inkscape:pageopacity="0.0"
     inkscape:pageshadow="2"
     inkscape:zoom="0.98994949"
     inkscape:cx="237.76334"
     inkscape:cy="237.63765"
     inkscape:document-units="px"
     inkscape:current-layer="layer1"
     showgrid="false"
     inkscape:window-width="1366"
     inkscape:window-height="705"
     inkscape:window-x="-8"
     inkscape:window-y="-8"
     inkscape:window-maximized="1" />
  <metadata
     id="metadata3499">
    <rdf:RDF>
      <cc:Work
         rdf:about="">
        <dc:format>image/svg+xml</dc:format>
        <dc:type
           rdf:resource="http://purl.org/dc/dcmitype/StillImage" />
        <dc:title></dc:title>
      </cc:Work>
    </rdf:RDF>
  </metadata>
  <g
     inkscape:label="Capa 1"
     inkscape:groupmode="layer"
     id="layer1"
     transform="translate(0,-651.96857)">
    <path
       inkscape:connector-curvature="0"
       style="fill:#b3b3b3"
       d="m 193.11786,655.15577 c 4.0625,-1.5125 8.3875,-0.6375 12.5,0.1375 -0.0125,3.7125 -0.0125,7.4375 -0.0125,11.15 3.225,0 6.45,0.0125 9.6875,0.0125 1.5625,-1.6625 3.125,-3.325 4.7,-4.9875 1.5125,2.35 3.25,4.6 4.35,7.2 -1.725,2.4625 -3.9625,4.5125 -6.05,6.6625 -0.9,5.7125 -2.7375,11.3125 -6.75,15.625 0.3,3.4625 0.975,6.8875 1.6625,10.3 5.875,3.55 11.7375,7.125 17.4125,11 -1.675,3.6375 -3.6,7.1625 -5.075,10.8875 8.65,3.6625 18.0875,4.5875 27.25,6.275 -2.275,17.7625 -9.6375,34.375 -12.575,52.0125 -0.675,3.9 -1.3,7.9375 -3.3125,11.4125 -2.925,5.225 -7.4,9.8375 -8.15,16.0375 -1.2625,8.3 -2.425,16.675 -4.975,24.7 -2.3375,6.0625 -6.1125,11.5125 -7.8375,17.8375 3.1125,0.025 6.2125,0.05 9.325,0.1 -1.225,3.775 -3.875,6.6625 -7.15,8.7875 -0.0375,2.9125 -0.0875,5.825 -0.1375,8.75 6.9875,5.7 16.6,5.9125 23.625,11.5875 0.05,3.025 0.1125,6.05 0.1875,9.0875 2.3625,2.7 4.55,5.55 6.65,8.475 -3.2375,2.525 -6.9625,4.75 -9.1125,8.3625 -0.425,3.3375 0.5875,6.6125 1.1875,9.8625 3.8875,0.0125 7.7625,0.0625 11.65,0.225 -1.1125,4.025 -3.275,7.6 -5.1,11.325 -2.0125,6.175 0.6,12.3625 1.7375,18.3875 -0.2125,6.6625 -1,13.475 -3.6375,19.6625 -1.5,3.65 -1.0125,7.6875 -1.1375,11.55 3.7375,3.275 9.2625,5.775 9.8375,11.35 1.3875,8 2.65,16.06253 5.25,23.80003 5.45,-0.038 10.9,-0.038 16.35,-0.038 0.8,-2.9375 1.3625,-5.9625 2.6,-8.75 2.125,-1.2125 4.4875,-1.925 6.7625,-2.775 0.075,3.4125 0.125,6.8375 0.1625,10.2625 5.0375,0.025 10.0625,0.038 15.1,0.025 -1.625,3.275 -3.075,6.6625 -5.0125,9.775 -1.725,2.725 -4.7375,4.1875 -7.0125,6.375 0.525,2.575 2.225,4.9625 2.225,7.6375 -1.425,5.45 -4.075,10.475 -6.0875,15.725 -11.1875,-5.4625 -22.875,-9.85 -33.9375,-15.575 -12.7375,-6.45 -25.575,-12.7 -38.25,-19.25 -3.1,-1.675 -6.5625,-2.7375 -10.125,-2.2875 -7.5625,0.7375 -15.125,1.5375 -22.7,2.0625 -3,0.1375 -5.675,-1.4375 -8.4,-2.4125 -8.525,-3.7875 -18.0625,-2.9125 -27.1,-4.0875 -7.5625,-1.025 -15.2375,-0.038 -22.8,-1.1125 -6.95,-1.025 -14.0125,-0.3625 -20.9625,-1.375 -15.575002,-1.975 -31.687501,1.8125 -46.925001,-2.9625 -16.8625,-3.7625 -33.575,-8.32503 -50.8125004,-10.03753 0.875,-3.125 1.7375,-6.2625 2.5875004,-9.3875 7.3375,-5.625 15.8,-10.025 21.625,-17.375 4.4375,-5.5875 9.8125,-10.375 13.975,-16.1875 4.875,-6.8125 2.0125,-16.75 8.0875,-22.9125 5.7875,-6 11.025,-12.4875 16.825,-18.4625 -1.8375,-8.0875 2.5625,-15.9125 1.1625,-23.9875 -0.7125,-5.175 -0.9125,-10.4 -0.875,-15.6125 7.8,-3.3625 16.3625,-3.6625 24.637499,-4.9875 1.6625,-5.575 4.650002,-10.6625 9.237502,-14.3125 6.1625,-0.6875 11.8625,-3.1625 17.35,-5.9125 1.675,-4.0375 2.4875,-8.3375 2.675,-12.6875 -2.8125,-1.5125 -6.0625,-2.5125 -8.2625,-4.9 -2.9625,-5.2 -5.1,-11.4625 -3.1125,-17.3875 2.35,-1.6 5.975,-2.55 6.35,-5.85 1.6125,-7.3875 0.925,-15.0375 0.95,-22.5375 -0.0625,-12.0875 -4.6375,-24.325 -1.175,-36.3 0.6875,-3.2875 4.1875,-4.4625 6.775,-5.9125 7.7875,-3.575 15.0125,-8.1875 22.575,-12.2 2.0875,-1.2125 4.3125,-2.3 6.05,-4.025 1.3625,-6.65 -0.3125,-13.5375 0.9625,-20.2125 0.8375,-3.825 3.4375,-6.9 4.9625,-10.45 1.2125,-4.3875 0.375,-9.3125 2.5875,-13.425 3.0875,-1.8625 6.6375,-2.7375 10.025,-3.9125 1.0125,-3.625 1.9875,-7.2625 2.9625,-10.9125 3.4625,-0.0625 6.925,-0.1125 10.4,-0.175 3.4,-3.425 6.6875,-7.5 11.5875,-8.75 z"
       id="DEP_05" />
  </g>
</svg>
