<?xml version="1.0" encoding="UTF-8" standalone="no"?>
<!-- Generator: Adobe Illustrator 16.0.0, SVG Export Plug-In . SVG Version: 6.00 Build 0)  -->

<svg
   xmlns:dc="http://purl.org/dc/elements/1.1/"
   xmlns:cc="http://creativecommons.org/ns#"
   xmlns:rdf="http://www.w3.org/1999/02/22-rdf-syntax-ns#"
   xmlns:svg="http://www.w3.org/2000/svg"
   xmlns="http://www.w3.org/2000/svg"
   xmlns:sodipodi="http://sodipodi.sourceforge.net/DTD/sodipodi-0.dtd"
   xmlns:inkscape="http://www.inkscape.org/namespaces/inkscape"
   version="1.1"
   id="SvgMunicipio"
   x="0px"
   y="0px"
   width="702.27px"
   height="999.999px"
   viewBox="64.1 118.013 702.27 999.999"
   enable-background="new 64.1 118.013 702.27 999.999"
   xml:space="preserve"
   inkscape:version="0.91 r13725"
   sodipodi:docname="MUN_ID0102.svg"><metadata
     id="metadata10"><rdf:RDF><cc:Work
         rdf:about=""><dc:format>image/svg+xml</dc:format><dc:type
           rdf:resource="http://purl.org/dc/dcmitype/StillImage" /></cc:Work></rdf:RDF></metadata><defs
     id="defs8" /><sodipodi:namedview
     pagecolor="#ffffff"
     bordercolor="#666666"
     borderopacity="1"
     objecttolerance="10"
     gridtolerance="10"
     guidetolerance="10"
     inkscape:pageopacity="0"
     inkscape:pageshadow="2"
     inkscape:window-width="1366"
     inkscape:window-height="705"
     id="namedview6"
     showgrid="false"
     inkscape:zoom="0.23600023"
     inkscape:cx="-797.16895"
     inkscape:cy="499.99951"
     inkscape:window-x="-8"
     inkscape:window-y="-8"
     inkscape:window-maximized="1"
     inkscape:current-layer="svg" /><g
     id="g3"><g
       id="g3334"><path
         inkscape:connector-curvature="0"
         class="DEP_01 ZON_01"
         d="m 763.98,459.828 0.717,1.793 0.239,2.27 0.119,1.434 0.12,0.717 0,2.031 0,0.717 0,2.629 0.597,1.553 0.598,1.792 -0.119,3.226 0,0.479 -0.12,0.956 -0.119,1.313 -0.119,1.434 -0.598,1.314 -0.598,0.837 -0.478,0.717 -0.119,0.717 0.597,1.194 0.956,2.509 0.717,2.39 0,1.194 -2.629,5.019 -0.478,0.119 0.12,2.271 0,2.15 -1.554,1.194 -0.358,1.314 -0.239,1.553 -0.358,1.314 -1.075,2.987 -0.238,0.358 -0.12,0.478 0,0.239 -0.119,1.792 0.119,1.673 -0.119,1.194 -0.358,1.194 -0.837,0.837 -0.358,0.358 -0.597,1.194 -0.598,1.195 0,1.075 -0.717,0.598 -0.717,0.478 -0.239,0.358 -0.717,1.314 -0.598,1.672 0.718,1.076 -1.195,1.792 -1.075,1.434 -0.717,1.314 -0.836,1.553 -1.314,2.509 -0.717,1.554 -0.479,1.434 -0.238,0.478 0,0 -0.12,0.358 -0.717,0.478 -0.478,0.358 -0.836,0.358 -0.837,0.239 -1.911,0.358 -1.912,-0.238 -1.313,-1.195 -0.598,-1.314 -0.479,-0.836 -1.313,-0.717 -0.956,-0.239 -1.075,-0.238 -1.195,-0.239 -1.194,-0.119 -0.836,-0.12 -0.717,-0.119 -0.239,-0.12 -0.717,0.239 -0.598,0.12 -1.314,0.358 -1.313,0.238 -0.717,-0.119 -0.956,-1.075 -1.075,-0.956 -0.598,-0.598 -0.719,-0.717 -1.673,-1.075 -1.911,-0.836 -0.956,-0.119 -0.956,-0.239 -0.717,0 -0.358,-0.12 -0.358,-0.238 -0.955,0.119 -1.673,-0.717 -0.358,0 -0.837,0 0,0 -0.478,0.956 -0.717,-0.239 -0.956,0.358 -0.956,0.12 -0.478,0.238 -0.478,0.12 -0.598,-0.358 -0.358,-0.359 -1.075,-0.597 -0.479,0 -1.075,0.119 -0.238,0.239 0,0.358 0.358,0.358 0.836,0.358 0.119,0.239 0,0.478 -0.717,0.358 -1.313,1.314 -0.358,0.478 -0.239,0.598 0.119,4.659 -0.238,2.509 0,0 0.238,0.598 -0.119,0.239 -0.119,0.597 -0.479,2.39 -0.119,0.598 -0.837,3.345 -0.717,3.227 -0.597,3.226 -0.598,1.792 -0.119,0.239 -0.479,0.717 -0.119,0.836 -0.119,0.717 -0.717,4.182 -0.358,0.956 -0.479,1.553 -0.119,0.358 0,0.837 0,0.717 0,0.478 0.358,1.314 0.119,1.075 0,0.717 0,0.717 -0.238,1.554 -0.479,2.03 -0.836,2.271 -1.554,3.942 3.465,1.673 1.792,0.956 1.912,1.313 0.717,0.479 0.598,0.478 3.226,2.031 0.956,0.717 1.313,1.075 1.075,0.598 4.779,2.867 1.554,0.717 -0.837,1.314 -1.434,2.031 -1.553,2.628 -2.51,4.182 -1.672,2.748 -2.151,4.54 -1.434,3.942 -1.911,6.094 -5.854,-3.465 -4.301,-0.956 -4.301,-1.075 -1.912,6.451 -1.673,-0.836 -1.434,-0.717 -1.792,-0.837 -1.553,-0.358 -2.987,0 -1.194,0.12 -0.837,0.119 -1.194,0.239 0,1.434 0.717,2.39 0.358,1.314 0.119,2.628 0.837,2.987 0.119,2.27 -0.119,2.509 0,1.912 -0.717,1.672 -0.837,2.271 -0.836,1.553 0,0.12 0,0.597 -0.119,0.479 -0.239,0.956 -0.598,1.911 -0.238,0.717 -0.359,0.956 -0.478,1.434 -0.239,1.553 -0.717,1.195 -0.238,0.955 0,0.718 0.119,0.717 -0.119,0.478 -0.12,0.717 0.12,0.478 0.119,0.717 -0.239,0.598 -0.119,0.478 0,1.076 -0.119,0.955 -0.239,0.717 -0.358,0.717 0,1.314 0.119,1.075 -0.238,0.717 0,0.717 0,0.956 -0.239,0.956 -0.119,1.194 -0.239,0.598 -0.358,0.358 -0.239,0.478 -0.119,0.717 0,0.956 0.119,1.434 0.12,1.195 0,0.836 0.119,0.836 0.239,0.956 0.119,0.956 0.239,1.553 0.119,1.792 0,2.031 -0.119,1.075 -0.358,1.434 -0.479,0.956 -0.597,0.956 -0.12,0.836 0,0.837 -0.239,0.836 -0.358,0.956 -0.238,0.955 -0.239,0.956 -0.358,1.314 -0.119,0.956 -0.358,0.717 -0.12,0.119 -0.358,0.119 -4.898,3.585 -1.792,2.031 0.239,2.509 1.434,3.703 1.673,4.66 -3.346,8.243 -1.194,2.031 -0.358,2.987 -4.063,5.495 -5.376,3.346 0.119,1.075 0.119,2.39 0.239,5.974 1.075,4.778 -1.673,4.779 0,0.836 0.12,0.718 0,1.194 0,1.553 0.119,0.837 0.598,0.478 0.836,0.119 0.717,-0.119 0.598,0 3.226,0.358 2.15,0.598 0.479,1.314 0.717,1.434 1.194,1.792 2.15,3.345 0.479,1.793 -1.075,-0.12 -0.956,0.717 -0.837,0.956 -1.075,0.836 -0.119,1.075 -0.358,1.793 0,1.075 0.478,1.792 0.239,0.836 -0.717,2.39 -0.717,1.314 -1.194,1.075 -0.479,1.911 -0.717,1.792 -0.836,1.435 -1.075,1.075 -1.075,1.194 -0.956,1.194 -1.554,1.195 -1.075,1.075 -1.911,0.598 -2.15,0.238 -2.031,0.598 -0.956,0.598 -0.717,1.075 -1.075,1.194 -0.119,1.314 -0.479,0.717 -0.836,0.478 -0.836,0.956 -1.673,0.956 -0.358,0.836 -0.479,1.075 -0.955,1.195 -0.956,0.717 -0.119,0.717 -0.479,0.717 -2.15,1.673 -1.314,0.955 -0.717,0.717 -0.717,0.837 -0.478,0.598 -0.956,0.836 -0.478,0.598 -0.598,0.717 -0.598,1.553 -0.478,0.837 -0.836,0.238 -1.075,0.956 -0.479,1.075 -0.238,0.478 -0.718,0.717 0.12,0.837 0.358,1.434 0.119,1.434 -0.239,2.867 0.12,1.792 0.597,2.748 0.598,1.075 1.075,1.434 -0.717,-0.238 -1.313,-0.239 -4.063,0 0,0 -3.823,0.119 -2.271,0.12 -3.105,0.119 -0.717,0 -0.956,0.358 -0.598,0.478 -0.119,0.837 0,1.314 -0.239,0.955 -0.598,2.39 -0.358,2.39 0,1.434 0.12,0.598 0.238,1.434 0.12,2.509 0,1.194 -0.12,1.435 -0.238,1.911 -0.479,2.031 -0.836,3.703 -0.956,1.673 -5.376,8.841 -2.39,4.54 -2.15,2.748 -1.554,1.434 -4.062,2.271 -4.54,2.748 -3.823,2.031 -2.748,0.955 -0.836,0.837 -0.598,0.717 -0.358,0.836 -0.598,0.478 -0.478,0.479 -0.837,0.239 -1.194,0.119 -1.434,0.119 -0.717,0.239 -0.598,0.598 -0.358,0.597 -0.358,1.075 -0.478,1.793 -1.314,0.955 -1.075,1.195 -0.358,1.672 -0.358,2.031 -0.239,0.956 -0.956,2.987 -0.478,2.15 -0.358,1.553 -0.717,2.987 -0.358,3.226 -0.358,1.314 -0.717,1.434 -0.837,1.434 -0.717,0.956 -1.194,2.03 -0.598,0.956 -0.478,0.956 -0.119,0.598 0.119,0.955 0,1.195 -0.119,0.717 -0.12,1.434 -0.478,1.911 -0.239,1.673 -0.119,2.39 0.478,2.031 0.837,3.942 0.597,1.792 0.12,2.39 -0.12,1.673 -0.119,1.075 0,1.911 0,1.673 -0.119,2.509 0.358,1.792 0.358,3.227 0.478,2.389 0.358,2.51 0.239,2.628 0.238,2.39 0.239,1.314 0.119,1.313 0.239,1.912 0,1.314 0.239,1.792 0.119,1.673 0,1.075 -0.119,0.955 -0.119,0.717 0,0.358 0,0.837 0,1.673 1.075,5.734 0.358,1.075 -0.12,0.478 -1.194,0.837 -0.837,-0.119 -0.955,0.119 -0.956,0.598 -0.956,1.075 -2.031,3.823 -0.478,1.313 -1.075,4.302 -0.119,0.597 -0.479,2.151 -0.238,1.911 -0.239,2.867 0,1.792 0.119,2.15 -0.119,1.673 -0.119,2.031 0.119,2.867 0,2.509 0,0.956 0.119,1.314 0.12,0.956 0.358,1.075 0.478,0.955 0.717,0.717 0.358,0.12 0.358,0.119 0.956,0.239 0.238,0.239 0.12,0.238 -0.239,0.358 -0.598,1.554 -0.717,1.194 -0.358,1.075 -0.238,0.717 0.119,0.358 0.119,0.358 0.598,0.479 0.956,0.478 1.434,0.478 0.239,0.12 0.238,0.597 -0.238,2.51 -0.837,6.093 -0.836,3.823 -2.271,6.093 -2.509,7.169 -1.553,5.257 -1.912,5.496 -0.717,1.911 -0.478,1.673 -0.598,2.39 -0.239,2.389 -0.119,1.793 0,1.672 0.598,1.554 0.836,2.39 0.479,1.313 0,0.718 -0.358,1.194 0.358,1.792 0.955,2.15 0.12,2.509 0.478,2.031 0.717,2.629 0.239,1.075 1.075,0.836 1.194,0.717 0.717,0.717 -0.119,0.598 -0.478,0.598 0,0 -1.076,0.358 -1.553,0.836 -0.836,0.836 -0.837,0.956 -1.434,1.434 -0.597,-0.358 -1.314,-0.836 -0.717,-1.314 -0.239,-0.717 -0.478,-0.717 -0.598,-0.358 -0.717,0 -0.717,-0.717 0,-0.478 -0.239,-0.358 -0.239,-0.956 -0.597,-1.792 -0.598,-0.956 -0.358,-0.358 -0.956,-1.673 -0.358,-0.717 -2.031,-2.748 -1.194,-0.597 -0.956,-0.479 -2.389,-1.911 -1.195,-0.598 -0.956,-0.717 -1.434,-1.075 -0.358,-0.717 -2.509,-3.823 -1.194,-1.792 -0.479,-1.314 -0.717,-1.792 -1.194,-2.271 -1.314,-2.27 -1.314,-2.031 -0.478,-1.194 -0.836,-3.106 -0.718,-3.226 -0.597,-2.987 -0.358,-1.314 0,-2.031 0,-2.628 0.358,-1.194 0,-1.076 -0.239,-0.955 -0.478,-0.956 0,-2.748 -0.358,-1.792 -0.358,-0.956 -0.598,-0.836 -0.598,-0.598 -0.478,-0.478 -0.239,-0.837 0,-0.955 0.358,-1.912 0,-2.15 0,-1.553 0,-1.195 0.12,-1.194 0,-0.956 -0.358,-0.598 -0.718,-0.358 -0.597,-0.478 -0.717,-0.717 -0.358,-1.075 0,-1.314 -0.239,-0.956 -0.239,-0.717 -0.358,-0.955 -0.119,-0.717 0.119,-0.956 0,-0.717 0,-1.673 -0.119,-3.942 -0.358,-2.271 -0.119,-1.194 0.358,-1.673 0.478,-1.075 0.717,-0.956 0,-1.314 0,-1.434 -0.239,-0.955 -0.717,-1.673 -0.597,-0.837 -1.195,-0.955 -1.792,-0.598 -0.836,-0.119 -2.031,-0.12 -1.195,-0.358 -1.553,-1.075 -0.598,-0.717 -0.358,-1.075 0,-0.956 -0.238,-0.597 -0.358,-0.717 -0.12,-0.598 0.239,-1.075 0,0 -59.618,1.792 -6.57,0.358 -1.314,0.478 -2.271,0.479 -2.27,0.358 -2.15,0.478 -2.509,0.239 -2.987,0.238 -1.792,0 -1.912,0 -2.15,-0.238 -1.313,-0.358 -0.598,0 -0.956,0.238 -0.956,0.358 -1.672,0.12 -2.868,0 -2.986,-0.479 -2.748,-0.955 -1.792,-0.479 -1.554,-0.836 -0.955,-0.478 -0.956,-1.195 -0.717,-1.434 -0.956,-1.792 -0.598,-1.553 -0.358,-1.673 -0.358,-1.075 -0.238,-0.239 -0.479,-0.239 -0.836,0.239 -0.836,1.075 -1.075,0.956 -0.598,0.597 -0.956,0.598 -1.434,0.358 -0.717,0.598 -0.598,0.598 -1.075,1.434 -1.194,2.39 -0.956,2.03 -0.956,1.434 -0.597,1.076 -0.358,0.836 -0.479,1.673 -0.836,1.553 -0.717,1.314 -0.717,1.673 -0.717,1.792 -0.239,1.911 -0.239,2.031 -0.238,2.271 -0.479,2.867 -0.478,2.748 -0.598,2.389 0,0.12 -1.075,-0.239 -1.911,0.358 -1.912,0.598 -1.434,0.358 -1.075,-0.119 -1.075,-0.479 -1.554,-0.717 -1.434,-0.717 -1.313,-0.239 -0.956,0 -1.434,-0.119 -2.629,-0.598 -1.313,0.12 -0.358,0.119 -0.359,0.239 -0.597,0.836 -0.598,0.956 -0.358,1.194 -0.956,2.031 -0.836,1.673 -0.598,0.956 -0.597,1.075 -0.718,1.792 -0.717,1.434 -0.478,0.836 -0.836,1.075 -0.956,0.479 -1.195,0 -1.194,0.119 -1.194,-0.478 -1.434,-0.479 -0.239,0 -0.358,0 -0.239,0.358 -0.239,0.239 0,0.598 0.12,0.478 0.238,0.598 0.598,0.956 0.12,0.478 0.238,0.598 0,0.597 0,0.479 -0.119,0.717 -0.119,0.597 -0.358,0.717 -0.239,0.718 -1.434,2.03 -0.598,0.598 -0.478,0.836 -1.912,2.39 -0.956,1.075 -0.836,1.195 -0.836,0.836 -0.717,0.837 -0.239,0.119 -0.358,0.358 -0.239,0.239 -0.836,0.478 -1.195,0.358 -0.955,0.239 -0.598,0.119 -0.836,-0.119 -0.598,-0.239 -0.239,-0.119 -0.238,-0.358 -0.479,-0.837 -0.956,-2.986 -0.836,-2.39 -0.119,-0.478 -0.239,-0.598 -0.239,-0.598 -0.478,-0.717 -0.478,-0.478 -0.239,0 -0.119,-0.12 -0.479,0.12 -0.358,0.358 -0.238,0.119 -0.239,0.239 0,0.119 -0.12,0.239 0,1.194 0.12,1.434 -0.12,0.598 -0.119,0.598 -0.956,1.672 -1.911,2.151 -2.629,1.911 -0.836,0.717 -0.836,0.837 -0.358,0.358 -0.717,1.075 -0.598,1.672 -0.478,0.956 -0.358,0.837 -0.956,0.836 -1.075,0.358 -0.598,0 -0.717,0.119 -0.717,-0.119 -0.598,-0.358 -0.717,-0.836 -1.075,-1.673 -0.478,-0.479 -0.358,-0.597 -1.673,-1.434 -0.836,-0.717 -0.837,-0.837 -0.478,-0.239 -0.478,-0.358 -0.479,0 -0.597,0 -0.359,0 -0.358,0 -0.478,-0.119 -0.358,0 -0.358,-0.239 -0.358,-0.119 -0.598,-0.239 -0.478,-0.238 -1.434,-0.598 -0.358,0.956 -0.358,1.792 -0.358,1.434 -0.358,1.553 -0.12,1.314 0,0.956 -63.201,-7.527 1.075,-13.739 1.792,-14.695 -0.119,-0.239 -1.314,-1.553 -1.434,-1.195 -2.15,-0.955 -1.076,-0.837 -0.955,-2.867 0.238,-3.584 2.151,-3.465 3.464,-4.301 3.823,-4.182 1.195,-5.019 0.836,-2.15 1.434,-4.062 0.598,-3.227 0.358,-3.584 0.239,-7.288 0.238,-3.465 -0.955,-4.659 -1.912,-4.062 -1.792,-3.823 -0.358,-1.912 -0.239,-4.421 -0.238,-2.27 -0.12,-1.673 -1.792,-1.314 -2.15,-1.194 -1.911,-1.553 -2.031,-1.673 -1.075,-1.075 -1.792,-1.792 -0.598,-1.195 -1.434,-2.748 0.119,-2.15 0.12,-2.509 -0.598,-1.553 0.238,-2.031 0.12,-3.823 0.239,-2.867 -0.12,-0.358 -0.836,-0.479 0.119,-1.553 0.239,-1.912 0,-2.27 -13.739,-40.144 0,0 0.119,-0.119 0.478,-0.837 0.239,-0.717 0.239,-0.717 0.119,-1.075 -0.358,-1.673 -0.358,-1.553 -0.119,-1.553 0,-1.435 0.358,-2.15 0.478,-2.39 0.119,-2.509 0.239,-2.628 0.358,-0.598 1.673,-2.15 1.434,-1.434 0.239,-1.673 0.358,-1.553 0,-1.076 0.119,-0.955 0.478,-2.031 0.598,-1.792 0.717,-1.195 1.792,-2.03 1.434,-1.314 2.031,-3.226 0.836,-1.912 0.956,-1.673 0.956,-0.597 0.598,-1.195 0.358,-1.075 1.553,-2.031 2.867,-3.584 2.748,-3.465 0.479,-1.792 0.597,-2.27 -0.597,-0.479 -0.718,-0.119 -2.03,0.478 -1.554,0 -0.836,-0.119 -0.717,0 -1.912,0.119 -0.478,-0.358 -0.119,-0.597 1.075,-1.195 0.717,-1.075 0.597,-1.434 0.239,-4.182 0.119,-3.226 -0.955,-1.075 -2.509,-1.673 -2.748,-1.792 -2.629,-1.673 -2.867,-1.792 0,-0.119 -0.119,-2.629 0,-2.15 -0.12,-0.598 -0.955,-0.956 -0.358,-0.238 -0.837,-0.358 -0.836,-0.239 -2.629,-0.358 -2.39,-0.239 -3.464,-1.553 -3.227,-1.554 -3.106,-1.434 -0.478,-0.119 -0.478,-0.239 0.358,-1.434 0.478,-2.031 0.119,-1.553 -2.747,-7.646 -0.598,-2.15 -0.12,-1.075 -0.717,-2.15 -1.075,-1.673 -2.27,-2.748 0,-0.956 1.434,-4.54 0.598,-1.434 0.717,-1.194 0.597,-1.314 0.12,-0.836 -0.12,-0.358 -0.478,-0.358 -0.836,-0.239 -1.075,-0.478 -0.837,-0.358 -0.717,-0.598 -0.478,-0.478 -0.12,-0.718 -0.119,-5.257 -0.358,-0.955 -1.314,-2.748 -0.955,-2.271 0,-3.345 -0.239,-3.942 0.119,-1.912 0.12,-1.553 0.717,-1.554 0.717,-0.836 -0.837,-0.479 -0.955,-0.597 -0.479,-0.598 -0.478,-0.836 -0.239,-0.956 -0.717,-1.075 -0.836,-0.479 -1.434,-0.478 -1.314,-0.119 -1.434,0.238 -0.717,-0.119 -2.39,-1.075 -5.018,-0.836 -3.346,-1.075 -0.478,-0.239 -0.717,-0.717 -0.598,-1.314 0.239,-1.075 0.597,-0.717 1.673,-0.956 3.465,-1.434 -0.717,-0.239 -2.987,-1.792 -2.15,-0.597 -2.39,-0.717 -2.628,-0.718 -1.554,-0.717 -0.358,-0.955 0.239,-1.195 1.912,-2.509 -1.195,0.598 -1.075,0.239 -0.717,0.358 -2.39,1.672 -1.792,1.314 -2.748,2.748 -1.194,1.314 -0.956,0.478 -1.553,0.598 -3.106,0 -0.837,0.478 -2.509,1.314 -0.598,0.239 0,0 -26.522,-185.425 14.575,-146.236 0,0 0,0 -0.358,-1.673 0,-2.031 0.358,-1.792 0.479,-2.031 1.672,-2.509 0.479,-0.717 0.358,-0.597 0.358,-1.195 0,-0.597 -0.119,-0.358 -0.956,-1.314 -1.195,-1.673 -0.717,-1.434 -0.358,-0.956 0,-0.956 0.12,-0.956 0.478,-1.553 0.358,-0.717 0.239,-0.836 0.478,-1.075 0,-1.075 -1.194,-1.434 -3.227,-1.912 -0.119,-0.836 0.478,-1.434 1.076,-0.598 1.075,-0.717 1.792,-1.314 0.717,-0.598 0.956,-0.836 1.194,-2.031 0.956,-1.912 0.119,-1.314 -0.119,-0.836 -1.434,-1.076 -1.554,-0.478 -2.031,-0.717 -1.313,-0.836 -1.435,-1.075 -2.389,-2.748 -1.673,-0.956 -2.031,-0.956 -1.434,-0.717 -2.271,-1.673 -0.955,-0.717 -1.792,-0.836 -2.151,-0.478 -2.389,-0.12 -1.554,0 -0.119,-0.12 0.239,-1.194 0.597,-1.434 1.673,-2.509 1.075,-1.314 0.358,-0.956 0.598,-0.836 0.238,-0.956 0,-0.598 -0.238,-1.314 -0.479,-1.314 -0.597,-0.836 -0.598,-0.598 -0.836,-1.075 -1.195,-1.075 -1.314,-0.956 -2.986,-1.672 -5.496,-2.987 -3.823,-2.031 -1.792,-1.195 -1.314,-0.717 -0.238,-0.358 -0.239,-0.956 -0.119,-1.195 -0.239,-0.836 -0.358,-1.075 -0.358,-0.956 -0.239,-0.478 -0.358,-0.717 -0.955,-0.598 -1.076,-0.836 -2.15,-0.836 -1.911,-0.956 -2.271,-1.314 -2.15,-1.314 -1.792,-1.792 -1.314,-0.717 -1.672,-0.478 -1.076,-0.478 -0.358,-0.717 0.12,-0.358 0.478,-0.239 0.119,-0.12 1.554,0.12 1.673,0.597 2.986,1.195 2.15,0.598 2.748,0.358 1.314,0.119 3.226,-0.119 1.792,0 1.554,0.119 1.434,0.12 0.836,-0.12 0.479,0 0.597,-0.358 0.12,-0.239 0.238,-0.239 0,-0.478 0,-0.358 -0.478,-0.836 -1.673,-2.031 -2.867,-3.345 -2.867,-3.226 -0.717,-1.314 0,0 -0.12,-0.956 0,-0.836 0.358,-1.075 0.358,-0.717 0.837,-1.314 0.836,-1.434 0.598,-0.956 0.478,-0.717 0.479,-0.836 0.238,-0.717 0.479,-0.478 0.717,-0.478 0.598,-0.478 0.955,-0.717 0.598,-0.717 0.478,-0.597 0.479,-0.836 0.119,-0.836 0,-0.717 0,-0.836 0,-0.956 -0.239,-0.717 -0.478,-1.195 -0.119,-0.478 -0.358,-0.836 -0.12,-0.239 -0.478,-0.597 -0.239,-0.358 -0.597,-0.478 -0.598,-0.598 -1.673,-1.075 -1.314,-0.836 -0.238,-0.358 0,-0.358 0.119,-0.239 0.239,-0.717 0.238,-0.358 0.479,-0.598 0.955,-0.597 2.51,-0.956 0.597,-0.478 0.479,-0.598 0.119,-0.478 0,-0.598 0,0 -0.239,-0.717 -0.358,-0.717 -0.717,-0.836 -0.836,-0.717 -0.717,-0.717 -0.956,-0.717 -0.119,-0.12 -1.195,-0.956 -0.478,-0.598 -0.478,-0.836 -0.239,-0.478 -0.478,-0.836 -0.359,-0.956 -0.597,-1.314 -0.358,-0.597 -0.239,-0.717 0,-0.478 0,-1.075 0,-0.956 0,-0.597 0.358,-1.075 0.358,-0.717 0.478,-0.956 0.479,-0.956 0.598,-0.836 0.238,-0.836 0.239,-0.836 0,-0.956 0,-0.836 -0.358,-1.075 -0.836,-1.314 -0.479,-0.956 -0.956,-1.434 -0.955,-1.314 -0.598,-0.836 -0.598,-0.836 -0.119,-0.358 -0.478,-0.956 -0.479,-0.836 -0.478,-0.836 -0.717,-0.598 -1.673,-1.075 -1.792,-1.195 -1.554,-0.836 -1.434,-0.836 -0.358,-0.239 -0.955,-0.597 -0.239,-0.358 0,-0.239 0,-0.358 0.239,-0.478 0.238,-0.239 0.358,-0.239 0.837,0 1.075,-0.12 1.194,0 1.195,0 0.597,0.12 0.837,0 0.717,0.119 0.955,0.239 0.598,0.12 0.837,0.119 0.478,0.12 0.598,0.239 1.075,0.478 1.194,0.598 0.478,0.119 0,0 0.359,0.12 0.717,0 0.836,-0.717 33.453,-32.019 2.986,-1.912 1.195,-0.836 2.747,1.195 2.031,1.434 1.314,0.239 3.106,0 3.226,0 3.346,0 3.823,-0.239 3.105,-0.597 4.54,-0.717 2.868,-0.956 2.509,-0.358 0.836,-0.12 1.075,-0.119 0,0 0,0 1.554,0.239 0.597,0 0.956,-0.12 1.075,-0.597 0.598,-0.358 0.598,-0.358 0.836,-0.478 0.956,-0.12 0.836,0.358 0.837,0.836 0.717,0.836 0.119,0 0.358,0.358 0.836,0.717 0.239,0.836 0,1.314 0,0.12 0.358,0.956 0.358,0.359 0.358,0.239 1.075,0.239 3.346,-0.119 1.792,-0.12 1.075,0 0.717,0 1.434,-0.12 1.673,0 0.956,-0.717 1.313,-0.478 1.792,0.358 1.076,0.478 1.911,0.956 0.478,0.478 1.075,0.598 0.598,-0.239 1.195,-0.478 0.478,-0.239 0.598,-0.239 1.194,-0.478 1.075,-0.239 0.479,-0.12 0.597,-0.12 1.314,-0.119 1.314,-0.239 1.434,-0.119 2.15,-0.12 2.031,0 0.598,0 3.105,-0.12 1.434,0 1.554,-0.239 0.239,-0.12 0.478,0.239 0.358,0.358 0.836,0.836 0.598,0.956 0.478,0.478 0.479,0.597 0.717,0.717 0.956,0.836 1.194,0.717 0.598,0.478 0.478,0.358 0.478,0.358 0.598,0.358 0.956,0.598 0.478,0.119 0.598,0.12 0.956,0 1.075,-0.12 1.314,0 2.747,-0.119 0.479,0 0.358,0.119 0.598,0 0.836,0.12 0.598,0.12 4.659,1.194 2.986,1.195 0.956,0.478 2.748,3.226 4.182,0.478 3.226,0.597 3.106,0.717 2.031,-0.239 2.986,-0.597 3.585,-0.478 1.075,0.12 3.226,1.672 3.226,1.553 1.912,0.836 1.911,0.478 0.717,0.119 1.075,0.239 2.748,0.836 2.39,1.075 1.314,0.836 1.313,0.956 0.359,0.358 2.986,1.673 1.792,0.836 4.182,2.868 1.434,1.075 3.823,2.867 4.301,3.584 106.571,44.564 22.461,-27.838 0.598,-0.597 69.295,-85.902 43.25,-21.625 15.412,-7.646 39.665,58.064 0.598,2.39 1.434,2.628 1.075,4.42 1.194,4.182 -0.358,3.943 2.39,5.615 0,2.27 -0.119,2.27 -0.717,1.672 -0.479,1.434 -1.075,2.27 3.704,2.27 3.823,2.15 0.598,2.748 0.955,1.792 0.956,1.792 1.434,1.434 1.434,1.553 1.195,1.553 1.313,1.792 1.195,1.792 0.836,1.792 0.717,1.912 0.358,1.672 0.479,1.553 0.119,1.076 0,1.075 0.358,1.075 0.239,1.075 1.553,2.628 1.673,2.748 0.836,1.195 0.956,1.194 1.553,0.239 1.314,0.478 1.075,0.478 0.837,0.717 0.836,0.478 1.075,1.912 1.195,1.672 0.836,1.314 0.956,1.195 1.672,2.389 0.956,1.076 1.314,1.434 1.792,2.031 1.195,1.195 0.836,1.553 0.478,1.553 2.15,3.345 2.748,3.226 2.868,3.345 3.226,3.226 2.867,1.792 0.239,0.12 0.238,0.358 0.956,1.314 1.194,1.434 2.271,-0.358 2.27,-0.239 2.031,0 2.031,0 1.314,0.239 1.314,0.12 1.672,0.478 1.673,0.478 0.598,0.358 0.478,0.239 0.837,0.12 0.955,0.358 1.075,0.12 1.195,0.119 0.239,0.836 0.238,0.956 0.598,0.836 0.358,1.075 0.598,0.956 0.478,0.956 1.194,1.672 1.195,1.673 1.314,1.792 1.194,1.673 3.106,4.181 2.986,3.346 2.868,3.464 2.986,3.584 1.792,1.792 1.434,0.836 0.717,1.075 1.075,1.912 0.837,1.912 1.911,1.314 1.434,1.434 1.195,1.434 1.075,1.912 0,1.434 -0.358,1.553 0.358,1.434 0.119,0.717 -0.119,0.836 -0.358,0.956 -0.358,0.717 -0.358,0.717 0,0.717 0.358,0.956 0.239,0.717 0.238,0.836 -0.238,0.956 -0.358,1.076 -0.239,0.836 0.119,0.836 0.479,1.075 0.358,0.836 -0.12,1.314 -0.119,1.075 0.119,0.836 0.12,1.194 0.238,1.076 0.479,1.194 0.119,1.076 0,1.672 0,1.195 0.358,0.836 0.478,0.717 0.12,1.314 0.119,1.553 0.956,1.434 0.717,0.836 0.956,0.956 1.194,1.434 0.478,0.836 0.598,0.597 1.553,0.836 1.314,1.195 0.358,0.239 0.479,1.434 0.597,1.314 -0.119,1.553 -0.119,1.553 0.836,1.673 0.717,1.792 -1.314,1.912 0.479,3.345 -0.239,2.151 -0.358,2.15 0.239,3.345 0.717,2.509 0.717,2.509 0.358,3.464 0.119,2.39 1.554,3.226 1.553,3.106 0.717,2.39 0,2.031 -0.119,1.194 3.345,0.239 2.629,4.301 2.031,3.823 3.465,2.509 3.584,2.39 0.119,1.912 -0.239,2.509 -0.238,2.509 7.407,2.748 7.288,2.867 1.194,1.554 0,3.703 0.239,1.195 0.119,1.313 1.434,0.837 1.314,0.836 0.836,0.836 1.076,0.717 0.358,0.598 0.478,0.598 0.358,1.314 0.239,1.075 0.955,1.911 0.956,1.792 0.479,1.314 0.596,1.195 0,0 z"
         id="MUN_0102" /></g></g></svg>