<?xml version="1.0" encoding="UTF-8" standalone="no"?>
<!-- Generator: Adobe Illustrator 16.0.0, SVG Export Plug-In . SVG Version: 6.00 Build 0)  -->

<svg
   xmlns:dc="http://purl.org/dc/elements/1.1/"
   xmlns:cc="http://creativecommons.org/ns#"
   xmlns:rdf="http://www.w3.org/1999/02/22-rdf-syntax-ns#"
   xmlns:svg="http://www.w3.org/2000/svg"
   xmlns="http://www.w3.org/2000/svg"
   xmlns:sodipodi="http://sodipodi.sourceforge.net/DTD/sodipodi-0.dtd"
   xmlns:inkscape="http://www.inkscape.org/namespaces/inkscape"
   version="1.1"
   id="SvgMunicipio"
   x="0px"
   y="0px"
   width="629.405px"
   height="999.985px"
   viewBox="64.057 118.035 629.405 999.985"
   enable-background="new 64.057 118.035 629.405 999.985"
   xml:space="preserve"
   inkscape:version="0.91 r13725"
   sodipodi:docname="MUN_ID0106.svg"><metadata
     id="metadata10"><rdf:RDF><cc:Work
         rdf:about=""><dc:format>image/svg+xml</dc:format><dc:type
           rdf:resource="http://purl.org/dc/dcmitype/StillImage" /></cc:Work></rdf:RDF></metadata><defs
     id="defs8" /><sodipodi:namedview
     pagecolor="#ffffff"
     bordercolor="#666666"
     borderopacity="1"
     objecttolerance="10"
     gridtolerance="10"
     guidetolerance="10"
     inkscape:pageopacity="0"
     inkscape:pageshadow="2"
     inkscape:window-width="1366"
     inkscape:window-height="705"
     id="namedview6"
     showgrid="false"
     inkscape:zoom="0.23600354"
     inkscape:cx="314.70251"
     inkscape:cy="499.99249"
     inkscape:window-x="-8"
     inkscape:window-y="-8"
     inkscape:window-maximized="1"
     inkscape:current-layer="svg" /><g
     id="g3"><path
       id="MUN_0106"
       d="m 693.462,817.338 -4.525,22.303 -15.596,77.736 -0.081,0.404 -0.08,0.081 0,0 -0.323,1.535 0,1.696 -0.081,1.697 0.404,1.293 0.242,0.728 0.889,0.323 0.646,0.323 0.889,0.161 0.728,0.242 0.808,0.728 0.566,0.889 0.403,2.021 0.081,0.97 -0.484,1.858 -0.566,2.021 -0.808,2.02 -0.646,1.455 -0.081,1.212 -0.404,2.101 -0.242,2.344 -0.404,3.07 0.081,2.748 0,2.101 0.323,1.858 0.485,2.748 0.889,2.02 0.728,1.778 0.323,2.989 -1.213,6.627 0.323,4.687 0.89,4.849 -0.162,5.01 -0.728,5.495 -1.293,4.768 -2.908,4.687 -3.637,3.475 -4.202,3.313 -2.101,2.666 -4.525,3.96 -1.374,2.99 -0.242,3.555 0.162,2.99 -0.97,2.182 -3.071,0.404 -2.666,1.939 1.696,1.777 5.495,9.697 0.323,0.404 5.818,10.182 -19.637,5.737 -118.301,37.171 -2.828,0.404 -0.646,0.161 -24.404,8.323 -0.242,0.161 -1.454,0.485 -3.879,1.212 -1.212,0.404 -13.01,4.121 -7.192,2.424 -5.172,2.344 -5.494,2.586 -4.364,2.101 -2.263,0.889 -2.828,0.728 -5.494,0.323 -1.132,-0.242 -3.717,-1.535 -2.667,-0.809 -0.565,-0.161 -2.101,-0.728 -3.152,-0.646 -1.05,-0.242 -3.395,-0.404 -4.363,-0.484 -5.091,-0.323 -6.384,-0.646 -2.747,-0.404 -2.425,-0.565 -4.768,-0.646 -3.151,-0.89 -1.454,-0.646 -1.778,-0.89 -6.303,-1.212 -4.768,-0.808 -0.484,-0.162 -0.162,0 0,0 -2.828,-0.484 -1.535,-0.243 -3.798,-0.97 -2.263,-0.727 -0.242,-0.162 -6.061,-1.939 -2.909,-0.97 -1.293,-0.97 -1.132,-1.615 -0.565,-1.697 -0.565,-1.374 -0.485,-1.374 -0.08,-0.161 -3.395,-3.475 -4.524,-4.121 -4.121,-3.151 -0.89,-0.646 -1.05,-1.132 -1.293,-1.05 -2.748,-2.506 -1.616,-1.292 -1.293,-0.97 -4.605,-3.798 -2.667,-3.556 -0.808,-0.97 -1.858,-1.293 -4.121,-2.263 -0.323,-0.242 -0.081,-0.162 -3.798,-2.263 -1.535,-0.889 -3.718,-1.293 -1.696,-0.728 -2.828,-1.05 -1.132,-0.485 -1.858,-0.565 -0.485,-0.081 -4.201,-1.777 -2.505,-1.455 -1.939,-0.808 -2.748,-1.293 -3.151,-2.586 -4.282,-3.475 -4.688,-4.121 -1.05,-0.565 -6.142,-2.99 -2.909,-1.535 -1.454,-0.485 -2.102,-1.131 -1.293,-0.889 -2.182,-1.374 -1.454,-0.728 -1.535,-0.808 -2.505,-0.97 -2.748,-1.535 -0.484,-0.162 -3.556,-1.212 -3.071,-0.484 -1.05,-0.323 -3.96,-0.89 -3.07,-0.565 -3.232,-0.242 -1.535,-0.242 -0.646,-0.081 -1.697,-0.565 -1.293,-0.646 -1.293,-0.485 -1.212,-0.808 -1.131,-0.728 -1.051,-0.97 -0.646,-0.565 -3.07,-3.07 -1.859,-2.425 -1.535,-2.101 -1.373,-1.858 -0.566,-0.646 -6.787,-2.909 -0.162,-0.646 -0.323,-0.404 -0.484,-0.404 -1.697,-0.889 -4.768,-2.989 -0.242,-0.081 -0.404,-0.242 -1.293,-0.485 -2.586,-0.081 -0.646,0.081 -0.646,0 -0.727,-0.323 -0.404,-0.484 -2.425,-0.97 -8.08,-4.121 -0.323,-0.162 -2.748,-1.535 -2.908,-1.616 -3.637,-1.131 -2.021,-0.566 -2.02,-0.646 -4.444,-1.696 -3.232,-1.374 -2.99,-1.616 -3.151,-1.939 -2.101,-1.051 -0.485,-0.484 -3.636,-4.687 -2.667,-2.99 -2.182,-2.586 -0.242,-0.323 -0.97,-1.131 -0.323,-0.485 -0.97,-1.293 -2.505,-3.878 -0.728,-0.97 -2.263,-2.99 -1.697,-1.939 -1.777,-2.586 -0.404,-0.484 -2.343,-2.667 -2.183,-2.828 -0.323,-0.323 -2.585,-3.475 -3.313,-4.202 -0.889,-1.131 -1.858,-2.102 -1.616,-2.182 -2.021,-2.747 -1.697,-1.697 -0.161,-0.161 -1.616,-1.778 -1.535,-2.424 -2.425,-2.828 -4.848,-6.304 -2.586,-2.989 -1.536,-2.263 0,0 -2.02,-2.667 -4.444,-5.656 -3.395,-3.96 0,0 -1.131,-1.535 -1.616,-2.263 -0.808,-0.727 -1.536,-1.939 -2.101,-2.505 -0.323,-0.404 -1.697,-1.858 -1.535,-2.344 -0.808,-0.97 -2.263,-3.556 -0.97,-1.535 -0.646,-1.131 -0.728,-0.89 -4.121,-4.444 -2.747,-2.989 -0.081,-0.081 0,0 -2.747,-2.909 0,-0.081 -1.374,-1.858 -0.809,-1.696 -0.889,-1.859 -0.242,-0.403 -1.293,-4.606 -0.646,-5.091 -0.081,-0.242 22.869,-82.262 0.646,0.242 0.646,0.404 0.566,0.485 0.323,0.727 -0.081,2.909 0.242,0.728 0.565,0.808 0.566,0.566 0.97,0.08 1.05,0.081 1.051,0.081 1.374,0 1.373,0 1.859,0.081 1.373,0 1.697,-0.081 1.535,-0.162 1.374,-0.242 1.373,-0.404 1.374,-0.484 1.535,-0.646 1.535,-0.728 1.939,-1.212 1.213,-0.97 0.727,-1.051 0.809,-0.403 0.97,0.08 0.565,0.728 0.484,1.051 0.404,1.131 0.565,1.213 0.485,1.292 0.323,0.97 0.323,0.97 0.484,0.728 1.132,0.404 0.889,-0.323 1.051,-0.565 0.808,-0.97 0.162,-1.051 -0.162,-1.697 -0.646,-2.02 -0.323,-1.778 -0.404,-1.454 -0.565,-0.809 -0.565,-1.212 -0.161,-0.889 0,-1.051 0.727,-1.212 0.646,-0.97 0.565,-1.051 0.404,-1.293 0.162,-1.293 0.161,-1.292 0,-1.051 -0.242,-0.97 -0.565,-0.889 -0.323,-1.293 -0.081,-0.97 0,-1.051 0.081,-0.97 0.565,-0.889 1.051,-0.404 1.05,-0.161 1.132,0 1.05,-0.081 1.051,-0.485 0.809,-0.808 0.161,-0.97 -0.081,-1.212 -0.484,-1.374 -0.646,-1.212 -0.889,-1.131 -0.809,-0.809 -1.373,-0.97 -1.293,-0.889 -1.374,-0.889 -1.212,-0.809 -0.728,-0.728 -0.081,-0.808 0.404,-0.646 0.889,-0.728 0.809,-0.565 0.808,-0.808 0.404,-0.809 0.161,-0.97 0.081,-0.97 0.162,-1.131 0.161,-1.051 0.404,-1.454 0.484,-4.121 0.728,-1.051 0.889,-1.212 0.809,-0.97 0.808,-0.809 0.97,-0.808 1.051,-0.809 1.131,-0.727 0.97,-0.646 1.051,-0.485 0.97,-0.323 0.889,-0.403 0.889,-0.728 0.081,-0.728 0,-0.889 -0.323,-0.889 -0.323,-0.809 -0.404,-0.97 -0.161,-0.889 0,-1.212 -0.081,-1.212 0.404,-0.97 0.808,-0.809 0.89,-0.565 0.969,-0.646 0.566,-0.808 0.565,-0.89 0.161,-0.97 0.081,-1.373 -0.081,-1.455 0,-0.97 -0.323,-1.293 -0.323,-1.293 -0.403,-0.97 -0.485,-1.05 -0.565,-0.97 -0.404,-0.809 -0.323,-0.727 -0.403,-1.132 -0.081,-0.808 0.484,-0.646 0.809,-0.162 1.05,-0.08 0.89,-0.485 0,-0.728 0,-1.131 0,-0.889 -0.243,-0.97 -0.565,-1.132 -0.404,-0.889 -0.565,-1.051 -0.484,-0.889 -0.728,-0.889 -0.728,-0.728 -0.808,-0.484 -0.97,-0.728 -0.646,-0.646 -0.404,-0.728 -0.081,-1.131 0,-1.212 0.081,-1.293 0.242,-1.455 0.323,-1.454 0,-1.132 -0.161,-1.212 -0.485,-0.727 -0.565,-0.809 -0.646,-0.728 -0.727,-0.727 -0.646,-0.89 -0.566,-0.889 -0.161,-1.131 0,-2.021 0.081,-1.051 0.484,-1.696 0.485,-1.293 0.808,-1.778 0.485,-1.131 0.484,-1.051 0,-1.373 -0.242,-1.213 -0.485,-1.696 -0.403,-1.616 -0.323,-1.535 -0.243,-1.616 -0.08,-1.536 0,-1.131 0.08,-1.616 0.162,-1.616 0,-0.97 -0.081,-2.263 0.242,-0.808 0.566,-0.97 0.646,-0.889 1.455,-0.728 -0.323,-0.565 0,-1.455 -0.081,-1.454 -0.161,-0.728 -0.243,-0.728 -0.242,-0.727 -0.323,-0.728 -0.161,-0.404 -0.162,-0.484 0.162,-0.323 0.08,-0.323 0.162,-0.162 0.242,-0.161 0.242,-0.081 0.162,-0.081 0.404,-0.161 0.161,0 0.242,-0.081 0.162,-0.081 0.323,0 0.565,0 0.404,-0.08 0.484,-0.081 0.081,-0.162 0.162,-0.08 0.161,-0.243 0.081,-0.242 0,-0.808 -0.081,-1.132 0,-1.212 0,-1.616 0,-1.535 -0.242,-1.616 -0.242,-1.616 -0.243,-1.616 -0.161,-1.535 0.081,-1.939 0.08,-0.808 0.162,-0.809 0.323,-0.484 0.323,-0.485 0.242,-0.081 0.242,-0.08 0.566,-0.323 0.484,-0.323 0.242,-0.323 0.162,-0.485 -0.162,-0.323 -0.081,-0.323 -0.08,-0.484 -0.081,-0.323 -0.323,-0.323 -0.242,-0.404 -0.565,-0.404 -0.485,-0.484 0,-0.242 0,-0.162 0.242,-0.242 0.404,-0.242 0.404,-0.162 0.323,-0.161 0.565,-0.404 0.242,-0.323 0.162,-0.242 0.808,-0.242 0.323,-0.081 0.485,0 0.403,-0.162 0.404,-0.08 0.404,-0.485 0,-0.565 0,-0.97 0,-1.132 0.081,-0.403 0.161,-1.616 0.162,-2.021 0,-1.293 0.161,-2.02 0.081,-1.939 0,-2.909 -0.485,-1.455 -0.646,-1.535 -1.212,-2.424 -1.212,-2.505 -0.646,-0.485 -0.728,-0.565 -0.808,-0.646 -0.323,-0.565 -0.323,-0.565 -0.081,-1.051 -0.161,-1.051 -0.162,-1.858 -0.323,-0.809 -0.404,-0.808 0,-0.97 -0.08,-1.051 -0.323,-0.242 -0.243,-0.323 -0.323,-0.728 -0.242,-0.646 -0.242,-0.323 -0.162,-0.403 -1.05,-0.081 -0.728,-0.808 0,-0.485 -0.081,-0.484 -0.403,-0.243 -0.485,-0.161 -0.323,-0.809 -0.242,-0.403 -0.323,-0.404 0.323,-0.728 0.323,-0.646 0.323,-0.323 0.242,-0.323 0.081,-0.646 0,-0.565 -0.242,-0.404 -0.243,-0.323 -0.808,-0.403 -0.565,-0.323 -0.485,-0.404 -0.323,-0.485 -0.242,-0.565 0.242,-0.565 0.404,-0.484 0.242,0 2.182,-0.323 3.071,-0.162 1.293,0 4.121,0 3.717,0.081 3.475,-0.162 1.212,0 1.132,0 0.08,2.586 0.081,0.809 3.96,0 2.666,-0.162 2.425,-0.323 3.232,-0.323 3.313,-1.212 3.475,-1.374 3.313,-1.454 -0.728,-0.728 2.263,-4.363 0.404,-3.475 5.091,-0.646 5.01,-1.293 1.455,-0.728 1.373,-0.646 0.97,-0.646 0.809,-0.728 0.403,-0.646 1.778,-2.747 0.404,-0.728 0.323,-0.889 0.242,-0.161 0.323,-0.162 0.646,-0.242 0.323,-0.162 0,-0.161 0,-0.404 -0.081,-0.403 0,-0.485 -0.081,-0.404 0,-0.242 0,-0.242 0,-0.323 0,-0.242 0,-0.162 0.162,-0.161 0.646,-0.081 0.808,0.081 0.728,0.08 0.728,0 0.565,0 0.484,-0.161 0.485,0 0.403,-0.081 0.404,-0.161 0.404,-0.162 0.242,0 0.162,0 0.323,0 0.242,-0.081 0.404,0 0.484,-0.161 0.809,-0.404 0.646,-0.161 0.403,0 0.485,0.08 0.97,-0.161 1.05,-0.162 0.566,-0.08 0.484,-0.162 0.242,-0.081 0.243,-0.161 0.08,-0.242 0.081,-0.162 131.635,-85.897 208.481,-194.421 128.402,-119.594 0,2.182 0.161,3.151 -0.161,1.859 -0.162,2.262 -0.242,2.748 0,2.182 0.081,1.777 0.404,2.021 0.808,1.939 0.808,1.858 0.809,1.939 0.889,1.293 1.132,1.131 1.05,1.131 0.566,2.263 0.403,2.586 0.081,2.263 0.081,1.616 -0.565,2.424 -0.243,2.101 0.081,0.646 0.323,1.293 0.646,1.374 0.646,1.212 0.081,1.05 -0.404,0.889 -0.728,0.727 -0.97,1.131 -1.05,1.05 -1.374,1.293 -1.212,0.97 -1.132,1.212 -0.565,1.293 -0.728,1.616 -0.484,1.374 -0.809,1.536 -0.97,1.535 -0.727,1.697 0,1.212 0.403,1.535 0.243,1.374 0.08,1.292 0.404,0.646 0.97,0.485 1.212,0.242 1.132,0 0.727,0.565 0.89,0.404 1.05,0.565 0.243,0.808 -0.081,1.131 -0.404,0.728 -0.484,0.808 -0.323,1.293 -0.728,0.808 -0.809,0.646 -0.484,1.131 0,1.051 -0.081,1.131 -0.97,1.212 -1.212,1.455 -1.051,1.454 -1.131,0.889 0.161,0.242 0.485,1.455 0.081,1.212 -0.081,1.131 -0.97,1.212 -0.809,0.727 -1.05,0.485 -1.051,0.728 -0.081,1.455 0.162,2.909 0.161,2.101 0,1.293 0.081,1.212 -0.404,0.808 -0.808,0.808 -0.646,0.646 0.081,0.97 0.484,1.212 0.242,1.454 0,1.293 0.081,1.293 0.323,1.131 0.242,1.293 0.404,1.05 0.162,0.889 0.08,0.727 -0.161,0.808 -0.728,0.646 -0.404,0.566 0.485,1.131 0.484,1.374 0.243,1.858 0,0.081 -0.566,1.939 -0.727,1.212 -0.081,1.05 0.161,0.97 0.646,0.97 0.728,0.727 0.565,0.566 0.566,0.646 0.242,0.646 -0.485,0.565 -0.323,0.566 -0.161,0.727 0,0.808 0.484,0.646 0.728,0.485 0.889,0.323 0.809,0.404 0.403,1.051 -0.08,0.889 -0.404,0.97 0,0.97 0.728,0.97 0.808,1.05 0.485,1.212 0.242,1.131 0.242,0.969 0.889,1.212 0.646,0.727 1.293,1.212 0.889,1.293 0.646,1.292 0.162,0.889 0.404,1.293 0.565,1.212 1.212,1.212 1.454,1.697 2.021,1.374 1.374,1.374 1.05,1.858 0.646,1.939 0.243,1.858 0.403,1.858 0.162,1.939 0,1.697 -0.565,1.535 -0.89,1.293 -1.535,1.616 -0.889,1.455 0.081,0.889 0.889,0.485 1.535,0.97 1.535,1.374 0.89,1.293 0.08,1.616 -0.403,2.182 -0.404,1.859 -0.728,2.667 0,2.02 -0.242,1.778 -0.081,1.293 -0.404,1.455 -0.889,1.455 -1.131,1.778 -1.293,1.535 -1.051,1.455 -0.404,1.212 -0.161,1.293 0.161,0.97 0.485,0.646 0.808,0.808 1.536,0.727 1.131,0.889 0.728,0.727 0.161,0.97 0,1.212 0.242,0.646 0.404,1.212 0.97,1.616 0.565,1.454 -0.161,0.808 -0.485,0.728 -0.808,0.808 -0.809,0.485 -1.212,0.727 -1.131,0.485 -1.374,0.485 -0.97,0.646 -0.484,0.889 -0.566,0.646 -1.05,0.808 -0.323,0.646 0.161,0.728 0.323,0.727 0.566,1.212 -0.404,1.212 -0.646,0.727 -0.809,0.97 -0.161,0.728 0.484,1.616 0.404,1.536 0.242,1.858 -0.081,1.778 -0.808,1.455 -1.616,1.858 -1.212,1.778 -1.293,1.939 -0.97,1.535 -0.889,1.374 -0.646,1.455 -0.323,1.293 -0.323,1.374 -0.728,1.212 -0.565,0.97 -0.889,0.889 -0.97,0.889 -0.728,0.97 -0.242,0.808 0.323,1.212 0.728,1.05 1.05,1.697 0.809,1.535 0.242,1.131 0,1.05 -0.242,1.131 -0.809,1.374 -1.131,1.939 -1.051,1.778 -0.646,1.212 -0.404,1.293 -0.08,1.777 0,2.99 0.242,1.858 -0.162,1.454 -0.323,1.616 -0.403,1.132 0.08,0.889 0.485,0.97 0.484,1.777 0.162,1.536 0.161,1.373 0.323,1.132 0.728,0.889 0.728,1.051 0.646,1.212 0.565,1.293 0.161,0.242 0.97,1.535 0.728,0.889 0.485,1.051 0.484,2.182 0.485,2.021 -0.081,0.889 -0.485,0.485 -0.97,0.646 -0.727,0.646 -0.243,0.727 0.404,1.132 0.242,1.858 0.162,1.616 0.161,0.889 0.728,0.808 0.323,0.809 0,0.97 -0.404,0.728 -0.646,0.646 -0.97,0.808 -0.889,0.484 -1.373,0.081 -3.232,0.081 -1.455,0.161 -1.131,0.485 -0.646,1.051 -0.323,1.293 -0.242,4.929 0.08,4.606 -0.242,1.05 -0.484,0.97 -0.243,0.89 0.081,0.808 0.565,0.646 0.646,0.565 0.97,0.728 1.051,0.728 2.021,1.373 1.05,0.809 0.809,0.646 0.889,0.889 0.808,0.728 0.809,0.97 0.484,0.808 0.243,0.808 -0.162,0.89 -0.404,0.727 -0.565,0.728 -0.484,0.728 -0.404,0.646 0,0.728 0.162,0.646 0.565,0.565 1.616,0.889 0.808,0.646 0.485,1.051 0.08,0.97 -0.161,1.05 -0.081,1.212 0.081,4.769 0.081,0.889 0.323,0.97 0.323,0.808 0.08,1.051 0.162,0.728 0.404,0.727 0.484,0.404 0.728,0.242 0.161,0.081 0.646,0.404 0.728,0.889 0.808,1.212 0.646,1.455 0.728,0.889 1.051,0.889 0.728,0.808 0.484,0.89 0.161,1.131 0,1.132 -0.242,1.454 -0.403,1.454 -0.485,1.213 -0.565,1.939 -0.081,1.454 -0.081,0.728 -0.403,0.889 -0.646,0.728 -0.646,0.646 -0.566,0.97 -0.242,0.808 0,1.051 0.404,2.263 0.081,1.212 -0.081,0.808 -0.242,0.809 0,0.889 0.323,0.97 0.161,0.808 0,1.213 0.162,1.535 0.403,1.05 0.728,1.616 0.728,1.213 0.727,1.696 0.324,1.535 -0.162,1.939 0.081,1.858 0.081,1.293 0,1.132 -0.404,1.212 -0.728,0.808 -1.131,0.566 -0.646,0.484 -0.809,0.809 -1.374,0.889 -0.484,0.646 -0.242,1.777 -0.809,1.616 -0.97,0.889 -0.727,0.97 -0.566,0.646 -0.646,0.809 -0.565,0.727 -0.323,0.809 -0.323,0.889 0.404,1.051 0,0.97 0.404,1.212 0.808,1.777 0.485,1.778 0.403,1.131 0.081,1.616 -0.161,0.889 -1.051,0.728 -0.646,0.728 -0.728,0.646 -0.97,0.484 -0.727,0.243 -0.809,0.565 -0.728,0.889 -1.131,0.97 -1.051,0.808 -0.97,0.566 -0.727,0.484 -0.646,0.646 -0.646,0.97 -0.243,0.646 0,1.293 -0.08,0.404 0.242,0.808 0.404,1.293 0.161,1.132 0.404,0.969 0.484,0.485 0.162,0.565 0,0.485 -0.162,0.565 -0.08,0.484 0.08,0.566 0.243,0.565 0,1.131 0.242,1.293 0.161,0.565 0.404,0.243 0.404,0.08 0.646,0 0.484,-0.161 0.889,-0.809 0.728,-0.161 0.889,-0.162 0.889,0.081 0.809,0.404 0.97,0.646 0.728,0.97 0.323,0.646 0.161,0.565 0.081,0.646 0,0.808 -0.242,0.89 -0.323,0.646 -0.646,0.727 -2.586,3.151 -0.565,0.646 -0.243,0.728 0,0.728 0.162,0.404 0.97,0.97 1.05,1.131 0.728,1.697 0.728,0.646 0.484,0.484 0.323,0.728 0,0.808 0,0.809 0.243,0.646 0.323,0.727 0.323,0.566 0,0.484 -0.809,0.728 -0.565,0.889 -0.081,0.404 0,0.889 -0.161,1.051 -0.162,0.889 -0.242,2.263 -0.485,1.374 -1.05,2.828 -0.243,0.565 0,0.728 0.324,1.212 0.403,0.808 0.243,0.485 0.242,2.263 0.323,0.727 0.161,0.485 0.242,0.808 0.162,0.728 0,0.404 0.081,2.586 0.08,2.263 0,0.808 -0.323,1.051 -0.484,0.727 -1.616,1.536 -0.889,1.131 -0.809,0.808 -0.727,0.646 -0.404,0.566 -0.485,0.808 -0.484,0.728 -1.374,1.051 -0.646,0.565 -0.97,0.646 -0.646,0.484 -0.727,0.404 -1.051,0.161 -0.809,0.323 -0.646,0.485 -0.242,0.484 0,0.97 0.242,0.89 0.404,0.484 0.081,0.242 0.323,0.646 0.484,0.728 0.162,0.323 0.081,0.404 0.08,0.727 -0.161,0.97 -0.242,0.728 -0.485,0.646 -0.728,0.646 -1.05,0.242 -1.132,0.081 -0.97,0.161 -1.05,0.243 -1.293,0.565 -1.051,0.808 -1.051,0.89 -1.696,2.02 -0.97,1.455 -0.889,1.616 -0.809,2.101 -0.646,1.293 -0.323,1.051 -0.242,1.05 -0.242,0.89 -0.485,0.889 -0.323,0.728 -0.484,0.565 -0.404,0.646 -0.242,0.808 -0.162,0.565 -0.081,0.566 -0.08,0.565 0,0.565 0.08,1.051 0.243,1.05 0.081,0.809 0.08,1.131 0.081,0.89 0,1.05 -0.323,1.535 -0.404,0.89 -0.565,0.808 -0.646,0.565 -0.889,0.646 -1.132,0.646 -1.293,0.646 -0.565,0.485 -0.808,0.565 -0.323,0.889 -0.242,0.889 0,0.809 0.08,1.535 0.243,1.131 0.161,0.566 -0.081,0.484 -0.808,1.455 -0.162,0.808 -0.484,0.889 -0.646,1.051 -0.485,1.131 -0.323,1.132 0.162,1.374 0.646,1.131 0.646,0.889 0.484,0.97 0.243,0.809 0.08,0.889 0.323,0.889 0.162,0.889 0.081,2.505 0,0.728 0.242,1.293 0.404,0.565 0.646,0.809 0.727,0.889 0.97,1.293 0.565,1.051 0.809,2.263 0,1.292 -0.242,1.697 -0.566,1.374 -0.97,1.616 -1.131,1.696 -1.212,1.697 -0.97,1.212 -0.485,0.809 -0.08,0.484 0.242,0.97 0.161,0.485 0.566,0.646 1.454,1.454 0.808,0.809 0.646,0.484 0.728,0.404 0.323,0.323 0.323,0.484 0.162,0.565 0,0.081 0.08,0.565 0.162,0.728 0,0.97 0.081,0.728 0.08,0.889 0.081,0.808 0,0 0,0.323 0.081,0.323 0,0 0,0.323 0.081,0.323 0,0 0.08,0.243 0.081,0.242 0.081,0.808 0.404,0.404 0.322,0.404 0.324,0.404 0.808,1.373 0.97,1.374 0.646,1.051 0.565,1.212 0.485,1.696 0.323,1.132 0.242,0.97 0.646,2.263 0.565,1.696 0.162,0.646 0.161,0.566 0,1.131 -0.081,0.485 0,0.565 -0.161,0.808 -0.081,0.809 0,0.565 0.081,0.565 0.081,0.404 0.08,0.323 0.242,0.484 0.162,0.485 0,0.081 0.242,0.646 0.242,0.484 0.243,0.808 0.242,0.646 0.404,1.536 0.161,0.97 0.081,1.05 0.242,0.646 0.242,0.728 0.646,2.021 0.646,1.777 0.404,0.404 0.323,0.404 1.051,1.212 0.565,0.484 0.404,0.485 0.646,0.565 0.484,0.646 1.051,0.97 0.242,0.161 0.162,0.404 0.242,0.404 0.323,0.808 0.081,0.485 0.08,0.565 0,1.616 -0.08,1.535 -0.081,2.828 0.161,1.697 0.404,1.131 0.646,1.212 1.131,1.778 0.646,0.97 0.485,0.97 0.97,1.696 0.323,0.404 0.323,0.485 0,0 0,0.08 0.081,0 0.484,0.323 0.728,0.323 0.728,0.323 0.727,0.243 0.728,0.161 0.728,0.323 0.646,0.162 0.565,0.161 0.646,0.162 0.646,0.08 0.889,0.323 0.889,0.566 0.809,0.808 0.161,0.404 0.242,0.403 0.081,0.323 0.081,0.323 -0.242,1.213 0.08,0.161 0.081,0.162 0.242,0 0.243,0 1.373,0.403 1.535,0.081 0.243,0.081 0.242,0 1.293,0.081 0.565,0 1.212,0.565 0.404,0.242 0.404,0.162 0.728,0.565 0.484,0.565 0.565,0.484 0.242,0.566 0.323,0.403 0.404,1.213 0.323,0.727 0.162,0.162 0.08,0.404 0.162,0.323 0.161,0.808 0.081,0.161 0,0.243 0.242,0.889 0.404,1.616 0.404,0.646 0.403,0.646 1.051,0.484 0.809,0.162 0.808,0.161 6.476,1.294 z"
       inkscape:connector-curvature="0"
       class="DEP_01 ZON_01" /></g></svg>