<?xml version="1.0" encoding="UTF-8" standalone="no"?>
<!-- Generator: Adobe Illustrator 16.0.0, SVG Export Plug-In . SVG Version: 6.00 Build 0)  -->

<svg
   xmlns:dc="http://purl.org/dc/elements/1.1/"
   xmlns:cc="http://creativecommons.org/ns#"
   xmlns:rdf="http://www.w3.org/1999/02/22-rdf-syntax-ns#"
   xmlns:svg="http://www.w3.org/2000/svg"
   xmlns="http://www.w3.org/2000/svg"
   xmlns:sodipodi="http://sodipodi.sourceforge.net/DTD/sodipodi-0.dtd"
   xmlns:inkscape="http://www.inkscape.org/namespaces/inkscape"
   version="1.1"
   id="SvgMunicipio"
   x="0px"
   y="0px"
   width="358.431px"
   height="1000.02px"
   viewBox="64.129 118.098 358.431 1000.02"
   enable-background="new 64.129 118.098 358.431 1000.02"
   xml:space="preserve"
   inkscape:version="0.91 r13725"
   sodipodi:docname="MUN_ID0110.svg"><metadata
     id="metadata10"><rdf:RDF><cc:Work
         rdf:about=""><dc:format>image/svg+xml</dc:format><dc:type
           rdf:resource="http://purl.org/dc/dcmitype/StillImage" /></cc:Work></rdf:RDF></metadata><defs
     id="defs8" /><sodipodi:namedview
     pagecolor="#ffffff"
     bordercolor="#666666"
     borderopacity="1"
     objecttolerance="10"
     gridtolerance="10"
     guidetolerance="10"
     inkscape:pageopacity="0"
     inkscape:pageshadow="2"
     inkscape:window-width="1366"
     inkscape:window-height="705"
     id="namedview6"
     showgrid="false"
     inkscape:zoom="0.23599528"
     inkscape:cx="179.2155"
     inkscape:cy="500.01001"
     inkscape:window-x="-8"
     inkscape:window-y="-8"
     inkscape:window-maximized="1"
     inkscape:current-layer="svg" /><g
     id="g3"><path
       id="MUN_0110"
       d="m 422.56,225.33 -0.105,0.212 -0.318,0.743 -0.638,0.956 -0.105,0.212 -0.106,0.106 -0.318,0.212 -0.318,0.425 -0.106,0.425 -0.213,0.425 0,0.637 0.213,0.318 0.106,0.425 0.105,0.212 0.318,0.318 0.531,0.743 0.318,0.425 0.213,0.319 0.105,0.318 -0.743,0 -1.273,0.212 -0.956,0.106 -0.85,0 -0.424,0 -0.213,0.106 -0.425,0.424 -0.212,0.212 -0.318,0.318 -0.213,0.319 -0.212,0.318 -0.106,0.106 -0.106,0.212 -0.637,0.637 -0.85,0.425 -1.698,0.743 -1.593,0.849 -2.229,1.062 -2.018,0.956 -0.105,0.212 0,0.318 0.212,0.637 0.212,0.85 0,0.425 0.106,0.425 0,1.486 0.106,0.955 0.106,0.531 0,0.637 0,0.637 0.105,0.637 0,0.955 0,0.637 0,0.637 -0.105,0.531 -0.106,0.531 -0.106,0.637 0,0.318 -0.106,0.212 -0.105,0.106 -0.318,0.212 -0.319,0.212 -0.105,0.212 -0.213,0.212 -0.105,0.318 0,0.319 0.105,0.318 0.638,0.318 0.424,0.318 0.319,0.212 0.212,0.212 0.212,0.318 0.106,0.319 0.106,0.424 0.106,0.425 0,0.425 0,0.531 0,0.85 -0.106,0.743 -0.106,0.318 -0.106,0.318 -0.212,0.425 -0.106,0.318 -0.212,0.637 -0.213,0.531 -0.318,0.743 -0.425,1.168 -0.318,1.168 -0.318,1.38 -0.106,1.167 0.106,1.805 0,0.743 0,0.849 0.106,0.85 0,0.531 0.106,0.637 0.212,0.424 0.212,0.106 0.743,0 0.85,0 0.425,0 0.213,0.212 0.318,0.318 0.425,0.531 0.212,0.637 0.106,0.637 0.212,0.637 0.106,0.743 0.106,0.531 -0.106,0.743 -0.213,0.637 -0.318,0.637 -0.318,0.424 -0.318,0.425 -0.106,0.425 0,0.425 0,0.424 0.213,0.425 0.212,0.319 0.213,0.106 0.637,0.318 0.425,0.319 0.425,0.424 0.743,0.637 0.318,0.425 0.212,0.318 0.106,0.212 0.106,0.212 0,0.531 0,0.743 -0.106,0.956 -0.213,1.486 -0.212,0.637 -0.212,0.531 -0.106,0.425 0,0.637 0.106,1.168 0,0.85 0,0.849 -0.106,0.849 -0.106,0.85 -0.212,1.486 -0.318,1.062 -0.213,1.062 -0.318,0.849 -0.212,0.743 -0.106,0.956 -0.213,0.743 -0.105,0.637 -0.106,0.637 -0.212,1.062 0,1.38 -0.106,1.486 -0.106,1.486 -0.212,1.274 -0.106,1.699 -0.212,1.062 -0.319,1.805 -0.425,1.911 -0.424,1.911 -0.213,1.699 -0.212,1.592 -0.106,1.274 -0.106,0.956 -0.105,1.38 -0.213,1.699 -0.212,1.168 -0.106,0.956 -0.425,3.716 -0.53,5.202 -0.319,2.548 -0.212,1.911 -0.212,1.38 -0.106,0.743 -0.106,0.743 0,0.424 0,0.956 -0.106,0.637 0,0.425 -0.105,0.743 -0.106,0.531 0,0.956 -0.106,1.062 -0.106,1.062 -0.105,0.849 -0.106,0.956 -0.212,0.956 -0.106,0.531 -0.106,0.425 -0.212,1.805 0,0.956 -0.106,0.743 -0.318,2.867 -0.106,1.062 -0.106,2.018 -0.105,1.38 0.105,1.062 0.106,0.956 -0.106,0.743 -0.105,0.956 -0.318,1.699 -0.213,0.956 -0.106,1.062 -0.212,1.486 -0.213,1.486 -0.318,1.274 -0.212,1.805 -0.213,1.593 -0.212,1.167 0,0.637 -0.106,1.168 -0.105,1.062 -0.106,1.062 -0.106,0.849 -0.106,0.425 -0.105,0.531 -0.106,0.849 -0.212,1.274 -0.319,1.805 -0.318,1.699 -0.53,3.186 -0.213,1.273 -0.212,1.168 -0.213,0.637 -0.212,0.956 -0.106,0.955 -0.212,0.85 -0.106,0.85 0,0.53 -0.106,0.531 0.106,1.062 0.318,2.124 0,1.062 -0.106,0.955 0,0.638 0,0.637 0,1.698 0.106,1.063 0,2.123 0,0.425 0.213,1.168 0,1.911 0,0.955 -0.106,1.486 -0.106,1.062 -0.106,0.743 -0.212,0.85 -0.212,1.274 -0.425,1.911 0,0.212 -0.106,0.743 -0.425,1.381 -0.425,2.123 -0.318,1.062 -0.212,0.956 -0.213,0.849 -0.212,1.168 -0.213,1.274 -0.341,0.748 -0.318,0.955 -0.425,1.274 -0.318,1.486 -0.743,1.805 -0.318,0.956 -0.106,0.955 0,0 0.106,0 0.106,0 0.849,0.425 0.425,0.531 -2.017,7.325 -0.106,0.956 -1.168,8.068 0,0.106 -0.213,1.38 -0.212,1.381 -0.212,1.592 -0.213,1.063 0,0.318 -0.212,1.38 -0.213,1.38 -0.212,1.381 0,0.105 -0.531,8.176 -0.425,4.034 -0.212,1.486 -0.106,0.956 0,0.955 0.106,0.743 0,0.425 -0.106,0.318 -2.76,9.449 -0.638,1.699 -0.53,1.273 -0.531,1.699 -0.212,0.955 -0.213,1.593 -0.106,1.274 -0.105,1.486 -0.106,1.168 -0.106,0.955 0,0.318 -0.53,3.822 1.805,0.106 -0.318,1.911 -1.168,0 0.212,1.698 0,0.425 -1.168,0.213 -0.637,9.661 -1.38,8.918 -0.638,3.397 -0.743,3.186 -0.637,3.079 -0.637,3.078 -0.318,1.911 -0.319,2.442 0.106,2.123 0.106,1.381 0.212,2.441 -0.105,2.124 0,1.698 0,0.212 0,1.911 0.425,0.956 0.849,1.273 0.425,1.168 0.425,1.063 0.531,1.38 0.105,0.743 0.425,0.743 0.743,1.168 0.213,0.637 0.212,0.318 0.106,0.213 0.106,0.318 0.212,0.743 0.85,1.593 0.743,1.062 0.743,1.062 0.849,2.229 0.531,1.699 0.85,1.168 0.106,0.318 0.212,0.637 0,0.213 0,0 0.212,0.849 0.743,1.486 0.531,1.381 0.531,1.168 0.53,1.38 0.106,0.212 0.425,1.699 0.212,0.53 0.213,1.381 0.425,1.911 0.424,1.486 0.213,0.318 0.318,1.805 0.743,-0.106 0.637,3.61 0,2.548 -0.637,3.079 -0.531,1.593 -0.955,1.592 -0.212,1.063 -0.106,2.76 0.635,2.554 0.425,2.229 0.106,1.805 0.743,1.486 0.425,0.955 -0.425,1.593 -1.168,2.336 -0.531,1.274 0.106,1.062 0.106,0.955 0,0.743 -0.743,1.062 -1.062,1.487 -0.638,1.486 0,1.805 0,2.229 -0.637,2.123 -0.956,1.062 -1.486,1.806 -0.318,0.318 -0.212,0.318 -0.425,0.318 -0.106,0.425 -0.212,0.531 0,0.425 0,2.123 0,0.743 0.212,0.637 0.637,1.381 0.106,0.318 0.213,0.318 0,0.637 0,0 -0.106,0.637 -0.213,0.956 -0.105,0 0.212,3.079 0.106,5.521 -0.106,1.593 0,0.106 0,0.105 -0.212,0.85 -0.213,0.85 -0.105,0.425 -0.319,1.062 -0.105,0.85 -0.106,0.637 0,0.531 0,0.955 0.106,0.85 0.318,1.168 0.425,0.849 0.637,2.124 0.531,1.168 0.318,1.486 0.425,1.698 0.53,3.929 0.213,0.743 0,0.212 0,2.973 -0.213,1.168 -0.53,4.46 -1.274,4.777 0,0.637 0,0.106 -0.106,0.318 -0.105,2.229 -0.213,1.486 0,4.459 -0.212,0.638 -0.425,0.955 -1.062,2.442 -1.168,1.911 -0.425,1.167 0,0.425 0.318,0.743 0.425,0.85 0.106,0.425 0.105,0.106 0.106,0.212 0,0.106 -0.106,0.318 0,0.212 -0.105,0.319 -0.638,1.486 -0.53,1.805 -0.743,3.822 -0.425,0.425 -0.743,0.849 -0.213,0.213 -0.424,0.318 -0.531,1.38 -0.106,3.292 -0.105,0.637 -0.106,0.425 -0.425,0.955 -1.168,1.486 -0.425,0.743 0,0.319 0,0.212 0.106,0.637 0,0.106 0,0.106 0.212,0.849 0.106,0.319 0.106,0.53 0,0.637 -0.213,0.85 0,0.106 -0.105,0.531 -0.106,0.318 -0.106,0.212 -0.212,0.425 -0.531,1.062 -0.425,0.743 -0.425,0.956 0,0.849 0,0.531 0.319,2.123 0.318,2.867 0.105,0.955 0.106,0 0.318,0.956 0.638,1.062 0.318,0.531 0.425,0.849 0.105,0.743 0,0.318 0,0.213 -0.53,2.018 -0.638,0 -4.034,0 -4.247,0.637 -3.078,0.637 -1.911,0.531 -1.911,0.425 -0.318,0 -2.761,0.318 -2.867,0.212 -2.973,0.425 -1.062,0 -0.425,-0.106 -1.273,0 -0.318,0 -5.521,-0.318 -5.521,-0.425 -3.079,-0.105 -2.229,-0.213 -0.743,1.486 -0.213,0.638 -0.53,2.973 0,0.318 -0.638,2.866 0.319,3.822 -0.319,1.593 -0.637,1.38 -0.85,0.956 -0.637,-0.318 -0.743,-0.319 -1.38,-0.955 -0.85,-0.106 -2.018,-0.318 -1.273,-0.318 -1.168,-0.318 -3.397,-1.168 -3.291,-1.062 -3.504,-1.063 -0.425,-0.105 -1.38,4.141 -0.531,1.593 -2.229,-1.274 -3.928,-2.442 -5.097,-2.973 -0.106,0.213 -0.212,2.336 -0.212,1.91 -0.213,1.911 -0.318,2.124 -0.213,2.123 -1.273,9.662 -0.213,0 -0.318,-0.106 -1.593,-0.213 -2.123,-0.425 -1.593,-0.424 -1.486,-0.425 -1.273,-0.318 -1.168,-0.319 -1.168,-0.424 -0.85,-0.213 -0.85,-0.318 -2.123,-0.85 -1.168,-0.637 -0.106,0.212 -1.273,2.229 -1.168,4.141 -1.274,3.61 -2.654,2.761 -2.973,2.335 -2.973,0.638 -0.531,0.955 -0.105,1.911 -0.531,2.654 -1.168,3.186 -1.805,2.548 -0.318,4.141 0.106,2.761 -0.531,2.335 -0.531,0.638 -1.805,0.637 -2.761,0.531 -1.805,1.91 -1.486,2.336 -3.185,2.549 -2.549,2.866 -3.078,3.185 -0.638,2.018 -0.212,3.61 0.955,3.185 0.213,3.397 -0.213,3.504 -1.273,2.973 -0.638,2.441 0.425,0.531 0.213,0.637 0,0.638 0.212,1.38 0.318,2.761 0.425,2.654 0,0.743 -0.425,1.062 -0.425,0.955 -0.743,0.956 -0.637,0.955 -0.106,0.956 0.318,0.637 0.531,0.637 0.743,1.063 0.743,1.167 0.637,1.274 1.063,1.805 0.53,1.274 0.318,0.85 -0.105,1.38 0,1.38 -0.106,1.911 -0.106,1.699 -0.212,1.486 0.106,1.273 0.53,1.699 0.318,1.38 -1.062,-0.212 -0.637,-0.213 -1.168,-0.424 -0.956,-0.319 -0.955,-0.424 -0.637,-0.106 -0.319,0.106 -0.318,0.318 -0.318,0.425 -0.318,0.53 -0.212,0.531 -0.531,0.425 -0.425,0.212 -0.531,0.106 -0.849,0 -0.85,0 -0.637,-0.106 -0.638,-0.212 -0.743,-0.213 -0.637,-0.318 -0.637,-0.531 -0.743,-0.424 -0.638,-0.319 -0.955,-0.424 -0.956,-0.319 -1.167,-0.212 -1.168,-0.213 -1.168,-0.318 -1.062,-0.212 -2.442,-0.637 -1.062,-0.319 -1.062,-0.424 -0.425,-0.425 -0.956,-0.638 -1.911,-1.805 -1.592,-1.38 -0.743,-0.531 -1.274,3.291 -1.274,2.654 -2.017,2.442 -2.761,3.504 -1.274,3.079 -0.212,3.397 1.274,4.777 0.318,1.698 1.698,8.069 1.593,5.202 0.637,1.486 1.593,3.079 0.106,0.425 1.273,2.441 0.213,1.063 0.106,0.955 -0.213,3.929 -1.062,4.777 -0.85,5.84 0,4.246 -0.318,3.716 -0.637,9.025 -0.318,3.396 -0.638,1.381 -1.805,2.441 -2.654,4.354 -1.062,1.805 -2.973,4.99 -1.911,3.504 -1.38,2.123 -0.85,1.38 -3.716,3.079 -2.549,2.866 -1.486,3.079 -0.849,3.186 0.318,3.291 1.062,2.867 0.85,3.078 0.955,2.229 1.805,3.186 0.638,2.336 -0.318,1.273 -2.018,4.141 -1.062,2.867 0.212,4.247 0.106,2.76 -2.124,3.186 -2.229,3.079 -1.486,2.441 -1.486,2.867 -0.53,2.123 -0.743,3.397 -0.213,0 -0.212,-0.106 -3.079,-0.637 -4.034,-0.85 -2.974,-0.425 -2.866,-0.318 -1.168,-0.212 -0.955,-0.106 0,0 -0.106,0 -0.637,-0.106 -0.85,-0.105 -0.531,0 -1.38,-0.213 -4.565,-0.425 -3.291,-0.425 -3.61,-0.849 -3.928,-0.743 0,0.849 0,0.213 0,1.062 -0.106,1.168 -0.106,1.062 -0.105,2.229 0,1.062 -0.106,2.124 0,0.955 -0.106,3.291 -0.105,1.063 0.105,3.291 0,0.743 0.106,1.805 0.106,1.381 0.105,2.548 0,0.212 0.106,3.929 0,0.212 -0.318,2.761 -0.212,1.593 0,0.105 -0.319,3.504 -0.105,0.85 0,0.53 -0.319,4.141 0,0.106 -0.105,1.805 0,0.956 -0.106,1.273 0,0.638 -0.106,0.955 0,0.106 0,0.743 -0.425,3.397 -0.424,3.397 0,0.318 -0.425,3.397 0,0.956 -0.956,4.564 -0.105,0.744 -8.494,-1.699 -1.062,-0.212 -1.062,-0.213 -1.381,-0.637 -0.53,-0.85 -0.531,-0.85 -0.53,-2.123 -0.319,-1.168 0,-0.318 -0.105,-0.213 -0.213,-1.062 -0.212,-0.425 -0.106,-0.53 -0.212,-0.213 -0.425,-0.955 -0.531,-1.593 -0.425,-0.53 -0.318,-0.743 -0.743,-0.638 -0.637,-0.743 -0.956,-0.743 -0.53,-0.212 -0.531,-0.318 -1.593,-0.743 -0.743,0 -1.698,-0.106 -0.318,0 -0.318,-0.106 -2.018,-0.106 -1.805,-0.53 -0.318,0 -0.319,0 -0.105,-0.213 -0.106,-0.212 0.318,-1.593 -0.106,-0.425 -0.105,-0.425 -0.319,-0.53 -0.212,-0.531 -1.062,-1.062 -1.168,-0.743 -1.168,-0.425 -0.85,-0.106 -0.849,-0.212 -0.743,-0.212 -0.85,-0.213 -0.956,-0.425 -0.955,-0.212 -0.956,-0.318 -0.955,-0.425 -0.956,-0.425 -0.637,-0.425 -0.106,0 0,-0.106 0,0 -0.424,-0.637 -0.425,-0.531 -1.274,-2.229 -0.637,-1.273 -0.85,-1.274 -1.486,-2.336 -0.85,-1.593 -0.53,-1.486 -0.213,-2.229 0.106,-3.716 0.106,-2.018 0,-2.123 -0.106,-0.743 -0.106,-0.637 -0.425,-1.062 -0.318,-0.531 -0.212,-0.531 -0.318,-0.212 -1.381,-1.274 -0.637,-0.849 -0.85,-0.743 -0.53,-0.638 -0.743,-0.637 -1.381,-1.593 -0.425,-0.53 -0.53,-0.531 -0.85,-2.336 -0.85,-2.654 -0.32,-0.957 -0.318,-0.85 -0.106,-1.38 -0.212,-1.274 -0.531,-2.018 -0.318,-0.849 -0.318,-1.063 -0.318,-0.637 -0.318,-0.85 0,-0.105 -0.213,-0.638 -0.318,-0.637 -0.106,-0.425 -0.105,-0.53 -0.106,-0.743 0,-0.743 0.106,-1.063 0.212,-1.062 0,-0.743 0.106,-0.637 0,-1.486 -0.213,-0.743 -0.212,-0.85 -0.743,-2.229 -0.85,-2.973 -0.318,-1.274 -0.425,-1.486 -0.637,-2.229 -0.743,-1.593 -0.85,-1.38 -1.274,-1.805 -1.062,-1.806 -0.425,-0.53 -0.425,-0.531 -0.53,-0.53 -0.106,-1.062 -0.106,-0.319 -0.105,-0.318 0,0 -0.106,-0.425 0,-0.425 0,0 -0.106,-0.424 0,-0.425 0,0 -0.106,-1.062 -0.105,-1.168 -0.106,-0.956 0,-1.273 -0.212,-0.956 -0.106,-0.743 0,-0.106 -0.213,-0.743 -0.424,-0.637 -0.425,-0.425 -0.956,-0.531 -0.85,-0.637 -1.062,-1.062 -1.916,-1.908 -0.743,-0.85 -0.212,-0.637 -0.318,-1.274 0.105,-0.637 0.638,-1.062 1.273,-1.593 1.593,-2.229 1.486,-2.229 1.274,-2.123 0.743,-1.806 0.318,-2.229 0,-1.698 -1.062,-2.973 -0.743,-1.381 -1.274,-1.698 -0.955,-1.168 -0.85,-1.062 -0.531,-0.743 -0.318,-1.699 0,-0.955 -0.106,-3.292 -0.212,-1.167 -0.425,-1.168 -0.106,-1.168 -0.318,-1.062 -0.637,-1.274 -0.85,-1.168 -0.85,-1.486 -0.212,-1.805 0.425,-1.486 0.637,-1.486 0.85,-1.381 0.637,-1.168 0.213,-1.062 1.062,-1.911 0.106,-0.637 -0.213,-0.743 -0.318,-1.486 -0.106,-2.018 0,-1.062 0.318,-1.168 0.425,-1.168 1.063,-0.743 0.743,-0.637 1.698,-0.85 1.486,-0.85 1.168,-0.849 0.85,-0.743 0.743,-1.063 0.53,-1.167 0.425,-2.018 0,-1.38 -0.105,-1.168 -0.106,-1.486 -0.106,-1.063 -0.318,-1.38 -0.106,-1.38 0,-0.743 0.106,-0.743 0.106,-0.743 0.212,-0.743 0.318,-1.063 0.531,-0.849 0.637,-0.743 0.425,-0.956 0.637,-1.168 0.319,-1.168 0.318,-1.38 0.425,-1.38 0.849,-1.699 1.062,-2.76 1.168,-2.124 1.274,-1.911 2.229,-2.654 1.38,-1.168 1.381,-1.062 1.698,-0.743 1.381,-0.318 1.273,-0.212 1.486,-0.106 1.381,-0.318 0.955,-0.85 0.637,-0.85 0.319,-0.955 0.212,-1.274 -0.106,-0.955 -0.105,-0.531 -0.213,-0.425 -0.637,-0.955 -0.425,-0.85 -0.106,-0.318 -0.53,-0.638 -0.319,-1.167 0,-1.274 0.319,-0.637 0.849,-0.638 1.063,-0.425 1.38,-0.212 0.955,-0.531 0.85,-0.637 1.274,-0.85 0.849,-0.743 1.806,-1.38 0.637,-0.955 0.637,-1.063 0.531,-0.743 0.955,-0.849 1.063,-1.063 1.167,-1.486 2.124,-2.017 0.637,-0.956 0.425,-1.38 0,-1.062 -0.106,-2.973 -0.105,-3.397 0,-0.531 -0.213,-0.956 -0.318,-1.062 -0.212,-0.637 -0.425,-0.955 -0.318,-2.974 -0.319,-0.637 -0.53,-1.062 -0.425,-1.593 0,-0.955 0.318,-0.743 1.38,-3.717 0.638,-1.805 0.318,-2.973 0.212,-1.168 0.213,-1.38 0,-1.168 0.105,-0.531 0.743,-1.167 1.063,-0.956 0,-0.637 -0.425,-0.743 -0.425,-0.956 -0.318,-0.85 0,-1.062 0,-1.062 -0.425,-0.955 -0.637,-0.638 -0.956,-0.849 -0.955,-2.229 -1.381,-1.487 -1.273,-1.273 -0.213,-0.531 0,-0.955 0.318,-0.956 0.743,-0.849 3.397,-4.141 0.85,-0.956 0.425,-0.85 0.318,-1.168 0,-1.062 -0.106,-0.85 -0.212,-0.743 -0.425,-0.849 -0.955,-1.274 -1.274,-0.85 -1.062,-0.53 -1.168,-0.106 -1.168,0.212 -0.955,0.213 -1.168,1.062 -0.638,0.213 -0.849,0 -0.531,-0.106 -0.531,-0.318 -0.212,-0.743 -0.318,-1.699 0,-1.486 -0.318,-0.743 -0.106,-0.743 0.106,-0.637 0.212,-0.743 0,-0.638 -0.212,-0.743 -0.638,-0.637 -0.53,-1.274 -0.213,-1.486 -0.53,-1.698 -0.318,-1.062 0.105,-0.531 0,-1.698 0.319,-0.85 0.849,-1.274 0.85,-0.85 0.955,-0.637 1.274,-0.743 1.38,-1.062 1.487,-1.274 0.955,-1.168 1.062,-0.743 0.956,-0.318 1.273,-0.637 0.956,-0.85 0.849,-0.955 1.381,-0.956 0.212,-1.168 -0.105,-2.123 -0.531,-1.486 -0.637,-2.336 -1.063,-2.336 -0.53,-1.593 0,-1.273 -0.531,-1.38 0.425,-1.168 0.425,-1.063 0.743,-0.955 0.85,-1.062 0.743,-0.85 0.955,-1.274 1.274,-1.167 1.062,-2.124 0.318,-2.336 0.638,-0.849 1.805,-1.168 1.062,-1.063 0.85,-0.637 1.486,-0.743 0.955,-1.062 0.531,-1.593 0,-1.486 -0.106,-1.698 -0.106,-2.442 0.213,-2.548 -0.425,-2.018 -0.956,-2.229 -0.955,-1.593 -0.955,-2.123 -0.531,-1.38 -0.212,-2.018 0,-1.593 -0.213,-1.062 -0.425,-1.274 0,-1.168 0.318,-1.062 0.106,-1.062 -0.106,-1.593 -0.53,-2.973 0,-1.38 0.318,-1.062 0.743,-1.274 0.85,-0.85 0.849,-0.955 0.531,-1.168 0.106,-0.955 0.105,-1.911 0.744,-2.549 0.637,-1.592 0.53,-1.911 0.319,-1.911 0,-1.486 -0.213,-1.486 -0.637,-1.168 -0.956,-1.063 -1.38,-1.167 -0.955,-1.168 -0.85,-1.911 -1.062,-1.593 -0.956,-1.168 -0.85,-0.531 -0.212,-0.105 -0.956,-0.318 -0.637,-0.531 -0.53,-0.955 -0.213,-0.956 -0.106,-1.38 -0.424,-1.062 -0.425,-1.274 -0.106,-1.168 -0.106,-6.264 0.106,-1.593 0.212,-1.38 -0.105,-1.274 -0.638,-1.38 -1.062,-0.85 -2.123,-1.168 -0.743,-0.743 -0.213,-0.85 0,-0.955 0.531,-0.85 0.637,-0.956 0.743,-0.955 0.531,-0.955 0.212,-1.168 -0.318,-1.063 -0.637,-1.062 -1.062,-1.273 -1.063,-0.956 -1.167,-1.168 -1.063,-0.85 -1.38,-1.062 -2.654,-1.805 -1.38,-0.955 -1.274,-0.956 -0.85,-0.743 -0.743,-0.85 -0.105,-1.062 0.318,-1.168 0.637,-1.273 0.318,-1.381 -0.105,-6.052 0.318,-6.476 0.425,-1.699 0.849,-1.38 1.486,-0.638 1.911,-0.212 4.247,-0.106 1.805,-0.105 1.168,-0.638 1.274,-1.062 0.85,-0.85 0.53,-0.955 0,-1.274 -0.425,-1.062 -0.955,-1.062 -0.213,-1.168 -0.212,-2.123 -0.318,-2.442 -0.531,-1.486 0.318,-0.956 0.956,-0.849 1.273,-0.85 0.638,-0.637 0.105,-1.168 -0.637,-2.654 -0.637,-2.867 -0.638,-1.38 -0.955,-1.168 -1.274,-2.017 -0.212,-0.319 -0.743,-1.698 -0.85,-1.593 -0.955,-1.38 -0.956,-1.168 -0.425,-1.486 -0.212,-1.805 -0.212,-2.018 -0.638,-2.336 -0.637,-1.274 -0.106,-1.167 0.531,-1.486 0.425,-2.124 0.212,-1.911 -0.318,-2.441 0,-3.929 0.106,-2.336 0.53,-1.698 0.85,-1.593 1.38,-2.336 1.486,-2.548 1.063,-1.805 0.318,-1.486 0,-1.381 -0.318,-1.486 -1.063,-2.017 -1.38,-2.229 -0.955,-1.381 -0.425,-1.593 0.318,-1.062 0.955,-1.273 1.274,-1.168 1.168,-1.168 0.743,-1.274 0.955,-1.593 0.425,-1.805 0.425,-1.698 0.85,-1.911 1.168,-1.805 1.273,-2.018 1.699,-2.548 1.593,-2.336 2.123,-2.442 1.062,-1.911 0.106,-2.335 -0.318,-2.442 -0.531,-2.018 -0.637,-2.123 0.212,-0.955 1.062,-1.274 0.85,-0.955 0.531,-1.593 -0.743,-1.593 -0.425,-0.956 -0.213,-0.955 0.425,-0.85 1.381,-1.062 0.743,-0.85 0.637,-1.168 1.274,-0.849 1.805,-0.638 1.486,-0.637 1.593,-0.955 1.062,-0.638 1.062,-1.062 0.637,-0.955 0.213,-1.063 -0.743,-1.91 -1.274,-2.124 -0.53,-1.593 -0.319,-0.849 0,-1.593 -0.212,-1.274 -0.955,-0.955 -1.487,-1.168 -2.017,-0.956 -1.062,-1.062 -0.638,-0.85 -0.212,-1.273 0.212,-1.699 0.531,-1.592 1.38,-1.911 1.699,-2.018 1.486,-2.336 1.168,-1.911 0.53,-1.911 0.106,-1.698 0.318,-2.336 0,-2.654 0.956,-3.504 0.53,-2.441 0.531,-2.867 -0.106,-2.123 -1.168,-1.698 -2.017,-1.806 -2.018,-1.273 -1.168,-0.638 -0.106,-1.168 1.168,-1.91 2.018,-2.124 1.168,-1.698 0.743,-2.018 0,-2.229 -0.213,-2.548 -0.53,-2.442 -0.318,-2.441 -0.85,-2.549 -1.381,-2.441 -1.805,-1.805 -2.654,-1.806 -1.911,-2.229 -1.592,-1.592 -0.743,-1.593 -0.531,-1.699 -0.212,-1.167 -0.85,-1.699 -1.168,-1.699 -1.699,-1.593 -0.849,-0.956 -1.168,-1.592 -0.318,-1.274 -0.319,-1.487 -0.637,-1.592 -1.062,-1.38 -0.956,-1.274 0,-1.274 0.531,-1.274 0.106,-1.167 -0.531,-1.38 -1.062,-0.531 -1.168,-0.425 -0.955,-0.637 -0.638,-0.849 0,-1.062 0.213,-0.956 0.425,-0.743 0.637,-0.744 -0.318,-0.849 -0.743,-0.849 -0.743,-0.744 -0.956,-0.956 -0.849,-1.274 -0.213,-1.274 0.106,-1.38 0.955,-1.592 0.743,-2.548 0,-0.106 -0.318,-2.442 -0.637,-1.805 -0.637,-1.486 0.53,-0.743 0.956,-0.849 0.212,-1.062 -0.106,-0.956 -0.212,-1.167 -0.531,-1.38 -0.318,-1.699 -0.425,-1.486 -0.105,-1.699 0,-1.699 -0.319,-1.911 -0.637,-1.593 -0.106,-1.274 0.85,-0.849 1.062,-1.062 0.531,-1.062 -0.106,-1.593 0,-1.699 -0.212,-2.76 -0.213,-3.822 0.106,-1.911 1.38,-0.956 1.381,-0.637 1.062,-0.956 1.273,-1.593 0.106,-1.486 -0.106,-1.592 -0.637,-1.911 -0.212,-0.318 1.486,-1.168 1.38,-1.911 1.593,-1.911 1.274,-1.593 0.105,-1.486 0,-1.38 0.638,-1.486 1.062,-0.85 0.955,-1.062 0.425,-1.699 0.637,-1.062 0.531,-0.956 0.106,-1.486 -0.318,-1.062 -1.381,-0.743 -1.168,-0.531 -0.955,-0.743 -1.486,0 -1.593,-0.319 -1.274,-0.637 -0.53,-0.85 -0.106,-1.699 -0.318,-1.805 -0.531,-2.018 0,-1.573 0.956,-2.229 1.273,-2.018 1.063,-2.017 0.637,-1.805 0.955,-2.124 0.743,-1.699 1.486,-1.593 1.593,-1.274 1.805,-1.699 1.381,-1.38 1.273,-1.486 0.956,-0.956 0.53,-1.168 -0.105,-1.38 -0.85,-1.593 -0.85,-1.805 -0.425,-1.699 -0.105,-0.85 0.318,-2.76 0.743,-3.185 -0.106,-2.124 -0.106,-2.973 -0.53,-3.397 -0.743,-2.973 -1.381,-1.486 -1.486,-1.486 -1.168,-1.699 -1.062,-2.548 -1.062,-2.442 -1.062,-2.548 -0.531,-2.654 -0.105,-2.335 0,-2.867 0.318,-3.61 0.212,-2.973 0.213,-2.442 -0.213,-4.141 0,-2.867 20.173,-20.597 56.164,6.689 0,-0.85 0.106,-1.167 0.318,-1.38 0.318,-1.274 0.318,-1.593 0.318,-0.849 1.274,0.531 0.425,0.212 0.53,0.212 0.318,0.106 0.319,0.212 0.318,0 0.425,0.106 0.318,0 0.318,0 0.53,0 0.425,0 0.425,0.319 0.425,0.212 0.743,0.743 0.743,0.637 1.486,1.274 0.318,0.531 0.425,0.424 0.956,1.487 0.637,0.743 0.531,0.318 0.637,0.106 0.637,-0.106 0.531,0 0.955,-0.318 0.85,-0.743 0.318,-0.744 0.425,-0.849 0.531,-1.486 0.637,-0.956 0.318,-0.319 0.743,-0.743 0.743,-0.637 2.336,-1.699 1.699,-1.911 0.849,-1.486 0.106,-0.531 0.106,-0.531 -0.106,-1.274 0,-1.062 0.106,-0.212 0,-0.106 0.212,-0.212 0.213,-0.106 0.318,-0.318 0.425,-0.106 0.105,0.106 0.213,0 0.425,0.425 0.424,0.637 0.213,0.531 0.212,0.531 0.106,0.424 0.743,2.124 0.85,2.654 0.425,0.743 0.212,0.319 0.213,0.106 0.53,0.212 0.743,0.106 0.531,-0.106 0.85,-0.212 1.062,-0.318 0.743,-0.425 0.212,-0.212 0.318,-0.318 0.213,-0.106 0.637,-0.743 0.743,-0.743 0.743,-1.062 0.85,-0.956 1.698,-2.124 0.425,-0.743 0.531,-0.531 1.274,-1.805 0.212,-0.637 0.318,-0.637 0.106,-0.531 0.106,-0.637 0,-0.424 0,-0.531 -0.213,-0.531 -0.106,-0.424 -0.53,-0.85 -0.213,-0.531 -0.105,-0.425 0,-0.531 0.212,-0.212 0.213,-0.318 0.318,0 0.212,0 1.274,0.424 1.062,0.425 1.062,-0.106 1.062,0 0.85,-0.425 0.743,-0.956 0.425,-0.743 0.637,-1.274 0.638,-1.593 0.53,-0.956 0.531,-0.849 0.743,-1.486 0.85,-1.805 0.318,-1.062 0.53,-0.85 0.531,-0.743 0.318,-0.212 0.318,-0.106 1.168,-0.106 2.336,0.531 1.274,0.106 0.849,0 1.168,0.212 1.274,0.637 1.38,0.637 0.956,0.425 0.955,0.106 1.274,-0.318 1.698,-0.531 1.699,-0.318 0.955,0.212 0,-0.106 0.531,-2.124 0.425,-2.442 0.424,-2.548 0.213,-2.018 0.212,-1.805 0.213,-1.699 0.637,-1.592 0.637,-1.486 0.638,-1.168 0.743,-1.38 0.425,-1.486 0.318,-0.743 0.53,-0.956 0.85,-1.274 0.85,-1.805 1.062,-2.124 0.956,-1.274 0.53,-0.531 0.637,-0.531 1.274,-0.318 0.85,-0.531 0.53,-0.531 0.956,-0.849 0.743,-0.956 0.743,-0.212 0.425,0.212 0.212,0.212 0.318,0.955 0.319,1.487 0.53,1.38 0.85,1.593 0.637,1.274 0.85,1.062 0.85,0.425 1.38,0.743 1.593,0.425 2.441,0.85 2.654,0.424 2.549,0 1.486,-0.106 0.849,-0.318 0.85,-0.212 0.531,0 1.168,0.318 1.911,0.212 1.698,0 1.593,0 2.654,-0.212 2.229,-0.212 1.911,-0.425 2.017,-0.318 2.018,-0.425 1.168,-0.425 5.839,-0.318 52.979,-1.592 0,0 -0.213,0.956 0.106,0.531 0.318,0.637 0.213,0.531 0,0.849 0.318,0.956 0.53,0.637 1.381,0.956 1.062,0.318 1.805,0.106 0.743,0.106 1.593,0.531 1.062,0.849 0.531,0.743 0.637,1.487 0.212,0.849 0,1.274 0,1.168 -0.637,0.85 -0.425,0.956 -0.318,1.486 0.106,1.062 0.318,2.017 0.106,3.504 0,1.486 0,0.637 -0.106,0.849 0.106,0.637 0.318,0.849 0.212,0.637 0.213,0.849 0,1.168 0.318,0.956 0.637,0.637 0.531,0.424 0.637,0.319 0.318,0.531 0,0.849 -0.105,1.062 0,1.062 0,1.38 0,1.911 -0.319,1.699 0,0.849 0.213,0.743 0.425,0.425 0.53,0.531 0.531,0.743 0.318,0.85 0.318,1.592 0,2.442 0.425,0.85 0.213,0.849 0,0.956 -0.319,1.062 0,2.335 0,1.805 0.319,1.167 0.53,2.654 0.637,2.867 0.743,2.76 0.425,1.062 1.168,1.805 1.168,2.018 1.062,2.017 0.638,1.593 0.425,1.167 1.062,1.593 2.229,3.397 0.318,0.637 1.274,0.955 0.849,0.637 1.063,0.531 2.123,1.699 0.85,0.425 1.062,0.531 1.805,2.442 0.318,0.637 0.85,1.486 0.318,0.318 0.531,0.85 0.53,1.592 0.213,0.85 0.212,0.318 0,0.425 0.637,0.637 0.638,0 0.53,0.318 0.425,0.637 0.213,0.637 0.637,1.168 1.168,0.743 0.531,0.321 z"
       inkscape:connector-curvature="0"
       class="DEP_01 ZON_01" /></g></svg>