<?xml version="1.0" encoding="UTF-8" standalone="no"?>
<!-- Generator: Adobe Illustrator 16.0.0, SVG Export Plug-In . SVG Version: 6.00 Build 0)  -->

<svg
   xmlns:dc="http://purl.org/dc/elements/1.1/"
   xmlns:cc="http://creativecommons.org/ns#"
   xmlns:rdf="http://www.w3.org/1999/02/22-rdf-syntax-ns#"
   xmlns:svg="http://www.w3.org/2000/svg"
   xmlns="http://www.w3.org/2000/svg"
   xmlns:sodipodi="http://sodipodi.sourceforge.net/DTD/sodipodi-0.dtd"
   xmlns:inkscape="http://www.inkscape.org/namespaces/inkscape"
   version="1.1"
   id="SvgMunicipio"
   x="0px"
   y="0px"
   width="772.069px"
   height="999.817px"
   viewBox="64.259 117.963 772.069 999.817"
   enable-background="new 64.259 117.963 772.069 999.817"
   xml:space="preserve"
   inkscape:version="0.91 r13725"
   sodipodi:docname="MUN_ID0105.svg"><metadata
     id="metadata10"><rdf:RDF><cc:Work
         rdf:about=""><dc:format>image/svg+xml</dc:format><dc:type
           rdf:resource="http://purl.org/dc/dcmitype/StillImage" /></cc:Work></rdf:RDF></metadata><defs
     id="defs8" /><sodipodi:namedview
     pagecolor="#ffffff"
     bordercolor="#666666"
     borderopacity="1"
     objecttolerance="10"
     gridtolerance="10"
     guidetolerance="10"
     inkscape:pageopacity="0"
     inkscape:pageshadow="2"
     inkscape:window-width="1366"
     inkscape:window-height="705"
     id="namedview6"
     showgrid="false"
     inkscape:zoom="0.23604319"
     inkscape:cx="386.03448"
     inkscape:cy="499.90851"
     inkscape:window-x="-8"
     inkscape:window-y="-8"
     inkscape:window-maximized="1"
     inkscape:current-layer="svg" /><g
     id="g3"><path
       id="MUN_0105"
       d="m 435.349,159.429 1.895,0 1.263,0 1.684,-0.631 1.895,-1.052 2.104,-1.474 2.526,-1.473 2.104,-0.21 1.264,0.421 1.473,1.263 0.211,1.053 0.21,2.315 0.632,1.684 1.474,1.684 1.684,0.421 1.895,0.842 2.104,0.421 1.264,-0.211 1.894,-0.842 1.685,-1.684 1.684,-1.473 2.315,-1.474 1.895,-1.684 2.104,-1.895 1.474,-1.895 1.684,-3.157 1.053,-1.684 1.474,-0.842 1.474,0 1.473,0 1.474,0.842 1.263,1.263 0.632,1.263 1.684,1.474 1.474,1.052 1.895,0.21 1.895,0 2.315,0.211 1.895,0.421 2.315,0.842 2.104,1.052 1.474,1.263 1.895,1.473 1.263,1.053 1.474,1.684 0.842,2.105 1.052,2.315 0.843,2.105 1.052,1.684 1.053,1.473 0.842,1.684 0.211,1.473 0,1.263 0.421,1.052 1.053,0.842 1.684,0.631 2.315,1.052 1.895,0.421 3.157,1.263 3.157,1.052 2.525,0.842 3.157,0.632 3.158,0.842 2.525,0.631 2.315,0.631 2.315,1.263 1.895,1.895 1.263,1.473 1.895,1.263 1.263,0.21 1.474,0 1.263,0.631 1.474,1.263 1.684,2.104 2.104,2.736 1.474,1.474 1.685,0.842 1.473,-0.21 1.053,-0.842 1.053,-1.263 1.474,-0.631 1.263,0.421 1.895,1.263 2.315,1.473 1.473,1.684 1.053,1.473 0.632,1.684 0.842,2.526 1.263,2.526 1.263,2.105 1.474,2.105 0.842,1.052 1.053,0.631 1.474,0.421 1.473,0 3.158,0 1.684,0 2.525,0.632 2.736,0.842 2.947,1.263 3.157,0.842 2.526,0.21 2.736,0 2.104,0 1.684,-1.053 1.685,-1.894 1.684,-1.895 2.315,-2.105 1.474,-1.052 1.473,-0.421 1.474,0 1.474,0.842 1.053,1.052 1.473,1.263 1.685,0.421 1.474,1.052 1.684,1.895 1.684,1.053 1.684,0.421 1.474,0 1.685,-0.211 1.052,-0.842 1.685,-1.052 1.684,-1.053 1.895,-1.052 1.895,-0.421 1.894,-0.21 2.105,0.421 1.474,0 1.473,0.421 2.736,2.105 3.158,2.315 3.367,2.315 2.526,1.473 2.525,0.842 2.736,0.21 2.947,0.421 3.367,1.473 2.947,1.684 2.525,1.263 2.526,2.105 2.104,2.315 2.315,2.105 1.684,1.684 1.474,1.684 1.053,1.474 0.842,1.894 0.632,1.684 1.263,2.315 1.053,2.105 1.263,1.684 1.263,1.263 1.263,0.842 1.685,0.21 1.894,0.21 1.685,-0.21 2.946,0.421 2.105,0 2.946,0.842 2.105,0.421 2.104,0.842 2.736,1.053 3.368,1.263 2.736,1.684 1.474,1.052 1.684,0.421 1.053,0.632 0.842,0.421 0.842,0 2.104,0 2.105,-0.211 2.104,-0.421 2.105,-0.21 1.473,0 1.474,0.631 1.474,0.421 1.474,0 1.052,0.21 0.632,0.631 0.842,1.052 0.632,1.053 0.842,0.842 0.631,0.631 1.474,0.632 2.315,0.21 1.474,0 1.474,-0.21 1.684,-0.21 2.104,0.21 1.474,0.21 2.105,0.842 1.684,1.263 1.895,1.474 1.263,1.263 0.842,1.684 0.632,1.895 1.263,2.315 1.053,2.315 1.684,1.894 -0.842,4.21 -0.421,2.526 -1.263,6.946 -0.632,3.158 0,2.736 1.263,2.104 0.632,1.263 2.315,3.999 2.104,2.526 1.053,2.105 1.263,1.263 0.842,0.842 0.632,0.421 3.789,2.105 2.736,3.157 1.473,2.526 2.947,4.841 1.474,2.736 0,0.21 2.315,2.105 2.946,1.473 3.789,1.053 2.946,1.263 1.264,0.631 3.157,2.526 2.946,2.947 2.526,4.21 1.474,3.789 1.684,4.42 0.842,3.789 0,2.947 2.105,5.894 0.421,6.104 0,0.842 -0.211,1.473 -0.21,3.157 0.421,1.684 0.21,1.895 1.684,2.104 3.158,2.947 -0.211,4.42 -1.263,3.158 -0.421,2.946 0.842,4.421 -0.211,4.209 0,7.578 -0.21,3.367 0,3.158 0.21,3.157 0,4.42 -0.21,2.315 -0.421,3.999 -0.632,6.104 0,0.631 0,0 0,0.421 0,0.211 1.263,2.104 0,0 0.632,0.843 1.474,2.946 0.21,0.211 0.421,0.842 1.053,1.895 0.211,0.21 0.421,1.474 0.21,1.684 0,0.421 1.263,2.315 1.053,1.685 0.211,0.631 0.842,2.105 0.21,0.842 0.421,0.631 1.474,0.843 0.211,0.21 0.21,0.211 1.474,1.895 0,0.21 0.421,0.421 0.421,2.105 0,0.421 0.211,0.21 -0.421,1.263 0,0.632 0,0 -0.632,1.895 -0.421,0.842 0,0.421 -0.211,1.263 -0.21,0.843 -0.421,0.631 -0.421,1.263 -0.632,1.264 0,0.842 0,1.052 -0.21,1.474 0,1.264 0,0.421 0,1.263 0,2.738 0,0.421 0,2.315 0,1.684 0,0.211 0,1.263 -0.422,0.421 0,0 -0.21,0.211 -0.632,0.631 -0.21,0.421 -0.211,0.211 -0.421,0.421 0,0.421 -0.21,0 0.21,0.21 0.632,0.422 0,0 -0.632,0.631 -0.842,1.053 -0.211,0.21 -1.052,0.421 -1.895,1.264 -0.421,1.263 -0.211,0.842 -1.473,3.999 0,1.685 0,0 -0.422,3.578 0,0.632 0,0.421 0.211,1.684 0.211,1.263 0.421,1.474 0.21,2.736 0.211,0.842 0.21,1.263 0.211,1.474 0.21,0.211 0.211,0.842 0,0.21 0.21,0.421 0.421,1.895 0.211,0.632 0,0.21 0.421,1.264 0,0 -0.21,0.421 -1.264,3.367 0,0 0,0 -1.473,1.895 0,0 0,0 0,0.842 0,0 -0.422,0.632 -1.263,2.736 0,0 0.211,0.842 0,1.895 0,0.211 -0.211,1.263 -0.21,1.684 0,0.211 -0.632,2.104 -0.632,1.895 -0.21,0.21 -0.211,2.315 -0.21,1.053 0,0.632 0,1.473 0,0.422 0,0.21 -0.842,2.105 0,0 -0.211,0.631 0,2.315 0,0.211 -0.21,0.421 0.631,2.946 0.211,0.842 0,0.211 0,2.947 0,1.263 0,0.21 0,1.685 0,1.052 -0.211,0.421 -0.421,1.053 -0.421,0.632 -0.421,0.421 -0.842,0.631 -0.842,0.421 -0.842,0.632 -0.422,0.421 -1.052,0.632 -1.053,1.263 -0.211,0.421 -0.842,0.842 -1.052,1.685 0,0.21 -0.632,1.263 -0.632,1.685 0,0.631 -0.421,0.632 -0.631,1.474 -0.421,0.842 -0.211,0.421 -0.842,0.842 -0.421,0.842 -0.211,0.211 -1.052,0.421 -1.264,0.421 -0.21,0 -0.842,0 -1.685,0 0,0 -0.631,0.21 -1.053,0.211 -0.421,0.421 -0.632,0.421 -1.473,1.263 -0.632,0.632 -0.211,0.211 -1.263,1.473 -0.842,0.843 -0.211,0 -1.684,1.684 -0.631,0.421 -0.422,0.421 -1.263,0.842 -0.631,0.211 -0.632,0.421 -1.263,0.421 -0.211,0.421 -0.842,0.632 -0.21,0.631 -0.211,0.632 -0.421,1.684 -0.211,0.632 -0.21,0.421 -0.842,2.315 -0.211,0.421 -0.21,0.21 -1.685,0.421 0,0 -0.21,0 -2.315,0 -0.211,-0.21 0,0 -2.525,-1.053 -0.211,0 -0.421,0 -2.946,-0.421 -0.211,0 -0.632,0 -1.684,-0.21 0,0.21 -0.842,0.842 -1.053,1.685 -0.21,0 -0.211,1.473 -0.421,1.474 0,0.211 -0.842,3.157 -0.421,1.895 0,0.421 -0.421,2.315 0,0.631 -0.211,0.421 0.632,2.105 0,0.21 0,0.211 1.474,1.263 0,0 0.21,0.211 1.684,1.684 0.422,0.421 0.21,0 2.315,2.736 0.842,0.421 0,0.421 1.684,3.368 0.632,1.052 0,0.422 0.421,1.894 0.211,0.843 0,0.842 0,1.263 0,1.053 0,0.21 0,0.211 0,0.21 -0.421,2.105 -0.211,0.631 -0.421,1.264 -0.211,2.525 0,0.211 -0.21,1.473 0.632,1.685 0.21,0.21 0.421,0.842 1.053,1.895 0.21,0.842 0.421,0.421 0.422,1.685 0.21,1.052 0.211,0.211 -0.421,1.263 -0.422,0.842 0,0 -1.263,1.474 -1.684,1.684 -0.211,0.211 -0.842,1.474 -1.895,1.684 -0.421,0.842 -0.421,1.053 -1.263,2.525 -0.211,0 0,0.211 -0.21,0.211 -0.421,1.263 0,0 -0.632,2.315 0,1.052 0,0.632 -0.21,2.104 0,1.264 0,0.631 0.21,1.685 0,1.052 0.211,1.474 0,1.263 0,1.053 -0.211,1.684 -0.21,1.685 0,0.842 0,1.895 0.21,2.315 -0.21,0.631 0,1.263 -0.211,2.105 0,0.421 0,0.842 0.211,1.684 0.21,0.632 0.211,1.053 1.052,1.895 0.211,0.631 0.421,1.263 1.263,2.736 0,0.211 0,0.632 0,2.315 -0.21,0.21 -0.211,0.842 -0.421,2.105 0,0.21 0.211,0.842 0.631,2.526 0,0 0.632,0.631 1.684,2.736 0.211,0 0.21,0.843 0.632,3.367 0,0.211 0,0.21 0,1.053 0,0 0,0.211 0,1.052 0,0 0,0.211 0,2.525 0,0.632 0,0 -0.421,5.683 0,1.053 0,0.211 0,4.42 0,0.632 0,0.421 0.21,2.315 0,0.421 0.211,0.421 1.474,1.474 0.21,0.21 0.421,0.211 2.526,1.684 0.21,0.211 0.632,0.631 3.999,2.526 0.421,0.21 1.264,0.632 2.315,1.895 0.21,0 0.842,0.842 1.474,1.684 0.211,0 0.631,1.053 0.211,2.104 0,0 0.21,1.263 -0.21,1.474 0,0 0,1.053 0.21,1.474 0,0 0,1.263 0.842,1.263 0,0.177 0.632,1.263 1.053,2.525 0,0.211 1.263,2.525 0.632,2.105 0.21,0.421 0.632,2.736 0.21,1.684 0.211,0.421 0.421,2.736 0,1.264 0,0.421 -0.211,2.104 -0.421,0.632 -0.21,0.21 -0.632,1.263 -0.842,0.632 -0.211,0.421 -1.894,1.684 -0.422,0.632 -0.21,0.421 -1.474,2.526 0,0.631 0,0.421 -0.421,3.368 0,0 0,0 0,0 0,0.211 0.211,0.631 0.421,2.526 0.21,0.21 0.632,1.053 2.315,3.367 0.21,0.211 0.421,0.632 2.105,2.525 0.21,0.211 0.211,0.21 0.21,0.211 0,0.21 0,0.211 0.421,0.842 0,0.211 0,0.21 0,0.211 0,0.21 0,0 -0.21,0.211 0,0.21 0,0.211 -0.632,1.684 -0.21,0.632 0,0 -1.474,2.104 -0.842,1.053 0,0 -0.842,1.895 -0.211,0.631 0,0.211 0.211,1.263 0,0.842 0,0.211 1.263,1.263 0.842,0.842 0.211,0.211 0.842,1.684 0.842,1.263 0.421,0.421 0,1.264 -0.211,1.052 0,0.421 -0.421,1.264 -0.421,1.473 -0.21,0.421 -0.211,1.053 0,1.263 0,0.632 0,1.263 0.211,1.685 0,0.842 0.21,1.263 0.211,2.104 0.21,0.842 -0.21,0.632 -0.632,1.263 -0.21,0.842 -0.632,0.422 -1.684,1.473 -0.842,0.632 -0.843,0.842 -2.946,2.315 -1.684,1.684 -0.421,0.211 -2.315,1.684 -1.474,1.053 -0.211,0.421 -1.474,2.315 -1.263,1.895 0,0 -0.21,1.684 -0.211,1.053 0,0.21 1.053,2.105 0.842,1.684 0,0.211 0.421,1.473 0.211,1.264 0.21,0.21 0.211,1.263 0,0.843 0.21,0.421 0.632,0.631 0.421,0.632 0.421,0.421 0.421,0.842 0.421,0.632 0.211,0.421 -0.632,2.315 -0.421,1.895 -0.632,1.684 -0.842,2.525 -0.631,2.105 -0.632,2.104 -0.842,1.895 -0.632,1.474 -0.842,1.895 -0.421,0.421 -0.211,0.421 -0.631,0.631 -0.632,0.211 -0.631,0.421 -1.053,0.421 -0.632,0.211 -0.842,0.21 -1.474,0.421 -0.21,0.421 -0.632,0.211 -1.053,0.421 -0.421,0.421 -0.21,0 -0.842,1.053 -1.264,-0.632 -1.263,-0.421 -4.631,-2.315 -0.21,0 -0.211,-0.21 -0.842,-0.843 -0.21,0 -0.211,0 -0.842,-0.421 -0.211,0 -0.21,0 -1.053,0 0,0 -0.21,0.211 -1.053,1.053 0,0.21 -0.211,0.211 -0.631,2.525 0,0 -0.211,0 -0.842,1.263 0,0 -0.211,0 -0.631,0.211 0,0 0,0 -2.315,0.632 -0.211,0 0,0 -2.315,0.631 -0.21,0 -0.211,0.211 -2.736,0.842 0,0 -0.421,0 -1.474,1.053 0,0 -0.21,0.21 -0.842,1.263 0,0 -0.211,0.421 -1.895,5.684 0,0.211 -0.421,1.684 -0.21,1.053 -0.211,0.21 0,0.421 -0.421,2.526 0,0.21 -0.21,1.053 -1.053,1.895 -0.211,0.21 -0.421,0.842 -0.421,1.264 -0.21,0.21 -0.211,0.632 -2.736,1.895 -0.421,0.21 -1.684,1.263 -0.842,0.632 -0.211,0 -0.632,0.421 -0.631,0.842 -0.211,0 -0.421,0.632 -1.684,2.525 -0.421,0.843 -1.263,2.315 -0.422,0.842 0,0.421 -0.421,1.263 -0.21,1.474 0,0.421 -0.211,2.104 -0.421,0.842 -0.21,0.632 -0.421,1.263 -0.422,0.211 -0.21,0.21 -0.421,0.421 -0.211,0.632 0,0.842 -0.21,1.895 0,0.421 -0.421,0.632 -0.632,1.895 -0.21,0.421 -0.211,1.052 -1.263,2.315 0,0.211 -0.421,0.842 -0.842,2.104 0,0 -0.632,0.632 -1.895,0.842 0,0 -0.842,0.421 -2.315,0.421 -0.211,0.211 -1.052,0.21 -2.947,1.053 -0.631,0 -1.053,0.421 -2.736,0.842 -0.632,0.211 -0.842,0.421 -2.525,1.263 -0.632,0.421 -0.842,0.421 -2.736,1.895 -0.842,0.632 -0.632,0.631 -2.315,2.105 -0.632,1.263 -0.631,0.421 -2.105,1.685 -1.473,1.052 -0.421,0 -2.105,1.053 -1.263,0.632 -0.211,0 -2.104,0.421 -1.263,0.421 0,0 -0.211,0 -0.21,0 0,0 -2.736,2.104 -2.526,1.895 0,0.21 -1.473,1.264 -1.264,1.263 -0.21,0 -0.842,0.842 -1.053,1.263 -0.211,0 0,0.632 -0.21,0.632 0,0 -0.211,0.631 -0.21,0.632 -0.211,0.21 0,0.842 0,2.105 0,0.632 0,1.473 0,3.157 0,1.053 -0.21,1.263 -1.053,2.947 -0.421,1.263 -0.211,1.053 -0.421,4.42 -0.421,1.684 0,0.632 -0.421,2.736 -0.211,1.053 0,0.21 -0.21,2.315 -0.211,1.053 0,0.211 -0.842,4.42 -0.421,2.104 0,0.211 -1.474,3.578 -0.842,1.474 -0.21,0.21 -1.053,2.315 -0.632,0.842 -0.21,0.421 -0.842,1.264 -0.421,0.631 0,0.211 -1.685,1.474 -0.631,0.631 -0.632,0.632 -1.684,0.631 -1.053,0.211 -0.632,0.211 -2.946,0.842 -1.263,0.421 -1.474,0.421 -1.895,1.053 -0.632,0.421 -1.052,0.631 -0.632,0.842 -0.21,0.211 -0.632,0.421 -0.842,1.474 -0.421,0.631 -0.843,1.474 -1.052,1.474 -0.421,0.632 -1.264,1.684 -1.052,1.684 -0.211,0.632 -1.474,1.895 -0.631,1.263 -0.211,0.632 -0.631,1.684 -0.211,1.684 -0.21,0.632 -0.211,2.946 0,0.843 0,0.421 0,2.104 0.421,1.263 0,0.211 0.632,2.946 0.421,1.053 0.21,0.421 1.685,3.368 0.842,0.842 0.421,0.21 3.789,2.947 0.421,0.842 0.21,0.211 2.315,3.578 0,0 0,0 -4.42,0.842 -1.895,0.842 -3.789,1.263 -3.367,0.843 -0.842,0.21 -3.789,1.263 -3.368,1.264 -2.946,0.842 -1.895,0.842 -1.053,0.21 -1.895,0.632 -2.729,0 -1.895,0 -9.472,-0.842 -4.631,-0.421 -1.684,-0.211 -3.789,-0.421 -2.736,0 -1.263,-0.21 -1.474,0 -1.053,0 -0.631,0 -2.105,-0.211 -0.21,1.895 -0.421,0 -0.211,0 -0.421,0 -1.263,-0.421 -1.263,-0.211 -1.264,-0.21 -1.263,0 -3.578,-1.053 -3.368,-1.263 -2.314,-0.421 -1.895,0.21 -2.105,0.211 -1.684,0 -1.684,0 -4,-0.421 -0.21,0 -3.157,0 0,-0.211 1.895,-0.421 0.21,-0.421 0.211,-1.263 0,-0.842 0,-0.421 -0.421,-0.421 0,-2.105 0,-0.421 -0.211,-0.631 -0.211,-0.422 -0.21,-0.21 -0.632,0 -1.263,-0.211 -0.21,-0.631 0,-0.632 -0.211,-1.684 0.211,-0.632 0.842,-2.104 0.421,-1.685 1.052,-1.894 0,-2.315 0.843,-2.315 0.21,-0.632 0.211,-1.895 0.21,-0.842 0.211,-1.263 -1.474,-0.211 -0.842,0 -1.053,0 -2.736,-0.21 -3.578,-0.211 -1.684,0 -3.157,-0.21 -3.368,-0.211 -2.736,0 -3.368,-0.21 -0.631,0 -0.211,-1.053 -15.365,-0.421 -0.421,0 -0.421,-2.315 -1.264,-10.314 -0.842,-7.366 -0.842,0 -5.894,0.21 -6.104,0 -4.841,0.211 -0.211,-1.053 0,-1.053 -1.263,-7.998 0,-0.842 -2.315,-1.685 0,-1.052 0.211,-2.736 0.21,-1.685 0,-0.631 0.211,-1.474 0.421,-3.789 0.421,-3.999 -0.211,-1.684 -0.21,-1.895 -0.421,-3.368 -0.211,-0.842 -0.631,-2.947 -0.843,-2.525 -0.631,-3.789 -1.053,-4.841 -0.21,-3.157 0,-2.736 0.421,-3.157 0.421,-2.526 0.21,-2.315 0,-3.367 0.632,-6.736 0,-1.684 -0.211,-1.684 0.211,-2.736 -0.211,0 0,-5.473 0.211,-3.579 1.053,-16.839 0.421,-0.21 0.21,-0.211 -3.788,-13.892 -10.104,1.263 -4.421,0.421 0,-0.842 0,-0.421 0,-1.053 0,-0.211 0,-1.263 0,-0.421 0,0 0.211,-0.632 0,-0.421 0,-0.421 0,-1.263 0,-0.21 0,-0.632 -1.053,-0.421 -2.736,-0.211 0,0 -0.421,-2.525 0,-0.842 -0.211,-1.474 -0.21,-1.053 -0.211,-1.684 -0.21,-0.842 0,-0.211 0,-0.842 -0.421,-1.474 0,-0.421 -0.211,-1.263 -0.21,-0.842 0,-0.421 -0.211,-1.264 0,-0.842 0,-0.21 -0.21,-1.474 0,-0.842 -0.421,-1.685 0,-0.842 0,-0.21 -0.211,-1.474 -0.421,-2.315 0,-0.421 -0.632,-1.895 0,-0.21 0,-1.895 -3.788,0.21 -2.105,0.211 -19.786,0.842 -5.894,0.21 -1.052,0 0,-9.472 0.421,-9.893 0.631,-5.473 0.211,-2.105 0.421,-6.524 0,-11.156 0.211,-7.577 0,-1.895 0,-1.263 -0.843,-1.053 -0.21,-0.211 -1.263,-1.473 0,0 -0.211,0 0,0 -1.474,-1.474 0,0 -0.421,-0.421 0,0 -1.052,-2.105 0,0 -0.843,-2.315 0,-0.21 -0.421,-2.105 0,-0.421 -1.052,-1.684 -0.211,-0.421 -1.684,-0.842 -0.211,-0.211 -2.736,-0.842 -0.842,-0.21 -2.315,-0.632 -0.632,-0.211 -4.63,-1.263 -1.264,-0.631 -1.263,0.21 -0.421,0.211 -1.684,-0.211 -0.842,-0.21 -2.526,0.21 -1.263,0 -1.895,-0.421 -1.263,0 -1.053,-0.632 -0.842,-0.21 -0.842,-0.211 -0.632,0 -1.684,0 -1.053,0 -2.315,-0.21 -1.684,0 -2.105,0.21 -2.315,0.211 -0.421,-0.211 -0.842,0 -0.842,-0.21 -0.842,0 -0.211,0 -0.631,-0.211 -0.842,-0.21 -1.264,-0.632 -0.842,-0.21 -1.684,-0.632 0,0 0,0 -1.263,-0.842 -2.947,-1.895 0,-0.421 0,-1.053 -0.21,-0.842 0,-2.947 0,-1.052 0,-4 0,-0.21 0,-0.842 0,-0.842 -0.632,-4.842 -0.211,-0.421 -0.631,-2.104 0,-0.211 -0.842,-2.315 -0.211,0 -2.104,-1.263 -0.211,0 -3.789,-1.474 -0.21,0 -4.42,-1.474 0,0 -2.526,-1.052 -0.21,0 -1.895,-1.053 0,0 -6.946,-2.525 -0.632,-0.211 -2.104,-1.053 -0.211,0 -3.157,-1.684 -0.421,-0.211 -5.473,-2.104 -1.053,-0.421 -1.894,-0.842 -0.632,-0.211 -3.157,-1.473 -0.421,0 -2.947,-1.264 -5.262,-1.895 -5.473,-1.894 -1.053,-0.632 -1.263,-2.526 -0.842,-1.263 -0.632,-1.052 -2.104,-2.736 -3.368,-2.526 -1.474,-1.053 -3.367,-2.315 -2.105,-1.263 -3.999,-1.895 -7.156,-3.578 -4.842,-3.157 -4.209,-2.315 -5.052,-2.736 -5.263,-2.104 -4.42,-2.315 -4.42,-2.105 -4.421,-1.263 -5.262,-2.104 -3.789,-1.685 -4.631,-1.263 -11.998,-6.104 -3.788,-2.315 -3.789,-1.895 -1.053,-0.421 -2.946,-1.474 -0.632,-0.421 -2.736,-1.474 -2.947,-1.895 -2.525,-2.736 -1.895,-3.367 -2.525,-3.579 -3.157,-3.157 -3.789,-2.736 -3.368,-2.525 -3.157,-2.526 -4.21,-3.788 -3.367,-2.105 -3.578,-1.895 -3.368,-1.473 -4.21,-1.474 -3.999,-1.053 -3.999,-0.842 -3.789,-1.053 -3.578,-0.631 -4,-1.685 -4.209,-0.421 -3.157,0 -5.263,-0.631 -0.21,0 -5.684,-0.843 -2.736,-0.842 -2.947,-1.263 -3.788,-1.684 -4.421,-1.895 -3.578,-1.053 -3.157,-1.053 -2.946,-0.421 -3.579,0 -2.946,-1.473 -2.315,-1.895 -1.263,-1.263 -1.053,-1.264 -2.315,-2.525 -3.368,-2.105 -2.946,-1.894 -2.526,-1.895 -1.263,-1.895 -0.842,-1.263 -1.474,-3.368 -1.895,-3.157 -2.315,-3.578 -2.525,-2.526 -4.631,-2.525 -3.999,-1.474 -2.947,-0.421 -2.946,-1.263 3.999,-3.368 9.051,-7.367 34.941,-27.784 24.416,-19.575 11.577,-9.051 19.365,-15.366 15.576,-12.629 10.313,-7.999 4.841,-2.946 9.894,-4.842 5.052,-1.895 5.683,-1.684 5.473,-1.474 6.104,-1.052 57.253,-13.261 -0.211,-1.264 -0.21,-1.263 1.052,0 0.211,0 2.315,-0.421 2.736,-0.632 2.736,-0.631 0,-0.211 2.736,-0.421 4.21,-1.052 5.051,-1.053 5.263,-1.263 4.631,-1.053 2.104,-0.632 2.105,-0.421 3.578,-0.842 2.946,-0.421 1.895,-0.632 1.895,-0.421 1.474,-0.631 2.104,-0.843 1.053,-0.842 1.053,-0.631 1.263,-0.842 1.684,-1.053 1.684,-1.684 1.474,-1.685 1.474,-1.895 1.474,-1.684 1.052,-1.263 2.105,-1.895 1.684,-1.263 3.368,-2.105 -0.211,-0.421 1.263,-0.21 5.052,-1.264 4.421,-0.421 0.842,0 3.789,0.211 2.946,0 1.685,0 2.104,-0.211 1.474,-0.21 2.525,-0.632 2.105,-0.842 1.894,-0.842 1.474,-0.842 1.685,-1.053 1.684,-1.474 3.789,-3.367 1.894,-1.685 1.474,-1.473 1.895,-1.685 1.263,-1.474 1.264,-1.052 1.684,-1.895 1.474,-1.053 1.052,-1.263 2.105,-1.895 2.104,-2.104 1.474,-1.474 1.895,-1.474 1.895,-1.684 1.473,-0.842 0.421,-0.211 2.947,-2.315 2.104,-1.053 1.895,-1.052 3.368,-1.685 1.474,-0.631 1.895,-0.842 0.631,-0.211 1.053,-0.421 2.315,-0.842 3.367,-0.842 1.474,-0.421 3.999,-0.632 4,-0.632 4.21,-0.631 4.841,0 2.315,0 4.42,0.21 0.421,-0.21 0.421,0 0.421,0 -0.631,-1.474 -0.632,-4.21 -0.21,-1.052 -0.211,-2.736 1.263,-6.736 1.685,-10.945 -0.632,-8.419 -1.474,-17.892 -0.421,-10.524 0,-5.894 -1.053,-3.157 -2.104,-4.841 -3.157,-4.42 -4.21,-3.789 -6.314,-4.209 -7.367,-5.052 -6.946,-5.683 -6.314,-4.631 -3.368,-4.21 -1.684,-2.526 -1.263,-2.315 -1.684,-4.841 -2.315,-8.209 -2.105,-11.156 -1.684,-7.999 -3.368,-19.996 -1.895,-10.104 -2.525,-12.419 -1.895,-7.367 -3.789,-5.473 -9.261,-10.103 -1.053,-1.263 -5.052,-6.314 -0.632,-4.841 2.315,-10.314 0.842,-6.735 0,-1.053 -0.21,-14.313 0,-7.367 1.895,-3.999 1.053,-3.368 7.156,-4.63 4.21,-2.947 2.525,-4.209 1.053,-3.368 0.21,-0.632 0,-1.684 2.736,-11.577 1.685,-7.156 1.052,-4.631 2.105,-2.736 4.42,-5.473 0.842,0.421 0.842,1.684 0.211,2.736 0,5.473 0.211,2.526 0.842,2.947 0.842,2.315 1.474,2.526 1.473,2.947 0.843,2.947 0.842,1.052 1.895,0.421 1.684,0.842 1.474,2.104 1.263,2.315 1.053,3.158 0.842,2.315 1.263,1.684 1.471,1.052 z"
       inkscape:connector-curvature="0"
       class="DEP_01 ZON_01" /></g></svg>