<?xml version="1.0" encoding="UTF-8" standalone="no"?>
<!-- Generator: Adobe Illustrator 16.0.0, SVG Export Plug-In . SVG Version: 6.00 Build 0)  -->

<svg
   xmlns:dc="http://purl.org/dc/elements/1.1/"
   xmlns:cc="http://creativecommons.org/ns#"
   xmlns:rdf="http://www.w3.org/1999/02/22-rdf-syntax-ns#"
   xmlns:svg="http://www.w3.org/2000/svg"
   xmlns="http://www.w3.org/2000/svg"
   xmlns:sodipodi="http://sodipodi.sourceforge.net/DTD/sodipodi-0.dtd"
   xmlns:inkscape="http://www.inkscape.org/namespaces/inkscape"
   version="1.1"
   id="SvgMunicipio"
   x="0px"
   y="0px"
   width="1000.036px"
   height="578.937px"
   viewBox="64.12 117.966 1000.036 578.937"
   enable-background="new 64.12 117.966 1000.036 578.937"
   xml:space="preserve"
   inkscape:version="0.91 r13725"
   sodipodi:docname="MUN_ID0109.svg"><metadata
     id="metadata10"><rdf:RDF><cc:Work
         rdf:about=""><dc:format>image/svg+xml</dc:format><dc:type
           rdf:resource="http://purl.org/dc/dcmitype/StillImage" /></cc:Work></rdf:RDF></metadata><defs
     id="defs8" /><sodipodi:namedview
     pagecolor="#ffffff"
     bordercolor="#666666"
     borderopacity="1"
     objecttolerance="10"
     gridtolerance="10"
     guidetolerance="10"
     inkscape:pageopacity="0"
     inkscape:pageshadow="2"
     inkscape:window-width="1366"
     inkscape:window-height="705"
     id="namedview6"
     showgrid="false"
     inkscape:zoom="0.40764366"
     inkscape:cx="500.01801"
     inkscape:cy="289.46851"
     inkscape:window-x="-8"
     inkscape:window-y="-8"
     inkscape:window-maximized="1"
     inkscape:current-layer="svg" /><g
     id="g3"><path
       id="MUN_0109"
       d="m 344.445,118.35 1.69,1.46 1.075,3.535 0.846,5.456 2.689,1.537 3.305,-0.922 11.296,-3.996 6.916,-1.768 6.301,-2.152 5.071,-0.768 3.843,-0.154 1.69,2.92 1.383,3.765 1.307,4.457 1.383,4.611 2.767,3.458 3.611,1.69 5.84,2.229 8.069,10.143 5.609,4.073 1.768,-2.613 2.229,-0.384 7.453,3.304 2.997,3.766 2.92,0 2.306,5.994 1.152,4.764 2.229,0 8.146,-6.455 4.072,-0.845 2.767,0.307 2.151,-0.307 1.229,-1.076 1.46,-0.077 4.073,-0.307 2.229,-0.846 2.689,1.537 1.768,2.075 0.768,4.841 0.692,2.382 -0.615,3.612 -1.613,3.228 -1.153,0.999 -1.613,0.615 1.076,1.537 4.61,2.305 2.997,0.077 3.304,0.384 1.69,0 2.383,-0.384 1.536,0.922 1.998,1.998 2.151,1.152 0.923,0.846 0.153,0.23 0.308,0.384 0.384,0.23 0.461,0.384 0.538,0.307 0.385,0.308 0.307,0.307 0.154,0.384 0.461,0.922 0.308,0.538 0.537,0.308 0.769,0.768 0.615,0.615 0.308,0.538 0.307,0.538 0.23,0.384 0.462,0.461 0.461,0.307 0.614,0.384 0.691,0.461 0.461,0.23 0.615,0.308 0.691,0.384 1.076,0.615 0.538,0.307 0.845,-0.077 0.769,-0.154 0.769,-0.23 0.614,-0.538 0.385,-0.384 0.308,-0.692 0.153,-0.691 0.153,-1.153 0.154,-1.076 0.23,-0.691 0.538,-1.153 0.076,-1.306 0,-1.46 0.154,-0.461 0.307,-0.691 0.385,-0.692 0.461,-0.845 0.538,-0.461 0.461,-0.154 0.384,0 0.461,0.23 0.923,1.153 0.691,1.306 0.308,0.461 0.768,1.46 1.076,1.614 0.769,1.614 0.846,1.69 1.152,2.151 0.538,1.229 0.307,1.153 0.462,1.306 0.845,1.921 0.769,2.075 0.769,1.844 0.461,1.076 0.308,0.769 0.307,1.229 0.231,0.615 0.614,0.999 0.769,0.845 0.999,0.922 0.691,0.769 1.076,0.922 0.999,0.922 1.075,0.845 1.153,0.692 0.614,0.077 0.691,0.23 1.229,0.615 0.922,0.461 0.999,0.692 0.692,0.077 0.845,0.154 1.845,0 0.845,0.307 0.615,0.23 0.691,0.538 0.769,0.615 0.614,0.538 0.538,0.768 0.153,0.846 0,0.845 0,1.152 0.231,0.845 0.537,0.846 0.538,0.845 0.615,0.999 0.461,0.538 0.769,0.308 0.461,-0.308 0.691,-0.922 0.922,-1.153 0.769,-0.538 2.075,-2.151 1.921,-2.075 0.999,-0.999 0.845,-1.153 0.769,-0.691 0.922,0.23 0.923,0.307 1.075,0.692 0.538,0.769 0.615,0.845 0.384,0.999 0.846,0.691 0.998,0.23 0.923,-0.077 0.999,-0.23 0.845,-0.461 0.846,-0.461 0.999,-0.538 0.922,-0.23 0.691,0.461 0.385,0.384 0.691,1.076 0.999,1.383 1.152,1.921 0.538,1.383 1.152,1.229 1.307,1.306 1.229,0.922 1.075,0.999 0.999,0.538 0.769,0.308 0.999,0 0.769,0 2.151,-0.231 1.076,-0.077 0.922,0.077 0.461,0.308 0.538,0.384 0.461,0.307 0.615,0.615 0.384,0.461 0.23,0.615 0.077,0.538 0.153,0.999 0.077,1.69 -0.308,1.383 -0.538,1.69 -0.153,2.843 -0.308,1.537 0,1.229 -0.537,2.152 0.076,2.229 0.23,0.922 0.308,2.459 -0.077,1.614 0.538,1.998 0.538,1.076 0.922,2.843 0.23,1.229 0.154,1.46 0.461,2.382 0.461,1.229 0.845,0.615 0.462,0.691 0.307,0.922 0.385,0.922 0.461,1.076 0.538,0.692 0.538,0.384 0.537,0.307 0,0.077 0.615,0.154 0.614,0.077 0.615,0.077 0.922,0.308 0.769,0.23 0.614,0.153 0.385,0.308 0.308,0.307 0.307,0.461 0.23,0.461 0.23,0.691 0.308,0.845 0.308,0.769 0.308,0.615 0.461,0.615 0.461,0.692 0.538,0.691 0.384,0.538 0.461,1.306 0.462,0.691 0.537,1.153 0.846,1.306 0.384,0.922 1.307,2.151 0.614,0.692 0.692,0.615 0.538,0.615 0.23,0.384 0.307,0.845 0.999,1.306 1.384,1.614 0.922,1.153 0.769,0.538 0.23,0.308 0.538,0.23 0.614,0.077 0.922,0.23 1.845,0.461 1.921,0.615 1.921,0.845 0.461,0.307 0.23,0.23 0.23,0.384 0.308,0.538 0.385,0.384 0.537,0.23 0.538,0.384 1.307,0.922 0.922,0.845 1.307,1.076 0.922,0.615 0.615,0.308 0.614,0.154 0.308,-0.077 0.308,-0.23 0.384,-0.538 0.538,-0.615 0.538,-0.615 0.845,-0.538 0.999,-0.691 1.076,-0.615 0.769,-0.231 0.384,-0.23 0.154,0 0.076,0 0.154,0.077 0.23,0.153 0.23,0.231 0.307,0.538 0.538,0.922 0.308,0.845 0.461,1.152 0.461,1.46 0.769,2.151 0.615,1.768 0.384,0.768 0.461,0.922 0.461,0.615 0.23,0.154 0.923,0 1.46,0.077 1.229,-0.077 0.769,-0.077 0.691,-0.384 0.922,-0.23 0.846,-0.153 0.845,0 0.769,0.153 0.999,0.461 0.384,0.154 0.615,0 1.075,0 1.845,-0.23 1.69,0.077 0.999,0.154 0.615,0.308 1.075,0.845 0.538,0.691 0.538,0.461 0.384,1.153 0.308,0.999 0.153,1.076 -0.076,0.845 0,1.153 -0.154,1.153 -0.23,1.229 -0.384,1.69 -0.23,0.845 0.076,0.999 0,1.152 -0.076,1.691 0.23,1.306 0.384,0.769 0.461,0.538 0.538,0.384 0.308,0.154 0.845,0 0.769,-0.307 0.999,-0.308 1.998,-0.845 1.384,-0.922 1.536,-1.152 1.768,-1.153 1.307,-0.769 1.306,-0.691 0.999,-0.461 1.384,-0.615 0.999,-0.154 0.999,0.077 0.768,0.154 0.769,0.154 0.846,0.461 0.614,0.23 0.692,0.154 0.922,0.077 0.999,0.384 0.538,0.384 1.229,0.845 0.461,0.384 0.384,0.845 0.385,0.999 0.461,1.614 0.461,1.076 0.23,0.845 0.077,1.229 0,0.692 0.23,0.845 0.307,0.691 0.538,0.769 0.615,0.845 0.999,0.692 0.691,0.384 0.538,0.077 0,-0.077 0.845,-0.23 0.769,-0.307 2.536,-1.229 4.457,-1.614 4.533,-1.768 4.688,-1.844 4.534,-2.229 2.305,-1.229 3.074,-1.383 1.46,-0.615 1.46,-0.845 2.074,-0.154 2.536,-0.077 1.921,-0.538 1.768,0.077 2.459,0.154 3.381,0 1.768,0.154 1.46,0 1.384,-0.154 1.075,-0.384 0.922,0 1.537,0.538 1.768,1.69 0.999,0.615 0.769,0.23 1.229,-0.461 1.229,-0.999 0.845,-1.076 0.23,-0.615 0.308,-0.845 0.23,-0.538 0.769,-0.538 0.769,-0.691 1.229,-0.769 0.461,-0.23 0.385,0 0.614,0.154 0.769,0.538 0.614,1.153 0.692,2.613 0.23,1.46 0.691,1.153 0.614,1.998 0.385,0.538 0.461,0.23 0.691,-0.691 1.152,-1.076 0.999,-0.768 0.769,-0.999 0.922,-1.614 0.923,-1.383 0.845,-0.999 1.076,-0.307 1.613,-0.308 2.767,0.154 1.46,0.615 1.229,0.538 0.846,1.076 0.308,1.153 0.23,0.768 0.307,0.308 0.846,0.077 0.845,-0.154 1.076,-0.307 2.229,-1.306 2.767,-1.307 2.151,-1.229 1.998,-0.538 2.843,0 3.458,0.615 2.997,1.076 1.998,0.538 1.383,1.076 0.846,2.075 0.308,1.998 0.307,1.46 0.385,1.152 0.308,1.537 -0.077,1.46 0,0.615 0.153,0.538 0.23,0.538 0.154,0.769 0,1.69 0.153,0.922 0.461,1.152 0.999,0.922 0.615,0.384 0.998,0.153 0.999,0.615 0.846,-0.077 1.383,0 1.076,-0.461 0.999,-1.076 1.537,-2.536 2.459,-2.92 1.46,-1.46 0.384,-1.229 0.077,-1.69 0.845,-1.844 0.615,-1.229 0.922,-0.384 0.922,0.23 1.307,0.999 0.999,1.46 1.46,2.075 2.767,2.766 1.844,1.614 1.229,1.153 0.923,0.615 1.844,0.691 2.075,0.692 2.843,0.23 1.845,-0.615 1.767,-1.383 0.769,-2.997 0.461,0.154 0,-0.154 -0.307,-0.538 -0.308,-0.769 -0.308,-0.922 -0.384,-1.383 -0.077,-0.769 -0.153,-1.229 -0.23,-0.615 0,-0.769 0.076,-0.922 0.077,-0.692 0,-0.768 0.077,-0.461 0.153,-0.307 0.384,-0.845 0.846,-0.769 0.691,-0.538 0.615,-0.384 0.769,-0.461 1.229,-0.307 0.922,-0.154 0.769,0 0.845,-0.077 1.307,-0.077 0.922,-0.23 0.769,-0.23 1.076,-0.615 1.536,-0.691 1.153,-0.384 1.075,-0.461 1.153,-0.538 1.767,-0.922 1.384,-0.846 1.229,-0.615 0.999,-0.384 0.999,-0.461 0.769,-0.23 1.075,-0.23 1.076,-0.077 0.999,-0.077 1.075,0 0.692,-0.077 0.614,-0.308 0.615,-0.153 1.306,-0.461 0.999,-0.384 1.384,-0.23 1.536,-0.153 1.921,0 0.692,0 0.538,0.153 0.537,0.23 0.461,0.231 0.462,0.461 1.075,0.845 0.615,0.384 0.768,0.691 0.538,0.384 0.769,0.154 0.691,-0.077 0.308,-0.077 2.459,-1.46 0.922,-0.538 1.076,-0.922 0.846,-0.769 0.614,-0.384 0.461,-0.384 0.461,-0.615 0.461,-0.307 0.615,-0.23 0.691,-0.154 1.845,0 1.997,0 0.769,0.077 0.615,0.154 1.229,0.615 0.999,0.384 1.383,0.538 0.999,0.153 1.383,-0.077 0.462,0.308 0.537,0.614 0.538,0.538 0.922,0.461 1.076,0.461 0.769,0.461 0.769,0.461 0.538,0.615 0.999,0.999 1.075,0.922 0.846,0.461 0.691,0.384 0.384,0.077 0.385,0 0.769,-0.077 0.23,0 0.538,-0.308 0.768,-0.23 1.307,-0.384 1.152,-0.615 0.692,-0.615 0.537,-0.23 0.769,-0.077 1.384,-0.615 1.152,-0.615 1.229,-0.615 0.846,-0.384 0.691,-0.154 0.845,0 0.385,0.23 0.23,0.154 0.23,0.461 0.153,0.384 0.154,0.461 0.384,0.461 0.384,0.307 0.385,0.307 0.308,0.308 0.307,0.384 0.385,0.845 0.461,0.691 0.23,0.769 0.23,0.461 0.23,0.692 0.308,1.152 0.384,1.307 0.462,1.076 0.461,0.999 0.384,0.769 0.308,0.691 0.23,0.615 0.153,0.538 0.308,0.768 0.308,0.922 0.691,0.922 0.384,0.769 0.461,0.845 0.462,0.922 0.461,0.615 0.769,0.999 0.384,0.307 0.538,0 0.538,0.154 0.384,0.23 0.461,0.461 0.538,0.538 0.538,0.384 0.384,0.077 0.538,-0.077 0.308,-0.23 0.538,-0.384 0.999,-0.154 1.075,0.077 0.846,0.077 1.152,0.461 0.846,0.769 0.691,0.768 0.922,0.769 0.999,1.383 0.769,1.152 0.461,0.615 0.384,0.23 0.385,0.307 0.461,0.23 0.308,0.384 0.384,0.308 0.385,0 0.461,-0.461 0.384,-0.384 0.385,-0.768 0.768,-0.999 0.615,-0.999 0.308,-0.615 0.308,-0.769 0.384,-0.922 0.769,-0.999 1.307,-1.614 1.152,-1.537 0.922,-0.692 1.46,-0.922 1.307,-0.384 1.229,-0.384 0.845,-0.23 0.308,-0.154 0.385,-0.307 0.384,-0.231 0.461,-0.461 -0.999,-4.38 -1.075,-4.918 1.229,-5.994 5.148,6.916 0.307,-0.153 0.23,-0.154 0.308,-0.308 0.23,-0.153 0.154,-0.154 0.23,-0.461 0.076,-0.846 0,-1.152 0.154,-0.538 0.308,-0.384 0.614,-0.307 0.308,0 0.307,0 0.462,-0.077 0.537,0.308 0.615,0.308 0.691,0.307 0.385,0.23 0.845,0.077 0.691,-0.077 0.308,0.308 0.23,0.23 0.308,0.23 0,0 0.691,0.384 0.615,0.384 0.922,0.538 0.384,0.308 0.23,0.691 0.23,0.845 0.461,1.307 0.308,0.615 0.615,1.152 0.614,0.769 1.384,1.153 0.922,0.768 0.538,0.308 0.537,0.384 0.308,0.153 0.308,0.154 0.691,0.23 1.307,0.461 0.461,0.077 0.538,0.077 0.384,0.154 1.614,0 1.306,0 0.538,0 1.383,-0.154 0.538,-0.307 0.923,-0.308 0.845,-0.384 1.384,-0.538 1.306,-0.615 0.538,-0.308 0.461,-0.23 0.846,-0.384 0.691,-0.153 0.614,-0.077 0.846,0 0.769,0.154 0.845,0.307 0.538,0.384 0.538,0.692 0.153,0.461 -0.076,0.538 -0.154,1.306 -0.076,0.845 -0.308,0.691 -0.385,0.308 -0.153,0.461 -0.077,0.769 0.077,1.614 0.077,0.615 0.23,0.384 0.384,0.307 0.615,0.384 0.461,0.154 0.384,0.154 0.615,-0.077 0.461,-0.154 0.308,-0.153 0.461,-0.23 0.461,-0.231 0.23,-0.077 0.308,-0.077 0.23,-0.077 0.23,0 0.23,0 0.23,-0.077 0.538,-0.23 0.23,-0.308 0.384,-0.307 0.461,-0.538 0.385,-0.154 0.538,-0.23 0.307,-0.077 0.769,-0.154 0.691,-0.154 0.231,-0.23 0.384,-0.307 0.614,-0.461 1.307,-0.846 0.23,-0.077 1.076,-0.615 0.999,-0.691 0.614,-0.538 0.538,-0.538 0.769,-0.845 0.999,-0.691 0.461,-0.384 0.922,-0.384 0.769,0 0.769,-0.077 0.308,0 0.384,0.077 0.461,0.23 0.154,0.308 0.076,0.077 0.385,0.692 0.308,0.691 0.307,0.845 0.308,0.999 0.461,1.229 0.461,1.306 0.615,0.922 0.769,1.229 0.537,0.461 0.538,0.461 0.538,0.384 0.461,0.308 0.615,0.23 0.461,0.154 0.538,0.153 0.461,0.384 0.384,0.538 0.154,0.615 0.076,0.615 0.077,0.154 0.153,0.23 0.154,0.23 0,0.691 -0.077,0.384 -0.077,0.307 -0.076,0.231 -0.154,0.384 -0.076,0.384 -0.461,0.692 -0.538,0.922 -0.692,1.229 -0.537,0.615 -0.538,0.154 -0.538,0.077 -0.691,0.23 -0.691,0.692 -0.769,0.845 -0.769,0.999 -0.538,0.922 -0.384,0.692 -0.154,0.615 0,0.922 0.23,0.769 0.461,1.153 0,0.768 0.077,1.229 0.999,3.151 1.076,2.305 0.769,0.845 0.922,0.845 0.922,0.154 0.846,0.077 1.075,-0.307 0.691,-0.23 0.385,0.077 0.461,-0.077 0.538,0.307 0.153,0.384 0.154,0.615 -0.154,0.845 -0.23,0.692 -0.076,0.077 -0.385,0.999 -0.615,0.769 -0.461,0.691 -0.23,0.384 -0.537,1.383 -0.385,0.922 -0.461,0.922 -0.769,1.076 -0.691,0.922 -0.615,0.769 -0.845,0.769 -0.23,0.307 -0.308,0.308 -0.384,0.769 0,0.768 0.153,0.538 0.384,0.307 0.385,0.154 0.538,0.154 0.384,0.23 0.538,0.845 0.384,0.615 0.308,0.615 0.23,0.922 0,1.076 -0.153,1.076 0.076,0.999 0.23,0.999 0.231,0.769 0.23,0.768 0.384,0.845 0.461,1.076 0.461,0.922 0.538,0.999 0.385,0.538 0.384,0.614 0.538,0.692 0.461,0.768 0.384,0.769 0.385,0.846 0.461,0.845 0.615,1.076 0.23,0.461 0.23,0.461 0.307,0.461 0.154,0.615 0.076,0.077 0.154,0.691 0,0.691 -0.154,0.614 -0.307,1.153 -0.308,1.075 -0.153,0.538 -0.154,0.461 -0.153,0.461 -0.077,0.462 -0.23,0.845 -0.384,1.076 -0.154,0.461 -0.153,0.384 0,0.769 0,0.691 0.23,0.308 0.384,0.308 0.308,0.23 0.308,0.23 0.308,0.23 0.537,0.538 0.385,0.308 0.308,0.23 0.461,0.614 1.152,1.307 0.153,0.23 0.154,0.23 0.153,0.384 0.308,0.385 0.153,0.384 0.308,0.308 0.23,0.308 0.154,0.308 0,0.384 -0.154,0.461 -0.308,0.461 -0.23,0.461 -0.153,0.461 0,0.615 0.077,0.308 0.076,0.691 0,0.308 0.077,0.537 0.153,0.538 0.154,0.461 0,0.692 0,0.537 0.076,0.769 0.077,0.615 0.23,0.461 0.154,0.538 0.461,0.461 0.384,0.461 0.153,0.153 0.077,0.077 0.153,0.384 0.077,0.462 0,0.23 0,0.23 0.23,0.999 0.461,0.845 0.692,1.076 0.384,0.461 0.538,0.614 0.691,0.615 0.538,0.308 0.461,0.307 0.461,0.154 0.691,0 1.076,0 0.999,0.077 0.614,0.076 0.538,0.23 0.538,0.385 0.308,0.384 0.23,0.538 0.076,0.691 0.077,0.691 -0.153,1.076 -0.077,1.076 0,1.152 0,0.461 -0.153,1.383 0,0.615 0,0.769 0,0.614 0,1.998 0,0.615 0,1.306 0,1.384 0,1.306 -0.077,1.229 0,0.538 0,0.538 -0.077,0.384 -0.076,0.462 -0.154,0.845 0,0.922 -0.076,0.923 0.076,0.922 0.154,0.845 0.23,0.846 0.461,0.691 0.614,0.691 0.538,0.615 0.461,0.691 0.308,0.769 0.308,0.999 0,0.922 0.076,0.615 -0.153,0.768 -0.23,1.384 -0.23,0.614 -0.384,1.307 -0.23,0.769 -0.231,0.845 -0.153,0.462 -0.23,1.383 -0.308,0.922 -0.308,0.769 -0.153,0.385 -0.153,0 -1.384,0.23 -0.384,-0.615 0.153,-0.999 -0.076,-1.383 -0.385,-0.154 -0.845,-0.23 -0.923,0.846 -0.461,0.999 -0.461,0.769 -0.308,0.614 -0.537,0.922 -0.692,1.307 -0.461,0.691 -0.461,0.308 -0.077,-0.077 -0.153,-0.23 -0.153,-0.23 -0.461,-0.384 -0.385,-0.23 -0.23,-0.23 -0.846,-0.308 -1.536,-0.461 -0.923,-0.077 -0.922,-0.23 -2.535,-0.538 -1.153,-0.23 -1.075,-0.23 -0.846,-0.153 -0.846,-0.23 -0.922,-0.154 -0.845,-0.076 -0.923,-0.154 -0.922,-0.153 -0.538,-0.154 -0.691,-0.153 -0.999,-0.384 -0.461,-0.385 -0.691,-0.23 -0.538,-0.076 -1.383,-0.231 -0.308,-0.076 -0.385,0 -0.461,0 -0.384,0.076 -1.537,0.308 -0.461,0.154 -0.461,0.076 -1.69,0 -1.229,0.154 -1.152,0.153 -2.306,0.23 -0.922,0.077 -0.846,0 -0.691,0.076 -0.615,0 -0.614,0.154 -0.691,0.153 -1.229,0.461 -0.846,0.461 -0.384,0.231 -0.538,0.23 -0.461,0.23 -0.461,0.153 -0.615,0.077 -0.691,0.076 -0.308,0.077 -0.461,0.077 -1.152,0.23 -0.538,0 -0.384,0 -0.385,-0.077 -1.229,-0.538 -1.921,-0.845 -0.999,-0.385 -0.999,-0.307 -2.229,-1.076 -0.614,-0.23 -0.691,-0.23 -0.692,-0.154 -0.153,0 -0.153,-0.076 0,0.153 -0.923,1.998 -0.922,2.306 -0.384,1.229 -0.462,1.152 -1.075,2.306 -0.846,1.613 -0.769,1.229 -0.307,0.461 -0.385,0.461 -0.23,0.385 -0.23,0.23 -0.709,0.464 -0.23,0.23 -0.385,0.153 -0.691,0.308 -0.769,0.308 -0.999,0.384 -0.998,0.385 -2.383,0.691 -2.151,0.614 -2.536,0.692 -2.229,0.461 -2.151,0.384 -2.306,0.308 -0.998,0.077 -1.076,0.153 -1.076,0.153 -0.23,0.077 -0.076,0 -0.692,0.077 -0.076,0.076 -1.46,0.077 -0.999,0.153 -0.999,0.154 -2.536,0.384 -1.307,0.154 -1.306,0.153 -2.92,0.23 -2.997,0.384 -1.614,0.231 -1.613,0.153 -3.074,0.308 -1.69,0.23 -1.767,0.153 -3.92,0.385 -2.074,0.076 -0.538,0.077 -0.538,0.077 -0.922,0.23 -0.999,0.153 -1.46,0.384 -0.461,0.154 -0.461,0.153 -0.538,0.154 -0.538,0.153 -0.384,0.153 -0.385,0.154 -0.999,0.153 -0.691,0.153 -1.076,0.154 -0.768,0 -0.615,0.077 -0.769,0.076 -0.922,0.077 -1.152,0.077 -1.229,0.076 -2.536,0.154 -1.69,0.153 -1.768,0.153 -2.074,0.077 -0.615,0 -0.691,0 -0.691,0 -0.615,0.077 -1.613,-0.154 -1.076,-0.076 -1.152,-0.154 -1.229,-0.153 -0.922,-0.077 -0.999,-0.153 -0.385,0 -0.384,0 -0.846,-0.153 -0.384,0 -0.308,-0.077 -0.077,0 -0.769,-0.23 -0.768,-0.308 -1.614,-0.846 -0.769,-0.384 -0.769,-0.461 -0.461,-0.153 -0.614,-0.308 -0.846,-0.385 -0.538,-0.23 -0.461,-0.23 -0.691,-0.23 -0.614,-0.308 -1.076,-0.23 -1.229,-0.307 -0.999,-0.385 -0.461,-0.153 -0.615,-0.154 -1.229,-0.153 -1.767,-0.077 -1.537,-0.076 -1.153,-0.154 -1.229,-0.076 -1.153,0 -0.461,0 -0.691,0 -1.307,0 -0.384,0 -0.385,0 -0.461,0.076 -0.307,0 -0.385,0 -0.308,0.077 -0.614,0 -0.385,0 -0.307,0 -0.385,0 -0.461,0 -0.922,-0.153 -0.691,-0.154 -0.769,-0.076 -0.846,-0.154 -0.922,-0.153 -1.383,-0.308 -0.769,-0.153 -0.615,-0.077 -0.538,-0.153 -0.537,-0.077 -0.692,-0.23 -0.691,-0.154 -1.46,-0.384 -0.845,-0.153 -0.999,-0.308 -0.769,-0.23 -0.846,-0.308 -0.999,-0.308 -0.691,-0.153 -0.614,0 -0.308,0 -0.23,0 -0.308,0.077 -0.23,0.076 -0.308,0.077 -0.23,0.077 -0.384,0.153 -0.385,0.153 -0.23,0.154 -0.384,0.153 -0.308,0.154 -0.23,0.23 -0.23,0.076 -0.154,0 -0.691,0.154 -1.613,0.307 -1.229,0.154 -1.229,0.077 -0.999,0.153 -0.846,0.153 -0.768,0.154 0,0 -1.691,0.384 -1.767,0.385 -1.614,0.384 -1.768,0.384 -1.69,0.385 -1.383,0.153 -0.999,0.23 -0.691,0.154 -0.23,0.076 -0.538,0.077 -0.538,0 -0.308,0 -0.922,0 -1.229,-0.153 -0.461,-0.154 -0.384,-0.23 -0.308,-0.384 -0.385,-0.769 -0.614,-0.999 -0.308,-0.999 -0.538,-1.46 -0.384,-1.076 -0.385,-0.922 -0.307,-0.769 -0.615,-1.075 -0.538,-0.615 -0.461,-0.614 -0.691,-0.615 -0.384,-0.308 -0.308,-0.153 0,0 -0.23,-0.153 -0.615,-0.154 -0.614,0 -0.999,0.077 -0.999,0.153 -1.307,0.077 -1.69,-0.077 -1.383,-0.23 -1.076,-0.23 -0.846,-0.153 -0.384,-0.154 -0.077,0 -1.075,0.846 -0.538,0.461 -0.153,0.308 -0.23,0.461 -0.462,1.46 -0.307,0.999 -0.308,0.23 -0.922,0.846 -0.538,0.307 -0.538,0.154 -0.384,0 -0.769,-0.077 -1.69,-0.077 -0.923,0 -0.614,0 -0.769,0.23 -1.537,0.308 -1.613,0.308 -2.151,0.691 -1.998,0.461 -0.615,0.23 -0.23,0.077 -0.23,0.153 -0.153,0.308 -0.077,0.308 0,0.384 0.23,1.076 0.153,1.152 0.077,0.538 -2.229,1.229 -3.534,1.921 -2.69,1.229 -3.15,1.229 -2.996,0.999 -2.767,0.846 -0.077,0 -0.077,0 -2.305,0.845 -1.384,0.691 -1.152,0.692 -1.076,1.075 -1.536,1.46 -1.845,1.768 -1.383,0.999 0,0 0,0.077 -0.154,0.153 -0.845,0.691 -1.229,0.692 -1.537,0.998 -1.152,0.769 -1.921,1.229 -1.921,1.46 -1.384,1.153 -0.922,0.307 0,0.077 -0.691,0.385 -0.615,0.384 -0.769,0.461 -0.614,0.154 -0.538,0.076 -0.999,-0.076 -0.845,-0.154 -0.615,0 -0.615,0 -1.383,0.154 -1.152,0.307 -0.769,0.308 0,0.077 0,0 0,0 0.077,0.845 0,0.385 -0.077,0.614 0,0.461 -0.077,0.461 -0.076,0.615 -0.077,0.461 -0.077,0.461 -0.076,0.308 -0.077,0.461 -0.077,0.384 0,0.077 -0.076,0.615 -0.077,0.384 0,0.538 0,0.308 0,0.691 0.077,0.922 0,0.385 0.153,1.46 0.077,0.537 0,0 0.23,1.46 0.307,2.921 0.538,3.381 0.385,3.073 0,0.077 0.23,3.688 0.23,3.228 0.23,3.228 0.308,3.688 0,0.23 0,10.297 1.767,2.767 2.306,3.534 4.149,6.225 4.765,6.762 0.384,3.151 -0.614,3.304 0,5.609 0.768,5.456 0.462,6.302 0.384,0.998 0,0.154 0.846,1.075 0.614,2.229 -0.153,3.305 0.461,5.763 0.23,4.073 0,0.23 0.153,3.305 0.154,3.611 0.384,1.69 2.075,3.611 1.229,3.535 1.152,2.151 0.308,0.385 0.23,0.307 0.23,0.615 0.308,0.461 0.384,0.461 0.308,0.385 0.461,0.537 0.846,0.691 0.614,0.538 0.308,0.23 0.461,0.385 0.922,0.691 0.615,0.691 0.768,0.846 0.923,0.999 0.461,0.461 0.691,0.384 0.384,0.23 -0.384,0.923 -0.308,0.768 -0.691,1.768 -0.691,1.384 -0.538,0.999 -0.538,0.922 -0.537,0.691 -1.307,1.537 -0.691,0.691 -0.461,0.999 -0.308,0.769 -0.385,0.999 0,0.153 0.077,0.922 0,1.768 -0.153,1.69 -0.385,3.535 -0.077,0.999 0.385,0.845 0.614,1.076 0.692,0.845 0.999,0.923 4.226,3.534 1.229,1.46 0.692,1.307 0.614,1.998 0.691,1.921 -1.306,-0.077 -0.692,0 -3.381,-0.691 -1.69,-0.538 -1.69,-0.461 -1.537,-0.153 -1.69,-0.23 -0.769,0 -0.769,-0.077 -0.769,0.077 -0.769,0.153 -0.845,0.461 -0.538,0.385 -0.538,0.384 -0.538,0.461 -0.614,0.385 -0.461,0.077 -0.461,0.153 -0.538,0 -0.538,0.077 -0.614,-0.154 -0.692,-0.076 -0.768,-0.231 -0.769,-0.23 -1.153,-0.691 -1.075,-0.769 -0.615,-0.461 -0.614,-0.538 -0.538,-0.614 -0.385,-0.461 -0.768,-1.537 -0.385,-0.614 -0.384,-0.769 -0.23,-0.615 -0.154,-0.614 -0.153,-0.538 -0.153,-0.615 -0.154,-0.537 -0.153,-0.615 -0.385,-1.152 -0.461,-1.229 -0.23,-0.538 -0.23,-0.615 -0.23,-0.384 -0.384,-0.384 -0.462,-0.385 -0.537,-0.23 -0.923,-0.538 -0.922,-0.461 -0.922,-0.308 -0.922,-0.384 -1.153,-0.23 -1.229,-0.385 -1.306,-0.307 -1.384,-0.308 -1.229,-0.153 -1.383,-0.154 -1.768,0 -1.69,0 -0.308,-0.153 -0.23,-0.154 -0.153,-0.23 -0.153,-0.23 -0.077,-0.23 -0.077,-0.307 0,-0.308 -18.289,-3.688 -27.971,-8.146 -5.148,-1.537 -15.676,-5.532 -3.996,-1.384 -22.361,-6.531 -3.381,-0.922 -2.612,-0.692 -1.537,-0.998 -1.307,-0.538 -1.383,-0.538 -2.306,-1.768 -1.075,-0.308 -1.922,-0.461 -0.768,-0.153 -0.615,-0.538 0,-0.23 -0.384,-0.846 -0.692,-0.845 -0.768,-0.769 -0.692,-0.769 -0.23,-0.308 -0.845,-0.461 -1.537,-0.076 -0.999,-0.077 -0.846,0.077 -0.691,0 -0.614,0.076 -0.769,-0.076 -0.615,-0.231 -0.307,-0.307 -1.229,-0.538 -0.691,-0.153 -1.153,-0.231 -1.075,-0.153 -2.152,-0.769 -2.151,-0.845 -1.383,-0.23 -0.691,-0.154 -0.154,-0.691 -0.308,-0.614 -0.307,-0.462 -0.692,-0.307 -0.691,-0.154 -0.614,0 -0.615,-0.23 -0.23,-0.461 -0.076,-0.461 -0.538,-0.308 -0.691,-0.23 -0.846,-0.153 -0.922,-0.23 -0.922,-0.077 -0.769,-0.23 -1.229,-0.153 -1.076,-0.23 -1.152,-0.308 -0.923,0.076 -0.845,-0.307 -0.769,-0.154 -21.209,9.145 -17.751,4.534 -14.369,4.533 -8.299,2.306 -2.536,0.308 -0.538,-0.077 -0.922,0 -2.92,-0.23 -0.769,-0.23 -0.23,-0.154 -0.384,-0.307 -0.385,-0.308 -0.691,-1.307 -0.461,-1.383 -0.615,-1.307 -1.075,-2.689 -0.461,-1.229 -0.538,-1.229 -0.923,-2.305 -0.461,-0.923 -0.384,-0.999 -0.385,-0.845 -0.384,-0.922 -0.153,-0.385 -0.154,-0.384 2.383,-0.23 0.076,0 0.538,-0.077 1.845,0 0.999,-0.153 0.384,0 0.538,-0.077 0.308,-0.077 0.153,0 0.077,-0.308 0.153,-0.384 0.153,-0.384 -0.153,-0.308 -0.077,-0.308 0,0 -0.153,-0.384 -0.153,-0.308 -0.077,-0.23 0,-0.154 -0.077,-0.076 -0.077,-0.154 -0.153,-0.153 -0.077,-0.077 0,0 -0.076,-0.153 -0.077,-0.077 -0.077,-0.153 0,-0.154 0,0 0,-0.307 -0.076,-0.154 0,-0.307 0,-0.077 -0.077,-0.077 -0.153,-0.384 0,0 -0.077,-0.23 0,-0.077 0,-0.077 -0.077,-0.23 0,-0.076 0,-0.538 0,-0.308 0,0 -0.076,-0.461 0,0 -0.154,-0.308 -0.077,-0.308 0,-0.076 -0.384,-0.691 0,-0.077 0,-0.077 -0.077,-0.308 0,-0.076 -0.23,-0.691 0,-0.077 -0.076,-0.077 0.076,-0.769 0,-0.153 0,-0.615 0,0 0,-0.23 0,-0.461 0,-0.23 0,-0.153 0,-0.077 -0.076,-0.23 -0.077,-0.461 0,-0.308 -0.077,-0.077 0,-0.153 -0.076,-0.23 -0.077,-0.308 -0.077,-0.307 0,0 -0.153,-0.308 -0.077,-0.23 -0.153,-0.23 -0.077,-0.154 -0.077,-0.153 -0.153,-0.308 -0.308,-0.308 -0.076,-0.23 -0.077,-0.076 -0.23,-0.308 -0.154,-0.23 -0.537,-0.461 -0.077,-0.23 0,0 -0.538,-0.385 -0.077,-0.153 -0.307,-0.385 0,0 -0.077,-0.076 -0.23,-0.385 0,0 -0.23,-0.23 -0.077,-0.076 0,-0.077 -0.308,-0.23 0,-0.077 -0.076,-0.153 -0.077,-0.154 0,0 -0.077,-0.384 0,0 0,-0.23 0,-0.461 0,-0.077 -0.153,-0.384 0,0 0,-0.088 -0.23,-0.538 -0.077,-0.23 -0.308,-0.538 -0.076,-0.076 -0.077,-0.154 -0.077,-0.308 -0.153,-0.153 -0.153,-0.384 0,-0.077 -0.154,-0.153 -0.153,-0.385 -0.153,-0.153 -0.077,-0.154 -0.077,-0.076 -0.153,-0.154 -0.154,-0.23 -0.153,-0.23 -0.077,-0.076 -0.23,-0.154 -0.23,-0.23 -0.153,-0.153 -0.308,-0.154 0,-0.076 -0.23,-0.077 -0.308,-0.23 -0.076,-0.077 -0.077,-0.153 -0.077,-0.154 0,-0.076 -0.076,-0.385 0,-0.461 0,-0.308 0.076,-0.998 -0.076,-0.231 -0.077,-0.768 -0.077,-0.154 0,0 -0.23,-0.614 0,-0.154 -0.23,-0.614 -0.077,-0.077 0,-0.077 -0.23,-0.922 0,0 -0.076,-0.538 0,-0.153 0,0 0,-0.922 0,-0.077 0,-0.461 0,-0.461 0,-0.154 0.153,-0.768 0,-0.077 0,-0.23 0.153,-0.538 0,-0.153 0.077,-0.769 0,-0.154 0,0 0,-1.46 0,-0.461 -0.077,-0.691 -0.076,-0.077 0,-0.23 0,-0.461 0,-0.23 0,-0.23 0,-0.077 0,-0.23 -0.154,-0.538 -0.076,-0.461 -0.154,-0.23 -0.076,-0.153 -0.23,-0.308 -0.231,-0.384 -0.307,-0.461 -0.077,0 -0.23,-0.23 -0.385,-0.385 -0.307,-0.153 -0.385,-0.23 -0.153,-0.154 -0.23,-0.23 -0.538,-0.461 -0.308,-0.23 -0.307,-0.23 -0.308,-0.384 -0.154,-0.077 -0.461,-0.691 -0.153,-0.154 -0.077,-0.153 -0.307,-0.538 -0.077,-0.077 -0.538,-0.691 -0.077,-0.076 0,0 -0.384,-0.538 0,-0.077 -0.23,-0.538 -0.077,-0.076 0,0 -0.153,-0.846 0,-0.077 -0.077,-0.614 -0.077,-0.308 0,-0.077 -0.23,-0.845 -0.076,-0.077 -0.154,-0.461 -0.23,-0.461 -0.076,-0.153 -0.462,-0.846 -0.076,-0.23 -0.077,-0.153 -0.308,-0.538 -0.153,-0.23 -0.538,-0.692 -0.077,-0.23 -0.076,-0.076 -0.461,-0.615 -0.308,-0.23 -0.461,-0.614 -0.077,-0.077 -0.308,-0.308 -0.384,-0.461 -0.23,-0.23 -0.308,-0.308 -0.077,0 -0.307,-0.307 -0.23,-0.154 -0.308,-0.308 -0.23,-0.153 -0.154,-0.077 -0.461,-0.461 -0.077,-0.076 -0.23,-0.154 -0.076,0 -0.077,-0.153 -0.308,-0.308 -0.076,-0.153 -0.23,-0.23 -0.077,-0.077 -0.153,-0.153 -0.154,-0.154 -0.153,-0.153 -0.077,-0.077 -0.153,-0.23 -0.154,0 -0.076,-0.077 -0.23,-0.307 -0.154,-0.077 0,-0.077 -0.23,-0.23 -0.153,-0.153 -0.077,0 -0.153,-0.308 -0.154,-0.153 0,0 -0.23,-0.385 -0.153,-0.153 0,0 -0.23,-0.308 -0.154,-0.153 0,0 -0.153,-0.385 -0.077,-0.153 0,-0.077 -0.23,-0.384 -0.076,-0.154 -0.077,-0.153 -0.23,-0.23 -0.077,-0.077 0,-0.153 -0.153,-0.385 -0.077,-0.076 -0.077,-0.154 -0.23,-0.307 0,-0.077 -0.076,-0.153 -0.23,-0.385 -0.077,0 -0.077,-0.23 -0.153,-0.308 0,-0.076 -0.077,-0.23 -0.308,-0.308 0,0 -0.153,-0.23 -0.308,-0.385 0,0 -0.23,-0.23 -0.153,-0.307 0,-0.077 -0.23,-0.23 -0.23,-0.308 0,-0.077 -0.23,-0.307 -0.077,-0.23 -0.077,0 -0.076,-0.23 -0.077,-0.231 0,-0.153 -0.153,-0.308 -0.077,-0.153 -0.077,-0.077 -0.153,-0.308 -0.077,-0.153 -0.077,-0.153 -0.23,-0.23 -0.153,-0.23 -0.153,-0.23 -0.538,-0.615 -0.077,-0.077 -0.077,-0.076 -0.153,-0.308 -0.077,0 -0.076,-0.153 -0.23,-0.231 0,0 -0.154,-0.153 -0.307,-0.308 0,0 -0.154,-0.153 -0.153,-0.23 0,0 -0.154,-0.153 -0.307,-0.23 0,0 -0.154,-0.231 -0.153,-0.23 0,0 -0.077,-0.153 0,-0.153 -0.076,0 0,-0.23 -0.077,-0.308 0,-0.077 -0.077,-0.153 -0.153,-0.23 -0.077,-0.154 -0.077,-0.076 -0.153,-0.154 -0.077,-0.153 -0.076,-0.153 -0.154,-0.154 -0.076,-0.153 -0.077,-0.154 0,-0.23 -0.077,-0.23 -0.076,-0.153 -0.077,-0.154 -0.077,-0.153 -0.077,-0.23 -0.076,-0.153 -0.077,-0.23 0,-0.154 0,-0.153 0,-0.308 0.077,-0.153 0,-0.154 0.153,-0.461 0.077,-0.384 0.077,-0.154 0.153,-0.845 0.077,-0.23 0,-0.154 0.23,-0.537 0.076,-0.077 0,0 0.154,-0.384 0.153,-0.077 0,0 0.308,-0.385 0,-0.076 0.077,0 0.384,-0.385 0.077,-0.076 0,0 0.537,-0.385 0,0 0,0 0.538,-0.23 0.077,-0.077 0,0 0.461,-0.23 0,-0.076 0.077,0 0.845,-0.538 0,0 0.077,-0.077 0.538,-0.538 0.077,0 0,-0.076 0.23,-0.308 0,-0.077 0.076,0 0.077,-0.384 0.077,-0.077 0,-0.077 0,-0.384 0,-0.153 0,0 0,-0.462 0,-0.076 0,-0.077 0,-0.461 0,-0.153 0,-0.077 0.076,-0.999 0.077,-0.384 0,0 0.077,-0.462 0.076,-0.307 0,0 0,-0.538 0,-0.23 0,0 0,-0.461 0,-0.385 0,0 0,-0.384 0,-0.461 0,0 -0.153,-0.461 -0.077,-0.538 0,0 -0.076,-0.385 -0.154,-0.384 0,-0.077 -0.076,-0.23 -0.154,-0.384 0,-0.077 -0.076,-0.23 -0.077,-0.461 0,-0.077 0,-0.23 0,-0.384 -0.077,0 0.077,-0.154 0,-0.538 0,-0.119 0,-0.154 0,-0.461 0,-0.076 0.077,-0.077 0.153,-0.461 0,-0.077 0.077,-0.077 0.23,-0.691 0,-0.153 0.076,-0.077 0.461,-0.845 0.077,-0.154 0,0 0.461,-1.075 0,-0.231 0,0 0.308,-0.384 0,-0.077 0,0 0.308,-0.537 0.076,-0.077 0,-0.077 0.308,-0.461 0.077,0 0,-0.077 0.308,-0.461 0,0 0.153,-0.153 0.308,-0.385 0,0 0.076,-0.153 0.154,-0.384 0,0 0.077,-0.154 0.23,-0.461 0.076,-0.077 0.077,-0.076 0.077,-0.461 0,-0.077 0,-0.153 0.076,-0.538 0,-0.154 0.077,-0.23 0.077,-0.307 0,-0.154 0.076,-0.23 0.154,-0.691 0.076,-0.308 0.077,-0.384 0.077,-0.308 0,-0.23 0.077,-0.23 0,-0.385 0,-0.307 0,-0.308 0,-0.846 0,-0.768 0.076,-0.692 -0.076,-0.384 0,-0.385 0,-0.384 -0.077,-0.23 -0.077,-0.23 -0.077,-0.308 0,-0.153 -0.153,-0.385 -0.153,-0.307 -0.077,-0.23 -0.23,-0.462 -0.23,-0.307 -0.077,-0.154 -0.23,-0.461 -0.23,-0.308 -0.077,-0.076 -0.307,-0.461 -0.23,-0.308 0,-0.077 -0.23,-0.384 -0.231,-0.385 0,0 -0.307,-0.307 -0.23,-0.231 0,-0.076 -0.308,-0.308 -0.23,-0.23 -0.077,-0.077 -0.461,-0.384 -0.153,-0.23 -0.154,-0.154 -0.307,-0.23 -0.231,-0.153 -0.076,-0.153 -0.308,-0.23 -0.153,-0.154 -0.154,-0.077 -0.307,-0.307 -0.154,-0.077 -0.153,-0.153 -0.23,-0.308 -0.077,-0.077 -0.153,-0.153 -0.154,-0.308 -0.076,-0.077 -0.154,-0.153 -0.153,-0.23 0,-0.077 -0.154,-0.23 -0.076,-0.308 -0.077,-0.076 -0.153,-0.308 -0.077,-0.384 -0.077,0 -0.153,-0.308 -0.077,-0.308 0,0 -0.23,-0.461 -0.076,-0.23 0,0 -0.077,-0.385 -0.077,-0.23 0,0 -0.077,-0.307 0,-0.154 0,-0.076 0,-0.308 0,-0.23 0,-0.077 0,-0.384 0.077,-0.154 0,-0.153 0.077,-0.308 0,-0.153 0.077,-0.154 0.153,-0.461 0,-0.076 0,-0.154 0,-0.384 0,0 0,-0.154 0,-0.384 -0.077,-0.077 0,-0.153 -0.153,-0.538 0,0 -0.077,-0.153 -0.23,-0.461 0,0 -0.077,-0.23 -0.23,-0.308 0,-0.077 -0.076,-0.153 -0.154,-0.385 0,-0.153 0,-0.153 -0.076,-0.462 0,-0.076 0,-0.23 -0.077,-0.308 0,-0.153 0,-0.154 0,-0.384 0,-0.154 -0.077,-0.23 -0.153,-0.307 -0.077,-0.23 0,-0.154 -0.153,-0.308 -0.077,-0.23 -0.153,-0.23 -0.154,-0.308 -0.153,-0.307 -0.077,-0.154 -0.153,-0.153 -0.153,-0.308 -0.077,-0.076 -0.23,-0.23 -0.23,-0.308 -0.077,-0.077 -0.153,-0.153 -0.385,-0.308 -0.076,-0.077 -0.154,-0.153 -0.384,-0.23 -0.077,-0.077 -0.153,-0.153 -0.308,-0.308 -0.153,-0.077 -0.154,-0.153 -0.384,-0.461 -0.154,-0.077 -0.076,-0.077 -0.538,-0.384 -0.077,-0.077 -0.076,0 -0.538,-0.461 -0.077,0 -0.077,-0.077 -0.607,-0.397 -0.076,0 -0.077,-0.077 -0.691,-0.307 0,-0.077 0,0 -0.769,-0.308 0,-0.076 -0.077,0 -0.691,-0.308 0,0 -0.077,0 -0.691,-0.385 0,0 0,0 -0.769,-0.384 -0.076,0 0,0 -0.691,-0.308 -0.077,-0.077 0,0 -0.615,-0.23 -0.153,-0.076 0,0 -0.614,-0.154 -0.154,-0.076 -0.077,0 -0.845,-0.154 -0.23,-0.076 -0.077,0 -0.461,-0.077 -0.23,-0.077 0,0 -0.461,-0.076 -0.154,-0.077 -0.076,0 -0.461,-0.154 -0.23,-0.076 -0.077,0 -0.461,-0.154 -0.23,0 0,-0.076 -0.385,-0.077 -0.307,-0.077 -0.077,-0.076 -0.308,-0.154 -0.308,-0.076 -0.076,-0.077 -0.308,-0.153 -0.23,-0.154 -0.077,0 -0.153,-0.077 -0.308,-0.23 -0.077,0 -0.153,-0.153 -0.308,-0.308 -0.076,-0.076 -0.077,-0.154 -0.23,-0.23 -0.077,-0.077 -0.077,-0.153 -0.23,-0.308 -0.076,-0.076 -0.077,-0.077 -0.153,-0.384 -0.077,-0.077 0,-0.154 -0.077,-0.461 0,-0.153 -0.077,-0.077 0,-0.538 0,-0.076 0,-0.154 0,-1.075 0,-0.385 0,0 0,-0.537 0,-0.154 0.154,-0.614 0,-0.23 0,0 0.077,-0.538 0,-0.077 0,-0.085 0.076,-0.537 0.077,-0.077 0,-0.077 0,-0.614 0.077,-0.077 0,-0.153 0,-1.076 0,-0.077 0,-0.384 0,-0.538 0,0 -0.077,-0.23 -0.077,-0.538 0,0 -0.076,-0.153 -0.077,-0.538 0,0 -0.154,-0.308 -0.307,-0.461 0,-0.076 -0.154,-0.308 -0.23,-0.385 0,-0.076 -0.076,-0.23 -0.154,-0.308 0,-0.079 0,-0.153 -0.076,-0.308 0,-0.077 -0.077,-0.23 -0.077,-0.307 0,-0.154 -0.076,-0.23 0,-0.23 0,-0.153 0,-0.23 0,-0.231 0,-0.153 0,-0.308 0.076,-0.23 0,-0.23 0,-0.384 0.077,-0.154 0,-0.153 0.077,-0.308 0,-0.153 0.076,-0.308 0,-0.384 0,-0.23 0.077,-0.538 0.153,-0.691 0,-0.077 0,-0.23 0,-0.153 0,-0.077 0.077,-0.308 0.077,-0.308 0,0 0.076,-0.384 0.077,-0.308 0.077,-0.076 0.153,-0.615 0.077,-0.461 0.076,-0.077 0,-0.308 0.077,-0.307 0,-0.077 0.077,-0.308 0,-0.307 0,-0.154 0,-0.308 0,-0.153 0,-0.077 0,-0.307 0,-0.231 0,-0.153 -0.077,-0.23 -0.077,-0.23 0,-0.23 -0.153,-0.23 0,-0.077 -0.077,-0.23 -0.076,-0.23 0,-0.153 -0.077,-0.23 -0.077,-0.308 0,-0.154 -0.076,-0.307 0,-0.23 0,-0.077 0,-0.384 0,-0.308 0,-0.077 0,-0.384 -0.077,-0.23 0,-0.077 -0.077,-0.308 -0.076,-0.23 -0.077,-0.077 0,0 -0.077,-0.384 -0.076,-0.23 0,0 -0.23,-0.384 -0.077,-0.154 0,0 -0.077,-0.384 -0.077,-0.077 0,0 -0.076,-0.384 0,-0.154 0,0 -0.077,-0.384 0.077,-0.077 0,-0.077 0,-0.461 0,-0.076 0,-0.077 0,-0.385 0.076,-0.076 0,-0.077 0.231,-0.461 0,0 0,-0.077 0.23,-0.384 0,0 0.076,-0.23 0.385,-0.691 0.076,-0.077 0.077,-0.153 0.23,-0.462 0,-0.076 0.077,-0.077 0.076,-0.384 0,-0.077 0,-0.077 0,-0.384 0,-0.154 0,-0.076 0,-0.461 0,-0.154 0,-0.076 -0.076,-0.385 0,-0.23 0,-0.077 0,-0.23 -0.077,-0.153 0,-0.153 0.077,-0.538 0,-0.385 0,-0.076 0,-0.308 0,-0.154 0,-0.153 0,-0.704 0,-0.691 0,-0.077 0,-0.308 0,-0.384 0,-0.077 0,-0.23 -0.077,-0.384 0,-0.077 -0.077,-0.308 0,-0.384 0,0 -0.076,-0.23 -0.077,-0.461 0,0 -0.077,-0.23 -0.076,-0.538 0,-0.077 -0.077,-0.153 -0.153,-0.615 0,0 0,-0.077 -0.077,-0.461 0,0 0,-0.153 -0.077,-0.614 0,0 0,-0.077 -0.076,-0.538 0,0 -0.077,-0.077 -0.23,-1.229 0,0 0,0 -0.154,-0.537 -0.076,0 0,0 -0.23,-0.615 -0.077,0 0,0 -0.23,-0.538 0,0 0,-0.077 -0.769,-0.307 0,-0.077 -0.077,0 -0.384,-0.384 -0.077,0 0,-0.077 -0.461,-0.384 -0.077,-0.077 -0.076,0 -0.385,-0.461 -0.076,-0.077 -0.077,-0.077 -0.384,-0.384 -0.077,-0.154 -0.077,-0.076 -0.23,-0.23 -0.153,-0.077 -0.077,-0.077 -0.23,-0.307 -0.153,-0.154 -0.077,-0.076 -0.153,-0.385 0,-0.077 -0.077,-0.076 -0.077,-0.615 -0.077,-0.384 -0.076,-0.23 0,-0.922 0,-0.692 0,-0.384 0.076,-0.385 0,-0.307 0.077,-0.23 0.077,-0.308 0.077,-0.308 0,-0.23 0.23,-0.308 0.23,-0.307 0.153,-0.23 0.153,-0.385 0.308,-0.614 0.154,-0.308 0.153,-0.23 0.23,-0.538 0.153,-0.308 0.077,-0.23 0.23,-0.614 0,-0.23 0,-0.154 0,-0.538 0.077,-0.307 0,-0.077 -0.077,-0.615 0,-0.307 0,0 -0.153,-0.691 -0.077,-0.385 0,0 -0.308,-0.691 -0.153,-0.385 0,0 -0.308,-0.768 -0.077,-0.308 -0.076,-0.077 -0.461,-0.614 -0.154,-0.23 -0.076,-0.077 -0.462,-0.769 -0.153,-0.23 -0.153,-0.23 -0.538,-0.615 0,-0.153 -0.153,-0.23 -0.462,-0.691 -0.076,-0.154 -0.154,-0.153 -0.23,-0.614 -0.076,-0.077 -0.154,-0.308 -0.23,-0.538 -0.077,-0.076 -0.153,-0.23 -0.077,-0.538 0,0 -0.076,-0.385 -0.077,-0.538 0,0 0,-0.307 -0.077,-0.615 0,-0.077 0,-0.538 -0.153,-0.692 0,0 -0.153,-0.615 -0.308,-0.615 -0.077,-0.077 -0.308,-0.538 -0.23,-0.461 -0.076,-0.077 -0.461,-0.538 -0.231,-0.308 -0.153,-0.153 -0.308,-0.384 -0.23,-0.154 -0.153,-0.077 -0.308,-0.384 -0.23,-0.23 -0.153,-0.154 -0.538,-0.538 -0.153,-0.153 -0.077,-0.231 -0.461,-0.538 -0.077,-0.154 -0.153,-0.307 -0.308,-0.615 0,-0.153 -0.077,-0.308 -0.23,-0.615 0,-0.077 -0.077,-0.461 -0.153,-0.615 0,0 -0.153,-0.615 -0.154,-0.846 0,0 -0.23,-0.614 -0.307,-0.846 0,-0.153 -0.308,-0.615 -0.385,-0.999 0,-0.154 -0.23,-0.615 -0.384,-0.769 -0.077,-0.307 -0.23,-0.461 -0.153,-0.461 -0.154,-0.23 -0.23,-0.461 -0.23,-0.461 -0.153,-0.308 -0.23,-0.307 -0.154,-0.461 -0.153,-0.307 -0.23,-0.384 -0.23,-0.461 -0.153,-0.308 -0.154,-0.384 -0.077,-0.384 -0.153,-0.461 -0.153,-0.384 -0.077,-0.23 -0.153,-0.538 0,-0.308 -0.077,-0.307 0,-0.615 0,-0.845 0,-0.769 0,-1.614 0,-0.461 0,-0.23 0.077,-0.846 0.153,-0.384 0.077,-0.308 0.153,-0.845 0.153,-0.538 0,-0.307 0.385,-1.383 0.077,-0.384 0.076,-0.154 0.385,-1.152 0.153,-0.308 0,-0.077 0.308,-1.076 0.077,-0.384 0,0 0.384,-1.229 0.077,-0.308 0,0 0.23,-1.383 0.076,-0.154 0.077,-0.077 0.385,-1.613 0,-0.23 0.076,-0.231 0.461,-2.612 0,-0.077 0,-0.154 0.077,-1.306 0,0 0,-0.23 0,-1.383 0,-0.077 0,-0.769 0,-4.841 0,-0.538 0.077,-0.077 0.076,-0.769 0,-0.077 0.077,-0.077 0.385,-0.922 0.076,-0.154 0,-0.154 0.385,-0.922 0.076,-0.308 0.077,-0.154 0.153,-0.922 0.077,-0.308 0,-0.153 0,-1.076 0,-0.538 0,0 0,-0.769 0,-0.461 0,0 -0.077,-0.769 -0.076,-0.538 0,-0.077 0,-0.691 0.076,-0.538 0,0 0.077,-0.615 0.153,-0.538 0,0 0.154,-0.615 0.153,-0.691 0,0 0,-0.538 0.077,-0.691 0,0 0,-0.615 -0.077,-0.999 0,-0.077 -0.076,-0.692 -0.077,-1.383 0,-0.077 0,-0.461 -0.077,-0.999 0,-0.154 0,-0.23 -0.153,-0.845 -0.077,-0.077 -0.077,-0.23 -0.384,-0.692 -0.077,-0.077 -0.076,-0.23 -0.692,-0.769 -0.076,-0.154 -0.077,-0.077 -0.769,-0.691 -0.077,-0.154 -0.076,0 -0.922,-0.692 -0.154,-0.077 0,0 -1.152,-0.154 -0.154,-0.077 0,0 -0.922,-0.077 -0.076,0 0,0 -1.153,-0.308 -0.076,0 -0.154,-0.077 -1.768,-0.615 0,0 -0.307,-0.077 -1.614,-0.691 0,0 -0.308,-0.154 -1.383,-0.615 -0.077,-0.077 -0.461,-0.154 -0.922,-0.615 -0.077,0 -0.23,-0.23 -0.845,-0.615 -0.154,-0.077 -0.23,-0.231 -0.769,-0.768 -0.153,-0.154 -0.384,-0.308 -0.615,-0.615 -0.23,-0.23 -0.308,-0.307 -0.461,-0.615 -0.153,-0.23 -0.308,-0.23 -0.384,-0.384 -0.154,-0.154 -0.153,-0.23 -0.308,-0.154 -0.153,-0.154 -0.23,-0.077 -0.385,-0.154 -0.384,-0.077 -0.461,-0.077 -0.23,-0.153 -0.308,-0.23 -0.23,-0.077 -0.385,-0.23 -0.384,-0.384 -0.461,-0.23 -0.154,-0.154 -0.153,-0.23 -0.23,-0.23 -0.153,-0.077 -0.308,-0.154 -0.23,-0.154 -0.077,0 -0.308,-0.077 -0.153,-0.077 -0.153,0 0,0 -0.154,-0.077 -0.076,0 0,0 0,0.077 0,0.077 0,0 0,0.077 -0.077,0 0,0 -0.077,0.077 0,0.077 0,0 -0.23,0.077 -0.077,0 0,0 -0.23,0 -0.076,0 -0.077,0 -0.153,0.154 0,0.077 -0.077,0.077 -0.153,0.307 -0.077,0.154 -0.077,0.154 -0.384,0.461 -0.154,0.23 -0.153,0.23 -0.308,0.384 -0.106,0.151 -0.231,0.23 -0.23,0.154 -0.076,0.077 -0.23,0.077 -0.077,0.077 0,0 -0.077,0 -0.23,0.077 0,0 -0.23,0.077 -0.153,0.077 0,0 -0.154,0.077 -0.153,0.077 0,0 -0.077,0.077 -0.153,0.077 0,0 -0.153,0 -0.154,0.077 0,0 -0.23,0.154 -0.153,0 0,0 -0.23,0.077 -0.154,0 -0.076,0 -0.385,0.077 -0.153,-0.077 -0.077,0 -0.308,-0.077 -0.076,0 -0.077,0 -0.23,-0.077 0,-0.077 -0.077,0 -0.153,-0.077 -0.077,0 -0.076,-0.077 -0.308,-0.23 0,0 -0.154,0 -0.384,-0.154 0,0 -0.153,-0.077 -0.308,-0.154 0,0 -0.23,0 -0.385,-0.077 -0.076,0 -0.23,0 -0.385,-0.077 -0.076,0 -0.308,0 -0.385,-0.077 -0.153,0 -0.23,0 -0.385,0 -0.23,-0.077 -0.307,-0.077 -0.777,-0.077 -0.308,-0.077 -0.384,-0.154 -0.615,-0.154 -0.461,-0.077 -0.384,-0.154 -0.692,-0.154 -0.538,-0.154 -0.23,-0.077 -0.307,-0.077 -0.23,-0.154 -0.23,-0.077 -0.308,-0.154 -0.385,-0.23 -0.153,-0.077 -0.23,-0.23 -0.461,-0.23 -0.23,-0.154 -0.308,-0.153 -0.769,-0.308 -0.153,-0.077 -0.154,-0.154 -0.537,-0.23 -0.154,-0.077 -0.077,-0.077 -0.307,-0.154 -0.077,-0.077 -0.077,0 -0.307,-0.23 -0.077,-0.077 -0.153,-0.077 -0.538,-0.461 -0.154,-0.077 -0.153,-0.154 -0.691,-0.538 -0.077,-0.077 -0.153,-0.077 -0.846,-0.691 -0.076,-0.077 -0.077,-0.077 -0.615,-0.461 -0.076,-0.077 0,0 -0.769,-0.615 -0.077,0 0,0 -0.538,-0.538 0,0 -0.076,0 -0.538,-0.307 0,0 0,0 -0.385,-0.154 -0.076,-0.077 0,0 -0.385,-0.077 0,0 0,0 -0.23,0 0,0.077 0,0 -0.308,0.077 0,0 -0.076,0 -0.23,0.077 -0.077,0 0,0 -0.23,0.077 -0.077,0 0,0.077 -0.153,0 -0.077,0.077 0,0 -0.23,0.077 -0.077,0.077 0,0 -0.23,0.154 -0.153,0.153 0,0 -0.384,0.615 -0.308,0.384 -0.077,0.077 -0.384,0.384 -0.308,0.384 -0.153,0.077 -0.154,0.154 -0.23,0.23 -0.077,0 -0.153,0.153 -0.308,0.231 -0.076,0.077 -0.154,0 -0.153,0.077 -0.077,0 -0.153,0 -0.23,0.077 -0.077,0 -0.538,0 -0.076,0 -0.231,0.077 -0.076,0 0,0 -0.23,0 -0.077,0 0,0 -0.308,0.077 -0.076,0 0,0 -0.385,0 -0.077,0 -0.076,0.077 -0.385,0 -0.153,0 0,0 -0.691,0 -0.23,0.077 0,0 -0.923,0.23 -0.153,0.077 -0.153,0 -0.691,0.153 -0.154,0 -0.153,0.077 -0.461,0 -0.077,0 -0.077,0 -0.461,0 -0.077,0 -0.076,-0.077 -0.154,-0.077 0,0 0,-0.077 -0.153,-0.154 0,0 -0.077,0 -0.23,-0.23 0,0 -0.076,-0.154 -0.23,-0.23 0,-0.077 -0.154,-0.154 -0.153,-0.384 0,-0.077 -0.154,-0.23 -0.153,-0.308 -0.077,-0.077 -0.153,-0.154 -0.153,-0.154 0,-0.077 -0.077,-0.154 -0.153,-0.154 0,0 -0.077,-0.153 -0.077,-0.077 -0.077,-0.077 -0.076,-0.154 -0.077,-0.077 -0.077,-0.077 -0.153,-0.154 0,0 -0.077,-0.077 -0.153,-0.077 0,-0.077 -0.077,-0.077 -0.153,-0.077 -0.077,0 0,-0.154 -0.153,-0.077 -0.077,0 -0.23,-0.154 -0.308,-0.23 -0.076,-0.077 -0.23,-0.23 -0.308,-0.23 -0.077,0 -0.384,-0.307 -0.308,-0.384 0,0 -0.461,-0.231 -0.385,-0.307 0,-0.077 -0.23,-0.23 -0.23,-0.231 0,0 -0.153,-0.153 -0.153,-0.077 0,-0.077 -0.385,-0.308 -0.153,-0.23 -0.154,-0.077 -0.153,-0.154 -0.23,-0.154 -0.077,-0.077 -0.307,-0.308 -0.231,-0.153 -0.153,-0.154 -0.384,-0.23 -0.154,-0.154 -0.23,-0.154 -0.153,-0.153 -0.154,-0.077 -0.153,-0.077 -0.23,-0.154 -0.077,0 -0.23,-0.154 -0.153,-0.077 -0.077,-0.077 -0.308,-0.154 -0.23,-0.154 -0.076,-0.077 -0.23,-0.23 -0.154,-0.077 -0.076,0 -0.231,-0.154 -0.153,-0.153 -0.077,-0.077 -0.307,-0.23 -0.154,-0.153 -0.076,0 -0.461,-0.154 -0.231,-0.23 0,0 -0.384,-0.308 -0.23,-0.154 0,-0.077 -0.461,-0.384 -0.154,-0.154 0,0 -0.384,-0.538 -0.153,-0.077 -0.077,-0.153 -0.461,-0.692 0,-0.154 -0.077,-0.077 -0.384,-0.538 -0.077,-0.077 -0.077,-0.077 -0.461,-0.538 -0.077,-0.077 -0.23,-0.23 -0.691,-0.769 0,0 -0.153,-0.077 -0.308,-0.23 0,0 -0.153,-0.077 -0.461,-0.384 -0.077,0 -0.153,-0.154 -0.462,-0.23 -0.076,-0.077 -0.154,-0.077 -0.384,-0.384 -0.153,-0.077 -0.077,-0.153 -0.385,-0.308 -0.109,0 -0.077,-0.23 -0.538,-0.538 -0.153,-0.23 -0.077,-0.077 -0.308,-0.384 -0.076,-0.154 -0.077,-0.077 -0.308,-0.23 -0.153,-0.154 -0.077,-0.077 -0.307,-0.231 -0.154,-0.153 -0.077,0 -0.153,-0.077 -0.23,-0.154 -0.153,-0.077 -0.385,-0.23 -0.538,-0.23 -0.153,0 -0.384,-0.23 -0.615,-0.23 -0.077,0 -0.307,-0.154 -0.385,-0.308 -0.076,0 -0.231,-0.23 -0.384,-0.307 0,0 -0.077,-0.154 -0.23,-0.384 0,0 -0.076,-0.077 -0.154,-0.23 0,0 0,-0.077 -0.153,-0.461 0,0 0,-0.077 0,-0.231 0,0 0,-0.077 0.153,-0.461 0,0 0.077,-0.154 0.384,-0.691 0,-0.077 0.077,-0.077 0.538,-1.153 0,-0.077 0.077,0 0.691,-1.229 0,-0.077 0,0 1.383,-2.152 0,0 0.077,-0.077 0.614,-1.153 0.077,0 0,-0.077 0.922,-1.69 0.077,-0.077 0.153,-0.153 0.385,-0.846 0,-0.077 0.076,-0.077 0.23,-0.922 0,-0.077 0,-0.154 0.077,-0.538 0,-0.077 0,-0.077 0,-0.845 0,-0.231 0,-0.23 0.077,-0.845 0,-0.307 0,-0.224 0,-0.384 0,-0.154 0.077,-0.154 0.076,-0.23 0.077,-0.154 0,-0.077 0.153,-0.538 0.077,-0.384 0.077,-0.23 0.153,-0.615 0.077,-0.384 0,-0.307 0,-0.308 0,-0.384 0,-0.154 0,-0.23 0,-0.231 0,0 0,-0.23 0,-0.307 -0.077,-0.154 0,-0.154 -0.077,-0.307 0,-0.154 -0.076,-0.154 -0.154,-0.307 -0.076,-0.077 0,-0.154 -0.154,-0.384 0,-0.23 -0.076,-0.077 -0.077,-0.384 0,-0.231 0,-0.077 0,-0.384 0,-0.307 0,0 0,-0.615 0,-0.308 0,0 -0.077,-0.384 0,-0.153 0,-0.077 -0.077,-0.461 0,-0.154 0,-0.077 -0.153,-0.461 -0.077,-0.154 0,-0.077 -0.23,-0.538 0,-0.077 -0.076,-0.077 -0.308,-0.384 -0.077,-0.154 -0.153,-0.077 -0.461,-0.461 -0.154,-0.154 -0.23,-0.154 -0.614,-0.307 -0.077,-0.077 -0.384,-0.153 -0.538,-0.231 0,-0.077 -0.385,-0.154 -0.307,-0.153 0,0 -0.308,-0.154 -0.769,-0.461 0,0 -0.538,-0.384 -0.691,-0.538 -0.077,0 -0.614,-0.538 -0.154,-0.153 -0.076,0 -0.154,-0.077 -0.384,-0.23 -0.077,0 -0.307,-0.23 -0.231,-0.154 -0.153,0 -0.384,-0.153 -0.385,0 -0.076,-0.077 -0.615,-0.077 -0.153,0 -0.154,-0.077 -0.307,0 -0.462,0 -0.307,-0.077 -0.923,0 -0.153,-0.077 -0.153,0 -0.385,-0.154 -0.153,-0.077 -0.23,-0.077 -0.308,-0.23 -0.077,-0.077 -0.23,-0.154 -0.461,-0.308 -0.077,-0.077 -0.307,-0.23 -0.615,-0.384 -0.076,0 -0.154,-0.154 -0.384,-0.153 0,0 -0.308,-0.154 -0.308,-0.23 -0.076,0 -0.154,-0.077 -0.153,-0.077 -0.077,0 -0.077,0 -0.076,0 0,0 -0.077,0.077 0,0 -0.077,0 -0.153,0 -0.077,0.077 -0.076,0 -0.154,0 -0.23,0.077 -0.23,0 -0.153,0.077 -0.154,0 -0.076,0 -0.308,0.077 -0.308,0 -0.384,0.077 -0.154,0 -0.153,0 -0.308,-0.077 -0.23,0 -0.153,0 -0.308,-0.077 -0.077,-0.077 -0.076,0 -0.23,-0.077 -0.23,-0.154 -0.154,-0.077 -0.384,-0.23 -0.154,-0.077 -0.076,-0.077 -0.308,-0.154 -0.23,-0.23 0,-0.077 -0.615,-0.538 -0.307,-0.307 -0.077,-0.077 -0.691,-0.691 -0.23,-0.154 0,-0.077 -0.615,-0.538 -0.076,-0.077 0,0 -0.308,-0.308 -0.23,-0.23 0,0 -0.999,-0.922 -0.077,-0.153 -0.077,0 -0.922,-0.769 -0.077,-0.077 0,-0.077 -0.845,-0.461 -0.077,0 -0.076,-0.077 -0.846,-0.384 -0.077,-0.077 -0.538,-0.153 0,0 -0.076,0 -0.308,-0.077 -0.077,-0.077 -0.076,0 -0.615,0 -0.077,0 -0.153,0 -0.769,-0.077 -0.23,0 -0.077,0 -0.461,0 -0.153,0 -0.077,0 -0.769,-0.23 -0.307,-0.077 -0.154,0 -1.229,-0.307 -0.551,-0.077 -0.153,-0.077 -0.999,-0.077 -0.691,-0.077 -0.077,0 -0.691,0 -0.461,-0.077 -0.077,0 -1.383,-0.231 -1.152,-0.153 0,0 -0.846,-0.154 -0.846,-0.23 0,0 -0.461,0 -0.461,-0.077 0,0 -0.461,0 -0.538,-0.077 0,0 -0.691,0 -1.229,0 -0.077,0 -0.461,0 -1.075,-0.077 -0.077,0 -0.23,0.077 -0.538,0.154 -0.076,0 -0.385,0.077 -0.999,0.23 -0.076,0.077 -0.23,0 -0.769,0.23 -0.077,0 -0.23,0 -1.152,0.23 -0.077,0 -0.153,0 -1.307,0.077 -0.154,0 -0.076,0 -0.691,-0.077 -0.077,0 0,0 -0.615,-0.077 -0.076,-0.077 0,0 -1.076,-0.461 -0.077,-0.077 -0.076,0 -1.768,-0.846 -0.077,0 -0.23,-0.153 -0.769,-0.384 0,0 -0.153,-0.077 -0.769,-0.615 0,0 -0.23,-0.153 -0.922,-0.769 -0.077,-0.077 -0.153,-0.231 -0.538,-0.384 -0.077,-0.077 -0.153,-0.153 -0.538,-0.308 -0.153,0 -0.23,-0.154 -0.769,-0.23 -0.154,-0.077 -0.384,-0.077 -0.691,-0.077 -0.23,-0.077 -0.308,0 -0.615,0 -0.23,0 -0.23,-0.077 -0.922,0 -0.538,-0.077 -0.538,0 -0.461,-0.077 -0.384,0 -0.308,-0.077 -0.461,0 -0.384,0 -0.308,0 -0.23,0.077 -0.308,0.077 -0.153,0 -0.154,0.077 -0.076,0.077 -0.154,0 -0.308,0.307 -0.537,0.461 -0.462,0.308 -0.076,0.077 -0.077,0.154 -0.077,0.077 -0.23,0.154 -0.307,0.538 -0.385,0.461 -0.077,0.154 -0.461,0.538 -0.384,0.384 -0.077,0.077 -0.308,0.23 -0.23,0.307 0,0 -0.768,0.769 -0.385,0.538 0,0 -0.769,0.615 -0.308,0.384 -0.076,0.077 -0.769,0.999 -0.308,0.615 -0.153,0.23 -0.538,0.999 -0.23,0.461 -0.153,0.23 -0.154,0.384 -0.077,0.154 -0.076,0.154 -0.308,0.768 -0.153,0.384 -0.077,0.384 -0.153,0.461 -0.077,0.23 -0.077,0.154 -0.308,0.615 -0.153,0.154 -0.23,0.384 -0.308,0.384 -0.076,0.077 -0.308,0.23 -0.385,0.23 -0.076,0.077 -0.385,0.231 -1.075,0.307 -0.154,0.077 -0.999,0.307 -0.999,0 -0.076,0 -1.153,0.077 -0.768,-0.384 0,0 -0.999,-0.461 -0.615,-0.384 -0.077,-0.077 -0.691,-0.461 -0.461,-0.461 -0.077,-0.077 -0.845,-0.769 -0.308,-0.077 -0.077,-0.077 -0.691,-0.308 -0.461,0 -0.23,0 -1.076,0.077 -0.384,0.077 -0.308,0.077 -1.229,0.23 -0.307,0.154 -0.308,0.23 -0.999,0.615 -0.308,0.23 -0.461,0.308 -1.229,0.845 -0.077,0.077 -0.614,0.384 -1.384,0.845 0,0.077 -0.307,0.154 -0.923,0.307 0,0 -0.23,0 -0.537,-0.154 -0.077,0 -0.154,-0.153 -0.384,-0.231 -0.077,0 -0.23,-0.23 -0.461,-0.461 -0.077,-0.077 -0.307,-0.154 -0.538,-0.308 -0.077,-0.153 -0.23,-0.077 -0.384,-0.077 -0.154,-0.077 -0.307,-0.077 -0.385,-0.077 -0.308,0 -0.307,0.077 -0.769,0.077 -0.385,0.077 -0.461,0 -0.691,0.077 -0.614,0 -0.538,0 -0.923,0.077 -0.998,0 -0.385,-0.077 -0.614,-0.077 -0.769,-0.077 -0.308,-0.077 -0.538,-0.154 -0.922,-0.153 -0.23,-0.154 -0.308,-0.23 -0.538,-0.308 -0.153,-0.154 -0.23,-0.23 -0.461,-0.384 -0.154,-0.154 -0.23,-0.077 -0.691,-0.384 -0.153,0 -0.154,-0.154 -0.691,-0.308 -0.153,-0.077 -0.23,-0.077 -0.769,-0.308 -0.077,0 -0.153,-0.077 -0.769,-0.23 -0.153,-0.077 -0.154,0 -1.306,-0.23 -0.154,-0.077 -0.077,0 -1.69,-0.692 -0.153,-0.077 0,0 -0.999,-0.23 -0.077,0 0,0 -0.999,0.384 0,0 -0.076,0.077 -0.923,0.845 -0.076,0 0,0.077 -0.154,0.615 0,0 0,0 0.077,0.615 0,0.077 0,0 -0.153,0.461 0,0.077 0,0.077 -0.538,0.615 -0.153,0.154 0,0 -0.462,0.153 -0.153,0.077 0,0 -0.614,-0.154 -0.231,0 0,0 -1.075,-0.615 -0.385,-0.23 -0.076,0 -0.691,-0.461 -0.462,-0.308 -0.076,0 -0.461,-0.461 -0.385,-0.23 -0.077,-0.077 -0.691,-0.308 -0.614,-0.23 -0.154,0 -0.384,-0.077 -0.384,-0.077 -0.154,-0.077 -0.23,0.153 -0.153,0.077 -0.077,0.077 -0.077,0.23 -0.153,0.308 -0.077,0 -0.23,0.307 -0.308,0.384 0,0.077 -0.153,0.153 -0.461,0.23 -0.077,0.077 -0.307,0.154 -0.692,0.384 -0.153,0.154 -0.23,0.077 -0.846,0.308 -0.23,0.077 -0.076,0 -0.462,-0.077 -0.076,0 -0.154,-0.077 -0.614,-0.461 -0.23,-0.077 -0.077,-0.077 -0.538,-0.538 -0.153,-0.23 -0.077,0 -1.075,-1.306 -0.308,-0.308 0,0 -1.46,-1.614 -0.385,-0.307 -0.076,-0.077 -1.614,-1.306 -0.23,-0.23 -0.23,-0.23 -0.308,-0.769 -0.076,-0.154 -0.077,-0.154 -0.153,-0.922 0,-0.077 0,-0.231 -0.461,-0.691 0,-0.077 -0.154,-0.23 -0.614,-0.384 0,-0.077 -0.23,-0.077 -0.538,-0.307 -0.077,0 -0.153,-0.154 -0.461,-0.154 -0.077,0 -0.23,-0.154 -0.385,-0.307 -0.076,-0.077 -0.23,-0.23 -0.615,-0.922 -0.153,-0.23 -0.461,-0.615 -0.385,-0.615 -0.153,-0.154 -0.385,-0.461 -0.153,-0.154 -0.153,-0.077 -0.154,-0.153 -0.307,0 -0.385,0.153 -0.23,0.077 -0.308,0.077 -0.461,0.154 -0.308,0.077 -0.461,0.154 -0.307,0.077 -0.385,0.077 -0.461,0.077 -0.153,0 -0.385,0 -0.308,0 -0.153,-0.077 -0.308,-0.077 -0.307,-0.154 -0.077,-0.077 -0.461,-0.23 -0.538,-0.307 0,-0.077 -0.153,-0.307 -0.154,-0.308 0,-0.077 -0.23,-0.691 -0.153,-0.846 0,0 -0.23,-0.384 -0.154,-0.308 0,0 -0.614,-0.845 -0.461,-0.691 0,-0.077 -0.385,-0.538 -0.23,-0.384 -0.153,-0.154 -0.308,-0.23 -0.23,-0.154 -0.077,-0.077 -0.537,-0.154 -0.231,-0.154 -0.307,-0.077 -0.615,0 -0.308,0 -0.384,-0.077 -0.538,0.077 -0.384,0 -0.385,0 -1.075,0.154 -0.538,0.077 -0.846,0.154 -0.614,0 -0.308,0 -0.538,0 -0.153,0.153 -0.077,0 -0.23,0.154 0,0.154 -0.077,0.077 -0.076,0.154 -0.154,0.23 -0.076,0.077 -0.23,0.23 -0.461,0.384 -0.077,0.077 -0.846,0.691 -0.461,0.384 -0.077,0 -0.922,0.692 -0.614,0.307 0,0 -1.229,0.615 -0.769,0.615 -0.077,0.077 -1.768,1.383 -0.614,0.615 -0.154,0.077 -1.921,1.537 -0.461,0.384 -0.308,0.23 -1.767,1.46 -0.154,0.077 -0.076,0.077 -0.615,0.307 -0.077,0 -0.153,0.077 -0.614,0.077 -0.077,0 -0.154,-0.077 -0.614,-0.154 -0.077,0 -0.076,-0.077 -0.615,-0.384 0,0 -0.384,-0.23 -0.999,-0.615 -0.154,-0.077 -0.076,-0.077 -0.692,-0.307 -0.076,-0.077 -0.23,0.077 -0.846,0 -0.153,0.077 -0.308,0.077 -0.769,0.154 -0.308,0.077 -0.153,0.077 -0.614,0.307 -0.154,0.154 -0.077,0.077 -0.23,0.308 -0.153,0.154 -0.077,0.153 -0.307,0.538 -0.077,0.384 -0.153,0.307 -0.462,1.153 -0.384,0.999 -0.077,0.23 -0.384,0.691 -0.385,0.769 -0.23,0.23 -0.537,0.769 -0.692,0.845 -0.23,0.23 -0.769,0.615 -1.075,0.845 -0.154,0.154 -0.614,0.308 -0.846,0.538 -0.153,0.077 -0.461,0.23 -0.922,0.384 -0.154,0.077 -0.614,0.154 -1.307,0.461 -0.153,0 -0.385,0 -0.999,-0.077 -0.076,0 -0.462,-0.154 -1.767,-0.308 -0.077,0 -0.23,0.077 -1.152,0.153 0,0 -0.308,0 -1.614,0 0,0 -0.153,0 -1.307,-0.23 0,0 -0.153,0 -1.46,-0.154 0,0 -0.077,0 -1.69,-0.077 -0.077,0 0,0 -3.688,-0.384 0,0 -0.23,0 -2.074,0 -0.154,0 -0.153,0 -0.614,0.077 -0.077,0 0,0 -0.922,0.384 -0.154,0 -0.076,0.077 -0.846,0.615 -0.153,0.077 -0.154,0.077 -0.307,0.461 -0.077,0.077 -0.077,0.077 -0.077,0.538 -0.076,0.154 0,0.077 0.153,0.384 0.077,0.154 0.077,0.077 0.076,0.154 0.077,0.154 0.077,0.077 -0.077,0.308 -0.077,0.153 0,0.077 0.077,0.077 0.077,0.077 0,0.077 0.461,0.384 0.23,0.307 0.153,0.154 0.23,0.308 0.23,0.307 0.154,0.154 0.076,0.307 0.077,0.384 0.077,0.154 0,0.23 0,0.384 0,0.23 -0.077,0.461 -0.23,0.769 -0.077,0.384 -0.384,0.461 -0.615,1.076 -0.384,0.538 -0.153,0.154 -0.385,0.538 -0.308,0.23 -0.076,0.153 -0.538,0.615 -0.308,0.308 -0.077,0.077 -0.461,0.538 -0.153,0.23 -0.077,0.154 -0.538,1.767 0,0 -0.307,0.769 0,0 -0.23,0.461 -0.615,0.769 -1.537,1.998 -0.076,0 -0.846,0.999 0,0 -0.845,1.152 -0.077,0 -0.385,0.615 0,0 -0.999,1.307 0,0 -0.614,0.768 0,0 -0.384,0.154 0,0 -0.308,0.077 0,0.077 -0.691,-0.154 0,0 -0.385,-0.077 0,0 -0.614,-0.615 0,0 -0.385,-0.461 0,0 -0.691,-0.308 0,0 -0.461,-0.307 0,0 -1.076,-0.538 -0.076,0 -0.769,-0.384 -0.077,-0.077 -1.229,-0.308 -0.077,0 -0.845,-0.153 -0.077,0 -0.614,-0.154 0,0 -0.538,-0.077 -0.077,0 -0.614,0.077 -0.077,0 -0.615,0.077 -0.076,0.077 -0.615,0.23 0,0.077 -0.655,0.313 0,0 -0.308,0.461 -0.077,0 -0.307,0.461 0,0 -0.23,0.769 0,0.077 -0.154,0.769 0,0.077 0,0.23 0,0.077 -0.077,0.307 0,0 0,0.23 0,0 0,0.308 0,0 -0.076,0.384 0,0 -0.077,0.384 0,0 -0.153,0.307 -0.077,0 -0.23,0.308 0,0 -0.153,0.077 0,0 -0.154,0.154 0,0 -0.461,0.154 -0.077,0 -0.614,0.153 -0.077,0 -0.538,0.077 -0.076,0.077 -0.615,0.154 -0.079,0 -0.846,0 -0.153,0.077 -1.307,0.077 -0.153,0 -0.462,-0.153 -0.076,0 -0.846,-0.154 -0.077,-0.077 -0.23,-0.077 -0.076,-0.077 -0.385,-0.23 0,0 -0.23,-0.23 0,-0.077 -0.538,-0.615 -0.076,-0.077 -0.154,-0.23 -0.076,-0.077 -0.308,-0.615 -0.077,-0.077 -0.23,-0.384 -0.077,-0.077 -0.537,-0.999 0,-0.154 -0.308,-0.384 -0.077,-0.154 -0.538,-1.306 -0.076,-0.077 -0.077,-0.154 0,0 -0.077,-0.154 0,0 -0.076,-0.077 -0.077,-0.077 -0.23,-0.308 0,0 -0.153,-0.077 0,0 -0.385,-0.231 0,0 -0.077,-0.077 -0.076,0 -0.538,-0.23 -0.077,-0.077 -0.384,-0.154 -0.154,-0.077 -1.46,-0.538 -0.153,0 -0.23,-0.077 -0.153,-0.077 -1.153,-0.461 -0.153,-0.077 -0.077,0 0,0 -0.308,0.077 0,0 -0.076,0 0,0.077 -0.308,0.077 -0.077,0.077 -0.076,0.077 -0.154,0.077 -0.384,0.538 -2.383,-0.307 0.615,-2.229 1.537,-2.536 2.535,-2.767 0.692,-1.69 0.845,-0.692 0.691,-0.307 1.229,-0.922 0.385,-0.153 0.922,-0.922 1.076,-1.46 0,-0.999 -0.23,-0.538 -0.999,-1.076 -7.146,-4.303 -4.227,-2.612 -0.077,-0.154 -2.229,0.308 -1.921,-0.922 -1.307,-0.922 -1.075,-1.306 -0.538,-1.229 -0.846,-1.383 -0.384,-2.151 -0.769,-1.768 -0.384,-1.152 -0.691,-2.152 -0.231,-1.69 0.077,-0.308 0.461,-0.999 0.846,-0.922 1.229,-0.691 1.46,0 2.536,-0.154 3.227,-0.308 1.845,-0.461 2.843,-1.844 2.689,-3.074 1.307,-2.229 1.383,-1.767 2.075,0.153 0.846,-0.384 0.23,-0.384 1.152,-1.537 1.768,-1.383 0.845,-1.307 1.076,-1.844 1.46,-2.229 2.075,-2.382 0.922,-1.076 1.307,-1.69 1.613,-1.844 0.999,-1.921 0.23,-1.537 0,-1.921 0.153,-1.921 0.077,-2.306 -0.308,-4.457 -0.999,-1.69 0,-3.304 0.154,-2.075 0.461,-4.841 0.461,-2.92 0.384,-1.921 0.769,-1.306 0.154,-1.076 0.537,-1.383 0.615,-1.537 2.843,-2.92 1.076,-0.23 0.922,-0.538 0.846,-0.691 1.229,-0.384 1.46,0.077 1.613,0.845 2.229,1.153 3.381,2.229 1.229,0.461 1.461,0.615 2.074,1.076 4.227,1.229 3.535,1.229 0.845,0.461 2.767,0.846 2.305,0.538 1.998,0.461 1.845,-0.077 2.459,-0.154 1.075,0.308 1.768,0.307 3.074,0.384 1.613,0 1.076,-0.307 1.152,-0.077 2.075,-0.461 1.767,-0.23 0.769,-0.461 1.537,-0.154 2.382,-0.23 2.383,0.154 1.306,0.461 2.152,-0.154 0.999,0.384 1.613,0.461 0.691,0.538 1.537,0.922 0.845,0.154 1.461,0.922 1.229,0.845 1.844,0.23 1.152,-0.154 1.073,-0.849 2.459,-1.614 5.456,-2.536 3.304,-1.153 6.225,-1.537 6.378,-1.153 13.602,-2.305 6.378,-0.845 1.46,0 1.844,0.768 3.074,1.691 1.307,1.076 3.15,2.843 1.613,1.076 2.075,0.615 4.38,2.613 1.998,0.615 2.229,0 2.766,-1.153 1.153,-1.229 0.307,-0.845 -0.537,-0.845 -3.228,-3.919 -0.999,-1.614 -0.461,-3.228 -0.461,-2.843 0,-1.383 -0.999,-3.381 0,-1.614 0.076,-0.077 5.764,-0.692 6.531,-0.384 5.533,-1.921 3.073,-1.921 4.227,-6.993 1.537,-4.15 1.383,-0.614 3.074,-0.384 11.834,1.69 7.223,1.46 5.456,0.154 5.456,0.691 4.072,0.615 2.075,1.921 2.766,7.146 0.999,2.767 0.691,0.691 0.692,0.538 0.307,-2.536 0.846,-3.304 6.301,-11.373 2.152,-4.611 4.994,-3.765 3.381,-1.537 3.228,-1.307 6.301,0.386 z"
       inkscape:connector-curvature="0"
       class="DEP_01 ZON_01" /></g></svg>