<?xml version="1.0" encoding="UTF-8" standalone="no"?>
<!-- Generator: Adobe Illustrator 16.0.0, SVG Export Plug-In . SVG Version: 6.00 Build 0)  -->

<svg
   xmlns:dc="http://purl.org/dc/elements/1.1/"
   xmlns:cc="http://creativecommons.org/ns#"
   xmlns:rdf="http://www.w3.org/1999/02/22-rdf-syntax-ns#"
   xmlns:svg="http://www.w3.org/2000/svg"
   xmlns="http://www.w3.org/2000/svg"
   xmlns:sodipodi="http://sodipodi.sourceforge.net/DTD/sodipodi-0.dtd"
   xmlns:inkscape="http://www.inkscape.org/namespaces/inkscape"
   version="1.1"
   id="SvgMunicipio"
   x="0px"
   y="0px"
   width="867.495px"
   height="1000.003px"
   viewBox="64.027 118.063 867.495 1000.003"
   enable-background="new 64.027 118.063 867.495 1000.003"
   xml:space="preserve"
   inkscape:version="0.91 r13725"
   sodipodi:docname="MUN_ID0104.svg"><metadata
     id="metadata10"><rdf:RDF><cc:Work
         rdf:about=""><dc:format>image/svg+xml</dc:format><dc:type
           rdf:resource="http://purl.org/dc/dcmitype/StillImage" /></cc:Work></rdf:RDF></metadata><defs
     id="defs8" /><sodipodi:namedview
     pagecolor="#ffffff"
     bordercolor="#666666"
     borderopacity="1"
     objecttolerance="10"
     gridtolerance="10"
     guidetolerance="10"
     inkscape:pageopacity="0"
     inkscape:pageshadow="2"
     inkscape:window-width="1366"
     inkscape:window-height="705"
     id="namedview6"
     showgrid="false"
     inkscape:zoom="0.23599929"
     inkscape:cx="433.7475"
     inkscape:cy="500.0015"
     inkscape:window-x="-8"
     inkscape:window-y="-8"
     inkscape:window-maximized="1"
     inkscape:current-layer="svg" /><g
     id="g3"><path
       id="MUN_0104"
       d="m 338.65,118.352 0.864,0.865 1.25,0.289 1.922,0.384 1.921,1.249 0.961,1.441 0.577,1.729 0.096,1.249 0.288,1.345 0.577,1.73 0.769,1.345 0.384,1.153 0.097,0.961 0.576,1.057 0.48,0.576 1.441,1.057 1.153,1.25 0.864,0.961 0.673,1.537 0.865,1.922 0.096,0.865 0.865,7.687 -0.288,2.979 0.384,2.498 0.48,2.306 0.385,2.018 0,4.228 0.191,3.459 0.385,1.73 0.192,3.843 0.864,1.441 1.153,1.922 2.307,2.594 0.961,1.057 1.249,1.922 0.192,0.48 0.096,0.192 0.288,0.769 0.192,0.192 0.385,1.153 0.191,0.961 0,1.153 0,1.153 -0.288,0.865 0,0.961 0,0.672 0,0.48 0.48,1.345 0.576,0.961 0.097,0.192 0.384,1.057 0.48,1.249 0.097,0.384 0.288,0.865 0.385,1.153 0.288,1.345 0,0 0.192,1.153 0.096,0.961 0,0.865 0,1.153 -0.192,1.153 0,0.577 -0.096,0.48 0,0.577 -0.192,1.441 -0.096,1.441 0.191,1.441 0.289,1.729 0.288,1.25 0.576,0.961 0.673,0.769 0.961,0.288 0.864,0 0.097,0.096 0.769,0 0.769,0.769 0.48,0.865 0.576,1.057 0.77,0.865 0.961,0.673 1.152,0.288 0.865,-0.096 0.864,0.096 0.961,0.384 0.48,0.192 0.577,0.384 0.961,0.865 0.864,0.673 0.865,1.153 0.864,0.961 0,0 0.961,0.865 0.961,0.48 0.097,0.096 0.864,0.48 0.961,0.673 0.48,0.48 0.385,0.384 1.153,0.961 0.576,0.288 61.113,-25.752 225.81,-18.449 0.192,0.289 0.769,2.21 0.576,1.826 0.192,0.865 -0.096,1.057 -0.48,0.865 -0.673,0.48 -0.864,0.672 -0.961,0.769 -0.673,0.384 -0.865,0.192 -0.961,0 -0.769,0.384 -0.48,0.865 0,0.865 0.385,0.865 0.48,0.769 0.864,0.865 0.673,0.961 0.576,1.057 0.097,1.057 -0.288,0.96 -0.097,0.769 0.48,0.672 0.769,0.48 0.77,0.384 0.576,0.769 0.384,1.057 0.097,0.961 0.48,0.673 0.384,0.672 0,0.673 -0.384,0.48 -0.769,0.577 -0.385,0.865 0,0.769 0.385,0.865 0.769,1.057 1.249,1.441 1.153,1.249 0.673,1.153 0.672,1.345 0.385,2.21 0.192,2.114 0.384,1.634 0.288,1.057 0.385,2.018 0.673,1.153 0.673,0.865 1.152,1.249 0.865,0.577 0.961,0.576 2.306,0.289 1.346,0.384 1.249,0.672 1.346,1.346 1.152,2.594 3.748,-0.289 0.288,-0.192 0.096,-0.192 0.289,-0.769 0.576,-0.769 0.288,0 0.769,-0.096 0.385,0.096 1.057,0.192 0.961,0.961 0.192,0.673 0.673,2.21 0,1.441 0.191,0.961 0.673,1.153 0.865,0.577 1.153,0.48 1.152,0.48 0.673,0.769 -0.192,0.769 -0.48,0.673 -1.152,0.865 -0.289,1.345 0,1.922 0.192,2.114 0.097,1.729 -0.48,1.537 -0.577,2.979 0.385,2.402 0.576,2.018 1.249,1.922 0.865,1.345 0.864,1.249 1.73,0.673 1.537,-0.288 0.864,-0.865 1.153,-1.825 1.153,-1.538 2.306,-1.729 1.922,-0.673 1.729,-0.769 1.25,-0.48 1.345,-0.192 1.153,0.096 1.057,0.769 0.865,1.345 0.673,2.787 0.384,3.171 0.288,0.961 0.673,0.865 1.634,0.865 1.537,-0.192 1.441,-0.384 1.249,0.384 0.385,0.673 0,0.672 0.096,0.48 0.48,0.096 0.48,0 0.865,-0.192 0.769,-0.096 2.018,0 0.673,-0.384 0.673,-0.672 0,-1.634 0.384,-1.345 0.385,-0.672 0.673,-0.673 0.769,-0.48 0.961,-0.865 0.769,-1.153 0.288,-0.865 0.096,-1.249 0,-2.018 0.192,-0.673 0.769,-0.673 0.961,-0.48 0.961,-0.384 0.77,-0.769 -0.097,-0.769 0,-0.769 0.48,-0.576 1.153,-0.385 1.057,0.096 0.673,0.289 1.153,0.672 1.441,0.48 0.384,-0.096 1.153,-0.096 1.346,-0.961 3.074,-1.153 2.018,-0.096 1.25,-0.48 1.345,-0.48 0.48,0 1.922,0.576 0.673,0.865 0.673,0.769 0.961,1.057 1.057,0.577 0.288,0.096 0.288,0 0.865,0.48 0.384,0.577 0.48,1.153 0.673,0.673 0.961,0.192 1.538,-0.192 1.057,-0.096 1.634,-0.192 1.152,-0.096 1.441,-0.288 1.153,-0.769 1.634,-1.057 0.864,-0.192 1.249,0.576 1.346,0.961 1.057,0.288 1.153,-0.48 1.634,-0.96 1.345,-0.096 1.058,0.769 1.537,1.634 0.096,0 1.346,1.153 1.441,0.769 0.961,0.865 1.057,1.537 0.961,1.441 2.883,2.21 1.634,0.961 0.961,0.48 -0.673,0.577 -0.576,0 -0.289,-0.096 0,0 -0.384,-0.096 -0.961,-0.48 -0.865,-0.384 -0.48,-0.192 -0.384,-0.096 -0.673,-0.096 -0.48,-0.096 -0.769,-0.192 -0.577,-0.096 -0.672,0 -0.48,-0.096 -0.961,0 -0.961,0 -0.865,0.096 -0.673,0 -0.288,0.192 -0.192,0.192 -0.191,0.384 0,0.289 0,0.192 0.191,0.289 0.77,0.48 0.288,0.192 1.153,0.673 1.249,0.672 1.441,0.961 1.345,0.865 0.577,0.48 0.384,0.673 0.385,0.672 0.384,0.769 0.097,0.289 0.48,0.672 0.48,0.673 0.769,1.057 0.769,1.153 0.385,0.769 0.672,1.057 0.288,0.865 0,0.673 0,0.769 -0.191,0.673 -0.192,0.672 -0.48,0.673 -0.385,0.769 -0.384,0.769 -0.288,0.576 -0.289,0.865 0,0.48 0,0.769 0,0.865 0,0.384 0.192,0.577 0.288,0.48 0.48,1.057 0.289,0.769 0.384,0.672 0.192,0.384 0.384,0.673 0.385,0.48 0.961,0.769 0.096,0.096 0.77,0.577 0.576,0.576 0.673,0.577 0.576,0.673 0.288,0.577 0.192,0.576 0,0 0,0.48 -0.096,0.384 -0.385,0.48 -0.48,0.384 -2.018,0.769 -0.769,0.48 -0.385,0.48 -0.192,0.288 -0.192,0.577 -0.096,0.192 0,0.289 0.192,0.288 1.057,0.673 1.346,0.865 0.48,0.48 0.48,0.384 0.192,0.288 0.384,0.48 0.097,0.192 0.288,0.672 0.096,0.385 0.385,0.96 0.191,0.577 0,0.769 0,0.672 0,0.577 -0.096,0.672 -0.384,0.673 -0.385,0.48 -0.48,0.577 -0.769,0.576 -0.48,0.385 -0.577,0.384 -0.384,0.384 -0.192,0.577 -0.385,0.672 -0.384,0.577 -0.48,0.769 -0.673,1.153 -0.673,1.057 -0.288,0.577 -0.288,0.865 0,0.673 0.096,0.769 0,0 0.577,1.057 2.306,2.594 2.307,2.69 1.345,1.634 0.385,0.672 0,0.289 0,0.384 -0.192,0.192 -0.096,0.192 -0.48,0.288 -0.385,0 -0.673,0.096 -1.152,-0.096 -1.25,-0.096 -1.441,0 -2.594,0.096 -1.057,-0.096 -2.211,-0.289 -1.729,-0.48 -2.402,-0.961 -1.345,-0.48 -1.249,-0.096 -0.097,0.096 -0.384,0.192 -0.097,0.288 0.289,0.577 0.864,0.384 1.346,0.385 1.057,0.576 1.441,1.441 1.729,1.057 1.826,1.057 1.537,0.769 1.729,0.672 0.865,0.673 0.769,0.48 0.288,0.577 0.192,0.384 0.288,0.769 0.288,0.865 0.192,0.673 0.096,0.961 0.192,0.769 0.192,0.288 1.057,0.577 1.441,0.961 3.075,1.633 4.42,2.402 2.402,1.345 1.057,0.769 0.961,0.865 0.673,0.865 0.48,0.48 0.48,0.672 0.384,1.057 0.192,1.057 0,0.48 -0.192,0.769 -0.48,0.673 -0.288,0.769 -0.864,1.057 -1.346,2.018 -0.48,1.153 -0.192,0.961 0.097,0.096 1.249,0 1.922,0.096 1.729,0.384 1.441,0.673 0.769,0.577 1.826,1.345 1.152,0.577 1.634,0.769 1.346,0.769 1.922,2.21 1.152,0.865 1.058,0.673 1.633,0.577 1.249,0.384 1.153,0.865 0.097,0.673 -0.097,1.057 -0.769,1.538 -0.961,1.632 -0.769,0.673 -0.576,0.48 -1.441,1.057 -0.865,0.576 -0.864,0.48 -0.385,1.153 0.096,0.672 2.595,1.538 0.961,1.153 0,0.865 -0.385,0.865 -0.191,0.672 -0.289,0.577 -0.384,1.249 -0.097,0.769 0,0.77 0.289,0.769 0.576,1.152 0.961,1.346 0.769,1.057 0.096,0.288 0,0.48 -0.288,0.961 -0.288,0.48 -0.384,0.577 -1.346,2.018 -0.385,1.634 -0.288,1.441 0,1.633 0.288,1.346 0,0 0,0 -11.723,117.613 21.332,149.131 0,0 0.48,-0.192 2.018,-1.057 0.673,-0.385 2.498,0 1.25,-0.48 0.769,-0.384 0.961,-1.057 2.21,-2.211 1.441,-1.057 1.922,-1.345 0.576,-0.289 0.865,-0.191 0.96,-0.48 -1.537,2.018 -0.192,0.961 0.289,0.769 1.249,0.576 2.113,0.577 1.922,0.576 1.729,0.48 2.402,1.441 0.577,0.192 -2.787,1.153 -1.345,0.769 -0.48,0.576 -0.192,0.865 0.48,1.057 0.576,0.576 0.385,0.192 2.69,0.865 4.035,0.673 1.922,0.864 0.577,0.096 1.153,-0.191 1.057,0.096 1.153,0.385 0.672,0.384 0.577,0.865 0.192,0.769 0.384,0.673 0.385,0.48 0.769,0.48 0.673,0.384 -0.577,0.673 -0.576,1.249 -0.097,1.249 -0.096,1.538 0.192,3.171 0,2.69 0.769,1.825 1.057,2.21 0.289,0.77 0.096,4.228 0.096,0.576 0.385,0.385 0.576,0.48 0.673,0.288 0.865,0.385 0.672,0.191 0.385,0.289 0.096,0.288 -0.096,0.673 -0.48,1.057 -0.576,0.961 -0.48,1.153 -1.153,3.651 0,0.769 1.826,2.21 0.864,1.345 0.576,1.73 0.097,0.864 0.48,1.729 2.21,6.15 -0.097,1.249 -0.384,1.633 -0.288,1.153 0.384,0.192 0.385,0.096 2.498,1.153 2.595,1.249 2.786,1.249 1.922,0.192 2.114,0.288 0.673,0.192 0.673,0.288 0.288,0.192 0.769,0.769 0.096,0.48 0,1.729 0.097,2.114 0,0.097 2.306,1.44 2.114,1.346 2.21,1.441 2.018,1.345 0.769,0.865 -0.096,2.595 -0.192,3.363 -0.48,1.152 -0.576,0.865 -0.865,0.961 0.097,0.48 0.384,0.288 1.538,-0.096 0.576,0 0.673,0.096 1.249,0 1.634,-0.385 0.576,0.097 0.48,0.384 -0.48,1.826 -0.385,1.441 -2.21,2.786 -2.306,2.883 -1.249,1.634 -0.288,0.864 -0.48,0.961 -0.77,0.48 -0.769,1.346 -0.673,1.537 -1.633,2.595 -1.153,1.057 -1.441,1.634 -0.576,0.961 -0.48,1.441 -0.385,1.634 -0.096,0.769 0,0.864 -0.288,1.25 -0.192,1.345 -1.153,1.153 -1.346,1.729 -0.288,0.48 -0.192,2.114 -0.096,2.018 -0.385,1.922 -0.288,1.729 0,1.153 0.097,1.249 0.288,1.249 0.288,1.346 -0.096,0.864 -0.192,0.576 -0.192,0.577 -0.385,0.673 -0.096,0.096 0,0 11.051,32.286 0,1.825 -0.192,1.538 -0.097,1.249 0.673,0.384 0.097,0.289 -0.192,2.306 -0.097,3.075 -0.191,1.634 0.48,1.249 -0.097,2.018 -0.096,1.729 1.153,2.21 0.48,0.961 1.44,1.441 0.865,0.865 1.634,1.345 1.537,1.249 1.729,0.961 1.441,1.058 0.097,1.345 0.191,1.826 0.192,3.555 0.288,1.538 1.441,3.074 1.537,3.268 0.77,3.747 -0.192,2.787 -0.192,5.861 -0.288,2.883 -0.48,2.594 -1.153,3.268 -0.673,1.729 -0.961,4.036 -3.074,3.362 -2.787,3.46 -1.729,2.786 -0.192,2.883 0.77,2.306 0.864,0.673 1.729,0.769 1.153,0.961 1.057,1.249 0.097,0.192 -1.441,11.819 -0.865,11.05 -18.257,18.642 -152.686,142.213 -46.027,-18.258 -0.385,-0.096 -7.11,-1.634 -3.459,-0.576 -0.576,-0.096 -0.289,0 -0.096,0 -0.192,0.576 -0.192,3.171 -0.096,2.307 0,0.288 -0.096,0.096 0,0.096 -0.097,2.595 -0.192,0.097 -4.323,0.191 -4.517,-0.48 0.192,-1.345 -4.324,-5.478 -0.192,-0.288 0.385,-0.673 0.192,-1.441 0.191,-0.769 0.385,-1.537 0.288,-1.634 0.48,-1.922 0.097,-0.864 0,-0.385 0.096,-0.192 -0.192,-0.769 -0.192,-0.769 -0.384,-0.961 -0.192,-0.769 -1.153,-1.729 -0.096,-0.385 -0.577,-0.864 -12.011,-0.577 -0.288,0 -8.937,-1.057 -4.517,-1.346 -2.786,4.805 -2.498,-0.384 -0.385,0 0.577,-0.77 0,-0.576 -0.289,-0.576 -0.48,-0.673 -0.191,-0.769 -0.097,-0.865 0,-0.769 0.385,-0.576 0.192,-0.673 0,-0.577 0.191,-0.864 0.192,-0.865 0,-0.672 -0.096,-0.673 -0.673,-0.769 -1.346,-1.25 -0.576,-1.249 -0.288,-0.961 0.096,-1.249 0.385,-1.441 0.288,-1.729 0.096,-1.249 -0.384,-0.673 -0.097,-0.961 0.289,-1.152 -0.097,-1.73 -0.384,-0.769 -0.48,-0.672 -1.441,-1.346 -1.346,-1.441 -1.153,-1.345 -1.921,-2.979 -1.346,-0.672 -1.057,-0.385 -1.441,0 -0.77,0.288 -0.96,-0.192 -0.289,0.192 -0.769,0.288 -0.769,-0.096 -0.864,-0.48 -1.153,-0.385 -0.577,-0.961 -0.769,-1.249 0,-0.673 -0.192,-1.345 -0.288,-0.865 -2.114,-3.651 -1.057,-1.729 -1.153,-1.922 -0.576,-0.864 -0.192,-0.865 0.097,-0.769 0.864,-1.153 0.577,-1.152 0,-0.865 0,-0.673 0,-0.576 0.096,-0.288 0.673,-0.385 0.576,-0.673 0.48,-0.864 0.192,-1.441 0.384,-0.865 0.097,-0.961 -0.192,-0.961 -0.288,-1.345 -0.097,-1.538 0,-1.825 0.289,-1.441 0.864,-1.537 1.249,-1.153 1.153,-0.769 1.441,-0.288 1.922,-0.097 5.285,0.961 2.979,0.288 2.114,-0.096 2.018,-0.288 1.537,-0.288 1.058,-0.48 0.384,-0.577 0.577,-0.48 0.288,-0.864 0.192,-1.634 0.096,-1.537 -0.288,-0.673 -0.673,-0.48 -0.961,0 -0.576,-0.097 -0.48,-0.288 -0.192,-0.576 0,-1.441 -0.096,-0.673 -0.385,-0.48 -0.48,-0.192 -0.385,-0.191 -0.576,-0.289 -0.288,-0.576 0,-1.537 0.192,-0.961 0.576,-2.019 0.096,-1.152 0,-1.058 -0.191,-2.113 0.191,-0.865 0.192,-1.249 0,-0.769 -0.769,-1.249 -0.192,-0.769 0.097,-0.673 -0.289,-0.48 -0.576,-0.48 -0.865,-0.673 -1.057,-0.576 -2.979,-3.075 -1.153,-0.769 -1.249,-0.097 -0.769,0.385 -1.153,-0.096 -0.673,-0.48 -1.057,-0.673 -0.096,-0.48 0.191,-0.385 0.961,-0.384 0.385,-0.385 0,-0.576 -0.097,-0.673 -0.479,-0.769 -1.441,-1.346 -0.961,-1.249 -0.769,-1.729 -0.385,-1.346 0.096,-0.769 0.577,-0.576 1.152,-0.48 0.865,-0.576 2.114,-1.441 0.48,-0.77 0,-1.345 -0.097,-0.961 -0.288,-1.249 -0.576,-1.441 -0.48,-0.673 -0.288,-1.057 0,-2.498 0.096,-1.153 0,-0.865 0.384,-0.384 0.865,-0.77 0.385,-0.769 0.48,-1.345 0,-2.69 0.48,-0.865 0.191,-0.673 0,-3.074 0.385,-1.826 0.673,-0.864 0.673,-0.577 0.672,-0.192 0.673,0.192 0.673,0 0.673,-0.192 0.576,-0.48 0.096,-0.576 0.192,-1.153 0.48,-0.769 0.673,-0.961 1.057,-0.673 0.385,-0.384 0.576,-0.48 1.249,-1.729 0.477,-0.768 0.097,-0.961 -0.192,-1.826 -0.576,-1.249 -1.25,-1.922 0,-0.864 0,-0.961 0.385,-0.673 0.769,-1.538 0.577,-1.057 0.096,-0.864 0.865,-1.538 1.152,-0.48 0.577,-0.672 0.096,-0.577 -0.096,-0.576 -0.097,-0.865 0.288,-0.769 1.346,-2.018 1.153,-1.729 1.152,-1.441 0.673,-1.058 0.577,-0.672 0,-1.058 0.096,-2.69 0.576,-0.864 0.77,-0.577 1.44,-1.249 0.673,-1.057 0.577,-0.097 0.384,0 0.48,0.288 0.769,0.48 0.48,-0.096 0.48,-0.096 0.577,-0.673 1.249,-1.537 1.153,-1.634 0.48,-1.058 0.48,-1.633 0,-0.961 -0.289,-1.729 -0.288,-1.346 0.097,-0.864 0.864,-1.634 1.346,-0.961 0.576,-0.385 0.48,0 0.385,-0.191 0.384,-0.48 0.097,-0.673 -0.097,-0.865 0.288,-1.345 0.385,-0.48 1.441,-1.826 0.769,-1.345 0.192,-2.307 0.576,-1.057 0.577,-0.48 0.672,-0.865 0.48,-1.825 0.577,-1.153 0.384,-0.48 0.48,-0.769 0,0 0.673,-1.057 0.385,-0.961 0.384,-1.634 0,-1.922 0.097,-0.48 -0.48,-0.096 -6.054,-2.211 -11.435,-2.306 -0.289,-8.648 -6.342,-1.825 -0.48,1.249 -1.825,-1.826 -5.573,-3.459 -1.922,2.114 -1.153,0.961 -0.769,0.576 -10.378,-0.864 -4.035,5.188 -0.673,0 -0.385,1.922 -1.825,3.267 0.576,1.73 0.577,1.921 0.288,2.499 0.864,2.018 0.577,1.057 0.191,1.25 -0.576,0.288 -14.798,-3.268 0,0 0,0 0.097,-0.288 0,-0.864 0,-0.77 -0.097,-0.384 -0.096,-0.48 -0.192,-0.192 -0.192,-0.288 -0.673,-0.673 -0.384,-0.48 -0.288,-0.48 -0.192,-0.384 -0.385,-1.25 -0.576,-1.249 -0.576,-1.633 -0.097,-0.77 0,-1.633 0,-1.25 0,-0.288 0,-0.769 0.192,-0.673 0.48,-1.249 0.576,-0.673 0.48,-0.672 0.769,-0.48 1.346,-1.058 0.576,-0.384 0.48,-0.769 -0.096,-0.577 -0.096,-0.576 -0.48,-0.961 -0.192,-0.385 -0.48,-0.769 -0.385,-0.576 -0.384,-0.673 -0.192,-0.961 -0.097,-0.288 -0.384,-1.441 -0.097,-0.673 -0.191,-1.249 0,-0.673 -0.097,-0.673 0.097,-0.672 0,-0.673 0.288,-1.153 0.192,-1.153 0.769,-1.152 0.961,-1.153 1.345,-1.537 0.577,-0.577 1.729,-2.594 0.288,-0.192 0.192,-0.288 0.576,-0.48 0.288,-0.673 0,-0.865 -0.288,-0.672 -0.288,-0.673 -0.961,-0.865 -0.096,0.673 -0.192,0.48 -0.385,0.769 -0.576,1.057 -0.865,1.058 -1.057,1.249 -1.057,0.673 -0.961,0.576 -1.153,0.288 -1.153,0.097 -1.634,-0.289 -1.921,-0.576 -1.634,-0.576 -1.346,-0.577 -0.673,-0.48 -0.576,-0.576 -0.288,-0.865 -0.096,-0.576 0.096,-0.769 0.192,-0.769 0.384,-0.48 0.577,-0.577 0.769,-0.576 1.922,-1.057 0.961,-0.577 1.633,-1.249 1.153,-1.057 0.673,-0.865 0.385,-0.576 0.191,-0.673 0.192,-0.769 0.192,-1.441 0,-0.673 -0.192,-0.864 -0.192,-0.48 -0.48,-0.865 -0.48,-1.249 -0.576,-1.249 -0.385,-0.961 -0.576,-1.729 -0.385,-1.249 -0.479,-1.25 -0.48,-1.345 -0.577,-1.634 -0.384,-1.633 0,-0.77 1.057,-2.018 1.153,-2.21 0.096,-1.346 -0.385,-0.864 -0.864,-0.865 -1.249,-0.48 -2.307,-0.672 -3.363,-0.385 -2.018,-0.48 -1.441,-0.48 -2.21,-0.576 -1.057,0.384 -0.48,0.385 -0.865,0.961 -0.576,1.537 -0.48,1.153 -0.097,3.074 0.192,0.961 0.385,0.961 1.057,1.346 0.769,1.057 0.673,1.249 0.192,1.441 -0.673,3.363 -0.961,2.114 -2.979,2.786 -2.69,2.499 -1.153,0.769 -1.441,0.576 -1.634,-0.288 -1.921,-0.961 -1.73,-1.441 -1.922,-1.634 -0.961,-0.576 -1.44,-0.48 -1.153,-0.096 -1.729,0.576 0,0.096 -0.192,1.25 0,0.961 0.192,0.769 1.249,1.633 1.634,1.922 1.057,0.865 0.384,0.769 0.097,1.153 0.192,2.21 0.191,1.729 0.289,0.865 0.288,0.769 0.288,0.384 0.288,0.385 0.673,0.48 1.249,0.864 1.634,1.538 1.345,2.018 1.346,2.307 0.288,2.69 -0.288,2.306 0.673,2.69 1.633,2.307 1.73,1.152 1.729,1.25 0.961,1.729 -0.192,1.441 -0.192,-0.097 -18.449,-2.69 -7.207,0.673 -9.993,-6.534 0.097,7.495 -2.21,-0.385 -9.514,-1.537 -18.257,7.207 -10.474,-12.973 -7.11,1.538 -11.339,-2.499 -0.384,-0.096 0,-0.48 0.384,-0.865 0.192,-1.345 0,-0.673 0.192,-0.673 0.288,-0.576 0.096,-0.288 -0.384,-0.288 -0.097,-0.673 0.192,-0.577 -0.096,-0.288 -0.288,-0.769 -0.192,-1.153 0.384,-0.769 -0.769,-0.864 0,-3.171 0.192,-1.826 0.096,-2.498 0.48,-1.538 -0.288,-0.191 -1.825,-1.826 -2.307,-2.114 -2.595,-1.249 -1.44,-2.113 -1.25,-1.634 -18.929,12.876 -0.385,0.192 0.288,0.864 0.192,3.651 1.922,2.114 1.153,3.556 -0.385,2.401 -0.48,1.922 0.673,2.307 0.673,1.249 -0.097,0.48 -0.192,1.441 -0.191,0.769 -0.097,1.537 0.097,1.153 -0.192,0.577 -0.48,0.672 -1.153,1.634 -0.48,0.385 -0.384,0.576 0.096,0.865 0.096,0.769 0.192,2.402 0.096,0.384 0.192,1.058 0.097,0.864 0.096,0.576 -4.324,0.097 -22.004,8.937 -8.168,-8.36 -4.324,4.229 0,0 -0.576,-0.48 -2.114,-2.69 -0.576,-0.673 -1.153,-0.961 -1.634,0 -3.651,-1.249 -1.537,-1.058 -1.537,-1.441 -0.097,-0.191 0.288,-0.192 13.356,-11.146 -16.238,-3.075 -0.385,0 -0.288,-0.288 -11.627,-8.071 -4.228,-2.595 5.765,43.433 -9.801,-9.417 -7.303,15.375 -51.601,-1.826 -0.961,0 0.77,-0.961 1.441,-1.441 2.306,-1.634 2.402,-1.633 0.384,-0.385 0.385,-0.48 0.385,-0.673 0.288,-0.576 0.096,-0.385 0.097,-0.384 -0.097,-0.577 -0.096,-0.48 -0.288,-0.769 -0.385,-0.769 -0.576,-0.673 -0.385,-0.576 -0.48,-0.48 -0.384,-0.48 -0.77,-1.249 -0.769,-1.249 -0.384,-0.385 -0.385,-0.288 -0.288,-0.192 -0.288,-0.096 -0.48,-0.192 -0.48,-0.096 -0.288,-0.385 -0.48,-0.288 -0.192,-0.288 -0.288,-0.289 -0.289,-0.384 -0.191,-0.48 -0.097,-0.385 -0.192,-0.48 -0.096,-0.384 -0.096,-0.385 -0.192,-0.192 -0.192,-0.096 -0.288,-0.096 -0.097,0 -0.576,0 -0.673,0.096 -1.345,0.096 -1.441,0 -0.673,-0.096 -0.576,-0.096 -0.961,-0.097 -0.961,-0.192 -0.385,0.097 -0.384,0 -0.577,0 -0.673,0.096 -0.191,-0.096 -0.288,-0.097 -0.289,-0.191 -0.288,-0.289 -0.192,-0.48 -0.096,-0.48 -0.48,-0.576 -0.48,-0.48 -0.576,-0.769 -0.673,-0.769 -0.385,-1.729 -0.288,-1.729 -0.48,-0.577 -0.576,-0.576 -0.288,-0.192 -0.48,-0.192 -0.48,-0.096 -0.385,-0.097 -0.48,-0.288 -0.48,-0.384 -0.385,-0.673 -0.48,-0.673 -0.288,-1.345 -0.191,-1.346 -0.289,-0.48 -0.384,-0.48 -0.865,-0.096 -0.961,-0.192 -0.961,0 -0.961,0 -0.864,-0.865 -0.673,-0.672 -0.673,-0.865 -0.672,-0.865 -0.192,-0.48 -0.288,-0.48 -0.961,-1.633 -0.961,-1.729 -1.249,-2.019 -0.865,-1.537 -0.288,-0.576 -0.673,-1.826 -0.673,-2.21 -0.096,-0.192 -0.288,0.097 -9.129,2.786 -0.576,0.192 -0.097,0.48 -0.096,0.384 -0.192,0.289 -0.384,0.384 -0.385,0.288 -0.384,0.289 -0.48,0 -0.577,-0.192 -0.384,-0.097 -0.385,-0.096 -0.385,0.192 -0.384,0.576 -0.673,0.673 -0.673,0.096 -0.864,0.385 -0.385,0.576 0.097,0.48 0.288,0.577 0.48,0.576 0.384,0.096 0.577,0.097 0.48,0 0.384,0.096 0.385,0.097 1.441,0.576 0.864,0.288 0.961,0.192 0.577,0.385 0.384,1.057 0.385,0.864 0.48,0.385 1.634,0.288 0.96,0.192 1.058,0.48 1.537,1.441 0.48,0.961 0.385,1.537 0.48,1.441 1.249,1.729 0.192,0.48 0.191,0.385 -0.096,0.576 -0.48,0.385 -1.441,0.48 -1.057,0.769 -0.385,1.153 0.192,0.864 0.48,0.288 1.634,0.289 1.057,0.384 0.576,0.961 -0.096,0.673 -0.673,1.249 -0.288,0.385 -0.385,0.48 0,0.48 0.289,0.672 0.288,0.289 1.249,0.48 1.249,0.576 1.153,0.288 1.057,0.096 1.441,-0.096 1.346,-0.096 1.44,-0.289 0.77,0.192 1.345,1.441 0.865,0.865 2.113,2.018 1.058,0.961 0,0.48 0,0.48 -0.385,1.057 -0.673,0.961 -0.672,0.288 -0.577,0.289 -1.537,0 -2.402,-0.097 -0.961,0 -1.441,0.769 -1.633,0.865 -0.673,0.48 -0.48,1.537 -0.385,0.961 -0.288,0.769 0.096,0.77 0.289,0.288 0.576,0.384 0.673,0.097 0.576,-0.097 0.865,-0.096 0.48,0.096 0.961,0.48 0.191,0.577 0.385,0.48 0,0.384 0.096,0.385 -0.191,0.769 -0.385,0.48 -1.057,0.48 -1.153,0.48 -1.057,0.48 -0.865,0.576 -0.673,0.577 -0.288,0.384 0,0.577 -0.192,0.672 -0.288,0.289 -0.192,0.288 -0.672,0.384 -0.673,0.48 -0.385,0.385 -0.673,1.153 -0.576,0.961 -0.385,0.672 0,0.48 0.192,1.25 0.288,1.249 0.385,0.864 -0.096,0.577 -0.097,0.288 -0.48,0.384 -0.769,0.289 -0.673,0.191 -0.288,0.385 -0.192,0.673 0.097,1.345 0.096,1.153 0.288,1.057 0.385,0.769 0.576,0.385 0.48,0.288 1.058,0.48 0.961,0.673 0.769,0.961 0.864,1.057 0.673,1.058 0.673,1.057 0.48,0.576 0.384,0.385 0.192,0.961 0.097,1.345 0,0.77 -0.192,0.769 -0.288,0.864 -0.192,1.249 -0.288,0.77 -0.192,0.769 -0.192,1.057 -0.288,0.865 0,0.769 -0.385,0.673 -0.288,0.191 -0.48,-0.096 -1.057,-0.192 -0.769,-0.192 -0.577,0 -0.576,0.289 -0.48,0.384 -0.192,0.673 -0.096,1.249 0.191,1.826 0.097,0.961 0.096,0.769 0.673,1.729 0.192,1.057 -0.097,0.288 -0.191,0.385 -0.097,0 -0.288,0.192 -0.48,0.096 -1.153,-0.576 -1.345,-0.385 -1.058,-0.192 -1.057,0 -0.576,0.192 -0.48,0.192 -0.577,0.385 -0.576,0.384 -0.769,-0.096 -0.673,-0.288 -0.961,-0.77 -1.729,-1.249 -1.441,-1.249 -1.441,-1.153 -1.825,-1.633 -1.346,-1.346 -0.48,-0.673 0,-0.679 0.288,-0.961 0.192,-0.769 0,-0.48 -0.096,-0.48 -0.385,-0.385 -0.576,-0.096 -0.769,0.191 -1.25,0.673 -0.48,0.192 -0.576,0.576 -0.673,0.192 -0.864,0 -0.961,0.192 -0.385,0.384 -0.384,0.577 -0.48,0.576 -0.673,0.48 -0.769,0.385 -1.058,0.096 -0.576,-0.288 -0.576,-0.673 -0.192,-0.673 0.096,-1.44 0.48,-2.402 0.192,-0.961 0.288,-0.961 0.097,-0.673 0,-0.672 -0.097,-0.673 -0.384,-1.057 -0.577,-0.673 -0.288,-0.191 -0.673,0.288 -1.249,1.057 -0.48,0.48 -0.673,1.346 -0.672,1.249 -0.48,0.864 -0.385,0.385 -0.769,0.192 -1.153,0.288 -0.864,0.384 -0.385,0.097 -0.288,0.48 -0.192,0.769 0.385,0.961 0.191,1.057 0,0.577 -0.48,0.576 -0.864,1.057 -0.961,1.346 -0.769,1.153 -0.961,1.537 -0.577,0.673 -1.057,0.096 -0.961,0.385 -0.096,0.48 0.191,0.48 0.289,0.384 0.576,0.577 0.48,0.576 0.865,1.057 0.191,1.058 0,0.48 -0.48,0.48 -0.48,-0.192 -0.864,-0.288 -0.865,-1.153 -0.672,-0.673 -0.577,-0.384 -0.576,-0.48 -0.673,-0.48 -0.576,-0.577 -0.289,-0.384 -0.384,-0.385 -0.192,-0.961 0,-0.673 0,-1.057 0,-1.729 -0.288,-1.346 -0.192,-1.441 0,-0.961 -0.192,-1.44 -0.576,-1.25 -1.057,-1.825 -0.961,-1.153 -1.441,-0.864 -1.153,-0.48 -1.057,-0.865 -1.634,-0.673 -1.729,-0.288 -0.865,-0.192 -0.576,-0.672 -0.192,-1.25 0,-1.345 -0.096,-1.153 -0.577,-1.153 -0.192,-0.576 -0.288,-0.48 -0.769,-0.769 -0.769,-0.769 -0.576,-0.192 -0.577,-0.192 -1.249,-0.192 -1.537,0 -0.673,-0.192 0,-0.576 0.48,-0.48 0.961,-0.48 0.864,-0.288 0.097,0 0.096,-0.096 1.729,0 1.25,-0.097 1.057,-0.288 0.769,-0.48 0.096,-0.096 0,-0.097 -0.672,-1.345 -0.673,-0.865 -0.865,-0.961 -2.402,-1.729 -5.957,-2.786 -0.769,-0.289 -0.673,-0.288 -1.153,-0.288 -1.249,0.096 -0.48,0 -0.576,0.097 -0.097,-0.769 -0.096,-0.77 -0.192,-0.864 -0.384,-0.865 -0.77,-1.057 -1.537,-0.48 -1.057,0.961 -0.584,1.436 -0.288,2.498 -0.096,1.153 0,0.865 0.096,0.864 0.097,0.673 0,0.769 -0.48,0.576 -0.77,0.385 -0.769,0 -0.673,-0.096 -0.672,-0.097 -1.346,-0.384 -1.249,-0.77 -0.961,-0.48 -0.673,-0.384 -0.672,-0.288 -0.577,-0.673 -0.096,-1.057 0.096,-1.441 0.097,-2.21 0.096,-1.441 0.576,-0.673 0.577,-0.48 0.769,-0.673 0.769,-0.769 0.576,-0.576 0.192,-0.48 0.288,-0.48 0.289,-2.114 0,-0.48 0,-0.385 0,-0.576 -0.097,-0.769 -0.384,-0.865 -0.577,-0.48 -0.48,-0.384 -0.576,-0.577 -0.673,-0.288 -0.576,0.096 -0.192,0 -0.288,0.192 -0.192,0.192 0,0.576 0,1.153 0,1.058 0,0.576 -0.096,0.673 -0.192,0.48 -0.385,0.384 -0.48,0.192 -0.576,0.096 -0.673,0.097 -0.385,0.192 -0.576,0.48 -1.057,0.864 -0.865,0.577 -0.769,0.191 -0.865,0.192 -0.672,-0.288 -0.961,-0.48 -0.673,-0.192 -0.48,-0.288 -1.346,-0.576 -1.057,-0.673 -1.345,-0.769 -0.961,-0.77 -1.058,-0.576 -0.961,-0.096 -0.961,0.48 -0.48,0.288 -0.384,0.192 -0.192,0.384 -0.385,0.673 -0.096,0.961 -0.288,1.537 -0.48,0.865 0.096,0.864 1.153,2.019 0.192,0.673 0.288,0.672 0.096,1.249 0,0.673 -0.096,0.769 0.192,1.058 0.288,0.48 -0.192,0.288 -0.288,0.576 -0.288,0.577 -0.192,0.096 -0.48,-0.192 -0.769,0 -0.48,0.097 -0.673,0 -0.48,-0.289 -0.576,-0.576 -0.48,-0.673 -0.48,-0.576 -0.385,-0.769 -0.384,-0.769 -0.289,-0.961 -0.384,-1.058 -0.673,-1.152 -0.096,-0.865 -0.288,-0.673 -0.385,-0.673 -0.48,-0.672 -0.288,-0.48 -0.288,-0.288 -0.192,-0.289 -0.577,-0.576 -0.672,-0.385 -0.77,-0.384 -0.864,-0.385 -0.673,-0.48 -0.769,0.288 -0.865,0.48 -0.864,0.385 -0.48,0.192 -0.385,0.192 -0.769,0.384 -0.864,0.288 -0.865,0 -0.769,-0.288 -0.673,-0.48 -0.576,-0.576 -0.288,-0.769 -0.48,-0.385 -0.289,-0.096 -0.096,-0.097 -0.288,0 -0.288,-0.096 -0.48,0.096 -0.385,0 -0.48,0.097 -0.48,0 -0.192,0.096 -0.384,0.096 -0.192,0.192 -0.192,0.288 -0.769,0.961 -0.961,0.577 -0.48,0.096 -0.673,0.097 -0.961,0.191 -1.057,0.192 -1.153,-0.288 -0.961,-0.192 -0.673,0 -0.769,0 -0.769,0 -0.961,0.288 -0.673,0.673 0,0.288 0.385,0.577 0.48,0.384 0.961,0.288 0.576,0.289 0.289,0.576 0.479,0.48 0.385,0.576 0.288,0.48 0.097,0.577 0,0.48 -0.192,0.576 -0.385,0.288 -0.672,0.192 -0.865,0.288 -0.961,0.097 -0.673,0.096 -0.769,0.192 -1.153,0.384 -0.961,0.385 -1.057,0.096 -1.057,0 -0.77,-0.384 -0.384,-0.577 -0.192,-0.48 -0.288,-0.384 -0.288,-0.865 -0.577,-0.48 -0.288,-0.192 -0.288,-0.191 -0.192,-0.192 -0.192,-0.096 -1.057,-0.577 -0.096,-0.096 -0.097,-0.385 -0.48,-1.729 -0.192,-1.441 0,-0.48 0,-0.48 0.097,-0.48 0,-0.673 0,-0.48 0,-0.191 -0.097,-0.289 -0.288,-1.44 -0.191,-0.865 0.191,-1.153 0.385,-0.48 0.384,-0.48 0.289,-0.288 0.191,-0.288 0.385,-0.385 0.48,-0.191 0.192,-0.192 0.384,-0.097 0.673,-0.096 0.288,-0.096 0.289,-0.097 0.384,-0.096 0.385,-0.192 0.576,-0.192 0.48,-0.288 0.576,-0.48 0.673,-0.576 0.288,-0.289 0.289,-0.191 0.096,-0.577 0.48,-1.152 0.769,-1.634 1.537,-3.459 0.48,-0.385 0.77,-0.576 1.249,-0.77 0.672,-0.288 1.25,-0.48 1.922,-1.249 0.672,-0.673 0.48,-0.48 0.288,-0.672 1.25,-3.844 0.096,-0.192 0.961,-0.865 1.537,-1.537 0.385,-0.576 0.096,-0.385 0,-0.576 0,-0.865 -0.096,-0.48 -0.385,-0.769 -0.288,-0.48 -0.096,-0.576 0.192,-1.634 0.191,-0.769 0.288,-0.48 0.577,-0.961 0.096,-0.48 0,-1.922 -0.096,-0.288 0.192,-0.577 0.288,-0.48 0.673,-0.576 1.441,-0.576 2.69,-1.249 0.672,-0.673 0.673,-0.48 0.385,-0.192 0.769,-0.192 0.48,-0.096 1.441,-0.097 0.673,-0.384 0.191,-0.288 0.192,-0.961 0.288,-1.729 1.058,-2.883 0.096,-0.385 -0.864,-2.114 -0.577,-1.537 -0.673,-1.057 -1.922,-2.307 -0.769,-1.249 -0.576,-0.769 -0.096,-0.48 -0.097,-0.576 0.385,-0.673 0.769,-0.673 0.961,-0.48 1.249,0 0.865,0 0.961,0 0.479,0 0.48,-0.384 0.865,-0.577 0.769,-0.673 0.48,-0.769 0.097,-0.576 -0.097,-0.288 -1.153,-1.346 -0.864,-0.769 -0.577,-0.576 -0.384,-0.577 -0.385,-0.864 -0.48,-0.385 -0.191,-0.385 -0.097,-0.384 0,-1.057 0.192,-0.77 0.288,-0.864 0.385,-0.577 0.672,-0.672 0.192,-0.288 1.634,-1.346 0.865,-1.153 0.48,-0.576 0.096,-0.48 0.192,-0.385 0.096,-0.48 -0.096,-0.191 -0.097,-0.385 -0.191,-0.192 -0.48,-0.384 -1.153,-0.385 -0.673,-0.288 -0.576,-0.288 -0.192,-1.25 -0.097,-1.249 0.289,-0.769 0.48,-0.864 0.48,-0.385 0.769,-0.769 0.576,-0.385 0.097,-0.48 0,-0.48 -0.192,-0.384 -0.48,-0.385 -0.385,-0.096 -0.769,-0.097 -1.249,0 -0.865,-0.288 -0.384,-0.673 0,-0.384 0.288,-0.673 0.769,-0.769 0.385,-0.769 0.191,-0.577 0,-0.48 -0.096,-0.48 -0.192,-0.48 -0.672,-0.864 -0.385,-0.48 -0.673,-0.577 -0.769,-0.479 -0.769,-0.192 -0.577,0.096 -0.576,-0.096 -0.48,-0.097 -0.288,-0.288 -1.537,-1.634 -0.673,-1.057 -0.673,-1.153 -0.096,-0.48 -0.769,0.577 0.191,0.769 0.192,0.769 0.192,0.673 0.384,0.864 0.192,0.192 0.577,0.865 0.672,0.576 0.385,0.576 0.769,0.289 0.385,0.288 0.673,0.288 0.864,0.576 0.576,0.385 0.289,0.48 -0.097,0.288 -0.288,0.385 -0.385,0.384 -0.288,0.289 -0.961,0.384 -0.576,0.096 -0.961,0 -0.576,0 -0.577,0 -0.576,-0.096 -0.673,0 -0.961,-0.384 -0.48,-0.192 -0.48,-0.097 -0.673,-0.191 -0.576,-0.192 -0.673,-0.192 -0.576,-0.096 -0.576,0.096 -0.673,0.288 -0.673,0.48 -0.576,0.576 -0.385,0.577 -0.192,0.576 -0.192,0.673 0,0.48 0,0.576 0.289,0.77 0.288,0.864 0.288,0.769 0.576,0.673 1.153,0.961 0.961,0.576 0.769,0.48 0.48,0.48 0.865,0.673 0.961,1.057 0.48,0.673 0.192,0.577 0.191,0.576 0,0.385 0,0.672 -0.096,0.385 -0.096,0.384 -0.192,0.385 -0.48,0.192 -0.769,0.288 -1.538,0.769 -1.825,0.769 -1.058,0.48 -0.576,0.385 -0.385,0.673 -0.288,0.48 -0.192,0.672 -0.096,0.289 -0.096,0.48 0.096,0.48 0.288,0.48 0.192,0.191 0.288,0.289 0.192,0.191 0.288,0.192 0.288,0.192 0.673,0.48 0.192,0.192 0.192,0.288 0.288,0.288 0.192,0.385 0,0.576 -0.097,0.576 -0.288,0.865 -0.384,0.864 -0.097,0.77 -0.384,0.769 -0.48,0.673 -0.48,0.672 -0.673,0.77 -0.769,0.576 -0.673,0.769 -0.576,0.865 -0.865,0.672 -0.281,0.38 -0.192,0.576 -0.48,0.77 -0.48,0.384 -1.153,0.576 -1.152,0.673 -1.058,0.865 -0.288,0.192 -0.192,0.191 -0.192,0.289 -0.191,0.961 0,0.576 -0.097,0.48 0,1.825 0.097,0.961 0.288,1.058 0.288,1.152 0.096,0.577 0,0.288 -0.191,0.288 -0.289,0.097 -0.191,0.191 -0.673,0.289 -0.865,0.096 -1.152,0.385 -0.77,0.191 -1.057,0.385 -0.769,0.48 -0.192,0.288 -0.096,0.385 -0.097,0.48 0.097,0.384 0,0.48 0.096,0.961 0,0.385 0.192,1.922 -0.097,1.633 0,1.538 -0.191,1.249 -0.385,0.864 -0.384,0.289 -0.673,0.191 -0.769,0 -1.25,-0.096 -1.057,0.096 -1.249,0 -0.769,0 -0.577,-0.096 -0.864,-0.576 -0.577,-0.577 -0.384,-0.961 -0.48,-1.057 -0.769,-1.729 -0.288,-0.673 -0.385,-0.576 -0.769,-1.249 -1.346,-1.153 -0.576,-0.48 -1.057,-0.961 -0.77,-0.288 -0.48,-0.192 -0.672,-0.097 -0.48,0 -0.385,0.097 -0.384,0.288 -0.385,0.288 -0.288,0.48 -0.192,0.288 0,0.48 -0.096,0.961 -0.192,2.21 -0.097,2.019 -0.191,0.864 -0.097,0.385 -0.192,0.48 -0.384,0.48 -0.961,0.384 -0.673,0.289 -1.345,0.48 -0.865,0.48 -0.48,0.288 -0.385,0.576 -0.48,0.769 -0.288,0.865 -0.288,0.864 -0.48,1.058 -0.48,1.057 -0.288,0.385 -0.48,0.096 -0.576,-0.192 -0.577,-0.288 -0.192,-0.192 -0.384,-0.48 -0.288,-0.384 -0.77,-1.153 -0.384,-0.576 -0.673,-0.961 -0.192,-0.192 -0.096,-0.192 -0.385,-0.192 -0.288,-0.096 -0.288,-0.288 -0.288,-0.769 -1.826,-3.46 -0.288,-0.191 -0.384,-0.192 -0.385,-0.288 -0.865,-0.385 -0.384,-0.48 -0.385,-0.288 -1.249,-0.385 -0.864,0 -1.441,0.192 -0.77,0.385 -0.48,0.384 -0.672,0.961 -0.097,0.48 0,0.769 -0.096,0.961 0,0.48 -0.192,0.577 0,0.672 -0.096,0.097 -0.097,0.769 -0.191,0.384 -0.289,0.577 -0.48,0.48 -0.576,0.576 -0.865,0.288 -0.769,0.289 -0.673,0.191 -0.864,0.097 -0.673,0 -0.576,-0.192 -0.865,-0.385 -0.864,-0.384 -1.058,-0.961 -0.864,-0.769 -0.385,-0.192 -0.769,-0.288 -0.961,-0.192 -0.48,-0.096 -0.769,0.096 -1.346,0.192 -0.769,0.288 -0.384,0.192 -0.385,0.576 -0.096,0.192 -0.097,0.192 -0.096,0.191 -0.097,0.289 0,0.384 0.097,0.48 0.096,0.288 0.288,0.48 0.289,0.385 0.288,0.192 0.48,0.288 0.769,0.48 1.153,0.48 0.769,0.576 0.576,0.385 0.769,0.576 1.058,0.865 0.48,0.576 0.576,0.673 0.673,0.769 0.288,0.769 0.288,0.961 0.288,0.673 0.192,0.961 0.097,0.864 0,0.673 0,1.441 0,1.826 0,0.384 -0.192,0.385 -0.288,0.384 -0.289,0.289 -0.48,0.384 -0.769,0.385 -0.48,0.288 -0.48,0.385 -0.288,0.384 -0.192,0.48 -0.288,0.961 -0.384,0.576 -0.48,0.385 -0.289,0.288 -0.48,0.288 -0.769,0.192 -0.576,0 -0.673,-0.096 -0.48,-0.192 -0.961,-0.385 -1.057,-0.576 -0.385,-0.385 -0.384,-0.576 -0.288,-0.192 -0.577,-0.384 -0.576,-0.48 -0.865,-0.577 -0.48,-0.096 -0.673,-0.192 -0.384,-0.096 -0.769,-0.097 -0.387,0 -0.576,0.097 -0.769,0.288 -0.289,0.096 -0.384,0.289 -0.288,0.191 -0.577,0.673 -0.288,0.385 -0.288,0.384 -0.385,0.385 -0.48,0.192 -0.48,0.096 -0.48,-0.096 -0.576,-0.385 -0.673,-0.385 -0.48,-0.479 -0.48,-0.577 -0.48,-0.961 -0.48,-0.864 -0.384,-0.577 -0.48,-0.096 -0.48,-0.097 -0.192,-0.191 -0.192,-1.346 -0.096,-0.769 -0.577,-2.114 -0.384,-1.249 -0.577,-1.729 -0.288,-1.346 -0.384,-1.44 -0.385,-1.346 -0.288,-0.769 -0.385,-0.865 -0.191,-0.672 -0.192,-0.865 0.192,-0.385 0.191,-0.672 0.385,-0.289 0.961,-0.576 0.288,-0.192 0.576,-0.288 0.48,0.096 0.865,0.289 0.385,0.096 0.961,0.288 0.384,-0.096 1.153,-0.288 0.192,-0.192 0.576,-0.961 0.192,-0.192 0.864,-1.153 0.097,-0.191 0.673,-1.346 0,-0.192 0.096,-2.113 0,0 -0.288,-0.865 -0.48,-1.537 -0.385,-0.77 -0.961,-1.345 -0.769,-0.48 -1.729,-1.249 -0.769,-0.385 -1.538,-0.864 -0.769,-0.577 -1.633,-1.057 -0.577,-0.48 -1.153,-1.153 -0.384,-0.576 -0.961,-1.249 -0.288,-0.385 -0.385,-0.864 -0.288,-0.385 -0.576,-0.961 -0.192,-0.385 -0.288,-0.769 0.096,-0.48 0.096,-1.057 0.289,-0.385 1.152,-0.769 0.385,-0.288 1.153,-0.865 0.288,-0.288 0.864,-0.864 0.097,-0.288 0.576,-1.058 0.192,-0.288 0.48,-1.153 0.48,-0.192 1.153,-0.672 0.48,-0.097 1.537,-0.288 0.385,-0.096 1.537,-0.385 0.384,-0.192 1.441,-0.576 0,-0.385 0,-1.249 -0.096,-0.192 -0.48,-0.769 -0.096,-0.096 -0.289,-0.48 -0.096,-0.288 -0.673,-1.346 0,-0.288 -0.192,-1.441 0,-0.288 0,-1.441 0,-0.288 -0.288,-1.153 -0.096,-0.192 -0.961,-0.769 -0.096,-0.192 -0.961,-1.057 -0.097,-0.192 -0.48,-1.153 -0.096,-0.191 -0.192,-1.25 0,-0.288 0,-1.537 0,-0.192 0,-1.153 0.288,-0.288 1.346,-1.634 0.192,-0.096 1.729,-0.769 0.288,-0.096 1.441,-0.77 0.192,0 1.825,-0.096 0.192,0 1.922,0 0.192,0.096 2.113,0.673 0.192,0 2.018,0 0.192,0 1.729,-0.576 0.097,-0.097 1.057,-0.864 0.096,-0.097 0.48,-1.057 0,-0.096 0.577,-1.25 0,-0.191 0.384,-2.307 0,-0.288 0,-5.381 0.097,-0.097 0.384,-2.401 0.097,-0.097 0.864,-1.345 0,0 1.058,-1.634 0,-0.096 1.057,-1.441 0.096,0 1.346,-0.961 0,0 2.402,0 0.096,0 1.729,-0.289 0,0 1.441,-0.864 0,0 0.769,-1.057 0,0 0,-1.25 0,0 0,-1.441 0,0 -0.48,-1.249 0,0 -1.057,-0.864 0,-0.097 -1.537,-0.191 -0.097,-0.097 -1.537,0.097 -0.096,0 -1.346,-0.097 -0.094,0 -1.249,0 -0.097,0 -0.864,-0.384 0,0 -1.346,-1.153 -0.192,-0.192 -0.864,-0.865 -0.097,-0.096 -0.576,-1.057 -0.096,-0.097 -0.097,-1.441 0,0 0,-1.441 0,-0.096 0.288,-1.057 0.097,-0.097 0.769,-0.961 0.192,-0.096 0.864,-0.961 0.097,-0.096 0.769,-1.058 0.096,-0.096 0.288,-0.865 0.097,-0.191 0,-1.346 0,-0.192 0.096,-2.498 0,-0.385 0,-1.345 0,-0.192 0.865,-1.346 0.096,-0.191 0.769,-1.346 0.097,-0.192 0.48,-1.441 0.096,-0.288 0.576,-1.057 0.192,-0.288 0.48,-1.249 0,-0.289 0.288,-1.345 0.097,-0.288 0,-2.979 0,-0.769 -0.097,-1.345 0,-0.288 -0.48,-1.346 -0.096,-0.385 -0.864,-1.152 -0.192,-0.289 -0.192,-1.057 -0.096,-0.288 0.384,-1.634 0.097,-0.48 0.96,-1.345 0.192,-0.48 0.865,-1.058 0.384,-0.384 0.961,-1.153 0.289,-0.385 0.864,-0.961 0.385,-0.384 0.961,-1.057 0.384,-0.48 0.769,-1.25 0.289,-0.48 0.48,-1.249 0.191,-0.576 0.577,-1.346 0.192,-0.576 0.576,-1.441 0.192,-0.576 0.48,-0.769 0.191,-0.289 0.385,-0.672 0.192,-0.289 0.096,-1.345 0,-0.577 0,-1.057 0,-0.48 0.097,-1.249 0,-0.673 1.057,-1.633 0.576,-0.865 1.346,-0.385 0.673,-0.096 1.152,-0.385 0.77,-0.191 0.864,-0.385 0.576,-0.288 0.577,-0.385 0.48,-0.288 0.576,-0.48 0.192,-0.384 0.385,-0.577 0.191,-0.384 0.48,-0.385 0.192,-0.288 0.865,-0.385 0.48,-0.288 0.769,-0.576 0.384,-0.385 0.577,-0.48 0.384,-0.288 0.385,-0.48 0.192,-0.288 -0.097,-0.48 0,-0.385 -0.48,-0.673 -0.384,-0.384 -0.577,-0.673 -0.288,-0.576 -0.48,-0.673 -0.48,-0.48 -0.096,-0.673 -0.192,-0.48 -0.384,-0.864 -0.289,-0.77 -0.288,-0.769 -0.192,-0.576 0,-0.673 -0.096,-0.673 0,-0.672 -0.096,-0.48 -0.385,-0.577 -0.288,-0.576 -0.385,-0.576 -0.288,-0.48 -0.385,-0.48 -0.288,-0.577 -0.384,-0.673 -0.577,-0.672 -0.384,-0.577 -0.385,-0.48 -0.096,-0.576 -0.192,-0.48 0,-0.769 -0.096,-0.865 0,-0.576 0,-0.48 0.384,-0.673 0.385,-0.673 0.769,-0.576 0.769,-0.673 0.769,-0.576 0.865,-0.577 0.769,-0.384 0.673,-0.192 1.057,-0.576 1.057,0.096 37.764,1.729 10.474,-25.944 11.915,-2.498 0.769,-1.441 0.288,-1.249 0.289,-1.345 0.288,-0.865 0.288,-0.865 0.769,-0.961 0.097,-0.096 1.729,-0.576 2.018,-0.192 0.864,-0.097 0.673,-0.096 0.288,-0.096 0.77,-0.289 0.672,-0.288 0.48,-0.192 0.48,-0.096 0.673,0.192 0.576,0.288 0.865,0.385 0.769,0.288 1.153,0.288 0.48,0 0.576,0 0.865,-0.576 0.48,-0.192 0.673,-0.288 0.576,-0.192 0.576,-0.288 0.577,-0.097 0.576,-0.096 0.769,-0.385 0.577,-0.288 0.769,-0.384 0.576,-0.385 0.673,-0.288 0.673,-0.192 0.384,-0.192 0.48,-0.288 0.673,-0.48 0.576,-0.576 0.289,-0.192 1.729,-4.229 -0.385,-3.651 -0.192,-5.477 0.097,-1.922 1.249,-2.306 2.018,-1.441 0.577,-2.211 0.672,-1.633 0.961,-1.922 1.441,-1.441 0,-1.634 -0.48,-1.345 -1.057,-2.499 -0.673,-2.69 -0.384,-1.729 0.769,-2.402 1.345,-2.402 1.441,-2.113 1.153,-3.46 1.249,0.48 0.673,0.385 0.673,0.48 0.288,0.096 0.384,-0.191 0.289,-0.289 -0.097,-0.576 -0.288,-0.576 -0.576,-1.25 -0.097,-1.152 0.097,-1.153 0.096,-1.057 0.192,-0.77 0.576,-0.384 1.153,-0.385 1.057,0.289 0.961,0.096 1.058,0.192 0.769,-0.097 0.864,-0.191 1.153,-0.48 1.057,-0.673 0.385,0 0.961,-0.577 1.153,-0.769 1.057,-0.673 0.673,-0.384 0.576,-0.288 1.058,-0.097 1.057,0.097 0.769,-0.097 1.922,-0.288 1.346,-0.192 1.057,-0.384 0.864,-0.097 1.153,-0.191 0.961,-0.192 0.097,0 0,0 0.191,0 0.961,-0.097 0.961,-0.096 0.577,-0.096 1.057,-0.385 0.769,-0.769 0.769,-1.346 0.192,-0.48 5.188,2.787 6.343,1.922 9.128,1.249 0,-2.69 0.096,-1.634 0.48,-3.171 0.48,-1.057 0.289,-1.058 0.096,-2.498 0.865,-1.346 1.633,-3.459 1.346,-1.057 0.961,-2.307 2.69,-2.402 0.961,-3.843 0.673,-1.058 1.249,-1.345 0.576,-1.249 1.729,-4.324 1.634,-4.132 0,-0.192 0.48,-2.306 -0.096,-1.826 -0.097,-0.961 0,-1.153 1.058,-4.228 0.672,-1.826 1.538,-1.729 1.152,-2.113 0.48,-1.922 -0.096,-1.153 0.673,-1.826 2.018,-2.018 0.192,-1.634 -0.192,-1.537 -1.346,-0.576 -0.769,-0.289 -0.864,-0.576 -1.058,-1.441 -0.48,-0.673 0.097,-0.576 0.961,-1.153 2.113,-1.922 1.346,-1.441 0.385,-1.249 -0.097,-1.249 -1.537,-2.498 -1.441,-1.826 -1.249,-1.729 -0.673,-0.864 -1.537,-2.307 -1.058,-1.922 -1.249,-2.113 -1.249,-1.826 -1.441,-2.786 -1.057,-2.114 -2.019,-1.441 -2.306,-0.865 -2.018,-1.249 -0.865,-2.113 -0.192,-3.363 -0.096,-0.289 0.385,-0.096 0.191,-0.096 0.48,-0.673 0.097,-0.192 0.288,-0.769 0.096,-0.192 0.192,-0.673 0.096,-0.191 0.192,-0.865 0.097,-0.192 0,-1.152 0,-0.289 0,-0.864 0,-0.288 -0.097,-2.402 0,-0.673 0.288,-1.441 0.097,-0.385 0.384,-0.864 0.097,-0.288 0.192,-0.865 0.096,-0.288 0,-0.576 0,-0.192 0.096,-0.48 0.097,-0.097 0.576,-0.672 0.097,-0.289 0.672,-0.576 0.192,-0.288 0.48,-0.673 0,-0.192 0,-0.576 0,-0.288 -0.769,-0.48 -0.288,-0.192 -0.865,-0.288 -0.384,-0.097 -0.865,-0.384 -0.288,-0.192 -0.48,-0.385 -0.288,-0.191 -0.192,-0.577 -0.097,-0.288 -0.191,-0.961 -0.097,-0.384 -0.384,-1.153 -0.097,-0.48 -0.288,-0.865 -0.096,-0.48 -0.385,-0.961 -0.192,-0.48 -0.096,-0.961 0,-0.48 -0.096,-0.961 0,-0.576 -0.192,-0.961 -0.097,-0.576 -0.384,-0.673 -0.288,-0.48 -0.48,-0.865 -0.192,-0.48 -0.48,-0.672 -0.288,-0.48 -0.577,-0.865 -0.48,-0.384 -0.672,-1.058 -0.48,-0.673 -0.577,-0.864 -0.288,-0.769 -0.673,-0.865 -0.384,-0.48 -0.192,-0.769 -0.097,-0.576 0.097,-0.385 0.096,-0.288 0.673,-0.385 0.48,-0.384 0.576,-0.48 0.48,-0.48 0.289,-0.577 0.096,-0.48 0,-0.672 0,-0.577 -0.096,-0.576 0,-0.385 -0.48,-0.672 -0.385,-0.673 -0.385,-0.673 -0.384,-0.48 -0.288,-0.48 -0.289,-0.385 -0.191,-0.769 -0.192,-0.48 0.192,-0.672 0.096,-0.577 0.288,-0.673 0.288,-0.576 0.48,-0.865 0.385,-0.864 0.385,-0.576 0.288,-0.77 0.192,-0.769 0.096,-0.673 0,-0.576 0,-0.576 0,-0.785 -0.096,-0.77 0,-0.576 0,-0.673 0.48,-0.864 0.576,-1.153 0.384,-0.576 0.673,-0.673 0.577,-0.48 0.864,-0.577 0.961,-0.673 1.249,-0.865 0.769,-0.672 0.77,-0.769 0.384,-1.057 0.385,-1.25 0.192,-0.865 0.096,-1.153 0,-0.577 -0.096,-0.961 -0.289,-0.384 -0.48,-0.577 -0.576,-0.192 -0.769,-0.289 -0.961,0 -1.537,0 -0.48,-0.096 -0.673,-0.384 -0.288,-0.192 -0.577,-0.48 -0.288,-0.673 -0.48,-0.961 -0.384,-0.577 -0.673,-0.96 -0.192,-0.769 -0.48,-1.441 -0.096,-0.672 -0.192,-1.345 0,-0.48 0,-1.153 -0.097,-1.249 0,-2.402 0,-0.48 0,-1.057 0,-0.385 0.192,-1.153 0.192,-0.288 0.48,-0.673 0.385,-0.192 0.48,-0.288 0.384,0 0.576,0 0.385,0 0.673,0 0.192,-0.192 0.48,-0.289 0.191,-0.096 0.289,-0.288 0.48,-0.577 0.191,-0.384 0.577,-0.769 0.192,-0.384 0.288,-0.865 0,-0.384 0,-0.769 -0.097,-0.577 -0.191,-1.249 -0.097,-0.384 -0.576,-1.153 -0.288,-0.288 -0.961,-0.961 -0.385,-0.192 -1.249,-0.672 -0.385,-0.192 -1.537,-0.48 -0.385,-0.096 -1.249,-0.096 -0.192,0 -0.576,0 -0.576,0 -1.73,0 -0.097,-0.192 -0.384,-0.769 0,-0.096 0,-0.288 0,-0.192 0,-0.769 0,-0.192 0.288,-1.057 0.096,-0.384 0.577,-1.729 0.191,-0.48 0.673,-1.922 0.097,-0.384 0.48,-1.633 0,-0.384 0.096,-1.922 0,-0.192 0.192,-1.153 0,-0.096 0,-0.48 0.096,-0.096 0.192,-0.384 0,-0.096 0.384,-0.769 0.097,-0.289 0.864,-1.633 0,-0.192 0.192,-1.057 -0.096,-0.192 -0.192,-0.961 -0.096,-0.192 -0.673,-1.441 -0.097,-0.096 -0.864,-1.538 -0.096,-0.096 -0.961,-1.73 -0.097,-0.192 -0.192,-0.961 0,-0.096 0.097,-0.769 0.096,-0.096 0.865,-0.673 0.096,0 0.961,0 0.096,0 1.153,0.192 0.097,0 1.441,0.384 0.191,0 2.21,0.769 0.097,0.096 2.114,0.48 0.096,0.096 1.729,0.48 0.096,0 1.73,0.384 0,0 1.44,0.288 0.097,0 0.192,0 0,0 0.384,-0.288 0,0 0.288,-0.288 0,0 0.289,-0.192 0,0 0.288,-0.48 0,0 0.192,-0.288 0,0 0.096,-0.577 0,0 0,-0.48 0,0 0,-0.384 0,-0.096 -0.096,-0.48 0,-0.096 -0.289,-0.48 0,0 -0.288,-0.576 0,-0.096 -0.192,-0.48 0,0 0,-0.673 0,0 0,-0.865 0,0 0.192,-0.769 0,0 0.288,-0.865 0,-0.096 0.192,-0.769 0,-0.096 0.097,-0.769 0,-0.096 0,-1.153 0,-0.192 0,-0.577 0,-0.096 0.096,-0.48 0,-0.096 0.192,-0.384 0,-0.096 0.384,-0.672 0.097,-0.096 0,-0.096 0.096,-0.384 0.097,-0.096 0.191,-0.576 0,-0.096 0.289,-0.577 0,-0.192 0.384,-0.48 0.097,-0.096 0.384,-0.289 0.097,-0.096 0.384,-0.289 0.096,-0.096 0.577,-0.384 0.192,0 0.384,-0.384 0.192,-0.096 0.48,-0.384 0.192,-0.096 0.288,-0.384 0.096,0 0.097,-0.288 0.096,-0.096 0,-0.384 0,-0.096 0.097,-0.577 0,-0.192 -0.097,-0.577 0,-0.096 -0.192,-0.384 0,-0.192 -0.384,-0.576 -0.097,-0.192 -0.384,-0.672 -0.192,-0.289 -0.576,-0.672 -0.192,-0.384 -0.673,-0.577 -0.192,-0.192 -0.384,-0.384 -0.097,-0.096 -0.576,-0.288 -0.192,-0.192 -0.48,-0.288 -0.192,-0.096 -0.576,-0.288 -0.096,-0.096 -0.577,-0.192 -0.288,-0.096 -0.48,-0.192 -0.288,0 -0.576,-0.096 -0.289,0 -0.48,-0.096 -0.288,0 -0.384,-0.288 -0.192,-0.096 -0.192,-0.192 -0.096,-0.096 -0.097,-0.384 -0.096,-0.096 0.096,-0.384 0,-0.192 0.097,-0.288 0.096,-0.192 0.192,-0.384 0.192,-0.096 0.48,-0.48 0.191,-0.288 0.385,-0.384 0.192,-0.192 0.48,-0.288 0.288,-0.289 0.384,-0.288 0.289,-0.096 0.384,-0.192 0.288,-0.096 0.289,-0.192 0.191,-0.096 0.289,-0.192 0.288,-0.096 0.288,-0.288 0.096,-0.096 0.097,-0.288 0.096,-0.192 0.097,-0.288 0,-0.289 -0.097,-0.192 0,-0.289 -0.096,-0.384 -0.097,-0.288 -0.096,-0.384 -0.096,-0.289 0,-0.48 0,-0.288 0,-0.865 0,-0.769 0,-0.384 0,-0.288 -0.097,-0.384 -0.192,-0.384 -0.096,-0.385 -0.096,-0.384 -0.192,-0.384 -0.097,-0.288 -0.096,-0.48 0,-0.384 0,-0.385 0,-0.48 0,-0.309 0,-0.288 -0.096,-0.289 0,-0.384 -0.097,-0.288 -0.096,-0.192 -0.192,-0.192 -0.192,-0.289 -0.288,0 -0.288,0 -0.288,0.096 -0.385,0.096 -0.48,0.192 -0.48,0.289 -0.576,0.192 -0.577,0.192 -0.384,0.192 -0.48,0.096 -0.385,0.192 -0.384,0.096 -0.289,0 -0.479,0 -0.192,-0.192 -0.288,-0.288 -0.192,-0.384 -0.288,-0.48 -0.097,-0.384 -0.096,-0.48 0.096,-0.961 0,-1.442 0,-0.48 -0.096,-0.769 -0.097,-0.769 -0.191,-1.057 -0.097,-0.288 -0.096,-0.48 0,-0.288 -0.097,-0.385 0.097,-0.288 0,-0.48 0,-0.288 0,-0.577 0,-0.288 0.096,-0.48 0,-0.289 0,-0.576 0,-0.289 0,-0.48 -0.096,-0.192 0,-0.384 -0.097,-0.289 -0.191,-0.48 -0.097,-0.192 -0.288,-0.48 -0.288,-0.192 -0.288,-0.48 -0.289,-0.192 -0.576,-0.289 -0.192,-0.096 -0.576,-0.192 -0.288,-0.096 -0.673,0 -0.48,-0.096 -1.537,0 -0.289,0 -0.769,-0.096 -0.191,0 -0.77,-0.192 -0.096,-0.096 -0.673,-0.288 -0.288,-0.192 -0.576,-0.384 -0.097,-0.096 -0.48,-0.384 -0.096,-0.096 -0.288,-0.384 0,-0.192 -0.097,-0.48 0,-0.192 0,-0.48 0.097,-0.192 0,-0.288 0.191,-0.192 0.48,-0.576 0.192,-0.192 0.48,-0.48 0.192,-0.096 0.673,-0.48 0.192,-0.096 0.576,-0.289 0.096,-0.192 0.385,-0.384 0.096,-0.096 0.288,-0.48 0,-0.096 0.097,-0.577 0,-0.192 0,-0.577 0,-0.096 0,-0.48 0,-0.096 -0.097,-0.672 0,-0.096 -0.096,-0.577 0,-0.192 -0.096,-0.48 0,-0.192 0.096,-0.48 0.096,-0.096 0.289,-0.576 0.096,0 0.48,-0.48 0.096,-0.096 0.48,-0.289 0.097,0 0.576,0 0.097,0 0.48,0.096 0.096,0 0.865,0.384 0.096,0 0.769,0.385 0.096,0 0.577,0.192 0.096,0 0.577,0.096 0,0 0.672,-0.096 0,0 0.097,-0.096 0,0 0.576,-0.192 0.097,0 0.672,-0.577 0,-0.096 0.673,-0.769 0.096,-0.096 0.192,-0.672 0,-0.096 0.097,-1.345 0,0 0.096,-0.961 0,0 -0.096,-0.769 0,0 -0.289,-0.769 0,0 -0.479,-0.672 0,0 -0.577,-0.48 0,0 -0.864,-0.577 0,0 -0.48,-0.48 -0.097,0 -0.288,-0.673 0,0 -0.096,-0.672 0,0 -0.289,-0.673 -0.096,0 -0.192,-0.672 0,0 -0.096,-0.48 0,0 0.192,-0.577 0,0 0.48,-0.48 0,0 0.961,-0.096 0,0 0.961,0.096 0.096,0 0.673,0.096 0.096,0 0.865,0.288 0.096,0 0.673,0.289 0.096,0.096 0.673,0.384 0.096,0 0.577,0.577 0.096,0.096 0.385,0.673 0.096,0.096 0.385,0.769 0.096,0 0.288,0.769 0,0.192 0.288,0.672 0,0.096 0.385,0.48 0,0.096 0.48,0.192 0,0 0.576,0.192 0.097,0 0.864,0 0.097,0 0.48,-0.384 0.192,0 0.48,-0.384 0.096,-0.096 0.096,-0.48 0.097,-0.096 0.288,-0.577 0,-0.096 0.096,-0.577 0,-0.096 0.097,-1.345 0,-0.288 0,-0.577 0,-0.096 0,-0.577 0,-0.192 0,-0.577 0,-0.192 0.096,-0.672 0.096,-0.096 0.192,-0.577 0,-0.192 0.385,-0.769 0.096,-0.289 0.48,-0.384 0.097,-0.192 0.48,-0.384 0.096,-0.192 0.192,-0.385 0.096,-0.096 0.288,-0.48 0.097,-0.096 0.288,-0.48 0.096,-0.288 0.289,-0.577 0,-0.192 0.384,-0.769 0.096,-0.288 0.385,-0.577 0.096,-0.192 0.385,-0.672 0,-0.192 0.48,-0.672 0.192,-0.192 0.576,-0.384 0.097,-0.192 0.48,-0.384 0.191,-0.096 0.577,-0.48 0.096,-0.096 0.097,-0.096 0.48,-0.48 0.191,-0.096 0.288,-0.48 0.192,-0.288 0.097,-0.577 0.096,-0.289 0.096,-0.576 0,-0.192 -0.096,-0.576 0,-0.385 -0.192,-0.576 0,-0.289 -0.096,-0.48 0,-0.192 -0.097,-0.673 0,-0.384 0,-0.673 0,-0.384 0.192,-0.769 0.097,-0.48 0.191,-0.577 0.192,-0.384 0.192,-0.48 0.096,-0.384 0.097,-0.48 0,-0.384 0.096,-0.48 0,-0.288 -0.096,-0.577 -0.097,-0.384 -0.191,-0.48 -0.097,-0.289 -0.192,-0.48 -0.191,-0.288 -0.097,-0.577 0,-0.384 0,-0.48 0,-0.48 0,-0.48 0,-0.48 0,-0.48 0,-0.384 -0.192,-0.577 -0.191,-0.288 -0.288,-0.577 -0.289,-0.384 -0.288,-0.48 -0.192,-0.384 -0.191,-0.384 -0.289,-0.289 0,-0.384 -0.096,-0.288 0.192,-0.384 0.192,-0.385 0.288,-0.192 0.288,-0.192 0.48,0 0.48,0 0.576,-0.192 0.673,-0.096 0.48,-0.384 0.673,-0.289 0.384,-0.288 0.577,-0.384 0.576,-0.384 0.48,-0.289 0.576,-0.192 0.577,-0.384 0.48,-0.289 0.576,-0.384 0.385,-0.288 0.48,-0.289 0.384,-0.096 0.385,-0.096 0.384,-0.096 0.385,0 0.385,0 0.672,0 0.479,0 0.48,0.096 0.48,0 0.577,0.096 0.384,0.096 0.577,0.096 0.288,0 0.576,0 0.385,0 0.384,0 0.385,-0.096 0.576,-0.288 0.288,-0.192 0.385,-0.384 0.288,-0.384 0.385,-0.672 0.191,-0.385 0.192,-0.576 0.192,-0.289 0.288,-0.577 0.288,-0.384 0.385,-0.577 0.192,-0.288 0.48,-0.48 0.288,-0.288 0.48,-0.48 0.288,-0.288 0.673,-0.48 0.288,-0.289 0.576,-0.288 0.289,-0.192 0.576,-0.384 0.385,-0.096 0.672,-0.384 0.289,-0.192 0.769,-0.288 0.192,-0.096 0.288,-0.288 0.096,-0.096 0.192,-0.288 0,-0.096 0.096,-0.48 -0.096,-0.096 -0.288,-0.48 -0.097,-0.096 -0.191,-0.48 -0.192,-0.096 -0.385,-0.384 -0.288,-0.096 -0.576,-0.384 -0.289,-0.192 -0.672,-0.384 -0.192,-0.096 -0.865,-0.192 -0.288,-0.192 -1.441,-0.384 -0.192,-0.096 -0.672,-0.096 -0.192,-0.096 -0.48,-0.192 -0.097,-0.096 -0.288,-0.288 0,-0.192 -0.096,-0.384 0.096,-0.192 0.097,-0.672 0.576,-0.769 0.385,-0.576 0.672,-0.673 0.769,-0.672 0.865,-0.48 1.057,-0.48 1.346,-0.289 1.537,-0.48 1.058,-0.384 1.537,-0.672 0.961,-0.289 0.864,-0.576 0.673,-0.385 0.385,-0.576 0.192,-0.48 0.096,-0.673 0,-0.48 -0.192,-0.577 -0.48,-0.48 -0.673,-0.48 -0.672,-0.48 -0.577,-0.577 -0.576,-0.48 -0.576,-0.577 -0.77,-0.672 -0.864,-0.577 -0.576,-0.384 -0.865,-0.096 -0.48,0 -0.673,0.096 -0.48,0.384 -0.48,0.577 -0.576,0.672 -0.288,0.384 -0.77,0 -0.672,-0.096 -0.769,-0.577 -0.577,-0.769 -0.48,-0.769 -0.48,-0.672 -0.769,-1.153 -0.864,-0.961 -0.673,-1.633 -0.097,-0.096 0,-0.48 0,0 -0.288,-0.865 0,-0.096 -0.096,-0.865 -0.097,0 -0.096,-0.769 0,-0.096 0,-0.769 0,-0.096 0.096,-0.577 0,-0.096 0.192,-0.48 0,-0.096 0.48,-0.192 0.097,0 0.672,0 0.192,0 0.673,0.192 0.096,0 0.097,0.096 1.152,0.48 0,0 0.289,0.096 0.769,0.288 0,0 0.192,0.096 0.864,0.384 0,0 0.192,0.096 0.673,0.288 0,0 0.096,0.096 0.576,0 0,0 0.192,0 0.48,0 0,0 0.097,-0.096 0.48,-0.384 0.096,0 0.096,-0.096 0.577,-0.576 0,-0.096 0.096,0 0.385,-0.577 0,-0.096 0.192,-0.192 0.191,-0.577 0.097,-0.096 0.096,-0.192 0.097,-0.865 0,-0.192 0,-0.288 0.191,-0.865 0,-0.096 0,-0.289 0.192,-0.48 0,-0.192 0.096,-0.192 0.192,-0.48 0,-0.096 0.097,-0.192 0.288,-0.577 0.096,-0.096 0.097,-0.192 0.288,-0.384 0,-0.096 0.096,-0.192 0.385,-0.288 0.096,-0.096 0.097,-0.192 0.48,-0.384 0.096,0 0.096,-0.192 0.673,-0.289 0.097,-0.096 0.288,-0.096 0.48,-0.192 0.096,0 0.288,-0.096 0.577,-0.192 0.096,-0.096 0.192,-0.192 0.48,-0.289 0.096,-0.096 0.288,-0.096 0.385,-0.289 0.192,-0.192 0.192,-0.096 0.384,-0.289 0.192,-0.096 0.192,-0.192 0.288,-0.192 0.096,-0.192 0.192,-0.192 0.288,-0.288 0.097,-0.192 0.191,-0.192 0.097,-0.384 0.096,-0.192 0,-0.192 0,-0.384 0,-0.192 0,-0.289 0,-0.48 -0.096,-0.192 -0.097,-0.289 -0.288,-0.48 -0.096,-0.192 -0.288,-0.192 -0.288,-0.48 -0.192,-0.192 -0.192,-0.289 -0.385,-0.384 -0.191,-0.192 -0.289,-0.289 -0.191,-0.288 -0.192,-0.192 -0.288,-0.096 -0.385,-0.577 -0.192,-0.289 -0.288,-0.576 -0.096,-0.289 0,-0.288 -0.097,-0.192 0,-0.384 0,-0.192 0,-0.384 0.097,-0.288 0,-0.288 0.096,-0.289 0.096,-0.288 0.097,-0.192 0.192,-0.192 0.191,-0.192 0.097,-0.192 0.288,-0.192 0.288,-0.192 0.097,-0.096 0.288,-0.192 0.288,0 0.192,0 0.384,0 0.192,0 0.288,0 0.48,0 0.288,0 0.192,0.096 0.48,0 0.288,0 0.192,0 0.385,0.096 0.192,0 0.384,0 0.48,0 0.192,-0.096 0.288,-0.192 0.48,-0.192 0.192,-0.096 0.288,-0.096 0.385,-0.192 0.191,-0.096 0.385,-0.096 0.48,-0.096 0.096,-0.096 0.289,0 0.48,-0.192 0.191,-0.096 0.192,-0.192 0.288,-0.192 0.192,-0.192 0.192,-0.192 0.288,-0.384 0,-0.096 0.192,-0.192 0.192,-0.384 0,-0.096 0,-0.192 0,-0.289 0,-0.096 0,-0.288 0,-0.384 0,-0.096 -0.097,-0.384 -0.288,-0.48 0,-0.096 -0.288,-0.192 -0.288,-0.48 0,0 -0.288,-0.192 -0.192,-0.288 0,-0.096 -0.385,-0.192 -0.384,-0.288 -0.097,0 -0.288,-0.192 -0.385,-0.288 -0.096,0 -0.48,-0.096 -0.576,-0.192 -0.097,0 -0.672,0 -0.865,0 -0.096,0 -0.577,0 -0.673,-0.096 0,0 -0.48,-0.096 -0.48,-0.096 -0.096,-0.096 -0.288,-0.192 -0.385,-0.192 0,0 -0.288,-0.288 -0.192,-0.384 0,0 0,-0.289 -0.096,-0.288 0,0 0,-0.288 0.096,-0.577 0,0 0.097,-0.288 0.096,-0.385 0.097,-0.096 0.288,-0.48 0.288,-0.577 0.096,0 0.288,-0.48 0.289,-0.673 0,-0.096 0.191,-0.384 0.289,-0.48 0.096,-0.096 0.192,-0.289 0.192,-0.48 0.096,-0.096 0,-0.289 0.096,-0.384 0,-0.096 0,-0.288 0,-0.384 0,0 -0.191,-0.289 -0.192,-0.288 2.498,1.441 1.441,-1.057 1.057,-1.249 1.058,-1.345 1.441,-0.961 2.018,-0.384 1.444,0.241 z"
       inkscape:connector-curvature="0"
       class="DEP_01 ZON_01" /></g></svg>