<?xml version="1.0" encoding="UTF-8" standalone="no"?>
<!-- Generator: Adobe Illustrator 16.0.0, SVG Export Plug-In . SVG Version: 6.00 Build 0)  -->

<svg
   xmlns:dc="http://purl.org/dc/elements/1.1/"
   xmlns:cc="http://creativecommons.org/ns#"
   xmlns:rdf="http://www.w3.org/1999/02/22-rdf-syntax-ns#"
   xmlns:svg="http://www.w3.org/2000/svg"
   xmlns="http://www.w3.org/2000/svg"
   xmlns:sodipodi="http://sodipodi.sourceforge.net/DTD/sodipodi-0.dtd"
   xmlns:inkscape="http://www.inkscape.org/namespaces/inkscape"
   version="1.1"
   id="SvgMunicipio"
   x="0px"
   y="0px"
   width="817.719px"
   height="1000.017px"
   viewBox="64.084 117.9 817.719 1000.017"
   enable-background="new 64.084 117.9 817.719 1000.017"
   xml:space="preserve"
   inkscape:version="0.91 r13725"
   sodipodi:docname="MUN_ID0103.svg"><metadata
     id="metadata10"><rdf:RDF><cc:Work
         rdf:about=""><dc:format>image/svg+xml</dc:format><dc:type
           rdf:resource="http://purl.org/dc/dcmitype/StillImage" /></cc:Work></rdf:RDF></metadata><defs
     id="defs8" /><sodipodi:namedview
     pagecolor="#ffffff"
     bordercolor="#666666"
     borderopacity="1"
     objecttolerance="10"
     gridtolerance="10"
     guidetolerance="10"
     inkscape:pageopacity="0"
     inkscape:pageshadow="2"
     inkscape:window-width="1366"
     inkscape:window-height="705"
     id="namedview6"
     showgrid="false"
     inkscape:zoom="0.23599598"
     inkscape:cx="408.8595"
     inkscape:cy="669.50293"
     inkscape:window-x="-8"
     inkscape:window-y="-8"
     inkscape:window-maximized="1"
     inkscape:current-layer="svg" /><g
     id="g3"><path
       id="MUN_0103"
       d="m 726.065,121.152 0.451,0.723 1.626,-0.271 0.181,0 -0.181,0.452 -0.181,0.813 -0.181,0.723 0,0.813 0.091,0.813 0,0.903 0,0.723 -0.271,0.813 -0.542,0.903 -0.723,1.084 -0.542,1.084 -0.09,1.265 0,0.813 1.354,1.536 0.361,0.632 0.633,0.361 0.361,0 0.181,0.09 0.903,0 1.084,0 1.354,0.542 0.452,0 0.723,0 0.993,-0.181 1.627,-0.181 1.535,0.361 0.994,0 1.084,0 0.903,0 0.903,-0.09 1.174,-0.09 4.879,0 1.807,0.09 0.903,0 0.813,-0.09 0.994,-0.361 0.632,-0.271 0.813,-0.452 0.903,-0.361 0.993,-0.09 1.084,0 0.813,0.271 0.903,0.452 1.084,0.542 1.265,0.452 1.175,0.271 1.084,0.361 1.265,0.452 0.903,0.632 0.813,0.723 0.994,0.632 1.174,0.542 1.355,0.542 1.175,0.452 0.903,0.271 0.723,0.632 0.993,0.361 0.994,0.181 1.084,0 0.903,-0.361 0.632,-0.542 0.903,-0.813 0.903,-0.361 0.813,0.181 0.451,0.271 -1.896,2.349 -0.903,1.174 -0.452,1.988 -0.723,3.071 -1.174,4.968 0,0.723 -0.091,0.271 -0.451,1.446 -1.084,1.807 -1.807,1.265 -3.072,1.987 -0.451,1.445 -0.813,1.716 0,3.162 0.091,6.143 0,0.452 -0.361,2.891 -0.994,4.427 0.271,2.078 2.168,2.71 0.451,0.542 3.976,4.336 1.626,2.349 0.813,3.162 1.084,5.33 0.813,4.336 1.445,8.582 0.723,3.433 0.903,4.788 0.993,3.523 0.724,2.078 0.541,0.994 0.723,1.084 1.446,1.807 2.71,1.987 2.98,2.439 3.162,2.168 2.71,1.807 1.807,1.626 1.355,1.897 0.903,2.078 0.451,1.355 0,2.53 0.181,4.517 0.633,7.679 0.271,3.613 -0.723,4.697 -0.542,2.891 0.091,1.175 0.09,0.452 0.271,1.807 0.271,0.632 -0.181,0 -0.181,0 -0.181,0.09 -1.896,-0.09 -0.994,0 -2.077,0 -1.808,0.271 -1.716,0.271 -1.717,0.271 -0.632,0.181 -1.445,0.361 -0.994,0.361 -0.451,0.181 -0.271,0.09 -0.813,0.361 -0.633,0.271 -1.445,0.723 -0.813,0.452 -0.904,0.452 -1.265,0.994 -0.181,0.09 -0.632,0.361 -0.813,0.723 -0.813,0.632 -0.633,0.633 -0.903,0.903 -0.903,0.813 -0.451,0.542 -0.633,0.452 -0.723,0.813 -0.542,0.452 -0.542,0.632 -0.813,0.723 -0.633,0.632 -0.813,0.723 -1.627,1.445 -0.723,0.632 -0.723,0.452 -0.632,0.361 -0.813,0.361 -0.903,0.361 -1.084,0.271 -0.632,0.09 -0.903,0.09 -0.723,0 -1.265,0 -1.627,-0.09 -0.361,0 -1.896,0.181 -2.168,0.542 -0.542,0.09 0.09,0.181 -1.445,0.904 -0.723,0.542 -0.903,0.813 -0.451,0.542 -0.633,0.723 -0.632,0.813 -0.633,0.723 -0.723,0.723 -0.723,0.452 -0.542,0.361 -0.451,0.271 -0.452,0.361 -0.903,0.361 -0.633,0.271 -0.813,0.181 -0.813,0.271 -1.265,0.181 -1.535,0.361 -0.903,0.181 -0.903,0.271 -1.987,0.452 -2.259,0.542 -2.168,0.452 -1.807,0.452 -1.175,0.181 0,0.09 -1.174,0.271 -1.175,0.271 -0.993,0.181 -0.091,0 -0.451,0 0.09,0.542 0.091,0.542 -24.571,5.691 -2.62,0.452 -2.349,0.632 -2.439,0.723 -2.168,0.813 -4.246,2.078 -2.077,1.265 -4.427,3.433 -6.685,5.42 -8.311,6.595 -4.969,3.884 -10.479,8.401 -14.995,11.924 -3.885,3.162 -1.716,1.445 1.265,0.542 1.265,0.181 1.716,0.632 1.987,1.084 1.084,1.084 0.994,1.536 0.813,1.355 0.633,1.445 0.361,0.542 0.542,0.813 1.084,0.813 1.265,0.813 1.445,0.903 0.994,1.084 0.451,0.542 0.542,0.542 0.994,0.813 1.265,0.632 1.535,0 1.265,0.181 1.355,0.452 1.536,0.452 1.896,0.813 1.626,0.723 1.265,0.542 1.175,0.361 2.438,0.361 0.091,0 2.259,0.271 1.354,0 1.807,0.181 1.717,0.723 1.535,0.271 1.626,0.452 1.717,0.361 1.717,0.452 1.807,0.632 1.445,0.632 1.535,0.813 1.445,0.903 1.807,1.626 1.355,1.084 1.445,1.084 1.626,1.174 1.355,1.355 1.084,1.536 0.813,1.445 1.084,1.174 1.265,0.813 1.175,0.632 0.271,0.181 1.265,0.633 0.452,0.181 1.626,0.813 1.626,0.994 5.149,2.619 1.987,0.542 1.626,0.723 2.259,0.904 1.896,0.542 1.897,0.903 1.896,0.993 2.259,0.903 2.168,1.175 1.807,0.993 2.078,1.355 3.071,1.535 1.716,0.813 0.903,0.542 1.445,0.993 0.633,0.452 1.445,1.084 0.903,1.175 0.271,0.451 0.361,0.542 0.542,1.084 0.451,0.271 2.349,0.813 2.259,0.813 1.265,0.542 0.181,0 1.354,0.632 0.271,0.091 0.813,0.361 0.452,0.181 2.349,0.903 0.181,0.09 1.355,0.723 0.09,0 0.903,0.452 0.271,0.09 2.98,1.084 0,0 0.813,0.452 0.09,0 1.084,0.452 0,0 1.897,0.632 0.09,0 1.627,0.633 0.09,0 0.903,0.542 0.091,0 0.361,0.993 0,0.091 0.271,0.903 0.091,0.181 0.271,2.077 0,0.361 0,0.361 0,0.091 0,1.716 0,0.452 0,1.265 0.091,0.361 0,0.451 0,0.182 1.265,0.813 0.542,0.361 0,0 0,0 0.723,0.271 0.361,0.09 0.542,0.271 0.361,0.09 0.271,0.091 0.091,0 0.361,0 0.361,0.09 0.361,0 0.181,0.091 0.993,-0.091 0.903,-0.09 0.723,0 0.994,0.09 0.451,0 0.724,0 0.271,0 0.361,0.091 0.361,0.09 0.452,0.271 0.542,0 0.813,0.181 0.542,0 1.084,-0.091 0.361,0.091 0.723,0.09 0.181,-0.09 0.542,-0.091 0.542,0.271 1.987,0.542 0.271,0.09 0.993,0.271 0.361,0.09 1.175,0.361 0.091,0.091 0.723,0.361 0.09,0.181 0.452,0.723 0,0.181 0.181,0.903 0,0.09 0.361,0.994 0,0 0.451,0.903 0,0 0.181,0.181 0,0 0.633,0.632 0,0 0.09,0 0,0 0.542,0.633 0.091,0.09 0.361,0.452 0,0.542 0,0.813 -0.091,3.253 0,4.787 -0.181,2.801 -0.09,0.903 -0.271,2.349 -0.181,4.246 0,4.064 0.452,0 2.529,-0.09 8.491,-0.361 0.903,-0.091 1.626,-0.09 0,0.813 0,0.091 0.271,0.813 0,0.18 0.181,0.994 0.09,0.633 0,0.09 0,0.361 0.181,0.723 0,0.361 0.091,0.633 0,0.09 0,0.361 0.09,0.542 0,0.181 0.091,0.361 0.09,0.542 0,0.181 0.181,0.633 0,0.361 0,0.09 0.091,0.361 0.09,0.723 0.091,0.452 0.09,0.632 0,0.361 0.181,1.084 0,0 1.175,0.091 0.451,0.181 0,0.271 0,0.09 0,0.542 0,0.181 0,0.181 -0.09,0.271 0,0 0,0.181 0,0.542 0,0.09 0,0.452 0,0.181 0,0.361 1.897,-0.181 4.336,-0.542 1.626,5.962 -0.091,0.09 -0.181,0.091 -0.451,7.227 -0.091,1.536 0,2.349 0.091,0 -0.091,1.174 0.091,0.723 0,0.723 -0.271,2.892 0,1.445 -0.09,0.993 -0.181,1.084 -0.181,1.355 0,1.174 0.09,1.355 0.452,2.077 0.271,1.627 0.361,1.084 0.271,1.265 0.09,0.361 0.181,1.445 0.091,0.813 0.09,0.723 -0.181,1.717 -0.181,1.626 -0.09,0.632 0,0.271 -0.091,0.723 -0.09,1.175 0,0.451 0.993,0.723 0,0.361 0.542,3.433 0,0.452 0.091,0.451 2.077,-0.09 2.62,0 2.529,-0.091 0.361,0 0.361,3.162 0.542,4.427 0.181,0.993 0.181,0 6.595,0.181 0.091,0.452 0.271,0 1.445,0.09 1.175,0 1.445,0.091 1.354,0.09 0.723,0 1.536,0.091 1.174,0.09 0.452,0 0.361,0 0.632,0.091 -0.09,0.542 -0.091,0.361 -0.09,0.813 -0.091,0.271 -0.361,0.993 0,0.994 -0.451,0.813 -0.181,0.723 -0.361,0.903 -0.091,0.271 0.091,0.723 0,0.271 0.09,0.271 0.542,0.091 0.271,0 0.09,0.09 0.091,0.181 0.09,0.271 0,0.181 0,0.903 0.181,0.181 0,0.181 0,0.361 -0.09,0.542 -0.091,0.181 -0.813,0.181 0,0.09 1.354,0 0.091,0 1.716,0.181 0.724,0 0.723,0 0.903,-0.09 0.813,-0.091 0.994,0.181 1.445,0.542 1.535,0.452 0.542,0 0.542,0.09 0.542,0.091 0.542,0.181 0.181,0 0.091,0 0.181,0 0.09,-0.813 0.903,0.091 0.271,0 0.451,0 0.633,0 0.542,0.09 1.175,0 1.626,0.181 0.723,0.091 1.987,0.181 4.064,0.361 0.813,0 1.175,0 0.813,-0.271 0.452,-0.09 0.813,-0.361 1.265,-0.361 1.445,-0.542 1.626,-0.542 0.361,-0.091 1.445,-0.361 1.626,-0.542 0.813,-0.361 1.897,-0.361 0,0 0.09,0.271 0.271,1.626 0,0.361 0.181,2.349 0.09,0.09 0.271,0.903 0,0.091 1.445,2.258 0,0 1.084,1.445 0,0.091 0.451,0.542 0.091,0.09 0.09,2.078 0,0.361 -0.542,1.445 -0.09,0.361 -0.271,1.084 0,0.361 -0.09,0.091 0,0.09 0.181,0.723 0,0.361 0,1.084 0,0.633 -0.181,1.084 -0.181,0.813 -0.091,0.542 0,0.271 -0.271,0.994 -0.361,0.813 -0.181,0.361 -0.181,0.542 -0.181,0.452 -0.181,0.723 0,0.181 0,0.271 -0.091,0.542 -0.09,1.084 -0.181,0.542 -0.271,1.175 -0.09,0.271 -0.091,0.813 -0.09,0.181 -0.181,0.723 0,0.09 -0.091,0.452 -0.181,0.271 -0.994,1.987 0,0 -0.361,0.633 0,0 -0.632,1.445 0,0 -0.542,1.355 -0.091,0.09 -0.813,0.994 0,0.09 -1.084,1.175 -0.181,0.181 -0.633,1.084 -0.181,0.181 -0.451,0.542 -0.181,0.181 -0.542,1.445 -0.181,0.451 -0.181,0.633 -0.091,0.361 -0.271,1.717 -0.271,0.993 -0.361,1.265 -0.181,0.813 -0.181,0.542 0,0.451 -0.271,1.536 -0.181,1.445 0,0.451 0,0.452 0,0.09 0,0 -0.271,0.903 -0.271,1.175 -0.271,0.632 -0.361,1.085 0,0.271 -0.181,0.723 -0.09,0.361 -0.181,1.084 0,0.091 0,0.451 0,0.271 -0.091,1.445 0,0.361 0,2.891 0.091,0.271 0.271,2.529 0,0.091 0.181,1.265 0,0.452 -2.258,0.09 -0.452,0.361 0,0.181 -0.542,1.355 -0.451,1.354 -0.543,1.445 -0.451,1.355 0.09,0 -1.354,7.588 -0.091,6.775 0.452,2.439 1.174,1.354 0.091,7.859 1.626,7.949 1.626,7.859 0,9.576 -2.349,-0.182 -3.613,-0.181 -0.452,0 -0.813,-0.09 -1.175,-0.091 -0.451,0 -0.361,0 -1.265,-0.09 -0.361,0 -6.866,-0.452 -2.98,-0.09 -9.576,-0.723 -0.723,-0.091 -1.084,0 -0.271,-0.09 -0.813,0 -1.265,0 -1.174,-0.091 -4.156,-0.09 -3.252,-0.181 -1.716,0 -0.542,-0.091 -0.091,0 -0.181,2.892 0,0.542 0,1.626 0.091,1.174 0,1.445 0.181,1.445 0.181,1.355 0.271,1.084 0.361,1.174 0.452,1.265 0.271,0.543 0.271,0.632 0.361,1.175 -1.897,0.451 -1.896,0.361 -2.349,0.181 -1.897,0.091 -2.801,0.09 -1.445,0.091 -0.993,0.271 -0.723,0.271 -1.265,0.542 -1.536,1.084 -1.445,0.723 -0.903,0.361 -0.542,0.181 -1.175,0.271 -1.987,0.452 -0.903,0.361 -1.445,0.451 -0.813,0.452 -0.542,0.542 -0.361,0.813 0.181,3.795 0.09,1.807 0.091,2.168 -0.181,0.993 -0.271,1.536 -0.361,2.077 -1.174,4.337 -0.813,2.891 -0.994,3.522 -0.723,2.53 -0.361,1.896 -0.181,0.813 -0.361,1.354 -0.271,0.903 -0.633,1.807 -0.09,0.542 -0.542,3.071 -0.181,2.259 -0.452,2.801 -0.361,2.349 -0.542,3.794 -0.451,2.801 -0.542,3.522 -0.452,3.433 -0.723,4.698 -0.542,3.433 -0.451,3.975 -0.091,0.723 -1.174,1.265 -1.445,1.535 -2.439,2.259 -2.529,2.078 -1.987,1.807 -1.987,1.807 -0.994,0.813 -2.168,2.168 -2.529,2.169 -0.452,0.451 -0.451,0.542 -0.903,1.265 -0.452,0.542 -0.271,0.361 -0.271,1.084 0,1.445 -0.361,0.813 -0.451,0.181 -0.903,0.361 -0.903,0.361 -0.271,0.181 -0.542,0.542 -1.716,1.896 -1.717,1.897 -1.084,1.084 -0.723,0.813 -0.452,1.084 -1.084,1.626 -0.903,0.993 -1.265,1.265 -1.626,2.078 -1.174,2.529 -0.452,0.542 -0.542,0.813 -1.084,1.716 -1.084,2.62 -0.271,0.813 -0.18,0.633 -0.091,1.084 -0.091,1.987 -0.09,0.813 -0.271,1.807 -0.451,2.258 0,0.633 -0.181,2.438 -0.091,0.723 -0.542,2.71 0,0.903 -0.09,2.62 -0.091,2.168 0.181,1.807 0.181,0.813 1.175,2.619 1.175,3.072 0.361,0.813 0.813,2.168 0.181,0.633 0,0.813 -0.09,0.633 -0.181,1.807 0.09,2.349 0.091,1.084 0.451,2.078 0.271,1.084 0.632,2.258 0.091,0.994 4.336,3.252 2.438,1.807 1.536,0.723 2.078,0.181 4.426,-0.452 3.071,-0.181 2.35,0.091 1.626,0.181 0.903,0.361 0.361,0.452 0.542,0.723 0.09,1.354 -0.181,1.987 0.271,2.529 0.271,1.807 -0.181,1.807 -0.542,2.259 -0.181,1.536 0.091,1.807 0.451,2.529 -0.09,0.903 -0.181,1.174 -0.542,0.813 -1.265,1.987 -0.091,1.626 -0.271,2.439 0.181,3.342 0.09,1.175 1.084,3.523 1.084,3.794 0.633,3.071 -0.452,2.258 -0.542,1.897 0,0.542 0.723,4.336 0.723,4.155 0.723,2.439 0.361,1.445 0.633,0.994 0.903,0.903 0.903,0.361 1.896,-0.181 2.801,-0.181 1.084,0.181 0.633,0.09 0.361,0.452 0,2.529 0.271,2.529 0.633,4.246 0.451,2.077 -0.361,-0.09 -12.918,-1.084 -1.626,-0.271 -2.077,-0.813 -1.085,-0.181 -1.445,-0.091 -1.174,0 -1.536,0.091 -1.354,2.258 0.361,2.891 0.09,1.175 -0.09,1.896 -1.084,5.33 -1.265,5.33 -1.084,3.975 -0.904,3.523 -3.433,20.777 -3.433,8.581 -1.174,3.253 -1.355,2.891 -3.975,8.039 -6.595,13.28 -7.859,14.814 -1.174,4.155 0.271,3.795 1.536,7.316 -4.697,0.633 -5.963,0.723 -6.052,0.632 -1.717,0 -1.535,0.091 -1.536,0 -2.529,0.271 -2.439,0.452 -2.529,-0.994 -0.903,-0.09 -6.775,3.162 -4.426,2.168 -7.047,-3.795 -7.227,-3.703 -4.788,-3.071 -1.896,3.071 -1.987,3.071 -1.536,2.71 -1.626,2.71 -2.71,4.697 -2.801,4.607 -5.69,-1.084 -5.691,-1.084 -3.613,-0.813 -3.523,-0.723 -5.511,-0.993 -5.69,-1.084 -3.253,-0.633 -0.813,-0.09 -0.361,0 0,0.09 -0.271,2.259 -0.542,3.252 -0.361,0.813 -1.084,0.361 -1.445,0.903 -0.813,0.723 0.451,0.542 0.633,0.993 0.361,0.903 -0.452,2.439 0.091,0.813 0.09,0.813 -0.451,0.903 -0.452,0.903 -0.271,0.903 -0.091,0.452 -0.09,0.181 -0.091,0.361 -0.993,-0.181 -1.445,-0.091 -0.994,0 -1.084,0 -1.445,0 -1.445,-0.09 -0.813,0 -0.723,0 -2.529,0 -2.619,0.09 -2.35,-0.181 -2.438,-0.09 -2.981,0 -2.891,0.09 -7.407,-0.271 -7.498,-0.271 -3.433,0 -3.523,0 -5.872,0.091 -0.542,0.723 -0.451,0.632 -0.633,0.542 -0.451,0.452 -6.775,2.349 -6.595,2.349 -5.601,-0.091 -5.601,-0.09 -5.511,-0.091 -5.149,-1.535 -5.239,-1.536 -78.23,17.796 -1.084,-24.391 -0.091,0 0,-0.632 0,-0.271 0.091,-0.271 0,-2.891 0,-6.956 0,-0.181 0.09,-1.265 0,-0.181 0,-0.181 0,-0.091 0.091,-0.993 0.181,-0.813 0.181,-0.542 0.271,-1.084 0.091,-0.181 0.361,-1.084 0,-0.09 0.361,-1.175 0.181,-0.271 0.09,-0.813 0.091,-0.723 0,-0.451 0,-0.904 0,-0.181 -0.181,-1.265 0,-0.181 -0.361,-1.174 -0.181,-0.361 -0.181,-0.813 -0.181,-0.723 -0.091,-0.542 -0.181,-0.993 0,-0.181 0,-0.723 0,0 0,-1.084 0,-0.271 0,-0.723 0,-0.451 0.091,-0.452 0.09,-0.994 0.091,-0.181 0.271,-0.903 0,0 0.542,-0.903 0.181,-0.361 0.633,-0.903 0.451,-0.723 0.181,-0.361 0.271,-0.451 0,-0.361 -0.091,-1.626 0,0 0,-2.349 0.091,-0.633 0.09,-1.354 0.091,-0.904 0.09,-0.542 0.181,-0.813 0,-0.271 -0.09,-1.354 0,0 -0.181,-0.903 0,-0.181 -0.361,-0.633 -0.271,-0.451 -0.09,-0.091 -0.091,-0.181 -0.09,-0.09 -0.271,-0.361 0,0 -0.181,-0.361 -0.09,-0.091 -0.361,-0.451 -0.181,-0.271 -0.181,-0.181 -0.271,-0.271 -0.09,0 -0.181,-0.271 0,-0.09 -0.361,-0.633 -0.091,-0.181 -0.271,-0.361 -0.091,-0.271 -0.181,-0.361 -0.09,-0.452 -0.181,-0.181 -0.361,-0.542 0,0 -0.271,-0.451 0,-0.091 -0.361,-0.452 0,-0.271 -0.271,-0.271 -0.181,-0.361 -0.181,-0.181 -0.452,-0.271 -0.09,-0.091 -0.452,-0.542 -0.09,-0.09 -0.452,-0.542 -0.181,-0.271 -0.181,-0.09 0,-0.181 -0.09,-0.091 -0.271,-0.181 0,-0.09 -0.542,-0.542 0,-0.091 -0.361,-0.542 -0.181,-0.181 -0.181,-0.361 -0.181,-0.361 -0.09,-0.181 -0.181,-0.632 0,-0.091 -0.271,-0.542 -0.091,0 -0.271,-0.632 -0.091,-0.181 -0.181,-0.271 -0.09,-0.271 -0.091,-0.271 -0.181,-0.361 0,-0.181 0,-0.632 0,-0.091 0,-0.09 0,-0.091 0,-0.271 0,-0.181 0,-0.361 0,-0.633 0,-0.181 0.361,-0.903 0,-0.091 0.633,-0.723 0.181,-0.181 0.361,-0.361 0.361,-0.271 0.091,-0.181 0.181,-0.361 0.09,-0.091 0.091,-0.632 0,0 0.09,-0.542 0,-0.181 -0.181,-0.271 -0.09,-0.271 0,-0.271 -0.181,-0.361 -0.091,-0.181 -0.451,-0.632 0,-0.091 -0.271,-0.361 -0.09,-0.181 -0.182,-0.361 0,-0.271 -0.18,-0.271 -0.182,-0.361 -0.09,-0.09 -0.361,-0.452 0,0 -0.271,-0.361 0,-0.09 -0.09,-0.361 -0.091,-0.361 0,-0.361 -0.09,-0.633 0,-0.181 0,-0.452 0,0 0,-0.451 0,-0.091 0,-0.542 0,-0.361 0,-0.271 -0.091,-0.452 0,-0.181 -0.181,-0.542 0,0 -0.271,-0.451 0,-0.181 -0.361,-0.361 -0.181,-0.181 -0.091,-0.271 -0.361,-0.361 -0.09,-0.09 -0.452,-0.452 0,-0.09 -0.271,-0.361 -0.091,-0.091 -0.271,-0.451 -0.181,-0.271 -0.091,-0.361 -0.181,-0.451 0,-0.181 -0.09,-0.723 0,0 -0.091,-0.723 0,-0.091 -0.271,-0.451 0,-0.271 -0.091,-0.271 -0.181,-0.361 0,-0.091 0,-0.542 -0.09,-0.09 -0.091,-0.724 0,-0.09 -0.181,-0.542 -0.09,-0.181 -0.091,-0.361 -0.181,-0.361 -0.09,-0.271 -0.181,-0.542 0,-0.09 -0.271,-0.633 0,-0.09 -0.181,-0.361 -0.09,-0.181 -0.091,-0.452 -0.09,-0.451 0,-0.271 -0.091,-0.542 0.091,-0.09 0,-0.633 0.09,0 0.181,-0.542 0.091,-0.181 0.181,-0.361 0.181,-0.271 0,0 0.09,-0.181 0,-0.091 0.181,-0.271 0,-0.091 0.181,-0.451 0.091,-0.181 0.181,-0.452 0.09,-0.271 0,-0.181 0,-0.361 0,-0.091 0.181,-0.542 0,0 0.181,-0.361 0.091,-0.181 0.181,-0.271 0.181,-0.181 0.181,-0.271 0.271,-0.542 0,-0.091 0.181,-0.451 0,0 0,-0.633 0.091,-0.181 0,-0.271 0,-0.271 0,-0.271 -0.091,-0.452 0,-0.181 -0.181,-0.542 0,-0.09 -0.181,-0.452 0,-0.181 -0.181,-0.361 -0.09,-0.271 0,-0.271 -0.091,-0.361 0.091,-0.181 0.09,-0.723 0,0 0.181,-0.542 0,-0.09 0.091,-0.452 0,-0.271 0.09,-0.452 0,-0.813 0,-0.091 0,-0.451 0,0 0.271,-0.361 0.09,-0.091 0,-0.993 -0.09,-0.633 0.09,-0.723 0,-0.813 0.091,-0.181 0.271,-0.632 0,0 -0.09,-0.813 -0.091,-0.271 -0.181,-0.723 -0.181,-0.452 -0.181,-0.181 -0.271,-0.271 0,-0.181 0.181,-0.633 0.09,-0.09 1.175,-1.355 0.271,-0.181 0.723,-0.813 0.452,-0.361 0.181,-0.633 0.181,-0.723 0.09,-0.181 0.361,-0.542 0,-0.09 0.271,-1.085 0.09,-0.181 0,-1.535 0,-0.723 0,-0.903 -0.09,-0.542 0,-0.271 -0.091,-0.993 0,-0.452 0,-0.361 0,-0.723 0,-0.451 0,-0.361 0.091,-0.903 0,-0.361 0,-0.361 0,-1.084 0,-0.361 0.09,-0.361 -0.09,-1.897 0,-0.633 0,-0.903 -0.091,-0.813 -0.09,-0.361 -0.091,-0.542 -0.181,-0.813 -0.09,-0.181 -0.181,-0.451 -0.271,-0.542 -0.09,-0.181 -0.271,-0.271 -0.542,-0.361 -0.09,-0.181 -0.181,-0.451 -0.271,-0.633 -0.09,-0.181 -0.271,-0.542 -0.361,-0.542 -0.09,-0.09 -0.271,-0.271 -0.542,-0.361 -0.181,0 -0.632,-0.09 -0.361,0 -0.181,0 -0.271,0 0,0 -15.176,-47.517 0.361,-0.361 -1.717,-2.078 -0.994,-1.536 -0.361,-0.813 -0.632,-3.523 0,-0.181 0,-0.09 0.09,-1.626 0,-0.633 -0.181,-1.626 0,-0.181 -1.716,-4.788 -0.091,-0.09 -0.451,-1.355 -0.181,-0.271 -0.542,-1.265 -0.271,-0.813 -0.542,-1.354 -0.723,-1.084 -0.632,-1.085 -0.542,-1.084 -0.271,-0.451 -0.903,-1.355 -0.271,-0.271 -0.361,-1.445 0,-0.091 -0.633,-0.903 0,-0.09 0.181,-0.723 0.091,-0.271 0.271,-0.723 0.181,-0.361 0.542,-0.542 0.271,-0.271 0.271,-0.271 0.091,-0.542 0,-0.271 -1.355,-1.265 -0.271,-0.271 -0.633,-0.994 0,0 0.271,-1.265 -0.091,-0.181 -0.451,-1.174 -0.091,-0.633 -0.09,-1.535 -0.091,-0.361 -0.181,-0.452 -0.271,-0.813 -0.271,-0.452 -0.181,-0.542 0,-0.181 0,-0.813 0,-0.091 -0.181,-0.723 0,0 -0.451,-0.542 0,0 -0.182,-0.451 -0.09,-0.271 -0.181,-0.542 -0.181,-0.091 -0.091,-0.181 -0.632,-0.632 -0.271,-0.361 -0.271,-0.903 -0.091,-0.091 -0.09,-1.445 0,-0.09 -0.994,-1.717 0,0 0,-1.084 0,-0.09 0.181,-0.903 0,-0.361 0,-0.723 -0.09,-0.181 -0.091,-0.271 -0.181,-0.181 -0.181,-0.09 -0.993,-0.633 -0.271,-0.09 -0.903,-0.633 0,-0.09 0,-1.988 0,-0.271 0.091,-1.717 -0.091,-0.271 -0.542,-0.633 -0.632,-0.271 -0.633,-0.361 -1.084,0.09 -0.813,0 -1.084,-0.813 -0.361,-0.361 -1.266,-1.175 0.904,-0.271 0.271,-0.542 0.361,-0.091 10.298,-2.529 5.602,-1.536 0.09,0.182 0.633,-0.182 4.878,-1.354 2.891,-1.897 7.407,-6.052 1.265,-0.181 0,-0.091 0.361,-0.271 0,-1.445 -0.271,-1.085 -0.994,-1.174 -1.354,0.09 -0.903,-2.71 10.569,-1.987 0.451,-0.09 1.175,7.769 0.723,-0.09 12.918,-1.808 10.84,-1.626 0.181,-4.064 -0.181,-6.505 -0.181,-4.697 -0.09,-2.168 2.077,-0.542 6.956,-2.8 0.361,-0.542 4.878,-5.421 0,0 -1.174,-0.903 -1.265,-0.632 -1.084,-0.452 -0.903,-0.542 -1.175,-1.174 -0.632,-1.084 -0.181,-0.452 -0.091,-1.174 0,-1.085 -0.271,-1.084 -0.723,-0.723 -1.084,-0.723 -0.903,-0.632 -0.542,-0.723 -0.452,-0.813 -0.723,-0.993 -0.994,-0.452 -0.993,-0.181 -0.994,-0.361 -0.723,-0.542 0,-0.09 -0.451,-0.723 0,-0.903 -0.542,-0.994 -0.633,-0.813 -0.451,-0.813 0,-0.903 0,-1.084 0,-1.084 -0.271,-1.084 -0.903,-0.542 -0.993,-0.361 -0.723,-0.271 -0.091,-0.09 -0.181,-0.903 0,-2.349 0,-0.813 -0.542,-0.813 -0.813,-0.633 -0.813,-0.903 -0.271,-0.903 0,-0.813 0.181,-0.903 0.271,-0.813 0,-0.994 -0.09,-0.813 -0.271,-0.633 -0.813,-0.632 -0.723,-0.633 -0.09,-0.09 -0.542,-0.452 -0.452,-0.632 -0.09,-0.994 0,-1.807 0,-0.994 -0.633,-0.903 -0.632,-0.723 -0.723,-0.632 -0.361,-0.723 -0.181,-0.813 -0.271,-0.903 0,-0.993 -0.361,-0.994 -0.542,-0.723 -0.903,-0.632 -0.903,-0.452 -1.084,-0.361 -1.084,-0.813 -0.181,-1.808 0.091,-1.896 0,-1.807 0,-1.175 -0.181,-1.265 -0.361,-1.354 -0.633,-1.536 -0.542,-1.174 -0.542,-0.994 0,-0.903 0.542,-0.633 0.813,-0.723 0.361,-0.723 0,-0.632 0,-0.271 -0.181,-0.903 -0.091,-0.993 0.181,-0.903 0.271,-1.084 0.361,-1.084 0.271,-1.175 -0.271,-0.813 -0.271,-0.452 -0.451,-0.723 -0.633,-1.355 -0.632,-1.084 -0.724,-0.813 -0.361,-0.813 -0.181,-0.813 0,-0.994 0.452,-0.813 0.723,-0.633 0.361,-0.723 0,-0.723 -0.542,-0.632 -0.813,-0.813 -0.542,-0.813 0,-0.813 0.181,-0.903 0.181,-1.084 0,-0.891 -0.361,-1.084 0,-0.994 0.633,-0.903 -0.723,-0.451 -0.903,-0.903 -0.903,-0.903 -0.452,-0.542 -0.451,-0.633 -0.633,-1.265 -0.361,-1.355 -0.632,-1.354 -1.265,-2.529 -0.723,-1.084 -0.903,-1.445 -0.813,-1.445 -0.723,-0.994 -0.271,-0.361 -0.542,-0.993 -0.181,-1.355 -0.091,-1.265 -0.091,-0.181 0,-0.813 -0.451,-1.445 -0.813,-1.265 -0.632,-1.354 0,0 -0.361,-1.536 -0.813,-1.265 -1.174,-1.716 -1.084,-1.536 -1.355,-1.536 -1.354,-0.903 -1.355,-0.542 -0.993,0 -0.903,-0.271 -1.175,-0.994 -2.259,-1.987 -2.258,-2.438 -1.084,-2.801 -1.084,-2.71 -0.542,-1.355 -0.361,-1.084 -0.452,-1.265 -0.361,-0.903 -0.361,-0.993 0,-0.903 0.091,-2.349 0.09,-1.627 0,-1.265 0.091,-1.265 -0.361,-1.084 -0.452,-0.813 -0.813,-0.633 -0.813,-0.361 -0.723,-0.271 -0.903,-0.361 -0.633,-0.542 -0.181,-0.723 0.091,-0.994 0.181,-0.723 0.181,-1.084 0,-0.994 -0.271,-0.993 -0.903,-0.723 -1.174,-0.813 -0.813,-0.451 -0.903,-0.361 -0.903,-0.361 -0.903,-0.452 -0.632,-0.361 -0.452,-0.542 -0.542,-0.723 -0.813,-0.542 -0.994,-0.271 -0.903,-0.271 -0.723,-0.542 -0.271,-0.813 0,-0.091 0.091,-1.716 -0.994,-1.717 -0.632,-1.175 -0.723,-0.903 -0.633,-1.084 0,-0.451 0,-0.903 -0.361,-0.903 0,0 -0.632,-0.452 -0.633,-0.542 0,-0.813 0.271,-0.903 0.542,-1.084 0.361,-1.175 -0.091,-0.994 -0.361,-0.632 -0.181,-0.091 -0.451,-0.451 0.181,-0.903 0.451,-0.813 0.633,-1.174 0.361,-1.987 -0.091,-1.084 0.181,-0.542 0.542,-0.271 0.633,-0.361 0.09,-0.632 -0.181,-0.813 -0.451,-0.361 -0.542,-0.451 -0.181,-0.724 0.09,-0.813 0.633,-1.175 0.632,-0.903 0.633,-0.632 0.723,-0.813 0.271,-0.723 0,-1.084 0.181,-0.813 0,-0.091 0.543,-0.723 0.361,-0.723 -0.182,-1.084 -0.18,-0.993 -0.362,-0.903 -0.361,-1.085 -0.451,-1.265 -0.903,-1.084 -0.994,-1.174 -0.813,-1.084 -0.091,-0.994 -0.09,-1.807 0.09,-1.987 0,-1.626 0,-0.723 -0.181,-0.361 0,-0.361 -0.451,-1.626 -0.271,-0.994 0.091,-1.265 0.09,-2.168 -0.361,-2.349 -0.271,-1.174 -0.181,-0.994 -0.091,-0.271 0.091,-0.181 0.09,-0.271 0.181,-0.723 0.452,-1.355 0.723,-0.903 0.813,-1.445 0.723,-1.265 0.271,-0.903 0.09,-0.361 0.091,-0.723 -0.452,-3.252 -0.09,-1.355 -0.091,-8.039 -0.181,-1.084 -0.361,-0.903 -0.451,-0.813 -0.633,-0.633 -0.723,-0.632 -0.723,-0.542 -0.542,-0.723 -0.542,-0.723 -0.271,-0.723 -0.542,-0.903 -0.361,-0.633 -0.091,-0.271 -0.181,-0.361 -0.181,-0.361 -0.542,-0.723 0,-0.091 -0.451,-0.903 -0.091,-0.361 -0.181,-0.451 -0.361,-0.813 -0.181,-0.813 -0.181,-0.904 0,-0.451 0,-0.181 -0.09,-0.271 0,-0.632 -0.091,-0.542 0,-0.813 -0.09,-0.813 -0.271,-0.723 -0.451,-0.361 -0.271,-0.271 -0.542,-0.632 -0.633,-0.542 -0.632,-0.542 -0.723,-0.542 -0.723,-0.633 -0.091,-0.09 -0.723,-0.633 -0.632,-0.632 -0.633,-0.723 -0.451,-0.723 0,-0.994 0.09,-1.175 0.091,-0.903 0.09,-1.084 0.091,-1.716 0.09,-0.271 0.181,-1.084 0.271,-0.632 0.632,-0.994 0.091,0 0.993,-0.542 1.265,-0.542 0,0 0,-0.361 0.091,-0.451 0,-0.361 0.09,-0.181 -0.09,-0.271 -0.091,-0.361 -0.09,-0.181 -0.083,-0.186 -0.181,-0.271 -0.181,-0.18 -0.181,-0.182 -0.542,0.361 -0.09,-0.09 -0.994,-0.361 -0.993,-0.09 -2.078,0 -0.903,-0.091 -0.903,-0.542 -0.813,-0.903 -0.723,-0.813 -0.903,-0.723 -1.085,-0.723 -1.265,-0.542 -1.265,-0.271 -0.993,-0.091 -1.265,-0.09 -1.175,0 -1.445,-0.181 0,0 -1.626,-0.091 -2.62,0.091 -1.174,0 -2.529,0 -1.084,0 -0.903,-0.091 -1.084,-0.271 -1.084,-0.452 -0.813,-0.361 -0.813,-0.542 -0.903,-0.632 -0.542,-0.542 -0.091,-0.181 -0.813,-0.633 -0.813,-0.632 -0.903,-0.452 -1.175,-0.361 -0.903,-0.361 -0.903,-0.451 -0.632,-0.542 -0.633,-1.085 -0.271,-0.903 -0.452,-1.265 -0.813,-2.529 -0.181,-0.903 -0.271,-0.993 -0.361,-0.813 -0.632,-0.813 -0.994,-0.361 -0.903,0 -0.903,0 -0.813,0 -1.084,-0.181 -0.903,-0.361 -0.903,-0.452 -0.903,-0.361 -1.084,-0.271 -0.813,-0.271 -0.813,-0.091 -0.993,-0.09 -0.903,0 -0.091,0 -0.632,-0.361 -0.452,-0.452 -0.361,-0.451 0,-0.452 0,-0.271 0,-0.813 0,-0.903 -0.361,-0.632 -0.723,-0.091 -0.813,0 -0.813,0 -0.813,-0.09 -0.451,-0.361 -0.542,-0.452 -0.361,-0.542 -0.361,-0.542 -0.452,-0.813 -0.632,-0.633 -0.903,-0.271 -0.813,0 -0.632,0.181 -0.723,0.271 -0.723,0.271 -0.813,0.271 -1.084,0 -1.445,0.091 -0.903,0.271 -0.633,0.633 0,0 -0.722,0.361 -0.813,0.181 -0.451,0 -0.361,0 -0.904,-0.361 -0.542,-0.633 -0.903,-0.723 -0.181,-0.09 -1.896,-0.903 -1.717,-0.813 -1.445,-0.451 -0.09,0 -1.355,-0.181 -0.723,-0.091 -1.084,-0.09 -1.174,0.09 -1.175,-0.09 -1.084,-0.633 -0.813,-1.445 -0.542,-1.355 -0.632,-0.903 -0.813,-0.271 -0.451,0.181 -0.903,0.542 -0.542,0.451 -1.355,0.361 -0.723,0 -1.084,0.091 -1.626,0 -0.452,0 -1.896,-0.181 -2.078,-0.181 -1.626,-0.361 -2.168,0 -2.8,-0.091 -2.892,-0.09 -2.077,0 -0.452,0 -0.542,0 -0.632,0 -1.265,-0.091 -0.633,-0.181 -1.174,-0.181 -1.987,-0.361 -1.536,-0.451 -1.445,-0.452 -0.903,-0.542 -0.361,-0.451 -0.361,-0.633 -0.271,-0.723 -0.542,-0.632 -1.084,-0.271 -0.903,-0.181 -1.535,-0.542 -1.536,-0.903 -1.354,-1.174 -1.355,-1.626 -0.633,-0.813 -0.451,-0.633 -0.633,-0.632 -0.542,-0.452 -0.723,0.091 -0.903,0.181 -1.354,0.181 -1.265,0 -0.994,0 -0.813,-0.181 -0.633,-0.271 -0.09,0 -0.361,-0.542 0,-0.813 -0.091,-0.723 0,0 0,-0.813 -0.181,-0.723 -0.271,-0.271 -0.542,-0.903 0.09,-1.084 -0.271,-0.633 -0.723,-1.265 -1.446,-0.813 -1.896,-0.723 -2.078,0.09 -0.542,-0.09 -2.619,-0.994 -4.156,-1.987 -1.084,-1.355 -0.903,-1.265 0,-1.265 -0.181,-0.723 -0.271,-0.723 -0.091,-0.903 -0.09,-1.265 0.09,-1.084 0.181,-0.994 0,-1.084 -0.09,-0.993 -0.181,-0.994 -0.361,-0.813 -0.723,-0.452 -0.813,0 -0.632,0.271 -0.813,1.084 -0.813,1.174 -1.175,0.723 -0.813,-0.09 -0.542,-0.723 -0.723,-0.723 -1.175,-1.445 -0.723,-1.265 -0.271,-0.813 -0.451,-1.535 -0.181,-0.994 -0.452,-1.265 -0.451,-0.993 -1.265,-0.994 -1.265,-0.903 -1.536,-0.633 -1.445,-0.903 -1.626,-0.903 -1.265,-0.361 -0.361,0.271 -0.361,0.361 -0.452,0.542 -0.632,0.723 -0.994,0.542 -1.535,0.271 -2.168,0.091 -1.084,0.09 -1.265,-0.271 -2.168,0.181 -1.897,-0.091 -1.175,-0.181 -1.354,-0.542 -1.265,-0.542 -0.542,-0.451 -0.181,-0.723 0,-0.813 0,-1.174 0,-0.633 -0.271,-0.723 -0.188,-0.36 -0.361,-0.542 -0.632,-0.813 -0.361,-0.813 -0.271,-0.813 -0.271,-0.181 -0.361,-0.813 -0.361,-1.717 -0.091,-1.896 -0.09,-2.258 -0.091,-0.542 -0.09,-0.181 -0.091,-0.361 -0.723,-1.536 -0.09,-0.723 -0.091,-0.542 0.091,-0.361 0.09,-0.632 0.181,-0.361 0.361,-0.361 1.445,-1.626 0.361,-0.361 0.181,-0.452 0,-0.361 0,-0.542 -0.181,-0.361 -0.271,-0.452 -0.361,-0.271 -0.542,-0.452 -0.361,-0.542 -0.181,-0.542 0,-0.813 0,-0.542 0,-0.452 -0.091,-0.361 -1.174,-0.271 -0.633,0.09 -0.813,0.271 -0.813,0.452 -0.813,0.271 -0.903,0.181 -0.542,-0.271 -0.993,-0.452 -0.813,-0.271 -0.813,-0.09 -1.445,-0.09 -1.536,0 -0.903,0.181 -0.632,0.542 -0.361,0.632 0,0.723 -0.181,0.994 -0.271,0.361 -0.451,0.181 -0.452,0.09 -3.975,0.09 -0.452,0 -0.361,-0.09 -0.271,-0.181 -0.181,-0.181 0,-0.181 0.09,-0.361 0.271,-0.723 0.181,-0.813 0.09,-0.994 -0.09,-0.903 -0.361,-1.355 -0.903,-1.626 -0.542,-0.723 -0.542,-0.452 -0.361,-0.181 -0.542,-0.09 -0.633,0 -0.723,0 -0.451,0.181 -0.542,0.181 -0.452,0.271 -0.451,0.452 -0.633,0.813 -0.542,1.174 -0.271,0.271 -0.271,0.09 -0.361,0.09 -0.452,-0.09 -0.542,-0.09 -0.451,-0.271 -0.542,-0.271 -0.813,-0.361 -0.723,-0.271 -0.361,-0.09 -0.361,-0.09 -0.451,-0.09 -0.361,0 -1.265,-0.09 -1.717,0.09 -1.084,0 -0.813,-0.09 -1.175,-0.361 -0.903,-0.361 -0.452,-0.181 -0.361,0 -1.987,-0.09 -0.903,-0.09 -0.361,-0.271 -0.542,-0.361 -0.632,-0.361 -0.452,-0.452 -0.542,-0.271 -0.271,-0.181 -0.361,-0.09 -0.452,-0.09 -0.451,0 -0.633,0.181 -1.535,0.723 -1.355,0.361 -0.994,0.181 -1.354,-0.09 -1.084,-0.181 -0.994,-0.09 -1.896,-0.542 -2.078,-0.542 -1.174,-0.452 -1.717,-0.361 -0.813,-0.09 -0.271,0 -1.175,-0.452 -0.993,-0.361 -0.994,-0.452 -1.265,-0.361 -1.174,-0.361 -1.536,0 -1.354,0 -0.813,0.09 -2.71,0.903 -1.807,0.903 -1.807,0.361 -1.717,0.09 -0.723,0 -0.993,0.361 -0.903,0.361 -0.723,0.361 -0.994,0.271 -0.903,0 -1.084,0.361 -0.994,0.723 -0.361,0.813 -0.451,0.632 -0.909,0 -0.361,0.361 -0.994,0.09 -0.723,0.271 -0.813,0.181 -1.084,0.181 -0.994,0.452 -1.354,0.452 -0.994,0.271 -0.632,0.09 -4.156,-2.349 -2.168,-1.626 -1.354,-1.807 -1.265,-1.987 -2.62,-4.788 -0.813,-2.258 -0.632,-2.349 -0.271,-1.987 -0.09,-1.265 0.181,-1.626 0.723,-0.903 0.633,-0.903 0.542,-1.355 0.271,-1.265 0.813,-2.981 0.903,-1.987 0.361,-1.626 0.542,-2.8 0.271,-2.62 0,-2.078 -0.271,-1.807 -0.723,-0.903 -1.355,-2.349 -2.168,-0.723 -1.265,-1.174 -0.994,-2.439 -0.271,-2.349 0,-2.71 0.181,-2.259 0.903,-1.716 2.62,-2.258 1.987,-2.891 1.626,-3.342 0.451,-0.904 -0.271,-0.181 0.09,-0.09 0.361,-0.904 0.091,-0.903 0.451,-0.632 0.542,-0.361 0.633,-0.452 0.632,-0.271 0.271,-0.361 0.271,-0.542 0.542,-0.994 0.994,-1.265 1.807,-2.168 1.807,-1.626 0,-0.09 0.633,-0.361 0.632,-0.452 0.633,-0.451 0.723,-0.452 0.632,-0.361 0.633,-0.181 0.542,-0.09 0.181,0.452 0.181,0.452 0.451,1.084 0.452,0.994 0.451,1.174 0.542,1.084 1.084,2.71 0.633,1.445 0.542,1.445 1.265,3.162 0.723,1.536 0.542,1.626 0.813,1.536 0.451,0.361 0.452,0.361 0.271,0.181 0.903,0.271 3.433,0.271 1.084,0 0.633,0.09 2.981,-0.361 9.756,-2.71 16.893,-5.33 20.868,-5.33 24.933,-10.75 0.903,0.181 0.993,0.361 1.084,-0.09 1.355,0.361 1.265,0.271 1.445,0.181 0.903,0.271 1.084,0.09 1.084,0.271 0.994,0.181 0.813,0.271 0.633,0.361 0.09,0.542 0.271,0.542 0.723,0.271 0.723,0 0.813,0.181 0.813,0.361 0.361,0.542 0.361,0.723 0.181,0.813 0.813,0.181 1.626,0.271 2.529,0.994 2.53,0.903 1.265,0.181 1.354,0.271 0.813,0.181 1.445,0.632 0.361,0.361 0.723,0.271 0.903,0.09 0.723,-0.09 0.813,0 0.994,-0.09 1.175,0.09 1.807,0.09 0.993,0.542 0.271,0.361 0.813,0.903 0.903,0.903 0.813,0.994 0.451,0.994 0,0.271 0.723,0.632 0.903,0.181 2.259,0.542 1.265,0.361 2.71,2.078 1.626,0.632 1.536,0.632 1.807,1.174 3.071,0.813 3.975,1.084 26.288,7.679 4.697,1.626 18.429,6.504 6.052,1.807 32.883,9.575 21.5,4.336 0,0.361 0.09,0.361 0.091,0.271 0.181,0.271 0.181,0.271 0.271,0.181 0.361,0.181 1.987,0 2.078,0 1.626,0.181 1.445,0.181 1.626,0.361 1.536,0.361 1.445,0.452 1.354,0.271 1.084,0.452 1.084,0.361 1.084,0.542 1.084,0.632 0.633,0.271 0.542,0.452 0.451,0.452 0.271,0.452 0.271,0.723 0.271,0.633 0.542,1.445 0.451,1.355 0.181,0.723 0.182,0.632 0.18,0.723 0.182,0.632 0.181,0.723 0.271,0.723 0.452,0.903 0.451,0.723 0.903,1.807 0.452,0.542 0.632,0.723 0.723,0.632 0.723,0.542 1.265,0.903 1.355,0.813 0.903,0.271 0.903,0.271 0.813,0.09 0.723,0.181 0.633,-0.09 0.633,0 0.542,-0.181 0.542,-0.09 0.723,-0.452 0.632,-0.542 0.633,-0.452 0.632,-0.452 0.994,-0.542 0.903,-0.181 0.903,-0.091 0.903,0.091 0.903,0 1.987,0.271 1.807,0.181 1.987,0.542 1.987,0.632 3.975,0.813 0.813,0 1.535,0.09 -0.813,-2.258 -0.723,-2.349 -0.813,-1.536 -1.445,-1.716 -4.968,-4.155 -1.175,-1.084 -0.813,-0.994 -0.724,-1.265 -0.451,-0.994 0.09,-1.174 0.452,-4.155 0.181,-1.987 0,-2.078 -0.091,-1.084 0,-0.181 0.452,-1.174 0.361,-0.903 0.542,-1.174 0.813,-0.813 1.535,-1.807 0.633,-0.813 0.632,-1.084 0.633,-1.174 0.813,-1.626 0.813,-2.078 0.361,-0.903 0.451,-1.084 -0.451,-0.271 -0.813,-0.452 -0.542,-0.542 -1.084,-1.174 -0.903,-0.994 -0.723,-0.813 -1.084,-0.813 -0.542,-0.452 -0.361,-0.271 -0.723,-0.632 -0.994,-0.813 -0.542,-0.632 -0.361,-0.452 -0.451,-0.542 -0.361,-0.542 -0.271,-0.723 -0.271,-0.361 -0.361,-0.452 -1.355,-2.529 -1.445,-4.155 -2.438,-4.246 -0.452,-1.987 -0.181,-4.246 -0.181,-3.885 0,-0.271 -0.271,-4.788 -0.542,-6.775 0.181,-3.884 -0.723,-2.62 -0.994,-1.265 0,-0.181 -0.451,-1.174 -0.543,-7.408 -0.903,-6.414 0,-6.594 0.723,-3.884 -0.451,-3.704 -5.601,-7.949 -4.879,-7.317 -2.71,-4.155 -2.077,-3.252 0,-12.111 0,-0.271 -0.361,-4.336 -0.271,-3.794 -0.271,-3.794 -0.271,-4.336 0,-0.09 -0.451,-3.613 -0.633,-3.975 -0.361,-3.433 -0.271,-1.716 0,0 -0.091,-0.632 -0.181,-1.716 0,-0.454 -0.09,-1.084 0,-0.813 0,-0.361 0,-0.632 0.09,-0.452 0.091,-0.723 0,-0.09 0.09,-0.452 0.091,-0.542 0.09,-0.361 0.091,-0.542 0.09,-0.542 0.091,-0.723 0.09,-0.542 0,-0.542 0.091,-0.723 0,-0.452 -0.091,-0.994 0,0 0,0 0,-0.09 0.903,-0.361 1.355,-0.361 1.626,-0.181 0.723,0 0.723,0 0.993,0.181 1.175,0.09 0.633,-0.09 0.723,-0.181 0.903,-0.542 0.723,-0.452 0.813,-0.452 0,-0.09 1.084,-0.361 1.626,-1.355 2.259,-1.716 2.258,-1.445 1.355,-0.903 1.807,-1.174 1.445,-0.813 0.994,-0.813 0.181,-0.181 0,-0.09 0,0 1.626,-1.174 2.168,-2.078 1.807,-1.717 1.265,-1.265 1.355,-0.813 1.626,-0.813 2.71,-0.994 0.09,0 0.091,0 3.252,-0.994 3.523,-1.174 3.703,-1.445 3.162,-1.445 4.155,-2.259 2.62,-1.445 -0.091,-0.632 -0.181,-1.355 -0.271,-1.265 0,-0.452 0.09,-0.361 0.181,-0.361 0.271,-0.181 0.271,-0.09 0.723,-0.271 2.349,-0.542 2.529,-0.813 1.897,-0.361 1.807,-0.361 0.903,-0.271 0.723,0 1.084,0 1.987,0.09 0.903,0.09 0.452,0 0.632,-0.181 0.633,-0.361 1.084,-0.994 0.361,-0.271 0.361,-1.174 0.542,-1.717 0.271,-0.542 0.181,-0.361 0.633,-0.542 1.265,-0.994 0.091,0 0.451,0.181 0.994,0.181 1.265,0.271 1.626,0.271 1.987,0.09 1.535,-0.09 1.175,-0.181 1.174,-0.09 0.723,0 0.724,0.181 0.271,0.181 0,0 0.361,0.181 0.452,0.361 0.813,0.723 0.542,0.723 0.633,0.723 0.723,1.265 0.361,0.904 0.451,1.084 0.452,1.265 0.632,1.716 0.361,1.174 0.723,1.174 0.452,0.903 0.361,0.452 0.451,0.271 0.542,0.181 1.445,0.181 1.084,0 0.362,0 0.625,0 0.633,-0.09 0.271,-0.09 0.813,-0.181 1.174,-0.271 1.626,-0.181 1.987,-0.452 2.078,-0.452 1.896,-0.452 2.078,-0.452 1.987,-0.452 0,0 0.903,-0.181 0.994,-0.181 1.174,-0.181 1.445,-0.09 1.445,-0.181 1.897,-0.361 0.813,-0.181 0.181,0 0.271,-0.09 0.271,-0.271 0.361,-0.181 0.451,-0.181 0.271,-0.181 0.451,-0.181 0.452,-0.181 0.271,-0.09 0.361,-0.09 0.271,-0.09 0.361,-0.09 0.271,0 0.361,0 0.723,0 0.813,0.181 1.174,0.361 0.994,0.361 0.903,0.271 1.174,0.361 0.994,0.181 1.717,0.452 0.813,0.181 0.813,0.271 0.632,0.09 0.633,0.181 0.723,0.09 0.903,0.181 1.626,0.361 1.084,0.181 0.993,0.181 0.903,0.09 0.813,0.181 1.084,0.181 0.542,0 0.452,0 0.361,0 0.451,0 0.723,0 0.361,-0.09 0.452,0 0.361,0 0.542,-0.09 0.451,0 0.452,0 1.535,0 0.813,0 0.542,0 1.354,0 1.445,0.09 1.355,0.181 1.807,0.09 2.078,0.09 1.445,0.181 0.723,0.181 0.542,0.181 1.174,0.452 1.445,0.361 1.265,0.271 0.724,0.361 0.813,0.271 0.542,0.271 0.633,0.271 0.993,0.451 0.723,0.361 0.542,0.181 0.903,0.542 0.903,0.452 1.897,0.994 0.903,0.361 0.903,0.271 0.09,0 0.362,0.09 0.451,0 0.994,0.181 0.451,0 0.452,0 1.174,0.181 1.084,0.09 1.445,0.181 1.355,0.181 1.265,0.09 1.896,0.181 0.723,-0.09 0.813,0 0.813,0 0.723,0 2.438,-0.09 2.078,-0.181 1.987,-0.181 2.98,-0.181 1.445,-0.09 1.355,-0.09 1.084,-0.09 0.903,-0.09 0.723,-0.09 0.903,0 1.265,-0.181 0.813,-0.181 1.174,-0.181 0.452,-0.181 0.451,-0.181 0.633,-0.181 0.632,-0.181 0.543,-0.181 0.541,-0.181 1.717,-0.452 1.175,-0.181 1.084,-0.271 0.632,-0.091 0.633,-0.09 2.438,-0.091 4.607,-0.451 2.078,-0.181 1.987,-0.271 3.613,-0.361 1.896,-0.181 1.897,-0.271 3.523,-0.452 3.433,-0.271 1.535,-0.181 1.536,-0.181 2.981,-0.452 1.174,-0.181 1.175,-0.181 1.716,-0.09 0.091,-0.09 0.813,-0.09 0.091,0 0.271,-0.09 1.265,-0.181 1.265,-0.181 1.175,-0.09 2.71,-0.361 2.529,-0.452 2.62,-0.542 2.98,-0.813 2.529,-0.723 2.801,-0.813 1.175,-0.452 1.174,-0.452 0.903,-0.361 0.813,-0.361 0.451,-0.181 0.271,-0.271 0.813,-0.542 0.271,-0.271 0.271,-0.452 0.452,-0.542 0.361,-0.542 0.903,-1.445 0.994,-1.897 1.265,-2.71 0.542,-1.355 0.451,-1.445 1.084,-2.71 1.084,-2.349 0,-0.181 0.181,0.09 0.181,0 0.813,0.181 0.813,0.271 0.723,0.271 2.62,1.265 1.174,0.361 1.175,0.452 2.259,0.994 1.445,0.632 0.451,0.09 0.452,0 0.632,0 1.355,-0.271 0.542,-0.09 0.361,-0.09 0.813,-0.09 0.723,-0.09 0.542,-0.181 0.542,-0.271 0.633,-0.271 0.452,-0.271 0.993,-0.542 1.445,-0.542 0.813,-0.181 0.723,-0.181 0.723,0 0.813,-0.09 0.994,0 1.084,-0.09 2.71,-0.271 1.354,-0.181 1.446,-0.181 1.987,0 0.542,-0.09 0.542,-0.181 1.807,-0.361 0.451,-0.09 0.542,0 0.452,0 0.361,0.09 1.626,0.271 0.632,0.09 0.813,0.271 0.542,0.452 1.174,0.452 0.813,0.181 0.633,0.181 1.084,0.181 1.084,0.181 0.993,0.09 1.084,0.181 0.994,0.271 0.993,0.181 1.265,0.271 1.355,0.271 2.981,0.632 1.084,0.271 1.084,0.09 1.807,0.542 0.993,0.361 0.271,0.271 0.451,0.271 0.542,0.452 0.181,0.271 0.181,0.271 0.091,0.09 0.542,-0.361 0.542,-0.813 0.813,-1.536 0.633,-1.084 0.361,-0.723 0.542,-0.903 0.542,-1.174 1.084,-0.994 0.994,0.271 0.451,0.181 0.091,1.626 -0.165,1.173 z"
       inkscape:connector-curvature="0"
       class="DEP_01 ZON_01" /></g></svg>