<?xml version="1.0" encoding="UTF-8" standalone="no"?>
<!-- Generator: Adobe Illustrator 16.0.0, SVG Export Plug-In . SVG Version: 6.00 Build 0)  -->

<svg
   xmlns:dc="http://purl.org/dc/elements/1.1/"
   xmlns:cc="http://creativecommons.org/ns#"
   xmlns:rdf="http://www.w3.org/1999/02/22-rdf-syntax-ns#"
   xmlns:svg="http://www.w3.org/2000/svg"
   xmlns="http://www.w3.org/2000/svg"
   xmlns:sodipodi="http://sodipodi.sourceforge.net/DTD/sodipodi-0.dtd"
   xmlns:inkscape="http://www.inkscape.org/namespaces/inkscape"
   version="1.1"
   id="SvgMunicipio"
   x="0px"
   y="0px"
   width="1000.014px"
   height="815.778px"
   viewBox="63.99 118.098 1000.014 815.778"
   enable-background="new 63.99 118.098 1000.014 815.778"
   xml:space="preserve"
   inkscape:version="0.91 r13725"
   sodipodi:docname="MUN_ID0107.svg"><metadata
     id="metadata10"><rdf:RDF><cc:Work
         rdf:about=""><dc:format>image/svg+xml</dc:format><dc:type
           rdf:resource="http://purl.org/dc/dcmitype/StillImage" /></cc:Work></rdf:RDF></metadata><defs
     id="defs8" /><sodipodi:namedview
     pagecolor="#ffffff"
     bordercolor="#666666"
     borderopacity="1"
     objecttolerance="10"
     gridtolerance="10"
     guidetolerance="10"
     inkscape:pageopacity="0"
     inkscape:pageshadow="2"
     inkscape:window-width="1366"
     inkscape:window-height="705"
     id="namedview6"
     showgrid="false"
     inkscape:zoom="0.28929439"
     inkscape:cx="500.00699"
     inkscape:cy="407.88901"
     inkscape:window-x="-8"
     inkscape:window-y="-8"
     inkscape:window-maximized="1"
     inkscape:current-layer="svg" /><g
     id="g3"><path
       id="MUN_0107"
       d="m 1064.004,307.458 -135.595,126.45 -85.614,55.867 -0.053,0.105 -0.053,0.158 -0.157,0.104 -0.157,0.053 -0.315,0.105 -0.368,0.052 -0.684,0.105 -0.631,0.105 -0.314,-0.053 -0.264,0 -0.42,0.105 -0.525,0.263 -0.315,0.104 -0.263,0 -0.158,0.053 -0.21,0 -0.105,0 -0.157,0 -0.263,0.105 -0.263,0.104 -0.263,0.053 -0.315,0 -0.315,0.105 -0.368,0 -0.473,0 -0.474,-0.053 -0.525,-0.053 -0.42,0.053 -0.105,0.105 0,0.104 0,0.158 0,0.21 0,0.157 0,0.158 0.053,0.263 0,0.315 0.053,0.263 0,0.263 0,0.105 -0.21,0.104 -0.421,0.158 -0.21,0.104 -0.158,0.105 -0.21,0.578 -0.263,0.473 -1.156,1.787 -0.263,0.421 -0.525,0.473 -0.631,0.421 -0.894,0.42 -0.946,0.473 -3.259,0.842 -3.311,0.42 -0.263,2.26 -1.472,2.838 0.473,0.474 -2.154,0.946 -2.26,0.893 -2.155,0.789 -2.103,0.21 -1.576,0.21 -1.734,0.105 -2.575,0 -0.053,-0.525 -0.053,-1.682 -0.735,0 -0.789,0 -2.26,0.104 -2.417,-0.053 -2.681,0 -0.841,0 -1.997,0.105 -1.419,0.21 -0.158,0 -0.263,0.315 -0.157,0.368 0.157,0.368 0.211,0.315 0.314,0.263 0.368,0.21 0.525,0.263 0.158,0.21 0.157,0.263 0,0.368 -0.053,0.421 -0.157,0.21 -0.21,0.21 -0.211,0.421 -0.21,0.473 0.21,0.263 0.158,0.263 0.21,0.525 0.315,0.105 0.263,0.157 0.053,0.315 0,0.315 0.473,0.525 0.684,0.053 0.105,0.263 0.157,0.211 0.158,0.42 0.21,0.473 0.157,0.211 0.211,0.157 0.052,0.684 0,0.631 0.263,0.525 0.211,0.525 0.104,1.209 0.105,0.683 0.053,0.684 0.21,0.368 0.21,0.368 0.526,0.42 0.473,0.368 0.42,0.315 0.789,1.629 0.788,1.577 0.42,0.998 0.315,0.946 0,1.892 -0.052,1.262 -0.105,1.313 0,0.841 -0.105,1.314 -0.104,1.051 -0.053,0.263 0,0.736 0,0.631 0,0.367 -0.263,0.315 -0.263,0.053 -0.263,0.105 -0.315,0 -0.211,0.052 -0.525,0.158 -0.104,0.157 -0.158,0.211 -0.368,0.263 -0.21,0.104 -0.263,0.105 -0.263,0.157 -0.157,0.158 0,0.105 0,0.157 0.314,0.315 0.368,0.263 0.158,0.263 0.21,0.21 0.053,0.211 0.053,0.315 0.052,0.21 0.105,0.21 -0.105,0.315 -0.157,0.21 -0.315,0.211 -0.368,0.21 -0.157,0.053 -0.158,0.052 -0.21,0.315 -0.21,0.315 -0.105,0.525 -0.053,0.526 -0.052,1.261 0.104,0.999 0.158,1.051 0.157,1.051 0.158,1.052 0,0.998 0,1.052 0,0.788 0.052,0.735 0,0.538 -0.052,0.157 -0.105,0.157 -0.105,0.053 -0.053,0.105 -0.314,0.053 -0.264,0.053 -0.367,0 -0.211,0 -0.104,0.052 -0.158,0.053 -0.104,0 -0.263,0.105 -0.105,0.053 -0.157,0.052 -0.158,0.105 -0.105,0.105 -0.052,0.21 -0.105,0.21 0.105,0.315 0.104,0.263 0.211,0.474 0.157,0.473 0.157,0.473 0.105,0.474 0.053,0.945 0,0.946 0.21,0.368 -0.946,0.473 -0.42,0.578 -0.368,0.631 -0.157,0.525 0.053,1.472 0,0.631 -0.105,1.051 -0.053,1.052 0,0.735 0.053,0.999 0.157,1.051 0.211,0.998 0.263,1.052 0.315,1.104 0.157,0.788 0,0.894 -0.315,0.684 -0.315,0.735 -0.525,1.156 -0.315,0.841 -0.315,1.104 -0.053,0.684 0,1.314 0.105,0.735 0.368,0.578 0.42,0.578 0.474,0.473 0.42,0.474 0.368,0.525 0.315,0.473 0.105,0.788 0,0.736 -0.211,0.946 -0.157,0.945 -0.053,0.841 0,0.789 0.053,0.735 0.263,0.474 0.42,0.42 0.631,0.473 0.525,0.315 0.474,0.474 0.473,0.578 0.315,0.578 0.368,0.683 0.263,0.578 0.368,0.736 0.157,0.631 0,0.578 0,0.735 0,0.473 -0.578,0.315 -0.684,0.053 -0.525,0.105 -0.315,0.42 0.053,0.525 0.263,0.736 0.211,0.473 0.263,0.525 0.367,0.631 0.315,0.684 0.263,0.631 0.211,0.841 0.21,0.841 0,0.631 0.053,0.945 -0.053,0.894 -0.105,0.631 -0.367,0.578 -0.368,0.525 -0.631,0.421 -0.578,0.368 -0.525,0.525 -0.263,0.63 0.053,0.789 0,0.788 0.104,0.578 0.263,0.631 0.211,0.525 0.21,0.578 0,0.578 -0.053,0.473 -0.578,0.474 -0.578,0.263 -0.631,0.21 -0.683,0.315 -0.631,0.421 -0.736,0.473 -0.683,0.525 -0.631,0.525 -0.525,0.525 -0.526,0.631 -0.578,0.788 -0.473,0.684 -0.315,2.681 -0.263,0.946 -0.105,0.683 -0.104,0.736 -0.053,0.63 -0.105,0.631 -0.263,0.525 -0.525,0.526 -0.525,0.367 -0.578,0.474 -0.263,0.42 0.053,0.525 0.473,0.474 0.788,0.525 0.894,0.578 0.841,0.578 0.894,0.631 0.525,0.525 0.578,0.735 0.421,0.789 0.315,0.893 0.053,0.789 -0.105,0.631 -0.525,0.525 -0.684,0.315 -0.683,0.052 -0.736,0 -0.684,0.105 -0.683,0.263 -0.368,0.578 -0.053,0.631 0,0.684 0.053,0.63 0.21,0.842 0.368,0.578 0.158,0.63 0,0.684 -0.105,0.841 -0.105,0.841 -0.263,0.841 -0.368,0.684 -0.42,0.631 -0.473,0.788 0,0.684 0.104,0.578 0.368,0.788 0.368,0.525 0.263,0.946 0.21,1.156 0.421,1.313 0.104,1.104 -0.104,0.684 -0.526,0.631 -0.683,0.367 -0.578,0.211 -0.736,-0.263 -0.315,-0.474 -0.21,-0.631 -0.21,-0.63 -0.315,-0.841 -0.368,-0.789 -0.263,-0.735 -0.315,-0.684 -0.367,-0.473 -0.631,-0.053 -0.525,0.263 -0.474,0.684 -0.788,0.631 -1.262,0.788 -0.998,0.473 -0.999,0.421 -0.894,0.315 -0.894,0.263 -0.893,0.157 -0.999,0.105 -1.104,0.053 -0.894,0 -1.209,-0.053 -0.894,0 -0.894,0 -0.683,-0.053 -0.684,-0.053 -0.631,-0.053 -0.367,-0.367 -0.368,-0.526 -0.158,-0.473 0.053,-1.892 -0.21,-0.474 -0.368,-0.315 -0.42,-0.263 -0.421,-0.157 -14.873,53.502 -1.052,-0.631 -0.21,-0.525 -0.42,-1.419 0.21,-2.103 -0.053,-0.314 -0.315,-0.946 -0.735,-1.262 -0.736,-0.841 -0.841,-0.315 -1.209,0.105 -0.42,0.263 -2.365,1.209 -1.419,1.156 -1.104,2.522 -0.684,0.421 -3.679,-0.105 -1.734,-0.736 -0.946,-1.997 -0.631,-1.682 -2.154,-1.051 -4.362,-0.525 -1.629,1.104 -1.209,0.841 -1.682,1.944 -1.419,0.684 -2.05,1.209 -1.209,2.575 -0.525,1.576 -0.421,1.472 -0.788,1.577 -1.524,1.892 -1.734,2.05 -0.788,0.263 -0.999,0.053 -2.68,-0.631 -3.837,-1.84 -1.84,0.421 -2.838,1.734 -3.101,1.104 -1.997,0.21 -1.104,0.946 -1.893,1.104 -1.944,1.84 -0.684,0.631 -1.682,2.05 -1.787,0.525 -3.416,0.104 -1.471,-0.21 -2.261,-1.576 -2.732,-0.578 -4.73,-2.733 -0.42,-0.315 -2.155,0.315 -1.997,1.314 -0.105,1.576 0.684,1.209 1.84,2.417 0.315,1.577 -0.105,1.787 0.263,1.156 -0.368,0.525 -0.735,1.787 0.053,2.575 0.42,2.838 -0.683,1.209 -1.156,0.367 -1.577,0.578 -2.522,3.574 -2.522,3.259 -0.631,0.368 -2.943,0.473 -1.472,-0.684 -2.365,-0.788 -2.942,0.684 -1.577,0.945 -8.304,2.628 -4.678,1.104 -1.682,-0.998 -1.997,-1.84 -1.051,-0.368 -0.578,-0.21 -1.156,0.578 -0.158,0.999 -0.631,0.998 -1.734,1.262 -2.417,0.998 -3.574,1.209 -3.048,1.997 -4.888,4.205 0.104,3.784 -0.263,2.417 -1.051,4.888 -0.999,2.943 -1.523,1.629 -1.209,0.789 -1.156,0.841 -1.997,0.263 -2.733,0.946 -0.105,1.839 -0.735,6.412 -0.525,6.569 -0.631,6.832 -2.47,2.418 -3.627,1.051 -5.308,0.474 -2.786,0.788 -2.26,2.154 -1.366,4.415 -1.577,4.678 -0.367,4.31 0.053,2.785 0.263,3.469 -0.684,2.523 -0.999,1.419 -0.788,0.788 -3.363,-0.158 -2.418,0.736 -2.891,2.26 -1.209,1.366 -0.21,0.211 -0.473,0.578 -0.105,0.104 -0.315,0.421 -0.683,1.313 -0.368,2.891 0,1.314 -0.631,2.154 -0.578,1.156 -0.894,0.631 -1.997,0.998 -2.891,1.893 -0.894,0.578 -5.466,2.103 -2.154,0.893 -2.786,0.999 -1.629,0.999 -1.524,1.261 -1.156,1.156 -0.788,1.104 0.053,1.734 -0.421,3.049 -0.315,1.682 -0.263,0.946 -0.735,0.893 -1.104,0.789 -0.841,0.473 -2.628,1.419 -0.894,0.631 -1.472,0.788 -0.946,0.736 -0.473,0.945 -0.368,0.421 -0.368,0.421 -1.208,0.841 -0.789,0.367 -0.893,0.474 -0.684,0.578 -0.263,0.894 -0.21,0.367 -1.945,1.367 -1.682,0.788 -1.734,0.683 -1.313,-0.157 -0.946,-0.053 -1.209,0.525 -0.788,0.263 -1.156,0.368 -0.946,-0.053 -0.683,0.158 -0.315,0.315 -0.211,0.841 -0.157,0.788 -1.314,1.262 -0.63,0.63 -0.053,0.474 -0.105,0.578 -0.157,0.631 -0.684,1.734 -0.368,0.735 -0.42,0.684 -0.158,0.315 -0.263,0.315 -0.578,0.42 -1.892,1.104 -1.209,0.894 -0.841,0.421 -0.578,0.367 -0.315,0.474 -0.684,0.894 -0.314,0.735 -0.315,0.684 -0.999,1.419 -0.998,1.419 -1.104,1.524 -2.364,2.47 -0.684,0.788 -0.315,0.158 -0.473,0.157 -0.789,0.053 -0.525,0 -0.473,0.21 -1.419,1.314 -2.996,3.258 -0.894,0.684 -0.894,0.631 -0.998,1.209 -0.736,0.945 -0.735,0.263 -0.735,-0.052 -1.209,-0.053 -0.684,0.683 -0.788,0.894 -0.684,0.368 -0.945,0.315 -0.789,0.684 -0.683,1.104 -0.211,1.629 0,1.262 -0.263,1.523 -0.473,0.894 -0.736,0.894 -1.155,0.946 -0.946,1.104 -0.315,1.262 0.053,0.578 0.104,2.313 -0.052,1.576 -0.368,1.156 -1.419,1.314 -1.893,0.578 -2.628,0.053 -4.835,-0.053 -2.47,0.053 -1.84,0.367 -1.997,0.525 -1.682,0.894 -1.104,-0.894 -4.625,-2.785 -1.524,-0.894 -3.469,-2.103 -2.365,-1.419 -4.414,-2.26 -4.415,-2.26 -3.101,-1.682 -2.996,-1.682 -2.785,-1.524 -1.209,-0.684 -3.206,-1.156 -4.257,-2.102 -4.257,-2.103 -4.836,-2.47 -4.782,-2.523 -5.729,-2.732 -13.402,-6.622 -5.781,-2.996 -12.245,-6.044 -7.306,-3.469 -7.305,-3.469 -5.887,-2.785 -8.198,-3.941 -5.729,-2.786 -7.357,-3.573 -9.145,-4.468 -4.888,-2.47 -4.888,-2.418 -5.361,-2.732 -5.413,-2.681 -3.573,-1.314 -2.733,-1.156 -2.681,-1.208 -3.153,-1.367 -9.564,-4.52 -4.1,-1.682 -4.1,-1.682 -6.832,-2.891 -6.858,-2.891 -1.367,-0.736 -3.337,-1.734 -3.259,-1.734 -4.362,-2.102 -4.31,-2.103 -4.021,-1.84 -7.936,-3.626 -3.969,-1.787 -5.387,-2.313 -3.784,-1.629 -3.679,-1.787 -3.705,-1.787 -2.891,-1.104 -2.838,-1.104 -4.336,-1.997 -4.257,-1.944 -6.255,-2.628 -6.411,-2.891 -5.598,-2.575 -4.126,-1.893 -7.62,-3.363 -3.153,-1.734 -3.127,-1.734 -2.707,-1.366 -2.733,-1.314 -3.074,-1.366 -3.101,-1.419 -3.758,-1.682 -6.622,-2.838 -7.752,-3.364 -8.462,-3.626 -5.781,-2.365 -5.203,-2.365 -3.074,-1.629 -3.048,-1.629 -3.417,-2.155 -3.231,-2.575 -2.943,-1.577 -3.863,-3.836 -3.048,-1.472 -9.592,-3.521 -4.073,-8.356 -0.788,-3.206 0.999,-6.307 11.194,-4.31 13.822,9.46 15.005,11.194 10.669,6.675 9.933,1.787 14.321,0.105 15.662,0.104 5.887,-1.892 6.806,2.365 3.915,0.63 4.205,-0.945 1.13,-0.946 2.207,-1.787 3.338,-4.572 0.683,-1.472 1.183,-3.836 1.13,-0.946 1.761,-0.946 2.838,-0.684 2.733,-1.051 1.918,-2.575 -0.104,-1.997 -0.815,-1.944 -1.234,-1.787 -1.708,-1.524 -7.069,-1.523 -3.18,-0.368 -1.708,-0.894 -1.682,-1.419 -1.604,-1.209 -1.182,-0.841 -2.392,-0.999 -1.025,-0.367 -1.471,-0.053 -1.078,0.841 -0.735,0.946 -0.342,1.156 -0.157,1.629 0.263,2.418 0.525,3.469 -0.447,2.522 -0.788,1.839 -1.077,1.262 -1.104,1.104 -1.445,0.578 -1.656,0.158 -1.865,-0.263 -1.866,-0.526 -1.419,-0.473 -2.891,-1.366 -3.18,-1.524 -3.758,-1.682 -4.467,-1.893 -2.549,-1.208 -1.577,-0.736 -4.204,-1.472 -2.785,-1.366 -3.18,-1.576 -1.919,-1.367 -1.183,-1.629 -1.55,-3.521 -0.315,-1.944 0,-1.734 0.342,-1.577 0.709,-1.839 1.366,-2.05 1.551,-1.419 1.866,-1.156 2.207,-1.209 0.342,0 1.865,-0.315 2.943,-0.105 3.18,0.474 2.891,0.894 1.971,1.051 1.893,1.787 1.734,1.366 3.311,2.891 1.524,0.841 1.234,0.263 0.92,-0.21 0.946,-0.788 0.368,-0.894 0.315,-1.262 -0.158,-1.419 -0.683,-2.103 -0.684,-1.051 -0.894,-1.313 -0.631,-1.683 -0.788,-1.944 -0.631,-2.365 -0.446,-1.419 -0.736,-1.576 -0.394,-0.631 -0.342,-1.051 -0.789,-1.997 -0.42,-1.577 -0.105,-1.051 0.236,-0.631 0.604,-0.578 0.763,-0.473 0.735,-0.211 0.841,0.263 0.5,0.263 0.919,0.684 1.367,0.946 0.998,0.894 0.788,0.578 0.368,0.053 1.472,-0.211 0.946,-0.894 0.446,-0.894 -0.053,-0.735 -0.394,-1.577 -0.263,-1.471 -0.132,-0.894 0.184,-0.631 0.5,-0.473 0.578,-0.526 0.841,-0.42 0.972,-0.158 1.472,-0.104 2.023,-0.053 1.604,0 2.102,0.315 1.183,0.525 1.13,0.684 1.025,0.841 1.629,1.261 1.472,0.684 0.973,0.105 0.814,-0.368 1.183,-0.788 0.631,-1.104 0.157,-1.313 -0.105,-1.787 0.158,-0.894 0.289,-0.945 0.236,-1.367 0,-0.683 -0.525,-1.314 -0.894,-1.051 -0.762,-0.421 -1.052,-0.157 -1.839,0.157 -1.971,0 -1.314,-0.367 -1.235,-0.421 -0.867,-0.42 -0.709,-0.736 -0.289,-0.894 0,-0.841 0.342,-0.841 0.841,-0.735 0.788,-0.368 1.077,-0.158 1.262,-0.21 1.472,-0.631 0.945,-0.945 1.156,-1.419 1.919,-1.893 1.366,-1.366 0.999,-0.631 1.024,-1.262 0.578,-2.364 0.053,-0.526 0,-0.63 0,-0.789 -0.053,-0.63 -0.053,-0.474 -0.131,-0.788 -0.5,-4.1 -0.236,-1.629 -0.104,-1.104 -0.237,-1.262 -0.21,-0.788 -0.184,-0.684 -0.395,-0.841 -0.342,-0.473 -0.263,-0.263 -0.289,-0.158 -0.446,-0.104 -0.368,-0.053 -0.735,0 -0.395,0.104 -0.499,0.158 -0.342,0.21 -0.395,0.263 -0.446,0.315 -1.077,0.946 -0.815,0.894 -0.841,0.894 -1.287,1.523 -0.736,0.946 -0.289,0.473 -0.184,0.421 -0.21,0.631 -0.185,0.788 -0.236,1.104 -0.21,1.209 -0.184,0.788 -0.105,0.315 -0.158,0.263 -0.341,0.788 -0.631,1.104 -0.447,0.735 -0.236,0.315 -0.236,0.157 -0.315,0.053 -0.236,0 -0.289,0.053 -0.21,-0.053 -0.237,-0.104 -0.184,-0.211 -0.263,-0.263 -0.184,-0.263 -0.236,-0.473 -0.315,-0.631 -0.289,-0.525 -0.289,-0.788 -0.289,-0.684 -0.158,-0.578 -0.053,-0.578 -0.078,-0.631 -0.211,-0.735 -0.184,-0.999 -0.263,-1.156 -0.079,-0.998 -0.053,-1.577 -0.157,-1.682 -0.079,-1.313 -0.053,-0.474 0,-0.368 0.079,-0.314 0.053,-0.368 0.053,-0.578 -0.053,-0.894 -0.079,-0.578 -0.104,-0.421 -0.289,-0.525 -0.342,-0.473 -0.315,-0.263 -0.236,-0.158 -0.237,0 -0.341,0 -0.395,0.105 -0.552,0.315 -0.447,0.263 -0.236,0.263 -0.184,0.21 -0.21,0.315 -0.237,0.525 -0.21,0.421 -0.342,0.788 -0.367,1.052 -0.789,2.102 -0.841,2.155 -0.919,2.102 -0.71,1.472 -0.289,0.526 -0.342,0.577 -0.394,0.474 -0.289,0.315 -0.526,0.525 -0.552,0.473 -0.578,0.421 -0.735,0.42 -1.025,0.631 -0.552,0.421 -0.735,0.315 -0.631,0.263 -0.684,0.21 -0.735,0.21 -0.499,0.105 -0.185,0 -0.289,-0.053 -0.446,-0.105 -0.342,-0.21 -0.157,-0.104 -0.237,-0.264 -0.236,-0.367 -0.21,-0.368 -0.184,-0.368 -0.105,-0.315 -0.053,-0.263 0.053,-0.157 0,-0.263 0.105,-0.263 0.052,-0.263 0.079,-0.368 0.053,-0.525 0.105,-0.474 0.104,-0.525 0.185,-0.683 0.341,-0.946 0.289,-0.999 0.211,-0.473 0.236,-0.525 0.289,-0.631 0.395,-0.841 0.499,-0.946 0.236,-0.578 0.236,-0.683 0.158,-0.474 0.052,-0.578 0.053,-0.263 -0.104,-0.263 -0.053,-0.21 -0.132,-0.263 -0.157,-0.211 -0.105,-0.104 -0.131,-0.053 -0.211,-0.053 -0.236,0.053 -0.683,0.21 -0.5,0.158 -0.867,0.315 -0.709,0.263 -0.973,0.42 -1.419,0.525 -0.841,0.211 -1.366,0.157 -2.339,0.368 -0.841,0 -0.5,0 -0.341,0.104 -0.395,0.105 -0.473,0.053 -0.289,0 -0.342,-0.105 -0.447,-0.157 -0.394,-0.263 -0.236,-0.211 -0.158,-0.263 -0.157,-0.315 0,-0.367 0.104,-0.315 0.158,-0.21 0.184,-0.315 0.105,-0.368 0.104,-0.315 0.026,-0.315 0.053,-0.368 0.21,-0.21 0.185,-0.315 0.394,-0.42 0.604,-0.684 0.525,-0.735 0.342,-0.526 0.211,-0.21 0.184,-0.21 0.289,-0.263 0.289,-0.315 0.263,-0.263 0.289,-0.421 0.236,-0.368 0.289,-0.42 0.315,-0.578 0.289,-0.473 0.289,-0.421 0.342,-0.315 0.395,-0.315 0.446,-0.21 0.342,-0.157 0.289,-0.053 0.394,-0.158 0.105,-0.053 0.079,-0.21 0.053,-0.21 0.052,-0.21 -0.052,-0.263 -0.053,-0.264 -0.185,-0.21 -0.21,-0.21 -0.289,-0.21 -0.236,-0.105 -0.289,-0.157 -0.395,-0.053 -0.446,-0.053 -0.289,-0.158 -0.447,-0.263 -0.289,-0.315 -0.341,-0.314 -0.395,-0.368 -0.499,-0.21 -0.525,-0.578 -0.684,-0.578 -0.684,-0.631 -0.604,-0.631 -0.341,-0.525 -0.185,-0.474 -0.104,-0.525 0.184,-0.578 0.263,-0.42 0.525,-0.263 0.604,-0.053 0.421,0.053 0.499,0.263 0.578,0.053 0.499,0.157 0.578,0.157 0.447,0.053 0.499,0.053 0.525,0 0.552,-0.21 0.342,-0.158 0.446,-0.052 0.289,0 0.185,0 0.289,0 0.263,0 0.236,-0.211 0.157,-0.263 0.132,-0.157 0,-0.263 -0.053,-0.368 -0.131,-0.263 -0.158,-0.263 -0.184,-0.368 -0.263,-0.315 -0.236,-0.368 -0.578,-0.63 -0.604,-0.789 -0.421,-0.578 -0.263,-0.473 -0.184,-0.578 -0.236,-0.473 -0.105,-0.263 0,-0.211 0.105,-0.21 0.184,-0.315 0.236,-0.263 0.395,-0.263 0.342,-0.263 0.394,-0.21 0.342,-0.053 0.289,0 0.157,0.053 0.237,0.104 0.157,0.158 0.395,0.21 0.446,0.157 0.395,0 0.367,-0.104 0.447,-0.053 0.604,-0.368 0.473,-0.946 0.342,-1.523 0.263,-0.211 0.631,-0.42 0.631,-0.736 0.21,-0.63 0.342,-0.211 0.394,-0.367 0.342,-0.158 0.079,-0.104 0.105,0.052 0.289,0.053 0.394,-0.104 0.447,-0.421 0.446,-0.315 0.473,-0.263 0.447,-0.21 0.578,0.157 0.709,-0.104 0.474,0.104 0.342,-0.21 0.788,-1.051 0.395,-1.314 0.104,-0.525 0.289,-0.946 0.185,-0.631 0.21,-0.63 0.053,-0.105 0.078,-0.368 0.263,-0.263 0.342,-0.263 0.342,-0.263 0.184,-0.473 0.105,-0.684 0.105,-0.21 0.342,-0.263 1.077,-0.684 0.446,-0.42 -0.104,-0.736 0.341,-1.104 0.5,-0.525 0.63,-1.156 0.447,-0.631 0.131,-0.736 0.5,-0.788 0.814,-1.682 0.998,-1.313 0.789,-1.524 0.367,-1.84 0.315,-2.154 0.289,-0.263 0.237,-0.211 0.236,-0.263 0.21,-0.263 0.184,-0.368 0.315,-0.367 0.236,-0.578 0.185,-0.315 0.315,-0.315 0.236,-0.263 0.236,-0.368 0.158,-0.42 0.131,-0.368 0.158,-0.421 0.052,-0.367 0.053,-0.368 0.132,-0.368 0.104,-0.42 -0.053,-0.368 -0.104,-0.315 0,-0.315 0.104,-0.368 0.289,-0.263 0.342,-0.104 0.211,-0.263 0.184,-0.264 0.263,-0.263 0.289,-0.21 0.236,-0.263 0.105,-0.42 -0.158,-0.315 -0.078,-0.315 0,-0.263 0,-0.474 0,-0.42 0.078,-0.421 0.105,-0.473 0.105,-0.421 0.078,-0.42 0.105,-0.421 0.105,-0.473 0.052,-0.315 0.053,-0.473 0.079,-0.474 0.053,-0.315 0.053,-0.367 0,-0.368 0.052,-0.263 0.158,-0.315 0.131,-0.315 0.211,-0.21 0.078,-0.315 0.158,-0.263 0.184,-0.368 0,-0.315 0.158,-0.21 0.236,-0.158 0.053,-0.21 0.053,-0.315 0.157,-0.21 0.132,-0.263 0.157,-0.263 0,-0.368 -0.053,-0.263 -0.104,-0.315 0,-0.263 0,-0.368 0,-0.263 0,-0.315 0,-0.315 0.157,-0.21 0.236,-0.21 0.395,-0.158 0.394,-0.157 0.342,-0.053 0.841,0 0.421,-0.053 0.315,-0.157 0.236,-0.158 0.105,-0.21 0,-0.315 -0.053,-0.263 0,-0.368 0,-0.315 -0.053,-0.314 -0.157,-0.315 -0.185,-0.315 -0.104,-0.211 -0.053,-0.314 0.053,-0.368 0.052,-0.315 0.158,-0.263 0.184,-0.263 0.289,-0.263 0.263,-0.158 0.395,-0.157 0.368,-0.105 0.341,-0.157 0.263,-0.158 0.185,-0.21 0.21,-0.263 0.132,-0.263 0.104,-0.421 0.185,-0.315 0.21,-0.263 0.236,-0.263 0.263,-0.263 0.421,-0.368 0.342,-0.315 0.314,-0.42 0.237,-0.263 0.184,-0.263 0.105,-0.631 0.104,-0.631 0,-0.421 -0.053,-0.367 -0.052,-0.315 0.104,-0.578 0.105,-0.263 0.184,-0.158 0,-0.263 -0.104,-0.21 -0.132,-0.315 -0.053,-0.315 0.053,-0.315 0.079,-0.263 0,-0.315 0,-0.263 -0.026,-0.263 0,-0.368 0.079,-0.263 0.21,-0.157 0.131,-0.263 0.053,-0.263 0,-0.263 -0.131,-0.211 -0.211,-0.21 -0.131,-0.263 0,-0.21 0.131,-0.158 0.237,-0.053 0.104,-0.263 -0.053,-0.263 -0.131,-0.21 -0.21,-0.263 -0.132,-0.21 -0.053,-0.263 0.053,-0.315 0.079,-0.315 0.21,-0.368 0.342,-0.525 0.289,-0.474 0.21,-0.367 0.079,-0.315 0.499,-0.631 0.236,-0.21 0,-0.053 0.158,-0.21 0.184,-0.158 0.263,-0.21 0.079,-0.315 0.105,-0.473 0.104,-0.474 0.105,-0.473 0.026,-0.315 0.104,-0.368 0.158,-0.367 0.184,-0.315 0.211,-0.368 0.052,-0.315 0,-0.368 0.079,-0.42 0.21,-0.315 0.421,-0.421 0.394,-0.157 0.553,-0.053 0.446,-0.21 0.342,-0.263 0.289,-0.105 0.342,-0.053 0.341,0 0.289,0.053 0.211,0.263 0.184,0.315 0.158,0.368 0.131,0.315 0.158,0.315 0.131,0.157 0.263,0.053 0.342,-0.105 0.342,-0.157 0.342,-0.158 0.157,-0.21 0,-0.21 -0.157,-0.263 0,-0.211 0.052,-0.21 0.289,-0.315 0.289,-0.315 0.211,-0.263 0.236,-0.157 0.236,-0.263 0.263,-0.315 0.236,-0.315 0.237,-0.263 0.157,-0.315 0,-0.315 -0.105,-0.157 -0.289,-0.105 -0.289,-0.053 -0.21,-0.157 -0.184,-0.368 -0.105,-0.315 -0.105,-0.315 -0.078,-0.263 0,-0.263 0.078,-0.421 0.158,-0.367 0.184,-0.315 0.053,-0.263 -0.184,-0.315 -0.158,-0.315 -0.131,-0.368 -0.105,-0.368 -0.236,-0.42 -0.263,-0.421 -0.132,-0.263 -0.104,-0.315 0,-0.315 0.104,-0.263 0.236,-0.263 0.289,-0.263 0.395,-0.368 0.342,-0.314 0.342,-0.368 0.289,-0.263 0.315,-0.421 0.131,-0.263 0.105,-0.21 0,-0.315 -0.105,-0.263 -0.131,-0.368 -0.211,-0.42 -0.341,-0.684 -0.289,-0.525 -0.053,-0.474 -0.053,-0.315 0.053,-0.263 0.157,-0.367 0.132,-0.263 0.21,-0.368 0.236,-0.263 0.185,-0.263 0.21,-0.315 0.053,-0.263 0,-0.315 0,-0.263 0.052,-0.263 0.132,-0.315 0.263,-0.263 0.236,-0.263 0.289,-0.264 0.236,-0.157 0.315,-0.21 0.236,-0.211 0.237,-0.263 0.21,-0.104 0.236,-0.105 0.289,-0.21 0.21,-0.263 0.132,-0.315 0.236,-0.263 0.21,-0.263 0.158,-0.368 -0.053,-0.21 0,-0.263 0.079,-0.315 0.104,-0.315 0.211,-0.368 0.289,-0.368 0.289,-0.315 0.289,-0.263 0.236,-0.21 0.315,-0.263 0.236,-0.263 0.236,-0.158 0.289,-0.157 0.315,-0.157 0.236,-0.158 0.185,-0.21 0.314,-0.263 0.342,-0.211 0.342,-0.157 0.289,-0.21 0.236,-0.263 0.289,-0.315 0.21,-0.263 0.185,-0.315 0.104,-0.315 0.158,-0.315 0.131,-0.315 0.289,-0.315 0.315,-0.263 0.342,-0.315 0.236,-0.315 0.237,-0.315 0.21,-0.42 0.079,-0.474 0,-0.42 -0.026,-0.368 -0.053,-0.368 -0.053,-0.315 -0.105,-0.314 -0.052,-0.315 -0.079,-0.315 -0.053,-0.263 -0.105,-0.315 -0.052,-0.315 0,-0.315 -0.053,-0.421 -0.053,-0.367 0,-0.368 -0.026,-0.263 -0.053,-0.368 -0.104,-0.368 -0.105,-0.314 -0.105,-0.264 -0.131,-0.263 -0.105,-0.315 0,-0.21 0.105,-0.21 0.131,-0.421 0.053,-0.21 -0.053,-0.263 -0.236,-0.315 -0.289,-0.42 -0.157,-0.368 -0.079,-0.421 -0.105,-0.42 -0.053,-0.421 -0.052,-0.42 -0.105,-0.368 -0.079,-0.473 0,-0.526 -0.053,-0.42 0,-1.419 0.053,-0.421 0.132,-0.367 0.21,-0.421 0.236,-0.315 0.211,-0.368 0.236,-0.367 0.236,-0.474 0.263,-0.315 0.342,-0.315 0.289,-0.157 0.289,-0.263 0.394,-0.368 0.342,-0.42 0.395,-0.474 0.289,-0.42 0.289,-0.315 0.342,-0.368 0.289,-0.315 0.342,-0.367 0.394,-0.421 0.342,-0.263 0.395,-0.21 0.446,-0.158 0.395,-0.21 0.184,-0.21 0.21,-0.211 0.185,-0.315 0.263,-0.367 0.184,-0.368 0.342,-0.473 0.289,-0.578 0.21,-0.368 0.185,-0.421 0.21,-0.473 0.342,-0.631 0.289,-0.525 0.236,-0.42 0.21,-0.421 0.184,-0.315 0.289,-0.368 0.158,-0.315 0.184,-0.367 0.211,-0.368 0.341,-0.315 0.289,-0.21 0.342,-0.263 0.342,-0.263 0.289,-0.315 0.395,-0.368 0.394,-0.315 0.395,-0.21 0.395,-0.105 0.446,-0.053 0.395,-0.104 0.394,-0.158 0.395,-0.157 0.42,-0.158 0.447,-0.157 0.236,-0.158 0.157,-0.21 0.053,-0.315 0,-0.315 0,-0.473 0.053,-0.473 0.105,-0.421 0,-0.473 0.026,-0.421 0.104,-0.42 0.211,-0.315 0.289,-0.263 0.236,-0.105 0.236,-0.157 0.21,-0.263 0.132,-0.315 0,-0.421 -0.079,-0.263 -0.157,-0.368 -0.105,-0.42 -0.026,-0.368 0.026,-0.368 0.105,-0.367 0.157,-0.368 0.132,-0.315 0.104,-0.368 0.053,-0.42 0,-0.421 0,-0.368 0.157,-0.473 0.132,-0.368 0.21,-0.367 0.289,-0.263 0.236,-0.211 0.395,-0.21 0.395,-0.21 0.394,-0.105 0.342,-0.053 0.395,-0.053 0.394,0 0.421,0 0.368,-0.157 0.236,-0.263 0.236,-0.158 0.289,-0.052 0.342,0 0.395,0.052 0.446,0.158 0.499,0 0.421,0 0.394,0 0.447,-0.053 0.446,-0.105 0.395,-0.104 0.395,-0.21 0.289,-0.211 0.289,-0.263 0.21,-0.263 0.184,-0.263 0.053,-0.263 0.053,-0.315 0,-0.368 0,-0.367 0.053,-0.368 0.078,-0.421 0.105,-0.367 0.053,-0.368 0,-0.315 -0.053,-0.421 0,-0.473 0,-0.368 0.053,-0.42 0.053,-0.368 0,-0.368 0.052,-0.367 0.079,-0.368 0.105,-0.368 0.104,-0.42 0.053,-0.474 0.079,-0.367 0.157,-0.421 0.211,-0.421 0.184,-0.367 0.184,-0.211 0.211,-0.314 0.289,-0.315 0.289,-0.211 0.289,-0.157 0.263,-0.105 0.342,-0.21 0.236,-0.21 0.236,-0.315 0.21,-0.263 0.158,-0.263 0.131,-0.263 0.158,-0.263 0.131,-0.211 0.289,-0.263 0.263,-0.157 0.342,-0.158 0.289,-0.21 0.289,-0.21 0.289,-0.263 0.315,-0.263 0.289,-0.264 0.236,-0.314 0.289,-0.264 0.263,-0.263 0.289,-0.263 0.289,-0.473 0.289,-0.473 0.552,-1.052 0.526,-1.104 0.893,-0.999 0.867,-0.998 1.183,-1.156 1.025,-0.788 0.894,-0.263 1.077,-0.368 0.788,-0.578 0.763,-0.894 0.998,-0.999 0.736,-0.893 0.42,-0.526 0.395,-0.315 0.656,-0.157 0.342,-0.315 0.026,-0.263 -0.131,-0.263 -0.342,-0.263 -0.236,-0.263 -0.053,-0.631 -0.158,-0.525 0.053,-0.421 0.236,-0.157 0.395,-0.315 0.604,-0.21 0.289,-0.421 0,-0.263 -0.105,-0.894 -0.104,-0.525 0.104,-0.473 0.342,-0.474 0.105,-0.631 0,-0.63 0.078,-0.631 0.263,-0.684 0.342,-0.368 0.289,-0.473 0.395,-0.473 0.184,-0.578 -0.026,-0.526 0.026,-0.367 0.263,-0.211 0.237,-0.052 0.104,-0.368 -0.053,-0.315 -0.104,-0.42 -0.185,-0.421 -0.21,-0.999 0,-0.473 0.053,-0.368 0.21,-0.525 0.342,-0.788 0.342,-0.894 0.079,-0.421 -0.026,-0.314 -0.211,-0.368 0,-0.263 0.211,-0.263 0.341,-0.263 0.342,-0.211 0.053,-0.263 0,-1.156 0.342,-0.788 0.631,-0.473 1.366,-0.368 1.445,-0.263 1.419,-0.315 0.894,-0.525 0.788,-0.578 0.315,-0.578 0,-0.263 -0.157,-0.736 0,-0.473 0.157,-0.841 0.21,-0.474 0.631,-0.473 0.525,-0.21 0.684,-0.053 4.152,-0.421 0.841,0.368 1.839,1.051 1.63,0.999 3.573,1.787 2.313,1.472 0.946,0.367 2.05,1.052 2.47,1.366 4.835,2.681 1.683,0.894 3.469,1.629 1.313,0.735 1.472,0.842 0.894,0.525 1.104,0.525 0.999,0.473 1.261,0.736 0.946,0.525 1.944,1.156 0.315,0.21 3.416,1.84 1.156,0.631 0,0 0.21,0.104 2.522,1.262 1.683,0.841 0.263,0.105 1.156,0.683 1.313,0.631 0.315,0.157 0.21,0.631 0.263,0.158 0.684,0.525 0.684,0.473 0.42,0.158 1.104,0.578 1.314,0.578 0.053,0 0.263,0.42 0.841,0.525 0.42,0.105 1.893,1.104 2.102,1.314 0.999,0.578 1.156,0.841 0.42,0.263 0.158,0.104 1.84,1.156 2.364,1.472 0.789,0.421 1.313,0.735 0.315,0.158 0.263,0.157 0.841,0.368 0.105,0 2.417,0.894 2.208,1.051 0.157,0.053 0.053,0.053 1.84,0.735 2.26,0.999 0.315,0.104 0,0 0,-0.314 0,-0.474 0,-0.631 -0.263,-0.473 -0.368,-0.525 -0.473,-0.368 -0.578,-0.42 -0.526,-0.526 -0.263,-0.525 0,-0.525 -0.104,-0.157 -0.474,-0.105 -0.631,-0.158 -0.473,-0.367 -0.578,-0.525 -0.525,-0.421 -0.473,-0.684 -0.053,-0.525 0.053,-0.631 0.314,-0.578 0.631,-0.42 0.736,-0.263 0.894,-0.21 0.735,-0.053 0.684,-0.105 0.683,-0.21 0.684,-0.315 0.684,-0.368 0.683,-0.263 0.474,-0.315 0.42,-0.473 0.21,-0.315 0,-0.473 0,-0.578 -0.052,-0.578 0,-0.789 -0.264,-1.366 -0.21,-0.473 -0.263,-0.421 -0.368,-0.525 -0.525,-0.525 -0.42,-0.421 -0.421,-0.631 -0.473,-0.525 -0.368,-0.631 -0.21,-0.63 0.053,-0.684 0.42,-0.684 0.578,-0.683 0.263,-0.315 0.21,-0.263 0.474,-0.421 0.525,-0.578 0.735,-0.42 0.789,0.157 0.683,0.263 0.474,0.105 0.42,-0.105 0.578,-0.368 0.631,-0.42 0.631,-0.473 0.946,-0.631 0.315,-0.474 1.156,-1.366 0.578,-0.473 0.735,-0.421 0.525,-0.473 0.578,-0.473 0.525,-0.631 0.158,-0.421 0,-0.525 -0.053,-0.788 -0.053,-0.368 -0.053,-0.42 -0.157,-0.474 -0.315,-0.263 -0.578,-0.315 -0.473,-0.473 -0.053,-0.631 0.368,-0.631 0.42,-0.525 0.421,-0.631 0.21,-0.788 0.104,-0.736 0.158,-1.104 0.105,-0.735 0.157,-0.684 0.525,-1.156 0.525,-0.63 0.578,-0.631 0.631,-0.63 0.421,-0.631 0.315,-0.631 0.157,-0.683 0.473,-0.63 0.631,-0.578 0.788,-0.315 1.367,-0.158 0.735,0 0.684,0 0.525,0 0.578,-0.263 0.473,-0.315 0.315,-0.263 0.263,-0.42 0.105,-0.526 0.21,-0.683 0.211,-0.736 0.21,-0.578 0.263,-0.631 0.105,-0.63 0,-2.103 0,-0.578 0.367,-0.473 0.421,-0.368 0.578,-0.368 0.42,-0.368 0.421,-0.683 0.315,-0.788 0.263,-0.841 0.21,-0.736 0.315,-0.893 0.315,-0.631 0.473,-0.631 0.789,-0.525 0.578,-0.368 0.473,-0.42 0.105,-0.158 0,-0.42 -0.368,-0.578 -0.263,-0.631 0,-0.841 0,-0.683 -0.053,-0.421 -0.368,-0.525 -0.157,-0.894 0,-0.736 0,-0.788 0.053,-0.894 0.157,-0.736 0.315,-0.578 0.157,-0.105 0.368,-0.368 0.578,-0.473 0.631,-0.368 0.735,-0.158 0.421,-0.105 0.315,-0.263 0.315,-0.473 0.21,-0.525 0.21,-0.578 0.578,-0.473 1.104,-0.894 0.474,-0.368 0.525,-0.42 0.42,-0.42 0.474,-0.42 0.473,-0.42 0.474,-0.42 0.525,-0.368 0.525,-0.158 1.472,0 0.42,-0.052 0.421,-0.21 0.525,-0.263 0.473,-0.42 0.368,-0.42 0.368,-0.526 0.315,-0.473 0.104,-0.473 0,-0.999 -0.21,-0.368 -0.21,-0.315 -0.473,-0.473 -0.158,-0.789 0.21,-0.578 0.315,-0.63 0.105,-0.21 -0.21,-0.473 -0.158,-0.63 0.105,-0.789 0.683,-0.473 0.474,-0.158 0.263,-0.368 0.053,-0.473 -0.053,-0.315 -0.841,-2.103 -0.578,-1.156 -0.158,-0.578 0,-0.736 0.158,-0.525 0.42,-0.473 0.841,-0.736 0.684,-0.525 0.894,-0.841 0.684,-0.683 0.42,-0.42 0.315,-0.368 0.053,-0.263 -0.053,-1.629 0.053,-0.841 0.368,-0.578 0.42,-0.315 0.578,-0.368 0.421,-0.42 0.525,-0.42 0.735,-0.315 0.736,-0.158 0.578,-0.105 0.735,-0.053 0.684,-0.053 0.473,-0.263 0.368,-0.158 0.315,-0.368 0,0 0.157,-0.263 0.053,-0.158 -0.105,-0.158 -0.315,-0.315 -0.42,-0.42 -0.421,-0.525 -0.473,-0.684 -0.368,-0.63 -0.21,-0.631 -0.157,-0.63 -0.053,-0.631 0,-0.525 0,-0.578 0.157,-0.578 0.263,-0.684 0.263,-0.683 0.105,0.053 0.157,0.052 0.105,0.053 0.158,0.105 2.627,1.209 1.945,1.156 1.734,0.946 1.523,0.736 7.2,3.469 6.938,4.1 10.196,4.572 1.734,0.788 11.563,4.993 1.734,0.788 2.838,1.419 2.26,0.946 0.21,0.105 5.151,2.26 3.258,0.946 3.942,1.682 1.786,0.578 1.314,0.526 1.313,0.578 0.841,0.263 0.368,0.158 0.421,-0.105 1.892,-0.315 1.682,-0.42 1.682,-0.368 1.419,-0.578 0.999,-0.683 1.366,-0.789 0.841,-0.683 0.894,-1.629 0.421,0.21 0.841,0.368 0.631,0.263 0.945,0.473 0.999,0.42 0.315,0.158 0.631,0.263 0.841,0.315 1.051,0.368 0.946,0.315 0.788,0.421 0.841,0.473 0.684,0.263 0.525,0.315 0.684,0.263 0.63,0.315 0.841,0.315 0.631,0.263 0.105,0.105 0.263,0.21 0.105,0.053 0.683,0.42 0.946,0.42 0.105,0.053 0.42,0.525 0.368,0.42 0.525,0.63 0.315,0.421 0.578,0.735 0.684,0.789 0.578,0.631 0.525,0.368 0.367,0.105 0.315,0.158 0.053,0.053 0.999,0.42 0.945,0.473 0.474,0.158 0.945,0.473 0.789,0.473 0.998,0.42 0.525,0.315 0.789,0.368 0.104,0.053 0.789,0.42 0.683,0.263 0.736,0.42 0.525,0.263 0.105,0.052 0.998,0.315 0.788,0.21 0.684,0.105 0.525,0.052 0.21,0.053 0.631,0 0.788,0.105 0.842,0.053 0.735,0.053 0.421,0.105 0.735,0.052 1.104,0 0.841,1.051 0.578,0.736 1.052,0.789 0.998,0.473 0.525,0.105 0.211,0.21 0.104,0.105 0.525,0.946 0.684,0.105 0.735,0.158 0.894,0.473 0.105,0.052 0.841,0.736 0.631,0.631 0.473,0.263 0.421,0.368 0.368,-0.053 1.313,-0.315 0.998,-0.053 0.684,0.526 1.209,0.736 1.576,1.104 1.524,1.104 0.315,0.158 4.1,2.208 1.524,0.946 0.21,0.158 0.21,0.105 0.158,0.158 1.051,0.683 3.837,2.049 1.944,0.473 0.841,0.473 2.522,1.419 0.421,0.21 3.258,1.208 2.313,-2.628 1.052,-1.156 0.578,-1.156 0,-0.053 -0.578,-3.311 0.104,-0.473 0.315,-0.683 0,0 0.474,-1.209 1.104,-2.47 0.157,-0.42 0.736,-1.524 0.21,-1.524 0.053,-0.578 0.263,-1.682 0.368,-0.894 0.893,-2.207 0.421,-0.999 0.525,-1.787 0.421,-1.366 0.315,-0.894 0.367,-1.629 0,0 0.578,-2.522 0.474,-2.26 0.263,-1.261 0.42,-1.367 0.421,-1.366 0.157,-0.42 0,-0.053 0.315,-0.999 0.368,-1.156 0.21,-0.525 0.105,-0.263 0.157,-0.473 0.578,-1.314 0.631,-1.051 0.315,-0.788 0.053,-0.105 0.21,-0.736 0,-0.473 0.105,-1.209 0.525,-1.944 0.368,-1.314 0.315,-1.261 0.052,-0.263 0.211,-0.789 0.052,-0.105 0.211,-1.262 0.315,-1.261 0.052,-0.052 -0.473,-0.368 -0.263,-0.841 0.053,-0.788 0.42,-0.789 0.421,-0.315 0.368,-0.315 0.157,-0.158 0.473,-0.21 0.474,-0.473 0.473,-0.473 0.788,-0.841 0.526,-0.788 0.21,-0.526 0.105,-0.63 -0.264,-0.473 -0.263,-0.158 -0.525,-0.158 0,0 0.053,-0.21 0.105,-0.263 0,-0.158 0.473,-2.47 0.525,-1.156 0.525,-1.524 0.105,-0.315 0.263,-0.684 0.263,-0.946 0.421,-1.104 0.157,-0.368 0.525,-1.366 0.368,-1.209 0.21,-0.42 0.158,-0.473 0.263,-0.683 1.472,-2.838 0.735,-2.733 0.841,-2.891 0.105,-0.526 0.946,-4.257 0.052,-0.105 0.841,-2.89 0.368,-1.314 0.21,-0.684 0.842,-3.153 0.945,-2.996 1.997,0.578 4.047,1.314 3.837,1.051 2.996,0.683 1.208,0.21 1.787,0.421 0.946,0.105 3.469,0.946 2.365,1.051 2.26,0.736 0.946,0.21 0.525,0.105 1.472,0.63 0.735,0.21 0.841,0.053 0.421,-0.053 0.63,-0.105 0.264,-0.053 0,-0.158 -0.315,-2.943 -0.263,-0.473 -0.264,-0.578 -0.263,-0.42 -0.367,-0.526 -0.421,-0.683 -0.315,-0.525 -0.263,-0.526 -0.315,-0.525 -0.315,-0.525 -0.42,-0.473 -0.368,-0.473 -0.315,-0.42 -0.104,-0.578 0.052,-0.578 0.211,-0.525 0.367,-0.526 0.368,-0.473 0.525,-0.526 0.841,-0.578 0.894,-0.368 0.578,-0.263 0.684,-0.683 0.525,-1.051 0.368,-0.473 0.315,-0.473 0.473,-0.473 0.315,-0.42 0.157,-0.736 0,-0.473 0.158,-0.525 0.42,-0.368 0.526,-0.315 0.735,-0.368 0.578,-0.368 0.421,-0.368 0.42,-0.368 0.578,-0.315 1.734,0.053 0.788,0 0.736,0.105 0.735,0.105 0.684,0.105 0.735,0.21 0.894,0.105 0.788,0.315 0.684,0.368 0.788,0.42 0.631,0.21 0.631,0.21 0.684,0.105 0.525,0 0.525,-0.315 0.42,-0.42 0.368,-0.578 0.474,-0.42 0.578,-0.368 0.735,-0.368 0.894,-0.368 0.631,-0.315 0.631,-0.473 0.683,-0.525 0.474,-0.473 0.578,-0.578 0.525,-0.525 0.42,-0.578 0.421,-0.526 0.315,-0.525 0.315,-0.578 0.157,-0.578 0.053,-2.733 0,-0.736 -0.105,-0.578 -0.053,-0.525 0,-0.684 0.264,-0.525 0.42,-0.525 0.158,-0.526 0,-2.417 0,-0.578 0.367,-0.578 0.368,-0.525 0.157,-0.368 0,-0.578 -0.21,-0.788 -0.42,-0.789 -0.263,-0.946 -0.315,-0.841 -0.368,-0.894 -0.263,-0.841 -0.21,-0.736 -0.264,-0.578 -0.735,-0.789 -0.525,-0.63 -0.525,-0.894 -0.631,-0.683 -0.474,-0.473 -0.42,-0.736 0,-0.789 -0.053,-0.683 -0.053,-0.42 0.053,-0.525 0.315,-1.156 0.21,-0.578 0.211,-0.473 0.367,-0.578 0.263,-0.42 0.474,-0.631 0.367,-0.42 0.526,-0.42 0.473,-0.368 0.368,-0.315 0.578,-0.263 0.473,-0.263 0.473,-0.263 0.421,-0.315 0.315,-0.526 0.053,-0.368 0.315,-0.42 0.525,-0.315 0.525,-0.263 0.42,-0.368 0.421,-0.525 0.21,-0.473 0.368,-0.525 0.525,-0.368 0.684,-0.42 0.735,-0.525 0.578,-0.42 0.315,-0.42 0.105,-0.525 0.053,-0.684 0.104,-0.683 0.105,-0.578 0.053,-0.578 0.052,-0.525 0.053,-0.526 0,-0.557 -0.157,-0.525 -0.053,-0.526 0.157,-0.42 0.474,-0.42 0.525,-0.473 0.525,-0.368 0.684,-0.368 0.473,-0.315 0.421,-0.473 0.367,-0.42 0.421,-0.368 0.473,-0.052 0.526,0 0.367,-0.105 0.315,-0.421 0.421,-0.42 0.42,-0.473 0.368,-0.368 0.421,-0.42 0.42,-0.42 0.525,-0.368 0.631,-0.368 0.736,-0.105 0.42,-0.42 0.315,-0.578 0.263,-0.526 0.105,-0.578 0.104,-0.525 0,-0.477 -0.263,-0.473 -0.367,-0.368 -0.158,-0.368 -0.21,-0.42 0.053,-0.473 0.315,-0.473 0.052,-0.42 -0.104,-0.578 -0.105,-0.42 -0.105,-0.525 -0.367,-0.526 -0.211,-0.42 -0.21,-0.525 -0.053,-0.631 -0.104,-0.63 -0.053,-0.736 -0.105,-0.578 0,-0.578 0,-0.736 0.263,-0.894 0.158,-0.683 0.053,-0.631 0,-0.736 0,-1.156 -0.053,-0.368 -0.315,-0.525 -0.158,-0.315 0,-0.42 0.264,-0.42 0.525,-0.368 0.683,-0.315 0.736,-0.263 0.631,-0.158 0.788,-0.21 0.735,-0.263 0.684,-0.21 0.578,-0.263 0.946,-0.368 0.473,-0.263 0.894,-0.525 0.42,-0.368 0.368,-0.473 0.158,-0.42 0.104,-0.684 0,-0.525 0.053,-0.736 0.053,-0.473 0.157,-0.683 0.105,-0.683 0,-1.734 0.578,-1.314 0.473,-0.736 0.789,-0.63 0.998,-0.368 1.366,-0.053 0.526,-0.052 0.42,-0.053 0.263,-0.052 0.525,0.052 0.684,0.053 0.735,0.052 0.368,0.053 0.263,0.053 0.421,0.105 0.263,0.21 0.105,0.105 0.104,0.158 0.105,0.158 0.157,0.105 0.263,0.105 0.158,0 0.21,0.053 0.21,0 0.158,0 0.157,-0.158 0,-0.21 0,-0.315 -0.053,-0.315 -0.104,-0.526 -0.053,-0.368 -0.157,-0.315 -0.211,-0.315 -0.263,-0.368 -0.157,-0.21 -0.211,-0.263 -0.104,-0.21 -0.105,-0.21 -0.053,-0.263 0,-0.158 0,-0.21 0.105,-0.263 0.421,-0.368 0.314,-0.315 0.421,-0.21 0.578,-0.263 0.421,-0.263 0.525,-0.42 0.367,-0.315 0.315,-0.368 0.105,-0.263 0.157,-0.526 0.211,-0.736 0.052,-0.368 0.105,-0.42 0.053,-0.42 0,-0.263 0.053,-0.263 0,-0.21 0.053,-0.368 0,-0.42 -0.053,-0.315 0.053,-0.263 0.052,-0.368 0.105,-0.21 0.263,-0.368 0.105,-0.21 0,-0.158 0.104,-0.578 0,-0.63 0.053,-0.631 0,-0.21 0.053,-0.42 0.053,-0.315 0.21,-0.368 0.053,-0.158 0.157,-0.21 0.158,-0.158 0.683,-0.263 0.789,-0.315 1.261,-0.683 0.474,-0.368 0.42,-0.263 0.684,-0.263 0.683,-0.21 0.315,-0.158 0.631,-0.263 0.368,-0.158 0.21,-0.21 0.368,-0.263 0.21,-0.263 0.21,-0.315 0.264,-0.158 0.263,0.052 0.263,0.053 0.21,0.315 0.263,0.473 0.263,0.525 0.263,0.315 0.263,0.263 0.368,0.21 0.315,0.21 0.263,0.053 0.263,-0.053 0.263,-0.105 0.211,-0.21 0.157,-0.21 0.157,-0.21 0.315,-0.368 0.158,-0.105 0.21,-0.158 0.158,-0.052 0.42,-0.158 0.315,-0.053 0.21,0 0.421,0.053 0.21,0.053 0.368,0.105 0.263,0.052 0.473,0.315 0.315,0.263 0.315,0.21 0.157,0.105 0.211,0.315 0.21,0.21 0.578,0.315 0.525,0.21 0.263,0.105 0.368,0.053 0.315,0 0.42,-0.105 0.263,-0.158 0.158,-0.158 0.263,-0.21 0.21,-0.315 0.158,-0.525 0.104,-0.263 0.158,-0.21 0.263,-0.21 0.263,-0.158 0.421,-0.21 0.263,-0.21 0.157,-0.158 0.158,-0.21 0.104,-0.21 0,-0.21 0,-0.999 0,-0.788 0,-0.368 -0.053,-0.473 -0.104,-0.525 -0.158,-0.368 -0.157,-0.526 -0.158,-0.42 -0.367,-0.42 -0.315,-0.368 -0.263,-0.315 -0.578,-0.473 -0.421,-0.315 -0.315,-0.21 -0.42,-0.315 -0.631,-0.263 -0.421,-0.263 -0.263,-0.158 -0.157,-0.105 -0.158,-0.21 -0.157,-0.263 -0.053,-0.158 -0.053,-0.263 0,-0.21 0.053,-0.158 0.053,-0.105 0.053,-0.105 0.052,-0.105 0.211,-0.315 0.21,-0.105 0.421,-0.158 0.735,-0.105 0.421,-0.052 0.263,0.052 0.525,0.105 0.42,0.158 0.211,0.105 0.473,0.42 0.578,0.525 0.473,0.21 0.474,0.21 0.315,0.105 0.367,0 0.474,-0.052 0.367,-0.105 0.421,-0.158 0.473,-0.158 0.315,-0.315 0.263,-0.263 0.158,-0.315 0.104,-0.21 0.053,-0.421 0.053,-0.052 0,-0.368 0.105,-0.315 0,-0.263 0.053,-0.525 0,-0.42 0.052,-0.263 0.368,-0.526 0.263,-0.21 0.421,-0.21 0.788,-0.105 0.473,0 0.684,0.21 0.21,0.157 0.211,0.263 0.473,0.21 0.21,0.158 0.21,0.105 0.158,0.105 0.998,1.892 0.158,0.42 0.157,0.158 0.158,0.052 0.21,0.105 0.053,0.105 0.104,0.105 0.368,0.525 0.21,0.315 0.421,0.631 0.157,0.21 0.211,0.263 0.104,0.105 0.315,0.158 0.315,0.105 0.263,-0.053 0.158,-0.21 0.263,-0.578 0.263,-0.578 0.157,-0.473 0.158,-0.473 0.263,-0.42 0.21,-0.315 0.263,-0.157 0.474,-0.263 0.735,-0.263 0.368,-0.158 0.525,-0.21 0.21,-0.263 0.105,-0.263 0.053,-0.21 0.104,-0.473 0.053,-1.104 0.105,-1.209 0.053,-0.525 0,-0.263 0.104,-0.158 0.158,-0.263 0.21,-0.157 0.21,-0.158 0.21,-0.053 0.264,0 0.367,0.053 0.263,0.105 0.421,0.158 0.578,0.525 0.315,0.263 0.735,0.631 0.421,0.683 0.21,0.315 0.158,0.368 0.42,0.946 0.263,0.578 0.21,0.525 0.315,0.315 0.474,0.315 0.315,0.052 0.42,0 0.684,0 0.578,-0.052 0.683,0.052 0.421,0 0.368,-0.105 0.21,-0.158 0.21,-0.473 0.105,-0.684 0,-0.841 0.053,-0.894 -0.105,-1.051 0,-0.21 -0.053,-0.525 0,-0.263 -0.053,-0.21 0.053,-0.263 0.053,-0.21 0.105,-0.158 0.42,-0.263 0.578,-0.21 0.421,-0.105 0.63,-0.21 0.474,-0.053 0.368,-0.158 0.104,-0.105 0.158,-0.053 0.104,-0.157 0,-0.158 -0.053,-0.315 -0.157,-0.631 -0.157,-0.578 -0.053,-0.525 0,-0.999 0.053,-0.263 0,-0.315 0.104,-0.525 0.105,-0.158 0.104,-0.105 0.158,-0.105 0.578,-0.473 0.631,-0.368 0.631,-0.315 0.263,-0.21 0.263,-0.421 0.104,-0.315 0.158,-0.21 0.473,-0.368 0.315,-0.473 0.368,-0.42 0.42,-0.315 0.368,-0.42 0.263,-0.368 0.263,-0.368 0.211,-0.42 0.052,-0.42 0.211,-0.473 0.157,-0.473 0.053,-0.315 0,-0.315 -0.105,-0.21 -0.157,-0.158 -0.105,-0.157 -0.104,-0.105 -0.368,-0.263 -0.158,-0.105 -0.157,-0.105 -0.105,-0.105 -0.157,-0.158 -0.105,-0.105 -0.157,-0.263 -0.053,-0.263 0.053,-0.263 0.053,-0.158 0.104,-0.368 0.158,-0.263 0.21,-0.368 0.315,-0.21 0.578,-0.263 0.998,-0.42 0.841,-0.42 0.421,-0.158 0.263,-0.105 0.105,-0.21 0.053,-0.21 0.052,-0.21 0,-0.368 0,-0.21 -0.104,-0.315 -0.105,-0.315 -0.263,-0.368 -0.525,-0.578 -0.474,-0.368 -0.263,-0.263 -0.42,-0.263 -0.525,-0.315 -0.631,-0.525 -0.315,-0.368 -0.158,-0.42 -0.157,-0.473 -0.157,-0.42 0,-0.315 0,-0.263 0.104,-0.368 0.105,-0.315 0.21,-0.315 0.315,-0.315 0.368,-0.263 0.367,-0.157 0.315,-0.053 0.315,0.053 0.368,0.105 0.315,0.105 0.368,0.105 0.263,0.053 0.263,0.105 0.525,0.21 0.368,0 0.315,0.052 0.315,0 0.314,0 0.526,0 0.315,-0.052 0.525,-0.21 0.157,-0.158 0.21,-0.21 0.158,-0.21 0.053,-0.157 -0.158,-0.263 -0.315,-0.21 -0.473,-0.315 -0.368,-0.158 -0.21,-0.158 -0.421,-0.158 -0.21,-0.315 -0.368,-0.315 -0.314,-0.473 -0.105,-0.105 -0.21,-0.473 -0.105,-0.368 -0.105,-0.42 -0.104,-0.42 0.42,-0.315 0.053,0.263 0.368,0.63 0.368,0.578 0.841,0.894 0.157,0.158 0.263,0.053 0.315,0.052 0.315,-0.052 0.421,0.105 0.42,0.263 0.368,0.315 0.21,0.263 0.368,0.473 0.104,0.263 0.053,0.263 0,0.263 -0.104,0.315 -0.211,0.42 -0.42,0.42 -0.158,0.368 0,0.21 0.211,0.368 0.473,0.158 0.684,0 0.42,0.052 0.21,0.053 0.263,0.21 0.105,0.21 0,0.263 -0.053,0.263 -0.315,0.21 -0.42,0.42 -0.263,0.21 -0.263,0.473 -0.158,0.42 0.053,0.684 0.105,0.683 0.315,0.158 0.367,0.157 0.631,0.21 0.263,0.21 0.105,0.105 0.053,0.21 0.052,0.105 -0.052,0.263 -0.105,0.21 -0.053,0.263 -0.263,0.315 -0.473,0.631 -0.894,0.736 -0.105,0.158 -0.368,0.368 -0.21,0.315 -0.157,0.473 -0.105,0.42 0,0.578 0.053,0.21 0.105,0.21 0.263,0.21 0.21,0.473 0.21,0.315 0.315,0.315 0.473,0.42 0.631,0.736 0.053,0.158 -0.053,0.315 -0.263,0.421 -0.42,0.368 -0.474,0.315 -0.263,0.21 -0.263,0 -0.525,0 -0.473,0 -0.684,0 -0.525,0.263 -0.421,0.368 -0.21,0.368 0.053,0.315 0.053,0.263 0.315,0.421 0.42,0.683 1.051,1.261 0.368,0.578 0.315,0.841 0.473,1.156 -0.052,0.21 -0.578,1.577 -0.158,0.946 -0.104,0.526 -0.105,0.157 -0.36,0.203 -0.788,0.053 -0.263,0.052 -0.421,0.105 -0.21,0.105 -0.368,0.263 -0.367,0.368 -1.472,0.684 -0.789,0.315 -0.367,0.315 -0.158,0.263 -0.104,0.315 0.052,0.158 0,1.051 -0.052,0.263 -0.315,0.526 -0.158,0.263 -0.104,0.42 -0.105,0.893 0.053,0.315 0.157,0.263 0.21,0.421 0.053,0.263 0,0.473 0,0.315 -0.053,0.21 -0.21,0.315 -0.841,0.841 -0.525,0.473 -0.053,0.105 -0.684,2.102 -0.157,0.368 -0.263,0.263 -0.368,0.368 -1.051,0.683 -0.684,0.263 -0.368,0.158 -0.683,0.42 -0.421,0.315 -0.263,0.21 -0.841,1.892 -0.42,0.894 -0.264,0.63 -0.052,0.315 -0.158,0.105 -0.157,0.158 -0.368,0.315 -0.315,0.263 -0.263,0.158 -0.315,0.105 -0.21,0.105 -0.21,0.052 -0.158,0.053 -0.157,0.053 -0.368,0.052 -0.21,0.053 -0.105,0.105 -0.263,0.105 -0.21,0.21 -0.105,0.158 -0.157,0.158 -0.211,0.263 -0.21,0.263 -0.104,0.631 0.104,0.473 0.158,0.789 0.052,0.158 0,0.105 0,0.263 0,0.368 -0.052,0.263 0,0.263 0,0.263 0.104,0.789 0.263,0.946 0.053,0.21 0.053,0.053 0.578,0.315 0.105,0.053 0.104,0.105 0.158,0.105 0.157,0.105 0.315,0.263 0.157,0.473 0.158,0.21 0.105,0.263 0.21,0.315 0.42,0.21 0.578,0 0.578,-0.053 0.525,-0.21 0.631,-0.21 0.421,-0.105 0.368,-0.053 0.525,-0.052 0.473,-0.158 0.368,-0.105 0.21,-0.158 0.105,-0.315 0,-0.263 -0.053,-0.315 -0.158,-0.263 -0.21,-0.315 -0.263,-0.263 -0.157,-0.315 -0.315,-0.158 -0.525,-0.158 -0.264,-0.21 -0.21,-0.315 0,-0.157 0.368,-0.368 0.525,-0.158 0.421,0 0.42,0 0.368,0 0.525,0.105 0.631,0.158 0.578,-0.105 0.525,-0.105 0.368,-0.053 0.263,-0.052 0.525,-0.315 0.421,-0.526 0.104,-0.158 0.105,-0.105 0.21,-0.052 0.105,-0.053 0.263,0 0.263,-0.053 0.21,0 0.263,-0.052 0.158,0.052 0.157,0 0.053,0.053 0.158,0.053 0.263,0.21 0.157,0.42 0.315,0.315 0.368,0.263 0.42,0.158 0.474,0 0.473,-0.158 0.421,-0.21 0.21,-0.105 0.263,-0.105 0.473,-0.21 0.474,-0.263 0.42,-0.158 0.368,0.263 0.473,0.21 0.421,0.21 0.367,0.21 0.315,0.315 0.105,0.158 0.157,0.158 0.158,0.263 0.263,0.368 0.21,0.368 0.158,0.368 0.052,0.473 0.368,0.631 0.21,0.578 0.158,0.525 0.21,0.42 0.21,0.42 0.264,0.315 0.263,0.368 0.315,0.315 0.263,0.158 0.367,0 0.263,-0.052 0.421,0 0.263,0.105 0.105,-0.053 0.157,-0.315 0.158,-0.315 0.104,-0.158 -0.157,-0.263 -0.105,-0.578 0.053,-0.42 0,-0.368 -0.053,-0.683 -0.157,-0.368 -0.105,-0.368 -0.631,-1.104 -0.053,-0.473 0.264,-0.473 0.157,-0.841 0.053,-0.525 0.21,-0.368 0.105,-0.21 0.21,-0.105 0.263,-0.157 0.525,-0.263 0.525,0.053 0.578,0.315 0.526,0.42 0.735,0.42 0.578,0.368 0.736,0.315 0.263,0.158 0.367,0.105 0.526,0.263 0.367,0.158 0.474,-0.105 0.42,-0.105 0.474,-0.315 0.578,-0.473 0.314,-0.263 0.211,-0.105 0.367,-0.053 0.315,-0.052 0.263,-0.105 0.211,-0.21 0.104,-0.263 0.053,-0.368 0,-0.315 0,-0.578 0,-0.63 0,-0.315 0.105,-0.105 0.157,-0.105 0.105,0 0.315,-0.052 0.367,0.158 0.315,0.315 0.263,0.21 0.315,0.263 0.211,0.473 0.052,0.42 0,0.315 0,0.21 0,0.263 -0.157,1.156 -0.157,0.263 -0.105,0.263 -0.315,0.315 -0.421,0.42 -0.42,0.368 -0.315,0.263 -0.315,0.368 -0.053,0.788 -0.052,1.209 -0.053,0.789 0.053,0.578 0.314,0.368 0.368,0.158 0.368,0.21 0.525,0.263 0.684,0.421 0.735,0.21 0.368,0.053 0.367,0.052 0.421,0 0.421,-0.21 0.263,-0.315 0,-0.42 -0.053,-0.368 -0.053,-0.473 0,-0.473 0.053,-0.63 0.157,-1.367 0.315,-0.789 0.578,-0.525 0.841,0.263 0.421,0.578 0.21,0.473 0.105,0.473 0.053,0.42 0.052,0.42 0.315,-0.053 0.263,0 0.684,-0.052 0.631,0.158 0.368,0.157 0.42,0.158 3.259,1.524 1.313,0.946 0.474,0.525 0.367,0.473 0.368,0.736 0,0.053 -0.053,0.052 -0.42,0.263 -0.578,0.157 -0.684,0.053 -0.946,0 -0.052,0.053 -0.053,0 -0.474,0.158 -0.525,0.263 -0.263,0.263 0,0.315 0.368,0.105 0.841,0 0.684,0.105 0.314,0.105 0.315,0.105 0.421,0.42 0.42,0.42 0.158,0.263 0.105,0.315 0.314,0.631 0.053,0.63 0,0.736 0.105,0.684 0.315,0.368 0.473,0.105 0.946,0.158 0.894,0.368 0.578,0.473 0.631,0.263 0.788,0.473 0.525,0.631 0.578,0.999 0.315,0.683 0.104,0.789 0,0.525 0.105,0.789 0.158,0.735 0,0.946 0,0.578 0,0.368 0.104,0.526 0.21,0.21 0.158,0.21 0.315,0.315 0.368,0.263 0.314,0.263 0.315,0.21 0.368,0.368 0.473,0.63 0.474,0.158 0.263,0.105 0.263,-0.263 0,-0.263 -0.105,-0.578 -0.473,-0.578 -0.263,-0.315 -0.315,-0.315 -0.157,-0.21 -0.105,-0.263 0.053,-0.263 0.525,-0.21 0.578,-0.052 0.315,-0.368 0.525,-0.841 0.421,-0.631 0.525,-0.735 0.473,-0.578 0.263,-0.315 0,-0.315 -0.104,-0.578 -0.211,-0.525 0.105,-0.421 0.157,-0.263 0.211,-0.052 0.473,-0.21 0.631,-0.158 0.42,-0.105 0.211,-0.21 0.263,-0.473 0.367,-0.684 0.368,-0.736 0.263,-0.263 0.684,-0.578 0.368,-0.157 0.157,0.105 0.315,0.368 0.21,0.578 0.053,0.368 0,0.368 -0.053,0.368 -0.157,0.526 -0.105,0.525 -0.263,1.314 -0.053,0.789 0.105,0.368 0.315,0.368 0.315,0.157 0.578,-0.052 0.42,-0.21 0.368,-0.263 0.263,-0.315 0.21,-0.315 0.211,-0.21 0.525,-0.105 0.473,0 0.368,-0.105 0.315,-0.315 0.263,-0.105 0.683,-0.368 0.421,-0.105 0.315,0.052 0.21,0.21 0.053,0.263 0,0.263 -0.105,0.42 -0.157,0.526 0,0.368 0.263,0.368 0.735,0.736 0.999,0.894 0.788,0.631 0.788,0.683 0.946,0.683 0.525,0.42 0.368,0.158 0.421,0.053 0.315,-0.21 0.314,-0.21 0.264,-0.105 0.314,-0.105 0.578,0 0.578,0.105 0.736,0.21 0.631,0.315 0.263,-0.053 0.157,-0.105 0.053,0 0.105,-0.21 0.053,-0.158 -0.105,-0.578 -0.368,-0.946 -0.053,-0.42 -0.052,-0.525 -0.105,-0.999 0.053,-0.684 0.104,-0.368 0.263,-0.21 0.315,-0.158 0.315,0 0.421,0.105 0.578,0.105 0.263,0.053 0.157,-0.105 0.211,-0.368 0,-0.42 0.157,-0.473 0.105,-0.578 0.104,-0.42 0.158,-0.42 0.104,-0.683 0.158,-0.473 0.104,-0.42 0,-0.42 -0.052,-0.736 -0.105,-0.526 -0.21,-0.21 -0.263,-0.315 -0.368,-0.578 -0.368,-0.578 -0.473,-0.578 -0.421,-0.525 -0.525,-0.368 -0.578,-0.263 -0.263,-0.158 -0.315,-0.21 -0.21,-0.42 -0.158,-0.578 -0.052,-0.631 -0.053,-0.736 0.104,-0.368 0.158,-0.21 0.368,-0.105 0.42,-0.158 0.263,-0.21 0.053,-0.157 0.053,-0.315 -0.21,-0.473 -0.158,-0.683 -0.104,-0.683 0,-0.263 0.21,-0.368 0.315,-0.525 0.367,-0.631 0.211,-0.21 0.367,-0.263 0.368,-0.21 0.105,-0.158 0.157,-0.158 0.105,-0.368 0,-0.315 0.157,-0.21 0.368,-0.315 0.473,-0.315 0.578,-0.263 0.631,-0.263 0.578,-0.263 0.21,-0.263 0.105,-0.42 -0.053,-0.21 0,-0.21 -0.21,-0.263 -0.105,-0.315 -0.525,-0.263 -0.263,-0.053 -0.473,0.053 -0.315,0.052 -0.368,-0.052 -0.315,-0.21 -0.157,-0.158 -0.053,-0.42 0.157,-0.42 0.211,-0.525 0.263,-0.841 0.367,-0.263 0.894,-0.473 0.789,-0.42 0.525,0 1.313,0.053 0.841,0 0.315,-0.158 0.368,-0.158 0.368,-0.525 0.21,-0.578 0,-0.263 0,-0.263 -0.578,-0.525 -1.156,-1.104 -0.473,-0.473 -0.736,-0.789 -0.42,-0.105 -0.789,0.158 -0.735,0.053 -0.788,0.053 -0.578,-0.053 -0.631,-0.158 -0.684,-0.315 -0.683,-0.263 -0.158,-0.158 -0.157,-0.368 0,-0.263 0.21,-0.263 0.157,-0.21 0.368,-0.684 0.053,-0.368 -0.315,-0.525 -0.578,-0.21 -0.894,-0.158 -0.263,-0.158 -0.105,-0.473 0.211,-0.631 0.578,-0.42 0.788,-0.263 0.263,-0.21 0.053,-0.315 -0.105,-0.21 -0.104,-0.263 -0.684,-0.946 -0.263,-0.788 -0.21,-0.841 -0.263,-0.526 -0.842,-0.788 -0.578,-0.263 -0.525,-0.105 -0.894,-0.158 -0.263,-0.21 -0.21,-0.473 -0.21,-0.578 -0.315,-0.21 -0.525,-0.105 -0.474,-0.158 -0.788,-0.315 -0.21,-0.052 -0.211,-0.053 -0.263,0 -0.315,-0.052 -0.21,-0.053 -0.263,-0.315 -0.157,-0.315 -0.053,-0.263 0.21,-0.315 0.473,-0.21 0.368,-0.053 0.368,-0.368 0.21,-0.315 0.21,-0.105 0.211,0.052 0.21,0.053 0.315,0.105 0.263,0 0.21,-0.158 0.211,-0.158 0.21,-0.21 0.104,-0.158 0.053,-0.21 0.053,-0.263 0.315,-0.105 4.993,-1.524 0.157,-0.053 0.053,0.105 0.368,1.209 0.367,0.999 0.158,0.315 0.473,0.841 0.684,1.104 0.525,0.946 0.525,0.893 0.158,0.263 0.104,0.263 0.368,0.473 0.368,0.473 0.367,0.368 0.474,0.473 0.525,0 0.525,0 0.525,0.105 0.474,0.052 0.21,0.263 0.157,0.263 0.105,0.736 0.157,0.735 0.264,0.368 0.21,0.368 0.263,0.21 0.263,0.158 0.21,0.052 0.263,0.053 0.263,0.105 0.158,0.105 0.315,0.315 0.263,0.315 0.157,0.946 0.211,0.946 0.367,0.42 0.315,0.42 0.263,0.263 0.263,0.315 0.053,0.263 0.105,0.263 0.157,0.157 0.158,0.105 0.157,0.052 0.105,0.053 0.368,-0.053 0.315,0 0.21,0 0.21,-0.052 0.525,0.105 0.525,0.053 0.315,0.052 0.368,0.053 0.788,0 0.736,-0.053 0.368,-0.052 0.314,0 0.053,0 0.158,0.052 0.104,0.053 0.105,0.105 0.053,0.21 0.053,0.21 0.104,0.263 0.053,0.21 0.105,0.263 0.157,0.21 0.158,0.157 0.104,0.158 0.263,0.157 0.158,0.21 0.263,0.052 0.263,0.105 0.157,0.052 0.158,0.105 0.21,0.158 0.21,0.21 0.421,0.683 0.42,0.684 0.211,0.263 0.263,0.263 0.21,0.315 0.315,0.368 0.21,0.42 0.158,0.42 0.052,0.263 0.053,0.315 -0.053,0.21 -0.052,0.21 -0.158,0.315 -0.21,0.368 -0.21,0.263 -0.211,0.21 -1.313,0.893 -1.262,0.894 -0.788,0.789 -0.42,0.525 0.525,0 28.223,0.999 3.994,-8.409 5.36,5.151 -3.153,-23.756 2.313,1.419 6.359,4.415 0.158,0.158 0.21,0 8.882,1.682 -7.306,6.097 -0.157,0.105 0.053,0.105 0.841,0.788 0.841,0.578 1.997,0.683 0.894,0 0.631,0.526 0.315,0.368 1.156,1.472 0.315,0.263 0,0 2.364,-2.313 4.468,4.572 12.035,-4.888 2.365,-0.052 -0.053,-0.315 -0.053,-0.473 -0.104,-0.578 -0.053,-0.21 -0.105,-1.314 -0.053,-0.42 -0.053,-0.473 0.211,-0.315 0.263,-0.21 0.631,-0.894 0.263,-0.368 0.104,-0.315 -0.052,-0.63 0.052,-0.841 0.105,-0.42 0.105,-0.789 0.052,-0.263 -0.367,-0.683 -0.368,-1.262 0.263,-1.051 0.21,-1.314 -0.63,-1.945 -1.052,-1.156 -0.104,-1.997 -0.158,-0.473 0.21,-0.105 10.354,-7.042 0.683,0.894 0.788,1.156 1.419,0.683 1.262,1.156 0.999,0.999 0.157,0.105 -0.263,0.841 -0.053,1.366 -0.104,0.999 0,1.734 0.42,0.473 -0.21,0.42 0.104,0.631 0.158,0.42 0.053,0.158 -0.105,0.315 0.053,0.368 0.21,0.158 -0.053,0.158 -0.157,0.315 -0.105,0.368 0,0.368 -0.104,0.736 -0.211,0.473 0,0.263 0.211,0.053 6.201,1.366 3.89,-0.841 5.729,7.095 9.985,-3.942 5.203,0.841 1.209,0.21 -0.053,-4.1 5.466,3.574 3.941,-0.368 10.091,1.472 0.105,0.053 0.105,-0.789 -0.526,-0.946 -0.945,-0.684 -0.946,-0.63 -0.894,-1.261 -0.368,-1.472 0.158,-1.262 -0.158,-1.471 -0.735,-1.262 -0.735,-1.104 -0.894,-0.841 -0.684,-0.473 -0.368,-0.263 -0.157,-0.21 -0.158,-0.21 -0.157,-0.42 -0.158,-0.473 -0.104,-0.946 -0.105,-1.209 -0.053,-0.631 -0.21,-0.42 -0.578,-0.473 -0.894,-1.051 -0.683,-0.894 -0.105,-0.42 0,-0.525 0.105,-0.683 0,-0.053 0.945,-0.315 0.631,0.053 0.788,0.263 0.526,0.315 1.051,0.893 0.946,0.789 1.051,0.525 0.894,0.158 0.788,-0.315 0.631,-0.42 1.472,-1.366 1.629,-1.524 0.525,-1.156 0.368,-1.839 -0.105,-0.788 -0.367,-0.684 -0.421,-0.578 -0.578,-0.736 -0.21,-0.525 -0.105,-0.525 0.053,-1.682 0.263,-0.631 0.315,-0.841 0.473,-0.526 0.263,-0.21 0.578,-0.21 1.209,0.315 0.789,0.263 1.104,0.263 1.839,0.21 1.262,0.368 0.684,0.263 0.473,0.473 0.21,0.473 -0.053,0.736 -0.63,1.208 -0.578,1.104 0,0.42 0.21,0.894 0.315,0.894 0.263,0.735 0.263,0.684 0.21,0.683 0.315,0.946 0.21,0.526 0.315,0.683 0.263,0.683 0.264,0.473 0.104,0.263 0.105,0.473 0,0.368 -0.105,0.789 -0.104,0.42 -0.105,0.368 -0.21,0.315 -0.368,0.473 -0.631,0.578 -0.894,0.683 -0.525,0.315 -1.051,0.578 -0.421,0.315 -0.315,0.315 -0.21,0.263 -0.105,0.42 -0.053,0.42 0.053,0.315 0.158,0.473 0.315,0.315 0.367,0.263 0.736,0.315 0.894,0.315 1.051,0.315 0.894,0.158 0.631,-0.053 0.631,-0.158 0.525,-0.315 0.578,-0.368 0.578,-0.683 0.473,-0.578 0.315,-0.578 0.21,-0.42 0.105,-0.263 0.053,-0.368 0.525,0.473 0.157,0.368 0.158,0.368 0,0.473 -0.158,0.368 -0.315,0.263 -0.104,0.158 -0.158,0.105 -0.945,1.419 -0.315,0.315 -0.736,0.841 -0.525,0.631 -0.42,0.631 -0.105,0.63 -0.157,0.631 0,0.368 -0.053,0.368 0.053,0.368 0,0.368 0.104,0.684 0.053,0.368 0.21,0.789 0.053,0.158 0.105,0.525 0.21,0.368 0.21,0.315 0.263,0.42 0.105,0.21 0.263,0.525 0.053,0.315 0.053,0.315 -0.263,0.42 -0.315,0.21 -0.736,0.578 -0.42,0.263 -0.263,0.368 -0.315,0.368 -0.263,0.683 -0.105,0.368 0,0.42 0,0.158 0,0.683 0,0.894 0.053,0.42 0.315,0.894 0.315,0.683 0.21,0.684 0.105,0.21 0.157,0.263 0.21,0.263 0.368,0.368 0.105,0.158 0.104,0.105 0.053,0.263 0.053,0.21 0,0.42 0,0.473 -0.053,0.158 0,0 0,0 8.094,1.787 0.315,-0.158 -0.105,-0.683 -0.315,-0.578 -0.473,-1.104 -0.158,-1.367 -0.314,-1.051 -0.315,-0.946 0.998,-1.787 0.21,-1.051 0.368,0 2.208,-2.838 5.676,0.473 0.42,-0.315 0.631,-0.525 1.052,-1.156 3.048,1.892 0.998,0.999 0.264,-0.683 3.469,0.999 0.157,4.73 6.254,1.261 3.312,1.209 0.263,0.053 -0.053,0.263 0,1.051 -0.21,0.894 -0.21,0.525 -0.368,0.578 0,0 -0.263,0.421 -0.211,0.263 -0.314,0.63 -0.263,0.999 -0.368,0.473 -0.315,0.263 -0.315,0.578 -0.105,1.262 -0.42,0.736 -0.788,0.999 -0.211,0.263 -0.157,0.736 0.053,0.473 -0.053,0.368 -0.21,0.263 -0.211,0.105 -0.263,0 -0.315,0.21 -0.735,0.525 -0.474,0.894 -0.052,0.473 0.157,0.736 0.158,0.946 0,0.525 -0.264,0.894 -0.263,0.578 -0.63,0.894 -0.684,0.841 -0.315,0.368 -0.263,0.053 -0.263,0.053 -0.421,-0.263 -0.263,-0.158 -0.21,0 -0.315,0.052 -0.368,0.578 -0.788,0.684 -0.421,0.315 -0.314,0.473 -0.053,1.472 0,0.578 -0.315,0.368 -0.368,0.578 -0.631,0.789 -0.631,0.946 -0.735,1.104 -0.157,0.42 0.052,0.473 0.053,0.315 -0.053,0.315 -0.315,0.368 -0.63,0.263 -0.474,0.841 -0.052,0.473 -0.315,0.578 -0.421,0.841 -0.21,0.368 0,0.526 0,0.473 0.683,1.051 0.315,0.683 0.105,0.999 -0.053,0.526 -0.263,0.42 -0.684,0.946 -0.314,0.263 -0.211,0.21 -0.578,0.368 -0.367,0.526 -0.263,0.42 -0.105,0.63 -0.053,0.315 -0.315,0.263 -0.368,0.105 -0.367,0 -0.368,-0.105 -0.368,0.105 -0.367,0.315 -0.368,0.473 -0.21,0.999 0,1.682 -0.105,0.368 -0.263,0.473 0,1.471 -0.263,0.736 -0.211,0.42 -0.473,0.421 -0.21,0.21 0,0.473 -0.053,0.63 0,1.367 0.157,0.578 0.264,0.368 0.314,0.789 0.158,0.683 0.053,0.525 0,0.736 -0.263,0.42 -1.156,0.789 -0.474,0.315 -0.631,0.263 -0.314,0.315 -0.053,0.42 0.21,0.736 0.421,0.946 0.525,0.684 0.788,0.735 0.263,0.421 0.053,0.368 0,0.315 -0.21,0.21 -0.526,0.21 -0.104,0.21 0.053,0.263 0.578,0.368 0.367,0.263 0.631,0.053 0.421,-0.21 0.683,0.053 0.631,0.42 1.63,1.682 0.578,0.315 0.473,0.368 0.315,0.263 0.157,0.263 -0.053,0.368 0.105,0.42 0.421,0.684 0,0.42 -0.105,0.683 -0.105,0.473 0.105,1.156 0,0.578 -0.053,0.63 -0.315,1.104 -0.104,0.525 0,0.841 0.157,0.315 0.315,0.158 0.21,0.105 0.263,0.105 0.211,0.263 0.052,0.368 0,0.789 0.105,0.315 0.263,0.158 0.315,0.053 0.525,0 0.368,0.263 0.157,0.368 -0.053,0.841 -0.104,0.893 -0.158,0.473 -0.315,0.263 -0.21,0.315 -0.578,0.263 -0.841,0.158 -1.104,0.158 -1.156,0.053 -1.629,-0.158 -2.891,-0.525 -1.052,0.052 -0.788,0.158 -0.631,0.42 -0.683,0.631 -0.474,0.841 -0.157,0.789 0,0.999 0.053,0.841 0.157,0.736 0.105,0.525 -0.053,0.525 -0.21,0.473 -0.105,0.789 -0.263,0.473 -0.315,0.368 -0.368,0.21 -0.053,0.158 0,0.315 0,0.368 0,0.473 -0.314,0.631 -0.474,0.63 -0.053,0.421 0.105,0.473 0.315,0.473 0.631,1.051 0.578,0.946 1.156,1.997 0.157,0.473 0.105,0.736 0,0.368 0.42,0.684 0.315,0.525 0.631,0.21 0.473,0.263 0.421,0.052 0.421,-0.158 0.157,-0.105 0.525,0.105 0.421,-0.158 0.788,0 0.578,0.21 0.735,0.368 1.052,1.629 0.631,0.736 0.735,0.788 0.788,0.736 0.263,0.368 0.211,0.42 0.052,0.946 -0.157,0.631 0.053,0.525 0.21,0.368 -0.053,0.683 -0.157,0.946 -0.21,0.788 -0.053,0.683 0.157,0.526 0.315,0.683 0.736,0.683 0.367,0.42 0.053,0.368 0,0.368 -0.105,0.473 -0.104,0.473 0,0.315 -0.105,0.368 -0.21,0.315 0,0.42 0.053,0.473 0.104,0.421 0.263,0.368 0.158,0.315 0,0.315 -0.315,0.42 0.21,0 1.366,0.21 1.524,-2.628 2.471,0.736 4.888,0.578 0.157,0 6.569,0.315 0.315,0.473 0.053,0.21 0.631,0.946 0.104,0.42 0.211,0.525 0.104,0.42 0.105,0.421 -0.053,0.105 0,0.21 -0.053,0.473 -0.263,1.051 -0.157,0.893 -0.21,0.841 -0.105,0.42 -0.105,0.788 -0.21,0.368 0.105,0.158 2.364,2.996 -0.104,0.736 2.47,0.263 2.365,-0.105 0.105,-0.053 0.053,-1.419 0,-0.053 0.052,-0.053 0,-0.157 0.053,-1.262 0.105,-1.734 0.104,-0.315 0.053,0 0.158,0 0.315,0.052 1.892,0.315 3.889,0.894 0.211,0.053 25.195,9.969 z"
       inkscape:connector-curvature="0"
       class="DEP_01 ZON_01" /></g></svg>