<?xml version="1.0" encoding="UTF-8" standalone="no"?>
<!-- Generator: Adobe Illustrator 16.0.0, SVG Export Plug-In . SVG Version: 6.00 Build 0)  -->

<svg
   xmlns:dc="http://purl.org/dc/elements/1.1/"
   xmlns:cc="http://creativecommons.org/ns#"
   xmlns:rdf="http://www.w3.org/1999/02/22-rdf-syntax-ns#"
   xmlns:svg="http://www.w3.org/2000/svg"
   xmlns="http://www.w3.org/2000/svg"
   xmlns:sodipodi="http://sodipodi.sourceforge.net/DTD/sodipodi-0.dtd"
   xmlns:inkscape="http://www.inkscape.org/namespaces/inkscape"
   version="1.1"
   id="SvgMunicipio"
   x="0px"
   y="0px"
   width="786.979px"
   height="1000.083px"
   viewBox="64.096 117.895 786.979 1000.083"
   enable-background="new 64.096 117.895 786.979 1000.083"
   xml:space="preserve"
   inkscape:version="0.91 r13725"
   sodipodi:docname="MUN_ID0112.svg"><metadata
     id="metadata10"><rdf:RDF><cc:Work
         rdf:about=""><dc:format>image/svg+xml</dc:format><dc:type
           rdf:resource="http://purl.org/dc/dcmitype/StillImage" /></cc:Work></rdf:RDF></metadata><defs
     id="defs8" /><sodipodi:namedview
     pagecolor="#ffffff"
     bordercolor="#666666"
     borderopacity="1"
     objecttolerance="10"
     gridtolerance="10"
     guidetolerance="10"
     inkscape:pageopacity="0"
     inkscape:pageshadow="2"
     inkscape:window-width="1366"
     inkscape:window-height="705"
     id="namedview6"
     showgrid="false"
     inkscape:zoom="0.23598041"
     inkscape:cx="393.4895"
     inkscape:cy="500.0415"
     inkscape:window-x="-8"
     inkscape:window-y="-8"
     inkscape:window-maximized="1"
     inkscape:current-layer="svg" /><g
     id="g3"><path
       id="MUN_0112"
       d="m 68.247,118.686 2.569,0.988 4.547,1.186 4.151,1.187 2.175,0.197 2.372,0.396 2.966,0.198 2.174,-0.396 2.966,-0.791 3.36,-1.582 1.384,-0.396 0.989,0 0.988,0.198 0.791,0.198 0.593,0.396 1.187,0.593 0.988,0.989 1.384,0.791 1.187,0.791 0.79,0.593 1.978,0.198 4.349,0.198 0.791,0 0.988,0.395 1.977,0.791 2.57,0.791 1.779,0.198 2.372,0 3.756,-0.198 2.768,0.198 0.791,0 0.988,0.198 0.79,0.198 0.791,0.198 1.582,0.593 1.778,0.791 1.187,0.593 0.988,0.593 1.187,0.198 0.988,0.197 0.791,-0.197 0.593,-0.198 0.593,-0.593 1.187,-2.57 1.384,-1.779 0.988,-0.988 0.988,-0.593 1.187,-0.396 0.988,-0.396 1.581,0 1.384,0 1.187,0.198 0.79,0.396 1.187,0.988 1.187,1.582 1.977,3.558 0.791,2.965 0.197,1.977 -0.197,2.174 -0.396,1.779 -0.594,1.582 -0.197,0.791 0,0.396 0.396,0.395 0.593,0.396 0.791,0.198 0.988,0 8.698,-0.198 0.988,-0.198 0.988,-0.395 0.593,-0.791 0.396,-2.174 0,-1.582 0.791,-1.384 1.384,-1.186 1.977,-0.396 3.36,0 3.163,0.198 1.779,0.198 1.779,0.593 2.175,0.989 1.186,0.593 1.978,-0.396 1.778,-0.593 1.779,-0.988 1.779,-0.593 1.384,-0.198 2.57,0.593 0.197,0.791 0,0.988 0,1.187 0,1.779 0.396,1.186 0.791,1.187 1.186,0.988 0.791,0.593 0.593,0.989 0.396,0.791 0,1.186 0,0.791 -0.396,0.988 -0.79,0.791 -3.163,3.559 -0.791,0.791 -0.396,0.791 -0.197,1.384 -0.198,0.791 0.198,1.186 0.197,1.582 1.582,3.361 0.197,0.791 0.197,0.396 0.198,1.186 0.197,4.942 0.198,4.151 0.79,3.756 0.791,1.779 0.593,0.396 0.594,1.779 0.79,1.779 1.384,1.779 0.791,1.186 0.396,0.791 0.593,1.582 0,1.384 0,2.57 0,1.779 0.396,1.581 1.187,0.989 2.768,1.186 2.965,1.186 2.57,0.396 4.151,0.198 4.744,-0.396 2.768,0.593 2.372,-0.197 4.744,-0.198 3.361,-0.593 2.174,-1.186 1.384,-1.582 0.989,-1.186 0.79,-0.791 0.791,-0.593 2.768,0.791 3.559,1.977 3.163,1.977 3.36,1.384 2.768,1.977 2.768,2.175 0.988,2.174 0.988,2.768 0.396,2.174 0.988,3.361 0.593,1.779 1.582,2.768 2.569,3.163 1.582,1.582 1.186,1.582 1.779,0.198 2.57,-1.582 1.779,-2.57 1.779,-2.372 1.383,-0.593 1.779,0 1.582,0.988 0.79,1.779 0.396,2.175 0.198,2.174 0,2.372 -0.396,2.175 -0.198,2.372 0.198,2.768 0.197,1.977 0.594,1.582 0.395,1.582 0,2.768 1.978,2.768 2.372,2.965 9.094,4.349 5.732,2.174 1.186,0.198 4.547,-0.198 4.151,1.582 3.163,1.779 1.582,2.768 0.593,1.384 -0.198,2.372 1.187,1.977 0.593,0.593 0.396,1.582 0,1.779 0,0 0.198,1.582 0,1.779 0.79,1.186 0.198,0 1.384,0.593 1.778,0.396 2.175,0 2.768,0 2.966,-0.396 1.977,-0.396 1.581,-0.198 1.187,0.989 1.384,1.384 0.988,1.384 1.384,1.779 2.965,3.559 2.966,2.57 3.36,1.977 3.36,1.186 1.978,0.395 2.372,0.593 1.186,1.384 0.594,1.582 0.79,1.384 0.791,0.988 1.977,1.186 3.163,0.989 3.361,0.988 4.349,0.791 2.57,0.396 1.384,0.396 2.768,0.198 1.384,0 1.186,0 0.988,0 4.547,0 6.326,0.197 6.128,0.198 4.744,0 3.559,0.791 4.547,0.395 4.151,0.396 0.988,0 3.559,0 2.372,-0.198 1.581,0 2.966,-0.791 1.186,-0.988 1.978,-1.187 0.988,-0.395 1.779,0.593 1.384,1.977 1.186,2.965 1.779,3.163 2.372,1.384 2.57,0.198 2.569,-0.198 2.372,0.198 1.582,0.198 2.965,0.396 0.198,0 3.163,0.988 3.756,1.779 4.151,1.977 0.396,0.198 1.977,1.582 1.186,1.384 1.978,0.791 0.79,0 0.989,0 1.778,-0.396 1.582,-0.791 0,0 1.384,-1.384 1.977,-0.593 3.163,-0.198 2.372,0 1.779,-0.593 1.581,-0.593 1.582,-0.593 1.384,-0.395 1.779,0 1.977,0.593 1.384,1.384 0.988,1.779 0.791,1.186 0.791,1.186 1.186,0.988 0.988,0.791 1.779,0.198 1.779,0 1.779,0 1.581,0.198 0.791,1.384 0,1.977 0,1.779 0,0.593 0,0.989 0.791,0.988 0.988,0.988 1.384,0.791 0.197,0 1.978,0 2.174,0.198 1.779,0.197 1.779,0.593 2.372,0.593 1.977,0.791 1.978,0.988 1.977,0.791 2.372,0.395 1.779,0 1.977,0 1.977,0 2.175,0.791 1.384,1.779 0.791,1.779 0.593,2.175 0.396,1.977 1.779,5.535 0.988,2.768 0.593,1.977 1.384,2.372 1.384,1.186 1.978,0.988 1.977,0.791 2.57,0.791 1.977,0.989 1.779,1.384 1.779,1.384 0.197,0.395 1.186,1.186 1.978,1.384 1.779,1.187 1.778,0.791 2.373,0.988 2.372,0.593 1.977,0.198 2.372,0 5.535,0 2.57,0 5.732,-0.198 3.559,0.198 0,0 3.163,0.395 2.569,0 2.768,0.198 2.175,0.198 2.768,0.593 2.768,1.186 2.372,1.582 1.977,1.581 1.582,1.779 1.779,1.977 1.977,1.186 1.977,0.198 4.547,0 2.175,0.198 2.175,0.791 0.197,0.198 1.187,-0.791 0.395,0.396 0.396,0.396 0.396,0.593 0.198,0.396 0.197,0.396 0.197,0.791 0.198,0.593 -0.198,0.396 0,0.791 -0.197,0.988 0,0.791 0,0 -2.768,1.186 -2.175,1.186 -0.197,0 -1.384,2.174 -0.593,1.384 -0.396,2.372 -0.198,0.594 -0.197,3.756 -0.198,2.372 -0.197,1.977 -0.197,2.57 0,2.175 0.988,1.581 1.384,1.581 1.384,1.384 1.581,1.384 0.198,0.198 1.581,1.384 1.581,1.186 1.384,1.187 1.384,1.187 1.187,1.383 0.593,0.594 0.988,0.791 0.594,1.581 0.197,1.779 0,1.779 0.198,1.186 0,1.384 0.197,0.593 0,0.396 0,0.988 0.396,1.978 0.396,1.779 0.79,1.778 0.396,0.989 0.198,0.79 0.988,1.978 0,0.197 1.186,1.581 0.396,0.791 0.396,0.791 0.197,0.593 0.791,1.384 1.187,1.977 0.593,1.582 1.187,1.581 1.186,1.582 1.582,1.186 1.581,1.384 1.384,1.384 0.988,1.779 0.791,1.977 0.396,2.373 0.197,17.594 0.198,2.965 0.988,7.117 -0.198,1.581 -0.197,0.791 -0.593,1.977 -1.582,2.768 -1.779,3.163 -1.581,1.977 -0.988,2.966 -0.396,1.581 -0.198,0.593 -0.197,0.396 0.197,0.593 0.396,2.175 0.594,2.57 0.79,5.14 -0.197,4.744 -0.197,2.768 0.593,2.175 0.988,3.558 0,0.791 0.396,0.791 0,1.581 0,3.559 -0.198,4.349 0.198,3.954 0.197,2.175 1.779,2.372 2.175,2.569 1.977,2.373 0.988,2.768 0.791,2.372 0.791,1.977 0.396,2.175 0.395,2.372 -0.79,1.581 -1.187,1.582 0,0.197 -0.396,1.779 0,2.372 -0.593,1.582 -1.582,1.778 -1.383,1.384 -1.385,1.978 -1.383,2.569 -0.198,1.779 0.396,1.582 1.186,0.988 0.989,0.79 0.396,1.779 -0.198,1.384 -1.384,0.791 -1.186,0.593 -0.396,1.187 0.197,2.372 -0.791,4.349 -1.384,2.57 -0.988,1.779 -0.396,1.977 0.989,0.988 0.395,0.198 0.791,1.384 0.197,2.174 -0.79,2.57 -1.187,2.372 -0.593,1.977 0,1.779 1.384,1.187 1.384,0.988 0,0 0.791,1.977 0,1.978 0,0.988 1.384,2.372 1.581,1.977 1.384,2.57 2.175,3.756 -0.198,3.756 0,0.197 0.594,1.779 1.581,1.187 1.977,0.593 2.175,0.593 1.779,1.187 1.186,1.581 0.989,1.187 1.384,0.791 1.977,0.988 1.977,0.79 1.977,0.791 1.779,0.988 2.57,1.779 1.977,1.582 0.594,2.174 0,2.175 -0.396,2.372 -0.396,1.582 -0.198,2.174 0.396,1.582 1.384,1.186 1.978,0.791 1.581,0.593 1.779,0.791 1.779,1.384 0.988,1.779 0.79,2.372 -0.197,2.768 0,2.768 -0.197,3.559 -0.198,5.14 0,1.977 0.791,2.175 0.791,1.977 0.988,2.768 0.79,2.372 1.187,2.966 2.372,5.931 2.372,6.128 4.942,5.337 4.942,4.35 2.569,2.175 1.978,0.593 2.174,0 2.966,1.186 2.965,1.978 2.966,3.36 2.372,3.36 2.569,3.756 1.779,2.768 0.791,3.361 0,0 1.384,2.965 1.779,2.768 0.988,3.163 0,1.779 0.197,0.396 0.198,2.768 0.396,2.965 1.186,2.175 0.593,0.79 1.582,2.175 1.779,3.163 1.977,3.163 1.581,2.372 2.768,5.535 1.384,2.965 0.791,2.966 1.384,2.768 0.988,1.384 0.988,1.186 1.978,1.978 1.977,1.977 1.581,0.988 -1.384,1.977 0,2.175 0.791,2.372 0,1.978 -0.396,2.372 -0.396,1.977 0,1.779 1.187,1.779 1.779,1.779 1.186,1.384 0,1.581 -0.79,1.581 -1.582,1.384 -0.988,1.779 0,2.175 0.396,1.779 0.791,1.779 1.581,1.779 1.384,2.372 1.384,2.965 0.988,1.582 0.593,0.988 0.594,1.779 -0.594,2.569 -0.79,2.372 -0.593,2.372 -0.396,1.978 0.197,2.174 0.396,1.978 0,0.593 0,1.384 -0.791,1.581 -1.779,1.582 -1.186,1.384 0,1.977 1.186,2.175 1.187,2.569 1.384,3.361 0.791,2.965 0.395,2.768 0,2.57 0,3.953 -0.197,4.151 0.396,3.954 2.372,1.779 2.372,0.79 1.978,0.988 1.977,1.384 1.186,1.582 0.791,2.175 0,2.174 0.593,1.978 0.396,1.778 0.791,1.582 1.581,1.384 1.384,1.581 1.384,1.978 0,2.174 0,3.954 0.198,2.175 0.988,1.384 1.186,0.988 0.198,0.197 1.581,1.384 1.779,1.384 0.594,1.384 0.197,1.779 0,2.175 -0.593,1.779 -0.396,1.977 0,1.779 0.593,1.977 1.779,1.977 1.779,1.384 1.186,1.779 0,1.779 0,5.14 0.396,1.977 0.198,0.198 1.581,0.593 2.175,0.791 1.977,1.186 0.593,2.373 0,2.372 0,2.372 0,1.977 0.988,1.779 1.385,1.779 1.186,2.175 0,1.977 0.988,1.581 0,0.198 1.582,1.186 2.174,0.791 2.175,0.396 2.175,0.988 1.581,2.175 0.988,1.778 1.187,1.582 1.977,1.384 2.372,1.581 1.582,1.582 0.593,2.372 0,2.372 0.197,2.57 0.396,0.988 1.384,2.372 2.57,2.569 1.977,1.187 2.372,0.988 2.768,1.384 2.57,1.977 0,0 -10.675,11.861 -0.791,1.187 -15.222,6.128 -4.547,1.187 0.198,4.744 0.395,10.279 0.396,14.233 -0.396,8.896 -23.722,3.559 -28.269,3.954 -1.582,0.197 -2.569,-17.001 -0.988,0.198 -23.129,4.349 1.977,5.931 2.965,-0.198 2.175,2.57 0.593,2.372 0,3.163 -0.79,0.593 0,0.198 -2.768,0.396 -16.211,13.244 -6.325,4.151 -10.675,2.966 -1.384,0.395 -0.198,-0.395 -12.256,3.36 -22.536,5.535 -0.791,0.197 -0.593,1.187 -1.977,0.593 -0.989,-0.79 -0.396,-0.594 -1.778,-1.384 -1.187,-0.79 -0.197,-0.198 -0.791,-0.791 -2.965,-2.768 -0.594,-0.396 -0.396,-0.197 -0.396,-0.593 -0.593,-0.988 -0.197,-0.198 -0.396,-0.396 -0.593,-0.79 -0.396,-0.594 -0.594,-0.593 0,0 -0.593,-0.791 0,0 -0.79,-1.186 0,0 -0.594,-0.791 -0.396,-0.197 -0.79,-0.989 -0.198,-0.197 0,-0.197 -0.593,-0.594 -0.791,-0.79 0,0 -0.197,-0.198 -0.594,-1.186 -0.395,-0.594 0,-0.197 0,-0.396 -0.396,-1.186 0,0 -0.198,-0.594 -0.197,-0.79 -0.197,-1.187 -0.198,-0.396 -0.197,-0.593 -0.396,-0.988 -0.396,-0.396 -0.593,-0.988 0,-0.198 -0.791,-0.988 0,0 -0.791,-1.186 0,0 -0.593,-0.594 -0.396,-0.396 -0.593,-0.593 0,0 -0.198,-0.197 -0.79,-0.791 -0.791,-0.593 0,0 -0.197,-0.198 -0.989,-0.79 -0.593,-0.396 -0.197,-0.198 -0.396,-0.396 -1.187,-0.79 0,0 -0.593,-0.198 -0.791,-0.593 -0.988,-0.593 -0.197,-0.198 -0.396,-0.396 -0.988,-0.593 -0.396,-0.197 -0.791,-0.396 0,-0.198 -0.791,-0.593 0,0 -0.79,-0.791 0,0 -0.396,-0.197 0,-0.593 -0.198,-0.791 0,-0.197 0,0 0.198,-3.559 0,-2.768 0,0 0,-0.396 0,-1.384 0,-0.197 0,-0.396 0,-0.594 -0.198,-1.384 0,0 0,-0.593 -0.197,-0.593 0,-0.791 -0.197,-0.396 0,-0.396 0,-0.988 -0.198,-0.197 -0.197,-1.384 -0.198,-0.198 -0.197,-0.988 0,-0.396 -0.593,-1.384 0,0 -0.198,-0.593 -0.396,-0.791 -0.396,-1.186 -0.197,-0.198 -0.197,-0.988 -0.396,-0.593 -0.198,-0.197 -0.197,-0.198 -0.988,-0.988 -0.198,-0.396 -0.197,-0.197 -0.593,-0.396 -0.594,-0.593 -0.197,-0.198 -0.396,-0.396 -0.791,-0.197 -0.593,-0.396 -0.396,-0.197 -0.197,-0.198 -0.791,-0.396 -0.197,0 -0.791,-0.593 -0.396,-0.197 -0.791,-0.396 -0.396,-0.198 0,0 -1.186,-0.593 -0.198,-0.197 -0.197,-0.198 -0.593,-0.197 -1.187,-0.594 0,0 -0.197,0 -0.988,-0.593 -0.396,-0.197 -0.198,0 -0.197,-0.594 -0.396,-0.79 -0.197,-0.198 0,-0.197 -0.198,-0.791 -0.197,-0.396 -0.198,-0.396 0,-0.197 -0.197,-0.791 0,-0.197 -0.198,-0.198 -0.197,-0.79 0,0 -0.593,-0.988 0,0 -0.791,-0.396 -0.791,-0.198 -0.593,-0.396 -0.593,-0.395 0,0 -1.582,-0.989 -0.197,-0.197 -0.198,-0.197 -0.395,-0.396 -0.594,-0.791 0,0 0,-0.197 0,-0.989 -0.197,-0.197 0,-0.197 0,-1.187 0.197,-0.988 0,-0.593 0,-0.198 0,-2.372 0,-0.197 0,-1.384 0,-0.791 0,-1.582 0,-1.186 0,-0.791 -0.396,-0.988 0,0 -0.197,-1.384 0,-0.396 -0.197,-0.593 -0.198,-1.187 0,-0.79 0,-0.594 0,-0.396 -0.197,-2.174 0,-0.198 0,-0.197 0.197,-1.187 0,-1.186 0,0 0,-0.396 0,-1.582 0,0 0,-0.395 -0.197,-1.582 -0.198,-1.186 -0.197,-0.988 0,0 0,-1.187 0,0 0,-0.593 0.197,-0.396 0,-0.198 0.198,-0.593 0.197,-0.197 0,-0.198 0,-0.197 -0.197,-0.396 0,-0.198 0,-0.395 -0.396,-1.187 0,-0.593 0,-0.594 0,-0.395 0,-1.978 0,0 0,-1.977 0.197,-0.197 0.396,-1.978 0,-0.395 -0.197,-0.989 0,-0.197 0,-0.593 -0.594,-1.384 -0.395,-0.988 -0.594,-1.187 -0.593,-0.988 -0.197,-0.396 -0.396,-0.593 -0.988,-1.384 -0.396,-0.988 -1.582,-2.768 -0.197,-0.594 -0.791,-2.569 -0.593,-1.187 0,0 -1.187,-3.163 -0.197,-0.396 -1.187,-2.372 -0.396,-0.79 -0.593,-0.989 -0.593,-0.79 -0.396,-0.988 -0.791,-1.187 -0.79,-1.187 -0.198,-0.988 -0.197,-0.988 -0.198,-0.197 -0.197,-0.594 -0.988,-1.581 -0.396,-0.396 -1.187,-1.779 -0.396,-0.197 -0.988,-0.593 -1.186,-0.791 0,0 -2.57,-1.384 -0.396,-0.396 -1.977,-1.187 -0.593,-0.395 -0.198,-0.198 -1.384,-0.396 -0.988,-0.197 -0.79,-0.988 -0.989,-0.791 -0.988,-1.187 -0.197,-0.79 -0.791,-0.791 -0.396,-0.593 -1.186,-1.582 0.197,-0.197 0,-1.582 0,-0.197 -0.197,-0.396 -0.198,-1.977 0,-0.198 -0.197,-0.79 0,-0.198 -0.593,-0.79 0,-0.198 -0.198,-0.197 -0.791,-0.594 -0.593,-0.395 -0.197,-0.396 -0.198,-0.791 0,-0.396 0,0 0.396,-0.791 -0.197,-0.395 0,-0.989 -0.198,0 -1.779,-0.79 0,0 -1.384,0 -0.197,0 -1.187,0.197 -0.396,0 -0.593,-0.197 0,0 -0.396,0 -0.79,-0.594 -0.594,-0.395 -0.79,-0.791 -0.988,-1.187 -0.396,-0.197 -0.396,-0.198 -1.187,-0.988 -0.396,-0.396 -1.384,-0.79 -0.396,0 -0.988,-0.791 -0.593,-0.197 0,0 -0.791,-1.384 -0.197,-0.198 0.197,-1.581 0,-0.198 0.198,-0.988 0.396,-0.791 0.396,-0.988 0,-0.988 0,-0.988 -0.198,-0.197 -0.197,-0.594 0,0 -0.396,-0.197 -0.594,-0.198 0,-0.197 -0.197,-0.791 0,-0.197 0,-0.819 0,-0.593 0,-0.198 0.197,-2.174 0.198,-0.396 0.197,-1.779 0.198,-0.593 0,-0.198 -0.198,-1.186 -0.197,-0.791 -0.396,-1.581 0,-1.582 -0.197,0 0,0 0,0 -0.198,-0.593 -0.593,-1.977 0,-0.396 0.197,-1.582 0,-0.197 0,0 0,-0.988 0,0 0.198,-0.988 0,-0.396 -0.396,-2.175 0,-0.396 -0.197,-0.396 0,-0.396 0,-0.197 -0.198,-0.988 -0.197,-1.187 -0.198,-0.197 0,0 0,-0.198 -0.197,-0.395 -0.594,-0.989 0,0 -0.197,-0.197 0.593,-0.396 -4.151,-5.14 -0.197,-3.163 -2.57,-4.349 -0.593,-0.988 -0.988,-0.594 -0.396,-0.593 -0.791,-0.593 -2.174,-1.779 -10.082,-7.314 -0.396,-0.593 -0.593,-1.187 -1.384,-1.977 -1.978,-3.163 -3.756,-4.744 -0.593,-1.187 -0.593,-0.396 -0.791,-0.395 -0.396,-0.198 -0.791,0 -0.593,-0.197 -1.186,0 -0.594,-0.396 -0.197,-0.396 -0.198,-0.593 0,-1.187 -0.593,0.198 -0.791,-1.779 -1.778,-1.187 -2.373,-2.569 -1.778,-1.384 -0.791,-0.989 -2.372,-2.768 -1.978,-3.162 -1.778,-3.954 -0.594,-2.175 -1.186,-2.965 -0.988,-3.36 -1.978,-3.954 -2.174,-3.36 -1.779,-2.966 -1.187,-1.384 -0.988,-1.581 -5.732,-4.744 -1.978,-1.187 -1.779,-1.977 -3.36,-2.57 -1.581,-1.581 -1.779,-1.978 -1.977,-1.778 -2.57,-0.594 -2.372,-0.79 -1.187,-1.384 -2.569,-2.57 -2.966,-2.768 -1.977,-2.175 -2.372,-3.558 -2.768,-4.35 -2.372,-3.36 -3.163,-2.175 -2.768,-2.569 -2.372,-2.175 -0.988,-1.581 -0.198,-1.779 -0.396,-2.57 -0.593,-2.175 -1.581,-1.977 -1.978,-1.384 -2.372,-1.384 -2.965,-1.779 -2.372,-1.977 -1.582,-1.581 -1.186,-2.175 -1.384,-1.384 -2.57,-0.988 -2.965,-0.396 -2.372,-0.791 -1.779,-1.384 -1.187,-1.186 -1.186,-1.384 -1.779,-0.989 -1.582,-0.79 -1.779,-1.779 -2.768,-2.768 -2.768,-2.768 -2.768,-3.559 -2.174,-2.372 -2.57,-2.175 -2.965,-2.372 -1.978,-2.569 -1.384,-3.163 -0.79,-3.361 -1.187,-1.778 -1.977,-1.384 -1.779,-1.384 -6.128,-3.757 -3.163,-1.977 -3.36,-1.779 -2.57,-1.581 -1.384,-0.396 -2.372,0.197 -2.175,0.396 -2.175,0 -1.778,-0.396 -2.373,-0.395 -1.778,-0.791 -2.768,0.593 -2.57,0.198 -2.372,0.988 -1.977,0.988 -0.594,-0.593 -1.779,-1.384 -1.186,-1.582 -0.988,-1.581 -1.977,-1.384 -2.57,-0.396 -2.965,0 -2.966,-0.791 -3.163,-1.384 -1.779,-0.791 -0.79,-1.581 -1.978,-1.187 -2.372,-2.174 -2.768,-2.372 -1.977,-0.791 -1.187,-0.988 -0.988,-1.384 -0.988,-0.988 -0.988,-0.989 -0.593,-1.384 -1.187,-1.384 -0.988,-0.79 -1.384,-0.198 -1.384,0 -1.581,-0.593 -1.384,-1.581 -1.582,-1.582 -1.384,-1.186 -3.163,-1.187 -2.768,-1.187 -2.174,-1.778 -1.779,-1.779 -2.57,-0.988 -1.977,0.395 -1.779,0.791 -2.569,0 -1.779,-0.593 -1.582,-0.791 -0.395,-0.593 -0.791,-1.581 -0.791,-1.978 -1.186,-0.396 -0.791,-0.988 -1.977,-1.977 -1.384,-1.384 -1.187,-2.57 -0.396,-1.581 -0.197,-0.197 -0.791,0.197 -1.779,-3.756 -0.988,-1.582 -2.372,-2.965 -1.779,-1.977 -0.791,-0.594 -0.406,-1.762 -1.384,-2.768 -1.384,-1.779 -1.778,-0.988 -5.931,-7.117 -0.791,-0.791 -3.559,-1.977 -3.953,-1.186 -1.187,-0.791 -0.593,-0.988 -0.791,-0.791 -0.791,-0.791 -0.593,-0.197 -1.186,-0.396 -0.594,-0.197 -0.988,-0.198 -1.581,-0.197 -0.396,0 -0.791,0 -0.197,0 -0.396,-0.594 0.197,-0.988 0.988,-0.988 0.791,-0.988 0.593,-1.977 -0.197,-1.582 -1.187,-0.79 -2.174,0 -1.187,0 -1.779,0.197 -1.384,0.197 -0.197,-0.197 0,-0.791 0,-0.593 0,-0.791 0,-0.79 0,-0.594 0,-0.79 0,-0.791 0,-0.396 -0.593,-1.581 -0.396,-0.791 -0.396,-0.988 -1.977,-1.582 -0.594,-0.396 -0.79,-0.395 -0.791,-0.396 -0.988,-0.198 -0.594,-0.197 -0.988,-0.198 -1.581,-0.395 -0.593,-0.198 -0.791,-0.593 -0.593,-0.396 -0.396,-0.791 -0.594,-0.79 -0.395,-0.791 -0.396,-1.384 0,-2.175 -0.198,-0.988 -0.197,-1.187 -0.198,-0.395 -0.197,-0.396 -0.593,-0.198 -0.198,-0.197 -0.396,-0.198 -0.79,-0.197 -1.978,-0.197 -2.372,0 -3.558,0 -1.582,-0.396 -0.197,-0.396 -0.396,-0.198 0,-0.593 0,-0.988 0.197,-0.593 0.396,-0.594 0,-0.197 0.593,-0.396 0.594,-0.396 0.593,-0.396 0.988,-0.395 1.384,-0.198 1.384,-0.593 0.198,-0.988 0.197,-1.187 -0.396,-1.384 -0.396,-1.186 -0.593,-0.989 -0.988,-0.988 -0.593,-0.593 -0.396,-0.396 -0.594,-0.396 -0.395,-0.197 -1.582,-0.791 -0.988,-0.396 -1.384,-0.593 -0.593,-0.396 -0.198,-0.197 -0.197,-0.396 0,-0.198 0,-0.593 0.396,-0.593 0.396,-0.198 0.395,-0.593 1.384,-0.593 0.396,-0.593 0.198,-0.198 0.197,-0.396 0,-0.593 0,-0.791 -0.197,-0.593 -0.791,-1.384 -1.779,-2.372 -2.372,-2.768 -1.384,-1.779 -1.187,-1.779 -0.395,-1.384 0,-1.384 0,-1.186 0.395,-2.175 1.187,-4.349 0.396,-2.373 0.197,-1.384 -0.396,-1.186 -0.197,-0.396 -0.396,-0.988 -0.396,-0.594 -0.396,-0.593 -0.593,-0.593 -0.593,-0.593 -3.163,-2.966 -2.372,-2.174 -2.372,-2.373 -2.57,-2.768 -0.791,-0.79 -0.197,-1.187 -0.197,-1.384 0.197,-1.186 0.593,-2.373 0.988,-3.558 0,-0.791 0,-1.384 -0.197,-0.791 0,-0.988 -0.396,-0.791 -0.988,-0.988 -0.396,-0.396 -0.396,-0.197 -0.593,-0.593 -0.396,-0.198 -0.197,0 -0.594,-0.197 -1.384,-0.593 -0.593,-0.594 -0.197,-0.396 0,-0.197 0,-0.791 0,-0.988 0.197,-0.396 0.198,-0.593 0.395,-0.197 0.198,-0.396 0.396,-0.198 0.593,-0.197 1.977,-0.198 1.582,0.198 2.174,0 0.989,-0.396 1.778,-0.988 0.791,-1.187 0.396,-1.581 0,-0.988 0,-0.791 -0.197,-0.197 -0.198,-0.396 -0.593,-0.791 -0.593,-1.977 -1.187,-5.338 0.197,-2.175 0.594,-1.977 0.79,-1.581 0.396,-1.582 -0.197,-1.581 -0.593,-1.582 -0.198,-3.162 0,-2.175 -0.197,-0.396 -0.198,-0.197 -0.593,-0.198 -2.768,-0.791 -1.779,-0.395 -1.977,0 -0.988,-0.791 -0.594,-0.791 -1.977,-2.965 -0.593,-1.779 0,-1.779 0.396,-1.187 0.396,-0.593 1.581,-1.581 0.396,-0.594 0,-0.988 -0.791,-1.384 -0.396,-0.396 -1.778,-1.581 -1.187,-2.175 -0.791,-1.779 0,-1.581 0,-1.977 1.384,-1.384 0.988,-0.988 1.384,-0.791 0.594,-0.791 0.197,-0.593 0,-0.198 0.197,-1.581 0,-5.338 0,-1.186 0.989,-2.768 1.581,-3.36 0.197,-1.582 0,-1.581 -0.197,-0.198 0,-0.396 -0.197,-0.197 -0.198,0 -0.396,0 -1.384,0.396 -3.162,0.988 -2.175,-0.396 -0.198,-0.791 -0.395,-1.383 1.581,-3.361 0.197,-1.779 0.198,-0.593 0.791,-0.988 0.197,-0.396 0.791,-0.396 0.79,-0.593 0.988,-0.396 0.791,-0.197 0.988,0.197 0.791,0.396 0.988,0.396 1.187,0.197 2.372,-0.79 0.396,-0.396 0.396,-0.594 0.197,-0.79 -0.396,-2.175 -0.593,-2.372 0,-1.187 0,-0.593 0.197,-1.384 0.198,-0.988 0.396,-0.791 0.197,-1.977 0,-1.187 -0.197,-0.395 -0.791,-1.186 -2.768,-2.175 -1.977,-1.582 -0.198,-0.593 -0.197,-0.396 0,-0.593 0.197,-0.791 0.396,-0.593 1.977,-2.768 0,-1.384 -0.197,-2.767 -0.198,-2.57 -0.395,-1.779 -0.198,-0.593 -0.988,-1.977 -0.396,-0.593 -0.791,-0.791 -0.79,-0.791 -0.988,-1.384 -1.384,-1.977 -0.396,-0.396 -0.593,-2.175 -1.978,-4.349 -1.581,-3.163 -0.593,-2.372 -0.198,-1.384 0,-1.384 0.198,-0.791 0.395,-0.593 0.594,-0.989 0.79,-1.779 0,-0.989 0,-0.791 -0.395,-1.186 -0.396,-0.988 -5.535,-8.105 -2.768,-4.151 -2.57,-3.558 -2.175,-3.361 -2.768,-4.546 -0.988,-1.384 -0.593,-1.582 -0.396,-4.151 -0.593,-1.582 -0.988,-1.384 -1.582,-1.186 -1.779,-1.186 -1.186,-1.384 -0.593,-1.779 0.197,-1.779 0.396,-1.977 0.197,-1.186 0,-1.582 -0.197,-1.384 -0.988,-5.14 -0.396,-1.779 -0.198,-0.593 0.198,-4.349 0,-2.768 0.197,-4.942 0.594,-4.349 -0.198,-5.14 -0.197,-2.175 -0.198,-4.546 1.187,-4.151 0.396,-1.779 0.593,-2.372 0.396,-1.977 -0.198,-3.954 -0.593,-1.977 -1.977,-2.965 -0.593,-1.186 -0.989,-1.977 0,0 -0.395,-0.593 -2.175,-0.988 -1.582,-0.791 -0.593,0 -0.593,0 -1.384,-0.198 -1.187,0.198 -1.779,0.198 -0.988,0 -0.593,0 -0.988,-0.198 -1.187,-0.396 -0.988,-0.396 -2.372,-2.372 -1.779,-3.163 0.198,-1.582 0,-1.384 0,-0.197 0.988,-1.582 0.79,-1.582 0.594,-0.988 0.593,-1.187 -0.197,-2.174 -0.198,-0.396 -0.197,-0.593 -0.396,-0.593 -0.396,-0.396 -0.593,-0.395 -0.396,-0.198 -0.988,-0.791 -0.791,-0.395 -0.988,-0.989 -0.593,-0.593 -0.594,-0.988 -0.79,-1.384 -1.978,-5.14 -0.988,-1.779 -0.593,-0.791 -1.582,-1.582 -0.988,-1.186 -1.384,-2.372 -0.593,-2.372 0,-5.14 -0.791,-2.57 -1.977,-3.163 -1.779,-1.977 -0.791,-2.372 0,-0.989 0,-1.582 0.396,-1.186 0.594,-4.546 0,-2.965 0.395,-2.175 0,-0.395 0.198,-2.965 -0.198,-3.559 -0.197,-2.174 -0.197,-0.988 -0.791,-0.791 -1.384,-1.186 -1.384,-0.791 -1.977,-0.791 -0.989,-0.593 -0.79,-0.198 -0.791,-0.198 -0.593,0 -0.988,0 -2.755,0 -1.978,-0.198 -1.185,-0.364 -0.988,-0.395 -1.187,-0.791 -3.954,-2.768 -2.569,-1.582 -0.988,-0.791 -0.988,-0.988 -2.966,-3.163 -0.593,-0.396 -1.582,-0.791 -1.581,-1.186 -0.791,-0.593 -1.186,-0.396 -1.187,-0.593 -0.988,-0.396 -0.791,-0.396 -0.79,-0.198 -1.978,-0.395 -2.174,-0.593 -0.396,-0.396 -0.197,-0.193 0,-0.593 -0.197,-1.384 0,-3.756 0.396,-2.372 3.755,0.791 z"
       inkscape:connector-curvature="0"
       class="DEP_01 ZON_01" /></g></svg>