<?xml version="1.0" encoding="UTF-8" standalone="no"?>
<!-- Generator: Adobe Illustrator 16.0.0, SVG Export Plug-In . SVG Version: 6.00 Build 0)  -->

<svg
   xmlns:dc="http://purl.org/dc/elements/1.1/"
   xmlns:cc="http://creativecommons.org/ns#"
   xmlns:rdf="http://www.w3.org/1999/02/22-rdf-syntax-ns#"
   xmlns:svg="http://www.w3.org/2000/svg"
   xmlns="http://www.w3.org/2000/svg"
   xmlns:sodipodi="http://sodipodi.sourceforge.net/DTD/sodipodi-0.dtd"
   xmlns:inkscape="http://www.inkscape.org/namespaces/inkscape"
   version="1.1"
   id="SvgMunicipio"
   x="0px"
   y="0px"
   width="983.536px"
   height="1000.007px"
   viewBox="63.903 117.989 983.536 1000.007"
   enable-background="new 63.903 117.989 983.536 1000.007"
   xml:space="preserve"
   inkscape:version="0.91 r13725"
   sodipodi:docname="MUN_ID0108.svg"><metadata
     id="metadata10"><rdf:RDF><cc:Work
         rdf:about=""><dc:format>image/svg+xml</dc:format><dc:type
           rdf:resource="http://purl.org/dc/dcmitype/StillImage" /></cc:Work></rdf:RDF></metadata><defs
     id="defs8" /><sodipodi:namedview
     pagecolor="#ffffff"
     bordercolor="#666666"
     borderopacity="1"
     objecttolerance="10"
     gridtolerance="10"
     guidetolerance="10"
     inkscape:pageopacity="0"
     inkscape:pageshadow="2"
     inkscape:window-width="1366"
     inkscape:window-height="705"
     id="namedview6"
     showgrid="false"
     inkscape:zoom="0.23599834"
     inkscape:cx="491.76801"
     inkscape:cy="500.00351"
     inkscape:window-x="-8"
     inkscape:window-y="-8"
     inkscape:window-maximized="1"
     inkscape:current-layer="svg" /><g
     id="g3"><path
       id="MUN_0108"
       d="m 603.547,117.989 0.341,0.053 0.209,0.052 0.131,0.104 0.314,0.262 0.131,0.209 0.157,0.157 0.235,0.628 0.236,0.576 0.262,0.576 0.183,0.576 0.288,0.367 0.262,0.367 0.132,0.367 0.156,0.262 0.105,0.104 0.025,0.157 0.157,0.262 0.394,0.367 0.34,0.262 0.288,0.105 0.341,0.157 0.287,0.052 0.314,0.052 1.807,0 0.472,-0.052 0.497,-0.105 0.288,-0.052 0.288,-0.052 1.336,0 0.523,0 0.55,0 0.472,0.157 0.156,0.104 0.341,0.367 0.131,0.209 0.157,0.314 0.157,0.262 0,0.367 -0.053,0.367 0,0.314 -0.053,0.262 -0.209,0.523 -0.131,0.576 -0.053,0.681 0.053,0.419 0.104,0.367 0.184,0.314 0.235,0.367 0.498,0.367 0.575,0.523 0.603,0.472 0.786,0.576 0.418,0.576 0.498,0.471 0.34,0.314 1.31,0.733 1.335,0.681 0.864,0.576 0.838,0.471 1.074,0.891 1.309,1.047 0.498,0.262 0.497,0.262 0.419,0.105 0.393,0.157 0.341,0.314 0.34,0.314 0.498,0.681 0.576,0.838 0.654,1.205 0.288,0.524 0.288,0.523 0.785,0.943 0.785,0.733 1.258,0.943 0.942,0.995 0.916,1.1 0.917,1.1 0.497,0.681 0.341,0.995 -0.053,1.1 -0.053,1.414 -0.052,1.466 0.052,1.1 0.157,0.366 0.235,0.314 0.733,0.733 0.942,0.995 0.236,0.209 0.393,0.157 0.445,0.104 0.34,0.053 0.341,0 0.288,0 0.235,-0.053 0.393,-0.104 0.288,-0.209 0.157,-0.209 0.157,-0.157 0.34,-0.785 0.079,-0.314 0.157,-0.628 0.235,-0.367 0.21,-0.209 0.628,-0.262 0.969,-0.314 0.891,-0.053 0.628,-0.104 0.576,-0.262 0.445,-0.209 0.445,-0.209 0.681,-0.472 0.34,-0.104 0.341,-0.052 0.34,0.157 0.394,0.314 1.414,1.204 0.785,0.576 0.497,0.105 0.236,0 0.183,0 1.467,-0.995 0.785,-0.262 0.629,0 0.602,0.157 0.786,0.104 0.576,0.157 0.681,0.367 0.55,0.838 0.183,0.628 0.184,0.681 0,0.419 0,0.367 -0.026,0.733 -0.052,0.733 -0.105,0.943 0.105,0.733 0.235,0.419 0.393,0.262 0.629,0.262 0.602,0.209 0.524,0.262 0.444,0.314 0.131,0.157 0.105,0.052 0.209,0.314 0.026,0.314 0,0.209 0,0.157 -0.235,0.891 -0.341,1.1 -0.184,0.471 0,0.367 0.026,0.576 0,0.576 -0.026,0.367 0.026,0.314 0.157,0.209 0.498,0.314 0.235,0.104 0.235,0.053 0.314,0.157 0.184,0.157 0.288,0.262 0.785,0.943 0.497,0.628 0.524,0.628 0.287,0.262 0.394,0.262 0.104,0.105 0.523,0.157 0.498,0.21 0.55,0.262 0.523,0.419 0.603,0.366 0.287,0.209 0.288,0.157 0.341,0.052 0.445,-0.052 0.393,-0.262 0.184,-0.209 0.157,-0.262 0.183,-0.157 0.157,-0.209 0.235,-0.157 0.236,-0.157 0.654,-0.524 0.629,-0.524 0.628,-0.733 0.393,-0.681 0.498,-1.257 0.523,-0.576 0.576,-0.471 0.393,-0.209 0.393,0.052 0.341,0.209 0.393,0.209 0.445,0.367 0.497,0.314 0.419,0.314 0.55,0.262 0.785,0.157 0.341,0 0.341,-0.053 0.393,0 0.393,-0.052 0.576,0 0.576,0.052 0.366,0 0.288,0.053 0.419,-0.053 0.707,-0.262 0.681,-0.419 0.288,-0.209 0.34,-0.262 0.445,-0.419 0.681,-0.942 0.236,-0.262 0.235,-0.314 0.341,-0.209 0.366,-0.262 0.523,-0.314 0.445,-0.157 0.681,-0.104 0.445,0.104 0.576,0.314 0.445,0.523 0.444,0.786 0.184,0.524 0.235,0.628 0.445,0.785 0.341,0.471 0.34,0.419 0.995,0.943 0.523,0.524 0.629,0.576 0.995,0.681 0.628,0.209 0.393,0.105 0.394,0.052 0.393,0 0.366,-0.052 0.393,-0.052 0.655,-0.157 0.916,0 0.629,0.262 0.628,0.524 0.393,0.471 0.157,0.314 0.184,0.367 0.209,0.314 0.393,0.314 0.394,0.314 0.523,0.314 0.497,0.367 1.807,1.728 1.545,1.676 1.205,1.361 0.628,0.838 0.262,0.576 0.157,0.419 0.053,0.471 0.104,0.943 0.262,0.523 0.576,0.943 0.942,1.414 0.786,0.943 0.313,0.262 0.314,0.314 0.314,0.209 0.471,0.104 0.472,-0.104 0.472,-0.105 0.313,-0.157 0.263,-0.104 0.523,-0.314 1.414,-0.995 0.681,-0.891 0.419,-0.523 0.366,-0.733 0.419,-0.733 0.262,-0.471 0.419,-0.89 0.366,-0.576 0.263,-0.419 0.313,-0.314 0.314,-0.209 0.157,-0.052 0.366,0 0.786,0.209 0.419,0.576 0.419,0.89 0.628,0.733 0.733,1.047 0.472,0.419 0.838,0.157 1.728,-0.209 3.823,-0.419 2.775,-0.052 0.89,0 1.571,0.209 0.733,0.209 1.257,0.314 1.1,0.367 0.628,0.314 0.733,0.681 0.523,0.733 0.263,0.472 0.262,0.576 0.262,0.314 0.628,0.471 0.419,0.524 0.419,0.209 0.472,0.104 0.576,0 0.366,0.209 0.157,0.419 0.262,0.314 0.472,0.157 0.314,0.157 0.104,0.628 0.104,0.576 0.419,0.471 0.419,0.419 0.419,0.419 0.262,0.523 0.157,0.314 0,0.471 -0.104,0.733 0.052,0.523 0.157,0.419 0.157,0.419 0.157,0.367 0.785,0.786 0.942,0.785 1.781,1.466 3.299,1.519 0.629,0.157 1.309,0.314 0.681,0.157 1.048,0.104 1.1,0 0.838,-0.419 1.1,-0.733 0.314,-0.314 0.628,-0.524 0.523,-0.785 0.733,-1.1 0.157,-0.419 0.157,-0.472 0.209,-0.366 0.786,-0.576 0.995,-0.471 0.523,0.104 0.733,0.471 0.575,0.733 0.367,0.523 0.262,0.053 1.31,0 1.519,-0.419 0.994,-0.419 2.357,-0.576 1.623,-0.524 0.523,-0.262 0.523,-0.576 0.367,-0.733 0.523,-0.262 0.785,-0.314 1.99,-0.576 0.576,-0.157 0.891,-0.733 0.471,-0.314 0.995,-0.053 0.419,0.105 1.257,-0.471 0.576,-0.053 0.419,0.105 0.472,0.052 0.523,0.105 0.733,0.367 0.418,0.157 0.472,0.052 0.891,0 0.576,-0.157 1.047,-0.367 0.995,-0.262 0.733,-0.053 0.681,0.21 0.785,0.471 0.523,0.419 0.576,0.052 1.414,-0.157 0.785,-0.157 0.524,-0.209 0.681,0.104 0.785,0.471 0.053,0 0.157,0.105 0.366,0.262 1.204,0.733 1.414,0.785 0.576,0.314 0.523,0.366 0.891,0.157 1.99,0.157 0.732,0.104 0.838,0 0.733,0.105 1.205,0.157 1.1,-0.105 0.523,-0.052 0.785,-0.209 0.419,-0.262 0.472,-0.576 0.523,-0.471 0.629,-0.314 0.628,-0.104 0.785,0.104 0.838,0.157 0.681,0.209 0.21,-0.157 6.546,-5.499 4.398,22.675 -3.718,4.922 -0.104,0.576 -0.472,0.262 -0.785,0.628 -0.576,0.471 -0.785,0.524 -0.472,0.314 -0.472,0.157 -0.628,0.052 -0.576,0 -0.681,0.209 -0.681,0.314 -0.681,0.419 -0.472,0.523 -0.314,0.209 -0.313,0.576 -0.21,0.733 0,0.628 0,0.995 0.21,0.786 0.104,1.047 0.104,0.995 0,0.419 -0.314,0.524 -0.838,1.309 -0.575,1.257 -0.472,0.89 -0.838,0.472 -1.1,0.89 -1.152,0.942 -0.733,0.524 -1.1,0.681 -0.89,0.576 -0.314,0.471 -0.262,0.314 -0.157,0.524 -0.262,0.262 -0.367,0.367 -0.681,0.419 -0.262,0.262 -0.262,0.314 -0.104,0.419 0.104,0.471 0.21,0.419 0.419,0.523 0.523,0.419 0.366,0.367 0.21,0.262 0.104,0.367 -0.053,0.523 -0.471,0.943 -0.891,1.466 -0.576,1.047 -0.209,0.523 -0.314,0.628 -0.629,1.205 -0.681,1.257 -0.209,0.367 -0.838,1.1 -0.629,0.838 -0.575,0.681 -0.472,0.367 -0.629,0.262 -0.994,0.157 -1.152,0 -0.838,0 -0.629,0.157 -0.995,0.628 -0.838,0.367 -0.628,0.419 -0.21,0.157 -0.366,0.052 -0.419,-0.052 -0.628,-0.314 -0.681,-0.314 -0.995,-0.209 -0.733,0 -1.047,0.157 -1.362,0.419 -0.419,0.104 -1.047,-0.052 -1.205,0 -1.1,0.367 -0.419,0.157 -0.838,-0.052 -0.995,-0.052 -0.942,-0.367 -0.733,-0.262 -0.471,0 -0.523,0.157 -1.048,0.628 -0.785,0.523 -1.1,0.576 -1.519,0.681 -1.571,0.733 -0.995,0.419 -1.676,0.785 -0.628,0.367 -0.629,0.471 -0.472,0.419 -0.366,0.472 -0.523,1.466 -0.314,0.681 -0.262,0.628 -0.21,2.095 -0.104,0.995 -0.471,1.1 -0.838,0.419 -0.367,0 -0.733,-0.21 -0.575,-0.419 -0.943,-1.152 -0.681,-0.419 -1.519,-0.628 -0.733,-0.419 -0.785,-0.471 -0.366,-0.157 -0.576,-0.104 -0.786,0.052 -1.151,0.576 -1.361,0.628 -0.682,0.262 -0.156,0.209 -0.157,0.471 -0.105,0.786 -0.104,0.681 -0.209,0.576 -0.314,0.576 -0.314,0.733 -0.157,0.628 -0.366,0.157 -0.576,0.209 -0.366,0.157 -0.157,0.105 -0.21,0.104 -0.209,0.105 -0.157,0.104 -0.628,0.314 -0.157,0.104 -0.472,0.157 -0.366,0.157 -0.472,0.209 -0.262,0.209 -0.419,0.314 -0.262,0.209 -0.262,0.367 -0.21,0.576 -0.052,0.471 0,0.209 0,1.205 -0.053,0.471 -0.053,0.576 -0.419,1.571 -0.262,0.733 -0.104,0.262 -0.366,0.157 -0.367,0.104 -0.366,0.262 -0.262,0.419 -0.21,0.367 -0.314,0.367 -0.262,0.209 -0.523,0.052 -0.523,0.105 -0.314,0.157 -0.471,0.262 -0.524,0.471 -0.419,0.314 -0.419,0.209 -0.419,0.314 -0.471,0.419 -0.367,0.366 -0.419,0.314 -0.419,0.262 -0.523,0.209 -0.628,0.314 -0.891,0.367 -0.942,0.262 -0.681,0.366 -0.733,0.367 -1.1,0.524 -1.676,0.89 -0.576,0.314 -0.785,0.367 -0.576,0.262 -0.576,0.209 -0.472,0.105 -0.471,0 -0.367,-0.209 -0.313,-0.262 -0.576,-0.314 -0.576,-0.209 -0.629,-0.104 -0.523,0 -1.361,0 -0.629,0.052 -0.523,0.209 -0.523,0.104 -0.576,0.053 -0.629,0 -0.628,0.104 -0.472,0.209 -0.471,0.209 -0.523,0.209 -0.524,0.209 -0.366,0.262 -0.367,0.419 -0.262,0.524 -0.262,0.471 -0.104,0.524 -0.053,0.471 0,0.576 0.21,0.524 0.209,0.471 0.314,0.786 0.104,0.262 0.105,0.262 0.262,0.472 0.209,0.419 0.104,0.576 0,0.314 -0.052,0.209 -0.157,0.471 -0.053,0.157 -0.576,0.419 -0.942,0.628 -0.576,0.367 -0.732,0.419 -1.152,0.262 -0.733,0.262 -0.314,0.157 -1.309,0.523 -0.419,0.157 -0.472,0.209 -0.838,0.262 -0.262,0 -0.681,0.052 -0.681,-0.209 -0.629,-0.366 -0.366,-0.367 -0.838,-0.786 -0.419,-0.367 -0.628,-0.733 -0.681,-0.681 -0.263,-0.262 -0.863,-0.785 -0.419,-0.157 -0.21,0 -0.235,0 -0.393,0.209 -0.236,0.209 -0.34,0.419 -0.445,1.152 -0.341,1.414 -0.104,0.89 -0.104,0.419 -0.079,0.367 -0.262,0.419 -0.183,0.262 -0.288,0.472 -0.55,0.419 -0.445,0.681 -0.131,0.523 0,0.367 0,0.419 0,0.262 -0.104,0.786 -0.105,0.419 -0.34,0.681 -0.131,0.262 -0.157,0.628 -0.341,0.943 -0.157,0.471 -0.131,0.471 -0.209,0.733 -0.053,0.419 -0.026,0.471 -0.262,0.786 -0.183,0.471 -0.263,0.367 -0.419,0.367 -0.497,0.209 -0.393,0.053 -0.236,-0.053 -0.209,0 -0.419,-0.157 -0.393,-0.209 -0.498,-0.053 -0.288,0.053 -0.393,0.157 -0.838,0.314 -0.183,0.157 -0.21,0.262 -0.078,0.471 0,0.628 0,1.728 0.025,1.1 0,0.314 0.314,0.367 0.053,0.104 0.078,0.262 0,0.366 0.053,0.472 -0.235,0.523 -0.21,0.523 -0.34,0.576 -0.288,0.419 -0.236,0.419 -0.602,0.838 -0.341,0.471 -0.34,0.419 -0.419,0.262 -0.733,0.262 -0.341,0.104 -0.366,0.262 -0.341,0.314 -0.366,0.262 -0.733,0.628 -0.445,0.262 -0.444,0.262 -0.288,0.262 -0.262,0.262 -0.184,0.314 -0.053,0.052 -0.235,0.367 -0.157,0.314 -0.131,0.681 -0.157,1.361 -0.053,0.942 0,0.472 0.263,0.471 0.131,0.314 0.235,0.419 0.209,0.157 0.864,0.314 0.445,0.157 0.341,0.367 0.445,0.471 0.156,0.157 0.131,0.262 0.21,0.209 0.184,0.209 0.235,0.105 0.262,0 0.393,-0.052 0.576,0 0.55,0 0.472,0.104 0.157,0 0.681,0.157 0.969,0.314 0.262,0.053 0.812,0.104 0.733,0 0.209,0 0.576,-0.104 0.785,-0.314 0.682,-0.104 0.34,0 0.576,-0.053 3.482,-1.257 1.649,-0.628 0.969,0.053 7.279,0.419 8.851,20.057 25.188,-5.237 11.992,-9.112 3.246,-2.042 2.514,-2.985 12.621,5.813 1.989,-2.251 2.881,-1.466 -0.472,-2.252 0.942,-1.309 0.262,-0.262 0.524,-1.885 2.146,-2.042 1.257,-1.205 3.457,-0.471 2.775,-1.257 3.718,-0.471 0.472,-0.052 2.094,0.576 2.985,-0.838 0.576,-0.262 0.053,0 0.523,-0.314 0.157,-0.157 0.209,-0.314 0.419,-0.471 0.21,-0.367 0.052,-0.052 0.733,7.07 1.571,-3.247 1.309,-1.1 0.681,-0.367 0.786,-0.314 0.366,-0.052 0.367,-0.053 0.262,-0.052 0.523,0 0.733,0 0.471,0 0.367,0 0.366,-0.104 0.209,-0.053 0.263,-0.052 0.262,0 0.313,0 0.314,0 0.157,0.052 0.21,0.053 0.209,0.104 0.366,0.157 0.419,0.104 0.314,0.157 0.472,0 0.366,0 0.314,0.052 0.209,0.105 0.21,0.157 0.157,0.157 0.576,0.838 0.523,0.786 0.262,0.523 0.314,0.524 0.314,0.419 0.366,0.471 0.472,0.419 0.418,0.314 0.367,0.157 0.419,0.157 0.366,0 0.262,0 0.262,-0.104 0.263,-0.157 0.628,-0.419 0.523,-0.314 0.472,-0.21 0.523,-0.209 0.419,-0.053 0.523,0.053 0.262,0.157 0.314,0.157 0.314,0.052 0.209,-0.052 0.42,-0.419 0.156,-0.157 0.419,-0.367 0.314,-0.104 0.419,-0.052 0.157,0 0.262,-0.419 0.157,-0.314 0.053,-0.419 0.052,-0.523 0.104,-0.367 0.157,-0.262 0.21,-0.314 0.262,-0.314 0.419,-0.471 0.262,-0.314 0.157,-0.262 0.314,-0.419 0.313,-0.419 0.314,-0.524 0.419,-0.314 0.629,-0.576 0.471,-0.366 0.367,-0.314 0.313,-0.209 0.105,-0.105 0.209,-0.052 0.262,-0.052 0.262,0 0.21,0.052 0.523,0.262 0.629,0.314 0.419,0.314 1.151,0.367 0.472,0.105 1.833,0 -0.157,0.209 0.838,-0.262 0.628,-0.314 0.891,-0.052 0.629,0 0.732,0.104 0.733,0.314 0.681,0.366 0.629,0.157 0.681,-0.157 0.942,-0.209 0.838,-0.052 0.733,0 0.575,0.105 0.629,0.209 0.419,0.262 0.366,0.367 0.262,0.471 0.21,0.471 0.523,0.681 0.523,0.419 0.576,0.314 0.576,0.262 0.523,0.367 0.419,0.104 0.419,0.576 0.419,0.471 0.629,0.628 0.471,0.472 0.367,0.419 0.419,0.523 0.314,0.523 0.366,0.472 0.419,0.681 0.314,0.419 0.262,0.523 0.314,0.472 0.419,0.733 0.366,0.471 0.314,0.419 0.419,0.419 0.313,0.367 0.472,0.209 0.576,0.314 0.419,0.209 0.419,0.21 0.053,0.576 0,0.157 0.052,0.105 0,0.104 0.104,0.838 0.21,0.733 0.262,0.419 0.262,0.367 0.21,0.209 0.313,0.209 0.263,0.314 0.262,0.314 0.313,0.524 0.21,0.523 0.262,0.419 0.209,0.524 0.157,0.366 0.263,0.262 0.418,0.681 0.314,0.366 0.419,0.419 0.523,0.576 0.367,0.367 0.471,0.419 0.367,0.419 0.366,0.314 0.472,0.472 0.523,0.419 0.472,0.366 0.366,0.472 0.419,0.471 0.472,0.471 0.313,0.471 0.472,0.628 0.314,0.419 0.366,0.472 0.314,0.523 0.157,0.523 0.104,0.524 0.053,0.628 0.052,0.628 0,0.681 -0.052,0.576 0,0.104 -0.053,0 -0.157,0.628 -0.366,0.576 -0.576,0.628 -0.472,0.576 -0.471,0.786 -0.419,0.681 -0.314,0.785 -0.419,0.891 -0.314,0.89 -0.419,0.786 -0.628,1.257 -0.419,0.942 -0.524,1.1 -0.419,0.681 -0.313,0.733 -0.367,0.628 -0.262,0.628 -0.104,0.523 0,0.628 0,0.628 0.053,0.628 0.104,0.576 0.104,0.471 -0.104,0.576 -0.262,0.523 -0.472,0.733 -0.366,0.523 -0.576,0.576 -0.629,0.681 -0.628,0.681 -0.576,0.576 -0.681,0.786 -0.629,0.681 -0.523,0.733 -0.471,0.628 -0.472,0.786 -0.314,0.837 -0.419,0.891 -0.157,0.419 -0.366,0.523 -0.419,0.628 -0.681,0.733 -0.606,0.862 -0.419,0.523 -0.419,0.628 -0.523,0.995 -0.523,0.995 -0.629,0.995 1.048,-0.838 0.104,-0.104 0.104,-0.105 0.576,-0.419 0.629,-0.104 0.838,-0.105 0.838,-0.052 1.257,-0.262 0.681,-0.157 0.628,-0.367 0.681,-0.366 0.629,-0.524 0.523,-0.523 0.576,-0.576 0.523,-0.628 0.576,-0.576 0.576,-0.681 0.576,-0.524 0.628,-0.628 0.681,-0.472 0.733,-0.733 0.733,-0.681 0.785,-0.681 0.786,-0.628 0.732,-0.628 0.576,-0.471 0.629,-0.681 0.523,-0.628 0.628,-0.681 0.576,-0.576 0.838,-0.681 1.467,-0.524 0.681,-0.157 0.628,-0.314 0.524,-0.471 0.471,-0.419 0.629,-0.733 0.366,-0.419 0.419,-0.733 0.262,-0.524 0.21,-0.733 0.104,-0.576 0.053,-0.89 0.052,-0.733 0.21,-0.786 0.419,-0.681 0.262,-0.523 0.419,-0.628 0.419,-0.523 0.471,-0.576 0.682,-0.681 0.994,-0.943 0.576,-0.314 0.891,-0.524 0.681,-0.367 0.785,-0.366 0.733,-0.105 0.838,-0.104 0.733,-0.105 0.785,-0.209 0.576,-0.314 0.733,-0.419 0.576,-0.367 0.681,-0.471 0.628,-0.471 0.419,-0.419 0.314,-0.472 0.366,-0.628 0.262,-0.628 0.367,-0.523 0.419,-0.681 0.366,-0.472 0.419,-0.523 0.262,-0.367 0.157,-0.523 0.053,-0.471 -0.053,-0.995 0.053,-0.628 0.104,-0.733 0.314,-1.1 0.104,-0.733 0,-0.262 0.366,-0.733 0.891,-0.262 2.304,-0.524 0.263,1.833 0.262,1.833 0.209,1.466 0.262,1.414 0.367,1.676 0.157,0.576 1.57,6.284 1.938,8.064 1.52,4.084 1.047,3.299 2.88,2.409 3.352,2.775 7.122,3.038 0.262,2.775 1.31,-0.209 0,-1.466 0.942,-1.624 1.676,-1.361 2.042,-3.613 2.043,-1.519 2.042,-1.571 2.042,-5.551 0.733,-1.885 0.053,-2.147 0.104,-2.356 0.157,-2.723 0.209,-4.451 0.524,-5.813 0.262,-0.838 2.409,-7.75 0.523,0.209 0.314,0.209 -0.263,0.576 -0.366,1.257 -0.157,0.523 -0.052,0.419 0,0.419 0.052,0.367 0.104,0.367 0.21,0.471 0.262,0.471 0.366,0.472 0.314,0.523 0,0.576 0,0.681 -0.209,0.576 -0.157,0.681 -0.104,0.628 0,0.628 0,1.833 0.052,0.628 0.157,0.785 0.209,0.576 0.263,0.89 0.262,0.576 0.209,0.838 0.367,0.733 0.262,0.524 0.313,0.367 0.472,0.523 0.472,0.367 0.471,0.262 0.576,0.367 0.786,0.471 0.471,0.314 0.262,0.523 0,0.105 0.105,0.628 0,2.147 -0.105,1.152 -0.104,1.257 -0.104,1.309 -0.21,1.205 -0.209,0.943 -0.367,0.942 -0.313,0.681 -0.367,0.733 -0.471,0.681 -0.524,0.576 -0.628,0.576 -0.576,0.628 -0.576,0.838 -0.471,0.681 -0.419,0.785 -0.367,0.733 -0.262,0.733 -0.053,0.838 0,0.786 0,0.786 0,0.733 -0.104,0.681 -0.523,0.576 -0.628,0.367 -0.524,0.681 -0.262,0.681 0,0.681 0.053,0.942 0.209,0.89 0.262,0.995 0.21,0.89 0.157,0.786 0.157,0.733 0.156,0.838 0.157,0.786 0.105,0.943 0.157,0.942 0.209,0.733 0.366,0.838 0.105,0.681 0,0.786 0.157,0.838 0.156,0.785 0,0.838 -0.104,0.785 -0.052,0.786 0.052,0.838 0.104,0.419 0.053,0.366 0,0.629 0.472,-0.576 0.471,-0.681 0.524,-0.681 0.732,-0.786 0.891,-0.681 0.838,-0.628 0.681,-0.105 0.891,-0.262 0.89,-0.628 0.891,-0.576 0.942,-0.681 0.785,-0.524 0.943,-0.575 1.1,-0.472 1.047,-0.629 1.1,-0.628 0.786,-0.628 0.942,-0.733 0.838,-0.733 0.89,-0.628 0.786,-0.471 1.1,-0.576 0.942,-0.733 0.838,-0.733 1.048,-1.1 0.942,-1.1 0.523,-0.89 0.629,-1.152 1.204,-2.566 0.576,-0.733 0.785,-0.628 0.681,-0.366 0.681,-0.105 0.576,0.105 0.629,0.262 0.681,0.314 0.838,0.419 0.681,0.157 0.419,-0.104 0.629,-0.472 0.732,-0.523 0.681,-0.576 0.786,-0.471 0.838,-0.523 1.257,-0.628 0.89,-0.524 0.838,-0.523 0.419,-0.314 0.995,0.157 0.838,0.052 0.838,0.105 0.891,0 0.89,0 1.414,-0.314 0.104,-0.052 -2.514,5.289 0.943,0.576 1.361,-0.105 0.681,0.052 0.104,0 0.053,0 0.104,0.053 0.157,0.104 0.262,0.262 0.157,0.209 0.366,0.838 0.682,1.31 3.403,2.356 1.729,1.466 2.042,2.723 0.104,0.157 0.262,0.419 3.509,4.294 12.568,15.238 16.967,20.267 11.05,10.369 -1.31,2.775 -0.157,0.89 0.053,1.519 0.523,1.886 1.205,1.257 0.052,0.523 -0.471,0.733 -0.262,0.576 0.418,0.838 0.053,0.471 -0.681,0.629 0.21,0.314 0.104,0.262 0.313,0.209 0.105,0 0.366,0.21 0.733,0.313 0.314,0.157 0.681,0.314 0.157,0.053 0.366,0.156 0.733,0.629 0.419,0.366 0.104,0.157 0.576,0.733 0.523,0.838 0.104,0.262 0.21,0.419 0.523,1.152 0.104,0.366 0.053,0.21 0.104,0.575 -0.053,0.21 0,0.628 0,0.21 0.053,0.104 0.314,0.942 0,0.053 0.104,0.733 0,0.104 -0.157,0.523 -0.157,0.629 -0.104,0.419 -0.366,0.89 -0.053,0.053 -0.209,0.523 -0.472,1.048 -0.366,0.628 0,0.157 -0.524,0.681 -0.523,0.891 -0.209,0.314 -0.157,0.209 -0.629,1.048 -0.157,0.209 -0.209,0.21 -0.419,0.523 -0.053,0.052 -0.523,0.21 -0.209,0.053 -0.419,-0.157 -0.105,-0.053 -0.681,-0.472 -0.157,-0.156 -0.209,-0.053 -0.314,-0.053 -0.262,-0.052 -0.314,0.209 0,0 -0.262,0.157 -0.262,0.419 -0.314,0.314 -0.052,0.052 -0.21,0.472 -0.262,0.629 -0.104,0.209 -0.053,0.104 -0.262,0.681 -0.21,0.262 -0.366,0.367 -0.523,0.576 -0.157,0.157 -0.681,0.628 -0.21,0.21 0,0 -0.89,0.471 -0.104,0.053 -0.105,0.052 -0.785,0.21 -0.209,0.104 -0.367,0 -0.366,0.053 -0.262,0 -0.524,0.366 -0.052,0.053 -0.262,0.209 -0.786,0.472 -0.785,0.472 -0.051,0.048 -0.157,0.314 -0.262,0.523 0,0.367 0,0 -0.052,0.994 0,0.21 0,0.419 0,0.419 0,0.104 0.052,1.152 0,0.209 0,0.053 0.157,1.361 0.053,0.262 0.052,0.21 0.472,1.204 0.157,0.367 0.209,0.681 0.157,0.366 0.21,0.472 0,0.419 0,0.104 -0.053,0.209 -0.209,0.21 -0.262,0.262 0,0 -0.21,0.157 -0.419,0.209 -0.262,0.105 -0.053,0 -0.785,0.313 -0.104,0.053 -0.314,0.157 -0.262,0.209 -0.053,0.053 -0.314,0.785 0,0.053 0,0.053 -0.052,0.838 0,0.156 0.052,0.263 0.21,1.151 0.104,0.524 0.104,0.89 0.053,0.367 0.053,0.785 0,1.047 0,0.419 0,0.524 0,0.942 -0.053,1.257 0,0.052 0,0.472 0,1.048 0.053,0.313 0,0.21 0.104,1.047 0.053,0.157 0.262,0.681 0.576,1.78 0,0.053 0.052,0.053 0.419,1.414 0.157,0.419 0.053,0.262 0.104,0.785 0.104,0.472 0,0.576 0,0.156 -0.052,0.524 -0.21,0.628 -0.104,0.366 -0.053,0.314 -0.209,0.472 -0.367,0.838 -0.052,0.052 -0.105,0.21 -0.575,0.733 -0.157,0.157 -0.157,0.209 -0.629,0.576 -0.104,0.104 -0.681,0.523 -0.419,0.314 -0.053,0 -1.623,0.838 -0.157,0.053 -0.157,0.104 -1.257,0.576 -0.419,0.209 -0.104,0.105 -0.366,0.262 -0.262,0.157 -0.21,0.366 0,0.053 -0.209,0.366 -0.314,0.209 -0.157,0.157 -0.104,0.105 -0.472,0.262 -0.785,0.576 -0.104,0.104 -0.157,0.209 -0.733,0.891 -0.053,0.209 -0.209,0.314 -0.367,0.786 0,0.052 -0.471,0.681 -0.262,0.262 -0.053,0.105 -0.785,0.785 -0.105,0.104 -0.052,0.053 -0.891,0.942 -0.366,0.314 -0.157,0.052 -0.21,0.105 -0.156,0.104 -0.157,0.104 0,0 -0.157,0.105 -0.104,0.104 -0.105,0.052 0,0.053 -0.052,0.104 -0.053,0.21 0,0 0,0.052 0,0.419 0,0.105 0,0.262 0,0.471 0,0 0,0.472 0.053,0.157 0,0.052 0.104,0.524 0,0.052 0,0 0.209,0.524 0.105,0.209 0.104,0.262 0.104,0.21 0.104,0.366 0.105,0.314 0,0.052 0.104,0.314 0.053,0.157 0.052,0.314 0,0.052 0,0.157 -0.052,0.314 0,0.104 0,0 0,0.419 0,0.053 0.052,0.209 0.053,0.262 0,0.053 0.104,0.314 0,0.104 0,0.053 -0.053,0.313 0,0.105 0,0 -0.419,0.628 -0.209,0.314 -0.104,0.157 -0.105,0.157 -0.156,0.262 -0.105,0.314 -0.052,0.052 0,0.262 -0.105,0.157 -0.052,0.314 -0.053,0.104 0,0.157 -0.104,0.523 -0.053,0.053 0,0 -0.157,0.576 0,0 -0.104,0.262 -0.104,0.314 0,0.052 -0.157,0.262 -0.053,0.053 -0.052,0.104 -0.262,0.367 -0.105,0.104 0,0.053 -0.052,0.104 0,0.052 -0.053,0.105 -0.052,0.052 -0.105,0.053 -0.104,0.104 0,0.053 -0.209,0.209 -0.157,0.105 0,0 -0.21,0.209 -0.157,0 -0.052,0.053 -0.314,0.104 -0.053,0 -0.104,0 -0.472,0.052 -0.156,0.053 -0.262,0.104 -0.053,0 -0.104,0.105 -0.157,0.104 -0.105,0.053 -0.052,0.156 -0.157,0.21 -0.104,0.157 -0.104,0.104 -0.105,0.104 -0.157,0.157 -0.052,0.21 -0.105,0.104 -0.262,0.262 -0.052,0.104 -0.053,0.053 -0.104,0.262 0,0.157 0,0 -0.053,0.314 0.053,0.052 0,0.053 0.157,0.314 0.052,0.052 0.053,0.104 0.209,0.367 0,0 0.105,0.104 0.262,0.262 0.053,0.053 0.156,0.052 0.262,0.157 0.053,0.053 0.157,0.053 0.21,0 0.156,0.052 0.105,0.053 0.052,0.104 0.157,0.104 0.053,0.105 0.052,0.052 0.157,0.262 0,0.105 0,0.052 0,0.314 0,0.104 0,0 0,0.419 0,0.104 0,0.053 0.053,0.472 0,0.052 0.053,0.104 0.104,0.576 0,0.053 0.052,0.104 0.21,0.367 0,0.104 0.104,0.104 0.21,0.366 0.104,0.105 0.104,0.104 0.21,0.262 0.209,0.157 0.104,0.053 0.21,0.209 0.209,0.262 0.053,0.053 0.104,0.157 0.262,0.262 0.053,0.052 0.053,0.053 0.366,0.419 0.053,0.053 0,0.052 0.209,0.472 0,0 0,0 0.053,0.262 0,0 0,0 0,0.366 0,0.053 0,0.053 -0.053,0.209 0,0.053 0,0.052 -0.104,0.263 -0.053,0.104 -0.052,0 -0.105,0.157 -0.104,0.104 -0.053,0.053 -0.104,0.104 -0.104,0.157 -0.053,0 -0.104,0.104 -0.262,0.157 -0.053,0 -0.104,0 -0.209,0.104 -0.053,0 -0.053,0.053 -0.262,0.104 -0.052,0 -0.21,0.209 0,0 -0.262,0.157 0,0.053 -0.053,0 -0.262,0.104 -0.052,0.053 -0.053,0 -0.104,0.104 -0.104,0 0,0.053 -0.157,0.104 -0.105,0.157 0,0 -0.104,0.157 -0.104,0.209 0,0 0,0.104 -0.104,0.21 0,0 0,0.104 0,0.262 0,0.053 0,0.052 0,0.367 0,0 0,0 0.052,0.262 0,0.053 0.053,0.366 0,0.053 0,0.052 0,0.995 0,0.366 0,0 0,0.263 0,0.156 0,0 0,0.21 0,0.209 0,0 0.104,0.263 0.157,0.313 0,0 0.157,0.157 0.262,0.262 0,0 0.053,0.105 0.104,0.366 0,0.053 0,0.052 0,0.367 0,0.052 0,0 -0.21,0.419 0,0.053 0,0 -0.313,0.576 -0.053,0.104 0,0.052 -0.157,0.314 -0.053,0.157 0,0 0,0.314 0,0.157 0,0 0.053,0.262 0.104,0.209 0,0 0,0.157 0.053,0.157 0,0.053 -0.053,0.157 -0.104,0.262 0,0.052 -0.053,0.105 -0.104,0.313 0,0.053 0,0.053 -0.052,0.366 0,0.053 0,0 -0.053,0.471 0,0 0,0.053 -0.209,0.314 -0.053,0.052 0,0.053 -0.262,0.419 -0.053,0.157 -0.053,0.052 -0.209,0.21 -0.157,0.104 -0.052,0.053 -0.105,0.157 -0.104,0.209 -0.053,0.053 -0.052,0.157 -0.053,0.262 0,0.104 -0.053,0.104 -0.104,0.367 -0.104,0.104 -0.104,0.366 -0.053,0.053 0,0.052 -0.209,0.419 0,0.053 -0.053,0.053 -0.104,0.262 0,0 -0.053,0.104 -0.052,0.314 0,0 0,0.104 0,0.314 -0.053,0.104 0,0.053 0.053,0.262 0,0.104 0,0.104 0.104,0.21 0.052,0.157 0.053,0.052 0,0.157 0.157,0.21 0.053,0.104 0.104,0.104 0.157,0.314 0.104,0.104 0,0.053 0.157,0.313 0.052,0.105 0,0.052 0.157,0.367 0.053,0.104 0,0.053 0.157,0.366 0,0.053 0.052,0.052 0.21,0.472 0,0 0.052,0.104 0.157,0.366 0,0.105 0.105,0.157 0.104,0.209 0.104,0.104 0.053,0.105 0.104,0.209 0.053,0.157 0.104,0.157 0.052,0.157 0.105,0.209 0.052,0.157 0,0.104 0,0.21 0,0.157 0,0.052 -0.052,0.314 0,0.157 0,0 -0.21,0.314 -0.052,0.052 0,0.053 -0.262,0.262 -0.053,0.053 -0.053,0.052 -0.314,0.314 -0.052,0 -0.157,0.157 -0.314,0.209 -0.104,0.053 -0.104,0.157 -0.314,0.157 -0.104,0.104 -0.21,0.104 -0.157,0.157 -0.156,0.157 -0.157,0.104 -0.105,0.104 -0.209,0.21 -0.053,0.104 -0.104,0.104 -0.157,0.21 -0.104,0.157 -0.053,0 -0.157,0.366 -0.104,0.157 0,0 -0.104,0.262 -0.053,0.053 -0.052,0.052 -0.262,0.263 -0.053,0 -0.104,0.104 -0.262,0.314 0,0 -0.105,0.104 -0.157,0.209 -0.052,0.053 -0.104,0.104 -0.105,0.21 -0.052,0.104 -0.053,0.157 -0.053,0.157 -0.052,0.104 -0.053,0.209 0,0.105 0,0.209 0,0.157 0,0.053 0.053,0.262 0,0.157 0,0.052 0.104,0.314 0.053,0.209 0,0 0,0.314 0.052,0.104 0,0.053 0.157,0.366 0.053,0.105 0.052,0.157 0.21,0.313 0,0 0.104,0.105 0.157,0.262 0,0 0.157,0.209 0.157,0.157 0.104,0.104 0.21,0.157 0.052,0.157 0.157,0.104 0.21,0.157 0.052,0.104 0.157,0.157 0.157,0.21 0,0.052 0.157,0.263 0.157,0.209 0,0 0.104,0.262 0.053,0.21 0.052,0.052 0.053,0.367 0,0.157 0,0.156 0.052,0.367 0,0.104 0.053,0.21 0,0.523 0,0.052 0,0.314 0,0.523 0,0.053 0,0.523 0,0.262 0,0.105 0,0.366 0,0.209 0,0.157 0.053,0.262 0,0.105 0.052,0.209 0.053,0.262 0,0 0.104,0.21 0.104,0.209 0,0 0,0.314 0,0.21 0,0.104 -0.052,0.262 -0.053,0.104 -0.052,0.157 -0.105,0.262 0,0.053 -0.104,0.157 -0.053,0.209 -0.052,0 -0.104,0.21 -0.105,0.157 0,0 -0.104,0.209 -0.053,0.157 0,0.053 0,0.156 -0.052,0.105 -0.053,0.104 -0.104,0.209 0,0.053 -0.157,0.157 -0.209,0.262 0,0 -0.263,0.21 -0.209,0.156 0,0.053 -0.21,0.157 -0.209,0.104 -0.053,0.053 -0.104,0.157 -0.053,0.104 -0.052,0.104 -0.053,0.262 -0.052,0.053 -0.053,0.157 0,0.262 0,0.052 0,0.263 -0.053,0.209 0,0 -0.052,0.366 -0.053,0.105 0,0.104 -0.157,0.366 -0.052,0.105 -0.053,0.104 -0.104,0.314 0,0.052 -0.053,0.157 -0.157,0.314 0,0 -0.052,0.209 -0.157,0.367 0,0.052 -0.104,0.262 -0.105,0.21 -0.052,0.157 -0.053,0.157 -0.104,0.157 -0.053,0.104 -0.209,0.157 -0.105,0.052 -0.156,0.157 -0.157,0.104 -0.053,0 -0.262,0.053 -0.262,0.104 0,0 -0.419,0.105 -0.157,0.104 -0.053,0 -0.262,0.157 -0.104,0 -0.053,0.052 -0.262,0.157 -0.053,0.053 -0.104,0.104 -0.313,0.314 0,0 -0.157,0.209 -0.262,0.472 0,0.104 -0.21,0.262 -0.262,0.314 -0.157,0.209 -0.104,0.21 -0.157,0.209 -0.157,0.21 -0.104,0.157 -0.104,0.104 -0.157,0.157 -0.105,0.104 -0.052,0.053 -0.21,0.209 -0.104,0.157 -0.053,0 -0.209,0.21 -0.053,0.104 0,0.053 -0.262,0.262 -0.052,0.052 -0.053,0.053 -0.262,0.419 0,0 -0.053,0.157 -0.157,0.366 0,0.053 -0.052,0.157 -0.157,0.262 -0.053,0.052 -0.052,0.105 -0.105,0.157 -0.104,0.104 -0.053,0.157 -0.209,0.262 -0.262,0.209 -0.104,0.105 -0.105,0.156 -0.157,0.263 -0.156,0.156 -0.105,0.105 -0.366,0.366 -0.104,0.104 -0.053,0 -0.314,0.314 -0.104,0.104 0,0 -0.314,0.314 0,0.053 -0.052,0.052 -0.367,0.314 -0.052,0.053 -0.314,0.209 -0.053,0.053 -0.052,0.052 -0.157,0.053 -0.053,0.053 -0.104,0.052 -0.209,0.21 -0.21,0.157 -0.104,0.104 -0.21,0.157 -0.209,0.157 -0.104,0.052 -0.105,0.104 -0.262,0.21 -0.104,0.053 -0.104,0.104 -0.419,0.314 -0.105,0.104 -0.052,0 -0.523,0.314 -0.105,0.052 -0.471,0.053 0,0 -0.053,0.052 -0.419,0.157 0,0 -0.104,0.053 -0.367,0.157 -0.052,0 -0.053,0.052 -0.313,0.053 -0.105,0.053 -0.052,0 -0.21,0 -0.104,0.052 -0.053,0 -0.209,0 -0.21,0 -0.052,0 -0.105,0 -0.209,0 -0.053,0.053 -0.104,0.053 -0.209,0.104 -0.105,0.052 -0.052,0.053 -0.419,0.262 -0.053,0.053 0,0 -0.314,0.314 -0.052,0 0,0 -0.367,0.366 0,0.053 -0.052,0 -0.157,0.209 -0.053,0.104 -0.052,0.053 0,0.053 -0.21,0.209 -0.053,0.104 -0.052,0.053 -0.104,0.209 -0.053,0.21 -0.053,0 -0.052,0.262 -0.053,0.21 0,0 -0.104,0.156 -0.157,0.262 0,0.053 -0.104,0.104 -0.262,0.314 -0.053,0 0,0.104 -0.419,0.262 -0.053,0 0,0.053 -0.366,0.262 0,0 -0.053,0.053 -0.523,0.314 -0.053,0 0,0.052 -0.419,0.21 -0.156,0.104 0,0 -0.314,0.157 -0.104,0.052 -0.053,0.053 -0.366,0.21 -0.21,0.209 0,0 -0.262,0.157 -0.262,0.209 -0.053,0.053 -0.157,0.104 -0.366,0.21 0,0 -0.157,0 -0.314,0.157 -0.104,0.052 -0.314,0.21 0,0 -0.052,0 0,0.052 -0.157,0.21 0,0.053 0,0.262 0,0.052 0,0 -0.104,0.21 -0.053,0.052 0,0 -0.157,0.21 -0.104,0.053 0,0 -0.262,0.156 -0.21,0.105 0,0 -0.209,0.157 -0.21,0.156 0,0 -0.157,0.105 -0.262,0.262 0,0 -0.052,0.052 -0.157,0.263 -0.053,0 0,0.052 -0.052,0.262 0,0.053 0,0.366 0,0 0,0.053 0,0.262 0,0.053 0,0 0.104,0.313 0,0.053 0,0.053 0.209,0.156 0.053,0.105 0,0 0.157,0.157 0.052,0.156 0.053,0 0.053,0.21 0.052,0.314 0,0.104 0,0.209 0.053,0.419 0,0.053 0,0.419 -0.053,1.414 0,0.262 0,0.053 0,0.523 0,0.053 0,0 -0.052,0.681 0,0 0,0.104 -0.157,0.419 0,0.053 -0.053,0.104 -0.104,0.471 0,0.105 0,0.104 -0.104,0.314 0,0.209 0,0.053 -0.053,0.313 -0.053,0.21 0,0.104 -0.052,0.21 -0.053,0.209 0,0.104 -0.052,0.157 -0.157,0.262 0,0.105 -0.053,0.052 -0.104,0.367 -0.053,0.052 0,0.053 -0.157,0.314 -0.052,0.052 0,0 -0.157,0.367 -0.053,0.052 0,0.053 -0.262,0.314 0,0 -0.053,0.052 -0.209,0.262 0,0.053 -0.053,0.104 -0.104,0.21 -0.053,0.052 -0.052,0.105 -0.21,0.157 -0.157,0.104 -0.104,0.052 -0.157,0.053 -0.209,0.104 -0.157,0 -0.157,0.053 -0.366,0.104 -0.157,0.053 -0.104,0 -0.472,0.104 -0.157,0.053 -0.053,0 -0.523,0.157 -0.104,0.052 -0.053,0.053 -0.471,0.157 -0.053,0 -0.157,0.052 -0.366,0.157 -0.21,0.053 -0.366,0.157 0,0 -0.157,0.052 -0.262,0.157 -0.104,0.104 -0.157,0.053 -0.104,0.157 -0.157,0.104 -0.104,0.104 -0.105,0.105 -0.104,0.156 -0.053,0.105 0,0.104 0,0.157 0,0.104 -0.052,0.053 -0.104,0.313 -0.105,0.157 0,0 -0.262,0.419 -0.104,0.105 -0.053,0.052 -0.209,0.419 -0.053,0.053 -0.104,0.157 -0.262,0.366 0,0 -0.104,0.157 -0.21,0.209 -0.053,0.053 -0.156,0.157 -0.157,0.209 -0.105,0.105 -0.104,0.157 -0.104,0.209 -0.053,0.157 -0.104,0.104 -0.053,0.157 -0.104,0.21 -0.104,0.209 -0.053,0.104 -0.052,0.21 -0.053,0.209 0,0.105 -0.052,0.628 -0.053,0.419 0,0.053 0,0.419 0,0.157 0,0.104 0,0.576 0,0.104 -0.053,0.157 -0.052,0.419 0,0 0,0.209 -0.105,0.314 -0.052,0 -0.053,0.209 -0.104,0.157 -0.053,0.053 -0.052,0.157 -0.157,0.104 -0.053,0.104 -0.157,0.157 -0.104,0.053 -0.157,0.104 -0.157,0.157 -0.052,0.053 -0.105,0.156 -0.156,0.157 0,0.053 -0.105,0.314 -0.104,0.209 0,0.053 -0.104,0.366 -0.053,0.104 0,0.105 -0.157,0.313 0,0.105 -0.052,0.157 -0.053,0.313 0,0.053 -0.053,0.157 0,0.262 0,0.053 0,0.262 0.053,0.209 0,0.053 0,0.262 0.053,0.157 0.104,0.052 0.104,0.263 0.104,0.104 0.105,0.104 0.209,0.21 0,0.052 0.104,0.21 0,0.157 0,0 0,0.262 0,0.209 0,0.053 -0.104,0.366 -0.052,0.157 -0.053,0.157 -0.104,0.314 -0.053,0.156 -0.053,0.21 -0.157,0.523 0,0.104 -0.156,0.314 -0.105,0.419 0,0.053 -0.156,0.419 -0.105,0.262 -0.052,0.053 -0.157,0.366 -0.105,0.209 -0.052,0.157 -0.157,0.314 -0.104,0.053 -0.104,0.157 -0.21,0.313 0,0.053 -0.104,0.262 -0.21,0.366 0,0 -0.157,0.21 -0.104,0.209 -0.052,0.053 -0.157,0.262 -0.053,0.21 -0.053,0.104 -0.209,0.209 -0.104,0.053 -0.157,0.21 -0.21,0.104 0,0 -0.262,0.104 -0.209,0.104 -0.053,0 -0.209,0.104 -0.21,0.157 -0.053,0 -0.313,0.21 -0.105,0 -0.052,0 -0.262,0.052 -0.105,0 -0.156,0 -0.314,-0.052 -0.053,-0.053 -0.313,-0.209 -0.367,-0.314 -0.053,0 -0.262,-0.209 -0.209,-0.21 -0.104,-0.053 -0.21,-0.262 -0.157,-0.157 -0.157,-0.156 -0.104,-0.21 -0.104,-0.104 -0.157,-0.157 -0.21,-0.21 -0.052,-0.104 -0.21,-0.314 -0.156,-0.209 0,-0.053 -0.314,-0.313 -0.105,-0.157 -0.052,-0.053 -0.21,-0.262 -0.104,-0.104 -0.104,-0.053 -0.314,-0.262 -0.052,-0.053 -0.053,-0.052 -0.314,-0.262 -0.052,0 -0.053,-0.105 -0.104,-0.157 0,0 -0.105,-0.156 -0.104,-0.21 -0.104,-0.104 -0.104,-0.104 -0.157,-0.157 -0.157,-0.105 -0.104,-0.104 -0.105,-0.052 -0.156,-0.157 -0.21,-0.053 -0.104,-0.053 -0.262,-0.156 -0.157,-0.157 -0.053,0 -0.262,-0.262 -0.157,-0.105 0,-0.052 -0.366,-0.262 -0.104,-0.105 -0.053,-0.052 -0.314,-0.21 -0.052,-0.052 -0.105,-0.053 -0.366,-0.209 0,-0.053 -0.157,-0.053 -0.366,-0.104 -0.053,-0.053 -0.157,0 -0.209,-0.052 -0.157,-0.053 -0.157,-0.053 -0.209,-0.104 -0.157,-0.104 -0.21,-0.053 -0.157,0 -0.209,-0.052 -0.157,0 -0.157,0 -0.314,0 -0.104,0 -0.053,0 -0.313,0.104 -0.105,0.053 0,0 -0.313,0.209 -0.053,0.104 -0.053,0 -0.366,0.367 0,0 -0.104,0.104 -0.262,0.366 -0.053,0 -0.104,0.157 -0.21,0.367 -0.104,0.104 -0.053,0.104 -0.104,0.21 -0.104,0.104 -0.104,0.104 -0.157,0.157 -0.104,0.157 -0.105,0.104 -0.052,0.157 -0.157,0.209 -0.104,0.105 -0.105,0.104 -0.209,0.314 -0.157,0.052 -0.262,0.314 -0.104,0.053 -0.314,0.209 -0.053,0.053 -0.262,0.314 0,0 -0.052,0.104 -0.105,0.262 -0.052,0 0,0.104 0,0.314 0,0.053 -0.053,0.104 -0.053,0.314 -0.052,0.104 -0.053,0.104 0,0.157 -0.104,0.157 0,0.104 0,0.21 0,0.262 0,0.104 0.052,0.104 0.053,0.314 0.053,0.104 0.052,0.104 0.21,0.472 0.053,0.053 0,0.052 0.209,0.472 0.053,0.052 0,0 0.156,0.524 0,0.052 0,0.053 0.157,0.419 0,0.053 0.053,0.052 0.104,0.472 0.053,0.157 0.053,0.052 0.104,0.367 0.052,0.157 0.053,0.052 0.053,0.21 0.104,0.262 0.052,0 0.157,0.209 0.21,0.21 0.052,0.052 0.105,0.157 0.157,0.21 0.052,0.052 0.053,0.105 0.262,0.419 0,0.052 0,0.053 0.209,0.366 0,0.053 0.263,0.366 0,0.053 0.313,0.314 0.053,0.052 0,0 0.419,0.367 0.157,0.052 0.052,0.053 0.314,0.262 0.262,0.157 0,0.053 0.262,0.262 0.157,0.209 0,0.053 0.21,0.209 0.262,0.21 0,0 0.157,0.157 0.262,0.262 0.052,0 0.367,0.471 0,0.053 0.104,0.209 0.104,0.157 0,0 0.053,0.524 0,0 0,0.523 0,0 0,0.052 0,0.472 0,0 -0.157,0.472 0,0 -0.104,0.157 -0.053,0.209 0,0 -0.419,0.419 0,0 -0.523,0.366 -0.157,0.105 0,0 -0.523,0.209 0,0 -0.472,0.367 0,0 -0.052,0.052 -0.314,0.367 -0.053,0 -0.262,0.419 -0.104,0.209 -0.157,0.209 0,0.053 -0.419,0.472 -0.053,0 -0.419,0.419 -0.313,0.366 0,0.053 -0.262,0.471 -0.053,0.053 -0.262,0.366 -0.053,0.053 -0.313,0.314 0,0.052 -0.314,0.576 -0.053,0.053 -0.419,0.471 -0.052,0.053 -0.42,0.366 -0.052,0.053 -0.523,0.314 -0.053,0 -0.419,0.419 -0.053,0.052 -0.523,0.314 -0.053,0.053 -0.575,0.314 -0.105,0.052 -0.523,0.21 -0.104,0.052 -0.681,0.21 -0.104,0 -0.524,0.104 -0.104,0 -0.576,0.104 -0.157,0.053 -0.576,0.157 -0.156,0.052 -0.367,0.053 -0.104,0 -0.472,0.262 -0.155,0.139 -0.576,0.366 -0.104,0.104 -0.472,0.524 -0.104,0.104 -0.419,0.366 0,0.104 -0.314,0.314 -0.104,0.104 -0.209,0.367 -0.053,0.104 -0.157,0.366 -0.053,0.157 -0.262,0.524 -0.052,0.156 -0.157,0.472 -0.053,0.157 -0.104,0.419 -0.053,0.104 -0.313,0.314 -0.105,0.157 -0.523,0.314 -0.209,0.156 -0.105,0.367 -0.052,0.104 0,0.419 0,0.21 -0.053,0.313 -0.052,0.105 -0.21,0.209 -0.104,0 -0.314,0.314 -0.157,0.104 -0.838,0.733 -0.419,0.313 -0.419,0.838 -0.209,0.314 -0.157,1.152 -0.104,0.472 0.157,0.732 0.104,0.419 0.313,0.576 0.157,0.262 0.157,0.524 0,0.262 0,0.471 -0.052,0.262 -0.419,0.576 -0.891,1.624 -0.838,0.681 -1.361,0.785 -0.995,0.681 -1.414,0.576 -1.676,0.366 -1.676,0.419 -1.885,0.314 -0.419,0.104 -0.367,-0.156 -0.838,-0.263 -1.309,-0.575 -1.31,-0.524 -1.78,-0.576 -3.928,-1.676 -3.247,-0.942 -5.132,-2.252 -0.209,-0.104 -2.252,-0.942 -2.828,-1.414 -1.728,-0.785 -11.521,-4.976 -1.728,-0.785 -10.159,-4.556 -6.913,-4.085 -7.174,-3.456 -1.519,-0.733 -1.729,-0.942 -1.938,-1.152 -2.618,-1.204 -0.157,-0.104 -0.104,-0.053 -0.157,-0.053 -0.105,-0.052 -0.262,0.681 -0.262,0.681 -0.157,0.576 0,0.576 0,0.523 0.053,0.628 0.157,0.629 0.209,0.628 0.367,0.629 0.471,0.681 0.419,0.523 0.419,0.419 0.314,0.314 0.104,0.157 -0.052,0.157 -0.157,0.262 0,0 -0.314,0.366 -0.366,0.157 -0.472,0.262 -0.681,0.053 -0.733,0.052 -0.576,0.105 -0.732,0.157 -0.733,0.313 -0.523,0.419 -0.419,0.419 -0.576,0.367 -0.419,0.313 -0.367,0.576 -0.052,0.838 0.052,1.624 -0.052,0.262 -0.314,0.366 -0.419,0.419 -0.681,0.681 -0.891,0.838 -0.681,0.523 -0.838,0.733 -0.419,0.472 -0.157,0.523 0,0.733 0.157,0.576 0.576,1.151 0.838,2.095 0.053,0.314 -0.053,0.472 -0.262,0.366 -0.472,0.157 -0.681,0.472 -0.104,0.785 0.157,0.628 0.209,0.472 -0.104,0.209 -0.314,0.629 -0.209,0.576 0.157,0.785 0.471,0.472 0.21,0.314 0.209,0.366 0,0.995 -0.104,0.471 -0.314,0.472 -0.366,0.523 -0.366,0.419 -0.472,0.419 -0.523,0.262 -0.419,0.21 -0.419,0.052 -1.467,0 -0.523,0.157 -0.523,0.367 -0.472,0.419 -0.471,0.419 -0.472,0.419 -0.419,0.419 -0.523,0.419 -0.472,0.366 -1.1,0.891 -0.576,0.471 -0.209,0.576 -0.21,0.523 -0.314,0.472 -0.313,0.262 -0.419,0.104 -0.733,0.157 -0.629,0.367 -0.575,0.471 -0.367,0.367 -0.157,0.104 -0.313,0.576 -0.157,0.732 -0.053,0.891 0,0.785 0,0.733 0.157,0.891 0.366,0.523 0.053,0.419 0,0.681 0,0.838 0.262,0.629 0.366,0.575 0,0.419 -0.104,0.157 -0.471,0.419 -0.576,0.367 -0.786,0.523 -0.471,0.628 -0.314,0.629 -0.314,0.891 -0.209,0.732 -0.262,0.838 -0.314,0.786 -0.419,0.681 -0.419,0.366 -0.576,0.366 -0.419,0.367 -0.366,0.471 0,0.576 0,2.095 -0.105,0.629 -0.262,0.628 -0.209,0.576 -0.21,0.733 -0.209,0.681 -0.104,0.523 -0.263,0.419 -0.313,0.262 -0.472,0.314 -0.576,0.262 -0.523,0 -0.681,0 -0.733,0 -1.361,0.157 -0.785,0.314 -0.629,0.576 -0.472,0.628 -0.156,0.681 -0.314,0.629 -0.419,0.628 -0.629,0.629 -0.576,0.628 -0.523,0.629 -0.523,1.151 -0.157,0.682 -0.104,0.732 -0.157,1.1 -0.104,0.733 -0.21,0.786 -0.419,0.628 -0.419,0.523 -0.366,0.629 0.052,0.628 0.472,0.472 0.576,0.314 0.314,0.262 0.157,0.471 0.052,0.419 0.053,0.367 0.052,0.785 0,0.523 -0.156,0.419 -0.524,0.629 -0.575,0.471 -0.524,0.472 -0.733,0.419 -0.575,0.472 -1.152,1.361 -0.314,0.471 -0.942,0.629 -0.629,0.472 -0.628,0.419 -0.576,0.366 -0.419,0.104 -0.471,-0.104 -0.682,-0.262 -0.785,-0.157 -0.733,0.419 -0.523,0.576 -0.472,0.419 -0.209,0.262 -0.262,0.314 -0.576,0.681 -0.419,0.681 -0.053,0.681 0.21,0.629 0.366,0.628 0.472,0.523 0.419,0.629 0.419,0.419 0.523,0.523 0.366,0.523 0.263,0.419 0.209,0.472 0.262,1.361 0,0.785 0.053,0.576 0,0.576 0,0.472 -0.21,0.313 -0.419,0.472 -0.471,0.314 -0.681,0.262 -0.682,0.366 -0.681,0.314 -0.681,0.21 -0.681,0.104 -0.733,0.052 -0.89,0.21 -0.733,0.262 -0.628,0.419 -0.314,0.576 -0.053,0.628 0.053,0.524 0.471,0.681 0.524,0.419 0.575,0.523 0.472,0.366 0.629,0.157 0.471,0.105 0.104,0.156 0,0.524 0.263,0.523 0.523,0.523 0.576,0.419 0.471,0.366 0.367,0.524 0.262,0.471 0,0.629 0,0.471 0,0.314 0,0 -0.314,-0.104 -2.252,-0.995 -1.833,-0.733 -0.052,-0.052 -0.157,-0.053 -2.199,-1.047 -2.409,-0.891 -0.104,0 -0.838,-0.366 -0.262,-0.157 -0.314,-0.157 -1.31,-0.733 -0.785,-0.419 -2.356,-1.466 -1.833,-1.152 -0.157,-0.104 -0.419,-0.262 -1.152,-0.838 -0.995,-0.576 -2.094,-1.31 -1.886,-1.1 -0.419,-0.104 -0.838,-0.523 -0.262,-0.419 -0.053,0 -1.309,-0.576 -1.1,-0.576 -0.419,-0.157 -0.681,-0.472 -0.682,-0.523 -0.262,-0.157 -0.209,-0.628 -0.314,-0.157 -1.31,-0.629 -1.151,-0.681 -0.262,-0.104 -1.676,-0.838 -2.514,-1.257 -0.21,-0.104 0,0 -1.152,-0.629 -3.403,-1.833 -0.314,-0.209 -1.938,-1.152 -0.942,-0.523 -1.257,-0.733 -0.995,-0.471 -1.1,-0.524 -0.891,-0.523 -1.466,-0.838 -1.31,-0.733 -3.456,-1.623 -1.676,-0.891 -4.817,-2.67 -2.462,-1.362 -2.042,-1.047 -0.942,-0.366 -2.305,-1.467 -3.561,-1.78 -1.624,-0.995 -1.832,-1.048 -0.838,-0.366 -4.138,0.419 -0.681,0.053 -0.523,0.209 -0.629,0.472 -0.209,0.471 -0.157,0.838 0,0.472 0.157,0.733 0,0.262 -0.314,0.576 -0.785,0.576 -0.891,0.523 -1.414,0.314 -1.439,0.262 -1.362,0.366 -0.628,0.472 -0.341,0.785 0,1.152 -0.052,0.262 -0.341,0.209 -0.34,0.263 -0.21,0.262 0,0.262 0.21,0.366 0.025,0.314 -0.078,0.419 -0.34,0.891 -0.341,0.785 -0.21,0.523 -0.052,0.367 0,0.471 0.209,0.995 0.184,0.419 0.104,0.419 0.053,0.314 -0.104,0.366 -0.236,0.053 -0.262,0.209 -0.026,0.367 0.026,0.523 -0.183,0.576 -0.394,0.471 -0.288,0.472 -0.34,0.366 -0.262,0.681 -0.079,0.629 0,0.628 -0.104,0.629 -0.34,0.471 -0.105,0.472 0.105,0.523 0.104,0.891 0,0.262 -0.288,0.419 -0.603,0.21 -0.393,0.313 -0.235,0.157 -0.053,0.419 0.157,0.523 0.052,0.629 0.236,0.262 0.34,0.262 0.131,0.262 -0.025,0.262 -0.341,0.314 -0.654,0.157 -0.393,0.314 -0.419,0.523 -0.733,0.891 -0.995,0.994 -0.76,0.891 -0.785,0.576 -1.073,0.366 -0.891,0.262 -1.021,0.786 -1.179,1.152 -0.864,0.994 -0.89,0.995 -0.524,1.1 -0.55,1.048 -0.288,0.471 -0.288,0.472 -0.288,0.262 -0.262,0.262 -0.288,0.262 -0.235,0.314 -0.288,0.262 -0.314,0.262 -0.288,0.263 -0.287,0.209 -0.288,0.21 -0.341,0.156 -0.262,0.157 -0.288,0.262 -0.131,0.21 -0.157,0.262 -0.131,0.262 -0.157,0.262 -0.209,0.262 -0.236,0.314 -0.235,0.21 -0.34,0.209 -0.263,0.104 -0.288,0.157 -0.287,0.21 -0.288,0.313 -0.21,0.314 -0.184,0.21 -0.183,0.366 -0.21,0.419 -0.157,0.419 -0.078,0.366 -0.053,0.472 -0.104,0.419 -0.104,0.366 -0.079,0.367 -0.052,0.366 0,0.367 -0.053,0.366 -0.053,0.419 0,0.366 0,0.472 0.053,0.419 0,0.314 -0.053,0.366 -0.104,0.366 -0.078,0.419 -0.053,0.367 0,0.366 0,0.366 -0.052,0.314 -0.053,0.262 -0.184,0.262 -0.209,0.263 -0.288,0.262 -0.288,0.209 -0.393,0.21 -0.394,0.104 -0.444,0.104 -0.445,0.053 -0.393,0 -0.419,0 -0.498,0 -0.445,-0.157 -0.393,-0.053 -0.34,0 -0.288,0.053 -0.235,0.157 -0.236,0.262 -0.366,0.157 -0.419,0 -0.393,0 -0.394,0.052 -0.34,0.053 -0.393,0.104 -0.393,0.21 -0.394,0.209 -0.235,0.21 -0.288,0.262 -0.209,0.366 -0.131,0.367 -0.157,0.471 0,0.367 0,0.419 -0.053,0.419 -0.104,0.366 -0.131,0.314 -0.157,0.366 -0.104,0.366 -0.026,0.367 0.026,0.366 0.104,0.419 0.157,0.367 0.078,0.262 0,0.419 -0.131,0.313 -0.209,0.263 -0.236,0.156 -0.235,0.105 -0.288,0.262 -0.209,0.314 -0.105,0.419 -0.025,0.419 0,0.471 -0.105,0.419 -0.052,0.472 0,0.471 0,0.314 -0.053,0.314 -0.157,0.209 -0.235,0.157 -0.445,0.157 -0.419,0.157 -0.393,0.157 -0.393,0.157 -0.393,0.104 -0.445,0.053 -0.393,0.104 -0.394,0.209 -0.393,0.314 -0.393,0.366 -0.288,0.314 -0.34,0.262 -0.341,0.262 -0.288,0.21 -0.341,0.314 -0.209,0.366 -0.184,0.366 -0.157,0.314 -0.288,0.367 -0.183,0.313 -0.21,0.419 -0.235,0.419 -0.288,0.523 -0.341,0.629 -0.209,0.472 -0.184,0.419 -0.209,0.366 -0.288,0.576 -0.341,0.471 -0.183,0.367 -0.263,0.366 -0.183,0.314 -0.21,0.209 -0.183,0.21 -0.394,0.209 -0.444,0.157 -0.394,0.21 -0.34,0.262 -0.393,0.419 -0.341,0.366 -0.288,0.314 -0.34,0.366 -0.288,0.314 -0.288,0.419 -0.393,0.472 -0.341,0.419 -0.393,0.366 -0.288,0.262 -0.288,0.157 -0.341,0.314 -0.262,0.314 -0.235,0.471 -0.235,0.367 -0.21,0.366 -0.235,0.314 -0.21,0.419 -0.131,0.366 -0.052,0.419 0,1.414 0.052,0.419 0,0.523 0.079,0.472 0.104,0.366 0.053,0.419 0.052,0.419 0.105,0.419 0.078,0.419 0.157,0.366 0.288,0.419 0.235,0.314 0.053,0.262 -0.053,0.21 -0.131,0.419 -0.104,0.209 0,0.21 0.104,0.314 0.131,0.262 0.104,0.262 0.105,0.314 0.104,0.366 0.052,0.366 0.026,0.262 0,0.367 0.053,0.366 0.053,0.419 0,0.314 0.052,0.314 0.104,0.313 0.053,0.262 0.079,0.314 0.052,0.314 0.104,0.314 0.053,0.313 0.053,0.367 0.025,0.366 0,0.419 -0.078,0.472 -0.209,0.419 -0.236,0.314 -0.235,0.313 -0.341,0.314 -0.313,0.262 -0.288,0.314 -0.131,0.314 -0.157,0.313 -0.105,0.314 -0.183,0.314 -0.21,0.262 -0.288,0.314 -0.235,0.262 -0.288,0.209 -0.34,0.157 -0.341,0.21 -0.314,0.262 -0.183,0.209 -0.236,0.157 -0.314,0.157 -0.287,0.157 -0.236,0.157 -0.235,0.262 -0.314,0.262 -0.235,0.21 -0.288,0.262 -0.288,0.313 -0.288,0.367 -0.209,0.366 -0.105,0.314 -0.078,0.314 0,0.262 0.053,0.209 -0.157,0.367 -0.21,0.262 -0.235,0.262 -0.131,0.314 -0.21,0.262 -0.288,0.209 -0.235,0.104 -0.209,0.105 -0.236,0.262 -0.235,0.209 -0.314,0.21 -0.235,0.157 -0.288,0.262 -0.235,0.262 -0.262,0.262 -0.132,0.314 -0.052,0.262 0,0.262 0,0.314 -0.053,0.262 -0.209,0.314 -0.184,0.262 -0.235,0.262 -0.21,0.366 -0.131,0.262 -0.157,0.367 -0.052,0.262 0.052,0.314 0.053,0.471 0.288,0.523 0.34,0.682 0.21,0.419 0.131,0.366 0.104,0.262 0,0.314 -0.104,0.209 -0.131,0.262 -0.314,0.419 -0.288,0.263 -0.34,0.366 -0.341,0.314 -0.393,0.366 -0.288,0.262 -0.241,0.294 -0.105,0.262 0,0.314 0.105,0.314 0.131,0.262 0.262,0.419 0.235,0.419 0.104,0.366 0.131,0.367 0.157,0.313 0.184,0.314 -0.053,0.262 -0.183,0.314 -0.157,0.366 -0.079,0.419 0,0.263 0.079,0.262 0.104,0.313 0.104,0.314 0.184,0.367 0.21,0.156 0.287,0.053 0.288,0.104 0.105,0.157 0,0.314 -0.157,0.314 -0.236,0.262 -0.235,0.314 -0.262,0.313 -0.235,0.262 -0.236,0.157 -0.209,0.262 -0.288,0.314 -0.288,0.314 -0.053,0.209 0,0.21 0.157,0.262 0,0.21 -0.157,0.209 -0.34,0.157 -0.341,0.157 -0.34,0.104 -0.262,-0.053 -0.131,-0.157 -0.157,-0.313 -0.131,-0.314 -0.157,-0.366 -0.184,-0.314 -0.209,-0.262 -0.288,-0.053 -0.341,0 -0.34,0.053 -0.288,0.104 -0.341,0.262 -0.445,0.21 -0.55,0.052 -0.393,0.157 -0.419,0.419 -0.209,0.314 -0.079,0.419 0,0.366 -0.053,0.314 -0.209,0.366 -0.184,0.314 -0.157,0.366 -0.104,0.367 -0.026,0.314 -0.104,0.471 -0.104,0.472 -0.104,0.471 -0.079,0.314 -0.262,0.21 -0.184,0.157 -0.157,0.209 0,0.053 -0.235,0.209 -0.497,0.629 -0.079,0.313 -0.209,0.367 -0.288,0.471 -0.341,0.524 -0.209,0.366 -0.079,0.314 -0.052,0.313 0.052,0.263 0.131,0.209 0.21,0.262 0.131,0.21 0.053,0.262 -0.105,0.262 -0.235,0.053 -0.131,0.156 0,0.21 0.131,0.262 0.21,0.21 0.131,0.209 0,0.262 -0.053,0.262 -0.131,0.262 -0.21,0.157 -0.078,0.262 0,0.367 0.026,0.262 0,0.262 0,0.314 -0.079,0.262 -0.052,0.314 0.052,0.313 0.131,0.314 0.105,0.21 0,0.262 -0.184,0.157 -0.104,0.262 -0.104,0.576 0.052,0.313 0.053,0.367 0,0.419 -0.104,0.628 -0.105,0.629 -0.183,0.262 -0.236,0.262 -0.313,0.419 -0.341,0.314 -0.419,0.366 -0.262,0.262 -0.235,0.262 -0.21,0.262 -0.184,0.314 -0.104,0.419 -0.131,0.262 -0.209,0.262 -0.184,0.21 -0.262,0.157 -0.341,0.157 -0.366,0.104 -0.393,0.157 -0.262,0.157 -0.288,0.262 -0.184,0.262 -0.157,0.262 -0.053,0.314 -0.052,0.366 0.052,0.314 0.105,0.209 0.183,0.314 0.157,0.314 0.053,0.314 0,0.313 0,0.367 0.052,0.262 0,0.314 -0.104,0.209 -0.235,0.157 -0.314,0.157 -0.419,0.052 -0.838,0 -0.34,0.053 -0.394,0.157 -0.393,0.157 -0.235,0.209 -0.157,0.21 0,0.314 0,0.313 0,0.262 0,0.367 0,0.262 0.104,0.314 0.053,0.262 0,0.366 -0.157,0.262 -0.131,0.262 -0.157,0.21 -0.052,0.314 -0.053,0.209 -0.235,0.157 -0.157,0.209 0,0.314 -0.184,0.367 -0.157,0.262 -0.078,0.313 -0.21,0.21 -0.131,0.314 -0.157,0.313 -0.052,0.263 0,0.366 -0.053,0.366 -0.053,0.314 -0.078,0.472 -0.053,0.471 -0.052,0.314 -0.104,0.472 -0.105,0.419 -0.078,0.419 -0.104,0.419 -0.105,0.471 -0.078,0.419 0,0.419 0,0.472 0,0.262 0.078,0.314 0.157,0.313 -0.104,0.419 -0.235,0.263 -0.288,0.209 -0.262,0.262 -0.184,0.262 -0.21,0.262 -0.34,0.105 -0.288,0.262 -0.104,0.366 0,0.314 0.104,0.314 0.053,0.366 -0.105,0.419 -0.131,0.366 -0.052,0.367 -0.053,0.366 -0.157,0.419 -0.131,0.366 -0.157,0.419 -0.235,0.367 -0.235,0.262 -0.314,0.314 -0.184,0.313 -0.235,0.576 -0.314,0.367 -0.184,0.366 -0.209,0.262 -0.235,0.262 -0.236,0.21 -0.288,0.262 -0.313,2.146 -0.367,1.833 -0.785,1.519 -0.995,1.31 -0.812,1.676 -0.498,0.785 -0.131,0.733 -0.444,0.629 -0.629,1.151 -0.497,0.524 -0.341,1.1 0.104,0.732 -0.444,0.419 -1.074,0.682 -0.34,0.262 -0.105,0.209 -0.104,0.681 -0.184,0.472 -0.34,0.262 -0.341,0.262 -0.262,0.262 -0.078,0.367 -0.053,0.104 -0.209,0.628 -0.184,0.629 -0.288,0.942 -0.104,0.523 -0.393,1.31 -0.786,1.047 -0.34,0.21 -0.472,-0.104 -0.707,0.104 -0.576,-0.157 -0.444,0.21 -0.472,0.262 -0.445,0.313 -0.445,0.419 -0.393,0.105 -0.288,-0.053 -0.104,-0.053 -0.079,0.105 -0.34,0.156 -0.393,0.367 -0.341,0.209 -0.209,0.629 -0.629,0.733 -0.628,0.419 -0.262,0.209 -0.341,1.519 -0.472,0.942 -0.602,0.367 -0.445,0.052 -0.366,0.105 -0.394,0 -0.444,-0.157 -0.394,-0.21 -0.156,-0.157 -0.236,-0.104 -0.157,-0.052 -0.288,0 -0.34,0.052 -0.393,0.21 -0.341,0.262 -0.393,0.262 -0.235,0.262 -0.184,0.314 -0.104,0.209 0,0.21 0.104,0.262 0.235,0.471 0.184,0.576 0.262,0.472 0.419,0.576 0.603,0.785 0.576,0.629 0.235,0.366 0.262,0.314 0.184,0.366 0.157,0.262 0.131,0.262 0.052,0.367 0,0.262 -0.131,0.157 -0.157,0.262 -0.235,0.209 -0.262,0 -0.288,0 -0.184,0 -0.288,0 -0.444,0.053 -0.341,0.157 -0.55,0.209 -0.523,0 -0.498,-0.052 -0.444,-0.053 -0.576,-0.157 -0.498,-0.157 -0.576,-0.052 -0.497,-0.262 -0.419,-0.053 -0.603,0.053 -0.523,0.262 -0.262,0.419 -0.184,0.576 0.104,0.523 0.184,0.471 0.341,0.524 0.602,0.628 0.681,0.629 0.682,0.576 0.523,0.575 0.497,0.21 0.393,0.366 0.341,0.314 0.288,0.314 0.445,0.262 0.288,0.157 0.445,0.052 0.393,0.053 0.288,0.157 0.235,0.104 0.288,0.21 0.209,0.209 0.184,0.21 0.053,0.262 0.052,0.262 -0.052,0.209 -0.053,0.21 -0.078,0.209 -0.105,0.053 -0.393,0.157 -0.288,0.052 -0.34,0.157 -0.445,0.21 -0.393,0.314 -0.341,0.313 -0.288,0.419 -0.288,0.472 -0.313,0.576 -0.288,0.419 -0.236,0.366 -0.288,0.419 -0.262,0.262 -0.288,0.314 -0.288,0.262 -0.183,0.21 -0.21,0.209 -0.34,0.523 -0.524,0.733 -0.602,0.681 -0.394,0.419 -0.183,0.314 -0.21,0.209 -0.052,0.367 -0.026,0.314 -0.104,0.313 -0.105,0.367 -0.183,0.313 -0.157,0.21 -0.104,0.314 0,0.366 0.156,0.314 0.157,0.262 0.236,0.209 0.393,0.263 0.445,0.156 0.34,0.105 0.288,0 0.472,-0.053 0.393,-0.104 0.34,-0.104 0.498,0 0.838,0 2.33,-0.367 1.361,-0.157 0.838,-0.209 1.414,-0.523 0.969,-0.419 0.707,-0.263 0.864,-0.313 0.497,-0.157 0.682,-0.21 0.235,-0.052 0.209,0.052 0.131,0.053 0.105,0.104 0.156,0.21 0.132,0.262 0.052,0.209 0.104,0.262 -0.052,0.263 -0.053,0.575 -0.157,0.472 -0.235,0.681 -0.235,0.576 -0.498,0.942 -0.393,0.838 -0.288,0.629 -0.235,0.523 -0.21,0.472 -0.288,0.994 -0.34,0.943 -0.184,0.681 -0.104,0.523 -0.104,0.472 -0.053,0.523 -0.078,0.366 -0.053,0.262 -0.104,0.263 0,0.262 -0.053,0.157 0.053,0.262 0.104,0.313 0.184,0.367 0.209,0.366 0.235,0.366 0.236,0.263 0.157,0.104 0.34,0.209 0.445,0.105 0.288,0.052 0.184,0 0.497,-0.104 0.733,-0.21 0.681,-0.209 0.628,-0.262 0.733,-0.314 0.55,-0.419 1.021,-0.628 0.733,-0.419 0.575,-0.419 0.551,-0.472 0.523,-0.523 0.288,-0.314 0.393,-0.472 0.34,-0.575 0.288,-0.524 0.707,-1.466 0.917,-2.095 0.838,-2.147 0.785,-2.095 0.366,-1.047 0.341,-0.786 0.21,-0.419 0.235,-0.523 0.209,-0.313 0.184,-0.21 0.235,-0.262 0.445,-0.262 0.55,-0.314 0.393,-0.104 0.341,0 0.235,0 0.235,0.157 0.314,0.262 0.341,0.471 0.288,0.524 0.104,0.419 0.078,0.575 0.053,0.891 -0.053,0.576 -0.052,0.366 -0.079,0.314 0,0.366 0.053,0.472 0.078,1.31 0.157,1.676 0.053,1.57 0.078,0.995 0.262,1.152 0.184,0.995 0.21,0.733 0.078,0.628 0.053,0.576 0.157,0.576 0.288,0.681 0.288,0.785 0.287,0.523 0.314,0.629 0.235,0.472 0.184,0.262 0.262,0.262 0.184,0.209 0.235,0.105 0.21,0.052 0.288,-0.052 0.235,0 0.314,-0.053 0.235,-0.157 0.235,-0.314 0.445,-0.732 0.629,-1.101 0.34,-0.785 0.157,-0.262 0.104,-0.314 0.184,-0.785 0.21,-1.204 0.235,-1.101 0.183,-0.785 0.21,-0.628 0.184,-0.419 0.288,-0.472 0.732,-0.942 1.283,-1.519 0.838,-0.891 0.812,-0.891 1.074,-0.942 0.444,-0.314 0.394,-0.262 0.34,-0.209 0.498,-0.157 0.393,-0.104 0.733,0 0.366,0.052 0.445,0.105 0.288,0.156 0.262,0.263 0.34,0.471 0.393,0.838 0.184,0.681 0.21,0.786 0.235,1.257 0.104,1.1 0.235,1.623 0.498,4.085 0.131,0.785 0.053,0.472 0.052,0.628 0,0.786 0,0.628 -0.052,0.523 -0.576,2.356 -1.021,1.257 -0.995,0.629 -1.361,1.361 -1.911,1.886 -1.152,1.413 -0.942,0.943 -1.467,0.628 -1.257,0.21 -1.073,0.157 -0.785,0.366 -0.838,0.733 -0.341,0.838 0,0.838 0.288,0.89 0.707,0.733 0.864,0.419 1.23,0.419 1.309,0.366 1.964,0 1.833,-0.157 1.048,0.157 0.759,0.419 0.891,1.048 0.523,1.309 0,0.681 -0.235,1.362 -0.288,0.942 -0.157,0.891 0.104,1.78 -0.157,1.309 -0.628,1.1 -1.179,0.786 -0.812,0.366 -0.969,-0.104 -1.466,-0.681 -1.624,-1.257 -1.021,-0.838 -1.126,-0.681 -1.179,-0.523 -2.095,-0.314 -1.597,0 -2.017,0.052 -1.466,0.105 -0.969,0.157 -0.838,0.419 -0.576,0.523 -0.498,0.471 -0.183,0.629 0.131,0.89 0.262,1.467 0.393,1.571 0.053,0.732 -0.445,0.891 -0.942,0.891 -1.467,0.209 -0.366,-0.052 -0.786,-0.576 -0.994,-0.891 -1.362,-0.942 -0.916,-0.681 -0.498,-0.262 -0.838,-0.263 -0.732,0.21 -0.76,0.472 -0.602,0.575 -0.236,0.629 0.105,1.047 0.418,1.571 0.786,1.99 0.34,1.047 0.394,0.629 0.732,1.571 0.445,1.413 0.629,2.356 0.785,1.938 0.628,1.676 0.891,1.309 0.681,1.048 0.681,2.095 0.157,1.413 -0.314,1.257 -0.366,0.891 -0.942,0.785 -0.917,0.21 -1.23,-0.262 -1.519,-0.838 -3.299,-2.881 -1.729,-1.361 -1.885,-1.78 -1.964,-1.047 -2.88,-0.891 -3.169,-0.472 -2.933,0.105 -1.858,0.313 -0.341,0 -2.199,1.205 -1.859,1.151 -1.545,1.414 -1.361,2.043 -0.707,1.832 -0.34,1.571 0,1.729 0.313,1.938 1.545,3.509 1.179,1.623 1.911,1.361 3.168,1.571 2.775,1.361 4.189,1.467 1.571,0.732 2.54,1.205 4.451,1.885 3.744,1.676 3.168,1.519 2.881,1.362 1.413,0.471 1.859,0.523 1.859,0.263 1.649,-0.157 1.44,-0.576 1.1,-1.1 1.073,-1.257 0.785,-1.833 0.445,-2.514 -0.523,-3.456 -0.262,-2.409 0.157,-1.623 0.34,-1.152 0.733,-0.942 1.073,-0.838 1.467,0.052 1.021,0.367 2.383,0.995 1.179,0.838 1.597,1.204 1.676,1.414 1.702,0.89 3.168,0.367 7.044,1.519 1.702,1.519 1.23,1.78 0.812,1.938 0.104,1.99 -1.911,2.565 -2.724,1.048 -2.827,0.681 -1.755,0.942 -1.126,0.943 -1.178,3.822 -0.681,1.467 -3.325,4.556 -2.2,1.78 -1.125,0.942 -4.189,0.943 -3.901,-0.629 -6.782,-2.356 -5.865,1.886 -15.605,-0.105 -14.27,-0.104 -9.897,-1.78 -10.631,-6.65 -14.951,-11.154 -13.772,-9.427 -11.154,4.294 -0.994,6.284 0.785,3.194 4.059,8.327 -16.443,-8.746 -2.697,-1.361 -3.953,-2.095 -3.562,-1.99 -5.315,-2.827 -4.241,-1.886 -4.269,-2.042 -3.796,-1.833 -2.147,-0.942 -2.88,-1.204 -2.383,-1.205 -1.729,-0.89 -2.618,-1.152 -2.645,-1.1 -3.718,-1.99 -2.383,-0.995 -2.383,-0.995 -3.378,-1.466 -5.524,-2.409 -2.147,-0.995 -3.403,-1.361 -4.189,-2.042 -7.332,-3.352 -9.949,-4.557 -8.17,-3.613 -5.263,-2.356 -5.813,-2.461 -4.478,-1.938 -3.09,-1.257 -1.204,-0.629 -1.179,-0.681 -1.807,-0.838 -1.807,-0.838 -1.702,-0.576 -1.676,-0.785 -1.649,-0.733 -1.754,-0.732 -5.132,-2.147 -2.252,-0.942 -3.954,-1.729 -3.063,-1.414 -2.645,-0.995 -1.649,-0.732 -1.649,-0.681 -2.697,-1.048 -2.304,-0.942 -2.487,-0.995 -3.352,-1.361 -2.2,-0.891 -2.539,-1.204 -1.807,-0.733 -2.881,-1.152 -1.858,-0.732 -5.027,-2.252 -4.399,-1.729 -4.425,-1.676 -3.09,-1.1 -3.115,-1.047 -1.179,-0.367 -5.813,-2.461 -5.839,-2.461 -11.39,-4.87 -5.211,-2.357 -6.441,-2.932 -12.411,-5.656 -2.226,-1.047 -3.089,-1.048 -3.063,-1.047 -4.557,-1.938 -5.21,-1.781 -4.739,-1.728 -4.87,-2.199 -2.933,-1.152 -2.881,-1.152 -4.634,-2.042 -4.635,-1.99 -8.405,-3.352 -9.818,-4.189 -9.846,-4.137 -6.44,-2.775 -3.876,-1.31 -3.901,-1.571 -3.901,-1.57 -2.88,-1.152 -6.781,-2.775 -3.901,-1.623 -7.515,-3.352 -3.273,-1.52 -3.325,-1.466 -3.325,-1.361 -3.299,-1.361 -4.164,-1.729 -4.241,-1.571 -4.242,-1.57 -1.519,-0.786 -4.294,-2.042 -3.037,-1.205 -5.604,-2.251 -5.315,-2.305 -7.96,-3.456 -4.634,-2.042 -2.356,-1.152 -2.383,-1.1 -3.954,-1.729 -4.529,-2.252 -2.933,-1.413 -2.252,-0.995 -2.278,-0.943 -1.44,-0.681 -1.413,-0.732 -2.043,-0.943 -2.277,-0.995 -2.514,-1.466 -1.545,0.104 -0.838,-3.246 -0.838,-3.195 0.262,-1.832 0.184,-1.781 1.623,-1.676 1.361,-0.575 1.257,-0.367 1.519,0.104 2.017,0.053 1.701,0.21 2.278,0.313 1.964,0.419 1.073,0.472 1.179,1.257 0.864,0.785 1.178,1.361 1.074,1.362 0.235,1.257 0.603,1.989 1.413,2.305 0.864,1.257 0.891,1.257 0.864,1.99 1.23,1.413 1.519,1.571 1.597,1.361 1.126,1.1 2.436,0.367 2.252,0 2.356,-1.048 1.597,-0.576 1.676,-1.623 2.331,-0.995 1.57,-0.523 1.807,-0.262 2.095,-0.314 3.063,0 3.482,-0.89 0.576,-0.21 0.785,-0.419 0.864,-0.891 1.074,-0.942 0.654,-1.1 0.576,-1.204 0.288,-1.1 0.628,-1.519 0.157,-1.676 0.576,-1.886 0.157,-1.78 -0.236,-1.78 -0.052,-2.095 0.288,-1.519 0.288,-1.467 0.628,-0.314 0.942,-1.361 0.629,-1.414 0.497,-0.995 0.236,-1.151 0.916,-0.681 0.995,-0.943 1.152,-0.89 1.78,-0.838 1.702,-0.733 1.649,0.053 1.335,0.104 1.598,1.571 0.235,1.204 0.654,1.414 0.419,1.361 0.603,1.729 0.969,2.199 0.891,1.623 1.1,1.361 0.707,1.31 0.732,1.1 0.97,0.891 1.204,0.89 1.676,1.31 0.733,1.047 1.126,1.624 1.204,1.78 0.34,1.729 0.21,1.623 -0.498,1.519 -0.969,1.676 -1.125,1.676 -1.755,1.676 -1.702,0.629 -2.016,0.418 -1.021,0.524 -1.021,0.942 -0.628,1.571 -0.445,1.57 -0.157,1.729 0.498,1.414 0.864,1.885 1.466,1.571 1.466,1.048 2.017,0.628 1.702,-0.262 1.858,-0.681 1.545,-0.681 1.179,-1.414 0.969,-1.676 1.283,-1.833 1.126,-1.466 0.183,-0.263 0.341,-0.156 0.314,-0.21 0.34,-0.262 0.131,-0.262 0.105,-0.053 0.183,-0.366 0.21,-0.523 0.34,-0.576 0.341,-0.472 0.235,-0.419 0.262,-0.366 0.288,-0.367 0.341,-0.366 0.393,-0.262 0.34,-0.262 0.394,-0.314 0.419,-0.366 0.602,-0.419 0.445,-0.472 0.419,-0.419 0.733,-0.733 0.34,-0.209 0.394,-0.157 0.34,-0.157 0.393,-0.104 0.394,-0.104 0.156,-0.105 0.184,-0.052 0.393,-0.157 0.393,-0.053 0.341,-0.052 0.209,-0.053 0.184,-0.053 0.445,-0.104 0.341,-0.104 0.393,-0.104 0.34,-0.105 0.445,-0.157 0.472,-0.104 0.444,-0.104 0.445,-0.157 0.341,-0.053 0.393,0 0.393,0 0.419,0 0.603,0 0.969,0 0.969,0.053 0.497,0.104 0.576,0 0.603,0 0.628,0 0.341,0 0.445,0 0.393,0.053 0.341,0 0.34,0.104 0.341,0.053 0.288,0.157 0.393,0.209 0.34,0.21 0.341,0.262 0.34,0.209 0.394,0.105 0.34,0.052 0.341,0.053 0.393,0.052 0.34,0.105 0.445,0.157 0.445,0.313 0.393,0.21 0.367,0.209 0.444,0.157 0.682,0.157 0.602,0.21 0.812,0.156 0.498,0.21 0.55,0.209 0.864,0.314 0.34,0.157 0.341,0.314 0.393,0.314 0.393,0.366 0.445,0.262 0.393,0.262 0.393,0.262 0.341,0.367 0.288,0.313 0.34,0.472 0.236,0.472 0.262,0.419 0.288,0.575 0.34,0.629 0.288,0.628 0.288,0.733 0.157,0.419 0.078,0.472 0.157,0.681 0.053,0.419 0.053,0.366 0.131,0.472 0.209,0.471 0.184,0.314 0.262,0.523 0.235,0.367 0.288,0.314 0.393,0.366 0.394,0.366 0.34,0.314 0.341,0.366 0.288,0.419 0.288,0.419 0.313,0.314 0.341,0.314 0.419,0.314 0.393,0.313 0.393,0.21 0.393,0.209 0.394,0 0.34,0 0.341,-0.052 0.34,-0.104 0.393,-0.157 0.341,-0.105 0.341,-0.052 0.34,-0.157 0.393,-0.104 0.341,-0.105 0.34,-0.104 0.288,-0.104 0.393,-0.157 0.341,-0.053 0.341,-0.104 0.366,-0.157 0.366,-0.052 0.341,-0.105 0.366,-0.052 0.367,-0.157 0.313,-0.21 0.341,-0.262 0.235,-0.209 0.288,-0.314 0.21,-0.209 0.183,-0.367 0.21,-0.419 0.184,-0.366 0.183,-0.367 0.21,-0.419 0.235,-0.313 0.288,-0.367 0.262,-0.419 0.235,-0.366 0.288,-0.366 0.288,-0.367 0.341,-0.262 0.366,-0.262 0.026,-0.053 0.209,-0.209 0.184,-0.366 0.104,-0.314 0.157,-0.367 0.079,-0.366 0.157,-0.419 0.156,-0.419 0.132,-0.366 0.209,-0.367 0.184,-0.471 0.209,-0.419 0.079,-0.472 0.104,-0.472 0,-0.471 0,-0.262 -0.053,-0.314 0,-0.366 -0.104,-0.367 0,-0.366 0,-0.314 -0.078,-0.314 -0.157,-0.366 -0.105,-0.366 -0.183,-0.21 -0.288,-0.471 -0.262,-0.419 -0.288,-0.419 -0.472,-0.838 -0.209,-0.263 -0.288,-0.313 -0.236,-0.419 -0.34,-0.576 0,-0.053 -0.157,-0.314 -0.157,-0.366 -0.078,-0.366 -0.105,-0.262 -0.052,-0.105 -0.104,-0.262 -0.079,-0.419 -0.104,-0.366 -0.053,-0.472 -0.052,-0.419 -0.105,-0.366 -0.131,-0.366 -0.209,-0.314 -0.131,-0.314 -0.104,-0.366 -0.157,-0.367 -0.079,-0.471 -0.157,-0.419 -0.288,-0.733 -0.052,-0.366 0,-1.205 0,-0.471 0.052,-0.629 0,-0.471 0.053,-0.576 0.131,-1.31 0.053,-0.314 -0.053,-1.1 0.053,-0.314 0,-0.366 0.052,-0.366 0.105,-0.367 0.052,-0.419 0.053,-0.419 0.026,-0.471 0.157,-0.681 0.183,-0.891 0.157,-0.576 0.157,-0.314 0.184,-0.366 0.209,-0.314 0.026,-0.104 0.209,-0.262 0.184,-0.262 0.262,-0.367 0.184,-0.419 0.157,-0.313 0.078,-0.367 0.157,-0.313 0.184,-0.367 0.157,-0.314 0.288,-0.419 0.444,-0.575 0.288,-0.367 0.341,-0.366 0.34,-0.314 0.341,-0.366 0.314,-0.314 0.366,-0.366 0.393,-0.262 0.393,-0.263 0.394,-0.209 0.393,-0.21 0.445,-0.156 0.34,-0.053 0.341,-0.053 0.445,-0.104 0.393,-0.157 0.34,-0.157 0.288,-0.157 0.236,-0.366 0.209,-0.262 0.288,-0.21 0.341,-0.104 0.393,-0.104 0.393,-0.157 0.393,-0.104 0.472,-0.21 0.55,-0.209 0.576,-0.262 0.602,-0.262 0.472,-0.21 0.497,-0.053 0.629,-0.104 0.55,-0.052 0.681,-0.21 0.419,-0.157 0.314,-0.157 0.393,-0.209 0.34,-0.21 0.394,-0.104 0.34,-0.209 0.341,-0.157 0.34,-0.21 0.288,-0.209 0.341,-0.157 0.34,-0.157 0.445,-0.104 0.341,-0.104 0.393,-0.157 0.34,-0.105 0.394,-0.104 0.052,0 0.026,0.157 0.891,-0.838 1.178,-0.209 -0.104,-0.21 0.288,-0.157 0.393,-0.157 0.445,-0.209 0.393,-0.157 0.341,0 0.34,-0.053 0.393,0 0.288,-0.052 0.341,-0.157 0.393,-0.157 0.341,-0.157 0.34,-0.209 0.341,-0.263 0.288,-0.209 0.288,-0.262 0.313,-0.314 0.341,-0.314 0.288,-0.262 0.471,-0.314 0.394,-0.156 0.393,-0.105 0.393,-0.104 0.785,-0.157 0.498,-0.104 0.759,-0.157 0.707,-0.157 0.472,-0.104 0.34,-0.157 0.288,-0.104 0.314,-0.21 0.341,-0.313 0.34,-0.263 0.341,-0.313 0.34,-0.21 0.341,-0.313 0.34,-0.263 0.341,-0.209 0.288,-0.262 0.341,-0.21 0.34,-0.313 0.262,-0.367 0.235,-0.314 0.236,-0.262 0.209,-0.366 0.288,-0.366 0.236,-0.367 0.262,-0.366 0.183,-0.367 0.184,-0.366 0.157,-0.366 0.157,-0.367 0.148,-0.427 0.157,-0.313 0.184,-0.419 0.235,-0.314 0.314,-0.366 0.131,-0.157 0.157,-0.21 0.184,-0.366 0.157,-0.367 0.052,-0.313 0.053,-0.157 0,-0.262 0.026,-0.367 0.104,-0.313 0.052,-0.367 0,-0.471 -0.052,-0.367 -0.053,-0.314 0,-0.366 -0.052,-0.472 0,-0.313 0,-0.367 0.104,-0.366 0.209,-0.366 0.184,-0.21 0.21,-0.366 0.078,-0.367 0.053,-0.262 0,-0.366 0.052,-0.314 0.104,-0.209 0.132,-0.262 0.156,-0.314 0.157,-0.367 0.184,-0.419 0.184,-0.313 0.209,-0.367 0.104,-0.262 0.236,-0.262 0.183,-0.209 0.157,-0.105 0.184,-0.419 0.053,-0.366 0,-0.366 0,-0.314 -0.236,-0.995 0.053,-0.262 -0.104,-0.523 0.052,-0.419 0.053,-0.314 -0.053,-0.472 0,-0.366 0,-0.314 0.053,-0.366 -0.104,-0.314 0,-0.314 0,-0.209 -0.184,-1.414 0,-0.104 -0.393,-0.472 -0.104,-0.366 -0.157,-0.262 -0.131,-0.367 -0.341,-0.576 -0.262,-0.313 -0.472,-0.367 -0.55,-0.104 -0.681,-0.053 -0.812,0 -0.707,0 -0.812,0.053 -1.283,0.157 -0.472,0.052 -0.602,0.105 -0.523,0.104 -0.498,0.053 -0.681,0.156 -0.497,0.105 -0.524,0.104 -0.444,0.104 -0.394,0.157 -0.444,0.157 -0.341,0.209 -0.341,0.21 -0.471,0.419 -0.786,0.785 -0.55,0.472 -0.393,0.262 -0.419,0.21 -0.393,0.209 -0.497,0.104 -0.498,0.157 -0.366,0.104 -0.445,0 -0.497,0 -0.445,0.105 -0.629,0 -0.628,0.104 -0.786,0.157 -0.732,0.104 -0.917,0.104 -0.602,0.105 -0.576,0.052 -0.576,0 -0.498,0 -0.444,0 -0.733,-0.052 -0.785,-0.053 -0.524,-0.104 -0.497,-0.157 -0.445,-0.262 -0.419,-0.21 -0.445,-0.262 -0.34,-0.209 -0.603,-0.157 -0.523,-0.157 -0.629,-0.157 -0.995,-0.21 -1.1,-0.209 -0.838,-0.21 -0.732,-0.156 -0.55,-0.21 -0.524,-0.157 -0.681,-0.262 -0.288,-0.157 -0.393,-0.314 -0.34,-0.262 -0.341,-0.313 -0.341,-0.21 -0.34,-0.262 -0.314,-0.314 -0.288,-0.314 -0.235,-0.313 -0.262,-0.314 -0.184,-0.314 -0.184,-0.419 -0.157,-0.313 -0.156,-0.472 -0.079,-0.366 -0.104,-0.367 -0.157,-0.419 -0.131,-0.419 -0.157,-0.471 -0.131,-0.419 -0.157,-0.472 -0.157,-0.366 -0.131,-0.419 -0.104,-0.419 0,-0.314 0,-0.472 0,-0.419 0.053,-0.262 0.157,-0.419 0.078,-0.419 0.157,-0.419 0.104,-0.366 0.131,-0.576 0.104,-0.523 0.053,-0.681 0.053,-0.786 0.025,-0.419 0.053,-0.366 0.104,-0.314 0.105,-0.472 0.052,-0.419 0.079,-0.419 0.052,-0.419 0.053,-0.471 0.052,-0.472 0.053,-0.471 0.053,-0.367 0.078,-0.471 0.104,-0.419 0.105,-0.367 0.131,-0.419 0.157,-0.419 0.104,-0.313 0.131,-0.314 0.262,-0.419 0.184,-0.419 0.209,-0.314 0.184,-0.419 0.157,-0.366 0.078,-0.314 0.104,-0.314 0.053,-0.471 0,-0.524 0,-0.785 -0.157,-1.623 0,-0.419 0,-0.733 0,-0.472 0.053,-0.523 0.104,-0.472 0.104,-0.628 0.079,-0.419 0.209,-0.366 0.236,-0.472 0.209,-0.419 0.235,-0.419 0.184,-0.314 0.314,-0.262 0.235,-0.209 0.341,-0.053 0.393,-0.104 0.393,-0.104 0.393,-0.157 0.472,-0.157 0.445,-0.157 0.497,-0.104 0.472,-0.105 0.55,-0.156 0.34,0 0.341,0 0.34,0 0.341,0.104 0.445,0.157 0.34,0.052 0.393,0 0.445,-0.052 0.393,-0.157 0.341,-0.157 0.576,-0.262 0.445,-0.21 0.628,-0.262 0.917,-0.366 0.444,-0.157 0.157,-0.053 0.341,-0.209 0.445,-0.314 0.288,-0.262 0.288,-0.314 0.34,-0.314 0.341,-0.313 0.34,-0.367 0.445,-0.471 0.393,-0.419 0.341,-0.314 0.288,-0.472 0.235,-0.366 0.209,-0.366 0.236,-0.524 0.34,-0.681 0.445,-0.89 0.235,-0.681 0.157,-0.419 0.105,-0.629 0,-0.681 0,-0.419 0,-0.419 -0.053,-0.314 -0.104,-0.419 -0.184,-0.314 -0.209,-0.366 -0.184,-0.209 -0.262,-0.263 -0.236,-0.262 -0.34,-0.313 -0.393,-0.314 -0.288,-0.262 -0.393,-0.262 -0.341,-0.262 -0.341,-0.21 -0.34,-0.209 -0.393,-0.263 -0.445,-0.313 -0.341,-0.262 -0.34,-0.21 -0.393,-0.314 -0.524,-0.523 -0.497,-0.523 -0.681,-0.629 -0.445,-0.419 -0.681,-0.785 -0.235,-0.366 -0.263,-0.314 -0.287,-0.367 -0.341,-0.628 -0.393,-0.681 -0.341,-0.576 -0.576,-1.047 -0.288,-0.419 -0.34,-0.576 -0.341,-0.629 -0.313,-0.366 -0.184,-0.367 -0.288,-0.366 -0.262,-0.314 -0.235,-0.366 -0.288,-0.314 -0.236,-0.419 -0.262,-0.209 -0.288,-0.262 -0.235,-0.314 -0.262,-0.314 -0.341,-0.366 -0.235,-0.314 -0.341,-0.523 -0.288,-0.314 -0.287,-0.366 -0.314,-0.419 -0.236,-0.262 -0.34,-0.314 -0.288,-0.367 -0.288,-0.366 -0.445,-0.366 -0.235,-0.262 -0.341,-0.21 -0.34,-0.209 -0.367,-0.263 -0.523,-0.471 -0.393,-0.367 -0.393,-0.419 -0.393,-0.313 -0.288,-0.262 -0.629,-0.367 -0.445,-0.262 -0.393,-0.262 -0.288,-0.262 -0.288,-0.366 -0.262,-0.314 -0.34,-0.314 -0.341,-0.262 -0.419,-0.419 -0.733,-0.523 -0.444,-0.21 -0.445,-0.052 -0.498,0 -0.471,-0.157 -0.55,-0.262 -0.445,-0.21 -0.472,-0.366 -0.445,-0.262 -0.34,-0.263 -0.184,-0.156 -1.126,-0.105 -0.654,-0.576 -0.419,-0.628 -0.733,-0.629 -0.654,-0.681 -0.576,-0.523 -0.523,-0.89 -0.785,-0.629 -0.682,-0.472 -0.732,-0.838 -0.733,-1.361 -0.55,-1.047 -0.785,-1.938 -0.341,-0.943 -0.235,-1.257 0,-0.942 -0.105,-1.047 0.053,-1.1 0.157,-1.257 0,-1.257 0.078,-1.519 0.053,-1.205 0.262,-1.204 0.079,-1.361 0.052,-1.31 0.053,-1.152 0.052,-0.89 0.053,-0.786 0.104,-0.681 0.288,-0.838 0.053,-1.885 -0.21,-0.681 -0.104,-0.472 -0.288,-0.838 -0.393,-1.047 -0.419,-0.786 -0.314,-0.733 -0.183,-0.732 -0.236,-0.733 -0.262,-0.733 -0.184,-0.471 -0.235,-0.838 -0.603,-0.682 -0.523,-0.732 -1.23,-1.205 -0.576,-0.313 -0.602,-0.681 -1.126,-1.152 -0.419,-0.786 -0.55,-0.89 -0.288,-0.942 -0.236,-1.048 -0.445,-0.995 -0.55,-0.838 -0.759,-0.89 -0.654,-0.472 -1.021,-0.419 -1.179,-0.314 -0.812,-0.104 -0.995,-0.104 -0.732,0.052 -0.864,0.367 -0.393,0.366 -0.288,0.367 -0.341,0.575 -0.262,0.891 -0.131,0.681 0,0.733 0.053,0.733 -0.053,0.89 -0.21,0.942 -0.419,1.31 -0.55,1.571 -0.444,1.1 -0.419,0.995 -0.786,1.466 -0.654,0.629 -0.681,0.628 -0.812,0.523 -0.838,0.21 -0.917,0.209 -0.732,0.21 -1.126,0.104 -1.074,0.053 -0.681,0.157 -0.995,0.104 -0.863,0.104 -0.838,0.262 -0.838,0.367 -0.733,0.419 -0.812,0.785 -0.498,0.733 -0.34,0.681 -0.184,0.628 -0.21,0.786 -0.235,0.785 -0.235,0.785 -0.314,0.576 -0.34,0.629 -0.419,0.471 -0.786,0.472 -0.838,0.21 -0.838,0.156 -0.733,0.21 -0.681,0.314 -0.393,0.157 -0.471,0.366 -0.341,0.314 -0.262,0.156 -0.288,0.157 -0.235,0.053 -0.288,0.104 -0.445,-0.052 -0.445,-0.263 -0.628,-0.419 -0.681,-0.628 -0.995,-1.047 -1.31,-1.624 -0.838,-0.89 -0.523,-0.576 -0.576,-1.152 -1.283,-2.723 -1.021,-1.886 -0.732,-1.676 -0.498,-1.152 -0.969,-1.309 -0.969,-0.995 -0.838,-0.733 -0.838,-0.576 -0.759,-0.471 -0.891,-0.681 -1.126,-0.943 -0.523,-0.628 -0.681,-1.257 -0.393,-1.257 -0.262,-1.1 -0.472,-1.205 -0.393,-0.838 -0.55,-1.151 -0.445,-0.995 -0.131,-0.786 -0.053,-0.471 0.104,-1.048 0.236,-1.623 0.209,-0.785 -0.104,-0.943 -0.288,-1.151 -0.157,-0.576 -0.157,-0.786 -0.288,-0.942 -0.052,-0.942 -0.026,-0.628 -0.104,-0.524 -0.105,-0.89 -0.104,-1.205 -0.393,-1.151 -0.288,-1.205 -0.34,-0.942 -0.445,-1.257 -0.419,-1.31 -0.393,-1.151 -0.053,-0.157 -0.235,-1.624 0,-1.78 -0.053,-0.942 0,-0.838 0.131,-1.047 0.55,-2.409 0.131,-0.733 0.262,-0.523 0.576,-1.729 0.838,-1.1 0.184,-0.157 2.016,-2.933 1.31,-1.989 1.126,-0.943 1.99,-1.519 0.994,-1.309 1.101,-1.362 0.706,-0.994 1.833,-2.671 0.105,-0.157 0.104,-0.314 0.052,-0.419 0.079,-0.681 0.104,-0.576 0.157,-0.628 0.078,-0.367 0.105,-0.628 0.838,-2.043 1.597,-2.356 1.179,-1.623 1.126,-0.838 1.23,-0.942 1.257,-1.048 0.969,-1.885 0.445,-1.886 -0.524,-1.309 -1.178,-0.942 -1.126,-0.524 -1.859,-0.576 -1.911,-0.575 -3.221,-0.943 -1.702,-1.1 -1.073,-0.628 -1.414,-1.048 -1.466,-0.419 -0.917,0.157 -1.021,0.262 -1.179,0.157 -1.23,-1.1 -0.629,-0.628 -0.287,-1.467 0,-1.571 1.256,-1.833 0.891,-0.838 1.257,-1.256 0.942,-0.21 1.074,0.262 3.665,1.361 1.545,0.263 1.283,-0.105 1.021,-0.262 2.487,-0.89 1.99,-1.676 2.12,-2.671 1.44,-1.886 2.017,-0.995 1.754,-0.209 1.178,0.053 1.99,0.418 1.519,0.786 1.912,0.733 1.021,-0.21 1.021,-0.366 0.785,-0.995 0.917,-1.729 0.262,-1.676 -0.053,-1.151 -0.681,-1.624 -0.838,-0.681 -1.361,-1.152 -2.749,-1.413 -2.959,-0.891 -2.54,-0.891 -3.142,-1.257 -2.147,-1.57 -1.257,-1.571 -0.104,-2.199 -0.236,-1.886 -0.55,-1.99 -0.863,-2.565 -1.362,-2.461 -0.732,-2.2 0.183,-2.67 0.891,-1.99 1.1,-1.205 2.017,-1.519 1.911,-0.471 1.702,0.576 2.435,1.519 2.252,0.89 3.797,1.257 2.749,0.262 1.598,-0.313 3.796,-0.419 3.378,-1.152 3.954,-2.095 2.042,-0.838 4.949,-3.247 3.063,-2.356 1.178,-2.252 0.838,-2.565 0.523,-1.938 -0.157,-2.043 -0.916,-3.142 -0.891,-2.933 -0.183,-4.137 -0.184,-1.257 -0.497,-3.143 -1.074,-3.246 -2.487,-3.98 -0.603,-3.561 -1.989,-6.232 0.838,-3.771 -0.942,-4.398 -1.808,-4.713 -4.346,-6.756 -1.807,-3.037 -2.226,-4.817 -1.912,-3.666 -1.309,-2.618 -1.912,-1.676 -1.257,-1.467 -1.178,-1.361 -3.562,-4.189 -2.094,-2.671 -2.017,-3.352 -0.785,-3.299 -1.074,-5.185 0.288,-0.942 -0.576,-2.147 0.576,-1.256 1.048,-1.362 0.681,-2.252 1.204,-2.933 0.445,-2.199 0.21,-3.299 0.235,-2.985 -0.104,-2.095 -0.524,-3.194 -0.55,-2.67 -0.131,-0.733 -0.262,-1.31 -0.916,-2.304 0.34,-1.048 1.205,-1.676 2.12,-1.57 2.671,-1.624 3.901,-2.252 1.911,-1.466 1.964,-1.886 2.881,-1.623 4.32,-2.095 2.487,-0.576 2.016,-0.262 0.917,0.104 0.838,0.053 1.126,0.366 1.911,1.048 0.288,0.052 2.723,0.576 4.347,-0.942 2.645,-1.257 2.933,-1.833 2.775,-2.408 1.205,-1.257 5.813,-5.395 3.221,-3.456 2.54,-2.723 2.146,-4.818 2.068,-3.665 0.733,-2.776 0.026,-1.676 0.104,-2.094 -0.104,-1.257 0.262,-2.147 0.681,-1.623 1.073,-1.362 1.545,-1.204 1.571,-0.523 2.356,-0.942 1.467,-1.362 2.042,-2.723 2.33,-3.509 1.964,-2.514 0.523,-0.942 0.786,-4.608 0.393,-3.299 -0.184,-2.304 -0.104,-1.361 -0.785,-4.87 -0.236,-1.362 -0.602,-1.361 -0.917,-1.1 -1.126,-0.838 -1.361,-0.576 -1.23,-0.89 -1.073,0.052 -1.021,-0.105 -0.576,-0.262 -0.55,-1.623 -0.184,-1.519 -0.497,-2.723 -0.393,-2.67 -0.288,-5.289 0.235,-2.409 2.409,-4.975 1.807,-2.409 2.226,-1.833 4.006,-2.2 1.283,-0.681 3.011,-1.676 2.147,-2.304 1.466,-1.466 1.519,-1.047 4.059,-2.566 2.671,-1.519 1.388,-0.576 0.235,-0.052 0.682,-0.157 0.916,0.367 2.592,0.628 5.42,0.366 4.347,-1.309 1.649,-0.785 0.341,-0.105 3.954,-1.1 1.807,-0.681 1.413,-0.262 0.838,-0.052 0.288,-0.157 0.314,-0.733 0.288,-0.89 0.393,-0.891 0.524,-1.047 1.125,-1.519 1.414,-1.728 1.283,-2.304 3.404,-6.703 0.157,-0.314 2.094,-4.451 0.97,-1.781 1.963,-2.147 1.702,-1.938 4.006,-6.022 1.257,-2.409 1.179,-2.618 1.31,-4.033 0.497,-1.152 0.785,-2.723 0.184,-1.833 0.209,-1.623 0.472,-3.666 0.55,-3.299 0.838,-2.775 0.916,-2.671 0.838,-2.356 0.079,-1.257 0.314,-1.624 -0.157,-1.676 -0.288,-0.89 -0.393,-0.576 -0.288,-0.89 -0.603,-1.624 -0.864,-2.461 -0.104,-1.519 0.288,-1.78 0.262,-1.466 0.812,-1.938 1.336,-1.938 0.628,-1.414 0.812,-1.571 0.498,-0.733 0.681,-0.367 0.602,-0.052 0.629,0.052 0.812,0.262 0.785,0.21 1.021,0.366 1.336,0.419 1.701,0.314 2.147,0.471 2.435,0.105 1.755,0.052 2.068,-0.209 3.692,-0.838 5.132,-1.257 4.529,-1.152 2.305,-0.471 4.163,-0.942 1.938,-0.891 2.592,-0.628 4.294,-0.471 6.258,0.314 4.871,-0.576 1.701,-0.314 1.074,-0.837 0.55,-0.995 0.969,-1.729 1.309,-1.414 1.519,-1.047 2.436,-1.309 1.571,-0.838 1.021,-0.419 0.891,0.104 0.681,0.314 2.042,0.471 0.394,0.104 0.288,0.053 0.444,-0.053 0.184,0 0.262,-0.157 0.235,-0.105 0.236,-0.262 0.209,-0.314 0.288,-0.576 0.629,-1.1 0.785,-0.942 0.393,-0.733 -0.052,-0.419 -0.236,-0.628 -0.55,-1.047 -0.812,-1.152 -1.729,-1.624 -0.916,-1.1 -0.891,-1.414 -1.413,-2.2 -1.126,-1.78 -0.472,-1.414 -0.288,-0.995 -0.053,-2.409 -0.287,-2.095 -0.21,-3.404 0.21,-3.352 0.471,-2.461 0.445,-1.676 0.733,-1.623 0.732,-0.995 0.864,-0.681 1.23,-0.419 1.807,-0.209 3.719,-0.157 2.88,0 3.168,-0.314 2.775,-0.366 2.776,-0.891 3.875,-1.571 2.095,-0.733 2.199,-0.262 2.933,-0.89 3.352,-1.361 2.356,-1.047 2.278,-0.838 1.23,-0.419 0.916,-0.262 1.179,-0.157 1.964,-0.105 1.938,-0.104 2.016,-0.524 0.917,-0.157 0.732,0.157 1.649,0.419 0.891,0.052 1.126,0.472 1.807,0.052 3.692,0.105 2.487,0.157 1.23,-0.367 0.969,-0.262 1.047,-0.471 1.598,-1.257 2.199,-1.519 2.775,-1.676 2.933,-1.676 2.095,-1.152 1.755,-0.891 1.676,-0.785 0.916,-0.262 1.623,-0.523 1.649,-0.157 0.682,-0.262 0.681,-0.786 0.235,-0.995 0.393,-0.785 0.838,-1.362 0.891,-1.047 0.759,-0.942 1.336,-0.524 1.989,-0.681 2.252,-0.471 1.467,-0.105 1.021,0 2.043,0.262 3.272,0.576 2.487,0.209 5.368,0 1.807,-0.366 0.995,-0.209 0.576,0 1.623,0.366 1.833,0.209 2.356,0.157 3.509,-0.052 0.393,0 3.221,-0.471 1.649,-0.105 2.252,-0.733 1.073,-0.472 0.733,-0.523 0.576,-0.838 0.366,-0.943 0.184,-1.047 -0.288,-2.356 -0.104,-1.938 0.681,-1.414 0.785,-1.414 0.681,-1.728 0.969,-1.833 1.179,-1.571 1.23,-1.257 0.628,-0.523 0.524,-0.157 1.126,-0.052 0.994,0 1.152,0.209 1.388,0.314 0.812,0.262 0.681,0.366 0.603,0.367 1.598,0 1.23,-0.262 1.073,-0.733 1.179,-1.1 0.759,-1.1 0.105,-0.262 0.156,-0.314 0.184,-0.262 0.157,-0.262 0.184,-0.471 0.157,-0.314 0.104,-0.367 0.026,-0.314 0.052,-0.576 0,-0.419 0.104,-0.157 0.157,-0.262 0.184,-0.419 0.21,-0.471 0.078,-0.419 -0.053,-0.471 -0.235,-0.733 -0.288,-0.995 -0.104,-0.209 -0.053,-0.262 -0.078,-0.471 -0.053,-0.471 -0.052,-0.786 0,-0.262 0.104,-0.733 0.078,-0.995 0.053,-0.524 -0.053,-0.367 -0.052,-0.681 0,-0.471 0,-0.576 -0.026,-0.471 0,-0.628 0,-0.681 0.969,-0.314 0.393,0.262 0.916,0.576 0.943,0.576 0.366,0.419 0.707,0.995 0.733,0.733 0.681,0.576 0.732,0.681 1.101,0.524 1.23,0.681 1.23,0.628 0.628,0.209 0.445,0.052 0.472,0.052 0.34,-0.052 0.341,0 0.497,-0.157 0.55,-0.157 0.341,-0.157 0.341,-0.157 0.785,-0.89 0.366,-0.471 0.314,-0.681 -0.053,-0.838 0,-0.837 0,-0.733 0.053,-0.681 0.184,-1.152 0.235,-1.152 0,-0.524 0.053,-0.471 0.34,-0.733 0.341,-0.733 0.313,-0.367 0.288,-0.262 0.524,-0.157 0.838,0.053 0.628,0.314 0.838,0.733 0.864,1.1 0.838,0.838 0.445,0.367 0.183,0.157 0.21,0.105 0.131,0.052 0.104,0.052 0.157,0 0.079,0.052 0.104,-0.052 0.104,0 0.576,-0.209 0.393,-0.052 0.393,0 0.393,-0.052 0.524,-0.105 0.497,-0.104 1.283,-0.367 0.628,-0.157 0.629,-0.157 0.497,-0.262 0.472,-0.314 0.55,-0.262 0.393,-0.209 0.393,-0.262 1.021,-0.366 0.785,-0.105 0.472,0 0.55,0 1.073,0.105 0.236,0.104 0.235,0.157 0.341,0.367 0.313,0.314 0.236,0.262 0.156,0.419 0.132,0.419 0.497,1.624 0.393,1.361 0.523,0.733 0.943,1.1 0.393,0.524 0.419,0.523 0.393,0.576 0.104,0.209 0.104,0.419 0.053,0.576 0,0.366 0.078,0.262 0.21,0.157 0.393,0.314 0.472,0.314 0.497,0.262 0.288,0.104 0.288,0.052 0.262,-0.104 0.131,-0.105 0.157,-0.104 0.104,-0.105 0.079,-0.157 0.104,-0.21 0.104,-0.209 0.079,-0.419 0.157,-0.367 0.235,-0.838 0.209,-0.943 0.184,-0.995 0.262,-1.885 0.184,-1.257 0.157,-1.257 0.393,-1.205 0.341,-0.681 0.288,-0.681 0.393,-0.524 0.393,-0.523 0.471,-0.472 0.682,-0.366 0.393,-0.209 0.445,-0.262 0.209,0 0.184,0 0.157,0.053 0.183,0.052 0.236,0.157 0.262,0.157 0.183,0.21 0.236,0.262 0.445,0.366 0.393,0.367 0.838,0.89 0.34,0.314 0.288,0.367 0.236,0.157 0.313,0.157 0.236,0.157 0.288,0.104 0.55,0.157 0.523,0 0.497,0.052 0.629,-0.052 0.576,0 0.393,-0.104 0.34,-0.105 0.445,-0.209 0.498,-0.104 0.681,-0.472 0.575,-0.681 0.786,-0.786 0.785,-0.628 0.524,-0.262 0.837,-0.157 1.021,-0.104 0.942,-0.157 0.917,-0.157 1.073,-0.314 1.021,-0.262 0.497,-0.209 0.472,-0.262 0.262,-0.053 0.184,0 0.338,0 z"
       inkscape:connector-curvature="0"
       class="DEP_01 ZON_01" /></g></svg>