<?xml version="1.0" encoding="UTF-8" standalone="no"?>
<!-- Created with Inkscape (http://www.inkscape.org/) -->

<svg
   xmlns:dc="http://purl.org/dc/elements/1.1/"
   xmlns:cc="http://creativecommons.org/ns#"
   xmlns:rdf="http://www.w3.org/1999/02/22-rdf-syntax-ns#"
   xmlns:svg="http://www.w3.org/2000/svg"
   xmlns="http://www.w3.org/2000/svg"
   xmlns:sodipodi="http://sodipodi.sourceforge.net/DTD/sodipodi-0.dtd"
   xmlns:inkscape="http://www.inkscape.org/namespaces/inkscape"
   width="119mm"
   height="95mm"
   viewBox="0 0 421.65328 336.61399"
   id="SvgDepartamento"
   version="1.1"
   inkscape:version="0.91 r13725"
   sodipodi:docname="DEP_11.svg">
  <defs
     id="defs3635" />
  <sodipodi:namedview
     id="base"
     pagecolor="#ffffff"
     bordercolor="#666666"
     borderopacity="1.0"
     inkscape:pageopacity="0.0"
     inkscape:pageshadow="2"
     inkscape:zoom="0.98994949"
     inkscape:cx="-35.208787"
     inkscape:cy="190.55004"
     inkscape:document-units="px"
     inkscape:current-layer="layer1"
     showgrid="false"
     inkscape:window-width="1366"
     inkscape:window-height="705"
     inkscape:window-x="-8"
     inkscape:window-y="-8"
     inkscape:window-maximized="1" />
  <metadata
     id="metadata3638">
    <rdf:RDF>
      <cc:Work
         rdf:about="">
        <dc:format>image/svg+xml</dc:format>
        <dc:type
           rdf:resource="http://purl.org/dc/dcmitype/StillImage" />
        <dc:title></dc:title>
      </cc:Work>
    </rdf:RDF>
  </metadata>
  <g
     inkscape:label="Capa 1"
     inkscape:groupmode="layer"
     id="layer1"
     transform="translate(0,-715.74801)">
    <path
       inkscape:connector-curvature="0"
       d="m 230.65557,718.33344 c -4.825,2.35 -9.5883,5.06211 -14.8633,6.22461 -3.3375,0.7125 -7.5238,-0.4125 -10.0488,2.4375 -2.17501,2.0375 -4.05042,4.43906 -6.46292,6.22656 -4.5375,-0.45 -9.08828,-0.51367 -13.55078,0.54883 -1.475,2.7375 -2.96133,5.46328 -4.48633,8.17578 -6.725,-0.5 -10.37578,5.79961 -12.98828,10.97461 -1.7,2.95 -2.24961,7.06172 -5.59961,8.69922 -1.7875,1.1 -3.71367,2.01406 -5.32617,3.35156 -1.1625,4.525 -0.61133,9.44922 -2.61133,13.76172 -1.7125,3.2625 -5.76211,3.93789 -8.91211,5.15039 -2.6875,1.0875 -5.58906,0.78672 -8.35156,0.19922 -2.575,1.0625 -5.06172,2.41211 -7.76172,3.09961 -3.6375,-0.6625 -7.02539,-2.17422 -10.46289,-3.44922 -2.225,3.525 -4.38789,7.13789 -5.58789,11.15039 -1.2875,3.475 -1.93633,7.62539 -5.11133,9.96289 -3.45,2.4625 -7.92539,2.14961 -11.83789,3.22461 -3.399999,4.1 -3.649609,9.72422 -1.66211,14.51172 -2.437499,6.1875 -3.075779,12.82617 -4.550779,19.26367 -1.5125,6.6375 -0.4625,13.62383 -2.5,20.17383 -1.15,4.1125 -4.2875,7.17461 -6.8125,10.47461 -3.6,4.5875 -5.27422,10.33867 -8.82422,14.95117 -2.1125,2.8625 -4.72578,5.30039 -6.92578,8.08789 -3.0125,3.7625 -2.28789,9.42383 -5.90039,12.79883 -3.4,3.1 -5.77383,7.0375 -7.67383,11.1875 1.9625,5.6125 4.74922,10.97539 8.94922,15.27539 -1.7,2.75 -2.94961,6.03828 -5.72461,7.92578 -3.9875,2.65 -8.84961,4.125 -12.03711,7.875 -5.6,5.4125 -7.96211,12.99844 -11.41211,19.77344 -3.425,1.15 -6.9625,2.10117 -10.125,3.88867 -3.4125,1.95 -5.0375,5.71172 -7.75,8.38672 -2.675,1.775 -5.95078,2.26367 -8.73828,3.82617 -1.8749996,3.1125 -2.2871096,6.85 -3.2246096,10.3125 4.8624996,2.0125 10.0246096,3.13633 15.2246096,3.92379 8.175,1.1125 15.28672,6.025 23.57422,6.6875 19.6125,2.2625 39.1,5.6387 58.312499,10.2012 12.125,3.3125 25.11289,1.3992 37.15039,5.1992 9.6625,3.275 19.53711,6.1496 29.78711,6.7871 10.75,0.5125 19.31406,7.7504 29.28906,10.9004 2.3125,-0.5375 4.63633,-0.9867 6.98632,-1.3867 -3.04999,-3.075 -5.7746,-6.5887 -9.4746,-8.8887 -5.1125,-1.325 -10.67422,-0.062 -15.63672,-2.1367 -3.2125,-2.0625 -5.17617,-5.8629 -8.95117,-7.0254 -6.75,-2.225 -13.94883,-0.7129 -20.86133,-1.7129 -5.525,-1.45 -9.88789,-5.3863 -14.71289,-8.2363 -2.625,0.325 -5.66328,1.6992 -7.98828,-0.2383 -4.825,-3.45 -8.5625,-8.1379 -12.8125,-12.21286 -6.2125,1.64996 -12.47539,3.14956 -18.650389,4.91206 -3.8,-2.7375 -6.84883,-6.52495 -10.92383,-8.81245 -4.6625,-0.525 -8.9875,1.8375 -13.5625,2.125 -3.0375,-0.6625 -6.025,-2.04961 -8.25,-4.22461 -1.625,-2.2125 -2.475,-4.87383 -4.125,-7.04883 -2.05,-2.1875 -4.7,-3.73906 -6.6875,-5.97656 0,-2.3125 0.55,-4.57422 0.9375,-6.82422 3.025,0.4625 6.18789,0.64922 9.02539,1.94922 1.9,1.2875 3.17344,3.25 4.71094,4.9375 3.3875,-1.625 6.6375,-3.63594 10.25,-4.77344 3.4,1.2375 6.25039,3.92461 9.96289,4.28711 3.8375,0.3625 7.65,1.05 11.249999,2.5 2.6,-0.9875 5.18828,-1.96289 7.80078,-2.90039 -3.8375,-3.525 -9.31367,-5.51289 -11.888669,-10.21289 4.437499,-2.125 9.425779,-1.475 14.175779,-1.5 0.0125,-1.65 0.0375,-3.28711 0.0625,-4.91211 2.625,-0.0625 5.24922,-0.125 7.88672,-0.1875 1.275,1.75 2.55117,3.48672 3.82617,5.26172 3.6375,-1.7625 7.16211,-0.175 10.28711,1.875 1.975,-0.3375 3.96211,-0.63672 5.97461,-0.88672 5.7625,3.4125 12.81289,4.66328 17.27539,10.05078 2.4875,0.025 4.9875,0.05 7.5,0.0625 5,4.9625 7.825,11.83594 13.625,16.02344 4.1125,3.2375 9.27539,6.13905 14.71289,5.10156 3.9625,-1.5 5.29883,-5.78906 5.29883,-9.66406 2.6375,-4.1375 6.18906,-8.07383 11.22658,-9.04883 5.06251,2.6375 9.20001,6.74883 14.31251,9.36133 4.925,2.4875 8.7117,6.55117 12.9492,10.01365 0.5625,2.15 1.1746,4.2992 1.7871,6.4492 5,2.35 10.2504,4.4883 15.9004,4.2383 5.6375,-0.25 11,3.0996 16.625,1.5996 9.6625,-1.7 20.0754,-5.1246 29.4629,-0.4121 2.2,5.0375 4.9246,9.9254 6.3496,15.2754 -0.2375,1.55 -0.6754,3.075 -1.0254,4.625 -4.8,0.775 -9.6746,1.35 -14.2871,2.875 -2.675,0.95 -3.9621,3.6617 -5.5996,5.7617 5.2125,1.3 10.4754,2.7867 15.9004,2.8242 5.525,0.1875 11.1242,-0.5617 16.5742,0.6133 8.5625,1.875 17.3125,2.6121 25.9375,4.0996 7.8625,1.2625 15.7125,3.2262 23.75,2.8262 9.325,0.2 18.1629,-3.6516 27.4629,-3.7891 10.4,0.45 20.6246,-2.1742 31.0371,-1.1992 -4.225,-8.2875 -8.3879,-16.5875 -12.4629,-24.9375 -3.1625,-5.9625 -6.0617,-12.8008 -11.9492,-16.5508 -10.35,-2.775 -21.1383,-0.2367 -31.3633,1.9883 -2.625,-3.025 -5.2125,-6.0754 -7.6875,-9.21286 5.175,-4.8625 9.4637,-10.56211 12.6387,-16.91211 -4.025,-3.4 -9.0133,-5.58789 -12.6133,-9.46289 -1.9625,-3.8375 -0.9996,-8.44961 -1.2871,-12.59961 -3.6625,1.5 -7.2496,3.48672 -11.2246,3.94922 -3.4375,-1.2125 -6.2879,-3.66094 -9.7754,-4.71094 -3.1375,0.7375 -5.9379,2.37383 -8.7754,3.79883 -2.625,9.2875 -1.3504,18.97461 1.4746,28.03711 -5.625,2.2625 -11.3113,4.3375 -16.9238,6.625 -2.1,-0.925 -4.1887,-1.84883 -6.2637,-2.73633 -2.9,-5.95 -4.0367,-12.93711 -2.1367,-19.34961 4.3625,-6.725 11.85,-10.31406 17.125,-16.16406 -1.925,-4.2375 -3.1,-9.03594 -6.3125,-12.52344 -7.125,-6.1625 -17.1125,-3.76289 -25.6875,-4.21289 -1.4,-1.35 -2.8008,-2.69961 -4.1758,-4.03711 -0.1125,-2.7375 -0.2004,-5.4625 -0.2754,-8.1875 -4.4625,-3.5125 -9.3242,-6.4625 -13.6992,-10.0625 -4.7875,-4.575 -3.5371,-11.7375 -3.6621,-17.6875 -0.275,-6.475 2.6363,-12.42656 3.4863,-18.72656 -0.8,-1.5625 -1.9117,-2.91172 -2.8867,-4.32422 -0.3875,-1.725 -0.6742,-3.47422 -1.1992,-5.13672 -2.4375,-1.7625 -5.4,-2.65156 -7.75,-4.53906 -2.5875,-3.5875 -2.1504,-9.32461 1.3496,-12.16211 2.55,-1.5375 5.6375,-1.46133 8.5,-1.92383 0.85,-3.75 1.4621,-7.66367 3.4746,-11.01367 1.65,-3.05 4.025,-5.99883 3.8125,-9.67383 -0.2125,-9.7625 1.8746,-20.51328 -4.0879,-29.05078 -2.6625,-1.675 -6.0871,-2.98672 -6.9746,-6.32422 0.8875,-3.3125 3.1129,-6.175 3.5254,-9.625 0.375,-3.45 0.1988,-6.93789 0.1738,-10.40039 3.925,-0.7 7.9375,-0.65 11.875,0 0.2125,-2.725 0.6129,-5.475 0.2754,-8.1875 -1.7625,-3.3 -4.8863,-5.58711 -7.4863,-8.16211 0.037,-3.5375 0.3875,-7.10117 2.4375,-10.07617 1.975,-2.6875 0.3617,-6.01172 -0.3633,-8.82422 -0.95,-3.3 -3.3379,-5.85 -5.9629,-7.9375 -5.5375,3.6 -12.5871,3.07461 -17.9121,-0.65039 -0.5625,-0.2375 -1.6875,-0.68828 -2.25,-0.92578 -5.725,-4.8875 -10.1246,-11.33711 -16.8496,-14.97461 z M 130.02078,988.78266 c -0.49077,0.0115 -0.9832,0.052 -1.47851,0.12695 -5.2625,0.7625 -10.3625,2.29922 -15.5,3.57422 7.775,3.4 13.32461,10.67497 21.72461,12.74997 5.025,1.4 9.87539,3.3504 14.58789,5.5879 1.7,-1 3.4125,-1.9879 5.125,-2.9629 -6.275,-4.175 -11.02383,-10.17536 -14.42383,-16.83786 -3.27031,-0.97344 -6.59975,-2.31878 -10.03516,-2.23828 z"
       id="DEP_11"
       style="fill:#b3b3b3" />
  </g>
</svg>
