<?xml version="1.0" encoding="UTF-8" standalone="no"?>
<!-- Generator: Adobe Illustrator 19.2.0, SVG Export Plug-In . SVG Version: 6.00 Build 0)  -->

<svg
   xmlns:dc="http://purl.org/dc/elements/1.1/"
   xmlns:cc="http://creativecommons.org/ns#"
   xmlns:rdf="http://www.w3.org/1999/02/22-rdf-syntax-ns#"
   xmlns:svg="http://www.w3.org/2000/svg"
   xmlns="http://www.w3.org/2000/svg"
   xmlns:sodipodi="http://sodipodi.sourceforge.net/DTD/sodipodi-0.dtd"
   xmlns:inkscape="http://www.inkscape.org/namespaces/inkscape"
   version="1.1"
   id="SvgMunicipio"
   x="0px"
   y="0px"
   viewBox="0 0 1000 874.5"
   style="enable-background:new 0 0 1000 874.5;"
   xml:space="preserve"
   inkscape:version="0.91 r13725"
   sodipodi:docname="MUN_ID0421.svg"><metadata
     id="metadata10"><rdf:RDF><cc:Work
         rdf:about=""><dc:format>image/svg+xml</dc:format><dc:type
           rdf:resource="http://purl.org/dc/dcmitype/StillImage" /></cc:Work></rdf:RDF></metadata><defs
     id="defs8" /><sodipodi:namedview
     pagecolor="#ffffff"
     bordercolor="#666666"
     borderopacity="1"
     objecttolerance="10"
     gridtolerance="10"
     guidetolerance="10"
     inkscape:pageopacity="0"
     inkscape:pageshadow="2"
     inkscape:window-width="682"
     inkscape:window-height="480"
     id="namedview6"
     showgrid="false"
     inkscape:zoom="0.2698685"
     inkscape:cx="500"
     inkscape:cy="437.25"
     inkscape:window-x="0"
     inkscape:window-y="0"
     inkscape:window-maximized="0"
     inkscape:current-layer="svg" /><g
     id="g3"><path
       id="MUN_0421"
       d="m 363.6,-2.2 18.6,32.6 0,0.2 22.2,23.6 0.2,0 13.3,7.6 0.5,0 6.2,-5.2 0,0 12.1,-7.9 0,0 6.9,-1.2 0,0 8.3,4.5 0,0 7.9,0 0.2,0 5.7,-6 0,0 6.9,-11.9 0,0 6.4,-5.5 0,0 8.3,0 0,0 12.1,4.1 0,0 6.7,-1.7 12.4,-2.9 0.2,0 409,319.9 13.8,63.4 54.1,249.6 -77,19 -31.2,8.3 L 724.2,732.1 297.8,845.3 22.2,566.1 -4.2,539.4 73.5,341.7 l 0.2,-0.2 201,26 23.3,2.9 0.2,-0.2 0,0 -15.5,-24.5 -91.9,-146.7 0,-0.2 L 4.1,25.9 l 15,1.2 0,0 11.4,1.2 0,0 12.7,4.7 0,0 14.1,2.6 0,0 26.7,-4 0,0 21.2,-10.2 0,0 11.2,-0.2 0.2,0 11.4,3.1 0.2,0 3.1,4.3 0,0 1,8.8 0,0 3.3,10 0.2,0 7.9,3.1 0.2,0 6.9,-4.1 0,0 15.5,-7.9 0,0 13.8,-5 0,0 22.6,-5.5 0,0 7.1,-6 0,0 6,-13.6 0.2,-0.2 9.3,-2.1 0.2,0 9.1,3.6 0,0 14.8,11 0.2,0 14.1,-4 0,0 12.1,-4.5 0.2,0 10.7,2.6 0.2,0 10.7,1.4 0.2,0 12.1,-8.3 0,0 10,-20 0,0 18.1,-15.5 0.2,0 10.2,-1.4 0.2,0 4.5,4.5 0,0 10.5,22.3 0,0 z"
       inkscape:connector-curvature="0"
       class="DEP_04 ZON_02" /></g></svg>