<?xml version="1.0" encoding="UTF-8" standalone="no"?>
<!-- Generator: Adobe Illustrator 19.2.0, SVG Export Plug-In . SVG Version: 6.00 Build 0)  -->

<svg
   xmlns:dc="http://purl.org/dc/elements/1.1/"
   xmlns:cc="http://creativecommons.org/ns#"
   xmlns:rdf="http://www.w3.org/1999/02/22-rdf-syntax-ns#"
   xmlns:svg="http://www.w3.org/2000/svg"
   xmlns="http://www.w3.org/2000/svg"
   xmlns:sodipodi="http://sodipodi.sourceforge.net/DTD/sodipodi-0.dtd"
   xmlns:inkscape="http://www.inkscape.org/namespaces/inkscape"
   version="1.1"
   id="SvgMunicipio"
   x="0px"
   y="0px"
   viewBox="0 0 999.9 740.6"
   style="enable-background:new 0 0 999.9 740.6;"
   xml:space="preserve"
   inkscape:version="0.91 r13725"
   sodipodi:docname="MUN_ID0429.svg"><metadata
     id="metadata10"><rdf:RDF><cc:Work
         rdf:about=""><dc:format>image/svg+xml</dc:format><dc:type
           rdf:resource="http://purl.org/dc/dcmitype/StillImage" /></cc:Work></rdf:RDF></metadata><defs
     id="defs8" /><sodipodi:namedview
     pagecolor="#ffffff"
     bordercolor="#666666"
     borderopacity="1"
     objecttolerance="10"
     gridtolerance="10"
     guidetolerance="10"
     inkscape:pageopacity="0"
     inkscape:pageshadow="2"
     inkscape:window-width="682"
     inkscape:window-height="480"
     id="namedview6"
     showgrid="false"
     inkscape:zoom="0.31866056"
     inkscape:cx="499.95001"
     inkscape:cy="370.29999"
     inkscape:window-x="0"
     inkscape:window-y="0"
     inkscape:window-maximized="0"
     inkscape:current-layer="svg" /><g
     id="g3"><path
       id="MUN_0429"
       d="m 963,272.1 21.6,76.9 0,0 -15.1,81.7 -0.2,0 -32.6,25.6 0,0.2 -50.7,106.8 0,0 -53.5,155.1 -8.8,-8 -10.9,-7.6 -6.3,-4.4 -3.1,-0.9 -3.8,-2.7 -4.6,-2.4 -4.2,-1.3 -5,-0.8 -4.9,-2.7 -17.2,-9 -10.1,-5 -7.6,-2.8 -4.1,-3.1 -3.5,-0.8 -4.9,-0.6 -19,-4.6 -5.5,-1.6 -6.9,-1.6 -7.2,-1.7 -3.3,-1.1 -3.5,-0.6 -3.1,-0.2 -1.9,-0.8 -3.9,-2.4 -1.7,-0.6 -2.5,-0.2 -2.4,-0.3 -1.6,-0.2 -0.9,-0.6 -1.6,-1.1 -2.4,-1.1 -5.8,-1.7 -2,-0.8 -2.5,-0.6 -5.5,-0.5 -13.8,-1.3 -18.6,-1.6 -6.1,-0.3 -5,0 -3.1,-0.2 -2.7,-0.3 -1.4,-0.5 -1.7,-0.8 -1.7,-0.3 -1.4,-0.2 -0.9,0 -0.9,0 -1.7,-0.6 -1.9,-0.5 -8.5,-3.8 -12.4,-4.6 -4.6,-1.3 -6.3,-0.6 -9.3,-0.5 -4.4,0.2 -3.5,0.3 -2.7,0.6 -9.8,3 -14.8,4.4 -7.7,2.4 -6.3,2.7 -4.7,2.8 -4.9,4.1 -2.2,0.5 -1.7,0.5 -1.4,0.6 -2.2,1.7 -13.1,10.1 -2.7,2.7 -3.8,2.5 -1.6,0.8 -1.7,0.6 -1.4,0.3 -3,-0.2 -2,-0.5 -1.4,-0.8 -2.4,-2.2 -6,-6 -3.6,-2.4 -5,-3.5 -12.6,-8.3 -3.5,-2.5 -6,-5.2 -9.9,-7.7 -4.4,-2.7 -9.6,-4.2 -3,-0.8 -3.6,-0.2 -4.2,-0.2 -5.5,-1.3 -3,-0.3 -3.6,-0.8 -4.1,-1.3 -8.2,-3.3 -1.1,-0.3 -1.4,-0.3 -1.6,0 -2.2,0 -0.9,0.2 -0.9,0.2 -10.7,1.4 -13.2,0.3 -9.4,-0.3 -6.8,-2.7 -3,-3.1 -3.8,-4.2 -4.1,-2.5 -4.4,-2.8 -5.2,-6.6 -3.5,-4.6 -5,-8.2 -2.5,-4.9 -3.9,-8.5 -1.7,-2.8 -2.5,-3.5 -1.3,-1.9 -0.6,-1.9 -3.6,-8.5 -2.2,-3.8 -3.1,-3.8 -8.3,-8.3 -4.7,-3.6 -3.6,-2.5 -4.4,-2.4 -3.8,-1.6 -5,-1.1 -2.5,-0.3 -2.8,-0.2 -1.3,-0.2 -1.7,-0.3 -2.4,-1.1 -2,-0.3 -1.9,-0.2 -1.9,0 -2.2,0.2 -3.9,0.3 -3.9,0.5 -3,0 -6.5,-0.6 -3.1,-0.3 -2.8,0.2 -2.7,0.2 -2.4,0.2 -1.4,0.5 -1.3,0.2 -1.9,0.3 -2.4,0.8 -3.6,2 -3.1,0.3 -2.7,0.2 -9.9,-0.5 -5.4,0 -3.5,0.2 -2,-0.3 -1.1,-0.5 -0.6,-0.5 -0.6,-2.5 -1.3,-1.7 -2.2,-1.3 -2.8,-1.1 -2,-0.2 -1.7,-0.2 -1.3,0.2 -2.2,0.2 -1.6,1.4 -2,1.9 -6.6,7.9 -8.5,7.9 -4.2,3 -2.2,0.9 -1.1,0.2 -2.8,0.3 -5,-0.3 -3.8,-0.2 -3.9,-0.2 -2.7,-0.5 -2.2,-0.8 -4.2,-2 -2.2,-1.1 -8.3,-2.7 -10.2,-1.1 -8.8,-0.6 -13.4,-4.6 -7.6,-4.1 -8.2,-6.5 -4.1,-3.8 -9.6,-13.8 -3.1,-4.2 -2.8,-5.8 -10.9,-14.9 23.6,-1.1 14.8,0 7.4,-4.2 0,-10.7 -6.1,-4.9 -1.9,-5.7 6.8,-8.2 13.7,-7.4 25.3,-8.8 5,-2.5 15.4,6.1 17.3,-0.5 15.6,-11.8 0.6,-11.2 8.7,-11.3 11.6,-12.4 2.5,-7.6 13.1,0 8,-12.4 13.7,-5.7 17.3,0.6 11.8,-0.6 6.3,-5.7 9.1,-9.4 2,-12.3 0.5,-12.6 0.2,-0.2 160.6,-113 28.5,-20 6.9,-136.3 134.5,-63.3 72.1,53.7 58.5,95.3 0,0 0.2,0.2 78.8,21.1 119.3,32.1 76.6,91.9 z"
       inkscape:connector-curvature="0"
       class="DEP_04 ZON_02" /></g></svg>