<?xml version="1.0" encoding="UTF-8" standalone="no"?>
<!-- Generator: Adobe Illustrator 19.2.0, SVG Export Plug-In . SVG Version: 6.00 Build 0)  -->

<svg
   xmlns:dc="http://purl.org/dc/elements/1.1/"
   xmlns:cc="http://creativecommons.org/ns#"
   xmlns:rdf="http://www.w3.org/1999/02/22-rdf-syntax-ns#"
   xmlns:svg="http://www.w3.org/2000/svg"
   xmlns="http://www.w3.org/2000/svg"
   xmlns:sodipodi="http://sodipodi.sourceforge.net/DTD/sodipodi-0.dtd"
   xmlns:inkscape="http://www.inkscape.org/namespaces/inkscape"
   version="1.1"
   id="SvgMunicipio"
   x="0px"
   y="0px"
   viewBox="0 0 681.7 999.9"
   style="enable-background:new 0 0 681.7 999.9;"
   xml:space="preserve"
   inkscape:version="0.91 r13725"
   sodipodi:docname="MUN_ID0431.svg"><metadata
     id="metadata10"><rdf:RDF><cc:Work
         rdf:about=""><dc:format>image/svg+xml</dc:format><dc:type
           rdf:resource="http://purl.org/dc/dcmitype/StillImage" /></cc:Work></rdf:RDF></metadata><defs
     id="defs8" /><sodipodi:namedview
     pagecolor="#ffffff"
     bordercolor="#666666"
     borderopacity="1"
     objecttolerance="10"
     gridtolerance="10"
     guidetolerance="10"
     inkscape:pageopacity="0"
     inkscape:pageshadow="2"
     inkscape:window-width="682"
     inkscape:window-height="480"
     id="namedview6"
     showgrid="false"
     inkscape:zoom="0.2360236"
     inkscape:cx="340.85001"
     inkscape:cy="499.95001"
     inkscape:window-x="0"
     inkscape:window-y="0"
     inkscape:window-maximized="0"
     inkscape:current-layer="svg" /><g
     id="g3"><path
       id="MUN_0431"
       d="m 670.9,352.2 -1.2,2.2 -1.4,5 -0.2,3.4 -0.2,3.3 -0.3,2.8 0.2,3.5 0,2 1.1,2.5 1.2,1.5 2.4,0.8 1.7,0.9 0.7,1.4 0.6,1.8 -0.6,1.9 -0.8,2.4 -1.8,3.9 -1.7,3.4 -1,1.8 -2.4,1.8 -2.7,0 -1.4,1 -2.4,1.6 -1.8,2.7 -2.5,4.1 -1,3.6 -1.4,5.3 -0.6,4.2 0.1,4.3 1.1,2.6 0.1,3.2 0.6,2.3 3.1,2.9 1.2,1.8 3.1,2 1,0.6 1.1,1.1 0.8,3.3 0.8,3.2 -0.4,4.7 0.3,1 0.2,3.5 2.2,2.8 3.5,3.4 3.4,3.2 5,6.1 0.9,1.8 0.1,1.7 -2.6,2.8 -3.2,1.5 -2.7,1.1 -2.5,0.3 -2.4,-0.2 -3.5,-0.5 -2,-0.2 -2.2,1.4 -3.5,3.1 -3.2,3.3 -4,2.8 -3.2,1.2 -1.9,2 -1.7,3.3 -2.4,6.6 -4.3,7.9 -0.2,0.3 -0.8,5.9 1.7,4.1 0.1,4.2 -2.6,2.6 -5,4.3 -4.3,1.4 -5,0.5 -3.5,0.6 -1.8,1.8 -1.4,3.6 -0.9,6.8 -0.3,3.6 0,2.3 0,2.6 -0.1,4.3 -1.4,2 -2.7,0.2 -2.4,-0.6 -1,-1.8 0.6,-3.4 0.9,-4.5 -1,-2.4 -1.8,-2.7 -2.4,-1.8 -2.5,-0.2 -4.5,2 -1.2,2.5 -2,5.1 -1.4,1.7 -1.1,1.4 1,7 -0.8,3.2 -1.1,2.6 -0.9,1.5 -2.7,0.2 -2.5,0.3 -2.9,1.1 -2.5,1.5 -4.5,0.8 -4,0 -3.2,0.6 -2.6,1.2 -4.8,4.3 -3.3,3.7 -1.2,3.3 -4.3,2.5 -2.8,-0.1 -4,0.3 -3.9,-0.5 -2,-1 -2.5,-2.5 -2.5,-0.8 -3.3,0.5 -2.7,5.5 -3.9,3.4 -3.4,3.5 -4,3.1 -2,1.1 -3,0 -3.6,-1.4 -4.8,-1 -3.2,1.6 -2.8,4.6 -1.8,4.5 -1,5 -0.6,2 -2,0.8 -1.4,-1.8 -3.1,-5 -2.4,3.3 -8,-0.1 -2.6,0.2 -2.5,2 -1.1,2 -2.5,4.4 -2.8,-0.9 -8.2,-2.7 -4.2,0.5 -2.6,0.9 -4,3.2 -2.6,4.5 0.6,2.9 2.3,6.7 0,4.3 -0.9,4 -4.4,1.7 -1.7,1.8 0.3,2.3 2.9,2.8 1.2,2.6 0,4.1 -1.1,1.5 -2.5,1.2 -4.3,0.8 -2.9,0.8 -2.2,2.8 0.8,2.7 4.2,1.9 1,1 3.1,3.6 0.2,2.5 -1.2,2.2 -0.6,1.5 -1.8,2.6 -3.7,1.5 -1.8,-0.1 -3.7,-0.9 -1.4,0 -1.4,2.2 -0.6,2.5 -0.8,3.1 0.9,4.3 -1.2,3.1 -1.1,5.9 -3.9,1.1 0.3,3.2 -1.8,7.6 3.1,14 -2.6,2.5 -5.5,0.2 -0.9,2.3 -1.8,1.6 -2.8,-4.8 -4.9,-0.2 -1.9,3.2 0.3,2.3 2.8,4.9 1.6,4.5 -0.9,3.1 -2.9,-2.9 -1.7,-0.6 -1.7,0.6 -0.5,1.9 -2.4,2 -0.9,2.2 -0.6,1.6 0.3,2.2 0.6,2.2 1.4,3.5 -0.1,2.6 -1.2,1.8 -1.2,1 -2.5,1.6 -5.1,0.6 -6.1,-0.6 -1.6,0 -1.1,0.9 -1.9,2.6 -1.4,3.1 -1.1,3.1 -2.6,6 0.1,4 -0.3,2.2 0.7,1.4 0.6,0.7 0.8,-0.3 1.5,-2.2 2.3,-0.5 1.1,1.8 1.2,5.8 1.2,3.4 -0.5,2.5 -2.7,0.9 -1.5,-3.5 -1.6,-1 -2.4,0.2 -2.6,1.1 -2.8,3.6 -1.2,4.2 0.3,4.4 2.4,3.1 0.3,1.8 -0.2,1.8 -3.2,1.2 -5.9,0.9 -3.3,0 -1.9,0 -3.1,0.9 -0.8,2.8 0.5,2.8 2.9,2.4 2,1 2.4,1.4 0.2,2.8 -2,2.5 -4.6,1.8 -2.5,1.7 -2.4,5 -2.4,5.3 -2.6,1 -3.5,0.1 -6,-1.6 -3.6,0.8 -4.4,3.1 -2.5,4 -0.7,5.2 -2.3,8.7 1,8.2 -1.4,8.2 0.9,15.2 -1,4.8 -0.8,7.7 -2.5,6.6 -4.6,6.3 -20.3,13.9 -5.4,2.8 -3.7,5.6 1.9,9.7 2.7,8.4 2.3,6.3 -7.4,7 -8.3,2.8 -5.6,1.8 -6.8,2.6 -4,-25.8 2.4,-19.7 0,-17.3 -1.6,-16.7 -9.1,-13.7 0,-9.9 -3.1,-18.1 -1.5,-14.4 -3.1,-11.4 -2.2,-12.1 -1.5,-12.8 0.6,-10 7.4,-7.1 13.6,-1.6 3.9,-4.1 1,-6.1 -0.8,-4.9 -0.5,-3.3 -0.1,-4 0,-2.6 1.5,-1.9 7.9,-1.6 3.1,-1.4 1.6,-5 2.8,-8.4 1.2,-8 1.2,-10.9 1.6,-6.6 4.2,-10.8 6.7,-7.5 6.5,-4.3 6.1,-4.2 4.4,-5.3 8,-3.6 4.1,-2.9 1.6,-3.4 -0.8,-4 -0.1,-3.4 0.6,-1.7 2.3,-1.9 3.4,-1.4 3.1,-1.8 5.1,-2 3.6,-2.3 4.9,-4.6 3.6,-3.5 0.8,-2.2 1.1,-2.7 1.6,-3.4 0.6,-2.2 4,-4 0.6,-2.3 -0.5,-4 0.3,-1.8 1.2,-0.8 1.9,-0.6 4.1,1.1 2,-0.5 1.2,-1.7 0,-2.8 2.3,-2 2.3,-1.2 -0.5,-3.2 -0.3,-2.2 -0.1,-1.9 -0.7,-2.8 -0.2,-1 -1.9,0 -7.6,2.5 -0.6,-1.6 -1.1,-1.7 -0.8,-1.8 -0.8,-0.5 -4,-0.5 -0.7,0 -3.5,0.6 -3.1,0.6 -2.2,-0.3 -1,-1.2 -1.4,-1.6 -1.8,-2.8 -0.9,-2.2 -0.9,-2.5 -0.6,-2.7 -1.9,-2.2 -0.9,-1.1 -2.8,-2.9 -2.9,-3.9 -2.2,-2.8 -1.7,-2.8 -1.7,-2.7 -1.6,-2.7 -1,-2.7 -1.2,-4.1 -0.2,-2.4 0,-1.7 0.1,-2.7 1,-2.4 1.6,-0.7 4.2,-1.4 1,-2.6 0,-2.3 -1.5,-2.5 -1.4,-2.5 -1,-1.8 -1.2,-1.6 -1.1,-1.4 0.2,-1.5 1.4,-1.8 1.1,-1.5 0.7,-1.2 0.5,-1.9 0.3,-1.5 0.5,-0.8 1,-0.2 0.6,0.2 1.4,0 1.9,-1.2 0.5,-1.7 0.5,-1.9 -0.9,-1.1 -1.9,0.6 -1.1,-0.1 -0.5,-0.9 -0.6,-1.1 0,-1.2 1.4,-3.5 0.6,-1.8 1,-1.7 2.3,-1.2 0.8,-0.9 -0.7,-1.7 -1,-0.8 -1,-1.4 -0.5,-0.9 -0.3,-1.1 0,-1.9 0.1,-2.3 -0.8,-1 -1,-0.8 -1.1,-0.3 -1.2,0.3 -0.6,0.6 -0.2,0.9 -0.2,0.8 -0.3,1.8 -0.6,0.7 -1.6,0.2 -0.9,0.5 -0.9,0.8 -0.7,1 -0.9,1 -1.4,0.7 -1.2,-0.2 -0.5,-0.6 -0.3,-0.8 -0.2,-1.5 -0.2,-1.8 0.2,-1.9 -0.2,-2.6 -0.7,-2.3 -0.9,-1.4 -1.1,-0.8 -2,-1.4 -1.1,-1.4 -1.9,-1.7 -1.4,-1.4 -0.2,-0.2 -4.1,-0.1 -4,-0.2 -3.7,-0.3 -4.5,-0.7 -4.9,-0.5 -3.2,0 -2.9,0.2 -3.4,0.2 -2.3,0.6 -2.4,-0.5 -2.7,-0.1 -1.9,-0.7 -0.2,-0.7 -0.8,-1.1 -0.7,-0.2 -0.6,-0.6 -0.9,-0.2 -1,-0.3 -1.4,-0.2 -0.6,-0.5 -1.5,-0.7 -1,-0.3 -0.7,-0.5 -2.6,-0.3 -2.4,-1.1 -3.3,-1.9 -1.7,-1.1 -1.6,-1.4 -0.7,-1.2 0.2,-1.2 1.2,-0.8 1.8,-1.1 0.8,-0.9 -0.3,-1.1 0,-0.1 -0.8,-0.7 -1.9,-0.1 -1,0.1 -0.9,-0.7 0,-0.5 0.2,-0.8 1.8,-0.2 1.6,-0.2 1.2,-1.5 0.2,-1 -0.2,-1.9 -0.7,-1.9 0.5,-2.4 1.2,-2.6 0.3,-2.4 0.2,-2.5 -1.4,-1.6 -1.1,0.2 -0.9,0.9 -1.8,1.5 -0.9,0 -0.3,-1.4 0.3,-1.9 -0.6,-1.6 -1.5,-1 -1.2,-0.7 -2.2,-0.1 -3.6,0 -2.8,-0.9 -1.5,-0.2 -1.5,-1.2 0.1,-1.5 -0.3,-0.7 -1.2,-1.5 -0.5,-1.2 0.3,-1 1.7,0 2.5,-0.3 1.1,-0.1 0.8,-0.9 0.1,-1.5 0,-1.8 -0.8,-1.6 -0.9,-2.2 -1.5,-4.3 -1.5,-3.2 -0.8,-2.6 0.1,-2.9 0.5,-3.3 -0.5,-1.7 -1,-1.6 0.3,-1.2 1.5,-1.4 1.7,-2.5 0.3,-1.7 -0.7,-2.6 -2.2,-3.4 -0.7,-2 0.5,-1.4 0.3,-2.3 -1.9,-2 -0.8,-2.6 1.8,-0.6 2.2,0.6 1.6,-0.6 0.8,-2.4 -0.9,-4.8 -1.7,-2.5 0,-0.2 -0.2,-1 -0.8,-0.8 -0.8,-0.7 -0.5,-2.2 0.2,-2.4 0.1,-1.9 -1,-3.6 -0.7,-0.9 -2.6,-6.5 -2.7,-3.1 -4.4,-4.1 -0.6,-2.8 -1,-3.3 -1.7,-3.3 -4.1,-1.9 -5,-2.7 -4.9,-3.6 -3.4,-1.8 -2.7,-2.9 -2.7,-3.3 -1.1,-6.1 -1.4,-1.9 -100.5,36.2 0.2,4.2 0.5,4.4 1.1,3.3 0.7,2.5 1.4,2.6 1.7,1.9 1.6,0.9 2,1.2 0.6,2.3 -0.3,3.2 -0.2,2.6 -1.1,1.8 -3.2,-3.4 -2.5,-1.9 -2.9,-2.6 -1.8,-1.4 -1.1,-3.3 -0.7,-2.7 -1.6,-2.2 -1.6,-1.4 -2.8,-1.1 -2.5,0.3 -3.1,0.1 -3.9,-0.7 -4,-2.5 -2.4,-1.8 -1.5,-1.2 -2.3,-1.2 -1.9,-2.2 -1.5,-3.1 0,-3.9 0.1,-2.5 1.5,-1 2.2,-1.4 3.7,-0.1 1.8,-1.6 -0.3,-3.1 -0.5,-3.3 -2.4,-3.1 -2.4,-3.1 -2.4,-1.5 -2.5,-1.9 -3.2,-0.6 -2.3,-0.6 -3.4,-0.5 -3.4,-1.5 -3.7,-3.3 -3.4,-6.5 -1.8,-2.8 -1.5,-2.2 -1.6,-1.9 -3.9,-3.3 -0.8,-1.6 0.7,-3.2 1.4,-4 2.3,-4.1 2,-3.5 0.1,-2.2 -1.5,-3.4 -1.6,-4.1 0.3,-3.3 -0.6,-3.7 -1.5,-5.1 -2.9,-3.7 L 12.1,275 9.6,273.1 7.4,272.3 5,271.6 3,270.5 1.2,269.3 0.3,267.5 0,265.6 l 186.6,-63 228.9,-77.1 0.2,-2.6 -1,-1.9 -1.5,-3.4 -1.2,-3.2 0,-2.4 0.2,-1.9 1.9,-1.4 2.6,-1.6 2.9,-1.2 6.2,0.6 1.4,-0.1 2,-0.8 0.8,-0.7 1.2,-1.9 0.8,-0.6 1.7,0.5 1,0.2 1.1,0 2.3,0.1 2.3,-0.2 1.1,-0.3 2.6,0.1 0.9,0.7 1,-0.1 4.2,-1.4 2.9,-0.5 2.6,0 4.1,0.1 3.1,-0.2 3.1,-2.2 2.7,-3.3 0.5,-2.8 -0.2,-3.7 0.7,-0.2 1.4,-1.1 1.7,-1.2 2.9,-1.2 1.4,-1.2 1.1,-2.5 0.1,-3.2 1,-4.1 1.5,-2.6 0.8,-1.1 1.6,-1.5 1.5,-0.9 3.3,-0.9 2.6,0.7 2.3,-0.2 2.6,-1.1 3.9,-2.4 2.9,-1.9 2.2,0 3.2,0.1 2.6,0.6 1.2,-0.9 2.3,-2 1.2,-0.9 1.8,-1.1 1,-1.7 0.6,-1.9 1.4,-2.3 0.9,-1.5 2.3,-1.8 1.6,-1.2 0,-1.4 0.1,-2.2 0,-2 1.1,-1.1 1.6,-1.6 2.5,-2.6 0.5,-2.7 0,-7.1 0.1,-4.1 0.5,-3.2 0.9,-2.4 1.2,-1.4 0.3,-2.2 0,-1.6 -1.4,-2.6 -0.7,-1.2 -0.7,-2.2 0.7,-1.7 1.1,-1.8 3.1,-3.1 59.8,77.4 1.1,2.4 0,3.2 0,3.4 0.1,2.9 0.1,2.8 0.5,2.9 0.8,2.4 1.8,1.7 2.2,0.8 1.9,0.7 2.2,0.9 1.9,2.3 0.9,2.8 0,3.2 -0.5,3.4 0.8,2.6 1.5,1.5 1.6,0.7 2.6,0.6 3.1,3.1 1.2,2.2 0.1,2 -0.8,1.7 0.8,2.4 0.5,2.6 -0.9,1.8 -1.4,2.7 -0.9,2.3 1,3.2 -0.3,4.1 -0.9,2.4 0.3,4 -0.1,3.2 0.3,2.5 1.4,2.5 0.1,1.8 0,0.5 -1,2.2 0.6,3.1 2.4,4 3.1,2.8 1.2,2 1,2.4 0.2,2.3 -0.7,1.8 -1.5,1.8 -1.8,0.8 -0.6,1.2 -0.6,2.8 0.8,2.4 -0.2,2.6 -3.7,3.4 -2.3,2.3 -2.8,3.5 -0.3,1 9.4,0.9 0.7,-0.1 2.4,-0.1 0.8,0 1.2,1.9 1.9,1.7 1.9,1.5 1,2.2 0.7,2.7 0.6,2.8 1.2,1.7 1.2,1.2 1.8,2 1.5,1.7 1.5,2 1.4,1.9 2.3,1.8 2.7,1.9 1.8,1.8 2,2.9 2.4,15.3 3.3,4.2 3.9,2.4 5.1,0.9 2.6,2.5 1.5,1.8 2.4,4.6 2,2.3 1.2,5 1,4 -0.9,3.4 -2.7,6.5 -0.5,2.9 0.3,4.6 2,4.9 1.6,3.1 0.3,4 -1.5,5.2 -2,3.6 -1,2.5 -0.8,2 -1.3,1.9 -0.9,1.6 -1.9,1.8 -1,1.5 -0.3,4.6 0.9,1.1 2.3,3.3 1.7,3.2 0.1,3.4 1.2,4.3 -0.6,0.9 0.4,0.5 z"
       inkscape:connector-curvature="0"
       class="DEP_04 ZON_02" /></g></svg>