<?xml version="1.0" encoding="UTF-8" standalone="no"?>
<!-- Generator: Adobe Illustrator 16.0.0, SVG Export Plug-In . SVG Version: 6.00 Build 0)  -->

<svg
   xmlns:dc="http://purl.org/dc/elements/1.1/"
   xmlns:cc="http://creativecommons.org/ns#"
   xmlns:rdf="http://www.w3.org/1999/02/22-rdf-syntax-ns#"
   xmlns:svg="http://www.w3.org/2000/svg"
   xmlns="http://www.w3.org/2000/svg"
   xmlns:sodipodi="http://sodipodi.sourceforge.net/DTD/sodipodi-0.dtd"
   xmlns:inkscape="http://www.inkscape.org/namespaces/inkscape"
   version="1.1"
   id="SvgMunicipio"
   x="0px"
   y="0px"
   width="724.316px"
   height="999.962px"
   viewBox="64.684 117.984 724.316 999.962"
   enable-background="new 64.684 117.984 724.316 999.962"
   xml:space="preserve"
   inkscape:version="0.91 r13725"
   sodipodi:docname="MUN_ID0403.svg"><metadata
     id="metadata10"><rdf:RDF><cc:Work
         rdf:about=""><dc:format>image/svg+xml</dc:format><dc:type
           rdf:resource="http://purl.org/dc/dcmitype/StillImage" /></cc:Work></rdf:RDF></metadata><defs
     id="defs8" /><sodipodi:namedview
     pagecolor="#ffffff"
     bordercolor="#666666"
     borderopacity="1"
     objecttolerance="10"
     gridtolerance="10"
     guidetolerance="10"
     inkscape:pageopacity="0"
     inkscape:pageshadow="2"
     inkscape:window-width="682"
     inkscape:window-height="480"
     id="namedview6"
     showgrid="false"
     inkscape:zoom="0.23600897"
     inkscape:cx="362.15799"
     inkscape:cy="499.98099"
     inkscape:window-x="0"
     inkscape:window-y="0"
     inkscape:window-maximized="0"
     inkscape:current-layer="svg" /><g
     id="g3"><path
       id="MUN_0403"
       d="m 789,648.173 -189.908,89.29 -9.773,192.573 -40.202,28.209 -226.779,159.479 -0.223,0.223 2.665,-6.664 0,0 -0.443,-1.555 0,0 -0.444,-2.443 0,0 -11.994,-13.771 -3.998,-4.665 -6.664,-6.219 0,0 -5.33,-4.887 0,0 -5.108,-5.553 0,0 -5.775,-6.441 -9.106,-9.995 0,0 -12.661,-15.549 0,0 -0.666,-0.443 -21.768,-23.322 -13.549,-14.438 0,0 -36.871,-43.091 -38.648,-45.089 -0.222,-0.223 -81.294,-95.287 -5.553,-336.948 5.774,-12.883 41.758,-93.066 113.499,-167.475 65.523,-89.957 75.297,5.553 158.813,9.996 24.877,37.537 9.329,9.329 44.867,47.532 10.217,11.772 3.11,5.331 1.332,8.44 -1.332,7.108 -3.11,6.441 -5.997,7.774 -6.663,21.768 -0.889,6.441 1.555,7.996 8.219,10.217 3.109,9.329 0.222,9.773 -5.108,17.325 14.438,55.973 0.666,45.756 -8.44,16.658 59.527,95.731 33.983,55.307 21.768,1.777 13.327,2.665 29.763,6.664 14.88,9.997 z"
       inkscape:connector-curvature="0"
       class="DEP_04 ZON_02" /></g></svg>