<?xml version="1.0" encoding="UTF-8" standalone="no"?>
<!-- Generator: Adobe Illustrator 16.0.0, SVG Export Plug-In . SVG Version: 6.00 Build 0)  -->

<svg
   xmlns:dc="http://purl.org/dc/elements/1.1/"
   xmlns:cc="http://creativecommons.org/ns#"
   xmlns:rdf="http://www.w3.org/1999/02/22-rdf-syntax-ns#"
   xmlns:svg="http://www.w3.org/2000/svg"
   xmlns="http://www.w3.org/2000/svg"
   xmlns:sodipodi="http://sodipodi.sourceforge.net/DTD/sodipodi-0.dtd"
   xmlns:inkscape="http://www.inkscape.org/namespaces/inkscape"
   version="1.1"
   id="SvgMunicipio"
   x="0px"
   y="0px"
   width="540.462px"
   height="1000.013px"
   viewBox="64.578 117.779 540.462 1000.013"
   enable-background="new 64.578 117.779 540.462 1000.013"
   xml:space="preserve"
   inkscape:version="0.91 r13725"
   sodipodi:docname="MUN_ID0413.svg"><metadata
     id="metadata10"><rdf:RDF><cc:Work
         rdf:about=""><dc:format>image/svg+xml</dc:format><dc:type
           rdf:resource="http://purl.org/dc/dcmitype/StillImage" /></cc:Work></rdf:RDF></metadata><defs
     id="defs8" /><sodipodi:namedview
     pagecolor="#ffffff"
     bordercolor="#666666"
     borderopacity="1"
     objecttolerance="10"
     gridtolerance="10"
     guidetolerance="10"
     inkscape:pageopacity="0"
     inkscape:pageshadow="2"
     inkscape:window-width="682"
     inkscape:window-height="480"
     id="namedview6"
     showgrid="false"
     inkscape:zoom="0.23599693"
     inkscape:cx="270.23099"
     inkscape:cy="500.0065"
     inkscape:window-x="0"
     inkscape:window-y="0"
     inkscape:window-maximized="0"
     inkscape:current-layer="svg" /><g
     id="g3"><path
       id="MUN_0413"
       d="m 586.443,127.933 1.71,57.023 1.924,64.611 0.321,0.535 0.748,1.229 1.71,1.817 1.069,1.336 0.641,1.871 1.016,1.603 0.321,1.71 0.587,2.084 0,2.084 -0.374,0.694 -0.908,0.909 -1.764,1.229 -1.816,1.764 -1.123,1.39 -0.641,0.909 -0.428,1.176 0.374,1.122 1.122,1.336 0.962,1.497 0.908,1.336 0.535,1.123 0.214,1.282 -0.214,1.443 -0.588,1.069 -0.962,1.336 -1.39,1.122 -1.016,0.855 -1.336,0.535 -1.176,0 -1.55,-0.054 -0.962,0.268 -0.695,0.695 -0.587,0.694 -0.268,0.909 0.214,1.016 0.694,0.641 0.374,0.748 0.107,0.802 0,1.871 -0.107,1.978 -0.267,0.641 -0.428,1.069 -0.268,1.069 0.374,1.122 0.374,1.123 0.642,0.427 0.642,0.375 0.694,0.374 1.604,-0.107 2.886,0 1.016,0.427 1.176,0.695 0.694,0.695 0.962,0.588 0.428,0.962 0.268,0.962 -0.535,0.855 -0.267,0.909 0.374,1.069 0.855,0.748 0.48,0.855 0.642,0.801 0.802,0.481 1.122,0.428 0.908,-0.16 0.588,0.481 0.374,0.588 0.802,0.801 0.642,0.214 0.48,0.107 0.642,0.641 0.855,0.428 -0.054,0.374 -0.481,0.802 -0.053,0.641 0.48,0.749 0.481,0.695 0.053,0.962 -0.374,0.801 -0.534,1.069 0.054,0.695 0.374,0.321 0.374,0.481 0.588,0.588 0.48,0.748 0,1.016 -0.16,0.855 -0.48,1.122 -0.107,0.855 -0.214,1.282 -0.213,0.909 -0.375,1.176 -0.748,1.069 -0.908,1.443 -0.855,1.71 -0.908,1.763 -0.694,1.497 -1.176,1.817 -0.962,1.283 -0.535,1.069 -0.908,1.123 -0.962,0.694 -1.282,0.428 -0.909,0.428 -0.588,1.069 -1.816,1.817 -1.39,1.122 0,0.642 0.802,1.282 0.106,1.657 -0.106,1.39 0,1.604 -0.161,1.015 -0.32,1.016 -0.694,1.389 -0.268,0.749 -0.16,0.908 -0.054,0.962 -0.106,0.535 -0.428,0.481 -0.054,0.054 -1.068,0.801 -0.855,0.374 -1.336,0.481 -0.855,0.535 -0.641,0.588 -1.016,0.481 -1.229,0.16 -1.016,-0.427 -0.641,-0.054 -0.588,0.321 -0.107,0.374 0.321,1.069 0.641,0.748 0.695,0.642 0.588,0.855 0.48,0.802 0.214,1.069 -0.16,1.122 -0.481,1.176 -0.587,0.855 -1.337,1.657 -1.122,0.855 -0.908,0.749 -0.428,0.588 -0.214,0.962 0.107,1.496 0.213,1.016 0.535,0.374 1.55,1.283 -28.218,18.598 -24.103,15.819 -0.694,0.32 -43.021,28.271 -56.382,37.035 -9.192,5.985 -24.209,24.21 -18.972,18.918 -66.964,66.75 0.535,65.895 -23.675,17.582 13.093,71.88 0.268,1.337 12.933,70.543 -29.232,57.397 -0.588,1.229 -22.019,30.89 -67.07,94.219 -0.374,1.496 -0.962,1.176 0,1.657 -0.214,1.229 -1.442,1.443 -0.588,1.336 0.534,1.282 0.962,1.497 0.48,2.138 -0.267,2.458 -0.802,1.336 -0.855,0.695 -0.908,0.48 -0.268,1.016 1.069,0.642 0.802,0.641 0.106,0.642 -0.962,0.534 -0.214,0.535 0.748,0.908 0.321,0.534 0,1.122 -0.481,0.909 0.107,0.802 0.32,1.282 0.428,0.908 0.054,0.268 1.068,0 0.481,0.32 -0.481,0.535 0.107,0.641 0.534,1.069 0.32,0.962 -0.748,0.214 -1.229,0.32 0.374,1.71 0.855,-0.106 1.176,-0.428 0.802,0.268 0.106,0.588 -0.802,1.068 -1.496,2.352 -0.32,0.962 -0.054,1.39 0.32,0.908 0.214,0.428 0.588,0 0.374,-0.748 0.642,-0.374 0.694,0.106 1.016,3.688 0.481,3.047 1.015,1.656 1.016,0.428 0.481,0.694 -1.176,0.748 -0.268,0.642 0.374,0.374 1.016,0.214 0.588,0.16 0.268,0.855 -1.016,0.748 -1.016,0 -0.748,0.106 -0.214,0.481 0,0.802 0.694,0.268 0.909,-0.054 0.32,0.641 -0.054,0.695 -2.19,0.802 -0.535,1.068 -0.48,0.748 0.214,0.802 0.267,0.268 1.069,-1.016 0.908,-1.068 0.855,0 0.16,0.641 -0.268,0.588 -1.015,1.176 -0.161,0.962 0.802,0.855 1.123,-0.588 0.748,-0.428 1.336,-0.267 0.908,0.106 1.069,0.374 1.068,-0.428 0.962,-0.588 0.588,0.107 0.374,1.015 -0.748,0.749 -0.962,1.122 0.214,0.962 1.122,0.214 0.107,0.588 -0.748,1.068 0.106,0.588 0.48,0.214 0.428,-0.748 1.069,-1.55 0.588,0.054 0.374,0.374 -0.268,1.282 0.16,0.909 -0.106,1.603 0.374,1.229 -1.229,0.48 -0.641,0.642 -0.268,1.069 -0.481,0.748 -1.496,0.054 -0.48,0.534 1.068,0.962 0.107,1.068 -1.443,0.588 -1.336,0.214 -0.588,1.229 -1.282,0.642 -1.016,1.176 0.053,0.748 0.963,1.122 1.336,1.604 0.267,2.404 -0.106,2.405 -1.122,2.939 -0.909,2.298 -1.122,1.55 -0.855,1.55 -0.213,2.244 -0.321,2.726 -0.641,2.512 -1.229,1.978 -1.764,-2.886 0,0 -1.657,-3.153 0,0 -1.924,-4.008 0,-0.054 -1.122,-6.092 -0.054,-0.054 -5.023,-4.382 -0.053,-0.054 -9.406,1.71 0,0 -3.046,1.443 0,0 -2.779,1.389 0,0 -0.642,0.214 0,0 -2.672,0.642 0,0 -2.832,0.428 0,0 -4.917,-1.283 0,0 -2.352,-1.229 0,0 -1.87,-0.588 -0.05,0 -1.978,-2.298 0,0 -1.924,-3.955 0,0 -2.672,-6.521 0,0 -0.962,-3.152 -0.054,0 -0.802,-2.459 0,0 -0.694,-2.939 0,-0.053 -1.657,-2.565 0,0 -0.748,-1.496 0,0 -0.802,-1.176 0,0 -1.443,-1.764 0,0 -1.656,-1.55 0,0 -1.764,-0.962 0,0 -3.206,-1.817 -0.054,0 -2.939,-1.068 -0.054,0 -1.55,-0.214 -0.053,0 -2.405,0.854 0,0 -3.26,1.604 0,0 -4.383,-0.428 0,0 -2.726,-2.191 0,0 -0.32,-1.229 0,0 -1.016,-3.901 0,0 -1.656,-4.009 -0.428,-4.862 0,-0.054 -1.496,-5.131 0,0 0,-1.604 0,0 -2.459,-6.573 -0.054,0 -4.062,-5.237 -4.008,-4.756 0.106,-1.336 -0.801,-3.153 -2.726,-2.672 -3.313,-1.283 -3.153,-0.48 -1.229,-0.642 -0.802,-1.122 -2.03,-1.229 -3.581,-0.214 -1.71,-0.748 -1.39,-0.962 -1.068,-1.71 0.214,-2.138 0.908,-2.245 -0.534,-2.404 0.16,-0.802 0.32,-1.229 -0.428,-1.496 -1.068,-1.39 0.16,-0.962 0.802,-1.87 -0.107,-1.069 -0.854,-1.122 -0.748,-0.534 -0.695,-0.909 -0.106,-2.458 -1.122,-0.962 -0.962,-0.16 -1.176,0.48 -1.871,-0.054 -0.854,-0.748 -0.214,-1.229 -0.695,-1.229 -0.962,-0.374 -0.588,-0.374 -0.32,-0.908 0.428,-1.551 0.534,-0.854 0.214,-0.855 1.068,-0.48 1.39,0.267 0.909,-0.748 0.641,-1.068 0.268,-1.283 -0.962,-1.122 -0.642,-0.802 0.054,-0.962 1.817,-1.068 -0.054,-0.642 -1.924,-1.39 -0.321,-0.748 0.268,-1.336 1.656,-0.802 2.299,0.48 1.122,-0.587 -0.054,-1.069 -0.748,-1.55 0.054,-0.214 0.106,-1.068 2.245,-0.962 0.588,-1.016 -0.321,-1.978 0.642,-0.908 0.642,-0.374 -0.749,-1.657 -0.962,-0.374 -1.336,-0.962 -1.015,-2.672 -1.176,-2.886 -1.337,-4.169 0.214,-3.688 -0.427,-3.42 0.854,-1.443 1.016,-2.191 -0.32,-1.068 -1.871,-2.939 0.107,-1.069 0.802,-0.801 0.587,-1.069 -0.374,-1.176 0.749,-0.428 0.801,0.16 1.657,-0.32 -0.214,-0.854 -0.748,-0.642 0.106,-1.978 0.588,-2.352 1.443,-1.924 -0.054,-1.656 0.374,-0.481 0.428,-0.534 0.32,-0.588 0,-1.336 0.321,-0.321 0.641,0.268 0.909,-0.054 0.32,-0.694 -0.428,-0.909 -0.32,-1.068 0.48,-1.016 0.749,-0.214 0.641,-0.48 0.481,-1.016 0.16,-1.39 0.054,-1.604 1.229,-1.282 0.161,-0.962 0.267,-2.672 0.268,-2.619 1.816,-0.48 1.443,-0.588 1.176,-0.962 0.694,-1.069 1.925,-1.87 2.03,-0.642 0.642,-0.694 0.694,-0.962 1.978,-0.802 1.229,-1.657 4.328,-18.063 11.224,-46.228 24.69,-35.646 22.553,-32.546 10.367,-15.018 3.741,-24.637 -3.634,-20.041 -2.191,-12.612 -28.806,-22.659 -17.155,-13.468 44.304,-68.994 -19.72,-50.343 -11.971,-30.516 -6.627,-16.941 15.926,-20.521 53.549,-68.513 5.665,-7.322 -62.313,-132.109 -16.888,-35.753 37.891,-0.214 49.915,-0.374 5.344,0 85.08,-26.774 62.313,-19.613 48.579,-15.231 15.659,-11.009 40.723,-28.699 46.067,3.955 72.31,6.185 z"
       inkscape:connector-curvature="0"
       class="DEP_04 ZON_02" /></g></svg>