<?xml version="1.0" encoding="UTF-8" standalone="no"?>
<!-- Generator: Adobe Illustrator 16.0.0, SVG Export Plug-In . SVG Version: 6.00 Build 0)  -->

<svg
   xmlns:dc="http://purl.org/dc/elements/1.1/"
   xmlns:cc="http://creativecommons.org/ns#"
   xmlns:rdf="http://www.w3.org/1999/02/22-rdf-syntax-ns#"
   xmlns:svg="http://www.w3.org/2000/svg"
   xmlns="http://www.w3.org/2000/svg"
   xmlns:sodipodi="http://sodipodi.sourceforge.net/DTD/sodipodi-0.dtd"
   xmlns:inkscape="http://www.inkscape.org/namespaces/inkscape"
   version="1.1"
   id="SvgMunicipio"
   x="0px"
   y="0px"
   width="1000.054px"
   height="931.586px"
   viewBox="64.569 117.641 1000.054 931.586"
   enable-background="new 64.569 117.641 1000.054 931.586"
   xml:space="preserve"
   inkscape:version="0.91 r13725"
   sodipodi:docname="MUN_ID0422.svg"><metadata
     id="metadata10"><rdf:RDF><cc:Work
         rdf:about=""><dc:format>image/svg+xml</dc:format><dc:type
           rdf:resource="http://purl.org/dc/dcmitype/StillImage" /></cc:Work></rdf:RDF></metadata><defs
     id="defs8" /><sodipodi:namedview
     pagecolor="#ffffff"
     bordercolor="#666666"
     borderopacity="1"
     objecttolerance="10"
     gridtolerance="10"
     guidetolerance="10"
     inkscape:pageopacity="0"
     inkscape:pageshadow="2"
     inkscape:window-width="682"
     inkscape:window-height="480"
     id="namedview6"
     showgrid="false"
     inkscape:zoom="0.25333142"
     inkscape:cx="500.02701"
     inkscape:cy="465.793"
     inkscape:window-x="0"
     inkscape:window-y="0"
     inkscape:window-maximized="0"
     inkscape:current-layer="svg" /><g
     id="g3"><path
       id="MUN_0422"
       d="m 552.171,138.525 14.672,2.379 0.132,0 8.724,-2.908 0,0 8.327,0.396 0,0 13.218,-0.793 0,0 11.235,-3.305 0,0 14.672,-5.287 0,0 6.74,-1.718 0,0 10.839,2.247 0,0 5.022,1.058 0.133,0 10.045,-2.379 0,0 6.345,0 0,0 12.953,6.08 0,0 6.609,3.569 0,0 11.632,-0.529 0,0 3.833,-0.661 0,-0.132 12.425,0.396 0,0 9.12,2.247 0,0 11.367,-0.793 0,0 9.648,-1.982 0.133,0 9.384,2.247 0.133,0 6.608,3.701 0,0.132 13.218,-0.925 0,0 8.063,0.396 0,0 3.304,0 0,0 29.608,9.252 0,0 10.441,2.908 0,0 8.856,-1.057 0,0 5.419,0.528 0,0.132 5.022,5.155 0.133,0 6.608,1.454 0,0 14.011,-0.264 0,0 11.632,0 0,0 11.896,3.569 0,0 6.213,2.247 0,0 9.648,8.195 0.133,0 4.494,10.838 0,0.132 -4.362,9.913 0,0 -6.345,10.045 0,0 -1.718,4.626 0,0.132 3.04,6.08 0.132,0 8.46,6.212 0,0 8.327,11.367 -0.133,0.264 -0.132,-0.132 -0.529,-0.529 -0.264,0 0,0.132 5.022,9.649 0,0.132 -2.379,8.063 0,0.132 -1.189,8.856 0,0 -10.574,12.028 0,0 -7.271,8.591 0,0 -4.361,9.914 0,0 -0.529,10.31 0,0 5.155,9.914 0.132,0.132 6.874,2.511 0,0.132 12.425,7.798 0,0 7.666,5.022 0.132,0 3.437,9.914 0,0.132 -6.08,10.574 0,0 -9.252,6.741 -0.133,0 -4.361,4.891 0,0.132 -1.982,5.815 0,0 0.793,3.965 0.132,0.132 4.891,2.115 0,0 12.821,-2.379 0,0 16.39,-0.529 0,0 10.442,-1.586 0,0 5.815,-6.345 0.132,-0.132 7.799,-3.172 0.133,0 3.965,0.925 0.132,0 3.437,6.477 0,0 3.438,7.534 0.132,0 5.419,7.402 0.133,0 9.78,2.908 0,0 5.552,0.925 0,0 5.552,2.908 0,0 6.08,1.851 0.132,0 -0.661,8.063 0,0 -1.057,9.384 0,0.133 -1.454,4.361 0.132,0.132 3.04,0.133 0,0 3.437,0 0.133,0 3.437,-2.38 0,0 3.305,-4.758 0,0 5.684,-3.833 0,0 5.287,-1.189 0,0 6.477,-0.265 0,0 4.626,1.321 0,0 5.948,-0.528 0,0 4.361,-1.586 0,0 3.437,1.058 0.133,0.132 2.114,2.775 0,0.133 -3.965,6.477 0,0.132 -0.396,2.247 -0.529,3.833 0,0 1.851,6.741 0,0 4.362,6.213 0,0 3.833,13.217 0,0 0,13.747 0,0 0.132,15.729 0,0 -1.454,11.632 0,0.133 -7.005,4.493 0,0 -10.574,6.609 0,0 -8.063,4.361 -0.133,0 -1.982,1.587 0,0.132 -1.719,5.815 0,0 0.133,6.08 0,0.133 6.477,5.948 0,0 7.799,4.097 0,0 3.965,4.891 0,0 0.132,0.529 0,0 1.322,4.494 0,0.132 -0.529,6.212 0,0.133 -3.7,4.758 0,0.133 -8.327,5.419 0,0 -4.362,2.644 -0.132,0 -1.719,4.891 0,0.132 0.529,4.759 0,0.132 8.459,8.327 0.132,0 3.569,4.098 0,0 -0.396,6.741 -0.133,0 -3.437,6.477 0,0 -6.345,1.982 0,0 -7.666,0.396 -0.132,0 -3.701,1.058 0,0.132 -2.115,4.759 0,0.132 0.396,3.437 0.133,1.851 0,0.133 5.154,5.947 0,0 10.046,4.362 0,0.132 6.345,9.12 0,0 5.684,14.144 0,0 8.459,10.31 0,0 2.115,5.419 0,0 2.908,12.161 0,0 1.453,11.764 0,0 -2.907,10.574 0,0.132 -3.437,4.494 0,0 -5.155,3.04 0,0.132 -1.322,3.04 0,0.133 3.966,5.419 0,0 5.022,7.138 0,0 5.684,9.781 0,0.132 0.396,7.799 0,0 -0.396,8.855 0,0.133 -4.494,8.063 -0.132,0 -10.839,6.873 0,0 -6.477,3.833 -0.132,0.133 -3.437,0.396 -0.133,0.132 -0.793,4.494 0,0 1.454,10.706 0,0 -0.793,7.27 0,0 -2.908,5.816 0,0 -7.137,2.247 0,0.132 -7.932,0.265 0,0 -5.154,0 -0.133,0 -1.189,0.132 -0.132,0.132 0.132,3.834 0,0 2.247,10.31 0,0 1.719,6.08 0,0.132 0,4.494 0,0.133 -1.454,4.229 0,0 -2.247,3.04 0,0 -1.189,2.247 -1.322,2.511 0,0 -1.189,3.966 -0.132,0.132 0.396,3.437 0,0.133 3.833,2.907 0,0.133 5.815,3.172 0,0 3.173,1.322 0,0.132 3.172,4.361 0,0 -0.396,9.914 0,0 0,3.833 0,0 -2.907,18.372 0,0 -3.966,19.827 0,0 -7.401,24.056 0,0 -2.115,7.799 0,0 0.925,7.534 0,0 4.098,6.477 0,0 3.173,4.362 0,0.132 7.401,5.155 0,0 5.287,3.568 0,0 7.402,8.856 0,0 6.477,4.493 0,0 9.781,-0.264 -0.661,2.247 -1.189,1.982 -1.719,2.644 -2.644,3.833 -3.172,3.437 -2.776,5.287 -2.511,3.701 -2.247,4.759 -0.396,5.022 -0.529,5.551 -0.396,3.966 -1.453,3.437 -2.776,4.229 -2.775,3.437 -6.609,3.833 -4.89,1.19 -3.438,1.189 -3.04,2.114 -2.379,1.983 -5.419,0.132 -4.627,1.058 -0.66,0.925 -1.982,2.38 -4.23,4.626 -4.229,6.741 -2.247,1.321 -1.321,0.396 -2.908,-0.528 -1.718,-0.793 -3.173,-1.454 -3.965,-1.058 -3.966,0.132 -3.701,1.189 -4.626,1.851 -3.04,0 -1.058,-0.925 -1.851,-1.454 -1.586,-3.701 -1.982,-1.982 -2.115,-1.851 -2.775,0.265 -3.305,1.058 -4.098,2.775 -4.229,3.965 -6.08,4.098 -2.908,1.719 -2.114,0.132 -1.586,-0.925 -3.173,-2.247 -3.965,-2.908 -2.776,-1.454 -2.379,-0.66 -1.851,0.396 -1.851,1.453 -4.361,3.569 -2.115,-3.437 -3.437,-2.644 -4.229,-1.189 -8.724,-1.851 -4.759,-1.322 -4.891,0 -3.7,-1.454 -2.644,-1.718 -3.834,-2.115 0,-3.04 -2.379,-3.568 -0.925,-4.098 -0.529,-7.534 -1.586,-2.908 -4.361,-5.551 -3.437,-7.799 -3.701,-8.459 -1.719,-7.402 -2.379,-4.098 -1.322,-5.948 -1.718,-3.172 -5.552,-7.138 -6.608,-6.608 -4.098,-1.189 -8.592,-4.494 -5.948,-2.115 -4.229,-4.098 -5.684,-1.851 -9.252,-1.586 -4.627,-2.114 -6.212,-0.265 -7.138,-2.908 -2.908,-3.965 -4.89,-1.586 -5.552,-3.438 -4.626,-5.419 -4.891,-6.212 -3.834,-4.098 -2.775,-11.367 -2.247,-17.844 -3.701,-6.213 0,-0.132 -2.114,-5.552 0.925,-9.648 -3.7,-8.46 -0.397,-6.212 -1.586,-8.063 -2.114,-7.533 -3.04,-5.023 -5.023,-5.287 -2.114,-7.798 1.851,-5.287 -0.926,-5.552 -3.437,-3.305 -2.115,-8.063 -1.321,-19.694 -122.141,-199.984 -1.189,-1.851 -145.263,99.001 -0.529,0.396 1.454,2.644 0.265,4.361 1.586,2.908 1.982,2.908 2.379,2.247 2.908,3.304 3.569,3.966 3.437,5.419 1.454,3.701 3.04,6.477 3.7,6.477 2.38,3.173 2.379,2.379 2.512,2.775 0.925,4.098 1.586,3.437 2.512,0.265 3.568,1.586 2.908,2.247 1.851,4.626 1.189,4.759 -0.396,3.172 -0.265,1.719 0.793,3.568 0.661,5.023 -0.661,2.907 -1.718,3.701 -3.701,2.115 -3.172,1.321 -3.305,-0.793 -6.873,-1.454 -3.305,0.265 -0.528,1.982 0.925,5.287 1.586,1.982 3.701,2.776 0.265,2.907 -1.982,2.776 -3.173,3.568 -1.058,2.644 -2.114,4.626 -1.454,4.494 0,5.023 1.321,2.247 1.851,3.172 0,2.644 -1.058,1.982 -1.85,2.379 -0.661,2.115 -0.133,5.287 -0.264,9.253 0.132,2.907 0.528,2.379 1.719,1.983 1.454,2.114 1.586,3.833 1.189,5.287 -0.661,5.42 -1.586,9.12 -0.528,3.833 -0.396,3.966 0,0.132 0,0 -11.367,1.586 -18.373,2.644 -5.154,-0.528 -3.701,-1.983 -4.494,-2.247 -8.063,-0.528 -4.627,0.926 -3.172,-1.719 -4.626,-4.759 -1.322,-1.718 -2.511,-3.305 -4.098,-2.908 -3.437,-0.793 -6.345,-4.758 -6.345,-2.644 -5.419,0.793 -8.46,2.379 -6.344,1.189 -7.006,-0.925 -4.759,-1.058 -3.304,-2.644 -5.552,-2.775 -5.155,-2.115 -3.833,-2.247 -11.499,-7.138 -5.42,-3.7 L 232.3,780.639 64.569,664.062 351.13,509.679 515.03,421.517 493.352,270.57 471.41,117.641 l 9.913,1.586 0,0 19.034,0.661 0,0 12.292,2.908 0,0 11.764,2.775 0,0 12.028,7.799 0,0 15.73,5.155 0,0 z"
       inkscape:connector-curvature="0"
       class="DEP_04 ZON_02" /></g></svg>