<?xml version="1.0" encoding="UTF-8" standalone="no"?>
<!-- Generator: Adobe Illustrator 16.0.0, SVG Export Plug-In . SVG Version: 6.00 Build 0)  -->

<svg
   xmlns:dc="http://purl.org/dc/elements/1.1/"
   xmlns:cc="http://creativecommons.org/ns#"
   xmlns:rdf="http://www.w3.org/1999/02/22-rdf-syntax-ns#"
   xmlns:svg="http://www.w3.org/2000/svg"
   xmlns="http://www.w3.org/2000/svg"
   xmlns:sodipodi="http://sodipodi.sourceforge.net/DTD/sodipodi-0.dtd"
   xmlns:inkscape="http://www.inkscape.org/namespaces/inkscape"
   version="1.1"
   id="SvgMunicipio"
   x="0px"
   y="0px"
   width="890.66px"
   height="999.978px"
   viewBox="64.733 117.781 890.66 999.978"
   enable-background="new 64.733 117.781 890.66 999.978"
   xml:space="preserve"
   inkscape:version="0.91 r13725"
   sodipodi:docname="MUN_ID0414.svg"><metadata
     id="metadata10"><rdf:RDF><cc:Work
         rdf:about=""><dc:format>image/svg+xml</dc:format><dc:type
           rdf:resource="http://purl.org/dc/dcmitype/StillImage" /></cc:Work></rdf:RDF></metadata><defs
     id="defs8" /><sodipodi:namedview
     pagecolor="#ffffff"
     bordercolor="#666666"
     borderopacity="1"
     objecttolerance="10"
     gridtolerance="10"
     guidetolerance="10"
     inkscape:pageopacity="0"
     inkscape:pageshadow="2"
     inkscape:window-width="682"
     inkscape:window-height="480"
     id="namedview6"
     showgrid="false"
     inkscape:zoom="0.23600519"
     inkscape:cx="445.32999"
     inkscape:cy="499.98901"
     inkscape:window-x="0"
     inkscape:window-y="0"
     inkscape:window-maximized="0"
     inkscape:current-layer="svg" /><g
     id="g3"><path
       id="MUN_0414"
       d="m 724.264,551.555 0.749,0.374 1.749,0 3.248,-0.125 1.75,0 1.249,0.375 1.124,1 0.375,1.499 1,1.124 0.374,1 1.499,0.375 1.375,0.374 1.249,1.375 1.749,1.249 1.624,1.874 1.25,2.749 2.124,1.624 2.248,0.25 0.75,0.749 0.5,2.249 -0.25,2.748 -0.625,2.249 -0.5,1.999 0.125,1.125 1.874,2.623 1.375,1 1.874,1.374 1.374,1.499 0.999,2.624 0.75,0.25 0.999,0 1.999,1.249 1.999,0.125 2.874,-0.125 3.123,-0.375 1.999,0 2.124,1.624 1.624,1 0.375,0 3.373,-0.5 1.749,-0.25 1.874,0 1.749,0.125 3.373,2.374 1.749,0 3.623,-0.25 1.999,-0.125 1.5,-0.875 2.748,-0.749 1.624,2.498 1.874,3.873 3.998,3.873 2.374,1.5 0.499,1.124 0.125,3.623 1.25,6.497 0.999,3.623 2.374,3.248 2.249,2.249 3.873,2.623 4.622,0.375 3.498,-0.75 2.749,-0.624 3.748,0.874 1.499,1.874 1.999,4.373 1.874,4.872 1.499,2.999 0,7.496 1.999,1.874 0.5,0.499 4.123,2.374 2.498,2.749 3.249,3.248 3.373,4.747 4.372,4.248 4.373,1 12.618,0.999 4.748,1.749 1.624,1.749 1.499,2.624 1.999,3.498 2.249,1.374 4.248,1.25 3.123,1.874 1.999,2.123 3.373,3.249 1.499,4.372 2.749,2.124 4.747,1.624 6.622,2.749 7.496,2.873 5.872,3.499 4.622,1.624 5.372,-0.125 3.373,-1.624 3.249,-0.125 2.124,0.999 2.373,1.499 2.499,1.624 -1.124,0.75 -2.749,0.75 -2.124,0.374 -2.499,1.125 -7.496,0.25 -8.62,1.499 -6.247,2.374 -9.12,4.872 -9.745,1.499 -5.372,2.374 -6.246,7.121 -3.998,3.373 -7.496,4.498 -11.619,6.871 0,2.999 -3.373,2.748 -1.999,3.873 -2.749,4.248 -2.748,2.623 -4.498,3.249 -3.998,2.998 -1.749,1.249 0,2.374 -0.874,3.623 -1.499,2.874 -2.249,3.123 -3.248,4.997 -2.624,3.748 -1.124,4.498 -0.5,4.747 -0.875,6.497 -1.249,5.997 -1.124,5.497 -1.874,2.124 -3.623,2.248 -3.499,4.873 -5.497,6.371 -3.248,1.749 -1.749,3.124 -4.747,4.622 -2.749,5.123 -0.625,2.623 -0.624,1.999 -0.5,1.999 -2.624,5.497 -5.747,4.248 -0.499,2.374 -0.375,7.121 -1.124,5.872 3.248,4.872 -0.25,3.998 6.496,5.997 1.75,10.619 -0.25,9.87 -1.5,5.372 0.75,5.997 3.248,3.498 1.874,6.246 -0.874,6.747 -1.749,11.744 1.249,3.498 3.748,4.872 2.374,3.123 3.123,5.248 5.247,6.246 2.624,2.624 2.623,3.373 0.875,4.997 -1.249,4.248 -1.999,4.873 -3.373,5.372 -3.873,9.245 -2.374,6.996 1.249,8.87 0,5.997 0,6.372 -1.124,4.122 -1.25,4.623 -1.998,1.749 -3.124,5.122 -3.248,5.997 -6.247,8.121 -57.97,46.476 -73.087,-44.602 1.25,-0.875 1.874,-1.124 1.499,-3.124 2.623,-2.873 0.75,-4.373 0.625,-5.996 1.374,-4.123 3.748,-4.748 0.75,-3.623 1.374,-5.497 -0.25,0 4.373,-4.997 -2.499,-2.624 -3.873,-4.872 -3.248,-3.373 -4.248,-3.498 -1.874,-4.748 -0.999,-6.372 -3.124,-4.747 -6.246,-4.872 -3.124,-1.999 -4.372,-2.749 -6.747,-2.124 -9.12,-3.873 -11.869,-4.497 -3.623,0.375 -6.246,2.373 -52.973,32.233 -37.73,-31.233 -46.601,-44.977 -15.367,-50.099 -1.999,-3.249 -5.247,-4.497 -6.871,-5.622 -5.872,-5.622 -0.874,-4.748 1.124,-8.87 1.874,-7.871 -56.846,10.994 -4.122,0.625 -3.998,-0.375 -3.498,-0.749 -2.749,-1.749 -1.874,-1.625 -1.124,-2.373 -1.375,-2.749 -1.999,-0.874 -1.749,-1.5 -1.749,-1.999 -4.247,0.75 -2.874,0.5 -2.624,0.375 -1.249,-0.125 -2.124,-0.375 -0.749,-0.625 -1.375,-1.249 -1.124,-1.624 -0.25,-3.373 -1.624,-0.25 -3.373,0.874 -2.499,1.999 -2.374,0.75 -2.123,0 -2.499,-0.375 -2.624,-0.5 -2.623,-1.749 -2.874,-1.874 -1.999,-0.749 -7.246,0.249 -2.998,-0.374 -3.748,-1.5 -4.123,-2.373 -2.498,-1.749 -0.75,-1.125 -1.749,-3.123 -2.124,-2.124 -2.374,-4.622 -1.749,-2.999 -1.499,-3.873 -1.499,-3.998 -1.249,-3.748 -0.625,-3.873 -0.5,-3.997 0,-3.873 -0.375,-2.749 -1.499,-2.748 -0.874,-3.998 -0.5,-1.874 -1.125,-2.624 -1.499,-2.998 -5.122,-3.374 1.374,-0.874 0.5,-1.499 0,-1.624 0,-0.5 0.375,-2.374 0,-2.998 0.375,-2.124 -0.125,-1.999 -0.25,-1.874 1.374,-2.374 1.124,-1.499 3.249,-3.498 1.124,-1.874 1.125,-2.499 1.499,-1.374 0.749,-2.624 -32.232,-9.37 -0.875,-3.123 0.625,-4.373 0,-3.123 -0.5,-1.249 -1,-2.124 -2.373,-2.624 -1.999,-3.623 -0.75,-0.999 -0.125,-2.624 -0.624,-1.624 -1.5,-1.749 -2.623,-0.375 -2.499,-0.749 -0.375,-1.25 -2.748,-1.124 -1,0.375 -3.373,0.374 -2.498,-0.249 -2.249,-0.25 -2.249,-0.625 -2.749,-1.749 -3.248,-1.249 -2.748,-1.125 -3.748,-0.624 -2.624,-1 -1.874,-1.499 -4.123,-2.124 -1.499,-2.748 -2.873,-5.123 -2.249,-3.623 -2.999,-0.999 -3.998,-2.249 -1.874,-1.874 -1.374,-3.623 -0.749,-3.623 -0.5,-1.374 -2.249,-1.625 -2.124,-2.623 -1.374,-2.999 -1.249,-1.749 -4.373,-1.624 -2.998,-2.124 -1.125,-2.748 -0.999,-2.874 -0.25,-3.998 -0.875,-2.498 -1.249,-2.749 0.5,-3.623 0.749,-2.873 -110.444,20.367 116.689,-267.485 0,-0.125 -37.355,-80.458 122.436,-189.901 43.353,58.844 94.201,48.85 20.739,63.592 87.579,37.98 10.494,4.498 90.078,39.105 15.617,27.86 55.221,70.089 0.875,1.124 9.37,2.999 21.738,6.871 0.75,2.499 0.374,1.374 0.375,1.499 -0.25,1.624 -0.374,1.25 -0.625,1.999 -0.875,1.874 -0.874,1.624 -0.5,1.124 -0.25,1.624 -0.25,3.373 -0.624,2.749 -0.875,1.624 -0.625,2.374 -0.249,2.374 0.999,2.123 0.25,2.874 0.5,4.373 0.499,2.498 0.5,2.374 1,1.874 1.374,1.999 1.749,1.999 1.499,1.624 1,2.998 0.499,3.249 -0.249,3.498 0.999,4.497 0.375,1.874 1.499,2.999 0.875,2.124 z"
       inkscape:connector-curvature="0"
       class="DEP_04 ZON_02" /></g></svg>