<?xml version="1.0" encoding="UTF-8" standalone="no"?>
<!-- Generator: Adobe Illustrator 16.0.0, SVG Export Plug-In . SVG Version: 6.00 Build 0)  -->

<svg
   xmlns:dc="http://purl.org/dc/elements/1.1/"
   xmlns:cc="http://creativecommons.org/ns#"
   xmlns:rdf="http://www.w3.org/1999/02/22-rdf-syntax-ns#"
   xmlns:svg="http://www.w3.org/2000/svg"
   xmlns="http://www.w3.org/2000/svg"
   xmlns:sodipodi="http://sodipodi.sourceforge.net/DTD/sodipodi-0.dtd"
   xmlns:inkscape="http://www.inkscape.org/namespaces/inkscape"
   version="1.1"
   id="SvgMunicipio"
   x="0px"
   y="0px"
   width="999.985px"
   height="800.502px"
   viewBox="64.378 117.774 999.985 800.502"
   enable-background="new 64.378 117.774 999.985 800.502"
   xml:space="preserve"
   inkscape:version="0.91 r13725"
   sodipodi:docname="MUN_ID0416.svg"><metadata
     id="metadata10"><rdf:RDF><cc:Work
         rdf:about=""><dc:format>image/svg+xml</dc:format><dc:type
           rdf:resource="http://purl.org/dc/dcmitype/StillImage" /></cc:Work></rdf:RDF></metadata><defs
     id="defs8" /><sodipodi:namedview
     pagecolor="#ffffff"
     bordercolor="#666666"
     borderopacity="1"
     objecttolerance="10"
     gridtolerance="10"
     guidetolerance="10"
     inkscape:pageopacity="0"
     inkscape:pageshadow="2"
     inkscape:window-width="682"
     inkscape:window-height="480"
     id="namedview6"
     showgrid="false"
     inkscape:zoom="0.294815"
     inkscape:cx="499.99249"
     inkscape:cy="400.25101"
     inkscape:window-x="0"
     inkscape:window-y="0"
     inkscape:window-maximized="0"
     inkscape:current-layer="svg" /><g
     id="g3"><path
       id="MUN_0416"
       d="m 568.782,140.262 0.931,5.212 0,0 0.298,2.494 0,0 0.819,3.723 0,0 0.781,0.931 0,0 1.117,1.08 1.75,1.638 0,0 5.733,4.244 0.037,0 6.999,2.941 0,0 7.298,3.127 0,0 3.648,2.309 2.048,18.355 -0.819,4.058 -12.063,57.671 7.968,6.366 56.776,45.31 16.121,27.067 18.467,51.229 8.042,22.302 51.267,38.013 0.633,46.911 0.187,12.51 11.132,43.672 12.621,44.863 45.608,-0.745 21.705,30.231 9.531,8.973 0,0 1.639,1.452 0,0 1.601,1.713 0,0 2.681,2.233 0,0 1.974,1.974 0,0 3.09,3.239 0,0 2.644,2.979 0,0 2.457,2.68 0,0 3.5,3.649 0,0 1.303,1.079 0,0 2.83,2.383 0.037,0 2.233,1.191 0,0 1.526,0.261 0,0.037 2.197,1.08 0,0 3.574,1.638 2.68,1.229 0,0 2.941,0.559 0,0 2.048,0.484 0,0 2.606,2.271 2.792,3.313 2.83,3.648 0.037,0 1.713,4.579 0,0 0,1.117 0,0 1.042,3.574 0,0.037 0.298,3.388 1.154,2.793 0,0 0.707,2.718 0,0 0.224,0.856 0,0 1.898,1.526 0,0 3.054,0.298 0,0 2.271,-1.117 0,0 1.676,-0.596 0.037,0 1.08,0.148 0.037,0 2.047,0.745 0.038,0 2.233,1.266 0,0 1.229,0.67 0,0 1.154,1.08 0,0 1.005,1.229 0,0 0.559,0.819 0,0 0.521,1.042 0,0 1.154,1.787 0,0.037 0.483,2.048 0,0 0.559,1.713 0.037,0 0.671,2.196 0,0 1.861,4.543 0,0 1.34,2.755 0,0 1.378,1.601 0.037,0 1.303,0.409 0,0 1.639,0.856 0,0 3.425,0.894 0,0 1.974,-0.298 0,0 1.861,-0.446 0,0 0.447,-0.149 0,0 1.936,-0.968 0,0 2.122,-1.005 0,0 6.553,-1.191 0.037,0.037 3.5,3.053 0.037,0.037 0.782,4.244 0,0.037 1.34,2.793 0,0 1.154,2.196 0,0 1.229,2.011 12.621,11.951 1.602,1.154 11.728,10.089 3.686,2.458 11.877,7.967 4.914,2.904 11.244,5.287 1.601,0.67 1.862,-0.261 4.69,-0.744 4.431,0.074 2.271,0.186 1.489,0.149 2.159,1.452 2.755,2.085 1.936,2.531 2.271,3.016 1.452,2.83 2.904,2.755 2.903,1.676 6.367,2.866 3.648,1.787 6.479,0.335 -3.687,1.563 -3.686,4.468 -4.059,1.974 -3.872,0.187 -2.643,1.414 -0.856,5.846 0.148,9.233 -3.313,6.218 -7.036,3.201 -13.925,2.495 -2.159,0.968 -7.707,3.462 -5.101,4.245 -4.17,14.52 -3.686,8.675 -11.803,3.574 -11.988,-0.372 -11.951,-2.085 -4.766,-2.011 -5.659,-2.42 -6.515,-3.537 -1.267,-5.175 0.894,-5.994 1.043,-4.989 2.048,-3.313 1.005,-5.808 -0.074,-5.063 -0.596,-3.202 -2.011,-4.021 -2.196,-2.979 -3.835,-3.239 -5.25,-2.644 -4.281,-1.75 -4.207,-1.638 -2.681,-0.521 -2.457,-0.968 -2.048,-1.676 -1.861,-1.936 -2.234,-1.452 -3.053,-0.335 -3.239,1.489 -3.239,2.792 -0.744,0.707 -2.122,2.122 -2.42,3.612 -2.085,2.605 -2.495,0.968 -1.898,0.298 -2.196,0 -3.574,0.224 -3.909,1.452 -2.16,1.266 -5.398,5.101 -4.803,3.984 -3.983,4.542 -5.398,8.451 -2.159,3.313 -3.239,3.128 -1.713,3.09 -1.229,5.361 -1.154,3.425 -4.095,1.341 -3.649,-1.08 -4.468,0.782 -4.84,1.787 -6.999,3.946 -6.553,3.611 -1.526,0.856 -5.771,3.127 -2.793,0.856 -4.281,-1.452 -4.096,-2.233 -4.542,-3.276 -4.431,-2.457 -2.792,-2.606 -1.378,-2.979 -1.936,-7.036 -0.559,-1.267 -1.452,-3.388 -2.42,-2.979 -7.148,0 -8.563,0.187 -6.367,-0.521 -4.17,-1.303 -1.936,-1.229 -0.261,-0.186 -3.202,-2.085 -7.26,-3.239 -4.468,-0.968 -6.925,-1.452 -7.186,0.707 -8.414,-0.521 -7.559,0.26 -5.919,0.708 -4.17,0.894 -1.974,1.079 -2.011,2.83 -0.855,5.547 -0.894,5.361 -0.819,2.085 -0.633,1.602 -2.122,2.568 -2.085,1.824 -6.441,2.011 -11.355,2.755 -3.164,1.713 -4.915,2.681 -4.505,2.196 -0.782,0.112 -2.605,0.261 -0.149,-0.075 -1.377,-0.559 -2.271,-0.409 -1.34,-2.309 0,-0.037 -5.437,-2.941 -3.946,-1.973 -4.355,-0.074 -3.313,0.894 -2.606,2.345 -1.043,2.793 -0.707,3.835 -0.521,3.573 -1.526,4.17 -1.079,2.606 -0.932,1.937 -1.266,1.377 -2.271,0.187 -2.644,-1.08 -0.037,-0.037 -2.42,-2.979 -2.719,-4.394 -1.451,-3.648 -0.856,-4.058 -0.224,-6.665 0.149,-4.988 -0.336,-2.904 -0.744,-1.787 -0.037,0 -2.941,-2.048 -3.463,-1.861 -3.574,-2.309 -2.979,-2.829 -2.903,-2.011 -2.681,-1.713 -2.83,-1.116 -2.271,-0.894 -1.862,0.298 -0.968,0.968 -1.452,1.787 -1.824,3.276 -1.452,2.606 -1.042,2.792 -1.415,2.568 -1.079,2.346 -1.974,2.234 -3.09,1.377 -3.463,0.596 -2.681,-0.186 -2.494,-1.452 -4.505,-1.75 -3.946,-1.229 -4.878,-0.187 -3.946,0.521 -4.505,1.191 -4.356,1.415 -4.69,0.968 -0.931,0.148 -4.244,0.894 -3.463,0.298 -3.165,-0.744 -0.037,-0.037 -1.75,-2.011 -1.303,-2.494 -0.074,-2.048 0.744,-3.09 0.708,-3.091 -0.41,-3.76 -0.819,-3.239 -1.005,-2.755 -2.346,-4.133 -1.191,-3.611 -1.191,-3.165 -0.856,-2.829 -1.042,-4.096 -0.409,-4.468 1.042,-4.803 1.378,-4.729 0.559,-3.276 0.26,-2.903 -0.781,-3.091 -1.824,-2.122 0,0 -1.304,-0.372 -4.281,-1.154 -6.218,-0.744 -7.409,0.596 -11.728,0.26 -4.468,0.149 -5.51,-0.149 -6.292,0.112 -4.133,1.005 -6.738,3.313 -5.585,2.271 -4.319,1.936 -3.611,2.495 -4.43,2.979 -4.691,4.579 -3.724,3.76 -4.318,5.213 -2.904,4.729 -2.346,5.063 -1.638,4.69 -2.011,3.761 -4.69,3.574 -4.096,1.489 -3.872,1.079 -3.724,0.038 -5.808,1.079 -4.021,0.894 -3.165,0.894 -3.463,1.266 -3.723,1.452 -3.053,1.304 -1.824,0.633 -4.319,-0.447 -3.76,-0.894 -0.037,0 -1.564,-0.372 -6.627,-3.09 -1.079,-0.447 -6.702,-2.718 -6.738,-1.638 -4.394,-0.819 -2.904,0.037 -2.159,0.372 -2.271,1.154 -3.499,3.761 -4.952,5.51 -4.766,4.654 -3.574,4.43 -4.281,5.846 -2.383,5.696 -1.303,6.851 -0.037,0.074 -1.006,3.761 -1.638,4.207 -2.085,4.579 -1.824,4.952 -1.378,4.17 -1.414,4.877 -0.484,3.835 0,2.531 -0.335,3.053 -0.149,0.447 0,0 -1.787,5.51 -1.042,4.989 -1.489,3.016 -1.489,1.974 -2.904,0.521 -2.085,-1.153 0,0 -4.616,-2.719 -0.037,0 -2.83,-2.903 -3.909,-7.409 -3.202,-3.5 0,0 -3.164,-1.601 -3.983,-0.111 -0.373,0.148 -3.351,1.08 -7.074,3.76 -8.116,5.659 -8.302,2.979 -2.606,0.819 -2.42,0.968 -1.75,-0.037 -1.452,-0.261 -1.676,-0.67 -1.042,-0.633 -1.229,-0.745 -1.191,-0.818 -5.287,-3.91 -5.92,-3.462 -2.531,-0.745 -4.654,-0.111 -4.988,0.856 -6.069,0.744 -7.073,0.633 -4.654,-0.037 -4.468,-0.261 -4.616,0.038 -2.644,0.931 -2.457,1.005 -1.824,1.378 -1.676,2.196 -1.191,0.968 -1.08,1.602 -2.047,0.148 -0.484,0.074 -2.048,0.224 -2.866,0.931 -4.059,0.782 -5.51,-0.67 -4.468,-1.526 -3.909,-2.309 -2.197,-2.979 -1.787,-3.389 -1.191,-3.275 -0.931,-1.974 -2.866,-3.128 -2.644,-2.271 -3.053,-3.016 -3.276,-2.159 -3.649,-1.452 -4.132,-1.08 -4.766,0 -5.026,1.043 -2.644,1.601 -3.946,2.644 -3.835,0.148 -2.755,-0.446 -2.83,-1.08 -2.755,-2.233 -2.383,-4.207 -1.042,-3.202 -0.335,-4.505 0.26,-3.09 0.708,-3.5 1.042,-2.532 0.484,-2.643 0.446,-2.271 0.335,-2.42 0,-5.063 0.261,-3.537 -0.446,-5.92 -0.447,-3.723 -0.744,-4.021 -0.633,-2.531 -0.745,-2.346 -1.303,-2.122 -1.75,-1.452 -1.34,-2.011 -2.123,-2.122 -1.638,-2.457 -1.563,-1.861 -1.341,-2.011 -0.186,-1.75 0.707,-2.605 1.526,-3.984 1.75,-3.09 2.271,-3.761 1.973,-1.489 2.42,-1.005 1.267,-1.34 1.303,-1.862 0.968,-3.276 0.335,-2.196 -0.261,-2.829 -1.266,-3.724 -1.266,-4.207 -0.931,-2.196 -0.782,-2.644 -0.819,-2.532 -0.558,-2.903 -0.521,-2.42 -0.521,-3.872 -0.446,-5.548 1.787,-4.207 1.675,-3.425 2.234,-5.026 4.132,-3.909 3.835,-2.569 3.798,-3.239 2.606,-3.053 2.42,-3.276 2.755,-7.483 1.75,-4.803 2.383,-3.909 1.266,-2.011 1.378,-0.744 2.681,0.372 5.101,-0.372 2.271,-0.261 2.718,-0.261 5.696,-1.154 3.909,-1.898 2.16,-2.011 0.968,-1.601 1.601,-3.426 0.559,-2.792 0.037,-1.563 -0.744,-2.122 -2.42,-2.755 -3.165,-1.974 -3.313,-2.346 -1.452,-2.568 -0.186,-1.75 0.409,-1.267 0.819,-1.191 2.01,-1.303 2.941,-0.484 3.053,-0.818 3.611,-1.861 4.282,-4.356 2.308,-2.532 1.787,-1.303 2.011,-0.483 2.122,0.483 4.468,0.856 4.096,0.521 3.5,0.335 3.499,-0.708 5.026,-2.047 2.532,-3.054 1.526,-3.425 0.931,-3.648 0.037,-0.187 -1.117,-5.585 -2.755,-7.297 -1.303,-4.691 -1.191,-4.914 -1.452,-4.989 -1.341,-4.431 -0.707,-2.755 -0.596,-2.271 -0.484,-3.537 -0.483,-3.351 -0.521,-3.389 -1.266,-4.579 -1.974,-5.659 -1.638,-2.718 -3.687,-5.771 -3.686,-5.25 -1.974,-3.5 -2.681,-4.43 -2.531,-4.319 -3.276,-3.537 -2.271,-3.09 -2.01,-3.537 -0.521,-4.095 0.111,-3.835 1.787,-3.5 2.346,-4.729 4.431,-4.951 1.266,2.531 1.154,1.713 0.968,0.596 0.447,1.042 0.111,1.341 0.335,0.819 0.894,0.483 1.378,0.261 1.601,0.149 1.899,-0.224 1.526,-0.894 1.154,-1.266 0.894,-1.006 1.377,-0.521 1.005,0.298 1.452,0.224 1.304,-0.483 0.856,-0.559 0.037,-0.037 1.266,0.111 1.154,0.111 1.787,-0.558 0.931,-0.038 1.191,0.224 1.34,0.596 1.489,0.707 1.08,0.521 0.819,0 0.744,-0.446 0.559,-1.191 1.75,-1.937 0.335,-1.116 0.224,-0.969 0.298,-0.596 0.968,-0.559 1.266,-0.558 0.633,-0.671 0.335,-0.931 0.41,-1.005 0.483,-0.708 0.856,-0.818 2.569,-2.122 1.377,-1.489 0.932,-0.671 1.377,-0.409 1.378,-0.894 1.154,-1.34 0.856,-0.819 1.973,0.744 2.011,0.484 1.898,-0.074 2.048,-0.671 1.341,-0.558 1.414,-0.484 1.676,-0.111 1.34,-0.224 0.894,-0.782 0.224,-0.409 1.08,-0.409 0.781,-0.149 0.782,-1.676 0.484,-0.968 0,-1.266 0.074,-1.043 0.335,-1.116 0.67,-0.819 1.378,-1.34 2.01,-1.304 2.83,-1.154 1.861,-1.116 1.787,-1.267 1.563,-0.707 2.569,-1.713 1.042,-0.931 1.489,-1.898 1.304,-2.011 0.037,-0.037 0,0 1.75,-2.457 1.116,-1.452 3.017,-3.983 1.303,-1.341 0.111,-0.148 1.639,-1.267 1.861,-1.787 1.005,-0.67 2.085,-1.378 2.011,-1.861 1.563,-1.079 0.931,-0.745 0.596,-0.744 1.676,-1.043 1.489,-0.894 1.489,-1.005 1.415,-0.559 1.229,-0.111 2.048,-0.447 1.377,-0.335 3.724,-2.309 1.712,-1.526 2.941,-2.681 1.75,-1.489 0.819,-1.712 0.633,-1.825 0.372,-3.127 0.298,-1.824 0.037,-0.149 0.596,-1.936 0.819,-1.639 1.191,-1.414 5.101,-16.605 11.169,-36.523 36.523,-3.388 0,0 31.646,-3.276 0,0 47.805,-9.233 21.929,-4.244 7.781,-1.527 9.159,-1.787 1.563,-0.298 0,0 7.372,-6.217 0.111,-0.075 0,0 8.414,-6.739 0,0 8.526,-7.483 0,-0.037 0.521,-25.95 0,-0.037 3.537,-6.739 0,0 8.601,-16.754 0,-0.037 -0.261,-0.373 0.074,-0.372 0,0 0.149,-0.298 0.111,-0.149 0.037,-0.186 0.075,-0.633 0.074,-0.223 0.298,-0.745 0.037,-0.261 0,-0.335 0,-0.596 0,0 -0.074,-0.261 -0.187,-0.223 -0.224,-0.187 -0.335,-0.111 -0.335,-0.112 -0.335,-0.186 -0.074,-0.075 -0.075,-0.074 -0.148,-0.186 -0.111,-0.261 -0.075,-0.261 -0.074,-0.261 -0.148,-0.261 -0.187,-0.186 -0.187,-0.186 -0.26,-0.223 -0.075,-0.112 -0.261,-0.298 -0.26,-0.261 -0.187,-0.223 -0.261,-0.187 -0.224,-0.149 -0.186,-0.037 -0.224,-0.074 -0.149,-0.038 -0.335,-0.149 -0.148,-0.074 -0.187,-0.112 -0.148,-0.112 -0.149,-0.223 -0.148,-0.186 -0.149,-0.149 -0.148,-0.261 -0.112,-0.261 -0.111,-0.112 -0.111,-0.074 0,-0.037 -0.149,-0.075 -0.074,-0.037 -0.224,0 -0.224,0 -0.074,0 -0.037,0 -0.187,-0.037 -0.148,-0.038 -0.149,-0.074 -0.111,-0.112 -0.149,-0.074 -0.148,-0.112 -0.187,-0.186 -0.148,-0.038 -0.111,-0.074 -0.224,-0.112 -0.037,0 -0.112,-0.037 0,0 -0.111,-0.075 0,0 -0.261,-0.223 -0.261,-0.224 -0.148,-0.149 -0.224,-0.111 -0.149,-0.112 -0.148,-0.149 -0.187,-0.149 -0.111,-0.112 -0.074,-0.111 -0.112,-0.112 -0.074,-0.186 -0.074,-0.075 -0.112,-0.075 -0.111,-0.037 -0.111,-0.037 -0.41,-0.261 -0.186,-0.149 -0.224,-0.223 -0.224,-0.187 -0.148,-0.111 -0.187,-0.112 -0.298,-0.186 -0.111,-0.037 -0.112,-0.038 -0.148,0 -0.074,-0.037 -0.112,-0.037 0,0 -0.122,0 -0.112,-0.075 -0.111,-0.037 -0.074,-0.037 -0.149,-0.075 -0.074,-0.037 -0.111,-0.075 -0.075,0 -0.074,-0.037 -0.111,0 -0.149,0 -0.148,0 -0.224,-0.856 -2.606,-9.419 0,0 -3.462,-9.941 0,0 -0.633,-1.712 0,0 1.154,-5.473 0,-0.037 0.707,-7.223 0,0 1.266,-7.334 0,-0.038 1.415,-1.042 0,0 3.835,-2.979 0,0 8.153,-6.031 0,0 6.403,-4.654 0.037,-0.037 -0.446,-5.995 0,0 -0.037,-1.712 0,0 -0.074,-4.766 0,0 -3.984,-7.558 0,0 -6.44,-11.765 0,0 -1.489,-2.755 0,0 -0.372,-9.271 -0.224,-6.739 0,0 -2.569,-8.489 0,0 -1.638,-5.957 0,0 -2.085,-6.813 -0.037,0 -1.08,0.261 -0.894,-0.112 -0.521,-0.335 -0.483,-0.521 -0.187,-0.484 -0.187,-0.707 -0.037,-0.335 -0.186,-0.521 -0.335,-0.186 -0.596,-0.149 -1.043,-0.298 -0.707,-0.224 -0.596,-0.298 -1.117,-0.596 -0.707,-0.67 -0.559,-0.968 -0.708,-1.191 -0.298,-1.042 -0.037,-1.117 0.298,-1.712 0.708,-3.127 1.303,0.372 1.005,0.484 2.048,0.633 1.415,0 1.415,-0.186 1.266,-1.675 0.633,-1.861 0.187,-2.085 0,-2.867 0.148,-2.122 0.111,-1.526 0.261,-1.601 0.521,-1.005 0.67,-0.931 0.819,-0.67 1.043,-0.596 1.377,-0.41 1.006,0.038 0.818,0.074 0.261,0.037 0.819,0.298 1.415,0.819 1.005,0.633 0.744,0.856 1.304,2.532 0.707,1.898 0.856,2.16 1.303,2.234 0.932,1.34 1.079,0.856 1.489,0.447 2.196,-0.447 1.75,-0.931 1.341,-0.819 1.229,-0.596 2.196,-0.894 2.42,-0.559 1.229,-0.559 1.75,-0.596 1.415,-1.303 1.526,-1.75 1.341,-1.862 1.34,-1.377 1.005,-1.08 1.043,-1.34 0.931,-1.005 1.117,-1.005 0.968,-0.633 1.154,-0.67 1.303,-0.559 1.452,-0.521 1.378,-0.224 1.973,-0.484 1.526,-0.447 1.229,-0.484 1.08,-0.67 0.894,-0.67 0.968,-0.633 1.154,-0.223 1.191,-0.373 1.415,-0.744 1.489,-1.229 1.526,-1.824 1.75,-2.197 1.638,-1.75 0.969,-1.117 1.414,-1.117 1.08,-0.968 1.005,-1.266 0.968,-0.596 1.229,-0.261 1.34,-0.112 1.191,0 1.08,0.075 1.861,0.298 1.824,0.298 1.563,0.596 0.968,0.41 0.856,0.447 0.931,0.521 0.634,0.745 0.483,0.819 0.819,1.341 0.559,1.08 0.559,1.08 0.67,1.191 0.707,0.931 0.856,0.782 1.229,0.968 1.08,0.521 1.229,0.596 1.042,0.484 1.117,0.373 1.415,0.484 1.154,0.112 1.452,-0.149 0.894,0.335 0.558,0.782 0.41,0.894 0.186,0.931 0,1.452 -0.037,1.08 0.187,1.042 0.446,0.633 0.969,0.67 0.894,0.335 1.116,0.335 0.108,0 z"
       inkscape:connector-curvature="0"
       class="DEP_04 ZON_02" /></g></svg>