<?xml version="1.0" encoding="UTF-8" standalone="no"?>
<!-- Generator: Adobe Illustrator 16.0.0, SVG Export Plug-In . SVG Version: 6.00 Build 0)  -->

<svg
   xmlns:dc="http://purl.org/dc/elements/1.1/"
   xmlns:cc="http://creativecommons.org/ns#"
   xmlns:rdf="http://www.w3.org/1999/02/22-rdf-syntax-ns#"
   xmlns:svg="http://www.w3.org/2000/svg"
   xmlns="http://www.w3.org/2000/svg"
   xmlns:sodipodi="http://sodipodi.sourceforge.net/DTD/sodipodi-0.dtd"
   xmlns:inkscape="http://www.inkscape.org/namespaces/inkscape"
   version="1.1"
   id="SvgMunicipio"
   x="0px"
   y="0px"
   width="735.675px"
   height="999.921px"
   viewBox="64.722 117.824 735.675 999.921"
   enable-background="new 64.722 117.824 735.675 999.921"
   xml:space="preserve"
   inkscape:version="0.91 r13725"
   sodipodi:docname="MUN_ID0411.svg"><metadata
     id="metadata10"><rdf:RDF><cc:Work
         rdf:about=""><dc:format>image/svg+xml</dc:format><dc:type
           rdf:resource="http://purl.org/dc/dcmitype/StillImage" /></cc:Work></rdf:RDF></metadata><defs
     id="defs8" /><sodipodi:namedview
     pagecolor="#ffffff"
     bordercolor="#666666"
     borderopacity="1"
     objecttolerance="10"
     gridtolerance="10"
     guidetolerance="10"
     inkscape:pageopacity="0"
     inkscape:pageshadow="2"
     inkscape:window-width="682"
     inkscape:window-height="480"
     id="namedview6"
     showgrid="false"
     inkscape:zoom="0.23601864"
     inkscape:cx="367.83749"
     inkscape:cy="499.96051"
     inkscape:window-x="0"
     inkscape:window-y="0"
     inkscape:window-maximized="0"
     inkscape:current-layer="svg" /><g
     id="g3"><path
       id="MUN_0411"
       d="m 308.34,127.465 0,0 5.045,-0.336 0.112,0 7.287,-3.027 0.111,0 8.297,-1.793 0,0 14.911,-1.345 0,0 15.358,-1.233 0,0 10.202,0.336 0,0 4.821,0.672 0.112,0 4.82,5.157 0,0.112 4.261,9.529 0,0 0.784,4.821 0.112,0.112 5.83,1.906 0,0 5.381,-0.897 0,0 7.848,-2.803 0,0 4.373,-1.345 0.112,0 5.717,-0.449 0,0 4.597,1.121 0,0 6.055,3.364 0,0 13.901,15.135 0,0 8.296,5.83 0,0 5.606,1.457 0.111,0 6.951,-1.906 0,0 11.996,-5.381 0,0 2.242,-1.233 0,-0.112 5.493,-1.233 0,0 6.391,-0.112 1.346,0 0,0 5.156,0.336 0.112,0 4.821,2.579 0,0 5.829,0.785 0,0 6.278,-0.448 0.112,0 15.472,3.924 0.112,0 5.605,0.897 -3.14,1.233 -3.476,2.69 -3.812,2.803 -4.147,2.018 -1.122,1.57 1.458,3.363 0.448,1.569 -1.233,2.242 -0.336,1.906 0.225,1.793 1.569,2.13 2.578,1.569 3.251,-0.336 2.803,0.897 2.019,3.027 2.467,2.243 2.242,2.915 0.672,2.242 0.785,2.354 1.682,1.794 1.906,2.354 2.242,2.578 1.682,2.691 1.682,2.354 0.112,1.458 -1.01,0.897 -0.561,0.449 -1.232,2.13 0.111,2.242 0.337,2.915 1.794,5.942 1.121,4.484 -0.112,3.812 -1.121,4.036 -2.13,4.26 0.896,2.018 3.476,2.467 3.026,2.13 1.121,1.682 1.01,1.121 -0.561,3.476 -1.458,4.821 -0.224,3.139 1.569,5.493 2.13,1.682 0.561,2.13 -3.924,2.803 -5.27,1.57 -0.672,2.13 2.69,4.708 1.457,1.57 0.785,4.036 0.896,2.466 1.682,1.682 2.242,1.682 1.01,1.458 1.682,1.345 1.121,0.336 -3.027,3.7 -1.682,2.915 0.448,2.467 -0.224,3.251 -0.449,2.691 -1.457,4.372 -0.785,4.26 0,3.251 0.448,5.381 1.01,3.924 0.336,2.13 0,2.13 -0.896,0 -1.57,0.112 -4.147,0.672 -3.14,1.794 -0.561,0.673 -0.448,2.915 -0.448,2.242 0.112,3.812 -1.121,1.794 -2.579,1.233 -1.345,1.57 0.448,2.018 -0.337,1.458 2.243,0 3.026,1.121 1.458,1.458 1.569,2.018 0.673,1.458 -0.785,3.027 -1.682,1.682 -2.13,0.561 -2.019,0.673 -2.354,1.458 -0.224,2.13 -1.233,2.354 -1.233,0.561 -2.578,1.233 -1.794,1.569 -1.458,1.345 -0.561,2.018 -0.672,2.13 0.896,2.915 1.121,2.691 1.906,2.69 1.345,1.906 0.561,1.57 -0.111,1.905 -3.14,2.019 -2.803,2.69 -1.121,1.794 -0.785,3.251 0.785,2.803 1.569,3.251 2.467,2.242 3.027,3.252 1.457,2.69 0.225,2.915 -0.449,2.803 -1.121,3.139 -0.448,2.354 0.225,2.467 0.673,2.466 0.561,2.915 1.682,0.785 3.139,1.009 1.682,0.673 0.785,2.018 -0.673,2.131 -0.785,1.682 -2.242,1.232 -1.794,1.01 -0.448,2.018 1.346,1.794 1.009,1.457 -0.225,3.027 -0.896,3.251 -0.785,2.803 0.112,2.242 -0.784,2.354 -0.112,1.682 -0.225,1.009 -0.224,3.027 -1.01,3.924 -1.457,2.915 -1.682,3.027 -1.121,2.803 0.448,1.457 1.233,1.906 0.561,1.345 -0.112,3.813 0.337,2.242 1.121,1.569 1.345,1.569 2.579,1.009 1.794,0.561 0.672,0.449 0.112,0 -0.784,5.157 -1.346,2.242 -4.372,8.408 -2.243,4.933 -0.896,3.588 0.112,3.924 0,4.708 -0.225,3.476 -2.13,2.019 -2.018,0.336 -0.897,0.673 -0.448,2.354 0.225,2.803 0.561,3.027 1.121,2.69 1.793,2.466 2.354,1.794 1.682,2.13 0.561,2.019 1.458,1.121 1.794,1.009 2.13,0.897 2.467,0.561 2.354,0.672 3.14,1.01 2.915,1.121 2.13,2.466 2.467,3.813 1.793,5.269 2.019,3.363 1.233,3.027 1.345,3.027 3.588,2.466 2.578,2.691 0.561,2.242 -0.336,2.914 -2.467,3.252 -0.448,5.718 0.112,5.717 1.009,3.364 1.346,2.018 3.363,1.682 4.147,1.906 2.243,1.009 3.139,0.561 4.261,-0.225 2.242,1.009 1.793,1.683 1.57,0.672 3.587,0.785 1.906,1.569 1.233,1.458 1.009,0.561 1.569,0.224 3.476,0.225 2.13,0.336 1.458,0.561 2.242,2.13 2.13,1.122 1.569,1.345 1.009,0.561 1.233,0.561 1.682,0.448 1.233,0 1.458,-0.896 1.345,-1.121 1.233,-0.448 1.457,0 1.682,1.121 1.01,1.905 0.448,1.458 0.896,1.009 0.785,0.561 1.569,0.225 2.354,0.561 2.018,0.561 2.467,0.672 1.233,1.01 1.009,2.466 1.233,1.57 1.233,1.457 1.345,0.673 2.019,0.673 3.251,1.682 0.785,1.009 1.345,0.336 3.027,0.225 1.457,0.448 0.785,0.673 0.673,1.346 0.673,1.569 0.448,1.682 0.896,1.457 2.579,2.467 2.018,2.13 0.673,1.346 4.484,3.476 2.69,4.26 0.449,4.261 -0.225,5.605 0.561,2.915 1.682,1.569 1.794,2.354 2.13,1.345 3.812,2.354 2.579,3.027 3.699,3.251 1.906,2.242 1.457,1.906 1.346,1.121 1.569,0.448 1.682,0.673 2.13,1.345 1.346,1.458 1.009,2.018 1.121,4.148 1.458,3.812 0.561,1.569 1.121,2.691 41.705,37.557 60.092,53.926 -123.435,95.519 0,0 -41.93,27.804 -0.112,0 -18.723,-10.426 -0.112,0 -12.78,-4.821 -3.251,-1.121 0,0 -20.741,-10.763 0,0 -14.687,-2.578 0,0 -15.695,0 -0.112,0 -8.969,3.812 0,0 -10.09,7.96 0,0 -6.166,5.718 -0.112,0 -6.054,0 0,0 -10.651,0.561 0,0 -14.35,1.009 -0.112,0 -15.695,-1.794 0,0 -10.651,1.906 0,0 -11.435,0 0,0 -10.314,4.597 -0.112,0 -5.83,0 0,0 -6.727,-2.803 0,0 -1.569,-0.448 -4.821,-1.458 -0.111,0 -4.148,1.121 0,0 -6.614,6.055 -13.229,-0.561 -0.112,0 -3.588,1.121 0,0.111 -2.69,3.588 0,0 -4.036,4.709 0,0 -8.184,4.147 0,0 -17.938,2.803 0,0 -3.139,3.252 0,0 -1.457,5.829 0,0 -1.682,5.83 -0.112,0.112 -4.148,3.588 -0.112,0 -6.278,1.569 0,0 -15.695,0.112 -0.112,0 -3.924,1.121 -0.112,0 -6.278,2.69 0,0 -6.277,4.26 -0.112,0 -4.709,1.682 -0.112,0 -12.107,0.112 0,0 -12.444,0.785 0,0 -12.669,3.587 0,0 -8.633,4.148 0,0 -5.269,5.493 0,0 -3.813,4.485 -0.111,0 -4.373,0 0,0 -4.035,-0.449 0,0 -2.243,2.242 0,0 -1.905,1.794 -0.112,0 -2.13,0 -0.112,0 -3.476,-2.578 0,0 -2.467,-0.112 -0.111,0 -1.233,1.346 -0.112,0.111 -0.225,2.354 0,0 -0.448,2.915 0,0 -1.345,2.019 0,0.111 -3.476,1.794 0,0 -4.597,2.579 0,0 -1.906,2.914 0,0 -3.139,8.97 0,0 -1.458,3.363 -0.111,0 -5.494,1.905 0,0 -6.839,1.233 0,0 -3.699,4.036 -0.112,0 -9.529,5.942 -8.745,5.156 0,0 -6.166,1.906 0,0 -4.933,1.457 -0.112,0 -6.054,-0.111 0,0 -3.588,1.121 0,0.112 -6.951,3.924 0,0.111 -1.009,4.261 0,0 -0.224,3.699 0,0.112 -2.691,2.803 0,0 -2.915,1.346 -0.111,0 -6.727,1.457 -0.112,0 -3.14,2.579 0,0 -5.605,3.699 0,0 -3.812,3.588 -0.112,0 -0.896,4.82 0,0 -0.225,6.503 0,0 -0.896,5.045 0,0.112 -1.346,1.009 -2.13,1.569 0,0 -6.166,3.588 0,0.112 -4.261,1.345 -0.112,0 -4.82,-0.784 0,0 -6.614,-0.449 -0.112,0 -6.391,0 0,0 -2.915,1.906 -0.112,0 -2.354,0.112 0,0 -3.813,-0.673 0,0 -4.708,-0.448 0,0 -6.167,0.785 0,0 -8.744,4.708 48.992,-34.866 287.678,-205.164 -8.969,-128.816 -3.139,-45.854 -1.794,-27.131 -9.193,-95.183 -8.296,-88.007 -104.267,-58.083 -5.83,-14.911 -65.697,-171.53 18.387,-11.884 0,0 12.78,-6.278 0,0 12.894,-6.502 0,0 22.758,-11.435 0,0 16.929,-7.287 0,0 11.548,-3.812 0,0 13.453,-4.036 -14.238,-28.588 0,0 -4.26,-11.771 0,0 -0.225,-5.718 0,0 -1.009,-8.969 0,0 1.233,-4.821 0,0 1.682,-7.959 0,-0.112 2.915,-6.39 0,0 4.597,-4.821 1.569,2.018 0,0 3.139,3.475 0,0 4.036,2.803 0,0 5.941,1.343 z"
       inkscape:connector-curvature="0"
       class="DEP_04 ZON_02" /></g></svg>