<?xml version="1.0" encoding="UTF-8" standalone="no"?>
<!-- Generator: Adobe Illustrator 16.0.0, SVG Export Plug-In . SVG Version: 6.00 Build 0)  -->

<svg
   xmlns:dc="http://purl.org/dc/elements/1.1/"
   xmlns:cc="http://creativecommons.org/ns#"
   xmlns:rdf="http://www.w3.org/1999/02/22-rdf-syntax-ns#"
   xmlns:svg="http://www.w3.org/2000/svg"
   xmlns="http://www.w3.org/2000/svg"
   xmlns:sodipodi="http://sodipodi.sourceforge.net/DTD/sodipodi-0.dtd"
   xmlns:inkscape="http://www.inkscape.org/namespaces/inkscape"
   version="1.1"
   id="SvgMunicipio"
   x="0px"
   y="0px"
   width="1000.066px"
   height="845.886px"
   viewBox="64.736 117.795 1000.066 845.886"
   enable-background="new 64.736 117.795 1000.066 845.886"
   xml:space="preserve"
   inkscape:version="0.91 r13725"
   sodipodi:docname="MUN_ID0406.svg"><metadata
     id="metadata10"><rdf:RDF><cc:Work
         rdf:about=""><dc:format>image/svg+xml</dc:format><dc:type
           rdf:resource="http://purl.org/dc/dcmitype/StillImage" /></cc:Work></rdf:RDF></metadata><defs
     id="defs8" /><sodipodi:namedview
     pagecolor="#ffffff"
     bordercolor="#666666"
     borderopacity="1"
     objecttolerance="10"
     gridtolerance="10"
     guidetolerance="10"
     inkscape:pageopacity="0"
     inkscape:pageshadow="2"
     inkscape:window-width="682"
     inkscape:window-height="480"
     id="namedview6"
     showgrid="false"
     inkscape:zoom="0.27899741"
     inkscape:cx="500.03299"
     inkscape:cy="422.94299"
     inkscape:window-x="0"
     inkscape:window-y="0"
     inkscape:window-maximized="0"
     inkscape:current-layer="svg" /><g
     id="g3"><path
       id="MUN_0406"
       d="m 1064.802,170.442 -111.676,173.211 34.072,73.387 0,0.114 -106.433,243.977 -0.569,21.424 -0.114,0 -3.988,16.865 -0.114,0 -4.444,10.598 0,0 -5.583,24.158 -4.103,18.233 -0.114,0 -3.076,8.546 0,0.114 4.216,18.574 0,0 -0.456,8.547 0,0.114 -11.509,16.638 0,0 -3.533,40.226 0,0 -2.734,20.284 0,0 1.481,9.572 0,0 3.646,11.396 0,0.113 -1.254,4.33 -0.114,0.114 -6.381,3.875 -2.507,1.481 -16.296,9.8 0,0 -11.623,9.572 0,0 -27.35,1.595 0,0 -17.776,8.091 0,0 -35.555,14.245 -8.09,3.19 0,0 -27.691,6.609 0,0.114 -11.623,11.167 -0.114,0.114 -4.672,1.481 -0.114,0 -7.521,-4.559 -0.113,-0.113 -6.496,-20.968 0,0 -7.179,-17.321 0,0 -6.495,-12.649 0,0 -4.444,-6.951 -10.484,-16.295 0,0 -6.723,-7.863 0,0 -7.636,-8.547 0,0 -3.305,-3.418 -0.115,0 -2.621,-0.912 0,0 -9.572,0 -0.114,0 -6.495,4.559 0,0 -9.116,7.635 0,0 -13.104,5.128 0,0 -8.775,1.823 -0.113,0 -6.609,3.419 0,0 -5.356,6.039 0,0 -7.179,9.116 -6.268,13.675 0,0 -5.128,3.988 0,0 -5.698,2.165 0,0 -6.039,1.254 0,0 -5.014,5.584 -0.114,0 -4.217,2.051 -0.113,0 -4.103,-0.113 -0.114,0 -7.065,-3.419 0,0 -5.697,-5.128 0,0 -3.077,-2.735 0,0 -2.393,-0.911 -0.114,0 -2.507,1.14 -0.114,0 -0.911,5.697 0,0.114 -1.823,1.595 0,0 -3.988,0.912 0,0 -1.71,0.569 -0.114,0 -3.076,3.646 0,0 -3.875,2.735 0,0 0.456,3.646 0,0 -0.569,6.268 0,0 -3.875,3.988 0,0.114 -2.621,7.749 0,0 -3.418,6.381 0,0 -10.028,2.279 -0.119,0 -2.734,-1.025 -174.465,-64.954 -30.084,-11.168 -3.988,-1.595 0,0 -75.21,-23.817 0,0 -13.902,-15.384 0,0 -6.268,-26.551 0,0 -3.533,-14.358 0,-0.114 -9.914,-18.005 0,0 -6.267,-6.724 0,0 -19.601,-7.635 -0.114,0 -11.623,-3.646 0,0 -11.168,-12.193 -0.113,0 -11.966,-8.546 0,0 -3.988,-20.626 0,-0.114 -2.735,-4.558 0,0 -1.025,-2.508 0,-0.113 -0.342,-5.015 0,0 0,-6.495 0,0 -0.798,-2.849 0,0 -1.025,-3.533 0.456,-10.369 4.559,-5.242 5.925,-5.812 5.128,-5.015 2.735,-2.051 4.9,-2.051 6.837,-4.559 3.761,-4.33 3.988,-5.584 2.051,-2.849 0.57,-1.938 0.113,-1.481 -0.911,-1.709 -2.507,-2.394 -3.533,-3.19 -2.963,-3.19 -0.455,-2.165 0.455,-2.394 0.685,-2.621 3.532,-3.874 5.697,-5.47 7.521,-6.609 4.33,-3.761 2.165,-2.735 1.254,-2.278 0.569,-4.331 -0.684,-3.19 -0.114,-2.621 -2.62,-3.761 -3.761,-3.076 -1.481,-1.481 -1.481,-1.481 -1.254,-1.938 -0.569,-1.595 0.228,-2.166 1.823,-5.128 2.963,-3.874 1.823,-0.456 1.481,0.456 2.849,2.165 2.621,1.025 2.165,-0.798 1.938,-1.709 2.052,-3.305 2.849,-6.268 2.165,-3.19 3.874,-3.875 1.938,-1.937 2.849,-0.912 2.621,0.229 2.279,1.481 1.938,3.19 1.823,1.709 2.507,0.798 3.305,-0.684 3.646,-1.367 3.532,-2.508 1.938,-1.823 1.367,-2.734 0.342,-2.507 0,-3.646 -0.455,-8.547 0.569,-3.419 2.621,-2.507 2.621,-0.456 3.646,0.912 5.128,1.709 4.33,0 7.065,-2.051 3.532,-1.71 2.85,-2.051 1.823,-1.938 0.455,-2.393 1.026,-2.165 2.849,-2.279 5.812,-2.394 8.205,-2.62 6.837,-2.394 4.672,-2.393 2.052,-1.938 2.393,-2.963 2.849,-4.103 3.077,-3.646 1.938,-1.938 4.216,-4.33 2.507,-2.051 3.077,-2.052 2.849,-3.305 2.279,-3.305 0.57,-2.165 0.113,-4.33 0,-3.875 1.025,-2.507 1.823,-1.367 2.394,0.798 2.963,1.709 2.507,-1.14 2.279,-2.507 2.963,-3.419 3.76,-3.418 3.533,-3.761 0.456,-2.051 -0.229,-2.85 -2.621,-2.963 -3.076,-3.532 -3.077,-5.242 -1.709,-5.014 -2.165,-6.04 -0.57,-3.532 -0.113,-4.216 0.228,-1.254 0.684,-2.165 8.889,-4.786 0,0 6.268,-0.798 0,0 4.786,0.456 0,0 3.874,0.684 0,0 2.394,-0.114 0.113,0 2.963,-1.937 0,0 6.495,0 0.114,0 6.724,0.455 0,0 4.899,0.798 0.114,0 4.33,-1.367 0,-0.114 6.268,-3.646 0,0 2.165,-1.596 1.368,-1.025 0,-0.113 0.911,-5.129 0,0 0.228,-6.609 0,0 0.912,-4.9 0.114,0 3.874,-3.646 0,0 5.698,-3.761 0,0 3.19,-2.621 0.114,0 6.837,-1.481 0.114,0 2.963,-1.367 0,0 2.734,-2.849 0,-0.114 0.229,-3.761 0,0 1.025,-4.33 0,-0.114 7.065,-3.989 0,-0.114 3.646,-1.14 0,0 6.153,0.114 0.114,0 5.014,-1.481 0,0 6.268,-1.938 0,0 8.889,-5.242 9.686,-6.04 0.114,0 3.761,-4.103 0,0 6.951,-1.253 0,0 5.584,-1.938 0.113,0 1.481,-3.418 0,0 3.19,-9.116 0,0 1.938,-2.963 0,0 4.672,-2.621 0,0 3.533,-1.823 0,-0.114 1.367,-2.051 0,0 0.456,-2.963 0,0 0.228,-2.393 0.114,-0.114 1.254,-1.368 0.113,0 2.507,0.114 0,0 3.533,2.621 0.113,0 2.166,0 0.113,0 1.938,-1.823 0,0 2.279,-2.279 0,0 4.103,0.456 0,0 4.444,0 0.113,0 3.875,-4.558 0,0 5.355,-5.584 0,0 8.774,-4.216 0,0 12.877,-3.646 0,0 12.649,-0.797 0,0 12.307,-0.114 0.114,0 4.786,-1.709 0.113,0 6.382,-4.33 0,0 6.382,-2.735 0.113,0 3.988,-1.14 0.114,0 15.954,-0.114 0,0 6.381,-1.596 0.114,0 4.217,-3.646 0.113,-0.114 1.71,-5.926 0,0 1.481,-5.926 0,0 3.19,-3.305 0,0 18.232,-2.849 0,0 8.319,-4.216 0,0 4.102,-4.786 0,0 2.735,-3.646 0,-0.114 3.646,-1.14 0.114,0 13.446,0.57 6.724,-6.154 0,0 4.216,-1.14 0.114,0 4.9,1.481 1.595,0.456 0,0 6.838,2.849 0,0 5.926,0 0.113,0 10.484,-4.672 0,0 11.623,0 0,0 10.826,-1.938 0,0 15.953,1.823 0.114,0 14.586,-1.025 0,0 10.826,-0.57 0,0 6.153,0 0.113,0 6.268,-5.812 0,0 10.256,-8.091 0,0 9.117,-3.875 0.113,0 15.954,0 0,0 14.928,2.621 0,0 21.082,10.939 0,0 3.305,1.14 12.99,4.9 0.114,0 19.03,10.598 0.114,0 42.619,-28.261 0,0 125.464,-97.089 45.929,52.658 z"
       inkscape:connector-curvature="0"
       class="DEP_04 ZON_02" /></g></svg>