<?xml version="1.0" encoding="UTF-8" standalone="no"?>
<!-- Generator: Adobe Illustrator 19.2.0, SVG Export Plug-In . SVG Version: 6.00 Build 0)  -->

<svg
   xmlns:dc="http://purl.org/dc/elements/1.1/"
   xmlns:cc="http://creativecommons.org/ns#"
   xmlns:rdf="http://www.w3.org/1999/02/22-rdf-syntax-ns#"
   xmlns:svg="http://www.w3.org/2000/svg"
   xmlns="http://www.w3.org/2000/svg"
   xmlns:sodipodi="http://sodipodi.sourceforge.net/DTD/sodipodi-0.dtd"
   xmlns:inkscape="http://www.inkscape.org/namespaces/inkscape"
   version="1.1"
   id="SvgMunicipio"
   x="0px"
   y="0px"
   viewBox="0 0 999.9 544.2"
   style="enable-background:new 0 0 999.9 544.2;"
   xml:space="preserve"
   inkscape:version="0.91 r13725"
   sodipodi:docname="MUN_ID0426.svg"><metadata
     id="metadata10"><rdf:RDF><cc:Work
         rdf:about=""><dc:format>image/svg+xml</dc:format><dc:type
           rdf:resource="http://purl.org/dc/dcmitype/StillImage" /></cc:Work></rdf:RDF></metadata><defs
     id="defs8" /><sodipodi:namedview
     pagecolor="#ffffff"
     bordercolor="#666666"
     borderopacity="1"
     objecttolerance="10"
     gridtolerance="10"
     guidetolerance="10"
     inkscape:pageopacity="0"
     inkscape:pageshadow="2"
     inkscape:window-width="682"
     inkscape:window-height="480"
     id="namedview6"
     showgrid="false"
     inkscape:zoom="0.40904089"
     inkscape:cx="499.95001"
     inkscape:cy="272.10001"
     inkscape:window-x="0"
     inkscape:window-y="0"
     inkscape:window-maximized="0"
     inkscape:current-layer="svg" /><g
     id="g3"><path
       id="MUN_0426"
       d="m 877.6,52.3 -2.9,12.2 -0.4,10.1 1,8.6 1.9,7.3 1.3,15.3 0.5,17.8 0.4,25.2 1.4,12.6 0.3,4.7 1,4.7 2.3,5.2 5.3,9.3 6.2,12.9 4.9,13.6 2.2,7 0.8,10.5 0,5.6 -4.5,7.3 -11.4,7.1 -14.1,9.2 -11.2,8.3 -7.8,4.7 -7.1,6 -1.3,7.1 -0.5,3.2 0.3,11.7 2.7,8.8 5.2,4.4 2.6,1.7 11.7,1 14.9,-1.9 13.9,-1.3 17.1,-6 37,-14.1 14,-4.4 16.4,0.5 15.7,4.7 23.9,10.9 8.4,8 6.7,6.1 23.8,23.2 9.7,16.6 0.6,7.4 0,0.1 -6.5,11.8 -8.8,9.1 -7.1,5.5 -6.5,6.2 -5.2,8.2 -2.7,8 -1.4,5.5 -1.2,2.2 -2.5,2.1 -3.5,0.1 -2.3,0.5 -0.8,1 -0.5,2.1 -1.4,0.9 -2.3,0.3 -2.6,0.5 -2.2,0.6 -0.5,1.3 -2.6,1.4 -2.3,2.2 -2.6,1.7 -1.6,3.1 -1,1.3 -1.4,1.4 -1.4,1.4 -0.4,1.8 0.1,3.9 -0.6,2.3 -137.6,24.7 -183.8,32.8 -214.3,5.1 -71.1,1.6 -24.9,-2.9 -92.5,-10.8 -85.7,6.1 -81,58.8 -29.5,-136 -7.5,-34.5 138.4,-161.2 79.6,-56.7 116,-30 47.9,-12.3 45.8,-33.2 70,-50.8 L 589.8,37 743.7,64.3 883.4,23 883,34.3 l -0.9,5.3 -4.5,12.7 z"
       inkscape:connector-curvature="0"
       class="DEP_04 ZON_02" /></g></svg>