<?xml version="1.0" encoding="UTF-8" standalone="no"?>
<!-- Generator: Adobe Illustrator 19.2.0, SVG Export Plug-In . SVG Version: 6.00 Build 0)  -->

<svg
   xmlns:dc="http://purl.org/dc/elements/1.1/"
   xmlns:cc="http://creativecommons.org/ns#"
   xmlns:rdf="http://www.w3.org/1999/02/22-rdf-syntax-ns#"
   xmlns:svg="http://www.w3.org/2000/svg"
   xmlns="http://www.w3.org/2000/svg"
   xmlns:sodipodi="http://sodipodi.sourceforge.net/DTD/sodipodi-0.dtd"
   xmlns:inkscape="http://www.inkscape.org/namespaces/inkscape"
   version="1.1"
   id="SvgMunicipio"
   x="0px"
   y="0px"
   viewBox="0 0 999.5 999.8"
   style="enable-background:new 0 0 999.5 999.8;"
   xml:space="preserve"
   inkscape:version="0.91 r13725"
   sodipodi:docname="MUN_ID0423.svg"><metadata
     id="metadata10"><rdf:RDF><cc:Work
         rdf:about=""><dc:format>image/svg+xml</dc:format><dc:type
           rdf:resource="http://purl.org/dc/dcmitype/StillImage" /></cc:Work></rdf:RDF></metadata><defs
     id="defs8" /><sodipodi:namedview
     pagecolor="#ffffff"
     bordercolor="#666666"
     borderopacity="1"
     objecttolerance="10"
     gridtolerance="10"
     guidetolerance="10"
     inkscape:pageopacity="0"
     inkscape:pageshadow="2"
     inkscape:window-width="682"
     inkscape:window-height="480"
     id="namedview6"
     showgrid="false"
     inkscape:zoom="0.23604721"
     inkscape:cx="499.75"
     inkscape:cy="499.89999"
     inkscape:window-x="0"
     inkscape:window-y="0"
     inkscape:window-maximized="0"
     inkscape:current-layer="svg" /><g
     id="g3"><path
       id="MUN_0423"
       d="m 426.3,28.3 30.6,48.4 29.6,25.5 13.4,7.7 9.7,4 41,16.8 26.5,35.6 34.3,31.9 11.8,6.7 22.5,8.7 22.5,6 123,144.1 0.3,0.3 58.5,68.2 55.8,65.2 0,0 20.5,21.8 32.9,35.3 1,0.7 0,0 19.1,23.5 0,0 13.8,15.1 8.7,9.7 0,0 7.7,8.4 0,0 8.1,7.4 0,0 10.1,9.4 6,7.1 18.1,20.8 0,0 0.7,3.7 0,0 0.7,2.4 0,0 -4,10.1 -1,26.9 -4.4,26.2 -19.5,20.2 -13.4,12.1 -25.2,1.3 -37,-1.3 -29.2,12.1 -17.1,26.5 -27.9,0 -5.4,16.1 -24.9,26.5 -18.5,24.2 -1.3,23.9 -33.3,25.2 -37,1 -32.9,-13.1 -10.8,5.4 -54.1,18.8 -29.2,15.8 -14.4,17.5 4,12.1 13.1,10.4 0,22.8 -15.8,9.1 -31.6,0 -50.4,2.4 -14.8,-16.8 -10.4,-4 -21.2,-9.1 -11.4,-2.4 -60.8,-2 -44.3,-0.7 -21.8,-0.7 -21.2,-3.7 -21.2,-4.4 -7.1,-3 -8.4,-3.7 -4.4,-1.7 -20,-11.6 -19.5,-15.8 -16.5,-16.5 -6.7,-12.4 -4.3,-13.4 -4,-15.5 -2.7,-20.5 -1.7,-16.8 -1.7,-13.8 -4.4,-19.8 -3.4,-20.8 -1.7,-18.8 1,-22.2 4,-12.1 4,-8.4 3.7,-6.4 7.1,-9.1 12.1,-12.1 11.4,-12.8 12.8,-17.1 16.5,-27.2 8.1,-19.1 3.4,-11.1 -2.4,-28.6 -2.4,-11.4 -1.7,-8.4 -0.3,-3.4 1,-6.4 2,-16.1 1,-10.8 -0.3,-16.5 -1,-14.1 -1.7,-6.7 -2.7,-9.7 -2.7,-5.7 -5,-8.1 -3.3,-4.5 -3,-3.7 -4.4,-3.7 -7.1,-4.4 -6.7,-2.7 -4.7,-1 -29.9,-13.1 -62.5,-26.5 -14.8,-7.1 -9.4,-5 -8.4,-4.4 -8.7,-6.7 L 89.6,369.9 76.8,357.5 66,344.7 l -4,-7.1 -3.7,-9.7 -3.7,-14.8 -1,-10.1 1,-9.4 2,-13.1 4.7,-19.8 3,-13.1 3.4,-15.8 4,-14.1 2.7,-10.8 0.7,-6.7 2,-12.4 3.4,-42.7 -0.7,-32.9 -0.3,-5.7 -0.3,-9.1 -0.3,-11.1 -1.7,-13.4 -1.3,-7.7 -0.3,-3 -0.7,-3 -1,-10.1 -0.3,-3 0,-3.7 0,-2.4 39.3,31.9 27.9,8.4 24.5,-16.1 18.8,-27.2 20.8,-13.4 23.5,-4.4 13.4,13.1 -1.3,22.8 5.7,7.7 22.2,-1.3 33.3,-9.4 34.9,-14.4 29.6,-19.2 23.2,-3.4 36.9,13.2 z"
       inkscape:connector-curvature="0"
       class="DEP_04 ZON_02" /></g></svg>