<?xml version="1.0" encoding="UTF-8" standalone="no"?>
<!-- Generator: Adobe Illustrator 16.0.0, SVG Export Plug-In . SVG Version: 6.00 Build 0)  -->

<svg
   xmlns:dc="http://purl.org/dc/elements/1.1/"
   xmlns:cc="http://creativecommons.org/ns#"
   xmlns:rdf="http://www.w3.org/1999/02/22-rdf-syntax-ns#"
   xmlns:svg="http://www.w3.org/2000/svg"
   xmlns="http://www.w3.org/2000/svg"
   xmlns:sodipodi="http://sodipodi.sourceforge.net/DTD/sodipodi-0.dtd"
   xmlns:inkscape="http://www.inkscape.org/namespaces/inkscape"
   version="1.1"
   id="SvgMunicipio"
   x="0px"
   y="0px"
   width="674.289px"
   height="1000.014px"
   viewBox="64.586 117.729 674.289 1000.014"
   enable-background="new 64.586 117.729 674.289 1000.014"
   xml:space="preserve"
   inkscape:version="0.91 r13725"
   sodipodi:docname="MUN_ID0433.svg"><metadata
     id="metadata10"><rdf:RDF><cc:Work
         rdf:about=""><dc:format>image/svg+xml</dc:format><dc:type
           rdf:resource="http://purl.org/dc/dcmitype/StillImage" /></cc:Work></rdf:RDF></metadata><defs
     id="defs8" /><sodipodi:namedview
     pagecolor="#ffffff"
     bordercolor="#666666"
     borderopacity="1"
     objecttolerance="10"
     gridtolerance="10"
     guidetolerance="10"
     inkscape:pageopacity="0"
     inkscape:pageshadow="2"
     inkscape:window-width="682"
     inkscape:window-height="480"
     id="namedview6"
     showgrid="false"
     inkscape:zoom="0.2359967"
     inkscape:cx="337.1445"
     inkscape:cy="500.00699"
     inkscape:window-x="0"
     inkscape:window-y="0"
     inkscape:window-maximized="0"
     inkscape:current-layer="svg" /><g
     id="g3"><path
       id="MUN_0433"
       d="m 562.887,131.757 2.06,0.644 0.836,0.708 0.258,0.579 -0.193,0.772 -0.965,1.158 -1.029,1.029 -0.387,0.965 0,1.03 0.322,1.222 0.386,0.965 0.708,0.965 0.708,0.579 0.9,0.579 0.708,-0.064 0.965,-0.579 1.674,-0.708 2.123,0.128 1.094,0.515 0.644,1.03 1.158,3.088 1.287,3.217 1.158,1.673 0.9,0.257 1.158,-0.772 0.966,-1.48 1.287,-0.965 1.094,-0.644 1.415,0.129 0.579,0.386 0.579,0.965 0.644,1.416 0.515,1.352 0.58,0.965 0.771,0.322 0.901,0.064 0.9,0.257 1.48,0.386 2.252,0.708 1.673,0.193 1.737,0.386 0.965,1.094 1.545,0.772 2.381,0.451 2.51,-0.451 1.93,-0.322 1.673,0 0.708,0.708 0.644,1.673 0.579,0.515 1.545,0.451 1.479,0.515 0.772,0.193 1.866,0 0.707,0.836 2.253,1.866 1.737,0.321 1.608,-1.48 1.094,-1.995 1.48,-1.223 2.316,-0.322 1.351,0.515 0.837,0.836 1.287,2.703 1.158,1.802 1.479,1.416 1.674,0.193 1.801,-0.579 1.931,-1.029 2.51,-0.708 1.931,0.257 2.896,1.158 3.731,0.515 2.124,0.579 0.579,0.772 0.515,1.544 0.193,1.48 0.579,0.965 1.223,1.352 1.544,1.802 1.866,0.579 2.96,-0.579 1.737,-0.579 1.737,-0.708 1.223,0.064 0.9,1.094 0.708,1.48 1.029,1.094 0.837,0.451 1.158,-0.772 1.287,-1.223 1.737,-0.708 1.416,-0.386 1.415,0.772 1.931,1.416 1.158,1.094 1.158,1.48 1.158,2.124 0.321,2.252 0.387,1.931 0,2.059 0,1.866 0.515,1.094 0.836,1.094 1.545,0.322 1.029,-0.386 1.416,-0.965 1.094,-0.322 1.479,-0.129 4.762,0.064 1.609,-0.064 1.802,-0.579 1.415,-0.064 0.708,0.451 0.644,1.158 0,1.223 -0.064,1.416 0.129,1.48 0.515,1.737 -0.193,1.737 -0.45,0.579 -1.416,0.515 -1.223,1.094 -0.386,1.287 0.129,1.673 0.386,1.351 0.579,1.094 1.416,0.45 2.059,0.836 1.674,0.836 0.9,0.772 0.644,1.223 0.837,1.029 1.158,0.965 2.316,0.644 1.351,0.322 1.545,0.45 0.9,0.772 0.387,0.901 0.128,1.287 0.322,1.158 0.579,0.836 1.223,0.965 1.223,0.965 0.192,1.029 -0.579,0.901 -0.128,1.03 -0.129,1.544 0.644,1.544 0,1.158 -0.064,1.287 -0.387,1.158 -0.579,1.544 -0.707,1.416 -0.064,1.029 0.45,0.901 0.9,1.673 0.322,2.059 0,1.737 -0.322,1.223 -0.771,1.029 -2.252,1.158 -1.866,1.159 -1.802,1.158 -0.837,1.158 -1.158,1.416 -0.386,1.029 -0.129,0.965 0.837,0.579 1.351,0.386 1.094,0.579 1.866,0.386 1.609,0 1.223,0 0.771,0.708 0.45,0.965 0.193,1.866 0.515,1.673 0.901,1.608 1.158,1.802 1.608,2.059 1.352,2.317 1.866,2.059 0.836,1.544 0.45,1.866 0.064,1.995 0.322,1.673 0.45,1.802 0.321,1.48 0.516,1.479 0.579,1.609 -0.064,1.931 0,0.064 0,1.802 -0.644,2.252 -0.515,1.544 -1.545,1.544 -0.579,1.094 0,0.965 0.708,0.644 1.029,1.158 0.966,1.094 0.836,1.223 0.966,1.416 0.579,1.094 1.094,1.029 1.479,0.515 1.673,0.515 1.609,0.836 1.029,1.351 0.9,1.352 0.772,1.737 0.386,1.866 -0.515,1.802 -0.579,1.094 -1.286,0.515 -1.416,0.322 -2.06,0.386 -1.93,0.836 -1.158,1.094 -1.48,2.703 -1.223,3.282 -1.544,2.703 -1.673,1.544 -1.995,0.836 -0.837,0.901 -0.9,1.48 -0.644,1.737 -0.386,1.223 -1.352,1.995 -1.673,2.316 -0.386,1.351 0,1.738 0.836,3.088 0.901,1.802 1.029,1.931 0.836,1.93 0.708,2.316 0.644,2.574 -0.129,2.059 -0.386,1.223 -0.9,1.802 -1.03,1.802 -2.188,1.287 -1.866,0.772 -2.896,0.386 -1.608,0.45 -1.673,0.644 -1.866,0.772 -2.188,0.58 -1.865,1.222 -1.158,1.416 -1.931,2.123 0.515,1.094 0.644,1.995 -0.322,1.673 0,1.609 0.644,1.416 0.772,1.609 0.064,1.158 0.708,0.965 1.608,1.995 1.544,1.866 0.708,1.287 0.387,1.737 0.128,1.544 -0.45,1.223 -0.9,0.708 -1.352,0.644 -1.287,0.579 -1.995,0.386 -2.059,1.094 -1.223,1.223 -0.837,1.673 0,0.965 1.545,0.965 1.866,1.287 2.638,1.737 1.094,1.416 0.901,1.479 0.579,1.223 -0.064,1.995 -0.064,1.416 -0.258,1.094 -0.321,0.708 -1.158,0.965 -1.287,0.772 -4.375,2.316 -3.668,2.059 -1.287,1.416 -0.708,0.836 -0.579,0.579 -0.515,1.48 -0.386,1.158 0.321,1.673 0.965,1.352 1.48,1.994 0.9,1.287 0.644,1.545 0.129,2.381 -0.386,2.445 -1.029,1.737 -1.287,1.608 -1.094,1.287 -2.188,2.573 -0.708,2.124 0.193,1.544 0.064,1.995 0.064,1.158 0.515,0.836 0.965,1.03 1.158,1.479 1.223,1.995 0.708,1.479 0.515,1.673 0.387,2.124 0.128,1.737 -0.321,1.544 -1.094,1.287 -0.322,0.708 0.129,0.644 0.386,0.579 1.159,0.644 1.544,1.479 0.45,0.966 -0.129,0.836 -0.386,1.287 -0.129,1.029 0.644,1.158 0.322,1.223 0.45,1.995 0.515,1.737 0.193,1.802 0.45,1.673 -0.258,3.346 -0.192,1.545 -0.772,1.415 -0.45,1.931 -0.45,1.544 0.257,1.352 0.515,0.772 0.708,0.515 0.579,0.064 0.837,-0.258 0.515,-0.771 1.094,-0.901 1.352,-0.708 0.836,-0.771 0.579,-0.772 0.708,-0.579 0.9,-0.129 0.58,0.45 0,0.837 0.386,0.965 0.579,0.966 2.123,2.059 1.352,0.579 1.479,1.802 -0.257,2.188 -1.287,0.451 0,0.064 -1.737,0.515 -0.644,0.708 0,1.222 0.064,1.352 -0.9,1.094 -1.48,0.515 -2.252,-0.063 -1.737,0.128 -1.223,0.387 -0.966,1.094 -0.386,1.608 -0.321,2.188 -1.03,1.931 -2.381,2.768 -1.737,1.865 -1.029,1.866 -0.45,1.352 -0.064,1.866 0.129,2.316 0,1.931 -0.258,1.094 -0.644,0.708 -0.836,0.643 -1.737,-0.386 -0.193,-0.9 0.644,-1.416 0.064,-1.802 -0.772,-1.416 -1.029,-1.544 -0.901,-0.772 -0.9,0.193 -0.386,0.644 -0.129,0.837 0.321,1.222 0.644,1.158 0.515,1.674 -0.45,1.479 -1.223,0.387 -2.059,0.128 -1.737,0.064 -1.158,0.386 -0.516,0.901 0,1.223 -0.064,1.352 0.644,1.223 0.708,1.158 0.387,1.737 0.515,2.445 0.257,2.381 -0.386,1.865 -0.708,1.609 -0.772,1.544 -0.45,2.316 -0.321,2.06 -0.387,1.608 -0.579,1.158 -1.479,1.352 -1.545,0.321 -1.158,0.965 -0.836,0.966 -0.322,1.479 0.193,1.158 0.45,0.966 0.451,1.866 -0.258,0.965 -0.579,1.094 -0.322,1.544 -0.515,3.347 -0.836,1.994 -0.901,3.218 -0.708,3.604 0.322,2.123 0.515,2.445 0.644,2.445 0.515,2.123 -0.257,3.153 -0.258,3.732 0.064,4.054 -0.064,1.737 0.258,3.089 0.707,2.123 1.223,1.802 1.416,1.158 0.9,0.772 0.579,1.094 -0.128,0.837 -0.129,1.158 -1.158,2.316 -0.451,1.93 -0.836,2.574 -0.45,3.153 -0.322,1.866 -0.771,1.994 -0.966,1.352 -1.608,0.836 -2.381,0.837 -2.06,1.094 -1.094,0.966 -0.321,1.158 -0.064,1.351 0.321,1.866 0.387,2.381 0,1.48 -0.901,2.316 -1.029,2.509 -1.416,2.51 -1.865,2.06 -1.223,1.351 -0.451,1.287 0.064,1.609 0.064,1.802 -0.257,1.222 -0.966,0.579 -1.479,0.772 -2.06,1.029 -1.608,1.095 -0.965,1.415 -1.03,1.931 -0.708,2.316 0,2.767 -8.236,3.604 -0.707,0.322 -53.602,25.545 -47.166,22.521 -115.566,-10.103 34.104,63.768 -77.088,35.198 -0.9,0.45 2.639,-0.45 4.246,-0.193 3.539,-0.257 3.024,0.965 1.545,2.316 -1.03,3.797 -2.509,4.118 -3.411,4.568 -1.865,2.445 -1.802,5.083 -0.193,4.312 0.515,5.92 0.965,5.019 -0.965,4.826 -1.287,4.312 -3.024,5.341 -3.217,6.82 2.252,7.336 6.563,9.909 8.043,11.454 4.054,6.563 10.875,14.221 7.014,9.909 7.078,11.646 1.802,11.646 -1.544,19.047 -3.024,16.28 -5.084,15.186 -5.469,14.221 -2.574,10.424 4.054,9.588 7.4,13.384 -3.797,-1.158 -3.668,-0.9 -5.662,-2.381 -5.47,-2.188 -5.727,-0.258 -2.124,0.322 -4.825,0.771 -6.436,0.708 -6.691,0.129 -5.663,2.381 -2.702,1.994 -4.44,3.668 -3.796,2.896 -4.118,3.024 -6.178,5.727 -1.93,2.124 -1.416,3.539 -1.094,3.796 -2.381,5.148 -1.931,4.568 -2.381,4.891 -0.965,1.608 -4.891,3.024 -4.054,3.281 -2.381,2.96 -0.708,3.604 -2.896,1.545 -5.92,2.188 -13.126,6.692 -7.722,2.252 -35.069,3.539 -11.196,-0.579 -6.306,-3.089 -11.004,-4.955 -5.019,-2.896 -5.02,-4.762 -2.51,-4.89 -3.925,-5.213 -3.346,-4.375 -4.762,-3.604 -3.732,-2.51 -2.574,-0.257 -3.925,-0.322 -7.657,-0.129 -8.107,1.287 -3.218,0.45 -2.767,-1.158 -19.433,-9.137 -8.494,-5.02 -20.526,-13.77 -6.37,-4.247 -20.27,-17.438 -2.767,-1.994 -21.813,-20.655 1.479,-2.381 0.772,-3.024 0.386,-3.282 0.258,-2.702 1.029,-1.866 1.352,-1.866 1.094,-2.767 1.352,-3.539 0.128,-2.896 -0.321,-2.896 -1.608,-1.931 -1.158,-1.352 -0.064,-0.9 1.223,-1.416 1.544,-0.771 0.708,-1.48 1.608,-0.257 1.737,-0.708 -0.129,-1.287 -1.287,-1.158 0.58,-0.644 1.801,-0.064 0.579,-0.9 0.322,-1.287 0.772,-0.772 1.479,-0.579 -0.45,-1.479 0.129,-1.931 -0.193,-1.094 0.321,-1.545 -0.45,-0.45 -0.708,-0.064 -1.286,1.866 -0.516,0.9 -0.579,-0.257 -0.128,-0.708 0.9,-1.287 -0.129,-0.708 -1.351,-0.257 -0.258,-1.158 1.158,-1.352 0.901,-0.9 -0.451,-1.223 -0.707,-0.129 -1.158,0.708 -1.287,0.515 -1.287,-0.45 -1.094,-0.129 -1.609,0.321 -0.9,0.515 -1.352,0.708 -0.965,-1.029 0.193,-1.158 1.222,-1.416 0.322,-0.707 -0.193,-0.772 -1.029,0 -1.094,1.287 -1.287,1.223 -0.321,-0.322 -0.258,-0.965 0.579,-0.901 0.644,-1.287 2.638,-0.965 0.064,-0.836 -0.386,-0.772 -1.094,0.064 -0.837,-0.322 0,-0.965 0.258,-0.579 0.9,-0.129 1.223,0 1.223,-0.9 -0.321,-1.03 -0.708,-0.192 -1.223,-0.258 -0.45,-0.45 0.321,-0.772 1.416,-0.9 -0.579,-0.837 -1.223,-0.515 -1.223,-1.995 -0.579,-3.667 -1.223,-4.44 -0.837,-0.129 -0.771,0.451 -0.451,0.9 -0.707,0 -0.258,-0.515 -0.386,-1.094 0.064,-1.673 0.386,-1.158 1.802,-2.832 0.965,-1.286 -0.128,-0.708 -0.966,-0.322 -1.415,0.515 -1.03,0.129 -0.45,-2.059 1.48,-0.387 0.9,-0.257 -0.386,-1.158 -0.644,-1.287 -0.129,-0.772 0.579,-0.644 -0.579,-0.386 -1.287,0 -0.064,-0.322 -0.515,-1.094 -0.386,-1.544 -0.129,-0.965 0.579,-1.095 0,-1.351 -0.386,-0.644 -0.901,-1.094 0.258,-0.644 1.158,-0.644 -0.129,-0.772 -0.965,-0.772 -1.287,-0.771 0.321,-1.223 1.094,-0.579 1.03,-0.837 0.965,-1.608 0.322,-2.96 -0.579,-2.574 -1.158,-1.802 -0.644,-1.544 0.707,-1.608 1.737,-1.737 0.258,-1.48 0,-1.994 1.158,-1.416 0.45,-1.802 80.756,-113.443 26.511,-37.192 0.708,-1.48 35.197,-69.108 -15.572,-84.938 -0.321,-1.608 -15.765,-86.547 28.505,-21.17 -0.644,-79.339 80.627,-80.369 22.843,-22.779 29.149,-29.149 11.067,-7.207 67.886,-44.592 51.799,-34.04 0.837,-0.386 29.021,-19.046 33.975,-22.393 1.158,-0.322 1.609,-0.193 0.9,0.258 0.387,0.579 0.321,1.479 -0.064,1.609 -0.064,1.544 0.579,0.836 0.387,0.515 1.029,0.193 1.029,-0.064 0.901,-0.515 1.351,-1.287 0.644,-0.965 1.545,-1.287 0.45,-0.965 1.223,-1.094 1.737,-1.48 1.287,-1.287 0.064,-0.836 0.257,-1.158 0.579,-1.094 0.966,-1.029 1.286,-0.772 1.03,-0.257 0.643,0.515 0.516,0.515 0.128,1.094 0,1.416 -0.321,1.609 -0.322,1.48 -0.771,1.094 -0.708,1.223 -0.45,1.352 0.257,0.708 1.03,0.836 1.158,0.515 1.802,0.772 2.507,0.896 z"
       inkscape:connector-curvature="0"
       class="DEP_04 ZON_02" /></g></svg>