<?xml version="1.0" encoding="UTF-8" standalone="no"?>
<!-- Generator: Adobe Illustrator 16.0.0, SVG Export Plug-In . SVG Version: 6.00 Build 0)  -->

<svg
   xmlns:dc="http://purl.org/dc/elements/1.1/"
   xmlns:cc="http://creativecommons.org/ns#"
   xmlns:rdf="http://www.w3.org/1999/02/22-rdf-syntax-ns#"
   xmlns:svg="http://www.w3.org/2000/svg"
   xmlns="http://www.w3.org/2000/svg"
   xmlns:sodipodi="http://sodipodi.sourceforge.net/DTD/sodipodi-0.dtd"
   xmlns:inkscape="http://www.inkscape.org/namespaces/inkscape"
   version="1.1"
   id="SvgMunicipio"
   x="0px"
   y="0px"
   width="744.57px"
   height="1000.042px"
   viewBox="64.677 117.793 744.57 1000.042"
   enable-background="new 64.677 117.793 744.57 1000.042"
   xml:space="preserve"
   inkscape:version="0.91 r13725"
   sodipodi:docname="MUN_ID0432.svg"><metadata
     id="metadata10"><rdf:RDF><cc:Work
         rdf:about=""><dc:format>image/svg+xml</dc:format><dc:type
           rdf:resource="http://purl.org/dc/dcmitype/StillImage" /></cc:Work></rdf:RDF></metadata><defs
     id="defs8" /><sodipodi:namedview
     pagecolor="#ffffff"
     bordercolor="#666666"
     borderopacity="1"
     objecttolerance="10"
     gridtolerance="10"
     guidetolerance="10"
     inkscape:pageopacity="0"
     inkscape:pageshadow="2"
     inkscape:window-width="682"
     inkscape:window-height="480"
     id="namedview6"
     showgrid="false"
     inkscape:zoom="0.23599009"
     inkscape:cx="372.285"
     inkscape:cy="500.021"
     inkscape:window-x="0"
     inkscape:window-y="0"
     inkscape:window-maximized="0"
     inkscape:current-layer="svg" /><g
     id="g3"><path
       id="MUN_0432"
       d="m 794.623,364.491 -0.549,1.736 -0.183,1.005 0.091,3.382 0.457,2.833 1.737,4.844 1.371,4.021 2.468,4.205 2.468,2.833 2.103,2.376 0.183,2.285 -0.366,1.646 -2.833,3.017 -3.017,2.741 -2.376,2.742 -1.828,2.012 -2.011,0.913 -2.377,-1.37 -1.919,-0.641 -1.463,1.098 -0.822,2.011 0,3.107 -0.092,3.474 -0.457,1.736 -1.828,2.65 -2.285,2.651 -2.468,1.645 -2.011,1.646 -3.382,3.474 -1.554,1.554 -2.468,2.925 -2.285,3.291 -1.92,2.376 -1.645,1.554 -3.748,1.92 -5.484,1.919 -6.581,2.103 -4.661,1.92 -2.285,1.827 -0.822,1.737 -0.366,1.919 -1.462,1.554 -2.285,1.646 -2.834,1.371 -5.667,1.646 -3.474,0 -4.112,-1.371 -2.925,-0.731 -2.103,0.366 -2.103,2.011 -0.457,2.742 0.365,6.854 0,2.925 -0.273,2.012 -1.098,2.193 -1.554,1.462 -2.833,2.012 -2.925,1.097 -2.651,0.548 -2.011,-0.64 -1.462,-1.371 -1.554,-2.56 -1.828,-1.188 -2.103,-0.183 -2.285,0.73 -1.554,1.554 -3.107,3.108 -1.737,2.559 -2.285,5.027 -1.645,2.651 -1.555,1.371 -1.736,0.64 -2.103,-0.823 -2.285,-1.736 -1.188,-0.365 -1.463,0.365 -2.376,3.107 -1.463,4.113 -0.183,1.737 0.457,1.279 1.005,1.554 1.188,1.188 1.188,1.188 3.017,2.468 2.102,3.016 0.092,2.103 0.549,2.56 -0.457,3.473 -1.006,1.828 -1.736,2.194 -3.474,3.016 -6.032,5.302 -4.57,4.388 -2.834,3.107 -0.548,2.103 -0.366,1.919 0.366,1.737 2.376,2.559 2.834,2.56 2.011,1.92 0.731,1.371 -0.092,1.188 -0.457,1.554 -1.646,2.285 -3.199,4.479 -3.016,3.473 -5.484,3.656 -3.931,1.646 -2.193,1.646 -4.113,4.021 -4.753,4.661 -3.656,4.205 -0.365,8.317 -0.274,2.285 -1.554,1.828 -2.834,0.64 -3.839,-0.274 -2.65,-1.462 -6.673,-3.382 -3.656,-2.194 -2.559,-1.462 -2.377,-0.64 -4.204,0.73 -3.108,1.371 -4.569,2.469 -2.285,2.559 -2.651,2.377 -5.94,2.833 -4.113,2.011 -3.931,1.463 -2.468,1.554 -1.554,3.199 -0.092,3.931 0.274,3.656 0.549,3.107 -0.731,3.29 1.462,4.937 1.737,2.833 0.457,1.736 -0.914,3.108 0.091,2.468 0.549,3.016 1.554,2.926 0.914,2.742 0.914,2.559 -0.183,3.199 1.279,2.834 1.371,2.559 0.731,2.194 0.64,2.65 -0.457,2.468 -1.462,4.388 -1.92,2.468 -2.377,2.742 -1.462,0.822 -2.56,0.549 -3.656,-1.006 -3.382,-1.279 -4.204,-0.549 -3.291,0.914 -1.828,2.193 -1.188,3.748 -0.457,2.285 -0.274,2.925 -1.737,2.468 -5.85,4.57 -3.747,2.468 -1.646,3.107 -4.021,3.656 -2.925,1.737 -3.291,1.005 -2.285,-0.457 -3.199,-2.285 -1.554,0 -1.005,-0.274 -3.931,0.641 -3.931,0.914 -3.016,0.914 -1.555,1.645 -1.919,3.017 -0.914,3.474 -2.468,3.382 -1.646,1.188 -2.742,0 -4.204,0.183 -2.925,0.73 -3.017,1.188 -3.564,-1.188 -3.565,-1.279 -6.307,-3.017 -3.747,0.457 -5.393,1.737 -2.834,2.011 -3.29,1.646 -3.931,-0.092 -3.199,0 -1.92,2.56 -0.457,4.296 0.641,3.747 0.457,4.022 0.091,0.64 0.731,3.473 1.279,4.022 -0.548,3.747 -1.92,4.753 -2.65,5.393 -3.017,3.839 -5.484,3.84 -8.592,2.741 -12.156,0.274 -14.076,0.731 -21.754,9.049 -6.216,8.684 -0.64,13.894 2.651,10.785 14.532,15.265 13.437,26.507 0,10.42 -2.011,10.694 -6.216,11.882 -9.688,3.748 -11.699,3.93 -7.313,7.221 -10.237,16.361 -1.005,9.415 -6.308,5.85 -6.215,6.946 -3.474,6.216 -0.64,7.587 -3.107,9.231 0.548,12.796 -2.103,17.367 0,10.328 0,8.135 1.555,8.227 -7.038,6.216 -8.227,8.683 -8.044,10.146 -8.226,11.882 -6.124,9.688 0,5.667 1.554,8.136 7.678,11.242 -2.559,6.673 -10.694,8.226 -9.141,4.113 -1.554,0 -18.829,-2.56 -23.308,11.243 -12.431,0 -4.388,-9.688 -4.662,-7.679 -10.968,-9.14 -25.502,-9.688 -12.705,-5.941 -11.151,-7.404 -13.618,-2.011 -10.237,-3.93 -0.274,-0.092 -15.904,-8.592 -29.432,-26.142 -2.834,-14.076 6.216,-5.484 0,0 2.011,-5.85 0.092,0 0,-4.479 0,0 0.365,-3.839 0,0 1.554,-3.748 0,0 6.49,-5.575 0,0 4.479,-4.021 0,-0.092 5.301,-6.672 0,0 4.205,-7.313 0,0 0.731,-4.662 0,0 0.091,-4.296 0,0 -1.554,-4.936 0,-0.091 1.828,-4.022 2.56,-5.393 0,0 0.731,-5.941 0,0 -0.641,-8.226 0,0 0.641,-9.323 0,0 -0.274,-4.753 -0.092,-0.092 -1.736,-2.103 0,0 -1.188,-3.473 0,0 -1.005,-7.587 0,0 -0.914,-4.479 -0.092,-0.092 -4.388,-0.822 -0.091,0 -2.468,0.64 0,0 -3.931,1.371 -0.092,0 -4.661,-0.365 0,0 -5.027,-3.108 0,0 -4.388,0.092 0,0 -2.102,2.65 0,0 -4.479,4.479 0,0 -2.284,0.092 -0.092,0 -5.85,-3.839 0,0 -7.221,-3.199 0,0 -4.937,-5.575 0,0 -1.554,-5.759 0,0 0.823,-4.936 0.091,-0.092 2.834,-3.656 0,0 5.758,-0.64 0,0 8.227,0.366 0,0 7.221,-2.285 0,0 5.576,-1.737 0.091,0 3.748,0.64 0.091,0 2.834,-1.827 0,0 3.016,-1.463 0.092,0 2.011,0.549 0,0 2.925,1.462 0.092,0 5.667,-4.479 0,0 1.279,-2.011 0,0 2.194,-4.296 0,0 2.925,-6.947 0.091,0 2.468,-6.672 0,-0.092 -1.005,-3.931 0,-0.091 -2.925,-2.193 -0.092,0 -2.833,2.102 -0.092,0 -2.193,-0.365 -0.092,-0.092 -0.731,-2.925 0,0 0.731,-3.93 0,0 3.748,-5.21 0,0 5.94,-6.033 0,-0.091 0.823,-4.022 0,-0.091 -0.823,-1.371 0,0 -2.925,-2.285 -0.091,0 -5.851,-0.549 0,0 -2.925,-1.279 -0.091,-0.092 -1.646,-3.839 0,-0.091 1.828,-6.855 0,0 2.468,-2.56 0,0 6.032,-0.274 0,0 4.937,1.737 0,0 3.564,-0.731 0.092,0 3.107,-6.489 0,0 1.736,-9.141 0,0 -1.462,-6.398 0,-0.092 -4.022,-3.29 -0.091,0 -7.952,-3.382 0,0 -4.662,-3.656 5.484,-2.103 4.479,-1.462 6.673,-2.285 5.941,-5.667 -1.828,-5.119 -2.193,-6.764 -1.555,-7.86 3.017,-4.479 4.388,-2.285 16.37,-11.245 3.747,-5.118 2.011,-5.302 0.64,-6.215 0.823,-3.839 -0.731,-12.248 1.097,-6.581 -0.822,-6.581 1.828,-7.038 0.548,-4.205 2.011,-3.199 3.565,-2.468 2.925,-0.64 4.844,1.279 2.834,-0.091 2.103,-0.823 1.919,-4.296 1.92,-4.021 2.011,-1.371 3.747,-1.462 1.646,-2.012 -0.183,-2.284 -1.92,-1.098 -1.645,-0.822 -2.377,-1.92 -0.365,-2.284 0.64,-2.285 2.468,-0.731 1.554,0 2.65,0 4.753,-0.731 2.56,-1.005 0.183,-1.463 -0.273,-1.463 -1.92,-2.468 -0.274,-3.564 1.006,-3.382 2.285,-2.925 2.102,-0.914 1.92,-0.183 1.279,0.822 1.188,2.834 2.193,-0.731 0.366,-2.011 -1.006,-2.742 -1.005,-4.662 -0.914,-1.462 -1.828,0.365 -1.188,1.736 -0.64,0.274 -0.457,-0.548 -0.549,-1.097 0.274,-1.737 -0.091,-3.199 2.102,-4.844 0.914,-2.468 1.097,-2.469 1.555,-2.102 0.913,-0.731 1.28,0 4.936,0.457 4.113,-0.457 2.011,-1.279 1.006,-0.823 1.005,-1.462 0.092,-2.103 -1.097,-2.834 -0.457,-1.736 -0.274,-1.736 0.457,-1.28 0.731,-1.736 1.919,-1.646 0.366,-1.554 1.37,-0.457 1.371,0.457 2.377,2.377 0.731,-2.468 -1.28,-3.656 -2.285,-3.931 -0.273,-1.828 1.554,-2.56 3.93,0.184 2.285,3.839 1.463,-1.28 0.731,-1.828 4.479,-0.183 2.103,-2.011 -2.468,-11.334 1.554,-6.032 -0.274,-2.56 3.107,-0.914 0.914,-4.753 1.006,-2.468 -0.731,-3.474 0.64,-2.468 0.457,-2.011 1.097,-1.737 1.097,0 3.017,0.731 1.463,0.092 3.016,-1.188 1.463,-2.103 0.457,-1.188 1.006,-1.737 -0.184,-2.011 -2.468,-2.925 -0.822,-0.822 -3.382,-1.554 -0.64,-2.194 1.736,-2.285 2.376,-0.64 3.474,-0.64 2.011,-1.006 0.914,-1.188 0,-3.291 -1.005,-2.103 -2.377,-2.285 -0.274,-1.828 1.371,-1.462 3.565,-1.371 0.73,-3.199 0,-3.474 -1.828,-5.393 -0.457,-2.376 2.103,-3.656 3.199,-2.56 2.103,-0.731 3.382,-0.365 6.581,2.193 2.285,0.731 2.011,-3.564 0.914,-1.646 2.011,-1.646 2.103,-0.183 6.489,0.092 1.92,-2.651 2.468,4.022 1.097,1.462 1.645,-0.64 0.457,-1.646 0.823,-4.021 1.462,-3.656 2.285,-3.747 2.56,-1.28 3.839,0.823 2.925,1.097 2.468,0 1.646,-0.914 3.199,-2.468 2.742,-2.834 3.107,-2.742 2.193,-4.479 2.651,-0.365 2.011,0.64 2.011,2.011 1.646,0.822 3.107,0.366 3.199,-0.274 2.285,0.092 3.473,-2.012 1.006,-2.65 2.65,-3.017 3.839,-3.473 2.103,-1.006 2.56,-0.457 3.199,0 3.656,-0.64 2.011,-1.188 2.376,-0.914 2.011,-0.273 2.194,-0.184 0.731,-1.188 0.914,-2.103 0.64,-2.56 -0.823,-5.667 0.914,-1.097 1.097,-1.371 1.646,-4.113 1.006,-2.011 3.656,-1.646 2.011,0.183 1.919,1.463 1.463,2.193 0.822,1.92 -0.731,3.656 -0.457,2.742 0.823,1.462 1.919,0.457 2.194,-0.183 1.097,-1.646 0.091,-3.473 0,-2.103 0,-1.828 0.274,-2.925 0.731,-5.484 1.097,-2.925 1.463,-1.462 2.833,-0.457 4.021,-0.366 3.474,-1.097 4.021,-3.474 2.103,-2.102 -0.091,-3.382 -1.371,-3.291 0.64,-4.753 0.183,-0.274 3.474,-6.398 1.919,-5.301 1.371,-2.65 1.554,-1.646 2.56,-1.005 3.199,-2.285 2.56,-2.651 2.833,-2.468 1.736,-1.097 1.646,0.183 2.834,0.366 1.919,0.183 2.011,-0.274 2.194,-0.914 2.559,-1.188 2.103,-2.285 -0.091,-1.371 -0.731,-1.462 -4.021,-4.936 -2.742,-2.559 -2.834,-2.742 -1.736,-2.285 -0.183,-2.833 -0.274,-0.823 0.365,-3.839 -0.64,-2.559 -0.64,-2.651 -0.914,-0.914 -0.823,-0.457 -2.468,-1.645 -1.005,-1.462 -2.468,-2.376 -0.457,-1.828 -0.092,-2.56 -0.914,-2.102 -0.091,-3.474 0.456,-3.382 1.098,-4.296 0.822,-2.925 2.011,-3.291 1.463,-2.194 1.919,-1.279 1.097,-0.823 2.194,0 1.919,-1.462 0.823,-1.462 1.371,-2.742 1.462,-3.108 0.64,-1.919 0.457,-1.554 -0.457,-1.462 -0.548,-1.097 -1.371,-0.731 -1.92,-0.64 -1.005,-1.188 -0.914,-2.011 0,-1.646 -0.183,-2.833 0.273,-2.285 0.184,-2.65 0.183,-2.742 1.097,-4.021 1.005,-1.737 0.366,0 1.097,-0.091 0.64,-0.549 0.823,-0.64 1.462,-1.371 1.463,-1.462 1.462,-1.188 3.291,-1.097 3.473,-1.188 0.823,-2.468 -0.274,-3.931 0.64,-2.376 2.468,-2.468 1.371,-0.914 1.371,-0.457 2.103,-1.005 1.554,-0.731 2.103,-1.188 1.646,-1.097 -0.184,-2.65 0,-4.022 0.092,-2.559 1.462,-1.646 1.92,-10.511 -0.274,-2.376 2.65,-1.554 2.103,-1.097 -0.274,-2.011 -0.548,-2.468 -0.183,-2.011 1.279,-3.017 0.822,-1.736 2.56,-3.656 2.834,-2.194 2.193,-0.914 0.64,0 1.554,0 2.103,-0.64 2.193,-1.462 3.199,-2.925 1.737,-5.119 0.914,-2.833 2.65,-3.108 2.285,-0.731 2.285,-0.548 1.919,-0.457 1.737,-1.28 1.827,-1.646 1.28,-1.188 1.188,-1.005 2.925,-2.376 1.919,-2.285 1.371,-2.103 2.468,-2.102 3.382,-2.011 1.646,-0.914 0.64,-0.823 0.914,-0.731 0.731,-2.925 0.822,-2.376 1.828,-0.731 3.199,-0.823 2.834,-0.64 1.554,-0.091 1.462,-0.64 0.914,-0.366 0.457,-1.371 -0.365,-1.371 143.046,1.828 79.704,-12.979 13.893,74.585 17.458,88.113 0.274,0.914 -6.032,-1.371 -0.092,0 -9.871,5.21 -0.092,0 -2.103,3.473 -0.091,0 -2.377,3.199 0,0.091 1.006,7.495 1.646,12.248 0,0 0.73,5.393 0,0 -2.559,7.586 0,0 -1.737,2.833 0,0.092 6.764,7.952 0,0.092 1.828,3.748 0,0.091 0.641,4.387 0,0.091 -3.474,4.113 0,0 -2.377,4.662 -0.091,0 0,2.742 0,0 1.005,2.833 0,0.091 2.468,3.016 0,0.091 0.168,2.932 z"
       inkscape:connector-curvature="0"
       class="DEP_04 ZON_02" /></g></svg>