<?xml version="1.0" encoding="UTF-8" standalone="no"?>
<!-- Generator: Adobe Illustrator 16.0.0, SVG Export Plug-In . SVG Version: 6.00 Build 0)  -->

<svg
   xmlns:dc="http://purl.org/dc/elements/1.1/"
   xmlns:cc="http://creativecommons.org/ns#"
   xmlns:rdf="http://www.w3.org/1999/02/22-rdf-syntax-ns#"
   xmlns:svg="http://www.w3.org/2000/svg"
   xmlns="http://www.w3.org/2000/svg"
   xmlns:sodipodi="http://sodipodi.sourceforge.net/DTD/sodipodi-0.dtd"
   xmlns:inkscape="http://www.inkscape.org/namespaces/inkscape"
   version="1.1"
   id="SvgMunicipio"
   x="0px"
   y="0px"
   width="770.585px"
   height="1000.038px"
   viewBox="64.8 117.877 770.585 1000.038"
   enable-background="new 64.8 117.877 770.585 1000.038"
   xml:space="preserve"
   inkscape:version="0.91 r13725"
   sodipodi:docname="MUN_ID0428.svg"><metadata
     id="metadata10"><rdf:RDF><cc:Work
         rdf:about=""><dc:format>image/svg+xml</dc:format><dc:type
           rdf:resource="http://purl.org/dc/dcmitype/StillImage" /></cc:Work></rdf:RDF></metadata><defs
     id="defs8" /><sodipodi:namedview
     pagecolor="#ffffff"
     bordercolor="#666666"
     borderopacity="1"
     objecttolerance="10"
     gridtolerance="10"
     guidetolerance="10"
     inkscape:pageopacity="0"
     inkscape:pageshadow="2"
     inkscape:window-width="682"
     inkscape:window-height="480"
     id="namedview6"
     showgrid="false"
     inkscape:zoom="0.30626082"
     inkscape:cx="385.29251"
     inkscape:cy="500.01901"
     inkscape:window-x="0"
     inkscape:window-y="0"
     inkscape:window-maximized="0"
     inkscape:current-layer="svg" /><g
     id="g3"><path
       id="MUN_0428"
       d="m 383.998,236.284 5.012,2.819 7.204,-1.566 6.422,-3.289 8.301,0.313 6.422,3.446 1.253,12.06 -9.241,20.518 -4.072,13.469 0.471,8.458 3.289,4.699 3.132,3.759 3.289,9.71 3.289,9.711 1.253,6.108 5.639,5.639 7.361,2.819 9.397,1.723 2.819,0.47 11.434,1.879 11.746,1.88 15.506,1.253 8.614,2.819 15.662,4.855 13.47,3.603 23.023,3.759 12.217,5.168 17.698,6.578 13.313,6.265 5.168,2.506 10.964,5.639 13,7.361 16.132,7.204 19.265,1.724 14.879,-3.759 17.698,-4.855 10.338,-2.506 3.132,-0.783 11.434,0 10.964,4.072 7.831,5.795 1.566,7.36 -0.313,8.615 -13.156,9.71 -9.397,6.108 -6.422,3.289 -0.783,5.325 8.302,4.855 7.987,7.518 0,11.747 -3.445,8.771 -8.614,11.903 -4.855,13.313 -0.47,17.542 -1.097,10.023 -1.097,9.867 -3.445,4.699 -2.192,7.831 0,6.421 1.096,6.735 4.072,2.192 8.302,-1.409 7.361,0 5.638,3.289 4.072,4.072 1.253,4.854 -4.698,7.675 1.253,9.084 4.229,8.771 4.072,2.976 8.301,1.879 5.325,7.988 2.663,5.639 2.819,4.072 2.819,4.542 4.072,3.445 2.035,4.542 4.386,6.892 6.422,7.361 3.289,6.422 1.723,2.506 2.35,3.445 5.481,4.072 10.807,3.603 7.832,2.506 5.795,1.723 6.421,4.072 9.867,4.072 1.88,3.915 2.976,9.555 1.88,7.518 -0.783,8.928 -1.41,12.373 -1.879,8.614 -5.325,2.819 -5.012,3.603 -3.133,3.132 -1.88,5.325 0,10.494 0.94,13.939 2.349,12.843 -0.782,7.831 -5.173,5.642 -4.072,4.699 -6.422,2.662 -8.457,2.35 -13.939,1.566 -7.205,2.349 -7.831,10.181 -4.698,17.072 -3.76,11.746 -7.204,15.506 -5.639,8.145 -7.518,9.084 -4.699,7.361 -3.915,9.241 1.253,11.903 1.88,9.554 8.144,6.578 5.796,3.759 14.409,3.603 10.65,2.35 12.687,-0.157 8.301,-3.132 6.892,-5.952 4.542,-4.542 11.903,-3.289 10.963,0.313 13.47,4.698 4.855,6.266 -168.527,49.961 -185.755,-32.891 -25.686,18.481 -84.42,61.24 -55.288,40.095 -57.794,14.88 -140.021,36.18 -0.939,-3.289 -1.566,-2.663 -0.627,-2.506 1.41,-2.35 1.723,-3.445 0.626,-2.976 0.94,-2.35 1.723,-3.445 1.253,-3.446 0.939,-3.445 0.627,-5.639 -0.783,-4.855 0.156,-4.698 0,-3.603 -0.626,-4.386 -0.627,-6.265 0,-4.698 -0.939,-2.193 -2.819,-3.602 -2.506,-4.855 -2.976,-4.386 -1.88,-5.169 -2.976,-5.012 -0.783,-2.506 0.156,-3.603 1.566,-3.132 2.192,-3.916 2.35,-3.133 0.94,-3.132 0.313,-3.759 -1.409,-4.855 -1.566,-3.603 -0.156,-2.036 -2.036,-1.566 -2.663,-0.783 -2.192,-2.976 -1.253,-1.566 -1.41,-2.819 -0.626,-3.289 0.939,-5.325 1.566,-4.698 1.566,-3.916 0.626,-3.602 0.313,-4.386 -0.783,-1.723 -0.783,-0.783 -1.723,-2.35 -2.192,-2.036 -2.506,-2.036 -2.036,-1.097 -3.603,-2.976 -3.446,-2.662 -1.409,-1.097 -1.723,-4.072 -1.41,-5.951 -2.036,-2.977 -3.602,-2.349 -4.229,-2.193 -3.289,-1.096 -2.662,-2.036 -0.627,-2.819 -1.253,-7.831 -1.253,-3.76 -0.783,-2.506 -0.313,-2.818 0.157,-4.072 1.409,-3.289 4.229,-10.65 4.072,-7.988 4.071,-11.747 -1.253,-4.698 -2.192,-4.698 -2.819,-2.507 -0.783,-3.289 -0.313,-4.071 1.88,-2.193 2.976,-1.723 7.205,-0.47 3.603,-2.036 2.349,-7.675 0.783,-7.361 1.097,-3.759 0.939,-2.819 -1.253,-6.422 -0.156,-5.481 1.566,-6.578 3.759,-8.614 0.626,-5.481 2.193,-3.759 2.506,-5.796 1.253,-3.132 2.35,-2.35 1.409,-3.915 -1.409,-11.747 -0.627,-5.012 -2.192,-3.916 -1.566,-3.133 -2.663,-3.289 -3.759,-4.229 -1.723,-3.603 -1.724,-3.758 -0.47,-0.783 -0.627,-8.771 7.205,-14.409 4.542,-10.65 10.807,-28.506 -4.855,-10.807 -6.108,-8.458 -0.156,-0.156 -5.169,-9.397 -3.915,-5.795 -1.88,-5.952 1.253,-16.445 2.35,-7.987 7.831,-10.181 4.072,-7.518 3.916,-6.422 2.506,-2.192 1.566,-5.795 1.409,-5.169 0,-7.988 0,-7.518 -1.566,-11.12 2.976,-8.771 4.855,-11.591 4.229,-6.734 2.506,-6.108 1.566,-5.325 -1.097,-6.265 -3.289,-4.229 -3.289,-3.289 -6.578,-7.831 -3.916,-6.578 -2.976,-3.915 -4.698,-6.108 -1.566,-4.386 2.192,-14.723 1.097,-8.457 -2.35,-7.831 -4.072,-4.386 -0.939,-7.518 1.879,-6.735 0.313,-12.373 -2.192,-13.313 -8.145,-7.518 0.313,-5.012 -4.072,-6.108 1.409,-7.361 0.47,-8.927 0.627,-2.976 7.204,-5.325 3.289,-6.891 0.627,-2.506 0.783,-2.506 0.783,-3.289 3.445,-6.421 5.952,-5.795 2.192,-3.916 4.072,-2.192 6.892,-7.988 4.386,-6.108 4.542,-2.819 2.349,-2.663 1.41,-6.891 1.566,-7.518 1.096,-8.145 0.627,-5.952 1.409,-5.638 3.289,-4.699 4.072,-6.265 2.819,-3.916 1.88,-3.602 1.096,-4.542 0,-2.976 2.193,-1.566 5.012,-3.759 5.639,-4.072 3.445,-3.289 3.445,-5.325 2.506,-4.855 4.229,-3.445 0,-3.759 14.565,-8.614 9.397,-5.638 5.012,-4.229 7.832,-8.927 6.734,-2.976 12.217,-1.879 11.434,-6.108 7.831,-2.976 10.807,-1.88 9.397,-0.313 3.133,-1.41 2.662,-0.47 3.446,-0.94 1.409,-0.939 2.192,-2.036 2.35,-1.879 1.409,-0.94 4.699,-0.313 5.325,0 7.518,-2.819 6.265,-4.072 5.482,-3.289 5.481,-3.446 2.35,-2.506 5.012,0 7.518,-3.289 4.699,-1.097 2.192,-0.47 7.675,-1.253 -1.566,24.903 -0.627,15.663 -3.759,7.831 -2.819,6.892 1.41,7.674 5.481,8.301 5.325,7.832 2.663,8.144 3.915,9.867 3.759,6.422 8.614,12.53 4.546,2.343 z"
       inkscape:connector-curvature="0"
       class="DEP_04 ZON_02" /></g></svg>