<?xml version="1.0" encoding="UTF-8" standalone="no"?>
<!-- Generator: Adobe Illustrator 16.0.0, SVG Export Plug-In . SVG Version: 6.00 Build 0)  -->

<svg
   xmlns:dc="http://purl.org/dc/elements/1.1/"
   xmlns:cc="http://creativecommons.org/ns#"
   xmlns:rdf="http://www.w3.org/1999/02/22-rdf-syntax-ns#"
   xmlns:svg="http://www.w3.org/2000/svg"
   xmlns="http://www.w3.org/2000/svg"
   xmlns:sodipodi="http://sodipodi.sourceforge.net/DTD/sodipodi-0.dtd"
   xmlns:inkscape="http://www.inkscape.org/namespaces/inkscape"
   version="1.1"
   id="SvgMunicipio"
   x="0px"
   y="0px"
   width="999.992px"
   height="609.135px"
   viewBox="-48.32 118.873 999.992 609.135"
   enable-background="new -48.32 118.873 999.992 609.135"
   xml:space="preserve"
   inkscape:version="0.91 r13725"
   sodipodi:docname="MUN_ID0407.svg"><metadata
     id="metadata10"><rdf:RDF><cc:Work
         rdf:about=""><dc:format>image/svg+xml</dc:format><dc:type
           rdf:resource="http://purl.org/dc/dcmitype/StillImage" /></cc:Work></rdf:RDF></metadata><defs
     id="defs8" /><sodipodi:namedview
     pagecolor="#ffffff"
     bordercolor="#666666"
     borderopacity="1"
     objecttolerance="10"
     gridtolerance="10"
     guidetolerance="10"
     inkscape:pageopacity="0"
     inkscape:pageshadow="2"
     inkscape:window-width="682"
     inkscape:window-height="480"
     id="namedview6"
     showgrid="false"
     inkscape:zoom="0.38743463"
     inkscape:cx="499.996"
     inkscape:cy="304.5675"
     inkscape:window-x="0"
     inkscape:window-y="0"
     inkscape:window-maximized="0"
     inkscape:current-layer="svg" /><g
     id="g3"><path
       id="MUN_0407"
       d="m 684.062,150.493 1.135,0.114 1.533,-0.17 0.454,-0.17 1.249,0.511 0.17,0.567 1.136,0.341 1.191,0.17 0.682,0.794 0.284,0.738 0.057,1.192 0.341,0.455 0.908,1.646 1.078,1.192 0.454,0.965 0.228,0.568 0,1.419 -0.284,1.987 0.397,1.419 14.646,4.258 -0.341,1.192 -0.681,0.624 -0.511,1.136 -0.512,0.852 -1.476,1.589 -0.511,0.681 -0.625,1.079 0.114,0.852 0.057,0.908 -0.171,0.965 0,1.362 -0.17,1.079 0,0.227 0,0.738 -0.228,0.681 -0.624,0.397 2.327,1.533 0.682,1.362 0.511,1.192 0.228,0.852 0.397,1.816 0.681,1.249 0.171,1.249 0,1.76 0.227,1.816 0.284,1.76 0.567,1.703 0.682,1.817 0.681,1.76 0.795,1.362 1.079,2.101 0.965,0.965 0.795,1.419 0.34,0.511 1.136,0.795 1.873,1.079 1.703,0.681 1.363,0.17 3.292,-0.114 0.908,0.341 1.306,0.852 1.192,0.795 1.192,0.227 1.135,0.17 0.966,0 1.078,-0.341 1.136,-0.908 1.532,-0.397 0.738,0.113 0.113,1.533 0.512,0.738 0.624,0.568 0.341,0.284 0.965,0.17 0.567,0.057 1.192,-0.17 1.306,-0.227 1.931,-0.34 0.794,0.908 0.795,0.681 0.908,0.397 0.625,1.249 0.511,1.079 0.852,0.738 1.249,0.795 1.59,0.34 1.816,0.17 1.873,-0.284 25.83,-4.996 -0.852,3.576 -0.511,4.031 0.397,2.157 2.668,2.555 3.122,2.555 2.385,2.043 0.908,1.476 6.982,22.765 21.175,20.437 17.145,14.192 24.07,-14.646 2.839,-1.079 1.646,-0.17 5.393,2.043 4.145,1.76 3.065,0.965 1.986,1.249 1.42,0.908 2.838,2.214 1.42,2.157 0.454,2.896 0.852,2.157 1.93,1.589 1.476,1.533 1.761,2.214 1.135,1.192 -1.986,2.271 0.113,0 -0.625,2.498 -0.34,1.646 -1.703,2.157 -0.625,1.873 -0.283,2.725 -0.341,1.987 -1.192,1.306 -0.682,1.419 -0.851,0.511 -0.568,0.397 33.21,20.267 26.341,-21.118 -0.852,2.896 -0.454,5.96 0.682,2.157 1.419,2.101 1.874,3.406 0.057,0.057 2.214,3.065 1.76,3.917 -3.917,10.332 -1.646,3.86 -2.611,5.223 0.228,3.179 0.17,0.284 0.624,1.362 0.625,1.306 1.362,1.533 0.965,1.192 0.568,1.135 0.794,1.419 0.228,1.816 0.511,4.258 -0.511,1.419 -0.852,0.852 -0.454,1.135 -0.908,2.101 -0.795,1.362 -0.228,1.987 -1.362,3.123 -0.567,2.384 0.057,1.987 0.454,2.328 -0.341,1.021 -0.397,1.363 -0.283,2.668 -0.852,2.782 -1.306,0.737 -2.611,0.171 -1.079,0.624 -0.681,0.795 0.113,1.476 0.283,1.192 1.022,0.908 0.795,1.703 0.454,1.703 -1.477,4.258 -1.476,2.896 -1.533,3.86 -0.511,1.192 -0.057,1.476 0.113,1.021 0.284,0.908 0.454,1.363 0.454,2.838 0.228,1.022 0.965,0.737 1.192,0.397 1.532,0.795 1.306,0.852 0.738,1.078 0.511,2.158 0.625,1.476 0.511,0.397 1.249,0.965 1.306,1.079 0.737,0.397 0.908,0.737 0.795,0.738 0.625,0.852 0.284,0.29 0.284,0.624 -0.113,1.59 -0.228,1.306 -0.567,1.419 -0.567,1.703 -0.341,1.93 0.227,1.192 0.512,1.022 0.454,0.567 0.795,1.078 0.965,0.284 0.738,0.567 0.057,0.738 0.567,1.306 0.511,1.76 -0.113,1.362 -0.341,1.136 -0.852,1.136 -0.795,1.419 -0.567,1.136 -0.057,1.306 0.283,0.908 1.079,1.816 0.681,1.873 1.079,1.59 0.908,1.76 1.022,1.306 0.34,0.795 0,1.703 0.228,2.271 0.227,1.59 0,1.306 -0.057,1.703 0.284,1.76 -0.228,2.044 -0.341,1.249 -0.453,1.248 -0.625,1.249 -0.341,0.852 -0.227,1.079 -0.625,1.249 -0.511,0.852 0.228,0.908 0.567,0.965 0.341,1.192 -34.8,24.808 -60.517,70.508 -97.473,-76.241 -0.057,0 -2.952,0.682 -1.59,0.397 0,0 -2.895,-0.966 0,0 -1.987,0 0,0 -1.532,1.306 0,0 -1.646,2.839 0,0 -1.362,1.419 -0.058,0 -1.873,0 0,0 -1.986,-1.078 0,0 -1.646,0.284 0,0 -2.896,1.873 0,0 -1.476,1.249 -0.114,0 -3.179,-1.816 -0.057,0 -5.279,-5.621 0,-0.057 -4.429,-7.777 0,0 -2.384,-5.336 0,0 -1.079,-1.079 -0.057,0 -2.441,0.341 -0.057,0 -4.314,3.69 0,0 -2.384,4.769 0,0 -2.896,1.986 -0.057,0 -2.555,-0.34 -0.057,0 -2.555,-0.625 -0.057,0 -2.896,1.079 0,0 -3.35,0.965 -0.057,0 -3.52,-2.611 0,0 -2.157,-0.852 -0.057,0 -2.214,0.511 -0.057,0.057 -1.42,3.236 0,0 -1.703,1.419 0,0 -5.393,1.306 0,0 -3.293,1.192 0,0 -3.689,1.873 0,0 -1.646,0.965 -0.057,0 -1.874,-0.737 -0.057,0 -0.795,-2.385 0,0 -0.227,-2.101 0,0 -0.738,-1.021 -0.057,0 -2.726,-0.738 -0.057,0 -2.668,0.057 0,0 -5.053,2.441 0,0 -6.357,0.965 0,0 -3.35,-0.624 0,0 -3.009,-1.136 0,0 -2.725,-0.283 0,0 -3.577,-0.284 -4.654,-2.101 0.737,-6.188 -0.057,0 -3.009,-3.86 0,0 -2.838,-3.747 -0.058,0 -2.838,-1.306 0,0 -8.175,-2.668 0,0 -5.961,-0.966 0,0 -2.611,1.761 0,0.113 2.214,2.157 0,0 1.646,2.214 0,0.057 -1.249,1.533 -0.057,0 -9.878,-0.228 0,0 -2.157,-0.227 -0.057,0.057 -0.682,2.838 0,0 -0.227,3.35 0,0 -1.533,1.76 0,0 -2.214,2.441 0,0 -1.533,1.532 0,0 -2.668,-1.986 0,0 -1.986,-1.533 0,-0.057 0.454,-6.188 0,0 0.397,-3.974 0,-0.058 -1.022,-0.397 -0.057,0 -2.896,2.215 0,0 -3.746,0.454 0,0 -4.145,-1.136 0,0 -1.532,-1.362 0,0 0.851,-3.065 0,0 0.171,-1.76 0,-0.057 -3.065,-0.852 0,0 -3.065,-0.455 -0.057,0 -1.307,0.852 0,0 -1.76,1.987 0,0.057 -3.746,0 0,0 -3.065,-0.908 -0.047,0 -2.838,0.397 0,0.057 -3.065,1.306 0,0 -0.908,1.079 -0.058,0 -4.144,-0.625 0,0 -2.101,-0.737 -1.419,0 -27.136,-0.228 0,0 -1.079,-0.284 -61.708,-15.896 -0.057,0.058 -19.245,91.171 0,0.057 -28.726,29.464 -55.236,56.77 0,0.057 -0.227,1.76 0,0.057 1.078,1.021 0,0.057 -1.306,1.533 -0.057,0 -0.17,1.533 0.057,0.057 4.314,3.52 0.057,0 2.214,-2.214 0,0 1.078,-0.852 0.058,0 0.624,1.306 0,0.057 0.625,0.795 -0.058,0.057 -1.419,0.624 -0.057,0 -0.454,1.136 0,0.057 0.681,0.795 0,0.057 0,4.428 0.058,0.057 1.873,2.385 -3.804,-2.555 -7.607,-1.703 -3.405,-0.681 -5.563,-0.455 -8.686,-14.135 -15.215,-24.468 2.157,-4.258 -0.17,-11.694 -3.69,-14.306 1.306,-4.429 -0.057,-2.497 -0.795,-2.385 -2.101,-2.611 -0.396,-2.044 0.227,-1.646 1.703,-5.563 1.533,-1.986 0.794,-1.646 0.341,-1.816 -0.341,-2.157 -0.794,-1.362 -2.612,-3.009 -11.467,-12.149 -2.385,-2.384 -6.357,-9.594 -40.591,-2.555 -19.244,-1.42 -16.747,22.992 -29.009,42.804 -10.673,23.786 -1.477,3.293 1.42,86.119 -3.804,-1.021 -3.804,-1.477 -1.987,-1.135 -5.79,-5.394 -4.484,-6.018 -6.926,-2.839 -1.646,-0.681 -2.271,-1.306 -4.995,-4.314 -5.166,-8.175 -6.245,-2.214 -3.917,0.567 -4.995,3.236 -5.904,2.44 -5.62,1.59 -3.747,0.227 -0.965,-1.306 0.227,-3.86 -2.271,-2.214 -3.974,0.738 -3.52,2.271 -3.18,4.599 -4.144,2.725 -4.712,-1.419 -6.643,-5.394 -0.113,-2.271 0,0 0.284,-3.52 0.057,0 1.136,-3.974 0,0 1.873,-5.109 0,0 1.533,-6.245 0,0 0.624,-3.349 0,-0.057 0.908,-2.612 0,0 1.873,-3.689 0,0 1.477,-2.328 0,0 0.567,-1.248 0,0 0.454,-2.328 0,0 0.228,-1.76 0,0 0.17,-2.214 0,-0.057 -0.567,-2.611 0,0 -0.682,-2.896 0,0 -0.681,-1.987 0,0 -1.022,-2.554 -0.057,-0.058 -1.135,-1.476 0,0 -1.761,-1.931 -0.057,0 -4.258,-3.065 0,0 -5.506,-2.44 -0.057,0 -6.927,-1.817 0,0 -3.689,-0.737 0,0 -3.18,-0.228 0,0 -5.563,-0.397 0,0 -3.69,0.966 0,0 -4.258,1.078 -0.052,0 -4.655,0.454 0,0 -2.498,-0.341 0,0 -2.327,-0.454 0,0 -3.52,-1.816 0,0 -3.804,-3.122 0,0 -3.122,-3.86 0,0 -1.931,-3.065 0,0 -2.043,-3.236 0,0 -3.69,-5.733 0,0 -1.136,-3.009 0,0 -1.986,-4.996 0,0 -1.931,-6.813 0,0 -0.852,-4.03 0,0 0.397,-4.599 0,0 0.057,-2.838 0,0 1.249,-3.236 0,0 2.157,-3.235 0,0 3.009,-3.35 0,0 4.769,-4.314 0,0 2.611,-1.419 0,0 3.406,-2.328 0,-0.057 0.228,-2.781 0,0 -0.568,-4.088 0,0 -1.135,-3.576 0,0 -0.908,-1.987 -2.214,-4.598 -0.058,0 -0.794,-1.42 0,0 -1.533,-2.214 -0.057,0 -2.498,-2.043 0,0 -2.214,-1.363 0,0 -2.952,-1.191 0,0 -3.179,-0.909 0,0 -3.577,-0.737 0,0 -2.44,-0.114 0,0 -2.328,0.512 0,0 -2.271,-0.114 0,0 -2.668,-0.17 0,0 -2.385,-0.511 0,0 -2.101,-0.454 0,0 -2.497,-1.022 0,0 -1.022,-0.454 0,0 -2.157,-0.681 0,0 -2.157,-1.477 0,0 -2.781,-1.873 0,0 -3.406,-1.987 0,0 -6.643,-3.52 -0.454,-0.283 0,0 -3.974,-1.817 0,0 -1.93,-1.476 0,0 -1.192,-1.079 0,0 -0.567,-2.157 0,0 -0.114,-2.214 0,0 -0.057,-3.86 0,0 -0.17,-3.974 0,0 0.057,-3.179 0,0 -0.682,-4.145 0,0 -0.737,-2.839 -0.057,-0.057 -3.066,-7.096 0,0 -1.476,-4.371 0,0 -0.682,-2.839 0,0 -0.511,-3.179 0,0 -0.454,-4.201 0,0 -0.852,-6.018 0,0 -0.738,-3.86 7.721,0 14.477,-6.982 11.694,1.59 0.965,0 5.678,-2.555 6.642,-5.109 1.59,-4.145 -4.769,-6.982 -0.966,-5.053 0,-3.52 3.804,-6.018 5.109,-7.38 4.996,-6.302 5.109,-5.393 4.371,-3.86 -0.966,-5.109 0,-5.053 0,-6.415 1.306,-10.787 -0.34,-7.947 1.93,-5.734 0.397,-4.712 2.157,-3.86 3.86,-4.314 3.917,-3.633 0.625,-5.847 6.357,-10.162 4.542,-4.485 7.267,-2.441 6.018,-2.328 3.86,-7.38 1.249,-6.642 0,-6.472 -8.346,-16.463 -9.026,-9.48 -1.646,-6.699 0.397,-8.629 3.86,-5.393 13.512,-5.62 8.742,-0.454 7.551,-0.17 5.336,-1.703 3.406,-2.384 1.873,-2.384 1.646,-3.35 1.192,-2.952 0.341,-2.328 -0.795,-2.498 -0.454,-2.157 -0.057,-0.397 -0.284,-2.498 -0.397,-2.328 0.284,-2.668 1.191,-1.59 1.987,0 2.441,0.057 2.043,-1.022 1.76,-1.249 3.35,-1.079 2.328,-0.284 3.917,1.873 2.214,0.795 2.214,0.738 1.873,-0.738 1.817,-0.454 2.611,-0.113 1.703,0 1.021,-0.738 1.533,-2.101 0.567,-2.157 1.192,-1.873 0.965,-1.022 1.873,-0.568 2.441,-0.567 2.441,-0.397 0.624,0.17 0.965,0 1.987,1.419 1.419,0.284 2.044,-0.624 1.816,-1.079 2.498,-2.271 1.021,-1.93 2.328,-1.533 3.633,-2.838 1.079,-1.533 0.17,-1.817 0.284,-1.419 0.737,-2.328 1.136,-1.362 2.044,-0.568 2.611,0.34 2.101,0.795 2.271,0.625 1.59,-0.34 0.908,-0.511 1.476,-1.703 1.192,-1.533 0.908,-2.725 0.284,-1.533 -0.397,-1.646 -0.454,-1.363 -0.852,-1.589 -0.795,-1.76 0.113,-1.987 -0.567,-1.59 -0.567,-1.703 -0.966,-1.816 -0.34,-1.874 -0.058,-1.533 0.568,-1.93 -0.284,-1.079 -1.078,-1.76 -0.909,-3.065 0.455,-2.044 -0.341,-1.93 -0.171,-2.271 0.057,-2.441 0.966,-1.987 1.532,-0.965 2.441,-0.909 2.555,-1.249 3.689,-1.76 1.646,-1.476 1.42,-1.589 2.838,-1.533 1.931,-0.852 2.611,-0.454 1.476,0.397 1.59,0.908 2.271,1.362 4.145,2.101 1.646,0.908 2.385,0.17 1.76,-0.397 0.965,-1.135 0.171,-1.419 0.511,1.76 0,0 0.397,1.419 0,0 0,3.236 0,0 0.17,2.498 0,0.057 0.511,1.249 0,0 1.362,2.271 0,0.057 1.987,10.275 0,0 5.961,4.258 0.057,0 5.563,6.074 0,0 5.79,1.817 0.057,0 9.765,3.804 0,0 3.122,3.349 0,0 4.939,8.97 0,0.057 1.76,7.153 0,0 3.122,13.228 0,0 6.926,7.664 0,0 37.468,11.865 0,0 1.987,0.795 14.987,5.563 86.913,32.358 1.363,0.511 0.057,0 4.995,-1.135 0,0 1.703,-3.179 0,0 1.306,-3.86 0,-0.057 1.931,-1.987 0,0 0.283,-3.123 0,0 -0.227,-1.816 0,0 1.93,-1.362 0,0 1.533,-1.817 0.057,0 0.852,-0.284 0,0 1.987,-0.454 0,0 0.908,-0.795 0,-0.057 0.454,-2.838 0.057,0 1.249,-0.568 0.057,0 1.192,0.454 0,0 1.532,1.362 0,0 2.839,2.555 0,0 3.52,1.703 0.057,0 2.044,0.057 0.057,0 2.101,-1.021 0.057,0 2.498,-2.782 0,0 3.009,-0.625 0,0 2.838,-1.079 0,0 2.555,-1.987 0,0 3.123,-6.813 3.576,-4.542 0,0 2.668,-3.009 0,0 3.293,-1.703 0.057,0 4.371,-0.908 0,0 6.528,-2.555 0,0 4.542,-3.804 0,0 3.235,-2.271 0.057,0 4.769,0 0,0 1.307,0.454 0.057,0 1.646,1.703 0,0 3.803,4.258 0,0 3.35,3.917 0,0 5.223,8.118 2.214,3.463 0,0 3.236,6.301 0,0 3.576,8.629 0,0 3.236,10.445 0.057,0.057 3.747,2.271 0.057,0 2.327,-0.738 0.057,-0.057 5.791,-5.563 0,-0.057 13.795,-3.293 0,0 4.03,-1.589 17.712,-7.096 0,0 8.856,-4.031 0,0 13.624,-0.795 0,0 5.791,-4.769 0,0 8.118,-4.882 1.248,-0.738 3.18,-1.93 0.057,-0.057 0.625,-2.157 0,-0.057 -1.817,-5.677 0,0 -0.737,-4.769 0,0 1.362,-10.105 0,0 1.76,-20.04 0,0 5.733,-8.288 0,-0.057 0.228,-4.257 0,0 -2.101,-9.253 0,-0.057 1.532,-4.258 0.057,0 2.044,-9.083 2.782,-12.035 0,0 2.214,-5.28 0.057,0 1.987,-8.402 0.057,0 0.283,-10.673 50.185,-9.253 -0.341,1.306 -0.228,1.646 0.568,1.249 0.397,1.135 0.113,1.817 0.454,1.306 0.511,1.249 1.362,0.965 1.987,0.738 0.567,0.795 0.625,1.363 0.965,1.192 1.021,0.738 0.228,0.624 0.341,1.646 0.624,1.646 0.852,0.852 1.816,1.021 1.363,0.454 1.021,1.646 1.306,2.328 0.682,1.249 1.873,0.965 0.852,0.681 1.192,0.454 1.703,0.284 1.249,0.511 1.476,0.568 1.249,0.794 1.021,0.284 1.025,0.113 z"
       inkscape:connector-curvature="0"
       class="DEP_04 ZON_02" /></g></svg>