<?xml version="1.0" encoding="UTF-8" standalone="no"?>
<!-- Generator: Adobe Illustrator 16.0.0, SVG Export Plug-In . SVG Version: 6.00 Build 0)  -->

<svg
   xmlns:dc="http://purl.org/dc/elements/1.1/"
   xmlns:cc="http://creativecommons.org/ns#"
   xmlns:rdf="http://www.w3.org/1999/02/22-rdf-syntax-ns#"
   xmlns:svg="http://www.w3.org/2000/svg"
   xmlns="http://www.w3.org/2000/svg"
   xmlns:sodipodi="http://sodipodi.sourceforge.net/DTD/sodipodi-0.dtd"
   xmlns:inkscape="http://www.inkscape.org/namespaces/inkscape"
   version="1.1"
   id="SvgMunicipio"
   x="0px"
   y="0px"
   width="1000.008px"
   height="894.602px"
   viewBox="64.679 117.957 1000.008 894.602"
   enable-background="new 64.679 117.957 1000.008 894.602"
   xml:space="preserve"
   inkscape:version="0.91 r13725"
   sodipodi:docname="MUN_ID0430.svg"><metadata
     id="metadata10"><rdf:RDF><cc:Work
         rdf:about=""><dc:format>image/svg+xml</dc:format><dc:type
           rdf:resource="http://purl.org/dc/dcmitype/StillImage" /></cc:Work></rdf:RDF></metadata><defs
     id="defs8" /><sodipodi:namedview
     pagecolor="#ffffff"
     bordercolor="#666666"
     borderopacity="1"
     objecttolerance="10"
     gridtolerance="10"
     guidetolerance="10"
     inkscape:pageopacity="0"
     inkscape:pageshadow="2"
     inkscape:window-width="682"
     inkscape:window-height="480"
     id="namedview6"
     showgrid="false"
     inkscape:zoom="0.26380447"
     inkscape:cx="500.004"
     inkscape:cy="447.30099"
     inkscape:window-x="0"
     inkscape:window-y="0"
     inkscape:window-maximized="0"
     inkscape:current-layer="svg" /><g
     id="g3"><path
       id="MUN_0430"
       d="m 619.14,166.116 11.642,1.754 0.159,0 2.552,-3.03 0,0 8.611,-3.667 0,-0.16 7.973,-1.116 0.159,0 8.611,2.552 0,0 10.525,0 0,-0.16 4.943,-5.581 0,0 3.667,-2.392 0.16,0 8.61,1.275 0,0 8.611,2.392 0,0.16 -0.479,4.943 0,0 -2.392,8.611 0,0 4.306,3.827 0,0 11.641,3.189 0,0 10.525,-1.275 0,0 8.132,-6.219 0.16,0 2.87,1.116 0,0.159 -1.116,11.163 0,0 -1.275,17.381 0,0.16 5.581,4.306 0,0 7.495,5.581 0,0 4.306,-4.306 0,0 6.219,-6.857 0,0 4.306,-4.943 0,0 0.638,-9.409 0,0 1.914,-7.973 0.159,-0.159 6.06,0.638 0,0 27.747,0.638 0.159,0 3.509,-4.305 0,-0.16 -4.625,-6.219 0,0 -6.219,-6.06 0,-0.319 7.335,-4.943 0,0 16.744,2.71 0,0 22.963,7.495 0,0 7.974,3.668 0.159,0 7.974,10.524 0,0 8.451,10.844 0.159,0 -2.072,17.382 13.076,5.9 125.021,115.613 0,0.159 61.554,98.23 10.365,16.425 0,0 -0.159,0.16 -15.628,-1.914 -134.589,-17.382 -0.159,0.16 -51.986,132.356 17.701,17.859 184.501,186.894 -192.315,41.143 0,0 -0.956,0.797 -9.568,10.047 -52.783,54.855 -136.343,96.955 -63.467,44.97 -106.204,-46.404 -77.66,-93.128 -120.874,-32.531 -79.893,-21.368 -0.159,-0.159 0,0 -59.321,-96.637 -73.035,-54.378 -5.263,-6.697 -0.159,-0.159 0,-12.438 0,-0.159 -1.914,-2.232 0,-0.16 1.276,-3.189 0.159,0 3.986,-1.754 0.16,-0.159 -1.755,-2.232 0,-0.159 -1.754,-3.668 -0.159,0 -3.03,2.392 0,0 -6.219,6.22 -0.159,0 -12.12,-9.888 -0.159,-0.159 0.479,-4.306 0.159,0 3.668,-4.306 0,-0.159 -3.029,-2.87 0,-0.159 0.638,-4.944 0,-0.159 155.159,-159.465 80.689,-82.763 0,-0.159 54.057,-256.105 0.16,-0.16 173.339,44.65 3.029,0.797 0,0 76.225,0.638 3.987,0 5.9,2.074 0,0 z"
       inkscape:connector-curvature="0"
       class="DEP_04 ZON_02" /></g></svg>