<?xml version="1.0" encoding="UTF-8" standalone="no"?>
<!-- Generator: Adobe Illustrator 16.0.0, SVG Export Plug-In . SVG Version: 6.00 Build 0)  -->

<svg
   xmlns:dc="http://purl.org/dc/elements/1.1/"
   xmlns:cc="http://creativecommons.org/ns#"
   xmlns:rdf="http://www.w3.org/1999/02/22-rdf-syntax-ns#"
   xmlns:svg="http://www.w3.org/2000/svg"
   xmlns="http://www.w3.org/2000/svg"
   xmlns:sodipodi="http://sodipodi.sourceforge.net/DTD/sodipodi-0.dtd"
   xmlns:inkscape="http://www.inkscape.org/namespaces/inkscape"
   version="1.1"
   id="SvgMunicipio"
   x="0px"
   y="0px"
   width="885.259px"
   height="1000.079px"
   viewBox="64.888 117.818 885.259 1000.079"
   enable-background="new 64.888 117.818 885.259 1000.079"
   xml:space="preserve"
   inkscape:version="0.91 r13725"
   sodipodi:docname="MUN_ID0402.svg"><metadata
     id="metadata10"><rdf:RDF><cc:Work
         rdf:about=""><dc:format>image/svg+xml</dc:format><dc:type
           rdf:resource="http://purl.org/dc/dcmitype/StillImage" /></cc:Work></rdf:RDF></metadata><defs
     id="defs8" /><sodipodi:namedview
     pagecolor="#ffffff"
     bordercolor="#666666"
     borderopacity="1"
     objecttolerance="10"
     gridtolerance="10"
     guidetolerance="10"
     inkscape:pageopacity="0"
     inkscape:pageshadow="2"
     inkscape:window-width="682"
     inkscape:window-height="480"
     id="namedview6"
     showgrid="false"
     inkscape:zoom="0.23598136"
     inkscape:cx="442.62949"
     inkscape:cy="500.03949"
     inkscape:window-x="0"
     inkscape:window-y="0"
     inkscape:window-maximized="0"
     inkscape:current-layer="svg" /><g
     id="g3"><path
       id="MUN_0402"
       d="m 906.675,161.069 43.472,36.946 -10.177,64.268 -11.062,68.471 2.544,10.729 1.438,7.19 1.881,7.522 -0.222,2.102 -1.549,4.646 -1.438,2.544 0.331,2.323 5.311,10.509 2.986,5.973 -3.208,4.867 -0.664,1.659 -0.774,2.434 0.111,1.88 3.65,10.287 -0.332,9.845 2.876,8.075 0.553,2.766 0.664,3.539 0.442,13.164 -58.516,128.978 -7.633,16.703 -1.327,5.531 -1.438,11.282 -2.434,22.234 -4.203,8.406 -7.079,2.213 -2.434,4.756 0.663,4.425 1.438,5.089 -2.766,5.53 3.098,3.872 -4.093,12.057 -0.442,2.876 -2.103,3.318 -2.654,3.208 -0.774,4.535 0,2.213 1.659,3.649 -0.332,2.323 53.096,131.965 -2.986,0.222 -0.222,0 0,0 -12.057,-1.438 -5.089,9.182 0.554,0.773 3.65,0.222 1.549,2.323 2.433,3.208 2.103,1.659 0.442,3.761 -0.554,3.208 -2.876,3.871 -1.105,1.77 -1.438,2.434 -1.88,3.54 -2.545,3.872 -0.774,3.318 -0.995,3.981 -0.553,3.208 0.442,5.421 0,4.424 -2.545,3.762 -4.978,3.429 -1.88,1.991 -2.213,2.766 -3.097,2.654 -1.991,0.553 -3.43,0.332 -3.207,2.323 -3.319,4.757 -3.207,2.876 -0.774,-0.111 -1.549,-0.221 -3.65,-3.318 -4.646,-3.982 -2.766,-3.761 -3.098,-2.434 -3.761,-1.881 -5.42,-1.105 -6.637,0.995 -4.425,0.885 -3.098,1.991 -2.766,1.549 -1.659,3.539 -2.212,2.766 -1.327,2.434 -4.093,1.438 -1.659,2.876 -1.881,5.088 -0.664,1.438 -1.88,3.539 -4.978,3.54 -2.876,1.549 -3.762,1.991 -2.322,1.991 -5.199,1.327 -5.088,-1.659 -4.094,0 -3.207,1.217 -5.31,2.765 -5.31,0.111 -2.102,-0.885 -3.872,-3.43 -2.544,-0.885 -3.982,-3.208 -2.766,-3.429 -2.986,-0.222 -2.986,2.434 -1.549,1.327 -4.535,-0.553 -3.54,0.332 -2.323,1.327 -2.102,1.881 -4.203,0.332 -3.208,0.553 -3.208,0.995 -2.654,2.876 -1.549,1.771 -3.429,-0.332 -2.987,-2.213 -2.434,-3.981 -3.539,-3.65 -2.434,-5.642 0.332,-4.646 -95.13,200.215 -14.27,-77.1 -4.646,-21.902 -10.065,-43.251 -16.925,-72.343 -3.649,-17.477 -12.832,-51.658 3.54,-2.322 7.301,-1.881 5.53,-0.332 3.761,-0.553 2.655,-2.766 0.885,-5.088 1.217,-5.31 0.995,-5.421 1.106,-4.424 -0.442,-4.204 -0.222,-4.093 0,-3.871 1.106,-3.761 1.659,-4.536 4.314,-6.083 4.313,-5.199 3.319,-3.65 2.433,-2.323 1.217,-5.088 2.766,-4.425 3.761,-4.757 2.323,-3.539 0.11,-3.65 -0.995,-3.65 0.222,-4.757 0.11,-3.54 0.995,-2.102 3.098,-4.093 1.991,-1.77 1.438,-2.323 1.438,-1.77 2.434,-0.885 2.986,-0.885 0.885,-1.659 -0.442,-4.536 -1.217,-4.756 -0.664,-2.102 -1.438,-2.213 -0.664,-3.65 -0.221,-2.986 0.553,-1.327 4.978,-3.65 3.43,-1.991 2.544,-2.655 1.438,-2.544 0.774,-3.097 0.554,-4.093 0.11,-4.314 2.654,-2.102 6.748,-3.54 4.093,-2.986 -0.332,-2.766 -2.654,-2.322 -2.103,-2.323 -2.654,-2.213 -2.876,-3.097 -1.549,-1.77 -0.885,-1.549 -1.549,-4.204 -1.77,-1.105 -4.646,-2.766 -2.103,-1.77 0.996,-4.093 2.654,-1.771 5.752,0.222 3.872,-1.217 -0.996,-6.748 0.332,-2.322 0.111,-1.217 0.221,-3.208 -0.885,-3.43 -1.549,-3.097 0,-4.757 -0.221,-3.097 0,-1.549 -1.771,-0.553 -1.106,-1.328 -2.433,-0.885 -1.328,-0.442 -0.553,-1.991 -1.106,-2.323 -2.876,-2.876 -0.885,-2.322 -0.774,-2.766 2.655,-3.208 0.331,-2.323 -1.438,-2.102 -2.434,-1.217 -2.654,-0.332 -1.991,-1.77 -1.328,-4.203 -0.663,-4.203 -0.111,-2.876 -1.327,-3.098 -1.327,-2.655 -0.885,-1.438 -1.106,-1.438 -0.663,-2.544 0.11,-3.097 -0.554,-2.655 -1.548,-2.102 -5.199,-1.991 -1.77,-1.659 -1.549,-2.434 -2.434,-1.659 -1.327,-2.323 -2.877,-1.548 -3.649,-2.434 -3.762,-4.757 -2.654,-3.54 -2.434,-4.646 -0.442,-3.761 -1.881,-2.766 -0.774,-1.881 -0.221,-3.761 -0.664,-1.327 -2.766,-1.991 -2.212,-1.991 -1.77,-2.323 -2.102,-1.105 -2.877,-0.554 -3.097,0 -1.881,-0.442 -2.102,-1.991 -2.323,-1.327 -4.313,-0.995 -1.77,-0.664 -2.876,0.664 -2.213,0.332 -1.659,-1.106 -2.876,-1.881 -2.766,-1.549 -1.659,-1.438 -1.438,-0.222 -1.881,0.886 -2.212,1.659 -0.774,0 -3.098,-0.442 -2.544,-2.434 -1.991,-0.774 -1.659,-1.438 -1.327,-1.217 -1.881,-2.212 -2.212,-2.323 -1.659,-0.885 -1.881,0 -2.323,-0.664 -1.327,-0.774 -2.876,-0.221 -2.766,0.221 -1.659,1.217 -2.986,-0.442 -2.102,-0.331 -4.425,0.995 -0.664,0.11 -2.544,0.332 -3.871,1.881 -0.774,1.105 -84.4,-99.997 -34.954,-41.37 -3.318,-0.996 -268.563,-82.956 0,-0.111 -0.222,-2.212 0,-2.102 0.11,-0.11 2.213,-1.328 1.991,-1.217 0.774,-0.996 0.553,-0.995 0,-0.111 0,-2.323 0,-2.434 -0.11,-3.318 0,-3.098 0,-2.876 -1.549,-3.872 -0.11,-2.655 2.654,-2.765 2.655,-1.217 3.097,-1.217 4.757,-0.996 1.105,-0.664 1.217,-1.991 1.438,-1.659 0.442,-0.553 0.553,-0.885 0.996,-1.328 0.995,-0.11 1.438,0 3.761,2.876 2.434,2.544 0.222,7.743 1.216,2.102 1.438,5.42 3.871,-2.323 3.762,-1.66 3.761,-1.106 2.654,-0.553 2.213,0.111 3.539,1.217 5.863,-1.217 2.212,0.996 2.213,0.332 6.084,-0.222 9.623,-0.332 15.818,2.434 -0.554,-4.425 1.991,-2.102 2.766,-2.544 3.982,-0.996 6.194,-1.106 1.659,-1.77 1.659,-1.438 4.203,-1.327 0.996,-1.106 1.991,-1.88 4.313,-1.327 2.876,-2.102 3.43,-4.314 14.712,3.761 2.544,0 9.07,1.991 3.872,-1.216 1.105,-0.996 2.545,-5.531 1.99,-5.31 2.103,-3.429 1.438,-1.991 66.259,0.553 77.873,77.874 -4.866,7.854 -2.876,3.097 -0.996,3.65 1.438,3.65 2.102,1.659 2.434,0 2.986,0.332 2.544,0.774 3.54,2.544 2.323,1.328 1.548,2.544 0,1.549 1.881,-1.438 0.442,1.217 1.659,0.774 1.771,-1.991 4.313,-0.111 2.876,0.664 2.102,0.996 1.549,0.553 0.664,-0.885 0,-1.217 0.11,-1.106 0.995,-0.442 1.217,-0.11 1.771,-0.332 1.105,-0.332 1.659,-0.332 3.098,0.885 2.654,1.328 2.434,0.995 0.774,0.222 1.991,1.548 1.217,0.774 1.327,1.217 1.438,1.438 0.995,0.221 1.549,0.332 2.102,1.217 1.549,1.217 0.774,1.991 0.774,0.774 1.659,0.553 1.77,0.11 1.217,0.221 2.323,0.664 0.664,0.11 0.774,0 2.544,-0.221 1.991,0.332 2.654,0.664 4.314,2.102 2.212,0.885 1.659,0 4.867,1.328 3.65,0.664 2.102,0.774 2.766,1.328 1.991,1.327 1.327,1.106 0.995,0.443 1.659,0.221 1.328,-0.553 0.663,-1.217 0.332,-1.438 0,-1.217 0.664,-2.212 0.221,-3.65 0.222,-1.548 0.885,-1.77 0.332,-1.548 0.221,-0.885 0.886,-1.88 1.438,-1.438 0.222,-1.106 0.221,-1.217 0.553,-0.553 1.106,-0.111 2.434,0.664 1.881,0.664 2.434,-0.111 1.327,-0.332 0.442,-0.996 1.327,-2.212 0.442,-0.996 0.332,-1.549 0.442,-1.77 0.442,-1.77 0.554,-0.996 0.553,-3.208 0.332,-1.438 0.332,-1.217 0.442,-1.217 3.761,-2.434 3.65,-1.549 2.434,-0.885 3.318,0.11 0.664,0.996 0.11,1.106 -0.774,1.548 -1.106,1.328 -0.663,1.106 0.11,0.885 1.659,1.549 1.991,1.106 1.991,0.332 3.65,0.332 1.77,-0.111 1.438,-0.664 0.664,0.664 0.11,1.106 0.222,0.774 0.332,1.66 3.429,4.424 1.106,2.987 2.323,2.655 2.433,1.106 2.103,-0.664 1.217,-1.659 0.774,-3.318 0.553,-1.991 1.659,-1.88 2.212,-0.111 1.881,0 1.881,0.553 1.88,0.553 2.544,0.443 2.987,0.332 3.539,0.111 1.328,-1.438 0.663,-3.65 0.222,-3.65 0,-0.221 0,-0.221 -0.222,-4.204 -0.221,-1.77 -0.442,-1.549 -0.774,-1.548 -1.328,-1.217 -1.659,-2.323 0.774,-1.106 1.217,-0.996 1.771,-0.774 6.194,-1.106 4.756,-0.664 3.65,-0.664 2.655,-1.77 0,-2.212 -0.332,-2.323 -0.332,-3.208 -1.106,-3.65 -0.885,-3.982 0.111,-2.655 0.995,-1.88 1.991,-0.996 1.881,0.111 0.773,0 1.106,0 1.549,0 3.429,-0.221 2.876,-0.553 3.318,-0.996 2.876,-1.88 1.881,-1.106 1.991,-0.221 1.881,0 2.765,2.655 1.549,0.996 1.217,0.442 2.213,0.664 2.986,-0.443 0.553,-1.106 -0.11,-1.327 -0.442,-0.996 -0.996,-0.885 -0.221,-0.664 0.664,-0.664 0.995,-0.996 3.54,-1.438 3.429,0 2.876,0.774 3.318,-0.332 2.986,-0.442 4.314,-0.221 3.429,0.553 2.213,1.106 1.88,1.106 2.545,0.774 2.322,-0.996 3.54,-0.885 3.761,-0.332 3.54,-1.327 0.995,-1.77 0.996,-0.553 1.88,1.106 1.217,1.991 2.213,2.102 1.991,0.996 1.77,0.332 1.659,0.222 1.106,1.88 0.885,2.544 1.217,3.429 1.438,1.327 4.867,-1.438 3.318,-1.438 2.323,-1.438 3.872,-3.318 2.212,-0.664 1.327,0.11 1.881,0.222 1.77,0 2.102,-0.664 0.664,-1.217 0,-1.327 -0.996,-0.996 -1.99,-0.774 -1.217,-0.664 -0.664,-1.438 0.553,-1.77 1.438,-1.659 1.77,-1.88 3.208,-2.655 4.203,-3.318 4.425,-3.54 3.43,-4.093 2.544,-4.093 3.208,-4.093 1.659,-1.659 1.77,-1.106 5.199,-1.77 1.659,-1.327 0.332,-1.66 -1.881,-1.548 -1.77,-0.111 -1.991,-0.664 -0.442,-0.996 0.11,-1.991 0.332,-1.548 -0.554,-2.766 0,-1.548 0.664,-1.217 2.655,-1.659 1.88,-0.221 1.217,-0.222 2.323,-1.106 5.199,-3.982 4.424,-0.553 1.549,-0.332 3.318,-2.212 2.655,-1.327 2.766,-0.553 0.995,0.111 0.995,0.332 -0.11,5.199 1.549,2.544 2.876,4.093 3.65,-0.221 2.654,-0.332 2.876,-1.549 2.323,-2.876 2.213,-3.761 2.212,-1.659 2.986,-1.217 2.545,0.443 2.102,-0.221 1.88,-1.106 0.664,-1.438 0.774,-1.88 0.663,-1.549 1.771,-0.11 3.097,1.438 2.544,1.438 2.545,0.332 3.982,-2.766 3.097,-2.655 2.102,-2.212 1.327,-1.327 2.655,-0.885 3.208,-0.11 1.991,0.332 4.535,0.111 3.65,1.659 2.102,-1.991 0.663,-1.77 0.774,-1.549 0.886,-1.327 0.11,-1.991 1.77,-2.987 0.996,-2.986 0.995,-2.987 1.77,-1.88 1.771,-2.434 2.544,-2.544 3.54,-3.65 2.102,-2.544 0.663,-2.323 0.664,-2.434 -1.217,-2.102 -0.222,-2.212 1.106,-2.987 1.327,-2.986 0.664,-5.089 40.817,26.659 19.583,16.591 z"
       inkscape:connector-curvature="0"
       class="DEP_04 ZON_02" /></g></svg>