<?xml version="1.0" encoding="UTF-8" standalone="no"?>
<!-- Generator: Adobe Illustrator 16.0.0, SVG Export Plug-In . SVG Version: 6.00 Build 0)  -->

<svg
   xmlns:dc="http://purl.org/dc/elements/1.1/"
   xmlns:cc="http://creativecommons.org/ns#"
   xmlns:rdf="http://www.w3.org/1999/02/22-rdf-syntax-ns#"
   xmlns:svg="http://www.w3.org/2000/svg"
   xmlns="http://www.w3.org/2000/svg"
   xmlns:sodipodi="http://sodipodi.sourceforge.net/DTD/sodipodi-0.dtd"
   xmlns:inkscape="http://www.inkscape.org/namespaces/inkscape"
   version="1.1"
   id="SvgMunicipio"
   x="0px"
   y="0px"
   width="636.517px"
   height="999.992px"
   viewBox="64.514 117.768 636.517 999.992"
   enable-background="new 64.514 117.768 636.517 999.992"
   xml:space="preserve"
   inkscape:version="0.91 r13725"
   sodipodi:docname="MUN_ID0401.svg"><metadata
     id="metadata10"><rdf:RDF><cc:Work
         rdf:about=""><dc:format>image/svg+xml</dc:format><dc:type
           rdf:resource="http://purl.org/dc/dcmitype/StillImage" /></cc:Work></rdf:RDF></metadata><defs
     id="defs8" /><sodipodi:namedview
     pagecolor="#ffffff"
     bordercolor="#666666"
     borderopacity="1"
     objecttolerance="10"
     gridtolerance="10"
     guidetolerance="10"
     inkscape:pageopacity="0"
     inkscape:pageshadow="2"
     inkscape:window-width="682"
     inkscape:window-height="480"
     id="namedview6"
     showgrid="false"
     inkscape:zoom="0.23600189"
     inkscape:cx="318.25851"
     inkscape:cy="499.996"
     inkscape:window-x="0"
     inkscape:window-y="0"
     inkscape:window-maximized="0"
     inkscape:current-layer="svg" /><g
     id="g3"><path
       id="MUN_0401"
       d="m 359.624,118.068 2.339,0.959 2.818,-0.959 0.84,-0.3 0.479,0.06 0.6,0.78 0.72,0.959 1.199,0.42 0.96,-0.06 1.858,-0.48 1.859,-0.42 1.619,-0.12 1.919,0.42 1.26,0.54 1.079,0.479 1.079,0.66 1.979,1.139 1.319,0.72 1.199,0.12 0.899,-0.359 1.14,-1.319 1.259,-2.039 0.54,-0.84 0.54,-0.419 1.499,0.24 1.619,0.06 0.54,0.3 0.18,1.439 -0.3,4.018 -0.6,3.059 0.18,1.739 1.079,1.199 1.92,1.739 1.199,0.54 1.619,0.3 1.799,-0.899 2.998,-2.039 1.02,0.18 0.36,1.14 -0.36,1.919 -2.339,3.418 -1.679,2.699 -0.96,2.818 0.3,2.639 0.78,1.319 0.84,0.66 2.099,-0.18 1.14,-0.24 0.959,-1.439 0.899,-1.799 0.84,-3.118 0.899,-0.84 2.339,0.66 2.099,0.66 3.119,0.42 3.777,0.6 2.399,1.319 2.339,0.66 2.578,0.12 1.439,0 1.68,1.379 1.738,0.18 2.039,-1.5 0.66,-1.439 0.6,-0.899 0.3,-0.6 1.199,-0.18 0.779,1.979 1.14,3.478 1.979,2.219 3.118,1.739 2.219,0.9 3.059,0.24 2.639,-0.06 2.099,0.72 2.579,-0.24 1.799,-0.06 0.659,0.6 1.439,0.66 1.859,0 1.739,-0.06 1.799,0 1.56,-0.72 1.379,-0.419 2.699,0.839 1.858,0.66 1.14,1.439 0.72,1.979 0.779,1.619 0.96,0.54 0.899,0 0.6,-0.479 0.42,-1.08 0.42,-0.54 1.379,0 1.26,-0.419 1.139,0.12 2.399,2.039 1.679,1.379 1.439,1.02 1.979,0.899 2.099,1.379 2.639,2.159 1.919,0.959 2.099,0 2.639,-0.479 2.519,-0.48 0.061,0 0.779,0.06 2.579,0.54 2.758,0.54 1.319,1.259 1.56,0.54 2.938,0.6 3.059,0.3 3.238,-0.06 2.879,-0.18 1.858,0.42 1.68,0.36 1.858,-0.66 2.1,0.3 1.259,-0.18 1.619,-1.439 1.2,-0.54 1.858,-0.12 1.26,0.3 2.818,1.319 1.079,0.36 1.919,-0.66 2.039,-0.6 2.519,-0.42 1.56,-0.66 1.38,-0.479 2.338,0.839 2.039,1.439 55.112,42.398 18.95,40.12 69.925,148.245 -6.356,8.216 -60.09,76.881 -17.871,23.028 7.437,19.01 13.433,34.243 22.129,56.491 -49.715,77.421 19.251,15.112 32.323,25.427 2.459,14.152 4.077,22.489 -4.197,27.646 -11.634,16.852 -25.308,36.521 -27.706,40 -12.594,51.873 -4.857,20.27 -1.379,1.859 -2.219,0.899 -0.78,1.079 -0.72,0.78 -2.278,0.72 -2.159,2.099 -0.779,1.199 -1.319,1.08 -1.619,0.659 -2.039,0.54 -0.3,2.938 -0.3,2.998 -0.18,1.08 -1.38,1.438 -0.06,1.8 -0.18,1.559 -0.54,1.14 -0.72,0.54 -0.84,0.239 -0.539,1.14 0.359,1.199 0.479,1.02 -0.359,0.78 -1.02,0.06 -0.72,-0.3 -0.359,0.359 0,1.5 -0.36,0.659 -0.479,0.6 -0.42,0.54 0.06,1.858 -1.619,2.159 -0.659,2.639 -0.12,2.219 0.84,0.72 0.239,0.96 -1.858,0.359 -0.899,-0.18 -0.84,0.479 0.42,1.319 -0.66,1.199 -0.899,0.9 -0.12,1.199 2.1,3.298 0.359,1.199 -1.14,2.459 -0.959,1.619 0.479,3.838 -0.24,4.139 1.5,4.677 1.319,3.239 1.139,2.998 1.5,1.079 1.079,0.42 0.84,1.859 -0.72,0.42 -0.72,1.02 0.359,2.219 -0.659,1.14 -2.519,1.079 -0.12,1.199 -0.061,0.24 0.84,1.739 0.061,1.199 -1.26,0.659 -2.579,-0.539 -1.858,0.899 -0.3,1.499 0.359,0.84 2.159,1.559 0.06,0.72 -2.039,1.199 -0.06,1.08 0.72,0.899 1.079,1.259 -0.3,1.439 -0.72,1.199 -1.02,0.84 -1.559,-0.3 -1.199,0.54 -0.24,0.959 -0.6,0.96 -0.479,1.739 0.359,1.02 0.659,0.42 1.08,0.419 0.779,1.38 0.24,1.379 0.959,0.84 2.1,0.06 1.319,-0.539 1.079,0.18 1.26,1.079 0.119,2.759 0.78,1.02 0.839,0.6 0.96,1.26 0.12,1.199 -0.899,2.099 -0.181,1.079 1.2,1.56 0.479,1.68 -0.36,1.379 -0.18,0.899 0.6,2.698 -1.02,2.52 -0.239,2.398 1.199,1.919 1.559,1.079 1.92,0.84 4.018,0.24 2.279,1.379 0.899,1.26 1.379,0.72 3.538,0.539 3.719,1.439 3.058,2.999 0.899,3.538 -0.119,1.499 -4.198,-3.658 0,0 -3.298,-0.779 0,0 -4.738,-0.899 0,0 -4.317,-1.979 -5.757,-2.639 0,0 -3.539,-1.739 0,-0.06 -2.458,-0.42 0,0 -3.599,-1.919 -0.06,0 -4.558,-3.838 0,0 -2.1,-1.739 0,0 -5.637,-5.877 0,0 -3.958,-4.318 0,0 -4.258,-4.797 0,0 -4.978,-5.218 0,0 -3.179,-3.179 0,0 -4.317,-3.598 0,0 -2.579,-2.759 0,0 -2.639,-2.339 0,0 -15.352,-14.452 -34.963,-48.695 -73.462,1.199 -20.33,-72.264 -17.931,-70.344 -0.3,-20.149 -1.02,-75.563 -82.578,-61.229 -12.953,-35.922 -29.745,-82.518 -25.967,-43.598 -91.453,-72.983 -12.834,-10.255 19.431,-92.893 1.319,-6.537 -3.299,-29.565 -5.877,-3.718 0,0 -11.754,-5.037 0,0 -11.274,-4.738 -0.06,0 -9.235,-6.836 0,0 -2.818,-2.639 -1.8,-1.739 0,0 -1.259,-1.499 0,0 -1.319,-5.997 0,0 -0.479,-4.018 0,0 -1.5,-8.396 2.639,-0.12 2.039,-0.06 1.5,0 1.259,-0.36 0.96,-1.199 0.959,-1.02 0.42,-1.02 1.379,-1.919 0.48,-1.199 0.659,-1.739 0.479,-0.66 0.42,-1.439 0.54,-1.439 0.72,-1.5 1.199,-1.139 1.26,-0.66 1.799,-0.959 2.879,-1.2 1.919,-0.899 2.339,-1.02 1.619,-0.72 0.959,-0.779 0.36,-0.66 0,-0.959 -0.181,-1.5 -0.18,-1.499 -0.06,-1.2 0.6,-0.899 1.439,-1.319 1.858,-1.139 2.399,-1.56 1.979,-1.02 3.719,-1.319 2.398,-0.779 1.979,-0.54 2.279,-1.079 2.398,-1.199 2.519,-1.2 1.56,-0.54 2.039,-0.84 1.739,-0.419 2.698,-1.319 2.279,-1.2 1.979,-0.959 2.039,-1.319 1.619,-0.899 2.339,-0.78 2.339,-0.839 1.679,-0.06 2.639,0.42 2.699,0 3.059,-0.06 1.619,0.06 2.398,-0.48 0.3,-0.06 2.938,1.5 4.618,0.24 2.639,-0.779 2.818,-1.02 3.059,0.06 2.099,-0.12 2.159,-0.06 1.439,-1.679 1.379,-1.02 2.278,-0.36 2.279,-0.479 2.099,-0.42 1.14,-0.06 0.6,-0.54 0.24,-1.02 -0.48,-1.439 -0.959,-3.178 -0.779,-1.559 -0.96,-1.26 -0.899,-0.839 -1.739,-0.54 -1.439,-0.24 -1.139,0 -0.66,0.54 -0.84,-0.06 -0.539,-0.66 0.239,-0.66 0.72,-0.959 -0.12,-1.379 0.181,-0.42 0.6,-0.54 1.139,-0.24 0.54,-0.42 0.54,-1.08 0.72,-0.479 2.458,-0.18 3.658,-0.899 2.579,-0.42 3.179,-0.899 2.458,-0.899 1.319,-1.02 0.66,-1.259 1.079,-0.72 1.08,-0.3 1.259,1.08 2.219,2.878 1.26,1.919 0.54,1.919 0.06,1.14 0.659,0.479 1.2,0.24 2.039,1.919 1.438,0.959 2.159,0.18 1.499,-0.54 1.8,-1.259 2.158,-0.84 2.699,-0.839 2.278,-0.54 2.519,0.12 2.22,-0.959 2.818,-2.519 1.858,-1.56 0.24,-1.739 -0.18,-1.319 -1.38,-0.6 -2.878,-1.08 -1.199,-0.9 -0.12,-1.499 1.02,-1.319 4.258,-2.818 2.878,-1.26 1.14,-1.019 0.54,-0.66 0.06,-1.439 0.479,-0.959 0.84,-0.6 0.84,0 1.079,1.079 0.061,1.439 0.239,1.02 1.14,2.219 0.36,1.439 1.438,2.399 0.84,1.499 2.039,2.219 1.56,1.859 0.839,1.739 0.181,1.379 -1.8,1.859 -1.139,1.379 0.119,1.14 0.72,1.319 1.919,1.319 1.56,1.319 1.859,2.099 1.858,2.159 1.08,1.619 0.359,3.059 0.061,1.799 1.079,2.399 1.799,1.739 2.339,0.54 3.658,-0.36 4.737,0.24 1.439,-0.72 1.799,0.18 0.96,-1.379 0.659,-4.138 0.12,-2.279 -0.959,-1.319 -1.8,-0.18 -3.418,-0.66 -1.02,-1.499 -0.12,-1.919 0.96,-1.139 0.84,-1.619 -0.181,-2.159 0.96,-1.859 2.339,-1.919 1.56,-1.439 0.719,-1.379 0.24,-2.159 -1.56,-4.438 -0.899,-3.479 0.54,-2.279 1.079,-3.059 1.38,-1.919 1.979,-1.979 1.319,-2.159 0,-2.159 1.08,-2.579 2.818,-1.979 1.799,-0.3 3.418,1.439 2.339,1.499 1.739,0.12 0.479,-0.54 0,-2.999 1.2,-1.619 3.178,-3.479 1.919,-2.099 3.599,-2.639 2.278,-1.799 1.739,-1.799 3.599,-1.56 2.219,-0.959 2.578,-0.899 2.279,-2.339 2.099,-1.799 2.818,-1.139 2.459,0.18 3.059,1.559 1.56,0.959 1.319,-0.3 0.899,-1.14 -0.42,-1.02 -1.38,-1.559 -1.079,-0.66 -5.157,-1.319 -3.658,-0.72 -3.179,-0.779 -3.298,-0.66 -1.26,-0.54 0.061,-1.319 0.18,-0.24 0.659,-1.08 6.117,-6.597 0.54,-1.319 -0.48,-1.859 -1.259,-1.979 -0.18,-1.679 1.02,-1.319 1.799,-1.379 1.499,-0.479 2.818,0.06 3.838,1.799 4.438,1.14 3.238,0 2.219,-1.619 2.998,-2.879 1.439,-1.199 2.099,0.3 1.5,-0.24 2.219,-2.039 0.959,-1.499 0.6,-1.979 1.2,-0.3 1.379,0.719 2.879,2.399 3.178,1.739 2.818,0.42 0.9,-0.18 0.659,-4.198 -0.42,-4.378 -0.659,-2.458 -1.14,-2.039 -0.06,-1.319 1.259,-0.84 2.286,0.302 z"
       inkscape:connector-curvature="0"
       class="DEP_04 ZON_02" /></g></svg>