<?xml version="1.0" encoding="UTF-8" standalone="no"?>
<!-- Generator: Adobe Illustrator 16.0.0, SVG Export Plug-In . SVG Version: 6.00 Build 0)  -->

<svg
   xmlns:dc="http://purl.org/dc/elements/1.1/"
   xmlns:cc="http://creativecommons.org/ns#"
   xmlns:rdf="http://www.w3.org/1999/02/22-rdf-syntax-ns#"
   xmlns:svg="http://www.w3.org/2000/svg"
   xmlns="http://www.w3.org/2000/svg"
   xmlns:sodipodi="http://sodipodi.sourceforge.net/DTD/sodipodi-0.dtd"
   xmlns:inkscape="http://www.inkscape.org/namespaces/inkscape"
   version="1.1"
   id="SvgMunicipio"
   x="0px"
   y="0px"
   width="999.963px"
   height="777.983px"
   viewBox="64.83 117.985 999.963 777.983"
   enable-background="new 64.83 117.985 999.963 777.983"
   xml:space="preserve"
   inkscape:version="0.91 r13725"
   sodipodi:docname="MUN_ID0415.svg"><metadata
     id="metadata10"><rdf:RDF><cc:Work
         rdf:about=""><dc:format>image/svg+xml</dc:format><dc:type
           rdf:resource="http://purl.org/dc/dcmitype/StillImage" /></cc:Work></rdf:RDF></metadata><defs
     id="defs8" /><sodipodi:namedview
     pagecolor="#ffffff"
     bordercolor="#666666"
     borderopacity="1"
     objecttolerance="10"
     gridtolerance="10"
     guidetolerance="10"
     inkscape:pageopacity="0"
     inkscape:pageshadow="2"
     inkscape:window-width="682"
     inkscape:window-height="480"
     id="namedview6"
     showgrid="false"
     inkscape:zoom="0.30334854"
     inkscape:cx="499.98151"
     inkscape:cy="388.99149"
     inkscape:window-x="0"
     inkscape:window-y="0"
     inkscape:window-maximized="0"
     inkscape:current-layer="svg" /><g
     id="g3"><path
       id="MUN_0415"
       d="m 468.307,119.347 1.733,0.372 1.856,3.095 0.743,2.476 -0.743,4.457 -1.114,7.181 1.733,5.571 2.848,4.581 4.581,4.085 3.466,2.724 4.952,2.476 3.715,1.362 1.485,3.095 1.485,3.59 0.619,3.095 -0.124,4.209 -1.361,2.104 -3.343,-0.99 -2.6,-3.219 -2.229,-2.848 -1.981,-1.486 -1.238,1.114 0.619,2.229 1.238,6.19 2.229,15.104 5.447,1.981 2.477,0.99 3.466,-0.619 2.601,2.229 3.59,1.733 4.209,-0.867 5.819,-4.828 6.81,-4.086 3.219,-4.828 4.333,-3.343 2.848,-3.219 1.856,-2.6 3.343,0 4.086,-0.743 1.609,-2.476 5.942,-0.495 2.972,2.104 5.447,1.857 3.59,0.867 2.724,0 1.981,-1.238 3.095,1.857 2.353,1.609 2.6,1.609 2.6,0.496 2.477,-0.248 1.361,-3.714 0.743,-1.733 3.467,-1.733 2.352,-1.485 0.867,-1.609 1.733,-2.229 3.095,-0.248 2.6,0.248 2.601,2.476 3.219,2.847 3.466,0.248 3.343,0.371 3.096,4.085 4.209,6.066 4.581,5.324 6.686,2.848 8.666,3.838 7.552,3.714 6.562,4.085 4.086,2.724 2.353,3.961 1.485,4.209 1.485,3.59 2.724,1.733 1.486,2.229 0.99,2.476 0.866,2.848 2.477,0 3.838,-0.248 1.98,0.124 1.857,0.371 1.856,1.981 1.733,1.486 2.229,0.248 2.229,-0.619 0.99,0 1.486,0.372 1.609,2.104 1.98,0.867 1.362,0 2.229,1.609 1.485,1.981 1.733,3.59 1.485,3.342 3.095,1.857 4.21,0.248 3.095,-1.857 3.467,-0.496 3.343,1.857 1.114,0.619 3.219,1.238 3.219,-2.353 2.229,-2.104 6.19,-1.733 1.856,-4.209 1.114,-3.838 3.838,-4.333 3.343,-2.352 1.733,-2.848 4.705,-1.609 0.742,2.104 2.972,-3.838 21.294,-0.99 0.124,0 6.81,7.923 0,0 11.637,9.286 0,0 12.628,6.438 0,0 7.676,0 0.124,0 3.343,2.848 0,0.124 0,6.19 0,0 -2.848,5.942 0,0.124 3.838,4.209 0,0.124 2.848,0.99 0.124,-0.124 7.676,-8.171 0,0 8.79,-7.924 0,0 2.848,-0.495 0.124,0 6.686,4.457 0,0 4.828,0 0.124,0 5.323,-6.314 0,0 1.98,-5.324 0,0 2.848,-2.847 0,-0.124 4.333,1.857 0.124,0.124 2.848,7.676 0,0 2.476,10.895 0,0 5.324,5.324 0,0 5.818,1.981 0,0 3.343,2.476 0.124,0 5.323,-4.457 0,0 3.838,-3.838 0.124,0 7.057,2.476 0,0 3.467,1.362 0,0 8.419,-3.59 0,0 12.132,-5.324 0,0 9.904,1.238 0,0 5.324,1.362 0.124,0.124 -0.495,4.828 0,0.124 -4.705,7.428 0,0.124 0.248,4.085 0,0 1.237,4.085 0,0 1.857,1.486 0.124,0 2.971,-3.095 0,0 2.105,-1.733 0,0 2.104,0 0.124,0 3.838,3.838 0.123,0.124 2.229,3.095 0.124,0 3.095,2.229 0,0 4.705,0 0,0 2.104,0.495 0,0.124 0.495,1.857 0,0.124 -0.247,5.2 0,0.124 2.228,2.353 0,0 6.81,2.724 0,0 3.095,2.104 0,0.124 1.981,2.476 0,0 -1.981,5.571 0,0.124 0.248,4.209 0.124,0.124 5.447,2.848 0.124,0 6.189,-0.867 0,0 3.962,-2.476 0,0 3.096,-0.991 0.123,0.124 2.724,1.857 0.124,0 1.114,2.6 0,0.124 0.743,7.552 0,0 2.6,4.828 0.124,0.124 10.647,6.809 0,0 3.343,2.724 0.123,0 2.105,3.59 0.123,0.124 6.934,1.857 0.123,0 4.705,3.962 0.124,0 6.685,11.266 0,0 0,6.809 0,0 0.248,6.438 0,0 3.219,6.066 0,0.124 7.057,5.819 0,0 5.324,4.085 0,0 3.095,3.467 0,0 0.619,1.98 0,0.124 -3.095,3.961 0,0 -0.619,1.981 0,0.124 -0.248,3.219 0,0 0.371,4.209 0,0 0,2.972 0,0 -1.485,3.219 0,0 0,3.096 0,0.123 2.477,4.333 0,0 0.866,3.838 0,0.124 -3.095,12.628 0,0 0,6.686 0,0 -0.248,6.066 0,0 -4.581,9.78 0,0.124 -7.428,10.152 0,0 -8.171,3.095 0,0 -7.8,1.857 0,0 -4.704,8.047 -2.105,3.343 0,0 0.248,9.533 0,0.123 3.095,4.829 0.124,0 4.209,5.818 0,0 6.19,4.209 0,0 3.343,0.619 0.124,0 5.076,-0.371 0,0 2.229,0.248 0.123,0 2.353,1.98 0,0.124 -1.856,4.209 0,0 1.113,4.209 0,0 3.096,3.962 0.124,0 4.085,0.248 0.124,0 8.914,-0.743 0.124,0 4.704,1.238 0.124,0 2.476,3.59 0.124,0 -0.742,9.781 0,0 -1.362,7.181 -0.124,0 -1.857,1.856 -0.123,0.124 -4.952,2.848 -0.124,0 -1.98,8.295 0,0 -1.362,13.742 -0.124,0 -3.343,2.971 0,0 -5.075,0.248 0,0 -2.972,0 0,0 -3.591,3.095 0,0.124 -1.361,5.323 0,0 -1.114,3.838 0,0.124 0.247,6.438 0,0 6.81,11.886 0,0 0,8.047 0,0 0.248,8.543 0,0 -0.372,7.304 0,0.124 1.733,4.581 0,0 1.114,4.086 0.124,0.123 -0.743,3.838 0,0 -0.742,5.076 0,0.124 2.724,7.428 -10.771,0.124 -10.646,-1.238 -10.523,-0.742 -4.829,0.247 -3.342,0.124 -7.8,0.866 -6.19,1.114 -9.285,4.21 -8.543,1.238 -7.923,0.247 -5.076,0.124 -4.457,0 -1.361,-0.124 -3.838,-0.371 -2.229,-0.248 -5.695,1.114 -2.477,1.609 -4.704,0.99 -5.695,2.229 -5.323,2.601 -7.429,3.838 -3.219,1.485 -6.933,3.095 -2.972,1.61 -3.095,1.485 -6.81,3.838 -1.609,1.238 -7.304,4.828 -5.2,3.095 -4.581,2.972 -3.095,2.848 -2.972,1.98 -4.952,6.314 -5.323,6.066 -4.333,5.942 -1.609,1.361 -4.333,5.2 -5.695,4.085 -5.323,3.838 -3.591,1.486 -4.209,0.866 -3.838,-0.247 -3.714,-1.238 -6.81,-3.714 -2.477,-1.486 -4.952,-3.219 -5.323,-2.229 -5.571,-0.866 -5.447,-1.114 -6.313,-1.238 -6.314,-0.866 -4.085,0.371 -4.457,0.99 -5.324,0.371 -2.971,0.867 -4.21,1.98 -3.095,1.733 -1.98,0.867 -5.571,3.961 -2.724,3.591 -2.972,4.333 -4.333,5.818 -2.104,2.229 -3.219,4.333 0,0.124 -2.477,3.096 0,0 -0.866,0.619 0,0 -4.086,1.361 0,0 -4.952,0.371 0,0 -5.2,-0.495 0,0 -4.951,-1.733 -0.124,0 -4.333,-1.237 0,0 -2.848,-0.124 0,0 -4.457,0 0,0 -9.409,0.99 0,0 -6.438,2.229 0,0 -3.838,3.219 0,0 -5.695,5.076 0,0 -7.552,6.313 -0.99,0.743 0,0 -13.866,8.914 0,0 -9.162,6.81 0,0 -8.418,5.199 -0.124,0 -8.79,3.591 0,0 -21.418,8.542 0,0 -8.79,4.333 0,0 -4.086,3.219 0,0 -5.447,2.477 0,0 -5.818,2.104 0,0 -8.048,2.6 0,0 -7.552,2.972 -0.124,0 -3.095,1.98 -0.124,0.124 -15.723,-1.485 0,0 -13.124,-1.485 0,0 -11.019,-1.61 0,0 -9.037,-4.085 0,0 -19.562,-14.732 0,0 -9.78,-6.934 0,0 -19.065,-9.532 0,0 -6.066,-3.343 0,0 -16.838,-1.733 -6.562,-0.867 0,0 -14.732,-0.99 0,0 -15.228,2.477 0,0 -10.523,2.229 0,0 -7.429,3.466 0,0 -9.904,0.743 0,0 -21.17,4.209 0,0 -7.552,4.581 0,0 -15.6,6.438 0,0 -11.267,3.715 0,0 -7.428,1.609 0,0 -9.904,5.323 0,0 -10.771,4.828 0,0 -19.686,10.771 0,0 -10.522,5.323 -0.124,0 -20.181,16.837 0,0 -7.428,8.048 0,0 -6.933,11.142 -6.563,10.647 0,0 -9.285,11.514 0,0 -7.428,3.591 0,0 -1.733,1.361 -0.124,0 -19.313,0 -0.124,0 -8.542,-0.742 -0.124,0 -7.305,-3.715 -0.123,0 -17.704,-5.199 0,0 -28.847,-5.447 0,0 -7.181,-1.486 0,0 -9.037,-3.961 0,0 -14.609,-0.867 0,0 -8.418,3.095 0,0 -7.924,6.066 0,0 -5.076,3.343 -1.361,0.991 -0.743,-21.171 0,0 8.79,-39.122 0,0 11.514,-52.369 6.066,-15.104 15.104,-23.399 8.79,-11.761 7.057,-16.466 11.638,-9.286 4.828,-24.142 -1.485,-3.343 -0.372,-9.532 2.477,-12.505 -6.066,-14.484 -4.952,-9.533 -2.477,-13.866 0.248,-14.98 -0.619,-9.78 3.962,-17.085 2.476,-8.295 5.571,-8.666 2.6,-7.305 2.848,-10.895 2.229,-17.828 -0.247,-8.913 -0.372,-8.914 -4.209,-15.104 -3.962,-12.752 -16.713,-27.607 106.471,-224.085 -0.371,5.2 2.724,6.314 3.962,4.085 2.724,4.457 3.343,2.476 3.838,0.371 1.733,-1.981 2.971,-3.219 3.591,-1.114 3.59,-0.619 4.705,-0.371 2.352,-2.105 2.601,-1.485 3.961,-0.372 5.076,0.619 1.733,-1.486 3.343,-2.724 3.343,0.248 3.095,3.838 4.457,3.59 2.848,0.991 4.333,3.838 2.353,0.99 5.942,-0.124 5.942,-3.095 3.59,-1.362 4.581,0 5.695,1.857 5.818,-1.486 2.601,-2.228 4.209,-2.229 3.219,-1.733 5.571,-3.962 2.104,-3.961 0.743,-1.609 2.104,-5.695 1.857,-3.219 4.58,-1.609 1.486,-2.724 2.476,-3.095 1.857,-3.962 3.095,-1.733 3.467,-2.229 4.952,-0.991 7.428,-1.114 6.066,1.238 4.21,2.104 3.466,2.724 3.096,4.209 5.199,4.457 4.086,3.714 1.733,0.248 0.866,0.124 3.591,-3.219 3.714,-5.324 3.59,-2.6 3.838,-0.372 2.229,-0.619 3.467,-2.971 2.476,-3.095 2.105,-2.229 5.57,-3.838 2.848,-4.209 0,-4.952 -0.495,-6.066 0.619,-3.59 1.114,-4.457 0.866,-3.714 2.848,-4.333 2.104,-3.962 1.61,-2.724 1.237,-1.981 3.219,-4.333 0.619,-3.59 -0.495,-4.209 -2.353,-1.857 -2.724,-3.59 -1.732,-2.6 -4.086,-0.248 -0.619,-0.867 5.695,-10.276 13.494,1.609 0,0 0.248,0 3.333,-0.245 z"
       inkscape:connector-curvature="0"
       class="DEP_04 ZON_02" /></g></svg>