<?xml version="1.0" encoding="UTF-8" standalone="no"?>
<!-- Generator: Adobe Illustrator 19.2.0, SVG Export Plug-In . SVG Version: 6.00 Build 0)  -->

<svg
   xmlns:dc="http://purl.org/dc/elements/1.1/"
   xmlns:cc="http://creativecommons.org/ns#"
   xmlns:rdf="http://www.w3.org/1999/02/22-rdf-syntax-ns#"
   xmlns:svg="http://www.w3.org/2000/svg"
   xmlns="http://www.w3.org/2000/svg"
   xmlns:sodipodi="http://sodipodi.sourceforge.net/DTD/sodipodi-0.dtd"
   xmlns:inkscape="http://www.inkscape.org/namespaces/inkscape"
   version="1.1"
   id="SvgMunicipio"
   x="0px"
   y="0px"
   viewBox="0 0 1000 572.2"
   style="enable-background:new 0 0 1000 572.2;"
   xml:space="preserve"
   inkscape:version="0.91 r13725"
   sodipodi:docname="MUN_ID0427.svg"><metadata
     id="metadata10"><rdf:RDF><cc:Work
         rdf:about=""><dc:format>image/svg+xml</dc:format><dc:type
           rdf:resource="http://purl.org/dc/dcmitype/StillImage" /></cc:Work></rdf:RDF></metadata><defs
     id="defs8" /><sodipodi:namedview
     pagecolor="#ffffff"
     bordercolor="#666666"
     borderopacity="1"
     objecttolerance="10"
     gridtolerance="10"
     guidetolerance="10"
     inkscape:pageopacity="0"
     inkscape:pageshadow="2"
     inkscape:window-width="682"
     inkscape:window-height="480"
     id="namedview6"
     showgrid="false"
     inkscape:zoom="0.409"
     inkscape:cx="500"
     inkscape:cy="286.10001"
     inkscape:window-x="0"
     inkscape:window-y="0"
     inkscape:window-maximized="0"
     inkscape:current-layer="svg" /><g
     id="g3"><path
       id="MUN_0427"
       d="m 322.3,30.8 25.2,2.9 71.9,-1.6 216.4,-5.1 49.6,12 186.8,44.2 6,13.4 5.4,10 3.4,3.3 0.8,8.9 2.9,3.7 0.8,7.1 -4.1,5.5 -2.1,4.3 -0.1,5.4 0.9,2.5 2.8,0.8 0.9,1.7 0.8,2.5 3,1.6 2.4,1.6 1.6,2.1 0.4,3.7 1.2,3 -0.9,5.1 0.8,2.8 -0.7,5.1 0.7,3.9 1.6,2.8 4.3,4.7 0.3,3.8 1.7,2.1 3,1.7 2.4,2.4 2.2,2.5 0.7,2.9 -0.7,3.3 0,3.3 0.4,2.9 0.9,2.6 0.9,3.4 1.3,2 2.4,0.9 3.8,1.2 4.2,2.6 2.6,1.7 1.7,1.6 1.6,1.8 3.5,0.9 1.6,1.3 3.8,3.9 3.1,0.9 2.8,2.6 3.8,1.6 2.6,1.2 5.2,-1.3 5.9,-1.6 3.1,-0.3 5.2,1.8 3.7,1.8 5.6,5.9 9,6.6 12.1,10.2 11,11.3 8,11.8 6.6,9 4.3,9.4 1.2,6.4 1.3,8.9 -4.3,0.7 0,0 -1.7,0.3 0,0 -2,-0.1 0,0 -1.8,0.5 -1.3,0 -1.4,0.1 0,0 -2.4,0.5 0,0 -2.4,0.7 0,0 -2,0.9 0,0 -2.1,0.9 0,0 -2.1,0.9 0,0 -2.6,0.8 0,0 -2.4,1.4 0,0 -3.3,1.4 0,0 -1.7,0.5 0,0.1 -2,0.9 0,0 -2.6,1.2 0,0 -3.1,1.4 0,0 -3.8,1.2 0,0 -1.7,0.8 0,0 -1.7,0.8 0,0 -2.5,0.9 0,0 -1.7,0.9 -0.1,0.1 -5.4,1 0,0 -2.6,0.5 0,0 -1.6,1.4 0,0 -2.2,1.4 0,0 -2.4,1.2 0,0.1 -2.1,1.3 0,0 -2.6,0.8 0,0 -2.4,0.9 0,0 -2.6,0.4 0,0 -2.8,0 0,0 -3,0.7 0,0 -3.3,0.4 0,0 -2.1,0.3 0,0 -3.3,1.2 0,0 -4.1,2.1 -0.1,0 -2.8,0 0,0 -4.3,0.7 0,0 -3.9,2.2 0,0.1 -5.9,2.1 -0.1,0 -5.6,-0.4 0,0 -4.6,1.2 0,0 -3.5,0 0,0 -3.1,-0.4 0,0 -3.7,0.5 0,0 -3.9,0.1 0,0 -4.3,0.3 0,0 -3.7,0.1 0,0 -3.3,0.5 0,0 -3.1,0.8 0,0 -3.5,0.9 0,0 -3,0.7 0,0 -2.9,0.9 0,0 -2,0.5 0,0 -3.3,1.3 0,0 -2.6,0.7 0,0 -3.7,1 0,0 -3.5,1.4 0,0.1 -4.2,2 0,0 -4.7,2.5 -0.3,0 -1.8,1.6 0,0 -3.5,2.8 0,0 -1.6,1.3 0,0 -2,2.5 0,0.1 -2.6,1.8 0,0 -0.4,0.4 0,0 -2,1.8 0,0 -1,2.4 0,0 -1.7,2.5 0,0 -3.8,3.9 -3.5,5 0,0 -1.8,2.4 0,0 -3.1,2.8 0,0.1 -3,1.6 0,0 -2,1.3 -0.1,0 -2.9,1.2 0,0 -1.8,1.4 0,0 -2.2,1.6 0,0 -4.1,3.4 0,0 -1.8,0.9 0,0 -2.5,1.2 0,0 -0.1,0.1 0,0 -3.8,2.4 0,0 -4.2,1.8 0,0 -6.8,1.6 0,0 -3.9,0.8 0,0 -6,0.3 -2.6,-0.7 -7.7,-2.1 -0.1,0 -8.5,-6.3 0,0 -7.9,-8.4 0,0 -11.5,-5.1 0,0 -11.8,-5.4 -0.1,0 -0.3,-0.1 -21.5,-4.2 0,0 -5.8,-0.4 0,0 -9.6,-3.3 -0.1,0 -6.7,-3.1 0,0 -11.9,-3 0,0 -10.2,0.4 0,0 -7.6,3 0,0 -6.7,5.9 0,0 -12.7,12.6 0,0 -10.5,13 0,0 -6,11.7 0,0 -14.3,19.7 0,0 -8.8,12.6 0,0 -6.9,12.8 0,0 -5.2,12.8 0,0 -12.1,26.7 0,0 -5.9,9.8 0,0 -10,17.6 0,0 -12.7,17.4 0,0 -14.3,13.6 0,0 -9.8,8.8 0,0 -9.2,5.8 0,0 -16.7,4.1 -0.1,0 -5.9,0 0,0 -12.3,-1.4 -0.1,0 -13.4,-13 0,0 -6.2,-9 0,0 -7.1,-12.7 0,-0.1 -9.7,-7.7 0,0 -6.8,-4.1 0,0 -5.9,-1.2 0,0 -10.4,-4.1 0,0 -6.4,0.5 -16.8,1.4 0,0 -23.6,3.3 -0.1,0 -9.7,0.3 -32.9,0.9 0,0 -18.1,-4.6 0,0 -10.5,-3.5 0,0 -19.5,-3 0,0 -12.3,-5.8 0,0 -17,-6.9 0,0 -4.9,-0.9 0,0 -7.6,0.4 0,0 -6.4,1.7 0,0 -7.7,3 0,0 -5.8,3 -0.1,0 -5.4,6.3 0,0 -3.3,7.5 -15.5,-0.9 -11.5,-2 -10.2,-3.4 -9.6,-5.6 -6,-6.4 -4.2,-4.2 -4.2,-3.7 -2,-1.6 -2.1,-1 -1.4,-0.9 -1.6,-1.8 -1.2,-2.6 -0.5,-0.9 -1.8,-2.1 -1.4,-1.4 -1.7,-1.3 -2.5,-0.8 -2,-0.4 -2.5,-0.9 -3.3,0 -1.8,0.1 -2.1,-0.5 -1.7,-0.8 -2,-2.2 -1.3,-2.2 -1.2,-1.4 -2,-0.7 -1.4,0 -2,0.9 -1,1.2 -1.6,1.4 -2,0.5 -1.4,0 -0.9,-1 -0.4,-1.7 -0.3,-2 0,-2.2 -0.5,-0.7 -0.8,-0.7 -0.3,-0.1 -1.7,0.3 -1.6,1 -2,1.2 -1.3,0.5 -2.4,-0.4 -2.8,-0.3 -2.6,-0.7 -1.8,-0.9 -1.8,-1.3 -1.6,-2.1 -1.2,-1.4 -0.5,-1.8 -1,-2 -1.2,-3.7 -1,-2.8 -0.9,-2.1 -0.7,-2.2 -0.1,-1.7 0,-3.4 -0.1,-2 0,0 -0.1,-2.8 -0.8,-1.4 -1,-3 -0.8,-3 0.1,-3.1 -0.3,-3 -0.9,-3.3 -0.5,-4.1 -0.3,-3.5 -1.4,-2.6 -1.4,-1.7 -0.8,-1.2 0.3,-1.7 0.9,-2.5 0.5,-1.8 0.5,-1.8 2.9,-1.2 2.6,-0.9 2.6,-1.3 1.2,-1.6 0.9,-3.3 0.5,-3.8 0.3,-3.4 -0.5,-4.7 -0.3,-4.1 -0.3,-2.8 1,-3.9 2.8,-2.6 1.8,-1.4 1.6,-2.4 1.6,-2.2 1.2,-2 0.4,-2 -47.5,-186 3.8,-18.1 18.7,-88.9 81.8,-59.4 86.5,-6.2 93.6,10.8 z"
       inkscape:connector-curvature="0"
       class="DEP_04 ZON_02" /></g></svg>