<?xml version="1.0" encoding="UTF-8" standalone="no"?>
<!-- Generator: Adobe Illustrator 19.2.0, SVG Export Plug-In . SVG Version: 6.00 Build 0)  -->

<svg
   xmlns:dc="http://purl.org/dc/elements/1.1/"
   xmlns:cc="http://creativecommons.org/ns#"
   xmlns:rdf="http://www.w3.org/1999/02/22-rdf-syntax-ns#"
   xmlns:svg="http://www.w3.org/2000/svg"
   xmlns="http://www.w3.org/2000/svg"
   xmlns:sodipodi="http://sodipodi.sourceforge.net/DTD/sodipodi-0.dtd"
   xmlns:inkscape="http://www.inkscape.org/namespaces/inkscape"
   version="1.1"
   id="SvgMunicipio"
   x="0px"
   y="0px"
   viewBox="0 0 1000 666.3"
   style="enable-background:new 0 0 1000 666.3;"
   xml:space="preserve"
   inkscape:version="0.91 r13725"
   sodipodi:docname="MUN_ID0419.svg"><metadata
     id="metadata10"><rdf:RDF><cc:Work
         rdf:about=""><dc:format>image/svg+xml</dc:format><dc:type
           rdf:resource="http://purl.org/dc/dcmitype/StillImage" /></cc:Work></rdf:RDF></metadata><defs
     id="defs8" /><sodipodi:namedview
     pagecolor="#ffffff"
     bordercolor="#666666"
     borderopacity="1"
     objecttolerance="10"
     gridtolerance="10"
     guidetolerance="10"
     inkscape:pageopacity="0"
     inkscape:pageshadow="2"
     inkscape:window-width="682"
     inkscape:window-height="480"
     id="namedview6"
     showgrid="false"
     inkscape:zoom="0.35419481"
     inkscape:cx="500"
     inkscape:cy="333.14999"
     inkscape:window-x="0"
     inkscape:window-y="0"
     inkscape:window-maximized="0"
     inkscape:current-layer="svg" /><g
     id="g3"><path
       id="MUN_0419"
       d="m 857.5,263.6 -0.9,3.5 0.2,2.5 0.2,3.6 0.5,4.2 -0.2,3 -0.5,3.4 -0.8,2.9 -1.1,1.4 -2.3,1.2 -2.3,0.8 -2.6,1.1 -0.5,1.6 -0.5,1.6 -0.8,2.2 -0.2,1.5 0.7,1.1 1.3,1.5 1.3,2.3 0.2,3.2 0.5,3.6 0.8,2.9 0.2,2.7 -0.1,2.8 0.7,2.7 0.9,2.7 0.7,1.3 0.1,2.5 0,0 0.1,1.8 0,3 0.1,1.5 0.6,2 0.8,2 0.9,2.5 1.1,3.3 0.9,1.8 0.5,1.6 1.1,1.3 1.4,1.9 1.6,1.2 1.6,0.8 2.3,0.6 2.5,0.2 2.1,0.4 1.2,-0.5 1.8,-1.1 1.4,-0.9 1.5,-0.2 0.2,0.1 0.7,0.6 0.5,0.6 0,1.9 0.2,1.8 0.4,1.5 0.8,0.9 1.3,0 1.8,-0.5 1.4,-1.3 0.9,-1.1 1.8,-0.8 1.3,0 1.8,0.6 1.1,1.3 1.2,2 1.8,2 1.5,0.7 1.9,0.5 1.6,-0.1 2.9,0 2.2,0.8 1.8,0.4 2.2,0.7 1.5,1.2 1.3,1.3 1.6,1.9 0.5,0.8 1.1,2.3 1.4,1.4 1.3,0.8 1.9,0.9 1.8,1.4 3.7,3.3 3.7,3.7 5.4,5.7 8.5,5 9.1,3 10.3,1.8 13.8,0.8 -0.7,5.3 0,0.1 -0.5,5.3 -0.1,5.4 0,0.1 3.7,7.7 0.1,0 5.5,6.4 0,0 7.1,6.6 0,0 1.9,13.2 0,0.1 -5.4,9.4 0,0 -8.8,11.3 -0.1,0 -7,5.4 0,0 -15.1,10.6 0,0 -8.9,7.6 0,0 -1.8,1.9 -12.4,13.2 0,0 -23,17.5 0,0 -12.2,10.8 0,0 -7.6,6.2 0,0.1 -6.8,13.6 0,0 -8.2,9.5 0,0 -4.6,11.6 0,0 -13.1,17.4 0,0 -12.8,16.6 -0.1,0.1 -12.9,4.1 0.1,0 -16.8,2.6 0,0 -19.2,-0.7 0,0 -17.1,-3 0,0 -19.2,-7 0,0 -17.7,-2.3 0,0 -29.6,2 0,0 -14.5,4.9 -13.3,6.3 -2.7,1.3 0,0 -23.5,13.8 0,0 -19.4,22.3 0,0.1 -4.9,0.4 -14.7,0.9 -0.1,0 -8.2,-6.6 0,0 -12.3,-11.1 0,0 -8.1,-9.7 0,0 0,0 0,0 -5.4,-4.7 -12.5,-10.8 0,0 -12.5,-5.5 0,0 -10.6,-1.6 0,0 -12.6,0.5 0,0 -22.6,0.5 0,0 -13,-4.1 0,0 -8.4,-6 -20.9,-14.6 0,0 -3.3,-2.5 -0.8,-0.5 -6.3,-4.7 0,0 -9.2,-4.4 0,0 -9.9,-2.5 -0.1,0 -0.6,0.4 0,0.1 -14.3,1.4 0,0 -9.4,2.8 0,0 -7.3,1.5 0,0 -9.1,1.1 -0.1,0 -6.2,2.2 0,0 -7.1,4.4 0,0 -11.6,6.8 -0.1,0 -10.9,-2.2 0,0 -8.1,-6.1 0,0 -10.9,-6 0,0 -6,-7.1 0,0 -7,-7.6 -0.1,0 -6.4,-10.4 0,0 -5.4,-8.8 0,0 -2.1,-7.4 0,0 -2.2,-8.4 0,0 -2.2,-13.1 0,0 -1.5,-7.7 0,0 -0.4,-7.6 0,0 -2.8,-12.3 0,0 -7.6,-7.3 0,0 -9.8,-1.3 -0.1,0 -13,3.3 0,0 -17.9,2.2 0,0 -10.4,1.1 0,0 -12.9,3.3 0,0 -15.3,4.9 0,0 -12.8,4.9 0,0 -11.5,3.9 0,0 -20.2,7 0,0 -13,6.6 0,0 -12.2,6.9 0,0 -13.1,10.2 0,0 -13.3,10.8 0,0 -10.8,9.4 -10.9,9.4 -0.1,0 -5.3,14.7 -0.1,0 -5.6,8.4 0,0.1 -11.3,5.8 -0.1,0 -3.4,0.9 0,0 -5.9,-0.7 0,0 -3.7,-2.1 0,0 -7.6,-1.5 -14.9,-5.1 0,0 -21.5,-4.8 0,0 -7.7,-2.8 0,0 -25.7,-11.3 39.8,-115.4 0,0 37.3,-79.4 0,-0.1 24.2,-19.1 0.1,0 11.2,-60.7 0,0 -16,-57.2 77.9,34 46.6,-33 100,-71.1 38.7,-40.2 7,-7.4 0.7,-0.6 0,0 141.1,-30.2 209.4,-55.6 80.1,-21.5 15.3,-4.1 37.9,-9.2 -16.7,79.3 -3.4,16.1 42.4,166 -0.4,1.8 -1.1,1.8 -1.4,2 -1.4,2.1 -1.6,1.3 -2.3,2.2 z"
       inkscape:connector-curvature="0"
       class="DEP_04 ZON_02" /></g></svg>