<?xml version="1.0" encoding="UTF-8" standalone="no"?>
<!-- Generator: Adobe Illustrator 16.0.0, SVG Export Plug-In . SVG Version: 6.00 Build 0)  -->

<svg
   xmlns:dc="http://purl.org/dc/elements/1.1/"
   xmlns:cc="http://creativecommons.org/ns#"
   xmlns:rdf="http://www.w3.org/1999/02/22-rdf-syntax-ns#"
   xmlns:svg="http://www.w3.org/2000/svg"
   xmlns="http://www.w3.org/2000/svg"
   xmlns:sodipodi="http://sodipodi.sourceforge.net/DTD/sodipodi-0.dtd"
   xmlns:inkscape="http://www.inkscape.org/namespaces/inkscape"
   version="1.1"
   id="SvgMunicipio"
   x="0px"
   y="0px"
   width="734.342px"
   height="999.944px"
   viewBox="64.808 117.987 734.342 999.944"
   enable-background="new 64.808 117.987 734.342 999.944"
   xml:space="preserve"
   inkscape:version="0.91 r13725"
   sodipodi:docname="MUN_ID0420.svg"><metadata
     id="metadata10"><rdf:RDF><cc:Work
         rdf:about=""><dc:format>image/svg+xml</dc:format><dc:type
           rdf:resource="http://purl.org/dc/dcmitype/StillImage" /></cc:Work></rdf:RDF></metadata><defs
     id="defs8" /><sodipodi:namedview
     pagecolor="#ffffff"
     bordercolor="#666666"
     borderopacity="1"
     objecttolerance="10"
     gridtolerance="10"
     guidetolerance="10"
     inkscape:pageopacity="0"
     inkscape:pageshadow="2"
     inkscape:window-width="682"
     inkscape:window-height="480"
     id="namedview6"
     showgrid="false"
     inkscape:zoom="0.23601322"
     inkscape:cx="367.17099"
     inkscape:cy="499.97198"
     inkscape:window-x="0"
     inkscape:window-y="0"
     inkscape:window-maximized="0"
     inkscape:current-layer="svg" /><g
     id="g3"><path
       id="MUN_0420"
       d="m 680.441,124.843 4.317,0.254 4.063,-0.254 2.92,-0.508 3.174,-1.523 3.683,-2.286 2.793,-1.396 14.728,59.291 4.189,20.06 19.425,83.033 11.554,49.642 5.332,25.138 16.378,88.492 17.14,28.313 4.063,13.076 4.316,15.489 0.381,9.142 0.254,9.141 -2.285,18.283 -2.92,11.172 -2.667,7.491 -5.713,8.887 -2.539,8.507 -4.063,17.521 0.635,10.03 -0.254,15.362 2.539,14.219 5.078,9.776 6.222,14.854 -2.54,12.823 0.381,9.775 1.524,3.429 -4.952,24.757 -11.935,9.522 -7.236,16.886 -9.015,12.062 -15.489,23.995 -6.221,15.489 -11.808,53.705 0,0 -9.014,40.119 0,0 0.762,21.71 -0.508,1.144 -2.793,6.475 0,0 -5.333,6.475 0,0.127 -7.871,26.408 0,0 -2.666,15.997 0,0 -7.11,18.917 0,0 -6.855,16.632 0,0 -7.618,16.251 0,0 -4.189,6.603 0,0 -13.712,18.028 0,0 -13.966,15.616 0,0 -4.316,5.459 0,0 -6.348,7.237 0,0 -30.344,23.233 0,0 -10.284,6.348 0,0 -15.362,7.11 0,0 -37.326,16.505 0,0 -12.569,3.047 0,0 -19.552,-0.508 0,0 -17.774,-2.158 0,0 -8.507,-2.158 0,0 -28.439,1.016 -1.27,-8.634 -1.143,-6.221 -4.189,-9.142 -6.349,-8.76 -7.744,-11.427 -10.665,-10.919 -11.681,-9.902 -8.76,-6.349 -5.459,-5.713 -3.556,-1.777 -5.078,-1.777 -3.047,0.254 -5.714,1.523 -5.078,1.27 -2.539,-1.143 -3.682,-1.523 -2.666,-2.539 -3.048,-0.889 -3.682,-3.81 -1.523,-1.27 -3.428,-0.889 -1.523,-1.777 -1.65,-1.523 -2.54,-1.65 -4.063,-2.539 -3.682,-1.143 -2.285,-0.889 -1.27,-1.904 -0.889,-3.302 -0.889,-2.539 -0.381,-2.793 0,-3.174 0.635,-3.174 -0.635,-2.794 -2.158,-2.412 -2.286,-2.285 -2.92,-1.65 -1.65,-2.031 -0.254,-3.682 -4.189,-4.571 -1.523,-2.666 -0.635,-3.809 0.635,-4.951 -0.762,-2.667 0.889,-4.951 -1.143,-2.92 -0.381,-3.555 -1.523,-2.031 -2.286,-1.523 -2.92,-1.524 -0.762,-2.412 -0.889,-1.65 -2.666,-0.762 -0.889,-2.412 0.127,-5.205 2.031,-4.19 3.936,-5.332 -0.762,-6.855 -2.793,-3.556 -0.762,-8.633 -3.301,-3.174 -5.205,-9.649 -5.841,-12.95 -180.919,-42.785 -48.118,-11.554 179.776,-32.121 134.578,-24.123 0.635,-2.285 -0.127,-3.809 0.381,-1.777 1.397,-1.396 1.396,-1.396 1.016,-1.27 1.523,-3.048 2.539,-1.65 2.285,-2.158 2.539,-1.396 0.508,-1.27 2.158,-0.635 2.54,-0.508 2.285,-0.254 1.396,-0.889 0.508,-2.031 0.762,-1.016 2.285,-0.508 3.428,-0.127 2.412,-2.032 1.144,-2.158 1.396,-5.332 2.666,-7.872 5.078,-7.998 6.349,-6.094 6.982,-5.333 8.633,-8.887 6.349,-11.554 0,-0.127 -0.635,-7.237 -9.522,-16.251 -23.233,-22.726 -6.603,-5.967 -8.252,-7.872 -23.361,-10.665 -15.362,-4.57 -15.997,-0.508 -13.711,4.316 -36.185,13.839 -16.759,5.841 -13.584,1.27 -14.601,1.904 -11.427,-1.016 -2.539,-1.65 -5.079,-4.317 -2.666,-8.633 -0.254,-11.427 0.508,-3.174 1.27,-6.982 6.983,-5.841 7.617,-4.57 10.919,-8.126 13.839,-9.014 11.173,-6.983 4.443,-7.109 0,-5.459 -0.762,-10.284 -2.158,-6.856 -4.825,-13.33 -6.094,-12.569 -5.205,-9.142 -2.286,-5.078 -1.016,-4.57 -0.254,-4.571 -1.396,-12.314 -0.381,-24.631 -0.508,-17.394 -1.27,-14.981 -1.904,-7.109 -1.016,-8.38 0.381,-9.903 2.793,-11.935 4.316,-12.442 0.89,-5.206 0.381,-11.045 2.539,-2.286 1.143,-1.27 0.889,-2.031 2.539,-6.094 3.301,-1.777 4.698,-0.508 5.459,2.158 3.428,0.381 5.586,-0.254 3.556,-0.127 4.57,0 2.666,2.666 4.443,4.825 2.158,2.539 3.047,0.889 4.444,-1.27 5.586,-2.158 5.713,-1.777 4.063,-3.301 1.523,-4.697 4.697,-2.793 4.189,1.27 4.317,3.809 5.332,7.618 5.586,7.491 4.063,4.698 3.682,1.143 1.523,-2.032 1.65,-4.57 -2.412,-8.506 -0.889,-5.586 -0.889,-5.967 -1.396,-7.745 -1.016,-4.824 -3.048,-6.475 -0.508,-6.221 0.508,-4.697 1.651,-4.063 3.809,-2.666 4.189,-0.127 8.253,-0.635 3.301,1.396 5.459,3.428 5.078,1.016 5.714,-2.031 3.428,1.27 5.459,4.698 5.206,3.301 3.682,-0.889 0.635,-0.635 1.27,-1.65 -0.381,-4.317 -1.143,-4.316 -2.666,-4.825 -3.936,-6.094 -2.921,-7.364 -0.381,-3.936 2.793,-4.571 1.905,-5.713 2.793,-2.54 6.729,0 3.936,-0.381 2.54,-1.904 4.063,-4.57 3.936,-0.381 6.729,1.016 5.586,1.777 3.809,0.635 2.793,-0.381 1.777,-1.396 2.159,-3.682 3.809,-5.84 4.443,-1.904 6.729,-3.682 5.46,-5.967 4.189,-4.952 2.412,-5.713 1.396,-5.333 -0.381,-4.825 -2.158,-4.824 -1.143,-7.237 3.682,-5.333 2.667,-2.031 8.633,0.762 5.078,0.127 7.11,0 7.744,2.412 3.048,-2.793 3.301,-4.571 2.539,-4.316 2.158,-1.27 3.682,0.635 1.523,1.016 2.412,1.016 3.048,-3.428 3.936,-5.459 1.65,-7.872 1.016,-12.569 1.396,-8.379 -0.127,-4.824 2.539,-4.952 2.54,-4.19 3.428,-2.412 3.174,-1.016 7.363,0.635 6.983,2.539 10.792,3.682 5.332,1.904 5.205,1.143 3.428,-0.127 4.19,-1.523 3.809,-2.793 8.252,-6.094 6.095,-2.539 6.855,-1.396 6.349,-1.397 6.348,-1.777 2.793,0.508 3.682,0.889 2.794,-0.508 2.92,-1.777 2.285,-2.666 4.57,-2.92 3.174,-1.27 4.825,0.762 3.047,1.65 4.316,3.936 3.815,0.496 z"
       inkscape:connector-curvature="0"
       class="DEP_04 ZON_02" /></g></svg>