<?xml version="1.0" encoding="UTF-8" standalone="no"?>
<!-- Generator: Adobe Illustrator 19.2.0, SVG Export Plug-In . SVG Version: 6.00 Build 0)  -->

<svg
   xmlns:dc="http://purl.org/dc/elements/1.1/"
   xmlns:cc="http://creativecommons.org/ns#"
   xmlns:rdf="http://www.w3.org/1999/02/22-rdf-syntax-ns#"
   xmlns:svg="http://www.w3.org/2000/svg"
   xmlns="http://www.w3.org/2000/svg"
   xmlns:sodipodi="http://sodipodi.sourceforge.net/DTD/sodipodi-0.dtd"
   xmlns:inkscape="http://www.inkscape.org/namespaces/inkscape"
   version="1.1"
   id="SvgMunicipio"
   x="0px"
   y="0px"
   viewBox="0 0 1000 1000"
   style="enable-background:new 0 0 1000 1000;"
   xml:space="preserve"
   inkscape:version="0.91 r13725"
   sodipodi:docname="MUN_ID0424.svg"><metadata
     id="metadata10"><rdf:RDF><cc:Work
         rdf:about=""><dc:format>image/svg+xml</dc:format><dc:type
           rdf:resource="http://purl.org/dc/dcmitype/StillImage" /></cc:Work></rdf:RDF></metadata><defs
     id="defs8" /><sodipodi:namedview
     pagecolor="#ffffff"
     bordercolor="#666666"
     borderopacity="1"
     objecttolerance="10"
     gridtolerance="10"
     guidetolerance="10"
     inkscape:pageopacity="0"
     inkscape:pageshadow="2"
     inkscape:window-width="682"
     inkscape:window-height="480"
     id="namedview6"
     showgrid="false"
     inkscape:zoom="0.236"
     inkscape:cx="500"
     inkscape:cy="500"
     inkscape:window-x="0"
     inkscape:window-y="0"
     inkscape:window-maximized="0"
     inkscape:current-layer="svg" /><g
     id="g3"><path
       id="MUN_0424"
       d="m 303.8,17.6 58.2,95.3 0.6,9.4 1,3.8 1.6,1.6 0.4,2.6 -0.9,2.5 1,3.7 2.4,2.5 1.4,2.4 1,3.6 0.8,3.8 0.2,3 1.8,4 -0.4,4.6 1,2.6 0,0.1 1.8,3 1.1,8.5 1.3,5.4 1.8,2 2.3,3 2.2,2.6 2.6,1.6 2.3,0.8 1.4,1.9 3.4,1.4 3,0.1 2.2,1 4.4,0.8 2.7,0.9 2,2 2.8,1 4.1,2.1 2,0.6 3.1,3.1 2.6,3.4 0.8,1.5 0.6,2.8 1.1,2 0.8,3.5 1.8,4 1.6,3.7 2.1,2.6 0.8,1.4 0.3,3.6 0.4,2 1.1,1.7 0,1.4 1.8,1 1.3,0.8 1.8,0.7 2.3,0 2.3,0.6 4.2,0.9 2,0.6 1.6,1.3 1,1.6 -2.6,2.5 -1.2,2 -0.8,2.9 -0.9,2.1 -0.4,2.4 0.2,1.7 0.8,1.2 1.3,1.4 0.2,2.3 0.1,1.8 0.6,1.1 0.1,1.3 2,1.4 1.6,0.9 1.2,0.8 2.5,-0.3 2.5,-0.2 1.4,0.4 1.1,1.2 2,1 1.1,1.5 1.4,1.2 0.6,1.9 1.7,1.6 1.5,1.4 1.9,1 3.5,-0.3 1.5,-1 0.9,-0.4 0.9,0.4 1.5,1.5 1.6,1.3 1.6,2 0.3,0.3 0.5,0.4 0.8,0.6 0.2,0.6 1.6,1.4 1.4,1.3 1.5,1.1 0.6,0.6 0.8,1.4 0.9,0.9 0.6,1.1 0.7,1.3 1.2,0.7 1.1,1.1 1.7,1.3 1.4,2.5 0.6,1.9 0.8,1.6 1.4,1.1 2.6,1 1.9,1 1,1.7 0.6,1.5 0.9,0.6 0.6,2.1 1.1,1.4 1.4,1.3 0.5,1.3 0.7,1.6 0.4,1.6 0.9,1.8 0.9,1.1 2.1,0.9 2.3,1.4 1.1,1 0.9,0 1.8,1.6 1.3,1.5 4.5,0.7 2.8,0 4.8,0.9 3.1,1.5 3.4,-0.1 3.8,0.8 3.3,-0.4 3.5,0.2 3.3,1.2 1.4,0.7 14.3,4.6 1.7,0.6 -2.3,0.9 0.3,2.8 -1.8,1.1 -2.1,0.4 -1.3,0.3 -0.9,1.2 -2.5,0.9 -1.7,0.8 -2,0.6 -1.7,0.8 -1.3,2.3 -3,1.3 -4.2,0.1 -0.9,1.6 0,3.1 1.7,1.7 -1.2,1.8 -1.7,1.1 -2.6,0.7 -0.1,0.1 -1.9,2.9 -1.7,1.6 1.3,2.8 0.5,2.4 1.8,1.4 0.6,1.8 0.9,1.9 3.4,4.8 2.2,2.1 1.8,1.8 0.8,3 1.6,3.3 0.4,2.3 1.4,2.4 1.8,3.3 0.7,2.5 0.1,1.7 -0.9,1.2 -0.8,1.4 0,0.9 0.9,1.6 0.6,1.9 -0.9,1.6 -3.1,4 -0.6,1.5 -0.6,2.3 -0.9,1.4 -0.8,0.6 -0.6,0.4 -1.6,0.3 -1.8,0.7 -0.8,1.6 -1.3,0.8 -2.2,0.4 -1.6,0.8 -1,0.3 -1,-0.2 -1.5,-0.3 -1.3,0.7 -0.6,0.8 -0.9,0.5 -1.1,0.3 -1.3,0.7 -0.6,1.4 0.8,1.1 1.4,1.4 0.6,2.1 0.9,2.6 0.4,3.3 -0.3,2 -0.8,0.3 -1.1,-0.5 -0.8,0 0,1.8 -0.3,0.9 -1.6,0.3 0.6,2 0.1,2.2 0.4,3 1.7,2.3 1.7,2.3 1.6,1.6 2.3,0.6 0.8,1.8 0.4,1.1 -0.1,2.3 0.1,1.7 0.4,1.9 0.2,1.6 -0.5,2 -0.6,1.8 -0.4,1.6 0.1,2.4 1.1,1.8 0.9,0.9 1.8,-0.1 2.1,-1.7 0.5,-1.2 1,-0.8 0.6,-0.1 0.5,0.5 -0.8,2 -0.3,1.1 -0.6,1.3 -0.6,1.4 -0.3,1.6 -1.4,1.2 -0.8,0.6 -0.8,1.2 -1,0.6 -0.3,1.3 0.3,2 0.9,3 0.4,3 -0.6,1.9 -0.5,1.9 -0.6,3.4 -0.2,3.3 -0.4,3.5 -0.3,2.1 -0.5,2 -1.5,3.1 -1.1,3.5 -0.1,3.7 0.4,1.6 -0.3,1.8 -0.5,1.3 0.4,1.7 0.8,1.6 0.4,1.6 0.8,1.1 0.1,2.1 -0.3,1.2 -0.6,2.1 -1.1,1.4 -0.9,1.3 0.3,1.2 0.9,0.8 1.6,0.6 3,1.1 1.4,0.8 1.4,0.9 0.9,1.1 0.8,2.3 0.8,0.8 2.1,0.3 2.5,0.4 1.6,0.7 1.9,2.1 0.8,1.1 4,8.6 8.3,18 -2,3.1 -24.1,39.1 0.2,3.4 0.1,4.7 -2.9,4.5 -1.8,3.4 -2.1,6.4 -1.8,3.9 -0.6,2 -2,1.5 -1.5,1.8 -0.9,1.1 -2.3,0.5 -3.5,1 -1.4,1.6 -20.7,91.1 -2,9.2 -22.8,100.1 -1.7,1.7 -0.6,1 -0.4,0.9 0.4,1.2 0.4,0.7 0.7,1.3 0,0.9 -0.2,1.2 -0.7,0.8 -0.5,1.3 -0.3,1.8 -0.1,2.3 0,4 -0.3,1.5 -1.4,1.4 -0.9,0.9 -0.6,0.6 0,1.1 -0.1,1.2 0,0.8 -0.9,0.7 -1.3,1 -0.5,0.8 -0.8,1.3 -0.3,1.1 -0.6,0.9 -1,0.6 -0.7,0.5 -1.3,1.1 -0.7,0.5 -1.4,-0.3 -1.8,-0.1 -1.2,0 -1.6,1.1 -2.1,1.3 -1.4,0.6 -1.3,0.1 -1.4,-0.4 -1.8,0.5 -0.8,0.5 -0.9,0.8 -0.4,0.6 -0.8,1.4 -0.6,2.3 -0.1,1.8 -0.6,1.4 -0.8,0.7 -1.6,0.7 -0.9,0.7 -0.8,0.6 -0.4,0.1 0.1,2.1 -0.3,1.6 -1.5,1.8 -1.7,1.2 -1.7,0.1 -2.3,-0.1 -1.4,0 -1.6,0.3 -2.3,0.8 -0.6,0.1 -0.5,-0.4 -1.4,-0.1 -0.6,0.2 -1.3,0.1 -1.3,-0.1 -0.5,0 -0.6,-0.1 -0.9,-0.3 -0.4,0.3 -0.7,1.1 -0.4,0.4 -1.1,0.4 -0.8,0.1 -3.5,-0.3 -1.6,0.7 -1.4,0.9 -1.1,0.8 -0.1,1.1 0,1.3 0.7,1.8 0.8,1.9 0.6,1.1 -0.1,1.4 -127.3,42.9 -103.7,35 0,-2.7 0.7,-2.3 1,-1.9 0.9,-1.4 1.6,-1.1 2,-1 1.4,-0.8 0.9,-0.6 0.3,-1.2 -0.1,-1.8 -0.1,-1.6 0.4,-1.3 1.2,-1.3 1.8,-2 1.4,-2.5 1,-2.5 0.9,-2.3 0,-1.4 -0.4,-2.3 -0.3,-1.8 0.1,-1.3 0.3,-1.1 1.1,-0.9 2,-1.1 2.3,-0.8 1.6,-0.8 0.9,-1.3 0.8,-2 0.3,-1.8 0.4,-3.1 0.8,-2.5 0.4,-1.9 1.1,-2.3 0.1,-1.1 0.1,-0.8 -0.6,-1.1 -0.9,-0.8 -1.4,-1.1 -1.2,-1.8 -0.7,-2.1 -0.3,-3 0.1,-1.7 -0.1,-4 0.3,-3.7 0.3,-3.1 -0.5,-2.1 -0.6,-2.4 -0.5,-2.4 -0.3,-2.1 0.7,-3.5 0.9,-3.1 0.8,-2 0.5,-3.3 0.3,-1.5 0.6,-1.1 0.3,-0.9 -0.4,-1.8 -0.4,-0.9 -0.2,-1.1 0.3,-1.4 0.8,-0.9 1.1,-0.9 1.5,-0.3 1.4,-1.3 0.6,-1.1 0.4,-1.6 0.3,-2 0.4,-2.3 0.8,-1.5 0.7,-1.6 0.4,-1.8 -0.3,-2.3 -0.5,-2.4 -0.4,-1.7 -0.7,-1.1 -0.6,-1.2 0.1,-1.3 0,-1.2 0.5,-0.9 1.1,-0.4 1.7,-0.1 2,-0.1 1.2,-0.4 0.4,-1.4 -0.5,-1.6 -0.6,-1.1 -0.3,-1.2 0.1,-0.8 0.4,-0.6 0.9,-0.2 0.9,0.8 1,1.5 0.8,1.4 -0.1,1.8 -0.6,1.4 0.2,0.9 1.7,0.4 0.8,-0.6 0.6,-0.7 0.3,-1.1 0,-1.9 -0.1,-2.3 0.1,-1.8 0.4,-1.3 1,-1.8 1.7,-1.8 2.3,-2.7 1,-1.9 0.3,-2.1 0.4,-1.6 0.9,-1.1 1.2,-0.4 1.7,-0.1 2.2,0.1 1.4,-0.5 0.9,-1.1 -0.1,-1.3 0,-1.2 0.6,-0.7 1.7,-0.5 0,-0.1 1.3,-0.4 0.3,-2.1 -1.4,-1.8 -1.3,-0.6 -2.1,-2 -0.6,-0.9 -0.4,-0.9 0,-0.8 -0.6,-0.4 -0.9,0.1 -0.7,0.6 -0.6,0.8 -0.8,0.8 -1.3,0.7 -1.1,0.9 -0.5,0.8 -0.8,0.3 -0.6,-0.1 -0.7,-0.5 -0.5,-0.8 -0.3,-1.3 0.4,-1.5 0.4,-1.9 0.8,-1.4 0.2,-1.5 0.3,-3.3 -0.4,-1.6 -0.2,-1.8 -0.5,-1.7 -0.4,-2 -0.3,-1.2 -0.6,-1.1 0.1,-1 0.4,-1.3 0.1,-0.8 -0.4,-0.9 -1.5,-1.4 -1.1,-0.6 -0.4,-0.6 -0.1,-0.6 0.3,-0.7 1.1,-1.3 0.3,-1.5 -0.1,-1.7 -0.4,-2.1 -0.5,-1.6 -0.7,-1.4 -1.2,-2 -1.1,-1.4 -0.9,-1 -0.5,-0.8 -0.1,-1.1 -0.1,-2 -0.2,-1.5 0.7,-2.1 2.1,-2.5 1.1,-1.3 1.3,-1.6 1,-1.7 0.4,-2.4 -0.1,-2.9 -0.6,-1.5 -0.9,-1.3 -1.4,-2 -0.9,-1.3 -0.3,-1.6 0.4,-1.1 0.5,-1.4 0.6,-0.6 0.7,-0.8 1.3,-1.4 3.6,-2 4.3,-2.3 1.3,-0.8 1.1,-0.9 0.3,-0.7 0.3,-1.1 0.1,-1.4 0.1,-2 -0.6,-1.2 -0.9,-1.4 -1.1,-1.4 -2.6,-1.7 -1.8,-1.3 -1.5,-0.9 0,-0.9 0.8,-1.6 1.2,-1.2 2,-1.1 2,-0.4 1.3,-0.6 1.3,-0.6 0.9,-0.7 0.4,-1.2 -0.1,-1.5 -0.4,-1.7 -0.7,-1.3 -1.5,-1.8 -1.6,-2 -0.7,-0.9 -0.1,-1.1 -0.8,-1.6 -0.6,-1.4 0,-1.6 0.3,-1.6 -0.6,-2 -0.5,-1.1 1.9,-2.1 1.1,-1.4 1.8,-1.2 2.1,-0.6 1.8,-0.8 1.6,-0.6 1.6,-0.4 2.8,-0.4 1.8,-0.8 2.1,-1.3 1,-1.8 0.9,-1.8 0.4,-1.2 0.1,-2 -0.6,-2.5 -0.7,-2.3 -0.8,-1.9 -1,-1.9 -0.9,-1.8 -0.8,-3 0,-1.7 0.4,-1.3 1.6,-2.3 1.3,-2 0.4,-1.2 0.6,-1.7 0.9,-1.4 0.8,-0.9 2,-0.8 1.6,-1.5 1.5,-2.6 1.2,-3.2 1.4,-2.6 1.1,-1.1 1.9,-0.8 2,-0.4 1.4,-0.3 1.3,-0.5 0.6,-1.1 0.5,-1.8 -0.4,-1.8 -0.8,-1.7 -0.9,-1.3 -1,-1.3 -1.6,-0.8 -1.6,-0.5 -1.4,-0.5 -1.1,-1 -0.6,-1.1 -0.9,-1.4 -0.8,-1.2 -0.9,-1.1 -1,-1.1 -0.7,-0.6 0,-0.9 0.6,-1.1 1.5,-1.5 0.5,-1.5 0.6,-2.2 0,-1.8 0,-0.1 0.1,-1.9 -0.6,-1.6 -0.5,-1.4 -0.3,-1.4 -0.4,-1.8 -0.3,-1.6 -0.1,-2 -0.4,-1.8 -0.8,-1.5 -1.8,-2 -1.3,-2.3 -1.6,-2 -1.1,-1.8 -0.9,-1.6 -0.5,-1.6 -0.2,-1.8 -0.4,-0.9 -0.8,-0.7 -1.2,0 -1.6,0 -1.8,-0.4 -1.3,-0.4 -1.3,-0.4 -0.8,-0.6 0.1,-0.9 0.4,-1 1.1,-1.4 0.8,-1.1 1.8,-1.1 1.8,-1.1 2.2,-1.1 0.8,-1 0.3,-1.2 0,-1.7 -0.3,-2 -0.9,-1.6 -0.4,-0.9 0.1,-1 0.7,-1.4 0.6,-1.5 0.4,-1.1 0.1,-1.3 0,-1.1 -0.6,-1.5 0.1,-1.5 0.1,-1 0.6,-0.9 -0.2,-1 -1.2,-0.9 -1.2,-0.9 -0.6,-0.8 -0.3,-1.1 -0.1,-1.3 -0.4,-0.9 -0.9,-0.8 -1.5,-0.4 -1.3,-0.3 -2.3,-0.6 -1.1,-0.9 -0.8,-1 -0.6,-1.2 -0.9,-0.8 -1.6,-0.8 -2,-0.8 -1.4,-0.4 -0.6,-1.1 -0.4,-1.3 -0.1,-1.6 0.4,-1.3 1.2,-1.1 1.4,-0.5 0.4,-0.6 0.2,-1.7 -0.5,-1.7 -0.3,-1.8 0.1,-1.4 0,-1.2 -0.6,-1.1 -0.7,-0.4 -1.4,0.1 -1.8,0.6 -1.6,0.1 -4.7,-0.1 -1.4,0.1 -1.1,0.3 -1.4,0.9 -1,0.4 -1.5,-0.3 -0.8,-1.1 -0.5,-1.1 0,-1.8 0,-2 -0.4,-1.9 -0.3,-2.2 -1.1,-2.1 -1.1,-1.4 -1.1,-1.1 -1.9,-1.4 -1.4,-0.8 -1.4,0.4 -1.7,0.7 -1.3,1.2 -1.1,0.8 -0.8,-0.4 -1,-1.1 -0.7,-1.4 -0.9,-1.1 -1.2,-0.1 -1.7,0.7 -1.7,0.6 -2.9,0.6 -1.8,-0.6 -1.5,-1.8 -1.2,-1.3 -0.6,-0.9 -0.2,-1.4 -0.5,-1.5 -0.6,-0.8 -2.1,-0.6 -3.7,-0.5 -2.8,-1.1 -1.9,-0.3 -2.5,0.7 -1.9,1 -1.8,0.6 -1.6,-0.2 -1.4,-1.4 -1.1,-1.8 -1.3,-2.6 -0.8,-0.8 -1.3,-0.5 -2.3,0.3 -1.4,1.2 -1.1,2 -1.6,1.4 -1.7,-0.3 -2.2,-1.8 -0.7,-0.8 -1.8,0 -0.8,-0.2 -1.4,-0.5 -1.5,-0.4 -0.6,-0.5 -0.6,-1.6 -0.7,-0.7 -1.6,0 -1.9,0.3 -2.5,0.4 -2.3,-0.4 -1.5,-0.8 -0.9,-1.1 -1.7,-0.4 -1.6,-0.2 -2.2,-0.7 -1.4,-0.4 -0.9,-0.3 -0.9,-0.1 -0.8,-0.3 -0.6,-0.9 -0.5,-1.3 -0.6,-1.4 -0.6,-0.9 -0.6,-0.4 -1.4,-0.1 -1.1,0.6 -1.3,0.9 -0.9,1.4 -1.1,0.8 -0.9,-0.3 -1.1,-1.6 -1.3,-3.1 -1.1,-3 -0.6,-1 -1.1,-0.5 -2.1,-0.1 -1.6,0.7 -0.9,0.6 -0.7,0.1 -0.9,-0.6 -0.7,-0.6 -0.7,-0.9 -0.4,-0.9 -0.3,-1.2 0,-1 0.4,-0.9 1,-1 0.9,-1.1 0.2,-0.8 -0.3,-0.6 -0.8,-0.7 -2,-0.6 -2.5,-0.9 -1.8,-0.8 -1.1,-0.5 -1,-0.8 -0.3,-0.7 0.4,-1.3 0.7,-1.2 0.8,-1.1 0.3,-1.4 0.3,-1.6 0,-1.6 -0.1,-1.1 -0.5,-0.5 -0.6,-0.5 -1,0.3 -1.3,0.8 -0.9,1 -0.6,1.1 -0.3,1.1 -0.1,0.8 -1.3,1.3 -1.7,1.4 -1.2,1.1 -0.4,0.9 -1.5,1.3 -0.6,0.9 -1.3,1.3 -0.9,0.5 -1,0.1 -1,-0.2 -0.4,-0.5 -0.6,-0.8 0.1,-1.5 0.1,-1.6 -0.3,-1.4 -0.4,-0.6 -0.9,-0.3 -1.6,0.2 -1.1,0.3 -1.8,-1.5 -0.6,-0.4 -0.3,-1.2 -0.1,-1.8 0.3,-1.1 0.5,-0.7 1.1,-0.9 1.3,-1 1.6,-2 0.7,-1 0.6,-1.4 0.2,-1.3 -0.3,-1.3 -0.6,-0.9 -0.7,-1 -0.8,-0.8 -0.8,-0.9 -0.4,-1.3 0.1,-0.4 0.7,-0.4 0.8,0.1 1.2,0.5 1.4,-0.2 1.2,-0.6 0.8,-0.7 1,-0.6 1.6,-0.6 1,-0.4 1.3,-0.9 0.1,-0.1 0.5,-0.6 0.1,-0.6 0.1,-1.1 0.2,-1.1 0.3,-0.9 0.8,-1.6 0.4,-1.2 0.2,-1.2 0,-1.9 0.1,-1.6 -0.1,-2 -0.9,-1.5 0,-0.8 1.6,-1.3 2.1,-2.1 0.7,-1.3 1.1,-0.5 1.5,-0.5 1.1,-0.8 1.1,-1.3 0.6,-1.3 1.1,-1.5 1.4,-2.1 0.8,-1.8 1.1,-2.1 1,-2 1.1,-1.7 0.9,-1.3 0.4,-1.4 0.3,-1.1 0.3,-1.5 0.1,-1 0.6,-1.3 0.2,-1 0,-1.2 -0.6,-0.9 -0.7,-0.7 -0.4,-0.6 -0.4,-0.4 -0.1,-0.8 0.6,-1.3 0.4,-0.9 -0.1,-1.1 -0.6,-0.8 -0.6,-0.9 0.1,-0.8 0.6,-0.9 0.1,-0.4 -1,-0.5 -0.8,-0.8 -0.6,-0.1 -0.8,-0.3 -0.9,-0.9 -0.4,-0.7 -0.7,-0.6 -1.1,0.2 -1.3,-0.5 -0.9,-0.6 -0.8,-0.9 -0.6,-1 -1,-0.9 -0.4,-1.3 0.3,-1.1 0.6,-1 -0.3,-1.1 -0.5,-1.1 -1.1,-0.7 -0.8,-0.8 -1.4,-0.8 -1.2,-0.5 -3.4,0 -1.9,0.1 -0.8,-0.4 -0.8,-0.4 -0.8,-0.5 -0.4,-1.3 -0.4,-1.3 0.3,-1.3 0.5,-1.3 0.3,-0.8 0.1,-2.3 0,-2.2 -0.1,-0.9 -0.4,-0.9 -0.8,-0.8 -0.3,-1.2 0.3,-1.1 0.7,-0.8 0.8,-0.8 1.1,-0.3 1.8,0.1 1.4,0 1.6,-0.6 1.2,-1 1.6,-1.3 1.1,-1.6 0.7,-1.3 0.3,-1.7 -0.3,-1.5 -0.6,-1.3 -1.1,-1.6 -1.1,-1.8 -1.3,-1.6 -0.4,-1.3 0.5,-1.4 0.8,-1.1 1.3,-1.6 2.1,-2.1 2.1,-1.4 1.1,-1.1 0.4,-0.8 0,-2.5 -0.7,-2.5 -0.4,-2 -1.2,-1.9 -0.8,-2.2 -1.3,-1.6 -2,-2.1 -0.9,-1.4 -0.4,-0.6 -2.3,-76.1 -2,-67.2 148,-21.2 0.1,0 0.9,0.4 0.8,0.3 1.1,0.4 0.7,0.2 2.1,-0.2 2,-1.7 1.1,-0.6 5.4,-0.8 0,0 0,-0.1 0.2,-1.9 0.3,-1.8 0.8,-4.3 0.3,-2.6 -0.6,-2.5 -0.8,-1.8 -0.7,-1 -0.8,-0.9 -0.3,-1.1 -0.1,-1.4 0.1,-4.4 0.1,-2.5 0.3,-1 0.9,-1.1 0.5,-0.9 0,-1.3 -0.9,-1.5 -0.6,-1.1 0,-2.4 0.7,-2.1 1,-2.2 0.5,-1.3 1.5,-1.7 0.9,-1.3 -0.1,-1.4 -1.8,-1.3 -0.8,-0.9 -0.4,-2.5 0.3,-0.9 1.6,-0.1 3.3,0.7 1.6,0.4 1.5,-0.6 1.8,-1 0.8,-1.8 0.3,-1.4 -0.3,-2.4 -0.4,-1.7 0.1,-0.8 0.2,-1.5 -0.6,-2.3 -0.9,-2.2 -1.4,-1.1 -1.7,-0.8 -1.2,-0.1 -0.8,-1.6 -0.4,-2 -1.2,-1.3 -1.1,-1.1 -1.1,-1.5 -1.8,-3.1 -1.4,-3.1 -0.7,-1.8 -1.6,-2.6 -1.7,-1.9 -1.4,-1.6 -1.1,-1.1 -0.9,-1.4 -0.8,-1.4 -0.1,-2.1 -0.7,-1.3 0.3,-0.2 69.2,-47.2 0.6,0.7 z"
       inkscape:connector-curvature="0"
       class="DEP_04 ZON_02" /></g></svg>