<?xml version="1.0" encoding="UTF-8" standalone="no"?>
<!-- Generator: Adobe Illustrator 16.0.0, SVG Export Plug-In . SVG Version: 6.00 Build 0)  -->

<svg
   xmlns:dc="http://purl.org/dc/elements/1.1/"
   xmlns:cc="http://creativecommons.org/ns#"
   xmlns:rdf="http://www.w3.org/1999/02/22-rdf-syntax-ns#"
   xmlns:svg="http://www.w3.org/2000/svg"
   xmlns="http://www.w3.org/2000/svg"
   xmlns:sodipodi="http://sodipodi.sourceforge.net/DTD/sodipodi-0.dtd"
   xmlns:inkscape="http://www.inkscape.org/namespaces/inkscape"
   version="1.1"
   id="SvgMunicipio"
   x="0px"
   y="0px"
   width="767.57px"
   height="999.994px"
   viewBox="64.798 117.849 767.57 999.994"
   enable-background="new 64.798 117.849 767.57 999.994"
   xml:space="preserve"
   inkscape:version="0.91 r13725"
   sodipodi:docname="MUN_ID0418.svg"><metadata
     id="metadata10"><rdf:RDF><cc:Work
         rdf:about=""><dc:format>image/svg+xml</dc:format><dc:type
           rdf:resource="http://purl.org/dc/dcmitype/StillImage" /></cc:Work></rdf:RDF></metadata><defs
     id="defs8" /><sodipodi:namedview
     pagecolor="#ffffff"
     bordercolor="#666666"
     borderopacity="1"
     objecttolerance="10"
     gridtolerance="10"
     guidetolerance="10"
     inkscape:pageopacity="0"
     inkscape:pageshadow="2"
     inkscape:window-width="682"
     inkscape:window-height="480"
     id="namedview6"
     showgrid="false"
     inkscape:zoom="0.23600141"
     inkscape:cx="383.785"
     inkscape:cy="499.99701"
     inkscape:window-x="0"
     inkscape:window-y="0"
     inkscape:window-maximized="0"
     inkscape:current-layer="svg" /><g
     id="g3"><path
       id="MUN_0418"
       d="m 426.051,175.955 0.106,0 3.499,-0.636 0.849,-0.212 0,0 3.181,-1.378 0,0 2.969,-0.636 0,0 3.711,0.848 0,0 4.666,2.969 0,0 3.923,1.061 0,0 4.878,2.651 0,0 8.376,6.362 0,0 6.044,4.983 0,0 4.241,7.528 0.106,0 7.952,7.847 0,0 6.893,8.482 0,0.106 3.923,2.863 0,0.106 0.636,3.287 0,0 -1.696,4.983 0,0 -1.59,3.923 0,0 -0.106,3.287 0,0.106 3.499,5.089 0,0.106 5.832,4.454 0.105,0 10.604,2.757 0,0 12.088,1.696 0,0 3.923,1.378 0,0.106 2.757,2.015 0,0.106 1.272,7.104 0,0.106 -2.65,6.786 -0.106,0 -6.361,6.68 0,0 -2.228,2.757 0,0 -2.12,4.559 0,0.106 -2.65,3.499 0,0 -2.545,5.726 0,0 -0.53,3.287 0,0 0,7.846 0,0 6.468,18.025 0,0 4.241,11.24 0,0.106 5.832,6.15 3.075,3.287 0,0 5.089,5.62 0,0.106 1.061,9.119 0,0 1.803,10.073 0,0 3.499,6.362 0,0.106 0.53,12.406 0,0 0.636,7.316 0,0 0.742,4.241 0,0.106 4.666,8.165 0,0.105 0.105,4.56 0,0.106 -4.771,8.801 0,0.105 1.061,8.695 0,0 0.53,8.801 0,0 2.333,11.027 0,0 2.12,8.164 0,0.106 4.771,4.877 0.106,0 11.239,0.53 0,0 8.801,-0.318 0.106,0 18.237,7.847 0,0 6.786,0.212 0,0 6.574,2.333 0,0.106 4.453,5.619 0,0 6.998,2.863 0,0 8.164,5.09 0,0.105 6.786,1.379 0,0.105 5.62,3.924 0.106,0 2.757,4.241 0,0.105 0.212,5.938 0,0.105 -4.666,8.907 0,0 -4.029,6.149 0,0 -1.802,11.239 0,0.106 3.393,7.74 0,0 4.453,6.893 0,0 6.362,5.831 0,0 6.044,6.362 0,0 2.545,4.453 0.105,0 12.512,11.558 0,0.106 2.651,4.665 0,0 -0.742,7.953 0,0.105 -3.287,8.694 0,0 -6.256,5.62 0,0 -4.983,5.302 0,0.105 -0.849,9.226 0,0 4.136,15.48 0,0 1.59,10.073 0.106,0.53 0,0.105 4.135,9.331 0,0 0.637,6.681 0,0 -3.181,12.405 0,0 0.424,5.726 0,0 4.135,5.408 0.106,0 4.56,2.332 0.105,0 7.74,-5.089 0,-0.106 6.044,-0.212 0.106,0 15.375,4.665 0,0 7.21,1.061 0,0 10.073,-3.393 0,0 9.648,0 0,0.105 7.953,3.287 0,0 3.499,4.136 0,0.105 -0.212,3.711 0,0.106 -4.454,7.422 0,0.106 -3.287,4.348 0,0.105 0,6.786 0,0.106 2.333,4.347 0,0.106 4.136,2.863 2.438,1.802 0,0 10.497,6.893 0,0 10.285,7.952 0,0 6.256,5.408 0,0 3.817,7.104 0,0 1.166,6.044 -0.105,0.106 -2.651,2.333 -0.105,0 -5.196,1.378 -0.105,0.106 0.212,8.164 0,0 0.954,9.119 0,0.105 2.545,4.878 0,0 7.21,4.983 0,0 3.924,6.786 0,0.106 0.742,16.753 0,0 3.287,8.906 0,0 3.181,9.649 0,0 6.362,15.692 0,0.106 5.831,8.694 0.106,0 12.405,7.104 0,0 10.285,4.56 3.712,1.591 0,0 6.361,3.923 0,0 4.348,10.497 0,0 -4.241,18.979 0,0 -6.468,11.558 0,0.106 -1.484,7.21 0,0 -1.591,8.801 0,0 -1.166,10.604 0,0 0.848,7.528 0,0 -1.272,6.998 -1.908,5.514 -0.954,3.499 -2.227,5.514 -2.757,6.786 -2.121,5.302 -4.348,4.771 -9.437,7.316 -7.104,5.407 -4.453,3.711 -7.952,5.938 -8.059,6.574 -4.771,4.665 -0.212,3.075 -0.212,3.074 0,1.272 2.332,4.771 0.53,3.182 0,7.634 -1.484,7.316 -3.075,5.408 -4.453,6.892 -4.877,10.179 -5.408,7.847 -1.803,5.302 0.212,6.044 0.212,5.09 -1.06,5.619 -1.909,6.786 -5.195,0.849 -1.484,0.318 -3.181,0.742 -5.09,2.227 -3.394,0 -1.59,1.696 -3.711,2.333 -3.712,2.227 -4.241,2.757 -5.089,1.908 -3.605,0 -3.181,0.212 -0.955,0.637 -1.59,1.272 -1.484,1.378 -2.121,-1.378 -2.015,-1.272 -1.803,-0.849 -2.757,0.106 -2.862,1.378 -4.56,0.106 -3.923,-1.379 -4.984,-2.969 -6.361,-2.438 -5.62,-2.333 -4.029,-1.378 -2.332,-1.803 -1.272,-3.711 -2.863,-2.757 -1.696,-1.803 -2.651,-1.591 -3.604,-1.061 -1.909,-1.166 -1.696,-2.969 -1.272,-2.227 -1.378,-1.484 -4.029,-1.484 -10.71,-0.849 -3.711,-0.849 -3.711,-3.604 -2.863,-4.029 -2.757,-2.757 -2.12,-2.333 -3.499,-2.015 -0.425,-0.424 -1.696,-1.591 0,-6.361 -1.272,-2.545 -1.59,-4.136 -1.697,-3.711 -1.272,-1.591 -3.181,-0.742 -2.333,0.53 -2.969,0.637 -3.923,-0.318 -3.287,-2.227 -1.908,-1.909 -2.015,-2.757 -0.849,-3.074 -1.061,-5.514 -0.105,-3.075 -0.425,-0.954 -2.015,-1.272 -3.393,-3.287 -1.591,-3.287 -1.378,-2.121 -2.333,0.637 -1.272,0.742 -1.696,0.105 -3.075,0.213 -1.484,0 -2.863,-2.015 -1.484,-0.106 -1.59,0 -1.484,0.212 -2.863,0.425 -0.318,0 -1.378,-0.849 -1.803,-1.379 -1.696,0 -2.651,0.318 -2.438,0.106 -1.696,-0.106 -1.697,-1.061 -0.848,0 -0.637,-0.212 -0.848,-2.227 -1.167,-1.272 -1.59,-1.166 -1.167,-0.849 -1.59,-2.227 -0.106,-0.954 0.424,-1.696 0.53,-1.909 0.213,-2.332 -0.425,-1.909 -0.636,-0.636 -1.909,-0.213 -1.802,-1.378 -1.061,-2.333 -1.379,-1.59 -1.484,-1.061 -1.061,-1.166 -1.166,-0.318 -1.272,-0.318 -0.318,-0.849 -0.848,-0.954 -0.318,-1.272 -0.954,-0.848 -1.061,-0.318 -1.484,0 -2.757,0.106 -1.484,0 -0.637,-0.318 -0.742,-1.803 -1.272,-2.545 -0.317,-1.591 -0.849,-3.816 0.212,-2.97 -0.424,-2.757 -0.849,-2.544 -1.272,-1.379 -1.484,-1.696 -1.166,-1.696 -0.849,-1.591 -0.424,-2.015 -0.424,-2.121 -0.425,-3.711 -0.212,-2.438 -0.848,-1.803 0.212,-2.015 0.53,-2.015 0.742,-1.378 0.53,-2.333 0.212,-2.863 0.212,-1.378 0.424,-0.954 0.742,-1.379 0.742,-1.59 0.53,-1.697 0.318,-1.06 0.212,-1.379 -0.318,-1.272 -0.317,-1.166 -0.637,-2.121 -18.449,-5.832 -7.953,-2.544 -0.742,-0.955 -46.866,-59.484 -13.254,-23.645 -76.449,-33.188 -8.907,-3.817 -74.328,-32.233 -17.602,-53.971 -79.949,-41.459 -36.793,-49.941 -42.731,-48.987 89.598,-122.468 83.448,-64.574 -3.924,-42.519 -0.636,-0.636 -0.53,-1.06 -0.53,-2.015 0.742,-2.333 0.742,-1.696 1.272,-1.167 1.484,-1.803 1.591,-1.484 1.166,-1.166 1.591,-0.424 1.378,-1.061 0.425,-2.227 1.378,-3.499 1.909,-2.651 2.757,-2.545 1.802,-2.014 0.425,-0.53 1.166,-2.439 2.015,-2.121 2.227,-0.954 2.651,-0.53 1.696,-0.636 1.061,-1.378 2.862,-0.636 5.62,-1.378 5.726,-1.272 3.605,-1.484 1.802,-1.272 2.439,-2.438 1.59,-2.439 1.272,-4.029 1.061,-2.969 0.954,-1.697 0.425,-2.438 0.954,-2.545 2.015,-2.121 1.06,-1.167 0.849,-1.696 1.696,-2.015 2.545,-1.484 2.969,-1.061 2.333,-0.106 1.379,-0.318 0.848,-0.743 1.484,-2.544 0.742,-3.711 0.106,-3.923 0.848,-2.333 2.439,-1.272 2.12,-0.954 0.954,-1.803 -0.212,-1.802 -0.742,-0.742 -0.849,-1.591 -0.848,-2.227 0.636,-2.227 1.379,-1.484 3.711,-2.333 3.817,-1.803 4.877,-3.181 1.803,-0.53 1.803,-0.212 0.849,-0.212 1.06,-1.06 1.272,-1.484 2.757,-1.697 2.651,-2.544 2.015,-2.015 1.484,-1.167 0.318,-2.227 1.378,-2.545 1.379,-2.757 0.742,-2.121 2.544,-3.287 1.591,-2.651 0.106,-2.333 -1.061,-2.333 -1.484,-2.015 -1.272,-3.287 -0.318,-2.438 0.106,-1.484 0,-2.121 0.636,-3.075 0,-1.909 -0.636,-1.802 -0.212,-2.439 0.424,-1.166 1.908,-2.439 2.545,-1.59 2.227,-2.333 1.167,-1.696 1.166,-2.015 0.53,-1.909 0.636,-2.863 -0.53,-3.075 -1.166,-3.711 -0.742,-2.121 -0.53,-3.605 0.53,-1.591 2.121,-3.711 0.424,-2.439 0.318,-2.544 1.802,-0.955 3.5,-0.106 2.544,-1.061 1.272,-1.908 -0.742,-2.545 -2.757,-2.227 -5.089,-2.439 -6.469,-4.453 8.483,-0.743 0.105,-0.106 4.348,-3.711 0,0 7.316,-2.863 0,0 5.831,-0.424 0.106,0 2.65,1.909 0,0 4.666,8.801 0,0 4.241,4.983 0,0.106 4.983,3.393 0,0 9.861,3.499 0,0 4.877,2.863 0,0 3.712,4.877 0,0 3.711,8.058 0,0 2.332,9.437 0,0 0.637,3.711 0,0 3.499,4.983 0,0.106 3.919,1.4 z"
       inkscape:connector-curvature="0"
       class="DEP_04 ZON_02" /></g></svg>