<?xml version="1.0" encoding="UTF-8" standalone="no"?>
<!-- Generator: Adobe Illustrator 16.0.0, SVG Export Plug-In . SVG Version: 6.00 Build 0)  -->

<svg
   xmlns:dc="http://purl.org/dc/elements/1.1/"
   xmlns:cc="http://creativecommons.org/ns#"
   xmlns:rdf="http://www.w3.org/1999/02/22-rdf-syntax-ns#"
   xmlns:svg="http://www.w3.org/2000/svg"
   xmlns="http://www.w3.org/2000/svg"
   xmlns:sodipodi="http://sodipodi.sourceforge.net/DTD/sodipodi-0.dtd"
   xmlns:inkscape="http://www.inkscape.org/namespaces/inkscape"
   version="1.1"
   id="SvgMunicipio"
   x="0px"
   y="0px"
   width="549.886px"
   height="999.985px"
   viewBox="64.652 117.644 549.886 999.985"
   enable-background="new 64.652 117.644 549.886 999.985"
   xml:space="preserve"
   inkscape:version="0.91 r13725"
   sodipodi:docname="MUN_ID0408.svg"><metadata
     id="metadata10"><rdf:RDF><cc:Work
         rdf:about=""><dc:format>image/svg+xml</dc:format><dc:type
           rdf:resource="http://purl.org/dc/dcmitype/StillImage" /></cc:Work></rdf:RDF></metadata><defs
     id="defs8" /><sodipodi:namedview
     pagecolor="#ffffff"
     bordercolor="#666666"
     borderopacity="1"
     objecttolerance="10"
     gridtolerance="10"
     guidetolerance="10"
     inkscape:pageopacity="0"
     inkscape:pageshadow="2"
     inkscape:window-width="682"
     inkscape:window-height="480"
     id="namedview6"
     showgrid="false"
     inkscape:zoom="0.23600354"
     inkscape:cx="274.94299"
     inkscape:cy="499.99249"
     inkscape:window-x="0"
     inkscape:window-y="0"
     inkscape:window-maximized="0"
     inkscape:current-layer="svg" /><g
     id="g3"><path
       id="MUN_0408"
       d="m 217.494,123.167 4.797,2.108 0,0 2.253,0.872 0.073,0.073 3.271,2.398 0,0 1.235,1.09 0,0 4.069,3.125 0.073,0 4.07,1.453 0,0 4.869,1.163 0,0 6.468,4.506 0,0 4.216,5.233 0,0 5.232,5.742 0,0 5.379,3.416 0,0 8.285,1.89 0,0 2.689,1.235 6.396,2.98 0,0 11.12,6.614 0,0 6.759,6.032 0.072,0 9.957,6.832 2.471,-0.073 0,0 5.088,0.218 0,0 2.835,0.146 0,0 3.852,1.599 0,0 0.8,0.799 0,0 4.506,3.125 0,0 6.759,2.108 0.073,0 3.997,2.18 0,0 3.053,2.544 0,0 1.09,1.599 0,0 1.09,3.924 0,0 0.872,3.198 0,0 2.689,2.035 0,0 3.343,-0.509 0,0 7.777,0.436 0,0 4.36,0.509 0,0 3.707,1.599 0,0 1.526,1.163 0,0 1.525,2.689 0,0 2.98,4.797 0,0.073 2.398,2.689 0,0 2.762,2.398 0,0.073 0.581,1.817 0,0 0.8,4.87 0,0 1.163,5.378 0,0 2.397,4.143 0.073,0 5.306,5.306 0,0 1.526,2.907 0,0 1.09,2.543 0,0 0,2.253 0,0 1.381,1.89 0,0.073 -1.309,4.143 0,0 -0.145,2.398 0,0 0.436,5.523 0,0 0.509,6.905 0,0 -0.146,3.634 0.073,0.073 2.325,5.742 0,0.073 3.562,3.779 0,0 5.814,3.707 0.072,0 3.925,4.506 0,0 2.762,5.306 0,0 2.616,2.762 0,0 3.416,0.654 0,-0.073 3.562,-2.326 0,0 4.288,-3.125 0,0 2.689,-1.235 0.072,0 2.979,1.381 0,0.073 1.381,1.744 0.073,0 1.816,5.596 0,0 1.6,2.762 0.799,1.308 0,0.073 0.8,4.36 0,0 -0.581,1.599 0,0 -2.108,7.776 0,0 0.363,3.198 0,0.073 1.963,2.107 0.072,0.073 4.361,-0.363 0.072,0 4.143,-0.509 0,0 3.634,-0.727 0.073,0 3.343,0.291 0,0 2.326,1.454 0,0 3.561,2.107 0,0 1.236,3.198 0,0.073 -1.236,3.998 0,0 -2.979,2.907 0,0 -3.271,2.689 -0.072,0 -1.89,4.797 0,0 -0.728,4.579 0,0 0.945,3.053 0.072,0 3.562,3.634 0,0 11.266,7.776 0,0 6.178,4.87 0,0 1.816,1.671 0,0.073 0.291,5.378 0,0 -1.817,4.651 -0.072,0 -2.035,2.762 0,0.073 -1.163,2.471 0,0 -0.072,1.744 0,0.073 3.053,1.599 0,0 5.015,2.326 0.072,0 4.506,4.07 0,0 4.797,6.759 0,0 2.181,4.724 0,0.073 6.032,9.448 0,0 4.36,4.578 0,0 5.379,6.76 0,0 5.232,5.887 0,0 3.344,4.143 0,0 0,1.09 0,0 -1.163,10.902 0,0 -2.107,6.032 0,0 -3.779,5.669 -0.073,0 -8.866,6.469 0,0 -5.888,4.651 0,0 -3.488,2.907 -0.072,0 -4.579,1.599 0,0 -1.018,2.035 -0.8,1.526 0,0 2.762,8.285 2.689,8.213 0,0 3.707,4.651 0.146,0.218 0,0 2.107,4.651 0,0 0,6.904 0,0.073 3.634,7.413 0.072,0 7.995,3.561 0,0 5.451,4.361 0,0 4.433,1.962 0.073,0 6.396,-1.018 0,0 6.396,-2.18 0,0 7.05,-1.163 0.073,0 7.559,5.087 0,0.073 4.215,2.907 0.073,0 3.706,-0.146 0,0 6.396,-4.434 0,0 3.562,-1.09 0,0 4.797,0.218 0,0 3.634,1.235 0.073,0 3.779,9.376 0,0 -0.219,7.922 0,0.072 2.181,6.178 0,0.073 2.979,1.381 0.073,0 5.669,-4.942 0,0 4.215,-0.509 0.073,0 9.666,3.707 0,0 7.122,1.744 0.073,0.072 3.706,3.707 0,0 2.181,4.724 -2.979,3.125 0,0 -1.89,4.144 0,0.072 -1.091,5.16 0,0 -0.799,3.125 0,0 0.654,5.814 0,0 0.145,3.707 0,0 2.762,7.631 0,0 9.23,18.533 -8.721,2.616 0,0 -7.486,2.471 0,0 -10.975,4.725 0,0 -14.754,7.413 0,0 -8.357,4.216 0,0 -8.286,4.069 0,0 -11.919,7.704 -97.316,77.185 -10.757,8.576 0,0 -53.419,117.739 -0.072,0 -3.271,18.533 -13.954,77.33 0,0.073 81.327,68.1 -63.376,10.32 -113.742,-1.454 0.291,1.091 -0.363,1.09 -0.727,0.291 -1.163,0.509 -1.235,0.072 -2.253,0.509 -2.544,0.654 -1.454,0.581 -0.653,1.89 -0.582,2.326 -0.727,0.581 -0.509,0.654 -1.309,0.727 -2.688,1.6 -1.963,1.671 -1.09,1.672 -1.526,1.817 -2.325,1.89 -0.945,0.799 -1.018,0.945 -1.453,1.308 -1.381,1.018 -1.526,0.363 -1.817,0.437 -1.816,0.581 -2.108,2.472 -0.727,2.253 -1.381,4.069 -2.544,2.326 -1.744,1.163 -1.671,0.509 -1.236,0 -0.509,0 -1.744,0.727 -2.253,1.744 -2.035,2.907 -0.654,1.381 -1.017,2.398 0.145,1.599 0.437,1.963 0.218,1.599 -1.672,0.872 -2.107,1.235 0.218,1.89 -1.525,8.358 -1.163,1.309 -0.073,2.034 0,3.198 0.146,2.107 -1.308,0.872 -1.672,0.945 -1.235,0.581 -1.672,0.8 -1.09,0.363 -1.091,0.727 -1.962,1.963 -0.509,1.89 0.218,3.125 -0.654,1.962 -2.762,0.945 -2.616,0.872 -1.163,0.944 -1.162,1.163 -1.163,1.09 -0.654,0.509 -0.509,0.437 -0.872,0.072 -0.291,0 -0.29,-0.29 0.363,-0.582 -0.8,-2.762 -0.072,-2.181 -1.091,-2.034 -1.453,-2.108 -0.582,-0.727 0.219,-2.979 0.653,-0.945 1.236,-1.162 0.581,-1.018 0.945,-1.381 0.509,-1.309 0.653,-1.599 1.309,-2.326 0.944,-3.343 -0.218,-2.544 -1.018,-1.963 -1.308,-3.125 -0.219,-2.979 0.291,-1.89 1.744,-4.143 0.582,-2.181 -0.654,-2.544 -0.8,-3.197 -1.308,-1.454 -1.526,-2.979 -0.945,-1.163 -1.672,-1.599 -3.271,-0.581 -2.471,-1.526 -2.107,-2.689 -1.526,-9.812 -1.309,-1.89 -1.163,-1.163 -1.744,-1.235 -1.453,-1.163 -0.872,-1.235 -0.945,-1.309 -0.944,-1.09 -1.163,-1.309 -0.8,-0.799 -0.799,-1.091 -0.363,-1.816 -0.437,-1.744 -0.654,-1.381 -1.235,-0.945 -1.235,-1.09 -0.8,-1.235 -0.509,0 -1.526,0.072 -0.436,0.072 -6.032,-0.581 0.218,-0.654 1.817,-2.253 1.453,-1.453 2.398,-2.181 0.146,-1.672 -0.509,-1.526 0.363,-1.816 0.363,-0.8 1.163,-0.509 0.944,-1.163 0.437,-1.162 -0.146,-1.454 -0.654,-1.526 -0.799,-1.308 -1.963,-1.817 -1.526,-2.544 -0.363,-1.962 0.654,-1.381 0,-0.291 -0.072,-1.163 -0.872,-1.599 -0.219,-1.599 0.073,-2.035 -0.219,-2.544 0.582,-1.526 0.218,-2.616 -0.654,-2.035 0.582,-1.453 0.872,-1.744 0.581,-1.163 -0.291,-1.672 -0.509,-1.526 0.509,-1.09 -0.072,-1.309 -0.8,-1.381 -1.962,-1.962 -1.672,-0.363 -1.018,-0.437 -0.944,-0.944 -0.509,-1.672 0.29,-2.181 0,-2.035 -0.581,-1.816 -1.235,-1.454 -1.381,-0.581 -1.235,-0.437 -1.381,-0.508 -1.163,-1.091 -0.509,-1.526 -0.291,-1.89 -0.072,-1.816 -0.073,-1.89 0,-2.181 0,-2.035 -0.727,-1.526 -38.374,-49.64 26.092,-115.413 2.325,-10.611 23.839,-105.166 1.672,-1.89 4.069,-1.163 2.689,-0.581 1.09,-1.309 1.744,-2.107 2.326,-1.744 0.727,-2.326 2.108,-4.506 2.471,-7.413 2.107,-3.925 3.344,-5.16 -0.146,-5.378 -0.219,-3.925 27.981,-45.497 2.253,-3.634 -9.593,-20.786 -4.579,-9.884 -0.945,-1.235 -2.18,-2.398 -1.89,-0.8 -2.835,-0.509 -2.471,-0.363 -0.945,-0.945 -0.944,-2.688 -1.09,-1.235 -1.6,-1.018 -1.671,-0.872 -3.416,-1.309 -1.817,-0.654 -1.018,-0.872 -0.363,-1.381 1.09,-1.453 1.236,-1.672 0.653,-2.398 0.291,-1.381 -0.072,-2.472 -0.945,-1.308 -0.436,-1.817 -0.945,-1.816 -0.436,-1.963 0.581,-1.526 0.291,-2.034 -0.509,-1.89 0.072,-4.288 1.309,-3.998 1.744,-3.561 0.581,-2.253 0.363,-2.472 0.437,-4.07 0.218,-3.852 0.654,-3.925 0.581,-2.18 0.654,-2.181 -0.436,-3.416 -1.018,-3.488 -0.363,-2.326 0.363,-1.453 1.162,-0.654 0.873,-1.381 0.944,-0.654 1.599,-1.381 0.291,-1.89 0.654,-1.599 0.654,-1.454 0.29,-1.235 0.945,-2.325 -0.582,-0.582 -0.653,0.146 -1.163,0.872 -0.581,1.381 -2.398,1.962 -2.035,0.073 -1.091,-1.09 -1.235,-2.035 -0.072,-2.762 0.509,-1.817 0.727,-2.107 0.581,-2.253 -0.218,-1.89 -0.509,-2.181 -0.146,-1.962 0.146,-2.617 -0.436,-1.308 -0.872,-2.035 -2.617,-0.654 -1.816,-1.816 -1.963,-2.617 -1.962,-2.616 -0.437,-3.488 -0.072,-2.544 -0.654,-2.326 1.817,-0.363 0.363,-1.018 0,-2.034 0.872,0 1.308,0.581 0.945,-0.291 0.363,-2.325 -0.509,-3.779 -1.018,-2.98 -0.654,-2.398 -1.599,-1.672 -0.944,-1.235 0.653,-1.671 1.454,-0.8 1.308,-0.291 1.091,-0.582 0.727,-0.872 1.454,-0.799 1.744,0.363 1.162,0.218 1.163,-0.363 1.817,-0.872 2.544,-0.436 1.453,-0.872 0.945,-1.817 2.034,-0.8 1.89,-0.363 0.728,-0.436 0.944,-0.654 1.018,-1.599 0.654,-2.689 0.654,-1.745 3.561,-4.651 1.018,-1.89 -0.654,-2.18 -1.09,-1.817 0,-1.018 0.872,-1.599 1.018,-1.381 -0.146,-1.962 -0.799,-2.834 -2.035,-3.852 -1.672,-2.762 -0.436,-2.689 -1.89,-3.852 -0.873,-3.488 -2.034,-2.108 -2.544,-2.471 -3.925,-5.523 -1.018,-2.18 -0.727,-2.035 -2.035,-1.671 -0.581,-2.762 -1.526,-3.198 1.962,-1.817 2.181,-3.343 0.146,-0.146 2.979,-0.799 1.962,-1.235 1.381,-2.108 -1.962,-1.962 0,-3.561 1.018,-1.817 4.869,-0.146 3.489,-1.526 1.525,-2.689 1.963,-0.945 2.253,-0.727 1.962,-0.944 2.907,-1.018 1.526,-1.309 1.454,-0.363 2.471,-0.509 2.107,-1.235 -0.29,-3.198 2.688,-1.018 -1.962,-0.727 -16.498,-5.305 -1.672,-0.8 -3.779,-1.381 -4.07,-0.218 -3.779,0.509 -4.433,-0.945 -3.925,0.145 -3.634,-1.744 -5.523,-1.09 -3.271,0 -5.232,-0.799 -1.453,-1.744 -2.035,-1.817 -1.018,0 -1.309,-1.163 -2.616,-1.671 -2.471,-1.09 -1.091,-1.308 -1.018,-2.035 -0.509,-1.817 -0.799,-1.89 -0.582,-1.454 -1.599,-1.526 -1.235,-1.671 -0.727,-2.398 -1.018,-0.727 -0.654,-1.745 -1.163,-1.962 -2.181,-1.163 -3.052,-1.163 -1.672,-1.235 -0.872,-1.817 -0.727,-2.181 -1.6,-2.907 -1.962,-1.526 -1.309,-1.236 -1.381,-0.799 -0.799,-1.526 -0.654,-1.235 -1.018,-1.09 -0.945,-1.599 -0.727,-0.654 -1.744,-1.308 -1.599,-1.454 -1.817,-1.599 -0.218,-0.727 -0.945,-0.654 -0.581,-0.509 -0.291,-0.363 -1.89,-2.253 -1.89,-1.454 -1.744,-1.744 -1.09,-0.509 -1.091,0.436 -1.744,1.163 -3.997,0.291 -2.181,-1.163 -1.744,-1.599 -1.962,-1.817 -0.727,-2.18 -1.6,-1.381 -1.308,-1.744 -2.326,-1.163 -1.235,-1.381 -1.599,-0.509 -2.907,0.218 -2.835,0.363 -1.381,-0.872 -1.89,-1.09 -2.253,-1.671 -0.072,-1.454 -0.728,-1.308 -0.145,-2.035 -0.219,-2.617 -1.526,-1.599 -0.944,-1.381 -0.218,-1.962 0.436,-2.762 1.091,-2.471 0.872,-3.343 1.381,-2.326 3.052,-2.834 2.398,-1.962 1.018,-0.799 1.018,-0.218 1.309,0.364 1.526,0.799 2.18,1.599 1.745,1.236 0.872,0.509 1.162,-0.073 1.6,-0.945 3.343,-2.253 2.326,-2.181 2.253,-1.526 1.816,-0.581 1.526,-0.146 1.163,1.018 1.09,1.09 0.872,2.035 1.018,0.8 0.582,0.509 1.671,0 2.544,-1.018 2.035,-0.654 2.181,-0.073 2.18,0.582 1.745,0.799 0.944,0.436 1.599,0.291 0.728,-0.218 1.235,-0.727 2.325,-3.707 2.326,-2.544 1.09,-1.308 0.363,-0.509 2.544,-0.582 2.98,-0.073 1.308,-1.09 1.672,-1.163 1.89,-0.654 2.689,-0.654 3.634,-2.108 1.526,-1.89 1.525,-2.326 0.8,-1.89 0.218,-2.18 0.291,-3.053 0.218,-2.762 1.235,-2.616 1.382,-2.035 1.525,-2.907 1.745,-1.89 1.453,-2.107 0.945,-1.454 0.653,-1.09 0.363,-1.235 2.98,-1.163 0.072,0 6.032,0.363 0,0 5.233,0.218 0,0 4.578,0.146 0,0 2.181,-0.945 0.072,-0.073 2.617,-2.326 0,0 2.688,-4.07 0.073,0 2.907,-1.09 0,0 4.069,0.363 0.073,0 1.962,0.872 0,0.073 1.963,2.834 0,0 3.343,2.326 0,0 3.925,-1.454 0.072,-0.073 2.689,-2.18 0,0 2.398,-2.762 0.072,0 2.108,-1.018 0.072,0 2.762,0 0,0 3.779,1.817 0.073,0.073 2.834,3.561 0,0.069 z"
       inkscape:connector-curvature="0"
       class="DEP_04 ZON_02" /></g></svg>