<?xml version="1.0" encoding="UTF-8" standalone="no"?>
<!-- Generator: Adobe Illustrator 16.0.0, SVG Export Plug-In . SVG Version: 6.00 Build 0)  -->

<svg
   xmlns:dc="http://purl.org/dc/elements/1.1/"
   xmlns:cc="http://creativecommons.org/ns#"
   xmlns:rdf="http://www.w3.org/1999/02/22-rdf-syntax-ns#"
   xmlns:svg="http://www.w3.org/2000/svg"
   xmlns="http://www.w3.org/2000/svg"
   xmlns:sodipodi="http://sodipodi.sourceforge.net/DTD/sodipodi-0.dtd"
   xmlns:inkscape="http://www.inkscape.org/namespaces/inkscape"
   version="1.1"
   id="SvgMunicipio"
   x="0px"
   y="0px"
   width="1000.09px"
   height="978.769px"
   viewBox="64.805 117.946 1000.09 978.769"
   enable-background="new 64.805 117.946 1000.09 978.769"
   xml:space="preserve"
   inkscape:version="0.91 r13725"
   sodipodi:docname="MUN_ID0417.svg"><metadata
     id="metadata10"><rdf:RDF><cc:Work
         rdf:about=""><dc:format>image/svg+xml</dc:format><dc:type
           rdf:resource="http://purl.org/dc/dcmitype/StillImage" /></cc:Work></rdf:RDF></metadata><defs
     id="defs8" /><sodipodi:namedview
     pagecolor="#ffffff"
     bordercolor="#666666"
     borderopacity="1"
     objecttolerance="10"
     gridtolerance="10"
     guidetolerance="10"
     inkscape:pageopacity="0"
     inkscape:pageshadow="2"
     inkscape:window-width="682"
     inkscape:window-height="480"
     id="namedview6"
     showgrid="false"
     inkscape:zoom="0.24111921"
     inkscape:cx="500.04501"
     inkscape:cy="489.38449"
     inkscape:window-x="0"
     inkscape:window-y="0"
     inkscape:window-maximized="0"
     inkscape:current-layer="svg" /><g
     id="g3"><path
       id="MUN_0417"
       d="m 317.543,131.935 0.136,0 2.58,-0.407 0,0 7.741,-3.938 0.136,0 9.1,-2.852 0,0 6.79,-1.086 0.136,0 11.408,2.988 0,0 5.024,1.629 0,0 5.161,-0.407 0,0 5.976,1.766 0,0 4.753,2.988 0,0 2.173,0.271 0,0 0.815,-0.679 0.814,-1.086 0,0 329.742,101.856 4.074,1.223 42.915,50.792 103.623,122.768 0.95,-1.358 4.753,-2.309 3.124,-0.407 0.814,-0.136 5.433,-1.223 2.58,0.407 3.667,0.544 2.037,-1.494 3.396,-0.271 3.531,0.271 1.629,0.95 2.853,0.815 2.309,0 2.037,1.086 2.716,2.853 2.31,2.716 1.629,1.494 2.037,1.766 2.445,0.95 3.123,2.988 3.803,0.543 0.951,0 2.716,-2.037 2.309,-1.087 1.766,0.272 2.037,1.765 3.396,1.901 3.53,2.31 2.037,1.357 2.717,-0.407 3.53,-0.814 2.174,0.814 5.296,1.223 2.853,1.629 2.58,2.445 2.309,0.543 3.803,0 3.531,0.679 2.58,1.358 2.173,2.852 2.716,2.445 3.396,2.444 0.814,1.63 0.272,4.617 0.95,2.309 2.309,3.396 0.543,4.617 2.988,5.704 3.26,4.346 4.617,5.84 4.481,2.987 3.531,1.901 1.63,2.853 2.987,2.037 1.901,2.987 2.173,2.037 6.383,2.444 1.901,2.581 0.68,3.259 -0.136,3.803 0.814,3.124 1.358,1.766 1.086,1.766 1.63,3.259 1.63,3.803 0.136,3.531 0.814,5.16 1.63,5.161 2.444,2.173 3.26,0.407 2.987,1.494 1.766,2.58 -0.407,2.853 -3.26,3.938 0.951,3.395 1.086,2.853 3.531,3.531 1.358,2.852 0.679,2.444 1.63,0.543 2.987,1.087 1.358,1.63 2.173,0.679 0,1.901 0.271,3.803 0,5.84 1.901,3.803 1.087,4.21 -0.271,3.938 -0.136,1.493 -0.408,2.853 1.223,8.284 -4.753,1.494 -7.063,-0.271 -3.26,2.173 -1.222,5.024 2.58,2.173 5.704,3.396 2.173,1.358 1.901,5.16 1.087,1.901 1.901,2.173 3.53,3.803 3.26,2.716 2.58,2.853 3.26,2.852 0.407,3.396 -5.025,3.667 -8.284,4.346 -3.259,2.58 -0.136,5.297 -0.68,5.024 -0.95,3.803 -1.766,3.124 -3.123,3.259 -4.211,2.445 -6.111,4.481 -0.679,1.63 0.271,3.666 0.815,4.482 1.766,2.716 0.814,2.58 1.494,5.84 0.543,5.568 -1.087,2.037 -3.667,1.087 -2.987,1.086 -1.766,2.173 -1.766,2.853 -2.444,2.173 -3.803,5.024 -1.222,2.58 -0.136,4.347 -0.272,5.84 1.223,4.481 -0.136,4.481 -2.852,4.346 -4.618,5.84 -3.396,5.433 -1.493,6.247 -2.988,2.852 -4.074,4.481 -5.296,6.384 -5.297,7.469 -2.037,5.568 -1.358,4.617 0,4.754 0.271,5.024 0.544,5.161 -1.358,5.433 -1.223,6.654 -1.493,6.519 -1.087,6.247 -3.259,3.396 -4.618,0.679 -6.79,0.407 -8.964,2.31 -4.346,2.852 -2.987,1.494 -3.938,2.444 -3.396,1.63 -3.123,0.543 -4.347,0.271 -4.617,-0.271 -4.074,-0.543 -4.617,-4.21 -3.26,-1.766 -5.16,-0.815 -3.396,1.358 -4.889,3.124 -2.445,2.852 -3.123,1.901 -2.988,0.543 -3.938,-0.95 -2.987,-0.544 -6.791,1.901 -6.79,1.494 -7.334,1.494 -6.519,2.716 -8.827,6.519 -4.074,2.988 -4.481,1.63 -3.667,0.136 -5.568,-1.223 -5.704,-2.037 -11.544,-3.938 -7.469,-2.716 -7.877,-0.679 -3.396,1.086 -3.667,2.58 -2.716,4.482 -2.716,5.296 0.136,5.161 -1.494,8.963 -1.087,13.445 -1.765,8.42 -4.211,5.84 -3.259,3.667 -2.581,-1.087 -1.629,-1.086 -3.938,-0.68 -2.309,1.358 -2.717,4.617 -3.53,4.89 -3.26,2.987 -8.284,-2.58 -7.605,0 -5.433,-0.136 -9.234,-0.814 -2.853,2.173 -3.938,5.703 1.223,7.741 2.309,5.161 0.407,5.16 -1.493,5.704 -2.581,6.111 -4.481,5.297 -5.84,6.383 -7.197,3.938 -4.754,2.037 -4.074,6.247 -2.309,3.938 -1.901,1.494 -2.987,0.407 -4.074,-0.679 -5.976,-1.901 -7.198,-1.087 -4.21,0.407 -4.346,4.89 -2.717,2.037 -4.21,0.407 -7.197,0 -2.988,2.716 -2.037,6.111 -2.987,4.89 0.407,4.21 3.124,7.877 4.21,6.519 2.852,5.161 1.223,4.617 0.407,4.617 -1.358,1.766 -0.679,0.68 -3.938,0.95 -5.568,-3.531 -5.84,-5.024 -3.667,-1.358 -6.111,2.173 -5.432,-1.086 -5.84,-3.667 -3.531,-1.494 -8.827,0.679 -4.482,0.136 -4.074,2.853 -1.765,4.346 -0.544,5.025 0.544,6.654 3.259,6.926 1.087,5.161 1.493,8.284 0.951,6.383 0.95,5.976 2.581,9.1 -1.766,4.889 -1.63,2.173 -3.938,-1.223 -4.346,-5.024 -5.976,-8.013 -5.704,-8.148 -4.617,-4.074 -4.481,-1.358 -5.025,2.988 -1.63,5.024 -4.346,3.531 -6.111,1.901 -5.976,2.309 -4.753,1.358 -3.26,-0.951 -2.309,-2.716 -4.753,-5.161 -2.853,-2.852 -4.889,0 -3.803,0.136 -5.976,0.271 -3.667,-0.407 -5.84,-2.309 -5.024,0.543 -3.531,1.901 -2.716,6.519 -0.951,2.173 -1.223,1.358 -2.716,2.444 -4.21,-5.432 -11.68,-4.074 -9.506,-0.272 -10.322,2.853 -3.938,3.938 -5.976,5.16 -7.197,2.717 -11.001,0.136 -9.234,-2.037 -12.494,-3.124 -5.025,-3.259 -7.062,-5.704 -1.63,-8.284 -1.087,-10.322 3.396,-8.013 4.074,-6.383 6.519,-7.877 4.89,-7.062 6.247,-13.445 3.259,-10.186 4.074,-14.803 6.791,-8.828 6.247,-2.037 12.087,-1.357 7.334,-2.037 5.567,-2.309 3.531,-4.074 4.481,-4.89 0.68,-6.79 -2.037,-11.137 -0.815,-12.087 0,-9.099 1.63,-4.618 2.716,-2.716 4.347,-3.123 4.617,-2.445 1.63,-7.469 1.222,-10.729 0.68,-7.741 -1.63,-6.519 -2.581,-8.284 -1.629,-3.396 -8.557,-3.53 -5.567,-3.531 -5.025,-1.494 -6.79,-2.173 -9.371,-3.123 -4.753,-3.531 -2.037,-2.988 -1.494,-2.173 -2.852,-5.568 -5.568,-6.383 -3.803,-5.976 -1.766,-3.938 -3.531,-2.987 -2.444,-3.938 -2.444,-3.531 -2.309,-4.889 -4.618,-6.927 -7.197,-1.63 -3.531,-2.58 -3.667,-7.605 -1.086,-7.876 4.074,-6.655 -1.087,-4.21 -3.53,-3.531 -4.89,-2.852 -6.383,0 -7.198,1.223 -3.53,-1.901 -0.951,-5.84 0,-5.568 1.901,-6.79 2.988,-4.074 0.95,-8.557 0.95,-8.691 0.408,-15.211 4.21,-11.543 7.469,-10.321 2.988,-7.605 0,-10.186 -6.927,-6.52 -7.197,-4.21 0.679,-4.617 5.568,-2.852 8.148,-5.297 11.408,-8.42 0.271,-7.47 -1.358,-6.383 -6.79,-5.024 -9.507,-3.531 -9.914,0 -2.716,0.679 -8.964,2.173 -15.346,4.21 -12.902,3.26 -16.704,-1.494 -13.988,-6.247 -11.271,-6.383 -9.507,-4.89 -4.481,-2.173 -11.544,-5.432 -15.347,-5.704 -10.593,-4.481 -19.964,-3.26 -11.68,-3.124 -13.58,-4.21 -7.47,-2.444 -13.445,-1.086 -10.186,-1.63 -9.914,-1.63 -2.444,-0.407 -8.148,-1.494 -6.383,-2.444 -4.889,-4.89 -1.087,-5.296 -2.852,-8.42 -2.853,-8.421 -2.716,-3.259 -2.853,-4.074 -0.407,-7.334 3.531,-11.68 8.013,-17.791 -1.087,-10.457 -5.567,-2.987 -7.198,-0.271 -5.568,2.852 -6.247,1.358 -4.346,-2.444 -3.938,-2.037 -7.47,-10.865 -3.259,-5.568 -3.396,-8.556 -2.309,-7.062 -4.617,-6.791 -4.754,-7.197 -1.222,-6.655 2.444,-5.976 3.259,-6.79 0.544,-13.581 1.357,-21.593 2.445,-8.692 1.357,-7.198 -0.271,-6.519 -0.271,-7.741 2.309,-6.791 6.927,-10.05 6.247,-13.038 5.704,-8.827 3.938,-6.926 1.9,-9.371 0,-9.778 -0.679,-4.074 -2.987,-6.111 0,-1.63 0.271,-3.938 0.271,-3.938 6.111,-5.976 10.321,-8.42 10.186,-7.605 5.704,-4.753 9.099,-6.926 12.087,-9.371 5.568,-6.111 2.717,-6.79 3.53,-8.692 2.853,-7.062 1.222,-4.481 2.445,-7.063 3.938,-3.259 0,0 4.346,-6.383 5.704,-8.284 0.136,0 4.21,-5.161 0,0 5.024,-2.445 0,0 3.26,0 0,0 7.062,2.173 0,0 8.964,0 0,0 9.234,1.223 0,0 7.334,-6.383 0,0 13.174,-12.358 0,0 9.506,-4.889 0,0 11.815,-2.037 0,0 9.235,1.222 0,0 8.013,5.161 0.136,0 4.074,-1.901 0,0 1.901,-7.334 0,-0.136 1.63,-1.358 1.9,-1.358 9.507,-4.074 0.136,0 4.618,-5.432 0,0 3.53,-3.803 0.136,-0.136 4.754,0.407 0,0 3.53,3.124 0,0.136 -0.679,5.432 -0.136,0 -0.815,2.716 0,0 0.956,2.166 z"
       inkscape:connector-curvature="0"
       class="DEP_04 ZON_02" /></g></svg>