<?xml version="1.0" encoding="UTF-8" standalone="no"?>
<!-- Generator: Adobe Illustrator 16.0.0, SVG Export Plug-In . SVG Version: 6.00 Build 0)  -->

<svg
   xmlns:dc="http://purl.org/dc/elements/1.1/"
   xmlns:cc="http://creativecommons.org/ns#"
   xmlns:rdf="http://www.w3.org/1999/02/22-rdf-syntax-ns#"
   xmlns:svg="http://www.w3.org/2000/svg"
   xmlns="http://www.w3.org/2000/svg"
   xmlns:sodipodi="http://sodipodi.sourceforge.net/DTD/sodipodi-0.dtd"
   xmlns:inkscape="http://www.inkscape.org/namespaces/inkscape"
   version="1.1"
   id="SvgMunicipio"
   x="0px"
   y="0px"
   width="555.416px"
   height="999.956px"
   viewBox="64.762 117.771 555.416 999.956"
   enable-background="new 64.762 117.771 555.416 999.956"
   xml:space="preserve"
   inkscape:version="0.91 r13725"
   sodipodi:docname="MUN_ID0405.svg"><metadata
     id="metadata10"><rdf:RDF><cc:Work
         rdf:about=""><dc:format>image/svg+xml</dc:format><dc:type
           rdf:resource="http://purl.org/dc/dcmitype/StillImage" /></cc:Work></rdf:RDF></metadata><defs
     id="defs8" /><sodipodi:namedview
     pagecolor="#ffffff"
     bordercolor="#666666"
     borderopacity="1"
     objecttolerance="10"
     gridtolerance="10"
     guidetolerance="10"
     inkscape:pageopacity="0"
     inkscape:pageshadow="2"
     inkscape:window-width="1366"
     inkscape:window-height="705"
     id="namedview6"
     showgrid="false"
     inkscape:zoom="0.23601039"
     inkscape:cx="-465.90333"
     inkscape:cy="499.97801"
     inkscape:window-x="-8"
     inkscape:window-y="-8"
     inkscape:window-maximized="1"
     inkscape:current-layer="svg" /><g
     id="g3"><path
       id="MUN_0405"
       d="m 620.178,841.694 -330.826,235.936 -56.341,40.097 -0.258,-4.126 0,-0.129 -3.481,-4.255 0,-0.129 -1.418,-3.996 0,0 0,-3.868 0.129,0 3.353,-6.575 0,0 4.899,-5.802 0,-0.129 -0.903,-6.188 0,-0.129 -2.578,-5.286 0,-0.129 -9.541,-11.217 0,-0.129 2.45,-3.996 0,0 3.609,-10.701 0,0 -1.031,-7.606 0,0 -2.32,-17.276 -1.418,-10.572 0,-0.129 3.352,-4.512 0.129,0 2.966,-4.899 0.129,0 13.924,-7.349 0.129,0 8.509,1.934 -0.387,-1.289 -24.625,-124.286 -19.597,-105.204 -144.27,-120.806 0,-0.129 24.754,-137.179 5.802,-32.876 0.129,0 94.761,-208.861 0,0 19.081,-15.213 172.633,-136.92 75.551,197.258 6.704,17.147 119.902,66.784 9.54,101.208 10.572,109.458 2.063,31.2 3.61,52.731 10.314,148.137 z"
       class="DEP_04 ZON_02"
       inkscape:connector-curvature="0" /></g></svg>