<?xml version="1.0" encoding="UTF-8" standalone="no"?>
<!-- Generator: Adobe Illustrator 16.0.0, SVG Export Plug-In . SVG Version: 6.00 Build 0)  -->

<svg
   xmlns:dc="http://purl.org/dc/elements/1.1/"
   xmlns:cc="http://creativecommons.org/ns#"
   xmlns:rdf="http://www.w3.org/1999/02/22-rdf-syntax-ns#"
   xmlns:svg="http://www.w3.org/2000/svg"
   xmlns="http://www.w3.org/2000/svg"
   xmlns:sodipodi="http://sodipodi.sourceforge.net/DTD/sodipodi-0.dtd"
   xmlns:inkscape="http://www.inkscape.org/namespaces/inkscape"
   version="1.1"
   id="SvgMunicipio"
   x="0px"
   y="0px"
   width="840.787px"
   height="999.956px"
   viewBox="64.723 117.76 840.787 999.956"
   enable-background="new 64.723 117.76 840.787 999.956"
   xml:space="preserve"
   inkscape:version="0.91 r13725"
   sodipodi:docname="MUN_ID0409.svg"><metadata
     id="metadata10"><rdf:RDF><cc:Work
         rdf:about=""><dc:format>image/svg+xml</dc:format><dc:type
           rdf:resource="http://purl.org/dc/dcmitype/StillImage" /></cc:Work></rdf:RDF></metadata><defs
     id="defs8" /><sodipodi:namedview
     pagecolor="#ffffff"
     bordercolor="#666666"
     borderopacity="1"
     objecttolerance="10"
     gridtolerance="10"
     guidetolerance="10"
     inkscape:pageopacity="0"
     inkscape:pageshadow="2"
     inkscape:window-width="682"
     inkscape:window-height="480"
     id="namedview6"
     showgrid="false"
     inkscape:zoom="0.23601039"
     inkscape:cx="420.39349"
     inkscape:cy="499.978"
     inkscape:window-x="0"
     inkscape:window-y="0"
     inkscape:window-maximized="0"
     inkscape:current-layer="svg" /><g
     id="g3"><path
       id="MUN_0409"
       d="m 260.095,129.151 0.156,0 11.235,-1.093 0,0 19.662,-3.745 0,0 22.783,1.873 0,0 10.923,1.873 0,0.156 23.251,9.675 0,0 33.395,3.901 0,0 53.993,4.525 0.155,0 49.468,8.271 0,0 23.563,0.624 0,0 23.875,5.618 0.156,0.156 0.312,9.831 0,0 0.78,24.344 0,0 0.937,12.171 0,0 -5.149,26.06 0,0 -4.525,28.401 0,0 -0.78,8.427 0,0 -3.589,5.774 0,0 2.965,7.646 0,0 17.478,12.796 0.155,0.156 15.449,15.917 0,0 6.086,5.149 0.156,0 1.404,8.271 0,0 -0.78,7.022 0,0.156 -8.583,11.704 0,0 -4.057,13.108 0,0 4.837,13.576 0,0 13.265,6.554 0,0 16.697,0.312 0,0 8.738,1.717 0.156,0 12.64,5.93 0,0 8.583,5.462 0.156,0 13.42,1.092 0,0 23.407,-4.525 0,0 18.569,-10.299 0,0 19.35,-13.42 0,0 8.271,0 0.155,0 9.52,12.016 0,0 19.193,20.442 0.156,0 16.697,7.334 0.156,0 12.327,1.404 0,0 14.201,5.462 0,0 18.569,10.143 0,0 5.618,1.093 0.155,0 3.59,-7.022 0,0 0.312,-10.611 0,-0.156 3.745,-8.583 0,0 2.341,-3.121 0.156,0 19.193,3.745 0.156,0 15.293,8.427 0,0 8.583,13.264 0,0 1.872,14.513 0,0 4.525,16.229 0,0.156 6.555,5.93 8.738,8.114 0,0.156 8.271,4.369 0,0 4.213,0.469 9.52,6.554 7.49,3.589 4.058,3.277 1.092,3.745 -1.872,2.809 -3.745,1.561 -5.15,0.156 -2.652,1.404 -0.469,3.745 -0.624,3.59 -3.121,5.461 -0.78,2.341 0.78,5.306 1.093,3.121 1.717,5.462 0.78,4.525 -0.937,4.213 -0.78,2.81 -1.717,2.965 -1.716,2.496 -3.277,3.434 -3.745,2.341 -2.81,3.589 -0.624,1.717 0.313,3.589 0.937,2.652 0,2.81 -0.937,4.525 0,3.12 -0.156,2.186 0.468,3.589 1.873,4.837 2.185,2.966 1.561,3.433 -0.156,3.433 -2.341,3.901 -3.745,4.838 -1.092,3.121 -2.028,4.057 -2.029,3.745 -0.468,3.277 -2.185,1.717 -2.965,2.965 -3.901,3.745 -4.058,2.497 -1.872,2.185 -1.561,1.561 -1.249,0.312 -2.652,0.313 -2.653,0.78 -7.178,4.682 -5.618,2.652 -5.461,3.433 -2.029,2.186 -0.936,3.276 1.248,3.277 1.248,2.341 1.093,1.092 0.312,2.653 -1.404,2.652 -3.121,1.404 -3.589,1.873 -1.248,3.433 -0.156,5.774 -1.093,5.462 -2.185,3.745 -1.248,1.092 -2.028,0.469 -3.434,0.155 -4.369,1.561 -3.745,2.185 -2.497,2.965 -1.248,2.497 -1.561,1.717 -2.965,3.121 -1.404,3.745 -0.624,3.589 -1.405,2.497 -1.561,4.369 -1.872,5.93 -2.341,3.589 -3.589,3.59 -2.653,1.872 -5.306,2.185 -8.427,1.873 -8.27,2.028 -4.214,0.937 -1.561,2.028 -2.497,0.937 -3.9,0.78 -3.277,1.404 -2.965,3.121 -1.717,3.589 -0.624,0.78 -2.653,2.965 -4.057,3.745 -2.809,3.901 -2.029,5.149 -0.624,3.277 -2.028,1.561 -2.341,0.624 -1.717,1.717 -2.341,2.185 -2.185,2.652 -1.872,1.717 -1.093,2.497 -1.093,3.433 0.781,2.965 0.779,1.561 0.937,0.937 5.774,62.575 -122.808,95.024 -131.86,180.235 -83.642,-75.059 -58.05,-52.276 -1.561,-3.745 -0.78,-2.185 -2.029,-5.306 -1.561,-5.773 -1.404,-2.81 -1.872,-2.028 -2.965,-1.873 -2.341,-0.936 -2.185,-0.624 -1.873,-1.561 -2.028,-2.653 -2.652,-3.121 -5.15,-4.525 -3.589,-4.213 -5.306,-3.277 -2.965,-1.872 -2.497,-3.277 -2.34,-2.185 -0.78,-4.058 0.312,-7.802 -0.624,-5.931 -3.745,-5.93 -6.242,-4.837 -0.937,-1.873 -2.809,-2.965 -3.589,-3.433 -1.248,-2.029 -0.625,-2.341 -0.936,-2.185 -0.937,-1.872 -1.093,-0.937 -2.028,-0.624 -4.213,-0.313 -1.873,-0.468 -1.092,-1.404 -4.525,-2.341 -2.81,-0.937 -1.872,-0.937 -1.717,-2.028 -1.717,-2.185 -1.404,-3.434 -1.717,-1.404 -3.433,-0.936 -2.809,-0.78 -3.277,-0.78 -2.185,-0.313 -1.093,-0.78 -1.248,-1.404 -0.624,-2.028 -1.404,-2.653 -2.341,-1.561 -2.029,0 -1.716,0.624 -1.873,1.561 -2.028,1.249 -1.717,0 -2.341,-0.625 -1.716,-0.779 -1.405,-0.78 -2.185,-1.873 -2.965,-1.561 -3.121,-2.965 -2.028,-0.78 -2.965,-0.468 -4.838,-0.313 -2.185,-0.312 -1.404,-0.78 -1.717,-2.029 -2.652,-2.185 -4.993,-1.092 -2.186,-0.937 -2.496,-2.341 -3.121,-1.404 -5.93,0.312 -4.369,-0.78 -3.121,-1.404 -5.774,-2.652 -4.681,-2.341 -1.873,-2.809 -1.404,-4.682 -0.156,-7.959 0.624,-7.958 3.434,-4.525 0.468,-4.058 -0.78,-3.121 -3.589,-3.745 -4.994,-3.433 -1.872,-4.214 -1.717,-4.213 -2.809,-4.682 -2.497,-7.334 -3.433,-5.306 -2.965,-3.433 -4.058,-1.561 -4.369,-1.405 -3.277,-0.936 -3.433,-0.78 -2.965,-1.249 -2.497,-1.404 -2.028,-1.561 -0.78,-2.809 -2.341,-2.965 -3.277,-2.497 -2.497,-3.433 -1.56,-3.745 -0.78,-4.214 -0.313,-3.9 0.624,-3.277 1.249,-0.937 2.809,-0.468 2.965,-2.81 0.312,-4.837 0,-6.554 -0.155,-5.462 1.248,-4.994 3.121,-6.866 6.086,-11.703 1.872,-3.121 1.093,-7.178 -0.155,0 -0.937,-0.625 -2.496,-0.779 -3.59,-1.405 -1.872,-2.185 -1.561,-2.185 -0.468,-3.121 0.155,-5.306 -0.78,-1.872 -1.716,-2.653 -0.624,-2.028 1.56,-3.901 2.341,-4.213 2.029,-4.058 1.404,-5.462 0.312,-4.213 0.313,-1.404 0.156,-2.341 1.092,-3.277 -0.155,-3.121 1.092,-3.9 1.248,-4.525 0.313,-4.214 -1.404,-2.028 -1.873,-2.497 0.625,-2.809 2.496,-1.404 3.121,-1.717 1.093,-2.341 0.936,-2.965 -1.092,-2.809 -2.341,-0.937 -4.369,-1.404 -2.341,-1.093 -0.78,-4.057 -0.937,-3.434 -0.312,-3.433 0.624,-3.277 1.561,-4.369 0.624,-3.901 -0.313,-4.058 -2.028,-3.745 -4.214,-4.525 -3.433,-3.121 -2.185,-4.525 -1.093,-3.9 1.093,-4.525 1.561,-2.497 3.901,-3.745 4.369,-2.809 0.156,-2.653 -0.78,-2.185 -1.873,-2.652 -2.652,-3.745 -1.561,-3.746 -1.249,-4.057 0.937,-2.965 0.78,-2.81 2.028,-1.872 2.497,-2.185 3.589,-1.717 1.717,-0.78 1.717,-3.277 0.312,-2.965 3.277,-2.028 2.809,-0.937 2.965,-0.78 2.341,-2.341 1.093,-4.213 -0.937,-2.028 -2.185,-2.81 -2.028,-2.028 -4.214,-1.561 -3.121,0 0.469,-2.028 -0.624,-2.809 1.872,-2.185 3.589,-1.717 1.561,-2.497 -0.155,-5.306 0.624,-3.121 0.624,-4.057 0.78,-0.937 4.369,-2.497 5.773,-0.937 2.186,-0.155 1.248,0 0,-2.965 -0.468,-2.966 -1.405,-5.461 -0.624,-7.49 0,-4.525 1.093,-5.93 2.028,-6.086 0.624,-3.745 0.313,-4.525 -0.624,-3.434 2.341,-4.057 4.213,-5.15 -1.561,-0.468 -2.341,-1.873 -1.404,-2.029 -3.121,-2.341 -2.341,-2.341 -1.248,-3.433 -1.093,-5.618 -2.028,-2.185 -3.745,-6.554 0.937,-2.965 7.334,-2.185 5.462,-3.901 -0.78,-2.965 -2.965,-2.34 -2.185,-7.646 0.312,-4.369 2.029,-6.71 0.78,-4.837 -1.405,-1.561 -1.561,-2.341 -4.213,-2.965 -4.838,-3.433 -1.248,-2.809 2.965,-5.93 1.561,-5.618 0.156,-5.305 -1.561,-6.242 -2.497,-8.271 -0.468,-4.057 -0.156,-3.121 1.717,-2.965 0.78,-0.625 1.404,-1.248 -0.156,-2.029 -2.341,-3.277 -2.341,-3.745 -3.121,-3.589 -2.652,-3.277 -2.341,-2.497 -1.092,-3.277 -0.937,-3.121 -3.121,-4.058 -3.434,-3.121 -2.809,-4.213 -3.901,-1.249 -4.525,0.468 -3.589,-2.185 -2.185,-2.965 -0.313,-2.497 0.469,-2.653 1.716,-3.121 -0.624,-2.185 -2.028,-4.681 1.561,-2.185 5.773,-2.809 5.306,-3.901 4.838,-3.745 4.369,-1.716 6.398,1.404 0,0 18.569,1.404 0,0 19.662,-2.965 0,0 10.299,-7.646 0,0 4.525,-14.044 0,0 2.81,-10.923 0,-0.156 12.796,-6.866 0,0 19.506,-3.745 0,0 15.137,-3.433 0,0 6.241,-4.213 0,0 3.901,-13.264 0,0 0.624,-5.306 0,-0.156 13.732,-6.554 0.156,0 10.144,-1.404 0.155,0 16.854,5.773 0,0 12.016,5.632 z"
       inkscape:connector-curvature="0"
       class="DEP_04 ZON_02" /></g></svg>