<?xml version="1.0" encoding="UTF-8" standalone="no"?>
<!-- Generator: Adobe Illustrator 16.0.0, SVG Export Plug-In . SVG Version: 6.00 Build 0)  -->

<svg
   xmlns:dc="http://purl.org/dc/elements/1.1/"
   xmlns:cc="http://creativecommons.org/ns#"
   xmlns:rdf="http://www.w3.org/1999/02/22-rdf-syntax-ns#"
   xmlns:svg="http://www.w3.org/2000/svg"
   xmlns="http://www.w3.org/2000/svg"
   xmlns:sodipodi="http://sodipodi.sourceforge.net/DTD/sodipodi-0.dtd"
   xmlns:inkscape="http://www.inkscape.org/namespaces/inkscape"
   version="1.1"
   id="SvgMunicipio"
   x="0px"
   y="0px"
   width="800.359px"
   height="999.966px"
   viewBox="64.59 117.864 800.359 999.966"
   enable-background="new 64.59 117.864 800.359 999.966"
   xml:space="preserve"
   inkscape:version="0.91 r13725"
   sodipodi:docname="MUN_ID0410.svg"><metadata
     id="metadata10"><rdf:RDF><cc:Work
         rdf:about=""><dc:format>image/svg+xml</dc:format><dc:type
           rdf:resource="http://purl.org/dc/dcmitype/StillImage" /></cc:Work></rdf:RDF></metadata><defs
     id="defs8" /><sodipodi:namedview
     pagecolor="#ffffff"
     bordercolor="#666666"
     borderopacity="1"
     objecttolerance="10"
     gridtolerance="10"
     guidetolerance="10"
     inkscape:pageopacity="0"
     inkscape:pageshadow="2"
     inkscape:window-width="682"
     inkscape:window-height="480"
     id="namedview6"
     showgrid="false"
     inkscape:zoom="0.23600802"
     inkscape:cx="400.1795"
     inkscape:cy="499.983"
     inkscape:window-x="0"
     inkscape:window-y="0"
     inkscape:window-maximized="0"
     inkscape:current-layer="svg" /><g
     id="g3"><path
       id="MUN_0410"
       d="m 570.74,203.241 0.322,2.896 -1.717,1.502 -3.539,0.107 -2.038,1.287 -1.395,0.965 -0.107,2.36 0,3.647 1.395,2.896 1.823,2.038 2.146,1.18 1.395,1.18 2.252,1.716 3.754,2.36 3.647,0.644 2.896,-0.107 2.359,-0.322 2.682,1.073 1.502,1.287 1.501,2.038 0.644,2.574 1.073,3.111 1.716,1.287 2.789,2.467 2.359,1.823 3.003,3.218 1.073,-1.716 0.214,-2.467 0.322,-3.003 -0.536,-2.146 -1.931,-1.18 -1.502,-0.858 -1.608,-1.823 -1.287,-2.467 -0.644,-2.359 -1.073,-3.111 -0.429,-4.183 -0.215,-3.968 95.46,-34.323 1.287,1.824 1.072,5.792 2.574,3.111 2.574,2.789 3.218,1.716 4.612,3.432 4.72,2.574 3.861,1.823 1.608,3.11 0.965,3.111 0.537,2.681 4.183,3.861 2.574,2.896 2.467,6.114 0.644,0.858 0.966,3.433 -0.107,1.823 -0.215,2.252 0.43,2.038 0.75,0.644 0.751,0.751 0.215,0.965 0,0.214 1.608,2.36 0.858,4.505 -0.751,2.252 -1.502,0.536 -2.037,-0.536 -1.717,0.536 0.751,2.467 1.823,1.931 -0.321,2.146 -0.429,1.287 0.643,1.931 2.038,3.218 0.644,2.467 -0.321,1.609 -1.609,2.359 -1.394,1.287 -0.322,1.18 0.965,1.501 0.43,1.609 -0.43,3.11 -0.106,2.789 0.751,2.467 1.394,3.003 1.395,4.076 0.858,2.038 0.751,1.501 0,1.716 -0.107,1.395 -0.751,0.858 -1.072,0.107 -2.36,0.322 -1.608,0 -0.322,0.965 0.43,1.18 1.18,1.395 0.321,0.644 -0.106,1.394 1.394,1.18 1.395,0.214 2.682,0.858 3.433,0 2.037,0.107 1.18,0.644 1.395,0.965 0.537,1.501 -0.322,1.823 0.322,1.287 1.072,0 1.716,-1.394 0.858,-0.858 1.072,-0.215 1.287,1.501 -0.215,2.36 -0.321,2.252 -1.18,2.467 -0.43,2.252 0.644,1.824 0.215,1.823 -0.215,0.965 -1.18,1.394 -1.501,0.215 -1.717,0.214 -0.214,0.751 0,0.536 0.857,0.644 0.966,-0.107 1.823,0.107 0.751,0.644 0,0.107 0.321,1.072 -0.751,0.858 -1.716,1.072 -1.18,0.751 -0.215,1.18 0.644,1.18 1.502,1.287 1.608,1.072 3.111,1.824 2.252,1.072 2.467,0.322 0.644,0.429 0.966,0.322 1.395,0.644 0.536,0.429 1.287,0.215 0.965,0.322 0.858,0.214 0.536,0.536 0.644,0.215 0.751,1.072 0.214,0.644 1.824,0.644 2.574,0.107 2.252,0.429 2.146,-0.537 3.218,-0.214 2.788,-0.214 3.004,0 4.611,0.429 4.291,0.644 3.539,0.322 3.754,0.215 3.861,0.107 0.215,0.215 1.287,1.287 1.823,1.609 1.072,1.287 1.931,1.287 1.073,0.75 0.857,1.287 0.644,2.145 0.215,2.467 -0.215,1.823 0.215,1.716 0.215,1.394 0.321,0.751 0.429,0.536 1.181,0.215 1.287,-0.644 0.857,-0.965 0.644,-0.965 0.858,-0.751 0.644,-0.644 1.501,-0.214 0.537,-0.644 0.321,-1.716 0.215,-0.751 0.214,-0.858 0.537,-0.536 1.18,-0.322 1.072,0.322 0.966,0.75 0.75,0.965 -0.106,2.146 0,1.823 0.321,1.073 0.429,0.858 0.966,1.287 0.965,0.751 0.644,1.608 -0.75,0.858 -2.146,1.18 -0.966,1.609 -0.536,1.716 -1.287,3.325 0,1.18 0.536,1.072 0.43,0.858 1.072,0.107 1.823,-0.536 0.858,1.073 -0.429,1.823 -0.43,1.609 -1.823,1.18 -1.287,0 -0.536,-0.214 -0.966,0.214 -0.429,0.751 -0.321,1.394 -0.43,1.824 -0.644,1.18 -1.072,1.395 -1.287,1.716 -0.215,1.394 1.073,1.287 1.18,1.502 0.965,1.716 1.287,2.36 1.395,2.359 0,2.146 -0.965,2.467 -3.969,1.287 -1.502,0.644 -0.965,2.252 -0.107,2.574 0,1.609 0.215,2.252 1.18,3.861 0.965,2.574 1.502,2.574 1.608,2.574 1.609,2.682 2.038,2.682 2.788,3.646 2.682,2.789 0.858,1.072 1.823,2.038 0.536,2.574 0.858,2.359 0.857,2.038 1.717,2.682 1.287,1.501 0.965,1.18 2.038,0.322 2.896,-0.536 3.325,-0.536 0.644,0 3.754,0.429 0.751,0.429 0.751,1.717 1.072,1.608 0.536,1.502 7.187,-2.36 1.823,0 0.215,0.966 0.644,2.682 0.107,1.823 0.321,2.038 0.43,3.003 -2.146,1.18 -2.146,1.931 0,2.682 -1.18,1.608 -1.931,0.43 -3.861,-1.073 -1.823,0.537 -1.18,0.75 -0.322,1.717 0.43,3.754 -0.536,2.146 -3.754,3.754 -0.537,2.037 -1.501,3.218 -1.073,2.574 -0.75,2.038 -3.433,3.325 -4.612,4.397 -3.432,2.146 -4.827,1.931 -2.896,1.716 -3.218,1.287 -2.146,1.823 -0.536,1.609 0.107,3.218 0.75,3.754 -1.501,3.218 -3.861,2.788 -7.615,3.433 -4.184,5.041 -5.792,3.969 -6.113,4.076 -6.328,7.078 -3.969,10.189 -1.502,6.222 -1.18,10.297 -1.18,7.615 -2.682,7.937 -1.501,4.72 -2.896,1.287 -7.508,1.502 -1.395,1.823 0,2.467 0.107,3.754 0.429,3.11 0.751,4.612 -0.965,5.792 -3.647,3.861 -12.871,1.501 -6.972,6.758 -0.536,9.438 1.395,12.12 2.038,11.477 2.896,10.833 1.395,13.622 2.896,17.161 0,9.331 8.58,12.979 1.502,15.767 0,16.409 -2.253,18.663 3.755,24.454 5.47,4.291 0,0 9.331,3.968 0.107,0 4.72,3.861 0,0.107 1.716,7.508 0,0 -2.038,10.727 0,0 -3.646,7.615 -0.107,0 -4.183,0.857 0,0 -5.792,-2.037 0,0 -7.079,0.321 0,0 -2.896,3.003 0,0 -2.145,8.045 0,0.107 1.931,4.505 0.107,0.106 3.432,1.502 0,0 6.864,0.644 0.107,0 3.433,2.682 0,0 0.965,1.608 0,0.107 -0.965,4.72 0,0.107 -6.972,7.079 0,0 -4.397,6.113 0,0 -0.858,4.612 0,0 0.858,3.432 0.106,0.107 2.574,0.43 0.107,0 3.325,-2.468 0.107,0 3.433,2.574 0,0.107 1.18,4.612 0,0.107 -2.896,7.83 -0.107,0 -3.432,8.151 0,0 -2.574,5.041 0,0 -1.502,2.359 0,0 -6.649,5.256 -0.107,0 -3.433,-1.716 0,0 -2.359,-0.644 -0.107,0 -3.539,1.716 0,0 -3.325,2.146 -0.107,0 -4.397,-0.751 -0.107,0 -6.543,2.038 0,0 -8.474,2.682 0,0 -9.652,-0.43 0,0 -6.758,0.751 0,0 -3.325,4.29 -0.107,0.107 -0.965,5.792 0,0 1.823,6.757 0,0 5.792,6.543 0,0 8.474,3.754 0,0 6.864,4.505 0.107,0 2.682,-0.107 0,0 5.256,-5.255 0,0 2.467,-3.11 0,0 5.148,-0.107 0,0 5.898,3.646 0,0 5.471,0.429 0.107,0 4.611,-1.608 0,0 2.896,-0.751 0.107,0 5.148,0.966 0.107,0.106 1.072,5.256 0,0 1.18,8.902 0,0 1.395,4.076 0,0 2.038,2.467 0.106,0.107 0.322,5.577 0,0 -0.751,10.94 0,0 0.751,9.653 0,0 -0.858,6.972 0,0 -3.003,6.328 -2.146,4.72 0,0.107 1.823,5.791 0,0 -0.106,5.042 0,0 -0.858,5.47 0,0 -4.934,8.581 0,0 -6.222,7.829 0,0.107 -5.255,4.72 0,0 -7.615,6.543 0,0 -1.824,4.397 0,0 -0.429,4.505 0,0 0,5.255 -0.107,0 -2.359,6.865 0,0 -7.294,6.436 3.325,16.518 -7.4,-6.436 -6.758,-5.792 -11.369,-9.653 -20.486,-21.988 -14.479,-14.479 -14.051,-24.776 -13.193,-18.556 -10.082,-12.228 -6.328,-6.972 -6.543,-7.079 -10.403,-12.228 -16.196,-9.546 -4.72,-1.823 -5.577,-2.253 -9.653,-2.574 -13.3,-7.829 -11.369,-4.505 -2.574,-2.038 -9.976,-7.508 -8.151,-0.215 -6.221,3.539 -3.54,3.755 0,2.788 -4.075,8.366 -15.017,31.319 -6.864,5.471 -5.792,0.214 -13.3,-5.256 -15.874,-5.685 -26.278,-10.082 -14.802,-7.079 -11.262,-3.646 -9.653,-0.966 -20.916,-7.508 -10.403,1.072 -11.477,5.042 -8.796,10.939 -8.58,8.26 -5.899,2.681 -6.972,2.36 -7.4,-0.43 -5.471,-1.716 -6.221,-2.467 -4.826,-3.433 -3.969,-5.685 -2.789,-4.397 -4.075,-7.294 -3.754,-10.833 -4.72,-30.246 -11.799,-15.874 -7.508,-10.94 -47.944,-28.639 -4.612,-4.934 -2.574,-4.612 -1.608,-6.864 -12.12,-19.307 -11.155,-17.269 -18.126,-27.028 -9.976,-13.729 -14.587,-16.196 -12.335,-22.31 -6.757,-15.981 4.29,-17.375 9.117,-23.704 8.474,-25.313 5.041,-27.136 2.574,-31.749 L 141.07,570.058 129.271,550.644 117.58,534.126 99.454,510.422 92.696,499.482 79.289,480.39 68.349,463.872 64.59,451.65 l 5.363,-11.369 5.041,-8.902 2.146,-7.187 1.608,-8.044 -1.608,-8.366 -0.858,-9.868 0.321,-7.186 3.004,-8.474 3.11,-4.076 5.685,-7.615 4.183,-6.865 1.717,-6.328 -2.574,-3.861 -5.041,-1.609 -5.899,0.429 -7.079,0.322 -4.397,0.751 1.501,-0.751 128.495,-58.67 -56.847,-106.293 192.636,16.839 78.62,-37.54 89.346,-42.582 1.18,-0.536 13.729,-6.006 0.214,1.716 0.858,1.716 1.716,1.18 1.931,1.073 2.467,0.644 2.038,0.75 2.359,1.824 3.004,2.359 2.788,3.54 1.395,4.827 0.536,3.54 -0.321,3.11 1.501,3.861 1.395,3.218 -0.107,2.038 -1.823,3.968 -2.145,3.861 -1.287,3.754 -0.644,3.003 0.751,1.502 3.646,3.11 1.501,1.823 1.395,2.038 1.717,2.681 3.218,6.114 3.539,3.11 3.218,1.395 3.218,0.429 2.146,0.536 3.003,0.536 2.359,1.824 2.253,1.394 2.252,2.896 2.253,2.896 0.424,3.112 z"
       inkscape:connector-curvature="0"
       class="DEP_04 ZON_02" /></g></svg>